# https://github.com/mikedh/trimesh
v 0.09769960 0.02779196 0.01477352 0.56470588 0.92549020 0.07058824
v 0.10004293 0.02774584 0.01477352 0.56470588 0.92549020 0.07058824
v 0.10046603 0.02774072 0.01434871 0.56470588 0.92549020 0.07058824
v 0.09812270 0.02778172 0.01434871 0.56470588 0.92549020 0.07058824
v 0.08644942 0.02776122 0.01477352 0.56470588 0.92549020 0.07058824
v 0.11633778 0.02721804 0.01477352 0.56470588 0.92549020 0.07058824
v 0.10279852 0.02738202 0.01286933 0.56470588 0.92549020 0.07058824
v 0.10046603 0.02743326 0.01279629 0.56470588 0.92549020 0.07058824
v 0.11673918 0.02718217 0.01438747 0.56470588 0.92549020 0.07058824
v 0.09812270 0.02744351 0.01276499 0.56470588 0.92549020 0.07058824
v 0.08644942 0.02773560 0.01434871 0.56470588 0.92549020 0.07058824
v 0.08601547 0.02775097 0.01477352 0.56470588 0.92549020 0.07058824
v 0.12382343 0.02648014 0.01477352 0.56470588 0.92549020 0.07058824
v 0.12382343 0.02652113 0.01434871 0.56470588 0.92549020 0.07058824
v 0.11914761 0.02643402 0.01201226 0.56470588 0.92549020 0.07058824
v 0.11680427 0.02653138 0.01201226 0.56470588 0.92549020 0.07058824
v 0.10279852 0.02678760 0.01170073 0.56470588 0.92549020 0.07058824
v 0.11914761 0.02695670 0.01434871 0.56470588 0.92549020 0.07058824
v 0.12382343 0.02603945 0.01201226 0.56470588 0.92549020 0.07058824
v 0.09812270 0.02677222 0.01159714 0.56470588 0.92549020 0.07058824
v 0.09579021 0.02676710 0.01162546 0.56470588 0.92549020 0.07058824
v 0.08644942 0.02738202 0.01292895 0.56470588 0.92549020 0.07058824
v 0.08410609 0.02765873 0.01434871 0.56470588 0.92549020 0.07058824
v 0.08410609 0.02768948 0.01477352 0.56470588 0.92549020 0.07058824
v 0.13507360 0.02535279 0.01477352 0.56470588 0.92549020 0.07058824
v 0.13549671 0.02533741 0.01434871 0.56470588 0.92549020 0.07058824
v 0.13734099 0.02498896 0.01296100 0.56470588 0.92549020 0.07058824
v 0.12382343 0.02524005 0.01038308 0.56470588 0.92549020 0.07058824
v 0.12148010 0.02533741 0.01026607 0.56470588 0.92549020 0.07058824
v 0.11914761 0.02542453 0.01020496 0.56470588 0.92549020 0.07058824
v 0.10279852 0.02561925 0.01002609 0.56470588 0.92549020 0.07058824
v 0.12615591 0.02511707 0.01053586 0.56470588 0.92549020 0.07058824
v 0.13549671 0.02509145 0.01265544 0.56470588 0.92549020 0.07058824
v 0.13549671 0.02462001 0.01148758 0.56470588 0.92549020 0.07058824
v 0.13316422 0.02474812 0.01122003 0.56470588 0.92549020 0.07058824
v 0.08878191 0.02363102 0.00716124 0.56470588 0.92549020 0.07058824
v 0.08644942 0.02360027 0.00716124 0.56470588 0.92549020 0.07058824
v 0.08177361 0.02337992 0.00716124 0.56470588 0.92549020 0.07058824
v 0.08410609 0.02732053 0.01305118 0.56470588 0.92549020 0.07058824
v 0.08292358 0.02724879 0.01317117 0.56470588 0.92549020 0.07058824
v 0.08199058 0.02739227 0.01447615 0.56470588 0.92549020 0.07058824
v 0.08145899 0.02735640 0.01477352 0.56470588 0.92549020 0.07058824
v 0.08368299 0.02764848 0.01477352 0.56470588 0.92549020 0.07058824
v 0.13551840 0.02530667 0.01477352 0.56470588 0.92549020 0.07058824
v 0.13856690 0.02497359 0.01477352 0.56470588 0.92549020 0.07058824
v 0.13800276 0.02504020 0.01436064 0.56470588 0.92549020 0.07058824
v 0.13889237 0.02489160 0.01358927 0.56470588 0.92549020 0.07058824
v 0.15102129 0.02264202 0.01295280 0.56470588 0.92549020 0.07058824
v 0.14017252 0.02419469 0.01201226 0.56470588 0.92549020 0.07058824
v 0.12785917 0.02239605 0.00716124 0.56470588 0.92549020 0.07058824
v 0.15041375 0.02043856 0.00716124 0.56470588 0.92549020 0.07058824
v 0.14503277 0.02091512 0.00716124 0.56470588 0.92549020 0.07058824
v 0.11914761 0.02303147 0.00716124 0.56470588 0.92549020 0.07058824
v 0.11685852 0.02313395 0.00716124 0.56470588 0.92549020 0.07058824
v 0.11668494 0.02313908 0.00716124 0.56470588 0.92549020 0.07058824
v 0.10534798 0.02336455 0.00716124 0.56470588 0.92549020 0.07058824
v 0.15641313 0.01980827 0.00716124 0.56470588 0.92549020 0.07058824
v 0.15185664 0.02029508 0.00716124 0.56470588 0.92549020 0.07058824
v 0.07944112 0.02313395 0.00716124 0.56470588 0.92549020 0.07058824
v 0.07753174 0.02275475 0.00716124 0.56470588 0.92549020 0.07058824
v 0.07743410 0.02273426 0.00716124 0.56470588 0.92549020 0.07058824
v 0.07638177 0.02244217 0.00716124 0.56470588 0.92549020 0.07058824
v 0.08136135 0.02704381 0.01378230 0.56470588 0.92549020 0.07058824
v 0.08078637 0.02720267 0.01477352 0.56470588 0.92549020 0.07058824
v 0.13949990 0.02481986 0.01477352 0.56470588 0.92549020 0.07058824
v 0.15653247 0.02182725 0.01434871 0.56470588 0.92549020 0.07058824
v 0.15653247 0.02135581 0.01201226 0.56470588 0.92549020 0.07058824
v 0.15674944 0.01975703 0.00716124 0.56470588 0.92549020 0.07058824
v 0.07477615 0.02185800 0.00716124 0.56470588 0.92549020 0.07058824
v 0.07988592 0.02679272 0.01477352 0.56470588 0.92549020 0.07058824
v 0.07234603 0.02078189 0.00716124 0.56470588 0.92549020 0.07058824
v 0.15653247 0.02182213 0.01477352 0.56470588 0.92549020 0.07058824
v 0.15886495 0.02128920 0.01477352 0.56470588 0.92549020 0.07058824
v 0.15886495 0.02128408 0.01434871 0.56470588 0.92549020 0.07058824
v 0.16237995 0.02023359 0.01317490 0.56470588 0.92549020 0.07058824
v 0.15886495 0.01929584 0.00716124 0.56470588 0.92549020 0.07058824
v 0.07951706 0.02656725 0.01477352 0.56470588 0.92549020 0.07058824
v 0.07211820 0.02067428 0.00716124 0.56470588 0.92549020 0.07058824
v 0.16277050 0.02031045 0.01477352 0.56470588 0.92549020 0.07058824
v 0.16261862 0.02030533 0.01434871 0.56470588 0.92549020 0.07058824
v 0.16297663 0.02024384 0.01477352 0.56470588 0.92549020 0.07058824
v 0.16388793 0.01983389 0.01477352 0.56470588 0.92549020 0.07058824
v 0.16379029 0.01977752 0.01434871 0.56470588 0.92549020 0.07058824
v 0.16347568 0.01909599 0.01209797 0.56470588 0.92549020 0.07058824
v 0.16131677 0.01836834 0.00716124 0.56470588 0.92549020 0.07058824
v 0.15904937 0.01922922 0.00716124 0.56470588 0.92549020 0.07058824
v 0.07790059 0.02539378 0.01477352 0.56470588 0.92549020 0.07058824
v 0.07036070 0.01953156 0.00716124 0.56470588 0.92549020 0.07058824
v 0.05484696 0.00870899 0.00716124 0.56470588 0.92549020 0.07058824
v 0.16497281 0.01892176 0.01477352 0.56470588 0.92549020 0.07058824
v 0.16496195 0.01826585 0.01257867 0.56470588 0.92549020 0.07058824
v 0.16162054 0.01814799 0.00716124 0.56470588 0.92549020 0.07058824
v 0.07272573 0.02091000 0.01477352 0.56470588 0.92549020 0.07058824
v 0.05484696 -0.00664348 0.00716124 0.56470588 0.92549020 0.07058824
v 0.05484696 0.00777124 0.00796912 0.56470588 0.92549020 0.07058824
v 0.07158661 0.01984414 0.01477352 0.56470588 0.92549020 0.07058824
v 0.16516809 0.01870654 0.01477352 0.56470588 0.92549020 0.07058824
v 0.16516809 0.01860918 0.01434871 0.56470588 0.92549020 0.07058824
v 0.16563458 0.01672855 0.01434871 0.56470588 0.92549020 0.07058824
v 0.16503790 0.01664656 0.01188482 0.56470588 0.92549020 0.07058824
v 0.16393132 0.01439186 0.00716124 0.56470588 0.92549020 0.07058824
v 0.16386623 0.01457634 0.00716124 0.56470588 0.92549020 0.07058824
v 0.16458224 0.01736909 0.01102104 0.56470588 0.92549020 0.07058824
v 0.16295493 0.01686179 0.00716124 0.56470588 0.92549020 0.07058824
v 0.16269456 0.01716412 0.00716124 0.56470588 0.92549020 0.07058824
v 0.07428795 -0.01986423 0.01477352 0.56470588 0.92549020 0.07058824
v 0.07315969 -0.01888549 0.01477352 0.56470588 0.92549020 0.07058824
v 0.05484696 -0.00652562 0.00729315 0.56470588 0.92549020 0.07058824
v 0.07535114 -0.01744556 0.00716124 0.56470588 0.92549020 0.07058824
v 0.07490634 -0.02022294 0.01477352 0.56470588 0.92549020 0.07058824
v 0.05484696 0.00715632 0.00837902 0.56470588 0.92549020 0.07058824
v 0.07081635 0.01870654 0.01477352 0.56470588 0.92549020 0.07058824
v 0.05484696 0.00660289 0.00870695 0.56470588 0.92549020 0.07058824
v 0.16528742 0.01826585 0.01477352 0.56470588 0.92549020 0.07058824
v 0.16566713 0.01672855 0.01477352 0.56470588 0.92549020 0.07058824
v 0.16556949 0.01205517 0.01434871 0.56470588 0.92549020 0.07058824
v 0.16420254 0.00971848 0.00716124 0.56470588 0.92549020 0.07058824
v 0.16420254 0.00989783 0.00716124 0.56470588 0.92549020 0.07058824
v 0.16418084 0.01205517 0.00716124 0.56470588 0.92549020 0.07058824
v 0.07165170 -0.01614910 0.01477352 0.56470588 0.92549020 0.07058824
v 0.05484696 -0.00422480 0.00885824 0.56470588 0.92549020 0.07058824
v 0.05484696 -0.00529066 0.00841703 0.56470588 0.92549020 0.07058824
v 0.07695675 -0.01809634 0.00716124 0.56470588 0.92549020 0.07058824
v 0.07936518 -0.02224704 0.01477352 0.56470588 0.92549020 0.07058824
v 0.07744495 -0.02138616 0.01477352 0.56470588 0.92549020 0.07058824
v 0.07012203 0.01716412 0.01477352 0.56470588 0.92549020 0.07058824
v 0.05484696 0.00504510 0.00918169 0.56470588 0.92549020 0.07058824
v 0.16556949 0.01205517 0.01477352 0.56470588 0.92549020 0.07058824
v 0.16547185 0.00971848 0.01477352 0.56470588 0.92549020 0.07058824
v 0.16546100 0.00971848 0.01434871 0.56470588 0.92549020 0.07058824
v 0.16508130 0.00971848 0.01201226 0.56470588 0.92549020 0.07058824
v 0.16412660 0.00738179 0.00716124 0.56470588 0.92549020 0.07058824
v 0.07122860 -0.01530871 0.01477352 0.56470588 0.92549020 0.07058824
v 0.05484696 -0.00195985 0.00956998 0.56470588 0.92549020 0.07058824
v 0.07927839 -0.01887524 0.00716124 0.56470588 0.92549020 0.07058824
v 0.07944112 -0.02227779 0.01477352 0.56470588 0.92549020 0.07058824
v 0.06993760 0.01672855 0.01477352 0.56470588 0.92549020 0.07058824
v 0.05484696 0.00381526 0.00944179 0.56470588 0.92549020 0.07058824
v 0.16400726 -0.01363818 0.01477352 0.56470588 0.92549020 0.07058824
v 0.16400726 -0.01363818 0.01434871 0.56470588 0.92549020 0.07058824
v 0.16380114 -0.01363818 0.01201226 0.56470588 0.92549020 0.07058824
v 0.16351907 -0.01363818 0.00967655 0.56470588 0.92549020 0.07058824
v 0.16312851 -0.01345883 0.00716124 0.56470588 0.92549020 0.07058824
v 0.07102248 -0.01487314 0.01477352 0.56470588 0.92549020 0.07058824
v 0.05484696 0.00037684 0.00982859 0.56470588 0.92549020 0.07058824
v 0.07063192 -0.01378166 0.01477352 0.56470588 0.92549020 0.07058824
v 0.06990505 -0.01130662 0.01477352 0.56470588 0.92549020 0.07058824
v 0.08210992 -0.01966439 0.00716124 0.56470588 0.92549020 0.07058824
v 0.07947367 -0.02228804 0.01477352 0.56470588 0.92549020 0.07058824
v 0.06934092 0.01477106 0.01477352 0.56470588 0.92549020 0.07058824
v 0.05484696 0.00270841 0.00962289 0.56470588 0.92549020 0.07058824
v 0.16341059 -0.01597487 0.01477352 0.56470588 0.92549020 0.07058824
v 0.16342143 -0.01597487 0.01434871 0.56470588 0.92549020 0.07058824
v 0.16331295 -0.01597487 0.01201226 0.56470588 0.92549020 0.07058824
v 0.16306342 -0.01597487 0.00967655 0.56470588 0.92549020 0.07058824
v 0.16311766 -0.01363818 0.00716124 0.56470588 0.92549020 0.07058824
v 0.05484696 0.00148369 0.00977195 0.56470588 0.92549020 0.07058824
v 0.06841877 -0.00442978 0.01477352 0.56470588 0.92549020 0.07058824
v 0.06791973 -0.00192398 0.01477352 0.56470588 0.92549020 0.07058824
v 0.06757257 0.00042808 0.01477352 0.56470588 0.92549020 0.07058824
v 0.06744238 0.00270841 0.01477352 0.56470588 0.92549020 0.07058824
v 0.06745323 0.00302099 0.01477352 0.56470588 0.92549020 0.07058824
v 0.06754002 0.00503485 0.01477352 0.56470588 0.92549020 0.07058824
v 0.06760511 0.00556265 0.01477352 0.56470588 0.92549020 0.07058824
v 0.08394336 -0.02014095 0.00716124 0.56470588 0.92549020 0.07058824
v 0.08411694 -0.02018194 0.00716124 0.56470588 0.92549020 0.07058824
v 0.08155663 -0.02250326 0.01412587 0.56470588 0.92549020 0.07058824
v 0.08161087 -0.02277485 0.01477352 0.56470588 0.92549020 0.07058824
v 0.16267286 -0.01778888 0.01477352 0.56470588 0.92549020 0.07058824
v 0.16268371 -0.01781450 0.01434871 0.56470588 0.92549020 0.07058824
v 0.16264032 -0.01772739 0.01201226 0.56470588 0.92549020 0.07058824
v 0.16249928 -0.01743531 0.00967655 0.56470588 0.92549020 0.07058824
v 0.16241249 -0.01722521 0.00840138 0.56470588 0.92549020 0.07058824
v 0.16264032 -0.01578527 0.00716124 0.56470588 0.92549020 0.07058824
v 0.08626500 -0.02051502 0.00716124 0.56470588 0.92549020 0.07058824
v 0.08878191 -0.02298495 0.01201226 0.56470588 0.92549020 0.07058824
v 0.08882531 -0.02389707 0.01477352 0.56470588 0.92549020 0.07058824
v 0.08644942 -0.02342051 0.01434871 0.56470588 0.92549020 0.07058824
v 0.08893379 -0.02386121 0.01452534 0.56470588 0.92549020 0.07058824
v 0.16221722 -0.01874201 0.01477352 0.56470588 0.92549020 0.07058824
v 0.16211958 -0.01898285 0.01434871 0.56470588 0.92549020 0.07058824
v 0.16207618 -0.01889574 0.01201226 0.56470588 0.92549020 0.07058824
v 0.16185921 -0.01860365 0.00967655 0.56470588 0.92549020 0.07058824
v 0.16003662 -0.02182172 0.01084217 0.56470588 0.92549020 0.07058824
v 0.16055736 -0.02059189 0.00990908 0.56470588 0.92549020 0.07058824
v 0.16036208 -0.01977712 0.00808836 0.56470588 0.92549020 0.07058824
v 0.16115404 -0.01816808 0.00716124 0.56470588 0.92549020 0.07058824
v 0.16129507 -0.01797848 0.00716124 0.56470588 0.92549020 0.07058824
v 0.16215213 -0.01674352 0.00716124 0.56470588 0.92549020 0.07058824
v 0.08644942 -0.02054064 0.00716124 0.56470588 0.92549020 0.07058824
v 0.09111439 -0.02328728 0.01201226 0.56470588 0.92549020 0.07058824
v 0.09111439 -0.02400981 0.01395371 0.56470588 0.92549020 0.07058824
v 0.08917246 -0.02394832 0.01477352 0.56470588 0.92549020 0.07058824
v 0.16210873 -0.01895723 0.01477352 0.56470588 0.92549020 0.07058824
v 0.16192430 -0.01928519 0.01477352 0.56470588 0.92549020 0.07058824
v 0.16113234 -0.02064826 0.01434871 0.56470588 0.92549020 0.07058824
v 0.16100215 -0.02064826 0.01201226 0.56470588 0.92549020 0.07058824
v 0.16012341 -0.02191909 0.01201226 0.56470588 0.92549020 0.07058824
v 0.15886495 -0.02285684 0.01434871 0.56470588 0.92549020 0.07058824
v 0.15886495 -0.02256475 0.01201226 0.56470588 0.92549020 0.07058824
v 0.15886495 -0.02206257 0.01047326 0.56470588 0.92549020 0.07058824
v 0.15886495 -0.02128879 0.00930466 0.56470588 0.92549020 0.07058824
v 0.15886495 -0.02012045 0.00762927 0.56470588 0.92549020 0.07058824
v 0.15950503 -0.01949528 0.00716124 0.56470588 0.92549020 0.07058824
v 0.09313226 -0.02127855 0.00716124 0.56470588 0.92549020 0.07058824
v 0.09579021 -0.02154501 0.00716124 0.56470588 0.92549020 0.07058824
v 0.09579021 -0.02198570 0.00814426 0.56470588 0.92549020 0.07058824
v 0.09812270 -0.02286709 0.00967655 0.56470588 0.92549020 0.07058824
v 0.10046603 -0.02389707 0.01161428 0.56470588 0.92549020 0.07058824
v 0.09345773 -0.02407643 0.01359002 0.56470588 0.92549020 0.07058824
v 0.09111439 -0.02415842 0.01477352 0.56470588 0.92549020 0.07058824
v 0.09334924 -0.02428652 0.01477352 0.56470588 0.92549020 0.07058824
v 0.16111064 -0.02064826 0.01477352 0.56470588 0.92549020 0.07058824
v 0.16095876 -0.02089422 0.01477352 0.56470588 0.92549020 0.07058824
v 0.16021020 -0.02202157 0.01477352 0.56470588 0.92549020 0.07058824
v 0.16021020 -0.02202670 0.01434871 0.56470588 0.92549020 0.07058824
v 0.15910362 -0.02269798 0.01477352 0.56470588 0.92549020 0.07058824
v 0.15886495 -0.02283634 0.01477352 0.56470588 0.92549020 0.07058824
v 0.15653247 -0.02334365 0.01477352 0.56470588 0.92549020 0.07058824
v 0.15653247 -0.02335902 0.01434871 0.56470588 0.92549020 0.07058824
v 0.15653247 -0.02310793 0.01201226 0.56470588 0.92549020 0.07058824
v 0.15653247 -0.02235978 0.00997169 0.56470588 0.92549020 0.07058824
v 0.15653247 -0.02159626 0.00880309 0.56470588 0.92549020 0.07058824
v 0.15845270 -0.01990523 0.00716124 0.56470588 0.92549020 0.07058824
v 0.15886495 -0.01978224 0.00716124 0.56470588 0.92549020 0.07058824
v 0.09621331 -0.02157576 0.00716124 0.56470588 0.92549020 0.07058824
v 0.10046603 -0.02304131 0.00967655 0.56470588 0.92549020 0.07058824
v 0.10279852 -0.02320017 0.00967655 0.56470588 0.92549020 0.07058824
v 0.10279852 -0.02396882 0.01150920 0.56470588 0.92549020 0.07058824
v 0.10046603 -0.02427628 0.01278288 0.56470588 0.92549020 0.07058824
v 0.09857835 -0.02421991 0.01298410 0.56470588 0.92549020 0.07058824
v 0.10046603 -0.02449150 0.01434871 0.56470588 0.92549020 0.07058824
v 0.10088914 -0.02450175 0.01477352 0.56470588 0.92549020 0.07058824
v 0.14178899 -0.02419428 0.01477352 0.56470588 0.92549020 0.07058824
v 0.14186493 -0.02420453 0.01434871 0.56470588 0.92549020 0.07058824
v 0.14173475 -0.02419428 0.01295355 0.56470588 0.92549020 0.07058824
v 0.14251586 -0.02395857 0.01210989 0.56470588 0.92549020 0.07058824
v 0.14017252 -0.02399444 0.01177750 0.56470588 0.92549020 0.07058824
v 0.14017252 -0.02333852 0.00967655 0.56470588 0.92549020 0.07058824
v 0.14250501 -0.02319504 0.00967655 0.56470588 0.92549020 0.07058824
v 0.14718083 -0.02165775 0.00716124 0.56470588 0.92549020 0.07058824
v 0.14762563 -0.02161163 0.00716124 0.56470588 0.92549020 0.07058824
v 0.14971944 -0.02138103 0.00716124 0.56470588 0.92549020 0.07058824
v 0.15401554 -0.02087885 0.00716124 0.56470588 0.92549020 0.07058824
v 0.15671689 -0.02036642 0.00716124 0.56470588 0.92549020 0.07058824
v 0.15418913 -0.02085323 0.00716124 0.56470588 0.92549020 0.07058824
v 0.09812270 -0.02168337 0.00716124 0.56470588 0.92549020 0.07058824
v 0.10279852 -0.02221630 0.00780069 0.56470588 0.92549020 0.07058824
v 0.10514185 -0.02225729 0.00772989 0.56470588 0.92549020 0.07058824
v 0.10514185 -0.02326678 0.00967655 0.56470588 0.92549020 0.07058824
v 0.10980682 -0.02405080 0.01130797 0.56470588 0.92549020 0.07058824
v 0.10279852 -0.02428652 0.01267779 0.56470588 0.92549020 0.07058824
v 0.10747434 -0.02431727 0.01254066 0.56470588 0.92549020 0.07058824
v 0.10279852 -0.02451712 0.01434871 0.56470588 0.92549020 0.07058824
v 0.10279852 -0.02452224 0.01477352 0.56470588 0.92549020 0.07058824
v 0.10747434 -0.02455811 0.01477352 0.56470588 0.92549020 0.07058824
v 0.13549671 -0.02421478 0.01259209 0.56470588 0.92549020 0.07058824
v 0.13549671 -0.02408155 0.01142423 0.56470588 0.92549020 0.07058824
v 0.10747434 -0.02455299 0.01434871 0.56470588 0.92549020 0.07058824
v 0.13549671 -0.02351275 0.00967655 0.56470588 0.92549020 0.07058824
v 0.14017252 -0.02233416 0.00755400 0.56470588 0.92549020 0.07058824
v 0.14017252 -0.02212406 0.00716124 0.56470588 0.92549020 0.07058824
v 0.10279852 -0.02186784 0.00716124 0.56470588 0.92549020 0.07058824
v 0.10392679 -0.02190884 0.00716124 0.56470588 0.92549020 0.07058824
v 0.10514185 -0.02194983 0.00716124 0.56470588 0.92549020 0.07058824
v 0.12615591 -0.02357937 0.00967655 0.56470588 0.92549020 0.07058824
v 0.10980682 -0.02335902 0.00967655 0.56470588 0.92549020 0.07058824
v 0.12615591 -0.02412255 0.01112836 0.56470588 0.92549020 0.07058824
v 0.13316422 -0.02410717 0.01146523 0.56470588 0.92549020 0.07058824
v 0.13316422 -0.02356400 0.00967655 0.56470588 0.92549020 0.07058824
v 0.13316422 -0.02244689 0.00745413 0.56470588 0.92549020 0.07058824
v 0.13316422 -0.02227266 0.00716124 0.56470588 0.92549020 0.07058824
v 0.13083173 -0.02224704 0.00716124 0.56470588 0.92549020 0.07058824
v 0.13083173 -0.02244177 0.00748767 0.56470588 0.92549020 0.07058824
v 0.12615591 -0.02244177 0.00758381 0.56470588 0.92549020 0.07058824
f 1 2 3
f 1 3 4
f 1 4 5
f 1 5 12
f 1 12 24
f 1 24 43
f 1 43 42
f 1 42 64
f 1 64 70
f 1 70 77
f 1 77 87
f 1 87 93
f 1 93 96
f 1 96 112
f 1 112 126
f 1 126 137
f 1 137 150
f 1 150 164
f 1 164 163
f 1 163 162
f 1 162 161
f 1 161 160
f 1 160 159
f 1 159 158
f 1 158 147
f 1 147 146
f 1 146 144
f 1 144 133
f 1 133 120
f 1 120 107
f 1 107 106
f 1 106 110
f 1 110 125
f 1 125 124
f 1 124 136
f 1 136 149
f 1 149 168
f 1 168 177
f 1 177 193
f 1 193 211
f 1 211 212
f 1 212 233
f 1 233 255
f 1 255 256
f 1 256 234
f 1 234 219
f 1 219 218
f 1 218 217
f 1 217 215
f 1 215 214
f 1 214 213
f 1 213 195
f 1 195 194
f 1 194 180
f 1 180 169
f 1 169 152
f 1 152 139
f 1 139 129
f 1 129 128
f 1 128 115
f 1 115 114
f 1 114 97
f 1 97 90
f 1 90 82
f 1 82 81
f 1 81 79
f 1 79 73
f 1 73 72
f 1 72 65
f 1 65 45
f 1 45 44
f 1 44 25
f 1 25 13
f 1 13 6
f 1 6 2
f 2 6 3
f 3 7 8
f 3 8 4
f 3 6 9
f 3 9 7
f 4 8 10
f 4 10 11
f 4 11 5
f 5 11 12
f 6 13 14
f 6 14 9
f 7 9 15
f 7 15 16
f 7 16 8
f 8 16 17
f 8 17 10
f 9 14 18
f 9 18 19
f 9 19 15
f 10 17 20
f 10 20 21
f 10 21 22
f 10 22 11
f 11 22 23
f 11 23 24
f 11 24 12
f 13 25 14
f 14 25 26
f 14 26 27
f 14 27 18
f 15 19 28
f 15 28 29
f 15 29 30
f 15 30 16
f 16 30 17
f 17 31 20
f 17 30 31
f 18 27 19
f 19 32 28
f 19 27 33
f 19 33 34
f 19 34 35
f 19 35 32
f 20 31 36
f 20 36 21
f 21 36 37
f 21 37 22
f 22 37 38
f 22 38 39
f 22 39 23
f 23 39 40
f 23 40 41
f 23 41 42
f 23 42 43
f 23 43 24
f 25 44 26
f 26 44 45
f 26 45 46
f 26 46 47
f 26 47 27
f 27 47 48
f 27 48 49
f 27 49 34
f 27 34 33
f 28 50 29
f 28 32 51
f 28 51 52
f 28 52 50
f 29 53 30
f 29 50 53
f 30 53 54
f 30 54 55
f 30 55 31
f 31 56 36
f 31 55 56
f 32 35 57
f 32 57 58
f 32 58 51
f 34 49 57
f 34 57 35
f 36 56 55
f 36 55 54
f 36 54 53
f 36 53 50
f 36 50 52
f 36 52 51
f 36 51 58
f 36 58 57
f 36 57 68
f 36 68 76
f 36 76 86
f 36 86 85
f 36 85 92
f 36 92 105
f 36 105 104
f 36 104 102
f 36 102 101
f 36 101 119
f 36 119 118
f 36 118 117
f 36 117 132
f 36 132 143
f 36 143 156
f 36 156 174
f 36 174 189
f 36 189 188
f 36 188 187
f 36 187 204
f 36 204 225
f 36 225 224
f 36 224 245
f 36 245 246
f 36 246 244
f 36 244 243
f 36 243 242
f 36 242 241
f 36 241 262
f 36 262 272
f 36 272 273
f 36 273 265
f 36 265 264
f 36 264 263
f 36 263 247
f 36 247 226
f 36 226 206
f 36 206 205
f 36 205 190
f 36 190 175
f 36 175 166
f 36 166 165
f 36 165 148
f 36 148 135
f 36 135 123
f 36 123 109
f 36 109 94
f 36 94 89
f 36 89 88
f 36 88 78
f 36 78 71
f 36 71 69
f 36 69 62
f 36 62 61
f 36 61 60
f 36 60 59
f 36 59 38
f 36 38 37
f 38 59 39
f 39 59 40
f 40 59 60
f 40 60 61
f 40 61 62
f 40 62 63
f 40 63 64
f 40 64 42
f 40 42 41
f 45 65 47
f 45 47 46
f 47 65 66
f 47 66 48
f 48 66 67
f 48 67 68
f 48 68 49
f 49 68 57
f 62 69 63
f 63 69 64
f 64 69 71
f 64 71 70
f 65 72 66
f 66 72 73
f 66 73 74
f 66 74 75
f 66 75 67
f 67 76 68
f 67 75 76
f 70 71 78
f 70 78 77
f 73 79 74
f 74 79 80
f 74 80 75
f 75 80 79
f 75 79 81
f 75 81 82
f 75 82 83
f 75 83 84
f 75 84 85
f 75 85 86
f 75 86 76
f 77 78 88
f 77 88 89
f 77 89 87
f 82 90 91
f 82 91 83
f 83 91 84
f 84 91 85
f 85 91 92
f 87 89 93
f 89 94 108
f 89 108 122
f 89 122 121
f 89 121 134
f 89 134 145
f 89 145 157
f 89 157 151
f 89 151 138
f 89 138 127
f 89 127 113
f 89 113 111
f 89 111 95
f 89 95 96
f 89 96 93
f 90 97 98
f 90 98 91
f 91 98 99
f 91 99 100
f 91 100 101
f 91 101 102
f 91 102 103
f 91 103 104
f 91 104 105
f 91 105 92
f 94 106 107
f 94 107 108
f 94 109 110
f 94 110 106
f 95 111 96
f 96 111 113
f 96 113 112
f 97 114 98
f 98 114 99
f 99 114 115
f 99 115 116
f 99 116 117
f 99 117 118
f 99 118 119
f 99 119 100
f 100 119 101
f 102 104 103
f 107 120 121
f 107 121 122
f 107 122 108
f 109 123 124
f 109 124 125
f 109 125 110
f 112 113 127
f 112 127 126
f 115 128 116
f 116 128 129
f 116 129 130
f 116 130 131
f 116 131 117
f 117 131 132
f 120 133 134
f 120 134 121
f 123 135 136
f 123 136 124
f 126 127 137
f 127 138 137
f 129 139 140
f 129 140 130
f 130 140 141
f 130 141 142
f 130 142 143
f 130 143 131
f 131 143 132
f 133 144 134
f 134 144 146
f 134 146 147
f 134 147 145
f 135 148 149
f 135 149 136
f 137 138 151
f 137 151 150
f 139 152 153
f 139 153 140
f 140 153 154
f 140 154 141
f 141 154 155
f 141 155 142
f 142 155 156
f 142 156 143
f 145 147 158
f 145 158 159
f 145 159 160
f 145 160 161
f 145 161 162
f 145 162 163
f 145 163 164
f 145 164 157
f 148 165 149
f 149 165 166
f 149 166 167
f 149 167 168
f 150 151 157
f 150 157 164
f 152 169 170
f 152 170 153
f 153 170 171
f 153 171 154
f 154 171 155
f 155 171 172
f 155 172 173
f 155 173 174
f 155 174 156
f 166 175 176
f 166 176 168
f 166 168 167
f 168 176 178
f 168 178 179
f 168 179 177
f 169 180 170
f 170 180 181
f 170 181 182
f 170 182 171
f 171 182 172
f 172 182 173
f 173 182 183
f 173 183 184
f 173 184 185
f 173 185 186
f 173 186 187
f 173 187 188
f 173 188 189
f 173 189 174
f 175 190 176
f 176 190 191
f 176 191 192
f 176 192 178
f 177 179 193
f 178 192 179
f 179 192 193
f 180 194 181
f 181 194 195
f 181 195 196
f 181 196 182
f 182 196 197
f 182 197 183
f 183 197 184
f 184 186 185
f 184 197 198
f 184 198 199
f 184 199 200
f 184 200 201
f 184 201 202
f 184 202 186
f 186 202 203
f 186 203 204
f 186 204 187
f 190 205 191
f 191 205 206
f 191 206 207
f 191 207 208
f 191 208 209
f 191 209 210
f 191 210 192
f 192 211 193
f 192 210 212
f 192 212 211
f 195 213 196
f 196 213 214
f 196 214 215
f 196 215 216
f 196 216 197
f 197 216 198
f 198 216 199
f 199 216 215
f 199 215 217
f 199 217 218
f 199 218 219
f 199 219 220
f 199 220 221
f 199 221 200
f 200 221 201
f 201 221 222
f 201 222 223
f 201 223 202
f 202 223 203
f 203 223 224
f 203 224 225
f 203 225 204
f 206 226 227
f 206 227 208
f 206 208 207
f 208 227 209
f 209 227 228
f 209 228 229
f 209 229 230
f 209 230 231
f 209 231 210
f 210 231 212
f 212 231 230
f 212 230 232
f 212 232 233
f 219 234 220
f 220 234 235
f 220 235 236
f 220 236 221
f 221 236 237
f 221 237 238
f 221 238 239
f 221 239 240
f 221 240 222
f 222 241 242
f 222 242 243
f 222 243 244
f 222 244 223
f 222 240 241
f 223 245 224
f 223 244 246
f 223 246 245
f 226 247 228
f 226 228 227
f 228 248 249
f 228 249 250
f 228 250 229
f 228 247 248
f 229 250 251
f 229 251 230
f 230 251 252
f 230 252 253
f 230 253 254
f 230 254 232
f 232 254 233
f 233 254 255
f 234 256 235
f 235 256 236
f 236 257 258
f 236 258 238
f 236 238 237
f 236 256 259
f 236 259 257
f 238 258 239
f 239 258 260
f 239 260 261
f 239 261 240
f 240 261 241
f 241 261 262
f 247 263 248
f 248 263 264
f 248 264 249
f 249 264 265
f 249 265 266
f 249 266 267
f 249 267 250
f 250 267 251
f 251 253 252
f 251 267 266
f 251 266 268
f 251 268 253
f 253 259 254
f 253 268 259
f 254 259 256
f 254 256 255
f 257 268 269
f 257 269 258
f 257 259 268
f 258 269 268
f 258 268 270
f 258 270 260
f 260 270 271
f 260 271 261
f 261 271 262
f 262 271 272
f 265 273 274
f 265 274 275
f 265 275 266
f 266 275 274
f 266 274 271
f 266 271 270
f 266 270 268
f 271 274 272
f 272 274 273

