# https://github.com/mikedh/trimesh
v 0.10622552 0.01206030 0.02749592 0.77647059 0.86666667 0.97647059
v 0.10541250 0.01206030 0.02766476 0.77647059 0.86666667 0.97647059
v 0.12803491 0.00812125 0.02749592 0.77647059 0.86666667 0.97647059
v 0.08107257 0.01206030 0.02749592 0.77647059 0.86666667 0.97647059
v 0.10493993 0.01206030 0.02776092 0.77647059 0.86666667 0.97647059
v 0.12843634 0.00748395 0.02770449 0.77647059 0.86666667 0.97647059
v 0.12843634 0.00797633 0.02749592 0.77647059 0.86666667 0.97647059
v 0.10283623 0.01206030 0.02800380 0.77647059 0.86666667 0.97647059
v 0.09740929 0.00633945 0.03197604 0.77647059 0.86666667 0.97647059
v 0.08107257 -0.00360864 0.02749592 0.77647059 0.86666667 0.97647059
v 0.08107257 0.01206030 0.02838933 0.77647059 0.86666667 0.97647059
v 0.13082968 0.00504839 0.02798484 0.77647059 0.86666667 0.97647059
v 0.13082968 0.00673961 0.02753610 0.77647059 0.86666667 0.97647059
v 0.13095672 0.00676761 0.02749592 0.77647059 0.86666667 0.97647059
v 0.10279558 0.01206030 0.02800831 0.77647059 0.86666667 0.97647059
v 0.10046321 0.01206030 0.02821643 0.77647059 0.86666667 0.97647059
v 0.09812576 0.01206030 0.02838888 0.77647059 0.86666667 0.97647059
v 0.08410617 0.01206030 0.02899742 0.77647059 0.86666667 0.97647059
v 0.09654037 0.00633945 0.03197604 0.77647059 0.86666667 0.97647059
v 0.09816134 0.00513567 0.03210786 0.77647059 0.86666667 0.97647059
v 0.10001097 0.00441603 0.03202570 0.77647059 0.86666667 0.97647059
v 0.12571779 -0.00046003 0.02972921 0.77647059 0.86666667 0.97647059
v 0.09812576 -0.00476302 0.02749592 0.77647059 0.86666667 0.97647059
v 0.09217544 0.00140905 0.03193406 0.77647059 0.86666667 0.97647059
v 0.08107257 -0.00350489 0.02753610 0.77647059 0.86666667 0.97647059
v 0.08176873 0.01206030 0.02872340 0.77647059 0.86666667 0.97647059
v 0.08107257 0.01140324 0.02849316 0.77647059 0.86666667 0.97647059
v 0.13280635 0.00494464 0.02749592 0.77647059 0.86666667 0.97647059
v 0.13185613 0.00596234 0.02749592 0.77647059 0.86666667 0.97647059
v 0.13106342 0.00667868 0.02749592 0.77647059 0.86666667 0.97647059
v 0.09217544 0.00163301 0.03193406 0.77647059 0.86666667 0.97647059
v 0.09643366 0.00504839 0.03205143 0.77647059 0.86666667 0.97647059
v 0.10001097 0.00358936 0.03202570 0.77647059 0.86666667 0.97647059
v 0.09812576 0.00353172 0.03208845 0.77647059 0.86666667 0.97647059
v 0.12571779 -0.00106768 0.02972921 0.77647059 0.86666667 0.97647059
v 0.13298420 0.00271328 0.02749592 0.77647059 0.86666667 0.97647059
v 0.12998109 -0.00422288 0.02749592 0.77647059 0.86666667 0.97647059
v 0.09238378 0.00140905 0.03193406 0.77647059 0.86666667 0.97647059
v 0.08107257 0.00492488 0.02915046 0.77647059 0.86666667 0.97647059
v 0.08289172 0.00381826 0.02955134 0.77647059 0.86666667 0.97647059
v 0.08107257 -0.00196023 0.02805436 0.77647059 0.86666667 0.97647059
v 0.08107257 -0.00262058 0.02787333 0.77647059 0.86666667 0.97647059
v 0.13103802 -0.00266340 0.02749592 0.77647059 0.86666667 0.97647059
v 0.13144962 -0.00194047 0.02749592 0.77647059 0.86666667 0.97647059
v 0.08107257 0.00201341 0.02869541 0.77647059 0.86666667 0.97647059
f 1 2 3
f 1 3 7
f 1 7 14
f 1 14 30
f 1 30 29
f 1 29 28
f 1 28 36
f 1 36 44
f 1 44 43
f 1 43 37
f 1 37 23
f 1 23 10
f 1 10 4
f 1 4 11
f 1 11 26
f 1 26 18
f 1 18 17
f 1 17 16
f 1 16 15
f 1 15 8
f 1 8 5
f 1 5 2
f 2 5 3
f 3 6 7
f 3 5 8
f 3 8 9
f 3 9 6
f 4 10 25
f 4 25 42
f 4 42 41
f 4 41 45
f 4 45 39
f 4 39 27
f 4 27 11
f 6 12 13
f 6 13 7
f 6 9 12
f 7 13 14
f 8 15 9
f 9 16 17
f 9 17 18
f 9 18 19
f 9 19 20
f 9 20 21
f 9 21 22
f 9 22 12
f 9 15 16
f 10 23 24
f 10 24 25
f 11 27 26
f 12 28 29
f 12 29 13
f 12 22 28
f 13 29 30
f 13 30 14
f 18 26 19
f 19 31 32
f 19 32 20
f 19 26 31
f 20 33 21
f 20 32 31
f 20 31 24
f 20 24 34
f 20 34 33
f 21 33 35
f 21 35 22
f 22 35 36
f 22 36 28
f 23 37 38
f 23 38 24
f 24 38 34
f 24 31 39
f 24 39 40
f 24 40 41
f 24 41 42
f 24 42 25
f 26 27 39
f 26 39 31
f 33 34 38
f 33 38 35
f 35 37 43
f 35 43 44
f 35 44 36
f 35 38 37
f 39 45 40
f 40 45 41

