# https://github.com/mikedh/trimesh
v -0.06308362 0.01681825 0.00032807 0.54509804 0.71372549 0.60000000
v -0.06308362 0.01656592 -0.00200387 0.54509804 0.71372549 0.60000000
v -0.06541807 0.01669987 0.00032807 0.54509804 0.71372549 0.60000000
v -0.06308362 0.01679021 0.00266493 0.54509804 0.71372549 0.60000000
v 0.04670836 0.01237285 -0.00200387 0.54509804 0.71372549 0.60000000
v -0.06308362 0.01604568 -0.00434073 0.54509804 0.71372549 0.60000000
v -0.06541807 0.01644754 -0.00200387 0.54509804 0.71372549 0.60000000
v 0.04670836 0.01204263 -0.00434073 0.54509804 0.71372549 0.60000000
v -0.06541807 0.01658772 0.00266493 0.54509804 0.71372549 0.60000000
v -0.06712917 0.01590861 -0.00200387 0.54509804 0.71372549 0.60000000
v -0.06727584 0.01603010 0.00032807 0.54509804 0.71372549 0.60000000
v -0.06308362 0.01636966 0.00500178 0.54509804 0.71372549 0.60000000
v 0.05483612 0.01134483 0.00271161 0.54509804 0.71372549 0.60000000
v 0.05483612 0.01172800 0.00032807 0.54509804 0.71372549 0.60000000
v 0.04670836 0.01209871 0.00032807 0.54509804 0.71372549 0.60000000
v 0.05483612 0.01165635 -0.00200387 0.54509804 0.71372549 0.60000000
v -0.06308362 0.01563447 -0.00565291 0.54509804 0.71372549 0.60000000
v -0.06452584 0.01562512 -0.00563079 0.54509804 0.71372549 0.60000000
v -0.06534473 0.01587122 -0.00435547 0.54509804 0.71372549 0.60000000
v -0.06684806 0.01571235 -0.00358635 0.54509804 0.71372549 0.60000000
v 0.05483612 0.01123268 -0.00429404 0.54509804 0.71372549 0.60000000
v 0.05483612 0.01064079 -0.00601413 0.54509804 0.71372549 0.60000000
v 0.04905502 0.01118595 -0.00597481 0.54509804 0.71372549 0.60000000
v 0.04670836 0.01129810 -0.00614682 0.54509804 0.71372549 0.60000000
v -0.06711695 0.01593353 0.00266493 0.54509804 0.71372549 0.60000000
v -0.06684806 0.01574350 0.00445381 0.54509804 0.71372549 0.60000000
v -0.06557696 0.01603010 0.00514185 0.54509804 0.71372549 0.60000000
v -0.06830250 0.01495535 -0.00200387 0.54509804 0.71372549 0.60000000
v -0.06844917 0.01503012 0.00032807 0.54509804 0.71372549 0.60000000
v -0.06490473 0.01575908 0.00659163 0.54509804 0.71372549 0.60000000
v -0.06308362 0.01580269 0.00668501 0.54509804 0.71372549 0.60000000
v 0.05483612 0.01093050 0.00391813 0.54509804 0.71372549 0.60000000
v -0.06308362 0.01496781 -0.00682257 0.54509804 0.71372549 0.60000000
v -0.06534473 0.01476221 -0.00651787 0.54509804 0.71372549 0.60000000
v -0.06607806 0.01540706 -0.00514426 0.54509804 0.71372549 0.60000000
v -0.06308362 0.01379961 -0.00841487 0.54509804 0.71372549 0.60000000
v -0.06903583 0.01333856 -0.00570205 0.54509804 0.71372549 0.60000000
v 0.05483612 0.01021401 -0.00670462 0.54509804 0.71372549 0.60000000
v 0.05483612 0.00960965 -0.00751306 0.54509804 0.71372549 0.60000000
v 0.05483612 0.00903023 -0.00827972 0.54509804 0.71372549 0.60000000
v 0.04670836 0.01040715 -0.00731648 0.54509804 0.71372549 0.60000000
v 0.03268950 0.01079655 -0.00768752 0.54509804 0.71372549 0.60000000
v -0.06827806 0.01484944 0.00266493 0.54509804 0.71372549 0.60000000
v -0.06645695 0.01549740 0.00601172 0.54509804 0.71372549 0.60000000
v -0.06906027 0.01343202 0.00417369 0.54509804 0.71372549 0.60000000
v -0.06778917 0.01446315 0.00509270 0.54509804 0.71372549 0.60000000
v -0.06915806 0.01353793 -0.00434073 0.54509804 0.71372549 0.60000000
v -0.06928028 0.01378715 -0.00200387 0.54509804 0.71372549 0.60000000
v -0.06931694 0.01386191 0.00032807 0.54509804 0.71372549 0.60000000
v -0.06921917 0.01368123 0.00266493 0.54509804 0.71372549 0.60000000
v -0.06572362 0.01461268 0.00753522 0.54509804 0.71372549 0.60000000
v -0.06499029 0.01373108 0.00886706 0.54509804 0.71372549 0.60000000
v -0.06308362 0.01515473 0.00785221 0.54509804 0.71372549 0.60000000
v 0.05483612 0.01034796 0.00508779 0.54509804 0.71372549 0.60000000
v 0.05483612 0.01063144 0.00456931 0.54509804 0.71372549 0.60000000
v -0.06074919 0.01377780 -0.00843699 0.54509804 0.71372549 0.60000000
v -0.06541807 0.01350990 -0.00811509 0.54509804 0.71372549 0.60000000
v -0.06670140 0.01328872 -0.00791113 0.54509804 0.71372549 0.60000000
v -0.06759362 0.01370615 -0.00655964 0.54509804 0.71372549 0.60000000
v -0.06308362 0.01227939 -0.00958207 0.54509804 0.71372549 0.60000000
v -0.06074919 0.01237596 -0.00960665 0.54509804 0.71372549 0.60000000
v -0.06826584 0.01256287 -0.00725996 0.54509804 0.71372549 0.60000000
v -0.06898694 0.01100527 -0.00792342 0.54509804 0.71372549 0.60000000
v -0.06921917 0.01189310 -0.00655964 0.54509804 0.71372549 0.60000000
v -0.06968362 0.01205509 -0.00434073 0.54509804 0.71372549 0.60000000
v 0.05483612 0.00813305 -0.00884981 0.54509804 0.71372549 0.60000000
v 0.02967061 0.00860033 -0.01022096 0.54509804 0.71372549 0.60000000
v 0.02802062 0.00864082 -0.01025045 0.54509804 0.71372549 0.60000000
v -0.06716584 0.01393979 0.00692091 0.54509804 0.71372549 0.60000000
v -0.06655473 0.01316722 0.00847881 0.54509804 0.71372549 0.60000000
v -0.06965917 0.01205509 0.00266493 0.54509804 0.71372549 0.60000000
v -0.06915806 0.01182768 0.00497230 0.54509804 0.71372549 0.60000000
v -0.06873028 0.01245696 0.00573159 0.54509804 0.71372549 0.60000000
v -0.06986695 0.01205509 -0.00200387 0.54509804 0.71372549 0.60000000
v -0.06989139 0.01205509 0.00032807 0.54509804 0.71372549 0.60000000
v -0.06563806 0.01225447 0.00927988 0.54509804 0.71372549 0.60000000
v -0.06294918 0.01187441 0.01034387 0.54509804 0.71372549 0.60000000
v -0.06308362 0.01398652 0.00914719 0.54509804 0.71372549 0.60000000
v 0.02802062 0.00911122 0.00917176 0.54509804 0.71372549 0.60000000
v 0.05483612 0.00969065 0.00609527 0.54509804 0.71372549 0.60000000
v -0.06528362 0.01185261 -0.00939286 0.54509804 0.71372549 0.60000000
v -0.06596806 0.01068129 -0.01006124 0.54509804 0.71372549 0.60000000
v -0.06705584 0.00912368 -0.01051829 0.54509804 0.71372549 0.60000000
v -0.06759362 0.01189310 -0.00832641 0.54509804 0.71372549 0.60000000
v -0.06308362 0.01111119 -0.01030697 0.54509804 0.71372549 0.60000000
v -0.06441585 0.01093673 -0.01021113 0.54509804 0.71372549 0.60000000
v -0.06074919 0.01120776 -0.01036348 0.54509804 0.71372549 0.60000000
v -0.06752028 0.00738228 -0.01093602 0.54509804 0.71372549 0.60000000
v -0.06892583 0.00618604 -0.01016690 0.54509804 0.71372549 0.60000000
v -0.06908473 0.00971869 -0.00815932 0.54509804 0.71372549 0.60000000
v -0.06953695 0.00971869 -0.00667759 0.54509804 0.71372549 0.60000000
v -0.06985472 0.00971869 -0.00434073 0.54509804 0.71372549 0.60000000
v 0.05483612 0.00735424 -0.00931669 0.54509804 0.71372549 0.60000000
v 0.03041617 0.00758477 -0.01058709 0.54509804 0.71372549 0.60000000
v 0.02802062 0.00738228 -0.01075173 0.54509804 0.71372549 0.60000000
v -0.06397585 0.00627950 -0.01254308 0.54509804 0.71372549 0.60000000
v -0.06689695 0.01160962 0.00878351 0.54509804 0.71372549 0.60000000
v -0.06781362 0.01203329 0.00732635 0.54509804 0.71372549 0.60000000
v -0.06964694 -0.00663304 0.00266493 0.54509804 0.71372549 0.60000000
v -0.06918251 -0.00659255 0.00521065 0.54509804 0.71372549 0.60000000
v -0.06892583 0.01089935 0.00617636 0.54509804 0.71372549 0.60000000
v -0.07002583 0.00037618 -0.00667759 0.54509804 0.71372549 0.60000000
v -0.07001362 -0.00196023 -0.00434073 0.54509804 0.71372549 0.60000000
v -0.07001362 -0.00429664 -0.00434073 0.54509804 0.71372549 0.60000000
v -0.06992806 -0.00663304 -0.00200387 0.54509804 0.71372549 0.60000000
v -0.06981807 -0.00663304 0.00032807 0.54509804 0.71372549 0.60000000
v -0.06528362 0.00965638 0.01022347 0.54509804 0.71372549 0.60000000
v -0.06440363 0.00883397 0.01091887 0.54509804 0.71372549 0.60000000
v -0.06363362 0.01039157 0.01071492 0.54509804 0.71372549 0.60000000
v -0.06208141 0.01097412 0.01087464 0.54509804 0.71372549 0.60000000
v -0.06074919 0.01212674 0.01030701 0.54509804 0.71372549 0.60000000
v 0.02802062 0.00782464 0.01033896 0.54509804 0.71372549 0.60000000
v 0.03035506 0.00903957 0.00908084 0.54509804 0.71372549 0.60000000
v 0.05483612 0.00913614 0.00680050 0.54509804 0.71372549 0.60000000
v -0.06528362 0.00983083 -0.01068538 0.54509804 0.71372549 0.60000000
v -0.06529584 0.00718914 -0.01200248 0.54509804 0.71372549 0.60000000
v -0.06598029 0.00563465 -0.01240793 0.54509804 0.71372549 0.60000000
v -0.06308362 0.00971869 -0.01099254 0.54509804 0.71372549 0.60000000
v -0.06441585 0.00627950 -0.01254308 0.54509804 0.71372549 0.60000000
v -0.06665251 0.00407704 -0.01255045 0.54509804 0.71372549 0.60000000
v -0.06778917 0.00512998 -0.01138079 0.54509804 0.71372549 0.60000000
v -0.06904806 0.00462844 -0.01035120 0.54509804 0.71372549 0.60000000
v -0.06932916 0.00526394 -0.00923806 0.54509804 0.71372549 0.60000000
v -0.06923140 0.00738228 -0.00867534 0.54509804 0.71372549 0.60000000
v -0.06961028 0.00270947 -0.00901445 0.54509804 0.71372549 0.60000000
v -0.06981807 0.00504587 -0.00667759 0.54509804 0.71372549 0.60000000
v -0.06995250 0.00270947 -0.00667759 0.54509804 0.71372549 0.60000000
v 0.05483612 0.00540101 -0.01002192 0.54509804 0.71372549 0.60000000
v 0.03035506 0.00504587 -0.01132673 0.54509804 0.71372549 0.60000000
v 0.02335174 0.00504587 -0.01152331 0.54509804 0.71372549 0.60000000
v -0.06315696 0.00510818 -0.01264137 0.54509804 0.71372549 0.60000000
v 0.02335174 0.00270947 -0.01197053 0.54509804 0.71372549 0.60000000
v -0.06582140 0.00738228 0.01029227 0.54509804 0.71372549 0.60000000
v -0.06706806 0.00971869 0.00899729 0.54509804 0.71372549 0.60000000
v -0.06962251 -0.00896945 0.00266493 0.54509804 0.71372549 0.60000000
v -0.06915806 -0.00880123 0.00506813 0.54509804 0.71372549 0.60000000
v -0.06893806 -0.00791339 0.00620584 0.54509804 0.71372549 0.60000000
v -0.06893806 -0.00734331 0.00620584 0.54509804 0.71372549 0.60000000
v -0.06844917 -0.00429664 0.00733864 0.54509804 0.71372549 0.60000000
v -0.06843695 -0.00196023 0.00733864 0.54509804 0.71372549 0.60000000
v -0.06733695 -0.00196023 0.00941994 0.54509804 0.71372549 0.60000000
v -0.06730029 0.00037618 0.00944206 0.54509804 0.71372549 0.60000000
v -0.06964694 0.00037618 -0.00901445 0.54509804 0.71372549 0.60000000
v -0.07000139 -0.00196023 -0.00667759 0.54509804 0.71372549 0.60000000
v -0.06994028 -0.00663304 -0.00434073 0.54509804 0.71372549 0.60000000
v -0.06981807 -0.00896945 -0.00200387 0.54509804 0.71372549 0.60000000
v -0.06978138 -0.00896945 0.00032807 0.54509804 0.71372549 0.60000000
v -0.06464806 0.00738228 0.01106877 0.54509804 0.71372549 0.60000000
v -0.06308362 0.00738228 0.01149633 0.54509804 0.71372549 0.60000000
v -0.06294918 0.00965638 0.01105157 0.54509804 0.71372549 0.60000000
v -0.06074919 0.00971869 0.01116706 0.54509804 0.71372549 0.60000000
v 0.01400176 0.00504587 0.01180840 0.54509804 0.71372549 0.60000000
v -0.06074919 0.01095854 0.01086973 0.54509804 0.71372549 0.60000000
v 0.02335174 0.00675612 0.01114494 0.54509804 0.71372549 0.60000000
v 0.02568618 0.00671251 0.01111545 0.54509804 0.71372549 0.60000000
v 0.02802062 0.00665644 0.01107860 0.54509804 0.71372549 0.60000000
v 0.03035506 0.00655052 0.01102699 0.54509804 0.71372549 0.60000000
v 0.03035506 0.00771872 0.01025050 0.54509804 0.71372549 0.60000000
v 0.05483612 0.00777480 0.00796770 0.54509804 0.71372549 0.60000000
v -0.06529584 0.00493061 -0.01261434 0.54509804 0.71372549 0.60000000
v -0.06308362 0.00270947 -0.01283058 0.54509804 0.71372549 0.60000000
v -0.06541807 0.00270947 -0.01274703 0.54509804 0.71372549 0.60000000
v -0.06670140 0.00270947 -0.01257502 0.54509804 0.71372549 0.60000000
v -0.06786250 0.00270947 -0.01162406 0.54509804 0.71372549 0.60000000
v -0.06912138 0.00270947 -0.01045686 0.54509804 0.71372549 0.60000000
v 0.05483612 0.00490880 -0.01015953 0.54509804 0.71372549 0.60000000
v 0.05483612 0.00279981 -0.01052321 0.54509804 0.71372549 0.60000000
v 0.05483612 0.00037618 -0.01076893 0.54509804 0.71372549 0.60000000
v 0.02802062 0.00037618 -0.01194105 0.54509804 0.71372549 0.60000000
v 0.02568618 0.00037618 -0.01204179 0.54509804 0.71372549 0.60000000
v 0.02335174 0.00037618 -0.01213026 0.54509804 0.71372549 0.60000000
v -0.06609029 0.00504587 0.01040039 0.54509804 0.71372549 0.60000000
v -0.06491695 0.00504587 0.01125306 0.54509804 0.71372549 0.60000000
v -0.06623696 0.00270947 0.01051342 0.54509804 0.71372549 0.60000000
v -0.06924361 -0.01099122 0.00266493 0.54509804 0.71372549 0.60000000
v -0.06908473 -0.01057690 0.00433095 0.54509804 0.71372549 0.60000000
v -0.06881584 -0.00947100 0.00588886 0.54509804 0.71372549 0.60000000
v -0.06814362 -0.00880123 0.00712486 0.54509804 0.71372549 0.60000000
v -0.06719028 -0.00663304 0.00908821 0.54509804 0.71372549 0.60000000
v -0.06731251 -0.00429664 0.00929216 0.54509804 0.71372549 0.60000000
v -0.06847362 -0.00659255 0.00712486 0.54509804 0.71372549 0.60000000
v -0.06629807 0.00037618 0.01060926 0.54509804 0.71372549 0.60000000
v -0.06912138 0.00037618 -0.01045440 0.54509804 0.71372549 0.60000000
v -0.06953695 -0.00196023 -0.00901445 0.54509804 0.71372549 0.60000000
v -0.06985472 -0.00429664 -0.00667759 0.54509804 0.71372549 0.60000000
v -0.06963472 -0.00663304 -0.00667759 0.54509804 0.71372549 0.60000000
v -0.06967139 -0.00896945 -0.00434073 0.54509804 0.71372549 0.60000000
v -0.06931694 -0.01107845 -0.00200387 0.54509804 0.71372549 0.60000000
v -0.06932916 -0.01117813 0.00032807 0.54509804 0.71372549 0.60000000
v -0.06308362 0.00504587 0.01175926 0.54509804 0.71372549 0.60000000
v -0.06074919 0.00738228 0.01151599 0.54509804 0.71372549 0.60000000
v 0.02101730 0.00270947 0.01216471 0.54509804 0.71372549 0.60000000
v 0.02101730 0.00504587 0.01175926 0.54509804 0.71372549 0.60000000
v 0.02335174 0.00504587 0.01173468 0.54509804 0.71372549 0.60000000
v 0.02802062 0.00504587 0.01163885 0.54509804 0.71372549 0.60000000
v 0.03035506 0.00504587 0.01156759 0.54509804 0.71372549 0.60000000
v 0.03217616 0.00638853 0.01094345 0.54509804 0.71372549 0.60000000
v 0.05483612 0.00660659 0.00870488 0.54509804 0.71372549 0.60000000
v 0.05483612 0.00715799 0.00837806 0.54509804 0.71372549 0.60000000
v -0.06308362 0.00037618 -0.01280600 0.54509804 0.71372549 0.60000000
v 0.02568618 -0.00196023 -0.01212780 0.54509804 0.71372549 0.60000000
v -0.06541807 0.00037618 -0.01272246 0.54509804 0.71372549 0.60000000
v -0.06667695 0.00037618 -0.01256273 0.54509804 0.71372549 0.60000000
v -0.06785028 0.00037618 -0.01162406 0.54509804 0.71372549 0.60000000
v 0.05483612 -0.00072972 -0.01078859 0.54509804 0.71372549 0.60000000
v 0.02802062 -0.00196023 -0.01208848 0.54509804 0.71372549 0.60000000
v -0.06506363 0.00270947 0.01132678 0.54509804 0.71372549 0.60000000
v -0.06879139 -0.01215942 0.00266493 0.54509804 0.71372549 0.60000000
v -0.06841251 -0.01133701 0.00506813 0.54509804 0.71372549 0.60000000
v -0.06712917 -0.01109714 0.00720595 0.54509804 0.71372549 0.60000000
v -0.06662807 -0.01017815 0.00853287 0.54509804 0.71372549 0.60000000
v -0.06686028 -0.00896945 0.00874665 0.54509804 0.71372549 0.60000000
v -0.06541807 -0.00663304 0.01009569 0.54509804 0.71372549 0.60000000
v -0.06540584 -0.00448355 0.01052817 0.54509804 0.71372549 0.60000000
v -0.06613918 -0.00196023 0.01058714 0.54509804 0.71372549 0.60000000
v -0.06512474 0.00037618 0.01131204 0.54509804 0.71372549 0.60000000
v -0.06904806 -0.00196023 -0.01034137 0.54509804 0.71372549 0.60000000
v -0.06896251 -0.00328108 -0.01022588 0.54509804 0.71372549 0.60000000
v -0.06925583 -0.00415334 -0.00907342 0.54509804 0.71372549 0.60000000
v -0.06914584 -0.00663304 -0.00831167 0.54509804 0.71372549 0.60000000
v -0.06901139 -0.00800374 -0.00797994 0.54509804 0.71372549 0.60000000
v -0.06921917 -0.00885730 -0.00658667 0.54509804 0.71372549 0.60000000
v -0.06902362 -0.01034014 -0.00574874 0.54509804 0.71372549 0.60000000
v -0.06919472 -0.01071708 -0.00434073 0.54509804 0.71372549 0.60000000
v -0.06880362 -0.01224665 -0.00200387 0.54509804 0.71372549 0.60000000
v -0.06887695 -0.01234634 0.00032807 0.54509804 0.71372549 0.60000000
v -0.06308362 0.00270947 0.01183298 0.54509804 0.71372549 0.60000000
v 0.02101730 0.00037618 0.01227283 0.54509804 0.71372549 0.60000000
v 0.02802062 0.00270947 0.01203693 0.54509804 0.71372549 0.60000000
v 0.03035506 0.00270947 0.01196567 0.54509804 0.71372549 0.60000000
v 0.05483612 0.00381848 0.00943960 0.54509804 0.71372549 0.60000000
v 0.05483612 0.00504587 0.00917913 0.54509804 0.71372549 0.60000000
v -0.05718031 -0.00320320 -0.01252833 0.54509804 0.71372549 0.60000000
v -0.05841475 -0.00323747 -0.01253079 0.54509804 0.71372549 0.60000000
v -0.05977141 -0.00320008 -0.01252587 0.54509804 0.71372549 0.60000000
v -0.06308362 -0.00171413 -0.01262908 0.54509804 0.71372549 0.60000000
v -0.06541807 -0.00137769 -0.01259222 0.54509804 0.71372549 0.60000000
v 0.02802062 -0.00429664 -0.01190419 0.54509804 0.71372549 0.60000000
v -0.06662807 -0.00089171 -0.01253570 0.54509804 0.71372549 0.60000000
v 0.05483612 -0.00196023 -0.01080333 0.54509804 0.71372549 0.60000000
v 0.05483612 -0.00306613 -0.01080088 0.54509804 0.71372549 0.60000000
v 0.05483612 -0.00429664 -0.01072470 0.54509804 0.71372549 0.60000000
v -0.06761806 -0.01353635 0.00266493 0.54509804 0.71372549 0.60000000
v -0.06720251 -0.01306595 0.00500178 0.54509804 0.71372549 0.60000000
v -0.06677473 -0.01261424 0.00633853 0.54509804 0.71372549 0.60000000
v -0.06541807 -0.01166411 0.00782026 0.54509804 0.71372549 0.60000000
v -0.06541807 -0.01049590 0.00874665 0.54509804 0.71372549 0.60000000
v -0.06541807 -0.00896945 0.00940274 0.54509804 0.71372549 0.60000000
v -0.06401252 -0.00538696 0.01082795 0.54509804 0.71372549 0.60000000
v -0.06461140 -0.00382936 0.01098522 0.54509804 0.71372549 0.60000000
v -0.06496585 -0.00196023 0.01117689 0.54509804 0.71372549 0.60000000
v -0.06308362 0.00037618 0.01176417 0.54509804 0.71372549 0.60000000
v -0.06754473 -0.00178578 -0.01163634 0.54509804 0.71372549 0.60000000
v -0.06788695 -0.00415334 -0.01085739 0.54509804 0.71372549 0.60000000
v -0.06874250 -0.00483868 -0.00989169 0.54509804 0.71372549 0.60000000
v -0.06829028 -0.00663304 -0.00948132 0.54509804 0.71372549 0.60000000
v -0.06670140 -0.00791962 -0.01025782 0.54509804 0.71372549 0.60000000
v -0.06763028 -0.00874204 -0.00884489 0.54509804 0.71372549 0.60000000
v -0.06855917 -0.00956134 -0.00730665 0.54509804 0.71372549 0.60000000
v -0.06774029 -0.01120306 -0.00657193 0.54509804 0.71372549 0.60000000
v -0.06692140 -0.01269835 -0.00583966 0.54509804 0.71372549 0.60000000
v -0.06849806 -0.01188529 -0.00434073 0.54509804 0.71372549 0.60000000
v -0.06764251 -0.01348339 -0.00200387 0.54509804 0.71372549 0.60000000
v -0.06770362 -0.01363292 0.00032807 0.54509804 0.71372549 0.60000000
v 0.02101730 -0.00196023 0.01216716 0.54509804 0.71372549 0.60000000
v 0.02802062 -0.00196023 0.01204921 0.54509804 0.71372549 0.60000000
v 0.02802062 0.00037618 0.01210573 0.54509804 0.71372549 0.60000000
v 0.03035506 0.00037618 0.01195584 0.54509804 0.71372549 0.60000000
v 0.03737060 0.00037618 0.01148159 0.54509804 0.71372549 0.60000000
v 0.05483612 0.00148208 0.00977133 0.54509804 0.71372549 0.60000000
v 0.05483612 0.00270947 0.00962144 0.54509804 0.71372549 0.60000000
v -0.05841475 -0.00440567 -0.01239318 0.54509804 0.71372549 0.60000000
v -0.06308362 -0.00288233 -0.01248902 0.54509804 0.71372549 0.60000000
v -0.06541807 -0.00254589 -0.01241530 0.54509804 0.71372549 0.60000000
v 0.05483612 -0.00542746 -0.01055515 0.54509804 0.71372549 0.60000000
v 0.05483612 -0.00629349 -0.01041263 0.54509804 0.71372549 0.60000000
v 0.03035506 -0.00663304 -0.01115964 0.54509804 0.71372549 0.60000000
v 0.02802062 -0.00663304 -0.01123581 0.54509804 0.71372549 0.60000000
v -0.05841475 -0.00663304 -0.01194350 0.54509804 0.71372549 0.60000000
v -0.06541807 -0.00429664 -0.01198773 0.54509804 0.71372549 0.60000000
v -0.06712917 -0.00663304 -0.01056252 0.54509804 0.71372549 0.60000000
v -0.06651806 -0.01480112 0.00032807 0.54509804 0.71372549 0.60000000
v -0.06561362 -0.01468274 0.00267721 0.54509804 0.71372549 0.60000000
v -0.06541807 -0.01387902 0.00500178 0.54509804 0.71372549 0.60000000
v -0.06541807 -0.01286035 0.00665061 0.54509804 0.71372549 0.60000000
v -0.06308362 -0.01202236 0.00810039 0.54509804 0.71372549 0.60000000
v -0.06308362 -0.01085415 0.00898255 0.54509804 0.71372549 0.60000000
v -0.06308362 -0.00896945 0.00989911 0.54509804 0.71372549 0.60000000
v -0.06318140 -0.00649286 0.01063383 0.54509804 0.71372549 0.60000000
v -0.06246029 -0.00562060 0.01087710 0.54509804 0.71372549 0.60000000
v -0.06318140 -0.00448355 0.01104174 0.54509804 0.71372549 0.60000000
v -0.06308362 -0.00196023 0.01149387 0.54509804 0.71372549 0.60000000
v 0.00465178 -0.00196023 0.01205904 0.54509804 0.71372549 0.60000000
v -0.06541807 -0.00663304 -0.01115226 0.54509804 0.71372549 0.60000000
v -0.06541807 -0.00817196 -0.01041263 0.54509804 0.71372549 0.60000000
v -0.06541807 -0.00934016 -0.00962139 0.54509804 0.71372549 0.60000000
v -0.06699473 -0.01050525 -0.00815195 0.54509804 0.71372549 0.60000000
v -0.06541807 -0.01201301 -0.00734351 0.54509804 0.71372549 0.60000000
v -0.06541807 -0.01296315 -0.00617631 0.54509804 0.71372549 0.60000000
v -0.06541807 -0.01394755 -0.00434073 0.54509804 0.71372549 0.60000000
v -0.06732473 -0.01307218 -0.00434073 0.54509804 0.71372549 0.60000000
v 0.01633620 -0.00429664 0.01182069 0.54509804 0.71372549 0.60000000
v 0.01867064 -0.00429664 0.01183543 0.54509804 0.71372549 0.60000000
v 0.02568618 -0.00429664 0.01180103 0.54509804 0.71372549 0.60000000
v 0.02802062 -0.00429664 0.01175680 0.54509804 0.71372549 0.60000000
v 0.03503616 -0.00196023 0.01158233 0.54509804 0.71372549 0.60000000
v 0.03737060 -0.00196023 0.01141770 0.54509804 0.71372549 0.60000000
v 0.05483612 0.00037618 0.00982785 0.54509804 0.71372549 0.60000000
v -0.06062696 -0.00410661 -0.01235878 0.54509804 0.71372549 0.60000000
v -0.06308362 -0.00429664 -0.01220397 0.54509804 0.71372549 0.60000000
v 0.05483612 -0.00704737 -0.01014724 0.54509804 0.71372549 0.60000000
v 0.03268950 -0.00812523 -0.01042000 0.54509804 0.71372549 0.60000000
v 0.03035506 -0.00818442 -0.01045686 0.54509804 0.71372549 0.60000000
v 0.02802062 -0.00822803 -0.01048389 0.54509804 0.71372549 0.60000000
v -0.05374587 -0.01058001 -0.01049863 0.54509804 0.71372549 0.60000000
v -0.05608031 -0.00896945 -0.01121615 0.54509804 0.71372549 0.60000000
v -0.05841475 -0.00896945 -0.01108837 0.54509804 0.71372549 0.60000000
v -0.06074919 -0.00663304 -0.01178378 0.54509804 0.71372549 0.60000000
v -0.06308362 -0.00663304 -0.01150365 0.54509804 0.71372549 0.60000000
v -0.06563806 -0.01465782 -0.00208251 0.54509804 0.71372549 0.60000000
v -0.06500251 -0.01488835 -0.00135516 0.54509804 0.71372549 0.60000000
v -0.06534473 -0.01492573 0.00032807 0.54509804 0.71372549 0.60000000
v -0.06495362 -0.01488212 0.00190318 0.54509804 0.71372549 0.60000000
v -0.06308362 -0.01468586 0.00315884 0.54509804 0.71372549 0.60000000
v -0.06308362 -0.01408151 0.00500178 0.54509804 0.71372549 0.60000000
v -0.06308362 -0.01303791 0.00693319 0.54509804 0.71372549 0.60000000
v -0.06074919 -0.01213762 0.00819623 0.54509804 0.71372549 0.60000000
v -0.06074919 -0.01096941 0.00901941 0.54509804 0.71372549 0.60000000
v -0.06074919 -0.00896945 0.00995808 0.54509804 0.71372549 0.60000000
v -0.06308362 -0.00851463 -0.01062149 0.54509804 0.71372549 0.60000000
v -0.05982030 -0.01020930 -0.01023816 0.54509804 0.71372549 0.60000000
v -0.06541807 -0.01084481 -0.00845419 0.54509804 0.71372549 0.60000000
v -0.05841475 -0.01038376 -0.01036840 0.54509804 0.71372549 0.60000000
v -0.05841475 -0.01155196 -0.00924789 0.54509804 0.71372549 0.60000000
v -0.06308362 -0.01224976 -0.00759906 0.54509804 0.71372549 0.60000000
v -0.05997919 -0.01255194 -0.00794554 0.54509804 0.71372549 0.60000000
v -0.06308362 -0.01314071 -0.00642941 0.54509804 0.71372549 0.60000000
v -0.06308362 -0.01424973 -0.00434073 0.54509804 0.71372549 0.60000000
v 0.01633620 -0.00624364 0.01124077 0.54509804 0.71372549 0.60000000
v 0.01867064 -0.00624364 0.01123832 0.54509804 0.71372549 0.60000000
v 0.02568618 -0.00611592 0.01120392 0.54509804 0.71372549 0.60000000
v 0.02802062 -0.00606296 0.01117934 0.54509804 0.71372549 0.60000000
v 0.03035506 -0.00590720 0.01108105 0.54509804 0.71372549 0.60000000
v 0.03268950 -0.00572652 0.01098030 0.54509804 0.71372549 0.60000000
v 0.03442505 -0.00557699 0.01090167 0.54509804 0.71372549 0.60000000
v 0.03513393 -0.00448355 0.01113511 0.54509804 0.71372549 0.60000000
v 0.03737060 -0.00391658 0.01106385 0.54509804 0.71372549 0.60000000
v 0.05483612 -0.00196023 0.00956738 0.54509804 0.71372549 0.60000000
v 0.05483612 -0.00740562 -0.00998261 0.54509804 0.71372549 0.60000000
v 0.03035506 -0.00935262 -0.00934618 0.54509804 0.71372549 0.60000000
v 0.02802062 -0.00939623 -0.00940023 0.54509804 0.71372549 0.60000000
v 0.05483612 -0.00867039 -0.00879821 0.54509804 0.71372549 0.60000000
v -0.05374587 -0.01174822 -0.00934372 0.54509804 0.71372549 0.60000000
v -0.05608031 -0.01171706 -0.00934126 0.54509804 0.71372549 0.60000000
v -0.05608031 -0.01054886 -0.01048389 0.54509804 0.71372549 0.60000000
v -0.06065141 -0.00908160 -0.01070504 0.54509804 0.71372549 0.60000000
v -0.06308362 -0.01475128 -0.00276317 0.54509804 0.71372549 0.60000000
v -0.06308362 -0.01491638 -0.00159597 0.54509804 0.71372549 0.60000000
v -0.06308362 -0.01500673 0.00032807 0.54509804 0.71372549 0.60000000
v -0.06308362 -0.01489769 0.00198918 0.54509804 0.71372549 0.60000000
v -0.06074919 -0.01400986 0.00500178 0.54509804 0.71372549 0.60000000
v 0.04437392 -0.01145850 0.00032807 0.54509804 0.71372549 0.60000000
v 0.04437392 -0.01098499 0.00266493 0.54509804 0.71372549 0.60000000
v -0.05841475 -0.01296626 0.00702903 0.54509804 0.71372549 0.60000000
v -0.06074919 -0.01302857 0.00702657 0.54509804 0.71372549 0.60000000
v -0.05841475 -0.01216254 0.00819868 0.54509804 0.71372549 0.60000000
v -0.05841475 -0.01099434 0.00899238 0.54509804 0.71372549 0.60000000
v -0.05841475 -0.01264540 -0.00808069 0.54509804 0.71372549 0.60000000
v -0.06074919 -0.01428400 -0.00434073 0.54509804 0.71372549 0.60000000
v -0.05841475 -0.01336813 -0.00667759 0.54509804 0.71372549 0.60000000
v 0.01867064 -0.00741185 0.01057240 0.54509804 0.71372549 0.60000000
v 0.02568618 -0.00728412 0.01047411 0.54509804 0.71372549 0.60000000
v 0.02802062 -0.00723116 0.01041759 0.54509804 0.71372549 0.60000000
v 0.03035506 -0.00707540 0.01032422 0.54509804 0.71372549 0.60000000
v 0.03268950 -0.00689472 0.01020627 0.54509804 0.71372549 0.60000000
v 0.03597727 -0.00538696 0.01081813 0.54509804 0.71372549 0.60000000
v 0.03513393 -0.00646482 0.01019644 0.54509804 0.71372549 0.60000000
v 0.05483612 -0.00529039 0.00841492 0.54509804 0.71372549 0.60000000
v 0.05483612 -0.00422499 0.00885723 0.54509804 0.71372549 0.60000000
v 0.03035506 -0.01036506 -0.00817652 0.54509804 0.71372549 0.60000000
v 0.02568618 -0.01045229 -0.00828710 0.54509804 0.71372549 0.60000000
v -0.04906477 -0.01269524 -0.00814949 0.54509804 0.71372549 0.60000000
v -0.05139920 -0.01169837 -0.00932652 0.54509804 0.71372549 0.60000000
v 0.05483612 -0.00944608 -0.00735579 0.54509804 0.71372549 0.60000000
v 0.03840948 -0.01013142 -0.00783742 0.54509804 0.71372549 0.60000000
v 0.03268950 -0.01030588 -0.00809297 0.54509804 0.71372549 0.60000000
v -0.05374587 -0.01268589 -0.00817652 0.54509804 0.71372549 0.60000000
v -0.05608031 -0.01269212 -0.00817406 0.54509804 0.71372549 0.60000000
v -0.04906477 -0.01417496 -0.00434073 0.54509804 0.71372549 0.60000000
v -0.04673033 -0.01413758 -0.00434073 0.54509804 0.71372549 0.60000000
v -0.04673033 -0.01453010 -0.00200387 0.54509804 0.71372549 0.60000000
v -0.04673033 -0.01452698 0.00032807 0.54509804 0.71372549 0.60000000
v -0.03271147 -0.01405659 0.00032807 0.54509804 0.71372549 0.60000000
v 0.02979284 -0.01017815 0.00625499 0.54509804 0.71372549 0.60000000
v 0.02802062 -0.01021242 0.00632871 0.54509804 0.71372549 0.60000000
v 0.02568618 -0.01025603 0.00642700 0.54509804 0.71372549 0.60000000
v -0.00001710 -0.01307218 -0.00200387 0.54509804 0.71372549 0.60000000
v 0.04437392 -0.01149277 -0.00200387 0.54509804 0.71372549 0.60000000
v 0.04670836 -0.01134947 -0.00200387 0.54509804 0.71372549 0.60000000
v 0.04670836 -0.01129963 0.00032807 0.54509804 0.71372549 0.60000000
v 0.04691613 -0.01061428 0.00288608 0.54509804 0.71372549 0.60000000
v 0.04437392 -0.01038687 0.00424003 0.54509804 0.71372549 0.60000000
v 0.02568618 -0.00966414 0.00759665 0.54509804 0.71372549 0.60000000
v 0.02568618 -0.00849594 0.00930691 0.54509804 0.71372549 0.60000000
v -0.05608031 -0.01338682 -0.00667759 0.54509804 0.71372549 0.60000000
v -0.04906477 -0.01340551 -0.00667759 0.54509804 0.71372549 0.60000000
v 0.02802062 -0.00842740 0.00925039 0.54509804 0.71372549 0.60000000
v 0.03035506 -0.00836198 0.00915456 0.54509804 0.71372549 0.60000000
v 0.03268950 -0.00827164 0.00903907 0.54509804 0.71372549 0.60000000
v 0.03737060 -0.00799439 0.00872208 0.54509804 0.71372549 0.60000000
v 0.03910615 -0.00788847 0.00859922 0.54509804 0.71372549 0.60000000
v 0.03737060 -0.00663304 0.00978116 0.54509804 0.71372549 0.60000000
v 0.05483612 -0.00652401 0.00729195 0.54509804 0.71372549 0.60000000
v 0.04067059 -0.00775763 0.00846898 0.54509804 0.71372549 0.60000000
v 0.03035506 -0.01106287 -0.00667759 0.54509804 0.71372549 0.60000000
v 0.02335174 -0.01127782 -0.00667759 0.54509804 0.71372549 0.60000000
v -0.04673033 -0.01333697 -0.00667759 0.54509804 0.71372549 0.60000000
v 0.05483612 -0.00977317 -0.00667759 0.54509804 0.71372549 0.60000000
v 0.04437392 -0.01051459 -0.00633603 0.54509804 0.71372549 0.60000000
v 0.03268950 -0.01095072 -0.00667759 0.54509804 0.71372549 0.60000000
v -0.03271147 -0.01376064 -0.00434073 0.54509804 0.71372549 0.60000000
v -0.03271147 -0.01411266 -0.00200387 0.54509804 0.71372549 0.60000000
v 0.03048950 -0.00964545 0.00715680 0.54509804 0.71372549 0.60000000
v 0.02802062 -0.00959561 0.00749836 0.54509804 0.71372549 0.60000000
v 0.03035506 -0.01174510 -0.00434073 0.54509804 0.71372549 0.60000000
v 0.03268950 -0.01165476 -0.00434073 0.54509804 0.71372549 0.60000000
v 0.04437392 -0.01115010 -0.00434073 0.54509804 0.71372549 0.60000000
v 0.05483612 -0.01014388 -0.00290815 0.54509804 0.71372549 0.60000000
v 0.04670836 -0.01099745 -0.00434073 0.54509804 0.71372549 0.60000000
v 0.05483612 -0.01003485 -0.00522043 0.54509804 0.71372549 0.60000000
v 0.05483612 -0.01007535 -0.00493047 0.54509804 0.71372549 0.60000000
v 0.05483612 -0.01014388 -0.00348806 0.54509804 0.71372549 0.60000000
v 0.05483612 -0.01006289 -0.00148539 0.54509804 0.71372549 0.60000000
v 0.05483612 -0.00981367 0.00032807 0.54509804 0.71372549 0.60000000
v 0.05483612 -0.00929966 0.00258384 0.54509804 0.71372549 0.60000000
v 0.04782058 -0.01012831 0.00381247 0.54509804 0.71372549 0.60000000
v 0.04626835 -0.01024980 0.00403116 0.54509804 0.71372549 0.60000000
v 0.04691613 -0.00959872 0.00488629 0.54509804 0.71372549 0.60000000
v 0.04437392 -0.00961118 0.00540969 0.54509804 0.71372549 0.60000000
v 0.03268950 -0.00937443 0.00733864 0.54509804 0.71372549 0.60000000
v 0.04905502 -0.00812523 0.00657935 0.54509804 0.71372549 0.60000000
v 0.05483612 -0.00768910 0.00600680 0.54509804 0.71372549 0.60000000
v 0.04670836 -0.01043048 -0.00619842 0.54509804 0.71372549 0.60000000
v 0.05483612 -0.00833706 0.00492807 0.54509804 0.71372549 0.60000000
f 1 2 7
f 1 7 3
f 1 3 4
f 1 4 5
f 1 5 2
f 2 6 7
f 2 5 8
f 2 8 6
f 3 9 4
f 3 7 10
f 3 10 11
f 3 11 9
f 4 9 12
f 4 12 13
f 4 13 14
f 4 14 15
f 4 15 5
f 5 15 14
f 5 14 16
f 5 16 8
f 6 17 18
f 6 18 7
f 6 8 17
f 7 18 19
f 7 19 20
f 7 20 10
f 8 16 21
f 8 21 22
f 8 22 23
f 8 23 24
f 8 24 17
f 9 11 25
f 9 25 26
f 9 26 27
f 9 27 12
f 10 28 11
f 10 20 28
f 11 28 29
f 11 29 25
f 12 27 30
f 12 30 31
f 12 31 13
f 13 32 55
f 13 55 54
f 13 54 80
f 13 80 114
f 13 114 159
f 13 159 199
f 13 199 198
f 13 198 232
f 13 232 231
f 13 231 271
f 13 271 270
f 13 270 308
f 13 308 348
f 13 348 379
f 13 379 378
f 13 378 413
f 13 413 442
f 13 442 444
f 13 444 435
f 13 435 434
f 13 434 433
f 13 433 428
f 13 428 432
f 13 432 431
f 13 431 430
f 13 430 418
f 13 418 384
f 13 384 352
f 13 352 349
f 13 349 311
f 13 311 276
f 13 276 275
f 13 275 242
f 13 242 241
f 13 241 240
f 13 240 205
f 13 205 168
f 13 168 167
f 13 167 166
f 13 166 128
f 13 128 93
f 13 93 66
f 13 66 40
f 13 40 39
f 13 39 38
f 13 38 22
f 13 22 21
f 13 21 16
f 13 16 14
f 13 31 32
f 17 33 18
f 17 24 33
f 18 34 35
f 18 35 19
f 18 33 36
f 18 36 34
f 19 35 20
f 20 35 37
f 20 37 28
f 22 38 24
f 22 24 23
f 24 38 39
f 24 39 40
f 24 40 41
f 24 41 42
f 24 42 33
f 25 29 43
f 25 43 26
f 26 44 27
f 26 43 45
f 26 45 46
f 26 46 44
f 27 44 30
f 28 37 47
f 28 47 48
f 28 48 29
f 29 48 49
f 29 49 50
f 29 50 43
f 30 44 51
f 30 51 52
f 30 52 53
f 30 53 31
f 31 53 54
f 31 54 55
f 31 55 32
f 33 56 36
f 33 42 56
f 34 36 57
f 34 57 58
f 34 58 35
f 35 58 59
f 35 59 37
f 36 60 57
f 36 56 61
f 36 61 60
f 37 59 58
f 37 58 62
f 37 62 63
f 37 63 64
f 37 64 65
f 37 65 47
f 40 66 67
f 40 67 41
f 41 67 42
f 42 67 68
f 42 68 56
f 43 50 45
f 44 46 69
f 44 69 70
f 44 70 51
f 45 50 71
f 45 71 72
f 45 72 73
f 45 73 69
f 45 69 46
f 47 65 48
f 48 65 74
f 48 74 49
f 49 74 75
f 49 75 50
f 50 75 71
f 51 70 52
f 52 70 76
f 52 76 77
f 52 77 78
f 52 78 53
f 53 78 79
f 53 79 80
f 53 80 54
f 56 68 61
f 57 81 58
f 57 60 81
f 58 81 82
f 58 82 83
f 58 83 84
f 58 84 62
f 60 85 86
f 60 86 82
f 60 82 81
f 60 61 87
f 60 87 85
f 61 68 87
f 62 84 63
f 63 84 83
f 63 83 88
f 63 88 89
f 63 89 90
f 63 90 91
f 63 91 64
f 64 91 65
f 65 92 74
f 65 91 92
f 66 93 67
f 67 94 95
f 67 95 68
f 67 93 94
f 68 95 96
f 68 96 87
f 69 73 70
f 70 97 76
f 70 73 98
f 70 98 97
f 71 75 99
f 71 99 100
f 71 100 101
f 71 101 72
f 72 101 73
f 73 101 98
f 74 92 102
f 74 102 75
f 75 102 103
f 75 103 104
f 75 104 105
f 75 105 106
f 75 106 99
f 76 97 107
f 76 107 108
f 76 108 109
f 76 109 77
f 77 110 111
f 77 111 78
f 77 109 110
f 78 111 112
f 78 112 79
f 79 112 113
f 79 113 80
f 80 113 114
f 82 86 115
f 82 115 116
f 82 116 83
f 83 116 117
f 83 117 88
f 85 118 116
f 85 116 115
f 85 115 86
f 85 87 118
f 87 96 119
f 87 119 118
f 88 117 120
f 88 120 121
f 88 121 89
f 89 122 123
f 89 123 124
f 89 124 90
f 89 121 122
f 90 124 91
f 91 124 123
f 91 123 125
f 91 125 126
f 91 126 92
f 92 126 127
f 92 127 102
f 93 128 94
f 94 129 95
f 94 128 129
f 95 129 130
f 95 130 96
f 96 131 119
f 96 130 132
f 96 132 131
f 97 133 107
f 97 98 101
f 97 101 134
f 97 134 133
f 99 135 100
f 99 106 135
f 100 135 136
f 100 136 137
f 100 137 138
f 100 138 101
f 101 138 139
f 101 139 140
f 101 140 141
f 101 141 142
f 101 142 134
f 102 127 125
f 102 125 143
f 102 143 144
f 102 144 104
f 102 104 103
f 104 145 105
f 104 144 145
f 105 145 146
f 105 146 147
f 105 147 106
f 106 147 135
f 107 148 108
f 107 133 148
f 108 148 149
f 108 149 150
f 108 150 109
f 109 150 110
f 110 150 149
f 110 149 151
f 110 151 152
f 110 152 153
f 110 153 111
f 111 153 154
f 111 154 155
f 111 155 112
f 112 155 156
f 112 156 157
f 112 157 158
f 112 158 113
f 113 158 114
f 114 158 159
f 116 118 119
f 116 119 117
f 117 119 120
f 119 160 120
f 119 131 161
f 119 161 160
f 120 160 162
f 120 162 163
f 120 163 164
f 120 164 122
f 120 122 121
f 122 164 165
f 122 165 125
f 122 125 123
f 125 127 126
f 125 165 143
f 128 166 129
f 129 132 130
f 129 166 167
f 129 167 132
f 131 132 161
f 132 167 168
f 132 168 169
f 132 169 170
f 132 170 171
f 132 171 161
f 133 134 172
f 133 172 173
f 133 173 148
f 134 142 174
f 134 174 172
f 135 147 175
f 135 175 176
f 135 176 136
f 136 176 177
f 136 177 137
f 137 177 178
f 137 178 179
f 137 179 180
f 137 180 181
f 137 181 139
f 137 139 138
f 139 181 180
f 139 180 141
f 139 141 140
f 141 180 182
f 141 182 142
f 142 182 174
f 143 165 183
f 143 183 184
f 143 184 144
f 144 184 185
f 144 185 145
f 145 185 186
f 145 186 187
f 145 187 146
f 146 187 188
f 146 188 189
f 146 189 147
f 147 189 175
f 148 173 190
f 148 190 149
f 149 190 191
f 149 191 151
f 151 191 192
f 151 192 152
f 152 192 193
f 152 193 153
f 153 193 194
f 153 194 154
f 154 194 155
f 155 194 195
f 155 195 156
f 156 195 196
f 156 196 157
f 157 196 197
f 157 197 198
f 157 198 199
f 157 199 158
f 158 199 159
f 160 161 162
f 161 200 202
f 161 202 162
f 161 171 201
f 161 201 200
f 162 202 203
f 162 203 163
f 163 203 204
f 163 204 164
f 164 204 183
f 164 183 165
f 168 205 206
f 168 206 169
f 169 206 170
f 170 206 171
f 171 206 201
f 172 174 173
f 173 174 207
f 173 207 190
f 174 182 207
f 175 189 226
f 175 226 208
f 175 208 176
f 176 208 209
f 176 209 177
f 177 209 210
f 177 210 211
f 177 211 178
f 178 211 212
f 178 212 179
f 179 212 213
f 179 213 214
f 179 214 215
f 179 215 180
f 180 215 182
f 182 215 216
f 182 216 207
f 183 204 217
f 183 217 184
f 184 217 218
f 184 218 219
f 184 219 186
f 184 186 185
f 186 219 220
f 186 220 221
f 186 221 222
f 186 222 187
f 187 222 223
f 187 223 224
f 187 224 188
f 188 224 225
f 188 225 226
f 188 226 189
f 190 207 227
f 190 227 228
f 190 228 192
f 190 192 191
f 192 228 229
f 192 229 194
f 192 194 193
f 194 229 195
f 195 229 230
f 195 230 196
f 196 230 231
f 196 231 232
f 196 232 198
f 196 198 197
f 200 233 234
f 200 234 235
f 200 235 236
f 200 236 237
f 200 237 202
f 200 201 233
f 201 206 238
f 201 238 233
f 202 237 239
f 202 239 203
f 203 239 204
f 204 239 217
f 205 240 206
f 206 240 241
f 206 241 242
f 206 242 238
f 207 216 227
f 208 226 243
f 208 243 244
f 208 244 209
f 209 244 245
f 209 245 210
f 210 245 211
f 211 245 246
f 211 246 247
f 211 247 248
f 211 248 213
f 211 213 212
f 213 248 249
f 213 249 250
f 213 250 214
f 214 250 251
f 214 251 215
f 215 251 216
f 216 251 252
f 216 252 227
f 217 239 253
f 217 253 218
f 218 253 239
f 218 239 254
f 218 254 255
f 218 255 221
f 218 221 220
f 218 220 219
f 221 255 256
f 221 256 257
f 221 257 258
f 221 258 259
f 221 259 223
f 221 223 222
f 223 259 260
f 223 260 261
f 223 261 262
f 223 262 224
f 224 262 225
f 225 262 263
f 225 263 264
f 225 264 226
f 226 264 243
f 227 252 228
f 228 265 266
f 228 266 267
f 228 267 229
f 228 252 265
f 229 267 230
f 230 267 268
f 230 268 269
f 230 269 270
f 230 270 271
f 230 271 231
f 233 272 234
f 233 238 272
f 234 272 235
f 235 272 273
f 235 273 236
f 236 273 237
f 237 274 239
f 237 273 274
f 238 242 275
f 238 275 276
f 238 276 277
f 238 277 278
f 238 278 279
f 238 279 272
f 239 274 280
f 239 280 281
f 239 281 254
f 243 264 282
f 243 282 283
f 243 283 244
f 244 283 284
f 244 284 245
f 245 284 285
f 245 285 246
f 246 285 286
f 246 286 247
f 247 286 287
f 247 287 288
f 247 288 248
f 248 288 249
f 249 288 289
f 249 289 290
f 249 290 291
f 249 291 292
f 249 292 250
f 250 292 251
f 251 292 252
f 252 292 293
f 252 293 265
f 254 281 255
f 255 281 256
f 256 281 257
f 257 280 294
f 257 294 295
f 257 295 296
f 257 296 297
f 257 297 258
f 257 281 280
f 258 297 259
f 259 297 260
f 260 297 261
f 261 297 298
f 261 298 299
f 261 299 300
f 261 300 301
f 261 301 262
f 262 301 263
f 263 301 282
f 263 282 264
f 265 293 302
f 265 302 303
f 265 303 304
f 265 304 266
f 266 304 305
f 266 305 306
f 266 306 268
f 266 268 267
f 268 306 269
f 269 306 307
f 269 307 308
f 269 308 270
f 272 279 309
f 272 309 273
f 273 310 274
f 273 309 310
f 274 310 280
f 276 311 277
f 277 312 278
f 277 311 312
f 278 312 313
f 278 313 314
f 278 314 315
f 278 315 316
f 278 316 279
f 279 316 317
f 279 317 318
f 279 318 310
f 279 310 309
f 280 310 318
f 280 318 319
f 280 319 294
f 282 320 321
f 282 321 322
f 282 322 323
f 282 323 283
f 282 301 320
f 283 323 324
f 283 324 325
f 283 325 284
f 284 325 326
f 284 326 285
f 285 326 286
f 286 326 327
f 286 327 287
f 287 327 328
f 287 328 288
f 288 328 329
f 288 329 289
f 289 329 302
f 289 302 290
f 290 292 291
f 290 302 292
f 292 302 293
f 294 319 330
f 294 330 295
f 295 330 331
f 295 331 296
f 296 332 297
f 296 331 332
f 297 332 298
f 298 332 331
f 298 331 333
f 298 333 334
f 298 334 335
f 298 335 299
f 299 335 336
f 299 336 337
f 299 337 300
f 300 320 301
f 300 337 338
f 300 338 320
f 302 329 303
f 303 329 339
f 303 339 340
f 303 340 304
f 304 341 342
f 304 342 305
f 304 340 341
f 305 342 343
f 305 343 344
f 305 344 345
f 305 345 346
f 305 346 347
f 305 347 307
f 305 307 306
f 307 347 348
f 307 348 308
f 311 349 312
f 312 350 351
f 312 351 313
f 312 349 352
f 312 352 350
f 313 351 314
f 314 351 315
f 315 353 354
f 315 354 355
f 315 355 316
f 315 351 353
f 316 355 317
f 317 333 356
f 317 356 330
f 317 330 319
f 317 319 318
f 317 355 333
f 320 338 357
f 320 357 321
f 321 357 358
f 321 358 359
f 321 359 322
f 322 359 323
f 323 359 360
f 323 360 324
f 324 361 325
f 324 360 362
f 324 362 363
f 324 363 361
f 325 361 364
f 325 364 365
f 325 365 326
f 326 365 327
f 327 365 366
f 327 366 328
f 328 366 367
f 328 367 340
f 328 340 339
f 328 339 329
f 330 356 333
f 330 333 331
f 333 355 334
f 334 355 354
f 334 354 368
f 334 368 336
f 334 336 335
f 336 368 337
f 337 368 338
f 338 369 357
f 338 368 370
f 338 370 369
f 340 367 371
f 340 371 341
f 341 371 342
f 342 371 372
f 342 372 373
f 342 373 374
f 342 374 343
f 343 374 344
f 344 375 345
f 344 374 375
f 345 376 346
f 345 375 377
f 345 377 378
f 345 378 376
f 346 376 347
f 347 376 348
f 348 376 379
f 350 380 381
f 350 381 351
f 350 352 380
f 351 381 382
f 351 382 383
f 351 383 353
f 352 384 385
f 352 385 386
f 352 386 380
f 353 383 382
f 353 382 387
f 353 387 388
f 353 388 354
f 354 388 368
f 357 369 389
f 357 389 390
f 357 390 391
f 357 391 358
f 358 391 359
f 359 391 392
f 359 392 360
f 360 392 393
f 360 393 362
f 361 363 394
f 361 394 395
f 361 395 396
f 361 396 364
f 362 397 398
f 362 398 399
f 362 399 400
f 362 400 363
f 362 393 397
f 363 400 401
f 363 401 402
f 363 402 394
f 364 366 365
f 364 396 403
f 364 403 404
f 364 404 366
f 366 404 371
f 366 371 367
f 368 388 370
f 369 370 405
f 369 405 406
f 369 406 389
f 370 388 405
f 371 404 372
f 372 404 373
f 373 407 408
f 373 408 409
f 373 409 374
f 373 404 407
f 374 409 375
f 375 410 411
f 375 411 412
f 375 412 377
f 375 409 410
f 376 378 379
f 377 412 378
f 378 412 411
f 378 411 414
f 378 414 413
f 380 386 415
f 380 415 416
f 380 416 381
f 381 416 417
f 381 417 406
f 381 406 382
f 382 406 388
f 382 388 387
f 384 418 385
f 385 418 419
f 385 419 386
f 386 419 420
f 386 420 415
f 388 406 405
f 389 406 390
f 390 406 421
f 390 421 391
f 391 422 392
f 391 421 422
f 392 422 397
f 392 397 393
f 394 423 424
f 394 424 403
f 394 403 395
f 394 402 423
f 395 403 396
f 397 425 398
f 397 422 421
f 397 421 425
f 398 425 426
f 398 426 427
f 398 427 399
f 399 428 400
f 399 427 429
f 399 429 430
f 399 430 431
f 399 431 432
f 399 432 428
f 400 428 433
f 400 433 434
f 400 434 435
f 400 435 401
f 401 436 437
f 401 437 402
f 401 435 436
f 402 437 438
f 402 438 439
f 402 439 409
f 402 409 440
f 402 440 423
f 403 424 408
f 403 408 407
f 403 407 404
f 406 417 421
f 408 423 440
f 408 440 409
f 408 424 423
f 409 439 410
f 410 439 411
f 411 439 441
f 411 441 414
f 413 441 442
f 413 414 441
f 415 420 419
f 415 419 427
f 415 427 426
f 415 426 425
f 415 425 421
f 415 421 416
f 416 421 417
f 418 430 429
f 418 429 427
f 418 427 443
f 418 443 419
f 419 443 427
f 435 444 436
f 436 444 437
f 437 444 442
f 437 442 438
f 438 442 439
f 439 442 441

