# https://github.com/mikedh/trimesh
v 0.06699961 0.01439339 0.03070460 0.43529412 0.89019608 0.96078431
v 0.06764292 0.01439339 0.03304034 0.43529412 0.89019608 0.96078431
v 0.06757680 0.01672771 0.03070460 0.43529412 0.89019608 0.96078431
v 0.06777517 0.01672771 0.02836887 0.43529412 0.89019608 0.96078431
v 0.06788675 0.01672771 0.02749677 0.43529412 0.89019608 0.96078431
v 0.06742665 0.01439339 0.02836887 0.43529412 0.89019608 0.96078431
v 0.06706987 0.01205500 0.03070460 0.43529412 0.89019608 0.96078431
v 0.06775037 0.00270956 0.03304034 0.43529412 0.89019608 0.96078431
v 0.06747349 0.01205500 0.03304034 0.43529412 0.89019608 0.96078431
v 0.06866506 0.01439339 0.03434933 0.43529412 0.89019608 0.96078431
v 0.06879455 0.01572147 0.03426820 0.43529412 0.89019608 0.96078431
v 0.06830414 0.01659328 0.03304118 0.43529412 0.89019608 0.96078431
v 0.06837302 0.00504795 0.03501777 0.43529412 0.89019608 0.96078431
v 0.06850389 0.01205500 0.03447609 0.43529412 0.89019608 0.96078431
v 0.06865955 0.01821875 0.03226204 0.43529412 0.89019608 0.96078431
v 0.06849562 0.01847133 0.03070460 0.43529412 0.89019608 0.96078431
v 0.06851491 0.01856910 0.02836887 0.43529412 0.89019608 0.96078431
v 0.06854659 0.01856503 0.02749677 0.43529412 0.89019608 0.96078431
v 0.06759333 0.01439339 0.02749677 0.43529412 0.89019608 0.96078431
v 0.06822011 0.00270956 0.02749677 0.43529412 0.89019608 0.96078431
v 0.06887169 -0.01062011 0.02941589 0.43529412 0.89019608 0.96078431
v 0.06807960 -0.00429341 0.03304034 0.43529412 0.89019608 0.96078431
v 0.06851491 -0.00429341 0.03482509 0.43529412 0.89019608 0.96078431
v 0.06835924 0.00270956 0.03511241 0.43529412 0.89019608 0.96078431
v 0.07008530 0.00504795 0.03596507 0.43529412 0.89019608 0.96078431
v 0.07008530 0.01580702 0.03429693 0.43529412 0.89019608 0.96078431
v 0.07008530 0.01697215 0.03371723 0.43529412 0.89019608 0.96078431
v 0.07008530 0.01854466 0.03254936 0.43529412 0.89019608 0.96078431
v 0.07008530 0.00270956 0.03612902 0.43529412 0.89019608 0.96078431
v 0.07096969 0.02036160 0.02984602 0.43529412 0.89019608 0.96078431
v 0.07014867 0.01961608 0.03065643 0.43529412 0.89019608 0.96078431
v 0.07064872 0.02059381 0.02836887 0.43529412 0.89019608 0.96078431
v 0.06948056 0.01973830 0.02836887 0.43529412 0.89019608 0.96078431
v 0.06940480 0.01973015 0.02749677 0.43529412 0.89019608 0.96078431
v 0.06880006 0.01900093 0.02749677 0.43529412 0.89019608 0.96078431
v 0.06935934 -0.01230669 0.02749677 0.43529412 0.89019608 0.96078431
v 0.06878904 -0.01077900 0.03070460 0.43529412 0.89019608 0.96078431
v 0.06863889 -0.00897020 0.03070460 0.43529412 0.89019608 0.96078431
v 0.06879179 -0.01050605 0.03208373 0.43529412 0.89019608 0.96078431
v 0.06870501 -0.00608591 0.03451665 0.43529412 0.89019608 0.96078431
v 0.07008530 -0.00429341 0.03572339 0.43529412 0.89019608 0.96078431
v 0.07853377 0.01841429 0.03206430 0.43529412 0.89019608 0.96078431
v 0.07138157 0.01572554 0.03426736 0.43529412 0.89019608 0.96078431
v 0.07613822 0.02027605 0.03191641 0.43529412 0.89019608 0.96078431
v 0.07571945 0.02027605 0.03191641 0.43529412 0.89019608 0.96078431
v 0.07242161 0.01992162 0.03135614 0.43529412 0.89019608 0.96078431
v 0.07242161 -0.00429341 0.03539635 0.43529412 0.89019608 0.96078431
v 0.07242161 0.02054492 0.03018827 0.43529412 0.89019608 0.96078431
v 0.07242161 0.02127007 0.02836887 0.43529412 0.89019608 0.96078431
v 0.07249738 0.02152672 0.02749677 0.43529412 0.89019608 0.96078431
v 0.07133198 0.02108267 0.02749677 0.43529412 0.89019608 0.96078431
v 0.07057295 0.02068343 0.02749677 0.43529412 0.89019608 0.96078431
v 0.06964174 -0.01364292 0.02749677 0.43529412 0.89019608 0.96078431
v 0.06985388 -0.01451473 0.02749677 0.43529412 0.89019608 0.96078431
v 0.06919541 -0.01194412 0.03070460 0.43529412 0.89019608 0.96078431
v 0.07079198 -0.01663313 0.02749677 0.43529412 0.89019608 0.96078431
v 0.07107024 -0.01713015 0.02749677 0.43529412 0.89019608 0.96078431
v 0.07097106 -0.01508506 0.02989081 0.43529412 0.89019608 0.96078431
v 0.07081953 -0.01280370 0.03207106 0.43529412 0.89019608 0.96078431
v 0.07005913 -0.01129230 0.03252147 0.43529412 0.89019608 0.96078431
v 0.06905904 -0.00764212 0.03405187 0.43529412 0.89019608 0.96078431
v 0.06993653 -0.00677032 0.03488932 0.43529412 0.89019608 0.96078431
v 0.07061703 -0.00836320 0.03444820 0.43529412 0.89019608 0.96078431
v 0.07242161 -0.00663181 0.03501777 0.43529412 0.89019608 0.96078431
v 0.07853377 0.01764841 0.03206430 0.43529412 0.89019608 0.96078431
v 0.08107257 0.00492574 0.02915054 0.43529412 0.89019608 0.96078431
v 0.08107257 0.01906611 0.02898829 0.43529412 0.89019608 0.96078431
v 0.08107257 0.02039419 0.02865788 0.43529412 0.89019608 0.96078431
v 0.08107257 0.02138821 0.02834520 0.43529412 0.89019608 0.96078431
v 0.07769622 0.01997051 0.03165360 0.43529412 0.89019608 0.96078431
v 0.07698816 0.01913944 0.03216993 0.43529412 0.89019608 0.96078431
v 0.08107257 0.02246778 0.02749677 0.43529412 0.89019608 0.96078431
v 0.07886988 0.02247186 0.02749677 0.43529412 0.89019608 0.96078431
v 0.07787943 0.02241075 0.02749677 0.43529412 0.89019608 0.96078431
v 0.07593985 0.02223150 0.02749677 0.43529412 0.89019608 0.96078431
v 0.07475655 0.02172227 0.02836887 0.43529412 0.89019608 0.96078431
v 0.07486813 0.02065084 0.03080685 0.43529412 0.89019608 0.96078431
v 0.07386252 -0.00663181 0.03439919 0.43529412 0.89019608 0.96078431
v 0.07396997 -0.00429341 0.03449806 0.43529412 0.89019608 0.96078431
v 0.07352089 0.02180375 0.02749677 0.43529412 0.89019608 0.96078431
v 0.07123142 -0.01726865 0.02749677 0.43529412 0.89019608 0.96078431
v 0.07242161 -0.01810787 0.02749677 0.43529412 0.89019608 0.96078431
v 0.07473588 -0.01914671 0.02749677 0.43529412 0.89019608 0.96078431
v 0.07171356 -0.01280370 0.03207106 0.43529412 0.89019608 0.96078431
v 0.06993653 -0.00907205 0.03370962 0.43529412 0.89019608 0.96078431
v 0.07242161 -0.00825728 0.03440933 0.43529412 0.89019608 0.96078431
v 0.07363936 -0.00784582 0.03423693 0.43529412 0.89019608 0.96078431
v 0.07502930 -0.00663181 0.03346624 0.43529412 0.89019608 0.96078431
v 0.07625256 -0.00832653 0.03220796 0.43529412 0.89019608 0.96078431
v 0.08107257 0.00200885 0.02869590 0.43529412 0.89019608 0.96078431
v 0.08107257 0.02225187 0.02772916 0.43529412 0.89019608 0.96078431
v 0.08107257 -0.00360900 0.02749677 0.43529412 0.89019608 0.96078431
v 0.07475655 0.02204003 0.02749677 0.43529412 0.89019608 0.96078431
v 0.07515603 -0.01910189 0.02749677 0.43529412 0.89019608 0.96078431
v 0.07695235 -0.01821379 0.02749677 0.43529412 0.89019608 0.96078431
v 0.07242161 -0.00942647 0.03376877 0.43529412 0.89019608 0.96078431
v 0.07698541 -0.01818935 0.02749677 0.43529412 0.89019608 0.96078431
v 0.07700745 -0.01815676 0.02749677 0.43529412 0.89019608 0.96078431
v 0.07792627 -0.01653944 0.02749677 0.43529412 0.89019608 0.96078431
v 0.08107257 -0.00261905 0.02787366 0.43529412 0.89019608 0.96078431
v 0.08107257 -0.00195909 0.02805450 0.43529412 0.89019608 0.96078431
f 1 2 3
f 1 3 4
f 1 4 5
f 1 5 6
f 1 6 7
f 1 7 8
f 1 8 9
f 1 9 2
f 2 10 11
f 2 11 12
f 2 12 3
f 2 9 13
f 2 13 14
f 2 14 10
f 3 12 15
f 3 15 16
f 3 16 17
f 3 17 18
f 3 18 4
f 4 18 5
f 5 18 35
f 5 35 34
f 5 34 52
f 5 52 51
f 5 51 50
f 5 50 80
f 5 80 93
f 5 93 75
f 5 75 74
f 5 74 73
f 5 73 72
f 5 72 92
f 5 92 99
f 5 99 98
f 5 98 97
f 5 97 95
f 5 95 94
f 5 94 83
f 5 83 82
f 5 82 81
f 5 81 57
f 5 57 56
f 5 56 54
f 5 54 53
f 5 53 36
f 5 36 20
f 5 20 19
f 5 19 6
f 6 19 7
f 7 19 20
f 7 20 21
f 7 21 22
f 7 22 8
f 8 22 23
f 8 23 24
f 8 24 9
f 9 24 13
f 10 14 25
f 10 25 11
f 11 26 27
f 11 27 28
f 11 28 15
f 11 15 12
f 11 25 26
f 13 25 14
f 13 24 29
f 13 29 25
f 15 28 30
f 15 30 31
f 15 31 32
f 15 32 16
f 16 32 33
f 16 33 34
f 16 34 35
f 16 35 17
f 17 35 18
f 20 36 21
f 21 36 37
f 21 37 38
f 21 38 22
f 22 38 37
f 22 37 39
f 22 39 40
f 22 40 23
f 23 40 41
f 23 41 29
f 23 29 24
f 25 42 43
f 25 43 26
f 25 29 42
f 26 43 44
f 26 44 27
f 27 44 45
f 27 45 28
f 28 45 46
f 28 46 30
f 29 41 47
f 29 47 42
f 30 46 48
f 30 48 49
f 30 49 50
f 30 50 51
f 30 51 32
f 30 32 31
f 32 51 52
f 32 52 33
f 33 52 34
f 36 53 37
f 37 53 54
f 37 54 39
f 39 54 55
f 39 55 56
f 39 56 57
f 39 57 58
f 39 58 59
f 39 59 60
f 39 60 61
f 39 61 40
f 40 61 62
f 40 62 41
f 41 62 63
f 41 63 64
f 41 64 47
f 42 65 66
f 42 66 67
f 42 67 68
f 42 68 69
f 42 69 70
f 42 70 71
f 42 71 43
f 42 47 65
f 43 71 44
f 44 71 70
f 44 70 72
f 44 72 73
f 44 73 45
f 45 73 74
f 45 74 75
f 45 75 76
f 45 76 77
f 45 77 48
f 45 48 46
f 47 64 78
f 47 78 79
f 47 79 65
f 48 77 76
f 48 76 49
f 49 76 80
f 49 80 50
f 54 56 55
f 57 81 58
f 58 81 82
f 58 82 83
f 58 83 59
f 59 83 84
f 59 84 63
f 59 63 85
f 59 85 60
f 60 85 61
f 61 85 63
f 61 63 62
f 63 86 64
f 63 84 86
f 64 86 87
f 64 87 78
f 65 79 66
f 66 79 88
f 66 88 89
f 66 89 90
f 66 90 101
f 66 101 100
f 66 100 92
f 66 92 72
f 66 72 91
f 66 91 69
f 66 69 68
f 66 68 67
f 69 91 70
f 70 91 72
f 75 93 76
f 76 93 80
f 78 88 79
f 78 87 89
f 78 89 88
f 83 94 84
f 84 94 95
f 84 95 96
f 84 96 86
f 86 96 95
f 86 95 87
f 87 95 97
f 87 97 98
f 87 98 89
f 89 98 99
f 89 99 100
f 89 100 101
f 89 101 90
f 92 100 99

