# https://github.com/mikedh/trimesh
v 0.08644726 0.02786932 0.01668700 0.38039216 0.78823529 0.52549020
v 0.08644726 0.02776109 0.01477426 0.38039216 0.78823529 0.52549020
v 0.08602363 0.02775594 0.01477426 0.38039216 0.78823529 0.52549020
v 0.08410767 0.02783840 0.01668700 0.38039216 0.78823529 0.52549020
v 0.08663019 0.02746217 0.01914765 0.38039216 0.78823529 0.52549020
v 0.08862316 0.02745186 0.01916882 0.38039216 0.78823529 0.52549020
v 0.09578632 0.02782294 0.01668700 0.38039216 0.78823529 0.52549020
v 0.09770227 0.02778686 0.01477426 0.38039216 0.78823529 0.52549020
v 0.08410767 0.02768894 0.01477426 0.38039216 0.78823529 0.52549020
v 0.08368404 0.02764771 0.01477426 0.38039216 0.78823529 0.52549020
v 0.08176809 0.02759617 0.01668700 0.38039216 0.78823529 0.52549020
v 0.08035279 0.02731270 0.01803438 0.38039216 0.78823529 0.52549020
v 0.08176809 0.02741063 0.01831083 0.38039216 0.78823529 0.52549020
v 0.08410767 0.02749824 0.01862463 0.38039216 0.78823529 0.52549020
v 0.08752558 0.02725086 0.02021858 0.38039216 0.78823529 0.52549020
v 0.08773740 0.02725086 0.02021858 0.38039216 0.78823529 0.52549020
v 0.09578632 0.02747763 0.01865577 0.38039216 0.78823529 0.52549020
v 0.09812590 0.02777655 0.01668700 0.38039216 0.78823529 0.52549020
v 0.10004186 0.02774563 0.01477426 0.38039216 0.78823529 0.52549020
v 0.09812590 0.02778171 0.01477426 0.38039216 0.78823529 0.52549020
v 0.08146000 0.02735909 0.01477426 0.38039216 0.78823529 0.52549020
v 0.08045870 0.02729209 0.01534086 0.38039216 0.78823529 0.52549020
v 0.08030465 0.02733332 0.01668700 0.38039216 0.78823529 0.52549020
v 0.08644726 0.02603454 0.02369412 0.38039216 0.78823529 0.52549020
v 0.07913968 0.02681278 0.01668700 0.38039216 0.78823529 0.52549020
v 0.07045531 0.02082913 0.02603149 0.38039216 0.78823529 0.52549020
v 0.07058047 0.02068482 0.02749592 0.38039216 0.78823529 0.52549020
v 0.07133145 0.02108167 0.02749592 0.38039216 0.78823529 0.52549020
v 0.07250605 0.02152490 0.02749592 0.38039216 0.78823529 0.52549020
v 0.07352661 0.02180321 0.02749592 0.38039216 0.78823529 0.52549020
v 0.08877721 0.02632831 0.02369412 0.38039216 0.78823529 0.52549020
v 0.10046548 0.02638501 0.02369412 0.38039216 0.78823529 0.52549020
v 0.10279544 0.02634893 0.02369412 0.38039216 0.78823529 0.52549020
v 0.09812590 0.02743640 0.01860346 0.38039216 0.78823529 0.52549020
v 0.11591827 0.02725601 0.01557995 0.38039216 0.78823529 0.52549020
v 0.11591827 0.02725601 0.01519267 0.38039216 0.78823529 0.52549020
v 0.11635153 0.02721994 0.01477426 0.38039216 0.78823529 0.52549020
v 0.08078605 0.02720447 0.01477426 0.38039216 0.78823529 0.52549020
v 0.07988102 0.02679216 0.01477426 0.38039216 0.78823529 0.52549020
v 0.07475898 0.02204029 0.02749592 0.38039216 0.78823529 0.52549020
v 0.08644726 0.02526146 0.02537025 0.38039216 0.78823529 0.52549020
v 0.08877721 0.02545216 0.02564919 0.38039216 0.78823529 0.52549020
v 0.07952479 0.02657055 0.01477426 0.38039216 0.78823529 0.52549020
v 0.07789768 0.02539031 0.01477426 0.38039216 0.78823529 0.52549020
v 0.07773400 0.02564800 0.01668700 0.38039216 0.78823529 0.52549020
v 0.07056121 0.02081367 0.02369412 0.38039216 0.78823529 0.52549020
v 0.06928070 0.01971589 0.02603149 0.38039216 0.78823529 0.52549020
v 0.06940586 0.01973135 0.02749592 0.38039216 0.78823529 0.52549020
v 0.09111679 0.02549854 0.02578866 0.38039216 0.78823529 0.52549020
v 0.09345637 0.02549339 0.02590572 0.38039216 0.78823529 0.52549020
v 0.09578632 0.02551916 0.02591568 0.38039216 0.78823529 0.52549020
v 0.10279544 0.02553462 0.02578617 0.38039216 0.78823529 0.52549020
v 0.10513502 0.02545216 0.02571768 0.38039216 0.78823529 0.52549020
v 0.10747459 0.02533362 0.02558319 0.38039216 0.78823529 0.52549020
v 0.10513502 0.02616854 0.02369412 0.38039216 0.78823529 0.52549020
v 0.11673664 0.02701893 0.01649024 0.38039216 0.78823529 0.52549020
v 0.11914362 0.02676639 0.01668700 0.38039216 0.78823529 0.52549020
v 0.13316184 0.02542123 0.01668700 0.38039216 0.78823529 0.52549020
v 0.13784101 0.02500892 0.01601580 0.38039216 0.78823529 0.52549020
v 0.13907338 0.02491615 0.01558244 0.38039216 0.78823529 0.52549020
v 0.13507780 0.02535423 0.01477426 0.38039216 0.78823529 0.52549020
v 0.12382278 0.02648293 0.01477426 0.38039216 0.78823529 0.52549020
v 0.07594321 0.02223098 0.02749592 0.38039216 0.78823529 0.52549020
v 0.09111679 0.02459146 0.02695672 0.38039216 0.78823529 0.52549020
v 0.09345637 0.02477184 0.02707378 0.38039216 0.78823529 0.52549020
v 0.07272749 0.02090644 0.01477426 0.38039216 0.78823529 0.52549020
v 0.07136996 0.02009213 0.01603572 0.38039216 0.78823529 0.52549020
v 0.07120628 0.02028797 0.01759355 0.38039216 0.78823529 0.52549020
v 0.06939624 0.01945820 0.02369412 0.38039216 0.78823529 0.52549020
v 0.06859712 0.01855112 0.02603149 0.38039216 0.78823529 0.52549020
v 0.06854898 0.01856142 0.02749592 0.38039216 0.78823529 0.52549020
v 0.06880894 0.01899950 0.02749592 0.38039216 0.78823529 0.52549020
v 0.09578632 0.02475638 0.02708374 0.38039216 0.78823529 0.52549020
v 0.10279544 0.02451415 0.02695423 0.38039216 0.78823529 0.52549020
v 0.10513502 0.02444715 0.02688574 0.38039216 0.78823529 0.52549020
v 0.10747459 0.02440076 0.02675125 0.38039216 0.78823529 0.52549020
v 0.10981418 0.02439046 0.02656945 0.38039216 0.78823529 0.52549020
v 0.12615273 0.02242168 0.02712733 0.38039216 0.78823529 0.52549020
v 0.12615273 0.02321022 0.02595926 0.38039216 0.78823529 0.52549020
v 0.13316184 0.02284945 0.02543251 0.38039216 0.78823529 0.52549020
v 0.10981418 0.02517900 0.02540138 0.38039216 0.78823529 0.52549020
v 0.11214413 0.02504500 0.02516229 0.38039216 0.78823529 0.52549020
v 0.11368459 0.02495738 0.02496803 0.38039216 0.78823529 0.52549020
v 0.13486598 0.02498831 0.01807049 0.38039216 0.78823529 0.52549020
v 0.13558808 0.02515323 0.01681277 0.38039216 0.78823529 0.52549020
v 0.13642571 0.02486461 0.01767574 0.38039216 0.78823529 0.52549020
v 0.13784101 0.02477184 0.01718386 0.38039216 0.78823529 0.52549020
v 0.13907338 0.02491615 0.01514785 0.38039216 0.78823529 0.52549020
v 0.13856310 0.02497284 0.01477426 0.38039216 0.78823529 0.52549020
v 0.13551105 0.02530785 0.01477426 0.38039216 0.78823529 0.52549020
v 0.13997840 0.02459146 0.01649149 0.38039216 0.78823529 0.52549020
v 0.15092533 0.02261752 0.01800823 0.38039216 0.78823529 0.52549020
v 0.15652877 0.02181352 0.01668700 0.38039216 0.78823529 0.52549020
v 0.15652877 0.02182383 0.01477426 0.38039216 0.78823529 0.52549020
v 0.09345637 0.02405030 0.02749592 0.38039216 0.78823529 0.52549020
v 0.07158177 0.01984474 0.01477426 0.38039216 0.78823529 0.52549020
v 0.07081154 0.01870573 0.01477426 0.38039216 0.78823529 0.52549020
v 0.06874154 0.01828827 0.02369412 0.38039216 0.78823529 0.52549020
v 0.06789428 0.01672664 0.02749592 0.38039216 0.78823529 0.52549020
v 0.09436139 0.02405030 0.02749592 0.38039216 0.78823529 0.52549020
v 0.10981418 0.02335968 0.02749592 0.38039216 0.78823529 0.52549020
v 0.12615273 0.02125690 0.02747849 0.38039216 0.78823529 0.52549020
v 0.13272859 0.02061267 0.02735147 0.38039216 0.78823529 0.52549020
v 0.14718007 0.02087036 0.02569029 0.38039216 0.78823529 0.52549020
v 0.11214413 0.02305560 0.02749592 0.38039216 0.78823529 0.52549020
v 0.14017096 0.02250414 0.02444502 0.38039216 0.78823529 0.52549020
v 0.14718007 0.02172075 0.02369412 0.38039216 0.78823529 0.52549020
v 0.13949701 0.02481823 0.01477426 0.38039216 0.78823529 0.52549020
v 0.15652877 0.02041682 0.02313624 0.38039216 0.78823529 0.52549020
v 0.15652877 0.02085490 0.02135800 0.38039216 0.78823529 0.52549020
v 0.15652877 0.02140636 0.01902312 0.38039216 0.78823529 0.52549020
v 0.16470286 0.02023128 0.01785506 0.38039216 0.78823529 0.52549020
v 0.16470286 0.02023128 0.01785257 0.38039216 0.78823529 0.52549020
v 0.15886834 0.02128783 0.01477426 0.38039216 0.78823529 0.52549020
v 0.07011833 0.01716472 0.01477426 0.38039216 0.78823529 0.52549020
v 0.06887633 0.01799965 0.02233802 0.38039216 0.78823529 0.52549020
v 0.06807721 0.01672664 0.02603149 0.38039216 0.78823529 0.52549020
v 0.06759582 0.00556335 0.01477426 0.38039216 0.78823529 0.52549020
v 0.06759582 0.01439194 0.02749592 0.38039216 0.78823529 0.52549020
v 0.11795939 0.02204544 0.02749592 0.38039216 0.78823529 0.52549020
v 0.11921101 0.02145275 0.02749592 0.38039216 0.78823529 0.52549020
v 0.11929767 0.02141152 0.02749592 0.38039216 0.78823529 0.52549020
v 0.13280561 0.00494488 0.02749592 0.38039216 0.78823529 0.52549020
v 0.16119830 0.00037855 0.02676869 0.38039216 0.78823529 0.52549020
v 0.16119830 0.00270810 0.02672635 0.38039216 0.78823529 0.52549020
v 0.16119830 0.00504796 0.02662050 0.38039216 0.78823529 0.52549020
v 0.14718007 0.01906650 0.02660431 0.38039216 0.78823529 0.52549020
v 0.16260397 0.01800481 0.02493192 0.38039216 0.78823529 0.52549020
v 0.15496904 0.02017974 0.02477501 0.38039216 0.78823529 0.52549020
v 0.16121756 0.01998905 0.02127332 0.38039216 0.78823529 0.52549020
v 0.16353788 0.01937058 0.02135800 0.38039216 0.78823529 0.52549020
v 0.16487616 0.01810788 0.02293077 0.38039216 0.78823529 0.52549020
v 0.16507834 0.01840165 0.02135800 0.38039216 0.78823529 0.52549020
v 0.16513611 0.01910773 0.01879025 0.38039216 0.78823529 0.52549020
v 0.16516499 0.01917989 0.01691862 0.38039216 0.78823529 0.52549020
v 0.16517463 0.01870573 0.01477426 0.38039216 0.78823529 0.52549020
v 0.16497245 0.01892220 0.01477426 0.38039216 0.78823529 0.52549020
v 0.16389411 0.01983443 0.01477426 0.38039216 0.78823529 0.52549020
v 0.16297947 0.02024674 0.01477426 0.38039216 0.78823529 0.52549020
v 0.16276765 0.02030859 0.01477426 0.38039216 0.78823529 0.52549020
v 0.06993540 0.01672664 0.01477426 0.38039216 0.78823529 0.52549020
v 0.06841419 0.01672664 0.02369412 0.38039216 0.78823529 0.52549020
v 0.06933847 0.01477333 0.01477426 0.38039216 0.78823529 0.52549020
v 0.06753805 0.00503765 0.01477426 0.38039216 0.78823529 0.52549020
v 0.06745140 0.00302249 0.01477426 0.38039216 0.78823529 0.52549020
v 0.06745140 0.00270810 0.01477426 0.38039216 0.78823529 0.52549020
v 0.06822163 0.00270810 0.02749592 0.38039216 0.78823529 0.52549020
v 0.13297891 0.00270810 0.02749592 0.38039216 0.78823529 0.52549020
v 0.14251054 -0.00036876 0.02726555 0.38039216 0.78823529 0.52549020
v 0.16119830 -0.00195615 0.02676869 0.38039216 0.78823529 0.52549020
v 0.16328756 0.00504796 0.02584345 0.38039216 0.78823529 0.52549020
v 0.16321053 0.00738267 0.02571768 0.38039216 0.78823529 0.52549020
v 0.16288319 0.01672664 0.02506018 0.38039216 0.78823529 0.52549020
v 0.16404817 0.01672664 0.02427068 0.38039216 0.78823529 0.52549020
v 0.16344160 0.01842742 0.02370284 0.38039216 0.78823529 0.52549020
v 0.16492430 0.01672664 0.02310262 0.38039216 0.78823529 0.52549020
v 0.16534793 0.01672664 0.02135800 0.38039216 0.78823529 0.52549020
v 0.16568491 0.01672664 0.01902312 0.38039216 0.78823529 0.52549020
v 0.16580044 0.01672664 0.01668700 0.38039216 0.78823529 0.52549020
v 0.16529017 0.01826765 0.01477426 0.38039216 0.78823529 0.52549020
v 0.06757656 0.00043009 0.01477426 0.38039216 0.78823529 0.52549020
v 0.06936735 -0.01230514 0.02749592 0.38039216 0.78823529 0.52549020
v 0.13144808 -0.00194069 0.02749592 0.38039216 0.78823529 0.52549020
v 0.14251054 -0.00116246 0.02726555 0.38039216 0.78823529 0.52549020
v 0.15886834 -0.01597470 0.02558319 0.38039216 0.78823529 0.52549020
v 0.16119830 -0.00429601 0.02654703 0.38039216 0.78823529 0.52549020
v 0.16248844 -0.01539746 0.02496180 0.38039216 0.78823529 0.52549020
v 0.16294095 -0.00195615 0.02575255 0.38039216 0.78823529 0.52549020
v 0.16320091 0.00270810 0.02585840 0.38039216 0.78823529 0.52549020
v 0.12998463 -0.00421871 0.02749592 0.38039216 0.78823529 0.52549020
v 0.09990706 -0.01976279 0.02726555 0.38039216 0.78823529 0.52549020
v 0.16427923 0.00504796 0.02369412 0.38039216 0.78823529 0.52549020
v 0.16424072 0.01439194 0.02412747 0.38039216 0.78823529 0.52549020
v 0.16306612 0.01439194 0.02515856 0.38039216 0.78823529 0.52549020
v 0.16348974 -0.01363999 0.02135800 0.38039216 0.78823529 0.52549020
v 0.16548271 0.00971737 0.01668700 0.38039216 0.78823529 0.52549020
v 0.16400002 -0.01363999 0.01668700 0.38039216 0.78823529 0.52549020
v 0.16566565 0.01672664 0.01477426 0.38039216 0.78823529 0.52549020
v 0.16547309 0.00971737 0.01477426 0.38039216 0.78823529 0.52549020
v 0.16556936 0.01205723 0.01477426 0.38039216 0.78823529 0.52549020
v 0.06791354 -0.00192523 0.01477426 0.38039216 0.78823529 0.52549020
v 0.07111000 -0.02213873 0.02189097 0.38039216 0.78823529 0.52549020
v 0.07111000 -0.02213873 0.02320224 0.38039216 0.78823529 0.52549020
v 0.06964656 -0.01363999 0.02749592 0.38039216 0.78823529 0.52549020
v 0.13103408 -0.00266224 0.02749592 0.38039216 0.78823529 0.52549020
v 0.15886834 -0.01809809 0.02522082 0.38039216 0.78823529 0.52549020
v 0.16074579 -0.01785071 0.02518346 0.38039216 0.78823529 0.52549020
v 0.16119830 -0.00663072 0.02631790 0.38039216 0.78823529 0.52549020
v 0.16270988 -0.01609839 0.02382363 0.38039216 0.78823529 0.52549020
v 0.16310462 -0.01363999 0.02369412 0.38039216 0.78823529 0.52549020
v 0.16256546 -0.01363999 0.02503901 0.38039216 0.78823529 0.52549020
v 0.16140049 -0.01609839 0.02528931 0.38039216 0.78823529 0.52549020
v 0.16230551 -0.01695393 0.02468784 0.38039216 0.78823529 0.52549020
v 0.07516335 -0.01910310 0.02749592 0.38039216 0.78823529 0.52549020
v 0.07473972 -0.01914433 0.02749592 0.38039216 0.78823529 0.52549020
v 0.09812590 -0.02087603 0.02692933 0.38039216 0.78823529 0.52549020
v 0.10060027 -0.02058741 0.02698412 0.38039216 0.78823529 0.52549020
v 0.10279544 -0.02064926 0.02692310 0.38039216 0.78823529 0.52549020
v 0.11681367 -0.02064926 0.02642748 0.38039216 0.78823529 0.52549020
v 0.16304686 -0.01597470 0.02135800 0.38039216 0.78823529 0.52549020
v 0.16400002 -0.01363999 0.01477426 0.38039216 0.78823529 0.52549020
v 0.16331644 -0.01597470 0.01668700 0.38039216 0.78823529 0.52549020
v 0.16340309 -0.01597470 0.01477426 0.38039216 0.78823529 0.52549020
v 0.06841419 -0.00443001 0.01477426 0.38039216 0.78823529 0.52549020
v 0.06990651 -0.01130528 0.01477426 0.38039216 0.78823529 0.52549020
v 0.07062861 -0.01377914 0.01477426 0.38039216 0.78823529 0.52549020
v 0.07102335 -0.01487177 0.01477426 0.38039216 0.78823529 0.52549020
v 0.07130256 -0.02112342 0.02033439 0.38039216 0.78823529 0.52549020
v 0.07295856 -0.02237581 0.01902312 0.38039216 0.78823529 0.52549020
v 0.07232312 -0.02308189 0.02123347 0.38039216 0.78823529 0.52549020
v 0.07334368 -0.02425697 0.02213255 0.38039216 0.78823529 0.52549020
v 0.07334368 -0.02425697 0.02289466 0.38039216 0.78823529 0.52549020
v 0.07232312 -0.02306127 0.02382736 0.38039216 0.78823529 0.52549020
v 0.07130256 -0.02166457 0.02476007 0.38039216 0.78823529 0.52549020
v 0.06985837 -0.01451100 0.02749592 0.38039216 0.78823529 0.52549020
v 0.15886834 -0.01926287 0.02474762 0.38039216 0.78823529 0.52549020
v 0.11914362 -0.02064926 0.02632164 0.38039216 0.78823529 0.52549020
v 0.16049547 -0.01992772 0.02324333 0.38039216 0.78823529 0.52549020
v 0.16246919 -0.01736109 0.02313126 0.38039216 0.78823529 0.52549020
v 0.16077468 -0.02031426 0.02135800 0.38039216 0.78823529 0.52549020
v 0.07242902 -0.01810840 0.02749592 0.38039216 0.78823529 0.52549020
v 0.07473972 -0.02047403 0.02683095 0.38039216 0.78823529 0.52549020
v 0.08183549 -0.02047918 0.02701899 0.38039216 0.78823529 0.52549020
v 0.08637023 -0.02053588 0.02703019 0.38039216 0.78823529 0.52549020
v 0.08880609 -0.02053588 0.02704763 0.38039216 0.78823529 0.52549020
v 0.10513502 -0.02256650 0.02579115 0.38039216 0.78823529 0.52549020
v 0.08176809 -0.02279327 0.02582851 0.38039216 0.78823529 0.52549020
v 0.11914362 -0.02231396 0.02551221 0.38039216 0.78823529 0.52549020
v 0.16252695 -0.01749509 0.02135800 0.38039216 0.78823529 0.52549020
v 0.16267137 -0.01778886 0.01477426 0.38039216 0.78823529 0.52549020
v 0.07123517 -0.01530985 0.01477426 0.38039216 0.78823529 0.52549020
v 0.07164917 -0.01614477 0.01477426 0.38039216 0.78823529 0.52549020
v 0.07316075 -0.01888664 0.01477426 0.38039216 0.78823529 0.52549020
v 0.07340144 -0.01970095 0.01524871 0.38039216 0.78823529 0.52549020
v 0.07347847 -0.02190681 0.01773925 0.38039216 0.78823529 0.52549020
v 0.07416205 -0.02403020 0.02057721 0.38039216 0.78823529 0.52549020
v 0.07487451 -0.02434459 0.02135551 0.38039216 0.78823529 0.52549020
v 0.07709856 -0.02463836 0.02135800 0.38039216 0.78823529 0.52549020
v 0.07475898 -0.02436521 0.02313375 0.38039216 0.78823529 0.52549020
v 0.07475898 -0.02388074 0.02430181 0.38039216 0.78823529 0.52549020
v 0.07285265 -0.02242735 0.02534161 0.38039216 0.78823529 0.52549020
v 0.07107149 -0.01712916 0.02749592 0.38039216 0.78823529 0.52549020
v 0.07079228 -0.01663439 0.02749592 0.38039216 0.78823529 0.52549020
v 0.15886834 -0.02023695 0.02357956 0.38039216 0.78823529 0.52549020
v 0.13434608 -0.02181919 0.02486343 0.38039216 0.78823529 0.52549020
v 0.15893575 -0.02142234 0.02133558 0.38039216 0.78823529 0.52549020
v 0.15975412 -0.02170581 0.01974911 0.38039216 0.78823529 0.52549020
v 0.16193965 -0.01865987 0.02135800 0.38039216 0.78823529 0.52549020
v 0.16010072 -0.02190165 0.01819128 0.38039216 0.78823529 0.52549020
v 0.07123517 -0.01726832 0.02749592 0.38039216 0.78823529 0.52549020
v 0.07475898 -0.02271597 0.02559315 0.38039216 0.78823529 0.52549020
v 0.07943814 -0.02289635 0.02573387 0.38039216 0.78823529 0.52549020
v 0.07943814 -0.02406113 0.02467664 0.38039216 0.78823529 0.52549020
v 0.13527036 -0.02229335 0.02388216 0.38039216 0.78823529 0.52549020
v 0.10747459 -0.02359212 0.02369412 0.38039216 0.78823529 0.52549020
v 0.16211295 -0.01895879 0.01477426 0.38039216 0.78823529 0.52549020
v 0.07428721 -0.01986072 0.01477426 0.38039216 0.78823529 0.52549020
v 0.07490340 -0.02022664 0.01477426 0.38039216 0.78823529 0.52549020
v 0.07744517 -0.02138627 0.01477426 0.38039216 0.78823529 0.52549020
v 0.07936112 -0.02224696 0.01477426 0.38039216 0.78823529 0.52549020
v 0.07943814 -0.02227789 0.01477426 0.38039216 0.78823529 0.52549020
v 0.07487451 -0.02341689 0.01920867 0.38039216 0.78823529 0.52549020
v 0.07946702 -0.02228819 0.01477426 0.38039216 0.78823529 0.52549020
v 0.07709856 -0.02376220 0.01857482 0.38039216 0.78823529 0.52549020
v 0.07572177 -0.02419513 0.02011273 0.38039216 0.78823529 0.52549020
v 0.07709856 -0.02432397 0.01974288 0.38039216 0.78823529 0.52549020
v 0.07943814 -0.02478267 0.02135800 0.38039216 0.78823529 0.52549020
v 0.07943814 -0.02443736 0.01926968 0.38039216 0.78823529 0.52549020
v 0.07709856 -0.02447344 0.02335914 0.38039216 0.78823529 0.52549020
v 0.07709856 -0.02395805 0.02452721 0.38039216 0.78823529 0.52549020
v 0.15185923 -0.02170581 0.02229942 0.38039216 0.78823529 0.52549020
v 0.15652877 -0.02144811 0.02191961 0.38039216 0.78823529 0.52549020
v 0.15652877 -0.02210781 0.02075155 0.38039216 0.78823529 0.52549020
v 0.15819440 -0.02196865 0.02054235 0.38039216 0.78823529 0.52549020
v 0.14251054 -0.02211296 0.02309017 0.38039216 0.78823529 0.52549020
v 0.15893575 -0.02223665 0.01899074 0.38039216 0.78823529 0.52549020
v 0.16193003 -0.01928348 0.01477426 0.38039216 0.78823529 0.52549020
v 0.16017775 -0.02198927 0.01668700 0.38039216 0.78823529 0.52549020
v 0.16103463 -0.02064926 0.01668700 0.38039216 0.78823529 0.52549020
v 0.15886834 -0.02276235 0.01668700 0.38039216 0.78823529 0.52549020
v 0.07943814 -0.02449921 0.02350858 0.38039216 0.78823529 0.52549020
v 0.13550143 -0.02322105 0.02135800 0.38039216 0.78823529 0.52549020
v 0.13784101 -0.02309220 0.02135800 0.38039216 0.78823529 0.52549020
v 0.13784101 -0.02231396 0.02344507 0.38039216 0.78823529 0.52549020
v 0.10747459 -0.02406113 0.02188973 0.38039216 0.78823529 0.52549020
v 0.08161405 -0.02277781 0.01477426 0.38039216 0.78823529 0.52549020
v 0.07943814 -0.02335505 0.01668700 0.38039216 0.78823529 0.52549020
v 0.07943814 -0.02405597 0.01810162 0.38039216 0.78823529 0.52549020
v 0.09345637 -0.02428790 0.01477426 0.38039216 0.78823529 0.52549020
v 0.10088911 -0.02450436 0.01477426 0.38039216 0.78823529 0.52549020
v 0.10279544 -0.02451982 0.01477426 0.38039216 0.78823529 0.52549020
v 0.10747459 -0.02455590 0.01477426 0.38039216 0.78823529 0.52549020
v 0.10747459 -0.02456105 0.01668700 0.38039216 0.78823529 0.52549020
v 0.14178845 -0.02419513 0.01477426 0.38039216 0.78823529 0.52549020
v 0.14164403 -0.02417451 0.01566712 0.38039216 0.78823529 0.52549020
v 0.09111679 -0.02415905 0.01477426 0.38039216 0.78823529 0.52549020
v 0.09335046 -0.02428274 0.01477426 0.38039216 0.78823529 0.52549020
v 0.15652877 -0.02277781 0.01902312 0.38039216 0.78823529 0.52549020
v 0.14251054 -0.02282935 0.02135800 0.38039216 0.78823529 0.52549020
v 0.16111165 -0.02064926 0.01477426 0.38039216 0.78823529 0.52549020
v 0.16020663 -0.02202019 0.01477426 0.38039216 0.78823529 0.52549020
v 0.16095760 -0.02089149 0.01477426 0.38039216 0.78823529 0.52549020
v 0.15886834 -0.02283966 0.01477426 0.38039216 0.78823529 0.52549020
v 0.15652877 -0.02327774 0.01668700 0.38039216 0.78823529 0.52549020
v 0.14251054 -0.02354059 0.01902312 0.38039216 0.78823529 0.52549020
v 0.14246240 -0.02400443 0.01654255 0.38039216 0.78823529 0.52549020
v 0.08882535 -0.02389620 0.01477426 0.38039216 0.78823529 0.52549020
v 0.08917195 -0.02394774 0.01477426 0.38039216 0.78823529 0.52549020
v 0.15652877 -0.02334474 0.01477426 0.38039216 0.78823529 0.52549020
f 1 2 3
f 1 3 4
f 1 4 5
f 1 5 6
f 1 6 7
f 1 7 8
f 1 8 2
f 2 8 20
f 2 20 19
f 2 19 37
f 2 37 62
f 2 62 61
f 2 61 90
f 2 90 89
f 2 89 108
f 2 108 94
f 2 94 114
f 2 114 140
f 2 140 139
f 2 139 138
f 2 138 137
f 2 137 136
f 2 136 160
f 2 160 178
f 2 178 180
f 2 180 179
f 2 179 201
f 2 201 203
f 2 203 230
f 2 230 256
f 2 256 277
f 2 277 300
f 2 300 302
f 2 302 301
f 2 301 303
f 2 303 309
f 2 309 294
f 2 294 292
f 2 292 291
f 2 291 290
f 2 290 289
f 2 289 297
f 2 297 296
f 2 296 308
f 2 308 307
f 2 307 286
f 2 286 263
f 2 263 261
f 2 261 260
f 2 260 259
f 2 259 258
f 2 258 257
f 2 257 233
f 2 233 232
f 2 232 231
f 2 231 207
f 2 207 206
f 2 206 205
f 2 205 204
f 2 204 181
f 2 181 161
f 2 161 146
f 2 146 145
f 2 145 144
f 2 144 118
f 2 118 143
f 2 143 141
f 2 141 115
f 2 115 97
f 2 97 96
f 2 96 66
f 2 66 44
f 2 44 43
f 2 43 39
f 2 39 38
f 2 38 21
f 2 21 10
f 2 10 9
f 2 9 3
f 3 9 4
f 4 9 10
f 4 10 11
f 4 11 12
f 4 12 13
f 4 13 14
f 4 14 5
f 5 15 16
f 5 16 6
f 5 14 15
f 6 16 17
f 6 17 7
f 7 17 18
f 7 18 19
f 7 19 20
f 7 20 8
f 10 21 22
f 10 22 11
f 11 22 23
f 11 23 12
f 12 24 13
f 12 23 25
f 12 25 26
f 12 26 27
f 12 27 28
f 12 28 29
f 12 29 30
f 12 30 24
f 13 24 31
f 13 31 14
f 14 31 15
f 15 31 32
f 15 32 16
f 16 32 17
f 17 32 33
f 17 33 34
f 17 34 18
f 18 34 33
f 18 33 35
f 18 35 19
f 19 35 36
f 19 36 37
f 21 38 22
f 22 38 39
f 22 39 25
f 22 25 23
f 24 30 40
f 24 40 41
f 24 41 42
f 24 42 31
f 25 39 43
f 25 43 44
f 25 44 45
f 25 45 46
f 25 46 26
f 26 46 47
f 26 47 48
f 26 48 27
f 27 48 72
f 27 72 71
f 27 71 99
f 27 99 119
f 27 119 147
f 27 147 162
f 27 162 184
f 27 184 215
f 27 215 243
f 27 243 242
f 27 242 250
f 27 250 221
f 27 221 195
f 27 195 194
f 27 194 170
f 27 170 185
f 27 185 163
f 27 163 148
f 27 148 123
f 27 123 122
f 27 122 121
f 27 121 120
f 27 120 105
f 27 105 101
f 27 101 100
f 27 100 95
f 27 95 63
f 27 63 40
f 27 40 30
f 27 30 29
f 27 29 28
f 31 42 49
f 31 49 50
f 31 50 51
f 31 51 32
f 32 51 52
f 32 52 33
f 33 52 53
f 33 53 54
f 33 54 55
f 33 55 56
f 33 56 35
f 35 56 57
f 35 57 58
f 35 58 59
f 35 59 60
f 35 60 61
f 35 61 62
f 35 62 37
f 35 37 36
f 40 63 41
f 41 63 42
f 42 64 65
f 42 65 49
f 42 63 64
f 44 66 67
f 44 67 68
f 44 68 45
f 45 68 46
f 46 68 69
f 46 69 47
f 47 70 71
f 47 71 72
f 47 72 48
f 47 69 70
f 49 65 50
f 50 65 51
f 51 65 73
f 51 73 52
f 52 73 74
f 52 74 75
f 52 75 53
f 53 75 76
f 53 76 77
f 53 77 54
f 54 77 78
f 54 78 79
f 54 79 80
f 54 80 81
f 54 81 82
f 54 82 55
f 55 82 83
f 55 83 84
f 55 84 57
f 55 57 56
f 57 84 58
f 58 84 85
f 58 85 59
f 59 85 86
f 59 86 87
f 59 87 60
f 60 88 89
f 60 89 90
f 60 90 61
f 60 87 91
f 60 91 92
f 60 92 93
f 60 93 94
f 60 94 88
f 63 95 65
f 63 65 64
f 65 95 73
f 66 96 67
f 67 96 97
f 67 97 69
f 67 69 68
f 69 97 98
f 69 98 70
f 70 98 99
f 70 99 71
f 73 95 100
f 73 100 101
f 73 101 74
f 74 101 75
f 75 101 78
f 75 78 76
f 76 78 77
f 78 102 103
f 78 103 104
f 78 104 80
f 78 80 79
f 78 101 105
f 78 105 102
f 80 104 106
f 80 106 82
f 80 82 81
f 82 106 83
f 83 106 84
f 84 106 107
f 84 107 86
f 84 86 85
f 86 107 92
f 86 92 87
f 87 92 91
f 88 94 108
f 88 108 89
f 92 107 109
f 92 109 110
f 92 110 111
f 92 111 112
f 92 112 93
f 93 112 94
f 94 112 113
f 94 113 114
f 97 115 116
f 97 116 98
f 98 116 117
f 98 117 99
f 99 117 118
f 99 118 119
f 102 120 121
f 102 121 122
f 102 122 123
f 102 123 103
f 102 105 120
f 103 123 124
f 103 124 125
f 103 125 126
f 103 126 127
f 103 127 104
f 104 127 128
f 104 128 129
f 104 129 106
f 106 129 107
f 107 129 109
f 109 130 112
f 109 112 110
f 109 129 130
f 110 112 111
f 112 131 132
f 112 132 133
f 112 133 134
f 112 134 135
f 112 135 113
f 112 130 131
f 113 135 136
f 113 136 137
f 113 137 138
f 113 138 139
f 113 139 140
f 113 140 114
f 115 141 116
f 116 142 117
f 116 141 143
f 116 143 142
f 117 142 118
f 118 144 119
f 118 142 143
f 119 144 145
f 119 145 146
f 119 146 147
f 123 148 149
f 123 149 124
f 124 150 151
f 124 151 125
f 124 149 164
f 124 164 150
f 125 151 126
f 126 151 152
f 126 152 153
f 126 153 127
f 127 153 128
f 128 153 154
f 128 154 132
f 128 132 155
f 128 155 129
f 129 155 131
f 129 131 130
f 131 155 132
f 132 156 157
f 132 157 133
f 132 154 156
f 133 157 158
f 133 158 134
f 134 158 159
f 134 159 135
f 135 159 136
f 136 159 160
f 146 161 147
f 147 161 162
f 148 163 164
f 148 164 149
f 150 165 166
f 150 166 167
f 150 167 168
f 150 168 169
f 150 169 151
f 150 164 170
f 150 170 171
f 150 171 165
f 151 169 172
f 151 172 156
f 151 156 173
f 151 173 154
f 151 154 152
f 152 154 174
f 152 174 153
f 153 174 154
f 154 173 156
f 156 172 157
f 157 172 175
f 157 175 158
f 158 176 159
f 158 175 177
f 158 177 176
f 159 178 160
f 159 176 179
f 159 179 180
f 159 180 178
f 161 181 162
f 162 182 183
f 162 183 184
f 162 181 182
f 163 185 164
f 164 185 170
f 165 186 187
f 165 187 188
f 165 188 166
f 165 171 186
f 166 188 167
f 167 189 190
f 167 190 172
f 167 172 191
f 167 191 168
f 167 188 192
f 167 192 187
f 167 187 193
f 167 193 189
f 168 191 169
f 169 191 172
f 170 194 171
f 171 194 195
f 171 195 196
f 171 196 197
f 171 197 198
f 171 198 199
f 171 199 186
f 172 190 175
f 175 190 189
f 175 189 200
f 175 200 177
f 176 177 201
f 176 201 179
f 177 200 202
f 177 202 203
f 177 203 201
f 181 204 182
f 182 205 206
f 182 206 207
f 182 207 208
f 182 208 209
f 182 209 210
f 182 210 211
f 182 211 212
f 182 212 183
f 182 204 205
f 183 212 213
f 183 213 214
f 183 214 215
f 183 215 184
f 186 216 187
f 186 199 217
f 186 217 216
f 187 218 193
f 187 192 188
f 187 216 218
f 189 193 219
f 189 219 200
f 193 218 220
f 193 220 219
f 195 221 222
f 195 222 223
f 195 223 224
f 195 224 225
f 195 225 196
f 196 226 198
f 196 198 197
f 196 225 227
f 196 227 226
f 198 226 228
f 198 228 199
f 199 228 217
f 200 219 229
f 200 229 202
f 202 229 203
f 203 229 230
f 207 231 208
f 208 231 232
f 208 232 233
f 208 233 234
f 208 234 209
f 209 234 235
f 209 235 236
f 209 236 210
f 210 236 211
f 211 236 237
f 211 237 238
f 211 238 212
f 212 238 239
f 212 239 240
f 212 240 241
f 212 241 213
f 213 241 214
f 214 241 242
f 214 242 243
f 214 243 215
f 216 244 218
f 216 217 228
f 216 228 245
f 216 245 244
f 218 244 246
f 218 246 247
f 218 247 220
f 219 248 229
f 219 220 248
f 220 247 249
f 220 249 248
f 221 250 241
f 221 241 222
f 222 251 252
f 222 252 223
f 222 241 251
f 223 227 224
f 223 252 227
f 224 227 225
f 226 227 253
f 226 253 228
f 227 252 253
f 228 254 245
f 228 253 255
f 228 255 254
f 229 248 256
f 229 256 230
f 233 257 234
f 234 257 235
f 235 257 258
f 235 258 259
f 235 259 260
f 235 260 261
f 235 261 262
f 235 262 236
f 236 262 261
f 236 261 263
f 236 263 264
f 236 264 265
f 236 265 237
f 237 265 266
f 237 266 238
f 238 267 239
f 238 266 268
f 238 268 267
f 239 267 269
f 239 269 240
f 240 269 270
f 240 270 251
f 240 251 241
f 241 250 242
f 244 271 272
f 244 272 273
f 244 273 274
f 244 274 246
f 244 245 271
f 245 254 275
f 245 275 271
f 246 274 247
f 247 274 276
f 247 276 249
f 248 277 256
f 248 249 278
f 248 278 279
f 248 279 277
f 249 276 280
f 249 280 278
f 251 270 253
f 251 253 252
f 253 270 269
f 253 269 281
f 253 281 255
f 254 282 283
f 254 283 284
f 254 284 275
f 254 255 282
f 255 281 285
f 255 285 282
f 263 286 287
f 263 287 264
f 264 287 288
f 264 288 265
f 265 288 266
f 266 288 268
f 267 281 269
f 267 268 289
f 267 289 290
f 267 290 291
f 267 291 292
f 267 292 293
f 267 293 294
f 267 294 295
f 267 295 281
f 268 288 296
f 268 296 297
f 268 297 289
f 271 275 273
f 271 273 272
f 273 298 274
f 273 275 284
f 273 284 299
f 273 299 298
f 274 298 276
f 276 298 280
f 277 279 300
f 278 301 302
f 278 302 279
f 278 280 303
f 278 303 301
f 279 302 300
f 280 298 304
f 280 304 303
f 281 295 285
f 282 305 298
f 282 298 283
f 282 285 305
f 283 298 299
f 283 299 284
f 285 295 306
f 285 306 305
f 286 288 287
f 286 307 288
f 288 307 308
f 288 308 296
f 292 294 293
f 294 309 295
f 295 309 304
f 295 304 306
f 298 305 304
f 303 304 309
f 304 305 306

