# https://github.com/mikedh/trimesh
v 0.09436114 0.02405427 0.02749607 0.08627451 0.01960784 0.83137255
v 0.09345178 0.02405309 0.02749607 0.08627451 0.01960784 0.83137255
v 0.09345178 0.02360461 0.02775835 0.08627451 0.01960784 0.83137255
v 0.10980146 0.02322422 0.02762023 0.08627451 0.01960784 0.83137255
v 0.10980146 0.02336276 0.02749607 0.08627451 0.01960784 0.83137255
v 0.08107257 0.02247049 0.02749607 0.08627451 0.01960784 0.83137255
v 0.08107257 0.02225212 0.02772837 0.08627451 0.01960784 0.83137255
v 0.08107257 0.02206780 0.02786032 0.08627451 0.01960784 0.83137255
v 0.08107257 0.02138920 0.02834506 0.08627451 0.01960784 0.83137255
v 0.08107257 0.02039479 0.02865773 0.08627451 0.01960784 0.83137255
v 0.08107257 0.01906696 0.02898760 0.08627451 0.01960784 0.83137255
v 0.10980146 0.02140329 0.02801886 0.08627451 0.01960784 0.83137255
v 0.11681061 0.02140329 0.02769620 0.08627451 0.01960784 0.83137255
v 0.11796321 0.02204784 0.02749607 0.08627451 0.01960784 0.83137255
v 0.11214034 0.02305516 0.02749725 0.08627451 0.01960784 0.83137255
v 0.11214034 0.02305633 0.02749607 0.08627451 0.01960784 0.83137255
v 0.08107257 0.01206030 0.02749607 0.08627451 0.01960784 0.83137255
v 0.08107257 0.01206030 0.02838899 0.08627451 0.01960784 0.83137255
v 0.08176862 0.01206030 0.02872282 0.08627451 0.01960784 0.83137255
v 0.08410376 0.01206030 0.02899700 0.08627451 0.01960784 0.83137255
v 0.09812579 0.01206030 0.02838855 0.08627451 0.01960784 0.83137255
v 0.11773119 0.01940156 0.02749607 0.08627451 0.01960784 0.83137255
v 0.11914948 0.02114500 0.02749607 0.08627451 0.01960784 0.83137255
v 0.11914948 0.02140329 0.02750915 0.08627451 0.01960784 0.83137255
v 0.11930292 0.02141268 0.02749607 0.08627451 0.01960784 0.83137255
v 0.11921311 0.02145612 0.02749607 0.08627451 0.01960784 0.83137255
v 0.11216279 0.02305281 0.02749607 0.08627451 0.01960784 0.83137255
v 0.10622018 0.01206030 0.02749607 0.08627451 0.01960784 0.83137255
v 0.10045718 0.01206030 0.02821619 0.08627451 0.01960784 0.83137255
v 0.10540812 0.01206030 0.02766461 0.08627451 0.01960784 0.83137255
v 0.10279232 0.01206030 0.02800814 0.08627451 0.01960784 0.83137255
v 0.10283348 0.01206030 0.02800388 0.08627451 0.01960784 0.83137255
v 0.10493660 0.01206030 0.02776085 0.08627451 0.01960784 0.83137255
f 1 2 3
f 1 3 4
f 1 4 5
f 1 5 16
f 1 16 27
f 1 27 14
f 1 14 26
f 1 26 25
f 1 25 23
f 1 23 22
f 1 22 28
f 1 28 17
f 1 17 6
f 1 6 2
f 2 6 7
f 2 7 8
f 2 8 9
f 2 9 3
f 3 9 10
f 3 10 11
f 3 11 4
f 4 12 13
f 4 13 14
f 4 14 15
f 4 15 5
f 4 11 12
f 5 15 16
f 6 17 18
f 6 18 11
f 6 11 10
f 6 10 9
f 6 9 8
f 6 8 7
f 11 18 19
f 11 19 20
f 11 20 12
f 12 21 13
f 12 20 21
f 13 22 23
f 13 23 24
f 13 24 25
f 13 25 26
f 13 26 14
f 13 21 22
f 14 27 15
f 15 27 16
f 17 28 30
f 17 30 33
f 17 33 32
f 17 32 31
f 17 31 29
f 17 29 21
f 17 21 20
f 17 20 19
f 17 19 18
f 21 29 22
f 22 30 28
f 22 29 31
f 22 31 32
f 22 32 33
f 22 33 30
f 23 25 24

