# https://github.com/mikedh/trimesh
v 0.08878653 0.02363115 0.00716049 0.54117647 0.42352941 0.64313725
v 0.08644102 0.02307395 -0.00901435 0.54117647 0.42352941 0.64313725
v 0.07943693 0.02316832 -0.00667774 0.54117647 0.42352941 0.64313725
v 0.08644102 0.02360419 0.00716049 0.54117647 0.42352941 0.64313725
v 0.10534560 0.02336603 0.00716049 0.54117647 0.42352941 0.64313725
v 0.09266689 0.02265156 -0.01029468 0.54117647 0.42352941 0.64313725
v 0.08878653 0.02270997 -0.01036296 0.54117647 0.42352941 0.64313725
v 0.08644102 0.02273244 -0.01039497 0.54117647 0.42352941 0.64313725
v 0.08177162 0.02306497 -0.00901435 0.54117647 0.42352941 0.64313725
v 0.11668403 0.02314136 0.00716049 0.54117647 0.42352941 0.64313725
v 0.13783683 0.02133494 -0.00901435 0.54117647 0.42352941 0.64313725
v 0.07943693 0.02303351 -0.00901435 0.54117647 0.42352941 0.64313725
v 0.07710223 0.02308294 -0.00667774 0.54117647 0.42352941 0.64313725
v 0.08177162 0.02337951 0.00716049 0.54117647 0.42352941 0.64313725
v 0.14484093 0.02050813 -0.01052514 0.54117647 0.42352941 0.64313725
v 0.14017153 0.02063395 -0.01065744 0.54117647 0.42352941 0.64313725
v 0.13783683 0.02070584 -0.01070012 0.54117647 0.42352941 0.64313725
v 0.11914842 0.02104286 -0.01106928 0.54117647 0.42352941 0.64313725
v 0.11681373 0.02106533 -0.01112476 0.54117647 0.42352941 0.64313725
v 0.11213352 0.01998238 -0.01237948 0.54117647 0.42352941 0.64313725
v 0.10980963 0.02000485 -0.01240509 0.54117647 0.42352941 0.64313725
v 0.08644102 0.02140235 -0.01153020 0.54117647 0.42352941 0.64313725
v 0.07943693 0.02140235 -0.01137442 0.54117647 0.42352941 0.64313725
v 0.07576193 0.02260662 -0.01022853 0.54117647 0.42352941 0.64313725
v 0.11914842 0.02303351 0.00716049 0.54117647 0.42352941 0.64313725
v 0.14017153 0.02121362 -0.00901435 0.54117647 0.42352941 0.64313725
v 0.15126134 0.02030592 -0.01026694 0.54117647 0.42352941 0.64313725
v 0.14952113 0.02036433 -0.01034376 0.54117647 0.42352941 0.64313725
v 0.14718643 0.02044072 -0.01043978 0.54117647 0.42352941 0.64313725
v 0.07710223 0.02294813 -0.00901435 0.54117647 0.42352941 0.64313725
v 0.07489723 0.02275042 -0.00894820 0.54117647 0.42352941 0.64313725
v 0.07335157 0.02263808 -0.00812452 0.54117647 0.42352941 0.64313725
v 0.07335157 0.02263808 -0.00739046 0.54117647 0.42352941 0.64313725
v 0.07943693 0.02313237 0.00716049 0.54117647 0.42352941 0.64313725
v 0.14718643 0.01906569 -0.01153020 0.54117647 0.42352941 0.64313725
v 0.14484093 0.01906569 -0.01166463 0.54117647 0.42352941 0.64313725
v 0.11446822 0.01992397 -0.01234321 0.54117647 0.42352941 0.64313725
v 0.11446822 0.01875564 -0.01287455 0.54117647 0.42352941 0.64313725
v 0.11213352 0.01881405 -0.01289375 0.54117647 0.42352941 0.64313725
v 0.09345593 0.02012168 -0.01247978 0.54117647 0.42352941 0.64313725
v 0.08644102 0.02013067 -0.01248618 0.54117647 0.42352941 0.64313725
v 0.08410633 0.02013067 -0.01247978 0.54117647 0.42352941 0.64313725
v 0.07943693 0.02006776 -0.01246057 0.54117647 0.42352941 0.64313725
v 0.07710223 0.02140235 -0.01129974 0.54117647 0.42352941 0.64313725
v 0.07710223 0.01998238 -0.01242856 0.54117647 0.42352941 0.64313725
v 0.07489723 0.02153266 -0.01096472 0.54117647 0.42352941 0.64313725
v 0.07242202 0.02093951 -0.01084309 0.54117647 0.42352941 0.64313725
v 0.07067100 0.02056205 -0.01049953 0.54117647 0.42352941 0.64313725
v 0.07420547 0.02239992 -0.00968226 0.54117647 0.42352941 0.64313725
v 0.12786031 0.02239542 0.00716049 0.54117647 0.42352941 0.64313725
v 0.15774663 0.02024301 -0.00778096 0.54117647 0.42352941 0.64313725
v 0.15774663 0.02024301 -0.00788979 0.54117647 0.42352941 0.64313725
v 0.15652523 0.02031041 -0.00821414 0.54117647 0.42352941 0.64313725
v 0.14952113 0.02069686 -0.00901435 0.54117647 0.42352941 0.64313725
v 0.14484093 0.02096198 -0.00901435 0.54117647 0.42352941 0.64313725
v 0.15196392 0.02048566 -0.00917652 0.54117647 0.42352941 0.64313725
v 0.15419053 0.02013067 -0.00984443 0.54117647 0.42352941 0.64313725
v 0.15281782 0.02020256 -0.01006209 0.54117647 0.42352941 0.64313725
v 0.16120544 0.01840514 -0.01059769 0.54117647 0.42352941 0.64313725
v 0.15885993 0.01863431 -0.01077480 0.54117647 0.42352941 0.64313725
v 0.15652523 0.01884102 -0.01089003 0.54117647 0.42352941 0.64313725
v 0.15196392 0.01928138 -0.01098392 0.54117647 0.42352941 0.64313725
v 0.14952113 0.01906569 -0.01136162 0.54117647 0.42352941 0.64313725
v 0.07251930 0.02210334 -0.00894820 0.54117647 0.42352941 0.64313725
v 0.06996842 0.02092154 -0.00909544 0.54117647 0.42352941 0.64313725
v 0.06861733 0.02043623 -0.00837205 0.54117647 0.42352941 0.64313725
v 0.07008732 0.02136640 -0.00667774 0.54117647 0.42352941 0.64313725
v 0.07251930 0.02228758 -0.00663934 0.54117647 0.42352941 0.64313725
v 0.07242202 0.02160905 0.00266653 0.54117647 0.42352941 0.64313725
v 0.07498370 0.02223366 0.00481535 0.54117647 0.42352941 0.64313725
v 0.07590245 0.02257517 0.00391059 0.54117647 0.42352941 0.64313725
v 0.07752377 0.02275491 0.00716049 0.54117647 0.42352941 0.64313725
v 0.14484093 0.01775807 -0.01249258 0.54117647 0.42352941 0.64313725
v 0.14250623 0.01787040 -0.01251392 0.54117647 0.42352941 0.64313725
v 0.11213352 0.01672904 -0.01352965 0.54117647 0.42352941 0.64313725
v 0.08410633 0.01896234 -0.01286601 0.54117647 0.42352941 0.64313725
v 0.08177162 0.01892639 -0.01285321 0.54117647 0.42352941 0.64313725
v 0.07943693 0.01889943 -0.01282120 0.54117647 0.42352941 0.64313725
v 0.07710223 0.01881405 -0.01280199 0.54117647 0.42352941 0.64313725
v 0.07476753 0.01849950 -0.01271664 0.54117647 0.42352941 0.64313725
v 0.07476753 0.01966783 -0.01229413 0.54117647 0.42352941 0.64313725
v 0.07233555 0.01898031 -0.01208928 0.54117647 0.42352941 0.64313725
v 0.06996842 0.01920949 -0.01108208 0.54117647 0.42352941 0.64313725
v 0.06815254 0.01853096 -0.01062543 0.54117647 0.42352941 0.64313725
v 0.06911453 0.02008573 -0.00992979 0.54117647 0.42352941 0.64313725
v 0.14484093 0.02093052 0.00716049 0.54117647 0.42352941 0.64313725
v 0.15041827 0.02043623 0.00716049 0.54117647 0.42352941 0.64313725
v 0.15185583 0.02029244 0.00716049 0.54117647 0.42352941 0.64313725
v 0.15640633 0.01981162 0.00716049 0.54117647 0.42352941 0.64313725
v 0.15675221 0.01975770 0.00716049 0.54117647 0.42352941 0.64313725
v 0.16120544 0.01954650 -0.00667774 0.54117647 0.42352941 0.64313725
v 0.16120544 0.01928588 -0.00901435 0.54117647 0.42352941 0.64313725
v 0.15866537 0.01982061 -0.00880736 0.54117647 0.42352941 0.64313725
v 0.15652523 0.02000934 -0.00938351 0.54117647 0.42352941 0.64313725
v 0.16278352 0.01817597 -0.01039497 0.54117647 0.42352941 0.64313725
v 0.16120544 0.01672904 -0.01137016 0.54117647 0.42352941 0.64313725
v 0.15885993 0.01672904 -0.01172865 0.54117647 0.42352941 0.64313725
v 0.15652523 0.01672904 -0.01198045 0.54117647 0.42352941 0.64313725
v 0.14718643 0.01749744 -0.01244137 0.54117647 0.42352941 0.64313725
v 0.06848762 0.02051262 -0.00667774 0.54117647 0.42352941 0.64313725
v 0.05484692 0.01064026 -0.00601411 0.54117647 0.42352941 0.64313725
v 0.05484692 0.01123341 -0.00429420 0.54117647 0.42352941 0.64313725
v 0.05484692 0.01165580 -0.00200667 0.54117647 0.42352941 0.64313725
v 0.07038997 0.02069686 0.00266653 0.54117647 0.42352941 0.64313725
v 0.07242202 0.02130798 0.00500314 0.54117647 0.42352941 0.64313725
v 0.07637804 0.02244036 0.00716049 0.54117647 0.42352941 0.64313725
v 0.07743730 0.02273244 0.00716049 0.54117647 0.42352941 0.64313725
v 0.15348796 0.01562362 -0.01253312 0.54117647 0.42352941 0.64313725
v 0.14718643 0.01632911 -0.01265262 0.54117647 0.42352941 0.64313725
v 0.14484093 0.01658974 -0.01269743 0.54117647 0.42352941 0.64313725
v 0.12848722 0.01672904 -0.01311568 0.54117647 0.42352941 0.64313725
v 0.11446822 0.01672904 -0.01347630 0.54117647 0.42352941 0.64313725
v 0.11213352 0.01439238 -0.01382199 0.54117647 0.42352941 0.64313725
v 0.09812533 0.01439238 -0.01380919 0.54117647 0.42352941 0.64313725
v 0.08177162 0.01439238 -0.01375371 0.54117647 0.42352941 0.64313725
v 0.08177162 0.01672904 -0.01341869 0.54117647 0.42352941 0.64313725
v 0.11446822 0.01439238 -0.01380705 0.54117647 0.42352941 0.64313725
v 0.07710223 0.01672904 -0.01334827 0.54117647 0.42352941 0.64313725
v 0.07476753 0.01672904 -0.01320530 0.54117647 0.42352941 0.64313725
v 0.07304893 0.01814451 -0.01260354 0.54117647 0.42352941 0.64313725
v 0.07149246 0.01773560 -0.01247978 0.54117647 0.42352941 0.64313725
v 0.06994680 0.01686385 -0.01227279 0.54117647 0.42352941 0.64313725
v 0.06752564 0.01695372 -0.01111836 0.54117647 0.42352941 0.64313725
v 0.06659608 0.01788388 -0.01016665 0.54117647 0.42352941 0.64313725
v 0.15885993 0.01929486 0.00716049 0.54117647 0.42352941 0.64313725
v 0.15904368 0.01923195 0.00716049 0.54117647 0.42352941 0.64313725
v 0.16354014 0.01873766 -0.00667774 0.54117647 0.42352941 0.64313725
v 0.16355094 0.01843659 -0.00894180 0.54117647 0.42352941 0.64313725
v 0.16479395 0.01800521 -0.00811385 0.54117647 0.42352941 0.64313725
v 0.16440484 0.01672904 -0.00972707 0.54117647 0.42352941 0.64313725
v 0.16323749 0.01672904 -0.01067238 0.54117647 0.42352941 0.64313725
v 0.16120544 0.01439238 -0.01191003 0.54117647 0.42352941 0.64313725
v 0.15885993 0.01439238 -0.01217036 0.54117647 0.42352941 0.64313725
v 0.15423377 0.01653132 -0.01223651 0.54117647 0.42352941 0.64313725
v 0.15185583 0.01690429 -0.01228986 0.54117647 0.42352941 0.64313725
v 0.06904967 0.02016212 0.00032993 0.54117647 0.42352941 0.64313725
v 0.05484692 0.01172770 0.00032993 0.54117647 0.42352941 0.64313725
v 0.05484692 0.01021337 -0.00670335 0.54117647 0.42352941 0.64313725
v 0.06922262 0.02003630 0.00266653 0.54117647 0.42352941 0.64313725
v 0.07075746 0.02051712 0.00500314 0.54117647 0.42352941 0.64313725
v 0.07477834 0.02186069 0.00716049 0.54117647 0.42352941 0.64313725
v 0.07108173 0.02033288 0.00649685 0.54117647 0.42352941 0.64313725
v 0.07234636 0.02078223 0.00716049 0.54117647 0.42352941 0.64313725
v 0.15185583 0.01205573 -0.01283400 0.54117647 0.42352941 0.64313725
v 0.14718643 0.01439238 -0.01285321 0.54117647 0.42352941 0.64313725
v 0.16164860 0.01053241 -0.01250325 0.54117647 0.42352941 0.64313725
v 0.13083273 0.01439238 -0.01334827 0.54117647 0.42352941 0.64313725
v 0.10514023 0.00971908 -0.01428291 0.54117647 0.42352941 0.64313725
v 0.10280553 0.00971908 -0.01427011 0.54117647 0.42352941 0.64313725
v 0.09812533 0.00504577 -0.01463927 0.54117647 0.42352941 0.64313725
v 0.07476753 0.01205573 -0.01384333 0.54117647 0.42352941 0.64313725
v 0.07710223 0.01439238 -0.01369182 0.54117647 0.42352941 0.64313725
v 0.11681373 0.01205573 -0.01389027 0.54117647 0.42352941 0.64313725
v 0.10980963 0.00738242 -0.01435119 0.54117647 0.42352941 0.64313725
v 0.07476753 0.01439238 -0.01364701 0.54117647 0.42352941 0.64313725
v 0.07242202 0.01439238 -0.01336961 0.54117647 0.42352941 0.64313725
v 0.07233555 0.01686385 -0.01282547 0.54117647 0.42352941 0.64313725
v 0.07063857 0.01617633 -0.01265476 0.54117647 0.42352941 0.64313725
v 0.06907130 0.01536749 -0.01248404 0.54117647 0.42352941 0.64313725
v 0.05484692 0.00735546 -0.00931736 0.54117647 0.42352941 0.64313725
v 0.05484692 0.00813285 -0.00885004 0.54117647 0.42352941 0.64313725
v 0.05484692 0.00902707 -0.00827816 0.54117647 0.42352941 0.64313725
v 0.05484692 0.00961123 -0.00751423 0.54117647 0.42352941 0.64313725
v 0.16132434 0.01836919 0.00716049 0.54117647 0.42352941 0.64313725
v 0.16475073 0.01794679 -0.00541662 0.54117647 0.42352941 0.64313725
v 0.16480476 0.01801420 -0.00667774 0.54117647 0.42352941 0.64313725
v 0.16499933 0.01672904 -0.00667774 0.54117647 0.42352941 0.64313725
v 0.16489123 0.01672904 -0.00855770 0.54117647 0.42352941 0.64313725
v 0.16466425 0.01540344 -0.01008556 0.54117647 0.42352941 0.64313725
v 0.16374550 0.01453168 -0.01087296 0.54117647 0.42352941 0.64313725
v 0.16240521 0.00897764 -0.01253526 0.54117647 0.42352941 0.64313725
v 0.05484692 0.01134575 0.00271348 0.54117647 0.42352941 0.64313725
v 0.07035754 0.01953302 0.00716049 0.54117647 0.42352941 0.64313725
v 0.07211937 0.02067439 0.00716049 0.54117647 0.42352941 0.64313725
v 0.05484692 0.01092784 0.00391912 0.54117647 0.42352941 0.64313725
v 0.05484692 0.01063127 0.00456996 0.54117647 0.42352941 0.64313725
v 0.15185583 0.00971908 -0.01294070 0.54117647 0.42352941 0.64313725
v 0.14952113 0.01205573 -0.01291509 0.54117647 0.42352941 0.64313725
v 0.16100007 0.00974154 -0.01256727 0.54117647 0.42352941 0.64313725
v 0.10747493 0.00738242 -0.01438320 0.54117647 0.42352941 0.64313725
v 0.11446822 0.00504577 -0.01426797 0.54117647 0.42352941 0.64313725
v 0.10280553 0.00270911 -0.01452190 0.54117647 0.42352941 0.64313725
v 0.10046002 0.00270911 -0.01457098 0.54117647 0.42352941 0.64313725
v 0.08644102 -0.00429636 -0.01447282 0.54117647 0.42352941 0.64313725
v 0.08644102 0.00270911 -0.01444295 0.54117647 0.42352941 0.64313725
v 0.07943693 0.00738242 -0.01421889 0.54117647 0.42352941 0.64313725
v 0.07242202 0.00971908 -0.01383906 0.54117647 0.42352941 0.64313725
v 0.07242202 0.01205573 -0.01368755 0.54117647 0.42352941 0.64313725
v 0.07008732 0.01205573 -0.01323517 0.54117647 0.42352941 0.64313725
v 0.06994680 0.01450922 -0.01283400 0.54117647 0.42352941 0.64313725
v 0.06857409 0.01380822 -0.01262061 0.54117647 0.42352941 0.64313725
v 0.05484692 0.00491096 -0.01016024 0.54117647 0.42352941 0.64313725
v 0.05484692 0.00540076 -0.01002368 0.54117647 0.42352941 0.64313725
v 0.16161617 0.01814900 0.00716049 0.54117647 0.42352941 0.64313725
v 0.16386440 0.01457213 0.00716049 0.54117647 0.42352941 0.64313725
v 0.16392925 0.01439238 0.00716049 0.54117647 0.42352941 0.64313725
v 0.16417786 0.01205573 0.00716049 0.54117647 0.42352941 0.64313725
v 0.16268625 0.01716492 0.00716049 0.54117647 0.42352941 0.64313725
v 0.16295646 0.01686385 0.00716049 0.54117647 0.42352941 0.64313725
v 0.16516146 0.01439238 -0.00667774 0.54117647 0.42352941 0.64313725
v 0.16498852 0.01453168 -0.00918933 0.54117647 0.42352941 0.64313725
v 0.16480476 0.01384417 -0.01029681 0.54117647 0.42352941 0.64313725
v 0.16240521 0.00738242 -0.01253526 0.54117647 0.42352941 0.64313725
v 0.16120544 0.00738242 -0.01264408 0.54117647 0.42352941 0.64313725
v 0.16332396 0.00974154 -0.01170304 0.54117647 0.42352941 0.64313725
v 0.05484692 0.01034818 0.00508636 0.54117647 0.42352941 0.64313725
v 0.05484692 0.00968762 0.00609568 0.54117647 0.42352941 0.64313725
v 0.05484692 0.00913491 0.00679987 0.54117647 0.42352941 0.64313725
v 0.05484692 0.00871252 0.00716049 0.54117647 0.42352941 0.64313725
v 0.15185583 0.00270911 -0.01300471 0.54117647 0.42352941 0.64313725
v 0.11914842 0.00270911 -0.01411220 0.54117647 0.42352941 0.64313725
v 0.11681373 0.00270911 -0.01418048 0.54117647 0.42352941 0.64313725
v 0.10747493 0.00037695 -0.01434692 0.54117647 0.42352941 0.64313725
v 0.09579063 -0.00896966 -0.01427224 0.54117647 0.42352941 0.64313725
v 0.09112123 -0.00663301 -0.01437680 0.54117647 0.42352941 0.64313725
v 0.08878653 -0.00663301 -0.01437680 0.54117647 0.42352941 0.64313725
v 0.08644102 -0.00663301 -0.01432559 0.54117647 0.42352941 0.64313725
v 0.08410633 -0.00429636 -0.01437680 0.54117647 0.42352941 0.64313725
v 0.07943693 0.00504577 -0.01425303 0.54117647 0.42352941 0.64313725
v 0.07242202 0.00738242 -0.01390948 0.54117647 0.42352941 0.64313725
v 0.07008732 0.00504577 -0.01369609 0.54117647 0.42352941 0.64313725
v 0.07008732 0.00738242 -0.01361927 0.54117647 0.42352941 0.64313725
v 0.07008732 0.00971908 -0.01345710 0.54117647 0.42352941 0.64313725
v 0.05484692 0.00037695 -0.01077054 0.54117647 0.42352941 0.64313725
v 0.05484692 0.00279898 -0.01052300 0.54117647 0.42352941 0.64313725
v 0.06660689 0.01083348 -0.01251392 0.54117647 0.42352941 0.64313725
v 0.06808769 0.01205573 -0.01274011 0.54117647 0.42352941 0.64313725
v 0.16419948 0.00989882 0.00716049 0.54117647 0.42352941 0.64313725
v 0.16525873 0.01205573 -0.00667774 0.54117647 0.42352941 0.64313725
v 0.16515065 0.01205573 -0.00901435 0.54117647 0.42352941 0.64313725
v 0.16480476 0.01205573 -0.01031815 0.54117647 0.42352941 0.64313725
v 0.16238360 0.00609726 -0.01252459 0.54117647 0.42352941 0.64313725
v 0.16357256 0.00738242 -0.01147258 0.54117647 0.42352941 0.64313725
v 0.16128110 0.00520754 -0.01261421 0.54117647 0.42352941 0.64313725
v 0.15885993 0.00037695 -0.01270810 0.54117647 0.42352941 0.64313725
v 0.15885993 0.00270911 -0.01273371 0.54117647 0.42352941 0.64313725
v 0.15885993 0.00504577 -0.01274225 0.54117647 0.42352941 0.64313725
v 0.16480476 0.00971908 -0.01034162 0.54117647 0.42352941 0.64313725
v 0.05484692 -0.00664200 0.00716049 0.54117647 0.42352941 0.64313725
v 0.15652523 0.00037695 -0.01280413 0.54117647 0.42352941 0.64313725
v 0.15419053 -0.00663301 -0.01272731 0.54117647 0.42352941 0.64313725
v 0.15163966 -0.01363848 -0.01255233 0.54117647 0.42352941 0.64313725
v 0.15227737 -0.01441137 -0.01250538 0.54117647 0.42352941 0.64313725
v 0.09812533 -0.01130632 -0.01397776 0.54117647 0.42352941 0.64313725
v 0.09579063 -0.01130632 -0.01396923 0.54117647 0.42352941 0.64313725
v 0.09345593 -0.00896966 -0.01424450 0.54117647 0.42352941 0.64313725
v 0.15072091 -0.01481130 -0.01252032 0.54117647 0.42352941 0.64313725
v 0.09112123 -0.00896966 -0.01420822 0.54117647 0.42352941 0.64313725
v 0.08177162 -0.01130632 -0.01364061 0.54117647 0.42352941 0.64313725
v 0.07943693 -0.01130632 -0.01352538 0.54117647 0.42352941 0.64313725
v 0.07476753 -0.00896966 -0.01349764 0.54117647 0.42352941 0.64313725
v 0.07476753 -0.00663301 -0.01366408 0.54117647 0.42352941 0.64313725
v 0.07242202 0.00270911 -0.01384760 0.54117647 0.42352941 0.64313725
v 0.07242202 0.00504577 -0.01392015 0.54117647 0.42352941 0.64313725
v 0.07008732 0.00270911 -0.01360433 0.54117647 0.42352941 0.64313725
v 0.05484692 -0.00306512 -0.01080254 0.54117647 0.42352941 0.64313725
v 0.05484692 -0.00195970 -0.01080254 0.54117647 0.42352941 0.64313725
v 0.05484692 -0.00072846 -0.01078974 0.54117647 0.42352941 0.64313725
v 0.16419948 0.00971908 0.00716049 0.54117647 0.42352941 0.64313725
v 0.16520469 0.00971908 -0.00667774 0.54117647 0.42352941 0.64313725
v 0.16512904 0.00971908 -0.00901435 0.54117647 0.42352941 0.64313725
v 0.16269705 -0.01364297 -0.01046112 0.54117647 0.42352941 0.64313725
v 0.16191882 0.00270911 -0.01244563 0.54117647 0.42352941 0.64313725
v 0.16020022 -0.00145642 -0.01255873 0.54117647 0.42352941 0.64313725
v 0.16049205 0.00037695 -0.01258861 0.54117647 0.42352941 0.64313725
v 0.16075147 0.00270911 -0.01261421 0.54117647 0.42352941 0.64313725
v 0.16470748 0.00387295 -0.01018372 0.54117647 0.42352941 0.64313725
v 0.16368065 0.00293829 -0.01105861 0.54117647 0.42352941 0.64313725
v 0.16331316 0.00037695 -0.01117597 0.54117647 0.42352941 0.64313725
v 0.16478315 0.00738242 -0.01030322 0.54117647 0.42352941 0.64313725
v 0.15902206 -0.00212596 -0.01260781 0.54117647 0.42352941 0.64313725
v 0.05484692 -0.00768900 0.00600606 0.54117647 0.42352941 0.64313725
v 0.07535120 -0.01744453 0.00716049 0.54117647 0.42352941 0.64313725
v 0.15614693 -0.00663301 -0.01260141 0.54117647 0.42352941 0.64313725
v 0.15310965 -0.01285660 -0.01253099 0.54117647 0.42352941 0.64313725
v 0.15400678 -0.01363848 -0.01237095 0.54117647 0.42352941 0.64313725
v 0.15885993 -0.01597963 -0.01121865 0.54117647 0.42352941 0.64313725
v 0.15419053 -0.01597963 -0.01192923 0.54117647 0.42352941 0.64313725
v 0.15163966 -0.01574596 -0.01221091 0.54117647 0.42352941 0.64313725
v 0.10514023 -0.01364297 -0.01348484 0.54117647 0.42352941 0.64313725
v 0.10280553 -0.01364297 -0.01348910 0.54117647 0.42352941 0.64313725
v 0.08878653 -0.01364297 -0.01342295 0.54117647 0.42352941 0.64313725
v 0.08878653 -0.01130632 -0.01380705 0.54117647 0.42352941 0.64313725
v 0.10980963 -0.01562463 -0.01283827 0.54117647 0.42352941 0.64313725
v 0.08177162 -0.01364297 -0.01322023 0.54117647 0.42352941 0.64313725
v 0.07943693 -0.01364297 -0.01311994 0.54117647 0.42352941 0.64313725
v 0.07710223 -0.01130632 -0.01336320 0.54117647 0.42352941 0.64313725
v 0.07476753 -0.01130632 -0.01319249 0.54117647 0.42352941 0.64313725
v 0.07242202 -0.01130632 -0.01297270 0.54117647 0.42352941 0.64313725
v 0.07242202 -0.00896966 -0.01326718 0.54117647 0.42352941 0.64313725
v 0.07242202 -0.00663301 -0.01345496 0.54117647 0.42352941 0.64313725
v 0.05484692 -0.00429636 -0.01072572 0.54117647 0.42352941 0.64313725
v 0.07008732 -0.00896966 -0.01293643 0.54117647 0.42352941 0.64313725
v 0.16412381 0.00738242 0.00716049 0.54117647 0.42352941 0.64313725
v 0.16503175 0.00738242 -0.00901435 0.54117647 0.42352941 0.64313725
v 0.16312940 -0.01346323 0.00716049 0.54117647 0.42352941 0.64313725
v 0.16419948 -0.01130632 -0.00667774 0.54117647 0.42352941 0.64313725
v 0.16256734 -0.01542692 -0.01035656 0.54117647 0.42352941 0.64313725
v 0.16165941 0.00037695 -0.01234534 0.54117647 0.42352941 0.64313725
v 0.15990838 -0.00301120 -0.01251178 0.54117647 0.42352941 0.64313725
v 0.16490204 0.00504577 -0.00901435 0.54117647 0.42352941 0.64313725
v 0.16374550 -0.01130632 -0.00901435 0.54117647 0.42352941 0.64313725
v 0.05484692 -0.00833607 0.00492845 0.54117647 0.42352941 0.64313725
v 0.06971982 -0.01686935 -0.00667774 0.54117647 0.42352941 0.64313725
v 0.07696171 -0.01810059 0.00716049 0.54117647 0.42352941 0.64313725
v 0.05484692 -0.00930219 0.00258331 0.54117647 0.42352941 0.64313725
v 0.05484692 -0.00981445 0.00032993 0.54117647 0.42352941 0.64313725
v 0.05484692 -0.01006160 -0.00148814 0.54117647 0.42352941 0.64313725
v 0.15652523 -0.01364297 -0.01192923 0.54117647 0.42352941 0.64313725
v 0.15885993 -0.01364297 -0.01151953 0.54117647 0.42352941 0.64313725
v 0.16120544 -0.01364297 -0.01104367 0.54117647 0.42352941 0.64313725
v 0.16135676 -0.01611443 -0.01064464 0.54117647 0.42352941 0.64313725
v 0.16068662 -0.01748947 -0.01041631 0.54117647 0.42352941 0.64313725
v 0.15652523 -0.01797477 -0.01072999 0.54117647 0.42352941 0.64313725
v 0.15419053 -0.01814103 -0.01086656 0.54117647 0.42352941 0.64313725
v 0.15185583 -0.01825787 -0.01097539 0.54117647 0.42352941 0.64313725
v 0.15885993 -0.01777256 -0.01059129 0.54117647 0.42352941 0.64313725
v 0.11914842 -0.01667613 -0.01234748 0.54117647 0.42352941 0.64313725
v 0.10514023 -0.01553926 -0.01288308 0.54117647 0.42352941 0.64313725
v 0.08878653 -0.01548983 -0.01283400 0.54117647 0.42352941 0.64313725
v 0.08644102 -0.01547185 -0.01279772 0.54117647 0.42352941 0.64313725
v 0.11681373 -0.01669860 -0.01236668 0.54117647 0.42352941 0.64313725
v 0.08177162 -0.01524268 -0.01272517 0.54117647 0.42352941 0.64313725
v 0.07943693 -0.01513034 -0.01267823 0.54117647 0.42352941 0.64313725
v 0.07752377 -0.01496408 -0.01259501 0.54117647 0.42352941 0.64313725
v 0.07476753 -0.01465402 -0.01247764 0.54117647 0.42352941 0.64313725
v 0.07476753 -0.01348570 -0.01276572 0.54117647 0.42352941 0.64313725
v 0.07242202 -0.01304982 -0.01266116 0.54117647 0.42352941 0.64313725
v 0.07080070 -0.01265439 -0.01257580 0.54117647 0.42352941 0.64313725
v 0.06924423 -0.01212864 -0.01247124 0.54117647 0.42352941 0.64313725
v 0.07005489 -0.01133328 -0.01268250 0.54117647 0.42352941 0.64313725
v 0.05484692 -0.00542873 -0.01055501 0.54117647 0.42352941 0.64313725
v 0.06873622 -0.01056937 -0.01256940 0.54117647 0.42352941 0.64313725
v 0.16311859 -0.01364297 0.00716049 0.54117647 0.42352941 0.64313725
v 0.16387521 -0.01364297 -0.00667774 0.54117647 0.42352941 0.64313725
v 0.16348610 -0.01364297 -0.00901435 0.54117647 0.42352941 0.64313725
v 0.16275109 -0.01611443 -0.00895887 0.54117647 0.42352941 0.64313725
v 0.16224308 -0.01698619 -0.00969933 0.54117647 0.42352941 0.64313725
v 0.07083313 -0.01731421 -0.00846381 0.54117647 0.42352941 0.64313725
v 0.07088717 -0.01729175 -0.00667774 0.54117647 0.42352941 0.64313725
v 0.05485773 -0.01015147 -0.00292424 0.54117647 0.42352941 0.64313725
v 0.05485773 -0.01015147 -0.00347692 0.54117647 0.42352941 0.64313725
v 0.07927479 -0.01887798 0.00716049 0.54117647 0.42352941 0.64313725
v 0.05484692 -0.01014248 -0.00290931 0.54117647 0.42352941 0.64313725
v 0.15887074 -0.01902177 -0.00887991 0.54117647 0.42352941 0.64313725
v 0.15652523 -0.01914310 -0.00948380 0.54117647 0.42352941 0.64313725
v 0.16135676 -0.01782648 -0.00895887 0.54117647 0.42352941 0.64313725
v 0.15185583 -0.01942619 -0.01006422 0.54117647 0.42352941 0.64313725
v 0.15049393 -0.01947113 -0.01015598 0.54117647 0.42352941 0.64313725
v 0.14893746 -0.01950708 -0.01021359 0.54117647 0.42352941 0.64313725
v 0.14964003 -0.01854096 -0.01087083 0.54117647 0.42352941 0.64313725
v 0.15419053 -0.01930936 -0.00984443 0.54117647 0.42352941 0.64313725
v 0.11213352 -0.01676600 -0.01233681 0.54117647 0.42352941 0.64313725
v 0.10980963 -0.01679296 -0.01232400 0.54117647 0.42352941 0.64313725
v 0.08644102 -0.01664018 -0.01222798 0.54117647 0.42352941 0.64313725
v 0.08410633 -0.01653233 -0.01217250 0.54117647 0.42352941 0.64313725
v 0.07943693 -0.01629867 -0.01198045 0.54117647 0.42352941 0.64313725
v 0.07688605 -0.01583583 -0.01198685 0.54117647 0.42352941 0.64313725
v 0.07476753 -0.01597963 -0.01166463 0.54117647 0.42352941 0.64313725
v 0.07242202 -0.01421815 -0.01231760 0.54117647 0.42352941 0.64313725
v 0.07005489 -0.01351715 -0.01208074 0.54117647 0.42352941 0.64313725
v 0.05484692 -0.00740590 -0.00998313 0.54117647 0.42352941 0.64313725
v 0.05484692 -0.00704642 -0.01014744 0.54117647 0.42352941 0.64313725
v 0.05484692 -0.00629150 -0.01041418 0.54117647 0.42352941 0.64313725
v 0.16264300 -0.01578191 0.00716049 0.54117647 0.42352941 0.64313725
v 0.16299970 -0.01597963 -0.00667774 0.54117647 0.42352941 0.64313725
v 0.16239440 -0.01720188 -0.00814159 0.54117647 0.42352941 0.64313725
v 0.07006570 -0.01676151 -0.00915092 0.54117647 0.42352941 0.64313725
v 0.07142761 -0.01708055 -0.01002154 0.54117647 0.42352941 0.64313725
v 0.07229231 -0.01757484 -0.00915092 0.54117647 0.42352941 0.64313725
v 0.07476753 -0.01810059 -0.00901435 0.54117647 0.42352941 0.64313725
v 0.07242202 -0.01774560 -0.00667774 0.54117647 0.42352941 0.64313725
v 0.05484692 -0.01007508 -0.00493009 0.54117647 0.42352941 0.64313725
v 0.05484692 -0.01003464 -0.00522030 0.54117647 0.42352941 0.64313725
v 0.05484692 -0.00977401 -0.00667774 0.54117647 0.42352941 0.64313725
v 0.05484692 -0.01014248 -0.00349186 0.54117647 0.42352941 0.64313725
v 0.08210670 -0.01966435 0.00716049 0.54117647 0.42352941 0.64313725
v 0.15932471 -0.01935879 -0.00667774 0.54117647 0.42352941 0.64313725
v 0.15809250 -0.01952954 -0.00801142 0.54117647 0.42352941 0.64313725
v 0.15652523 -0.01962840 -0.00831444 0.54117647 0.42352941 0.64313725
v 0.16120544 -0.01825337 -0.00667774 0.54117647 0.42352941 0.64313725
v 0.15185583 -0.01980365 -0.00889699 0.54117647 0.42352941 0.64313725
v 0.15419053 -0.01973625 -0.00867506 0.54117647 0.42352941 0.64313725
v 0.14964003 -0.01978118 -0.00923201 0.54117647 0.42352941 0.64313725
v 0.14807275 -0.01950708 -0.01021359 0.54117647 0.42352941 0.64313725
v 0.13628036 -0.01949360 -0.01019652 0.54117647 0.42352941 0.64313725
v 0.08644102 -0.01785794 -0.01106074 0.54117647 0.42352941 0.64313725
v 0.08410633 -0.01782648 -0.01100526 0.54117647 0.42352941 0.64313725
v 0.07943693 -0.01768269 -0.01081108 0.54117647 0.42352941 0.64313725
v 0.07710223 -0.01759731 -0.01068945 0.54117647 0.42352941 0.64313725
v 0.07476753 -0.01747149 -0.01053581 0.54117647 0.42352941 0.64313725
v 0.07298408 -0.01732770 -0.01037150 0.54117647 0.42352941 0.64313725
v 0.07229231 -0.01617285 -0.01106928 0.54117647 0.42352941 0.64313725
v 0.07008732 -0.01560666 -0.01083882 0.54117647 0.42352941 0.64313725
v 0.06832549 -0.01516180 -0.01049526 0.54117647 0.42352941 0.64313725
v 0.05484692 -0.00866859 -0.00879883 0.54117647 0.42352941 0.64313725
v 0.16215661 -0.01674353 0.00716049 0.54117647 0.42352941 0.64313725
v 0.16238360 -0.01717492 -0.00542089 0.54117647 0.42352941 0.64313725
v 0.16240521 -0.01720637 -0.00667774 0.54117647 0.42352941 0.64313725
v 0.06762292 -0.01549432 -0.00907623 0.54117647 0.42352941 0.64313725
v 0.06676902 -0.01465402 -0.00989564 0.54117647 0.42352941 0.64313725
v 0.07476753 -0.01820394 -0.00667774 0.54117647 0.42352941 0.64313725
v 0.07710223 -0.01835223 -0.00901435 0.54117647 0.42352941 0.64313725
v 0.09313166 -0.02127754 0.00716049 0.54117647 0.42352941 0.64313725
v 0.08860278 -0.02077875 0.00716049 0.54117647 0.42352941 0.64313725
v 0.08644102 -0.02054059 0.00716049 0.54117647 0.42352941 0.64313725
v 0.08411713 -0.02018111 0.00716049 0.54117647 0.42352941 0.64313725
v 0.08394419 -0.02014067 0.00716049 0.54117647 0.42352941 0.64313725
v 0.05484692 -0.00944598 -0.00735419 0.54117647 0.42352941 0.64313725
v 0.15950846 -0.01949360 0.00716049 0.54117647 0.42352941 0.64313725
v 0.15885993 -0.01978118 0.00716049 0.54117647 0.42352941 0.64313725
v 0.15846001 -0.01990700 0.00716049 0.54117647 0.42352941 0.64313725
v 0.15688192 -0.02032041 0.00716049 0.54117647 0.42352941 0.64313725
v 0.15670898 -0.02036535 0.00716049 0.54117647 0.42352941 0.64313725
v 0.15419053 -0.02085515 0.00716049 0.54117647 0.42352941 0.64313725
v 0.15401759 -0.02087761 0.00716049 0.54117647 0.42352941 0.64313725
v 0.14972650 -0.02138089 0.00716049 0.54117647 0.42352941 0.64313725
v 0.14718643 -0.02165949 0.00716049 0.54117647 0.42352941 0.64313725
v 0.15419053 -0.01997890 -0.00667774 0.54117647 0.42352941 0.64313725
v 0.16115139 -0.01816799 0.00716049 0.54117647 0.42352941 0.64313725
v 0.15185583 -0.02008675 -0.00667774 0.54117647 0.42352941 0.64313725
v 0.14017153 -0.02212233 0.00716049 0.54117647 0.42352941 0.64313725
v 0.13316743 -0.02227511 0.00716049 0.54117647 0.42352941 0.64313725
v 0.14725129 -0.01979466 -0.00917866 0.54117647 0.42352941 0.64313725
v 0.13550213 -0.01977669 -0.00922560 0.54117647 0.42352941 0.64313725
v 0.14250623 -0.01984409 -0.00894180 0.54117647 0.42352941 0.64313725
v 0.11914842 -0.01934980 -0.00977828 0.54117647 0.42352941 0.64313725
v 0.08410633 -0.01878361 -0.00901435 0.54117647 0.42352941 0.64313725
v 0.07943693 -0.01851849 -0.00901435 0.54117647 0.42352941 0.64313725
v 0.16130272 -0.01797926 0.00716049 0.54117647 0.42352941 0.64313725
v 0.09579063 -0.02154715 0.00716049 0.54117647 0.42352941 0.64313725
v 0.13316743 -0.01981713 -0.00895673 0.54117647 0.42352941 0.64313725
v 0.14017153 -0.01984859 -0.00890765 0.54117647 0.42352941 0.64313725
v 0.10514023 -0.02194708 0.00716049 0.54117647 0.42352941 0.64313725
v 0.11914842 -0.01966885 -0.00860891 0.54117647 0.42352941 0.64313725
v 0.10280553 -0.02187069 0.00716049 0.54117647 0.42352941 0.64313725
v 0.09884952 -0.02171341 0.00716049 0.54117647 0.42352941 0.64313725
v 0.09812533 -0.02168196 0.00716049 0.54117647 0.42352941 0.64313725
v 0.09622298 -0.02157412 0.00716049 0.54117647 0.42352941 0.64313725
f 1 2 3
f 1 3 4
f 1 4 14
f 1 14 34
f 1 34 72
f 1 72 107
f 1 107 106
f 1 106 141
f 1 141 143
f 1 143 174
f 1 174 173
f 1 173 209
f 1 209 239
f 1 239 273
f 1 273 305
f 1 305 343
f 1 343 377
f 1 377 408
f 1 408 407
f 1 407 406
f 1 406 405
f 1 405 404
f 1 404 431
f 1 431 439
f 1 439 438
f 1 438 437
f 1 437 436
f 1 436 434
f 1 434 423
f 1 423 422
f 1 422 418
f 1 418 417
f 1 417 416
f 1 416 415
f 1 415 414
f 1 414 413
f 1 413 412
f 1 412 411
f 1 411 410
f 1 410 420
f 1 420 430
f 1 430 397
f 1 397 365
f 1 365 334
f 1 334 296
f 1 296 294
f 1 294 259
f 1 259 228
f 1 228 197
f 1 197 196
f 1 196 195
f 1 195 199
f 1 199 198
f 1 198 194
f 1 194 164
f 1 164 126
f 1 126 125
f 1 125 90
f 1 90 89
f 1 89 88
f 1 88 87
f 1 87 86
f 1 86 50
f 1 50 25
f 1 25 10
f 1 10 5
f 1 5 2
f 2 6 7
f 2 7 8
f 2 8 9
f 2 9 3
f 2 5 10
f 2 10 11
f 2 11 6
f 3 9 12
f 3 12 30
f 3 30 13
f 3 13 4
f 4 13 14
f 6 11 15
f 6 15 16
f 6 16 17
f 6 17 18
f 6 18 19
f 6 19 7
f 7 19 20
f 7 20 8
f 8 12 9
f 8 20 21
f 8 21 22
f 8 22 23
f 8 23 24
f 8 24 12
f 10 25 11
f 11 25 26
f 11 26 27
f 11 27 28
f 11 28 29
f 11 29 15
f 12 24 30
f 13 30 31
f 13 31 32
f 13 32 33
f 13 33 34
f 13 34 14
f 15 29 35
f 15 35 36
f 15 36 16
f 16 37 17
f 16 36 37
f 17 37 20
f 17 20 18
f 18 20 19
f 20 37 38
f 20 38 39
f 20 39 21
f 21 40 22
f 21 39 40
f 22 40 41
f 22 41 42
f 22 42 43
f 22 43 23
f 23 43 44
f 23 44 24
f 24 44 45
f 24 45 46
f 24 46 47
f 24 47 48
f 24 48 49
f 24 49 32
f 24 32 31
f 24 31 30
f 25 50 51
f 25 51 52
f 25 52 53
f 25 53 54
f 25 54 55
f 25 55 26
f 26 55 27
f 27 55 54
f 27 54 56
f 27 56 53
f 27 53 57
f 27 57 58
f 27 58 59
f 27 59 60
f 27 60 61
f 27 61 62
f 27 62 63
f 27 63 35
f 27 35 28
f 28 35 29
f 32 49 64
f 32 64 65
f 32 65 66
f 32 66 67
f 32 67 33
f 33 67 68
f 33 68 69
f 33 69 70
f 33 70 71
f 33 71 72
f 33 72 34
f 35 63 73
f 35 73 36
f 36 73 37
f 37 74 38
f 37 73 74
f 38 75 39
f 38 74 75
f 39 75 76
f 39 76 41
f 39 41 40
f 41 76 42
f 42 76 43
f 43 77 78
f 43 78 79
f 43 79 45
f 43 45 44
f 43 76 77
f 45 79 80
f 45 80 81
f 45 81 46
f 46 81 47
f 47 81 82
f 47 82 48
f 48 82 83
f 48 83 84
f 48 84 85
f 48 85 65
f 48 65 64
f 48 64 49
f 50 86 51
f 51 86 87
f 51 87 88
f 51 88 89
f 51 89 90
f 51 90 91
f 51 91 52
f 52 91 92
f 52 92 93
f 52 93 94
f 52 94 53
f 53 94 57
f 53 56 54
f 57 94 59
f 57 59 58
f 59 92 95
f 59 95 96
f 59 96 97
f 59 97 60
f 59 94 92
f 60 97 98
f 60 98 61
f 61 98 99
f 61 99 63
f 61 63 62
f 63 99 73
f 65 85 66
f 66 100 67
f 66 85 101
f 66 101 102
f 66 102 103
f 66 103 100
f 67 100 104
f 67 104 69
f 67 69 68
f 69 105 106
f 69 106 70
f 69 104 105
f 70 106 71
f 71 106 107
f 71 107 72
f 73 99 108
f 73 108 109
f 73 109 110
f 73 110 111
f 73 111 112
f 73 112 75
f 73 75 74
f 75 113 114
f 75 114 115
f 75 115 116
f 75 116 76
f 75 112 117
f 75 117 113
f 76 116 77
f 77 116 118
f 77 118 78
f 78 118 79
f 79 118 119
f 79 119 80
f 80 119 120
f 80 120 81
f 81 120 121
f 81 121 82
f 82 121 83
f 83 121 122
f 83 122 84
f 84 123 124
f 84 124 85
f 84 122 123
f 85 124 101
f 90 125 91
f 91 125 126
f 91 126 127
f 91 127 92
f 92 94 93
f 92 127 128
f 92 128 95
f 95 128 129
f 95 129 130
f 95 130 131
f 95 131 96
f 96 131 132
f 96 132 97
f 97 132 133
f 97 133 108
f 97 108 98
f 98 108 134
f 98 134 135
f 98 135 99
f 99 135 134
f 99 134 108
f 100 136 104
f 100 103 137
f 100 137 136
f 101 138 163
f 101 163 162
f 101 162 161
f 101 161 160
f 101 160 193
f 101 193 192
f 101 192 225
f 101 225 224
f 101 224 258
f 101 258 257
f 101 257 256
f 101 256 292
f 101 292 332
f 101 332 364
f 101 364 363
f 101 363 362
f 101 362 396
f 101 396 409
f 101 409 375
f 101 375 374
f 101 374 373
f 101 373 376
f 101 376 344
f 101 344 308
f 101 308 307
f 101 307 306
f 101 306 303
f 101 303 272
f 101 272 239
f 101 239 209
f 101 209 208
f 101 208 207
f 101 207 206
f 101 206 176
f 101 176 175
f 101 175 172
f 101 172 137
f 101 137 103
f 101 103 102
f 101 124 138
f 104 136 139
f 104 139 140
f 104 140 105
f 105 141 106
f 105 140 142
f 105 142 143
f 105 143 141
f 108 144 145
f 108 145 110
f 108 110 109
f 108 133 146
f 108 146 144
f 110 145 147
f 110 147 117
f 110 117 111
f 111 117 112
f 113 117 148
f 113 148 114
f 114 148 115
f 115 148 149
f 115 149 150
f 115 150 151
f 115 151 152
f 115 152 116
f 116 152 118
f 117 147 153
f 117 153 154
f 117 154 148
f 118 152 155
f 118 155 119
f 119 155 156
f 119 156 157
f 119 157 120
f 120 157 121
f 121 157 158
f 121 158 159
f 121 159 122
f 122 159 160
f 122 160 123
f 123 160 124
f 124 160 161
f 124 161 162
f 124 162 163
f 124 163 138
f 126 164 127
f 127 165 166
f 127 166 129
f 127 129 128
f 127 164 165
f 129 166 167
f 129 167 168
f 129 168 169
f 129 169 130
f 130 169 131
f 131 169 170
f 131 170 171
f 131 171 132
f 132 171 146
f 132 146 133
f 136 137 139
f 137 172 139
f 139 172 140
f 140 172 142
f 142 173 174
f 142 174 143
f 142 172 175
f 142 175 176
f 142 176 173
f 144 177 178
f 144 178 145
f 144 146 179
f 144 179 177
f 145 178 147
f 146 171 179
f 147 178 154
f 147 154 153
f 148 154 180
f 148 180 150
f 148 150 149
f 150 180 154
f 150 154 181
f 150 181 182
f 150 182 183
f 150 183 184
f 150 184 185
f 150 185 186
f 150 186 151
f 151 187 188
f 151 188 155
f 151 155 152
f 151 186 187
f 154 178 177
f 154 177 181
f 155 188 156
f 156 188 189
f 156 189 190
f 156 190 158
f 156 158 157
f 158 190 159
f 159 190 191
f 159 191 192
f 159 192 193
f 159 193 160
f 164 194 165
f 165 195 196
f 165 196 197
f 165 197 167
f 165 167 166
f 165 194 198
f 165 198 199
f 165 199 195
f 167 200 168
f 167 197 200
f 168 200 201
f 168 201 202
f 168 202 169
f 169 202 170
f 170 202 171
f 171 203 204
f 171 204 179
f 171 202 205
f 171 205 203
f 173 176 206
f 173 206 207
f 173 207 208
f 173 208 209
f 177 179 204
f 177 204 181
f 181 204 210
f 181 210 211
f 181 211 212
f 181 212 182
f 182 213 183
f 182 212 213
f 183 213 214
f 183 214 215
f 183 215 184
f 184 215 216
f 184 216 217
f 184 217 218
f 184 218 219
f 184 219 185
f 185 219 186
f 186 219 220
f 186 220 187
f 187 220 221
f 187 221 222
f 187 222 188
f 188 222 223
f 188 223 189
f 189 223 224
f 189 224 225
f 189 225 226
f 189 226 227
f 189 227 191
f 189 191 190
f 191 227 225
f 191 225 192
f 197 228 229
f 197 229 200
f 200 229 230
f 200 230 201
f 201 230 202
f 202 230 231
f 202 231 205
f 203 232 204
f 203 205 233
f 203 233 232
f 204 232 234
f 204 234 235
f 204 235 236
f 204 236 237
f 204 237 210
f 205 231 238
f 205 238 233
f 210 237 236
f 210 236 240
f 210 240 211
f 211 240 241
f 211 241 242
f 211 242 243
f 211 243 212
f 212 243 213
f 213 243 214
f 214 244 245
f 214 245 246
f 214 246 216
f 214 216 215
f 214 243 247
f 214 247 244
f 216 246 248
f 216 248 217
f 217 249 250
f 217 250 251
f 217 251 218
f 217 248 249
f 218 251 252
f 218 252 253
f 218 253 254
f 218 254 219
f 219 254 220
f 220 254 221
f 221 254 253
f 221 253 255
f 221 255 256
f 221 256 257
f 221 257 258
f 221 258 224
f 221 224 222
f 222 224 223
f 225 227 226
f 228 259 229
f 229 260 261
f 229 261 230
f 229 259 260
f 230 261 238
f 230 238 231
f 232 262 263
f 232 263 264
f 232 264 265
f 232 265 266
f 232 266 234
f 232 233 267
f 232 267 268
f 232 268 269
f 232 269 262
f 233 238 270
f 233 270 267
f 234 266 235
f 235 266 265
f 235 265 264
f 235 264 271
f 235 271 241
f 235 241 240
f 235 240 236
f 238 261 270
f 239 272 273
f 241 271 274
f 241 274 275
f 241 275 243
f 241 243 242
f 243 275 276
f 243 276 277
f 243 277 278
f 243 278 279
f 243 279 247
f 244 280 281
f 244 281 245
f 244 247 280
f 245 281 282
f 245 282 283
f 245 283 248
f 245 248 246
f 247 279 284
f 247 284 280
f 248 283 249
f 249 283 282
f 249 282 285
f 249 285 286
f 249 286 250
f 250 286 287
f 250 287 251
f 251 287 288
f 251 288 289
f 251 289 290
f 251 290 291
f 251 291 252
f 252 291 253
f 253 291 255
f 255 291 256
f 256 291 293
f 256 293 292
f 259 294 260
f 260 295 261
f 260 294 296
f 260 296 297
f 260 297 295
f 261 295 267
f 261 267 270
f 262 298 263
f 262 269 267
f 262 267 298
f 263 298 299
f 263 299 264
f 264 300 271
f 264 299 300
f 267 269 268
f 267 295 301
f 267 301 297
f 267 297 302
f 267 302 298
f 271 300 274
f 272 303 273
f 273 304 305
f 273 303 306
f 273 306 307
f 273 307 308
f 273 308 304
f 274 300 275
f 275 300 276
f 276 300 309
f 276 309 277
f 277 310 311
f 277 311 312
f 277 312 313
f 277 313 278
f 277 309 310
f 278 314 315
f 278 315 316
f 278 316 279
f 278 313 317
f 278 317 314
f 279 316 318
f 279 318 284
f 280 284 319
f 280 319 281
f 281 319 320
f 281 320 282
f 282 320 321
f 282 321 285
f 284 318 322
f 284 322 319
f 285 321 323
f 285 323 324
f 285 324 286
f 286 324 325
f 286 325 326
f 286 326 327
f 286 327 328
f 286 328 288
f 286 288 287
f 288 328 289
f 289 328 329
f 289 329 330
f 289 330 331
f 289 331 290
f 290 331 293
f 290 293 291
f 292 293 333
f 292 333 330
f 292 330 332
f 293 331 333
f 295 297 301
f 296 334 297
f 297 335 336
f 297 336 302
f 297 334 335
f 298 302 336
f 298 336 337
f 298 337 338
f 298 338 313
f 298 313 312
f 298 312 311
f 298 311 299
f 299 311 300
f 300 311 310
f 300 310 309
f 304 339 340
f 304 340 305
f 304 308 341
f 304 341 342
f 304 342 339
f 305 340 343
f 308 344 341
f 313 345 346
f 313 346 317
f 313 338 347
f 313 347 345
f 314 348 315
f 314 317 348
f 315 348 349
f 315 349 316
f 316 349 350
f 316 350 351
f 316 351 318
f 317 346 352
f 317 352 348
f 318 351 322
f 319 322 353
f 319 353 354
f 319 354 320
f 320 355 321
f 320 354 355
f 321 355 323
f 322 351 350
f 322 350 353
f 323 355 324
f 324 355 356
f 324 356 357
f 324 357 325
f 325 357 358
f 325 358 359
f 325 359 326
f 326 359 360
f 326 360 328
f 326 328 327
f 328 360 329
f 329 360 330
f 330 333 331
f 330 360 361
f 330 361 362
f 330 362 363
f 330 363 364
f 330 364 332
f 334 365 335
f 335 365 366
f 335 366 337
f 335 337 336
f 337 366 367
f 337 367 338
f 338 367 347
f 339 368 369
f 339 369 370
f 339 370 371
f 339 371 372
f 339 372 340
f 339 342 373
f 339 373 374
f 339 374 375
f 339 375 368
f 340 372 343
f 341 344 376
f 341 376 342
f 342 376 373
f 343 372 377
f 345 347 378
f 345 378 379
f 345 379 346
f 346 380 352
f 346 379 380
f 347 367 381
f 347 381 378
f 348 382 349
f 348 352 383
f 348 383 382
f 349 382 384
f 349 384 350
f 350 385 354
f 350 354 353
f 350 384 385
f 352 380 383
f 354 385 386
f 354 386 355
f 355 387 388
f 355 388 356
f 355 386 387
f 356 388 389
f 356 389 390
f 356 390 357
f 357 390 391
f 357 391 359
f 357 359 358
f 359 391 392
f 359 392 393
f 359 393 360
f 360 393 394
f 360 394 361
f 361 394 395
f 361 395 362
f 362 395 396
f 365 397 398
f 365 398 366
f 366 398 399
f 366 399 367
f 367 399 381
f 368 375 400
f 368 400 369
f 369 400 401
f 369 401 395
f 369 395 394
f 369 394 392
f 369 392 370
f 370 392 371
f 371 402 372
f 371 392 391
f 371 391 403
f 371 403 404
f 371 404 405
f 371 405 406
f 371 406 402
f 372 402 407
f 372 407 408
f 372 408 377
f 375 409 401
f 375 401 400
f 378 410 411
f 378 411 412
f 378 412 413
f 378 413 414
f 378 414 415
f 378 415 379
f 378 381 410
f 379 415 416
f 379 416 417
f 379 417 418
f 379 418 419
f 379 419 380
f 380 419 383
f 381 399 420
f 381 420 410
f 382 383 421
f 382 421 422
f 382 422 423
f 382 423 384
f 383 419 421
f 384 424 425
f 384 425 385
f 384 423 426
f 384 426 424
f 385 425 386
f 386 425 427
f 386 427 387
f 387 427 388
f 388 427 428
f 388 428 389
f 389 429 390
f 389 428 429
f 390 429 403
f 390 403 391
f 392 394 393
f 395 401 396
f 396 401 409
f 397 430 398
f 398 430 399
f 399 430 420
f 402 406 407
f 403 429 431
f 403 431 404
f 418 422 419
f 419 422 421
f 423 432 433
f 423 433 426
f 423 434 432
f 424 426 425
f 425 426 433
f 425 433 432
f 425 432 427
f 427 432 435
f 427 435 428
f 428 434 436
f 428 436 437
f 428 437 438
f 428 438 439
f 428 439 429
f 428 435 434
f 429 439 431
f 432 434 435

