# https://github.com/mikedh/trimesh
v -0.03576150 0.00813550 0.00567950
v 0.00045050 -0.00045750 -0.00905550
v 0.00045050 -0.00015250 -0.00905550
v 0.03176850 0.00076650 0.00721450
v -0.05939850 -0.00936050 0.00414250
v -0.05971550 0.00383750 -0.00752150
v 0.02746250 0.00782850 -0.00414350
v 0.02900050 -0.00844050 -0.00322450
v -0.05939850 0.00230150 0.01059150
v -0.05910050 -0.00659750 -0.00629350
v 0.02685650 -0.00506250 0.00690650
v -0.05910050 0.00936550 0.00015350
v 0.02930750 -0.00383550 -0.00844250
v 0.02777850 0.00629350 0.00537150
v -0.04159550 -0.00598450 0.00936250
v 0.02900050 0.00414450 -0.00813650
v 0.02808650 -0.00813450 0.00322150
v 0.02900950 0.00813550 0.00138050
v -0.05971550 -0.00936250 -0.00168750
v -0.05878350 0.00752250 -0.00475950
v 0.00905350 0.00291650 0.00874950
v -0.05970650 0.00598550 0.00874950
v -0.05970650 -0.00291350 -0.00813650
v 0.01027450 -0.00936250 -0.00230250
v -0.05910050 -0.00260650 0.01059150
v 0.02685650 -0.00659950 -0.00690750
v 0.01488850 -0.00322150 0.00844150
v 0.03177750 0.00046050 -0.00844250
v 0.00259450 0.00537250 -0.00782850
v 0.03176850 -0.00751950 0.00230150
v 0.03176850 0.00721550 -0.00291650
v -0.06001350 0.00905850 0.00322150
v -0.06063850 -0.00813450 -0.00076750
v 0.00260350 -0.00383550 -0.00875050
v -0.01765050 -0.00813250 -0.00506450
v 0.00414150 -0.00813250 0.00506350
v -0.05939850 0.00076650 -0.00844250
v 0.01702350 0.00230150 -0.00905550
v -0.05970650 -0.00751950 0.00752050
v 0.02777850 -0.00874750 0.00138050
v 0.02715450 0.00844350 0.00046150
v -0.00384650 0.00752150 0.00567950
v -0.02562950 0.00046050 0.00997650
v -0.02932050 0.00813550 -0.00414350
v 0.00936150 0.00383750 0.00844150
v -0.05540950 -0.00967050 0.00291550
v 0.03176850 -0.00598450 -0.00598650
v -0.06063850 0.00598550 -0.00445150
v -0.06033050 0.00107550 0.00997650
v 0.02777850 0.00076650 0.00813350
v 0.01303350 0.00690750 -0.00629350
v 0.01703250 0.00813550 0.00322150
v -0.05602450 0.00936550 0.00260750
v 0.02839450 -0.00230050 -0.00905550
v 0.03176850 0.00568050 0.00475850
v -0.02900350 0.00291650 0.00997650
v 0.02685650 0.00844350 -0.00168750
v -0.05510150 0.00905850 -0.00168750
v -0.05910050 -0.00874750 -0.00352950
v -0.03514550 -0.00199350 -0.00875050
v -0.05878350 0.00844350 0.00567950
v -0.05817750 0.00568050 -0.00660150
v -0.05387150 -0.00844050 0.00629350
v -0.01765050 -0.00690450 -0.00659950
v 0.03177750 -0.00782650 -0.00199550
v 0.05357450 0.00967050 -0.00076950
v 0.05357450 0.00967050 -0.00138050
v 0.05480250 -0.00967050 0.00076550
v 0.05480250 -0.00229750 -0.01059150
v 0.03270350 0.00107350 0.00721250
v 0.03177750 0.00567950 -0.00567950
v 0.05511050 0.00015350 0.00844250
v 0.03177750 -0.00537050 0.00537150
v 0.03607950 0.00721550 0.00383650
v 0.03638750 -0.00567750 -0.00752250
v 0.05418950 0.00629350 -0.00875050
v 0.05418950 -0.00874650 -0.00629450
v 0.03331650 -0.00015150 -0.00875050
v 0.05449250 -0.00444850 0.00782750
v 0.05418950 0.00629350 0.00598450
v 0.03177750 0.00721350 0.00168650
v 0.05541850 0.00445150 -0.00260850
v 0.03914750 -0.00751950 0.00414450
v 0.03730850 0.00813550 -0.00291650
v 0.04283450 0.00230250 -0.00967050
v 0.03577150 0.00383750 0.00690550
v 0.05541850 -0.00905250 -0.00015450
v 0.03730850 -0.00260650 0.00752050
v 0.03177750 -0.00291350 -0.00782750
v 0.05357450 -0.00475750 -0.00997850
v 0.05449250 0.00874850 0.00230150
v 0.05449250 -0.00813250 0.00445150
v 0.05203750 0.00844250 -0.00567950
v 0.03208550 -0.00813250 -0.00015450
v 0.03484850 -0.00813250 -0.00353150
v 0.03177750 0.00506650 0.00537150
v 0.03484850 0.00506650 -0.00721450
v 0.04620350 -0.00935950 -0.00199550
v 0.03822650 0.00844250 0.00107350
v 0.05418950 0.00168750 -0.01059150
v 0.03853450 0.00721550 -0.00567950
v 0.05480250 0.00844250 -0.00506650
v 0.03515850 -0.00291350 -0.00875050
v 0.03853450 -0.00629050 0.00567750
v 0.05234750 0.00322250 0.00782750
v 0.03853450 0.00138250 0.00782750
v 0.05511050 -0.00076450 -0.01028550
v 0.05511050 0.00813550 0.00168650
v 0.03331650 -0.00690550 -0.00537350
v 0.04344750 0.00046050 -0.00997850
v 0.03853450 0.00567950 0.00598450
v 0.03177750 0.00168750 -0.00813550
v 0.03270350 0.00782850 -0.00076950
v 0.03362150 -0.00782650 0.00230150
v 0.03177750 -0.00229750 0.00690550
v 0.05511050 -0.00843950 -0.00567950
v 0.05387950 -0.00199350 0.00844250
v 0.05541850 0.00138250 0.00383650
v 0.05357450 -0.00782650 -0.00752250
v 0.04927650 0.00752250 0.00445150
v 0.03761350 -0.00383550 0.00721250
v 0.05357450 -0.00935950 -0.00445150
v 0.04191050 -0.00874650 0.00168650
v 0.05511050 0.00506650 -0.00813550
v 0.05357450 0.00874850 0.00260850
v 0.05541850 -0.00137750 -0.00598650
v 0.03700050 -0.00045750 0.00782750
v 0.03177750 -0.00567750 -0.00629450
v 0.05756850 0.00138150 -0.00598650
v 0.05572550 0.00076750 0.00383650
v 0.05541850 0.00076750 0.00383650
v 0.05541850 -0.00506450 -0.00230250
v 0.06033050 -0.00383550 0.00199350
v 0.06033050 0.00414550 0.00076550
v 0.06033050 -0.00199250 -0.00567850
v 0.05541850 0.00414550 -0.00383750
v 0.06033050 0.00353150 -0.00383750
v 0.05541850 -0.00260850 -0.00567850
v 0.05971650 -0.00444950 -0.00414450
v 0.05541850 -0.00475650 0.00107250
v 0.06002350 -0.00199250 0.00352850
v 0.05541850 0.00445250 0.00015150
v 0.06002350 -0.00506450 0.00015150
v 0.05940950 0.00199650 0.00322150
v 0.06063850 0.00015450 0.00260750
v 0.05940950 0.00476050 -0.00230250
v 0.05541850 -0.00230050 0.00352850
v 0.06063850 -0.00414350 -0.00168850
v 0.05541850 0.00322450 0.00260750
v 0.06063850 0.00076750 -0.00506550
v 0.05541850 0.00107550 -0.00598650
v 0.05940950 0.00199650 -0.00567850
v 0.06002350 -0.00199250 -0.00598650
v 0.06063850 0.00383850 -0.00199450
v 0.05572550 -0.00444950 -0.00414450
v 0.05971650 -0.00414350 0.00199350
v 0.05971650 0.00353150 -0.00445050
v 0.06002350 0.00046050 0.00352850
v 0.06002350 0.00445250 0.00045950
v 0.05910250 -0.00506450 -0.00230250
v 0.05787550 0.00322450 0.00260750
v 0.05910250 -0.00322150 -0.00537250
v 0.05787550 0.00260950 -0.00537250
v 0.05572550 -0.00506450 0.00045950
f 26 35 64
f 8 24 26
f 15 11 27
f 25 15 27
f 4 11 30
f 11 17 30
f 28 4 30
f 16 7 31
f 28 16 31
f 19 5 33
f 10 19 33
f 23 10 33
f 10 23 34
f 13 26 34
f 26 24 35
f 11 15 36
f 17 11 36
f 23 6 37
f 2 3 38
f 6 29 38
f 29 16 38
f 3 37 38
f 37 6 38
f 15 25 39
f 33 5 39
f 24 8 40
f 8 30 40
f 30 17 40
f 17 36 40
f 1 22 42
f 9 25 43
f 25 27 43
f 14 42 45
f 42 22 45
f 5 19 46
f 19 24 46
f 36 5 46
f 24 40 46
f 40 36 46
f 8 26 47
f 26 13 47
f 13 28 47
f 30 8 47
f 28 30 47
f 20 6 48
f 12 20 48
f 6 23 48
f 32 12 48
f 23 33 48
f 48 33 49
f 9 22 49
f 25 9 49
f 22 32 49
f 39 25 49
f 33 39 49
f 32 48 49
f 11 4 50
f 4 14 50
f 27 11 50
f 21 43 50
f 43 27 50
f 14 45 50
f 45 21 50
f 7 16 51
f 16 29 51
f 29 20 51
f 44 7 51
f 20 44 51
f 14 18 52
f 18 41 52
f 42 14 52
f 1 42 52
f 12 32 53
f 1 52 53
f 52 41 53
f 28 13 54
f 16 28 54
f 13 34 54
f 2 38 54
f 38 16 54
f 14 4 55
f 18 14 55
f 4 28 55
f 31 18 55
f 28 31 55
f 22 9 56
f 9 43 56
f 43 21 56
f 21 45 56
f 45 22 56
f 31 7 57
f 18 31 57
f 41 18 57
f 12 53 57
f 53 41 57
f 20 12 58
f 7 44 58
f 44 20 58
f 57 7 58
f 12 57 58
f 19 10 59
f 24 19 59
f 10 35 59
f 35 24 59
f 3 2 60
f 34 23 60
f 37 3 60
f 23 37 60
f 2 54 60
f 54 34 60
f 22 1 61
f 32 22 61
f 53 32 61
f 1 53 61
f 6 20 62
f 29 6 62
f 20 29 62
f 5 36 63
f 36 15 63
f 15 39 63
f 39 5 63
f 10 34 64
f 34 26 64
f 35 10 64
f 109 65 128
f 71 65 73
f 71 73 81
f 72 79 87
f 65 71 89
f 68 87 92
f 87 79 92
f 84 67 93
f 73 65 94
f 94 65 95
f 81 73 96
f 74 81 96
f 70 86 96
f 76 85 97
f 94 95 98
f 66 67 99
f 81 74 99
f 67 84 99
f 85 76 100
f 71 84 101
f 93 76 101
f 84 93 101
f 97 71 101
f 76 97 101
f 93 67 102
f 76 93 102
f 89 78 103
f 69 90 103
f 90 75 103
f 73 83 104
f 83 92 104
f 92 79 104
f 72 80 105
f 105 86 106
f 86 70 106
f 72 105 106
f 69 100 107
f 67 66 108
f 80 72 108
f 66 91 108
f 91 80 108
f 102 67 108
f 82 102 108
f 95 65 109
f 77 95 109
f 78 85 110
f 100 69 110
f 85 100 110
f 69 103 110
f 103 78 110
f 74 96 111
f 96 86 111
f 105 80 111
f 86 105 111
f 85 78 112
f 89 71 112
f 78 89 112
f 71 97 112
f 97 85 112
f 71 81 113
f 84 71 113
f 81 99 113
f 99 84 113
f 83 73 114
f 73 94 114
f 70 96 115
f 96 73 115
f 87 68 116
f 90 69 116
f 77 90 116
f 69 107 116
f 79 72 117
f 72 87 118
f 87 82 118
f 108 72 118
f 82 108 118
f 90 77 119
f 75 90 119
f 109 75 119
f 77 109 119
f 74 111 120
f 111 80 120
f 73 104 121
f 104 79 121
f 88 115 121
f 115 73 121
f 79 117 121
f 117 88 121
f 95 77 122
f 68 98 122
f 98 95 122
f 116 68 122
f 77 116 122
f 68 92 123
f 92 83 123
f 98 68 123
f 94 98 123
f 83 114 123
f 114 94 123
f 100 76 124
f 76 102 124
f 102 82 124
f 107 100 124
f 91 66 125
f 80 91 125
f 66 99 125
f 99 74 125
f 74 120 125
f 120 80 125
f 82 87 126
f 87 116 126
f 116 107 126
f 124 82 126
f 107 124 126
f 106 70 127
f 72 106 127
f 70 115 127
f 115 88 127
f 117 72 127
f 88 117 127
f 65 89 128
f 103 75 128
f 89 103 128
f 75 109 128
f 156 140 164
f 132 131 136
f 132 136 138
f 131 132 140
f 136 131 142
f 131 130 144
f 141 133 145
f 136 142 146
f 130 131 147
f 131 140 147
f 141 130 147
f 139 135 148
f 133 143 148
f 143 139 148
f 145 133 148
f 142 131 149
f 131 144 149
f 148 135 150
f 145 148 150
f 138 136 151
f 137 150 152
f 152 150 153
f 135 139 153
f 150 135 153
f 151 129 153
f 138 151 153
f 129 152 153
f 134 145 154
f 137 146 154
f 150 137 154
f 145 150 154
f 132 138 155
f 139 132 155
f 133 141 156
f 143 133 156
f 147 140 156
f 141 147 156
f 146 137 157
f 136 146 157
f 137 152 157
f 130 141 158
f 144 130 158
f 134 144 158
f 145 134 158
f 141 145 158
f 146 142 159
f 142 149 159
f 134 154 159
f 154 146 159
f 132 139 160
f 143 132 160
f 139 143 160
f 144 134 161
f 149 144 161
f 159 149 161
f 134 159 161
f 153 139 162
f 138 153 162
f 155 138 162
f 139 155 162
f 129 151 163
f 151 136 163
f 152 129 163
f 136 157 163
f 157 152 163
f 140 132 164
f 132 143 164
f 143 156 164