# https://github.com/mikedh/trimesh
v 0.14083406 0.02214020 0.00123100 0.54509804 0.71372549 0.60000000
v 0.14083406 0.02214020 0.00103853 0.54509804 0.71372549 0.60000000
v 0.13983153 0.02214020 0.00123100 0.54509804 0.71372549 0.60000000
v 0.14150586 0.02198937 0.00208643 0.54509804 0.71372549 0.60000000
v 0.15019784 0.02182992 0.00227035 0.54509804 0.71372549 0.60000000
v 0.15019784 0.02192903 0.00007617 0.54509804 0.71372549 0.60000000
v 0.14799642 0.02182130 -0.00212229 0.54509804 0.71372549 0.60000000
v 0.14150586 0.02207556 0.00021304 0.54509804 0.71372549 0.60000000
v 0.13983153 0.02214020 0.00103853 0.54509804 0.71372549 0.60000000
v 0.13913908 0.02198937 0.00208643 0.54509804 0.71372549 0.60000000
v 0.07541162 0.02174373 0.00007617 0.54509804 0.71372549 0.60000000
v 0.07541162 0.02167047 0.00227035 0.54509804 0.71372549 0.60000000
v 0.07541162 0.02140759 0.00447308 0.54509804 0.71372549 0.60000000
v 0.07541162 0.02102405 0.00667153 0.54509804 0.71372549 0.60000000
v 0.14140250 0.02145499 0.00447308 0.54509804 0.71372549 0.60000000
v 0.14799642 0.02142483 0.00447308 0.54509804 0.71372549 0.60000000
v 0.15019784 0.02141190 0.00447308 0.54509804 0.71372549 0.60000000
v 0.15239926 0.02123952 0.00447308 0.54509804 0.71372549 0.60000000
v 0.15239926 0.02155842 0.00227035 0.54509804 0.71372549 0.60000000
v 0.15239926 0.02172218 0.00007617 0.54509804 0.71372549 0.60000000
v 0.15019784 0.02178251 -0.00212229 0.54509804 0.71372549 0.60000000
v 0.15239926 0.02159721 -0.00212229 0.54509804 0.71372549 0.60000000
v 0.14799642 0.02151102 -0.00432502 0.54509804 0.71372549 0.60000000
v 0.14140250 0.02183854 -0.00212229 0.54509804 0.71372549 0.60000000
v 0.13913908 0.02207556 0.00021304 0.54509804 0.71372549 0.60000000
v 0.07761304 0.02161014 -0.00212229 0.54509804 0.71372549 0.60000000
v 0.07541162 0.02158859 -0.00212229 0.54509804 0.71372549 0.60000000
v 0.06221344 0.02152394 0.00007617 0.54509804 0.71372549 0.60000000
v 0.06001202 0.02146361 0.00227035 0.54509804 0.71372549 0.60000000
v 0.06001202 0.02122659 0.00447308 0.54509804 0.71372549 0.60000000
v 0.06001202 0.02084736 0.00667153 0.54509804 0.71372549 0.60000000
v 0.06221344 0.02087322 0.00667153 0.54509804 0.71372549 0.60000000
v 0.06001202 0.02028282 0.00881011 0.54509804 0.71372549 0.60000000
v 0.07321020 0.02036039 0.00884432 0.54509804 0.71372549 0.60000000
v 0.07541162 0.02036901 0.00884005 0.54509804 0.71372549 0.60000000
v 0.07761304 0.02036470 0.00884005 0.54509804 0.71372549 0.60000000
v 0.14799642 0.02067929 0.00667153 0.54509804 0.71372549 0.60000000
v 0.15019784 0.02064481 0.00667153 0.54509804 0.71372549 0.60000000
v 0.15257496 0.02041641 0.00688539 0.54509804 0.71372549 0.60000000
v 0.15391855 0.02028282 0.00629087 0.54509804 0.71372549 0.60000000
v 0.15416660 0.02051984 0.00447308 0.54509804 0.71372549 0.60000000
v 0.15422861 0.02064051 0.00227035 0.54509804 0.71372549 0.60000000
v 0.15426995 0.02074824 0.00007617 0.54509804 0.71372549 0.60000000
v 0.15421828 0.02069222 -0.00212229 0.54509804 0.71372549 0.60000000
v 0.15019784 0.02143345 -0.00432502 0.54509804 0.71372549 0.60000000
v 0.15239926 0.02110162 -0.00432502 0.54509804 0.71372549 0.60000000
v 0.15398056 0.02039056 -0.00432502 0.54509804 0.71372549 0.60000000
v 0.13920109 0.02183423 -0.00212229 0.54509804 0.71372549 0.60000000
v 0.14799642 0.02074824 -0.00652347 0.54509804 0.71372549 0.60000000
v 0.07761304 0.02117919 -0.00432502 0.54509804 0.71372549 0.60000000
v 0.07541162 0.02115333 -0.00432502 0.54509804 0.71372549 0.60000000
v 0.07321020 0.02111455 -0.00432502 0.54509804 0.71372549 0.60000000
v 0.06660594 0.02098526 -0.00432502 0.54509804 0.71372549 0.60000000
v 0.06221344 0.02133002 -0.00212229 0.54509804 0.71372549 0.60000000
v 0.06001202 0.02147654 0.00007617 0.54509804 0.71372549 0.60000000
v 0.05781060 0.02123090 0.00007617 0.54509804 0.71372549 0.60000000
v 0.05781060 0.02120505 0.00227035 0.54509804 0.71372549 0.60000000
v 0.05781060 0.02098957 0.00447308 0.54509804 0.71372549 0.60000000
v 0.05781060 0.02061465 0.00667153 0.54509804 0.71372549 0.60000000
v 0.05781060 0.02015785 0.00850643 0.54509804 0.71372549 0.60000000
v 0.05781060 0.01981740 0.00960566 0.54509804 0.71372549 0.60000000
v 0.06001202 0.01990790 0.00990933 0.54509804 0.71372549 0.60000000
v 0.07761304 0.01991652 0.00993928 0.54509804 0.71372549 0.60000000
v 0.07321020 0.01991652 0.00994355 0.54509804 0.71372549 0.60000000
v 0.07981445 0.02036039 0.00881011 0.54509804 0.71372549 0.60000000
v 0.14580534 0.02008889 0.00810438 0.54509804 0.71372549 0.60000000
v 0.14799642 0.02007596 0.00807871 0.54509804 0.71372549 0.60000000
v 0.15019784 0.02005011 0.00802739 0.54509804 0.71372549 0.60000000
v 0.15196518 0.01999839 0.00792046 0.54509804 0.71372549 0.60000000
v 0.15343279 0.01992082 0.00775793 0.54509804 0.71372549 0.60000000
v 0.15394955 0.01810223 0.01066639 0.54509804 0.71372549 0.60000000
v 0.15431129 0.01855473 0.00887426 0.54509804 0.71372549 0.60000000
v 0.15540683 0.01681801 0.00887426 0.54509804 0.71372549 0.60000000
v 0.15514845 0.01883053 0.00447308 0.54509804 0.71372549 0.60000000
v 0.15522079 0.01883053 0.00227035 0.54509804 0.71372549 0.60000000
v 0.15523113 0.01883053 0.00007617 0.54509804 0.71372549 0.60000000
v 0.15511744 0.01883053 -0.00212229 0.54509804 0.71372549 0.60000000
v 0.15480739 0.01883053 -0.00432502 0.54509804 0.71372549 0.60000000
v 0.15019784 0.02065343 -0.00652347 0.54509804 0.71372549 0.60000000
v 0.15370151 0.02010182 -0.00579636 0.54509804 0.71372549 0.60000000
v 0.15223390 0.02028282 -0.00652775 0.54509804 0.71372549 0.60000000
v 0.15423894 0.01894689 -0.00652775 0.54509804 0.71372549 0.60000000
v 0.15401156 0.01826168 -0.00872193 0.54509804 0.71372549 0.60000000
v 0.15019784 0.02001563 -0.00776385 0.54509804 0.71372549 0.60000000
v 0.14799642 0.02006304 -0.00783228 0.54509804 0.71372549 0.60000000
v 0.07761304 0.01985187 -0.00747728 0.54509804 0.71372549 0.60000000
v 0.07761304 0.02040349 -0.00637805 0.54509804 0.71372549 0.60000000
v 0.07541162 0.02039056 -0.00632673 0.54509804 0.71372549 0.60000000
v 0.06441486 0.02027851 -0.00614281 0.54509804 0.71372549 0.60000000
v 0.06441486 0.02093786 -0.00432502 0.54509804 0.71372549 0.60000000
v 0.06001202 0.02124383 -0.00212229 0.54509804 0.71372549 0.60000000
v 0.05781060 0.02105421 -0.00212229 0.54509804 0.71372549 0.60000000
v 0.05582623 0.02042934 -0.00212229 0.54509804 0.71372549 0.60000000
v 0.05573321 0.02049829 0.00007617 0.54509804 0.71372549 0.60000000
v 0.05577455 0.02047674 0.00227035 0.54509804 0.71372549 0.60000000
v 0.05592958 0.02037332 0.00447308 0.54509804 0.71372549 0.60000000
v 0.05621897 0.02018370 0.00667153 0.54509804 0.71372549 0.60000000
v 0.05650836 0.02001994 0.00809155 0.54509804 0.71372549 0.60000000
v 0.05781060 0.01922269 0.01107272 0.54509804 0.71372549 0.60000000
v 0.06001202 0.01939076 0.01107272 0.54509804 0.71372549 0.60000000
v 0.06221344 0.01938214 0.01107272 0.54509804 0.71372549 0.60000000
v 0.06221344 0.01830909 0.01307870 0.54509804 0.71372549 0.60000000
v 0.07761304 0.01927441 0.01107272 0.54509804 0.71372549 0.60000000
v 0.14580534 0.01849439 0.01107272 0.54509804 0.71372549 0.60000000
v 0.14360392 0.01955883 0.00922927 0.54509804 0.71372549 0.60000000
v 0.14799642 0.01952866 0.00917794 0.54509804 0.71372549 0.60000000
v 0.15019784 0.01950712 0.00912662 0.54509804 0.71372549 0.60000000
v 0.15257496 0.01953728 0.00874167 0.54509804 0.71372549 0.60000000
v 0.15285401 0.01771007 0.01213345 0.54509804 0.71372549 0.60000000
v 0.15413559 0.01620607 0.01327117 0.54509804 0.71372549 0.60000000
v 0.15476605 0.01661978 0.01105133 0.54509804 0.71372549 0.60000000
v 0.15374285 0.01571910 0.01460137 0.54509804 0.71372549 0.60000000
v 0.15569622 0.01552948 0.00997349 0.54509804 0.71372549 0.60000000
v 0.15556186 0.01701625 0.00667153 0.54509804 0.71372549 0.60000000
v 0.15515878 0.01443057 0.01327117 0.54509804 0.71372549 0.60000000
v 0.15576856 0.01591733 0.00667153 0.54509804 0.71372549 0.60000000
v 0.15554119 0.01662839 0.00007617 0.54509804 0.71372549 0.60000000
v 0.15599594 0.01003061 -0.01092466 0.54509804 0.71372549 0.60000000
v 0.15492107 0.01662839 -0.00872193 0.54509804 0.71372549 0.60000000
v 0.15522079 0.01662839 -0.00652347 0.54509804 0.71372549 0.60000000
v 0.15138640 0.01995530 -0.00766547 0.54509804 0.71372549 0.60000000
v 0.15368084 0.01787814 -0.01004357 0.54509804 0.71372549 0.60000000
v 0.15285401 0.01975707 -0.00726342 0.54509804 0.71372549 0.60000000
v 0.15416660 0.01661547 -0.01083484 0.54509804 0.71372549 0.60000000
v 0.15019784 0.01935198 -0.00886308 0.54509804 0.71372549 0.60000000
v 0.14799642 0.01937352 -0.00893151 0.54509804 0.71372549 0.60000000
v 0.14360392 0.01761526 -0.01183997 0.54509804 0.71372549 0.60000000
v 0.14140250 0.01762388 -0.01185280 0.54509804 0.71372549 0.60000000
v 0.13699966 0.01763250 -0.01185280 0.54509804 0.71372549 0.60000000
v 0.07761304 0.01816257 -0.01047556 0.54509804 0.71372549 0.60000000
v 0.07761304 0.01918391 -0.00872193 0.54509804 0.71372549 0.60000000
v 0.05781060 0.01892534 -0.00872193 0.54509804 0.71372549 0.60000000
v 0.05781060 0.01970535 -0.00704956 0.54509804 0.71372549 0.60000000
v 0.06001202 0.02018801 -0.00601022 0.54509804 0.71372549 0.60000000
v 0.05781060 0.02013199 -0.00595034 0.54509804 0.71372549 0.60000000
v 0.06001202 0.02076117 -0.00432502 0.54509804 0.71372549 0.60000000
v 0.05781060 0.02062758 -0.00432502 0.54509804 0.71372549 0.60000000
v 0.05614662 0.02022680 -0.00432502 0.54509804 0.71372549 0.60000000
v 0.05504074 0.01950281 -0.00432502 0.54509804 0.71372549 0.60000000
v 0.05473069 0.01970535 -0.00212229 0.54509804 0.71372549 0.60000000
v 0.05462733 0.01978723 0.00007617 0.54509804 0.71372549 0.60000000
v 0.05467901 0.01976137 0.00227035 0.54509804 0.71372549 0.60000000
v 0.05483404 0.01960193 0.00447308 0.54509804 0.71372549 0.60000000
v 0.05512343 0.01939076 0.00667153 0.54509804 0.71372549 0.60000000
v 0.05571254 0.01921407 0.00884432 0.54509804 0.71372549 0.60000000
v 0.05553684 0.01832201 0.01098290 0.54509804 0.71372549 0.60000000
v 0.05622930 0.01802035 0.01260822 0.54509804 0.71372549 0.60000000
v 0.05781060 0.01823582 0.01293756 0.54509804 0.71372549 0.60000000
v 0.06001202 0.01831339 0.01307443 0.54509804 0.71372549 0.60000000
v 0.06221344 0.01758940 0.01417793 0.54509804 0.71372549 0.60000000
v 0.14580534 0.01777902 0.01224894 0.54509804 0.71372549 0.60000000
v 0.15138640 0.01773162 0.01217622 0.54509804 0.71372549 0.60000000
v 0.14799642 0.01845561 0.01107272 0.54509804 0.71372549 0.60000000
v 0.15019784 0.01841251 0.01107272 0.54509804 0.71372549 0.60000000
v 0.15223390 0.01822289 0.01126947 0.54509804 0.71372549 0.60000000
v 0.15223390 0.01708089 0.01305304 0.54509804 0.71372549 0.60000000
v 0.15239926 0.01583545 0.01473396 0.54509804 0.71372549 0.60000000
v 0.15428029 0.01441764 0.01538836 0.54509804 0.71372549 0.60000000
v 0.15239926 0.01494770 0.01583746 0.54509804 0.71372549 0.60000000
v 0.15239926 0.01384879 0.01713772 0.54509804 0.71372549 0.60000000
v 0.15390821 0.01368072 0.01695808 0.54509804 0.71372549 0.60000000
v 0.15573756 0.01571910 0.00887426 0.54509804 0.71372549 0.60000000
v 0.15542751 0.01218103 0.01551240 0.54509804 0.71372549 0.60000000
v 0.15565488 0.01087095 0.01626946 0.54509804 0.71372549 0.60000000
v 0.15599594 0.01009525 0.01551240 0.54509804 0.71372549 0.60000000
v 0.15665740 0.00123068 0.00887426 0.54509804 0.71372549 0.60000000
v 0.15589259 0.00825080 -0.01261414 0.54509804 0.71372549 0.60000000
v 0.15585125 0.01003061 -0.01252004 0.54509804 0.71372549 0.60000000
v 0.15571690 0.01119416 -0.01209660 0.54509804 0.71372549 0.60000000
v 0.15542751 0.01443057 -0.00872193 0.54509804 0.71372549 0.60000000
v 0.15685377 -0.01416703 0.00227035 0.54509804 0.71372549 0.60000000
v 0.15660573 -0.01636486 -0.00432502 0.54509804 0.71372549 0.60000000
v 0.15626466 -0.01196490 -0.01092466 0.54509804 0.71372549 0.60000000
v 0.15516912 0.01443057 -0.01092466 0.54509804 0.71372549 0.60000000
v 0.15223390 0.01923131 -0.00852946 0.54509804 0.71372549 0.60000000
v 0.15239926 0.01808930 -0.01031731 0.54509804 0.71372549 0.60000000
v 0.15385654 0.01587424 -0.01241311 0.54509804 0.71372549 0.60000000
v 0.15239926 0.01725327 -0.01141653 0.54509804 0.71372549 0.60000000
v 0.15433196 0.01446504 -0.01313595 0.54509804 0.71372549 0.60000000
v 0.15019784 0.01825306 -0.01052689 0.54509804 0.71372549 0.60000000
v 0.14360392 0.01667149 -0.01312312 0.54509804 0.71372549 0.60000000
v 0.14140250 0.01668011 -0.01312312 0.54509804 0.71372549 0.60000000
v 0.10400939 0.01752907 -0.01170310 0.54509804 0.71372549 0.60000000
v 0.07761304 0.01740410 -0.01157907 0.54509804 0.71372549 0.60000000
v 0.05781060 0.01730498 -0.01144220 0.54509804 0.71372549 0.60000000
v 0.05781060 0.01805052 -0.01033869 0.54509804 0.71372549 0.60000000
v 0.05627065 0.01796002 -0.01019755 0.54509804 0.71372549 0.60000000
v 0.05648769 0.02003287 -0.00572365 0.54509804 0.71372549 0.60000000
v 0.05569187 0.01923562 -0.00648498 0.54509804 0.71372549 0.60000000
v 0.05444130 0.01784366 -0.00787078 0.54509804 0.71372549 0.60000000
v 0.05429660 0.01807637 -0.00652347 0.54509804 0.71372549 0.60000000
v 0.05411057 0.01840389 -0.00432502 0.54509804 0.71372549 0.60000000
v 0.05404856 0.01860644 -0.00212229 0.54509804 0.71372549 0.60000000
v 0.05403822 0.01868832 0.00007617 0.54509804 0.71372549 0.60000000
v 0.05399688 0.01866246 0.00227035 0.54509804 0.71372549 0.60000000
v 0.05406922 0.01850301 0.00447308 0.54509804 0.71372549 0.60000000
v 0.05419325 0.01829185 0.00667153 0.54509804 0.71372549 0.60000000
v 0.05432761 0.01802897 0.00887426 0.54509804 0.71372549 0.60000000
v 0.05445163 0.01782212 0.01018735 0.54509804 0.71372549 0.60000000
v 0.05476169 0.01737393 0.01165441 0.54509804 0.71372549 0.60000000
v 0.05608461 0.01602507 0.01486655 0.54509804 0.71372549 0.60000000
v 0.05781060 0.01746443 0.01403678 0.54509804 0.71372549 0.60000000
v 0.05542315 0.01669735 0.01337810 0.54509804 0.71372549 0.60000000
v 0.06001202 0.01758079 0.01417365 0.54509804 0.71372549 0.60000000
v 0.06221344 0.01650342 0.01547391 0.54509804 0.71372549 0.60000000
v 0.14360392 0.01591302 0.01481523 0.54509804 0.71372549 0.60000000
v 0.14360392 0.01701625 0.01335672 0.54509804 0.71372549 0.60000000
v 0.14580534 0.01699039 0.01334816 0.54509804 0.71372549 0.60000000
v 0.15437330 0.01221550 0.01768092 0.54509804 0.71372549 0.60000000
v 0.13259683 0.01287916 0.01835670 0.54509804 0.71372549 0.60000000
v 0.15239926 0.01271109 0.01823695 0.54509804 0.71372549 0.60000000
v 0.06341233 0.01553379 0.01657741 0.54509804 0.71372549 0.60000000
v 0.15384620 0.01146997 0.01900683 0.54509804 0.71372549 0.60000000
v 0.15577890 0.00940142 0.01682976 0.54509804 0.71372549 0.60000000
v 0.15534482 0.01009525 0.01760820 0.54509804 0.71372549 0.60000000
v 0.15609930 0.00782847 0.01547391 0.54509804 0.71372549 0.60000000
v 0.15666774 -0.01196490 0.01327117 0.54509804 0.71372549 0.60000000
v 0.15674008 -0.01196490 0.01107272 0.54509804 0.71372549 0.60000000
v 0.15683311 -0.01196490 0.00667153 0.54509804 0.71372549 0.60000000
v 0.15688478 -0.01416703 0.00447308 0.54509804 0.71372549 0.60000000
v 0.15685377 -0.01196490 0.00447308 0.54509804 0.71372549 0.60000000
v 0.15593393 0.00283811 -0.01269540 0.54509804 0.71372549 0.60000000
v 0.15535516 -0.00316497 -0.01752430 0.54509804 0.71372549 0.60000000
v 0.15527247 0.00123068 -0.01752430 0.54509804 0.71372549 0.60000000
v 0.15559286 0.01003061 -0.01362354 0.54509804 0.71372549 0.60000000
v 0.15537583 0.01204743 -0.01294775 0.54509804 0.71372549 0.60000000
v 0.15518979 0.00342851 -0.01752430 0.54509804 0.71372549 0.60000000
v 0.15668842 -0.01636486 -0.00212229 0.54509804 0.71372549 0.60000000
v 0.15616131 -0.01844202 -0.00212229 0.54509804 0.71372549 0.60000000
v 0.15609930 -0.01826964 -0.00432502 0.54509804 0.71372549 0.60000000
v 0.15637835 -0.01636486 -0.00652347 0.54509804 0.71372549 0.60000000
v 0.15635768 -0.01416703 -0.00872193 0.54509804 0.71372549 0.60000000
v 0.15603729 -0.01422306 -0.01092466 0.54509804 0.71372549 0.60000000
v 0.15588225 -0.01352923 -0.01244733 0.54509804 0.71372549 0.60000000
v 0.15596494 -0.01196490 -0.01286221 0.54509804 0.71372549 0.60000000
v 0.15391855 0.01375829 -0.01465861 0.54509804 0.71372549 0.60000000
v 0.15239926 0.01515025 -0.01380318 0.54509804 0.71372549 0.60000000
v 0.15239926 0.01615004 -0.01270396 0.54509804 0.71372549 0.60000000
v 0.15019784 0.01739117 -0.01162611 0.54509804 0.71372549 0.60000000
v 0.15435263 0.01224998 -0.01536434 0.54509804 0.71372549 0.60000000
v 0.14360392 0.01568462 -0.01440198 0.54509804 0.71372549 0.60000000
v 0.14140250 0.01568462 -0.01440198 0.54509804 0.71372549 0.60000000
v 0.09960655 0.01640861 -0.01303757 0.54509804 0.71372549 0.60000000
v 0.07761304 0.01630088 -0.01289643 0.54509804 0.71372549 0.60000000
v 0.07541162 0.01628795 -0.01288360 0.54509804 0.71372549 0.60000000
v 0.05781060 0.01620607 -0.01272107 0.54509804 0.71372549 0.60000000
v 0.05604327 0.01599490 -0.01249438 0.54509804 0.71372549 0.60000000
v 0.05542315 0.01671028 -0.01105298 0.54509804 0.71372549 0.60000000
v 0.05480303 0.01742995 -0.00933784 0.54509804 0.71372549 0.60000000
v 0.05556784 0.01828323 -0.00864922 0.54509804 0.71372549 0.60000000
v 0.05457566 0.01543898 -0.01190841 0.54509804 0.71372549 0.60000000
v 0.05431727 0.01596043 -0.01044134 0.54509804 0.71372549 0.60000000
v 0.05420358 0.01666718 -0.00864922 0.54509804 0.71372549 0.60000000
v 0.05393487 0.01662839 -0.00652347 0.54509804 0.71372549 0.60000000
v 0.05129936 0.00691917 -0.00143367 0.54509804 0.71372549 0.60000000
v 0.05129936 0.00731133 -0.00000938 0.54509804 0.71372549 0.60000000
v 0.05129936 0.00732426 0.00007617 0.54509804 0.71372549 0.60000000
v 0.05129936 0.00761731 0.00217625 0.54509804 0.71372549 0.60000000
v 0.05129936 0.00762593 0.00227035 0.54509804 0.71372549 0.60000000
v 0.05129936 0.00742338 0.00447308 0.54509804 0.71372549 0.60000000
v 0.05129936 0.00696227 0.00590592 0.54509804 0.71372549 0.60000000
v 0.05436895 0.01590872 0.01267665 0.54509804 0.71372549 0.60000000
v 0.05427593 0.01663701 0.01098290 0.54509804 0.71372549 0.60000000
v 0.05461700 0.01526660 0.01414371 0.54509804 0.71372549 0.60000000
v 0.05611561 0.01380570 0.01699657 0.54509804 0.71372549 0.60000000
v 0.05781060 0.01527522 0.01633789 0.54509804 0.71372549 0.60000000
v 0.05781060 0.01636552 0.01523866 0.54509804 0.71372549 0.60000000
v 0.05956760 0.01544760 0.01649615 0.54509804 0.71372549 0.60000000
v 0.06017739 0.01629657 0.01564499 0.54509804 0.71372549 0.60000000
v 0.06102488 0.01553810 0.01658169 0.54509804 0.71372549 0.60000000
v 0.06221344 0.01553810 0.01658169 0.54509804 0.71372549 0.60000000
v 0.13259683 0.01178025 0.01926346 0.54509804 0.71372549 0.60000000
v 0.06221344 0.01443057 0.01753122 0.54509804 0.71372549 0.60000000
v 0.07761304 0.01308602 0.01857056 0.54509804 0.71372549 0.60000000
v 0.15239926 0.01160787 0.01909665 0.54509804 0.71372549 0.60000000
v 0.15239926 0.01003061 0.01996491 0.54509804 0.71372549 0.60000000
v 0.15378419 0.00713465 0.02114113 0.54509804 0.71372549 0.60000000
v 0.15419760 0.01003061 0.01938322 0.54509804 0.71372549 0.60000000
v 0.15579958 0.00782847 0.01702224 0.54509804 0.71372549 0.60000000
v 0.15554119 0.00782847 0.01812146 0.54509804 0.71372549 0.60000000
v 0.15441464 0.00785433 0.02000341 0.54509804 0.71372549 0.60000000
v 0.15507610 0.00563064 0.01987082 0.54509804 0.71372549 0.60000000
v 0.15530348 0.00123068 0.01987082 0.54509804 0.71372549 0.60000000
v 0.15620266 -0.00976707 0.01547391 0.54509804 0.71372549 0.60000000
v 0.15609930 -0.01193042 0.01554662 0.54509804 0.71372549 0.60000000
v 0.15592360 -0.01350338 0.01486655 0.54509804 0.71372549 0.60000000
v 0.15606829 -0.01421013 0.01318135 0.54509804 0.71372549 0.60000000
v 0.15643002 -0.01416703 0.01107272 0.54509804 0.71372549 0.60000000
v 0.15650237 -0.01636486 0.00667153 0.54509804 0.71372549 0.60000000
v 0.15670908 -0.01636486 0.00447308 0.54509804 0.71372549 0.60000000
v 0.15682277 -0.01416703 0.00667153 0.54509804 0.71372549 0.60000000
v 0.15670908 -0.01636486 0.00007617 0.54509804 0.71372549 0.60000000
v 0.15529314 -0.00536711 -0.01752430 0.54509804 0.71372549 0.60000000
v 0.15434230 -0.00316497 -0.01939769 0.54509804 0.71372549 0.60000000
v 0.15432163 -0.00096715 -0.01940197 0.54509804 0.71372549 0.60000000
v 0.15512778 0.01003061 -0.01532157 0.54509804 0.71372549 0.60000000
v 0.15429062 0.00123068 -0.01929504 0.54509804 0.71372549 0.60000000
v 0.15421828 0.00342851 -0.01916673 0.54509804 0.71372549 0.60000000
v 0.15492107 0.00563064 -0.01752430 0.54509804 0.71372549 0.60000000
v 0.15615097 -0.01841186 0.00007617 0.54509804 0.71372549 0.60000000
v 0.15562387 -0.01954093 -0.00212229 0.54509804 0.71372549 0.60000000
v 0.15590292 -0.01787317 -0.00652347 0.54509804 0.71372549 0.60000000
v 0.15552052 -0.01936856 -0.00432502 0.54509804 0.71372549 0.60000000
v 0.15574790 -0.01755858 -0.00778523 0.54509804 0.71372549 0.60000000
v 0.15596494 -0.01631745 -0.00860217 0.54509804 0.71372549 0.60000000
v 0.15579958 -0.01555468 -0.01019327 0.54509804 0.71372549 0.60000000
v 0.15558253 -0.01499445 -0.01166033 0.54509804 0.71372549 0.60000000
v 0.15516912 -0.01422306 -0.01315733 0.54509804 0.71372549 0.60000000
v 0.15458001 -0.01215882 -0.01551832 0.54509804 0.71372549 0.60000000
v 0.15558253 -0.01196490 -0.01396144 0.54509804 0.71372549 0.60000000
v 0.15387721 0.01153461 -0.01669881 0.54509804 0.71372549 0.60000000
v 0.15239926 0.01284038 -0.01602730 0.54509804 0.71372549 0.60000000
v 0.15239926 0.01404703 -0.01492807 0.54509804 0.71372549 0.60000000
v 0.14506120 0.01560274 -0.01430789 0.54509804 0.71372549 0.60000000
v 0.14360392 0.01451676 -0.01550121 0.54509804 0.71372549 0.60000000
v 0.14140250 0.01452538 -0.01550121 0.54509804 0.71372549 0.60000000
v 0.09960655 0.01543898 -0.01413680 0.54509804 0.71372549 0.60000000
v 0.07761304 0.01530108 -0.01399993 0.54509804 0.71372549 0.60000000
v 0.05781060 0.01508561 -0.01382029 0.54509804 0.71372549 0.60000000
v 0.07541162 0.01527953 -0.01398710 0.54509804 0.71372549 0.60000000
v 0.05613629 0.01376691 -0.01455596 0.54509804 0.71372549 0.60000000
v 0.05536114 0.01460295 -0.01327282 0.54509804 0.71372549 0.60000000
v 0.05466867 0.01309463 -0.01404698 0.54509804 0.71372549 0.60000000
v 0.05425526 0.01396946 -0.01258420 0.54509804 0.71372549 0.60000000
v 0.05411057 0.01459433 -0.01107436 0.54509804 0.71372549 0.60000000
v 0.05129936 0.00625983 -0.00260133 0.54509804 0.71372549 0.60000000
v 0.05129936 0.00630723 -0.00252006 0.54509804 0.71372549 0.60000000
v 0.05129936 0.00601419 0.00695382 0.54509804 0.71372549 0.60000000
v 0.05439995 0.01379708 0.01480667 0.54509804 0.71372549 0.60000000
v 0.05465834 0.01297397 0.01627373 0.54509804 0.71372549 0.60000000
v 0.05631198 0.01146997 0.01900256 0.54509804 0.71372549 0.60000000
v 0.05781060 0.01287916 0.01842086 0.54509804 0.71372549 0.60000000
v 0.05781060 0.01417631 0.01732164 0.54509804 0.71372549 0.60000000
v 0.06017739 0.01460295 0.01730880 0.54509804 0.71372549 0.60000000
v 0.06001202 0.01307740 0.01858339 0.54509804 0.71372549 0.60000000
v 0.06221344 0.01312049 0.01862189 0.54509804 0.71372549 0.60000000
v 0.13259683 0.01011680 0.02036269 0.54509804 0.71372549 0.60000000
v 0.07541162 0.01309033 0.01857912 0.54509804 0.71372549 0.60000000
v 0.07541162 0.01199141 0.01937894 0.54509804 0.71372549 0.60000000
v 0.13753710 0.00891015 0.02096577 0.54509804 0.71372549 0.60000000
v 0.13259683 0.00901357 0.02101709 0.54509804 0.71372549 0.60000000
v 0.13479825 0.00897048 0.02099571 0.54509804 0.71372549 0.60000000
v 0.15239926 0.00844041 0.02073908 0.54509804 0.71372549 0.60000000
v 0.13920109 0.00886274 0.02094866 0.54509804 0.71372549 0.60000000
v 0.15239926 0.00734150 0.02123523 0.54509804 0.71372549 0.60000000
v 0.15239926 0.00563064 0.02176559 0.54509804 0.71372549 0.60000000
v 0.15239926 0.00342851 0.02218048 0.54509804 0.71372549 0.60000000
v 0.15405291 0.00563064 0.02135499 0.54509804 0.71372549 0.60000000
v 0.15526214 0.00342851 0.01987082 0.54509804 0.71372549 0.60000000
v 0.15423894 0.00342851 0.02156029 0.54509804 0.71372549 0.60000000
v 0.15428029 0.00123068 0.02162873 0.54509804 0.71372549 0.60000000
v 0.15526214 -0.00096715 0.01987082 0.54509804 0.71372549 0.60000000
v 0.15556186 -0.00756493 0.01823695 0.54509804 0.71372549 0.60000000
v 0.15577890 -0.01117626 0.01673139 0.54509804 0.71372549 0.60000000
v 0.15556186 -0.01264148 0.01633361 0.54509804 0.71372549 0.60000000
v 0.15480739 -0.01432217 0.01565355 0.54509804 0.71372549 0.60000000
v 0.15551019 -0.01497290 0.01385287 0.54509804 0.71372549 0.60000000
v 0.15575823 -0.01539523 0.01238580 0.54509804 0.71372549 0.60000000
v 0.15596494 -0.01793350 0.00667153 0.54509804 0.71372549 0.60000000
v 0.15613030 -0.01822224 0.00447308 0.54509804 0.71372549 0.60000000
v 0.15489007 -0.00756493 -0.01752430 0.54509804 0.71372549 0.60000000
v 0.15425961 -0.00536711 -0.01923089 0.54509804 0.71372549 0.60000000
v 0.15239926 -0.00316497 -0.02025313 0.54509804 0.71372549 0.60000000
v 0.15239926 -0.00096715 -0.02025313 0.54509804 0.71372549 0.60000000
v 0.15414593 0.01003061 -0.01698966 0.54509804 0.71372549 0.60000000
v 0.15239926 0.00123068 -0.02001361 0.54509804 0.71372549 0.60000000
v 0.15239926 0.00342851 -0.01973987 0.54509804 0.71372549 0.60000000
v 0.15398056 0.00563064 -0.01895287 0.54509804 0.71372549 0.60000000
v 0.15561354 -0.01951077 0.00007617 0.54509804 0.71372549 0.60000000
v 0.15451799 -0.02053211 0.00007617 0.54509804 0.71372549 0.60000000
v 0.15452833 -0.02054073 -0.00212229 0.54509804 0.71372549 0.60000000
v 0.15442498 -0.02042437 -0.00432502 0.54509804 0.71372549 0.60000000
v 0.15515878 -0.01897208 -0.00652347 0.54509804 0.71372549 0.60000000
v 0.15406324 -0.02008393 -0.00652347 0.54509804 0.71372549 0.60000000
v 0.15551019 -0.01701990 -0.00925230 0.54509804 0.71372549 0.60000000
v 0.15460068 -0.01849804 -0.00855940 0.54509804 0.71372549 0.60000000
v 0.15509677 -0.01631745 -0.01092466 0.54509804 0.71372549 0.60000000
v 0.15394955 -0.01619679 -0.01291781 0.54509804 0.71372549 0.60000000
v 0.15360849 -0.01535214 -0.01429933 0.54509804 0.71372549 0.60000000
v 0.15402190 -0.01416703 -0.01479976 0.54509804 0.71372549 0.60000000
v 0.15398056 -0.01155119 -0.01685279 0.54509804 0.71372549 0.60000000
v 0.15420794 -0.00961624 -0.01756280 0.54509804 0.71372549 0.60000000
v 0.15369117 0.00700105 -0.01874329 0.54509804 0.71372549 0.60000000
v 0.15239926 0.01174146 -0.01681002 0.54509804 0.71372549 0.60000000
v 0.14482349 0.01335751 -0.01644219 0.54509804 0.71372549 0.60000000
v 0.14360392 0.01341784 -0.01648923 0.54509804 0.71372549 0.60000000
v 0.14140250 0.01342646 -0.01649779 0.54509804 0.71372549 0.60000000
v 0.07761304 0.01420217 -0.01494518 0.54509804 0.71372549 0.60000000
v 0.05781060 0.01398669 -0.01474416 0.54509804 0.71372549 0.60000000
v 0.05659104 0.01121571 -0.01647640 0.54509804 0.71372549 0.60000000
v 0.05562985 0.01215517 -0.01527452 0.54509804 0.71372549 0.60000000
v 0.05451364 0.00893600 -0.01642508 0.54509804 0.71372549 0.60000000
v 0.05433794 0.01162942 -0.01453030 0.54509804 0.71372549 0.60000000
v 0.05512343 0.01040122 -0.01599736 0.54509804 0.71372549 0.60000000
v 0.05407956 0.01231031 -0.01323860 0.54509804 0.71372549 0.60000000
v 0.05129936 0.00522124 -0.00369628 0.54509804 0.71372549 0.60000000
v 0.05129936 0.00486787 0.00800600 0.54509804 0.71372549 0.60000000
v 0.05443096 0.01150444 0.01680838 0.54509804 0.71372549 0.60000000
v 0.05452398 0.00888429 0.01873309 0.54509804 0.71372549 0.60000000
v 0.05477203 0.01003061 0.01836954 0.54509804 0.71372549 0.60000000
v 0.05635333 0.00722515 0.02116252 0.54509804 0.71372549 0.60000000
v 0.05725250 0.00869036 0.02087167 0.54509804 0.71372549 0.60000000
v 0.05791396 0.00984530 0.02038407 0.54509804 0.71372549 0.60000000
v 0.05781060 0.01178025 0.01921214 0.54509804 0.71372549 0.60000000
v 0.05586757 0.01003061 0.01941744 0.54509804 0.71372549 0.60000000
v 0.06001202 0.01197848 0.01934900 0.54509804 0.71372549 0.60000000
v 0.06221344 0.01201727 0.01937039 0.54509804 0.71372549 0.60000000
v 0.07541162 0.01028055 0.02047817 0.54509804 0.71372549 0.60000000
v 0.13259683 0.00782847 0.02146619 0.54509804 0.71372549 0.60000000
v 0.13040574 0.00782847 0.02148758 0.54509804 0.71372549 0.60000000
v 0.11939865 0.00905667 0.02103848 0.54509804 0.71372549 0.60000000
v 0.11060331 0.00782847 0.02159023 0.54509804 0.71372549 0.60000000
v 0.11060331 0.00563064 0.02244994 0.54509804 0.71372549 0.60000000
v 0.13259683 0.00563064 0.02219331 0.54509804 0.71372549 0.60000000
v 0.13699966 0.00342851 0.02257398 0.54509804 0.71372549 0.60000000
v 0.15239926 0.00123068 0.02231307 0.54509804 0.71372549 0.60000000
v 0.15423894 -0.00096715 0.02155174 0.54509804 0.71372549 0.60000000
v 0.15514845 -0.00316497 0.01987082 0.54509804 0.71372549 0.60000000
v 0.15492107 -0.00536711 0.01987082 0.54509804 0.71372549 0.60000000
v 0.15529314 -0.00976707 0.01798887 0.54509804 0.71372549 0.60000000
v 0.15419760 -0.00976707 0.01934900 0.54509804 0.71372549 0.60000000
v 0.15384620 -0.01124953 0.01900256 0.54509804 0.71372549 0.60000000
v 0.15409425 -0.01367575 0.01706501 0.54509804 0.71372549 0.60000000
v 0.15405291 -0.01572706 0.01497776 0.54509804 0.71372549 0.60000000
v 0.15558253 -0.01723106 0.00954578 0.54509804 0.71372549 0.60000000
v 0.15377385 -0.01763615 0.01245852 0.54509804 0.71372549 0.60000000
v 0.15526214 -0.01683459 0.01107272 0.54509804 0.71372549 0.60000000
v 0.15576856 -0.01761029 0.00807871 0.54509804 0.71372549 0.60000000
v 0.15507610 -0.01903242 0.00667153 0.54509804 0.71372549 0.60000000
v 0.15541717 -0.01932115 0.00447308 0.54509804 0.71372549 0.60000000
v 0.15553085 -0.01939872 0.00227035 0.54509804 0.71372549 0.60000000
v 0.15389788 -0.00756493 -0.01891010 0.54509804 0.71372549 0.60000000
v 0.15239926 -0.00536711 -0.01991523 0.54509804 0.71372549 0.60000000
v 0.15019784 -0.00316497 -0.02033011 0.54509804 0.71372549 0.60000000
v 0.15019784 -0.00096715 -0.02033867 0.54509804 0.71372549 0.60000000
v 0.14580534 0.00342851 -0.01994089 0.54509804 0.71372549 0.60000000
v 0.15239926 0.00563064 -0.01932071 0.54509804 0.71372549 0.60000000
v 0.14580534 0.00563064 -0.01958161 0.54509804 0.71372549 0.60000000
v 0.15443531 -0.02042007 0.00227035 0.54509804 0.71372549 0.60000000
v 0.15239926 -0.02141986 0.00007617 0.54509804 0.71372549 0.60000000
v 0.15239926 -0.02144572 -0.00212229 0.54509804 0.71372549 0.60000000
v 0.15239926 -0.02124748 -0.00432502 0.54509804 0.71372549 0.60000000
v 0.15239926 -0.02060537 -0.00652347 0.54509804 0.71372549 0.60000000
v 0.15368084 -0.01977795 -0.00786650 0.54509804 0.71372549 0.60000000
v 0.15392889 -0.01785593 -0.01092466 0.54509804 0.71372549 0.60000000
v 0.15352580 -0.01748101 -0.01204527 0.54509804 0.71372549 0.60000000
v 0.15239926 -0.01547280 -0.01440626 0.54509804 0.71372549 0.60000000
v 0.15310206 -0.01301641 -0.01638230 0.54509804 0.71372549 0.60000000
v 0.15358782 -0.00878020 -0.01867913 0.54509804 0.71372549 0.60000000
v 0.15239926 0.00714757 -0.01882456 0.54509804 0.71372549 0.60000000
v 0.14510254 0.00908683 -0.01868769 0.54509804 0.71372549 0.60000000
v 0.14360392 0.01027194 -0.01825997 0.54509804 0.71372549 0.60000000
v 0.14360392 0.01222843 -0.01722918 0.54509804 0.71372549 0.60000000
v 0.14140250 0.01222843 -0.01720352 0.54509804 0.71372549 0.60000000
v 0.07100878 0.01158632 -0.01669026 0.54509804 0.71372549 0.60000000
v 0.07100878 0.01268524 -0.01600164 0.54509804 0.71372549 0.60000000
v 0.06441486 0.01258181 -0.01593320 0.54509804 0.71372549 0.60000000
v 0.06001202 0.01249993 -0.01587332 0.54509804 0.71372549 0.60000000
v 0.05781060 0.01242236 -0.01584338 0.54509804 0.71372549 0.60000000
v 0.05781060 0.01132344 -0.01654056 0.54509804 0.71372549 0.60000000
v 0.05781060 0.01003061 -0.01718641 0.54509804 0.71372549 0.60000000
v 0.05781060 0.00782847 -0.01808033 0.54509804 0.71372549 0.60000000
v 0.05649802 0.00491958 -0.01873474 0.54509804 0.71372549 0.60000000
v 0.05575388 0.00981082 -0.01669881 0.54509804 0.71372549 0.60000000
v 0.05560919 0.00782847 -0.01736177 0.54509804 0.71372549 0.60000000
v 0.05619830 0.00342851 -0.01889727 0.54509804 0.71372549 0.60000000
v 0.05437929 0.00782847 -0.01658333 0.54509804 0.71372549 0.60000000
v 0.05419325 0.00981082 -0.01528735 0.54509804 0.71372549 0.60000000
v 0.05386252 0.00782847 -0.01532157 0.54509804 0.71372549 0.60000000
v 0.05372816 0.01003061 -0.01312312 0.54509804 0.71372549 0.60000000
v 0.05129936 0.00342851 -0.00426086 0.54509804 0.71372549 0.60000000
v 0.05368682 0.00563064 -0.01532157 0.54509804 0.71372549 0.60000000
v 0.05129936 0.00352763 0.00838239 0.54509804 0.71372549 0.60000000
v 0.05429660 0.00563064 0.01933617 0.54509804 0.71372549 0.60000000
v 0.05439995 0.00741907 0.01904533 0.54509804 0.71372549 0.60000000
v 0.05490638 0.00563064 0.02043540 0.54509804 0.71372549 0.60000000
v 0.05543348 0.00805256 0.01995636 0.54509804 0.71372549 0.60000000
v 0.05601226 0.00563064 0.02139776 0.54509804 0.71372549 0.60000000
v 0.05781060 0.00563064 0.02209921 0.54509804 0.71372549 0.60000000
v 0.05791396 0.00790604 0.02131649 0.54509804 0.71372549 0.60000000
v 0.05872011 0.00899202 0.02100426 0.54509804 0.71372549 0.60000000
v 0.06001202 0.01018144 0.02044823 0.54509804 0.71372549 0.60000000
v 0.06221344 0.01021160 0.02046962 0.54509804 0.71372549 0.60000000
v 0.07541162 0.00918164 0.02110264 0.54509804 0.71372549 0.60000000
v 0.13040574 0.00563064 0.02223608 0.54509804 0.71372549 0.60000000
v 0.08201587 0.00782847 0.02164583 0.54509804 0.71372549 0.60000000
v 0.08201587 0.00563064 0.02251410 0.54509804 0.71372549 0.60000000
v 0.11060331 0.00342851 0.02291187 0.54509804 0.71372549 0.60000000
v 0.08201587 0.00342851 0.02301880 0.54509804 0.71372549 0.60000000
v 0.09521405 0.00342851 0.02298030 0.54509804 0.71372549 0.60000000
v 0.13699966 0.00123068 0.02256542 0.54509804 0.71372549 0.60000000
v 0.13040574 0.00342851 0.02268090 0.54509804 0.71372549 0.60000000
v 0.15239926 -0.00096715 0.02215481 0.54509804 0.71372549 0.60000000
v 0.15411492 -0.00316497 0.02138920 0.54509804 0.71372549 0.60000000
v 0.15387721 -0.00536711 0.02119246 0.54509804 0.71372549 0.60000000
v 0.15436297 -0.00747875 0.01997774 0.54509804 0.71372549 0.60000000
v 0.15364983 -0.00669011 0.02104703 0.54509804 0.71372549 0.60000000
v 0.15239926 -0.00976707 0.01996919 0.54509804 0.71372549 0.60000000
v 0.15239926 -0.01146931 0.01913087 0.54509804 0.71372549 0.60000000
v 0.15239926 -0.01256822 0.01843369 0.54509804 0.71372549 0.60000000
v 0.15239926 -0.01398173 0.01733447 0.54509804 0.71372549 0.60000000
v 0.15239926 -0.01508495 0.01637638 0.54509804 0.71372549 0.60000000
v 0.15239926 -0.01596408 0.01527716 0.54509804 0.71372549 0.60000000
v 0.15416660 -0.01800245 0.01107272 0.54509804 0.71372549 0.60000000
v 0.15239926 -0.01706730 0.01372455 0.54509804 0.71372549 0.60000000
v 0.15239926 -0.01773527 0.01262533 0.54509804 0.71372549 0.60000000
v 0.15239926 -0.01856700 0.01107272 0.54509804 0.71372549 0.60000000
v 0.15363949 -0.01973486 0.00797606 0.54509804 0.71372549 0.60000000
v 0.15397022 -0.01994602 0.00667153 0.54509804 0.71372549 0.60000000
v 0.15431129 -0.02023476 0.00447308 0.54509804 0.71372549 0.60000000
v 0.15239926 -0.00756493 -0.01927366 0.54509804 0.71372549 0.60000000
v 0.15019784 -0.00536711 -0.01995372 0.54509804 0.71372549 0.60000000
v 0.13699966 -0.00096715 -0.02063379 0.54509804 0.71372549 0.60000000
v 0.13259683 -0.00316497 -0.02051403 0.54509804 0.71372549 0.60000000
v 0.13479825 -0.00096715 -0.02066801 0.54509804 0.71372549 0.60000000
v 0.13699966 0.00123068 -0.02044987 0.54509804 0.71372549 0.60000000
v 0.14580534 0.00123068 -0.02020180 0.54509804 0.71372549 0.60000000
v 0.14360392 0.00563064 -0.01964149 0.54509804 0.71372549 0.60000000
v 0.14360392 0.00782847 -0.01913251 0.54509804 0.71372549 0.60000000
v 0.15239926 -0.02121301 0.00227035 0.54509804 0.71372549 0.60000000
v 0.14052400 -0.02188528 -0.00075360 0.54509804 0.71372549 0.60000000
v 0.14052400 -0.02188528 -0.00121981 0.54509804 0.71372549 0.60000000
v 0.15019784 -0.02131213 -0.00432502 0.54509804 0.71372549 0.60000000
v 0.15019784 -0.02069587 -0.00652347 0.54509804 0.71372549 0.60000000
v 0.15239926 -0.01989431 -0.00807608 0.54509804 0.71372549 0.60000000
v 0.15239926 -0.01934270 -0.00917531 0.54509804 0.71372549 0.60000000
v 0.15239926 -0.01830843 -0.01092466 0.54509804 0.71372549 0.60000000
v 0.15239926 -0.01753272 -0.01211799 0.54509804 0.71372549 0.60000000
v 0.15239926 -0.01657171 -0.01321721 0.54509804 0.71372549 0.60000000
v 0.15163445 -0.01310260 -0.01645074 0.54509804 0.71372549 0.60000000
v 0.15237859 -0.01396880 -0.01566802 0.54509804 0.71372549 0.60000000
v 0.14140250 -0.01683459 -0.01352089 0.54509804 0.71372549 0.60000000
v 0.15019784 -0.01552451 -0.01444903 0.54509804 0.71372549 0.60000000
v 0.15237859 -0.01215882 -0.01698111 0.54509804 0.71372549 0.60000000
v 0.15239926 -0.01002564 -0.01820009 0.54509804 0.71372549 0.60000000
v 0.15239926 -0.00892673 -0.01875185 0.54509804 0.71372549 0.60000000
v 0.14360392 0.00917302 -0.01872191 0.54509804 0.71372549 0.60000000
v 0.07100878 0.01003061 -0.01741310 0.54509804 0.71372549 0.60000000
v 0.06001202 0.01003061 -0.01726767 0.54509804 0.71372549 0.60000000
v 0.06441486 0.01148290 -0.01663038 0.54509804 0.71372549 0.60000000
v 0.06001202 0.01140101 -0.01658761 0.54509804 0.71372549 0.60000000
v 0.06001202 0.00782847 -0.01817871 0.54509804 0.71372549 0.60000000
v 0.05781060 0.00642358 -0.01852943 0.54509804 0.71372549 0.60000000
v 0.06001202 0.00664337 -0.01859787 0.54509804 0.71372549 0.60000000
v 0.05781060 0.00532467 -0.01886305 0.54509804 0.71372549 0.60000000
v 0.05781060 0.00342851 -0.01927366 0.54509804 0.71372549 0.60000000
v 0.05781060 0.00123068 -0.01947896 0.54509804 0.71372549 0.60000000
v 0.05596058 0.00123068 -0.01902131 0.54509804 0.71372549 0.60000000
v 0.05486504 0.00123068 -0.01826425 0.54509804 0.71372549 0.60000000
v 0.05510275 0.00342851 -0.01810600 0.54509804 0.71372549 0.60000000
v 0.05420358 0.00563064 -0.01683141 0.54509804 0.71372549 0.60000000
v 0.05129936 0.00123068 -0.00430363 0.54509804 0.71372549 0.60000000
v 0.05353179 -0.00096715 -0.01532157 0.54509804 0.71372549 0.60000000
v 0.05415191 0.00342851 -0.01700677 0.54509804 0.71372549 0.60000000
v 0.05410023 0.00123068 -0.01716502 0.54509804 0.71372549 0.60000000
v 0.05402788 -0.00096715 -0.01721635 0.54509804 0.71372549 0.60000000
v 0.05129936 0.00342851 0.00840378 0.54509804 0.71372549 0.60000000
v 0.05424493 0.00342851 0.01954575 0.54509804 0.71372549 0.60000000
v 0.05469968 0.00342851 0.02064926 0.54509804 0.71372549 0.60000000
v 0.05579522 0.00342851 0.02161589 0.54509804 0.71372549 0.60000000
v 0.05781060 0.00342851 0.02254404 0.54509804 0.71372549 0.60000000
v 0.06001202 0.00342851 0.02292042 0.54509804 0.71372549 0.60000000
v 0.06001202 0.00563064 0.02246277 0.54509804 0.71372549 0.60000000
v 0.06001202 0.00782847 0.02161162 0.54509804 0.71372549 0.60000000
v 0.06001202 0.00907821 0.02104703 0.54509804 0.71372549 0.60000000
v 0.06221344 0.00911269 0.02106414 0.54509804 0.71372549 0.60000000
v 0.06221344 0.00782847 0.02162873 0.54509804 0.71372549 0.60000000
v 0.07541162 0.00782847 0.02164583 0.54509804 0.71372549 0.60000000
v 0.07981445 0.00782847 0.02165011 0.54509804 0.71372549 0.60000000
v 0.06221344 0.00563064 0.02248843 0.54509804 0.71372549 0.60000000
v 0.13040574 0.00123068 0.02266379 0.54509804 0.71372549 0.60000000
v 0.09521405 0.00123068 0.02300169 0.54509804 0.71372549 0.60000000
v 0.06221344 0.00342851 0.02296747 0.54509804 0.71372549 0.60000000
v 0.06221344 0.00123068 0.02297603 0.54509804 0.71372549 0.60000000
v 0.15239926 -0.00316497 0.02182975 0.54509804 0.71372549 0.60000000
v 0.15239926 -0.00536711 0.02142342 0.54509804 0.71372549 0.60000000
v 0.15239926 -0.00682802 0.02108980 0.54509804 0.71372549 0.60000000
v 0.15239926 -0.00792693 0.02070914 0.54509804 0.71372549 0.60000000
v 0.06001202 -0.00800450 0.02071769 0.54509804 0.71372549 0.60000000
v 0.06221344 -0.00976707 0.01991787 0.54509804 0.71372549 0.60000000
v 0.06221344 -0.01138743 0.01907099 0.54509804 0.71372549 0.60000000
v 0.06221344 -0.01249065 0.01842942 0.54509804 0.71372549 0.60000000
v 0.06441486 -0.01535214 0.01665440 0.54509804 0.71372549 0.60000000
v 0.06441486 -0.01630453 0.01547391 0.54509804 0.71372549 0.60000000
v 0.06441486 -0.01731725 0.01408383 0.54509804 0.71372549 0.60000000
v 0.15239926 -0.01939872 0.00922499 0.54509804 0.71372549 0.60000000
v 0.06441486 -0.01785593 0.01298461 0.54509804 0.71372549 0.60000000
v 0.06441486 -0.01875230 0.01107272 0.54509804 0.71372549 0.60000000
v 0.15239926 -0.01978657 0.00812576 0.54509804 0.71372549 0.60000000
v 0.15239926 -0.02027354 0.00667153 0.54509804 0.71372549 0.60000000
v 0.15239926 -0.02085101 0.00447308 0.54509804 0.71372549 0.60000000
v 0.13699966 -0.00911634 -0.01888016 0.54509804 0.71372549 0.60000000
v 0.13699966 -0.00756493 -0.01942336 0.54509804 0.71372549 0.60000000
v 0.13040574 -0.00536711 -0.02005638 0.54509804 0.71372549 0.60000000
v 0.13040574 -0.00316497 -0.02051831 0.54509804 0.71372549 0.60000000
v 0.13259683 -0.00096715 -0.02067656 0.54509804 0.71372549 0.60000000
v 0.13699966 0.00342851 -0.02009915 0.54509804 0.71372549 0.60000000
v 0.13479825 0.00123068 -0.02044132 0.54509804 0.71372549 0.60000000
v 0.13699966 0.00563064 -0.01968854 0.54509804 0.71372549 0.60000000
v 0.13479825 0.00563064 -0.01968426 0.54509804 0.71372549 0.60000000
v 0.06001202 0.00554014 -0.01892721 0.54509804 0.71372549 0.60000000
v 0.10840189 0.00739321 -0.01888871 0.54509804 0.71372549 0.60000000
v 0.14140250 -0.02146727 0.00227035 0.54509804 0.71372549 0.60000000
v 0.14131982 -0.02177755 0.00001629 0.54509804 0.71372549 0.60000000
v 0.14007958 -0.02188528 -0.00075360 0.54509804 0.71372549 0.60000000
v 0.14007958 -0.02188528 -0.00121981 0.54509804 0.71372549 0.60000000
v 0.14140250 -0.02146727 -0.00432502 0.54509804 0.71372549 0.60000000
v 0.14131982 -0.02176893 -0.00202391 0.54509804 0.71372549 0.60000000
v 0.15019784 -0.01994602 -0.00813596 0.54509804 0.71372549 0.60000000
v 0.14140250 -0.02075620 -0.00652347 0.54509804 0.71372549 0.60000000
v 0.15019784 -0.01934701 -0.00923519 0.54509804 0.71372549 0.60000000
v 0.14140250 -0.01771803 -0.01242166 0.54509804 0.71372549 0.60000000
v 0.15095232 -0.01310260 -0.01645074 0.54509804 0.71372549 0.60000000
v 0.11280473 -0.00910772 -0.01889299 0.54509804 0.71372549 0.60000000
v 0.14140250 -0.01573568 -0.01457735 0.54509804 0.71372549 0.60000000
v 0.11939865 -0.01559346 -0.01446614 0.54509804 0.71372549 0.60000000
v 0.12160007 -0.01560208 -0.01448325 0.54509804 0.71372549 0.60000000
v 0.06441486 -0.01741637 -0.01194262 0.54509804 0.71372549 0.60000000
v 0.06441486 -0.01631745 -0.01309318 0.54509804 0.71372549 0.60000000
v 0.06441486 -0.01521854 -0.01419240 0.54509804 0.71372549 0.60000000
v 0.06001202 0.00342851 -0.01934637 0.54509804 0.71372549 0.60000000
v 0.05781060 -0.00096715 -0.01946613 0.54509804 0.71372549 0.60000000
v 0.05597092 -0.00096715 -0.01901275 0.54509804 0.71372549 0.60000000
v 0.06001202 0.00123068 -0.01952601 0.54509804 0.71372549 0.60000000
v 0.06441486 -0.00096715 -0.01966288 0.54509804 0.71372549 0.60000000
v 0.06221344 -0.00096715 -0.01961155 0.54509804 0.71372549 0.60000000
v 0.06001202 -0.00096715 -0.01955595 0.54509804 0.71372549 0.60000000
v 0.05486504 -0.00096715 -0.01831558 0.54509804 0.71372549 0.60000000
v 0.05129936 0.00111002 -0.00428225 0.54509804 0.71372549 0.60000000
v 0.05358347 -0.00316497 -0.01532157 0.54509804 0.71372549 0.60000000
v 0.05407956 -0.00316497 -0.01707093 0.54509804 0.71372549 0.60000000
v 0.05129936 0.00133842 0.00859197 0.54509804 0.71372549 0.60000000
v 0.05129936 0.00123068 0.00859625 0.54509804 0.71372549 0.60000000
v 0.05424493 0.00123068 0.01957569 0.54509804 0.71372549 0.60000000
v 0.05465834 0.00123068 0.02067492 0.54509804 0.71372549 0.60000000
v 0.05576421 0.00123068 0.02167577 0.54509804 0.71372549 0.60000000
v 0.05781060 0.00123068 0.02263813 0.54509804 0.71372549 0.60000000
v 0.06001202 0.00123068 0.02296320 0.54509804 0.71372549 0.60000000
v 0.06001202 -0.00096715 0.02269374 0.54509804 0.71372549 0.60000000
v 0.09741547 -0.00096715 0.02254404 0.54509804 0.71372549 0.60000000
v 0.06001202 -0.00316497 0.02218903 0.54509804 0.71372549 0.60000000
v 0.06001202 -0.00536711 0.02159023 0.54509804 0.71372549 0.60000000
v 0.06001202 -0.00690128 0.02112830 0.54509804 0.71372549 0.60000000
v 0.05818267 -0.00672028 0.02106842 0.54509804 0.71372549 0.60000000
v 0.05759356 -0.00750029 0.02066637 0.54509804 0.71372549 0.60000000
v 0.05781060 -0.00976707 0.01963130 0.54509804 0.71372549 0.60000000
v 0.06001202 -0.00976707 0.01987937 0.54509804 0.71372549 0.60000000
v 0.06001202 -0.01130124 0.01903677 0.54509804 0.71372549 0.60000000
v 0.06001202 -0.01240446 0.01835243 0.54509804 0.71372549 0.60000000
v 0.06294725 -0.01533059 0.01663729 0.54509804 0.71372549 0.60000000
v 0.06221344 -0.01599855 0.01564499 0.54509804 0.71372549 0.60000000
v 0.06221344 -0.01723106 0.01394269 0.54509804 0.71372549 0.60000000
v 0.05781060 -0.01767063 0.01253978 0.54509804 0.71372549 0.60000000
v 0.06221344 -0.01779560 0.01284346 0.54509804 0.71372549 0.60000000
v 0.06441486 -0.01946336 0.00938752 0.54509804 0.71372549 0.60000000
v 0.05781060 -0.01839031 0.01107272 0.54509804 0.71372549 0.60000000
v 0.06001202 -0.01851528 0.01107272 0.54509804 0.71372549 0.60000000
v 0.06221344 -0.01863595 0.01107272 0.54509804 0.71372549 0.60000000
v 0.15019784 -0.02027785 0.00667153 0.54509804 0.71372549 0.60000000
v 0.06441486 -0.01983829 0.00828829 0.54509804 0.71372549 0.60000000
v 0.15019784 -0.02087687 0.00447308 0.54509804 0.71372549 0.60000000
v 0.11280473 -0.00756493 -0.01943619 0.54509804 0.71372549 0.60000000
v 0.08860980 -0.00536711 -0.01973559 0.54509804 0.71372549 0.60000000
v 0.08640838 -0.00536711 -0.01971848 0.54509804 0.71372549 0.60000000
v 0.09521405 -0.00316497 -0.02016758 0.54509804 0.71372549 0.60000000
v 0.08420696 -0.00316497 -0.02004782 0.54509804 0.71372549 0.60000000
v 0.11060331 -0.00096715 -0.02041138 0.54509804 0.71372549 0.60000000
v 0.11060331 0.00123068 -0.02017614 0.54509804 0.71372549 0.60000000
v 0.13479825 0.00342851 -0.02008204 0.54509804 0.71372549 0.60000000
v 0.11719723 -0.02091565 0.00447308 0.54509804 0.71372549 0.60000000
v 0.06441486 -0.02029509 0.00667153 0.54509804 0.71372549 0.60000000
v 0.06441486 -0.02077775 0.00447308 0.54509804 0.71372549 0.60000000
v 0.11719723 -0.02137245 0.00227035 0.54509804 0.71372549 0.60000000
v 0.06441486 -0.02105356 0.00227035 0.54509804 0.71372549 0.60000000
v 0.06441486 -0.02115698 0.00007617 0.54509804 0.71372549 0.60000000
v 0.08420696 -0.02139400 -0.00212229 0.54509804 0.71372549 0.60000000
v 0.11939865 -0.02166981 -0.00212229 0.54509804 0.71372549 0.60000000
v 0.11939865 -0.02135091 -0.00432502 0.54509804 0.71372549 0.60000000
v 0.14140250 -0.01996326 -0.00816590 0.54509804 0.71372549 0.60000000
v 0.14140250 -0.01852390 -0.01092466 0.54509804 0.71372549 0.60000000
v 0.11060331 -0.01986414 -0.00801192 0.54509804 0.71372549 0.60000000
v 0.09741547 -0.02123455 -0.00432502 0.54509804 0.71372549 0.60000000
v 0.09521405 -0.02048902 -0.00652347 0.54509804 0.71372549 0.60000000
v 0.11060331 -0.01930822 -0.00911543 0.54509804 0.71372549 0.60000000
v 0.06441486 -0.01806710 -0.01084340 0.54509804 0.71372549 0.60000000
v 0.11060331 -0.00906894 -0.01886733 0.54509804 0.71372549 0.60000000
v 0.07981445 -0.00730637 -0.01898709 0.54509804 0.71372549 0.60000000
v 0.11280473 -0.01020664 -0.01813594 0.54509804 0.71372549 0.60000000
v 0.06221344 -0.01116334 -0.01660472 0.54509804 0.71372549 0.60000000
v 0.06221344 -0.01734311 -0.01181003 0.54509804 0.71372549 0.60000000
v 0.06221344 -0.01623988 -0.01304185 0.54509804 0.71372549 0.60000000
v 0.06221344 -0.01515821 -0.01414108 0.54509804 0.71372549 0.60000000
v 0.06221344 -0.01405499 -0.01483825 0.54509804 0.71372549 0.60000000
v 0.06221344 -0.01226225 -0.01593748 0.54509804 0.71372549 0.60000000
v 0.09741547 -0.00096715 -0.02024457 0.54509804 0.71372549 0.60000000
v 0.05781060 -0.00316497 -0.01926510 0.54509804 0.71372549 0.60000000
v 0.05616729 -0.00316497 -0.01890155 0.54509804 0.71372549 0.60000000
v 0.06001202 -0.00316497 -0.01937631 0.54509804 0.71372549 0.60000000
v 0.07321020 -0.00316497 -0.01983824 0.54509804 0.71372549 0.60000000
v 0.07100878 -0.00316497 -0.01979119 0.54509804 0.71372549 0.60000000
v 0.07761304 -0.00316497 -0.01992806 0.54509804 0.71372549 0.60000000
v 0.06880736 -0.00316497 -0.01972276 0.54509804 0.71372549 0.60000000
v 0.06660594 -0.00316497 -0.01963722 0.54509804 0.71372549 0.60000000
v 0.05507175 -0.00316497 -0.01817015 0.54509804 0.71372549 0.60000000
v 0.05129936 -0.00096715 -0.00388447 0.54509804 0.71372549 0.60000000
v 0.05371783 -0.00536711 -0.01532157 0.54509804 0.71372549 0.60000000
v 0.05423459 -0.00536711 -0.01680574 0.54509804 0.71372549 0.60000000
v 0.05400721 -0.00763389 -0.01547983 0.54509804 0.71372549 0.60000000
v 0.05129936 -0.00096715 0.00848077 0.54509804 0.71372549 0.60000000
v 0.05429660 -0.00096715 0.01943455 0.54509804 0.71372549 0.60000000
v 0.05439995 -0.00536711 0.01902394 0.54509804 0.71372549 0.60000000
v 0.05474102 -0.00096715 0.02053377 0.54509804 0.71372549 0.60000000
v 0.05584690 -0.00096715 0.02157740 0.54509804 0.71372549 0.60000000
v 0.05434828 -0.00316497 0.01923352 0.54509804 0.71372549 0.60000000
v 0.05781060 -0.00096715 0.02242427 0.54509804 0.71372549 0.60000000
v 0.05781060 -0.00316497 0.02198373 0.54509804 0.71372549 0.60000000
v 0.05759356 -0.00558258 0.02132933 0.54509804 0.71372549 0.60000000
v 0.05671506 -0.00646171 0.02097004 0.54509804 0.71372549 0.60000000
v 0.05664271 -0.01093063 0.01881436 0.54509804 0.71372549 0.60000000
v 0.05781060 -0.01109439 0.01891273 0.54509804 0.71372549 0.60000000
v 0.05781060 -0.01219761 0.01822411 0.54509804 0.71372549 0.60000000
v 0.05781060 -0.01380073 0.01712061 0.54509804 0.71372549 0.60000000
v 0.05781060 -0.01489964 0.01623096 0.54509804 0.71372549 0.60000000
v 0.05781060 -0.01590806 0.01513173 0.54509804 0.71372549 0.60000000
v 0.05781060 -0.01700697 0.01363901 0.54509804 0.71372549 0.60000000
v 0.05649802 -0.01757151 0.01236870 0.54509804 0.71372549 0.60000000
v 0.06001202 -0.01935132 0.00902824 0.54509804 0.71372549 0.60000000
v 0.05854441 -0.01969608 0.00786058 0.54509804 0.71372549 0.60000000
v 0.05707680 -0.01963574 0.00765100 0.54509804 0.71372549 0.60000000
v 0.05781060 -0.01934701 0.00870318 0.54509804 0.71372549 0.60000000
v 0.07981445 -0.00536711 -0.01962011 0.54509804 0.71372549 0.60000000
v 0.05781060 -0.01989862 0.00682123 0.54509804 0.71372549 0.60000000
v 0.06221344 -0.02017443 0.00667153 0.54509804 0.71372549 0.60000000
v 0.06221344 -0.02067432 0.00447308 0.54509804 0.71372549 0.60000000
v 0.06221344 -0.02095875 0.00227035 0.54509804 0.71372549 0.60000000
v 0.06221344 -0.02103632 0.00007617 0.54509804 0.71372549 0.60000000
v 0.06441486 -0.02109665 -0.00212229 0.54509804 0.71372549 0.60000000
v 0.07761304 -0.02130781 -0.00212229 0.54509804 0.71372549 0.60000000
v 0.07761304 -0.02104925 -0.00432502 0.54509804 0.71372549 0.60000000
v 0.07981445 -0.02107510 -0.00432502 0.54509804 0.71372549 0.60000000
v 0.08640838 -0.02114836 -0.00432502 0.54509804 0.71372549 0.60000000
v 0.09301263 -0.02120439 -0.00432502 0.54509804 0.71372549 0.60000000
v 0.09301263 -0.02047609 -0.00652347 0.54509804 0.71372549 0.60000000
v 0.09301263 -0.01980812 -0.00790499 0.54509804 0.71372549 0.60000000
v 0.06441486 -0.01916601 -0.00881603 0.54509804 0.71372549 0.60000000
v 0.06221344 -0.01795505 -0.01071080 0.54509804 0.71372549 0.60000000
v 0.06221344 -0.00976707 -0.01736177 0.54509804 0.71372549 0.60000000
v 0.07981445 -0.00840959 -0.01849949 0.54509804 0.71372549 0.60000000
v 0.07761304 -0.00724603 -0.01896570 0.54509804 0.71372549 0.60000000
v 0.06001202 -0.01213297 -0.01586477 0.54509804 0.71372549 0.60000000
v 0.06001202 -0.01103405 -0.01652345 0.54509804 0.71372549 0.60000000
v 0.05781060 -0.01770510 -0.01025315 0.54509804 0.71372549 0.60000000
v 0.06001202 -0.01720521 -0.01159617 0.54509804 0.71372549 0.60000000
v 0.06001202 -0.01610629 -0.01291354 0.54509804 0.71372549 0.60000000
v 0.06001202 -0.01499445 -0.01401276 0.54509804 0.71372549 0.60000000
v 0.06001202 -0.01389554 -0.01476554 0.54509804 0.71372549 0.60000000
v 0.05781060 -0.00503528 -0.01887161 0.54509804 0.71372549 0.60000000
v 0.05645668 -0.00465605 -0.01875612 0.54509804 0.71372549 0.60000000
v 0.07100878 -0.00536711 -0.01941480 0.54509804 0.71372549 0.60000000
v 0.06880736 -0.00536711 -0.01932071 0.54509804 0.71372549 0.60000000
v 0.07761304 -0.00536711 -0.01957734 0.54509804 0.71372549 0.60000000
v 0.07321020 -0.00536711 -0.01947041 0.54509804 0.71372549 0.60000000
v 0.05437929 -0.00694437 -0.01658761 0.54509804 0.71372549 0.60000000
v 0.05129936 -0.00105764 -0.00385453 0.54509804 0.71372549 0.60000000
v 0.05366615 -0.00976707 -0.01312312 0.54509804 0.71372549 0.60000000
v 0.05129936 -0.00227291 -0.00339688 0.54509804 0.71372549 0.60000000
v 0.05413124 -0.00976707 -0.01484681 0.54509804 0.71372549 0.60000000
v 0.05129936 -0.00250562 0.00808299 0.54509804 0.71372549 0.60000000
v 0.05446197 -0.00683233 0.01886141 0.54509804 0.71372549 0.60000000
v 0.05494773 -0.00316497 0.02033703 0.54509804 0.71372549 0.60000000
v 0.05604327 -0.00316497 0.02137637 0.54509804 0.71372549 0.60000000
v 0.05635333 -0.00499649 0.02116679 0.54509804 0.71372549 0.60000000
v 0.05459633 -0.00829754 0.01862617 0.54509804 0.71372549 0.60000000
v 0.05616729 -0.00976707 0.01911804 0.54509804 0.71372549 0.60000000
v 0.05507175 -0.00976707 0.01821128 0.54509804 0.71372549 0.60000000
v 0.05570220 -0.01175804 0.01752694 0.54509804 0.71372549 0.60000000
v 0.05622930 -0.01349907 0.01688537 0.54509804 0.71372549 0.60000000
v 0.05617763 -0.01566242 0.01482806 0.54509804 0.71372549 0.60000000
v 0.05559885 -0.01629591 0.01316425 0.54509804 0.71372549 0.60000000
v 0.05498907 -0.01688630 0.01107272 0.54509804 0.71372549 0.60000000
v 0.05608461 -0.01788179 0.01107272 0.54509804 0.71372549 0.60000000
v 0.05781060 -0.02038128 0.00447308 0.54509804 0.71372549 0.60000000
v 0.05642567 -0.01981243 0.00618394 0.54509804 0.71372549 0.60000000
v 0.06001202 -0.02053642 0.00447308 0.54509804 0.71372549 0.60000000
v 0.06001202 -0.02082946 0.00227035 0.54509804 0.71372549 0.60000000
v 0.06001202 -0.02090272 0.00007617 0.54509804 0.71372549 0.60000000
v 0.06221344 -0.02095444 -0.00212229 0.54509804 0.71372549 0.60000000
v 0.06441486 -0.02086825 -0.00432502 0.54509804 0.71372549 0.60000000
v 0.06441486 -0.02023045 -0.00652347 0.54509804 0.71372549 0.60000000
v 0.09081121 -0.02045885 -0.00652347 0.54509804 0.71372549 0.60000000
v 0.06441486 -0.01970900 -0.00771252 0.54509804 0.71372549 0.60000000
v 0.06321596 -0.01967884 -0.00764836 0.54509804 0.71372549 0.60000000
v 0.06237881 -0.01912723 -0.00852090 0.54509804 0.71372549 0.60000000
v 0.06001202 -0.00976707 -0.01719924 0.54509804 0.71372549 0.60000000
v 0.06014638 -0.00735808 -0.01826425 0.54509804 0.71372549 0.60000000
v 0.06221344 -0.00764681 -0.01828136 0.54509804 0.71372549 0.60000000
v 0.07100878 -0.00701332 -0.01887161 0.54509804 0.71372549 0.60000000
v 0.07761304 -0.00834495 -0.01846528 0.54509804 0.71372549 0.60000000
v 0.05781060 -0.01364559 -0.01460729 0.54509804 0.71372549 0.60000000
v 0.05877179 -0.01090908 -0.01644646 0.54509804 0.71372549 0.60000000
v 0.05781060 -0.01848511 -0.00872193 0.54509804 0.71372549 0.60000000
v 0.05649802 -0.01757582 -0.01000935 0.54509804 0.71372549 0.60000000
v 0.05781060 -0.01702421 -0.01135238 0.54509804 0.71372549 0.60000000
v 0.05781060 -0.01592529 -0.01272107 0.54509804 0.71372549 0.60000000
v 0.05781060 -0.01474450 -0.01382029 0.54509804 0.71372549 0.60000000
v 0.06014638 -0.00552656 -0.01887161 0.54509804 0.71372549 0.60000000
v 0.05950559 -0.00637121 -0.01859359 0.54509804 0.71372549 0.60000000
v 0.05781060 -0.00613419 -0.01850377 0.54509804 0.71372549 0.60000000
v 0.05611561 -0.00921977 -0.01672020 0.54509804 0.71372549 0.60000000
v 0.05547483 -0.00763389 -0.01706237 0.54509804 0.71372549 0.60000000
v 0.05464800 -0.00840959 -0.01631815 0.54509804 0.71372549 0.60000000
v 0.05781060 -0.00756493 -0.01793063 0.54509804 0.71372549 0.60000000
v 0.06880736 -0.00692282 -0.01882456 0.54509804 0.71372549 0.60000000
v 0.06097320 -0.00648757 -0.01863209 0.54509804 0.71372549 0.60000000
v 0.05129936 -0.00433715 -0.00110433 0.54509804 0.71372549 0.60000000
v 0.05129936 -0.00341923 -0.00215650 0.54509804 0.71372549 0.60000000
v 0.05415191 -0.01192611 -0.01307179 0.54509804 0.71372549 0.60000000
v 0.05425526 -0.01414548 -0.01085195 0.54509804 0.71372549 0.60000000
v 0.05430694 -0.01583049 -0.00872193 0.54509804 0.71372549 0.60000000
v 0.05435861 -0.01116334 -0.01442765 0.54509804 0.71372549 0.60000000
v 0.05129936 -0.00355282 0.00721045 0.54509804 0.71372549 0.60000000
v 0.05438962 -0.01344735 0.01471685 0.54509804 0.71372549 0.60000000
v 0.05428627 -0.01190025 0.01545680 0.54509804 0.71372549 0.60000000
v 0.05431727 -0.00976707 0.01711205 0.54509804 0.71372549 0.60000000
v 0.05444130 -0.01112024 0.01670573 0.54509804 0.71372549 0.60000000
v 0.05476169 -0.01258546 0.01618391 0.54509804 0.71372549 0.60000000
v 0.05546449 -0.01420582 0.01550812 0.54509804 0.71372549 0.60000000
v 0.05471001 -0.01491257 0.01395980 0.54509804 0.71372549 0.60000000
v 0.05442062 -0.01546849 0.01249273 0.54509804 0.71372549 0.60000000
v 0.05462733 -0.01722675 0.00949017 0.54509804 0.71372549 0.60000000
v 0.05546449 -0.01820500 0.00880583 0.54509804 0.71372549 0.60000000
v 0.05781060 -0.02063985 0.00227035 0.54509804 0.71372549 0.60000000
v 0.05618796 -0.01995895 0.00447308 0.54509804 0.71372549 0.60000000
v 0.05566086 -0.01895485 0.00682123 0.54509804 0.71372549 0.60000000
v 0.05509242 -0.01897208 0.00447308 0.54509804 0.71372549 0.60000000
v 0.06001202 -0.02078206 -0.00212229 0.54509804 0.71372549 0.60000000
v 0.05781060 -0.02068294 0.00007617 0.54509804 0.71372549 0.60000000
v 0.06221344 -0.02065278 -0.00432502 0.54509804 0.71372549 0.60000000
v 0.06001202 -0.01991155 -0.00607010 0.54509804 0.71372549 0.60000000
v 0.06237881 -0.01998050 -0.00661757 0.54509804 0.71372549 0.60000000
v 0.06001202 -0.01948491 -0.00716932 0.54509804 0.71372549 0.60000000
v 0.05794496 -0.00987912 -0.01686135 0.54509804 0.71372549 0.60000000
v 0.05638433 -0.01334393 -0.01440626 0.54509804 0.71372549 0.60000000
v 0.05730417 -0.01068499 -0.01631387 0.54509804 0.71372549 0.60000000
v 0.05794496 -0.01177097 -0.01578778 0.54509804 0.71372549 0.60000000
v 0.05781060 -0.01934270 -0.00680577 0.54509804 0.71372549 0.60000000
v 0.05668406 -0.01967884 -0.00546274 0.54509804 0.71372549 0.60000000
v 0.05606394 -0.01789472 -0.00872193 0.54509804 0.71372549 0.60000000
v 0.05496840 -0.01692940 -0.00872193 0.54509804 0.71372549 0.60000000
v 0.05562985 -0.01626574 -0.01077496 0.54509804 0.71372549 0.60000000
v 0.05622930 -0.01562794 -0.01240883 0.54509804 0.71372549 0.60000000
v 0.05547483 -0.00987912 -0.01597598 0.54509804 0.71372549 0.60000000
v 0.05562985 -0.01192611 -0.01482970 0.54509804 0.71372549 0.60000000
v 0.05129936 -0.00489738 0.00007617 0.54509804 0.71372549 0.60000000
v 0.05423459 -0.01649414 -0.00655769 0.54509804 0.71372549 0.60000000
v 0.05438962 -0.01339564 -0.01230190 0.54509804 0.71372549 0.60000000
v 0.05443096 -0.01543832 -0.01007351 0.54509804 0.71372549 0.60000000
v 0.05459633 -0.01731294 -0.00731475 0.54509804 0.71372549 0.60000000
v 0.05444130 -0.01760167 -0.00584769 0.54509804 0.71372549 0.60000000
v 0.05491672 -0.01262855 -0.01376897 0.54509804 0.71372549 0.60000000
v 0.05476169 -0.01486517 -0.01154057 0.54509804 0.71372549 0.60000000
v 0.05129936 -0.00466467 0.00606418 0.54509804 0.71372549 0.60000000
v 0.05428627 -0.01417565 0.01324551 0.54509804 0.71372549 0.60000000
v 0.05447230 -0.01754565 0.00802739 0.54509804 0.71372549 0.60000000
v 0.05432761 -0.01578739 0.01107272 0.54509804 0.71372549 0.60000000
v 0.05604327 -0.02007531 0.00227035 0.54509804 0.71372549 0.60000000
v 0.05493739 -0.01905828 0.00227035 0.54509804 0.71372549 0.60000000
v 0.05439995 -0.01770079 0.00667153 0.54509804 0.71372549 0.60000000
v 0.06001202 -0.02042007 -0.00432502 0.54509804 0.71372549 0.60000000
v 0.05781060 -0.02052349 -0.00212229 0.54509804 0.71372549 0.60000000
v 0.05601226 -0.02008823 0.00007617 0.54509804 0.71372549 0.60000000
v 0.05611561 -0.02000205 -0.00212229 0.54509804 0.71372549 0.60000000
v 0.05781060 -0.01977365 -0.00570654 0.54509804 0.71372549 0.60000000
v 0.05781060 -0.02013995 -0.00432502 0.54509804 0.71372549 0.60000000
v 0.05643601 -0.01981243 -0.00432502 0.54509804 0.71372549 0.60000000
v 0.05534047 -0.01889882 -0.00432502 0.54509804 0.71372549 0.60000000
v 0.05564019 -0.01849804 -0.00639088 0.54509804 0.71372549 0.60000000
v 0.05129936 -0.00550070 0.00227035 0.54509804 0.71372549 0.60000000
v 0.05433794 -0.01779560 -0.00432502 0.54509804 0.71372549 0.60000000
v 0.05502007 -0.01907551 -0.00212229 0.54509804 0.71372549 0.60000000
v 0.05129936 -0.00527661 0.00458856 0.54509804 0.71372549 0.60000000
v 0.05491672 -0.01910999 0.00007617 0.54509804 0.71372549 0.60000000
v 0.05432761 -0.01787317 0.00447308 0.54509804 0.71372549 0.60000000
v 0.05430694 -0.01795936 0.00227035 0.54509804 0.71372549 0.60000000
v 0.05427593 -0.01801108 0.00007617 0.54509804 0.71372549 0.60000000
v 0.05129936 -0.00531539 0.00447308 0.54509804 0.71372549 0.60000000
v 0.05129936 -0.00549639 0.00240721 0.54509804 0.71372549 0.60000000
v 0.05427593 -0.01797660 -0.00212229 0.54509804 0.71372549 0.60000000
f 1 2 9
f 1 9 3
f 1 3 10
f 1 10 4
f 1 4 5
f 1 5 6
f 1 6 2
f 2 7 8
f 2 8 25
f 2 25 9
f 2 6 7
f 3 9 11
f 3 11 12
f 3 12 13
f 3 13 10
f 4 10 14
f 4 14 15
f 4 15 16
f 4 16 17
f 4 17 5
f 5 17 18
f 5 18 19
f 5 19 20
f 5 20 6
f 6 21 7
f 6 20 22
f 6 22 21
f 7 23 24
f 7 24 8
f 7 21 23
f 8 24 25
f 9 25 26
f 9 26 11
f 10 13 14
f 11 26 27
f 11 27 28
f 11 28 29
f 11 29 12
f 12 29 30
f 12 30 13
f 13 30 31
f 13 31 32
f 13 32 14
f 14 32 33
f 14 33 34
f 14 34 35
f 14 35 36
f 14 36 15
f 15 36 16
f 16 36 17
f 17 36 37
f 17 37 38
f 17 38 39
f 17 39 18
f 18 39 40
f 18 40 41
f 18 41 19
f 19 41 20
f 20 41 42
f 20 42 43
f 20 43 44
f 20 44 22
f 21 45 23
f 21 22 45
f 22 46 45
f 22 44 47
f 22 47 46
f 23 48 24
f 23 45 49
f 23 49 50
f 23 50 26
f 23 26 48
f 24 48 25
f 25 48 26
f 26 50 27
f 27 51 52
f 27 52 53
f 27 53 54
f 27 54 28
f 27 50 51
f 28 54 55
f 28 55 29
f 29 55 56
f 29 56 57
f 29 57 58
f 29 58 30
f 30 58 59
f 30 59 31
f 31 59 60
f 31 60 33
f 31 33 32
f 33 60 61
f 33 61 62
f 33 62 34
f 34 62 35
f 35 63 36
f 35 62 64
f 35 64 63
f 36 63 65
f 36 65 37
f 37 66 67
f 37 67 38
f 37 65 63
f 37 63 66
f 38 67 68
f 38 68 69
f 38 69 39
f 39 70 40
f 39 69 70
f 40 70 71
f 40 71 72
f 40 72 73
f 40 73 41
f 41 74 42
f 41 73 74
f 42 74 43
f 43 74 75
f 43 75 76
f 43 76 44
f 44 76 77
f 44 77 78
f 44 78 47
f 45 79 49
f 45 46 79
f 46 47 80
f 46 80 81
f 46 81 79
f 47 78 82
f 47 82 83
f 47 83 80
f 49 79 84
f 49 84 85
f 49 85 86
f 49 86 87
f 49 87 50
f 50 87 51
f 51 88 89
f 51 89 52
f 51 87 88
f 52 89 53
f 53 89 90
f 53 90 54
f 54 90 91
f 54 91 55
f 55 91 92
f 55 92 56
f 56 92 93
f 56 93 94
f 56 94 57
f 57 94 95
f 57 95 96
f 57 96 58
f 58 96 97
f 58 97 98
f 58 98 59
f 59 98 60
f 60 98 61
f 61 98 99
f 61 99 62
f 62 99 100
f 62 100 64
f 63 64 100
f 63 100 101
f 63 101 102
f 63 102 103
f 63 103 104
f 63 104 105
f 63 105 66
f 66 105 67
f 67 105 106
f 67 106 107
f 67 107 68
f 68 107 69
f 69 107 108
f 69 108 70
f 70 108 109
f 70 109 71
f 71 110 111
f 71 111 72
f 71 109 112
f 71 112 110
f 72 111 73
f 73 113 114
f 73 114 74
f 73 111 115
f 73 115 113
f 74 114 75
f 75 114 76
f 76 114 116
f 76 116 117
f 76 117 118
f 76 118 77
f 77 119 78
f 77 118 120
f 77 120 119
f 78 119 82
f 79 81 121
f 79 121 84
f 80 122 123
f 80 123 81
f 80 83 122
f 81 123 121
f 82 119 83
f 83 119 124
f 83 124 122
f 84 121 125
f 84 125 85
f 85 125 126
f 85 126 127
f 85 127 128
f 85 128 129
f 85 129 130
f 85 130 131
f 85 131 86
f 86 131 132
f 86 132 87
f 87 132 88
f 88 132 89
f 89 132 133
f 89 133 134
f 89 134 90
f 90 134 135
f 90 135 136
f 90 136 91
f 91 136 137
f 91 137 92
f 92 137 138
f 92 138 93
f 93 139 140
f 93 140 141
f 93 141 94
f 93 138 139
f 94 141 95
f 95 141 142
f 95 142 96
f 96 142 143
f 96 143 97
f 97 143 144
f 97 144 98
f 98 144 145
f 98 145 146
f 98 146 147
f 98 147 99
f 99 147 148
f 99 148 100
f 100 148 149
f 100 149 102
f 100 102 101
f 102 149 150
f 102 150 151
f 102 151 104
f 102 104 103
f 104 151 152
f 104 152 153
f 104 153 106
f 104 106 105
f 106 153 154
f 106 154 107
f 107 155 108
f 107 154 155
f 108 155 109
f 109 155 154
f 109 154 152
f 109 152 156
f 109 156 157
f 109 157 112
f 110 158 115
f 110 115 111
f 110 112 158
f 112 157 159
f 112 159 160
f 112 160 161
f 112 161 158
f 113 162 114
f 113 115 163
f 113 163 164
f 113 164 165
f 113 165 162
f 114 162 116
f 115 158 163
f 116 165 166
f 116 166 118
f 116 118 117
f 116 162 165
f 118 167 168
f 118 168 169
f 118 169 170
f 118 170 120
f 118 166 171
f 118 171 172
f 118 172 173
f 118 173 167
f 119 120 174
f 119 174 124
f 120 170 169
f 120 169 174
f 121 123 175
f 121 175 176
f 121 176 125
f 122 124 177
f 122 177 178
f 122 178 176
f 122 176 175
f 122 175 123
f 124 174 179
f 124 179 177
f 125 180 127
f 125 127 126
f 125 176 180
f 127 180 181
f 127 181 128
f 128 182 129
f 128 181 182
f 129 182 183
f 129 183 130
f 130 183 184
f 130 184 185
f 130 185 186
f 130 186 131
f 131 186 132
f 132 186 187
f 132 187 133
f 133 187 188
f 133 188 135
f 133 135 134
f 135 188 137
f 135 137 136
f 137 188 138
f 138 188 139
f 139 188 189
f 139 189 190
f 139 190 191
f 139 191 140
f 140 191 192
f 140 192 193
f 140 193 141
f 141 193 194
f 141 194 195
f 141 195 142
f 142 195 196
f 142 196 143
f 143 196 197
f 143 197 198
f 143 198 144
f 144 198 199
f 144 199 145
f 145 199 146
f 146 199 200
f 146 200 147
f 147 201 202
f 147 202 148
f 147 200 203
f 147 203 201
f 148 202 204
f 148 204 149
f 149 204 150
f 150 204 205
f 150 205 159
f 150 159 206
f 150 206 207
f 150 207 151
f 151 207 208
f 151 208 152
f 152 154 153
f 152 208 156
f 156 208 157
f 157 208 206
f 157 206 159
f 158 209 163
f 158 161 209
f 159 205 160
f 160 210 211
f 160 211 161
f 160 205 212
f 160 212 210
f 161 211 213
f 161 213 209
f 163 209 164
f 164 214 165
f 164 209 215
f 164 215 214
f 165 214 216
f 165 216 166
f 166 216 217
f 166 217 218
f 166 218 219
f 166 219 220
f 166 220 221
f 166 221 171
f 167 173 222
f 167 222 223
f 167 223 224
f 167 224 168
f 168 225 226
f 168 226 169
f 168 224 227
f 168 227 225
f 169 226 174
f 171 221 220
f 171 220 228
f 171 228 172
f 172 228 229
f 172 229 230
f 172 230 231
f 172 231 232
f 172 232 173
f 173 232 233
f 173 233 234
f 173 234 235
f 173 235 223
f 173 223 222
f 174 226 179
f 176 178 180
f 177 236 237
f 177 237 238
f 177 238 178
f 177 179 236
f 178 238 239
f 178 239 180
f 179 240 236
f 179 226 240
f 180 239 241
f 180 241 181
f 181 241 182
f 182 241 242
f 182 242 183
f 183 242 184
f 184 243 244
f 184 244 245
f 184 245 185
f 184 242 243
f 185 246 247
f 185 247 187
f 185 187 186
f 185 245 246
f 187 247 248
f 187 248 249
f 187 249 250
f 187 250 188
f 188 250 189
f 189 250 190
f 190 250 249
f 190 249 251
f 190 251 252
f 190 252 253
f 190 253 191
f 191 253 254
f 191 254 192
f 192 254 255
f 192 255 256
f 192 256 193
f 193 256 257
f 193 257 258
f 193 258 259
f 193 259 195
f 193 195 194
f 195 259 260
f 195 260 196
f 196 260 197
f 197 260 261
f 197 261 198
f 198 261 199
f 199 262 200
f 199 261 263
f 199 263 262
f 200 262 264
f 200 264 203
f 201 265 266
f 201 266 267
f 201 267 202
f 201 203 264
f 201 264 265
f 202 267 268
f 202 268 269
f 202 269 204
f 204 269 270
f 204 270 205
f 205 270 271
f 205 271 212
f 206 208 207
f 209 213 215
f 210 272 211
f 210 212 273
f 210 273 274
f 210 274 272
f 211 275 213
f 211 272 275
f 212 271 273
f 213 275 276
f 213 276 277
f 213 277 278
f 213 278 215
f 214 279 216
f 214 215 280
f 214 280 279
f 215 278 281
f 215 281 282
f 215 282 280
f 216 279 283
f 216 283 217
f 217 284 285
f 217 285 286
f 217 286 287
f 217 287 288
f 217 288 289
f 217 289 290
f 217 290 291
f 217 291 218
f 217 283 284
f 218 291 220
f 218 220 219
f 220 291 290
f 220 290 292
f 220 292 228
f 223 293 294
f 223 294 295
f 223 295 224
f 223 235 293
f 224 295 227
f 225 227 296
f 225 296 226
f 226 296 240
f 227 295 297
f 227 297 298
f 227 298 299
f 227 299 296
f 228 292 229
f 229 292 290
f 229 290 300
f 229 300 369
f 229 369 301
f 229 301 230
f 230 302 231
f 230 301 303
f 230 303 302
f 231 302 304
f 231 304 305
f 231 305 233
f 231 233 232
f 233 305 234
f 234 305 306
f 234 306 307
f 234 307 308
f 234 308 309
f 234 309 310
f 234 310 235
f 235 310 293
f 236 311 312
f 236 312 313
f 236 313 237
f 236 240 311
f 237 313 314
f 237 314 238
f 238 314 239
f 239 314 241
f 240 296 311
f 241 314 313
f 241 313 315
f 241 315 316
f 241 316 242
f 242 316 317
f 242 317 245
f 242 245 244
f 242 244 243
f 245 317 318
f 245 318 246
f 246 319 247
f 246 318 320
f 246 320 319
f 247 319 321
f 247 321 322
f 247 322 251
f 247 251 248
f 248 251 249
f 251 322 323
f 251 323 324
f 251 324 252
f 252 324 325
f 252 325 253
f 253 325 326
f 253 326 254
f 254 326 327
f 254 327 255
f 255 327 326
f 255 326 396
f 255 396 471
f 255 471 552
f 255 552 629
f 255 629 705
f 255 705 764
f 255 764 766
f 255 766 816
f 255 816 815
f 255 815 854
f 255 854 878
f 255 878 887
f 255 887 886
f 255 886 881
f 255 881 862
f 255 862 821
f 255 821 768
f 255 768 709
f 255 709 633
f 255 633 632
f 255 632 557
f 255 557 473
f 255 473 397
f 255 397 328
f 255 328 261
f 255 261 260
f 255 260 259
f 255 259 258
f 255 258 257
f 255 257 256
f 261 328 262
f 261 262 263
f 262 329 264
f 262 328 329
f 264 329 330
f 264 330 265
f 265 331 332
f 265 332 333
f 265 333 266
f 265 330 331
f 266 333 268
f 266 268 267
f 268 333 334
f 268 334 270
f 268 270 269
f 270 334 335
f 270 335 336
f 270 336 273
f 270 273 271
f 272 337 275
f 272 274 338
f 272 338 336
f 272 336 339
f 272 339 337
f 273 336 338
f 273 338 274
f 275 340 276
f 275 337 341
f 275 341 342
f 275 342 340
f 276 343 277
f 276 340 344
f 276 344 343
f 277 343 345
f 277 345 346
f 277 346 347
f 277 347 348
f 277 348 281
f 277 281 278
f 279 280 349
f 279 349 283
f 280 282 349
f 281 348 282
f 282 348 350
f 282 350 349
f 283 349 351
f 283 351 352
f 283 352 353
f 283 353 284
f 284 353 285
f 285 354 355
f 285 355 286
f 285 353 354
f 286 355 356
f 286 356 357
f 286 357 358
f 286 358 287
f 287 359 289
f 287 289 288
f 287 358 359
f 289 359 360
f 289 360 290
f 290 360 300
f 293 361 362
f 293 362 294
f 293 310 361
f 294 362 363
f 294 363 364
f 294 364 295
f 295 364 297
f 296 299 365
f 296 365 311
f 297 364 298
f 298 364 366
f 298 366 367
f 298 367 368
f 298 368 299
f 299 368 365
f 300 360 369
f 301 369 370
f 301 370 371
f 301 371 372
f 301 372 303
f 302 303 373
f 302 373 304
f 303 372 374
f 303 374 373
f 304 375 307
f 304 307 306
f 304 306 305
f 304 373 376
f 304 376 375
f 307 375 377
f 307 377 378
f 307 378 308
f 308 378 379
f 308 379 380
f 308 380 381
f 308 381 309
f 309 381 382
f 309 382 310
f 310 382 361
f 311 383 384
f 311 384 312
f 311 365 383
f 312 384 385
f 312 385 313
f 313 385 315
f 315 385 386
f 315 386 387
f 315 387 316
f 316 387 318
f 316 318 317
f 318 388 320
f 318 387 388
f 319 389 321
f 319 320 388
f 319 388 389
f 321 389 390
f 321 390 391
f 321 391 323
f 321 323 322
f 323 392 393
f 323 393 324
f 323 391 394
f 323 394 392
f 324 393 395
f 324 395 325
f 325 395 396
f 325 396 326
f 328 397 329
f 329 398 330
f 329 397 398
f 330 398 399
f 330 399 400
f 330 400 331
f 331 401 402
f 331 402 403
f 331 403 404
f 331 404 332
f 331 400 405
f 331 405 401
f 332 404 335
f 332 335 333
f 333 335 334
f 335 406 336
f 335 404 406
f 336 406 407
f 336 407 339
f 337 339 408
f 337 408 341
f 339 407 408
f 340 345 344
f 340 342 409
f 340 409 345
f 341 410 409
f 341 409 342
f 341 408 411
f 341 411 412
f 341 412 413
f 341 413 410
f 343 344 345
f 345 409 414
f 345 414 346
f 346 415 347
f 346 414 415
f 347 416 350
f 347 350 348
f 347 415 416
f 349 350 351
f 350 416 351
f 351 417 352
f 351 416 417
f 352 417 418
f 352 418 353
f 353 418 419
f 353 419 420
f 353 420 354
f 354 420 355
f 355 420 421
f 355 421 422
f 355 422 423
f 355 423 356
f 356 423 424
f 356 424 357
f 357 425 358
f 357 424 426
f 357 426 427
f 357 427 425
f 358 425 428
f 358 428 359
f 359 428 429
f 359 429 430
f 359 430 360
f 360 430 431
f 360 431 369
f 361 382 432
f 361 432 362
f 362 432 433
f 362 433 363
f 363 433 434
f 363 434 435
f 363 435 364
f 364 435 366
f 365 368 383
f 366 435 436
f 366 436 367
f 367 437 368
f 367 436 438
f 367 438 437
f 368 437 383
f 369 431 430
f 369 430 370
f 370 439 440
f 370 440 441
f 370 441 371
f 370 430 439
f 371 441 372
f 372 441 442
f 372 442 374
f 373 374 376
f 374 442 443
f 374 443 444
f 374 444 376
f 375 376 445
f 375 445 377
f 376 444 445
f 377 445 446
f 377 446 378
f 378 446 379
f 379 446 447
f 379 447 448
f 379 448 381
f 379 381 380
f 381 448 449
f 381 449 382
f 382 449 432
f 383 437 450
f 383 450 384
f 384 450 451
f 384 451 452
f 384 452 453
f 384 453 385
f 385 453 386
f 386 453 387
f 387 453 454
f 387 454 455
f 387 455 456
f 387 456 388
f 388 456 389
f 389 456 457
f 389 457 458
f 389 458 459
f 389 459 390
f 390 459 460
f 390 460 461
f 390 461 462
f 390 462 463
f 390 463 464
f 390 464 392
f 390 392 394
f 390 394 391
f 392 464 465
f 392 465 463
f 392 463 466
f 392 466 467
f 392 467 468
f 392 468 393
f 393 468 395
f 395 468 469
f 395 469 470
f 395 470 396
f 396 470 469
f 396 469 472
f 396 472 471
f 397 473 474
f 397 474 475
f 397 475 399
f 397 399 398
f 399 475 476
f 399 476 477
f 399 477 405
f 399 405 400
f 401 405 477
f 401 477 476
f 401 476 478
f 401 478 479
f 401 479 402
f 402 479 480
f 402 480 481
f 402 481 403
f 403 481 404
f 404 481 482
f 404 482 406
f 406 482 407
f 407 482 483
f 407 483 408
f 408 483 484
f 408 484 411
f 409 410 413
f 409 413 485
f 409 485 414
f 411 484 412
f 412 484 486
f 412 486 487
f 412 487 413
f 413 488 485
f 413 487 489
f 413 489 490
f 413 490 488
f 414 485 415
f 415 491 416
f 415 485 492
f 415 492 491
f 416 493 417
f 416 491 493
f 417 493 494
f 417 494 419
f 417 419 418
f 419 494 495
f 419 495 496
f 419 496 420
f 420 496 421
f 421 496 497
f 421 497 422
f 422 497 498
f 422 498 499
f 422 499 500
f 422 500 423
f 423 500 501
f 423 501 502
f 423 502 424
f 424 502 503
f 424 503 426
f 425 427 504
f 425 504 429
f 425 429 428
f 426 503 505
f 426 505 506
f 426 506 507
f 426 507 508
f 426 508 504
f 426 504 427
f 429 504 508
f 429 508 509
f 429 509 510
f 429 510 430
f 430 510 439
f 432 449 433
f 433 449 511
f 433 511 512
f 433 512 434
f 434 513 435
f 434 512 514
f 434 514 515
f 434 515 513
f 435 513 516
f 435 516 517
f 435 517 436
f 436 517 516
f 436 516 518
f 436 518 438
f 437 438 519
f 437 519 451
f 437 451 450
f 438 518 519
f 439 510 520
f 439 520 440
f 440 520 521
f 440 521 441
f 441 521 522
f 441 522 442
f 442 522 523
f 442 523 524
f 442 524 443
f 443 525 444
f 443 524 525
f 444 525 526
f 444 526 446
f 444 446 445
f 446 526 527
f 446 527 528
f 446 528 529
f 446 529 447
f 447 530 531
f 447 531 448
f 447 529 532
f 447 532 533
f 447 533 530
f 448 531 530
f 448 530 534
f 448 534 535
f 448 535 449
f 449 535 536
f 449 536 511
f 451 519 537
f 451 537 452
f 452 454 453
f 452 537 538
f 452 538 455
f 452 455 454
f 455 538 539
f 455 539 540
f 455 540 456
f 456 540 457
f 457 540 541
f 457 541 458
f 458 541 459
f 459 541 460
f 460 541 461
f 461 541 539
f 461 539 542
f 461 542 462
f 462 543 463
f 462 542 544
f 462 544 543
f 463 465 464
f 463 543 545
f 463 545 546
f 463 546 466
f 466 546 547
f 466 547 548
f 466 548 549
f 466 549 550
f 466 550 467
f 467 550 551
f 467 551 469
f 467 469 468
f 469 551 472
f 471 472 553
f 471 553 552
f 472 551 554
f 472 554 555
f 472 555 556
f 472 556 553
f 473 557 474
f 474 557 558
f 474 558 559
f 474 559 476
f 474 476 475
f 476 559 560
f 476 560 478
f 478 561 479
f 478 560 561
f 479 561 562
f 479 562 563
f 479 563 480
f 480 563 481
f 481 563 564
f 481 564 565
f 481 565 482
f 482 565 483
f 483 565 566
f 483 566 484
f 484 566 567
f 484 567 568
f 484 568 569
f 484 569 486
f 485 488 492
f 486 569 487
f 487 569 568
f 487 568 570
f 487 570 489
f 488 571 492
f 488 490 572
f 488 572 571
f 489 572 490
f 489 570 573
f 489 573 574
f 489 574 572
f 491 492 571
f 491 571 493
f 493 575 497
f 493 497 495
f 493 495 494
f 493 571 572
f 493 572 575
f 495 497 496
f 497 575 576
f 497 576 577
f 497 577 578
f 497 578 498
f 498 578 579
f 498 579 580
f 498 580 499
f 499 580 581
f 499 581 582
f 499 582 583
f 499 583 500
f 500 583 501
f 501 583 502
f 502 583 584
f 502 584 503
f 503 584 585
f 503 585 505
f 505 585 506
f 506 585 507
f 507 586 508
f 507 585 587
f 507 587 588
f 507 588 586
f 508 586 589
f 508 589 590
f 508 590 591
f 508 591 509
f 509 591 510
f 510 591 520
f 511 536 592
f 511 592 593
f 511 593 512
f 512 593 594
f 512 594 514
f 513 515 516
f 514 594 595
f 514 595 596
f 514 596 515
f 515 596 516
f 516 597 518
f 516 596 598
f 516 598 597
f 518 597 599
f 518 599 519
f 519 599 600
f 519 600 601
f 519 601 602
f 519 602 537
f 520 591 603
f 520 603 604
f 520 604 521
f 521 604 603
f 521 603 605
f 521 605 606
f 521 606 522
f 522 606 607
f 522 607 608
f 522 608 523
f 523 608 607
f 523 607 524
f 524 609 525
f 524 607 610
f 524 610 609
f 525 609 526
f 526 609 611
f 526 611 612
f 526 612 527
f 527 612 528
f 528 612 532
f 528 532 529
f 530 613 614
f 530 614 592
f 530 592 535
f 530 535 534
f 530 533 615
f 530 615 613
f 532 616 617
f 532 617 615
f 532 615 533
f 532 612 618
f 532 618 619
f 532 619 620
f 532 620 616
f 535 592 536
f 537 602 544
f 537 544 542
f 537 542 538
f 538 542 539
f 539 541 540
f 543 544 545
f 544 601 545
f 544 602 601
f 545 601 546
f 546 601 621
f 546 621 547
f 547 622 623
f 547 623 548
f 547 621 624
f 547 624 625
f 547 625 626
f 547 626 627
f 547 627 622
f 548 623 628
f 548 628 549
f 549 628 556
f 549 556 555
f 549 555 554
f 549 554 551
f 549 551 550
f 552 553 630
f 552 630 629
f 553 556 630
f 556 631 630
f 556 628 631
f 557 632 558
f 558 632 633
f 558 633 634
f 558 634 635
f 558 635 559
f 559 635 636
f 559 636 560
f 560 636 637
f 560 637 561
f 561 637 562
f 562 637 638
f 562 638 573
f 562 573 563
f 563 573 570
f 563 570 564
f 564 570 567
f 564 567 566
f 564 566 565
f 567 570 568
f 572 574 639
f 572 639 640
f 572 640 576
f 572 576 575
f 573 638 574
f 574 638 639
f 576 640 639
f 576 639 577
f 577 639 641
f 577 641 642
f 577 642 643
f 577 643 578
f 578 643 579
f 579 643 644
f 579 644 645
f 579 645 646
f 579 646 647
f 579 647 580
f 580 647 581
f 581 647 648
f 581 648 582
f 582 648 649
f 582 649 650
f 582 650 583
f 583 650 584
f 584 650 651
f 584 651 585
f 585 651 652
f 585 652 653
f 585 653 654
f 585 654 587
f 586 588 655
f 586 655 589
f 587 654 656
f 587 656 657
f 587 657 658
f 587 658 588
f 588 658 655
f 589 659 590
f 589 655 660
f 589 660 659
f 590 659 661
f 590 661 591
f 591 661 603
f 592 614 662
f 592 662 593
f 593 662 594
f 594 662 663
f 594 663 595
f 595 663 664
f 595 664 665
f 595 665 596
f 596 665 666
f 596 666 667
f 596 667 621
f 596 621 668
f 596 668 598
f 597 598 669
f 597 669 600
f 597 600 599
f 598 668 621
f 598 621 669
f 600 669 621
f 600 621 601
f 603 661 670
f 603 670 671
f 603 671 672
f 603 672 673
f 603 673 605
f 605 673 674
f 605 674 675
f 605 675 676
f 605 676 606
f 606 676 677
f 606 677 607
f 607 677 678
f 607 678 610
f 609 610 679
f 609 679 680
f 609 680 612
f 609 612 611
f 610 681 679
f 610 678 682
f 610 682 683
f 610 683 681
f 612 680 684
f 612 684 685
f 612 685 618
f 613 615 614
f 614 686 687
f 614 687 662
f 614 615 688
f 614 688 620
f 614 620 689
f 614 689 686
f 615 617 688
f 616 620 617
f 617 620 688
f 618 685 690
f 618 690 691
f 618 691 619
f 619 691 692
f 619 692 620
f 620 692 693
f 620 693 694
f 620 694 689
f 621 695 624
f 621 667 695
f 622 696 697
f 622 697 623
f 622 627 698
f 622 698 696
f 623 697 628
f 624 695 625
f 625 699 700
f 625 700 626
f 625 695 666
f 625 666 701
f 625 701 699
f 626 700 627
f 627 700 702
f 627 702 703
f 627 703 698
f 628 697 704
f 628 704 631
f 629 630 705
f 630 631 706
f 630 706 705
f 631 707 708
f 631 708 706
f 631 704 707
f 633 709 634
f 634 710 635
f 634 709 710
f 635 711 712
f 635 712 713
f 635 713 636
f 635 710 714
f 635 714 711
f 636 713 637
f 637 713 715
f 637 715 638
f 638 715 639
f 639 715 716
f 639 716 641
f 641 716 717
f 641 717 642
f 642 717 644
f 642 644 643
f 644 717 718
f 644 718 645
f 645 718 646
f 646 718 719
f 646 719 720
f 646 720 647
f 647 720 648
f 648 720 649
f 649 720 721
f 649 721 722
f 649 722 650
f 650 722 723
f 650 723 724
f 650 724 651
f 651 724 725
f 651 725 652
f 652 725 653
f 653 725 726
f 653 726 656
f 653 656 654
f 655 658 657
f 655 657 656
f 655 656 727
f 655 727 728
f 655 728 660
f 656 726 729
f 656 729 730
f 656 730 727
f 659 670 661
f 659 660 670
f 660 728 671
f 660 671 670
f 662 687 731
f 662 731 664
f 662 664 663
f 664 731 666
f 664 666 665
f 666 731 701
f 666 695 667
f 671 728 732
f 671 732 733
f 671 733 734
f 671 734 672
f 672 734 735
f 672 735 674
f 672 674 673
f 674 735 675
f 675 735 736
f 675 736 737
f 675 737 738
f 675 738 676
f 676 738 739
f 676 739 740
f 676 740 741
f 676 741 742
f 676 742 677
f 677 742 682
f 677 682 678
f 679 681 684
f 679 684 680
f 681 683 743
f 681 743 744
f 681 744 684
f 682 742 743
f 682 743 683
f 684 744 745
f 684 745 685
f 685 745 746
f 685 746 690
f 686 689 747
f 686 747 748
f 686 748 687
f 687 748 749
f 687 749 731
f 689 694 750
f 689 750 751
f 689 751 747
f 690 746 752
f 690 752 753
f 690 753 754
f 690 754 691
f 691 754 692
f 692 754 755
f 692 755 756
f 692 756 693
f 693 756 750
f 693 750 694
f 696 757 758
f 696 758 697
f 696 698 757
f 697 758 704
f 698 703 759
f 698 759 760
f 698 760 757
f 699 701 761
f 699 761 700
f 700 761 762
f 700 762 759
f 700 759 702
f 701 731 761
f 702 759 703
f 704 763 707
f 704 758 763
f 705 706 764
f 706 708 765
f 706 765 766
f 706 766 764
f 707 763 708
f 708 763 767
f 708 767 765
f 709 768 711
f 709 711 714
f 709 714 710
f 711 769 712
f 711 768 769
f 712 770 771
f 712 771 713
f 712 769 770
f 713 771 715
f 715 771 772
f 715 772 716
f 716 772 718
f 716 718 717
f 718 772 773
f 718 773 774
f 718 774 719
f 719 774 775
f 719 775 776
f 719 776 777
f 719 777 722
f 719 722 721
f 719 721 720
f 722 777 723
f 723 777 778
f 723 778 724
f 724 778 726
f 724 726 725
f 726 778 779
f 726 779 780
f 726 780 781
f 726 781 729
f 727 730 728
f 728 730 729
f 728 729 732
f 729 782 732
f 729 781 783
f 729 783 782
f 731 749 761
f 732 782 784
f 732 784 734
f 732 734 733
f 734 784 785
f 734 785 735
f 735 785 736
f 736 785 786
f 736 786 737
f 737 786 787
f 737 787 788
f 737 788 738
f 738 788 739
f 739 788 789
f 739 789 740
f 740 789 741
f 741 790 742
f 741 789 790
f 742 790 743
f 743 790 791
f 743 791 744
f 744 791 745
f 745 791 792
f 745 792 746
f 746 792 793
f 746 793 752
f 747 751 794
f 747 794 795
f 747 795 796
f 747 796 797
f 747 797 749
f 747 749 798
f 747 798 748
f 748 798 749
f 749 797 759
f 749 759 762
f 749 762 761
f 750 756 799
f 750 799 800
f 750 800 751
f 751 800 794
f 752 801 802
f 752 802 803
f 752 803 753
f 752 793 792
f 752 792 801
f 753 803 804
f 753 804 754
f 754 804 755
f 755 804 805
f 755 805 799
f 755 799 756
f 757 760 806
f 757 806 807
f 757 807 808
f 757 808 758
f 758 809 810
f 758 810 811
f 758 811 763
f 758 808 812
f 758 812 809
f 759 797 813
f 759 813 814
f 759 814 760
f 760 814 806
f 763 811 767
f 765 815 816
f 765 816 766
f 765 767 817
f 765 817 818
f 765 818 819
f 765 819 815
f 767 820 817
f 767 811 820
f 768 821 822
f 768 822 823
f 768 823 824
f 768 824 769
f 769 773 770
f 769 824 773
f 770 773 771
f 771 773 772
f 773 824 825
f 773 825 826
f 773 826 775
f 773 775 774
f 775 826 776
f 776 826 777
f 777 826 827
f 777 827 778
f 778 827 828
f 778 828 779
f 779 828 780
f 780 828 829
f 780 829 830
f 780 830 781
f 781 830 831
f 781 831 783
f 782 832 785
f 782 785 784
f 782 783 833
f 782 833 832
f 783 831 834
f 783 834 835
f 783 835 833
f 785 832 786
f 786 836 787
f 786 832 837
f 786 837 836
f 787 836 788
f 788 836 838
f 788 838 789
f 789 838 839
f 789 839 840
f 789 840 792
f 789 792 791
f 789 791 790
f 792 840 841
f 792 841 801
f 794 800 842
f 794 842 812
f 794 812 795
f 795 812 807
f 795 807 796
f 796 807 814
f 796 814 813
f 796 813 797
f 799 805 843
f 799 843 844
f 799 844 845
f 799 845 800
f 800 845 844
f 800 844 842
f 801 841 846
f 801 846 847
f 801 847 802
f 802 848 849
f 802 849 850
f 802 850 851
f 802 851 803
f 802 847 848
f 803 851 804
f 804 851 805
f 805 851 843
f 806 814 807
f 807 812 808
f 809 812 842
f 809 842 844
f 809 844 843
f 809 843 852
f 809 852 811
f 809 811 810
f 811 852 853
f 811 853 820
f 815 819 855
f 815 855 854
f 817 820 856
f 817 856 857
f 817 857 818
f 818 857 819
f 819 857 858
f 819 858 859
f 819 859 855
f 820 853 843
f 820 843 860
f 820 860 861
f 820 861 856
f 821 862 822
f 822 829 828
f 822 828 826
f 822 826 825
f 822 825 823
f 822 862 863
f 822 863 829
f 823 825 824
f 826 828 827
f 829 864 830
f 829 863 862
f 829 862 865
f 829 865 864
f 830 864 831
f 831 864 834
f 832 833 866
f 832 866 837
f 833 835 866
f 834 864 835
f 835 867 866
f 835 864 868
f 835 868 867
f 836 869 838
f 836 837 870
f 836 870 869
f 837 866 871
f 837 871 872
f 837 872 870
f 838 869 839
f 839 841 840
f 839 869 873
f 839 873 841
f 841 873 846
f 843 851 860
f 843 853 852
f 846 873 847
f 847 873 874
f 847 874 870
f 847 870 875
f 847 875 876
f 847 876 877
f 847 877 848
f 848 877 858
f 848 858 849
f 849 858 857
f 849 857 861
f 849 861 850
f 850 861 851
f 851 861 860
f 854 855 879
f 854 879 878
f 855 859 879
f 856 861 857
f 858 877 876
f 858 876 859
f 859 876 880
f 859 880 879
f 862 881 865
f 864 865 881
f 864 881 868
f 866 867 882
f 866 882 871
f 867 868 883
f 867 883 884
f 867 884 885
f 867 885 882
f 868 881 886
f 868 886 883
f 869 870 874
f 869 874 873
f 870 872 875
f 871 882 880
f 871 880 872
f 872 880 876
f 872 876 875
f 878 885 887
f 878 879 888
f 878 888 885
f 879 880 888
f 880 882 888
f 882 885 888
f 883 886 887
f 883 887 885
f 883 885 884

