# https://github.com/mikedh/trimesh
v -0.02138492 0.01240316 0.00447319 0.43529412 0.89019608 0.96078431
v -0.02799258 0.01160902 0.00634077 0.43529412 0.89019608 0.96078431
v -0.02359396 0.01166364 0.00647790 0.43529412 0.89019608 0.96078431
v -0.02138492 0.01169726 0.00652843 0.43529412 0.89019608 0.96078431
v -0.01918561 0.01239685 0.00447319 0.43529412 0.89019608 0.96078431
v -0.01478699 0.01239895 0.00227361 0.43529412 0.89019608 0.96078431
v -0.01918561 0.01237374 0.00227361 0.43529412 0.89019608 0.96078431
v -0.02138492 0.01235273 0.00227361 0.43529412 0.89019608 0.96078431
v -0.03678982 0.01194516 0.00447319 0.43529412 0.89019608 0.96078431
v -0.03678982 0.01148507 0.00607371 0.43529412 0.89019608 0.96078431
v -0.02138492 0.01101237 0.00762912 0.43529412 0.89019608 0.96078431
v -0.01918561 0.01100606 0.00761649 0.43529412 0.89019608 0.96078431
v -0.01918561 0.01168675 0.00651579 0.43529412 0.89019608 0.96078431
v -0.01478699 0.01233593 0.00447319 0.43529412 0.89019608 0.96078431
v -0.01478699 0.01190735 0.00007583 0.43529412 0.89019608 0.96078431
v -0.01258767 0.01228971 0.00447319 0.43529412 0.89019608 0.96078431
v -0.01258767 0.01235063 0.00227361 0.43529412 0.89019608 0.96078431
v -0.01258767 0.01187583 0.00007583 0.43529412 0.89019608 0.96078431
v -0.02138492 0.01179600 0.00007583 0.43529412 0.89019608 0.96078431
v -0.04118844 0.01169936 0.00227361 0.43529412 0.89019608 0.96078431
v -0.03898913 0.01187373 0.00447319 0.43529412 0.89019608 0.96078431
v -0.03898913 0.01143885 0.00598890 0.43529412 0.89019608 0.96078431
v -0.02359396 0.01096825 0.00757679 0.43529412 0.89019608 0.96078431
v -0.02138492 0.00991150 0.00859087 0.43529412 0.89019608 0.96078431
v -0.01918561 0.00990520 0.00861975 0.43529412 0.89019608 0.96078431
v -0.01698629 0.00986528 0.00860351 0.43529412 0.89019608 0.96078431
v -0.01258767 0.00977915 0.00851870 0.43529412 0.89019608 0.96078431
v -0.01258767 0.01088001 0.00747033 0.43529412 0.89019608 0.96078431
v -0.00379044 0.01150608 0.00612604 0.43529412 0.89019608 0.96078431
v -0.01258767 0.01161952 0.00636964 0.43529412 0.89019608 0.96078431
v -0.01478699 0.01133801 -0.00134966 0.43529412 0.89019608 0.96078431
v -0.02138492 0.01127918 -0.00125944 0.43529412 0.89019608 0.96078431
v -0.01258767 0.01132540 -0.00133162 0.43529412 0.89019608 0.96078431
v -0.00159113 0.01146196 0.00606649 0.43529412 0.89019608 0.96078431
v -0.00379044 0.01202710 0.00447319 0.43529412 0.89019608 0.96078431
v -0.00818906 0.01223719 0.00227361 0.43529412 0.89019608 0.96078431
v -0.00818906 0.01177919 0.00007583 0.43529412 0.89019608 0.96078431
v -0.00818906 0.01127918 -0.00124501 0.43529412 0.89019608 0.96078431
v -0.04118844 0.01128548 0.00090766 0.43529412 0.89019608 0.96078431
v -0.04299849 0.01122666 0.00101773 0.43529412 0.89019608 0.96078431
v -0.04359212 0.01149557 0.00205888 0.43529412 0.89019608 0.96078431
v -0.04558707 0.01138843 0.00254066 0.43529412 0.89019608 0.96078431
v -0.04118844 0.01173927 0.00447319 0.43529412 0.89019608 0.96078431
v -0.04118844 0.01132540 0.00583192 0.43529412 0.89019608 0.96078431
v -0.03898913 0.01034008 0.00708960 0.43529412 0.89019608 0.96078431
v -0.03678982 0.01048925 0.00717260 0.43529412 0.89019608 0.96078431
v -0.02799258 0.01082329 0.00743966 0.43529412 0.89019608 0.96078431
v -0.02579327 0.01090102 0.00751003 0.43529412 0.89019608 0.96078431
v -0.02579327 0.00980226 0.00846637 0.43529412 0.89019608 0.96078431
v -0.02359396 0.00986738 0.00853313 0.43529412 0.89019608 0.96078431
v -0.01918561 0.00839676 0.00971864 0.43529412 0.89019608 0.96078431
v -0.01698629 0.00839466 0.00970420 0.43529412 0.89019608 0.96078431
v -0.01478699 0.00982117 0.00856200 0.43529412 0.89019608 0.96078431
v 0.00499707 0.00934006 0.00812894 0.43529412 0.89019608 0.96078431
v 0.00060819 0.01054387 0.00710223 0.43529412 0.89019608 0.96078431
v 0.00060819 0.01141364 0.00600334 0.43529412 0.89019608 0.96078431
v -0.01478699 0.01060900 -0.00245036 0.43529412 0.89019608 0.96078431
v -0.01698629 0.01061530 -0.00241607 0.43529412 0.89019608 0.96078431
v -0.01918561 0.01059639 -0.00239803 0.43529412 0.89019608 0.96078431
v -0.01918561 0.01129389 -0.00129733 0.43529412 0.89019608 0.96078431
v -0.02138492 0.01053967 -0.00236014 0.43529412 0.89019608 0.96078431
v -0.03474622 0.00960477 -0.00233668 0.43529412 0.89019608 0.96078431
v -0.04118844 0.01057748 -0.00019303 0.43529412 0.89019608 0.96078431
v -0.01258767 0.01059639 -0.00243051 0.43529412 0.89019608 0.96078431
v -0.00159113 0.01195146 0.00447319 0.43529412 0.89019608 0.96078431
v -0.00159113 0.01200819 0.00227361 0.43529412 0.89019608 0.96078431
v 0.00719638 0.01165104 0.00227361 0.43529412 0.89019608 0.96078431
v -0.00159113 0.01151658 0.00017327 0.43529412 0.89019608 0.96078431
v -0.01038837 0.01056698 -0.00238901 0.43529412 0.89019608 0.96078431
v 0.00499707 0.01094724 -0.00050159 0.43529412 0.89019608 0.96078431
v -0.00159113 0.01108800 -0.00092743 0.43529412 0.89019608 0.96078431
v 0.00719638 0.01001235 -0.00212556 0.43529412 0.89019608 0.96078431
v 0.00940543 0.00909216 -0.00340489 0.43529412 0.89019608 0.96078431
v -0.04359212 0.01060900 0.00020033 0.43529412 0.89019608 0.96078431
v -0.04445821 0.01112582 0.00118555 0.43529412 0.89019608 0.96078431
v -0.04558707 0.01105439 0.00144177 0.43529412 0.89019608 0.96078431
v -0.04811724 0.01088631 0.00200295 0.43529412 0.89019608 0.96078431
v -0.04811724 0.01095354 0.00222850 0.43529412 0.89019608 0.96078431
v -0.04811724 0.01120145 0.00308560 0.43529412 0.89019608 0.96078431
v -0.04811724 0.01120145 0.00368105 0.43529412 0.89019608 0.96078431
v -0.04558707 0.01138843 0.00421516 0.43529412 0.89019608 0.96078431
v -0.04357265 0.01148717 0.00468251 0.43529412 0.89019608 0.96078431
v -0.04442902 0.01112161 0.00555404 0.43529412 0.89019608 0.96078431
v -0.04295957 0.01121195 0.00568215 0.43529412 0.89019608 0.96078431
v -0.04811724 0.00981276 0.00631009 0.43529412 0.89019608 0.96078431
v -0.04245353 0.00896190 0.00779513 0.43529412 0.89019608 0.96078431
v -0.04118844 0.00906695 0.00786550 0.43529412 0.89019608 0.96078431
v -0.03898913 0.00923922 0.00798459 0.43529412 0.89019608 0.96078431
v -0.03678982 0.00938838 0.00810368 0.43529412 0.89019608 0.96078431
v -0.03459051 0.00947872 0.00818127 0.43529412 0.89019608 0.96078431
v -0.02579327 0.00813625 0.00956706 0.43529412 0.89019608 0.96078431
v -0.02359396 0.00821188 0.00963383 0.43529412 0.89019608 0.96078431
v -0.02138492 0.00829172 0.00968976 0.43529412 0.89019608 0.96078431
v -0.02579327 0.00703539 0.01010658 0.43529412 0.89019608 0.96078431
v -0.01918561 0.00729590 0.01019861 0.43529412 0.89019608 0.96078431
v -0.01698629 0.00729590 0.01020944 0.43529412 0.89019608 0.96078431
v -0.01038837 0.00709631 0.01014448 0.43529412 0.89019608 0.96078431
v 0.00279776 0.00661941 0.00993516 0.43529412 0.89019608 0.96078431
v -0.01258767 0.00825600 0.00961759 0.43529412 0.89019608 0.96078431
v 0.00279776 0.00782952 0.00923144 0.43529412 0.89019608 0.96078431
v 0.00719638 0.00926653 0.00806940 0.43529412 0.89019608 0.96078431
v 0.00279776 0.01049135 0.00702464 0.43529412 0.89019608 0.96078431
v 0.00279776 0.01136111 0.00592395 0.43529412 0.89019608 0.96078431
v -0.01478699 0.00951023 -0.00393900 0.43529412 0.89019608 0.96078431
v -0.01698629 0.00951444 -0.00394441 0.43529412 0.89019608 0.96078431
v -0.01258767 0.00949763 -0.00392817 0.43529412 0.89019608 0.96078431
v -0.01918561 0.00949763 -0.00390652 0.43529412 0.89019608 0.96078431
v -0.02138492 0.00944090 -0.00382713 0.43529412 0.89019608 0.96078431
v -0.03239120 0.00906485 -0.00337422 0.43529412 0.89019608 0.96078431
v -0.03412340 0.00899762 -0.00330024 0.43529412 0.89019608 0.96078431
v -0.03558312 0.00891988 -0.00321182 0.43529412 0.89019608 0.96078431
v -0.04338775 0.00938208 -0.00151928 0.43529412 0.89019608 0.96078431
v -0.01038837 0.00946822 -0.00390291 0.43529412 0.89019608 0.96078431
v 0.00060819 0.01186953 0.00447319 0.43529412 0.89019608 0.96078431
v 0.00279776 0.01178549 0.00447319 0.43529412 0.89019608 0.96078431
v 0.00719638 0.01126657 0.00075609 0.43529412 0.89019608 0.96078431
v 0.00060819 0.01145355 0.00031582 0.43529412 0.89019608 0.96078431
v 0.00499707 0.01167835 0.00447319 0.43529412 0.89019608 0.96078431
v 0.00940543 0.01143255 0.00431080 0.43529412 0.89019608 0.96078431
v 0.01492316 0.01113212 0.00337972 0.43529412 0.89019608 0.96078431
v 0.01492316 0.01113212 0.00336348 0.43529412 0.89019608 0.96078431
v 0.00940543 0.01148297 0.00227361 0.43529412 0.89019608 0.96078431
v 0.01056347 0.01113422 0.00116028 0.43529412 0.89019608 0.96078431
v 0.00940543 0.01118254 0.00101052 0.43529412 0.89019608 0.96078431
v 0.00719638 0.01090312 -0.00034460 0.43529412 0.89019608 0.96078431
v 0.00719638 0.00914048 -0.00345722 0.43529412 0.89019608 0.96078431
v 0.00940543 0.00989260 -0.00212556 0.43529412 0.89019608 0.96078431
v 0.01160474 0.00900812 -0.00331467 0.43529412 0.89019608 0.96078431
v 0.01160474 0.00798709 -0.00441537 0.43529412 0.89019608 0.96078431
v 0.01380405 0.00681479 -0.00549802 0.43529412 0.89019608 0.96078431
v 0.01160474 0.00688833 -0.00556839 0.43529412 0.89019608 0.96078431
v -0.01038837 0.00852702 -0.00500180 0.43529412 0.89019608 0.96078431
v -0.04558707 0.01023924 0.00007583 0.43529412 0.89019608 0.96078431
v -0.04811724 0.00968461 0.00014440 0.43529412 0.89019608 0.96078431
v -0.04811724 0.01116783 0.00382721 0.43529412 0.89019608 0.96078431
v -0.04811724 0.01091993 0.00476551 0.43529412 0.89019608 0.96078431
v -0.04811724 0.01075186 0.00504519 0.43529412 0.89019608 0.96078431
v -0.04811724 0.00782952 0.00706434 0.43529412 0.89019608 0.96078431
v -0.04778637 0.00782952 0.00714914 0.43529412 0.89019608 0.96078431
v -0.04508102 0.00730430 0.00800263 0.43529412 0.89019608 0.96078431
v -0.04392298 0.00877072 0.00769949 0.43529412 0.89019608 0.96078431
v -0.04327098 0.00795348 0.00810368 0.43529412 0.89019608 0.96078431
v -0.03678982 0.00782952 0.00888860 0.43529412 0.89019608 0.96078431
v -0.03459051 0.00782952 0.00910874 0.43529412 0.89019608 0.96078431
v -0.02799258 0.00687362 0.01003802 0.43529412 0.89019608 0.96078431
v -0.02579327 0.00562989 0.01044582 0.43529412 0.89019608 0.96078431
v -0.02799258 0.00562989 0.01035018 0.43529412 0.89019608 0.96078431
v -0.01918561 0.00562989 0.01059197 0.43529412 0.89019608 0.96078431
v -0.01698629 0.00562989 0.01062626 0.43529412 0.89019608 0.96078431
v -0.01038837 0.00562989 0.01053965 0.43529412 0.89019608 0.96078431
v 0.00279776 0.00551855 0.01026718 0.43529412 0.89019608 0.96078431
v 0.00940543 0.00511728 0.01015350 0.43529412 0.89019608 0.96078431
v 0.00940543 0.00621814 0.00978901 0.43529412 0.89019608 0.96078431
v 0.00940543 0.00782952 0.00889221 0.43529412 0.89019608 0.96078431
v 0.00719638 0.00782952 0.00901311 0.43529412 0.89019608 0.96078431
v 0.00499707 0.00782952 0.00912318 0.43529412 0.89019608 0.96078431
v 0.05129937 0.00486727 0.00800624 0.43529412 0.89019608 0.96078431
v 0.02040198 0.00861105 0.00755694 0.43529412 0.89019608 0.96078431
v 0.02480060 0.00952914 0.00626318 0.43529412 0.89019608 0.96078431
v 0.02260129 0.00960267 0.00636603 0.43529412 0.89019608 0.96078431
v 0.00499707 0.01044093 0.00689292 0.43529412 0.89019608 0.96078431
v 0.00499707 0.01127078 0.00579222 0.43529412 0.89019608 0.96078431
v 0.00740074 0.01147246 0.00468972 0.43529412 0.89019608 0.96078431
v -0.01478699 0.00853752 -0.00503970 0.43529412 0.89019608 0.96078431
v -0.01698629 0.00854593 -0.00504511 0.43529412 0.89019608 0.96078431
v -0.01258767 0.00853542 -0.00502706 0.43529412 0.89019608 0.96078431
v -0.01918561 0.00849130 -0.00500722 0.43529412 0.89019608 0.96078431
v -0.02359396 0.00832113 -0.00484121 0.43529412 0.89019608 0.96078431
v -0.02579327 0.00824760 -0.00474016 0.43529412 0.89019608 0.96078431
v -0.03474622 0.00804381 -0.00409959 0.43529412 0.89019608 0.96078431
v -0.03678982 0.00774129 -0.00415914 0.43529412 0.89019608 0.96078431
v -0.02799258 0.00702909 -0.00567124 0.43529412 0.89019608 0.96078431
v -0.03898913 0.00757742 -0.00402742 0.43529412 0.89019608 0.96078431
v -0.03678982 0.00884005 -0.00312160 0.43529412 0.89019608 0.96078431
v -0.04338775 0.00831063 -0.00261817 0.43529412 0.89019608 0.96078431
v -0.04558707 0.00921611 -0.00131177 0.43529412 0.89019608 0.96078431
v -0.03898913 0.00867618 -0.00294296 0.43529412 0.89019608 0.96078431
v 0.02040198 0.01008798 0.00007583 0.43529412 0.89019608 0.96078431
v 0.00940543 0.01083169 -0.00009018 0.43529412 0.89019608 0.96078431
v 0.02480060 0.01029807 0.00447319 0.43529412 0.89019608 0.96078431
v 0.02480060 0.01030227 0.00227361 0.43529412 0.89019608 0.96078431
v 0.02260129 0.00991781 0.00007583 0.43529412 0.89019608 0.96078431
v 0.02260129 0.00923082 -0.00146875 0.43529412 0.89019608 0.96078431
v 0.01160474 0.00971822 -0.00212556 0.43529412 0.89019608 0.96078431
v 0.01516645 0.00675597 -0.00544569 0.43529412 0.89019608 0.96078431
v 0.05129937 0.00626226 -0.00260373 0.43529412 0.89019608 0.96078431
v 0.01380405 0.00562989 -0.00614400 0.43529412 0.89019608 0.96078431
v 0.01160474 0.00562989 -0.00627031 0.43529412 0.89019608 0.96078431
v -0.00818906 0.00737153 -0.00595093 0.43529412 0.89019608 0.96078431
v -0.01038837 0.00742615 -0.00597799 0.43529412 0.89019608 0.96078431
v -0.04685215 0.00903963 -0.00112050 0.43529412 0.89019608 0.96078431
v -0.04698839 0.00507316 -0.00367375 0.43529412 0.89019608 0.96078431
v -0.04811724 0.00782952 -0.00068924 0.43529412 0.89019608 0.96078431
v -0.04811724 -0.00316652 0.00753168 0.43529412 0.89019608 0.96078431
v -0.04718303 -0.00316652 0.00791602 0.43529412 0.89019608 0.96078431
v -0.04553840 0.00343026 0.00828954 0.43529412 0.89019608 0.96078431
v -0.04546055 0.00562989 0.00817947 0.43529412 0.89019608 0.96078431
v -0.04338775 0.00562989 0.00871538 0.43529412 0.89019608 0.96078431
v -0.03600157 0.00480845 0.01005426 0.43529412 0.89019608 0.96078431
v -0.03459051 0.00614251 0.00980164 0.43529412 0.89019608 0.96078431
v -0.02922848 0.00675807 0.00998569 0.43529412 0.89019608 0.96078431
v -0.03459051 0.00504165 0.01010478 0.43529412 0.89019608 0.96078431
v -0.02579327 0.00343026 0.01070385 0.43529412 0.89019608 0.96078431
v -0.02799258 0.00343026 0.01061363 0.43529412 0.89019608 0.96078431
v -0.01918561 0.00343026 0.01083377 0.43529412 0.89019608 0.96078431
v -0.01698629 0.00343026 0.01086985 0.43529412 0.89019608 0.96078431
v -0.01038837 0.00343026 0.01081211 0.43529412 0.89019608 0.96078431
v 0.00060819 0.00343026 0.01067317 0.43529412 0.89019608 0.96078431
v 0.00279776 0.00343026 0.01064430 0.43529412 0.89019608 0.96078431
v 0.00940543 0.00343026 0.01040973 0.43529412 0.89019608 0.96078431
v 0.01160474 0.00489248 0.01008674 0.43529412 0.89019608 0.96078431
v 0.05129937 0.00343026 0.00840502 0.43529412 0.89019608 0.96078431
v 0.05129937 0.00352691 0.00838156 0.43529412 0.89019608 0.96078431
v 0.05129937 0.00601646 0.00695607 0.43529412 0.89019608 0.96078431
v 0.02699991 0.00941779 0.00612965 0.43529412 0.89019608 0.96078431
v 0.00826685 0.01112792 0.00556667 0.43529412 0.89019608 0.96078431
v -0.01698629 0.00744506 -0.00596175 0.43529412 0.89019608 0.96078431
v -0.01918561 0.00739044 -0.00591123 0.43529412 0.89019608 0.96078431
v -0.02579327 0.00714674 -0.00575424 0.43529412 0.89019608 0.96078431
v -0.03338381 0.00670975 -0.00541501 0.43529412 0.89019608 0.96078431
v -0.03459051 0.00660471 -0.00536269 0.43529412 0.89019608 0.96078431
v -0.02799258 0.00562989 -0.00637677 0.43529412 0.89019608 0.96078431
v -0.03678982 0.00640092 -0.00525803 0.43529412 0.89019608 0.96078431
v -0.04118844 0.00739884 -0.00387224 0.43529412 0.89019608 0.96078431
v -0.04338775 0.00721186 -0.00370082 0.43529412 0.89019608 0.96078431
v -0.04495452 0.00698497 -0.00348068 0.43529412 0.89019608 0.96078431
v 0.02699991 0.01010058 0.00447319 0.43529412 0.89019608 0.96078431
v 0.02699991 0.01011109 0.00227361 0.43529412 0.89019608 0.96078431
v 0.02480060 0.00972032 0.00007583 0.43529412 0.89019608 0.96078431
v 0.05129937 0.00691984 -0.00143266 0.43529412 0.89019608 0.96078431
v 0.01593524 0.00581477 -0.00590762 0.43529412 0.89019608 0.96078431
v 0.05129937 0.00522022 -0.00369540 0.43529412 0.89019608 0.96078431
v 0.01820266 0.00545762 -0.00591303 0.43529412 0.89019608 0.96078431
v 0.01600336 0.00343026 -0.00671600 0.43529412 0.89019608 0.96078431
v 0.01160474 0.00343026 -0.00695960 0.43529412 0.89019608 0.96078431
v 0.00940543 0.00343026 -0.00705703 0.43529412 0.89019608 0.96078431
v 0.00940543 0.00562989 -0.00633888 0.43529412 0.89019608 0.96078431
v -0.00818906 0.00562989 -0.00686577 0.43529412 0.89019608 0.96078431
v -0.01038837 0.00562989 -0.00687840 0.43529412 0.89019608 0.96078431
v -0.04642397 0.00653958 -0.00306566 0.43529412 0.89019608 0.96078431
v -0.04548975 0.00555426 -0.00431071 0.43529412 0.89019608 0.96078431
v -0.04455553 0.00457105 -0.00544569 0.43529412 0.89019608 0.96078431
v -0.04604444 0.00343026 -0.00512450 0.43529412 0.89019608 0.96078431
v -0.04717329 0.00343026 -0.00402381 0.43529412 0.89019608 0.96078431
v -0.04811724 0.00747447 -0.00084803 0.43529412 0.89019608 0.96078431
v -0.04811724 -0.00530523 0.00732056 0.43529412 0.89019608 0.96078431
v -0.04717329 -0.00451739 0.00787452 0.43529412 0.89019608 0.96078431
v -0.04338775 -0.00096689 0.00903296 0.43529412 0.89019608 0.96078431
v -0.04338775 0.00123274 0.00907626 0.43529412 0.89019608 0.96078431
v -0.04338775 0.00343026 0.00896439 0.43529412 0.89019608 0.96078431
v -0.03898913 -0.00096689 0.00974390 0.43529412 0.89019608 0.96078431
v -0.03607942 0.00343026 0.01005426 0.43529412 0.89019608 0.96078431
v -0.04118844 0.00123274 0.00940647 0.43529412 0.89019608 0.96078431
v -0.02579327 0.00123274 0.01070024 0.43529412 0.89019608 0.96078431
v -0.02359396 0.00123274 0.01078866 0.43529412 0.89019608 0.96078431
v -0.01918561 0.00123274 0.01092399 0.43529412 0.89019608 0.96078431
v -0.03594319 -0.00215810 0.00999110 0.43529412 0.89019608 0.96078431
v -0.01698629 0.00123274 0.01094564 0.43529412 0.89019608 0.96078431
v 0.00060819 0.00123274 0.01084279 0.43529412 0.89019608 0.96078431
v 0.00279776 0.00123274 0.01080670 0.43529412 0.89019608 0.96078431
v 0.00940543 0.00123274 0.01057754 0.43529412 0.89019608 0.96078431
v 0.05129937 0.00134198 0.00859268 0.43529412 0.89019608 0.96078431
v 0.05129937 0.00696396 0.00590771 0.43529412 0.89019608 0.96078431
v -0.01698629 0.00562989 -0.00681163 0.43529412 0.89019608 0.96078431
v -0.02579327 0.00562989 -0.00650308 0.43529412 0.89019608 0.96078431
v -0.02799258 0.00343026 -0.00687659 0.43529412 0.89019608 0.96078431
v -0.04338775 0.00577486 -0.00479971 0.43529412 0.89019608 0.96078431
v 0.05129937 0.00742615 0.00447319 0.43529412 0.89019608 0.96078431
v 0.04680343 0.00814045 0.00227361 0.43529412 0.89019608 0.96078431
v 0.05129937 0.00731270 -0.00001078 0.43529412 0.89019608 0.96078431
v 0.05129937 0.00343026 -0.00426199 0.43529412 0.89019608 0.96078431
v 0.01600336 0.00123274 -0.00690546 0.43529412 0.89019608 0.96078431
v 0.01160474 0.00123274 -0.00716530 0.43529412 0.89019608 0.96078431
v 0.00940543 0.00123274 -0.00728078 0.43529412 0.89019608 0.96078431
v 0.00279776 0.00123274 -0.00748107 0.43529412 0.89019608 0.96078431
v 0.00279776 0.00343026 -0.00724108 0.43529412 0.89019608 0.96078431
v -0.00598975 0.00343026 -0.00730063 0.43529412 0.89019608 0.96078431
v -0.00818906 0.00343026 -0.00730965 0.43529412 0.89019608 0.96078431
v -0.04338775 0.00343026 -0.00576507 0.43529412 0.89019608 0.96078431
v -0.04494479 0.00343026 -0.00557741 0.43529412 0.89019608 0.96078431
v -0.04609310 0.00123274 -0.00514796 0.43529412 0.89019608 0.96078431
v -0.04719276 0.00123274 -0.00404727 0.43529412 0.89019608 0.96078431
v -0.04811724 0.00451432 -0.00101224 0.43529412 0.89019608 0.96078431
v -0.04811724 -0.00548800 0.00721771 0.43529412 0.89019608 0.96078431
v -0.04558707 -0.00592919 0.00743424 0.43529412 0.89019608 0.96078431
v -0.04220051 -0.00645021 0.00775904 0.43529412 0.89019608 0.96078431
v -0.04558707 -0.00482832 0.00803692 0.43529412 0.89019608 0.96078431
v -0.04118844 -0.00316652 0.00921881 0.43529412 0.89019608 0.96078431
v -0.04338775 -0.00316652 0.00883988 0.43529412 0.89019608 0.96078431
v -0.04558707 -0.00316652 0.00835089 0.43529412 0.89019608 0.96078431
v -0.04118844 -0.00096689 0.00943895 0.43529412 0.89019608 0.96078431
v -0.03898913 -0.00316652 0.00951474 0.43529412 0.89019608 0.96078431
v -0.02579327 -0.00096689 0.01061904 0.43529412 0.89019608 0.96078431
v -0.02359396 -0.00096689 0.01074354 0.43529412 0.89019608 0.96078431
v -0.02138492 -0.00096689 0.01084279 0.43529412 0.89019608 0.96078431
v -0.01918561 -0.00096689 0.01091496 0.43529412 0.89019608 0.96078431
v -0.03305294 -0.00415184 0.00995501 0.43529412 0.89019608 0.96078431
v -0.03459051 -0.00259928 0.01004524 0.43529412 0.89019608 0.96078431
v -0.01698629 -0.00096689 0.01093481 0.43529412 0.89019608 0.96078431
v 0.00060819 -0.00096689 0.01088970 0.43529412 0.89019608 0.96078431
v 0.00279776 -0.00096689 0.01086444 0.43529412 0.89019608 0.96078431
v 0.00940543 -0.00096689 0.01067498 0.43529412 0.89019608 0.96078431
v 0.05129937 0.00123274 0.00859809 0.43529412 0.89019608 0.96078431
v -0.01698629 0.00343026 -0.00717973 0.43529412 0.89019608 0.96078431
v -0.02579327 0.00343026 -0.00698125 0.43529412 0.89019608 0.96078431
v -0.02579327 0.00123274 -0.00699207 0.43529412 0.89019608 0.96078431
v -0.02799258 0.00123274 -0.00686396 0.43529412 0.89019608 0.96078431
v -0.04338775 0.00123274 -0.00577770 0.43529412 0.89019608 0.96078431
v 0.05129937 0.00762994 0.00227361 0.43529412 0.89019608 0.96078431
v 0.04900274 0.00789675 0.00227361 0.43529412 0.89019608 0.96078431
v 0.05129937 0.00761943 0.00217617 0.43529412 0.89019608 0.96078431
v 0.05129937 0.00123274 -0.00430349 0.43529412 0.89019608 0.96078431
v 0.01600336 -0.00096689 -0.00688742 0.43529412 0.89019608 0.96078431
v 0.01380405 -0.00096689 -0.00702816 0.43529412 0.89019608 0.96078431
v 0.01160474 -0.00096689 -0.00713823 0.43529412 0.89019608 0.96078431
v 0.00940543 -0.00096689 -0.00722845 0.43529412 0.89019608 0.96078431
v 0.00279776 -0.00096689 -0.00737461 0.43529412 0.89019608 0.96078431
v 0.00060819 0.00123274 -0.00748829 0.43529412 0.89019608 0.96078431
v -0.04499344 0.00123274 -0.00559365 0.43529412 0.89019608 0.96078431
v -0.04701759 -0.00056142 -0.00370443 0.43529412 0.89019608 0.96078431
v -0.04462365 0.00001632 -0.00546554 0.43529412 0.89019608 0.96078431
v -0.04563572 -0.00100471 -0.00444243 0.43529412 0.89019608 0.96078431
v -0.04811724 -0.00535565 -0.00033558 0.43529412 0.89019608 0.96078431
v -0.04811724 -0.00316652 -0.00084262 0.43529412 0.89019608 0.96078431
v -0.04811724 -0.00695862 0.00619461 0.43529412 0.89019608 0.96078431
v -0.04074079 -0.00655105 0.00784926 0.43529412 0.89019608 0.96078431
v -0.03898913 -0.00536825 0.00868110 0.43529412 0.89019608 0.96078431
v -0.04135388 -0.00557834 0.00831841 0.43529412 0.89019608 0.96078431
v -0.04338775 -0.00517917 0.00823540 0.43529412 0.89019608 0.96078431
v -0.02138492 -0.00316652 0.01061363 0.43529412 0.89019608 0.96078431
v -0.03235228 -0.00331779 0.01009035 0.43529412 0.89019608 0.96078431
v -0.01918561 -0.00316652 0.01068219 0.43529412 0.89019608 0.96078431
v -0.01698629 -0.00316652 0.01071287 0.43529412 0.89019608 0.96078431
v -0.03159322 -0.00428630 0.00998388 0.43529412 0.89019608 0.96078431
v -0.01478699 -0.00316652 0.01070746 0.43529412 0.89019608 0.96078431
v 0.00060819 -0.00316652 0.01059739 0.43529412 0.89019608 0.96078431
v 0.00279776 -0.00316652 0.01055228 0.43529412 0.89019608 0.96078431
v 0.00940543 -0.00316652 0.01041334 0.43529412 0.89019608 0.96078431
v 0.01600336 -0.00267071 0.01013906 0.43529412 0.89019608 0.96078431
v 0.05129937 -0.00096689 0.00848080 0.43529412 0.89019608 0.96078431
v -0.01698629 0.00123274 -0.00717252 0.43529412 0.89019608 0.96078431
v -0.02359396 0.00123274 -0.00705343 0.43529412 0.89019608 0.96078431
v -0.02359396 -0.00096689 -0.00685674 0.43529412 0.89019608 0.96078431
v -0.02579327 -0.00096689 -0.00677555 0.43529412 0.89019608 0.96078431
v -0.02799258 -0.00096689 -0.00660773 0.43529412 0.89019608 0.96078431
v 0.05129937 0.00111509 -0.00428364 0.43529412 0.89019608 0.96078431
v 0.01380405 -0.00316652 -0.00623602 0.43529412 0.89019608 0.96078431
v 0.05129937 -0.00096689 -0.00388667 0.43529412 0.89019608 0.96078431
v 0.05129937 -0.00105933 -0.00385600 0.43529412 0.89019608 0.96078431
v 0.05129937 -0.00227575 -0.00339768 0.43529412 0.89019608 0.96078431
v 0.01160474 -0.00316652 -0.00633888 0.43529412 0.89019608 0.96078431
v 0.00719638 -0.00316652 -0.00651751 0.43529412 0.89019608 0.96078431
v 0.00499707 -0.00316652 -0.00659510 0.43529412 0.89019608 0.96078431
v 0.00279776 -0.00316652 -0.00665465 0.43529412 0.89019608 0.96078431
v 0.00060819 -0.00316652 -0.00671059 0.43529412 0.89019608 0.96078431
v 0.00060819 -0.00096689 -0.00738183 0.43529412 0.89019608 0.96078431
v -0.04665752 -0.00202784 -0.00319017 0.43529412 0.89019608 0.96078431
v -0.03956328 -0.00188708 -0.00538434 0.43529412 0.89019608 0.96078431
v -0.04118844 -0.00158245 -0.00529592 0.43529412 0.89019608 0.96078431
v -0.04338775 -0.00125471 -0.00514435 0.43529412 0.89019608 0.96078431
v -0.04518808 -0.00264970 -0.00371345 0.43529412 0.89019608 0.96078431
v -0.04811724 -0.00686408 0.00067850 0.43529412 0.89019608 0.96078431
v -0.04135388 -0.00717502 0.00688570 0.43529412 0.89019608 0.96078431
v -0.04811724 -0.00767293 0.00447319 0.43529412 0.89019608 0.96078431
v -0.04558707 -0.00791033 0.00447319 0.43529412 0.89019608 0.96078431
v -0.04338775 -0.00811201 0.00447319 0.43529412 0.89019608 0.96078431
v -0.03898913 -0.00753427 0.00667278 0.43529412 0.89019608 0.96078431
v -0.03898913 -0.00663509 0.00792865 0.43529412 0.89019608 0.96078431
v -0.02138492 -0.00483253 0.01019500 0.43529412 0.89019608 0.96078431
v -0.01918561 -0.00492286 0.01022568 0.43529412 0.89019608 0.96078431
v -0.01698629 -0.00497539 0.01024192 0.43529412 0.89019608 0.96078431
v -0.01478699 -0.00502581 0.01025274 0.43529412 0.89019608 0.96078431
v -0.02138492 -0.00593129 0.00970781 0.43529412 0.89019608 0.96078431
v 0.00060819 -0.00461403 0.01015170 0.43529412 0.89019608 0.96078431
v 0.00940543 -0.00440394 0.01005787 0.43529412 0.89019608 0.96078431
v -0.01258767 -0.00497539 0.01024192 0.43529412 0.89019608 0.96078431
v 0.01102085 -0.00433672 0.01001817 0.43529412 0.89019608 0.96078431
v 0.01169232 -0.00334720 0.01023650 0.43529412 0.89019608 0.96078431
v 0.05129937 -0.00250684 0.00808383 0.43529412 0.89019608 0.96078431
v -0.02138492 -0.00316652 -0.00614400 0.43529412 0.89019608 0.96078431
v -0.02579327 -0.00304887 -0.00601769 0.43529412 0.89019608 0.96078431
v -0.03809384 -0.00210137 -0.00544028 0.43529412 0.89019608 0.96078431
v 0.01580873 -0.00332199 -0.00597799 0.43529412 0.89019608 0.96078431
v 0.01494263 -0.00427369 -0.00543125 0.43529412 0.89019608 0.96078431
v 0.01380405 -0.00431781 -0.00547997 0.43529412 0.89019608 0.96078431
v 0.05129937 -0.00342283 -0.00215624 0.43529412 0.89019608 0.96078431
v 0.00499707 -0.00453630 -0.00571635 0.43529412 0.89019608 0.96078431
v 0.00060819 -0.00463924 -0.00580657 0.43529412 0.89019608 0.96078431
v -0.02138492 -0.00437453 -0.00550343 0.43529412 0.89019608 0.96078431
v -0.04118844 -0.00316652 -0.00446589 0.43529412 0.89019608 0.96078431
v -0.03889182 -0.00296694 -0.00488091 0.43529412 0.89019608 0.96078431
v -0.04335856 -0.00329678 -0.00394080 0.43529412 0.89019608 0.96078431
v -0.04406896 -0.00411612 -0.00307829 0.43529412 0.89019608 0.96078431
v -0.04811724 -0.00758049 0.00227361 0.43529412 0.89019608 0.96078431
v -0.04259950 -0.00439134 -0.00332730 0.43529412 0.89019608 0.96078431
v -0.04426358 -0.00640609 -0.00096171 0.43529412 0.89019608 0.96078431
v -0.04280387 -0.00657416 -0.00116020 0.43529412 0.89019608 0.96078431
v -0.04347533 -0.00717712 -0.00010642 0.43529412 0.89019608 0.96078431
v -0.04558707 -0.00707837 0.00034469 0.43529412 0.89019608 0.96078431
v -0.04338775 -0.00820025 0.00227361 0.43529412 0.89019608 0.96078431
v -0.04811724 -0.00766032 0.00415020 0.43529412 0.89019608 0.96078431
v -0.04118844 -0.00826958 0.00447319 0.43529412 0.89019608 0.96078431
v -0.02138492 -0.00841244 0.00696509 0.43529412 0.89019608 0.96078431
v -0.02138492 -0.00731157 0.00860892 0.43529412 0.89019608 0.96078431
v -0.01918561 -0.00602373 0.00976014 0.43529412 0.89019608 0.96078431
v -0.01478699 -0.00612667 0.00981246 0.43529412 0.89019608 0.96078431
v 0.00060819 -0.00571490 0.00947684 0.43529412 0.89019608 0.96078431
v 0.00719638 -0.00554683 0.00926031 0.43529412 0.89019608 0.96078431
v -0.01258767 -0.00607625 0.00977999 0.43529412 0.89019608 0.96078431
v 0.00940543 -0.00550271 0.00916648 0.43529412 0.89019608 0.96078431
v 0.01692785 -0.00645651 0.00775543 0.43529412 0.89019608 0.96078431
v 0.05129937 -0.00355309 0.00721050 0.43529412 0.89019608 0.96078431
v -0.02370101 -0.00337451 -0.00596536 0.43529412 0.89019608 0.96078431
v -0.02304899 -0.00433251 -0.00547276 0.43529412 0.89019608 0.96078431
v -0.02451845 -0.00424638 -0.00540960 0.43529412 0.89019608 0.96078431
v 0.01380405 -0.00508043 -0.00432515 0.43529412 0.89019608 0.96078431
v 0.05129937 -0.00433672 -0.00110607 0.43529412 0.89019608 0.96078431
v 0.02380799 -0.00647542 -0.00103750 0.43529412 0.89019608 0.96078431
v 0.00719638 -0.00634727 -0.00303860 0.43529412 0.89019608 0.96078431
v 0.00719638 -0.00546069 -0.00432515 0.43529412 0.89019608 0.96078431
v 0.00499707 -0.00555523 -0.00432515 0.43529412 0.89019608 0.96078431
v 0.00067630 -0.00587457 -0.00413929 0.43529412 0.89019608 0.96078431
v -0.01478699 -0.00665189 -0.00348609 0.43529412 0.89019608 0.96078431
v -0.01478699 -0.00556363 -0.00458679 0.43529412 0.89019608 0.96078431
v -0.02138492 -0.00547330 -0.00447852 0.43529412 0.89019608 0.96078431
v -0.03898913 -0.00483042 -0.00367556 0.43529412 0.89019608 0.96078431
v -0.04118844 -0.00460563 -0.00349511 0.43529412 0.89019608 0.96078431
v -0.04118844 -0.00758469 0.00007583 0.43529412 0.89019608 0.96078431
v -0.04118844 -0.00570439 -0.00244675 0.43529412 0.89019608 0.96078431
v -0.03898913 -0.00593129 -0.00264162 0.43529412 0.89019608 0.96078431
v -0.04118844 -0.00670021 -0.00134786 0.43529412 0.89019608 0.96078431
v -0.03898913 -0.00774856 0.00007583 0.43529412 0.89019608 0.96078431
v -0.03678982 -0.00789352 0.00007583 0.43529412 0.89019608 0.96078431
v -0.04118844 -0.00833261 0.00227361 0.43529412 0.89019608 0.96078431
v -0.03898913 -0.00839143 0.00447319 0.43529412 0.89019608 0.96078431
v -0.02138492 -0.00874018 0.00586440 0.43529412 0.89019608 0.96078431
v -0.01918561 -0.00843975 0.00703366 0.43529412 0.89019608 0.96078431
v -0.01918561 -0.00734099 0.00865944 0.43529412 0.89019608 0.96078431
v -0.01698629 -0.00734519 0.00868290 0.43529412 0.89019608 0.96078431
v -0.01478699 -0.00734309 0.00871177 0.43529412 0.89019608 0.96078431
v -0.01258767 -0.00731788 0.00867929 0.43529412 0.89019608 0.96078431
v -0.00159113 -0.00710779 0.00842848 0.43529412 0.89019608 0.96078431
v 0.00060819 -0.00704476 0.00837615 0.43529412 0.89019608 0.96078431
v 0.00719638 -0.00681576 0.00815962 0.43529412 0.89019608 0.96078431
v 0.00719638 -0.00773175 0.00667278 0.43529412 0.89019608 0.96078431
v 0.02919922 -0.00660357 0.00580305 0.43529412 0.89019608 0.96078431
v 0.05129937 -0.00466446 0.00606469 0.43529412 0.89019608 0.96078431
v -0.02359396 -0.00657206 -0.00335437 0.43529412 0.89019608 0.96078431
v -0.02370101 -0.00518548 -0.00463911 0.43529412 0.89019608 0.96078431
v -0.03678982 -0.00604474 -0.00276793 0.43529412 0.89019608 0.96078431
v -0.03678982 -0.00494597 -0.00376758 0.43529412 0.89019608 0.96078431
v 0.00719638 -0.00704686 -0.00193790 0.43529412 0.89019608 0.96078431
v 0.05129937 -0.00489975 0.00007583 0.43529412 0.89019608 0.96078431
v 0.01600336 -0.00756788 0.00007583 0.43529412 0.89019608 0.96078431
v -0.00001463 -0.00650273 -0.00328400 0.43529412 0.89019608 0.96078431
v -0.00818906 -0.00739561 -0.00212556 0.43529412 0.89019608 0.96078431
v -0.01478699 -0.00751746 -0.00212556 0.43529412 0.89019608 0.96078431
v -0.02359396 -0.00740821 -0.00212556 0.43529412 0.89019608 0.96078431
v -0.03898913 -0.00682417 -0.00154273 0.43529412 0.89019608 0.96078431
v -0.03678982 -0.00692291 -0.00166724 0.43529412 0.89019608 0.96078431
v -0.03459051 -0.00700064 -0.00175746 0.43529412 0.89019608 0.96078431
v -0.03459051 -0.00800697 0.00007583 0.43529412 0.89019608 0.96078431
v -0.02903384 -0.00866455 0.00120720 0.43529412 0.89019608 0.96078431
v -0.03678982 -0.00850488 0.00227361 0.43529412 0.89019608 0.96078431
v -0.03196302 -0.00868135 0.00348979 0.43529412 0.89019608 0.96078431
v -0.03678982 -0.00846286 0.00447319 0.43529412 0.89019608 0.96078431
v -0.02138492 -0.00895237 0.00447319 0.43529412 0.89019608 0.96078431
v -0.01918561 -0.00898808 0.00447319 0.43529412 0.89019608 0.96078431
v -0.01918561 -0.00875698 0.00593477 0.43529412 0.89019608 0.96078431
v -0.01698629 -0.00844605 0.00703547 0.43529412 0.89019608 0.96078431
v -0.01478699 -0.00844395 0.00701923 0.43529412 0.89019608 0.96078431
v -0.00159113 -0.00815193 0.00667278 0.43529412 0.89019608 0.96078431
v 0.00060819 -0.00806159 0.00667278 0.43529412 0.89019608 0.96078431
v -0.01258767 -0.00841874 0.00693442 0.43529412 0.89019608 0.96078431
v 0.00940543 -0.00835361 0.00447319 0.43529412 0.89019608 0.96078431
v 0.01600336 -0.00792923 0.00447319 0.43529412 0.89019608 0.96078431
v 0.03085357 -0.00653424 0.00568215 0.43529412 0.89019608 0.96078431
v 0.05129937 -0.00527581 0.00459048 0.43529412 0.89019608 0.96078431
v -0.02518992 -0.00652164 -0.00328941 0.43529412 0.89019608 0.96078431
v 0.00940543 -0.00793974 0.00007583 0.43529412 0.89019608 0.96078431
v 0.00719638 -0.00805109 0.00007583 0.43529412 0.89019608 0.96078431
v -0.00598975 -0.00837042 -0.00017859 0.43529412 0.89019608 0.96078431
v -0.00159113 -0.00723384 -0.00212556 0.43529412 0.89019608 0.96078431
v 0.05129937 -0.00550271 0.00227361 0.43529412 0.89019608 0.96078431
v 0.03519380 -0.00649643 0.00112059 0.43529412 0.89019608 0.96078431
v 0.01600336 -0.00821706 0.00227361 0.43529412 0.89019608 0.96078431
v -0.00598975 -0.00734729 -0.00212556 0.43529412 0.89019608 0.96078431
v -0.00818906 -0.00839143 -0.00025618 0.43529412 0.89019608 0.96078431
v -0.01478699 -0.00843135 -0.00039332 0.43529412 0.89019608 0.96078431
v -0.02138492 -0.00841244 -0.00031393 0.43529412 0.89019608 0.96078431
v -0.02359396 -0.00840193 -0.00021288 0.43529412 0.89019608 0.96078431
v -0.02579327 -0.00836202 -0.00010100 0.43529412 0.89019608 0.96078431
v -0.02587112 -0.00713720 -0.00232405 0.43529412 0.89019608 0.96078431
v -0.02817748 -0.00837042 0.00024003 0.43529412 0.89019608 0.96078431
v -0.02756440 -0.00869396 0.00108269 0.43529412 0.89019608 0.96078431
v -0.02138492 -0.00900069 0.00227361 0.43529412 0.89019608 0.96078431
v -0.03196302 -0.00868135 0.00321551 0.43529412 0.89019608 0.96078431
v -0.01918561 -0.00903640 0.00227361 0.43529412 0.89019608 0.96078431
v -0.01698629 -0.00905111 0.00227361 0.43529412 0.89019608 0.96078431
v -0.01478699 -0.00905951 0.00227361 0.43529412 0.89019608 0.96078431
v -0.01698629 -0.00899228 0.00447319 0.43529412 0.89019608 0.96078431
v -0.01698629 -0.00875488 0.00593658 0.43529412 0.89019608 0.96078431
v -0.01478699 -0.00875068 0.00591853 0.43529412 0.89019608 0.96078431
v -0.01258767 -0.00872967 0.00583372 0.43529412 0.89019608 0.96078431
v -0.00681692 -0.00867505 0.00560456 0.43529412 0.89019608 0.96078431
v -0.00159113 -0.00861202 0.00517331 0.43529412 0.89019608 0.96078431
v -0.00818906 -0.00833891 0.00675217 0.43529412 0.89019608 0.96078431
v 0.00719638 -0.00845656 0.00447319 0.43529412 0.89019608 0.96078431
v 0.02260129 -0.00746914 0.00447319 0.43529412 0.89019608 0.96078431
v 0.02480060 -0.00730737 0.00447319 0.43529412 0.89019608 0.96078431
v 0.05129937 -0.00531573 0.00447319 0.43529412 0.89019608 0.96078431
v -0.00051093 -0.00866665 0.00118013 0.43529412 0.89019608 0.96078431
v -0.00598975 -0.00874438 0.00092030 0.43529412 0.89019608 0.96078431
v -0.00818906 -0.00876959 0.00084271 0.43529412 0.89019608 0.96078431
v 0.05129937 -0.00549851 0.00240714 0.43529412 0.89019608 0.96078431
v 0.00400446 -0.00866875 0.00338693 0.43529412 0.89019608 0.96078431
v 0.00940543 -0.00847547 0.00227361 0.43529412 0.89019608 0.96078431
v -0.01478699 -0.00882211 0.00070737 0.43529412 0.89019608 0.96078431
v -0.02138492 -0.00878850 0.00078677 0.43529412 0.89019608 0.96078431
v -0.01698629 -0.00881371 0.00072903 0.43529412 0.89019608 0.96078431
v -0.01918561 -0.00880320 0.00075790 0.43529412 0.89019608 0.96078431
v -0.00818906 -0.00895237 0.00227361 0.43529412 0.89019608 0.96078431
v -0.01478699 -0.00898808 0.00447319 0.43529412 0.89019608 0.96078431
v -0.00818906 -0.00887043 0.00447319 0.43529412 0.89019608 0.96078431
v -0.00604814 -0.00879690 0.00463559 0.43529412 0.89019608 0.96078431
v -0.00159113 -0.00876329 0.00407261 0.43529412 0.89019608 0.96078431
v 0.00060819 -0.00858471 0.00492791 0.43529412 0.89019608 0.96078431
v 0.00060819 -0.00872757 0.00382721 0.43529412 0.89019608 0.96078431
v 0.00719638 -0.00854269 0.00227361 0.43529412 0.89019608 0.96078431
v -0.00598975 -0.00890194 0.00227361 0.43529412 0.89019608 0.96078431
v 0.00400446 -0.00866875 0.00335265 0.43529412 0.89019608 0.96078431
f 1 2 3
f 1 3 4
f 1 4 5
f 1 5 6
f 1 6 7
f 1 7 8
f 1 8 9
f 1 9 10
f 1 10 2
f 2 11 3
f 2 10 11
f 3 11 4
f 4 11 12
f 4 12 13
f 4 13 5
f 5 13 14
f 5 14 6
f 6 15 7
f 6 14 16
f 6 16 17
f 6 17 37
f 6 37 18
f 6 18 15
f 7 15 8
f 8 15 19
f 8 19 20
f 8 20 21
f 8 21 9
f 9 21 22
f 9 22 10
f 10 22 23
f 10 23 11
f 11 23 24
f 11 24 25
f 11 25 12
f 12 25 26
f 12 26 27
f 12 27 28
f 12 28 29
f 12 29 30
f 12 30 13
f 13 30 14
f 14 30 16
f 15 31 32
f 15 32 19
f 15 18 33
f 15 33 31
f 16 30 29
f 16 29 34
f 16 34 35
f 16 35 36
f 16 36 17
f 17 36 37
f 18 37 38
f 18 38 33
f 19 32 39
f 19 39 20
f 20 39 40
f 20 40 41
f 20 41 42
f 20 42 43
f 20 43 21
f 21 43 22
f 22 43 44
f 22 44 45
f 22 45 46
f 22 46 47
f 22 47 48
f 22 48 23
f 23 48 49
f 23 49 50
f 23 50 24
f 24 51 25
f 24 50 51
f 25 51 52
f 25 52 26
f 26 52 53
f 26 53 27
f 27 53 52
f 27 52 54
f 27 54 28
f 28 54 55
f 28 55 56
f 28 56 34
f 28 34 29
f 31 57 58
f 31 58 59
f 31 59 60
f 31 60 32
f 31 33 57
f 32 60 59
f 32 59 61
f 32 61 62
f 32 62 63
f 32 63 39
f 33 64 57
f 33 38 64
f 34 56 35
f 35 56 65
f 35 65 36
f 36 65 66
f 36 66 37
f 37 66 67
f 37 67 68
f 37 68 38
f 38 69 64
f 38 68 70
f 38 70 71
f 38 71 72
f 38 72 73
f 38 73 69
f 39 63 40
f 40 63 74
f 40 74 75
f 40 75 41
f 41 75 42
f 42 75 76
f 42 76 77
f 42 77 78
f 42 78 79
f 42 79 43
f 43 79 80
f 43 80 81
f 43 81 82
f 43 82 44
f 44 82 83
f 44 83 84
f 44 84 85
f 44 85 45
f 45 85 86
f 45 86 87
f 45 87 88
f 45 88 89
f 45 89 46
f 46 89 90
f 46 90 49
f 46 49 47
f 47 49 48
f 49 91 92
f 49 92 50
f 49 90 91
f 50 92 93
f 50 93 51
f 51 93 94
f 51 94 95
f 51 95 96
f 51 96 52
f 52 96 97
f 52 97 98
f 52 98 99
f 52 99 54
f 54 100 101
f 54 101 102
f 54 102 55
f 54 99 100
f 55 102 56
f 56 102 103
f 56 103 65
f 57 104 105
f 57 105 58
f 57 64 106
f 57 106 104
f 58 105 59
f 59 107 61
f 59 105 107
f 61 107 108
f 61 108 109
f 61 109 110
f 61 110 62
f 62 110 63
f 63 110 111
f 63 111 112
f 63 112 74
f 64 69 113
f 64 113 106
f 65 103 114
f 65 114 66
f 66 114 115
f 66 115 67
f 67 116 117
f 67 117 68
f 67 115 118
f 67 118 119
f 67 119 120
f 67 120 121
f 67 121 122
f 67 122 123
f 67 123 124
f 67 124 116
f 68 117 125
f 68 125 70
f 69 73 126
f 69 126 113
f 70 125 127
f 70 127 72
f 70 72 71
f 72 127 73
f 73 127 128
f 73 128 129
f 73 129 130
f 73 130 131
f 73 131 132
f 73 132 126
f 74 133 75
f 74 112 133
f 75 133 76
f 76 133 77
f 77 134 193
f 77 193 245
f 77 245 283
f 77 283 324
f 77 324 323
f 77 323 362
f 77 362 394
f 77 394 401
f 77 401 364
f 77 364 325
f 77 325 284
f 77 284 246
f 77 246 194
f 77 194 138
f 77 138 85
f 77 85 137
f 77 137 136
f 77 136 135
f 77 135 80
f 77 80 79
f 77 79 78
f 77 133 134
f 80 135 81
f 81 83 82
f 81 135 136
f 81 136 83
f 83 136 137
f 83 137 85
f 83 85 84
f 85 138 139
f 85 139 140
f 85 140 141
f 85 141 86
f 86 141 142
f 86 142 143
f 86 143 144
f 86 144 87
f 87 144 88
f 88 144 89
f 89 144 91
f 89 91 90
f 91 94 92
f 91 144 145
f 91 145 94
f 92 94 93
f 94 146 95
f 94 145 147
f 94 147 146
f 95 148 149
f 95 149 96
f 95 146 148
f 96 149 150
f 96 150 97
f 97 150 151
f 97 151 98
f 98 151 152
f 98 152 153
f 98 153 154
f 98 154 155
f 98 155 156
f 98 156 100
f 98 100 99
f 100 156 101
f 101 156 155
f 101 155 154
f 101 154 157
f 101 157 158
f 101 158 159
f 101 159 160
f 101 160 102
f 102 160 159
f 102 159 161
f 102 161 103
f 103 162 163
f 103 163 118
f 103 118 115
f 103 115 114
f 103 161 159
f 103 159 162
f 104 164 165
f 104 165 105
f 104 106 166
f 104 166 164
f 105 165 107
f 106 113 132
f 106 132 166
f 107 167 108
f 107 165 167
f 108 167 109
f 109 167 168
f 109 168 169
f 109 169 110
f 110 170 171
f 110 171 111
f 110 169 172
f 110 172 170
f 111 171 173
f 111 173 174
f 111 174 112
f 112 175 176
f 112 176 133
f 112 174 177
f 112 177 175
f 113 126 132
f 116 125 117
f 116 124 178
f 116 178 179
f 116 179 125
f 118 163 119
f 119 163 180
f 119 180 120
f 120 180 181
f 120 181 121
f 121 181 122
f 122 181 123
f 123 178 124
f 123 181 182
f 123 182 178
f 125 179 178
f 125 178 183
f 125 183 127
f 127 184 128
f 127 183 184
f 128 185 130
f 128 130 129
f 128 184 186
f 128 186 185
f 130 185 187
f 130 187 188
f 130 188 131
f 131 188 189
f 131 189 132
f 132 189 190
f 132 190 166
f 133 176 134
f 134 191 192
f 134 192 193
f 134 176 191
f 138 194 195
f 138 195 196
f 138 196 197
f 138 197 140
f 138 140 139
f 140 197 198
f 140 198 142
f 140 142 141
f 142 198 199
f 142 199 200
f 142 200 143
f 143 200 144
f 144 200 201
f 144 201 145
f 145 201 200
f 145 200 202
f 145 202 147
f 146 203 148
f 146 147 204
f 146 204 203
f 147 202 204
f 148 205 206
f 148 206 149
f 148 203 205
f 149 206 207
f 149 207 208
f 149 208 150
f 150 208 209
f 150 209 151
f 151 209 152
f 152 210 211
f 152 211 212
f 152 212 213
f 152 213 157
f 152 157 153
f 152 209 210
f 153 157 154
f 157 213 212
f 157 212 262
f 157 262 303
f 157 303 340
f 157 340 379
f 157 379 412
f 157 412 447
f 157 447 478
f 157 478 511
f 157 511 515
f 157 515 484
f 157 484 453
f 157 453 417
f 157 417 386
f 157 386 350
f 157 350 349
f 157 349 348
f 157 348 346
f 157 346 312
f 157 312 271
f 157 271 232
f 157 232 186
f 157 186 230
f 157 230 270
f 157 270 311
f 157 311 309
f 157 309 268
f 157 268 263
f 157 263 214
f 157 214 158
f 158 214 159
f 159 214 215
f 159 215 216
f 159 216 162
f 162 216 163
f 163 216 180
f 164 166 190
f 164 190 165
f 165 217 167
f 165 190 217
f 167 217 218
f 167 218 219
f 167 219 168
f 168 219 169
f 169 219 172
f 170 220 171
f 170 172 220
f 171 220 221
f 171 221 173
f 172 219 222
f 172 222 220
f 173 221 223
f 173 223 224
f 173 224 174
f 174 224 177
f 175 224 225
f 175 225 176
f 175 177 224
f 176 225 226
f 176 226 191
f 178 182 183
f 180 215 227
f 180 227 228
f 180 228 181
f 180 216 215
f 181 228 182
f 182 228 229
f 182 229 230
f 182 230 183
f 183 230 186
f 183 186 184
f 185 231 187
f 185 186 232
f 185 232 231
f 187 231 232
f 187 232 233
f 187 233 234
f 187 234 188
f 188 234 235
f 188 235 236
f 188 236 237
f 188 237 189
f 189 238 190
f 189 237 238
f 190 238 239
f 190 239 217
f 191 240 192
f 191 226 241
f 191 241 240
f 192 240 241
f 192 241 242
f 192 242 243
f 192 243 244
f 192 244 245
f 192 245 193
f 194 246 247
f 194 247 195
f 195 247 248
f 195 248 249
f 195 249 196
f 196 249 250
f 196 250 197
f 197 250 198
f 198 250 199
f 199 251 252
f 199 252 204
f 199 204 202
f 199 202 200
f 199 250 249
f 199 249 253
f 199 253 251
f 203 254 255
f 203 255 256
f 203 256 205
f 203 204 254
f 204 252 257
f 204 257 254
f 205 256 206
f 206 256 258
f 206 258 259
f 206 259 207
f 207 259 208
f 208 259 209
f 209 259 260
f 209 260 261
f 209 261 210
f 210 261 262
f 210 262 212
f 210 212 211
f 214 263 215
f 215 263 227
f 217 264 218
f 217 239 264
f 218 264 265
f 218 265 219
f 219 265 222
f 220 222 221
f 221 222 242
f 221 242 223
f 222 266 242
f 222 265 266
f 223 242 267
f 223 267 224
f 224 267 225
f 225 267 242
f 225 242 226
f 226 242 241
f 227 263 268
f 227 268 269
f 227 269 228
f 228 269 270
f 228 270 229
f 229 270 230
f 232 271 234
f 232 234 233
f 234 272 273
f 234 273 235
f 234 271 272
f 235 273 274
f 235 274 236
f 236 274 275
f 236 275 276
f 236 276 238
f 236 238 237
f 238 277 239
f 238 276 277
f 239 277 278
f 239 278 264
f 242 279 280
f 242 280 243
f 242 266 279
f 243 281 244
f 243 280 281
f 244 281 282
f 244 282 283
f 244 283 245
f 246 284 285
f 246 285 286
f 246 286 287
f 246 287 247
f 247 287 288
f 247 288 289
f 247 289 290
f 247 290 248
f 248 290 289
f 248 289 291
f 248 291 249
f 249 291 253
f 251 292 257
f 251 257 252
f 251 253 291
f 251 291 288
f 251 288 292
f 254 293 294
f 254 294 295
f 254 295 255
f 254 257 293
f 255 295 296
f 255 296 256
f 256 296 258
f 257 292 297
f 257 297 298
f 257 298 294
f 257 294 293
f 258 296 299
f 258 299 300
f 258 300 259
f 259 300 301
f 259 301 260
f 260 301 302
f 260 302 261
f 261 302 303
f 261 303 262
f 264 304 305
f 264 305 265
f 264 278 304
f 265 305 266
f 266 305 306
f 266 306 307
f 266 307 308
f 266 308 279
f 268 309 310
f 268 310 269
f 269 310 270
f 270 310 311
f 271 312 272
f 272 313 314
f 272 314 273
f 272 312 313
f 273 314 274
f 274 314 315
f 274 315 316
f 274 316 275
f 275 316 317
f 275 317 356
f 275 356 318
f 275 318 278
f 275 278 277
f 275 277 276
f 278 318 304
f 279 308 319
f 279 319 280
f 280 319 281
f 281 320 282
f 281 319 321
f 281 321 322
f 281 322 320
f 282 320 323
f 282 323 324
f 282 324 283
f 284 325 285
f 285 325 286
f 286 326 297
f 286 297 327
f 286 327 328
f 286 328 329
f 286 329 287
f 286 325 326
f 287 329 288
f 288 291 289
f 288 329 292
f 292 329 297
f 294 330 295
f 294 298 331
f 294 331 330
f 295 330 296
f 296 330 332
f 296 332 333
f 296 333 299
f 297 331 298
f 297 329 328
f 297 328 327
f 297 326 334
f 297 334 330
f 297 330 331
f 299 333 335
f 299 335 300
f 300 336 301
f 300 335 336
f 301 336 337
f 301 337 338
f 301 338 302
f 302 338 339
f 302 339 340
f 302 340 303
f 304 341 342
f 304 342 305
f 304 318 341
f 305 342 306
f 306 342 343
f 306 343 344
f 306 344 307
f 307 344 308
f 308 321 319
f 308 344 345
f 308 345 321
f 309 311 310
f 312 346 313
f 313 347 314
f 313 346 348
f 313 348 349
f 313 349 350
f 313 350 347
f 314 347 315
f 315 347 351
f 315 351 316
f 316 352 353
f 316 353 354
f 316 354 355
f 316 355 317
f 316 351 352
f 317 355 356
f 318 356 341
f 320 322 357
f 320 357 323
f 321 358 359
f 321 359 360
f 321 360 361
f 321 361 322
f 321 345 358
f 322 361 323
f 322 323 357
f 323 361 362
f 325 363 326
f 325 364 365
f 325 365 366
f 325 366 367
f 325 367 363
f 326 363 367
f 326 367 368
f 326 368 334
f 330 369 332
f 330 334 369
f 332 370 333
f 332 369 370
f 333 370 371
f 333 371 372
f 333 372 335
f 334 368 373
f 334 373 369
f 335 372 336
f 336 374 375
f 336 375 337
f 336 372 376
f 336 376 374
f 337 375 338
f 338 375 377
f 338 377 378
f 338 378 340
f 338 340 339
f 340 378 379
f 341 356 342
f 342 356 343
f 343 380 344
f 343 356 355
f 343 355 380
f 344 380 381
f 344 381 382
f 344 382 345
f 345 382 358
f 347 383 384
f 347 384 385
f 347 385 351
f 347 350 383
f 350 386 384
f 350 384 383
f 351 385 387
f 351 387 352
f 352 387 388
f 352 388 353
f 353 388 354
f 354 388 355
f 355 388 389
f 355 389 380
f 358 390 360
f 358 360 359
f 358 382 391
f 358 391 390
f 360 390 392
f 360 392 361
f 361 392 393
f 361 393 362
f 362 393 395
f 362 395 396
f 362 396 397
f 362 397 398
f 362 398 399
f 362 399 394
f 364 400 365
f 364 401 400
f 365 400 366
f 366 400 402
f 366 402 367
f 367 402 403
f 367 403 404
f 367 404 368
f 368 404 373
f 369 373 405
f 369 405 370
f 370 405 406
f 370 406 371
f 371 406 372
f 372 406 376
f 373 404 405
f 374 376 406
f 374 406 375
f 375 407 408
f 375 408 377
f 375 406 409
f 375 409 407
f 377 408 410
f 377 410 411
f 377 411 379
f 377 379 378
f 379 411 412
f 380 389 413
f 380 413 381
f 381 413 414
f 381 414 415
f 381 415 391
f 381 391 382
f 384 416 385
f 384 386 417
f 384 417 418
f 384 418 416
f 385 416 419
f 385 419 420
f 385 420 387
f 387 420 421
f 387 421 422
f 387 422 388
f 388 422 423
f 388 423 424
f 388 424 389
f 389 424 425
f 389 425 414
f 389 414 413
f 390 391 426
f 390 426 427
f 390 427 392
f 391 415 426
f 392 427 395
f 392 395 393
f 394 399 428
f 394 428 400
f 394 400 401
f 395 427 429
f 395 429 396
f 396 429 397
f 397 429 430
f 397 430 431
f 397 431 398
f 398 431 428
f 398 428 399
f 400 428 432
f 400 432 433
f 400 433 434
f 400 434 402
f 402 434 435
f 402 435 403
f 403 436 437
f 403 437 404
f 403 435 436
f 404 437 438
f 404 438 405
f 405 438 406
f 406 438 439
f 406 439 440
f 406 440 441
f 406 441 409
f 407 442 443
f 407 443 408
f 407 409 442
f 408 443 410
f 409 441 442
f 410 443 444
f 410 444 411
f 411 444 445
f 411 445 446
f 411 446 447
f 411 447 412
f 414 425 448
f 414 448 449
f 414 449 450
f 414 450 451
f 414 451 426
f 414 426 415
f 416 452 419
f 416 418 452
f 417 453 418
f 418 453 454
f 418 454 452
f 419 452 455
f 419 455 420
f 420 455 422
f 420 422 421
f 422 455 423
f 423 456 457
f 423 457 458
f 423 458 448
f 423 448 424
f 423 455 456
f 424 448 425
f 426 451 450
f 426 450 430
f 426 430 427
f 427 430 429
f 428 431 459
f 428 459 460
f 428 460 432
f 430 459 431
f 430 450 459
f 432 460 433
f 433 460 461
f 433 461 458
f 433 458 462
f 433 462 463
f 433 463 434
f 434 464 465
f 434 465 435
f 434 463 464
f 435 465 466
f 435 466 436
f 436 467 468
f 436 468 469
f 436 469 437
f 436 466 467
f 437 469 470
f 437 470 440
f 437 440 439
f 437 439 438
f 440 471 441
f 440 470 471
f 441 471 442
f 442 472 473
f 442 473 443
f 442 471 474
f 442 474 472
f 443 473 445
f 443 445 444
f 445 473 475
f 445 475 476
f 445 476 446
f 446 477 447
f 446 476 477
f 447 477 478
f 448 458 479
f 448 479 449
f 449 479 450
f 450 460 459
f 450 479 460
f 452 454 480
f 452 480 481
f 452 481 482
f 452 482 483
f 452 483 455
f 453 484 485
f 453 485 454
f 454 486 480
f 454 485 486
f 455 483 487
f 455 487 456
f 456 487 488
f 456 488 457
f 457 488 489
f 457 489 490
f 457 490 458
f 458 490 491
f 458 491 492
f 458 492 462
f 458 461 493
f 458 493 479
f 460 479 461
f 461 479 493
f 462 494 495
f 462 495 463
f 462 492 494
f 463 495 496
f 463 496 464
f 464 497 465
f 464 496 497
f 465 496 467
f 465 467 466
f 465 497 496
f 467 496 498
f 467 498 468
f 468 498 499
f 468 499 500
f 468 500 501
f 468 501 469
f 469 501 502
f 469 502 470
f 470 502 471
f 471 503 504
f 471 504 505
f 471 505 474
f 471 502 503
f 472 506 473
f 472 474 507
f 472 507 505
f 472 505 506
f 473 506 508
f 473 508 475
f 474 505 507
f 475 508 486
f 475 486 476
f 476 486 509
f 476 509 477
f 477 509 510
f 477 510 511
f 477 511 478
f 480 486 481
f 481 486 512
f 481 512 482
f 482 513 514
f 482 514 488
f 482 488 483
f 482 512 513
f 483 488 487
f 484 515 486
f 484 486 485
f 486 515 511
f 486 511 510
f 486 510 509
f 486 508 516
f 486 516 517
f 486 517 512
f 488 514 518
f 488 518 489
f 489 518 490
f 490 519 491
f 490 518 520
f 490 520 521
f 490 521 519
f 491 519 495
f 491 495 492
f 492 495 494
f 495 519 496
f 496 519 498
f 498 521 520
f 498 520 499
f 498 519 521
f 499 520 518
f 499 518 500
f 500 518 514
f 500 514 513
f 500 513 522
f 500 522 523
f 500 523 501
f 501 523 502
f 502 523 503
f 503 523 504
f 504 523 505
f 505 523 524
f 505 524 525
f 505 525 506
f 506 526 527
f 506 527 508
f 506 525 526
f 508 527 526
f 508 526 528
f 508 528 516
f 512 517 529
f 512 529 530
f 512 530 522
f 512 522 513
f 516 528 522
f 516 522 530
f 516 530 531
f 516 531 517
f 517 531 529
f 522 524 523
f 522 528 526
f 522 526 524
f 524 526 525
f 529 531 530

