# https://github.com/mikedh/trimesh
v -0.06512713 -0.00096696 0.00227443 0.54117647 0.42352941 0.64313725
v -0.06475583 -0.00096696 0.00447371 0.54117647 0.42352941 0.64313725
v -0.06459100 0.00123206 0.00447371 0.54117647 0.42352941 0.64313725
v -0.06440785 0.00322597 0.00447809 0.54117647 0.42352941 0.64313725
v -0.06435622 0.00491866 0.00374704 0.54117647 0.42352941 0.64313725
v -0.06435622 0.00491866 0.00303350 0.54117647 0.42352941 0.64313725
v -0.06456601 0.00085139 0.00094278 0.54117647 0.42352941 0.64313725
v -0.06471254 -0.00096696 0.00081846 0.54117647 0.42352941 0.64313725
v -0.06463595 -0.00316783 0.00089376 0.54117647 0.42352941 0.64313725
v -0.06494730 -0.00316783 0.00227443 0.54117647 0.42352941 0.64313725
v -0.06434291 -0.00096696 0.00567490 0.54117647 0.42352941 0.64313725
v -0.06432293 0.00123206 0.00564251 0.54117647 0.42352941 0.64313725
v -0.06429461 0.00235375 0.00557947 0.54117647 0.42352941 0.64313725
v -0.06455935 -0.00300891 0.00438703 0.54117647 0.42352941 0.64313725
v -0.06432126 -0.00217180 0.00562325 0.54117647 0.42352941 0.64313725
v -0.06422136 0.00382100 0.00521351 0.54117647 0.42352941 0.64313725
v -0.06409814 0.00564304 0.00447809 0.54117647 0.42352941 0.64313725
v -0.06321901 0.00783098 0.00447371 0.54117647 0.42352941 0.64313725
v -0.06403487 0.00564304 0.00229019 0.54117647 0.42352941 0.64313725
v -0.06419972 0.00343109 0.00148735 0.54117647 0.42352941 0.64313725
v -0.06256966 0.00736161 0.00087012 0.54117647 0.42352941 0.64313725
v -0.06291265 0.00563011 0.00065649 0.54117647 0.42352941 0.64313725
v -0.06319404 -0.00096696 0.00024938 0.54117647 0.42352941 0.64313725
v -0.06319404 -0.00316783 0.00043849 0.54117647 0.42352941 0.64313725
v -0.06446279 -0.00439669 0.00104259 0.54117647 0.42352941 0.64313725
v -0.06449275 -0.00442441 0.00227443 0.54117647 0.42352941 0.64313725
v -0.06438953 -0.00434865 0.00359557 0.54117647 0.42352941 0.64313725
v -0.06237817 0.00123206 0.00792934 0.54117647 0.42352941 0.64313725
v -0.06347876 0.00123206 0.00674215 0.54117647 0.42352941 0.64313725
v -0.06235320 0.00272149 0.00792321 0.54117647 0.42352941 0.64313725
v -0.06328728 0.00327216 0.00661170 0.54117647 0.42352941 0.64313725
v -0.06299257 0.00563011 0.00636480 0.54117647 0.42352941 0.64313725
v -0.06404986 -0.00363720 0.00506205 0.54117647 0.42352941 0.64313725
v -0.06326730 -0.00300891 0.00626500 0.54117647 0.42352941 0.64313725
v -0.06221334 -0.00031834 0.00783216 0.54117647 0.42352941 0.64313725
v -0.06252636 0.00783098 0.00593756 0.54117647 0.42352941 0.64313725
v -0.06213508 0.00896005 0.00560749 0.54117647 0.42352941 0.64313725
v -0.06230991 0.00910050 0.00447371 0.54117647 0.42352941 0.64313725
v -0.06233988 0.00912821 0.00280937 0.54117647 0.42352941 0.64313725
v -0.06293263 0.00798990 0.00215536 0.54117647 0.42352941 0.64313725
v -0.06197358 0.00882885 0.00134202 0.54117647 0.42352941 0.64313725
v -0.06050669 0.00924833 0.00092352 0.54117647 0.42352941 0.64313725
v -0.06114106 0.00798990 0.00064249 0.54117647 0.42352941 0.64313725
v -0.06099287 0.00563011 0.00021524 0.54117647 0.42352941 0.64313725
v -0.04811890 -0.00316783 -0.00084238 0.54117647 0.42352941 0.64313725
v -0.06099287 -0.00316783 0.00023537 0.54117647 0.42352941 0.64313725
v -0.04811890 0.00451581 -0.00101310 0.54117647 0.42352941 0.64313725
v -0.05879338 -0.00536685 0.00048052 0.54117647 0.42352941 0.64313725
v -0.06319404 -0.00461659 0.00089726 0.54117647 0.42352941 0.64313725
v -0.05993392 -0.00648484 0.00115378 0.54117647 0.42352941 0.64313725
v -0.06013206 -0.00656615 0.00227443 0.54117647 0.42352941 0.64313725
v -0.06121433 -0.00606166 0.00447371 0.54117647 0.42352941 0.64313725
v -0.06326730 -0.00487161 0.00438703 0.54117647 0.42352941 0.64313725
v -0.06258297 -0.00467942 0.00597958 0.54117647 0.42352941 0.64313725
v -0.06180041 0.00123206 0.00792934 0.54117647 0.42352941 0.64313725
v -0.06184204 0.00272149 0.00792321 0.54117647 0.42352941 0.64313725
v -0.04811890 0.00783098 0.00706434 0.54117647 0.42352941 0.64313725
v -0.05879338 0.00783098 0.00668612 0.54117647 0.42352941 0.64313725
v -0.06099287 0.00783098 0.00650051 0.54117647 0.42352941 0.64313725
v -0.06195359 -0.00031834 0.00783216 0.54117647 0.42352941 0.64313725
v -0.06099287 -0.00316783 0.00725695 0.54117647 0.42352941 0.64313725
v -0.04811890 -0.00530587 0.00732086 0.54117647 0.42352941 0.64313725
v -0.06099287 0.00919844 0.00583250 0.54117647 0.42352941 0.64313725
v -0.05879338 0.01036447 0.00447371 0.54117647 0.42352941 0.64313725
v -0.06099287 0.00971585 0.00447371 0.54117647 0.42352941 0.64313725
v -0.06114106 0.00953476 0.00215536 0.54117647 0.42352941 0.64313725
v -0.05879338 0.01034045 0.00227443 0.54117647 0.42352941 0.64313725
v -0.05879338 0.00948301 0.00076418 0.54117647 0.42352941 0.64313725
v -0.05879338 0.00783098 0.00032730 0.54117647 0.42352941 0.64313725
v -0.04811890 0.00747433 -0.00084938 0.54117647 0.42352941 0.64313725
v -0.04811890 -0.00535576 -0.00033633 0.54117647 0.42352941 0.64313725
v -0.05659555 -0.00667887 0.00092790 0.54117647 0.42352941 0.64313725
v -0.05879338 -0.00657354 0.00104785 0.54117647 0.42352941 0.64313725
v -0.06079807 -0.00535022 0.00080708 0.54117647 0.42352941 0.64313725
v -0.05659555 -0.00711498 0.00227443 0.54117647 0.42352941 0.64313725
v -0.05879338 -0.00685812 0.00227443 0.54117647 0.42352941 0.64313725
v -0.06011374 -0.00655875 0.00447371 0.54117647 0.42352941 0.64313725
v -0.05991061 -0.00647375 0.00558298 0.54117647 0.42352941 0.64313725
v -0.06078308 -0.00539457 0.00615293 0.54117647 0.42352941 0.64313725
v -0.04811890 -0.00316783 0.00753273 0.54117647 0.42352941 0.64313725
v -0.04811890 0.00981379 0.00631140 0.54117647 0.42352941 0.64313725
v -0.05659555 0.00962530 0.00614067 0.54117647 0.42352941 0.64313725
v -0.05879338 0.00950889 0.00608464 0.54117647 0.42352941 0.64313725
v -0.05879338 -0.00536685 0.00659069 0.54117647 0.42352941 0.64313725
v -0.05659555 -0.00536685 0.00674565 0.54117647 0.42352941 0.64313725
v -0.04811890 -0.00548696 0.00721843 0.54117647 0.42352941 0.64313725
v -0.05659555 0.01063057 0.00447371 0.54117647 0.42352941 0.64313725
v -0.05659555 0.01058068 0.00227443 0.54117647 0.42352941 0.64313725
v -0.04811890 0.01088558 0.00200390 0.54117647 0.42352941 0.64313725
v -0.04811890 0.00968444 0.00014432 0.54117647 0.42352941 0.64313725
v -0.04811890 0.00783098 -0.00068916 0.54117647 0.42352941 0.64313725
v -0.04811890 -0.00686551 0.00067838 0.54117647 0.42352941 0.64313725
v -0.04811890 -0.00758065 0.00227443 0.54117647 0.42352941 0.64313725
v -0.05439438 -0.00725727 0.00227443 0.54117647 0.42352941 0.64313725
v -0.05439438 -0.00729053 0.00447371 0.54117647 0.42352941 0.64313725
v -0.05659555 -0.00711313 0.00447371 0.54117647 0.42352941 0.64313725
v -0.05879338 -0.00683779 0.00447371 0.54117647 0.42352941 0.64313725
v -0.05879338 -0.00655506 0.00570730 0.54117647 0.42352941 0.64313725
v -0.04811890 0.01075253 0.00504629 0.54117647 0.42352941 0.64313725
v -0.05659555 -0.00667702 0.00588590 0.54117647 0.42352941 0.64313725
v -0.05439438 -0.00676387 0.00599009 0.54117647 0.42352941 0.64313725
v -0.04811890 -0.00695975 0.00619496 0.54117647 0.42352941 0.64313725
v -0.04811890 0.01092069 0.00476525 0.54117647 0.42352941 0.64313725
v -0.04811890 0.01116832 0.00382758 0.54117647 0.42352941 0.64313725
v -0.04811890 0.01120343 0.00368225 0.54117647 0.42352941 0.64313725
v -0.04925612 0.01114984 0.00346075 0.54117647 0.42352941 0.64313725
v -0.04925612 0.01114984 0.00329878 0.54117647 0.42352941 0.64313725
v -0.04811890 0.01120343 0.00308690 0.54117647 0.42352941 0.64313725
v -0.04811890 0.01095396 0.00223066 0.54117647 0.42352941 0.64313725
v -0.04811890 -0.00767490 0.00447371 0.54117647 0.42352941 0.64313725
v -0.05219489 -0.00742728 0.00447371 0.54117647 0.42352941 0.64313725
f 1 2 3
f 1 3 4
f 1 4 5
f 1 5 6
f 1 6 7
f 1 7 8
f 1 8 9
f 1 9 10
f 1 10 2
f 2 11 12
f 2 12 13
f 2 13 3
f 2 10 14
f 2 14 15
f 2 15 11
f 3 13 4
f 4 13 16
f 4 16 5
f 5 16 17
f 5 17 6
f 6 17 18
f 6 18 19
f 6 19 7
f 7 19 20
f 7 20 21
f 7 21 22
f 7 22 8
f 8 22 23
f 8 23 9
f 9 23 24
f 9 24 25
f 9 25 10
f 10 25 26
f 10 26 27
f 10 27 14
f 11 28 29
f 11 29 12
f 11 15 28
f 12 29 13
f 13 30 31
f 13 31 32
f 13 32 16
f 13 29 30
f 14 27 33
f 14 33 15
f 15 33 34
f 15 34 35
f 15 35 28
f 16 32 17
f 17 32 36
f 17 36 18
f 18 36 37
f 18 37 38
f 18 38 39
f 18 39 40
f 18 40 19
f 19 40 21
f 19 21 20
f 21 40 41
f 21 41 42
f 21 42 43
f 21 43 22
f 22 43 44
f 22 44 23
f 23 45 46
f 23 46 24
f 23 44 47
f 23 47 45
f 24 46 48
f 24 48 49
f 24 49 25
f 25 49 50
f 25 50 51
f 25 51 26
f 26 51 52
f 26 52 27
f 27 52 53
f 27 53 54
f 27 54 33
f 28 35 60
f 28 60 55
f 28 55 56
f 28 56 30
f 28 30 29
f 30 56 57
f 30 57 58
f 30 58 59
f 30 59 36
f 30 36 32
f 30 32 31
f 33 54 34
f 34 54 35
f 35 54 61
f 35 61 62
f 35 62 60
f 36 59 37
f 37 63 64
f 37 64 65
f 37 65 38
f 37 59 63
f 38 65 39
f 39 41 40
f 39 65 66
f 39 66 41
f 41 66 42
f 42 66 67
f 42 67 68
f 42 68 43
f 43 68 69
f 43 69 44
f 44 69 70
f 44 70 47
f 45 71 48
f 45 48 46
f 45 47 70
f 45 70 91
f 45 91 90
f 45 90 89
f 45 89 109
f 45 109 108
f 45 108 105
f 45 105 104
f 45 104 103
f 45 103 99
f 45 99 81
f 45 81 57
f 45 57 80
f 45 80 62
f 45 62 86
f 45 86 102
f 45 102 110
f 45 110 93
f 45 93 92
f 45 92 71
f 48 71 72
f 48 72 73
f 48 73 50
f 48 50 74
f 48 74 49
f 49 74 50
f 50 73 75
f 50 75 76
f 50 76 51
f 51 76 77
f 51 77 52
f 52 77 78
f 52 78 53
f 53 78 54
f 54 78 79
f 54 79 61
f 55 60 80
f 55 80 56
f 56 80 57
f 57 81 82
f 57 82 58
f 58 82 83
f 58 83 59
f 59 83 63
f 60 62 80
f 61 79 84
f 61 84 85
f 61 85 62
f 62 85 86
f 63 83 64
f 64 67 65
f 64 83 87
f 64 87 67
f 65 67 66
f 67 87 88
f 67 88 68
f 68 88 89
f 68 89 90
f 68 90 91
f 68 91 70
f 68 70 69
f 71 92 72
f 72 92 93
f 72 93 94
f 72 94 75
f 72 75 73
f 75 94 95
f 75 95 96
f 75 96 76
f 76 96 97
f 76 97 77
f 77 97 78
f 78 97 96
f 78 96 98
f 78 98 84
f 78 84 79
f 81 99 82
f 82 99 87
f 82 87 83
f 84 98 100
f 84 100 101
f 84 101 85
f 85 101 86
f 86 101 102
f 87 99 103
f 87 103 104
f 87 104 105
f 87 105 106
f 87 106 107
f 87 107 88
f 88 107 108
f 88 108 109
f 88 109 89
f 93 110 94
f 94 110 111
f 94 111 95
f 95 111 100
f 95 100 98
f 95 98 96
f 100 111 110
f 100 110 101
f 101 110 102
f 105 108 107
f 105 107 106

