# https://github.com/mikedh/trimesh
v 0.13420166 -0.04151904 0.00825594 0.43529412 0.89019608 0.96078431
v 0.13340931 -0.03203821 0.00845666 0.43529412 0.89019608 0.96078431
v 0.13338447 -0.04151904 0.01105560 0.43529412 0.89019608 0.96078431
v 0.13303673 -0.04395256 0.01056292 0.43529412 0.89019608 0.96078431
v 0.13329256 -0.04429484 0.00825594 0.43529412 0.89019608 0.96078431
v 0.13393837 -0.04151904 0.00509654 0.43529412 0.89019608 0.96078431
v 0.13344904 -0.03203821 0.00498445 0.43529412 0.89019608 0.96078431
v 0.13341924 -0.03203821 0.00818816 0.43529412 0.89019608 0.96078431
v 0.13285788 -0.03203821 0.01027096 0.43529412 0.89019608 0.96078431
v 0.13231889 -0.03203821 0.01153785 0.43529412 0.89019608 0.96078431
v 0.13123096 -0.04151904 0.01458255 0.43529412 0.89019608 0.96078431
v 0.12972326 -0.04359643 0.01644899 0.43529412 0.89019608 0.96078431
v 0.13215248 -0.04487651 0.01153785 0.43529412 0.89019608 0.96078431
v 0.13054293 -0.04807174 0.01158998 0.43529412 0.89019608 0.96078431
v 0.13046593 -0.04466283 0.01466857 0.43529412 0.89019608 0.96078431
v 0.12975555 -0.04972970 0.01065155 0.43529412 0.89019608 0.96078431
v 0.13232883 -0.04587563 0.00825594 0.43529412 0.89019608 0.96078431
v 0.13311870 -0.04380615 0.00509654 0.43529412 0.89019608 0.96078431
v 0.13280573 -0.04330164 0.00315711 0.43529412 0.89019608 0.96078431
v 0.13312118 -0.04151904 0.00262273 0.43529412 0.89019608 0.96078431
v 0.13341676 -0.03203821 0.00477330 0.43529412 0.89019608 0.96078431
v 0.13048580 -0.03203821 0.01414722 0.43529412 0.89019608 0.96078431
v 0.12976797 -0.03913498 0.01650373 0.43529412 0.89019608 0.96078431
v 0.12988471 -0.04151904 0.01663407 0.43529412 0.89019608 0.96078431
v 0.12657869 -0.04069797 0.01951714 0.43529412 0.89019608 0.96078431
v 0.12613409 -0.04280505 0.01924343 0.43529412 0.89019608 0.96078431
v 0.12795476 -0.04466283 0.01722059 0.43529412 0.89019608 0.96078431
v 0.12694383 -0.04721506 0.01666795 0.43529412 0.89019608 0.96078431
v 0.12905262 -0.04570548 0.01577905 0.43529412 0.89019608 0.96078431
v 0.13001884 -0.04717153 0.01367018 0.43529412 0.89019608 0.96078431
v 0.12936061 -0.04928058 0.01275781 0.43529412 0.89019608 0.96078431
v 0.12975555 -0.04972970 0.00930125 0.43529412 0.89019608 0.96078431
v 0.12814105 -0.05060023 0.01158998 0.43529412 0.89019608 0.96078431
v 0.12938546 -0.04612294 0.00087098 0.43529412 0.89019608 0.96078431
v 0.13013310 -0.04401389 -0.00047411 0.43529412 0.89019608 0.96078431
v 0.13222947 -0.04151904 0.00104303 0.43529412 0.89019608 0.96078431
v 0.13240335 -0.03203821 0.00193454 0.43529412 0.89019608 0.96078431
v 0.12892842 -0.03203821 0.01572691 0.43529412 0.89019608 0.96078431
v 0.12657869 -0.03929722 0.01951714 0.43529412 0.89019608 0.96078431
v 0.12493935 -0.04165951 0.01995769 0.43529412 0.89019608 0.96078431
v 0.12402530 -0.04408116 0.01967616 0.43529412 0.89019608 0.96078431
v 0.12493935 -0.04495367 0.01892802 0.43529412 0.89019608 0.96078431
v 0.12614154 -0.04932411 0.01609447 0.43529412 0.89019608 0.96078431
v 0.12815346 -0.04824782 0.01488232 0.43529412 0.89019608 0.96078431
v 0.12725182 -0.05011352 0.01398820 0.43529412 0.89019608 0.96078431
v 0.12472822 -0.05208803 0.01141794 0.43529412 0.89019608 0.96078431
v 0.12472822 -0.05180709 0.00825594 0.43529412 0.89019608 0.96078431
v 0.12788272 -0.05035489 0.00825072 0.43529412 0.89019608 0.96078431
v 0.12646693 -0.04953383 0.00314147 0.43529412 0.89019608 0.96078431
v 0.12707546 -0.04693214 -0.00122746 0.43529412 0.89019608 0.96078431
v 0.12868252 -0.04491410 -0.00140733 0.43529412 0.89019608 0.96078431
v 0.12696866 -0.04468064 -0.00320599 0.43529412 0.89019608 0.96078431
v 0.12925878 -0.04151904 -0.00260383 0.43529412 0.89019608 0.96078431
v 0.13064974 -0.04151904 -0.00102413 0.43529412 0.89019608 0.96078431
v 0.13078636 -0.03203821 -0.00080256 0.43529412 0.89019608 0.96078431
v 0.13097513 -0.03203821 -0.00054449 0.43529412 0.89019608 0.96078431
v 0.12734621 -0.03203821 0.01675137 0.43529412 0.89019608 0.96078431
v 0.12592544 -0.03719014 0.01915741 0.43529412 0.89019608 0.96078431
v 0.12481516 -0.03829017 0.01988209 0.43529412 0.89019608 0.96078431
v 0.12156627 -0.04151904 0.02061720 0.43529412 0.89019608 0.96078431
v 0.12156627 -0.04438980 0.01984038 0.43529412 0.89019608 0.96078431
v 0.12156627 -0.04597060 0.01911831 0.43529412 0.89019608 0.96078431
v 0.12494432 -0.04809944 0.01724405 0.43529412 0.89019608 0.96078431
v 0.12403523 -0.04968419 0.01643856 0.43529412 0.89019608 0.96078431
v 0.12494432 -0.05050130 0.01485626 0.43529412 0.89019608 0.96078431
v 0.12273369 -0.04968419 0.01643856 0.43529412 0.89019608 0.96078431
v 0.12205311 -0.05025399 0.01458255 0.43529412 0.89019608 0.96078431
v 0.12125828 -0.05104142 0.01172554 0.43529412 0.89019608 0.96078431
v 0.12156627 -0.05224829 0.00825594 0.43529412 0.89019608 0.96078431
v 0.12156627 -0.05137381 0.00509654 0.43529412 0.89019608 0.96078431
v 0.12472822 -0.05077235 0.00509654 0.43529412 0.89019608 0.96078431
v 0.12472822 -0.04989985 0.00277913 0.43529412 0.89019608 0.96078431
v 0.12636011 -0.04629309 -0.00283583 0.43529412 0.89019608 0.96078431
v 0.12472822 -0.04151904 -0.00501508 0.43529412 0.89019608 0.96078431
v 0.12767656 -0.04151904 -0.00364393 0.43529412 0.89019608 0.96078431
v 0.12789017 -0.03203821 -0.00300006 0.43529412 0.89019608 0.96078431
v 0.12472822 -0.03203821 0.01766634 0.43529412 0.89019608 0.96078431
v 0.12381913 -0.03642645 0.01955364 0.43529412 0.89019608 0.96078431
v 0.12156627 -0.03835744 0.02044515 0.43529412 0.89019608 0.96078431
v 0.11823293 -0.03818729 0.01990034 0.43529412 0.89019608 0.96078431
v 0.11817581 -0.04170304 0.01996551 0.43529412 0.89019608 0.96078431
v 0.11907745 -0.04383979 0.01966312 0.43529412 0.89019608 0.96078431
v 0.11809135 -0.04493982 0.01810949 0.43529412 0.89019608 0.96078431
v 0.11921406 -0.04688465 0.01697295 0.43529412 0.89019608 0.96078431
v 0.12047337 -0.04909263 0.01458255 0.43529412 0.89019608 0.96078431
v 0.11931093 -0.05022233 0.01087834 0.43529412 0.89019608 0.96078431
v 0.11831490 -0.05069124 0.00824030 0.43529412 0.89019608 0.96078431
v 0.11635763 -0.04970002 0.00629565 0.43529412 0.89019608 0.96078431
v 0.11861297 -0.05030741 0.00518257 0.43529412 0.89019608 0.96078431
v 0.11980770 -0.04958329 0.00339954 0.43529412 0.89019608 0.96078431
v 0.12156627 -0.04993546 0.00297464 0.43529412 0.89019608 0.96078431
v 0.12308639 -0.04629111 -0.00284365 0.43529412 0.89019608 0.96078431
v 0.12472822 -0.04746830 -0.00122746 0.43529412 0.89019608 0.96078431
v 0.12472822 -0.04900360 0.00119683 0.43529412 0.89019608 0.96078431
v 0.12472822 -0.04630892 -0.00285408 0.43529412 0.89019608 0.96078431
v 0.12472822 -0.04468064 -0.00384204 0.43529412 0.89019608 0.96078431
v 0.12157372 -0.04133504 -0.00567459 0.43529412 0.89019608 0.96078431
v 0.12052802 -0.04015983 -0.00601347 0.43529412 0.89019608 0.96078431
v 0.12052802 -0.03983338 -0.00601347 0.43529412 0.89019608 0.96078431
v 0.12478038 -0.03203821 -0.00415746 0.43529412 0.89019608 0.96078431
v 0.12549574 -0.03203821 -0.00392024 0.43529412 0.89019608 0.96078431
v 0.12156627 -0.03203821 0.01784621 0.43529412 0.89019608 0.96078431
v 0.12156627 -0.03626620 0.01966834 0.43529412 0.89019608 0.96078431
v 0.11916935 -0.03644822 0.01955625 0.43529412 0.89019608 0.96078431
v 0.11706056 -0.03702000 0.01925386 0.43529412 0.89019608 0.96078431
v 0.11640730 -0.03912707 0.01953018 0.43529412 0.89019608 0.96078431
v 0.11640730 -0.04077118 0.01953018 0.43529412 0.89019608 0.96078431
v 0.11696866 -0.04287627 0.01924604 0.43529412 0.89019608 0.96078431
v 0.11586830 -0.04393277 0.01713717 0.43529412 0.89019608 0.96078431
v 0.11375951 -0.04298113 0.01578166 0.43529412 0.89019608 0.96078431
v 0.11635763 -0.04970002 0.00717674 0.43529412 0.89019608 0.96078431
v 0.11334222 -0.04680156 0.00591767 0.43529412 0.89019608 0.96078431
v 0.11389115 -0.04280505 -0.00247870 0.43529412 0.89019608 0.96078431
v 0.11599995 -0.04350542 -0.00328419 0.43529412 0.89019608 0.96078431
v 0.11840681 -0.04387936 -0.00379251 0.43529412 0.89019608 0.96078431
v 0.12184447 -0.04474395 -0.00382119 0.43529412 0.89019608 0.96078431
v 0.11982012 -0.04015983 -0.00601347 0.43529412 0.89019608 0.96078431
v 0.11862290 -0.04133504 -0.00535396 0.43529412 0.89019608 0.96078431
v 0.11982012 -0.03983338 -0.00601347 0.43529412 0.89019608 0.96078431
v 0.12156627 -0.03203821 -0.00432429 0.43529412 0.89019608 0.96078431
v 0.11824039 -0.03203821 0.01698077 0.43529412 0.89019608 0.96078431
v 0.11530943 -0.03818729 0.01868559 0.43529412 0.89019608 0.96078431
v 0.11816091 -0.03203821 0.01694427 0.43529412 0.89019608 0.96078431
v 0.11669046 -0.03203821 0.01624827 0.43529412 0.89019608 0.96078431
v 0.11315345 -0.03622663 0.01660800 0.43529412 0.89019608 0.96078431
v 0.11280570 -0.03835744 0.01699641 0.43529412 0.89019608 0.96078431
v 0.11303174 -0.04087406 0.01682957 0.43529412 0.89019608 0.96078431
v 0.11043362 -0.04001936 0.01315143 0.43529412 0.89019608 0.96078431
v 0.11334222 -0.04680156 0.00714285 0.43529412 0.89019608 0.96078431
v 0.10966859 -0.04100068 0.00509654 0.43529412 0.89019608 0.96078431
v 0.10988966 -0.04079096 0.00193454 0.43529412 0.89019608 0.96078431
v 0.11118623 -0.04236978 0.00193454 0.43529412 0.89019608 0.96078431
v 0.11328261 -0.04335902 -0.00037244 0.43529412 0.89019608 0.96078431
v 0.11327764 -0.04069995 -0.00311215 0.43529412 0.89019608 0.96078431
v 0.11506602 -0.04165951 -0.00376905 0.43529412 0.89019608 0.96078431
v 0.11030446 -0.04026271 0.00006028 0.43529412 0.89019608 0.96078431
v 0.11327764 -0.03910926 -0.00311215 0.43529412 0.89019608 0.96078431
v 0.11504366 -0.03817542 -0.00372995 0.43529412 0.89019608 0.96078431
v 0.11859807 -0.03203821 -0.00346927 0.43529412 0.89019608 0.96078431
v 0.11505360 -0.03203821 0.01482237 0.43529412 0.89019608 0.96078431
v 0.11497163 -0.03203821 0.01474416 0.43529412 0.89019608 0.96078431
v 0.11349374 -0.03203821 0.01315925 0.43529412 0.89019608 0.96078431
v 0.11031688 -0.03648976 0.01334173 0.43529412 0.89019608 0.96078431
v 0.11122597 -0.03835744 0.01495010 0.43529412 0.89019608 0.96078431
v 0.11031192 -0.03835744 0.01336780 0.43529412 0.89019608 0.96078431
v 0.10977291 -0.03835744 0.01141794 0.43529412 0.89019608 0.96078431
v 0.10912960 -0.03835744 0.00825594 0.43529412 0.89019608 0.96078431
v 0.10882905 -0.03835744 0.00509654 0.43529412 0.89019608 0.96078431
v 0.10950218 -0.03835744 0.00193454 0.43529412 0.89019608 0.96078431
v 0.11034421 -0.03835744 0.00012284 0.43529412 0.89019608 0.96078431
v 0.11048826 -0.03676081 0.00033660 0.43529412 0.89019608 0.96078431
v 0.11385390 -0.03700021 -0.00269767 0.43529412 0.89019608 0.96078431
v 0.11724188 -0.03203821 -0.00273938 0.43529412 0.89019608 0.96078431
v 0.11269145 -0.03203821 0.01152482 0.43529412 0.89019608 0.96078431
v 0.10997163 -0.03604065 0.01141794 0.43529412 0.89019608 0.96078431
v 0.10964625 -0.03560934 0.00825594 0.43529412 0.89019608 0.96078431
v 0.10965866 -0.03568255 0.00509654 0.43529412 0.89019608 0.96078431
v 0.11011321 -0.03631764 0.00193454 0.43529412 0.89019608 0.96078431
v 0.11297958 -0.03203821 0.00169472 0.43529412 0.89019608 0.96078431
v 0.11310625 -0.03203821 0.00152007 0.43529412 0.89019608 0.96078431
v 0.11517531 -0.03203821 -0.00110494 0.43529412 0.89019608 0.96078431
v 0.11522747 -0.03203821 -0.00115447 0.43529412 0.89019608 0.96078431
v 0.11176745 -0.03203821 0.00825594 0.43529412 0.89019608 0.96078431
v 0.11177987 -0.03203821 0.00509654 0.43529412 0.89019608 0.96078431
f 89 113 114
f 88 113 89
f 88 112 113
f 88 129 112
f 88 111 129
f 87 111 88
f 84 109 110
f 86 110 111
f 89 114 90
f 84 86 85
f 84 110 86
f 83 109 84
f 83 108 109
f 82 108 83
f 81 108 82
f 86 111 87
f 105 123 124
f 92 115 116
f 91 114 92
f 105 121 123
f 105 122 106
f 81 107 108
f 104 121 105
f 102 121 104
f 102 104 103
f 99 120 100
f 99 119 120
f 98 119 99
f 98 117 119
f 97 118 117
f 97 117 98
f 96 116 97
f 95 116 96
f 92 95 93
f 92 116 95
f 92 114 115
f 90 114 91
f 97 116 118
f 73 93 95
f 80 106 81
f 70 92 93
f 70 91 92
f 70 90 91
f 70 89 90
f 69 89 70
f 69 88 89
f 69 87 88
f 70 93 94
f 68 87 69
f 67 86 68
f 67 85 86
f 67 84 85
f 66 84 67
f 105 124 125
f 66 82 83
f 66 83 84
f 68 86 87
f 70 94 72
f 70 72 71
f 72 94 73
f 80 105 106
f 80 104 105
f 79 104 80
f 79 103 104
f 78 103 79
f 77 103 78
f 77 102 103
f 74 96 97
f 74 76 75
f 74 101 76
f 74 100 101
f 74 99 100
f 74 98 99
f 74 97 98
f 73 96 74
f 73 95 96
f 73 94 93
f 81 106 107
f 105 125 122
f 128 130 129
f 106 126 107
f 143 146 145
f 143 147 146
f 143 155 147
f 143 154 155
f 142 154 143
f 139 152 153
f 138 152 139
f 143 145 144
f 137 152 138
f 137 150 151
f 136 150 137
f 136 149 150
f 134 136 137
f 131 148 149
f 131 136 132
f 131 149 136
f 137 151 152
f 147 155 156
f 147 156 148
f 148 156 157
f 64 66 65
f 158 164 159
f 157 164 158
f 156 164 157
f 156 163 164
f 155 163 156
f 154 163 155
f 152 162 153
f 151 162 152
f 151 161 162
f 151 160 161
f 151 159 160
f 151 158 159
f 149 151 150
f 149 158 151
f 148 158 149
f 148 157 158
f 130 148 131
f 106 122 126
f 130 147 148
f 128 146 147
f 113 132 136
f 113 133 132
f 113 135 114
f 113 134 135
f 112 133 113
f 112 132 133
f 112 131 132
f 113 136 134
f 112 130 131
f 110 129 111
f 110 128 129
f 110 127 128
f 108 110 109
f 108 127 110
f 107 127 108
f 107 126 127
f 112 129 130
f 114 135 118
f 114 118 115
f 115 118 116
f 128 145 146
f 128 144 145
f 127 144 128
f 126 144 127
f 126 143 144
f 125 143 126
f 125 142 143
f 125 141 142
f 125 140 141
f 122 125 126
f 119 139 120
f 119 138 139
f 119 137 138
f 118 135 134
f 117 137 119
f 117 134 137
f 117 118 134
f 128 147 130
f 62 64 63
f 124 140 125
f 62 82 66
f 10 23 11
f 10 22 23
f 6 21 7
f 6 20 21
f 6 19 20
f 6 18 19
f 5 18 6
f 11 23 24
f 5 17 18
f 5 14 16
f 4 15 13
f 4 12 15
f 4 14 5
f 4 13 14
f 3 12 4
f 3 11 12
f 5 16 17
f 11 24 12
f 12 24 25
f 12 25 26
f 19 36 20
f 19 35 36
f 19 34 35
f 18 32 19
f 17 32 18
f 16 33 32
f 16 31 33
f 16 32 17
f 14 31 16
f 14 30 31
f 13 15 30
f 13 30 14
f 12 30 15
f 12 29 30
f 12 28 29
f 12 27 28
f 12 26 27
f 3 10 11
f 19 32 34
f 3 9 10
f 2 22 10
f 2 101 100
f 2 76 101
f 2 55 76
f 2 56 55
f 2 37 56
f 2 7 21
f 2 8 7
f 2 100 120
f 2 9 3
f 1 7 8
f 1 6 7
f 1 5 6
f 1 4 5
f 1 3 4
f 1 2 3
f 62 66 64
f 1 8 2
f 2 120 139
f 2 139 153
f 2 153 162
f 2 38 22
f 2 57 38
f 2 77 57
f 2 102 77
f 2 121 102
f 2 123 121
f 2 124 123
f 2 140 124
f 2 141 140
f 2 142 141
f 2 154 142
f 2 163 154
f 2 164 163
f 2 159 164
f 2 160 159
f 2 161 160
f 2 162 161
f 2 10 9
f 20 36 37
f 2 21 37
f 22 38 23
f 47 49 48
f 47 71 49
f 47 70 71
f 47 69 70
f 46 69 47
f 46 68 69
f 46 67 68
f 49 71 72
f 46 66 67
f 45 65 46
f 43 65 45
f 43 64 65
f 43 63 64
f 42 63 43
f 41 63 42
f 41 62 63
f 46 65 66
f 49 72 73
f 49 73 50
f 50 73 51
f 61 82 62
f 20 37 21
f 60 82 61
f 60 81 82
f 60 80 81
f 60 79 80
f 59 78 79
f 58 78 59
f 58 77 78
f 57 77 58
f 53 76 55
f 53 75 76
f 53 55 54
f 52 73 74
f 52 75 53
f 52 74 75
f 51 73 52
f 41 61 62
f 41 60 61
f 59 79 60
f 40 60 41
f 31 43 45
f 31 44 43
f 30 44 31
f 29 44 30
f 29 43 44
f 28 42 43
f 28 43 29
f 31 45 33
f 26 28 27
f 26 41 42
f 26 40 41
f 25 39 40
f 24 39 25
f 23 38 39
f 40 59 60
f 23 39 24
f 26 42 28
f 32 33 46
f 25 40 26
f 32 47 48
f 32 46 47
f 39 58 59
f 38 57 39
f 36 55 56
f 36 54 55
f 35 54 36
f 35 53 54
f 35 52 53
f 36 56 37
f 39 57 58
f 32 48 49
f 32 49 34
f 35 51 52
f 33 45 46
f 39 59 40
f 34 49 50
f 34 50 51
f 34 51 35

