# https://github.com/mikedh/trimesh
v -0.16303962 0.02828405 -0.00439144 0.54509804 0.71372549 0.60000000
v -0.16618730 0.02809883 -0.00755315 0.54509804 0.71372549 0.60000000
v -0.16618730 0.02799079 -0.00439144 0.54509804 0.71372549 0.60000000
v -0.16303962 0.02728081 -0.00139256 0.54509804 0.71372549 0.60000000
v -0.15671733 0.02730139 -0.00122973 0.54509804 0.71372549 0.60000000
v -0.13457586 0.02684350 -0.00199301 0.54509804 0.71372549 0.60000000
v -0.13775045 0.02729624 -0.00439144 0.54509804 0.71372549 0.60000000
v -0.14407274 0.02748660 -0.00755315 0.54509804 0.71372549 0.60000000
v -0.16648324 0.02701327 -0.01100322 0.54509804 0.71372549 0.60000000
v -0.16903906 0.02688465 -0.01071148 0.54509804 0.71372549 0.60000000
v -0.16936190 0.02767181 -0.00755315 0.54509804 0.71372549 0.60000000
v -0.14407274 0.02695668 -0.01006014 0.54509804 0.71372549 0.60000000
v -0.16960403 0.02717277 -0.00412005 0.54509804 0.71372549 0.60000000
v -0.16871621 0.02673031 -0.00234243 0.54509804 0.71372549 0.60000000
v -0.16618730 0.02703900 -0.00180982 0.54509804 0.71372549 0.60000000
v -0.16107566 0.02644735 0.00032060 0.54509804 0.71372549 0.60000000
v -0.15897721 0.02650908 0.00039523 0.54509804 0.71372549 0.60000000
v -0.15997263 0.02716248 -0.00093459 0.54509804 0.71372549 0.60000000
v -0.16303962 0.02636503 0.00018830 0.54509804 0.71372549 0.60000000
v -0.15671733 0.02653995 0.00043594 0.54509804 0.71372549 0.60000000
v -0.15354273 0.02651937 0.00041220 0.54509804 0.71372549 0.60000000
v -0.14948032 0.02645764 0.00031721 0.54509804 0.71372549 0.60000000
v -0.13457586 0.02607177 -0.00041216 0.54509804 0.71372549 0.60000000
v -0.05052979 0.01702203 0.00358070 0.54509804 0.71372549 0.60000000
v -0.02392237 0.01518533 0.00193199 0.54509804 0.71372549 0.60000000
v -0.13193934 0.02669944 -0.00230172 0.54509804 0.71372549 0.60000000
v -0.13457586 0.02711103 -0.00439144 0.54509804 0.71372549 0.60000000
v -0.13775045 0.02717791 -0.00755315 0.54509804 0.71372549 0.60000000
v -0.14089815 0.02735798 -0.00755315 0.54509804 0.71372549 0.60000000
v -0.14089815 0.02688980 -0.00988373 0.54509804 0.71372549 0.60000000
v -0.16772080 0.02647307 -0.01229912 0.54509804 0.71372549 0.60000000
v -0.16777460 0.02647307 -0.01229912 0.54509804 0.71372549 0.60000000
v -0.16989997 0.02615409 -0.01176312 0.54509804 0.71372549 0.60000000
v -0.17119133 0.02667886 -0.00965644 0.54509804 0.71372549 0.60000000
v -0.17146036 0.02689495 -0.00755315 0.54509804 0.71372549 0.60000000
v -0.17137965 0.02682806 -0.00499189 0.54509804 0.71372549 0.60000000
v -0.14407274 0.02603061 -0.01164099 0.54509804 0.71372549 0.60000000
v -0.14722044 0.02611808 -0.01173937 0.54509804 0.71372549 0.60000000
v -0.16562233 0.02644735 -0.01225163 0.54509804 0.71372549 0.60000000
v -0.17084159 0.02643706 -0.00288522 0.54509804 0.71372549 0.60000000
v -0.16618730 0.02608721 -0.00022897 0.54509804 0.71372549 0.60000000
v -0.16303962 0.02478557 0.00179290 0.54509804 0.71372549 0.60000000
v -0.16303962 0.02307749 0.00337376 0.54509804 0.71372549 0.60000000
v -0.16618730 0.02450260 0.00156561 0.54509804 0.71372549 0.60000000
v -0.15671733 0.02488846 0.00192520 0.54509804 0.71372549 0.60000000
v -0.15039504 0.02322154 0.00346535 0.54509804 0.71372549 0.60000000
v -0.14722044 0.02320611 0.00345518 0.54509804 0.71372549 0.60000000
v -0.12825358 0.02291800 0.00318378 0.54509804 0.71372549 0.60000000
v -0.13140127 0.02440485 0.00164024 0.54509804 0.71372549 0.60000000
v -0.12825358 0.02422993 0.00160293 0.54509804 0.71372549 0.60000000
v -0.12507898 0.02283054 0.00301756 0.54509804 0.71372549 0.60000000
v -0.04361562 0.01389912 0.00674919 0.54509804 0.71372549 0.60000000
v -0.02392237 0.01320457 0.00580272 0.54509804 0.71372549 0.60000000
v -0.02074777 0.01309139 0.00560256 0.54509804 0.71372549 0.60000000
v -0.02074777 0.01411006 0.00402171 0.54509804 0.71372549 0.60000000
v -0.03799282 0.01700145 0.00039863 0.54509804 0.71372549 0.60000000
v 0.00771598 0.01203155 0.00193199 0.54509804 0.71372549 0.60000000
v -0.00810320 0.01398144 0.00077857 0.54509804 0.71372549 0.60000000
v -0.03678217 0.01730500 -0.00111778 0.54509804 0.71372549 0.60000000
v -0.03398422 0.01718666 -0.00209818 0.54509804 0.71372549 0.60000000
v -0.03398422 0.01718666 -0.00375367 0.54509804 0.71372549 0.60000000
v -0.13522154 0.02661713 -0.00939183 0.54509804 0.71372549 0.60000000
v -0.13775045 0.02677147 -0.00965983 0.54509804 0.71372549 0.60000000
v -0.03645933 0.01732558 -0.00463908 0.54509804 0.71372549 0.60000000
v -0.14089815 0.02588142 -0.01146459 0.54509804 0.71372549 0.60000000
v -0.16303962 0.02498107 -0.01387658 0.54509804 0.71372549 0.60000000
v -0.16303962 0.02348907 -0.01562367 0.54509804 0.71372549 0.60000000
v -0.16648324 0.02535664 -0.01356109 0.54509804 0.71372549 0.60000000
v -0.16618730 0.02351480 -0.01564063 0.54509804 0.71372549 0.60000000
v -0.16804363 0.02341190 -0.01554904 0.54509804 0.71372549 0.60000000
v -0.16895835 0.02478042 -0.01369679 0.54509804 0.71372549 0.60000000
v -0.17014210 0.02285111 -0.01509106 0.54509804 0.71372549 0.60000000
v -0.17146036 0.02404472 -0.01298438 0.54509804 0.71372549 0.60000000
v -0.17183701 0.02501708 -0.01071148 0.54509804 0.71372549 0.60000000
v -0.17256340 0.02488846 -0.00755315 0.54509804 0.71372549 0.60000000
v -0.17213294 0.02518687 -0.00412005 0.54509804 0.71372549 0.60000000
v -0.17172939 0.02423507 -0.00122973 0.54509804 0.71372549 0.60000000
v -0.14407274 0.02444601 -0.01366626 0.54509804 0.71372549 0.60000000
v -0.14089815 0.02429681 -0.01359841 0.54509804 0.71372549 0.60000000
v -0.14722044 0.02453862 -0.01372732 0.54509804 0.71372549 0.60000000
v -0.16960403 0.02571164 -0.00126704 0.54509804 0.71372549 0.60000000
v -0.17119133 0.02352508 0.00057164 0.54509804 0.71372549 0.60000000
v -0.16936190 0.02396239 0.00101604 0.54509804 0.71372549 0.60000000
v -0.16618730 0.02278938 0.00314986 0.54509804 0.71372549 0.60000000
v -0.16618730 0.02120477 0.00408616 0.54509804 0.71372549 0.60000000
v -0.16303962 0.02149803 0.00420150 0.54509804 0.71372549 0.60000000
v -0.15354273 0.02319582 0.00344839 0.54509804 0.71372549 0.60000000
v -0.15671733 0.02156491 0.00422864 0.54509804 0.71372549 0.60000000
v -0.15354273 0.02161636 0.00423204 0.54509804 0.71372549 0.60000000
v -0.12825358 0.02133339 0.00421507 0.54509804 0.71372549 0.60000000
v -0.02392237 0.00778193 0.00996519 0.54509804 0.71372549 0.60000000
v -0.12507898 0.02125108 0.00419133 0.54509804 0.71372549 0.60000000
v -0.05235921 0.01412035 0.00690185 0.54509804 0.71372549 0.60000000
v -0.02074777 0.00931509 0.00907299 0.54509804 0.71372549 0.60000000
v -0.02392237 0.01162511 0.00757015 0.54509804 0.71372549 0.60000000
v -0.02074777 0.01151192 0.00749213 0.54509804 0.71372549 0.60000000
v 0.09910667 -0.00131926 0.01055207 0.54509804 0.71372549 0.60000000
v 0.09910667 0.00008527 0.00847253 0.54509804 0.71372549 0.60000000
v 0.09910667 0.00022418 0.00825542 0.54509804 0.71372549 0.60000000
v 0.09910667 0.00105250 0.00653208 0.54509804 0.71372549 0.60000000
v 0.09910667 0.00113996 0.00631158 0.54509804 0.71372549 0.60000000
v -0.00616615 0.01387340 0.00048344 0.54509804 0.71372549 0.60000000
v 0.00771598 0.01267466 -0.00122973 0.54509804 0.71372549 0.60000000
v 0.00771598 0.01225278 -0.00439144 0.54509804 0.71372549 0.60000000
v -0.03532939 0.01695515 -0.00586035 0.54509804 0.71372549 0.60000000
v -0.11560900 0.02310321 -0.01186489 0.54509804 0.71372549 0.60000000
v -0.12825358 0.02367943 -0.01278423 0.54509804 0.71372549 0.60000000
v -0.13140127 0.02384921 -0.01297081 0.54509804 0.71372549 0.60000000
v -0.16303962 0.02172954 -0.01691957 0.54509804 0.71372549 0.60000000
v -0.14089815 0.02303633 -0.01517927 0.54509804 0.71372549 0.60000000
v -0.16618730 0.02172954 -0.01688564 0.54509804 0.71372549 0.60000000
v -0.16920048 0.02176556 -0.01619698 0.54509804 0.71372549 0.60000000
v -0.16618730 0.01930633 -0.01828670 0.54509804 0.71372549 0.60000000
v -0.17129894 0.02074174 -0.01582382 0.54509804 0.71372549 0.60000000
v -0.17194462 0.02176556 -0.01397496 0.54509804 0.71372549 0.60000000
v -0.17315527 0.02172954 -0.01071487 0.54509804 0.71372549 0.60000000
v -0.17342431 0.02172954 -0.00755315 0.54509804 0.71372549 0.60000000
v -0.17353192 0.02172954 -0.00439144 0.54509804 0.71372549 0.60000000
v -0.17310147 0.02172954 -0.00122973 0.54509804 0.71372549 0.60000000
v -0.17178320 0.02172954 0.00129083 0.54509804 0.71372549 0.60000000
v -0.17089539 0.02011921 0.00349249 0.54509804 0.71372549 0.60000000
v -0.16965783 0.02171411 0.00276652 0.54509804 0.71372549 0.60000000
v -0.16879693 0.02065427 0.00380799 0.54509804 0.71372549 0.60000000
v -0.16965783 0.01886388 0.00440505 0.54509804 0.71372549 0.60000000
v -0.16618730 0.01856548 0.00515477 0.54509804 0.71372549 0.60000000
v -0.16303962 0.01856548 0.00534813 0.54509804 0.71372549 0.60000000
v -0.15671733 0.01856548 0.00546008 0.54509804 0.71372549 0.60000000
v -0.13457586 0.01856548 0.00551436 0.54509804 0.71372549 0.60000000
v -0.13140127 0.01856548 0.00551097 0.54509804 0.71372549 0.60000000
v -0.02074777 0.00773562 0.00995162 0.54509804 0.71372549 0.60000000
v -0.02392237 0.00936139 0.00915101 0.54509804 0.71372549 0.60000000
v -0.03656694 0.00780251 0.00995162 0.54509804 0.71372549 0.60000000
v -0.00178091 0.00275029 0.01183440 0.54509804 0.71372549 0.60000000
v -0.00178091 0.00726745 0.00968023 0.54509804 0.71372549 0.60000000
v 0.00771598 0.00692789 0.00943258 0.54509804 0.71372549 0.60000000
v 0.09910667 -0.00323828 0.01213293 0.54509804 0.71372549 0.60000000
v 0.09910667 0.00126858 0.00473072 0.54509804 0.71372549 0.60000000
v 0.09910667 0.00126858 0.00293275 0.54509804 0.71372549 0.60000000
v 0.01086367 0.01088940 -0.00626404 0.54509804 0.71372549 0.60000000
v 0.00771598 0.01118266 -0.00661007 0.54509804 0.71372549 0.60000000
v -0.00963669 0.01383224 -0.00598587 0.54509804 0.71372549 0.60000000
v 0.09910667 0.00102163 0.00150116 0.54509804 0.71372549 0.60000000
v 0.09910667 0.00098562 0.00135189 0.54509804 0.71372549 0.60000000
v -0.10611211 0.02087550 -0.01289279 0.54509804 0.71372549 0.60000000
v -0.10928672 0.02111731 -0.01308616 0.54509804 0.71372549 0.60000000
v -0.02841523 0.01386825 -0.00917811 0.54509804 0.71372549 0.60000000
v -0.16303962 0.01950184 -0.01833419 0.54509804 0.71372549 0.60000000
v -0.14089815 0.02145172 -0.01633946 0.54509804 0.71372549 0.60000000
v -0.13775045 0.02123564 -0.01621395 0.54509804 0.71372549 0.60000000
v -0.16804363 0.01728956 -0.01872771 0.54509804 0.71372549 0.60000000
v -0.16920048 0.01843171 -0.01778463 0.54509804 0.71372549 0.60000000
v -0.16618730 0.01772687 -0.01890751 0.54509804 0.71372549 0.60000000
v -0.16303962 0.01791723 -0.01899571 0.54509804 0.71372549 0.60000000
v -0.17159488 0.01856548 -0.01620377 0.54509804 0.71372549 0.60000000
v -0.17288624 0.01856548 -0.01387658 0.54509804 0.71372549 0.60000000
v -0.17016900 0.01540141 -0.01818493 0.54509804 0.71372549 0.60000000
v -0.17070707 0.01305023 -0.01846311 0.54509804 0.71372549 0.60000000
v -0.17431213 0.01162511 -0.01288940 0.54509804 0.71372549 0.60000000
v -0.17377405 0.01827737 -0.01042991 0.54509804 0.71372549 0.60000000
v -0.17412378 0.01703232 -0.00918829 0.54509804 0.71372549 0.60000000
v -0.17390857 0.01885359 -0.00755315 0.54509804 0.71372549 0.60000000
v -0.17463495 0.01540141 -0.00439144 0.54509804 0.71372549 0.60000000
v -0.17396238 0.01927032 -0.00439144 0.54509804 0.71372549 0.60000000
v -0.17468876 0.01540141 -0.00122973 0.54509804 0.71372549 0.60000000
v -0.17425831 0.01769600 -0.00122973 0.54509804 0.71372549 0.60000000
v -0.17390857 0.01927546 -0.00122973 0.54509804 0.71372549 0.60000000
v -0.17277862 0.01871982 0.00202698 0.54509804 0.71372549 0.60000000
v -0.17417760 0.01732043 0.00056146 0.54509804 0.71372549 0.60000000
v -0.17159488 0.01800984 0.00404885 0.54509804 0.71372549 0.60000000
v -0.16936190 0.01540141 0.00556525 0.54509804 0.71372549 0.60000000
v -0.15986501 0.01540141 0.00611821 0.54509804 0.71372549 0.60000000
v -0.15671733 0.01540141 0.00625730 0.54509804 0.71372549 0.60000000
v -0.13140127 0.01458853 0.00693917 0.54509804 0.71372549 0.60000000
v -0.16618730 0.01540141 0.00575522 0.54509804 0.71372549 0.60000000
v -0.12825358 0.01460911 0.00696292 0.54509804 0.71372549 0.60000000
v -0.00178091 0.00568284 0.01059278 0.54509804 0.71372549 0.60000000
v -0.00178091 -0.00040349 0.01239415 0.54509804 0.71372549 0.60000000
v 0.01086367 -0.00040349 0.01254002 0.54509804 0.71372549 0.60000000
v 0.01403827 -0.00040349 0.01256716 0.54509804 0.71372549 0.60000000
v 0.09910667 -0.00673162 0.01384270 0.54509804 0.71372549 0.60000000
v 0.09910667 -0.00482289 0.01317440 0.54509804 0.71372549 0.60000000
v -0.12825358 0.01223734 0.00747178 0.54509804 0.71372549 0.60000000
v 0.09910667 -0.00338748 0.01223131 0.54509804 0.71372549 0.60000000
v 0.09910667 -0.00022856 -0.00097530 0.54509804 0.71372549 0.60000000
v 0.09910667 -0.00036233 -0.00122973 0.54509804 0.71372549 0.60000000
v 0.09910667 -0.00175143 -0.00302430 0.54509804 0.71372549 0.60000000
v 0.00771598 0.00959291 -0.00819093 0.54509804 0.71372549 0.60000000
v -0.04918462 0.01349268 -0.01210236 0.54509804 0.71372549 0.60000000
v 0.00454138 0.00983986 -0.00839447 0.54509804 0.71372549 0.60000000
v -0.15039504 0.01871982 -0.01807976 0.54509804 0.71372549 0.60000000
v -0.14089815 0.01856548 -0.01765911 0.54509804 0.71372549 0.60000000
v -0.13775045 0.01856548 -0.01741486 0.54509804 0.71372549 0.60000000
v -0.04918462 0.01191322 -0.01284869 0.54509804 0.71372549 0.60000000
v -0.16858170 0.01540141 -0.01897536 0.54509804 0.71372549 0.60000000
v -0.16618730 0.01540141 -0.01955885 0.54509804 0.71372549 0.60000000
v -0.16303962 0.01540141 -0.01972508 0.54509804 0.71372549 0.60000000
v -0.14845799 0.01706833 -0.01864969 0.54509804 0.71372549 0.60000000
v -0.17100300 0.01094085 -0.01866326 0.54509804 0.71372549 0.60000000
v -0.17183701 0.01540141 -0.01660407 0.54509804 0.71372549 0.60000000
v -0.17390857 0.00907842 -0.01496554 0.54509804 0.71372549 0.60000000
v -0.17450044 0.00907842 -0.01338129 0.54509804 0.71372549 0.60000000
v -0.17501160 0.00907842 -0.01071487 0.54509804 0.71372549 0.60000000
v -0.17514611 0.01223734 -0.00439144 0.54509804 0.71372549 0.60000000
v -0.17517303 0.01223734 -0.00122973 0.54509804 0.71372549 0.60000000
v -0.17377405 0.01540141 0.00277330 0.54509804 0.71372549 0.60000000
v -0.17436593 0.01540141 0.00119245 0.54509804 0.71372549 0.60000000
v -0.17404308 0.01341036 0.00337037 0.54509804 0.71372549 0.60000000
v -0.17218675 0.01540141 0.00449325 0.54509804 0.71372549 0.60000000
v -0.16936190 0.01223734 0.00576201 0.54509804 0.71372549 0.60000000
v -0.15671733 0.01223734 0.00652869 0.54509804 0.71372549 0.60000000
v -0.11875669 0.00907842 0.00816383 0.54509804 0.71372549 0.60000000
v -0.13140127 0.01223734 0.00740393 0.54509804 0.71372549 0.60000000
v 0.01403827 -0.00356755 0.01291657 0.54509804 0.71372549 0.60000000
v -0.09346754 0.00591436 0.00906281 0.54509804 0.71372549 0.60000000
v 0.09910667 -0.00989054 0.01453136 0.54509804 0.71372549 0.60000000
v 0.09910667 -0.00356755 -0.00414040 0.54509804 0.71372549 0.60000000
v 0.01032560 0.00773562 -0.00931042 0.54509804 0.71372549 0.60000000
v 0.00771598 0.00800830 -0.00949700 0.54509804 0.71372549 0.60000000
v 0.00771598 0.00591436 -0.01051472 0.54509804 0.71372549 0.60000000
v -0.14732805 0.01829795 -0.01810351 0.54509804 0.71372549 0.60000000
v -0.14407274 0.01856548 -0.01782194 0.54509804 0.71372549 0.60000000
v -0.12825358 0.01540141 -0.01773374 0.54509804 0.71372549 0.60000000
v -0.00638138 0.00435547 -0.01230590 0.54509804 0.71372549 0.60000000
v -0.16955022 0.01209329 -0.01906695 0.54509804 0.71372549 0.60000000
v -0.16618730 0.01223734 -0.01991166 0.54509804 0.71372549 0.60000000
v -0.16303962 0.01223734 -0.02008128 0.54509804 0.71372549 0.60000000
v -0.15671733 0.01540141 -0.01941637 0.54509804 0.71372549 0.60000000
v -0.15039504 0.01223734 -0.01947065 0.54509804 0.71372549 0.60000000
v -0.12825358 0.01223734 -0.01833759 0.54509804 0.71372549 0.60000000
v -0.14732805 0.01553517 -0.01887019 0.54509804 0.71372549 0.60000000
v -0.17100300 0.01045209 -0.01866326 0.54509804 0.71372549 0.60000000
v -0.17189082 0.01209329 -0.01726220 0.54509804 0.71372549 0.60000000
v -0.17458115 0.00591436 -0.01336433 0.54509804 0.71372549 0.60000000
v -0.17377405 0.00591436 -0.01494519 0.54509804 0.71372549 0.60000000
v -0.17525374 0.00591436 -0.01071487 0.54509804 0.71372549 0.60000000
v -0.17557658 0.00591436 -0.00755315 0.54509804 0.71372549 0.60000000
v -0.17554968 0.00907842 -0.00439144 0.54509804 0.71372549 0.60000000
v -0.17552276 0.00907842 -0.00122973 0.54509804 0.71372549 0.60000000
v -0.17452735 0.01230937 0.00216267 0.54509804 0.71372549 0.60000000
v -0.17417760 0.01130099 0.00359766 0.54509804 0.71372549 0.60000000
v -0.17280553 0.01230937 0.00442540 0.54509804 0.71372549 0.60000000
v -0.17253649 0.00907842 0.00445254 0.54509804 0.71372549 0.60000000
v -0.16936190 0.00907842 0.00539902 0.54509804 0.71372549 0.60000000
v -0.16618730 0.00907842 0.00567041 0.54509804 0.71372549 0.60000000
v -0.15354273 0.00907842 0.00639978 0.54509804 0.71372549 0.60000000
v -0.11875669 0.00591436 0.00799081 0.54509804 0.71372549 0.60000000
v -0.06742509 0.00094960 0.00989395 0.54509804 0.71372549 0.60000000
v 0.00139369 -0.00356755 0.01238736 0.54509804 0.71372549 0.60000000
v 0.01403827 -0.00673162 0.01260787 0.54509804 0.71372549 0.60000000
v 0.09625491 -0.01305461 0.01450082 0.54509804 0.71372549 0.60000000
v 0.09910667 -0.01305461 0.01457546 0.54509804 0.71372549 0.60000000
v 0.09910667 -0.00673162 -0.00533792 0.54509804 0.71372549 0.60000000
v 0.01403827 0.00275029 -0.01094895 0.54509804 0.71372549 0.60000000
v -0.00425602 0.00385643 -0.01224484 0.54509804 0.71372549 0.60000000
v -0.16618730 0.00907842 -0.01958938 0.54509804 0.71372549 0.60000000
v -0.16933500 0.00926878 -0.01892108 0.54509804 0.71372549 0.60000000
v -0.16303962 0.00907842 -0.01976579 0.54509804 0.71372549 0.60000000
v -0.14722044 0.00907842 -0.01924675 0.54509804 0.71372549 0.60000000
v -0.00008600 -0.00169484 -0.01230590 0.54509804 0.71372549 0.60000000
v -0.00008600 -0.00205497 -0.01230590 0.54509804 0.71372549 0.60000000
v -0.00264182 0.00175220 -0.01235679 0.54509804 0.71372549 0.60000000
v -0.17218675 0.00591436 -0.01652605 0.54509804 0.71372549 0.60000000
v -0.17035732 0.00834271 -0.01843936 0.54509804 0.71372549 0.60000000
v -0.17439282 0.00350658 -0.01286226 0.54509804 0.71372549 0.60000000
v -0.17164869 0.00355288 -0.01601040 0.54509804 0.71372549 0.60000000
v -0.17471566 0.00257537 -0.01086074 0.54509804 0.71372549 0.60000000
v -0.17530754 0.00275029 -0.00755315 0.54509804 0.71372549 0.60000000
v -0.17568419 0.00591436 -0.00439144 0.54509804 0.71372549 0.60000000
v -0.17554968 0.00591436 -0.00122973 0.54509804 0.71372549 0.60000000
v -0.17485017 0.00907842 0.00193199 0.54509804 0.71372549 0.60000000
v -0.17420450 0.00907842 0.00361801 0.54509804 0.71372549 0.60000000
v -0.17415070 0.00736520 0.00356713 0.54509804 0.71372549 0.60000000
v -0.16936190 0.00591436 0.00440844 0.54509804 0.71372549 0.60000000
v -0.16618730 0.00591436 0.00473411 0.54509804 0.71372549 0.60000000
v -0.17221366 0.00615102 0.00381477 0.54509804 0.71372549 0.60000000
v -0.15354273 0.00591436 0.00569755 0.54509804 0.71372549 0.60000000
v -0.13312308 0.00429888 0.00668813 0.54509804 0.71372549 0.60000000
v -0.05741704 -0.00205497 0.00986002 0.54509804 0.71372549 0.60000000
v 0.00454138 -0.00673162 0.01219739 0.54509804 0.71372549 0.60000000
v 0.01403827 -0.00989054 0.01186832 0.54509804 0.71372549 0.60000000
v 0.09910667 -0.01623411 0.01392412 0.54509804 0.71372549 0.60000000
v 0.09910667 -0.00989054 -0.00570090 0.54509804 0.71372549 0.60000000
v 0.01403827 -0.00040349 -0.01142727 0.54509804 0.71372549 0.60000000
v 0.01086367 0.00275029 -0.01121355 0.54509804 0.71372549 0.60000000
v -0.16618730 0.00675811 -0.01895161 0.54509804 0.71372549 0.60000000
v -0.16823196 0.00719542 -0.01874467 0.54509804 0.71372549 0.60000000
v -0.01264986 -0.00518817 -0.01231269 0.54509804 0.71372549 0.60000000
v -0.14722044 0.00691760 -0.01884645 0.54509804 0.71372549 0.60000000
v -0.16303962 0.00655231 -0.01903642 0.54509804 0.71372549 0.60000000
v 0.01403827 -0.00356755 -0.01138996 0.54509804 0.71372549 0.60000000
v 0.00112465 -0.00328973 -0.01206165 0.54509804 0.71372549 0.60000000
v -0.16933500 0.00605327 -0.01799495 0.54509804 0.71372549 0.60000000
v -0.17396238 0.00140749 -0.01201077 0.54509804 0.71372549 0.60000000
v -0.17280553 0.00247762 -0.01402924 0.54509804 0.71372549 0.60000000
v -0.17186391 0.00054831 -0.01308616 0.54509804 0.71372549 0.60000000
v -0.16936190 0.00304869 -0.01639374 0.54509804 0.71372549 0.60000000
v -0.16936190 0.00147437 -0.01517248 0.54509804 0.71372549 0.60000000
v -0.17433901 0.00083642 -0.00990409 0.54509804 0.71372549 0.60000000
v -0.17538825 0.00275029 -0.00439144 0.54509804 0.71372549 0.60000000
v -0.17455425 0.00053802 -0.00755315 0.54509804 0.71372549 0.60000000
v -0.17482329 0.00257537 -0.00109064 0.54509804 0.71372549 0.60000000
v -0.17450044 0.00351687 0.00091427 0.54509804 0.71372549 0.60000000
v -0.17466186 0.00615102 0.00195234 0.54509804 0.71372549 0.60000000
v -0.17304766 0.00525582 0.00302095 0.54509804 0.71372549 0.60000000
v -0.17094920 0.00432975 0.00351624 0.54509804 0.71372549 0.60000000
v -0.16936190 0.00411881 0.00361462 0.54509804 0.71372549 0.60000000
v -0.16618730 0.00379983 0.00378424 0.54509804 0.71372549 0.60000000
v -0.14722044 0.00275029 0.00496140 0.54509804 0.71372549 0.60000000
v -0.14407274 0.00275029 0.00522940 0.54509804 0.71372549 0.60000000
v -0.12825358 0.00224095 0.00629461 0.54509804 0.71372549 0.60000000
v -0.02707006 -0.00814644 0.00977521 0.54509804 0.71372549 0.60000000
v 0.00454138 -0.00989054 0.01143070 0.54509804 0.71372549 0.60000000
v 0.09910667 -0.01827146 0.01322867 0.54509804 0.71372549 0.60000000
v 0.09910667 -0.01305461 -0.00553468 0.54509804 0.71372549 0.60000000
v -0.16303962 0.00496771 -0.01828331 0.54509804 0.71372549 0.60000000
v -0.16618730 0.00517865 -0.01819171 0.54509804 0.71372549 0.60000000
v 0.01403827 -0.00673162 -0.01089127 0.54509804 0.71372549 0.60000000
v 0.01086367 -0.00673162 -0.01102697 0.54509804 0.71372549 0.60000000
v 0.00454138 -0.00673162 -0.01127801 0.54509804 0.71372549 0.60000000
v 0.00139369 -0.00673162 -0.01138996 0.54509804 0.71372549 0.60000000
v 0.00139369 -0.00989054 -0.01033492 0.54509804 0.71372549 0.60000000
v 0.00139369 -0.01196390 -0.00942576 0.54509804 0.71372549 0.60000000
v -0.17253649 -0.00036233 -0.01069112 0.54509804 0.71372549 0.60000000
v -0.16936190 0.00012129 -0.01359162 0.54509804 0.71372549 0.60000000
v -0.17113752 -0.00208070 -0.00937148 0.54509804 0.71372549 0.60000000
v -0.16618730 0.00287891 -0.01661086 0.54509804 0.71372549 0.60000000
v -0.16618730 0.00129945 -0.01533871 0.54509804 0.71372549 0.60000000
v -0.17277862 -0.00104144 -0.00755315 0.54509804 0.71372549 0.60000000
v -0.17460807 0.00051229 -0.00439144 0.54509804 0.71372549 0.60000000
v -0.17439282 0.00080555 -0.00205069 0.54509804 0.71372549 0.60000000
v -0.17380096 0.00141264 0.00005599 0.54509804 0.71372549 0.60000000
v -0.17237507 0.00286862 0.00185396 0.54509804 0.71372549 0.60000000
v -0.17167559 0.00087243 0.00068698 0.54509804 0.71372549 0.60000000
v -0.16936190 0.00253935 0.00257994 0.54509804 0.71372549 0.60000000
v -0.16618730 0.00222037 0.00280384 0.54509804 0.71372549 0.60000000
v -0.14722044 0.00068207 0.00384530 0.54509804 0.71372549 0.60000000
v -0.13140127 -0.00040349 0.00467644 0.54509804 0.71372549 0.60000000
v 0.00454138 -0.01231375 0.01035531 0.54509804 0.71372549 0.60000000
v 0.01086367 -0.01274592 0.01054868 0.54509804 0.71372549 0.60000000
v 0.09910667 -0.01982005 0.01238057 0.54509804 0.71372549 0.60000000
v 0.09910667 -0.01592027 -0.00479514 0.54509804 0.71372549 0.60000000
v 0.09625491 -0.01305461 -0.00566020 0.54509804 0.71372549 0.60000000
v -0.16303962 0.00281203 -0.01670245 0.54509804 0.71372549 0.60000000
v 0.09910667 -0.01621867 -0.00471372 0.54509804 0.71372549 0.60000000
v 0.01403827 -0.00989054 -0.00992444 0.54509804 0.71372549 0.60000000
v 0.01718596 -0.01162435 -0.00923239 0.54509804 0.71372549 0.60000000
v 0.09910667 -0.01905861 -0.00346871 0.54509804 0.71372549 0.60000000
v 0.09910667 -0.02048888 -0.00268506 0.54509804 0.71372549 0.60000000
v 0.09910667 -0.02063808 -0.00257990 0.54509804 0.71372549 0.60000000
v 0.00454138 -0.01349192 -0.00825877 0.54509804 0.71372549 0.60000000
v 0.00139369 -0.01354851 -0.00816379 0.54509804 0.71372549 0.60000000
v -0.01127779 -0.01171181 -0.00932399 0.54509804 0.71372549 0.60000000
v -0.16936190 -0.00146332 -0.01114570 0.54509804 0.71372549 0.60000000
v -0.16618730 -0.00004849 -0.01375785 0.54509804 0.71372549 0.60000000
v -0.15841223 -0.00199838 -0.01230930 0.54509804 0.71372549 0.60000000
v -0.16051069 -0.00189034 -0.01211593 0.54509804 0.71372549 0.60000000
v -0.15986501 -0.00326915 -0.00755315 0.54509804 0.71372549 0.60000000
v -0.16936190 -0.00232250 -0.00755315 0.54509804 0.71372549 0.60000000
v -0.17121823 -0.00210642 -0.00755315 0.54509804 0.71372549 0.60000000
v -0.15962289 -0.00247685 -0.01092520 0.54509804 0.71372549 0.60000000
v -0.06083377 -0.01152659 -0.00608085 0.54509804 0.71372549 0.60000000
v -0.02911472 -0.01465979 -0.00287843 0.54509804 0.71372549 0.60000000
v -0.16303962 0.00123257 -0.01540656 0.54509804 0.71372549 0.60000000
v -0.13457586 -0.00259004 -0.01296403 0.54509804 0.71372549 0.60000000
v -0.13775045 -0.00250257 -0.01288600 0.54509804 0.71372549 0.60000000
v -0.17111062 -0.00205497 -0.00570430 0.54509804 0.71372549 0.60000000
v -0.17229437 -0.00112891 -0.00454410 0.54509804 0.71372549 0.60000000
v -0.17264411 0.00026534 -0.00109064 0.54509804 0.71372549 0.60000000
v -0.16936190 -0.00075333 -0.00122973 0.54509804 0.71372549 0.60000000
v -0.16936190 0.00062548 0.00099908 0.54509804 0.71372549 0.60000000
v -0.13312308 -0.00200867 0.00352981 0.54509804 0.71372549 0.60000000
v 0.00771598 -0.01413502 0.00942580 0.54509804 0.71372549 0.60000000
v 0.01086367 -0.01433052 0.00958863 0.54509804 0.71372549 0.60000000
v 0.00771598 -0.01255041 0.01044352 0.54509804 0.71372549 0.60000000
v 0.09910667 -0.02004642 0.01222113 0.54509804 0.71372549 0.60000000
v -0.15354273 0.00103192 -0.01556939 0.54509804 0.71372549 0.60000000
v 0.09910667 -0.01880137 -0.00359083 0.54509804 0.71372549 0.60000000
v 0.09625491 -0.01621867 -0.00481549 0.54509804 0.71372549 0.60000000
v 0.01931132 -0.01155232 -0.00918490 0.54509804 0.71372549 0.60000000
v 0.09910667 -0.02193457 -0.00114491 0.54509804 0.71372549 0.60000000
v 0.00454138 -0.01514855 -0.00667792 0.54509804 0.71372549 0.60000000
v -0.01617420 -0.01466493 -0.00600961 0.54509804 0.71372549 0.60000000
v -0.03656694 -0.01414531 -0.00122973 0.54509804 0.71372549 0.60000000
v -0.02932994 -0.01470609 0.00059539 0.54509804 0.71372549 0.60000000
v -0.12507898 -0.00626344 -0.00439144 0.54509804 0.71372549 0.60000000
v -0.13140127 -0.00568722 -0.00439144 0.54509804 0.71372549 0.60000000
v -0.14407274 -0.00452963 -0.00439144 0.54509804 0.71372549 0.60000000
v -0.01442548 -0.01604889 -0.00122973 0.54509804 0.71372549 0.60000000
v -0.01760008 -0.01577622 -0.00122973 0.54509804 0.71372549 0.60000000
v -0.06667180 -0.01148543 -0.00289539 0.54509804 0.71372549 0.60000000
v -0.01442548 -0.01535949 -0.00439144 0.54509804 0.71372549 0.60000000
v -0.00178091 -0.01706757 -0.00122973 0.54509804 0.71372549 0.60000000
v -0.16936190 -0.00217331 -0.00517848 0.54509804 0.71372549 0.60000000
v -0.16936190 -0.00178230 -0.00359762 0.54509804 0.71372549 0.60000000
v -0.16712892 -0.00192121 -0.00307519 0.54509804 0.71372549 0.60000000
v -0.15515693 -0.00199324 0.00035792 0.54509804 0.71372549 0.60000000
v 0.00454138 -0.01533891 0.00763461 0.54509804 0.71372549 0.60000000
v 0.00771598 -0.01548811 0.00784494 0.54509804 0.71372549 0.60000000
v 0.09910667 -0.02188827 0.01078615 0.54509804 0.71372549 0.60000000
v 0.09910667 -0.02204776 -0.00099904 0.54509804 0.71372549 0.60000000
v 0.09910667 -0.02368381 0.00188110 0.54509804 0.71372549 0.60000000
v 0.09910667 -0.02371982 0.00195234 0.54509804 0.71372549 0.60000000
v 0.00139369 -0.01623925 -0.00439144 0.54509804 0.71372549 0.60000000
v 0.00594036 -0.01781357 0.00027311 0.54509804 0.71372549 0.60000000
v 0.00594036 -0.01781357 0.00048004 0.54509804 0.71372549 0.60000000
v 0.00139369 -0.01723220 0.00193199 0.54509804 0.71372549 0.60000000
v -0.00178091 -0.01694924 0.00193199 0.54509804 0.71372549 0.60000000
v -0.02707006 -0.01481928 0.00105675 0.54509804 0.71372549 0.60000000
v -0.06182919 -0.01157804 0.00064966 0.54509804 0.71372549 0.60000000
v -0.06349720 -0.01148029 0.00037149 0.54509804 0.71372549 0.60000000
v -0.13608245 -0.00514187 -0.00289878 0.54509804 0.71372549 0.60000000
v 0.01086367 -0.01760777 -0.00189124 0.54509804 0.71372549 0.60000000
v 0.00139369 -0.01725793 -0.00122973 0.54509804 0.71372549 0.60000000
v 0.09910667 -0.02418800 0.00401492 0.54509804 0.71372549 0.60000000
v -0.16303962 -0.00268264 -0.00439144 0.54509804 0.71372549 0.60000000
v -0.15354273 -0.00277010 -0.00122973 0.54509804 0.71372549 0.60000000
v -0.12825358 -0.00504926 0.00003903 0.54509804 0.71372549 0.60000000
v -0.05373128 -0.01145457 0.00346535 0.54509804 0.71372549 0.60000000
v 0.00139369 -0.01514340 0.00739036 0.54509804 0.71372549 0.60000000
v 0.00454138 -0.01664569 0.00509370 0.54509804 0.71372549 0.60000000
v 0.09910667 -0.02360149 0.00816043 0.54509804 0.71372549 0.60000000
v 0.09910667 -0.02427547 0.00509370 0.54509804 0.71372549 0.60000000
v 0.00771598 -0.01765408 0.00245103 0.54509804 0.71372549 0.60000000
v 0.00475660 -0.01753575 0.00169113 0.54509804 0.71372549 0.60000000
v -0.02392237 -0.01455689 0.00322449 0.54509804 0.71372549 0.60000000
v -0.02392237 -0.01496334 0.00164364 0.54509804 0.71372549 0.60000000
v -0.12825358 -0.00553287 -0.00154183 0.54509804 0.71372549 0.60000000
v -0.02225436 -0.01462892 0.00348910 0.54509804 0.71372549 0.60000000
v 0.00771598 -0.01692351 0.00509370 0.54509804 0.71372549 0.60000000
f 1 2 3
f 258 260 287
f 259 261 283
f 259 283 260
f 260 283 290
f 260 290 291
f 260 291 287
f 262 263 265
f 263 286 292
f 263 292 265
f 264 293 266
f 257 289 285
f 264 265 294
f 265 295 294
f 265 292 296
f 265 296 297
f 265 297 295
f 266 293 298
f 266 298 267
f 267 299 268
f 267 298 300
f 267 300 299
f 268 299 269
f 264 294 293
f 257 288 289
f 257 287 288
f 257 258 287
f 244 274 276
f 244 276 277
f 244 277 246
f 244 246 245
f 246 277 278
f 246 278 247
f 247 278 279
f 247 279 249
f 247 249 248
f 249 279 280
f 249 280 281
f 249 281 250
f 250 281 251
f 252 282 283
f 252 283 284
f 252 284 253
f 253 284 254
f 254 284 283
f 254 283 261
f 255 285 286
f 255 286 256
f 255 257 285
f 256 286 263
f 269 299 301
f 269 301 302
f 269 302 303
f 269 303 270
f 287 291 317
f 287 317 318
f 287 318 319
f 287 319 320
f 287 320 321
f 287 321 289
f 287 289 288
f 289 321 322
f 289 322 315
f 290 317 291
f 290 314 317
f 292 316 296
f 293 294 295
f 293 295 323
f 293 323 298
f 295 297 324
f 295 324 325
f 295 325 323
f 296 316 326
f 296 326 297
f 297 326 327
f 297 327 324
f 298 323 325
f 285 292 286
f 243 275 273
f 285 316 292
f 285 289 315
f 270 303 272
f 270 272 271
f 272 303 302
f 272 302 304
f 272 304 305
f 272 305 275
f 273 306 274
f 273 275 305
f 273 305 306
f 274 306 307
f 274 308 309
f 274 309 310
f 274 310 277
f 274 277 276
f 277 310 278
f 278 310 311
f 278 311 312
f 278 312 279
f 279 312 280
f 280 312 281
f 281 312 313
f 282 314 290
f 282 290 283
f 285 315 316
f 298 325 328
f 243 272 275
f 243 273 274
f 200 233 201
f 200 231 234
f 200 234 233
f 201 233 235
f 201 235 202
f 202 235 236
f 202 236 237
f 202 237 203
f 203 237 204
f 204 237 238
f 199 232 200
f 204 238 239
f 206 239 207
f 207 239 240
f 207 240 208
f 208 240 241
f 208 241 209
f 209 241 242
f 209 242 243
f 209 243 244
f 209 244 210
f 210 244 245
f 204 239 206
f 198 224 231
f 198 232 199
f 198 200 232
f 188 219 193
f 190 220 197
f 190 191 221
f 190 221 220
f 191 222 197
f 191 197 220
f 191 220 221
f 191 192 223
f 191 223 222
f 192 193 223
f 193 219 223
f 194 224 198
f 194 195 225
f 194 225 224
f 195 196 226
f 195 226 225
f 196 197 227
f 196 227 228
f 196 228 226
f 197 222 229
f 197 229 230
f 197 230 227
f 198 231 200
f 210 245 246
f 210 246 211
f 211 246 214
f 213 214 247
f 229 254 261
f 231 262 234
f 231 256 263
f 231 263 262
f 233 234 264
f 233 264 235
f 234 262 265
f 234 265 264
f 235 264 266
f 235 266 267
f 235 267 236
f 236 268 237
f 236 267 268
f 237 268 238
f 238 268 269
f 238 269 270
f 238 270 239
f 239 270 240
f 240 270 271
f 240 271 241
f 241 271 242
f 242 271 272
f 242 272 243
f 228 261 259
f 243 274 244
f 228 229 261
f 227 230 229
f 213 247 248
f 213 248 249
f 213 249 250
f 213 250 251
f 213 251 215
f 214 246 247
f 216 252 219
f 216 219 218
f 216 218 217
f 219 252 253
f 219 253 223
f 222 223 229
f 223 253 254
f 223 254 229
f 224 225 231
f 225 255 256
f 225 256 231
f 225 226 257
f 225 257 255
f 226 258 257
f 226 228 259
f 226 259 260
f 226 260 258
f 227 229 228
f 188 218 219
f 298 328 300
f 299 330 301
f 372 397 373
f 373 397 398
f 373 398 399
f 373 399 375
f 380 400 381
f 381 400 401
f 381 401 382
f 382 401 402
f 382 402 403
f 382 403 391
f 371 397 372
f 383 389 404
f 383 405 384
f 383 390 389
f 384 405 406
f 384 406 407
f 384 407 408
f 384 408 409
f 384 409 410
f 384 410 411
f 384 411 387
f 384 387 386
f 383 404 405
f 371 396 397
f 370 396 371
f 369 396 370
f 355 382 361
f 357 383 384
f 357 384 385
f 357 385 386
f 357 386 387
f 357 387 366
f 357 366 358
f 357 362 388
f 357 388 389
f 357 389 390
f 357 390 383
f 358 366 359
f 361 382 391
f 361 391 362
f 362 391 392
f 362 392 388
f 366 393 394
f 366 394 368
f 366 368 367
f 366 387 393
f 368 394 369
f 369 394 395
f 369 395 396
f 384 386 385
f 387 411 393
f 388 392 404
f 388 404 389
f 405 424 406
f 406 424 423
f 406 423 407
f 407 423 420
f 407 420 425
f 407 425 426
f 407 426 408
f 408 426 425
f 408 425 409
f 409 418 417
f 409 417 427
f 409 427 411
f 409 411 410
f 409 425 418
f 411 427 417
f 418 425 428
f 418 428 420
f 418 420 419
f 420 428 425
f 420 423 429
f 420 429 421
f 421 429 423
f 421 423 422
f 405 423 424
f 355 381 382
f 405 422 423
f 404 414 422
f 391 403 412
f 391 412 413
f 391 413 392
f 392 413 414
f 392 414 404
f 393 415 395
f 393 395 394
f 393 411 415
f 395 416 396
f 395 415 411
f 395 411 417
f 395 417 416
f 396 416 417
f 396 417 418
f 396 418 419
f 396 419 397
f 397 419 420
f 397 420 421
f 397 421 399
f 397 399 398
f 402 414 413
f 402 413 412
f 402 412 403
f 404 422 405
f 299 329 330
f 355 364 381
f 355 360 356
f 315 322 343
f 317 342 341
f 317 341 318
f 318 341 344
f 318 344 319
f 319 344 345
f 319 345 320
f 320 345 321
f 321 345 346
f 321 346 322
f 315 326 316
f 322 346 347
f 322 348 349
f 322 349 350
f 322 350 351
f 322 351 352
f 322 352 343
f 324 353 325
f 324 327 354
f 324 354 355
f 324 355 356
f 324 356 353
f 322 347 348
f 315 343 326
f 314 342 317
f 314 341 342
f 299 300 329
f 300 328 329
f 301 330 302
f 302 330 331
f 302 331 304
f 304 332 305
f 304 331 332
f 305 332 333
f 305 333 334
f 305 334 306
f 306 334 335
f 306 335 307
f 307 335 336
f 307 336 308
f 308 336 337
f 308 337 338
f 308 338 311
f 308 311 309
f 309 311 310
f 311 338 312
f 312 338 339
f 312 339 313
f 313 339 340
f 325 357 358
f 325 358 359
f 325 359 328
f 325 353 356
f 338 373 374
f 338 374 339
f 338 371 372
f 339 374 373
f 339 373 340
f 340 373 375
f 343 376 363
f 343 352 376
f 344 377 378
f 344 378 379
f 344 379 345
f 345 379 346
f 346 379 378
f 346 378 377
f 346 377 347
f 349 380 381
f 349 381 350
f 350 381 351
f 351 381 364
f 351 364 363
f 351 363 376
f 351 376 352
f 355 361 360
f 338 372 373
f 355 365 364
f 336 338 337
f 335 371 336
f 325 356 360
f 325 360 361
f 325 361 362
f 325 362 357
f 326 343 327
f 327 355 354
f 327 343 363
f 327 363 364
f 327 364 365
f 327 365 355
f 328 359 366
f 328 366 367
f 328 367 329
f 329 367 330
f 330 367 368
f 330 368 331
f 331 368 333
f 331 333 332
f 333 368 369
f 333 369 370
f 333 370 334
f 334 370 335
f 335 370 371
f 336 371 338
f 188 189 218
f 274 307 308
f 187 217 218
f 47 91 90
f 48 51 50
f 48 50 49
f 48 90 92
f 48 92 93
f 48 93 52
f 48 52 51
f 52 94 95
f 52 95 96
f 52 96 53
f 47 89 91
f 52 93 94
f 53 97 54
f 54 97 98
f 54 98 55
f 55 98 99
f 55 99 100
f 55 100 101
f 55 101 57
f 56 58 59
f 57 102 58
f 57 101 102
f 53 96 97
f 47 90 48
f 46 89 47
f 46 88 89
f 36 75 76
f 36 76 77
f 36 77 40
f 37 78 38
f 37 65 79
f 37 79 78
f 38 78 80
f 38 80 39
f 39 80 66
f 40 81 41
f 40 77 82
f 40 82 81
f 41 81 83
f 41 83 44
f 42 44 43
f 43 44 84
f 43 84 85
f 43 85 86
f 43 86 87
f 43 87 45
f 44 83 84
f 45 87 46
f 46 87 88
f 58 102 59
f 59 102 60
f 60 102 103
f 60 103 61
f 75 116 117
f 75 117 118
f 75 118 76
f 76 118 119
f 76 119 77
f 77 119 82
f 78 79 110
f 78 110 80
f 79 108 110
f 81 82 83
f 82 119 120
f 82 120 121
f 82 121 122
f 82 122 83
f 83 122 84
f 84 122 123
f 84 123 85
f 85 123 124
f 85 124 125
f 85 125 86
f 86 125 126
f 86 126 127
f 86 127 88
f 74 116 75
f 35 75 36
f 73 116 74
f 73 114 115
f 61 103 104
f 61 104 64
f 62 64 105
f 62 105 63
f 63 105 106
f 63 106 65
f 64 104 105
f 65 106 107
f 65 107 108
f 65 108 79
f 66 80 67
f 67 109 69
f 67 69 68
f 67 80 110
f 67 110 109
f 69 111 70
f 69 109 111
f 70 112 72
f 70 72 71
f 70 111 113
f 70 113 112
f 72 112 114
f 72 114 73
f 73 115 116
f 86 88 87
f 34 75 35
f 34 73 74
f 6 26 27
f 6 27 7
f 6 22 23
f 7 27 28
f 7 28 29
f 7 29 8
f 8 29 30
f 8 30 12
f 9 31 32
f 9 32 10
f 6 25 26
f 9 12 31
f 10 33 34
f 187 218 189
f 11 34 35
f 11 35 36
f 11 36 13
f 12 30 37
f 12 37 38
f 12 38 39
f 12 39 31
f 13 40 14
f 10 32 33
f 6 24 25
f 6 23 24
f 5 22 6
f 1 3 4
f 1 4 5
f 1 5 6
f 1 6 7
f 1 7 8
f 1 8 2
f 2 9 10
f 2 10 11
f 2 11 3
f 2 8 12
f 2 12 9
f 3 11 13
f 3 13 14
f 3 14 15
f 3 15 4
f 4 16 17
f 4 17 18
f 4 18 5
f 4 15 19
f 4 19 16
f 5 18 20
f 5 20 21
f 5 21 22
f 13 36 40
f 14 40 41
f 14 41 15
f 15 41 19
f 26 56 59
f 26 59 60
f 26 60 27
f 27 60 61
f 27 61 28
f 28 62 63
f 28 63 29
f 28 61 64
f 28 64 62
f 29 63 30
f 30 65 37
f 30 63 65
f 31 39 66
f 31 66 67
f 31 67 68
f 31 68 32
f 32 68 69
f 32 69 70
f 32 70 71
f 32 71 33
f 33 71 72
f 33 72 73
f 33 73 34
f 25 58 56
f 34 74 75
f 25 57 58
f 25 56 26
f 16 19 42
f 16 42 17
f 17 20 18
f 17 42 43
f 17 43 20
f 19 41 44
f 19 44 42
f 20 43 45
f 20 45 46
f 20 46 47
f 20 47 21
f 21 47 48
f 21 48 22
f 22 48 49
f 22 49 23
f 23 49 50
f 23 50 24
f 24 50 51
f 24 51 52
f 24 52 53
f 24 53 54
f 24 54 55
f 24 55 25
f 25 55 57
f 88 127 89
f 10 34 11
f 89 128 129
f 134 181 183
f 134 183 136
f 134 136 135
f 139 143 184
f 139 184 185
f 139 185 140
f 140 185 186
f 140 186 187
f 140 187 146
f 144 146 145
f 134 176 181
f 145 146 188
f 146 187 189
f 146 189 188
f 147 190 153
f 147 148 190
f 148 149 191
f 148 191 190
f 149 192 191
f 149 188 193
f 149 193 192
f 150 194 156
f 145 188 149
f 133 182 177
f 133 173 182
f 133 181 176
f 121 124 123
f 121 123 122
f 121 169 124
f 124 169 170
f 124 170 125
f 125 170 126
f 126 171 172
f 126 172 173
f 126 173 127
f 126 170 174
f 126 174 171
f 127 173 175
f 127 175 132
f 127 132 128
f 130 133 176
f 130 176 131
f 131 176 134
f 132 175 173
f 132 173 133
f 133 177 178
f 133 178 179
f 133 179 180
f 133 180 181
f 150 156 151
f 150 152 195
f 150 195 194
f 152 153 196
f 168 207 205
f 169 205 207
f 169 208 170
f 170 209 210
f 170 210 174
f 170 208 209
f 171 210 172
f 171 174 210
f 172 210 211
f 172 211 212
f 172 212 182
f 172 182 173
f 177 213 178
f 177 182 212
f 177 212 211
f 177 211 214
f 177 214 213
f 178 213 215
f 178 215 179
f 179 215 180
f 186 216 217
f 186 217 187
f 89 127 128
f 168 206 207
f 120 167 169
f 168 204 206
f 167 168 205
f 152 196 195
f 153 190 197
f 153 197 196
f 154 157 198
f 154 198 199
f 154 199 200
f 154 200 155
f 155 200 158
f 156 194 157
f 157 194 198
f 158 200 201
f 158 201 202
f 158 202 159
f 159 202 160
f 160 202 203
f 160 203 162
f 160 162 161
f 162 203 164
f 162 164 163
f 164 203 204
f 164 204 168
f 164 168 165
f 165 168 166
f 167 205 169
f 120 169 121
f 169 207 208
f 119 166 168
f 97 421 422
f 97 422 414
f 97 414 402
f 97 402 401
f 97 401 400
f 97 400 380
f 97 380 349
f 97 349 348
f 97 348 347
f 97 347 377
f 97 399 421
f 97 377 344
f 97 341 314
f 97 314 282
f 97 282 252
f 97 252 216
f 97 216 186
f 97 186 185
f 97 185 184
f 97 184 143
f 97 143 142
f 97 142 138
f 97 344 341
f 97 375 399
f 97 340 375
f 97 313 340
f 89 129 91
f 119 168 167
f 90 93 92
f 90 91 130
f 90 130 131
f 90 131 93
f 91 132 133
f 91 133 130
f 91 129 128
f 91 128 132
f 93 131 94
f 94 131 134
f 95 134 96
f 96 134 135
f 96 135 136
f 96 136 97
f 97 136 183
f 97 183 181
f 97 181 180
f 97 180 215
f 97 215 251
f 97 251 281
f 97 281 313
f 97 138 137
f 97 137 101
f 94 134 95
f 97 100 99
f 112 151 114
f 113 152 150
f 113 147 153
f 113 153 152
f 114 154 155
f 114 155 115
f 114 151 156
f 114 156 157
f 114 157 154
f 115 155 116
f 116 155 158
f 116 158 159
f 116 159 160
f 116 160 117
f 117 161 162
f 117 162 163
f 117 163 118
f 118 163 164
f 118 164 165
f 118 165 166
f 119 167 120
f 97 101 100
f 118 166 119
f 112 150 151
f 112 113 150
f 117 160 161
f 110 145 149
f 101 137 103
f 101 103 102
f 111 147 113
f 97 99 98
f 103 137 138
f 103 138 104
f 104 139 140
f 104 141 105
f 104 138 142
f 104 142 143
f 104 143 139
f 105 141 106
f 104 140 141
f 106 146 144
f 106 144 145
f 109 148 147
f 109 147 111
f 107 110 108
f 106 140 146
f 109 110 148
f 106 110 107
f 110 149 148
f 106 145 110
f 106 141 140

