# https://github.com/mikedh/trimesh
v 0.13929674 0.00594840 0.00509583 0.38039216 0.78823529 0.52549020
v 0.14051419 -0.01305606 0.01458204 0.38039216 0.78823529 0.52549020
v 0.14101280 -0.01305606 0.01141997 0.38039216 0.78823529 0.52549020
v 0.14152387 -0.01305606 0.00193376 0.38039216 0.78823529 0.52549020
v 0.14158204 -0.01305606 -0.00122830 0.38039216 0.78823529 0.52549020
v 0.13921780 0.00594840 0.00193376 0.38039216 0.78823529 0.52549020
v 0.13903081 0.00594840 0.00631377 0.38039216 0.78823529 0.52549020
v 0.14048926 -0.01621665 0.01458204 0.38039216 0.78823529 0.52549020
v 0.13849066 0.00594840 0.00832080 0.38039216 0.78823529 0.52549020
v 0.13974134 -0.00976532 0.01473070 0.38039216 0.78823529 0.52549020
v 0.13925934 -0.01073209 0.01647470 0.38039216 0.78823529 0.52549020
v 0.13952527 -0.01305606 0.01674345 0.38039216 0.78823529 0.52549020
v 0.13958344 -0.01621665 0.01682636 0.38039216 0.78823529 0.52549020
v 0.14087568 -0.01621665 0.01141997 0.38039216 0.78823529 0.52549020
v 0.14144077 -0.01621665 0.00193376 0.38039216 0.78823529 0.52549020
v 0.14147401 -0.01621665 -0.00122830 0.38039216 0.78823529 0.52549020
v 0.14034798 -0.01305606 -0.00439037 0.38039216 0.78823529 0.52549020
v 0.13978705 -0.00978392 -0.00467627 0.38039216 0.78823529 0.52549020
v 0.14104189 -0.00989547 -0.00122830 0.38039216 0.78823529 0.52549020
v 0.13819564 0.00594840 -0.00132837 0.38039216 0.78823529 0.52549020
v 0.13926350 -0.01938096 0.01650901 0.38039216 0.78823529 0.52549020
v 0.13986183 -0.01938096 0.01458204 0.38039216 0.78823529 0.52549020
v 0.13718595 0.00594840 0.01138566 0.38039216 0.78823529 0.52549020
v 0.13716933 0.00594840 0.01142283 0.38039216 0.78823529 0.52549020
v 0.13610978 0.00594840 0.01330406 0.38039216 0.78823529 0.52549020
v 0.13609317 0.00594840 0.01332693 0.38039216 0.78823529 0.52549020
v 0.13423999 0.00594840 0.01468782 0.38039216 0.78823529 0.52549020
v 0.13421505 0.00594840 0.01470497 0.38039216 0.78823529 0.52549020
v 0.13377461 -0.00040997 0.01690927 0.38039216 0.78823529 0.52549020
v 0.13758484 -0.00976532 0.01719232 0.38039216 0.78823529 0.52549020
v 0.13737708 -0.01305606 0.01800142 0.38039216 0.78823529 0.52549020
v 0.13737708 -0.01621665 0.01813579 0.38039216 0.78823529 0.52549020
v 0.13737708 -0.01938096 0.01781844 0.38039216 0.78823529 0.52549020
v 0.14021917 -0.01938096 0.01141997 0.38039216 0.78823529 0.52549020
v 0.14062222 -0.01938096 0.00509583 0.38039216 0.78823529 0.52549020
v 0.14078427 -0.01938096 0.00193376 0.38039216 0.78823529 0.52549020
v 0.14080089 -0.01938096 -0.00122830 0.38039216 0.78823529 0.52549020
v 0.13987014 -0.01938096 -0.00401870 0.38039216 0.78823529 0.52549020
v 0.13999064 -0.01612741 -0.00463911 0.38039216 0.78823529 0.52549020
v 0.13903081 -0.01501191 -0.00602573 0.38039216 0.78823529 0.52549020
v 0.13906821 -0.01305606 -0.00605146 0.38039216 0.78823529 0.52549020
v 0.13903081 -0.01076184 -0.00602573 0.38039216 0.78823529 0.52549020
v 0.13891032 -0.00865354 -0.00591994 0.38039216 0.78823529 0.52549020
v 0.13647128 0.00594840 -0.00421311 0.38039216 0.78823529 0.52549020
v 0.13898927 -0.02101703 0.01620310 0.38039216 0.78823529 0.52549020
v 0.13483832 -0.02254155 0.01886484 0.38039216 0.78823529 0.52549020
v 0.13733554 -0.02225896 0.01708367 0.38039216 0.78823529 0.52549020
v 0.13916378 -0.02145208 0.01458204 0.38039216 0.78823529 0.52549020
v 0.13214581 0.00594840 0.01595150 0.38039216 0.78823529 0.52549020
v 0.13421505 -0.00673487 0.01819583 0.38039216 0.78823529 0.52549020
v 0.13105303 -0.00040997 0.01805002 0.38039216 0.78823529 0.52549020
v 0.13396990 -0.01005536 0.01884482 0.38039216 0.78823529 0.52549020
v 0.13447683 -0.01305606 0.01900207 0.38039216 0.78823529 0.52549020
v 0.13460979 -0.01621665 0.01905353 0.38039216 0.78823529 0.52549020
v 0.13474276 -0.01938096 0.01905067 0.38039216 0.78823529 0.52549020
v 0.13325938 -0.02254155 0.01952813 0.38039216 0.78823529 0.52549020
v 0.13935491 -0.02188713 0.01141997 0.38039216 0.78823529 0.52549020
v 0.13957098 -0.02235564 0.00509583 0.38039216 0.78823529 0.52549020
v 0.13964161 -0.02240769 0.00193376 0.38039216 0.78823529 0.52549020
v 0.13964577 -0.02228127 -0.00122830 0.38039216 0.78823529 0.52549020
v 0.13941308 -0.02174583 -0.00348121 0.38039216 0.78823529 0.52549020
v 0.13836184 -0.01938096 -0.00559973 0.38039216 0.78823529 0.52549020
v 0.13873996 -0.01712021 -0.00585705 0.38039216 0.78823529 0.52549020
v 0.13678291 -0.01938096 -0.00640026 0.38039216 0.78823529 0.52549020
v 0.13756407 -0.01612741 -0.00650032 0.38039216 0.78823529 0.52549020
v 0.13737708 -0.01305606 -0.00675192 0.38039216 0.78823529 0.52549020
v 0.13766379 -0.00978392 -0.00656894 0.38039216 0.78823529 0.52549020
v 0.13695327 -0.00673487 -0.00660611 0.38039216 0.78823529 0.52549020
v 0.13401146 0.00594840 -0.00646887 0.38039216 0.78823529 0.52549020
v 0.13414027 0.00594840 -0.00635451 0.38039216 0.78823529 0.52549020
v 0.13833691 -0.02303237 0.01458204 0.38039216 0.78823529 0.52549020
v 0.13625106 -0.02461267 0.01678348 0.38039216 0.78823529 0.52549020
v 0.13305579 -0.02447881 0.01948524 0.38039216 0.78823529 0.52549020
v 0.13864024 -0.02347114 0.01141997 0.38039216 0.78823529 0.52549020
v 0.13055026 0.00594840 0.01657191 0.38039216 0.78823529 0.52549020
v 0.13105303 -0.00357056 0.01872475 0.38039216 0.78823529 0.52549020
v 0.12792424 0.00594840 0.01733241 0.38039216 0.78823529 0.52549020
v 0.12789100 0.00594840 0.01734098 0.38039216 0.78823529 0.52549020
v 0.13275246 -0.01121920 0.01935659 0.38039216 0.78823529 0.52549020
v 0.13289789 -0.01305606 0.01938518 0.38039216 0.78823529 0.52549020
v 0.13105303 -0.02254155 0.01996842 0.38039216 0.78823529 0.52549020
v 0.13876074 -0.02369796 0.00825790 0.38039216 0.78823529 0.52549020
v 0.13886877 -0.02393965 0.00509583 0.38039216 0.78823529 0.52549020
v 0.13888954 -0.02398799 0.00193376 0.38039216 0.78823529 0.52549020
v 0.13878566 -0.02386156 -0.00122830 0.38039216 0.78823529 0.52549020
v 0.13577322 -0.02726757 -0.00273214 0.38039216 0.78823529 0.52549020
v 0.13649621 -0.02495476 -0.00439037 0.38039216 0.78823529 0.52549020
v 0.13586048 -0.02419622 -0.00601429 0.38039216 0.78823529 0.52549020
v 0.13620119 -0.02254155 -0.00616010 0.38039216 0.78823529 0.52549020
v 0.13421505 -0.01938096 -0.00726082 0.38039216 0.78823529 0.52549020
v 0.13421505 -0.01621665 -0.00761248 0.38039216 0.78823529 0.52549020
v 0.13421505 -0.01305606 -0.00768681 0.38039216 0.78823529 0.52549020
v 0.13421505 -0.00989547 -0.00768395 0.38039216 0.78823529 0.52549020
v 0.13421505 -0.00673487 -0.00766394 0.38039216 0.78823529 0.52549020
v 0.13105303 0.00594840 -0.00783262 0.38039216 0.78823529 0.52549020
v 0.13675798 -0.02527082 0.01458204 0.38039216 0.78823529 0.52549020
v 0.13578568 -0.02727500 0.01295526 0.38039216 0.78823529 0.52549020
v 0.13692419 -0.02601449 0.01170873 0.38039216 0.78823529 0.52549020
v 0.13409040 -0.02559803 0.01774411 0.38039216 0.78823529 0.52549020
v 0.12892561 -0.03203820 0.01572850 0.38039216 0.78823529 0.52549020
v 0.13048378 -0.03203820 0.01414461 0.38039216 0.78823529 0.52549020
v 0.13231618 -0.03203820 0.01153719 0.38039216 0.78823529 0.52549020
v 0.12789100 -0.02570586 0.02005990 0.38039216 0.78823529 0.52549020
v 0.13082034 -0.02560175 0.01965393 0.38039216 0.78823529 0.52549020
v 0.12961537 -0.02735681 0.01937946 0.38039216 0.78823529 0.52549020
v 0.13172200 -0.02658711 0.01870759 0.38039216 0.78823529 0.52549020
v 0.13340897 -0.03203820 0.00845517 0.38039216 0.78823529 0.52549020
v 0.13753913 -0.02570586 0.00825790 0.38039216 0.78823529 0.52549020
v 0.12789100 -0.00040997 0.01843884 0.38039216 0.78823529 0.52549020
v 0.12789100 -0.00357056 0.01898206 0.38039216 0.78823529 0.52549020
v 0.13105303 -0.00673487 0.01904781 0.38039216 0.78823529 0.52549020
v 0.12475805 0.00594840 0.01746106 0.38039216 0.78823529 0.52549020
v 0.12766662 -0.00699888 0.01925366 0.38039216 0.78823529 0.52549020
v 0.13105303 -0.01075440 0.01938518 0.38039216 0.78823529 0.52549020
v 0.12789100 -0.02254155 0.02027433 0.38039216 0.78823529 0.52549020
v 0.13772196 -0.02570586 0.00509583 0.38039216 0.78823529 0.52549020
v 0.13344637 -0.03203820 0.00498433 0.38039216 0.78823529 0.52549020
v 0.13341728 -0.03203820 0.00477276 0.38039216 0.78823529 0.52549020
v 0.13705298 -0.02601077 -0.00149991 0.38039216 0.78823529 0.52549020
v 0.13366659 -0.02798521 -0.00374423 0.38039216 0.78823529 0.52549020
v 0.13451838 -0.02656480 -0.00463339 0.38039216 0.78823529 0.52549020
v 0.13240343 -0.03203820 0.00193376 0.38039216 0.78823529 0.52549020
v 0.13097408 -0.03203820 -0.00054500 0.38039216 0.78823529 0.52549020
v 0.13078710 -0.03203820 -0.00080231 0.38039216 0.78823529 0.52549020
v 0.13234942 -0.02708165 -0.00585133 0.38039216 0.78823529 0.52549020
v 0.13421505 -0.02481718 -0.00623444 0.38039216 0.78823529 0.52549020
v 0.13421505 -0.02254155 -0.00675192 0.38039216 0.78823529 0.52549020
v 0.13105303 -0.01938096 -0.00782976 0.38039216 0.78823529 0.52549020
v 0.13105303 -0.01621665 -0.00812996 0.38039216 0.78823529 0.52549020
v 0.13105303 -0.00357056 -0.00837584 0.38039216 0.78823529 0.52549020
v 0.12789100 0.00594840 -0.00860170 0.38039216 0.78823529 0.52549020
v 0.13285634 -0.03203820 0.01027065 0.38039216 0.78823529 0.52549020
v 0.12734668 -0.03203820 0.01675203 0.38039216 0.78823529 0.52549020
v 0.12472897 -0.02570586 0.02011708 0.38039216 0.78823529 0.52549020
v 0.12472897 -0.02773608 0.01961104 0.38039216 0.78823529 0.52549020
v 0.12789100 -0.02756875 0.01951955 0.38039216 0.78823529 0.52549020
v 0.12472897 -0.03203820 0.01766405 0.38039216 0.78823529 0.52549020
v 0.13341728 -0.03203820 0.00818928 0.38039216 0.78823529 0.52549020
v 0.12472897 -0.00357056 0.01875048 0.38039216 0.78823529 0.52549020
v 0.12501151 -0.00699888 0.01913930 0.38039216 0.78823529 0.52549020
v 0.12625389 -0.00823337 0.01932800 0.38039216 0.78823529 0.52549020
v 0.12472897 0.00594840 0.01745820 0.38039216 0.78823529 0.52549020
v 0.12156694 -0.00357056 0.01847315 0.38039216 0.78823529 0.52549020
v 0.12472897 -0.02254155 0.02023145 0.38039216 0.78823529 0.52549020
v 0.12988544 -0.03071447 -0.00316957 0.38039216 0.78823529 0.52549020
v 0.12789100 -0.03203820 -0.00300089 0.38039216 0.78823529 0.52549020
v 0.12789100 -0.02968821 -0.00527952 0.38039216 0.78823529 0.52549020
v 0.13024278 -0.02766171 -0.00617725 0.38039216 0.78823529 0.52549020
v 0.13119846 -0.02589922 -0.00653177 0.38039216 0.78823529 0.52549020
v 0.13105303 -0.02254155 -0.00731514 0.38039216 0.78823529 0.52549020
v 0.12472897 -0.02570586 -0.00731800 0.38039216 0.78823529 0.52549020
v 0.12156694 -0.02570586 -0.00739805 0.38039216 0.78823529 0.52549020
v 0.12789100 -0.01621665 -0.00818142 0.38039216 0.78823529 0.52549020
v 0.12472897 -0.00673487 -0.00887902 0.38039216 0.78823529 0.52549020
v 0.12789100 -0.00357056 -0.00877896 0.38039216 0.78823529 0.52549020
v 0.12472897 -0.00357056 -0.00892763 0.38039216 0.78823529 0.52549020
v 0.12156694 -0.00357056 -0.00892477 0.38039216 0.78823529 0.52549020
v 0.12472897 0.00594840 -0.00857311 0.38039216 0.78823529 0.52549020
v 0.12156694 -0.02570586 0.01998271 0.38039216 0.78823529 0.52549020
v 0.12156694 -0.02767287 0.01956530 0.38039216 0.78823529 0.52549020
v 0.12156694 -0.03203820 0.01784703 0.38039216 0.78823529 0.52549020
v 0.11840906 -0.00673487 0.01855321 0.38039216 0.78823529 0.52549020
v 0.12156694 -0.00673487 0.01882195 0.38039216 0.78823529 0.52549020
v 0.12296720 -0.01122292 0.01934801 0.38039216 0.78823529 0.52549020
v 0.12501151 -0.01005907 0.01939376 0.38039216 0.78823529 0.52549020
v 0.12472897 -0.01305606 0.01961104 0.38039216 0.78823529 0.52549020
v 0.12176223 0.00594840 0.01669771 0.38039216 0.78823529 0.52549020
v 0.11840906 -0.00040997 0.01749823 0.38039216 0.78823529 0.52549020
v 0.11840906 -0.00357056 0.01815866 0.38039216 0.78823529 0.52549020
v 0.11840906 -0.02254155 0.01991124 0.38039216 0.78823529 0.52549020
v 0.12549351 -0.03203820 -0.00391864 0.38039216 0.78823529 0.52549020
v 0.12477883 -0.03203820 -0.00415593 0.38039216 0.78823529 0.52549020
v 0.12472897 -0.03008235 -0.00573411 0.38039216 0.78823529 0.52549020
v 0.12789100 -0.02810420 -0.00638310 0.38039216 0.78823529 0.52549020
v 0.12789100 -0.02570586 -0.00705497 0.38039216 0.78823529 0.52549020
v 0.12472897 -0.02849834 -0.00654607 0.38039216 0.78823529 0.52549020
v 0.12156694 -0.02254155 -0.00768967 0.38039216 0.78823529 0.52549020
v 0.12156694 -0.02853180 -0.00660611 0.38039216 0.78823529 0.52549020
v 0.11840906 -0.02570586 -0.00719506 0.38039216 0.78823529 0.52549020
v 0.11840906 -0.02254155 -0.00754386 0.38039216 0.78823529 0.52549020
v 0.11840906 -0.01938096 -0.00788409 0.38039216 0.78823529 0.52549020
v 0.11840906 -0.01621665 -0.00818714 0.38039216 0.78823529 0.52549020
v 0.12156694 -0.01621665 -0.00824432 0.38039216 0.78823529 0.52549020
v 0.12156694 -0.01305606 -0.00848162 0.38039216 0.78823529 0.52549020
v 0.12472897 -0.00989547 -0.00866174 0.38039216 0.78823529 0.52549020
v 0.12156694 -0.00989547 -0.00870176 0.38039216 0.78823529 0.52549020
v 0.12156694 -0.00673487 -0.00890761 0.38039216 0.78823529 0.52549020
v 0.12156694 -0.00040997 -0.00873035 0.38039216 0.78823529 0.52549020
v 0.11840906 -0.00673487 -0.00867031 0.38039216 0.78823529 0.52549020
v 0.11840906 -0.00357056 -0.00864744 0.38039216 0.78823529 0.52549020
v 0.09913771 -0.00673487 -0.00533671 0.38039216 0.78823529 0.52549020
v 0.12469157 0.00594840 -0.00856453 0.38039216 0.78823529 0.52549020
v 0.11949354 -0.02751298 0.01947381 0.38039216 0.78823529 0.52549020
v 0.11842569 -0.02572446 0.01967966 0.38039216 0.78823529 0.52549020
v 0.11824286 -0.03203820 0.01698075 0.38039216 0.78823529 0.52549020
v 0.11524288 -0.00673487 0.01811006 0.38039216 0.78823529 0.52549020
v 0.11428305 -0.01938096 0.01925938 0.38039216 0.78823529 0.52549020
v 0.11586199 -0.01938096 0.01947095 0.38039216 0.78823529 0.52549020
v 0.11840906 -0.01938096 0.01967108 0.38039216 0.78823529 0.52549020
v 0.12159187 0.00594840 0.01663767 0.38039216 0.78823529 0.52549020
v 0.09913771 -0.00482365 0.01317540 0.38039216 0.78823529 0.52549020
v 0.09913771 -0.00673487 0.01384155 0.38039216 0.78823529 0.52549020
v 0.11524288 -0.00357056 0.01747822 0.38039216 0.78823529 0.52549020
v 0.11567085 -0.02254155 0.01958531 0.38039216 0.78823529 0.52549020
v 0.11630658 -0.02468332 0.01950526 0.38039216 0.78823529 0.52549020
v 0.12156694 -0.03203820 -0.00432461 0.38039216 0.78823529 0.52549020
v 0.12156694 -0.03011210 -0.00573411 0.38039216 0.78823529 0.52549020
v 0.11840906 -0.02814138 -0.00650032 0.38039216 0.78823529 0.52549020
v 0.11617362 -0.02766915 -0.00625159 0.38039216 0.78823529 0.52549020
v 0.11516809 -0.02578395 -0.00655750 0.38039216 0.78823529 0.52549020
v 0.11524288 -0.02254155 -0.00716647 0.38039216 0.78823529 0.52549020
v 0.11524288 -0.01938096 -0.00751527 0.38039216 0.78823529 0.52549020
v 0.11524288 -0.01621665 -0.00779831 0.38039216 0.78823529 0.52549020
v 0.11840906 -0.01305606 -0.00840443 0.38039216 0.78823529 0.52549020
v 0.11840906 -0.00989547 -0.00855309 0.38039216 0.78823529 0.52549020
v 0.11524288 -0.01305606 -0.00798987 0.38039216 0.78823529 0.52549020
v 0.11524288 -0.00989547 -0.00809851 0.38039216 0.78823529 0.52549020
v 0.09913771 -0.00989547 -0.00569980 0.38039216 0.78823529 0.52549020
v 0.09913771 -0.00357056 -0.00414164 0.38039216 0.78823529 0.52549020
v 0.12156694 0.00594840 -0.00771826 0.38039216 0.78823529 0.52549020
v 0.11738275 -0.02679162 0.01905353 0.38039216 0.78823529 0.52549020
v 0.11815976 -0.03203820 0.01694644 0.38039216 0.78823529 0.52549020
v 0.11208085 -0.00989547 0.01771266 0.38039216 0.78823529 0.52549020
v 0.11208085 -0.01621665 0.01845028 0.38039216 0.78823529 0.52549020
v 0.09913771 -0.00989547 0.01453343 0.38039216 0.78823529 0.52549020
v 0.11409191 -0.02254155 0.01910499 0.38039216 0.78823529 0.52549020
v 0.09913771 -0.01305606 0.01457346 0.38039216 0.78823529 0.52549020
v 0.12026639 0.00594840 0.01591434 0.38039216 0.78823529 0.52549020
v 0.09913771 -0.00132468 0.01055083 0.38039216 0.78823529 0.52549020
v 0.09913771 -0.00324335 0.01213186 0.38039216 0.78823529 0.52549020
v 0.11669301 -0.03203820 0.01624884 0.38039216 0.78823529 0.52549020
v 0.09913771 -0.01623524 0.01392160 0.38039216 0.78823529 0.52549020
v 0.09913771 -0.01646578 0.01384441 0.38039216 0.78823529 0.52549020
v 0.09913771 -0.01826918 0.01322686 0.38039216 0.78823529 0.52549020
v 0.11860020 -0.03203820 -0.00346977 0.38039216 0.78823529 0.52549020
v 0.11724148 -0.03203820 -0.00273786 0.38039216 0.78823529 0.52549020
v 0.09913771 -0.02063776 -0.00257490 0.38039216 0.78823529 0.52549020
v 0.09913771 -0.02048903 -0.00268068 0.38039216 0.78823529 0.52549020
v 0.09913771 -0.01905747 -0.00346691 0.38039216 0.78823529 0.52549020
v 0.09913771 -0.01880090 -0.00358985 0.38039216 0.78823529 0.52549020
v 0.09913771 -0.01621665 -0.00471630 0.38039216 0.78823529 0.52549020
v 0.09913771 -0.01591918 -0.00479349 0.38039216 0.78823529 0.52549020
v 0.09913771 -0.01305606 -0.00553398 0.38039216 0.78823529 0.52549020
v 0.09913771 -0.00175973 -0.00302376 0.38039216 0.78823529 0.52549020
v 0.11917776 0.00594840 -0.00652320 0.38039216 0.78823529 0.52549020
v 0.11870408 0.00594840 0.01465065 0.38039216 0.78823529 0.52549020
v 0.09913771 0.00021843 0.00825790 0.38039216 0.78823529 0.52549020
v 0.09913771 0.00008085 0.00847233 0.38039216 0.78823529 0.52549020
v 0.11505590 -0.03203820 0.01482219 0.38039216 0.78823529 0.52549020
v 0.09913771 -0.01982344 0.01238060 0.38039216 0.78823529 0.52549020
v 0.09913771 -0.02005026 0.01222049 0.38039216 0.78823529 0.52549020
v 0.09913771 -0.02188713 0.01078813 0.38039216 0.78823529 0.52549020
v 0.11522626 -0.03203820 -0.00115397 0.38039216 0.78823529 0.52549020
v 0.09913771 -0.02193918 -0.00114253 0.38039216 0.78823529 0.52549020
v 0.09913771 -0.00036535 -0.00122830 0.38039216 0.78823529 0.52549020
v 0.11759881 0.00594840 -0.00525951 0.38039216 0.78823529 0.52549020
v 0.11857942 0.00594840 0.01453343 0.38039216 0.78823529 0.52549020
v 0.09913771 0.00104762 0.00653392 0.38039216 0.78823529 0.52549020
v 0.11497280 -0.03203820 0.01474500 0.38039216 0.78823529 0.52549020
v 0.09913771 -0.02360128 0.00816069 0.38039216 0.78823529 0.52549020
v 0.11349358 -0.03203820 0.01316111 0.38039216 0.78823529 0.52549020
v 0.11517639 -0.03203820 -0.00110537 0.38039216 0.78823529 0.52549020
v 0.09913771 -0.02205073 -0.00099386 0.38039216 0.78823529 0.52549020
v 0.09913771 0.00098441 0.00135624 0.38039216 0.78823529 0.52549020
v 0.11615285 0.00594840 -0.00368134 0.38039216 0.78823529 0.52549020
v 0.11696309 0.00594840 0.01279229 0.38039216 0.78823529 0.52549020
v 0.09913771 0.00113314 0.00631091 0.38039216 0.78823529 0.52549020
v 0.09913771 -0.02363103 0.00803204 0.38039216 0.78823529 0.52549020
v 0.11269164 -0.03203820 0.01152575 0.38039216 0.78823529 0.52549020
v 0.11310715 -0.03203820 0.00151921 0.38039216 0.78823529 0.52549020
v 0.09913771 -0.02372027 0.00195664 0.38039216 0.78823529 0.52549020
v 0.09913771 -0.02368308 0.00188230 0.38039216 0.78823529 0.52549020
v 0.09913771 0.00101787 0.00150491 0.38039216 0.78823529 0.52549020
v 0.11484399 0.00594840 -0.00122830 0.38039216 0.78823529 0.52549020
v 0.11599080 0.00594840 0.01133134 0.38039216 0.78823529 0.52549020
v 0.09913771 0.00126328 0.00473274 0.38039216 0.78823529 0.52549020
v 0.11456144 0.00594840 0.00818643 0.38039216 0.78823529 0.52549020
v 0.09913771 -0.02427430 0.00509583 0.38039216 0.78823529 0.52549020
v 0.11176921 -0.03203820 0.00825790 0.38039216 0.78823529 0.52549020
v 0.11297835 -0.03203820 0.00169647 0.38039216 0.78823529 0.52549020
v 0.09913771 -0.02418878 0.00401798 0.38039216 0.78823529 0.52549020
v 0.09913771 0.00126328 0.00293728 0.38039216 0.78823529 0.52549020
v 0.11483568 0.00594840 -0.00119971 0.38039216 0.78823529 0.52549020
v 0.11399634 0.00594840 0.00562475 0.38039216 0.78823529 0.52549020
v 0.11390078 0.00594840 0.00509583 0.38039216 0.78823529 0.52549020
v 0.11178168 -0.03203820 0.00509583 0.38039216 0.78823529 0.52549020
v 0.11402128 0.00594840 0.00166788 0.38039216 0.78823529 0.52549020
f 154 187 156
f 154 156 155
f 156 187 157
f 157 188 158
f 157 187 189
f 157 189 190
f 157 190 188
f 158 188 190
f 160 193 161
f 158 191 192
f 159 193 160
f 159 170 194
f 159 194 193
f 158 190 191
f 152 182 177
f 154 185 186
f 151 176 152
f 151 175 176
f 161 193 195
f 152 177 153
f 152 176 178
f 152 178 179
f 154 186 187
f 152 179 180
f 152 181 182
f 153 177 183
f 153 183 184
f 153 184 186
f 153 186 185
f 153 185 154
f 152 180 181
f 162 169 196
f 172 206 173
f 162 197 198
f 173 176 174
f 174 176 175
f 177 182 183
f 178 207 208
f 178 208 179
f 179 208 209
f 173 178 176
f 179 209 210
f 179 211 212
f 179 212 180
f 180 212 181
f 181 212 182
f 150 175 151
f 182 212 213
f 179 210 211
f 162 196 197
f 173 207 178
f 170 205 194
f 162 198 164
f 164 166 165
f 164 198 199
f 164 199 166
f 166 199 170
f 167 200 201
f 173 206 207
f 167 201 202
f 167 203 168
f 168 203 169
f 169 203 196
f 170 199 198
f 170 198 204
f 170 204 205
f 167 202 203
f 149 175 150
f 127 150 128
f 148 174 175
f 115 144 134
f 116 138 117
f 120 124 145
f 120 145 125
f 120 125 121
f 124 146 145
f 115 141 144
f 125 145 146
f 125 147 148
f 125 148 126
f 126 148 149
f 126 149 127
f 127 149 150
f 128 150 151
f 125 146 147
f 128 151 152
f 113 115 114
f 112 143 139
f 182 213 214
f 103 136 105
f 103 105 104
f 105 136 137
f 105 137 133
f 105 133 106
f 113 141 115
f 107 138 116
f 109 112 110
f 110 112 139
f 110 139 140
f 110 140 141
f 110 141 113
f 112 142 143
f 107 116 108
f 148 175 149
f 128 152 129
f 129 153 154
f 140 165 141
f 141 165 166
f 141 166 144
f 142 167 168
f 142 168 169
f 142 169 143
f 140 164 165
f 143 169 162
f 144 170 159
f 146 171 147
f 147 171 172
f 147 172 173
f 147 173 148
f 148 173 174
f 144 166 170
f 129 152 153
f 140 162 164
f 139 163 140
f 129 154 155
f 129 155 130
f 130 155 131
f 131 155 156
f 131 156 157
f 131 157 158
f 140 163 162
f 134 144 159
f 134 160 135
f 135 160 161
f 135 161 136
f 136 161 137
f 139 143 162
f 139 162 163
f 134 159 160
f 182 214 186
f 209 239 240
f 182 184 183
f 216 218 217
f 219 244 220
f 220 244 245
f 221 231 222
f 223 225 224
f 226 227 232
f 216 243 218
f 228 246 247
f 228 248 229
f 231 234 250
f 231 250 251
f 231 251 252
f 231 252 249
f 236 253 254
f 228 247 248
f 236 254 237
f 214 216 215
f 213 216 214
f 206 209 208
f 206 208 207
f 209 235 236
f 209 236 237
f 209 237 238
f 209 238 239
f 213 243 216
f 103 135 136
f 209 241 210
f 210 241 242
f 210 242 243
f 210 243 211
f 211 243 212
f 212 243 213
f 209 240 241
f 206 235 209
f 244 255 245
f 246 257 258
f 267 275 277
f 267 277 276
f 268 278 269
f 269 278 279
f 270 280 271
f 271 280 281
f 266 275 267
f 273 282 274
f 276 277 284
f 276 284 285
f 276 285 282
f 278 281 286
f 278 286 279
f 280 286 281
f 274 282 283
f 245 255 256
f 265 273 274
f 262 272 263
f 246 258 247
f 249 252 259
f 252 260 261
f 252 261 259
f 253 262 263
f 253 263 254
f 264 273 265
f 255 264 256
f 257 266 267
f 257 267 258
f 260 268 269
f 260 269 261
f 262 270 271
f 262 271 272
f 256 264 265
f 182 186 184
f 205 234 231
f 205 232 233
f 191 272 271
f 191 271 281
f 191 281 278
f 191 278 268
f 191 268 260
f 191 260 252
f 191 263 272
f 191 252 251
f 191 250 234
f 191 234 233
f 191 233 232
f 191 232 227
f 191 227 225
f 191 225 202
f 191 251 250
f 191 202 201
f 191 254 263
f 191 238 237
f 186 214 187
f 187 214 215
f 187 215 189
f 189 215 216
f 189 216 217
f 189 217 218
f 191 237 254
f 189 218 190
f 191 218 243
f 191 243 242
f 191 242 241
f 191 241 240
f 191 240 239
f 191 239 238
f 190 218 191
f 205 233 234
f 191 201 230
f 191 229 248
f 196 203 225
f 196 225 223
f 197 226 204
f 197 204 198
f 197 224 225
f 197 225 227
f 196 224 197
f 197 227 226
f 200 229 230
f 200 230 201
f 202 225 203
f 204 226 205
f 205 231 221
f 205 226 232
f 200 228 229
f 191 230 229
f 196 223 224
f 193 221 195
f 191 248 247
f 191 247 258
f 191 258 267
f 191 267 276
f 191 276 282
f 191 282 273
f 195 221 222
f 191 273 264
f 191 255 244
f 191 244 219
f 191 219 220
f 191 220 192
f 193 194 205
f 193 205 221
f 191 264 255
f 103 134 135
f 74 108 82
f 100 102 101
f 22 48 34
f 22 45 48
f 21 47 45
f 21 46 47
f 21 33 46
f 21 45 22
f 20 43 44
f 18 20 19
f 18 43 20
f 17 43 18
f 17 42 43
f 17 41 42
f 17 40 41
f 17 39 40
f 16 39 17
f 16 38 39
f 16 37 38
f 11 28 29
f 11 29 30
f 11 30 31
f 11 31 12
f 12 31 32
f 12 32 13
f 28 49 29
f 13 32 33
f 14 22 34
f 14 34 35
f 14 35 15
f 15 35 36
f 15 36 16
f 16 36 37
f 13 33 21
f 29 50 30
f 29 49 51
f 29 51 50
f 38 61 62
f 38 62 63
f 38 63 40
f 38 40 39
f 40 63 64
f 40 64 65
f 37 61 38
f 40 65 66
f 41 66 42
f 42 66 67
f 42 67 43
f 43 67 68
f 43 68 69
f 43 69 70
f 40 66 41
f 11 27 28
f 37 60 61
f 36 59 37
f 30 50 31
f 31 50 52
f 31 52 53
f 31 53 32
f 32 53 54
f 32 54 55
f 37 59 60
f 32 55 56
f 32 46 33
f 34 48 57
f 34 57 35
f 35 57 58
f 35 58 36
f 36 58 59
f 32 56 46
f 11 26 27
f 11 25 26
f 11 24 25
f 1 274 283
f 1 283 287
f 1 287 285
f 1 285 284
f 1 284 277
f 1 277 275
f 1 265 274
f 1 275 266
f 1 257 246
f 1 246 228
f 1 228 200
f 1 200 167
f 1 167 142
f 1 142 112
f 1 266 257
f 1 112 78
f 1 256 265
f 1 220 245
f 282 285 287
f 1 2 3
f 1 3 4
f 1 4 5
f 1 5 6
f 1 6 20
f 1 245 256
f 1 20 44
f 1 70 69
f 1 69 95
f 1 95 131
f 1 131 158
f 1 158 192
f 1 192 220
f 1 44 70
f 43 70 44
f 1 78 77
f 1 75 49
f 3 15 4
f 4 15 5
f 5 15 16
f 5 16 17
f 5 17 18
f 5 18 19
f 3 14 15
f 5 19 6
f 8 13 21
f 8 21 22
f 8 22 14
f 9 11 10
f 9 23 11
f 11 23 24
f 6 19 20
f 1 77 75
f 3 8 14
f 2 12 13
f 1 49 28
f 1 28 27
f 1 27 26
f 1 26 25
f 1 25 24
f 1 24 23
f 2 13 8
f 1 23 9
f 1 7 2
f 2 8 3
f 2 7 9
f 2 9 10
f 2 10 11
f 2 11 12
f 1 9 7
f 103 115 134
f 45 71 48
f 45 72 71
f 95 130 131
f 94 130 95
f 93 130 94
f 92 130 93
f 92 129 130
f 91 129 92
f 91 128 129
f 90 128 91
f 90 127 128
f 88 90 89
f 88 127 90
f 88 126 127
f 88 125 126
f 88 121 125
f 86 124 120
f 86 123 124
f 86 122 123
f 81 115 103
f 82 108 83
f 83 108 116
f 83 116 84
f 84 116 117
f 84 117 85
f 96 102 97
f 85 117 118
f 85 119 86
f 86 120 121
f 86 121 88
f 86 88 87
f 86 119 118
f 86 118 122
f 85 118 119
f 97 107 98
f 97 102 132
f 97 132 107
f 100 236 235
f 100 235 206
f 100 206 172
f 100 172 171
f 100 171 146
f 100 146 124
f 100 253 236
f 100 124 123
f 100 122 118
f 100 118 117
f 100 117 138
f 100 138 107
f 100 107 132
f 100 132 102
f 100 123 122
f 79 81 80
f 100 262 253
f 100 280 270
f 99 106 100
f 100 106 133
f 100 133 137
f 100 137 161
f 100 161 195
f 100 195 222
f 100 270 262
f 100 222 231
f 100 249 259
f 100 259 261
f 100 261 269
f 100 269 279
f 100 279 286
f 100 286 280
f 100 231 249
f 79 115 81
f 79 114 115
f 79 113 114
f 56 81 73
f 57 74 82
f 57 82 83
f 57 83 58
f 58 83 59
f 59 83 84
f 56 80 81
f 59 84 60
f 60 85 61
f 61 85 86
f 61 86 87
f 61 87 88
f 61 88 62
f 62 88 63
f 60 84 85
f 63 88 89
f 54 56 55
f 53 80 54
f 46 56 73
f 46 73 47
f 47 73 72
f 48 71 74
f 48 74 57
f 49 75 51
f 54 80 56
f 50 51 76
f 51 75 77
f 51 77 78
f 51 78 76
f 52 76 79
f 52 79 53
f 53 79 80
f 50 76 52
f 45 47 72
f 63 89 64
f 64 90 65
f 73 81 103
f 73 103 104
f 73 104 105
f 73 105 106
f 73 106 99
f 74 98 107
f 72 73 99
f 74 107 108
f 76 109 110
f 76 110 111
f 76 111 79
f 78 112 109
f 79 111 110
f 79 110 113
f 76 78 109
f 64 89 90
f 72 102 96
f 72 100 101
f 65 90 91
f 65 91 66
f 66 91 92
f 66 92 93
f 66 93 94
f 66 94 67
f 72 101 102
f 67 94 68
f 68 95 69
f 71 72 96
f 71 96 97
f 71 97 98
f 71 98 74
f 72 99 100
f 68 94 95
f 282 287 283

