# https://github.com/mikedh/trimesh
v 0.12965892 0.02606206 -0.01232768 0.54117647 0.42352941 0.64313725
v 0.12965892 0.02688020 -0.01232768 0.54117647 0.42352941 0.64313725
v 0.13084994 0.02496039 -0.01206592 0.54117647 0.42352941 0.64313725
v 0.13105200 0.02172921 -0.01182548 0.54117647 0.42352941 0.64313725
v 0.13105200 0.01856891 -0.01160633 0.54117647 0.42352941 0.64313725
v 0.12789536 0.01856891 -0.01203245 0.54117647 0.42352941 0.64313725
v 0.12789536 0.02608865 -0.01232159 0.54117647 0.42352941 0.64313725
v 0.13084994 0.02798187 -0.01184982 0.54117647 0.42352941 0.64313725
v 0.13421477 0.02488951 -0.01117108 0.54117647 0.42352941 0.64313725
v 0.12789536 0.02689496 -0.01232159 0.54117647 0.42352941 0.64313725
v 0.12789536 0.02847807 -0.01224246 0.54117647 0.42352941 0.64313725
v 0.13421477 0.02172921 -0.01097934 0.54117647 0.42352941 0.64313725
v 0.13105200 0.01224241 -0.01108282 0.54117647 0.42352941 0.64313725
v 0.12789536 0.01540566 -0.01177982 0.54117647 0.42352941 0.64313725
v 0.12630020 0.02637218 -0.01230029 0.54117647 0.42352941 0.64313725
v 0.12473260 0.01540566 -0.01168851 0.54117647 0.42352941 0.64313725
v 0.12473260 0.01856891 -0.01189244 0.54117647 0.42352941 0.64313725
v 0.13097853 0.03124850 -0.01021537 0.54117647 0.42352941 0.64313725
v 0.13445358 0.02829495 -0.01025190 0.54117647 0.42352941 0.64313725
v 0.12789536 0.03121600 -0.01137197 0.54117647 0.42352941 0.64313725
v 0.13641615 0.02740297 -0.00958229 0.54117647 0.42352941 0.64313725
v 0.13677132 0.02488951 -0.00984100 0.54117647 0.42352941 0.64313725
v 0.13664884 0.02172921 -0.00974969 0.54117647 0.42352941 0.64313725
v 0.12630020 0.02662914 -0.01230029 0.54117647 0.42352941 0.64313725
v 0.12504183 0.02783124 -0.01195331 0.54117647 0.42352941 0.64313725
v 0.12473260 0.03121600 -0.01135066 0.54117647 0.42352941 0.64313725
v 0.13576401 0.01096057 -0.00911052 0.54117647 0.42352941 0.64313725
v 0.13451176 0.01210654 -0.00984405 0.54117647 0.42352941 0.64313725
v 0.13105200 0.00945721 -0.01006319 0.54117647 0.42352941 0.64313725
v 0.12789536 0.01224241 -0.01135675 0.54117647 0.42352941 0.64313725
v 0.13365448 0.01002134 -0.00969795 0.54117647 0.42352941 0.64313725
v 0.12473260 0.01224241 -0.01120152 0.54117647 0.42352941 0.64313725
v 0.12156984 0.01224241 -0.01037669 0.54117647 0.42352941 0.64313725
v 0.12156984 0.01540566 -0.01086063 0.54117647 0.42352941 0.64313725
v 0.12987324 0.03301472 -0.00942402 0.54117647 0.42352941 0.64313725
v 0.13355956 0.03021771 -0.00964621 0.54117647 0.42352941 0.64313725
v 0.13566909 0.02951181 -0.00904356 0.54117647 0.42352941 0.64313725
v 0.12473260 0.03355521 -0.00998101 0.54117647 0.42352941 0.64313725
v 0.12789536 0.03338095 -0.00984405 0.54117647 0.42352941 0.64313725
v 0.13743264 0.02829495 -0.00827047 0.54117647 0.42352941 0.64313725
v 0.13953299 0.02805275 -0.00654166 0.54117647 0.42352941 0.64313725
v 0.13835116 0.02488951 -0.00862049 0.54117647 0.42352941 0.64313725
v 0.13822870 0.02172921 -0.00853831 0.54117647 0.42352941 0.64313725
v 0.12156984 0.01856891 -0.01083933 0.54117647 0.42352941 0.64313725
v 0.12156984 0.02805275 -0.01066279 0.54117647 0.42352941 0.64313725
v 0.12230465 0.03324214 -0.00960359 0.54117647 0.42352941 0.64313725
v 0.12137694 0.03132528 -0.01002362 0.54117647 0.42352941 0.64313725
v 0.13400964 0.00594840 -0.00646861 0.54117647 0.42352941 0.64313725
v 0.13926356 0.01224241 -0.00629817 0.54117647 0.42352941 0.64313725
v 0.13912272 0.01045847 -0.00615511 0.54117647 0.42352941 0.64313725
v 0.13105200 0.00594840 -0.00783218 0.54117647 0.42352941 0.64313725
v 0.12789536 0.00594840 -0.00860223 0.54117647 0.42352941 0.64313725
v 0.12789536 0.00916186 -0.01013624 0.54117647 0.42352941 0.64313725
v 0.12473260 0.00934202 -0.01002058 0.54117647 0.42352941 0.64313725
v 0.12156984 0.01010995 -0.00953055 0.54117647 0.42352941 0.64313725
v 0.11997774 0.01065045 -0.00914096 0.54117647 0.42352941 0.64313725
v 0.11953379 0.01224241 -0.00943315 0.54117647 0.42352941 0.64313725
v 0.11912658 0.01540566 -0.00968882 0.54117647 0.42352941 0.64313725
v 0.12789536 0.03434677 -0.00755216 0.54117647 0.42352941 0.64313725
v 0.13055601 0.03331303 -0.00755216 0.54117647 0.42352941 0.64313725
v 0.13737754 0.03106833 -0.00438979 0.54117647 0.42352941 0.64313725
v 0.13901556 0.02968016 -0.00603641 0.54117647 0.42352941 0.64313725
v 0.12473260 0.03492271 -0.00755216 0.54117647 0.42352941 0.64313725
v 0.14232223 0.02685361 -0.00325145 0.54117647 0.42352941 0.64313725
v 0.14160272 0.02488951 -0.00509896 0.54117647 0.42352941 0.64313725
v 0.14002286 0.02488951 -0.00703778 0.54117647 0.42352941 0.64313725
v 0.13992796 0.02172921 -0.00695864 0.54117647 0.42352941 0.64313725
v 0.11937152 0.02488951 -0.00955185 0.54117647 0.42352941 0.64313725
v 0.11947255 0.02805275 -0.00950011 0.54117647 0.42352941 0.64313725
v 0.11968687 0.03034766 -0.00936010 0.54117647 0.42352941 0.64313725
v 0.12019512 0.03245354 -0.00898269 0.54117647 0.42352941 0.64313725
v 0.11915108 0.03345184 -0.00687342 0.54117647 0.42352941 0.64313725
v 0.12137694 0.03406323 -0.00777739 0.54117647 0.42352941 0.64313725
v 0.13413823 0.00594840 -0.00635295 0.54117647 0.42352941 0.64313725
v 0.14151087 0.02172921 -0.00498026 0.54117647 0.42352941 0.64313725
v 0.14054030 0.01224241 -0.00438979 0.54117647 0.42352941 0.64313725
v 0.14181704 0.01224241 -0.00199137 0.54117647 0.42352941 0.64313725
v 0.14219669 0.01055003 0.00010267 0.54117647 0.42352941 0.64313725
v 0.13963403 0.00985594 -0.00438979 0.54117647 0.42352941 0.64313725
v 0.13819501 0.00594840 -0.00132785 0.54117647 0.42352941 0.64313725
v 0.13647127 0.00594840 -0.00421325 0.54117647 0.42352941 0.64313725
v 0.12473260 0.00594840 -0.00857179 0.54117647 0.42352941 0.64313725
v 0.12469280 0.00594840 -0.00856266 0.54117647 0.42352941 0.64313725
v 0.12156984 0.00594840 -0.00771652 0.54117647 0.42352941 0.64313725
v 0.12154535 0.00594840 -0.00770434 0.54117647 0.42352941 0.64313725
v 0.11917557 0.00594840 -0.00652340 0.54117647 0.42352941 0.64313725
v 0.11759878 0.00594840 -0.00526028 0.54117647 0.42352941 0.64313725
v 0.11795088 0.01224241 -0.00814568 0.54117647 0.42352941 0.64313725
v 0.11754366 0.01540566 -0.00855657 0.54117647 0.42352941 0.64313725
v 0.12473260 0.03554886 -0.00438979 0.54117647 0.42352941 0.64313725
v 0.12789536 0.03476027 -0.00438979 0.54117647 0.42352941 0.64313725
v 0.13317072 0.03296155 -0.00382975 0.54117647 0.42352941 0.64313725
v 0.13422090 0.03243286 -0.00468502 0.54117647 0.42352941 0.64313725
v 0.13737754 0.03166494 -0.00122741 0.54117647 0.42352941 0.64313725
v 0.13937684 0.02993712 -0.00438979 0.54117647 0.42352941 0.64313725
v 0.14140371 0.02882659 -0.00122741 0.54117647 0.42352941 0.64313725
v 0.12156984 0.03554296 -0.00438979 0.54117647 0.42352941 0.64313725
v 0.14258246 0.02724644 -0.00122741 0.54117647 0.42352941 0.64313725
v 0.14314277 0.02488951 -0.00122741 0.54117647 0.42352941 0.64313725
v 0.14246612 0.02488951 -0.00351929 0.54117647 0.42352941 0.64313725
v 0.14242021 0.02172921 -0.00340059 0.54117647 0.42352941 0.64313725
v 0.11778860 0.02488951 -0.00829177 0.54117647 0.42352941 0.64313725
v 0.11789270 0.02805275 -0.00812437 0.54117647 0.42352941 0.64313725
v 0.11659453 0.03023247 -0.00626469 0.54117647 0.42352941 0.64313725
v 0.11836727 0.03134301 -0.00762521 0.54117647 0.42352941 0.64313725
v 0.11704460 0.03234131 -0.00566204 0.54117647 0.42352941 0.64313725
v 0.11822030 0.03403960 -0.00452066 0.54117647 0.42352941 0.64313725
v 0.11638634 0.03324805 -0.00355278 0.54117647 0.42352941 0.64313725
v 0.14223037 0.01856891 -0.00303231 0.54117647 0.42352941 0.64313725
v 0.14203136 0.01479723 -0.00252097 0.54117647 0.42352941 0.64313725
v 0.14233753 0.01224241 -0.00040866 0.54117647 0.42352941 0.64313725
v 0.14260697 0.01224241 0.00193496 0.54117647 0.42352941 0.64313725
v 0.14223650 0.01048209 0.00193496 0.54117647 0.42352941 0.64313725
v 0.13921763 0.00594840 0.00193496 0.54117647 0.42352941 0.64313725
v 0.11615364 0.00594840 -0.00368365 0.54117647 0.42352941 0.64313725
v 0.11627305 0.01224241 -0.00656601 0.54117647 0.42352941 0.64313725
v 0.11592095 0.01540566 -0.00697386 0.54117647 0.42352941 0.64313725
v 0.11598831 0.01856891 -0.00690386 0.54117647 0.42352941 0.64313725
v 0.12156984 0.03587671 -0.00194572 0.54117647 0.42352941 0.64313725
v 0.12156984 0.03601847 -0.00036605 0.54117647 0.42352941 0.64313725
v 0.12322929 0.03597417 -0.00016821 0.54117647 0.42352941 0.64313725
v 0.12363038 0.03606278 0.00193496 0.54117647 0.42352941 0.64313725
v 0.12521024 0.03572312 0.00193496 0.54117647 0.42352941 0.64313725
v 0.13514553 0.03259826 -0.00122741 0.54117647 0.42352941 0.64313725
v 0.12547966 0.03576743 0.00509430 0.54117647 0.42352941 0.64313725
v 0.13737754 0.03173583 0.00193496 0.54117647 0.42352941 0.64313725
v 0.13991265 0.03037424 0.00193496 0.54117647 0.42352941 0.64313725
v 0.13982386 0.03027973 -0.00122741 0.54117647 0.42352941 0.64313725
v 0.14149556 0.02896540 0.00193496 0.54117647 0.42352941 0.64313725
v 0.14270495 0.02738230 0.00193496 0.54117647 0.42352941 0.64313725
v 0.11863058 0.03529486 -0.00117262 0.54117647 0.42352941 0.64313725
v 0.11983383 0.03602143 -0.00008299 0.54117647 0.42352941 0.64313725
v 0.14347344 0.02488951 0.00193496 0.54117647 0.42352941 0.64313725
v 0.14356222 0.02172921 0.00193496 0.54117647 0.42352941 0.64313725
v 0.14307847 0.02172921 -0.00122741 0.54117647 0.42352941 0.64313725
v 0.11605873 0.02172921 -0.00679733 0.54117647 0.42352941 0.64313725
v 0.11617507 0.02488951 -0.00670906 0.54117647 0.42352941 0.64313725
v 0.11636490 0.02805275 -0.00654166 0.54117647 0.42352941 0.64313725
v 0.11502386 0.02805275 -0.00438979 0.54117647 0.42352941 0.64313725
v 0.11593626 0.03125735 -0.00452066 0.54117647 0.42352941 0.64313725
v 0.11440540 0.03094133 -0.00096870 0.54117647 0.42352941 0.64313725
v 0.11598831 0.03361724 -0.00122741 0.54117647 0.42352941 0.64313725
v 0.14295600 0.01540566 0.00193496 0.54117647 0.42352941 0.64313725
v 0.14290396 0.01540566 0.00509430 0.54117647 0.42352941 0.64313725
v 0.14242939 0.01197954 0.00531648 0.54117647 0.42352941 0.64313725
v 0.14219976 0.01053526 0.00440947 0.54117647 0.42352941 0.64313725
v 0.13929724 0.00594840 0.00509430 0.54117647 0.42352941 0.64313725
v 0.11484322 0.00594840 -0.00122741 0.54117647 0.42352941 0.64313725
v 0.11348382 0.01344450 -0.00316623 0.54117647 0.42352941 0.64313725
v 0.11434110 0.01540566 -0.00484938 0.54117647 0.42352941 0.64313725
v 0.11440540 0.01856891 -0.00474589 0.54117647 0.42352941 0.64313725
v 0.12131571 0.03607755 0.00213585 0.54117647 0.42352941 0.64313725
v 0.12389675 0.03612185 0.00509430 0.54117647 0.42352941 0.64313725
v 0.13502000 0.03257759 0.00193496 0.54117647 0.42352941 0.64313725
v 0.12358752 0.03605392 0.00701790 0.54117647 0.42352941 0.64313725
v 0.12789536 0.03455647 0.00825667 0.54117647 0.42352941 0.64313725
v 0.13737754 0.03129280 0.00825667 0.54117647 0.42352941 0.64313725
v 0.13737754 0.03153499 0.00509430 0.54117647 0.42352941 0.64313725
v 0.13978711 0.03022952 0.00825667 0.54117647 0.42352941 0.64313725
v 0.13990040 0.03032699 0.00509430 0.54117647 0.42352941 0.64313725
v 0.14148331 0.02881477 0.00509430 0.54117647 0.42352941 0.64313725
v 0.14255492 0.02723167 0.00509430 0.54117647 0.42352941 0.64313725
v 0.11863058 0.03550456 0.00213585 0.54117647 0.42352941 0.64313725
v 0.11577093 0.03382104 0.00193496 0.54117647 0.42352941 0.64313725
v 0.11983383 0.03602143 0.00121666 0.54117647 0.42352941 0.64313725
v 0.12207808 0.03612185 0.00509430 0.54117647 0.42352941 0.64313725
v 0.14341220 0.02172921 0.00509430 0.54117647 0.42352941 0.64313725
v 0.14321931 0.02488951 0.00509430 0.54117647 0.42352941 0.64313725
v 0.14320706 0.01856891 0.00509430 0.54117647 0.42352941 0.64313725
v 0.11447581 0.02172921 -0.00462415 0.54117647 0.42352941 0.64313725
v 0.11445438 0.02480385 -0.00412803 0.54117647 0.42352941 0.64313725
v 0.11361853 0.02369036 -0.00290143 0.54117647 0.42352941 0.64313725
v 0.11374100 0.02579920 -0.00241444 0.54117647 0.42352941 0.64313725
v 0.11390328 0.02805275 -0.00179353 0.54117647 0.42352941 0.64313725
v 0.11363997 0.02970379 0.00025790 0.54117647 0.42352941 0.64313725
v 0.11418802 0.03126917 0.00193496 0.54117647 0.42352941 0.64313725
v 0.14244469 0.01540566 0.00770881 0.54117647 0.42352941 0.64313725
v 0.14227324 0.01285675 0.00727356 0.54117647 0.42352941 0.64313725
v 0.14210484 0.01074791 0.00651873 0.54117647 0.42352941 0.64313725
v 0.13903087 0.00594840 0.00631481 0.54117647 0.42352941 0.64313725
v 0.11483404 0.00594840 -0.00120002 0.54117647 0.42352941 0.64313725
v 0.11322663 0.01276519 -0.00122741 0.54117647 0.42352941 0.64313725
v 0.11276737 0.01540566 -0.00122741 0.54117647 0.42352941 0.64313725
v 0.11342565 0.01540566 -0.00326971 0.54117647 0.42352941 0.64313725
v 0.11401961 0.00594840 0.00166712 0.54117647 0.42352941 0.64313725
v 0.11347463 0.01856891 -0.00316623 0.54117647 0.42352941 0.64313725
v 0.12467749 0.03552819 0.00814405 0.54117647 0.42352941 0.64313725
v 0.12267206 0.03605392 0.00701790 0.54117647 0.42352941 0.64313725
v 0.12473260 0.03448854 0.01141904 0.54117647 0.42352941 0.64313725
v 0.12789536 0.03381808 0.01141904 0.54117647 0.42352941 0.64313725
v 0.13421477 0.03169153 0.01141904 0.54117647 0.42352941 0.64313725
v 0.13750000 0.03050420 0.01150427 0.54117647 0.42352941 0.64313725
v 0.13942583 0.02998437 0.01050594 0.54117647 0.42352941 0.64313725
v 0.14142820 0.02800550 0.00832363 0.54117647 0.42352941 0.64313725
v 0.14233448 0.02692155 0.00731618 0.54117647 0.42352941 0.64313725
v 0.11586584 0.03374129 0.00509430 0.54117647 0.42352941 0.64313725
v 0.11840707 0.03522692 0.00509430 0.54117647 0.42352941 0.64313725
v 0.12009408 0.03594464 0.00332288 0.54117647 0.42352941 0.64313725
v 0.12049823 0.03586489 0.00509430 0.54117647 0.42352941 0.64313725
v 0.14254573 0.02488951 0.00792491 0.54117647 0.42352941 0.64313725
v 0.14263145 0.02172921 0.00814101 0.54117647 0.42352941 0.64313725
v 0.14257636 0.01856891 0.00795535 0.54117647 0.42352941 0.64313725
v 0.11354505 0.02172921 -0.00304144 0.54117647 0.42352941 0.64313725
v 0.11285923 0.01856891 -0.00122741 0.54117647 0.42352941 0.64313725
v 0.11310416 0.02172921 -0.00122741 0.54117647 0.42352941 0.64313725
v 0.11341646 0.02480385 -0.00130655 0.54117647 0.42352941 0.64313725
v 0.11355424 0.02805275 -0.00021082 0.54117647 0.42352941 0.64313725
v 0.11243670 0.01856891 0.00193496 0.54117647 0.42352941 0.64313725
v 0.11275207 0.02172921 0.00193496 0.54117647 0.42352941 0.64313725
v 0.11307048 0.02488951 0.00193496 0.54117647 0.42352941 0.64313725
v 0.11343483 0.02805275 0.00193496 0.54117647 0.42352941 0.64313725
v 0.11364608 0.02968902 0.00193496 0.54117647 0.42352941 0.64313725
v 0.11428599 0.03089998 0.00478080 0.54117647 0.42352941 0.64313725
v 0.11366140 0.02963881 0.00351767 0.54117647 0.42352941 0.64313725
v 0.14194869 0.01540566 0.00929152 0.54117647 0.42352941 0.64313725
v 0.14180786 0.01197954 0.00829928 0.54117647 0.42352941 0.64313725
v 0.13963096 0.00985003 0.01080422 0.54117647 0.42352941 0.64313725
v 0.13716934 0.00594840 0.01142209 0.54117647 0.42352941 0.64313725
v 0.13848894 0.00594840 0.00832059 0.54117647 0.42352941 0.64313725
v 0.11228362 0.01540566 0.00193496 0.54117647 0.42352941 0.64313725
v 0.11390021 0.00594840 0.00509430 0.54117647 0.42352941 0.64313725
v 0.12159739 0.03556658 0.00814405 0.54117647 0.42352941 0.64313725
v 0.12156984 0.03429360 0.01141904 0.54117647 0.42352941 0.64313725
v 0.12473260 0.03333665 0.01374137 0.54117647 0.42352941 0.64313725
v 0.12789536 0.03308560 0.01344004 0.54117647 0.42352941 0.64313725
v 0.12953952 0.03282273 0.01305654 0.54117647 0.42352941 0.64313725
v 0.13652638 0.03007003 0.01354657 0.54117647 0.42352941 0.64313725
v 0.13863590 0.02907173 0.01261521 0.54117647 0.42352941 0.64313725
v 0.13990040 0.02803208 0.01150427 0.54117647 0.42352941 0.64313725
v 0.14200380 0.02488951 0.00950762 0.54117647 0.42352941 0.64313725
v 0.11635265 0.03326577 0.00825667 0.54117647 0.42352941 0.64313725
v 0.11840707 0.03450921 0.00825667 0.54117647 0.42352941 0.64313725
v 0.14207422 0.02172921 0.00972068 0.54117647 0.42352941 0.64313725
v 0.14200075 0.01856891 0.00953806 0.54117647 0.42352941 0.64313725
v 0.11238771 0.01540566 0.00509430 0.54117647 0.42352941 0.64313725
v 0.11260203 0.01856891 0.00509430 0.54117647 0.42352941 0.64313725
v 0.11288678 0.02172921 0.00509430 0.54117647 0.42352941 0.64313725
v 0.11321438 0.02488951 0.00509430 0.54117647 0.42352941 0.64313725
v 0.11386959 0.02859030 0.00562389 0.54117647 0.42352941 0.64313725
v 0.11543720 0.03121600 0.00825667 0.54117647 0.42352941 0.64313725
v 0.11356648 0.02774263 0.00478080 0.54117647 0.42352941 0.64313725
v 0.11366140 0.02648147 0.00668005 0.54117647 0.42352941 0.64313725
v 0.14083116 0.01540566 0.01141904 0.54117647 0.42352941 0.64313725
v 0.14012697 0.01201499 0.01168384 0.54117647 0.42352941 0.64313725
v 0.13888697 0.01080994 0.01291349 0.54117647 0.42352941 0.64313725
v 0.13610998 0.00594840 0.01330612 0.54117647 0.42352941 0.64313725
v 0.11399512 0.00594840 0.00562389 0.54117647 0.42352941 0.64313725
v 0.12156984 0.03311809 0.01339134 0.54117647 0.42352941 0.64313725
v 0.11867345 0.03331893 0.01116338 0.54117647 0.42352941 0.64313725
v 0.11990426 0.03286409 0.01306567 0.54117647 0.42352941 0.64313725
v 0.12473260 0.03168267 0.01532408 0.54117647 0.42352941 0.64313725
v 0.12789536 0.03036538 0.01667851 0.54117647 0.42352941 0.64313725
v 0.12789536 0.03194553 0.01501971 0.54117647 0.42352941 0.64313725
v 0.13105200 0.03009366 0.01653241 0.54117647 0.42352941 0.64313725
v 0.13287680 0.02978058 0.01628892 0.54117647 0.42352941 0.64313725
v 0.13077645 0.03167380 0.01429836 0.54117647 0.42352941 0.64313725
v 0.13404638 0.03039196 0.01459359 0.54117647 0.42352941 0.64313725
v 0.13750000 0.02803208 0.01403965 0.54117647 0.42352941 0.64313725
v 0.13915946 0.02696289 0.01320568 0.54117647 0.42352941 0.64313725
v 0.14077299 0.02488951 0.01141904 0.54117647 0.42352941 0.64313725
v 0.11674455 0.03288476 0.00993982 0.54117647 0.42352941 0.64313725
v 0.14088628 0.02172921 0.01141904 0.54117647 0.42352941 0.64313725
v 0.13942583 0.01540566 0.01352527 0.54117647 0.42352941 0.64313725
v 0.11337359 0.01324071 0.00825667 0.54117647 0.42352941 0.64313725
v 0.11365833 0.01381960 0.00984242 0.54117647 0.42352941 0.64313725
v 0.11321744 0.01512507 0.00849103 0.54117647 0.42352941 0.64313725
v 0.11321744 0.01856891 0.00783360 0.54117647 0.42352941 0.64313725
v 0.11335522 0.02172921 0.00743792 0.54117647 0.42352941 0.64313725
v 0.11353281 0.02488951 0.00697224 0.54117647 0.42352941 0.64313725
v 0.11450031 0.02774263 0.00794317 0.54117647 0.42352941 0.64313725
v 0.11648431 0.03121600 0.01030202 0.54117647 0.42352941 0.64313725
v 0.11428599 0.02488951 0.00855495 0.54117647 0.42352941 0.64313725
v 0.13930030 0.01291877 0.01337613 0.54117647 0.42352941 0.64313725
v 0.13744183 0.01210359 0.01465447 0.54117647 0.42352941 0.64313725
v 0.13609161 0.00594840 0.01332743 0.54117647 0.42352941 0.64313725
v 0.11456154 0.00594840 0.00818667 0.54117647 0.42352941 0.64313725
v 0.12304559 0.02975104 0.01621587 0.54117647 0.42352941 0.64313725
v 0.11792945 0.03121600 0.01188473 0.54117647 0.42352941 0.64313725
v 0.11950929 0.03121600 0.01341265 0.54117647 0.42352941 0.64313725
v 0.12473260 0.03010252 0.01644415 0.54117647 0.42352941 0.64313725
v 0.12789536 0.02805275 0.01757335 0.54117647 0.42352941 0.64313725
v 0.13105200 0.02805275 0.01728420 0.54117647 0.42352941 0.64313725
v 0.13349220 0.02805275 0.01655068 0.54117647 0.42352941 0.64313725
v 0.13507512 0.02805275 0.01572584 0.54117647 0.42352941 0.64313725
v 0.13564460 0.02576375 0.01608804 0.54117647 0.42352941 0.64313725
v 0.13709279 0.02478318 0.01514450 0.54117647 0.42352941 0.64313725
v 0.13930948 0.02488951 0.01336395 0.54117647 0.42352941 0.64313725
v 0.13935235 0.02172921 0.01341569 0.54117647 0.42352941 0.64313725
v 0.13768065 0.01540566 0.01510798 0.54117647 0.42352941 0.64313725
v 0.11365833 0.01388163 0.00984242 0.54117647 0.42352941 0.64313725
v 0.11598831 0.00594840 0.01133078 0.54117647 0.42352941 0.64313725
v 0.11696194 0.00594840 0.01279174 0.54117647 0.42352941 0.64313725
v 0.11620263 0.01540566 0.01374441 0.54117647 0.42352941 0.64313725
v 0.11446357 0.01512507 0.01110555 0.54117647 0.42352941 0.64313725
v 0.11371957 0.01599046 0.00970241 0.54117647 0.42352941 0.64313725
v 0.11384510 0.01856891 0.00941327 0.54117647 0.42352941 0.64313725
v 0.11404411 0.02172921 0.00901759 0.54117647 0.42352941 0.64313725
v 0.11613527 0.02805275 0.01079205 0.54117647 0.42352941 0.64313725
v 0.11739364 0.02805275 0.01237172 0.54117647 0.42352941 0.64313725
v 0.11492283 0.01856891 0.01141904 0.54117647 0.42352941 0.64313725
v 0.11543413 0.02172921 0.01141904 0.54117647 0.42352941 0.64313725
v 0.13599669 0.01339725 0.01629501 0.54117647 0.42352941 0.64313725
v 0.13421477 0.00594840 0.01470621 0.54117647 0.42352941 0.64313725
v 0.12266288 0.02805275 0.01641675 0.54117647 0.42352941 0.64313725
v 0.12473260 0.02805275 0.01709549 0.54117647 0.42352941 0.64313725
v 0.12107996 0.02805275 0.01549148 0.54117647 0.42352941 0.64313725
v 0.11897656 0.02805275 0.01391181 0.54117647 0.42352941 0.64313725
v 0.12473260 0.02488951 0.01766162 0.54117647 0.42352941 0.64313725
v 0.12789536 0.02488951 0.01807555 0.54117647 0.42352941 0.64313725
v 0.13105200 0.02488951 0.01777119 0.54117647 0.42352941 0.64313725
v 0.13444134 0.02478318 0.01669677 0.54117647 0.42352941 0.64313725
v 0.13584973 0.02365492 0.01619761 0.54117647 0.42352941 0.64313725
v 0.13750306 0.02172921 0.01499536 0.54117647 0.42352941 0.64313725
v 0.13610080 0.01540566 0.01636197 0.54117647 0.42352941 0.64313725
v 0.13603344 0.01856891 0.01631631 0.54117647 0.42352941 0.64313725
v 0.11857853 0.00594840 0.01453272 0.54117647 0.42352941 0.64313725
v 0.11774880 0.01540566 0.01532408 0.54117647 0.42352941 0.64313725
v 0.11785902 0.01856891 0.01521755 0.54117647 0.42352941 0.64313725
v 0.11632204 0.01856891 0.01363788 0.54117647 0.42352941 0.64313725
v 0.11663433 0.02172921 0.01324220 0.54117647 0.42352941 0.64313725
v 0.11681191 0.02336252 0.01301393 0.54117647 0.42352941 0.64313725
v 0.13421477 0.01540566 0.01727203 0.54117647 0.42352941 0.64313725
v 0.13426070 0.01230443 0.01677286 0.54117647 0.42352941 0.64313725
v 0.13214810 0.00594840 0.01595107 0.54117647 0.42352941 0.64313725
v 0.12208421 0.02488951 0.01671503 0.54117647 0.42352941 0.64313725
v 0.11976036 0.02079293 0.01631327 0.54117647 0.42352941 0.64313725
v 0.12156984 0.01856891 0.01751856 0.54117647 0.42352941 0.64313725
v 0.12473260 0.01856891 0.01832818 0.54117647 0.42352941 0.64313725
v 0.12473260 0.01540566 0.01858994 0.54117647 0.42352941 0.64313725
v 0.12789536 0.01540566 0.01876647 0.54117647 0.42352941 0.64313725
v 0.13105200 0.01540566 0.01834036 0.54117647 0.42352941 0.64313725
v 0.13421477 0.02172921 0.01697375 0.54117647 0.42352941 0.64313725
v 0.13421477 0.01856891 0.01714724 0.54117647 0.42352941 0.64313725
v 0.13592015 0.02172921 0.01624326 0.54117647 0.42352941 0.64313725
v 0.11870100 0.00594840 0.01465142 0.54117647 0.42352941 0.64313725
v 0.11933171 0.01540566 0.01661155 0.54117647 0.42352941 0.64313725
v 0.11943887 0.01856891 0.01653546 0.54117647 0.42352941 0.64313725
v 0.13105200 0.01224241 0.01788989 0.54117647 0.42352941 0.64313725
v 0.13054988 0.00594840 0.01657198 0.54117647 0.42352941 0.64313725
v 0.12156984 0.01540566 0.01770727 0.54117647 0.42352941 0.64313725
v 0.12176579 0.00594840 0.01669677 0.54117647 0.42352941 0.64313725
v 0.12473260 0.01224241 0.01822165 0.54117647 0.42352941 0.64313725
v 0.12789536 0.01224241 0.01841340 0.54117647 0.42352941 0.64313725
v 0.12026555 0.00594840 0.01591455 0.54117647 0.42352941 0.64313725
v 0.12159434 0.00594840 0.01663894 0.54117647 0.42352941 0.64313725
v 0.12789536 0.00594840 0.01734203 0.54117647 0.42352941 0.64313725
v 0.12473260 0.00594840 0.01746073 0.54117647 0.42352941 0.64313725
v 0.12476322 0.00594840 0.01746073 0.54117647 0.42352941 0.64313725
f 208 237 209
f 210 238 214
f 208 236 237
f 208 220 235
f 209 237 210
f 210 237 238
f 215 234 243
f 213 239 240
f 211 214 212
f 213 214 239
f 213 240 231
f 215 243 244
f 214 238 241
f 208 235 236
f 214 241 242
f 214 242 239
f 210 214 211
f 205 207 206
f 197 232 222
f 204 220 208
f 193 227 228
f 193 228 229
f 192 227 193
f 215 244 216
f 193 229 194
f 194 229 195
f 195 229 230
f 195 230 200
f 204 208 205
f 196 213 231
f 196 232 197
f 197 222 199
f 197 199 198
f 200 230 201
f 201 233 202
f 201 230 233
f 202 233 234
f 202 234 215
f 196 231 232
f 216 244 217
f 228 259 229
f 217 246 218
f 229 259 230
f 230 259 260
f 230 260 233
f 231 261 232
f 231 240 261
f 232 261 249
f 233 260 262
f 233 262 263
f 228 258 259
f 233 263 243
f 235 264 265
f 235 265 266
f 235 266 267
f 235 267 236
f 235 247 264
f 192 226 227
f 236 267 268
f 236 268 269
f 233 243 234
f 217 245 246
f 227 258 228
f 227 257 255
f 217 244 245
f 220 221 235
f 221 247 235
f 222 232 223
f 223 248 224
f 223 232 249
f 223 249 250
f 223 250 248
f 227 255 258
f 224 248 251
f 224 252 253
f 224 253 225
f 225 253 254
f 225 254 255
f 225 255 256
f 225 256 226
f 226 256 257
f 226 257 227
f 224 251 252
f 191 226 192
f 166 198 199
f 190 225 226
f 159 193 194
f 159 194 161
f 159 161 160
f 161 194 162
f 162 195 168
f 162 194 195
f 163 164 196
f 163 196 197
f 163 197 165
f 164 176 196
f 165 197 198
f 165 198 166
f 166 199 188
f 167 168 200
f 167 200 201
f 167 201 202
f 167 202 177
f 157 159 158
f 157 193 159
f 157 192 193
f 157 191 192
f 148 181 149
f 236 269 237
f 149 182 183
f 149 183 184
f 149 184 150
f 149 181 185
f 149 185 182
f 150 184 186
f 167 177 169
f 150 186 151
f 152 166 153
f 153 166 188
f 153 188 155
f 155 187 156
f 155 188 189
f 155 189 187
f 156 190 191
f 156 191 157
f 151 186 170
f 168 195 200
f 170 186 203
f 170 203 172
f 179 216 217
f 179 217 218
f 179 218 219
f 179 219 180
f 182 220 183
f 182 185 220
f 183 220 204
f 183 204 186
f 178 216 179
f 183 186 184
f 186 204 203
f 187 189 190
f 188 199 222
f 188 222 189
f 189 222 223
f 189 223 224
f 189 224 225
f 189 225 190
f 185 221 220
f 190 226 191
f 178 215 216
f 177 202 215
f 170 172 171
f 172 203 204
f 172 204 205
f 172 205 206
f 172 206 173
f 173 206 175
f 173 175 174
f 175 206 207
f 177 215 178
f 175 207 205
f 175 208 209
f 175 209 210
f 175 210 211
f 175 211 212
f 175 212 176
f 176 213 196
f 176 212 214
f 176 214 213
f 175 205 208
f 237 269 238
f 298 320 321
f 238 242 241
f 302 324 303
f 304 325 308
f 304 308 305
f 304 306 326
f 304 326 325
f 306 307 326
f 307 321 318
f 307 318 326
f 308 325 327
f 308 327 328
f 308 328 309
f 309 328 329
f 309 329 330
f 309 330 310
f 310 330 331
f 310 331 332
f 310 332 311
f 302 323 324
f 302 322 323
f 302 314 322
f 300 319 301
f 287 289 288
f 289 314 302
f 289 313 315
f 289 315 314
f 290 294 295
f 292 316 293
f 293 316 317
f 293 317 318
f 311 332 312
f 293 318 319
f 294 319 300
f 294 300 295
f 295 300 296
f 296 300 297
f 298 301 319
f 298 319 320
f 298 321 299
f 299 321 307
f 293 319 294
f 312 332 333
f 312 333 334
f 312 334 313
f 329 341 342
f 329 342 343
f 329 343 330
f 330 343 331
f 331 343 338
f 331 333 332
f 335 344 336
f 336 344 345
f 329 340 341
f 336 345 340
f 338 343 346
f 338 346 339
f 340 345 341
f 341 347 342
f 342 347 343
f 343 347 348
f 343 348 346
f 147 179 180
f 336 340 337
f 287 313 289
f 327 337 340
f 327 340 329
f 313 334 315
f 314 315 322
f 315 334 333
f 315 333 322
f 316 335 317
f 317 335 336
f 317 336 337
f 317 337 318
f 327 329 328
f 318 321 320
f 318 337 326
f 322 331 338
f 322 338 323
f 322 333 331
f 323 338 339
f 323 339 324
f 325 326 337
f 325 337 327
f 318 320 319
f 238 269 242
f 286 312 313
f 285 312 286
f 252 281 254
f 252 254 253
f 254 281 282
f 254 282 255
f 255 283 284
f 255 284 258
f 255 257 256
f 255 282 283
f 258 284 285
f 258 285 259
f 259 285 286
f 259 286 287
f 259 287 260
f 260 287 262
f 261 271 278
f 262 287 288
f 262 288 263
f 252 280 281
f 251 280 252
f 251 277 280
f 250 279 277
f 239 242 240
f 240 270 271
f 240 271 261
f 240 242 270
f 242 269 272
f 242 272 270
f 243 263 273
f 243 273 244
f 263 288 289
f 244 273 245
f 245 274 275
f 245 275 246
f 247 276 264
f 248 277 251
f 248 250 277
f 249 261 250
f 250 261 278
f 250 278 279
f 245 273 274
f 263 289 273
f 264 276 265
f 265 290 266
f 275 302 303
f 277 304 305
f 277 305 280
f 277 279 306
f 277 306 304
f 278 299 307
f 278 307 279
f 279 307 306
f 274 302 275
f 280 305 281
f 281 308 309
f 281 309 282
f 282 309 310
f 282 310 283
f 283 311 285
f 283 285 284
f 283 310 311
f 285 311 312
f 281 305 308
f 286 313 287
f 273 302 274
f 272 301 298
f 265 276 291
f 265 291 292
f 265 292 293
f 265 293 294
f 265 294 290
f 266 290 295
f 266 295 267
f 267 295 296
f 273 289 302
f 267 296 268
f 268 297 269
f 269 297 272
f 270 298 271
f 270 272 298
f 271 299 278
f 271 298 299
f 272 297 300
f 272 300 301
f 268 296 297
f 146 179 147
f 156 187 190
f 144 179 145
f 45 58 68
f 45 68 69
f 45 69 70
f 45 70 47
f 46 47 71
f 46 71 72
f 46 72 73
f 46 73 63
f 47 70 71
f 48 50 74
f 48 74 81
f 48 81 80
f 48 80 114
f 48 114 147
f 48 147 180
f 48 180 219
f 48 219 218
f 44 58 45
f 43 67 49
f 42 67 43
f 42 66 67
f 33 56 57
f 33 57 34
f 34 57 58
f 34 58 44
f 35 37 36
f 35 39 59
f 35 60 61
f 35 61 62
f 48 218 246
f 35 62 37
f 38 46 63
f 38 63 39
f 39 63 59
f 40 62 41
f 41 62 64
f 41 64 65
f 41 65 66
f 41 66 42
f 37 62 40
f 48 246 275
f 48 275 303
f 48 303 324
f 48 84 83
f 48 83 82
f 48 82 52
f 48 52 51
f 49 67 75
f 49 75 50
f 50 75 76
f 50 76 77
f 48 85 84
f 50 77 78
f 50 79 80
f 50 80 81
f 50 81 74
f 52 82 53
f 53 82 54
f 54 82 83
f 54 83 55
f 55 83 84
f 50 78 79
f 33 55 56
f 48 86 85
f 48 115 87
f 48 324 339
f 48 339 346
f 48 346 348
f 48 348 347
f 48 347 341
f 48 341 345
f 48 345 344
f 48 344 335
f 48 87 86
f 48 335 316
f 48 292 291
f 48 291 276
f 48 276 247
f 48 247 221
f 48 221 185
f 48 185 181
f 48 181 148
f 48 148 115
f 48 316 292
f 55 84 56
f 32 53 54
f 32 54 55
f 7 15 24
f 7 24 10
f 8 18 19
f 8 19 9
f 8 11 20
f 8 20 18
f 9 19 21
f 9 21 22
f 9 22 23
f 9 23 12
f 10 24 11
f 11 24 25
f 11 25 26
f 11 26 20
f 12 23 27
f 12 27 28
f 12 28 13
f 6 17 15
f 6 16 17
f 6 14 16
f 6 15 7
f 145 179 146
f 1 2 3
f 1 3 4
f 1 4 5
f 1 5 6
f 1 6 7
f 1 7 10
f 1 10 2
f 13 29 30
f 2 8 9
f 2 10 11
f 2 11 8
f 3 9 4
f 4 9 12
f 4 12 5
f 5 12 13
f 5 13 14
f 5 14 6
f 2 9 3
f 13 30 14
f 13 28 31
f 13 31 29
f 23 43 27
f 25 34 44
f 25 44 45
f 25 45 26
f 26 46 38
f 26 45 47
f 26 47 46
f 27 48 31
f 22 43 23
f 27 31 28
f 27 49 50
f 27 50 48
f 29 51 52
f 29 52 53
f 29 53 30
f 29 31 51
f 30 53 32
f 31 48 51
f 27 43 49
f 32 55 33
f 22 42 43
f 21 41 42
f 14 30 16
f 15 17 24
f 16 30 32
f 16 32 33
f 16 33 34
f 16 34 17
f 17 25 24
f 17 34 25
f 21 42 22
f 18 35 36
f 18 20 35
f 19 37 21
f 19 36 37
f 20 26 38
f 20 38 39
f 20 39 35
f 21 37 40
f 21 40 41
f 18 36 19
f 56 84 85
f 35 59 60
f 56 86 87
f 113 147 114
f 115 148 149
f 115 149 116
f 116 149 117
f 117 149 150
f 117 150 118
f 118 150 151
f 118 151 136
f 119 132 120
f 120 122 121
f 120 132 152
f 120 152 122
f 122 153 123
f 122 152 153
f 123 153 125
f 124 154 126
f 124 125 154
f 113 146 147
f 112 146 113
f 112 145 146
f 112 144 145
f 102 136 137
f 102 137 103
f 103 137 138
f 103 138 104
f 104 106 105
f 104 138 139
f 104 139 140
f 104 140 106
f 125 153 155
f 106 140 108
f 108 140 141
f 108 141 142
f 108 142 131
f 110 135 111
f 111 135 134
f 111 134 143
f 111 143 112
f 112 143 144
f 107 108 131
f 125 155 156
f 125 156 157
f 125 157 158
f 134 144 143
f 136 151 170
f 136 170 137
f 137 170 138
f 138 170 171
f 138 171 139
f 139 171 172
f 139 172 173
f 134 169 144
f 139 173 174
f 140 174 141
f 56 85 86
f 141 175 176
f 141 176 142
f 142 176 164
f 144 169 177
f 144 177 178
f 144 178 179
f 139 174 140
f 102 118 136
f 134 167 169
f 133 162 168
f 125 158 154
f 126 158 159
f 126 159 160
f 126 160 127
f 126 154 158
f 127 129 128
f 127 160 129
f 129 160 161
f 133 168 167
f 129 161 130
f 130 162 133
f 131 163 132
f 131 142 164
f 131 164 163
f 132 165 166
f 132 166 152
f 132 163 165
f 133 167 134
f 130 161 162
f 101 110 109
f 141 174 175
f 100 135 101
f 65 75 67
f 65 67 66
f 65 100 101
f 65 101 75
f 68 89 69
f 69 89 102
f 69 102 103
f 69 103 70
f 64 100 65
f 70 103 104
f 70 105 71
f 71 105 106
f 71 106 72
f 72 107 73
f 72 106 108
f 72 108 107
f 73 107 97
f 75 101 109
f 70 104 105
f 75 109 110
f 64 99 100
f 64 96 98
f 56 87 88
f 101 135 110
f 56 88 57
f 57 88 89
f 57 89 58
f 59 63 90
f 59 90 91
f 59 91 92
f 64 98 99
f 59 92 93
f 60 93 61
f 61 94 95
f 61 95 62
f 61 93 94
f 62 95 96
f 62 96 64
f 63 73 97
f 63 97 90
f 59 93 60
f 75 110 76
f 58 89 68
f 77 110 111
f 92 124 93
f 93 124 94
f 94 126 127
f 94 127 128
f 94 128 95
f 94 124 126
f 95 128 96
f 96 129 130
f 96 130 98
f 96 128 129
f 97 107 131
f 97 131 132
f 97 132 119
f 98 130 133
f 99 133 134
f 76 110 77
f 99 135 100
f 91 125 124
f 91 123 125
f 98 133 99
f 90 123 91
f 77 111 78
f 78 111 112
f 91 124 92
f 78 112 113
f 78 113 114
f 78 114 80
f 78 80 79
f 87 115 116
f 87 116 88
f 99 134 135
f 89 116 117
f 89 117 118
f 89 118 102
f 90 97 119
f 88 116 89
f 90 119 120
f 90 120 121
f 90 121 122
f 90 122 123

