# https://github.com/mikedh/trimesh
v -0.13824253 0.03183302 0.01128177 0.77647059 0.86666667 0.97647059
v -0.13549591 0.03174953 0.01128177 0.77647059 0.86666667 0.97647059
v -0.13824253 0.03178468 0.01092727 0.77647059 0.86666667 0.97647059
v -0.14121996 0.03131890 0.01067723 0.77647059 0.86666667 0.97647059
v -0.14117381 0.03138921 0.01128177 0.77647059 0.86666667 0.97647059
v -0.13549591 0.03169240 0.01092727 0.77647059 0.86666667 0.97647059
v -0.09683551 0.02647212 0.01128177 0.77647059 0.86666667 0.97647059
v -0.08614907 0.02578223 0.00830339 0.77647059 0.86666667 0.97647059
v -0.08614907 0.02579102 0.00818628 0.77647059 0.86666667 0.97647059
v -0.13824253 0.03104646 0.00906935 0.77647059 0.86666667 0.97647059
v -0.14045829 0.03094979 0.00924659 0.77647059 0.86666667 0.97647059
v -0.14230477 0.03070811 0.00959792 0.77647059 0.86666667 0.97647059
v -0.14278945 0.03098494 0.01128177 0.77647059 0.86666667 0.97647059
v -0.14251248 0.03106843 0.01128177 0.77647059 0.86666667 0.97647059
v -0.13549591 0.03097615 0.00915164 0.77647059 0.86666667 0.97647059
v -0.08430262 0.02531645 0.00664487 0.77647059 0.86666667 0.97647059
v -0.08614907 0.02545267 0.00641381 0.77647059 0.86666667 0.97647059
v -0.06904618 0.02269312 0.00830339 0.77647059 0.86666667 0.97647059
v -0.07243906 0.02333467 0.00830339 0.77647059 0.86666667 0.97647059
v -0.07530108 0.02386197 0.00830339 0.77647059 0.86666667 0.97647059
v -0.08377175 0.02542191 0.00830339 0.77647059 0.86666667 0.97647059
v -0.09683551 0.02354999 0.01128177 0.77647059 0.86666667 0.97647059
v -0.04781181 0.01836046 0.00830339 0.77647059 0.86666667 0.97647059
v 0.08695720 0.00089798 -0.00828184 0.77647059 0.86666667 0.97647059
v 0.08695720 0.00093314 -0.01049109 0.77647059 0.86666667 0.97647059
v -0.13824253 0.02992155 0.00769885 0.77647059 0.86666667 0.97647059
v -0.13549591 0.02997428 0.00778114 0.77647059 0.86666667 0.97647059
v -0.14121996 0.02982048 0.00827174 0.77647059 0.86666667 0.97647059
v -0.14239708 0.02801887 0.00679046 0.77647059 0.86666667 0.97647059
v -0.14521295 0.02543509 0.00668285 0.77647059 0.86666667 0.97647059
v -0.14509754 0.02798811 0.00955361 0.77647059 0.86666667 0.97647059
v -0.14302026 0.03076963 0.01128177 0.77647059 0.86666667 0.97647059
v -0.07793230 0.02300511 0.00344177 0.77647059 0.86666667 0.97647059
v 0.08695720 -0.00175171 -0.01559010 0.77647059 0.86666667 0.97647059
v 0.08695720 0.00020370 -0.01205149 0.77647059 0.86666667 0.97647059
v 0.08695720 -0.00067513 -0.01376382 0.77647059 0.86666667 0.97647059
v 0.08695720 0.00070024 -0.00764881 0.77647059 0.86666667 0.97647059
v -0.14613618 0.01478799 0.01128177 0.77647059 0.86666667 0.97647059
v -0.04781181 0.01535484 0.00830339 0.77647059 0.86666667 0.97647059
v 0.02265399 0.00618418 0.00229599 0.77647059 0.86666667 0.97647059
v -0.13549591 0.02860330 0.00631886 0.77647059 0.86666667 0.97647059
v -0.13824253 0.02855057 0.00639482 0.77647059 0.86666667 0.97647059
v -0.14096607 0.02824297 0.00662271 0.77647059 0.86666667 0.97647059
v 0.08695720 -0.00298647 -0.01696059 0.77647059 0.86666667 0.97647059
v -0.14096607 0.02661712 0.00572382 0.77647059 0.86666667 0.97647059
v -0.14265097 0.02264918 0.00401149 0.77647059 0.86666667 0.97647059
v -0.14447436 0.02206915 0.00426786 0.77647059 0.86666667 0.97647059
v -0.14345880 0.02645454 0.00638533 0.77647059 0.86666667 0.97647059
v -0.14532835 0.02024117 0.00393236 0.77647059 0.86666667 0.97647059
v -0.14558224 0.02387516 0.00617643 0.77647059 0.86666667 0.97647059
v -0.14786724 0.01982372 0.00676831 0.77647059 0.86666667 0.97647059
v -0.14542066 0.02645454 0.00845848 0.77647059 0.86666667 0.97647059
v -0.14581305 0.02661712 0.01092727 0.77647059 0.86666667 0.97647059
v -0.14516678 0.02818585 0.01092727 0.77647059 0.86666667 0.97647059
v -0.14516678 0.02819024 0.01128177 0.77647059 0.86666667 0.97647059
v 0.08695720 -0.00285025 -0.00764881 0.77647059 0.86666667 0.97647059
v -0.14876739 0.01478799 0.01128177 0.77647059 0.86666667 0.97647059
v 0.02265399 0.00264247 0.00229599 0.77647059 0.86666667 0.97647059
v -0.11903928 0.02538236 0.00394502 0.77647059 0.86666667 0.97647059
v -0.12118579 0.02536918 0.00396401 0.77647059 0.86666667 0.97647059
v -0.13549591 0.02661712 0.00514460 0.77647059 0.86666667 0.97647059
v 0.08695720 -0.00435306 -0.01833426 0.77647059 0.86666667 0.97647059
v -0.13549591 0.02506598 0.00426786 0.77647059 0.86666667 0.97647059
v -0.13824253 0.02661712 0.00535666 0.77647059 0.86666667 0.97647059
v -0.13824253 0.02480672 0.00440396 0.77647059 0.86666667 0.97647059
v -0.14096607 0.02435412 0.00454956 0.77647059 0.86666667 0.97647059
v -0.14362037 0.02114637 0.00374245 0.77647059 0.86666667 0.97647059
v -0.14096607 0.02298314 0.00387855 0.77647059 0.86666667 0.97647059
v -0.14096607 0.02113319 0.00327718 0.77647059 0.86666667 0.97647059
v -0.14560532 0.01839561 0.00375511 0.77647059 0.86666667 0.97647059
v -0.14699017 0.01839561 0.00511295 0.77647059 0.86666667 0.97647059
v -0.14639006 0.02094863 0.00551808 0.77647059 0.86666667 0.97647059
v -0.14371269 0.01839561 0.00317273 0.77647059 0.86666667 0.97647059
v -0.14800572 0.01839561 0.00648028 0.77647059 0.86666667 0.97647059
v -0.14876739 0.01565364 0.00818628 0.77647059 0.86666667 0.97647059
v -0.14828269 0.01839561 0.00818628 0.77647059 0.86666667 0.97647059
v -0.14791340 0.02005222 0.00818628 0.77647059 0.86666667 0.97647059
v -0.14581305 0.02661712 0.01128177 0.77647059 0.86666667 0.97647059
v 0.05769071 -0.00213840 -0.00352466 0.77647059 0.86666667 0.97647059
v 0.08686488 -0.00286783 -0.00764881 0.77647059 0.86666667 0.97647059
v 0.08695720 -0.01305794 -0.01769174 0.77647059 0.86666667 0.97647059
v -0.14867506 0.01565364 0.01128177 0.77647059 0.86666667 0.97647059
v -0.14881355 0.01478799 0.01092727 0.77647059 0.86666667 0.97647059
v -0.04778873 -0.00107500 -0.00360695 0.77647059 0.86666667 0.97647059
v 0.05769071 -0.01305794 -0.01396955 0.77647059 0.86666667 0.97647059
v -0.13274929 0.02513189 0.00420772 0.77647059 0.86666667 0.97647059
v 0.08656483 -0.00627772 -0.01942939 0.77647059 0.86666667 0.97647059
v 0.08695720 -0.00627772 -0.01943255 0.77647059 0.86666667 0.97647059
v -0.13549591 0.02369500 0.00360635 0.77647059 0.86666667 0.97647059
v -0.13824253 0.02343574 0.00371397 0.77647059 0.86666667 0.97647059
v -0.13824253 0.02113319 0.00299548 0.77647059 0.86666667 0.97647059
v -0.14096607 0.01839561 0.00278026 0.77647059 0.86666667 0.97647059
v -0.14581305 0.01565364 0.00366016 0.77647059 0.86666667 0.97647059
v -0.14719790 0.01565364 0.00471414 0.77647059 0.86666667 0.97647059
v -0.14825961 0.01565364 0.00608464 0.77647059 0.86666667 0.97647059
v -0.14371269 0.01565364 0.00306195 0.77647059 0.86666667 0.97647059
v -0.14883664 0.01478799 0.00818628 0.77647059 0.86666667 0.97647059
v -0.14869816 0.01565364 0.01092727 0.77647059 0.86666667 0.97647059
v -0.14825961 0.01839561 0.01092727 0.77647059 0.86666667 0.97647059
v -0.14791340 0.02003904 0.01092727 0.77647059 0.86666667 0.97647059
v -0.14789032 0.01998191 0.01128177 0.77647059 0.86666667 0.97647059
v 0.08384129 -0.00329846 -0.00764881 0.77647059 0.86666667 0.97647059
v 0.08670332 -0.00289420 -0.00764881 0.77647059 0.86666667 0.97647059
v 0.08695720 -0.01305794 -0.02077140 0.77647059 0.86666667 0.97647059
v 0.05785227 -0.01305794 -0.01398855 0.77647059 0.86666667 0.97647059
v -0.14814421 0.01873836 0.01128177 0.77647059 0.86666667 0.97647059
v -0.04778873 -0.00107500 -0.00688602 0.77647059 0.86666667 0.97647059
v 0.05769071 -0.01305794 -0.01676119 0.77647059 0.86666667 0.97647059
v 0.08656483 -0.00835616 -0.02034094 0.77647059 0.86666667 0.97647059
v 0.08695720 -0.00845723 -0.02031245 0.77647059 0.86666667 0.97647059
v 0.08384129 -0.00846602 -0.02024598 0.77647059 0.86666667 0.97647059
v 0.08384129 -0.00983700 -0.02073341 0.77647059 0.86666667 0.97647059
v -0.02034561 0.00194819 -0.01028536 0.77647059 0.86666667 0.97647059
v -0.02034561 -0.00079378 -0.01085508 0.77647059 0.86666667 0.97647059
v -0.02309223 -0.00079378 -0.01060820 0.77647059 0.86666667 0.97647059
v -0.02309223 -0.00107500 -0.01061769 0.77647059 0.86666667 0.97647059
v -0.14715173 0.01478799 0.00470465 0.77647059 0.86666667 0.97647059
v -0.14578996 0.01478799 0.00370131 0.77647059 0.86666667 0.97647059
v -0.14828269 0.01478799 0.00607515 0.77647059 0.86666667 0.97647059
v -0.14371269 0.01478799 0.00316007 0.77647059 0.86666667 0.97647059
v -0.02830850 -0.00107500 -0.00999100 0.77647059 0.86666667 0.97647059
v -0.03045502 -0.00107500 -0.00972196 0.77647059 0.86666667 0.97647059
v 0.08677256 -0.01305794 -0.02079672 0.77647059 0.86666667 0.97647059
v 0.08695720 -0.01176605 -0.02080305 0.77647059 0.86666667 0.97647059
v -0.04725787 -0.00107500 -0.00703478 0.77647059 0.86666667 0.97647059
v 0.06297622 -0.01305794 -0.01790696 0.77647059 0.86666667 0.97647059
v -0.04707322 -0.00107500 -0.00707909 0.77647059 0.86666667 0.97647059
v 0.08695720 -0.00873406 -0.02041057 0.77647059 0.86666667 0.97647059
v 0.08656483 -0.00972715 -0.02071442 0.77647059 0.86666667 0.97647059
v 0.08384129 -0.01176605 -0.02099928 0.77647059 0.86666667 0.97647059
v 0.08204099 -0.01016657 -0.02067328 0.77647059 0.86666667 0.97647059
v 0.08111776 -0.01177923 -0.02079672 0.77647059 0.86666667 0.97647059
v 0.08109467 -0.01305794 -0.02089167 0.77647059 0.86666667 0.97647059
v 0.07968674 -0.01305794 -0.02073974 0.77647059 0.86666667 0.97647059
v -0.04197235 -0.00107500 -0.00807927 0.77647059 0.86666667 0.97647059
v 0.08661099 -0.01305794 -0.02081571 0.77647059 0.86666667 0.97647059
v 0.08695720 -0.00979745 -0.02069543 0.77647059 0.86666667 0.97647059
v 0.08656483 -0.01176605 -0.02084736 0.77647059 0.86666667 0.97647059
v 0.07931745 -0.01305794 -0.02068277 0.77647059 0.86666667 0.97647059
v 0.08384129 -0.01305794 -0.02105309 0.77647059 0.86666667 0.97647059
f 1 2 3
f 1 3 4
f 1 4 5
f 1 5 14
f 1 14 13
f 1 13 32
f 1 32 55
f 1 55 78
f 1 78 101
f 1 101 106
f 1 106 82
f 1 82 57
f 1 57 38
f 1 38 22
f 1 22 7
f 1 7 2
f 2 6 3
f 2 7 8
f 2 8 9
f 2 9 6
f 3 6 10
f 3 10 11
f 3 11 4
f 4 11 12
f 4 12 13
f 4 13 14
f 4 14 5
f 6 15 10
f 6 9 16
f 6 16 17
f 6 17 15
f 7 18 19
f 7 19 20
f 7 20 21
f 7 21 8
f 7 22 39
f 7 39 23
f 7 23 18
f 8 21 24
f 8 24 9
f 9 24 25
f 9 25 16
f 10 26 11
f 10 15 27
f 10 27 26
f 11 26 28
f 11 28 12
f 12 29 30
f 12 30 31
f 12 31 32
f 12 32 13
f 12 28 29
f 15 17 33
f 15 33 34
f 15 34 27
f 16 25 17
f 17 25 35
f 17 35 36
f 17 36 34
f 17 34 33
f 18 23 37
f 18 37 19
f 19 37 20
f 20 37 21
f 21 37 24
f 22 38 39
f 23 39 58
f 23 58 40
f 23 40 37
f 24 37 56
f 24 56 81
f 24 81 104
f 24 104 124
f 24 124 137
f 24 137 128
f 24 128 110
f 24 110 88
f 24 88 62
f 24 62 44
f 24 44 34
f 24 34 36
f 24 36 35
f 24 35 25
f 26 27 41
f 26 41 42
f 26 42 43
f 26 43 28
f 27 34 44
f 27 44 41
f 28 43 29
f 29 43 45
f 29 45 46
f 29 46 47
f 29 47 48
f 29 48 30
f 30 49 50
f 30 50 51
f 30 51 52
f 30 52 31
f 30 48 47
f 30 47 49
f 31 52 51
f 31 51 53
f 31 53 54
f 31 54 32
f 32 54 55
f 37 40 58
f 37 58 56
f 38 57 58
f 38 58 39
f 41 59 60
f 41 60 61
f 41 61 42
f 41 44 62
f 41 62 59
f 42 61 63
f 42 63 64
f 42 64 45
f 42 45 43
f 45 64 65
f 45 65 66
f 45 66 46
f 46 67 47
f 46 66 68
f 46 68 69
f 46 69 67
f 47 67 49
f 49 70 71
f 49 71 51
f 49 51 72
f 49 72 50
f 49 67 73
f 49 73 70
f 50 72 51
f 51 71 74
f 51 74 75
f 51 75 76
f 51 76 77
f 51 77 53
f 53 78 55
f 53 55 54
f 53 77 78
f 56 58 79
f 56 79 80
f 56 80 81
f 57 82 83
f 57 83 84
f 57 84 85
f 57 85 58
f 58 85 79
f 59 62 60
f 60 86 61
f 60 62 87
f 60 87 86
f 61 86 63
f 62 88 87
f 63 86 87
f 63 87 89
f 63 89 90
f 63 90 65
f 63 65 64
f 65 90 66
f 66 90 68
f 67 69 73
f 68 90 69
f 69 90 91
f 69 91 92
f 69 92 73
f 70 93 94
f 70 94 71
f 70 73 93
f 71 94 95
f 71 95 74
f 73 92 96
f 73 96 93
f 74 95 75
f 75 97 83
f 75 83 98
f 75 98 99
f 75 99 76
f 75 95 97
f 76 99 100
f 76 100 77
f 77 100 78
f 78 100 101
f 79 85 102
f 79 102 103
f 79 103 80
f 80 103 81
f 81 103 102
f 81 102 105
f 81 105 85
f 81 85 108
f 81 108 126
f 81 126 139
f 81 139 134
f 81 134 133
f 81 133 140
f 81 140 136
f 81 136 123
f 81 123 104
f 82 98 83
f 82 106 99
f 82 99 98
f 83 97 84
f 84 107 108
f 84 108 85
f 84 97 107
f 85 105 102
f 87 88 109
f 87 109 89
f 88 110 109
f 89 91 90
f 89 109 111
f 89 111 112
f 89 112 91
f 91 112 113
f 91 113 114
f 91 114 92
f 92 114 115
f 92 115 116
f 92 116 96
f 93 117 94
f 93 96 118
f 93 118 117
f 94 117 119
f 94 119 95
f 95 119 97
f 96 120 118
f 96 116 121
f 96 121 122
f 96 122 120
f 97 119 107
f 99 106 101
f 99 101 100
f 104 123 124
f 107 125 108
f 107 119 117
f 107 117 118
f 107 118 125
f 108 125 127
f 108 127 126
f 109 110 128
f 109 128 129
f 109 129 112
f 109 112 111
f 112 129 130
f 112 130 131
f 112 131 113
f 113 131 114
f 114 131 132
f 114 132 133
f 114 133 115
f 115 133 116
f 116 133 134
f 116 134 121
f 118 120 125
f 120 122 135
f 120 135 127
f 120 127 125
f 121 134 122
f 122 134 135
f 123 136 124
f 124 136 138
f 124 138 137
f 126 127 135
f 126 135 139
f 128 137 129
f 129 138 130
f 129 137 138
f 130 140 133
f 130 133 132
f 130 132 131
f 130 138 140
f 134 139 135
f 136 140 138

