# https://github.com/mikedh/trimesh
v 0.08695838 -0.01564592 -0.00111924 0.94117647 0.52156863 0.41176471
v 0.09890061 -0.01746407 -0.00504652 0.94117647 0.52156863 0.41176471
v 0.08695838 -0.01564592 0.00186606 0.94117647 0.52156863 0.41176471
v 0.08695838 -0.00266261 -0.00997668 0.94117647 0.52156863 0.41176471
v 0.10030604 -0.01746407 -0.00512038 0.94117647 0.52156863 0.41176471
v 0.09890061 -0.01746407 -0.00198736 0.94117647 0.52156863 0.41176471
v 0.08695838 -0.01450805 0.00198786 0.94117647 0.52156863 0.41176471
v 0.10125527 -0.01746407 -0.00121253 0.94117647 0.52156863 0.41176471
v 0.10304700 -0.01746407 -0.00065538 0.94117647 0.52156863 0.41176471
v 0.10557638 -0.01746407 -0.00013191 0.94117647 0.52156863 0.41176471
v 0.10578990 -0.01746407 -0.00009434 0.94117647 0.52156863 0.41176471
v 0.10678962 -0.01746407 -0.00001141 0.94117647 0.52156863 0.41176471
v 0.08695838 0.00091573 -0.00997668 0.94117647 0.52156863 0.41176471
v 0.09890061 0.00117808 -0.01114022 0.94117647 0.52156863 0.41176471
v 0.10226470 -0.01746407 -0.00450492 0.94117647 0.52156863 0.41176471
v 0.10024197 0.00146789 -0.01114022 0.94117647 0.52156863 0.41176471
v 0.10306835 0.00252644 -0.01114022 0.94117647 0.52156863 0.41176471
v 0.10339059 0.00272473 -0.01114022 0.94117647 0.52156863 0.41176471
v 0.10586367 0.00477472 -0.01114022 0.94117647 0.52156863 0.41176471
v 0.08695838 -0.01408097 0.00200989 0.94117647 0.52156863 0.41176471
v 0.10678962 -0.01746407 -0.00289436 0.94117647 0.52156863 0.41176471
v 0.10678962 -0.01624994 -0.00003214 0.94117647 0.52156863 0.41176471
v 0.08695838 -0.01176557 0.00209670 0.94117647 0.52156863 0.41176471
v 0.08695838 0.00089438 -0.00827671 0.94117647 0.52156863 0.41176471
v 0.10678962 0.01370075 -0.01114022 0.94117647 0.52156863 0.41176471
v 0.09890061 0.00514995 -0.01114022 0.94117647 0.52156863 0.41176471
v 0.10590832 0.00483269 -0.01114022 0.94117647 0.52156863 0.41176471
v 0.10678962 0.00610173 -0.01114022 0.94117647 0.52156863 0.41176471
v 0.10678962 -0.01450805 -0.00008786 0.94117647 0.52156863 0.41176471
v 0.10678962 -0.01350746 -0.00012414 0.94117647 0.52156863 0.41176471
v 0.08695838 -0.01128663 0.00206819 0.94117647 0.52156863 0.41176471
v 0.08695838 0.00078455 -0.00792687 0.94117647 0.52156863 0.41176471
v 0.10678962 0.01360923 -0.01042499 0.94117647 0.52156863 0.41176471
v 0.10678962 -0.01176557 -0.00024982 0.94117647 0.52156863 0.41176471
v 0.10678962 -0.01076498 -0.00034311 0.94117647 0.52156863 0.41176471
v 0.08695838 -0.00902309 0.00179739 0.94117647 0.52156863 0.41176471
v 0.08695838 0.00049170 -0.00701470 0.94117647 0.52156863 0.41176471
v 0.10678962 0.01239510 -0.00838685 0.94117647 0.52156863 0.41176471
v 0.08695838 0.00007987 -0.00594963 0.94117647 0.52156863 0.41176471
v 0.08695838 0.00000360 -0.00575786 0.94117647 0.52156863 0.41176471
v 0.08695838 -0.00005131 -0.00563736 0.94117647 0.52156863 0.41176471
v 0.08695838 -0.00120443 -0.00341005 0.94117647 0.52156863 0.41176471
v 0.10678962 -0.00401402 -0.00126306 0.94117647 0.52156863 0.41176471
v 0.08695838 -0.00868753 0.00174686 0.94117647 0.52156863 0.41176471
v 0.10678962 0.01229748 -0.00826246 0.94117647 0.52156863 0.41176471
v 0.08695838 -0.00138441 -0.00317164 0.94117647 0.52156863 0.41176471
v 0.10678962 -0.00310800 -0.00148204 0.94117647 0.52156863 0.41176471
v 0.08822404 -0.00751305 0.00139184 0.94117647 0.52156863 0.41176471
v 0.08695838 -0.00743983 0.00142682 0.94117647 0.52156863 0.41176471
v 0.10678962 0.01123587 -0.00720776 0.94117647 0.52156863 0.41176471
v 0.08695838 -0.00237891 -0.00198088 0.94117647 0.52156863 0.41176471
v 0.08695838 -0.00255889 -0.00180078 0.94117647 0.52156863 0.41176471
v 0.10678962 0.00019884 -0.00237737 0.94117647 0.52156863 0.41176471
v 0.10678962 0.00320367 -0.00329084 0.94117647 0.52156863 0.41176471
v 0.08695838 -0.00576201 0.00054056 0.94117647 0.52156863 0.41176471
v 0.10678962 0.00413715 -0.00372879 0.94117647 0.52156863 0.41176471
v 0.10678962 0.00629087 -0.00474203 0.94117647 0.52156863 0.41176471
v 0.10678962 0.00841713 -0.00576693 0.94117647 0.52156863 0.41176471
v 0.08695838 -0.00374862 -0.00077847 0.94117647 0.52156863 0.41176471
v 0.08695838 -0.00392861 -0.00064890 0.94117647 0.52156863 0.41176471
f 1 2 6
f 1 6 3
f 1 3 7
f 1 7 20
f 1 20 23
f 1 23 31
f 1 31 36
f 1 36 44
f 1 44 49
f 1 49 55
f 1 55 60
f 1 60 59
f 1 59 52
f 1 52 51
f 1 51 46
f 1 46 42
f 1 42 41
f 1 41 40
f 1 40 39
f 1 39 37
f 1 37 32
f 1 32 24
f 1 24 13
f 1 13 4
f 1 4 2
f 2 5 15
f 2 15 21
f 2 21 12
f 2 12 11
f 2 11 10
f 2 10 9
f 2 9 8
f 2 8 6
f 2 4 5
f 3 6 8
f 3 8 9
f 3 9 10
f 3 10 11
f 3 11 12
f 3 12 7
f 4 13 26
f 4 26 14
f 4 14 5
f 5 14 16
f 5 16 17
f 5 17 18
f 5 18 19
f 5 19 15
f 7 12 20
f 12 21 28
f 12 28 25
f 12 25 33
f 12 33 38
f 12 38 45
f 12 45 50
f 12 50 58
f 12 58 57
f 12 57 56
f 12 56 54
f 12 54 53
f 12 53 47
f 12 47 43
f 12 43 35
f 12 35 34
f 12 34 30
f 12 30 29
f 12 29 22
f 12 22 23
f 12 23 20
f 13 24 25
f 13 25 26
f 14 26 25
f 14 25 28
f 14 28 27
f 14 27 19
f 14 19 18
f 14 18 17
f 14 17 16
f 15 19 21
f 19 27 21
f 21 27 28
f 22 29 23
f 23 29 30
f 23 30 31
f 24 32 33
f 24 33 25
f 30 34 31
f 31 34 35
f 31 35 36
f 32 37 33
f 33 37 39
f 33 39 40
f 33 40 41
f 33 41 42
f 33 42 38
f 35 43 36
f 36 43 44
f 38 42 46
f 38 46 45
f 43 47 48
f 43 48 44
f 44 48 49
f 45 46 51
f 45 51 52
f 45 52 50
f 47 53 48
f 48 53 54
f 48 54 49
f 49 54 56
f 49 56 57
f 49 57 58
f 49 58 50
f 49 50 55
f 50 52 59
f 50 59 60
f 50 60 55

