# https://github.com/mikedh/trimesh
v 0.11368241 0.00126494 0.01152408 0.56470588 0.92549020 0.07058824
v 0.11368241 -0.00646957 0.01138063 0.56470588 0.92549020 0.07058824
v 0.11368241 0.00126494 0.00889734 0.56470588 0.92549020 0.07058824
v 0.11020926 0.00126494 0.01260869 0.56470588 0.92549020 0.07058824
v 0.11368241 -0.00878242 0.01131868 0.56470588 0.92549020 0.07058824
v 0.11368241 -0.00964720 0.00294288 0.56470588 0.92549020 0.07058824
v 0.11338818 0.00126494 0.00888212 0.56470588 0.92549020 0.07058824
v 0.10798338 0.00126494 0.01317055 0.56470588 0.92549020 0.07058824
v 0.11368241 -0.00917024 0.01130020 0.56470588 0.92549020 0.07058824
v 0.11368241 -0.01226655 0.00294288 0.56470588 0.92549020 0.07058824
v 0.08101054 -0.00990522 0.00294288 0.56470588 0.92549020 0.07058824
v 0.08101054 0.00126494 0.01043404 0.56470588 0.92549020 0.07058824
v 0.10934577 -0.00782694 0.01240111 0.56470588 0.92549020 0.07058824
v 0.10761240 0.00126494 0.01325423 0.56470588 0.92549020 0.07058824
v 0.11368241 -0.01131107 0.01047860 0.56470588 0.92549020 0.07058824
v 0.10798338 -0.00820382 0.01251848 0.56470588 0.92549020 0.07058824
v 0.10798338 -0.00955493 0.01211203 0.56470588 0.92549020 0.07058824
v 0.11368241 -0.01238227 0.00564570 0.56470588 0.92549020 0.07058824
v 0.10999499 -0.01335338 0.00564570 0.56470588 0.92549020 0.07058824
v 0.10971355 -0.01329865 0.00294288 0.56470588 0.92549020 0.07058824
v 0.08101054 -0.01260120 0.00294288 0.56470588 0.92549020 0.07058824
v 0.08101054 0.00126494 0.01302275 0.56470588 0.92549020 0.07058824
v 0.10528417 -0.00106511 0.01364765 0.56470588 0.92549020 0.07058824
v 0.10528417 -0.00376734 0.01349441 0.56470588 0.92549020 0.07058824
v 0.10528417 -0.00646957 0.01319011 0.56470588 0.92549020 0.07058824
v 0.10528417 0.00126494 0.01374002 0.56470588 0.92549020 0.07058824
v 0.11068578 -0.01151436 0.01062749 0.56470588 0.92549020 0.07058824
v 0.10798338 -0.01302498 0.00918534 0.56470588 0.92549020 0.07058824
v 0.11368241 -0.01215864 0.00862021 0.56470588 0.92549020 0.07058824
v 0.10528417 -0.00854472 0.01267498 0.56470588 0.92549020 0.07058824
v 0.10798338 -0.01167387 0.01076116 0.56470588 0.92549020 0.07058824
v 0.10528417 -0.00989584 0.01208051 0.56470588 0.92549020 0.07058824
v 0.11368241 -0.01225873 0.00834743 0.56470588 0.92549020 0.07058824
v 0.10987666 -0.01332992 0.00748561 0.56470588 0.92549020 0.07058824
v 0.10528417 -0.01438079 0.00294397 0.56470588 0.92549020 0.07058824
v 0.10528417 -0.01438079 0.00294288 0.56470588 0.92549020 0.07058824
v 0.10798338 -0.01372400 0.00294288 0.56470588 0.92549020 0.07058824
v 0.08101054 -0.01260120 0.00294614 0.56470588 0.92549020 0.07058824
v 0.08351146 -0.01304844 0.00294288 0.56470588 0.92549020 0.07058824
v 0.08101054 -0.00087432 0.01263477 0.56470588 0.92549020 0.07058824
v 0.09718017 -0.00376734 0.01354658 0.56470588 0.92549020 0.07058824
v 0.09447777 -0.00106511 0.01373676 0.56470588 0.92549020 0.07058824
v 0.09718017 -0.00106511 0.01391825 0.56470588 0.92549020 0.07058824
v 0.09177537 0.00126494 0.01372155 0.56470588 0.92549020 0.07058824
v 0.10258178 -0.00106511 0.01395738 0.56470588 0.92549020 0.07058824
v 0.10258178 -0.00376734 0.01377045 0.56470588 0.92549020 0.07058824
v 0.10258178 -0.00646957 0.01326293 0.56470588 0.92549020 0.07058824
v 0.10491000 0.00126494 0.01378241 0.56470588 0.92549020 0.07058824
v 0.10798338 -0.01345503 0.00783556 0.56470588 0.92549020 0.07058824
v 0.10528417 -0.01297494 0.00922120 0.56470588 0.92549020 0.07058824
v 0.10258178 -0.01356918 0.00774101 0.56470588 0.92549020 0.07058824
v 0.10528417 -0.01353165 0.00787033 0.56470588 0.92549020 0.07058824
v 0.10258178 -0.00834456 0.01264890 0.56470588 0.92549020 0.07058824
v 0.10528417 -0.01162383 0.01072965 0.56470588 0.92549020 0.07058824
v 0.10258178 -0.00969567 0.01191858 0.56470588 0.92549020 0.07058824
v 0.08101054 -0.00994588 0.00924076 0.56470588 0.92549020 0.07058824
v 0.10258178 -0.01147996 0.01056772 0.56470588 0.92549020 0.07058824
v 0.10528417 -0.01409618 0.00564570 0.56470588 0.92549020 0.07058824
v 0.10258178 -0.01471075 0.00294397 0.56470588 0.92549020 0.07058824
v 0.10258178 -0.01470919 0.00294288 0.56470588 0.92549020 0.07058824
v 0.08101054 -0.01222276 0.00564570 0.56470588 0.92549020 0.07058824
v 0.08460521 -0.01321420 0.00294288 0.56470588 0.92549020 0.07058824
v 0.08101054 -0.00092124 0.01262607 0.56470588 0.92549020 0.07058824
v 0.09447777 -0.00376734 0.01326075 0.56470588 0.92549020 0.07058824
v 0.09447777 -0.00582060 0.01266520 0.56470588 0.92549020 0.07058824
v 0.09987938 -0.00646957 0.01303579 0.56470588 0.92549020 0.07058824
v 0.09987938 -0.00376734 0.01371937 0.56470588 0.92549020 0.07058824
v 0.09718017 0.00126494 0.01398129 0.56470588 0.92549020 0.07058824
v 0.09447777 0.00126494 0.01388022 0.56470588 0.92549020 0.07058824
v 0.09987938 -0.00106511 0.01399107 0.56470588 0.92549020 0.07058824
v 0.10258178 0.00126494 0.01400520 0.56470588 0.92549020 0.07058824
v 0.10220759 0.00126494 0.01401063 0.56470588 0.92549020 0.07058824
v 0.09987938 0.00126494 0.01404432 0.56470588 0.92549020 0.07058824
v 0.10258178 -0.01430417 0.00564570 0.56470588 0.92549020 0.07058824
v 0.10258178 -0.01283107 0.00909079 0.56470588 0.92549020 0.07058824
v 0.09987938 -0.01353165 0.00754321 0.56470588 0.92549020 0.07058824
v 0.09987938 -0.01421190 0.00564570 0.56470588 0.92549020 0.07058824
v 0.09987938 -0.00799896 0.01249131 0.56470588 0.92549020 0.07058824
v 0.08101054 -0.00856036 0.01021017 0.56470588 0.92549020 0.07058824
v 0.08101054 -0.00859476 0.01019604 0.56470588 0.92549020 0.07058824
v 0.08101054 -0.00992399 0.00925706 0.56470588 0.92549020 0.07058824
v 0.08101054 -0.01125477 0.00791163 0.56470588 0.92549020 0.07058824
v 0.09987938 -0.01458878 0.00294397 0.56470588 0.92549020 0.07058824
v 0.09987938 -0.01458878 0.00294288 0.56470588 0.92549020 0.07058824
v 0.08101054 -0.01127354 0.00789098 0.56470588 0.92549020 0.07058824
v 0.08531519 -0.01311256 0.00403075 0.56470588 0.92549020 0.07058824
v 0.08711573 -0.01327363 0.00444372 0.56470588 0.92549020 0.07058824
v 0.08101054 -0.00646957 0.01103177 0.56470588 0.92549020 0.07058824
f 1 2 5
f 1 5 9
f 1 9 15
f 1 15 29
f 1 29 33
f 1 33 18
f 1 18 10
f 1 10 6
f 1 6 3
f 1 3 7
f 1 7 12
f 1 12 22
f 1 22 44
f 1 44 69
f 1 69 68
f 1 68 73
f 1 73 72
f 1 72 71
f 1 71 48
f 1 48 26
f 1 26 14
f 1 14 8
f 1 8 4
f 1 4 2
f 2 4 5
f 3 6 7
f 4 8 5
f 5 8 9
f 6 10 20
f 6 20 37
f 6 37 36
f 6 36 60
f 6 60 84
f 6 84 62
f 6 62 39
f 6 39 21
f 6 21 11
f 6 11 7
f 7 11 12
f 8 13 9
f 8 14 13
f 9 13 16
f 9 16 17
f 9 17 15
f 10 18 19
f 10 19 20
f 11 21 38
f 11 38 61
f 11 61 85
f 11 85 82
f 11 82 56
f 11 56 81
f 11 81 80
f 11 80 79
f 11 79 88
f 11 88 63
f 11 63 40
f 11 40 22
f 11 22 12
f 13 14 23
f 13 23 24
f 13 24 25
f 13 25 16
f 14 26 23
f 15 27 28
f 15 28 29
f 15 17 27
f 16 25 30
f 16 30 17
f 17 31 27
f 17 30 32
f 17 32 31
f 18 33 34
f 18 34 19
f 19 34 35
f 19 35 36
f 19 36 37
f 19 37 20
f 21 39 38
f 22 40 41
f 22 41 42
f 22 42 43
f 22 43 44
f 23 26 45
f 23 45 24
f 24 45 46
f 24 46 25
f 25 46 47
f 25 47 30
f 26 48 45
f 27 31 28
f 28 49 34
f 28 34 29
f 28 31 50
f 28 50 51
f 28 51 52
f 28 52 49
f 29 34 33
f 30 47 53
f 30 53 32
f 31 32 54
f 31 54 50
f 32 53 55
f 32 55 56
f 32 56 57
f 32 57 54
f 34 49 58
f 34 58 35
f 35 58 59
f 35 59 36
f 36 59 60
f 38 39 61
f 39 62 61
f 40 63 41
f 41 43 42
f 41 63 64
f 41 64 65
f 41 65 66
f 41 66 47
f 41 47 67
f 41 67 43
f 43 68 69
f 43 69 44
f 43 67 70
f 43 70 68
f 45 71 72
f 45 72 73
f 45 73 70
f 45 70 46
f 45 48 71
f 46 70 67
f 46 67 47
f 47 66 53
f 49 52 74
f 49 74 58
f 50 54 75
f 50 75 76
f 50 76 51
f 51 76 77
f 51 77 74
f 51 74 52
f 53 66 78
f 53 78 79
f 53 79 80
f 53 80 55
f 54 57 75
f 55 80 81
f 55 81 56
f 56 82 57
f 57 82 75
f 58 74 59
f 59 74 77
f 59 77 83
f 59 83 84
f 59 84 60
f 61 62 86
f 61 86 87
f 61 87 77
f 61 77 76
f 61 76 85
f 62 83 87
f 62 87 86
f 62 84 83
f 63 88 64
f 64 88 65
f 65 88 66
f 66 88 78
f 68 70 73
f 75 82 85
f 75 85 76
f 77 87 83
f 78 88 79

