# https://github.com/mikedh/trimesh
v 0.11759022 -0.00567257 -0.00056766 0.79607843 0.45882353 0.78039216
v 0.11926875 -0.00567257 -0.00102472 0.79607843 0.45882353 0.78039216
v 0.11918288 -0.00353482 -0.00108807 0.79607843 0.45882353 0.78039216
v 0.11759022 -0.00533830 -0.00058123 0.79607843 0.45882353 0.78039216
v 0.10679114 -0.03979890 -0.01120674 0.79607843 0.45882353 0.78039216
v 0.11317204 -0.03919255 -0.00655469 0.79607843 0.45882353 0.78039216
v 0.11392442 -0.04148578 -0.00655469 0.79607843 0.45882353 0.78039216
v 0.11574812 -0.04129922 -0.00655469 0.79607843 0.45882353 0.78039216
v 0.11956930 -0.00567257 -0.00113106 0.79607843 0.45882353 0.78039216
v 0.12055475 -0.00353482 -0.00157002 0.79607843 0.45882353 0.78039216
v 0.12034825 -0.00079849 -0.00162206 0.79607843 0.45882353 0.78039216
v 0.11897639 -0.00079849 -0.00118084 0.79607843 0.45882353 0.78039216
v 0.11759022 -0.00250870 -0.00078487 0.79607843 0.45882353 0.78039216
v 0.10679114 -0.03979890 -0.01165475 0.79607843 0.45882353 0.78039216
v 0.10679114 -0.04109710 -0.01132666 0.79607843 0.45882353 0.78039216
v 0.11759022 0.00047639 -0.00104056 0.79607843 0.45882353 0.78039216
v 0.11759022 0.03031166 -0.00396167 0.79607843 0.45882353 0.78039216
v 0.11759022 0.03103461 -0.00407932 0.79607843 0.45882353 0.78039216
v 0.11759022 0.03144661 -0.00421508 0.79607843 0.45882353 0.78039216
v 0.11759022 0.03234836 -0.00477396 0.79607843 0.45882353 0.78039216
v 0.11759022 0.03450166 -0.00612478 0.79607843 0.45882353 0.78039216
v 0.11759022 0.03520906 -0.00659089 0.79607843 0.45882353 0.78039216
v 0.11759022 0.03587759 -0.00745297 0.79607843 0.45882353 0.78039216
v 0.11759022 0.03663164 -0.00874495 0.79607843 0.45882353 0.78039216
v 0.11759022 0.03668606 -0.00891013 0.79607843 0.45882353 0.78039216
v 0.11753706 0.03705141 -0.01202809 0.79607843 0.45882353 0.78039216
v 0.11212526 -0.04158684 -0.01374546 0.79607843 0.45882353 0.78039216
v 0.11374859 -0.04158684 -0.01374546 0.79607843 0.45882353 0.78039216
v 0.11554571 -0.04092608 -0.01822781 0.79607843 0.45882353 0.78039216
v 0.11642280 -0.03918478 -0.00655469 0.79607843 0.45882353 0.78039216
v 0.12063857 -0.00567257 -0.00154966 0.79607843 0.45882353 0.78039216
v 0.12654310 0.03209960 -0.00667913 0.79607843 0.45882353 0.78039216
v 0.12498315 0.03209960 -0.00569035 0.79607843 0.45882353 0.78039216
v 0.12287322 0.02935550 -0.00447982 0.79607843 0.45882353 0.78039216
v 0.12150340 0.02935550 -0.00397072 0.79607843 0.45882353 0.78039216
v 0.12136028 0.03122118 -0.00404312 0.79607843 0.45882353 0.78039216
v 0.10679114 -0.03990773 -0.01312322 0.79607843 0.45882353 0.78039216
v 0.11753706 0.03704364 -0.01242858 0.79607843 0.45882353 0.78039216
v 0.11753706 0.03700477 -0.01374546 0.79607843 0.45882353 0.78039216
v 0.10679114 -0.04110487 -0.01240596 0.79607843 0.45882353 0.78039216
v 0.11949978 0.02935550 -0.00372182 0.79607843 0.45882353 0.78039216
v 0.11779671 0.03125227 -0.00402049 0.79607843 0.45882353 0.78039216
v 0.11949978 0.03286142 -0.00438026 0.79607843 0.45882353 0.78039216
v 0.11839984 0.03616522 -0.00695744 0.79607843 0.45882353 0.78039216
v 0.11938938 0.03684153 -0.00802995 0.79607843 0.45882353 0.78039216
v 0.11949978 0.03780546 -0.01100762 0.79607843 0.45882353 0.78039216
v 0.11759022 0.03713693 -0.01100762 0.79607843 0.45882353 0.78039216
v 0.10679114 -0.04110487 -0.01304629 0.79607843 0.45882353 0.78039216
v 0.11185947 -0.04125257 -0.01822781 0.79607843 0.45882353 0.78039216
v 0.11255664 -0.04129144 -0.01822781 0.79607843 0.45882353 0.78039216
v 0.11416976 -0.04123703 -0.01822781 0.79607843 0.45882353 0.78039216
v 0.11495076 -0.04106601 -0.01822781 0.79607843 0.45882353 0.78039216
v 0.11883123 -0.02273573 -0.01822781 0.79607843 0.45882353 0.78039216
v 0.11901933 -0.02273573 -0.01648781 0.79607843 0.45882353 0.78039216
v 0.11920742 -0.02273573 -0.01374546 0.79607843 0.45882353 0.78039216
v 0.11813814 -0.02963096 -0.00981293 0.79607843 0.45882353 0.78039216
v 0.11753706 -0.00567257 -0.02368311 0.79607843 0.45882353 0.78039216
v 0.11859611 -0.00567257 -0.02351341 0.79607843 0.45882353 0.78039216
v 0.11990255 -0.00567257 -0.02268075 0.79607843 0.45882353 0.78039216
v 0.12121103 -0.00567257 -0.02128694 0.79607843 0.45882353 0.78039216
v 0.12168536 -0.00567257 -0.01923017 0.79607843 0.45882353 0.78039216
v 0.11816676 -0.02978644 -0.00655469 0.79607843 0.45882353 0.78039216
v 0.12177327 -0.00567257 -0.00348877 0.79607843 0.45882353 0.78039216
v 0.12159949 -0.00567257 -0.00292084 0.79607843 0.45882353 0.78039216
v 0.12089414 -0.00567257 -0.00185059 0.79607843 0.45882353 0.78039216
v 0.12363786 0.00565364 -0.00412005 0.79607843 0.45882353 0.78039216
v 0.12363786 0.00630662 -0.00412005 0.79607843 0.45882353 0.78039216
v 0.12722188 0.03209960 -0.00826527 0.79607843 0.45882353 0.78039216
v 0.12642044 0.03359991 -0.00683073 0.79607843 0.45882353 0.78039216
v 0.12653901 0.03010177 -0.00667235 0.79607843 0.45882353 0.78039216
v 0.12498315 0.03418294 -0.00641440 0.79607843 0.45882353 0.78039216
v 0.12226191 0.03211515 -0.00455222 0.79607843 0.45882353 0.78039216
v 0.11949978 0.03149325 -0.00397298 0.79607843 0.45882353 0.78039216
v 0.11175111 -0.03939467 -0.01822781 0.79607843 0.45882353 0.78039216
v 0.10679114 -0.04019536 -0.01312322 0.79607843 0.45882353 0.78039216
v 0.11753706 0.03649949 -0.01567778 0.79607843 0.45882353 0.78039216
v 0.11753706 0.03643730 -0.01578186 0.79607843 0.45882353 0.78039216
v 0.11753706 0.03570657 -0.01681816 0.79607843 0.45882353 0.78039216
v 0.11753706 0.03428400 -0.01851969 0.79607843 0.45882353 0.78039216
v 0.11753706 0.03209960 -0.01961030 0.79607843 0.45882353 0.78039216
v 0.11753706 0.02866365 -0.02073259 0.79607843 0.45882353 0.78039216
v 0.11753706 0.02863255 -0.02073938 0.79607843 0.45882353 0.78039216
v 0.11753706 0.02660363 -0.02096338 0.79607843 0.45882353 0.78039216
v 0.11753706 -0.00358146 -0.02351793 0.79607843 0.45882353 0.78039216
v 0.11949978 0.03772772 -0.01202809 0.79607843 0.45882353 0.78039216
v 0.11949978 0.03758780 -0.01374546 0.79607843 0.45882353 0.78039216
v 0.12225578 0.03505358 -0.00604106 0.79607843 0.45882353 0.78039216
v 0.12135211 0.03628960 -0.00680132 0.79607843 0.45882353 0.78039216
v 0.11938938 0.03508468 -0.00592340 0.79607843 0.45882353 0.78039216
v 0.12022967 0.03628960 -0.00680132 0.79607843 0.45882353 0.78039216
v 0.12225578 0.03685708 -0.00806615 0.79607843 0.45882353 0.78039216
v 0.12224350 0.03782878 -0.01100762 0.79607843 0.45882353 0.78039216
v 0.12051999 0.03775882 -0.01202809 0.79607843 0.45882353 0.78039216
v 0.11914404 -0.02099444 -0.01822781 0.79607843 0.45882353 0.78039216
v 0.12124170 -0.00916294 -0.01822781 0.79607843 0.45882353 0.78039216
v 0.12143593 -0.00902301 -0.01648781 0.79607843 0.45882353 0.78039216
v 0.12210652 -0.00627892 -0.01374546 0.79607843 0.45882353 0.78039216
v 0.12180802 -0.00902301 -0.00826527 0.79607843 0.45882353 0.78039216
v 0.11949978 0.02661140 -0.02113760 0.79607843 0.45882353 0.78039216
v 0.11843869 -0.00405565 -0.02344327 0.79607843 0.45882353 0.78039216
v 0.12165469 0.02661140 -0.02083214 0.79607843 0.45882353 0.78039216
v 0.12190412 0.02387508 -0.02091586 0.79607843 0.45882353 0.78039216
v 0.12327190 0.02387508 -0.02042713 0.79607843 0.45882353 0.78039216
v 0.12328621 0.02113098 -0.02041129 0.79607843 0.45882353 0.78039216
v 0.12134188 -0.00353482 -0.02137066 0.79607843 0.45882353 0.78039216
v 0.12413058 0.01291423 -0.01872786 0.79607843 0.45882353 0.78039216
v 0.12393840 0.01017013 -0.01841335 0.79607843 0.45882353 0.78039216
v 0.12488501 0.01291423 -0.01648781 0.79607843 0.45882353 0.78039216
v 0.12198181 -0.00353482 -0.01923017 0.79607843 0.45882353 0.78039216
v 0.12450269 0.01017013 -0.01648781 0.79607843 0.45882353 0.78039216
v 0.12171398 -0.00627892 -0.01822781 0.79607843 0.45882353 0.78039216
v 0.12183257 -0.00902301 -0.00655469 0.79607843 0.45882353 0.78039216
v 0.12233347 -0.00567257 -0.00552291 0.79607843 0.45882353 0.78039216
v 0.12356426 0.00382683 -0.00440062 0.79607843 0.45882353 0.78039216
v 0.12767780 0.03209960 -0.01100762 0.79607843 0.45882353 0.78039216
v 0.12672506 0.03425290 -0.00826527 0.79607843 0.45882353 0.78039216
v 0.12691520 0.02925444 -0.00811593 0.79607843 0.45882353 0.78039216
v 0.12749584 0.02935550 -0.01100762 0.79607843 0.45882353 0.78039216
v 0.12635296 0.03621186 -0.00965455 0.79607843 0.45882353 0.78039216
v 0.12525711 0.03568325 -0.00806615 0.79607843 0.45882353 0.78039216
v 0.12317785 0.03611080 -0.00701853 0.79607843 0.45882353 0.78039216
v 0.11949978 0.03672492 -0.01603302 0.79607843 0.45882353 0.78039216
v 0.11949978 0.03588537 -0.01740193 0.79607843 0.45882353 0.78039216
v 0.11949978 0.03451721 -0.01870523 0.79607843 0.45882353 0.78039216
v 0.11949978 0.03209960 -0.01990445 0.79607843 0.45882353 0.78039216
v 0.11949978 0.03043604 -0.02042713 0.79607843 0.45882353 0.78039216
v 0.11949978 0.02906788 -0.02078915 0.79607843 0.45882353 0.78039216
v 0.12224350 0.03767331 -0.01374546 0.79607843 0.45882353 0.78039216
v 0.12224350 0.03681043 -0.01609411 0.79607843 0.45882353 0.78039216
v 0.12452518 0.03663164 -0.00884904 0.79607843 0.45882353 0.78039216
v 0.12525711 0.03680266 -0.01074742 0.79607843 0.45882353 0.78039216
v 0.12511604 0.03678711 -0.01356671 0.79607843 0.45882353 0.78039216
v 0.12191230 -0.00627892 -0.01648781 0.79607843 0.45882353 0.78039216
v 0.12227213 -0.00627892 -0.00826527 0.79607843 0.45882353 0.78039216
v 0.12482776 0.01017013 -0.01374546 0.79607843 0.45882353 0.78039216
v 0.12492999 0.01017013 -0.01100762 0.79607843 0.45882353 0.78039216
v 0.12129486 0.02875693 -0.02072127 0.79607843 0.45882353 0.78039216
v 0.12302246 0.02661140 -0.02034114 0.79607843 0.45882353 0.78039216
v 0.12470305 0.02935550 -0.01884778 0.79607843 0.45882353 0.78039216
v 0.12601971 0.03209960 -0.01744266 0.79607843 0.45882353 0.78039216
v 0.12607491 0.02935550 -0.01734537 0.79607843 0.45882353 0.78039216
v 0.12425121 0.01565055 -0.01888851 0.79607843 0.45882353 0.78039216
v 0.12316354 0.01565055 -0.02026195 0.79607843 0.45882353 0.78039216
v 0.12671076 0.02935550 -0.01597645 0.79607843 0.45882353 0.78039216
v 0.12728935 0.02935550 -0.01374546 0.79607843 0.45882353 0.78039216
v 0.12200634 -0.00798912 -0.00655469 0.79607843 0.45882353 0.78039216
v 0.12369102 0.00275407 -0.00622886 0.79607843 0.45882353 0.78039216
v 0.12760010 0.03209960 -0.01202809 0.79607843 0.45882353 0.78039216
v 0.12680276 0.03496030 -0.01356671 0.79607843 0.45882353 0.78039216
v 0.12687431 0.03511577 -0.01074742 0.79607843 0.45882353 0.78039216
v 0.12442295 0.00742603 -0.00826527 0.79607843 0.45882353 0.78039216
v 0.12638567 0.03624296 -0.01148279 0.79607843 0.45882353 0.78039216
v 0.12224350 0.03586204 -0.01746755 0.79607843 0.45882353 0.78039216
v 0.12224350 0.03449388 -0.01860115 0.79607843 0.45882353 0.78039216
v 0.12224350 0.03209960 -0.01965555 0.79607843 0.45882353 0.78039216
v 0.12429210 0.03660054 -0.01573434 0.79607843 0.45882353 0.78039216
v 0.12606469 0.03640620 -0.01202809 0.79607843 0.45882353 0.78039216
v 0.12638567 0.03624296 -0.01253719 0.79607843 0.45882353 0.78039216
v 0.12611988 0.03595533 -0.01436543 0.79607843 0.45882353 0.78039216
v 0.12227622 -0.00627892 -0.00655469 0.79607843 0.45882353 0.78039216
v 0.12222307 0.02953429 -0.02023254 0.79607843 0.45882353 0.78039216
v 0.12464989 0.03209960 -0.01861473 0.79607843 0.45882353 0.78039216
v 0.12423894 0.03410520 -0.01826627 0.79607843 0.45882353 0.78039216
v 0.12666169 0.03412852 -0.01570267 0.79607843 0.45882353 0.78039216
v 0.12682320 0.03209960 -0.01607375 0.79607843 0.45882353 0.78039216
v 0.12746722 0.03209960 -0.01374546 0.79607843 0.45882353 0.78039216
v 0.12652469 0.03592423 -0.01202809 0.79607843 0.45882353 0.78039216
v 0.12517941 0.03503027 -0.01663036 0.79607843 0.45882353 0.78039216
f 1 2 3
f 1 3 4
f 1 4 5
f 1 5 6
f 1 6 7
f 1 7 8
f 1 8 2
f 2 9 10
f 2 10 3
f 2 8 9
f 3 10 11
f 3 11 12
f 3 12 4
f 4 12 13
f 4 13 5
f 5 14 37
f 5 37 75
f 5 75 48
f 5 48 40
f 5 40 15
f 5 15 6
f 5 13 16
f 5 16 17
f 5 17 18
f 5 18 19
f 5 19 20
f 5 20 21
f 5 21 22
f 5 22 23
f 5 23 24
f 5 24 25
f 5 25 26
f 5 26 14
f 6 15 7
f 7 15 27
f 7 27 28
f 7 28 8
f 8 28 29
f 8 29 30
f 8 30 31
f 8 31 9
f 9 31 10
f 10 31 32
f 10 32 33
f 10 33 34
f 10 34 11
f 11 34 35
f 11 35 36
f 11 36 12
f 12 36 13
f 13 36 16
f 14 26 38
f 14 38 39
f 14 39 37
f 15 40 27
f 16 36 41
f 16 41 42
f 16 42 17
f 17 42 18
f 18 42 19
f 19 42 43
f 19 43 20
f 20 43 21
f 21 43 22
f 22 43 44
f 22 44 23
f 23 44 24
f 24 44 45
f 24 45 25
f 25 45 46
f 25 46 47
f 25 47 26
f 26 47 38
f 27 40 48
f 27 48 49
f 27 49 50
f 27 50 28
f 28 50 51
f 28 51 52
f 28 52 29
f 29 53 54
f 29 54 55
f 29 55 56
f 29 56 30
f 29 52 57
f 29 57 58
f 29 58 59
f 29 59 60
f 29 60 61
f 29 61 53
f 30 56 62
f 30 62 63
f 30 63 64
f 30 64 65
f 30 65 31
f 31 65 66
f 31 66 67
f 31 67 32
f 32 68 69
f 32 69 33
f 32 67 70
f 32 70 68
f 33 69 71
f 33 71 72
f 33 72 36
f 33 36 34
f 34 36 35
f 36 72 43
f 36 43 73
f 36 73 41
f 37 74 75
f 37 39 76
f 37 76 77
f 37 77 78
f 37 78 79
f 37 79 80
f 37 80 81
f 37 81 82
f 37 82 83
f 37 83 84
f 37 84 57
f 37 57 74
f 38 47 39
f 39 47 46
f 39 46 85
f 39 85 86
f 39 86 76
f 41 73 42
f 42 73 43
f 43 72 87
f 43 87 88
f 43 88 89
f 43 89 44
f 44 89 90
f 44 90 45
f 45 91 92
f 45 92 46
f 45 90 88
f 45 88 91
f 46 92 93
f 46 93 85
f 48 75 49
f 49 75 74
f 49 74 57
f 49 57 50
f 50 57 51
f 51 57 52
f 53 94 54
f 53 61 94
f 54 94 95
f 54 95 96
f 54 96 55
f 55 96 97
f 55 97 56
f 56 97 98
f 56 98 62
f 57 99 100
f 57 100 58
f 57 84 99
f 58 100 101
f 58 101 102
f 58 102 103
f 58 103 59
f 59 103 104
f 59 104 105
f 59 105 60
f 60 105 106
f 60 106 107
f 60 107 108
f 60 108 109
f 60 109 61
f 61 109 108
f 61 108 110
f 61 110 111
f 61 111 95
f 61 95 94
f 62 98 112
f 62 112 113
f 62 113 63
f 63 113 114
f 63 114 64
f 64 114 66
f 64 66 65
f 66 114 68
f 66 68 70
f 66 70 67
f 68 115 116
f 68 116 69
f 68 114 117
f 68 117 118
f 68 118 115
f 69 116 119
f 69 119 120
f 69 120 121
f 69 121 71
f 71 121 87
f 71 87 72
f 76 86 122
f 76 122 77
f 77 123 78
f 77 122 123
f 78 123 79
f 79 123 124
f 79 124 80
f 80 124 125
f 80 125 81
f 81 126 127
f 81 127 82
f 81 125 126
f 82 127 99
f 82 99 83
f 83 99 84
f 85 93 128
f 85 128 86
f 86 128 129
f 86 129 122
f 87 121 88
f 88 90 89
f 88 121 91
f 91 121 130
f 91 130 92
f 92 128 93
f 92 130 131
f 92 131 132
f 92 132 128
f 95 111 133
f 95 133 96
f 96 133 97
f 97 134 98
f 97 133 135
f 97 135 136
f 97 136 134
f 98 134 112
f 99 127 137
f 99 137 101
f 99 101 100
f 101 138 103
f 101 103 102
f 101 137 138
f 103 138 139
f 103 139 140
f 103 140 104
f 104 140 141
f 104 141 142
f 104 142 143
f 104 143 105
f 105 143 142
f 105 142 106
f 106 142 141
f 106 141 144
f 106 144 108
f 106 108 107
f 108 135 110
f 108 144 145
f 108 145 135
f 110 135 111
f 111 135 133
f 112 134 146
f 112 146 113
f 113 147 114
f 113 146 147
f 114 147 118
f 114 118 117
f 115 118 145
f 115 145 148
f 115 148 149
f 115 149 150
f 115 150 116
f 116 150 119
f 118 147 151
f 118 151 136
f 118 136 135
f 118 135 145
f 119 121 120
f 119 150 152
f 119 152 131
f 119 131 130
f 119 130 121
f 122 129 123
f 123 129 153
f 123 153 124
f 124 153 154
f 124 154 125
f 125 154 155
f 125 155 126
f 126 155 137
f 126 137 127
f 128 132 156
f 128 156 129
f 129 156 153
f 131 152 157
f 131 157 132
f 132 157 158
f 132 158 159
f 132 159 156
f 134 136 146
f 136 151 147
f 136 147 160
f 136 160 146
f 137 155 161
f 137 161 138
f 138 161 162
f 138 162 139
f 139 162 140
f 140 162 163
f 140 163 164
f 140 164 165
f 140 165 141
f 141 165 144
f 144 165 166
f 144 166 145
f 145 166 148
f 146 160 147
f 148 166 149
f 149 159 158
f 149 158 167
f 149 167 150
f 149 166 164
f 149 164 159
f 150 167 152
f 152 167 158
f 152 158 157
f 153 156 163
f 153 163 154
f 154 163 155
f 155 163 162
f 155 162 161
f 156 159 168
f 156 168 163
f 159 164 168
f 163 168 164
f 164 166 165

