# https://github.com/mikedh/trimesh
v 0.10678963 -0.04147346 -0.00278155 0.08627451 0.01960784 0.83137255
v 0.11392515 -0.04148888 -0.00655312 0.08627451 0.01960784 0.83137255
v 0.11392515 -0.04162767 -0.00567011 0.08627451 0.01960784 0.83137255
v 0.11401795 -0.04147346 -0.00332256 0.08627451 0.01960784 0.83137255
v 0.10678963 -0.04141178 -0.00221433 0.08627451 0.01960784 0.83137255
v 0.10678963 -0.04121901 -0.00432116 0.08627451 0.01960784 0.83137255
v 0.11574630 -0.04129612 -0.00655312 0.08627451 0.01960784 0.83137255
v 0.10678963 -0.04104167 -0.00490268 0.08627451 0.01960784 0.83137255
v 0.10678963 0.00563041 -0.01202635 0.08627451 0.01960784 0.83137255
v 0.11577673 -0.04137323 -0.00552234 0.08627451 0.01960784 0.83137255
v 0.11562611 -0.04108794 -0.00381829 0.08627451 0.01960784 0.83137255
v 0.11219528 -0.03979256 -0.00155178 0.08627451 0.01960784 0.83137255
v 0.11036651 -0.04077951 -0.00132536 0.08627451 0.01960784 0.83137255
v 0.10853319 -0.04102625 -0.00122526 0.08627451 0.01960784 0.83137255
v 0.10678963 -0.04106480 -0.00120739 0.08627451 0.01960784 0.83137255
v 0.10727953 0.00637063 -0.01202635 0.08627451 0.01960784 0.83137255
v 0.10780747 0.00731903 -0.01202635 0.08627451 0.01960784 0.83137255
v 0.11298338 0.01892344 -0.01202635 0.08627451 0.01960784 0.83137255
v 0.11327093 0.01971762 -0.01202635 0.08627451 0.01960784 0.83137255
v 0.11376387 0.02112866 -0.01202635 0.08627451 0.01960784 0.83137255
v 0.11567632 0.02678051 -0.01202635 0.08627451 0.01960784 0.83137255
v 0.11642182 -0.03918342 -0.00655312 0.08627451 0.01960784 0.83137255
v 0.11647963 -0.03918342 -0.00552234 0.08627451 0.01960784 0.83137255
v 0.10678963 0.01339496 -0.01202635 0.08627451 0.01960784 0.83137255
v 0.11818820 -0.02989990 -0.00399465 0.08627451 0.01960784 0.83137255
v 0.11591214 -0.03918342 -0.00347509 0.08627451 0.01960784 0.83137255
v 0.11377604 -0.03899837 -0.00205108 0.08627451 0.01960784 0.83137255
v 0.11445917 -0.03643846 -0.00179249 0.08627451 0.01960784 0.83137255
v 0.11500536 -0.03432576 -0.00157442 0.08627451 0.01960784 0.83137255
v 0.11270039 -0.03796516 -0.00139329 0.08627451 0.01960784 0.83137255
v 0.11128090 -0.03899837 -0.00124195 0.08627451 0.01960784 0.83137255
v 0.11127481 -0.03643846 -0.00094046 0.08627451 0.01960784 0.83137255
v 0.10853319 -0.03918342 -0.00090233 0.08627451 0.01960784 0.83137255
v 0.10678963 -0.03918342 -0.00087015 0.08627451 0.01960784 0.83137255
v 0.11683108 0.03039676 -0.01202635 0.08627451 0.01960784 0.83137255
v 0.11741227 0.03230128 -0.01202635 0.08627451 0.01960784 0.83137255
v 0.11759027 0.03299523 -0.01202635 0.08627451 0.01960784 0.83137255
v 0.11816690 -0.02978424 -0.00655312 0.08627451 0.01960784 0.83137255
v 0.11818059 -0.02986134 -0.00552234 0.08627451 0.01960784 0.83137255
v 0.10678963 0.01371109 -0.01119577 0.08627451 0.01960784 0.83137255
v 0.10711826 0.01435878 -0.01202635 0.08627451 0.01960784 0.83137255
v 0.12184724 -0.00901967 -0.00552234 0.08627451 0.01960784 0.83137255
v 0.12092982 -0.01360746 -0.00398035 0.08627451 0.01960784 0.83137255
v 0.12109109 -0.01176464 -0.00361332 0.08627451 0.01960784 0.83137255
v 0.11856095 -0.02547403 -0.00311045 0.08627451 0.01960784 0.83137255
v 0.11809692 -0.02391649 -0.00143619 0.08627451 0.01960784 0.83137255
v 0.11542832 -0.03249836 -0.00138733 0.08627451 0.01960784 0.83137255
v 0.11308836 -0.03643846 -0.00129319 0.08627451 0.01960784 0.83137255
v 0.11127481 -0.03370121 -0.00063183 0.08627451 0.01960784 0.83137255
v 0.10853319 -0.03643846 -0.00063183 0.08627451 0.01960784 0.83137255
v 0.10678963 -0.03818105 -0.00077244 0.08627451 0.01960784 0.83137255
v 0.11759027 0.03707412 -0.01202635 0.08627451 0.01960784 0.83137255
v 0.12231584 -0.00568099 -0.00655312 0.08627451 0.01960784 0.83137255
v 0.12227781 -0.00628242 -0.00655312 0.08627451 0.01960784 0.83137255
v 0.12200700 -0.00799417 -0.00655312 0.08627451 0.01960784 0.83137255
v 0.12183355 -0.00901967 -0.00655312 0.08627451 0.01960784 0.83137255
v 0.10678963 0.01360314 -0.01042477 0.08627451 0.01960784 0.83137255
v 0.11489734 0.03461445 -0.01100511 0.08627451 0.01960784 0.83137255
v 0.11487756 0.03466842 -0.01202635 0.08627451 0.01960784 0.83137255
v 0.12228085 -0.00628242 -0.00552234 0.08627451 0.01960784 0.83137255
v 0.12134974 -0.00901967 -0.00313190 0.08627451 0.01960784 0.83137255
v 0.11644312 -0.02547403 -0.00099885 0.08627451 0.01960784 0.83137255
v 0.12052816 -0.00901967 -0.00176151 0.08627451 0.01960784 0.83137255
v 0.12066052 -0.00628242 -0.00154224 0.08627451 0.01960784 0.83137255
v 0.11856704 -0.01724685 -0.00113351 0.08627451 0.01960784 0.83137255
v 0.11835403 -0.01999181 -0.00124910 0.08627451 0.01960784 0.83137255
v 0.11675653 -0.01999181 -0.00058058 0.08627451 0.01960784 0.83137255
v 0.11701366 -0.02289870 -0.00094404 0.08627451 0.01960784 0.83137255
v 0.11401795 -0.02821128 -0.00059250 0.08627451 0.01960784 0.83137255
v 0.11406512 -0.03352386 -0.00116449 0.08627451 0.01960784 0.83137255
v 0.11401795 -0.02547403 -0.00032915 0.08627451 0.01960784 0.83137255
v 0.11127481 -0.03095625 -0.00037205 0.08627451 0.01960784 0.83137255
v 0.11127481 -0.02821128 -0.00012895 0.08627451 0.01960784 0.83137255
v 0.10853319 -0.02821128 -0.00000144 0.08627451 0.01960784 0.83137255
v 0.10678963 -0.03643846 -0.00062587 0.08627451 0.01960784 0.83137255
v 0.11693301 0.03688135 -0.01202635 0.08627451 0.01960784 0.83137255
v 0.11759027 0.03714351 -0.01100511 0.08627451 0.01960784 0.83137255
v 0.12233258 -0.00568099 -0.00552234 0.08627451 0.01960784 0.83137255
v 0.10678963 0.01239258 -0.00838706 0.08627451 0.01960784 0.83137255
v 0.11507079 0.03404386 -0.00826313 0.08627451 0.01960784 0.83137255
v 0.11558960 0.03598693 -0.01100511 0.08627451 0.01960784 0.83137255
v 0.11556220 0.03604090 -0.01202635 0.08627451 0.01960784 0.83137255
v 0.11512708 0.03517732 -0.01202635 0.08627451 0.01960784 0.83137255
v 0.12156273 -0.00628242 -0.00291383 0.08627451 0.01960784 0.83137255
v 0.11928971 -0.00628242 -0.00100719 0.08627451 0.01960784 0.83137255
v 0.11915735 -0.00901967 -0.00096787 0.08627451 0.01960784 0.83137255
v 0.11892153 -0.01176464 -0.00097740 0.08627451 0.01960784 0.83137255
v 0.12159621 -0.00568099 -0.00291979 0.08627451 0.01960784 0.83137255
v 0.12089178 -0.00568099 -0.00184969 0.08627451 0.01960784 0.83137255
v 0.12063771 -0.00568099 -0.00154820 0.08627451 0.01960784 0.83137255
v 0.11956662 -0.00568099 -0.00112993 0.08627451 0.01960784 0.83137255
v 0.11873287 -0.01450960 -0.00105009 0.08627451 0.01960784 0.83137255
v 0.11401795 -0.01999181 0.00004146 0.08627451 0.01960784 0.83137255
v 0.11401795 -0.02273678 -0.00011465 0.08627451 0.01960784 0.83137255
v 0.11675653 -0.01724685 -0.00044950 0.08627451 0.01960784 0.83137255
v 0.11127481 -0.02547403 0.00002716 0.08627451 0.01960784 0.83137255
v 0.10853319 -0.02547403 0.00010819 0.08627451 0.01960784 0.83137255
v 0.10678963 -0.02721662 -0.00004434 0.08627451 0.01960784 0.83137255
v 0.10678963 -0.02821128 -0.00008486 0.08627451 0.01960784 0.83137255
v 0.10678963 -0.03544380 -0.00055318 0.08627451 0.01960784 0.83137255
v 0.11696041 0.03691991 -0.01100511 0.08627451 0.01960784 0.83137255
v 0.11642182 0.03661920 -0.01202635 0.08627451 0.01960784 0.83137255
v 0.11747769 0.03661920 -0.00878388 0.08627451 0.01960784 0.83137255
v 0.11759027 0.03668088 -0.00890662 0.08627451 0.01960784 0.83137255
v 0.12177117 -0.00568099 -0.00348701 0.08627451 0.01960784 0.83137255
v 0.11759027 0.03663462 -0.00873979 0.08627451 0.01960784 0.83137255
v 0.11759027 0.03587898 -0.00745043 0.08627451 0.01960784 0.83137255
v 0.11759027 0.03520816 -0.00659006 0.08627451 0.01960784 0.83137255
v 0.11759027 0.03449879 -0.00612174 0.08627451 0.01960784 0.83137255
v 0.11759027 0.03234754 -0.00477280 0.08627451 0.01960784 0.83137255
v 0.11759027 0.03144540 -0.00421391 0.08627451 0.01960784 0.83137255
v 0.10678963 0.01230006 -0.00826313 0.08627451 0.01960784 0.83137255
v 0.11529900 0.03360436 -0.00675927 0.08627451 0.01960784 0.83137255
v 0.11664090 0.03554742 -0.00802718 0.08627451 0.01960784 0.83137255
v 0.11926690 -0.00568099 -0.00102388 0.08627451 0.01960784 0.83137255
v 0.11675653 -0.00901967 -0.00020760 0.08627451 0.01960784 0.83137255
v 0.11675653 -0.01176464 -0.00026837 0.08627451 0.01960784 0.83137255
v 0.11759027 0.03103674 -0.00407807 0.08627451 0.01960784 0.83137255
v 0.11759027 0.03030424 -0.00396128 0.08627451 0.01960784 0.83137255
v 0.11127481 -0.01999181 0.00014751 0.08627451 0.01960784 0.83137255
v 0.11127481 -0.02273678 0.00011534 0.08627451 0.01960784 0.83137255
v 0.11401795 -0.00901967 0.00010700 0.08627451 0.01960784 0.83137255
v 0.10678963 -0.02547403 0.00001286 0.08627451 0.01960784 0.83137255
v 0.10853319 -0.02273678 0.00012964 0.08627451 0.01960784 0.83137255
v 0.11675805 0.03422892 -0.00621469 0.08627451 0.01960784 0.83137255
v 0.11601103 0.02935584 -0.00452255 0.08627451 0.01960784 0.83137255
v 0.11683108 0.03213936 -0.00492771 0.08627451 0.01960784 0.83137255
v 0.10678963 0.01123600 -0.00720852 0.08627451 0.01960784 0.83137255
v 0.11505405 0.03210080 -0.00638390 0.08627451 0.01960784 0.83137255
v 0.10678963 0.00994062 -0.00654597 0.08627451 0.01960784 0.83137255
v 0.10678963 0.00841393 -0.00576901 0.08627451 0.01960784 0.83137255
v 0.10678963 0.00629352 -0.00474181 0.08627451 0.01960784 0.83137255
v 0.10678963 0.00413456 -0.00372772 0.08627451 0.01960784 0.83137255
v 0.10678963 0.00320158 -0.00329158 0.08627451 0.01960784 0.83137255
v 0.11759027 0.00047204 -0.00104175 0.08627451 0.01960784 0.83137255
v 0.11759027 -0.00250424 -0.00078436 0.08627451 0.01960784 0.83137255
v 0.11759027 -0.00533402 -0.00058178 0.08627451 0.01960784 0.83137255
v 0.11759027 -0.00567328 -0.00056748 0.08627451 0.01960784 0.83137255
v 0.11729208 -0.00567328 -0.00048644 0.08627451 0.01960784 0.83137255
v 0.11675653 -0.00628242 -0.00031723 0.08627451 0.01960784 0.83137255
v 0.11563828 0.02755927 -0.00427588 0.08627451 0.01960784 0.83137255
v 0.10678963 -0.00310566 -0.00148028 0.08627451 0.01960784 0.83137255
v 0.10678963 -0.00401551 -0.00126221 0.08627451 0.01960784 0.83137255
v 0.10678963 -0.01076997 -0.00034345 0.08627451 0.01960784 0.83137255
v 0.10853319 -0.00901967 -0.00026956 0.08627451 0.01960784 0.83137255
v 0.11127481 -0.00628242 -0.00019330 0.08627451 0.01960784 0.83137255
v 0.11401795 -0.00567328 -0.00009320 0.08627451 0.01960784 0.83137255
v 0.11401795 -0.00628242 -0.00002409 0.08627451 0.01960784 0.83137255
v 0.11675805 -0.00080020 -0.00080581 0.08627451 0.01960784 0.83137255
v 0.10853319 -0.01999181 0.00013321 0.08627451 0.01960784 0.83137255
v 0.11127481 -0.01450960 0.00013559 0.08627451 0.01960784 0.83137255
v 0.11127481 -0.00901967 0.00003311 0.08627451 0.01960784 0.83137255
v 0.11127481 -0.01176464 0.00011891 0.08627451 0.01960784 0.83137255
v 0.10678963 -0.02273678 0.00003311 0.08627451 0.01960784 0.83137255
v 0.10678963 -0.02173440 0.00003550 0.08627451 0.01960784 0.83137255
v 0.11258020 0.01993352 -0.00409356 0.08627451 0.01960784 0.83137255
v 0.10678963 0.00019446 -0.00237640 0.08627451 0.01960784 0.83137255
v 0.11675805 -0.00353746 -0.00054722 0.08627451 0.01960784 0.83137255
v 0.11675805 -0.00567328 -0.00036728 0.08627451 0.01960784 0.83137255
v 0.10678963 -0.01176464 -0.00024931 0.08627451 0.01960784 0.83137255
v 0.10853319 -0.01176464 -0.00001217 0.08627451 0.01960784 0.83137255
v 0.11461892 -0.00568099 -0.00013848 0.08627451 0.01960784 0.83137255
v 0.10853319 -0.01724685 0.00012606 0.08627451 0.01960784 0.83137255
v 0.10853319 -0.01450960 0.00008674 0.08627451 0.01960784 0.83137255
v 0.10678963 -0.01898944 0.00002120 0.08627451 0.01960784 0.83137255
v 0.10678963 -0.01350722 -0.00012418 0.08627451 0.01960784 0.83137255
v 0.10678963 -0.01450960 -0.00008843 0.08627451 0.01960784 0.83137255
v 0.10678963 -0.01625219 -0.00003124 0.08627451 0.01960784 0.83137255
f 1 2 3
f 1 3 4
f 1 4 5
f 1 5 15
f 1 15 34
f 1 34 51
f 1 51 75
f 1 75 100
f 1 100 99
f 1 99 98
f 1 98 123
f 1 123 154
f 1 154 155
f 1 155 165
f 1 165 168
f 1 168 167
f 1 167 166
f 1 166 160
f 1 160 144
f 1 144 143
f 1 143 142
f 1 142 157
f 1 157 134
f 1 134 133
f 1 133 132
f 1 132 131
f 1 131 130
f 1 130 128
f 1 128 112
f 1 112 79
f 1 79 57
f 1 57 40
f 1 40 24
f 1 24 9
f 1 9 8
f 1 8 6
f 1 6 2
f 2 7 3
f 2 6 8
f 2 8 9
f 2 9 7
f 3 7 10
f 3 10 4
f 4 10 11
f 4 11 12
f 4 12 13
f 4 13 14
f 4 14 5
f 5 14 15
f 7 9 16
f 7 16 17
f 7 17 18
f 7 18 19
f 7 19 20
f 7 20 21
f 7 21 22
f 7 22 23
f 7 23 10
f 9 24 41
f 9 41 59
f 9 59 83
f 9 83 82
f 9 82 102
f 9 102 76
f 9 76 52
f 9 52 37
f 9 37 36
f 9 36 35
f 9 35 21
f 9 21 20
f 9 20 19
f 9 19 18
f 9 18 17
f 9 17 16
f 10 23 11
f 11 23 25
f 11 25 26
f 11 26 27
f 11 27 12
f 12 27 28
f 12 28 29
f 12 29 30
f 12 30 31
f 12 31 13
f 13 31 32
f 13 32 33
f 13 33 14
f 14 33 34
f 14 34 15
f 21 35 22
f 22 35 36
f 22 36 37
f 22 37 38
f 22 38 23
f 23 38 39
f 23 39 25
f 24 40 41
f 25 39 42
f 25 42 43
f 25 43 44
f 25 44 45
f 25 45 46
f 25 46 26
f 26 46 47
f 26 47 29
f 26 29 28
f 26 28 27
f 29 47 30
f 30 47 48
f 30 48 32
f 30 32 31
f 32 48 49
f 32 49 33
f 33 49 50
f 33 50 34
f 34 50 51
f 37 52 53
f 37 53 54
f 37 54 55
f 37 55 56
f 37 56 38
f 38 56 39
f 39 56 42
f 40 57 58
f 40 58 59
f 40 59 41
f 42 56 55
f 42 55 60
f 42 60 43
f 43 60 61
f 43 61 44
f 44 61 45
f 45 61 46
f 46 62 47
f 46 61 63
f 46 63 64
f 46 64 65
f 46 65 66
f 46 66 67
f 46 67 68
f 46 68 62
f 47 69 70
f 47 70 48
f 47 62 71
f 47 71 69
f 48 70 49
f 49 70 69
f 49 69 71
f 49 71 72
f 49 72 50
f 50 72 73
f 50 73 74
f 50 74 75
f 50 75 51
f 52 76 77
f 52 77 78
f 52 78 53
f 53 78 54
f 54 78 60
f 54 60 55
f 57 79 80
f 57 80 58
f 58 80 81
f 58 81 82
f 58 82 83
f 58 83 59
f 60 84 61
f 60 78 84
f 61 84 63
f 62 68 67
f 62 67 71
f 63 84 64
f 64 85 86
f 64 86 87
f 64 87 65
f 64 84 88
f 64 88 89
f 64 89 90
f 64 90 91
f 64 91 85
f 65 87 92
f 65 92 67
f 65 67 66
f 67 93 94
f 67 94 71
f 67 92 87
f 67 87 95
f 67 95 93
f 71 94 73
f 71 73 72
f 73 94 96
f 73 96 74
f 74 96 97
f 74 97 98
f 74 98 99
f 74 99 100
f 74 100 75
f 76 101 77
f 76 102 101
f 77 101 103
f 77 103 104
f 77 104 78
f 78 105 84
f 78 104 106
f 78 106 107
f 78 107 108
f 78 108 109
f 78 109 110
f 78 110 111
f 78 111 105
f 79 112 113
f 79 113 80
f 80 113 81
f 81 113 114
f 81 114 103
f 81 103 101
f 81 101 82
f 82 101 102
f 84 105 88
f 85 91 115
f 85 115 116
f 85 116 86
f 86 116 117
f 86 117 87
f 87 117 95
f 88 105 111
f 88 111 118
f 88 118 89
f 89 118 90
f 90 118 119
f 90 119 91
f 91 119 115
f 93 120 121
f 93 121 96
f 93 96 94
f 93 95 117
f 93 117 116
f 93 116 122
f 93 122 120
f 96 121 97
f 97 123 98
f 97 121 120
f 97 120 124
f 97 124 123
f 103 106 104
f 103 114 107
f 103 107 106
f 107 114 113
f 107 113 108
f 108 113 125
f 108 125 109
f 109 125 110
f 110 125 111
f 111 126 118
f 111 125 127
f 111 127 126
f 112 128 113
f 113 129 126
f 113 126 127
f 113 127 125
f 113 128 130
f 113 130 131
f 113 131 132
f 113 132 133
f 113 133 134
f 113 134 129
f 115 119 135
f 115 135 136
f 115 136 137
f 115 137 138
f 115 138 116
f 116 138 139
f 116 139 140
f 116 140 122
f 118 126 141
f 118 141 142
f 118 142 143
f 118 143 119
f 119 143 144
f 119 144 145
f 119 145 146
f 119 146 147
f 119 147 148
f 119 148 149
f 119 149 135
f 120 150 124
f 120 122 151
f 120 151 150
f 122 152 153
f 122 153 151
f 122 140 148
f 122 148 152
f 123 124 154
f 124 150 155
f 124 155 154
f 126 156 142
f 126 142 141
f 126 129 156
f 129 134 156
f 134 157 156
f 135 149 158
f 135 158 136
f 136 158 159
f 136 159 140
f 136 140 139
f 136 139 137
f 137 139 138
f 140 159 148
f 142 156 157
f 144 160 145
f 145 160 161
f 145 161 146
f 146 148 147
f 146 161 152
f 146 152 148
f 148 159 162
f 148 162 149
f 149 162 158
f 150 151 163
f 150 163 155
f 151 153 163
f 152 161 164
f 152 164 153
f 153 164 163
f 155 163 165
f 158 162 159
f 160 166 161
f 161 166 164
f 163 164 165
f 164 167 168
f 164 168 165
f 164 166 167

