# https://github.com/mikedh/trimesh
v 0.11368241 0.02276965 0.00286780 0.43529412 0.89019608 0.96078431
v 0.11368241 0.02275070 0.00434155 0.43529412 0.89019608 0.96078431
v 0.11368241 0.02236759 0.00226119 0.43529412 0.89019608 0.96078431
v 0.08101054 0.01115424 -0.00125518 0.43529412 0.89019608 0.96078431
v 0.08101054 0.01116687 -0.00123378 0.43529412 0.89019608 0.96078431
v 0.08101054 0.01161734 0.00024123 0.43529412 0.89019608 0.96078431
v 0.08101054 0.01220675 0.00290052 0.43529412 0.89019608 0.96078431
v 0.08101054 0.01221517 0.00294331 0.43529412 0.89019608 0.96078431
v 0.11368241 0.01878909 0.00434155 0.43529412 0.89019608 0.96078431
v 0.11168999 0.02210236 0.00434155 0.43529412 0.89019608 0.96078431
v 0.11368241 0.02110459 0.00065781 0.43529412 0.89019608 0.96078431
v 0.11239037 0.02176346 0.00189243 0.43529412 0.89019608 0.96078431
v 0.08101054 0.01026172 -0.00258294 0.43529412 0.89019608 0.96078431
v 0.08101054 0.01206571 0.00434155 0.43529412 0.89019608 0.96078431
v 0.11368241 0.00126494 -0.00288750 0.43529412 0.89019608 0.96078431
v 0.11332102 0.01812391 0.00434155 0.43529412 0.89019608 0.96078431
v 0.11368241 0.02060149 0.00017327 0.43529412 0.89019608 0.96078431
v 0.08101054 0.00891031 -0.00438642 0.43529412 0.89019608 0.96078431
v 0.08101054 0.00916712 0.00434155 0.43529412 0.89019608 0.96078431
v 0.11338818 0.00126494 -0.00289757 0.43529412 0.89019608 0.96078431
v 0.11368241 0.00126494 -0.00556064 0.43529412 0.89019608 0.96078431
v 0.10273528 0.01312453 0.00434155 0.43529412 0.89019608 0.96078431
v 0.09983779 0.01205940 0.00434155 0.43529412 0.89019608 0.96078431
v 0.09579219 0.01072061 0.00434155 0.43529412 0.89019608 0.96078431
v 0.09455452 0.01032908 0.00434155 0.43529412 0.89019608 0.96078431
v 0.09317614 0.00989966 0.00434155 0.43529412 0.89019608 0.96078431
v 0.09177537 0.00952918 0.00434155 0.43529412 0.89019608 0.96078431
v 0.08909535 0.00917975 0.00434155 0.43529412 0.89019608 0.96078431
v 0.08256481 0.00916923 0.00434155 0.43529412 0.89019608 0.96078431
v 0.11368241 0.01831336 -0.00187815 0.43529412 0.89019608 0.96078431
v 0.08101054 0.00739682 -0.00573684 0.43529412 0.89019608 0.96078431
v 0.08101054 0.00126494 -0.00510127 0.43529412 0.89019608 0.96078431
v 0.11368241 0.00664533 -0.00553673 0.43529412 0.89019608 0.96078431
v 0.10990544 0.00126494 -0.00664173 0.43529412 0.89019608 0.96078431
v 0.11368241 0.01798077 -0.00217265 0.43529412 0.89019608 0.96078431
v 0.08101054 0.00604540 -0.00671850 0.43529412 0.89019608 0.96078431
v 0.11368241 0.01626940 -0.00362627 0.43529412 0.89019608 0.96078431
v 0.08101054 0.00126494 -0.00794054 0.43529412 0.89019608 0.96078431
v 0.11368241 0.00937341 -0.00550652 0.43529412 0.89019608 0.96078431
v 0.10827121 0.00126494 -0.00706586 0.43529412 0.89019608 0.96078431
v 0.10798338 0.00434035 -0.00713256 0.43529412 0.89019608 0.96078431
v 0.10982869 0.00434035 -0.00662788 0.43529412 0.89019608 0.96078431
v 0.08101054 0.00601593 -0.00672983 0.43529412 0.89019608 0.96078431
v 0.11368241 0.01612415 -0.00372695 0.43529412 0.89019608 0.96078431
v 0.09987938 0.00901977 -0.00694881 0.43529412 0.89019608 0.96078431
v 0.09987938 0.00704107 -0.00778826 0.43529412 0.89019608 0.96078431
v 0.08101054 0.00163753 -0.00792670 0.43529412 0.89019608 0.96078431
v 0.09718017 0.00163753 -0.00844899 0.43529412 0.89019608 0.96078431
v 0.09754795 0.00126494 -0.00847039 0.43529412 0.89019608 0.96078431
v 0.11368241 0.00974389 -0.00550149 0.43529412 0.89019608 0.96078431
v 0.10565516 0.00126494 -0.00773414 0.43529412 0.89019608 0.96078431
v 0.10528417 0.00434035 -0.00781091 0.43529412 0.89019608 0.96078431
v 0.08101054 0.00434035 -0.00737168 0.43529412 0.89019608 0.96078431
v 0.11368241 0.01493272 -0.00447578 0.43529412 0.89019608 0.96078431
v 0.10258178 0.00922396 -0.00703943 0.43529412 0.89019608 0.96078431
v 0.09987938 0.00434035 -0.00829419 0.43529412 0.89019608 0.96078431
v 0.09718017 0.00434035 -0.00819980 0.43529412 0.89019608 0.96078431
v 0.10258178 0.00704107 -0.00784867 0.43529412 0.89019608 0.96078431
v 0.09987938 0.00163753 -0.00850185 0.43529412 0.89019608 0.96078431
v 0.09987938 0.00126494 -0.00851569 0.43529412 0.89019608 0.96078431
v 0.11368241 0.01242567 -0.00531648 0.43529412 0.89019608 0.96078431
v 0.10528417 0.00126494 -0.00782476 0.43529412 0.89019608 0.96078431
v 0.10258178 0.00126494 -0.00827783 0.43529412 0.89019608 0.96078431
v 0.10258178 0.00163753 -0.00827028 0.43529412 0.89019608 0.96078431
v 0.10258178 0.00434035 -0.00820483 0.43529412 0.89019608 0.96078431
v 0.10528417 0.00704107 -0.00756675 0.43529412 0.89019608 0.96078431
v 0.11368241 0.01461276 -0.00459534 0.43529412 0.89019608 0.96078431
v 0.10528417 0.00927448 -0.00693245 0.43529412 0.89019608 0.96078431
f 1 2 9
f 1 9 15
f 1 15 21
f 1 21 33
f 1 33 39
f 1 39 50
f 1 50 61
f 1 61 67
f 1 67 54
f 1 54 44
f 1 44 37
f 1 37 35
f 1 35 30
f 1 30 17
f 1 17 11
f 1 11 3
f 1 3 4
f 1 4 5
f 1 5 6
f 1 6 7
f 1 7 8
f 1 8 2
f 2 8 10
f 2 10 14
f 2 14 19
f 2 19 29
f 2 29 28
f 2 28 27
f 2 27 26
f 2 26 25
f 2 25 24
f 2 24 23
f 2 23 22
f 2 22 16
f 2 16 9
f 3 11 12
f 3 12 13
f 3 13 4
f 4 13 18
f 4 18 31
f 4 31 36
f 4 36 43
f 4 43 53
f 4 53 47
f 4 47 38
f 4 38 32
f 4 32 19
f 4 19 14
f 4 14 8
f 4 8 7
f 4 7 6
f 4 6 5
f 8 14 10
f 9 16 15
f 11 17 18
f 11 18 12
f 12 18 13
f 15 20 32
f 15 32 38
f 15 38 49
f 15 49 60
f 15 60 63
f 15 63 62
f 15 62 51
f 15 51 40
f 15 40 34
f 15 34 21
f 15 16 22
f 15 22 23
f 15 23 24
f 15 24 25
f 15 25 26
f 15 26 27
f 15 27 28
f 15 28 29
f 15 29 19
f 15 19 20
f 17 30 18
f 18 30 31
f 19 32 20
f 21 34 33
f 30 35 31
f 31 35 37
f 31 37 36
f 33 34 39
f 34 40 41
f 34 41 42
f 34 42 39
f 36 37 44
f 36 44 45
f 36 45 46
f 36 46 43
f 38 47 48
f 38 48 49
f 39 42 41
f 39 41 50
f 40 51 41
f 41 51 52
f 41 52 50
f 43 46 53
f 44 54 45
f 45 54 55
f 45 55 46
f 46 56 57
f 46 57 47
f 46 47 53
f 46 55 58
f 46 58 56
f 47 57 56
f 47 56 48
f 48 56 59
f 48 59 49
f 49 59 60
f 50 52 61
f 51 62 52
f 52 62 63
f 52 63 64
f 52 64 65
f 52 65 66
f 52 66 61
f 54 67 68
f 54 68 55
f 55 68 58
f 56 58 65
f 56 65 59
f 58 68 61
f 58 61 66
f 58 66 65
f 59 65 60
f 60 65 64
f 60 64 63
f 61 68 67

