# https://github.com/mikedh/trimesh
v 0.12959915 0.00974336 0.01593679 0.54509804 0.71372549 0.60000000
v 0.12689852 0.00974336 0.01574727 0.54509804 0.71372549 0.60000000
v 0.12689852 0.00434632 0.01575912 0.54509804 0.71372549 0.60000000
v 0.12689852 -0.00105877 0.01574964 0.54509804 0.71372549 0.60000000
v 0.12959915 -0.00105877 0.01584203 0.54509804 0.71372549 0.60000000
v 0.13230212 0.00704082 0.01562882 0.54509804 0.71372549 0.60000000
v 0.13230212 0.00974336 0.01564777 0.54509804 0.71372549 0.60000000
v 0.13230212 0.01244590 0.01555775 0.54509804 0.71372549 0.60000000
v 0.12959915 0.01244590 0.01583492 0.54509804 0.71372549 0.60000000
v 0.12689852 0.01244590 0.01564777 0.54509804 0.71372549 0.60000000
v 0.12463781 0.00974336 0.01532559 0.54509804 0.71372549 0.60000000
v 0.12404499 0.00687191 0.01531374 0.54509804 0.71372549 0.60000000
v 0.12419790 0.00434632 0.01542272 0.54509804 0.71372549 0.60000000
v 0.12419790 -0.00105877 0.01539666 0.54509804 0.71372549 0.60000000
v 0.12404499 -0.00373718 0.01532085 0.54509804 0.71372549 0.60000000
v 0.12689852 -0.00376132 0.01567146 0.54509804 0.71372549 0.60000000
v 0.12959915 -0.00376132 0.01566436 0.54509804 0.71372549 0.60000000
v 0.13131644 -0.00835403 0.01515976 0.54509804 0.71372549 0.60000000
v 0.13174459 -0.00646386 0.01523320 0.54509804 0.71372549 0.60000000
v 0.13206688 -0.00376132 0.01534217 0.54509804 0.71372549 0.60000000
v 0.13250913 -0.00114725 0.01541798 0.54509804 0.71372549 0.60000000
v 0.13230212 0.00164377 0.01554827 0.54509804 0.71372549 0.60000000
v 0.13391120 0.00704082 0.01525689 0.54509804 0.71372549 0.60000000
v 0.13389238 0.00974336 0.01523320 0.54509804 0.71372549 0.60000000
v 0.13384768 0.01244590 0.01520714 0.54509804 0.71372549 0.60000000
v 0.13376770 0.01445672 0.01516923 0.54509804 0.71372549 0.60000000
v 0.13248326 0.01527714 0.01533980 0.54509804 0.71372549 0.60000000
v 0.13136584 0.01972508 0.01515028 0.54509804 0.71372549 0.60000000
v 0.13124822 0.05180974 0.01246857 0.54509804 0.71372549 0.60000000
v 0.12959915 0.05026543 0.01266283 0.54509804 0.71372549 0.60000000
v 0.12772894 0.05026543 0.01254201 0.54509804 0.71372549 0.60000000
v 0.12533413 0.01436825 0.01517397 0.54509804 0.71372549 0.60000000
v 0.12500714 0.01244590 0.01526399 0.54509804 0.71372549 0.60000000
v 0.12281700 0.00585041 0.01511001 0.54509804 0.71372549 0.60000000
v 0.12275584 0.00434632 0.01512659 0.54509804 0.71372549 0.60000000
v 0.12272997 -0.00105877 0.01513607 0.54509804 0.71372549 0.60000000
v 0.12272997 -0.00282025 0.01513607 0.54509804 0.71372549 0.60000000
v 0.12467310 -0.00646386 0.01528295 0.54509804 0.71372549 0.60000000
v 0.12508477 -0.00862750 0.01519056 0.54509804 0.71372549 0.60000000
v 0.12689852 -0.00646386 0.01549379 0.54509804 0.71372549 0.60000000
v 0.12871698 -0.01092788 0.01514318 0.54509804 0.71372549 0.60000000
v 0.12961090 -0.00922271 0.01523557 0.54509804 0.71372549 0.60000000
v 0.13230212 -0.01997658 0.01364834 0.54509804 0.71372549 0.60000000
v 0.13309489 -0.00646386 0.01494418 0.54509804 0.71372549 0.60000000
v 0.13374182 -0.00031074 0.01515739 0.54509804 0.71372549 0.60000000
v 0.13379122 0.00164377 0.01518345 0.54509804 0.71372549 0.60000000
v 0.13385474 0.00434632 0.01521898 0.54509804 0.71372549 0.60000000
v 0.13496745 0.00434632 0.01375020 0.54509804 0.71372549 0.60000000
v 0.13503332 0.00704082 0.01375020 0.54509804 0.71372549 0.60000000
v 0.13509449 0.01244590 0.01375020 0.54509804 0.71372549 0.60000000
v 0.13624484 0.02324803 0.01204215 0.54509804 0.71372549 0.60000000
v 0.13618367 0.02595058 0.01194976 0.54509804 0.71372549 0.60000000
v 0.13317959 0.01784295 0.01501999 0.54509804 0.71372549 0.60000000
v 0.13635775 0.05163278 0.00970158 0.54509804 0.71372549 0.60000000
v 0.13515565 0.05271059 0.01040991 0.54509804 0.71372549 0.60000000
v 0.13276320 0.05026543 0.01209427 0.54509804 0.71372549 0.60000000
v 0.13221037 0.05281515 0.01183368 0.54509804 0.71372549 0.60000000
v 0.12959915 0.05319318 0.01185026 0.54509804 0.71372549 0.60000000
v 0.12959915 0.05184191 0.01248042 0.54509804 0.71372549 0.60000000
v 0.12809357 0.05172126 0.01243778 0.54509804 0.71372549 0.60000000
v 0.12637628 0.05026543 0.01207769 0.54509804 0.71372549 0.60000000
v 0.11710995 0.01433607 0.01255386 0.54509804 0.71372549 0.60000000
v 0.12501656 0.03945525 0.01270074 0.54509804 0.71372549 0.60000000
v 0.11879431 0.00704082 0.01367203 0.54509804 0.71372549 0.60000000
v 0.11879431 0.00434632 0.01375257 0.54509804 0.71372549 0.60000000
v 0.11879431 0.00164377 0.01374073 0.54509804 0.71372549 0.60000000
v 0.11879431 -0.00376132 0.01371230 0.54509804 0.71372549 0.60000000
v 0.11879431 -0.00646386 0.01368387 0.54509804 0.71372549 0.60000000
v 0.11879431 -0.00916640 0.01350856 0.54509804 0.71372549 0.60000000
v 0.12149728 -0.01727403 0.01346118 0.54509804 0.71372549 0.60000000
v 0.12419790 -0.01997658 0.01386865 0.54509804 0.71372549 0.60000000
v 0.12672915 -0.00938357 0.01525452 0.54509804 0.71372549 0.60000000
v 0.12751722 -0.01092788 0.01514318 0.54509804 0.71372549 0.60000000
v 0.12689852 -0.01997658 0.01395394 0.54509804 0.71372549 0.60000000
v 0.12959915 -0.01997658 0.01394446 0.54509804 0.71372549 0.60000000
v 0.12689852 -0.02267912 0.01349198 0.54509804 0.71372549 0.60000000
v 0.12973794 -0.02291238 0.01309636 0.54509804 0.71372549 0.60000000
v 0.13230212 -0.02230108 0.01296606 0.54509804 0.71372549 0.60000000
v 0.13393237 -0.02177827 0.01265336 0.54509804 0.71372549 0.60000000
v 0.13416526 -0.01997658 0.01288315 0.54509804 0.71372549 0.60000000
v 0.13341718 -0.00376132 0.01501999 0.54509804 0.71372549 0.60000000
v 0.13431817 -0.01727403 0.01306556 0.54509804 0.71372549 0.60000000
v 0.13484748 0.00164377 0.01375020 0.54509804 0.71372549 0.60000000
v 0.13439816 -0.01457149 0.01320296 0.54509804 0.71372549 0.60000000
v 0.13628013 0.01514845 0.01203978 0.54509804 0.71372549 0.60000000
v 0.13628013 0.01784295 0.01202794 0.54509804 0.71372549 0.60000000
v 0.13655065 0.02595058 0.01059943 0.54509804 0.71372549 0.60000000
v 0.13667063 0.05052281 0.00848865 0.54509804 0.71372549 0.60000000
v 0.13656477 0.05271059 0.00827544 0.54509804 0.71372549 0.60000000
v 0.13616015 0.05343448 0.00912828 0.54509804 0.71372549 0.60000000
v 0.13435817 0.05485814 0.01016590 0.54509804 0.71372549 0.60000000
v 0.13230212 0.05516378 0.01047861 0.54509804 0.71372549 0.60000000
v 0.12959915 0.05510748 0.01049993 0.54509804 0.71372549 0.60000000
v 0.12735961 0.05478575 0.01019196 0.54509804 0.71372549 0.60000000
v 0.12682560 0.05301623 0.01116325 0.54509804 0.71372549 0.60000000
v 0.12504949 0.05250950 0.01033410 0.54509804 0.71372549 0.60000000
v 0.12475308 0.05026543 0.01072499 0.54509804 0.71372549 0.60000000
v 0.11368241 0.01537366 0.01073446 0.54509804 0.71372549 0.60000000
v 0.11368241 0.01273546 0.01139068 0.54509804 0.71372549 0.60000000
v 0.11368241 0.01244590 0.01142858 0.54509804 0.71372549 0.60000000
v 0.11368241 0.01011335 0.01164653 0.54509804 0.71372549 0.60000000
v 0.11656182 0.00704082 0.01285946 0.54509804 0.71372549 0.60000000
v 0.11368241 0.00744298 0.01175313 0.54509804 0.71372549 0.60000000
v 0.11662298 0.00434632 0.01291868 0.54509804 0.71372549 0.60000000
v 0.11676884 -0.00376132 0.01289499 0.54509804 0.71372549 0.60000000
v 0.11678060 -0.00646386 0.01287130 0.54509804 0.71372549 0.60000000
v 0.11368241 -0.00916640 0.01129829 0.54509804 0.71372549 0.60000000
v 0.12125732 -0.02014549 0.01303713 0.54509804 0.71372549 0.60000000
v 0.12179369 -0.02267912 0.01291395 0.54509804 0.71372549 0.60000000
v 0.12419790 -0.02267912 0.01351330 0.54509804 0.71372549 0.60000000
v 0.12419790 -0.02440038 0.01281919 0.54509804 0.71372549 0.60000000
v 0.12689852 -0.02426364 0.01273153 0.54509804 0.71372549 0.60000000
v 0.12892869 -0.02411887 0.01255149 0.54509804 0.71372549 0.60000000
v 0.13424054 -0.02216435 0.01104717 0.54509804 0.71372549 0.60000000
v 0.13492981 -0.01997658 0.01104717 0.54509804 0.71372549 0.60000000
v 0.13509684 -0.01727403 0.01104717 0.54509804 0.71372549 0.60000000
v 0.13624955 0.01244590 0.01181710 0.54509804 0.71372549 0.60000000
v 0.13650831 0.01514845 0.01068945 0.54509804 0.71372549 0.60000000
v 0.13744460 0.03405821 0.00564348 0.54509804 0.71372549 0.60000000
v 0.13653889 0.02324803 0.01069182 0.54509804 0.71372549 0.60000000
v 0.13724463 0.05026543 0.00564348 0.54509804 0.71372549 0.60000000
v 0.13696704 0.05296797 0.00564348 0.54509804 0.71372549 0.60000000
v 0.13642362 0.05446402 0.00732784 0.54509804 0.71372549 0.60000000
v 0.13499568 0.05555790 0.00816647 0.54509804 0.71372549 0.60000000
v 0.13382887 0.05711026 0.00720465 0.54509804 0.71372549 0.60000000
v 0.13230212 0.05651506 0.00880136 0.54509804 0.71372549 0.60000000
v 0.12959915 0.05645876 0.00876819 0.54509804 0.71372549 0.60000000
v 0.12555997 0.05431120 0.00968500 0.54509804 0.71372549 0.60000000
v 0.12807710 0.05711026 0.00716201 0.54509804 0.71372549 0.60000000
v 0.12466369 0.05323340 0.00860947 0.54509804 0.71372549 0.60000000
v 0.11368241 0.02196111 0.00700092 0.54509804 0.71372549 0.60000000
v 0.11368241 0.02094765 0.00777321 0.54509804 0.71372549 0.60000000
v 0.11368241 0.02068223 0.00794615 0.54509804 0.71372549 0.60000000
v 0.11368241 0.01849445 0.00924910 0.54509804 0.71372549 0.60000000
v 0.11368241 0.01708688 0.01000481 0.54509804 0.71372549 0.60000000
v 0.11368241 0.01592060 0.01052125 0.54509804 0.71372549 0.60000000
v 0.11368241 0.00704082 0.01174840 0.54509804 0.71372549 0.60000000
v 0.11368241 -0.00646386 0.01138120 0.54509804 0.71372549 0.60000000
v 0.11368241 -0.00878032 0.01131724 0.54509804 0.71372549 0.60000000
v 0.11368241 -0.01130591 0.01047861 0.54509804 0.71372549 0.60000000
v 0.12044338 -0.02267912 0.01199477 0.54509804 0.71372549 0.60000000
v 0.12019872 -0.02115894 0.01233354 0.54509804 0.71372549 0.60000000
v 0.12229241 -0.02430386 0.01266757 0.54509804 0.71372549 0.60000000
v 0.12211597 -0.02436821 0.00653659 0.54509804 0.71372549 0.60000000
v 0.12211833 -0.02442451 -0.00516153 0.54509804 0.71372549 0.60000000
v 0.12411556 -0.02448082 -0.00524208 0.54509804 0.71372549 0.60000000
v 0.12892869 -0.02411887 0.01226010 0.54509804 0.71372549 0.60000000
v 0.13441227 -0.02231717 0.00834651 0.54509804 0.71372549 0.60000000
v 0.13518152 -0.01997658 0.00834651 0.54509804 0.71372549 0.60000000
v 0.13636481 -0.00532171 0.00438317 0.54509804 0.71372549 0.60000000
v 0.13650831 0.00143465 0.00588749 0.54509804 0.71372549 0.60000000
v 0.13638833 0.00219876 0.00725914 0.54509804 0.71372549 0.60000000
v 0.13646362 0.01244590 0.01046677 0.54509804 0.71372549 0.60000000
v 0.13676944 0.01514845 0.00834651 0.54509804 0.71372549 0.60000000
v 0.13742107 0.03135566 0.00564348 0.54509804 0.71372549 0.60000000
v 0.13771277 0.03405821 0.00294519 0.54509804 0.71372549 0.60000000
v 0.13722110 0.05026543 0.00294519 0.54509804 0.71372549 0.60000000
v 0.13695764 0.05296797 0.00294519 0.54509804 0.71372549 0.60000000
v 0.13652479 0.05464902 0.00294519 0.54509804 0.71372549 0.60000000
v 0.13651066 0.05465706 0.00564348 0.54509804 0.71372549 0.60000000
v 0.13539560 0.05600833 0.00564348 0.54509804 0.71372549 0.60000000
v 0.13404529 0.05721482 0.00564348 0.54509804 0.71372549 0.60000000
v 0.13230212 0.05764916 0.00564348 0.54509804 0.71372549 0.60000000
v 0.13230212 0.05723895 0.00744866 0.54509804 0.71372549 0.60000000
v 0.12959915 0.05723895 0.00741786 0.54509804 0.71372549 0.60000000
v 0.12512947 0.05478575 0.00788456 0.54509804 0.71372549 0.60000000
v 0.12959915 0.05768938 0.00564348 0.54509804 0.71372549 0.60000000
v 0.12779716 0.05724700 0.00564348 0.54509804 0.71372549 0.60000000
v 0.12644685 0.05647484 0.00564348 0.54509804 0.71372549 0.60000000
v 0.12485423 0.05512357 0.00564348 0.54509804 0.71372549 0.60000000
v 0.12405440 0.05296797 0.00564348 0.54509804 0.71372549 0.60000000
v 0.11368241 0.02273326 0.00568612 0.54509804 0.71372549 0.60000000
v 0.11368241 -0.01215850 0.00861895 0.54509804 0.71372549 0.60000000
v 0.12000347 -0.02420734 0.01012326 0.54509804 0.71372549 0.60000000
v 0.12241238 -0.02430386 -0.00678904 0.54509804 0.71372549 0.60000000
v 0.12419790 -0.02440038 -0.00692881 0.54509804 0.71372549 0.60000000
v 0.12000347 -0.02420734 0.00911881 0.54509804 0.71372549 0.60000000
v 0.11368241 -0.01209416 -0.00245850 0.54509804 0.71372549 0.60000000
v 0.12689852 -0.02426364 -0.00682457 0.54509804 0.71372549 0.60000000
v 0.12884165 -0.02411887 -0.00664690 0.54509804 0.71372549 0.60000000
v 0.13476044 -0.02210805 -0.00245850 0.54509804 0.71372549 0.60000000
v 0.13601900 -0.01997658 -0.00245850 0.54509804 0.71372549 0.60000000
v 0.13637423 -0.01620428 -0.00347244 0.54509804 0.71372549 0.60000000
v 0.13663534 -0.00105877 0.00294519 0.54509804 0.71372549 0.60000000
v 0.13713878 0.01244590 0.00294519 0.54509804 0.71372549 0.60000000
v 0.13667298 0.01244590 0.00834651 0.54509804 0.71372549 0.60000000
v 0.13754575 0.03405821 0.00024216 0.54509804 0.71372549 0.60000000
v 0.13726581 0.01244590 0.00024216 0.54509804 0.71372549 0.60000000
v 0.13731990 0.01244590 -0.00245850 0.54509804 0.71372549 0.60000000
v 0.13672239 0.05026543 0.00056197 0.54509804 0.71372549 0.60000000
v 0.13660241 0.05296797 0.00103577 0.54509804 0.71372549 0.60000000
v 0.13644244 0.05445597 0.00143377 0.54509804 0.71372549 0.60000000
v 0.13527327 0.05600029 0.00294519 0.54509804 0.71372549 0.60000000
v 0.13392061 0.05715048 0.00294519 0.54509804 0.71372549 0.60000000
v 0.13230212 0.05750438 0.00294519 0.54509804 0.71372549 0.60000000
v 0.12963208 0.05743199 0.00285754 0.54509804 0.71372549 0.60000000
v 0.12781833 0.05723895 0.00369853 0.54509804 0.71372549 0.60000000
v 0.12487306 0.05512357 0.00294519 0.54509804 0.71372549 0.60000000
v 0.12411321 0.05296797 0.00294519 0.54509804 0.71372549 0.60000000
v 0.11368241 0.02276544 0.00286938 0.54509804 0.71372549 0.60000000
v 0.11368241 -0.01225502 0.00834651 0.54509804 0.71372549 0.60000000
v 0.11368241 -0.01235959 0.00603200 0.54509804 0.71372549 0.60000000
v 0.11368241 -0.01237567 0.00564348 0.54509804 0.71372549 0.60000000
v 0.12204775 -0.02267912 -0.00704726 0.54509804 0.71372549 0.60000000
v 0.12419790 -0.02267912 -0.00763240 0.54509804 0.71372549 0.60000000
v 0.11368241 -0.01125766 -0.00458350 0.54509804 0.71372549 0.60000000
v 0.11368241 -0.00942379 -0.00541975 0.54509804 0.71372549 0.60000000
v 0.11368241 -0.00916640 -0.00551688 0.54509804 0.71372549 0.60000000
v 0.12689852 -0.02267912 -0.00757318 0.54509804 0.71372549 0.60000000
v 0.11368241 -0.01223089 0.00024216 0.54509804 0.71372549 0.60000000
v 0.11368241 -0.01211829 -0.00208183 0.54509804 0.71372549 0.60000000
v 0.12968618 -0.02288020 -0.00712307 0.54509804 0.71372549 0.60000000
v 0.13230212 -0.02218848 -0.00691933 0.54509804 0.71372549 0.60000000
v 0.13391355 -0.02167371 -0.00666822 0.54509804 0.71372549 0.60000000
v 0.13437698 -0.02198739 -0.00516153 0.54509804 0.71372549 0.60000000
v 0.13529915 -0.01997658 -0.00516153 0.54509804 0.71372549 0.60000000
v 0.13637423 -0.01620428 -0.00387517 0.54509804 0.71372549 0.60000000
v 0.13697410 0.00164377 -0.00245850 0.54509804 0.71372549 0.60000000
v 0.13679295 -0.00105877 0.00024216 0.54509804 0.71372549 0.60000000
v 0.13685882 0.03405821 -0.00202971 0.54509804 0.71372549 0.60000000
v 0.13676237 0.03676075 -0.00186862 0.54509804 0.71372549 0.60000000
v 0.13732697 0.01514845 -0.00245850 0.54509804 0.71372549 0.60000000
v 0.13688470 0.01244590 -0.00516153 0.54509804 0.71372549 0.60000000
v 0.13676237 0.01489910 -0.00526814 0.54509804 0.71372549 0.60000000
v 0.13680002 0.00434632 -0.00516153 0.54509804 0.71372549 0.60000000
v 0.13617191 0.05026543 -0.00078836 0.54509804 0.71372549 0.60000000
v 0.13575553 0.05296797 -0.00031693 0.54509804 0.71372549 0.60000000
v 0.13394648 0.05458467 -0.00131901 0.54509804 0.71372549 0.60000000
v 0.13470633 0.05542117 0.00060698 0.54509804 0.71372549 0.60000000
v 0.13366419 0.05702983 0.00158064 0.54509804 0.71372549 0.60000000
v 0.13230212 0.05709418 0.00147167 0.54509804 0.71372549 0.60000000
v 0.13055424 0.05711026 0.00144324 0.54509804 0.71372549 0.60000000
v 0.12875461 0.05681266 0.00189572 0.54509804 0.71372549 0.60000000
v 0.12689852 0.05541313 0.00024216 0.54509804 0.71372549 0.60000000
v 0.12554351 0.05432728 -0.00111291 0.54509804 0.71372549 0.60000000
v 0.12524710 0.05467315 0.00024216 0.54509804 0.71372549 0.60000000
v 0.12691028 0.05645876 0.00285754 0.54509804 0.71372549 0.60000000
v 0.12454606 0.05296797 0.00024216 0.54509804 0.71372549 0.60000000
v 0.11368241 0.02261261 0.00263722 0.54509804 0.71372549 0.60000000
v 0.12419790 -0.01997658 -0.00795222 0.54509804 0.71372549 0.60000000
v 0.11686058 -0.00916640 -0.00692881 0.54509804 0.71372549 0.60000000
v 0.11879431 -0.00916640 -0.00767978 0.54509804 0.71372549 0.60000000
v 0.12689852 -0.01997658 -0.00802329 0.54509804 0.71372549 0.60000000
v 0.11368241 -0.00683385 -0.00566139 0.54509804 0.71372549 0.60000000
v 0.11668415 -0.00646386 -0.00706621 0.54509804 0.71372549 0.60000000
v 0.12959915 -0.01997658 -0.00790721 0.54509804 0.71372549 0.60000000
v 0.13230212 -0.01997658 -0.00748315 0.54509804 0.71372549 0.60000000
v 0.13416056 -0.01997658 -0.00684116 0.54509804 0.71372549 0.60000000
v 0.13588021 -0.01457149 -0.00534868 0.54509804 0.71372549 0.60000000
v 0.13577905 -0.01716947 -0.00492937 0.54509804 0.71372549 0.60000000
v 0.13602841 -0.01186895 -0.00545529 0.54509804 0.71372549 0.60000000
v 0.13640246 0.00237571 -0.00656872 0.54509804 0.71372549 0.60000000
v 0.13665887 0.00154725 -0.00538185 0.54509804 0.71372549 0.60000000
v 0.13636010 0.01382935 -0.00651660 0.54509804 0.71372549 0.60000000
v 0.13641421 0.00434632 -0.00657820 0.54509804 0.71372549 0.60000000
v 0.13391825 0.04486034 -0.00397466 0.54509804 0.71372549 0.60000000
v 0.13481925 0.05026543 -0.00208894 0.54509804 0.71372549 0.60000000
v 0.13440522 0.05296797 -0.00167673 0.54509804 0.71372549 0.60000000
v 0.13230212 0.05479379 -0.00153222 0.54509804 0.71372549 0.60000000
v 0.13234447 0.05033782 -0.00338952 0.54509804 0.71372549 0.60000000
v 0.13230212 0.05296797 -0.00246324 0.54509804 0.71372549 0.60000000
v 0.13230212 0.05614507 0.00011897 0.54509804 0.71372549 0.60000000
v 0.12959915 0.05482597 -0.00163172 0.54509804 0.71372549 0.60000000
v 0.12689852 0.05455250 -0.00136876 0.54509804 0.71372549 0.60000000
v 0.12689852 0.05296797 -0.00235190 0.54509804 0.71372549 0.60000000
v 0.12671268 0.05036999 -0.00348428 0.54509804 0.71372549 0.60000000
v 0.12569171 0.04873720 -0.00375672 0.54509804 0.71372549 0.60000000
v 0.12522122 0.05296797 -0.00153933 0.54509804 0.71372549 0.60000000
v 0.11368241 0.01797968 -0.00217185 0.54509804 0.71372549 0.60000000
v 0.11368241 0.02060179 0.00017583 0.54509804 0.71372549 0.60000000
v 0.11368241 0.02110048 0.00065910 0.54509804 0.71372549 0.60000000
v 0.11368241 0.02236327 0.00226292 0.54509804 0.71372549 0.60000000
v 0.12419790 -0.01727403 -0.00801381 0.54509804 0.71372549 0.60000000
v 0.11879431 -0.00646386 -0.00784798 0.54509804 0.71372549 0.60000000
v 0.12149728 -0.00916640 -0.00806119 0.54509804 0.71372549 0.60000000
v 0.12689852 -0.00646386 -0.00825545 0.54509804 0.71372549 0.60000000
v 0.12959915 -0.00916640 -0.00816543 0.54509804 0.71372549 0.60000000
v 0.13230212 -0.01186895 -0.00805408 0.54509804 0.71372549 0.60000000
v 0.12959915 -0.01727403 -0.00800434 0.54509804 0.71372549 0.60000000
v 0.12419790 -0.01457149 -0.00806593 0.54509804 0.71372549 0.60000000
v 0.11368241 -0.00646386 -0.00568271 0.54509804 0.71372549 0.60000000
v 0.11665827 -0.00376132 -0.00708279 0.54509804 0.71372549 0.60000000
v 0.13230212 -0.01457149 -0.00790721 0.54509804 0.71372549 0.60000000
v 0.13230212 -0.01727403 -0.00771058 0.54509804 0.71372549 0.60000000
v 0.13452989 -0.01457149 -0.00713965 0.54509804 0.71372549 0.60000000
v 0.13467810 -0.01186895 -0.00726284 0.54509804 0.71372549 0.60000000
v 0.13524975 0.00154725 -0.00718229 0.54509804 0.71372549 0.60000000
v 0.13500274 0.00434632 -0.00735997 0.54509804 0.71372549 0.60000000
v 0.13505684 0.01489910 -0.00682457 0.54509804 0.71372549 0.60000000
v 0.13500274 0.00704082 -0.00729837 0.54509804 0.71372549 0.60000000
v 0.13500274 0.00974336 -0.00719650 0.54509804 0.71372549 0.60000000
v 0.13500274 0.01244590 -0.00705910 0.54509804 0.71372549 0.60000000
v 0.13230212 0.04486034 -0.00443662 0.54509804 0.71372549 0.60000000
v 0.13371594 0.04644487 -0.00384911 0.54509804 0.71372549 0.60000000
v 0.13327369 0.04824656 -0.00366906 0.54509804 0.71372549 0.60000000
v 0.12959915 0.05296797 -0.00270725 0.54509804 0.71372549 0.60000000
v 0.13147170 0.04947718 -0.00395334 0.54509804 0.71372549 0.60000000
v 0.12959915 0.05115823 -0.00353640 0.54509804 0.71372549 0.60000000
v 0.12749134 0.04953349 -0.00396519 0.54509804 0.71372549 0.60000000
v 0.12671268 0.04773179 -0.00415471 0.54509804 0.71372549 0.60000000
v 0.12534355 0.04694355 -0.00393202 0.54509804 0.71372549 0.60000000
v 0.11368241 0.01242982 -0.00531552 0.54509804 0.71372549 0.60000000
v 0.11368241 0.01461759 -0.00459534 0.54509804 0.71372549 0.60000000
v 0.11368241 0.01493932 -0.00447452 0.54509804 0.71372549 0.60000000
v 0.11368241 0.01612973 -0.00372592 0.54509804 0.71372549 0.60000000
v 0.11368241 0.01627451 -0.00362642 0.54509804 0.71372549 0.60000000
v 0.11879431 -0.00376132 -0.00787404 0.54509804 0.71372549 0.60000000
v 0.12149728 -0.00646386 -0.00811094 0.54509804 0.71372549 0.60000000
v 0.12419790 -0.00646386 -0.00819622 0.54509804 0.71372549 0.60000000
v 0.12689852 -0.00376132 -0.00826493 0.54509804 0.71372549 0.60000000
v 0.12959915 -0.00376132 -0.00822939 0.54509804 0.71372549 0.60000000
v 0.12959915 -0.00646386 -0.00820807 0.54509804 0.71372549 0.60000000
v 0.13230212 -0.00916640 -0.00809199 0.54509804 0.71372549 0.60000000
v 0.11368241 0.00937337 -0.00550741 0.54509804 0.71372549 0.60000000
v 0.11664651 -0.00105877 -0.00707806 0.54509804 0.71372549 0.60000000
v 0.11879431 -0.00105877 -0.00788825 0.54509804 0.71372549 0.60000000
v 0.13230212 -0.00105877 -0.00815358 0.54509804 0.71372549 0.60000000
v 0.13230212 0.00434632 -0.00808251 0.54509804 0.71372549 0.60000000
v 0.13230212 0.00704082 -0.00804224 0.54509804 0.71372549 0.60000000
v 0.13230212 0.01244590 -0.00776980 0.54509804 0.71372549 0.60000000
v 0.13230212 0.01514845 -0.00752580 0.54509804 0.71372549 0.60000000
v 0.13230212 0.00974336 -0.00794274 0.54509804 0.71372549 0.60000000
v 0.12959915 0.04486034 -0.00476354 0.54509804 0.71372549 0.60000000
v 0.12959915 0.04756288 -0.00446268 0.54509804 0.71372549 0.60000000
v 0.13234447 0.04743419 -0.00408601 0.54509804 0.71372549 0.60000000
v 0.12959915 0.04980696 -0.00403389 0.54509804 0.71372549 0.60000000
v 0.12689852 0.04486034 -0.00454085 0.54509804 0.71372549 0.60000000
v 0.11879431 0.00704082 -0.00758976 0.54509804 0.71372549 0.60000000
v 0.11879431 0.00434632 -0.00782429 0.54509804 0.71372549 0.60000000
v 0.11368241 0.00974336 -0.00550030 0.54509804 0.71372549 0.60000000
v 0.12149728 -0.00105877 -0.00815121 0.54509804 0.71372549 0.60000000
v 0.12419790 -0.00376132 -0.00820570 0.54509804 0.71372549 0.60000000
v 0.12149728 0.00164377 -0.00815121 0.54509804 0.71372549 0.60000000
v 0.12689852 -0.00105877 -0.00824360 0.54509804 0.71372549 0.60000000
v 0.12959915 -0.00105877 -0.00822465 0.54509804 0.71372549 0.60000000
v 0.11673590 0.00434632 -0.00703068 0.54509804 0.71372549 0.60000000
v 0.11669120 0.00164377 -0.00705910 0.54509804 0.71372549 0.60000000
v 0.11879431 0.00164377 -0.00787167 0.54509804 0.71372549 0.60000000
v 0.12959915 0.00704082 -0.00809909 0.54509804 0.71372549 0.60000000
v 0.12959915 0.00974336 -0.00804461 0.54509804 0.71372549 0.60000000
v 0.12959915 0.01244590 -0.00797354 0.54509804 0.71372549 0.60000000
v 0.12959915 0.01514845 -0.00778639 0.54509804 0.71372549 0.60000000
v 0.12689852 0.01514845 -0.00768689 0.54509804 0.71372549 0.60000000
v 0.12419790 0.01244590 -0.00775085 0.54509804 0.71372549 0.60000000
v 0.12149728 0.00974336 -0.00774848 0.54509804 0.71372549 0.60000000
v 0.12149728 0.00704082 -0.00800434 0.54509804 0.71372549 0.60000000
v 0.12149728 0.00434632 -0.00811568 0.54509804 0.71372549 0.60000000
v 0.12419790 0.00434632 -0.00816306 0.54509804 0.71372549 0.60000000
v 0.12689852 0.00434632 -0.00819149 0.54509804 0.71372549 0.60000000
v 0.12689852 0.00704082 -0.00814411 0.54509804 0.71372549 0.60000000
v 0.12689852 0.01244590 -0.00795222 0.54509804 0.71372549 0.60000000
v 0.12689852 0.00974336 -0.00806593 0.54509804 0.71372549 0.60000000
v 0.12419790 0.00974336 -0.00801144 0.54509804 0.71372549 0.60000000
v 0.12419790 0.00704082 -0.00811568 0.54509804 0.71372549 0.60000000
f 1 2 3
f 1 3 4
f 1 4 5
f 1 5 6
f 1 6 7
f 1 7 8
f 1 8 9
f 1 9 10
f 1 10 2
f 2 11 12
f 2 12 13
f 2 13 3
f 2 10 11
f 3 13 4
f 4 14 15
f 4 15 16
f 4 16 5
f 4 13 14
f 5 16 40
f 5 40 17
f 5 17 18
f 5 18 19
f 5 19 20
f 5 20 21
f 5 21 22
f 5 22 6
f 6 23 7
f 6 22 23
f 7 23 24
f 7 24 25
f 7 25 26
f 7 26 8
f 8 26 27
f 8 27 28
f 8 28 9
f 9 28 29
f 9 29 30
f 9 30 31
f 9 31 10
f 10 32 33
f 10 33 11
f 10 31 32
f 11 34 12
f 11 33 34
f 12 34 13
f 13 34 35
f 13 35 36
f 13 36 37
f 13 37 14
f 14 37 15
f 15 37 38
f 15 38 16
f 16 38 39
f 16 39 40
f 17 40 41
f 17 41 42
f 17 42 18
f 18 42 41
f 18 41 43
f 18 43 44
f 18 44 19
f 19 44 20
f 20 44 21
f 21 44 45
f 21 45 22
f 22 45 46
f 22 46 23
f 23 46 47
f 23 47 48
f 23 48 49
f 23 49 50
f 23 50 24
f 24 50 25
f 25 50 51
f 25 51 52
f 25 52 26
f 26 53 27
f 26 52 54
f 26 54 55
f 26 55 56
f 26 56 29
f 26 29 53
f 27 53 28
f 28 53 29
f 29 56 57
f 29 57 58
f 29 58 59
f 29 59 30
f 30 59 60
f 30 60 31
f 31 60 61
f 31 61 62
f 31 62 63
f 31 63 33
f 31 33 32
f 33 63 62
f 33 62 34
f 34 64 65
f 34 65 35
f 34 62 64
f 35 65 36
f 36 65 37
f 37 65 66
f 37 66 67
f 37 67 68
f 37 68 69
f 37 69 70
f 37 70 39
f 37 39 38
f 39 70 71
f 39 71 72
f 39 72 40
f 40 72 73
f 40 73 41
f 41 73 74
f 41 74 75
f 41 75 43
f 43 75 76
f 43 76 77
f 43 77 78
f 43 78 79
f 43 79 80
f 43 80 44
f 44 81 45
f 44 80 82
f 44 82 81
f 45 83 48
f 45 48 46
f 45 81 82
f 45 82 84
f 45 84 83
f 46 48 47
f 48 83 84
f 48 84 85
f 48 85 49
f 49 85 50
f 50 85 86
f 50 86 51
f 51 87 88
f 51 88 54
f 51 54 52
f 51 86 87
f 54 88 89
f 54 89 90
f 54 90 55
f 55 90 91
f 55 91 57
f 55 57 56
f 57 91 92
f 57 92 58
f 58 92 93
f 58 93 94
f 58 94 60
f 58 60 59
f 60 94 95
f 60 95 61
f 61 95 96
f 61 96 97
f 61 97 98
f 61 98 99
f 61 99 100
f 61 100 62
f 62 100 101
f 62 101 64
f 64 101 102
f 64 102 65
f 65 102 103
f 65 103 104
f 65 104 66
f 66 104 67
f 67 105 68
f 67 104 105
f 68 105 106
f 68 106 69
f 69 107 108
f 69 108 70
f 69 106 107
f 70 108 109
f 70 109 71
f 71 109 110
f 71 110 74
f 71 74 73
f 71 73 72
f 74 110 75
f 75 110 76
f 76 110 111
f 76 111 112
f 76 112 77
f 77 112 113
f 77 113 78
f 78 113 79
f 79 113 114
f 79 114 115
f 79 115 80
f 80 115 82
f 82 115 116
f 82 116 84
f 84 116 117
f 84 117 85
f 85 117 118
f 85 118 119
f 85 119 120
f 85 120 86
f 86 120 87
f 87 120 119
f 87 119 121
f 87 121 88
f 88 121 89
f 89 121 122
f 89 122 123
f 89 123 90
f 90 123 91
f 91 123 124
f 91 124 125
f 91 125 126
f 91 126 92
f 92 126 93
f 93 126 127
f 93 127 94
f 94 128 95
f 94 127 129
f 94 129 128
f 95 128 96
f 96 128 130
f 96 130 131
f 96 131 132
f 96 132 133
f 96 133 134
f 96 134 135
f 96 135 136
f 96 136 98
f 96 98 97
f 98 136 135
f 98 135 134
f 98 134 133
f 98 133 132
f 98 132 131
f 98 131 172
f 98 172 200
f 98 200 239
f 98 239 272
f 98 272 271
f 98 271 270
f 98 270 269
f 98 269 306
f 98 306 305
f 98 305 304
f 98 304 303
f 98 303 302
f 98 302 330
f 98 330 314
f 98 314 281
f 98 281 244
f 98 244 208
f 98 208 207
f 98 207 206
f 98 206 178
f 98 178 211
f 98 211 210
f 98 210 203
f 98 203 202
f 98 202 201
f 98 201 173
f 98 173 140
f 98 140 107
f 98 107 139
f 98 139 138
f 98 138 137
f 98 137 103
f 98 103 101
f 98 101 100
f 98 100 99
f 101 103 102
f 103 137 106
f 103 106 105
f 103 105 104
f 106 137 138
f 106 138 139
f 106 139 107
f 107 140 141
f 107 141 142
f 107 142 109
f 107 109 108
f 109 142 141
f 109 141 143
f 109 143 110
f 110 143 111
f 111 143 144
f 111 144 145
f 111 145 146
f 111 146 112
f 112 146 113
f 113 147 148
f 113 148 114
f 113 146 147
f 114 148 149
f 114 149 115
f 115 149 116
f 116 149 150
f 116 150 151
f 116 151 152
f 116 152 153
f 116 153 117
f 117 153 118
f 118 154 155
f 118 155 119
f 118 153 154
f 119 155 156
f 119 156 121
f 121 157 158
f 121 158 122
f 121 156 157
f 122 158 159
f 122 159 160
f 122 160 123
f 123 160 161
f 123 161 125
f 123 125 124
f 125 162 163
f 125 163 164
f 125 164 126
f 125 161 162
f 126 164 165
f 126 165 127
f 127 165 129
f 128 129 166
f 128 166 130
f 129 165 167
f 129 167 168
f 129 168 169
f 129 169 166
f 130 166 170
f 130 170 171
f 130 171 172
f 130 172 131
f 140 173 174
f 140 174 141
f 141 174 143
f 143 174 144
f 144 174 145
f 145 175 176
f 145 176 146
f 145 174 177
f 145 177 178
f 145 178 175
f 146 176 179
f 146 179 180
f 146 180 147
f 147 180 148
f 148 181 182
f 148 182 149
f 148 180 181
f 149 183 150
f 149 182 183
f 150 184 151
f 150 183 184
f 151 184 185
f 151 185 154
f 151 154 186
f 151 186 153
f 151 153 152
f 153 186 154
f 154 185 155
f 155 185 156
f 156 187 157
f 156 185 188
f 156 188 189
f 156 189 187
f 157 190 191
f 157 191 158
f 157 187 190
f 158 191 192
f 158 192 159
f 159 192 193
f 159 193 161
f 159 161 160
f 161 193 162
f 162 193 194
f 162 194 163
f 163 195 167
f 163 167 164
f 163 194 195
f 164 167 165
f 166 169 170
f 167 195 196
f 167 196 197
f 167 197 168
f 168 197 169
f 169 197 198
f 169 198 170
f 170 198 171
f 171 198 199
f 171 199 200
f 171 200 172
f 173 201 174
f 174 201 202
f 174 202 203
f 174 203 177
f 175 204 205
f 175 205 176
f 175 178 206
f 175 206 207
f 175 207 208
f 175 208 204
f 176 205 209
f 176 209 179
f 177 203 210
f 177 210 211
f 177 211 178
f 179 209 180
f 180 209 212
f 180 212 213
f 180 213 214
f 180 214 215
f 180 215 181
f 181 215 182
f 182 215 216
f 182 216 217
f 182 217 183
f 183 217 218
f 183 218 219
f 183 219 184
f 184 219 185
f 185 219 188
f 187 220 221
f 187 221 190
f 187 189 222
f 187 222 223
f 187 223 224
f 187 224 220
f 188 219 218
f 188 218 189
f 189 225 223
f 189 223 222
f 189 218 217
f 189 217 225
f 190 226 191
f 190 221 226
f 191 226 227
f 191 227 192
f 192 228 229
f 192 229 230
f 192 230 193
f 192 227 228
f 193 230 194
f 194 230 195
f 195 230 231
f 195 231 232
f 195 232 196
f 196 232 233
f 196 233 197
f 197 233 234
f 197 234 235
f 197 235 236
f 197 236 237
f 197 237 198
f 198 237 236
f 198 236 238
f 198 238 199
f 199 238 200
f 200 238 239
f 204 240 205
f 204 208 241
f 204 241 242
f 204 242 240
f 205 240 243
f 205 243 209
f 208 244 245
f 208 245 241
f 209 243 246
f 209 246 212
f 212 246 213
f 213 246 247
f 213 247 214
f 214 247 248
f 214 248 216
f 214 216 215
f 216 248 249
f 216 249 250
f 216 250 217
f 217 250 249
f 217 249 251
f 217 251 252
f 217 252 253
f 217 253 225
f 220 224 254
f 220 254 221
f 221 254 226
f 223 225 252
f 223 252 255
f 223 255 254
f 223 254 224
f 225 253 252
f 226 256 257
f 226 257 258
f 226 258 227
f 226 254 256
f 227 258 228
f 228 259 230
f 228 230 229
f 228 258 260
f 228 260 261
f 228 261 259
f 230 259 262
f 230 262 231
f 231 262 232
f 232 262 263
f 232 263 264
f 232 264 235
f 232 235 233
f 233 235 234
f 235 264 265
f 235 265 266
f 235 266 267
f 235 267 268
f 235 268 238
f 235 238 236
f 238 268 269
f 238 269 270
f 238 270 271
f 238 271 272
f 238 272 239
f 240 273 243
f 240 242 274
f 240 274 275
f 240 275 273
f 241 245 242
f 242 245 274
f 243 276 277
f 243 277 278
f 243 278 279
f 243 279 246
f 243 273 280
f 243 280 276
f 244 281 245
f 245 281 282
f 245 282 274
f 246 279 278
f 246 278 283
f 246 283 284
f 246 284 247
f 247 284 248
f 248 284 285
f 248 285 249
f 249 285 286
f 249 286 252
f 249 252 251
f 252 287 288
f 252 288 255
f 252 286 287
f 254 289 256
f 254 255 288
f 254 288 290
f 254 290 291
f 254 291 292
f 254 292 289
f 256 293 294
f 256 294 257
f 256 289 293
f 257 294 258
f 258 294 295
f 258 295 260
f 259 261 296
f 259 296 263
f 259 263 262
f 260 295 297
f 260 297 261
f 261 297 298
f 261 298 296
f 263 296 265
f 263 265 264
f 265 296 298
f 265 298 266
f 266 298 299
f 266 299 267
f 267 299 300
f 267 300 301
f 267 301 302
f 267 302 303
f 267 303 304
f 267 304 268
f 268 304 305
f 268 305 306
f 268 306 269
f 273 275 280
f 274 282 307
f 274 307 308
f 274 308 275
f 275 308 280
f 276 309 332
f 276 332 310
f 276 310 311
f 276 311 312
f 276 312 277
f 276 280 309
f 277 312 278
f 278 312 313
f 278 313 286
f 278 286 283
f 280 308 309
f 281 314 315
f 281 315 282
f 282 315 316
f 282 316 307
f 283 285 284
f 283 286 285
f 286 313 288
f 286 288 287
f 288 313 317
f 288 317 318
f 288 318 319
f 288 319 290
f 289 292 320
f 289 320 321
f 289 321 293
f 290 319 322
f 290 322 291
f 291 322 292
f 292 322 320
f 293 323 324
f 293 324 297
f 293 297 325
f 293 325 294
f 293 321 323
f 294 325 295
f 295 325 297
f 297 324 326
f 297 326 298
f 298 326 299
f 299 326 324
f 299 324 300
f 300 324 327
f 300 327 328
f 300 328 301
f 301 328 302
f 302 328 329
f 302 329 330
f 307 316 331
f 307 331 308
f 308 331 309
f 309 331 332
f 310 332 331
f 310 331 333
f 310 333 334
f 310 334 335
f 310 335 311
f 311 335 317
f 311 317 313
f 311 313 312
f 314 330 336
f 314 336 337
f 314 337 315
f 315 337 338
f 315 338 316
f 316 338 333
f 316 333 331
f 317 335 318
f 318 335 319
f 319 339 340
f 319 340 341
f 319 341 322
f 319 335 339
f 320 341 342
f 320 342 321
f 320 322 341
f 321 342 323
f 323 327 324
f 323 342 343
f 323 343 344
f 323 344 327
f 327 344 345
f 327 345 328
f 328 345 346
f 328 346 329
f 329 336 330
f 329 346 347
f 329 347 338
f 329 338 336
f 333 338 347
f 333 347 348
f 333 348 334
f 334 349 335
f 334 348 349
f 335 349 339
f 336 338 337
f 339 350 340
f 339 349 350
f 340 350 341
f 341 351 342
f 341 350 352
f 341 352 351
f 342 351 343
f 343 351 344
f 344 351 353
f 344 353 345
f 345 353 346
f 346 353 347
f 347 353 354
f 347 354 348
f 348 354 350
f 348 350 349
f 350 354 352
f 351 352 353
f 352 354 353

