# https://github.com/mikedh/trimesh
v 0.11368241 0.00126494 -0.00288785 0.11764706 0.63921569 0.14117647
v 0.11368241 -0.00964715 0.00294288 0.11764706 0.63921569 0.14117647
v 0.11368241 0.00126494 -0.00556027 0.11764706 0.63921569 0.14117647
v 0.11343296 0.00126494 -0.00289576 0.11764706 0.63921569 0.14117647
v 0.08101054 -0.00990517 0.00294288 0.11764706 0.63921569 0.14117647
v 0.11368241 -0.01226649 0.00294288 0.11764706 0.63921569 0.14117647
v 0.11368241 -0.00106510 -0.00561338 0.11764706 0.63921569 0.14117647
v 0.11025724 -0.00376732 -0.00673772 0.11764706 0.63921569 0.14117647
v 0.10990544 0.00126494 -0.00664167 0.11764706 0.63921569 0.14117647
v 0.11338818 0.00126494 -0.00289802 0.11764706 0.63921569 0.14117647
v 0.08101054 0.00126494 -0.00510150 0.11764706 0.63921569 0.14117647
v 0.08101054 -0.01260114 0.00294288 0.11764706 0.63921569 0.14117647
v 0.11368241 -0.01223834 0.00064223 0.11764706 0.63921569 0.14117647
v 0.10971355 -0.01329858 0.00294288 0.11764706 0.63921569 0.14117647
v 0.11368241 -0.00376732 -0.00565293 0.11764706 0.63921569 0.14117647
v 0.11032759 -0.00646954 -0.00676484 0.11764706 0.63921569 0.14117647
v 0.10798338 -0.00646954 -0.00737277 0.11764706 0.63921569 0.14117647
v 0.10798338 -0.00376732 -0.00732305 0.11764706 0.63921569 0.14117647
v 0.10827121 0.00126494 -0.00706655 0.11764706 0.63921569 0.14117647
v 0.08101054 0.00126494 -0.00794116 0.11764706 0.63921569 0.14117647
v 0.08101054 -0.01248542 0.00029080 0.11764706 0.63921569 0.14117647
v 0.08413829 -0.01328138 0.00137220 0.11764706 0.63921569 0.14117647
v 0.08413829 -0.01328138 0.00222873 0.11764706 0.63921569 0.14117647
v 0.08351146 -0.01304838 0.00294288 0.11764706 0.63921569 0.14117647
v 0.11368241 -0.01223208 0.00024108 0.11764706 0.63921569 0.14117647
v 0.10798338 -0.01372393 0.00294288 0.11764706 0.63921569 0.14117647
v 0.11368241 -0.00646954 -0.00568231 0.11764706 0.63921569 0.14117647
v 0.11368241 -0.00684015 -0.00566310 0.11764706 0.63921569 0.14117647
v 0.11368241 -0.00917019 -0.00551846 0.11764706 0.63921569 0.14117647
v 0.10999819 -0.00853373 -0.00667783 0.11764706 0.63921569 0.14117647
v 0.10528417 -0.00646954 -0.00791856 0.11764706 0.63921569 0.14117647
v 0.10528417 -0.00376732 -0.00792308 0.11764706 0.63921569 0.14117647
v 0.10528417 0.00126494 -0.00782590 0.11764706 0.63921569 0.14117647
v 0.10565516 0.00126494 -0.00773437 0.11764706 0.63921569 0.14117647
v 0.08101054 -0.00106510 -0.00803495 0.11764706 0.63921569 0.14117647
v 0.09718017 0.00126494 -0.00845869 0.11764706 0.63921569 0.14117647
v 0.08101054 -0.01248229 0.00024334 0.11764706 0.63921569 0.14117647
v 0.08101054 -0.01173480 -0.00241100 0.11764706 0.63921569 0.14117647
v 0.09447777 -0.01334081 -0.00140305 0.11764706 0.63921569 0.14117647
v 0.09718017 -0.01347373 -0.00174205 0.11764706 0.63921569 0.14117647
v 0.09987938 -0.01427439 0.00024108 0.11764706 0.63921569 0.14117647
v 0.09987938 -0.01458871 0.00294288 0.11764706 0.63921569 0.14117647
v 0.08460521 -0.01321414 0.00294288 0.11764706 0.63921569 0.14117647
v 0.11368241 -0.01211949 -0.00208330 0.11764706 0.63921569 0.14117647
v 0.10950888 -0.01325636 0.00024108 0.11764706 0.63921569 0.14117647
v 0.10940014 -0.01323291 -0.00117366 0.11764706 0.63921569 0.14117647
v 0.10528417 -0.01438072 0.00294288 0.11764706 0.63921569 0.14117647
v 0.11368241 -0.00942665 -0.00542129 0.11764706 0.63921569 0.14117647
v 0.10905795 -0.01033521 -0.00644731 0.11764706 0.63921569 0.14117647
v 0.10808892 -0.00932813 -0.00690835 0.11764706 0.63921569 0.14117647
v 0.10528417 -0.00917019 -0.00735808 0.11764706 0.63921569 0.14117647
v 0.10258178 -0.00646954 -0.00815699 0.11764706 0.63921569 0.14117647
v 0.10258178 -0.00376732 -0.00830162 0.11764706 0.63921569 0.14117647
v 0.10258178 -0.00106510 -0.00832874 0.11764706 0.63921569 0.14117647
v 0.10258178 0.00126494 -0.00827902 0.11764706 0.63921569 0.14117647
v 0.08101054 -0.00110888 -0.00803269 0.11764706 0.63921569 0.14117647
v 0.09754795 0.00126494 -0.00846999 0.11764706 0.63921569 0.14117647
v 0.09987938 -0.00106510 -0.00860107 0.11764706 0.63921569 0.14117647
v 0.08101054 -0.01171760 -0.00246072 0.11764706 0.63921569 0.14117647
v 0.09987938 -0.01358945 -0.00201889 0.11764706 0.63921569 0.14117647
v 0.10258178 -0.01441982 0.00024108 0.11764706 0.63921569 0.14117647
v 0.10258178 -0.01470912 0.00294288 0.11764706 0.63921569 0.14117647
v 0.11368241 -0.01209447 -0.00246072 0.11764706 0.63921569 0.14117647
v 0.10528417 -0.01417900 0.00024108 0.11764706 0.63921569 0.14117647
v 0.10798338 -0.01335645 -0.00164487 0.11764706 0.63921569 0.14117647
v 0.10798338 -0.01299365 -0.00299407 0.11764706 0.63921569 0.14117647
v 0.11368241 -0.01126254 -0.00458397 0.11764706 0.63921569 0.14117647
v 0.10725741 -0.01065266 -0.00661681 0.11764706 0.63921569 0.14117647
v 0.10528417 -0.01071834 -0.00667331 0.11764706 0.63921569 0.14117647
v 0.10258178 -0.00917019 -0.00742136 0.11764706 0.63921569 0.14117647
v 0.09987938 -0.00646954 -0.00815586 0.11764706 0.63921569 0.14117647
v 0.09987938 -0.00376732 -0.00842931 0.11764706 0.63921569 0.14117647
v 0.09987938 0.00126494 -0.00851519 0.11764706 0.63921569 0.14117647
v 0.08101054 -0.00376732 -0.00788805 0.11764706 0.63921569 0.14117647
v 0.08101054 -0.01090287 -0.00421446 0.11764706 0.63921569 0.14117647
v 0.09718017 -0.01286385 -0.00309125 0.11764706 0.63921569 0.14117647
v 0.09987938 -0.01295612 -0.00336923 0.11764706 0.63921569 0.14117647
v 0.10258178 -0.01366764 -0.00218387 0.11764706 0.63921569 0.14117647
v 0.10528417 -0.01358476 -0.00216014 0.11764706 0.63921569 0.14117647
v 0.10528417 -0.01304212 -0.00351048 0.11764706 0.63921569 0.14117647
v 0.11068578 -0.01147365 -0.00489019 0.11764706 0.63921569 0.14117647
v 0.10808892 -0.01149867 -0.00539304 0.11764706 0.63921569 0.14117647
v 0.10528417 -0.01188962 -0.00516139 0.11764706 0.63921569 0.14117647
v 0.10258178 -0.01179110 -0.00516139 0.11764706 0.63921569 0.14117647
v 0.10258178 -0.01065579 -0.00662472 0.11764706 0.63921569 0.14117647
v 0.09985059 -0.00940945 -0.00715130 0.11764706 0.63921569 0.14117647
v 0.08101054 -0.00646954 -0.00719311 0.11764706 0.63921569 0.14117647
v 0.08101054 -0.01088879 -0.00424384 0.11764706 0.63921569 0.14117647
v 0.09985059 -0.01141735 -0.00540321 0.11764706 0.63921569 0.14117647
v 0.10258178 -0.01300616 -0.00353421 0.11764706 0.63921569 0.14117647
v 0.10073007 -0.01056978 -0.00655240 0.11764706 0.63921569 0.14117647
v 0.08101054 -0.00793011 -0.00657839 0.11764706 0.63921569 0.14117647
v 0.08101054 -0.00928122 -0.00559530 0.11764706 0.63921569 0.14117647
v 0.09892954 -0.01046814 -0.00646539 0.11764706 0.63921569 0.14117647
v 0.08101054 -0.00795200 -0.00656370 0.11764706 0.63921569 0.14117647
f 1 2 6
f 1 6 13
f 1 13 25
f 1 25 44
f 1 44 63
f 1 63 67
f 1 67 48
f 1 48 29
f 1 29 28
f 1 28 27
f 1 27 15
f 1 15 7
f 1 7 3
f 1 3 9
f 1 9 19
f 1 19 34
f 1 34 33
f 1 33 55
f 1 55 73
f 1 73 57
f 1 57 36
f 1 36 20
f 1 20 11
f 1 11 10
f 1 10 4
f 1 4 5
f 1 5 2
f 2 5 12
f 2 12 24
f 2 24 43
f 2 43 42
f 2 42 62
f 2 62 47
f 2 47 26
f 2 26 14
f 2 14 6
f 3 7 8
f 3 8 9
f 4 10 5
f 5 11 20
f 5 20 35
f 5 35 56
f 5 56 74
f 5 74 87
f 5 87 92
f 5 92 95
f 5 95 93
f 5 93 88
f 5 88 75
f 5 75 59
f 5 59 38
f 5 38 37
f 5 37 21
f 5 21 12
f 5 10 11
f 6 14 13
f 7 15 16
f 7 16 8
f 8 16 17
f 8 17 18
f 8 18 19
f 8 19 9
f 12 21 22
f 12 22 23
f 12 23 24
f 13 14 25
f 14 26 25
f 15 27 16
f 16 27 28
f 16 28 29
f 16 29 30
f 16 30 17
f 17 31 32
f 17 32 18
f 17 30 31
f 18 32 33
f 18 33 34
f 18 34 19
f 20 36 35
f 21 37 22
f 22 37 38
f 22 38 39
f 22 39 40
f 22 40 41
f 22 41 42
f 22 42 23
f 23 42 43
f 23 43 24
f 25 26 45
f 25 45 46
f 25 46 44
f 26 47 46
f 26 46 45
f 29 48 49
f 29 49 30
f 30 49 50
f 30 50 31
f 31 50 51
f 31 51 52
f 31 52 53
f 31 53 54
f 31 54 32
f 32 54 33
f 33 54 55
f 35 36 57
f 35 57 58
f 35 58 56
f 38 59 39
f 39 59 40
f 40 59 60
f 40 60 41
f 41 60 61
f 41 61 42
f 42 61 62
f 44 46 63
f 46 47 64
f 46 64 65
f 46 65 66
f 46 66 63
f 47 62 64
f 48 67 49
f 49 67 68
f 49 68 50
f 50 68 51
f 51 68 69
f 51 69 70
f 51 70 52
f 52 70 71
f 52 71 72
f 52 72 58
f 52 58 53
f 53 58 54
f 54 58 55
f 55 58 73
f 56 58 74
f 57 73 58
f 58 72 74
f 59 75 76
f 59 76 60
f 60 77 78
f 60 78 61
f 60 76 77
f 61 78 79
f 61 79 64
f 61 64 62
f 63 66 67
f 64 79 65
f 65 79 66
f 66 79 80
f 66 80 67
f 67 81 82
f 67 82 68
f 67 80 81
f 68 82 83
f 68 83 69
f 69 83 84
f 69 84 85
f 69 85 70
f 70 85 86
f 70 86 87
f 70 87 71
f 71 87 74
f 71 74 72
f 75 88 76
f 76 88 77
f 77 89 84
f 77 84 90
f 77 90 78
f 77 88 89
f 78 90 80
f 78 80 79
f 80 83 82
f 80 82 81
f 80 90 83
f 83 90 84
f 84 89 85
f 85 89 88
f 85 88 91
f 85 91 86
f 86 91 92
f 86 92 87
f 88 93 94
f 88 94 91
f 91 94 92
f 92 94 95
f 93 95 94

