# https://github.com/mikedh/trimesh
v 0.11368241 0.02275185 0.00434155 0.38039216 0.78823529 0.52549020
v 0.11368241 0.02273502 0.00568777 0.38039216 0.78823529 0.52549020
v 0.11368241 0.01878931 0.00434155 0.38039216 0.78823529 0.52549020
v 0.11168999 0.02210194 0.00434155 0.38039216 0.78823529 0.52549020
v 0.11168999 0.02210194 0.00482642 0.38039216 0.78823529 0.52549020
v 0.11368241 0.02196313 0.00700261 0.38039216 0.78823529 0.52549020
v 0.08101054 0.01206729 0.00434155 0.38039216 0.78823529 0.52549020
v 0.08101054 0.01193478 0.00560315 0.38039216 0.78823529 0.52549020
v 0.08101054 0.01192847 0.00564594 0.38039216 0.78823529 0.52549020
v 0.08101054 0.01125543 0.00728687 0.38039216 0.78823529 0.52549020
v 0.08101054 0.01047091 0.00863784 0.38039216 0.78823529 0.52549020
v 0.11368241 0.00126494 0.00889834 0.38039216 0.78823529 0.52549020
v 0.11332102 0.01812468 0.00434155 0.38039216 0.78823529 0.52549020
v 0.11368241 0.02094725 0.00777364 0.38039216 0.78823529 0.52549020
v 0.08101054 0.00912062 0.01049839 0.38039216 0.78823529 0.52549020
v 0.08101054 0.00754738 0.01182844 0.38039216 0.78823529 0.52549020
v 0.08101054 0.00752214 0.01184936 0.38039216 0.78823529 0.52549020
v 0.08101054 0.00916689 0.00434155 0.38039216 0.78823529 0.52549020
v 0.11368241 0.00126494 0.01152326 0.38039216 0.78823529 0.52549020
v 0.11342975 0.00126494 0.00888503 0.38039216 0.78823529 0.52549020
v 0.08909535 0.00917951 0.00434155 0.38039216 0.78823529 0.52549020
v 0.09177537 0.00952865 0.00434155 0.38039216 0.78823529 0.52549020
v 0.09317614 0.00990093 0.00434155 0.38039216 0.78823529 0.52549020
v 0.09455452 0.01032999 0.00434155 0.38039216 0.78823529 0.52549020
v 0.09579219 0.01072120 0.00434155 0.38039216 0.78823529 0.52549020
v 0.09983779 0.01205887 0.00434155 0.38039216 0.78823529 0.52549020
v 0.10273528 0.01312523 0.00434155 0.38039216 0.78823529 0.52549020
v 0.11368241 0.02068855 0.00794857 0.38039216 0.78823529 0.52549020
v 0.08101054 0.00619078 0.01262324 0.38039216 0.78823529 0.52549020
v 0.10356679 0.01119654 0.01246162 0.38039216 0.78823529 0.52549020
v 0.08101054 0.00126494 0.01043374 0.38039216 0.78823529 0.52549020
v 0.08256481 0.00916899 0.00434155 0.38039216 0.78823529 0.52549020
v 0.11338818 0.00126494 0.00888312 0.38039216 0.78823529 0.52549020
v 0.11368241 0.00433991 0.01166492 0.38039216 0.78823529 0.52549020
v 0.11025084 0.00163722 0.01261754 0.38039216 0.78823529 0.52549020
v 0.11020926 0.00126494 0.01260898 0.38039216 0.78823529 0.52549020
v 0.11368241 0.01850116 0.00925010 0.38039216 0.78823529 0.52549020
v 0.08101054 0.00616975 0.01263465 0.38039216 0.78823529 0.52549020
v 0.10263294 0.00991775 0.01295314 0.38039216 0.78823529 0.52549020
v 0.10438871 0.01119654 0.01246162 0.38039216 0.78823529 0.52549020
v 0.11368241 0.01591625 0.01052216 0.38039216 0.78823529 0.52549020
v 0.11368241 0.01709197 0.01000497 0.38039216 0.78823529 0.52549020
v 0.08101054 0.00126494 0.01302254 0.38039216 0.78823529 0.52549020
v 0.11368241 0.00704260 0.01174953 0.38039216 0.78823529 0.52549020
v 0.11046191 0.00433991 0.01265937 0.38039216 0.78823529 0.52549020
v 0.10798338 0.00163722 0.01319177 0.38039216 0.78823529 0.52549020
v 0.10798338 0.00126494 0.01317085 0.38039216 0.78823529 0.52549020
v 0.08101054 0.00433991 0.01309765 0.38039216 0.78823529 0.52549020
v 0.09987938 0.00704260 0.01372512 0.38039216 0.78823529 0.52549020
v 0.10258178 0.00704260 0.01385442 0.38039216 0.78823529 0.52549020
v 0.10528738 0.00990934 0.01284761 0.38039216 0.78823529 0.52549020
v 0.11368241 0.01537151 0.01073607 0.38039216 0.78823529 0.52549020
v 0.09177537 0.00126494 0.01372132 0.38039216 0.78823529 0.52549020
v 0.08101054 0.00163722 0.01309004 0.38039216 0.78823529 0.52549020
v 0.11368241 0.00744432 0.01175334 0.38039216 0.78823529 0.52549020
v 0.11049070 0.00704260 0.01262800 0.38039216 0.78823529 0.52549020
v 0.10798338 0.00433991 0.01323265 0.38039216 0.78823529 0.52549020
v 0.10528417 0.00163722 0.01375460 0.38039216 0.78823529 0.52549020
v 0.10761240 0.00126494 0.01325452 0.38039216 0.78823529 0.52549020
v 0.09177537 0.00163722 0.01375745 0.38039216 0.78823529 0.52549020
v 0.09447777 0.00163722 0.01390291 0.38039216 0.78823529 0.52549020
v 0.09718017 0.00433991 0.01395805 0.38039216 0.78823529 0.52549020
v 0.10258178 0.00433991 0.01402270 0.38039216 0.78823529 0.52549020
v 0.10528417 0.00433991 0.01376981 0.38039216 0.78823529 0.52549020
v 0.10528417 0.00704260 0.01359773 0.38039216 0.78823529 0.52549020
v 0.11368241 0.01273402 0.01139206 0.38039216 0.78823529 0.52549020
v 0.09987938 0.00433991 0.01404646 0.38039216 0.78823529 0.52549020
v 0.09447777 0.00126494 0.01388009 0.38039216 0.78823529 0.52549020
v 0.11368241 0.01010705 0.01164781 0.38039216 0.78823529 0.52549020
v 0.11368241 0.01244377 0.01142914 0.38039216 0.78823529 0.52549020
v 0.10258178 0.00163722 0.01401319 0.38039216 0.78823529 0.52549020
v 0.10258178 0.00126494 0.01400558 0.38039216 0.78823529 0.52549020
v 0.10491000 0.00126494 0.01378217 0.38039216 0.78823529 0.52549020
v 0.10528417 0.00126494 0.01373938 0.38039216 0.78823529 0.52549020
v 0.09718017 0.00126494 0.01398086 0.38039216 0.78823529 0.52549020
v 0.09718017 0.00163722 0.01399132 0.38039216 0.78823529 0.52549020
v 0.09987938 0.00163722 0.01405407 0.38039216 0.78823529 0.52549020
v 0.09987938 0.00126494 0.01404456 0.38039216 0.78823529 0.52549020
f 1 2 6
f 1 6 14
f 1 14 28
f 1 28 37
f 1 37 42
f 1 42 41
f 1 41 52
f 1 52 66
f 1 66 70
f 1 70 69
f 1 69 55
f 1 55 44
f 1 44 34
f 1 34 19
f 1 19 12
f 1 12 3
f 1 3 13
f 1 13 27
f 1 27 26
f 1 26 25
f 1 25 24
f 1 24 23
f 1 23 22
f 1 22 21
f 1 21 32
f 1 32 18
f 1 18 7
f 1 7 4
f 1 4 5
f 1 5 2
f 2 5 7
f 2 7 8
f 2 8 9
f 2 9 10
f 2 10 11
f 2 11 6
f 3 12 13
f 4 7 5
f 6 11 15
f 6 15 16
f 6 16 17
f 6 17 14
f 7 18 31
f 7 31 43
f 7 43 54
f 7 54 48
f 7 48 38
f 7 38 29
f 7 29 17
f 7 17 16
f 7 16 15
f 7 15 11
f 7 11 10
f 7 10 9
f 7 9 8
f 12 19 36
f 12 36 47
f 12 47 59
f 12 59 74
f 12 74 73
f 12 73 72
f 12 72 78
f 12 78 75
f 12 75 68
f 12 68 53
f 12 53 43
f 12 43 31
f 12 31 33
f 12 33 20
f 12 20 21
f 12 21 22
f 12 22 23
f 12 23 24
f 12 24 25
f 12 25 26
f 12 26 27
f 12 27 13
f 14 17 28
f 17 29 30
f 17 30 28
f 18 32 33
f 18 33 31
f 19 34 35
f 19 35 36
f 20 33 21
f 21 33 32
f 28 30 37
f 29 38 30
f 30 39 40
f 30 40 41
f 30 41 42
f 30 42 37
f 30 38 39
f 34 44 45
f 34 45 35
f 35 45 46
f 35 46 36
f 36 46 47
f 38 48 49
f 38 49 39
f 39 50 51
f 39 51 52
f 39 52 40
f 39 49 50
f 40 52 41
f 43 53 54
f 44 55 45
f 45 56 57
f 45 57 46
f 45 55 56
f 46 57 58
f 46 58 59
f 46 59 47
f 48 54 60
f 48 60 61
f 48 61 62
f 48 62 49
f 49 62 50
f 50 63 64
f 50 64 65
f 50 65 66
f 50 66 52
f 50 52 51
f 50 62 67
f 50 67 63
f 53 68 60
f 53 60 54
f 55 69 56
f 56 65 64
f 56 64 57
f 56 69 70
f 56 70 65
f 57 64 58
f 58 64 71
f 58 71 72
f 58 72 73
f 58 73 74
f 58 74 59
f 60 68 61
f 61 68 75
f 61 75 76
f 61 76 67
f 61 67 62
f 63 71 64
f 63 67 77
f 63 77 71
f 65 70 66
f 67 76 77
f 71 77 72
f 72 77 78
f 75 78 76
f 76 78 77

