# https://github.com/mikedh/trimesh
v -0.13885440 0.01839545 0.02692694 0.54117647 0.42352941 0.64313725
v -0.13885440 0.02117151 0.02676614 0.54117647 0.42352941 0.64313725
v -0.14124261 0.02131221 0.02635725 0.54117647 0.42352941 0.64313725
v -0.14099784 0.01839545 0.02655021 0.54117647 0.42352941 0.64313725
v -0.13885440 0.01565750 0.02689632 0.54117647 0.42352941 0.64313725
v -0.13885440 0.02362804 0.02633581 0.54117647 0.42352941 0.64313725
v -0.14049220 0.02327627 0.02623167 0.54117647 0.42352941 0.64313725
v -0.14232037 0.02234408 0.02598664 0.54117647 0.42352941 0.64313725
v -0.14248052 0.02051487 0.02606781 0.54117647 0.42352941 0.64313725
v -0.14252282 0.01839545 0.02609078 0.54117647 0.42352941 0.64313725
v -0.14247246 0.01565750 0.02606628 0.54117647 0.42352941 0.64313725
v -0.14099784 0.01565750 0.02649967 0.54117647 0.42352941 0.64313725
v -0.14105525 0.01478980 0.02642770 0.54117647 0.42352941 0.64313725
v -0.13919284 0.01478980 0.02677074 0.54117647 0.42352941 0.64313725
v -0.13885440 0.01546989 0.02688253 0.54117647 0.42352941 0.64313725
v -0.13885440 0.02463058 0.02599430 0.54117647 0.42352941 0.64313725
v -0.14124261 0.02406482 0.02572936 0.54117647 0.42352941 0.64313725
v -0.14515075 0.02261083 0.02332500 0.54117647 0.42352941 0.64313725
v -0.14533306 0.02113633 0.02356084 0.54117647 0.42352941 0.64313725
v -0.14353310 0.02131221 0.02513363 0.54117647 0.42352941 0.64313725
v -0.14295191 0.02606698 0.02385335 0.54117647 0.42352941 0.64313725
v -0.14381513 0.02366615 0.02418873 0.54117647 0.42352941 0.64313725
v -0.14389269 0.01839545 0.02512903 0.54117647 0.42352941 0.64313725
v -0.14577022 0.01016987 0.02386253 0.54117647 0.42352941 0.64313725
v -0.14169587 0.01478980 0.02626996 0.54117647 0.42352941 0.64313725
v -0.14241202 0.01389864 0.02603258 0.54117647 0.42352941 0.64313725
v -0.14117511 0.01295473 0.02627149 0.54117647 0.42352941 0.64313725
v -0.13885440 0.01478980 0.02682434 0.54117647 0.42352941 0.64313725
v -0.13885440 0.01510346 0.02685497 0.54117647 0.42352941 0.64313725
v -0.14008426 0.01294007 0.02644301 0.54117647 0.42352941 0.64313725
v -0.13885440 0.02491200 0.02587178 0.54117647 0.42352941 0.64313725
v -0.13885440 0.02666499 0.02496670 0.54117647 0.42352941 0.64313725
v -0.14118217 0.02683795 0.02431125 0.54117647 0.42352941 0.64313725
v -0.14477706 0.02443711 0.02252406 0.54117647 0.42352941 0.64313725
v -0.14543782 0.02366615 0.02172465 0.54117647 0.42352941 0.64313725
v -0.14605325 0.02113633 0.02189770 0.54117647 0.42352941 0.64313725
v -0.14794689 0.01203719 0.02073993 0.54117647 0.42352941 0.64313725
v -0.14549523 0.01839545 0.02375840 0.54117647 0.42352941 0.64313725
v -0.14375873 0.02662982 0.02190995 0.54117647 0.42352941 0.64313725
v -0.14222064 0.02789619 0.02312285 0.54117647 0.42352941 0.64313725
v -0.14572891 0.01291369 0.02386100 0.54117647 0.42352941 0.64313725
v -0.14714210 0.01016987 0.02220858 0.54117647 0.42352941 0.64313725
v -0.14796099 0.00851948 0.02072768 0.54117647 0.42352941 0.64313725
v -0.14549221 0.00819996 0.02360066 0.54117647 0.42352941 0.64313725
v -0.14373959 0.01016987 0.02491923 0.54117647 0.42352941 0.64313725
v -0.14220755 0.01207237 0.02589322 0.54117647 0.42352941 0.64313725
v -0.14037939 0.01109034 0.02615357 0.54117647 0.42352941 0.64313725
v -0.14008426 0.01134244 0.02623473 0.54117647 0.42352941 0.64313725
v -0.14008426 0.01104930 0.02617041 0.54117647 0.42352941 0.64313725
v -0.14008426 0.00809443 0.02479978 0.54117647 0.42352941 0.64313725
v -0.14008426 0.00742899 0.02440773 0.54117647 0.42352941 0.64313725
v -0.14008426 0.00642645 0.02376452 0.54117647 0.42352941 0.64313725
v -0.14008426 0.00590172 0.02342454 0.54117647 0.42352941 0.64313725
v -0.14008426 0.00463828 0.02181347 0.54117647 0.42352941 0.64313725
v -0.14008426 0.00348330 0.02031419 0.54117647 0.42352941 0.64313725
v -0.14008426 0.00309342 0.01958982 0.54117647 0.42352941 0.64313725
v -0.14008426 0.00281200 0.01900328 0.54117647 0.42352941 0.64313725
v -0.14008426 0.00208794 0.01641668 0.54117647 0.42352941 0.64313725
v -0.13885440 0.01478980 0.02404478 0.54117647 0.42352941 0.64313725
v -0.13885440 0.02854697 0.02379821 0.54117647 0.42352941 0.64313725
v -0.14039248 0.02836522 0.02362363 0.54117647 0.42352941 0.64313725
v -0.14517593 0.02536344 0.02069552 0.54117647 0.42352941 0.64313725
v -0.14607037 0.02387721 0.01915489 0.54117647 0.42352941 0.64313725
v -0.14662134 0.02113633 0.01915489 0.54117647 0.42352941 0.64313725
v -0.14799020 0.01478980 0.01837998 0.54117647 0.42352941 0.64313725
v -0.14814834 0.01293421 0.01922228 0.54117647 0.42352941 0.64313725
v -0.14845051 0.01016987 0.01915642 0.54117647 0.42352941 0.64313725
v -0.14800532 0.01016987 0.02083794 0.54117647 0.42352941 0.64313725
v -0.14273737 0.02837694 0.02129738 0.54117647 0.42352941 0.64313725
v -0.14118217 0.02895444 0.02208453 0.54117647 0.42352941 0.64313725
v -0.14100388 0.03025599 0.01934632 0.54117647 0.42352941 0.64313725
v -0.14871945 0.00742899 0.01641668 0.54117647 0.42352941 0.64313725
v -0.14818360 0.00753452 0.01904463 0.54117647 0.42352941 0.64313725
v -0.14796603 0.00590465 0.01805532 0.54117647 0.42352941 0.64313725
v -0.14748053 0.00669321 0.01988079 0.54117647 0.42352941 0.64313725
v -0.14648637 0.00744658 0.02186707 0.54117647 0.42352941 0.64313725
v -0.14565337 0.00557633 0.02118099 0.54117647 0.42352941 0.64313725
v -0.14438826 0.00637075 0.02300799 0.54117647 0.42352941 0.64313725
v -0.14358044 0.00734398 0.02386713 0.54117647 0.42352941 0.64313725
v -0.14117511 0.01017281 0.02561450 0.54117647 0.42352941 0.64313725
v -0.14099784 0.00742899 0.02436944 0.54117647 0.42352941 0.64313725
v -0.14099784 0.00592224 0.02340617 0.54117647 0.42352941 0.64313725
v -0.14099784 0.00356831 0.02018555 0.54117647 0.42352941 0.64313725
v -0.14099784 0.00282959 0.01881798 0.54117647 0.42352941 0.64313725
v -0.14256110 0.00601018 0.02332041 0.54117647 0.42352941 0.64313725
v -0.14099784 0.00218174 0.01641668 0.54117647 0.42352941 0.64313725
v -0.14008426 0.00214364 0.01367387 0.54117647 0.42352941 0.64313725
v -0.13885440 0.02833884 0.01128177 0.54117647 0.42352941 0.64313725
v -0.14008426 0.00228728 0.01313787 0.54117647 0.42352941 0.64313725
v -0.13885440 0.02968729 0.02216111 0.54117647 0.42352941 0.64313725
v -0.13885440 0.03036738 0.02107991 0.54117647 0.42352941 0.64313725
v -0.13937616 0.03066345 0.02038770 0.54117647 0.42352941 0.64313725
v -0.14535119 0.02572694 0.01915489 0.54117647 0.42352941 0.64313725
v -0.14451618 0.02709884 0.01915489 0.54117647 0.42352941 0.64313725
v -0.14486469 0.02760012 0.01692971 0.54117647 0.42352941 0.64313725
v -0.14512154 0.02801052 0.01510117 0.54117647 0.42352941 0.64313725
v -0.14636751 0.02387721 0.01641515 0.54117647 0.42352941 0.64313725
v -0.14786227 0.01980839 0.01237368 0.54117647 0.42352941 0.64313725
v -0.14549019 0.02666206 0.01617624 0.54117647 0.42352941 0.64313725
v -0.14579740 0.02661809 0.01367387 0.54117647 0.42352941 0.64313725
v -0.14811510 0.01571613 0.01633245 0.54117647 0.42352941 0.64313725
v -0.14798516 0.01484256 0.01835395 0.54117647 0.42352941 0.64313725
v -0.14800329 0.01478980 0.01830035 0.54117647 0.42352941 0.64313725
v -0.14860665 0.01291369 0.01641668 0.54117647 0.42352941 0.64313725
v -0.14888363 0.01016987 0.01641668 0.54117647 0.42352941 0.64313725
v -0.14192351 0.03053154 0.01712880 0.54117647 0.42352941 0.64313725
v -0.14245634 0.03079537 0.01530026 0.54117647 0.42352941 0.64313725
v -0.14314732 0.02881666 0.01915489 0.54117647 0.42352941 0.64313725
v -0.14912840 0.01016987 0.01367387 0.54117647 0.42352941 0.64313725
v -0.14892191 0.00742899 0.01367387 0.54117647 0.42352941 0.64313725
v -0.14814331 0.00568186 0.01641668 0.54117647 0.42352941 0.64313725
v -0.14513161 0.00330155 0.01782254 0.54117647 0.42352941 0.64313725
v -0.14630607 0.00482589 0.01885320 0.54117647 0.42352941 0.64313725
v -0.14373959 0.00383507 0.01957910 0.54117647 0.42352941 0.64313725
v -0.14358044 0.00534768 0.02201562 0.54117647 0.42352941 0.64313725
v -0.14373959 0.00311394 0.01820846 0.54117647 0.42352941 0.64313725
v -0.14099784 0.00226089 0.01367387 0.54117647 0.42352941 0.64313725
v -0.14373959 0.00277976 0.01641668 0.54117647 0.42352941 0.64313725
v -0.14095755 0.00239867 0.01313787 0.54117647 0.42352941 0.64313725
v -0.13885440 0.03173636 0.01128177 0.54117647 0.42352941 0.64313725
v -0.14615599 0.01478980 0.01128177 0.54117647 0.42352941 0.64313725
v -0.14879299 0.01478980 0.01128177 0.54117647 0.42352941 0.64313725
v -0.13885440 0.03070449 0.02046734 0.54117647 0.42352941 0.64313725
v -0.13885440 0.03089211 0.01984404 0.54117647 0.42352941 0.64313725
v -0.13885440 0.03150477 0.01711502 0.54117647 0.42352941 0.64313725
v -0.14009534 0.03089211 0.01856376 0.54117647 0.42352941 0.64313725
v -0.14519709 0.02820692 0.01367387 0.54117647 0.42352941 0.64313725
v -0.14416364 0.02957590 0.01367387 0.54117647 0.42352941 0.64313725
v -0.14791364 0.01998135 0.01128177 0.54117647 0.42352941 0.64313725
v -0.14817150 0.01873842 0.01128177 0.54117647 0.42352941 0.64313725
v -0.14845555 0.01565750 0.01367387 0.54117647 0.42352941 0.64313725
v -0.14582561 0.02661809 0.01128177 0.54117647 0.42352941 0.64313725
v -0.14827828 0.01478980 0.01636155 0.54117647 0.42352941 0.64313725
v -0.14887054 0.01291369 0.01367387 0.54117647 0.42352941 0.64313725
v -0.14868621 0.01565750 0.01128177 0.54117647 0.42352941 0.64313725
v -0.14100388 0.03112369 0.01629416 0.54117647 0.42352941 0.64313725
v -0.14099784 0.03167186 0.01367387 0.54117647 0.42352941 0.64313725
v -0.14279479 0.03098591 0.01367387 0.54117647 0.42352941 0.64313725
v -0.14890681 0.01291369 0.01313787 0.54117647 0.42352941 0.64313725
v -0.14914451 0.01016987 0.01313787 0.54117647 0.42352941 0.64313725
v -0.14887961 0.00742899 0.01313787 0.54117647 0.42352941 0.64313725
v -0.14823296 0.00556754 0.01367387 0.54117647 0.42352941 0.64313725
v -0.14658609 0.00430996 0.01641668 0.54117647 0.42352941 0.64313725
v -0.14521521 0.00325758 0.01641668 0.54117647 0.42352941 0.64313725
v -0.14396420 0.00294098 0.01351767 0.54117647 0.42352941 0.64313725
v -0.14436207 0.00309635 0.01313787 0.54117647 0.42352941 0.64313725
v -0.14161730 0.00250713 0.01313787 0.54117647 0.42352941 0.64313725
v -0.14522730 0.00325171 0.01432780 0.54117647 0.42352941 0.64313725
v -0.14119124 0.03139045 0.01128177 0.54117647 0.42352941 0.64313725
v -0.13885440 0.03203536 0.01367387 0.54117647 0.42352941 0.64313725
v -0.14581050 0.00378816 0.01313787 0.54117647 0.42352941 0.64313725
v -0.14653472 0.00430703 0.01313787 0.54117647 0.42352941 0.64313725
v -0.14819265 0.00562030 0.01313787 0.54117647 0.42352941 0.64313725
v -0.13885440 0.03165134 0.01639065 0.54117647 0.42352941 0.64313725
v -0.14518903 0.02819226 0.01128177 0.54117647 0.42352941 0.64313725
v -0.14574805 0.02682329 0.01128177 0.54117647 0.42352941 0.64313725
v -0.14284817 0.03100936 0.01142878 0.54117647 0.42352941 0.64313725
v -0.14823296 0.01837493 0.01128177 0.54117647 0.42352941 0.64313725
v -0.14253290 0.03107092 0.01128177 0.54117647 0.42352941 0.64313725
v -0.14627686 0.00404613 0.01351767 0.54117647 0.42352941 0.64313725
v -0.14302645 0.03076899 0.01128177 0.54117647 0.42352941 0.64313725
v -0.14280485 0.03098591 0.01128177 0.54117647 0.42352941 0.64313725
f 1 2 3
f 1 3 4
f 1 4 5
f 1 5 15
f 1 15 29
f 1 29 28
f 1 28 59
f 1 59 88
f 1 88 120
f 1 120 150
f 1 150 154
f 1 154 125
f 1 125 124
f 1 124 123
f 1 123 91
f 1 91 90
f 1 90 60
f 1 60 32
f 1 32 31
f 1 31 16
f 1 16 6
f 1 6 2
f 2 6 7
f 2 7 3
f 3 7 8
f 3 8 9
f 3 9 4
f 4 9 10
f 4 10 11
f 4 11 12
f 4 12 5
f 5 12 13
f 5 13 14
f 5 14 15
f 6 16 7
f 7 16 17
f 7 17 8
f 8 18 19
f 8 19 20
f 8 20 9
f 8 17 21
f 8 21 22
f 8 22 18
f 9 23 10
f 9 20 23
f 10 23 24
f 10 24 11
f 11 25 12
f 11 24 26
f 11 26 25
f 12 25 13
f 13 25 26
f 13 26 27
f 13 27 14
f 14 28 29
f 14 29 15
f 14 27 30
f 14 30 28
f 16 31 17
f 17 31 32
f 17 32 33
f 17 33 21
f 18 22 21
f 18 21 34
f 18 34 35
f 18 35 36
f 18 36 19
f 19 36 37
f 19 37 38
f 19 38 20
f 20 38 23
f 21 39 34
f 21 33 40
f 21 40 39
f 23 38 41
f 23 41 24
f 24 41 42
f 24 42 43
f 24 43 44
f 24 44 45
f 24 45 26
f 26 45 46
f 26 46 27
f 27 46 47
f 27 47 48
f 27 48 30
f 28 30 48
f 28 48 49
f 28 49 50
f 28 50 51
f 28 51 52
f 28 52 53
f 28 53 54
f 28 54 55
f 28 55 56
f 28 56 57
f 28 57 58
f 28 58 59
f 32 60 61
f 32 61 33
f 33 61 40
f 34 39 62
f 34 62 35
f 35 63 36
f 35 62 63
f 36 63 64
f 36 64 65
f 36 65 66
f 36 66 37
f 37 66 67
f 37 67 68
f 37 68 42
f 37 42 38
f 38 42 41
f 39 40 69
f 39 69 62
f 40 61 70
f 40 70 71
f 40 71 69
f 42 68 43
f 43 68 67
f 43 67 72
f 43 72 73
f 43 73 74
f 43 74 75
f 43 75 76
f 43 76 44
f 44 76 77
f 44 77 78
f 44 78 79
f 44 79 45
f 45 79 80
f 45 80 47
f 45 47 46
f 47 80 81
f 47 81 50
f 47 50 49
f 47 49 48
f 50 81 51
f 51 81 82
f 51 82 52
f 52 82 53
f 53 82 54
f 54 82 55
f 55 83 84
f 55 84 56
f 55 82 85
f 55 85 83
f 56 84 57
f 57 84 58
f 58 86 87
f 58 87 59
f 58 84 86
f 59 87 89
f 59 89 88
f 60 90 61
f 61 90 91
f 61 91 92
f 61 92 70
f 62 93 63
f 62 69 94
f 62 94 95
f 62 95 96
f 62 96 93
f 63 97 98
f 63 98 64
f 63 93 99
f 63 99 100
f 63 100 97
f 64 98 101
f 64 101 102
f 64 102 65
f 65 103 66
f 65 102 103
f 66 104 67
f 66 103 104
f 67 105 72
f 67 104 105
f 69 71 106
f 69 106 107
f 69 107 108
f 69 108 94
f 70 92 71
f 71 92 106
f 72 105 109
f 72 109 110
f 72 110 111
f 72 111 74
f 72 74 73
f 74 111 112
f 74 112 113
f 74 113 77
f 74 77 75
f 75 77 76
f 77 113 112
f 77 112 114
f 77 114 115
f 77 115 78
f 78 115 85
f 78 85 79
f 79 85 81
f 79 81 80
f 81 85 82
f 83 114 84
f 83 85 115
f 83 115 114
f 84 114 116
f 84 116 86
f 86 117 87
f 86 116 112
f 86 112 118
f 86 118 117
f 87 117 119
f 87 119 89
f 88 89 121
f 88 121 122
f 88 122 135
f 88 135 158
f 88 158 130
f 88 130 129
f 88 129 132
f 88 132 156
f 88 156 155
f 88 155 161
f 88 161 162
f 88 162 159
f 88 159 149
f 88 149 120
f 89 119 122
f 89 122 121
f 91 123 92
f 92 123 124
f 92 124 125
f 92 125 126
f 92 126 106
f 93 96 99
f 94 108 95
f 95 108 96
f 96 127 100
f 96 100 99
f 96 108 128
f 96 128 127
f 97 129 98
f 97 100 129
f 98 129 130
f 98 130 131
f 98 131 101
f 100 127 132
f 100 132 129
f 101 131 133
f 101 133 103
f 101 103 102
f 103 133 104
f 104 134 105
f 104 133 131
f 104 131 135
f 104 135 134
f 105 134 109
f 106 126 136
f 106 136 107
f 107 136 137
f 107 137 138
f 107 138 108
f 108 138 128
f 109 134 139
f 109 139 140
f 109 140 110
f 110 141 142
f 110 142 111
f 110 140 141
f 111 142 143
f 111 143 112
f 112 144 118
f 112 116 114
f 112 143 144
f 117 118 145
f 117 145 146
f 117 146 147
f 117 147 119
f 118 144 148
f 118 148 145
f 119 147 122
f 120 149 150
f 122 147 146
f 122 146 151
f 122 151 152
f 122 152 153
f 122 153 141
f 122 141 140
f 122 140 139
f 122 139 135
f 125 154 137
f 125 137 126
f 126 137 136
f 127 155 156
f 127 156 132
f 127 128 155
f 128 138 157
f 128 157 155
f 130 158 131
f 131 158 135
f 134 135 139
f 137 150 149
f 137 149 159
f 137 159 157
f 137 157 138
f 137 154 150
f 141 153 142
f 142 153 152
f 142 152 160
f 142 160 143
f 143 160 144
f 144 160 148
f 145 148 146
f 146 148 151
f 148 160 151
f 151 160 152
f 155 157 161
f 157 159 162
f 157 162 161

