# https://github.com/mikedh/trimesh
v 0.00058296 -0.00057521 -0.02005792 0.54117647 0.42352941 0.64313725
v -0.00202040 -0.00250931 -0.02005435 0.54117647 0.42352941 0.64313725
v -0.00180973 -0.00063285 -0.02004720 0.54117647 0.42352941 0.64313725
v -0.00081653 0.00078891 -0.02000072 0.54117647 0.42352941 0.64313725
v 0.00058296 0.00083374 -0.02000429 0.54117647 0.42352941 0.64313725
v 0.00232857 0.00080812 -0.02000429 0.54117647 0.42352941 0.64313725
v 0.00839305 -0.00138215 -0.02005078 0.54117647 0.42352941 0.64313725
v 0.00839305 -0.00220831 -0.02005078 0.54117647 0.42352941 0.64313725
v -0.00202040 -0.00381259 -0.01992206 0.54117647 0.42352941 0.64313725
v -0.03326074 -0.00577871 -0.01932497 0.54117647 0.42352941 0.64313725
v -0.03326074 -0.00317536 -0.01953949 0.54117647 0.42352941 0.64313725
v -0.00856643 -0.00191051 -0.01999714 0.54117647 0.42352941 0.64313725
v -0.00856643 -0.00184006 -0.01999714 0.54117647 0.42352941 0.64313725
v 0.00058296 0.00213702 -0.01985770 0.54117647 0.42352941 0.64313725
v -0.03326074 0.00202815 -0.01934284 0.54117647 0.42352941 0.64313725
v 0.00318632 0.00181680 -0.01985055 0.54117647 0.42352941 0.64313725
v 0.00839305 -0.00007887 -0.01989346 0.54117647 0.42352941 0.64313725
v 0.05525355 0.00202815 -0.01780184 0.54117647 0.42352941 0.64313725
v 0.00985273 -0.00165754 -0.02002575 0.54117647 0.42352941 0.64313725
v 0.00985273 -0.00203539 -0.02002575 0.54117647 0.42352941 0.64313725
v 0.00839305 -0.00351158 -0.01982195 0.54117647 0.42352941 0.64313725
v 0.00058296 -0.00577871 -0.01956094 0.54117647 0.42352941 0.64313725
v 0.00058296 -0.00374214 -0.01991491 0.54117647 0.42352941 0.64313725
v -0.00202040 -0.00577871 -0.01956809 0.54117647 0.42352941 0.64313725
v -0.03326074 -0.00838206 -0.01869927 0.54117647 0.42352941 0.64313725
v -0.03586410 -0.00577871 -0.01918195 0.54117647 0.42352941 0.64313725
v -0.03586410 -0.00317536 -0.01944295 0.54117647 0.42352941 0.64313725
v -0.02545066 -0.00838206 -0.01878866 0.54117647 0.42352941 0.64313725
v -0.03586410 -0.00057521 -0.01937145 0.54117647 0.42352941 0.64313725
v -0.03326074 -0.00057521 -0.01944653 0.54117647 0.42352941 0.64313725
v -0.00202040 0.00463470 -0.01938932 0.54117647 0.42352941 0.64313725
v 0.00058296 0.00463470 -0.01936072 0.54117647 0.42352941 0.64313725
v -0.02545066 0.00463470 -0.01914262 0.54117647 0.42352941 0.64313725
v -0.01764057 0.00463470 -0.01924988 0.54117647 0.42352941 0.64313725
v -0.03586410 0.00202815 -0.01918910 0.54117647 0.42352941 0.64313725
v -0.03326074 0.00463470 -0.01884229 0.54117647 0.42352941 0.64313725
v -0.03065738 0.00463470 -0.01896028 0.54117647 0.42352941 0.64313725
v 0.00578968 0.00202815 -0.01972899 0.54117647 0.42352941 0.64313725
v 0.05525355 0.00354597 -0.01745860 0.54117647 0.42352941 0.64313725
v 0.05665305 0.00339867 -0.01741570 0.54117647 0.42352941 0.64313725
v 0.05764624 0.00182001 -0.01755157 0.54117647 0.42352941 0.64313725
v 0.05785692 -0.00057521 -0.01776609 0.54117647 0.42352941 0.64313725
v 0.05525355 -0.00057521 -0.01805570 0.54117647 0.42352941 0.64313725
v 0.00578968 0.00463470 -0.01916050 0.54117647 0.42352941 0.64313725
v 0.05525355 -0.00317536 -0.01781257 0.54117647 0.42352941 0.64313725
v 0.05525355 -0.00477643 -0.01748721 0.54117647 0.42352941 0.64313725
v 0.00839305 -0.00577871 -0.01932139 0.54117647 0.42352941 0.64313725
v 0.00058296 -0.00838206 -0.01887447 0.54117647 0.42352941 0.64313725
v -0.00202040 -0.00838206 -0.01888877 0.54117647 0.42352941 0.64313725
v -0.00722713 -0.00838206 -0.01889234 0.54117647 0.42352941 0.64313725
v -0.03065738 -0.01092457 -0.01789123 0.54117647 0.42352941 0.64313725
v -0.03326074 -0.01074525 -0.01785905 0.54117647 0.42352941 0.64313725
v -0.03586410 -0.00838206 -0.01850620 0.54117647 0.42352941 0.64313725
v -0.02545066 -0.01098862 -0.01799134 0.54117647 0.42352941 0.64313725
v -0.03848252 -0.00577871 -0.01883156 0.54117647 0.42352941 0.64313725
v -0.03848252 -0.00317536 -0.01912832 0.54117647 0.42352941 0.64313725
v -0.03848252 -0.00057521 -0.01909972 0.54117647 0.42352941 0.64313725
v -0.00202040 0.00723805 -0.01825950 0.54117647 0.42352941 0.64313725
v -0.01764057 0.00723805 -0.01825950 0.54117647 0.42352941 0.64313725
v 0.00578968 0.00715480 -0.01808430 0.54117647 0.42352941 0.64313725
v -0.02805401 0.00714199 -0.01804497 0.54117647 0.42352941 0.64313725
v -0.02284729 0.00723805 -0.01817011 0.54117647 0.42352941 0.64313725
v -0.03586410 0.00463470 -0.01858486 0.54117647 0.42352941 0.64313725
v -0.03848252 0.00202815 -0.01887804 0.54117647 0.42352941 0.64313725
v -0.03326074 0.00677054 -0.01788765 0.54117647 0.42352941 0.64313725
v -0.03065738 0.00699149 -0.01797346 0.54117647 0.42352941 0.64313725
v 0.05525355 0.00484924 -0.01702241 0.54117647 0.42352941 0.64313725
v 0.05764624 0.00441375 -0.01672922 0.54117647 0.42352941 0.64313725
v 0.05838361 0.00255010 -0.01716900 0.54117647 0.42352941 0.64313725
v 0.05921127 0.00081453 -0.01741212 0.54117647 0.42352941 0.64313725
v 0.05928651 -0.00057521 -0.01744430 0.54117647 0.42352941 0.64313725
v 0.05928651 -0.00214106 -0.01744073 0.54117647 0.42352941 0.64313725
v 0.05775158 -0.00307609 -0.01757302 0.54117647 0.42352941 0.64313725
v 0.05680353 -0.00462593 -0.01743715 0.54117647 0.42352941 0.64313725
v 0.05525355 -0.00607971 -0.01706174 0.54117647 0.42352941 0.64313725
v 0.00578968 -0.00838206 -0.01861704 0.54117647 0.42352941 0.64313725
v 0.00318632 -0.01053071 -0.01785548 0.54117647 0.42352941 0.64313725
v 0.00058296 -0.01066200 -0.01792698 0.54117647 0.42352941 0.64313725
v -0.00722713 -0.01091176 -0.01796631 0.54117647 0.42352941 0.64313725
v -0.01503721 -0.01098862 -0.01798776 0.54117647 0.42352941 0.64313725
v -0.03065738 -0.01222465 -0.01735492 0.54117647 0.42352941 0.64313725
v -0.02749722 -0.01232391 -0.01741212 0.54117647 0.42352941 0.64313725
v -0.02922779 -0.01227908 -0.01738710 0.54117647 0.42352941 0.64313725
v -0.03326074 -0.01204853 -0.01725481 0.54117647 0.42352941 0.64313725
v -0.03586410 -0.01042504 -0.01774464 0.54117647 0.42352941 0.64313725
v -0.03848252 -0.00999275 -0.01755157 0.54117647 0.42352941 0.64313725
v -0.03848252 -0.00838206 -0.01813793 0.54117647 0.42352941 0.64313725
v -0.02545066 -0.01235594 -0.01743358 0.54117647 0.42352941 0.64313725
v -0.04108587 -0.00317536 -0.01852050 0.54117647 0.42352941 0.64313725
v -0.04046889 -0.00838206 -0.01765168 0.54117647 0.42352941 0.64313725
v -0.05563761 -0.00469318 -0.01486286 0.54117647 0.42352941 0.64313725
v -0.05601382 -0.00317536 -0.01498085 0.54117647 0.42352941 0.64313725
v -0.04108587 -0.00057521 -0.01854910 0.54117647 0.42352941 0.64313725
v 0.00008637 0.00857015 -0.01741570 0.54117647 0.42352941 0.64313725
v 0.00080869 0.00749743 -0.01804855 0.54117647 0.42352941 0.64313725
v -0.01764057 0.00866301 -0.01748363 0.54117647 0.42352941 0.64313725
v -0.02024393 0.00863419 -0.01745860 0.54117647 0.42352941 0.64313725
v 0.00578968 0.00845807 -0.01732989 0.54117647 0.42352941 0.64313725
v 0.05265019 0.00723805 -0.01593191 0.54117647 0.42352941 0.64313725
v -0.02805401 0.00844527 -0.01732989 0.54117647 0.42352941 0.64313725
v -0.02638365 0.00851571 -0.01737279 0.54117647 0.42352941 0.64313725
v -0.02549580 0.00748462 -0.01797704 0.54117647 0.42352941 0.64313725
v -0.02465309 0.00856695 -0.01740855 0.54117647 0.42352941 0.64313725
v -0.02284729 0.00859577 -0.01743000 0.54117647 0.42352941 0.64313725
v -0.03869318 0.00487486 -0.01801994 0.54117647 0.42352941 0.64313725
v -0.03797087 0.00620055 -0.01756229 0.54117647 0.42352941 0.64313725
v -0.03586410 0.00648875 -0.01774106 0.54117647 0.42352941 0.64313725
v -0.04108587 0.00202815 -0.01832743 0.54117647 0.42352941 0.64313725
v -0.04108587 0.00416078 -0.01776251 0.54117647 0.42352941 0.64313725
v -0.03065738 0.00829476 -0.01722620 0.54117647 0.42352941 0.64313725
v 0.05541908 0.00747821 -0.01560297 0.54117647 0.42352941 0.64313725
v 0.05785692 0.00685379 -0.01542777 0.54117647 0.42352941 0.64313725
v 0.07608045 0.00202815 -0.01131963 0.54117647 0.42352941 0.64313725
v 0.07472610 0.00060639 -0.01217416 0.54117647 0.42352941 0.64313725
v 0.07592996 -0.00038628 -0.01193460 0.54117647 0.42352941 0.64313725
v 0.05854914 -0.00387663 -0.01726911 0.54117647 0.42352941 0.64313725
v 0.07495182 -0.00222111 -0.01222064 0.54117647 0.42352941 0.64313725
v 0.07592996 -0.00312412 -0.01183092 0.54117647 0.42352941 0.64313725
v 0.05775158 -0.00560900 -0.01694375 0.54117647 0.42352941 0.64313725
v 0.05525355 -0.00838206 -0.01609995 0.54117647 0.42352941 0.64313725
v 0.00058296 -0.01196527 -0.01716185 0.54117647 0.42352941 0.64313725
v 0.05525355 -0.01008881 -0.01512387 0.54117647 0.42352941 0.64313725
v -0.00202040 -0.01204213 -0.01722620 0.54117647 0.42352941 0.64313725
v -0.00722713 -0.01221184 -0.01734062 0.54117647 0.42352941 0.64313725
v -0.01503721 -0.01233352 -0.01742285 0.54117647 0.42352941 0.64313725
v -0.03326074 -0.01349590 -0.01595336 0.54117647 0.42352941 0.64313725
v -0.02824964 -0.01335181 -0.01648252 0.54117647 0.42352941 0.64313725
v -0.02805401 -0.01502974 -0.01495582 0.54117647 0.42352941 0.64313725
v -0.02993506 -0.01495929 -0.01487001 0.54117647 0.42352941 0.64313725
v -0.02545066 -0.01365601 -0.01628587 0.54117647 0.42352941 0.64313725
v -0.03586410 -0.01338383 -0.01577101 0.54117647 0.42352941 0.64313725
v -0.03586410 -0.01172511 -0.01707246 0.54117647 0.42352941 0.64313725
v -0.03983686 -0.00973337 -0.01741928 0.54117647 0.42352941 0.64313725
v -0.02024393 -0.01361438 -0.01633593 0.54117647 0.42352941 0.64313725
v -0.02024393 -0.01510018 -0.01503448 0.54117647 0.42352941 0.64313725
v -0.05658566 -0.00564742 -0.01417638 0.54117647 0.42352941 0.64313725
v -0.05732302 -0.00317536 -0.01454465 0.54117647 0.42352941 0.64313725
v -0.05738321 -0.00057521 -0.01459828 0.54117647 0.42352941 0.64313725
v -0.05607402 -0.00057521 -0.01498800 0.54117647 0.42352941 0.64313725
v -0.01503721 0.00994067 -0.01635381 0.54117647 0.42352941 0.64313725
v -0.01503721 0.01136243 -0.01505236 0.54117647 0.42352941 0.64313725
v -0.01243385 0.01134321 -0.01503090 0.54117647 0.42352941 0.64313725
v -0.02024393 0.00993427 -0.01632163 0.54117647 0.42352941 0.64313725
v -0.02284729 0.00989584 -0.01629660 0.54117647 0.42352941 0.64313725
v 0.00318632 0.00977416 -0.01606062 0.54117647 0.42352941 0.64313725
v 0.05265019 0.00871745 -0.01495940 0.54117647 0.42352941 0.64313725
v 0.05465162 0.00865981 -0.01490577 0.54117647 0.42352941 0.64313725
v -0.02948361 0.01116389 -0.01480923 0.54117647 0.42352941 0.64313725
v -0.02805401 0.00984140 -0.01608922 0.54117647 0.42352941 0.64313725
v -0.02549580 0.00959804 -0.01643604 0.54117647 0.42352941 0.64313725
v -0.03970143 0.00590275 -0.01737279 0.54117647 0.42352941 0.64313725
v -0.03586410 0.00778882 -0.01683648 0.54117647 0.42352941 0.64313725
v -0.03869318 0.00713558 -0.01671134 0.54117647 0.42352941 0.64313725
v -0.03326074 0.00807061 -0.01704028 0.54117647 0.42352941 0.64313725
v -0.05571285 0.00100346 -0.01487001 0.54117647 0.42352941 0.64313725
v -0.05663080 0.00193528 -0.01433728 0.54117647 0.42352941 0.64313725
v -0.05670604 0.00463470 -0.01317884 0.54117647 0.42352941 0.64313725
v -0.03047680 0.01002713 -0.01571023 0.54117647 0.42352941 0.64313725
v 0.05639723 0.00850611 -0.01475560 0.54117647 0.42352941 0.64313725
v 0.05785692 0.00815387 -0.01446241 0.54117647 0.42352941 0.64313725
v 0.07608045 0.00394624 -0.01020053 0.54117647 0.42352941 0.64313725
v 0.07760033 0.00351715 -0.00978578 0.54117647 0.42352941 0.64313725
v 0.08920259 0.00161827 -0.00496971 0.54117647 0.42352941 0.64313725
v 0.08920259 0.00154462 -0.00499474 0.54117647 0.42352941 0.64313725
v 0.08920259 -0.00057521 -0.00569552 0.54117647 0.42352941 0.64313725
v 0.06046028 -0.00577871 -0.01605705 0.54117647 0.42352941 0.64313725
v 0.07608045 -0.00577871 -0.01107293 0.54117647 0.42352941 0.64313725
v 0.08920259 -0.00317536 -0.00527362 0.54117647 0.42352941 0.64313725
v 0.05800740 -0.00859340 -0.01556722 0.54117647 0.42352941 0.64313725
v 0.05722488 -0.00992230 -0.01498085 0.54117647 0.42352941 0.64313725
v 0.00318632 -0.01322692 -0.01578174 0.54117647 0.42352941 0.64313725
v -0.00202040 -0.01339343 -0.01592476 0.54117647 0.42352941 0.64313725
v 0.05525355 -0.01138889 -0.01381527 0.54117647 0.42352941 0.64313725
v -0.00462376 -0.01346388 -0.01598196 0.54117647 0.42352941 0.64313725
v -0.01243385 -0.01495288 -0.01486644 0.54117647 0.42352941 0.64313725
v -0.03586410 -0.01468711 -0.01447672 0.54117647 0.42352941 0.64313725
v -0.02805401 -0.01582387 -0.01348275 0.54117647 0.42352941 0.64313725
v -0.03074767 -0.01553568 -0.01371158 0.54117647 0.42352941 0.64313725
v -0.02545066 -0.01505215 -0.01498442 0.54117647 0.42352941 0.64313725
v -0.03326074 -0.01556450 -0.01334331 0.54117647 0.42352941 0.64313725
v -0.03586410 -0.01544922 -0.01317527 0.54117647 0.42352941 0.64313725
v -0.03848252 -0.01304120 -0.01542420 0.54117647 0.42352941 0.64313725
v -0.03848252 -0.01129602 -0.01672565 0.54117647 0.42352941 0.64313725
v -0.05574295 -0.00985185 -0.01229572 0.54117647 0.42352941 0.64313725
v -0.05664585 -0.00845891 -0.01282130 0.54117647 0.42352941 0.64313725
v -0.02024393 -0.01591353 -0.01348275 0.54117647 0.42352941 0.64313725
v -0.05851184 -0.00763916 -0.01251739 0.54117647 0.42352941 0.64313725
v -0.05935455 -0.00565062 -0.01281415 0.54117647 0.42352941 0.64313725
v -0.05930940 -0.00317536 -0.01348990 0.54117647 0.42352941 0.64313725
v -0.05930940 -0.00057521 -0.01365795 0.54117647 0.42352941 0.64313725
v -0.05930940 0.00202815 -0.01326823 0.54117647 0.42352941 0.64313725
v -0.02024393 0.01134642 -0.01502018 0.54117647 0.42352941 0.64313725
v -0.02024393 0.01237111 -0.01348275 0.54117647 0.42352941 0.64313725
v -0.01503721 0.01237751 -0.01348275 0.54117647 0.42352941 0.64313725
v -0.01243385 0.01233268 -0.01348275 0.54117647 0.42352941 0.64313725
v -0.00722713 0.01220459 -0.01348275 0.54117647 0.42352941 0.64313725
v -0.00462376 0.01213095 -0.01348275 0.54117647 0.42352941 0.64313725
v -0.00462376 0.01120872 -0.01486286 0.54117647 0.42352941 0.64313725
v -0.02284729 0.01132400 -0.01499515 0.54117647 0.42352941 0.64313725
v 0.00318632 0.01107423 -0.01469124 0.54117647 0.42352941 0.64313725
v 0.05525355 0.01108064 -0.01207762 0.54117647 0.42352941 0.64313725
v 0.05541908 0.00960444 -0.01372588 0.54117647 0.42352941 0.64313725
v -0.03586410 0.00927142 -0.01553146 0.54117647 0.42352941 0.64313725
v -0.03122922 0.01101660 -0.01460901 0.54117647 0.42352941 0.64313725
v -0.03326074 0.01167624 -0.01303583 0.54117647 0.42352941 0.64313725
v -0.03047680 0.01170506 -0.01364007 0.54117647 0.42352941 0.64313725
v -0.02805401 0.01200926 -0.01348275 0.54117647 0.42352941 0.64313725
v -0.02545066 0.01216617 -0.01348275 0.54117647 0.42352941 0.64313725
v -0.02284729 0.01230706 -0.01348275 0.54117647 0.42352941 0.64313725
v -0.05803029 0.00594438 -0.01218846 0.54117647 0.42352941 0.64313725
v -0.03848252 0.00899604 -0.01525258 0.54117647 0.42352941 0.64313725
v -0.03326074 0.00950518 -0.01573884 0.54117647 0.42352941 0.64313725
v -0.05905358 0.00442016 -0.01248879 0.54117647 0.42352941 0.64313725
v 0.05785692 0.01078284 -0.01167717 0.54117647 0.42352941 0.64313725
v 0.05785692 0.00947956 -0.01316097 0.54117647 0.42352941 0.64313725
v 0.07618579 0.00531035 -0.00829842 0.54117647 0.42352941 0.64313725
v 0.08920259 0.00280947 -0.00306760 0.54117647 0.42352941 0.64313725
v 0.06046028 -0.00774803 -0.01519180 0.54117647 0.42352941 0.64313725
v 0.08920259 -0.00322339 -0.00525217 0.54117647 0.42352941 0.64313725
v 0.07744985 -0.00719406 -0.00965349 0.54117647 0.42352941 0.64313725
v 0.07608045 -0.00779927 -0.01008254 0.54117647 0.42352941 0.64313725
v 0.07368776 -0.00862863 -0.01045438 0.54117647 0.42352941 0.64313725
v 0.05897049 -0.00960208 -0.01471984 0.54117647 0.42352941 0.64313725
v 0.07469600 -0.00965972 -0.00955696 0.54117647 0.42352941 0.64313725
v 0.05904574 -0.01225987 -0.01213840 0.54117647 0.42352941 0.64313725
v 0.05730013 -0.01244560 -0.01238510 0.54117647 0.42352941 0.64313725
v -0.00462376 -0.01476716 -0.01454822 0.54117647 0.42352941 0.64313725
v -0.01091396 -0.01491766 -0.01481638 0.54117647 0.42352941 0.64313725
v 0.05525355 -0.01254166 -0.01251024 0.54117647 0.42352941 0.64313725
v -0.01764057 -0.01581747 -0.01348275 0.54117647 0.42352941 0.64313725
v -0.03848252 -0.01524748 -0.01279270 0.54117647 0.42352941 0.64313725
v -0.03848252 -0.01434447 -0.01409415 0.54117647 0.42352941 0.64313725
v -0.02805401 -0.01685496 -0.01087986 0.54117647 0.42352941 0.64313725
v -0.03065738 -0.01682294 -0.01087986 0.54117647 0.42352941 0.64313725
v -0.03326074 -0.01671087 -0.01087986 0.54117647 0.42352941 0.64313725
v -0.03586410 -0.01654436 -0.01087986 0.54117647 0.42352941 0.64313725
v -0.03848252 -0.01624335 -0.01087986 0.54117647 0.42352941 0.64313725
v -0.05584829 -0.01244880 -0.00978578 0.54117647 0.42352941 0.64313725
v -0.05666090 -0.01098541 -0.01088701 0.54117647 0.42352941 0.64313725
v -0.05748856 -0.00937473 -0.01198823 0.54117647 0.42352941 0.64313725
v -0.01764057 -0.01680693 -0.01087986 0.54117647 0.42352941 0.64313725
v -0.02024393 -0.01688058 -0.01087986 0.54117647 0.42352941 0.64313725
v -0.05935455 -0.00845891 -0.01141974 0.54117647 0.42352941 0.64313725
v -0.06025745 -0.00643515 -0.01192030 0.54117647 0.42352941 0.64313725
v -0.06070890 -0.00469958 -0.01225997 0.54117647 0.42352941 0.64313725
v -0.06090453 -0.00317536 -0.01242801 0.54117647 0.42352941 0.64313725
v -0.06105501 -0.00057521 -0.01254242 0.54117647 0.42352941 0.64313725
v -0.06087443 0.00202815 -0.01238153 0.54117647 0.42352941 0.64313725
v -0.06064871 0.00341148 -0.01221349 0.54117647 0.42352941 0.64313725
v -0.02024393 0.01347265 -0.01128745 0.54117647 0.42352941 0.64313725
v -0.01764057 0.01347905 -0.01137684 0.54117647 0.42352941 0.64313725
v -0.00722713 0.01340540 -0.01132678 0.54117647 0.42352941 0.64313725
v -0.00462376 0.01336698 -0.01128745 0.54117647 0.42352941 0.64313725
v 0.05525355 0.01169545 -0.01077617 0.54117647 0.42352941 0.64313725
v 0.05785692 0.01153214 -0.01037573 0.54117647 0.42352941 0.64313725
v -0.03586410 0.01057150 -0.01397258 0.54117647 0.42352941 0.64313725
v -0.03586410 0.01146490 -0.01267114 0.54117647 0.42352941 0.64313725
v -0.03586410 0.01228145 -0.01087986 0.54117647 0.42352941 0.64313725
v -0.03326074 0.01265290 -0.01087986 0.54117647 0.42352941 0.64313725
v -0.03065738 0.01291227 -0.01087986 0.54117647 0.42352941 0.64313725
v -0.02805401 0.01313322 -0.01087986 0.54117647 0.42352941 0.64313725
v -0.02284729 0.01342782 -0.01108366 0.54117647 0.42352941 0.64313725
v -0.05976085 0.00514704 -0.01180231 0.54117647 0.42352941 0.64313725
v -0.06120549 0.00646954 -0.01006824 0.54117647 0.42352941 0.64313725
v -0.05893319 0.00707474 -0.01070824 0.54117647 0.42352941 0.64313725
v -0.05809049 0.00856374 -0.00961416 0.54117647 0.42352941 0.64313725
v -0.03852765 0.01041139 -0.01334689 0.54117647 0.42352941 0.64313725
v 0.05951223 0.01131440 -0.00988947 0.54117647 0.42352941 0.64313725
v 0.07538823 0.00617173 -0.00744747 0.54117647 0.42352941 0.64313725
v 0.07608045 0.00730530 -0.00306760 0.54117647 0.42352941 0.64313725
v 0.08006826 0.00596359 -0.00186984 0.54117647 0.42352941 0.64313725
v 0.08006826 0.00596359 -0.00150872 0.54117647 0.42352941 0.64313725
v 0.07608045 0.00732771 -0.00046828 0.54117647 0.42352941 0.64313725
v 0.07884934 0.00635746 -0.00057196 0.54117647 0.42352941 0.64313725
v 0.07982748 0.00586433 0.00022893 0.54117647 0.42352941 0.64313725
v 0.08920259 0.00241881 -0.00055409 0.54117647 0.42352941 0.64313725
v 0.06041513 0.01157377 -0.00814467 0.54117647 0.42352941 0.64313725
v 0.06046028 0.01224942 -0.00567049 0.54117647 0.42352941 0.64313725
v 0.08920259 -0.00465475 -0.00455139 0.54117647 0.42352941 0.64313725
v 0.07608045 -0.00910255 -0.00914936 0.54117647 0.42352941 0.64313725
v 0.07770567 -0.01000235 -0.00729373 0.54117647 0.42352941 0.64313725
v 0.07949642 -0.01205173 -0.00405798 0.54117647 0.42352941 0.64313725
v 0.07776586 -0.01240077 -0.00456212 0.54117647 0.42352941 0.64313725
v 0.05805255 -0.01298036 -0.01111226 0.54117647 0.42352941 0.64313725
v 0.05525355 -0.01342225 -0.01087986 0.54117647 0.42352941 0.64313725
v -0.00202040 -0.01532113 -0.01311091 0.54117647 0.42352941 0.64313725
v -0.04016792 -0.01503934 -0.01240656 0.54117647 0.42352941 0.64313725
v -0.02805401 -0.01779320 -0.00786222 0.54117647 0.42352941 0.64313725
v -0.03065738 -0.01737051 -0.00910646 0.54117647 0.42352941 0.64313725
v -0.03326074 -0.01734169 -0.00893841 0.54117647 0.42352941 0.64313725
v -0.03586410 -0.01729046 -0.00879540 0.54117647 0.42352941 0.64313725
v -0.03860290 -0.01723602 -0.00818400 0.54117647 0.42352941 0.64313725
v -0.04108587 -0.01673328 -0.00827696 0.54117647 0.42352941 0.64313725
v -0.05670604 -0.01294833 -0.00839495 0.54117647 0.42352941 0.64313725
v -0.05757884 -0.01211898 -0.00934243 0.54117647 0.42352941 0.64313725
v -0.05930940 -0.01025532 -0.01012187 0.54117647 0.42352941 0.64313725
v -0.06066375 -0.00974618 -0.00963204 0.54117647 0.42352941 0.64313725
v -0.01764057 -0.01734169 -0.00876679 0.54117647 0.42352941 0.64313725
v -0.02024393 -0.01737051 -0.00900992 0.54117647 0.42352941 0.64313725
v -0.00202040 -0.01615369 -0.01087986 0.54117647 0.42352941 0.64313725
v -0.06107006 -0.00838206 -0.01007539 0.54117647 0.42352941 0.64313725
v -0.06147637 -0.00565062 -0.01098355 0.54117647 0.42352941 0.64313725
v -0.06236421 -0.00309530 -0.01066533 0.54117647 0.42352941 0.64313725
v -0.06236421 -0.00057521 -0.01106220 0.54117647 0.42352941 0.64313725
v -0.06332730 0.00202815 -0.00977506 0.54117647 0.42352941 0.64313725
v -0.06216859 0.00202815 -0.01107651 0.54117647 0.42352941 0.64313725
v -0.06328217 0.00358759 -0.00967137 0.54117647 0.42352941 0.64313725
v -0.06180743 0.00436892 -0.01073684 0.54117647 0.42352941 0.64313725
v -0.02024393 0.01386331 -0.00998601 0.54117647 0.42352941 0.64313725
v -0.01764057 0.01389533 -0.01007539 0.54117647 0.42352941 0.64313725
v -0.01503721 0.01389854 -0.01006109 0.54117647 0.42352941 0.64313725
v -0.00722713 0.01390174 -0.01002176 0.54117647 0.42352941 0.64313725
v -0.00462376 0.01389854 -0.00998601 0.54117647 0.42352941 0.64313725
v 0.05525355 0.01256003 -0.00827696 0.54117647 0.42352941 0.64313725
v 0.05785692 0.01229105 -0.00827696 0.54117647 0.42352941 0.64313725
v -0.03770000 0.01127597 -0.01238868 0.54117647 0.42352941 0.64313725
v -0.03848252 0.01259846 -0.00827696 0.54117647 0.42352941 0.64313725
v -0.03586410 0.01300834 -0.00827696 0.54117647 0.42352941 0.64313725
v -0.05670604 0.00947636 -0.00827696 0.54117647 0.42352941 0.64313725
v -0.05670604 0.01041459 -0.00567049 0.54117647 0.42352941 0.64313725
v -0.03326074 0.01330614 -0.00827696 0.54117647 0.42352941 0.64313725
v -0.02435213 0.01376084 -0.00963204 0.54117647 0.42352941 0.64313725
v -0.02531522 0.01340540 -0.01065103 0.54117647 0.42352941 0.64313725
v -0.02284729 0.01380247 -0.00978221 0.54117647 0.42352941 0.64313725
v -0.06295110 0.00532316 -0.00926020 0.54117647 0.42352941 0.64313725
v -0.06347780 0.00649195 -0.00752613 0.54117647 0.42352941 0.64313725
v -0.06200306 0.00735013 -0.00829484 0.54117647 0.42352941 0.64313725
v -0.05982105 0.00820510 -0.00906355 0.54117647 0.42352941 0.64313725
v -0.06103997 0.00869503 -0.00732948 0.54117647 0.42352941 0.64313725
v -0.05909873 0.00889357 -0.00822691 0.54117647 0.42352941 0.64313725
v 0.06046028 0.01256324 -0.00306760 0.54117647 0.42352941 0.64313725
v 0.07809693 0.00622617 0.00170200 0.54117647 0.42352941 0.64313725
v 0.06046028 0.01237431 -0.00046828 0.54117647 0.42352941 0.64313725
v 0.08920259 0.00239960 -0.00046828 0.54117647 0.42352941 0.64313725
v 0.05785692 0.01285143 -0.00567049 0.54117647 0.42352941 0.64313725
v 0.08920259 -0.00513187 -0.00306760 0.54117647 0.42352941 0.64313725
v 0.08322841 -0.01032257 -0.00256346 0.54117647 0.42352941 0.64313725
v 0.08042941 -0.01256728 -0.00232391 0.54117647 0.42352941 0.64313725
v 0.08145270 -0.01118715 -0.00331072 0.54117647 0.42352941 0.64313725
v 0.07865371 -0.01275621 -0.00314268 0.54117647 0.42352941 0.64313725
v 0.05785692 -0.01413633 -0.00827696 0.54117647 0.42352941 0.64313725
v 0.05525355 -0.01436369 -0.00827696 0.54117647 0.42352941 0.64313725
v -0.02024393 -0.01765871 -0.00770847 0.54117647 0.42352941 0.64313725
v -0.02805401 -0.01816465 -0.00567049 0.54117647 0.42352941 0.64313725
v -0.03065738 -0.01774196 -0.00780501 0.54117647 0.42352941 0.64313725
v -0.03586410 -0.01762668 -0.00749395 0.54117647 0.42352941 0.64313725
v -0.03782038 -0.01757225 -0.00725440 0.54117647 0.42352941 0.64313725
v -0.03956599 -0.01747298 -0.00678244 0.54117647 0.42352941 0.64313725
v -0.05670604 -0.01404988 -0.00567049 0.54117647 0.42352941 0.64313725
v -0.05879776 -0.01266334 -0.00760479 0.54117647 0.42352941 0.64313725
v -0.06054336 -0.01224706 -0.00687898 0.54117647 0.42352941 0.64313725
v -0.05952008 -0.01167708 -0.00839495 0.54117647 0.42352941 0.64313725
v -0.06114530 -0.01034818 -0.00827696 0.54117647 0.42352941 0.64313725
v -0.06240936 -0.00831482 -0.00816970 0.54117647 0.42352941 0.64313725
v -0.01160619 -0.01749219 -0.00689328 0.54117647 0.42352941 0.64313725
v -0.06292100 -0.00577871 -0.00897774 0.54117647 0.42352941 0.64313725
v -0.06313168 -0.00391185 -0.00938891 0.54117647 0.42352941 0.64313725
v -0.06325206 -0.00217628 -0.00965707 0.54117647 0.42352941 0.64313725
v -0.06331226 -0.00057521 -0.00976076 0.54117647 0.42352941 0.64313725
v -0.06382390 0.00202815 -0.00827696 0.54117647 0.42352941 0.64313725
v -0.06361323 0.00452583 -0.00834490 0.54117647 0.42352941 0.64313725
v -0.02024393 0.01410988 -0.00827696 0.54117647 0.42352941 0.64313725
v -0.01764057 0.01417712 -0.00827696 0.54117647 0.42352941 0.64313725
v -0.01503721 0.01420914 -0.00827696 0.54117647 0.42352941 0.64313725
v -0.00722713 0.01420594 -0.00827696 0.54117647 0.42352941 0.64313725
v -0.00462376 0.01418993 -0.00827696 0.54117647 0.42352941 0.64313725
v 0.05525355 0.01298592 -0.00567049 0.54117647 0.42352941 0.64313725
v -0.03586410 0.01332215 -0.00567049 0.54117647 0.42352941 0.64313725
v -0.05401239 0.01086930 -0.00549172 0.54117647 0.42352941 0.64313725
v -0.05309444 0.01117030 -0.00450133 0.54117647 0.42352941 0.64313725
v -0.05930940 0.00973894 -0.00567049 0.54117647 0.42352941 0.64313725
v -0.05930940 0.01018083 -0.00306760 0.54117647 0.42352941 0.64313725
v -0.05670604 0.01081486 -0.00306760 0.54117647 0.42352941 0.64313725
v -0.03137970 0.01370961 -0.00637485 0.54117647 0.42352941 0.64313725
v -0.02964915 0.01376404 -0.00708993 0.54117647 0.42352941 0.64313725
v -0.03056709 0.01354950 -0.00808747 0.54117647 0.42352941 0.64313725
v -0.02284729 0.01400100 -0.00827696 0.54117647 0.42352941 0.64313725
v -0.06430545 0.00463470 -0.00567049 0.54117647 0.42352941 0.64313725
v -0.06370351 0.00698828 -0.00567049 0.54117647 0.42352941 0.64313725
v -0.06287586 0.00829156 -0.00567049 0.54117647 0.42352941 0.64313725
v -0.06156665 0.00894480 -0.00567049 0.54117647 0.42352941 0.64313725
v 0.05785692 0.01300834 -0.00306760 0.54117647 0.42352941 0.64313725
v 0.07738965 0.00593478 0.00343964 0.54117647 0.42352941 0.64313725
v 0.06211559 0.01138805 0.00149105 0.54117647 0.42352941 0.64313725
v 0.05785692 0.01270413 -0.00046828 0.54117647 0.42352941 0.64313725
v 0.06055057 0.01165062 0.00227048 0.54117647 0.42352941 0.64313725
v 0.08920259 0.00125002 0.00116568 0.54117647 0.42352941 0.64313725
v 0.08920259 -0.00512867 -0.00299609 0.54117647 0.42352941 0.64313725
v 0.08327355 -0.01040262 -0.00046828 0.54117647 0.42352941 0.64313725
v 0.08172357 -0.01170590 -0.00046828 0.54117647 0.42352941 0.64313725
v 0.08041437 -0.01254807 -0.00046828 0.54117647 0.42352941 0.64313725
v 0.07868381 -0.01305080 -0.00046828 0.54117647 0.42352941 0.64313725
v 0.07608045 -0.01303800 -0.00306760 0.54117647 0.42352941 0.64313725
v 0.05853409 -0.01484401 -0.00358603 0.54117647 0.42352941 0.64313725
v 0.05775158 -0.01470312 -0.00550960 0.54117647 0.42352941 0.64313725
v 0.05525355 -0.01478637 -0.00601731 0.54117647 0.42352941 0.64313725
v -0.02024393 -0.01788926 -0.00567049 0.54117647 0.42352941 0.64313725
v -0.01037223 -0.01756264 -0.00515921 0.54117647 0.42352941 0.64313725
v -0.01243385 -0.01765871 -0.00306760 0.54117647 0.42352941 0.64313725
v -0.02024393 -0.01790527 -0.00306760 0.54117647 0.42352941 0.64313725
v -0.02545066 -0.01806218 -0.00306760 0.54117647 0.42352941 0.64313725
v -0.02805401 -0.01811661 -0.00306760 0.54117647 0.42352941 0.64313725
v -0.03848252 -0.01782842 -0.00306760 0.54117647 0.42352941 0.64313725
v -0.03586410 -0.01786044 -0.00567049 0.54117647 0.42352941 0.64313725
v -0.03860290 -0.01768752 -0.00581708 0.54117647 0.42352941 0.64313725
v -0.04027326 -0.01758506 -0.00504837 0.54117647 0.42352941 0.64313725
v -0.04111597 -0.01732888 -0.00581708 0.54117647 0.42352941 0.64313725
v -0.05329007 -0.01499131 -0.00470513 0.54117647 0.42352941 0.64313725
v -0.05670604 -0.01448857 -0.00306760 0.54117647 0.42352941 0.64313725
v -0.05930940 -0.01374567 -0.00306760 0.54117647 0.42352941 0.64313725
v -0.05952008 -0.01305401 -0.00587429 0.54117647 0.42352941 0.64313725
v -0.06096472 -0.01258009 -0.00514133 0.54117647 0.42352941 0.64313725
v -0.06198801 -0.01097260 -0.00563831 0.54117647 0.42352941 0.64313725
v -0.06301129 -0.00913777 -0.00613172 0.54117647 0.42352941 0.64313725
v -0.06332730 -0.00740220 -0.00722937 0.54117647 0.42352941 0.64313725
v 0.05680353 -0.01491446 -0.00453709 0.54117647 0.42352941 0.64313725
v -0.06347780 -0.00577871 -0.00767629 0.54117647 0.42352941 0.64313725
v -0.06356808 -0.00309530 -0.00842355 0.54117647 0.42352941 0.64313725
v -0.06376371 -0.00057521 -0.00827696 0.54117647 0.42352941 0.64313725
v -0.06438070 0.00202815 -0.00567049 0.54117647 0.42352941 0.64313725
v -0.02284729 0.01420274 -0.00567049 0.54117647 0.42352941 0.64313725
v -0.02024393 0.01430201 -0.00567049 0.54117647 0.42352941 0.64313725
v -0.01764057 0.01437566 -0.00567049 0.54117647 0.42352941 0.64313725
v -0.01503721 0.01444610 -0.00567049 0.54117647 0.42352941 0.64313725
v -0.01243385 0.01446211 -0.00567049 0.54117647 0.42352941 0.64313725
v -0.00722713 0.01442049 -0.00567049 0.54117647 0.42352941 0.64313725
v -0.03586410 0.01338939 -0.00306760 0.54117647 0.42352941 0.64313725
v -0.03213212 0.01376404 -0.00463720 0.54117647 0.42352941 0.64313725
v -0.03311025 0.01361354 -0.00557396 0.54117647 0.42352941 0.64313725
v -0.05479490 0.01108384 -0.00306760 0.54117647 0.42352941 0.64313725
v -0.05930940 0.00994387 -0.00046828 0.54117647 0.42352941 0.64313725
v -0.05670604 0.01061953 -0.00046828 0.54117647 0.42352941 0.64313725
v -0.06188267 0.00914974 -0.00306760 0.54117647 0.42352941 0.64313725
v -0.06170209 0.00903446 -0.00046828 0.54117647 0.42352941 0.64313725
v -0.05458423 0.01101339 -0.00046828 0.54117647 0.42352941 0.64313725
v -0.05327502 0.01119912 -0.00046828 0.54117647 0.42352941 0.64313725
v -0.03056709 0.01381528 -0.00557396 0.54117647 0.42352941 0.64313725
v -0.02805401 0.01394657 -0.00567049 0.54117647 0.42352941 0.64313725
v -0.06448602 0.00463470 -0.00306760 0.54117647 0.42352941 0.64313725
v -0.06379381 0.00721564 -0.00306760 0.54117647 0.42352941 0.64313725
v -0.06319187 0.00851891 -0.00306760 0.54117647 0.42352941 0.64313725
v -0.00983048 0.01451335 -0.00306760 0.54117647 0.42352941 0.64313725
v -0.00722713 0.01427319 -0.00046828 0.54117647 0.42352941 0.64313725
v 0.07741975 0.00335384 0.00606041 0.54117647 0.42352941 0.64313725
v 0.07845808 0.00410634 0.00472679 0.54117647 0.42352941 0.64313725
v 0.08062504 0.00373489 0.00384724 0.54117647 0.42352941 0.64313725
v 0.08920259 0.00121160 0.00121932 0.54117647 0.42352941 0.64313725
v 0.06148356 0.01104221 0.00322869 0.54117647 0.42352941 0.64313725
v 0.05975301 0.01130799 0.00372568 0.54117647 0.42352941 0.64313725
v 0.06055057 0.01044661 0.00465170 0.54117647 0.42352941 0.64313725
v 0.06046028 0.00904727 0.00667896 0.54117647 0.42352941 0.64313725
v 0.06046028 0.00784006 0.00798041 0.54117647 0.42352941 0.64313725
v 0.05785692 0.01200286 0.00213819 0.54117647 0.42352941 0.64313725
v -0.00722713 0.01393696 0.00158401 0.54117647 0.42352941 0.64313725
v -0.01243385 0.01368079 0.00315361 0.54117647 0.42352941 0.64313725
v 0.08920259 -0.00495576 -0.00072571 0.54117647 0.42352941 0.64313725
v 0.08286725 -0.01000555 0.00121932 0.54117647 0.42352941 0.64313725
v 0.08012845 -0.01235914 0.00100122 0.54117647 0.42352941 0.64313725
v 0.07868381 -0.01254807 0.00145529 0.54117647 0.42352941 0.64313725
v 0.07608045 -0.01266975 0.00180926 0.54117647 0.42352941 0.64313725
v 0.06046028 -0.01386415 0.00213819 0.54117647 0.42352941 0.64313725
v 0.05918117 -0.01489845 -0.00174470 0.54117647 0.42352941 0.64313725
v 0.05918117 -0.01489845 -0.00184838 0.54117647 0.42352941 0.64313725
v -0.01019165 -0.01757545 -0.00306760 0.54117647 0.42352941 0.64313725
v -0.01064310 -0.01753702 -0.00139073 0.54117647 0.42352941 0.64313725
v -0.02284729 -0.01784443 -0.00046828 0.54117647 0.42352941 0.64313725
v -0.02024393 -0.01777719 -0.00046828 0.54117647 0.42352941 0.64313725
v -0.02545066 -0.01788606 -0.00046828 0.54117647 0.42352941 0.64313725
v -0.02805401 -0.01788926 -0.00046828 0.54117647 0.42352941 0.64313725
v -0.03586410 -0.01761708 0.00197015 0.54117647 0.42352941 0.64313725
v -0.03848252 -0.01772275 -0.00046828 0.54117647 0.42352941 0.64313725
v -0.04031841 -0.01757545 -0.00046828 0.54117647 0.42352941 0.64313725
v -0.04060433 -0.01762989 -0.00306760 0.54117647 0.42352941 0.64313725
v -0.04189849 -0.01741854 -0.00306760 0.54117647 0.42352941 0.64313725
v -0.05380171 -0.01513861 -0.00306760 0.54117647 0.42352941 0.64313725
v -0.05670604 -0.01439571 -0.00046828 0.54117647 0.42352941 0.64313725
v -0.05374152 -0.01515142 -0.00046828 0.54117647 0.42352941 0.64313725
v -0.06114530 -0.01273059 -0.00046828 0.54117647 0.42352941 0.64313725
v -0.06120549 -0.01279143 -0.00306760 0.54117647 0.42352941 0.64313725
v -0.05930940 -0.01363360 -0.00046828 0.54117647 0.42352941 0.64313725
v -0.06251470 -0.01111670 -0.00306760 0.54117647 0.42352941 0.64313725
v -0.06322198 -0.00969815 -0.00439407 0.54117647 0.42352941 0.64313725
v -0.06347780 -0.00831482 -0.00542736 0.54117647 0.42352941 0.64313725
v -0.06403457 -0.00577871 -0.00567049 0.54117647 0.42352941 0.64313725
v -0.06424526 -0.00317536 -0.00567049 0.54117647 0.42352941 0.64313725
v -0.06445594 -0.00317536 -0.00306760 0.54117647 0.42352941 0.64313725
v -0.06453117 0.00202815 -0.00306760 0.54117647 0.42352941 0.64313725
v -0.02805401 0.01403303 -0.00306760 0.54117647 0.42352941 0.64313725
v -0.02545066 0.01415791 -0.00306760 0.54117647 0.42352941 0.64313725
v -0.01764057 0.01443330 -0.00306760 0.54117647 0.42352941 0.64313725
v -0.01503721 0.01451975 -0.00306760 0.54117647 0.42352941 0.64313725
v -0.02284729 0.01425718 -0.00306760 0.54117647 0.42352941 0.64313725
v -0.01243385 0.01454857 -0.00306760 0.54117647 0.42352941 0.64313725
v -0.03586410 0.01328052 -0.00046828 0.54117647 0.42352941 0.64313725
v -0.03193649 0.01374483 -0.00188414 0.54117647 0.42352941 0.64313725
v -0.03311025 0.01365837 -0.00287810 0.54117647 0.42352941 0.64313725
v -0.03213212 0.01376404 -0.00361821 0.54117647 0.42352941 0.64313725
v -0.05935455 0.00904407 0.00225618 0.54117647 0.42352941 0.64313725
v -0.05670604 0.00983180 0.00213819 0.54117647 0.42352941 0.64313725
v -0.06119044 0.00877188 0.00146602 0.54117647 0.42352941 0.64313725
v -0.05384686 0.01061312 0.00188077 0.54117647 0.42352941 0.64313725
v -0.05280852 0.01114468 0.00084032 0.54117647 0.42352941 0.64313725
v -0.06299624 0.00837482 -0.00046828 0.54117647 0.42352941 0.64313725
v -0.06438070 0.00463470 -0.00046828 0.54117647 0.42352941 0.64313725
v -0.06374867 0.00707154 -0.00046828 0.54117647 0.42352941 0.64313725
v -0.01243385 0.01436925 -0.00046828 0.54117647 0.42352941 0.64313725
v -0.00983048 0.01432762 -0.00046828 0.54117647 0.42352941 0.64313725
v 0.07794644 0.00202815 0.00628567 0.54117647 0.42352941 0.64313725
v 0.06046028 0.00653998 0.00914241 0.54117647 0.42352941 0.64313725
v 0.05785692 0.00529434 0.01087649 0.54117647 0.42352941 0.64313725
v 0.05949719 0.00360681 0.01139492 0.54117647 0.42352941 0.64313725
v 0.08920259 -0.00051757 0.00176635 0.54117647 0.42352941 0.64313725
v 0.05785692 0.01135602 0.00382936 0.54117647 0.42352941 0.64313725
v 0.05785692 0.01060032 0.00513081 0.54117647 0.42352941 0.64313725
v 0.05785692 0.00930024 0.00709728 0.54117647 0.42352941 0.64313725
v 0.05785692 0.00830757 0.00839873 0.54117647 0.42352941 0.64313725
v 0.05785692 0.00700750 0.00957146 0.54117647 0.42352941 0.64313725
v 0.00318632 0.01272655 0.00474109 0.54117647 0.42352941 0.64313725
v -0.01243385 0.01397539 0.00185216 0.54117647 0.42352941 0.64313725
v -0.01503721 0.01368079 0.00312858 0.54117647 0.42352941 0.64313725
v -0.01503721 0.01312682 0.00474109 0.54117647 0.42352941 0.64313725
v -0.01243385 0.01309159 0.00474109 0.54117647 0.42352941 0.64313725
v 0.08920259 -0.00426729 0.00057574 0.54117647 0.42352941 0.64313725
v 0.08042941 -0.01012403 0.00379718 0.54117647 0.42352941 0.64313725
v 0.08113668 -0.01093418 0.00197730 0.54117647 0.42352941 0.64313725
v 0.07868381 -0.01188522 0.00275674 0.54117647 0.42352941 0.64313725
v 0.07608045 -0.01212858 0.00311071 0.54117647 0.42352941 0.64313725
v 0.06046028 -0.01242638 0.00626421 0.54117647 0.42352941 0.64313725
v 0.06046028 -0.01305401 0.00474109 0.54117647 0.42352941 0.64313725
v 0.05785692 -0.01404988 0.00213819 0.54117647 0.42352941 0.64313725
v 0.05785692 -0.01464868 -0.00036459 0.54117647 0.42352941 0.64313725
v -0.00202040 -0.01616330 0.00474109 0.54117647 0.42352941 0.64313725
v -0.00202040 -0.01671727 0.00213819 0.54117647 0.42352941 0.64313725
v -0.01840803 -0.01756264 0.00116926 0.54117647 0.42352941 0.64313725
v -0.02024393 -0.01759786 0.00139094 0.54117647 0.42352941 0.64313725
v -0.02805401 -0.01763949 0.00187361 0.54117647 0.42352941 0.64313725
v -0.03586410 -0.01747618 0.00327160 0.54117647 0.42352941 0.64313725
v -0.03848252 -0.01757225 0.00141954 0.54117647 0.42352941 0.64313725
v -0.03989706 -0.01751461 0.00093686 0.54117647 0.42352941 0.64313725
v -0.04162761 -0.01738972 -0.00046828 0.54117647 0.42352941 0.64313725
v -0.05670604 -0.01380971 0.00213819 0.54117647 0.42352941 0.64313725
v -0.05321483 -0.01500732 0.00119429 0.54117647 0.42352941 0.64313725
v -0.04089024 -0.01719760 0.00193797 0.54117647 0.42352941 0.64313725
v -0.06087443 -0.01249683 0.00138378 0.54117647 0.42352941 0.64313725
v -0.06245451 -0.01112311 -0.00046828 0.54117647 0.42352941 0.64313725
v -0.05939969 -0.01289070 0.00220613 0.54117647 0.42352941 0.64313725
v -0.06328217 -0.00982303 -0.00046828 0.54117647 0.42352941 0.64313725
v -0.06326711 -0.00981663 -0.00306760 0.54117647 0.42352941 0.64313725
v -0.06376371 -0.00838206 -0.00306760 0.54117647 0.42352941 0.64313725
v -0.06433555 -0.00577871 -0.00306760 0.54117647 0.42352941 0.64313725
v -0.06426031 -0.00577871 -0.00046828 0.54117647 0.42352941 0.64313725
v -0.06435059 -0.00317536 -0.00046828 0.54117647 0.42352941 0.64313725
v -0.06441079 0.00202815 -0.00046828 0.54117647 0.42352941 0.64313725
v -0.03019088 0.01381208 -0.00114045 0.54117647 0.42352941 0.64313725
v -0.02545066 0.01403303 -0.00046828 0.54117647 0.42352941 0.64313725
v -0.03089815 0.01384410 -0.00287810 0.54117647 0.42352941 0.64313725
v -0.01503721 0.01434043 -0.00046828 0.54117647 0.42352941 0.64313725
v -0.02284729 0.01411628 -0.00046828 0.54117647 0.42352941 0.64313725
v -0.03586410 0.01296991 0.00213819 0.54117647 0.42352941 0.64313725
v -0.03326074 0.01351748 -0.00046828 0.54117647 0.42352941 0.64313725
v -0.06025745 0.00842925 0.00320367 0.54117647 0.42352941 0.64313725
v -0.05670604 0.00892559 0.00419763 0.54117647 0.42352941 0.64313725
v -0.05425316 0.00923940 0.00494846 0.54117647 0.42352941 0.64313725
v -0.06200306 0.00792011 0.00225618 0.54117647 0.42352941 0.64313725
v -0.05149932 0.01087570 0.00247071 0.54117647 0.42352941 0.64313725
v -0.03586410 0.01237111 0.00474109 0.54117647 0.42352941 0.64313725
v -0.06352293 0.00654639 0.00213819 0.54117647 0.42352941 0.64313725
v -0.06331226 0.00609488 0.00357193 0.54117647 0.42352941 0.64313725
v -0.06412488 0.00202815 0.00213819 0.54117647 0.42352941 0.64313725
v -0.06398944 0.00463470 0.00213819 0.54117647 0.42352941 0.64313725
v -0.01503721 0.01395938 0.00182713 0.54117647 0.42352941 0.64313725
v 0.07608045 -0.00057521 0.00738689 0.54117647 0.42352941 0.64313725
v 0.07886439 -0.00071290 0.00647516 0.54117647 0.42352941 0.64313725
v 0.07984253 0.00006202 0.00597103 0.54117647 0.42352941 0.64313725
v 0.08920259 -0.00057521 0.00178423 0.54117647 0.42352941 0.64313725
v 0.06005397 0.00202815 0.01165235 0.54117647 0.42352941 0.64313725
v 0.05525355 0.00555372 0.01100878 0.54117647 0.42352941 0.64313725
v 0.05525355 0.00425364 0.01174531 0.54117647 0.42352941 0.64313725
v 0.05785692 0.00399427 0.01160945 0.54117647 0.42352941 0.64313725
v 0.05785692 0.00202815 0.01229592 0.54117647 0.42352941 0.64313725
v 0.00318632 0.01169865 0.00705438 0.54117647 0.42352941 0.64313725
v 0.00318632 0.01098137 0.00835583 0.54117647 0.42352941 0.64313725
v 0.00578968 0.00977416 0.00995046 0.54117647 0.42352941 0.64313725
v 0.00839305 0.00864700 0.01137704 0.54117647 0.42352941 0.64313725
v 0.05525355 0.00709075 0.00970733 0.54117647 0.42352941 0.64313725
v 0.01022894 0.00858936 0.01131269 0.54117647 0.42352941 0.64313725
v -0.02284729 0.01360073 0.00271741 0.54117647 0.42352941 0.64313725
v -0.02545066 0.01304356 0.00474109 0.54117647 0.42352941 0.64313725
v -0.02284729 0.01306597 0.00474109 0.54117647 0.42352941 0.64313725
v -0.01503721 0.01196443 0.00734399 0.54117647 0.42352941 0.64313725
v -0.02545066 0.01206370 0.00734399 0.54117647 0.42352941 0.64313725
v -0.01243385 0.01191000 0.00734399 0.54117647 0.42352941 0.64313725
v 0.08920259 -0.00422246 0.00060792 0.54117647 0.42352941 0.64313725
v 0.08920259 -0.00296722 0.00140166 0.54117647 0.42352941 0.64313725
v 0.08130222 -0.00821235 0.00412612 0.54117647 0.42352941 0.64313725
v 0.07877410 -0.00845251 0.00555271 0.54117647 0.42352941 0.64313725
v 0.07868381 -0.01058194 0.00424053 0.54117647 0.42352941 0.64313725
v 0.07608045 -0.01082851 0.00458377 0.54117647 0.42352941 0.64313725
v 0.06046028 -0.01140490 0.00756566 0.54117647 0.42352941 0.64313725
v 0.06188987 -0.01233672 0.00611762 0.54117647 0.42352941 0.64313725
v 0.05785692 -0.01321091 0.00474109 0.54117647 0.42352941 0.64313725
v 0.05785692 -0.01158102 0.00770153 0.54117647 0.42352941 0.64313725
v 0.00578968 -0.01259930 0.01160587 0.54117647 0.42352941 0.64313725
v 0.00318632 -0.01381612 0.00995046 0.54117647 0.42352941 0.64313725
v -0.00316408 -0.01490165 0.00866689 0.54117647 0.42352941 0.64313725
v -0.00218593 -0.01525068 0.00754063 0.54117647 0.42352941 0.64313725
v -0.02545066 -0.01640986 0.00734399 0.54117647 0.42352941 0.64313725
v -0.02024393 -0.01685496 0.00474109 0.54117647 0.42352941 0.64313725
v -0.02024393 -0.01735770 0.00269238 0.54117647 0.42352941 0.64313725
v -0.02805401 -0.01746017 0.00317506 0.54117647 0.42352941 0.64313725
v -0.03326074 -0.01747618 0.00325372 0.54117647 0.42352941 0.64313725
v -0.03326074 -0.01714956 0.00474109 0.54117647 0.42352941 0.64313725
v -0.03586410 -0.01713035 0.00474109 0.54117647 0.42352941 0.64313725
v -0.03848252 -0.01692541 0.00474109 0.54117647 0.42352941 0.64313725
v -0.03848252 -0.01739293 0.00272099 0.54117647 0.42352941 0.64313725
v -0.05860213 -0.01254166 0.00394020 0.54117647 0.42352941 0.64313725
v -0.05408763 -0.01449498 0.00209171 0.54117647 0.42352941 0.64313725
v -0.05410268 -0.01351512 0.00474109 0.54117647 0.42352941 0.64313725
v -0.05663080 -0.01279783 0.00478042 0.54117647 0.42352941 0.64313725
v -0.04108587 -0.01643548 0.00474109 0.54117647 0.42352941 0.64313725
v -0.06034774 -0.01215420 0.00312143 0.54117647 0.42352941 0.64313725
v -0.06194287 -0.01093098 0.00200233 0.54117647 0.42352941 0.64313725
v -0.06322198 -0.00970775 0.00088323 0.54117647 0.42352941 0.64313725
v -0.06373362 -0.00838206 -0.00046828 0.54117647 0.42352941 0.64313725
v -0.06391419 -0.00577871 0.00213819 0.54117647 0.42352941 0.64313725
v -0.06407972 -0.00317536 0.00213819 0.54117647 0.42352941 0.64313725
v -0.02897197 0.01372242 0.00059719 0.54117647 0.42352941 0.64313725
v -0.02808411 0.01387932 -0.00035029 0.54117647 0.42352941 0.64313725
v -0.03089815 0.01368079 -0.00035029 0.54117647 0.42352941 0.64313725
v -0.02545066 0.01381848 0.00121574 0.54117647 0.42352941 0.64313725
v -0.02724140 0.01377685 0.00099764 0.54117647 0.42352941 0.64313725
v -0.02284729 0.01386331 0.00141596 0.54117647 0.42352941 0.64313725
v -0.03326074 0.01259526 0.00474109 0.54117647 0.42352941 0.64313725
v -0.03326074 0.01318445 0.00213819 0.54117647 0.42352941 0.64313725
v -0.06191276 0.00662324 0.00417618 0.54117647 0.42352941 0.64313725
v -0.06058852 0.00591876 0.00602824 0.54117647 0.42352941 0.64313725
v -0.05884291 0.00636386 0.00652879 0.54117647 0.42352941 0.64313725
v -0.05655556 0.00674172 0.00737616 0.54117647 0.42352941 0.64313725
v -0.05521626 0.00848689 0.00595673 0.54117647 0.42352941 0.64313725
v -0.05348570 0.00871104 0.00630354 0.54117647 0.42352941 0.64313725
v -0.05149932 0.00992146 0.00474109 0.54117647 0.42352941 0.64313725
v -0.03848252 0.01137524 0.00655382 0.54117647 0.42352941 0.64313725
v -0.03848252 0.01201247 0.00474109 0.54117647 0.42352941 0.64313725
v -0.03586410 0.01156737 0.00697572 0.54117647 0.42352941 0.64313725
v -0.06346274 0.00463470 0.00395093 0.54117647 0.42352941 0.64313725
v -0.06305644 0.00202815 0.00576723 0.54117647 0.42352941 0.64313725
v -0.06128074 0.00418320 0.00667896 0.54117647 0.42352941 0.64313725
v -0.06349284 -0.00078014 0.00496992 0.54117647 0.42352941 0.64313725
v -0.06356808 0.00202815 0.00446578 0.54117647 0.42352941 0.64313725
v 0.07608045 -0.00317536 0.00746197 0.54117647 0.42352941 0.64313725
v 0.06071610 -0.00031583 0.01183112 0.54117647 0.42352941 0.64313725
v 0.05785692 -0.00057521 0.01267134 0.54117647 0.42352941 0.64313725
v 0.07893963 -0.00324580 0.00651092 0.54117647 0.42352941 0.64313725
v 0.08002311 -0.00167355 0.00606399 0.54117647 0.42352941 0.64313725
v 0.08002311 -0.00242605 0.00606399 0.54117647 0.42352941 0.64313725
v 0.07996292 -0.00416162 0.00603181 0.54117647 0.42352941 0.64313725
v 0.07975224 -0.00577871 0.00592097 0.54117647 0.42352941 0.64313725
v 0.00839305 0.00723805 0.01254263 0.54117647 0.42352941 0.64313725
v 0.00578968 0.00582270 0.01378687 0.54117647 0.42352941 0.64313725
v 0.00839305 0.00569141 0.01371893 0.54117647 0.42352941 0.64313725
v 0.05525355 0.00202815 0.01252117 0.54117647 0.42352941 0.64313725
v 0.00578968 0.00451942 0.01448765 0.54117647 0.42352941 0.64313725
v 0.00839305 0.00438813 0.01439826 0.54117647 0.42352941 0.64313725
v 0.00578968 0.00202815 0.01553167 0.54117647 0.42352941 0.64313725
v -0.00462376 0.01109665 0.00856677 0.54117647 0.42352941 0.64313725
v 0.00318632 0.00989264 0.00995046 0.54117647 0.42352941 0.64313725
v 0.00578968 0.00871425 0.01144498 0.54117647 0.42352941 0.64313725
v 0.00578968 0.00723805 0.01267849 0.54117647 0.42352941 0.64313725
v -0.02545066 0.01357192 0.00251719 0.54117647 0.42352941 0.64313725
v -0.02805401 0.01293469 0.00474109 0.54117647 0.42352941 0.64313725
v -0.02805401 0.01198365 0.00734399 0.54117647 0.42352941 0.64313725
v -0.01503721 0.01121513 0.00875627 0.54117647 0.42352941 0.64313725
v -0.01243385 0.01119271 0.00872409 0.54117647 0.42352941 0.64313725
v -0.02545066 0.01128878 0.00887068 0.54117647 0.42352941 0.64313725
v -0.02805401 0.01125996 0.00883493 0.54117647 0.42352941 0.64313725
v 0.07796149 -0.00762956 0.00626779 0.54117647 0.42352941 0.64313725
v 0.07608045 -0.00938113 0.00588522 0.54117647 0.42352941 0.64313725
v 0.06046028 -0.01010482 0.00903158 0.54117647 0.42352941 0.64313725
v 0.05785692 -0.01027774 0.00920320 0.54117647 0.42352941 0.64313725
v 0.00578968 -0.01110389 0.01290732 0.54117647 0.42352941 0.64313725
v 0.00318632 -0.01268576 0.01168810 0.54117647 0.42352941 0.64313725
v -0.02545066 -0.01480238 0.01110889 0.54117647 0.42352941 0.64313725
v -0.02545066 -0.01549085 0.00980744 0.54117647 0.42352941 0.64313725
v -0.02805401 -0.01647711 0.00734399 0.54117647 0.42352941 0.64313725
v -0.02805401 -0.01711114 0.00474109 0.54117647 0.42352941 0.64313725
v -0.02545066 -0.01703108 0.00474109 0.54117647 0.42352941 0.64313725
v -0.03065738 -0.01713355 0.00474109 0.54117647 0.42352941 0.64313725
v -0.03065738 -0.01646110 0.00734399 0.54117647 0.42352941 0.64313725
v -0.03586410 -0.01632020 0.00734399 0.54117647 0.42352941 0.64313725
v -0.03326074 -0.01641947 0.00734399 0.54117647 0.42352941 0.64313725
v -0.03848252 -0.01601600 0.00734399 0.54117647 0.42352941 0.64313725
v -0.05744341 -0.01207094 0.00567427 0.54117647 0.42352941 0.64313725
v -0.05410268 -0.01261531 0.00658600 0.54117647 0.42352941 0.64313725
v -0.05569780 -0.01239116 0.00622488 0.54117647 0.42352941 0.64313725
v -0.04006259 -0.01499771 0.00883851 0.54117647 0.42352941 0.64313725
v -0.06063366 -0.00971416 0.00606757 0.54117647 0.42352941 0.64313725
v -0.06113025 -0.01025532 0.00474109 0.54117647 0.42352941 0.64313725
v -0.05939969 -0.01157141 0.00478042 0.54117647 0.42352941 0.64313725
v -0.06301129 -0.00910575 0.00262087 0.54117647 0.42352941 0.64313725
v -0.06343265 -0.00829560 0.00190579 0.54117647 0.42352941 0.64313725
v -0.06329722 -0.00737018 0.00365417 0.54117647 0.42352941 0.64313725
v -0.06343265 -0.00577871 0.00408322 0.54117647 0.42352941 0.64313725
v -0.06347780 -0.00292879 0.00486623 0.54117647 0.42352941 0.64313725
v -0.03065738 0.01335417 0.00213819 0.54117647 0.42352941 0.64313725
v -0.02808411 0.01354630 0.00197373 0.54117647 0.42352941 0.64313725
v -0.03301996 0.01158017 0.00752276 0.54117647 0.42352941 0.64313725
v -0.03065738 0.01181713 0.00734399 0.54117647 0.42352941 0.64313725
v -0.05849679 0.00373169 0.00893147 0.54117647 0.42352941 0.64313725
v -0.05733807 0.00546726 0.00826286 0.54117647 0.42352941 0.64313725
v -0.05559246 0.00603404 0.00874555 0.54117647 0.42352941 0.64313725
v -0.05425316 0.00776321 0.00724030 0.54117647 0.42352941 0.64313725
v -0.03944561 0.00844527 0.01115179 0.54117647 0.42352941 0.64313725
v -0.03852765 0.00935788 0.01015068 0.54117647 0.42352941 0.64313725
v -0.03848252 0.01077003 0.00785527 0.54117647 0.42352941 0.64313725
v -0.03586410 0.01096856 0.00827717 0.54117647 0.42352941 0.64313725
v -0.03371219 0.01107423 0.00850957 0.54117647 0.42352941 0.64313725
v -0.06319187 -0.00004685 0.00599248 0.54117647 0.42352941 0.64313725
v -0.06063366 0.00082093 0.00867404 0.54117647 0.42352941 0.64313725
v -0.06153656 0.00182641 0.00746555 0.54117647 0.42352941 0.64313725
v -0.06022735 0.00255650 0.00841661 0.54117647 0.42352941 0.64313725
v -0.06322198 -0.00189449 0.00604611 0.54117647 0.42352941 0.64313725
v -0.06322198 -0.00178242 0.00604611 0.54117647 0.42352941 0.64313725
v 0.06046028 -0.00317536 0.01194911 0.54117647 0.42352941 0.64313725
v 0.07608045 -0.00577871 0.00717594 0.54117647 0.42352941 0.64313725
v 0.07844303 -0.00577871 0.00648589 0.54117647 0.42352941 0.64313725
v 0.00578968 -0.00317536 0.01610015 0.54117647 0.42352941 0.64313725
v 0.05785692 -0.00317536 0.01254263 0.54117647 0.42352941 0.64313725
v 0.00578968 -0.00057521 0.01608943 0.54117647 0.42352941 0.64313725
v 0.00318632 0.00587714 0.01381905 0.54117647 0.42352941 0.64313725
v 0.00318632 0.00457386 0.01451625 0.54117647 0.42352941 0.64313725
v 0.00318632 0.00202815 0.01559960 0.54117647 0.42352941 0.64313725
v 0.00318632 0.00875267 0.01147716 0.54117647 0.42352941 0.64313725
v 0.00318632 0.00723805 0.01274285 0.54117647 0.42352941 0.64313725
v -0.03198163 0.01114468 0.00864901 0.54117647 0.42352941 0.64313725
v -0.03065738 0.01118631 0.00872409 0.54117647 0.42352941 0.64313725
v -0.02284729 0.01031532 0.01014710 0.54117647 0.42352941 0.64313725
v -0.02805401 0.01035375 0.01013995 0.54117647 0.42352941 0.64313725
v -0.02545066 0.01033454 0.01017213 0.54117647 0.42352941 0.64313725
v -0.03065738 0.01031532 0.01002554 0.54117647 0.42352941 0.64313725
v 0.06182967 -0.00461953 0.01129123 0.54117647 0.42352941 0.64313725
v 0.06023455 -0.00560579 0.01147358 0.54117647 0.42352941 0.64313725
v 0.06095687 -0.00635830 0.01106241 0.54117647 0.42352941 0.64313725
v 0.05921127 -0.00710440 0.01126263 0.54117647 0.42352941 0.64313725
v 0.06023455 -0.00813870 0.01040453 0.54117647 0.42352941 0.64313725
v 0.05785692 -0.00851335 0.01050464 0.54117647 0.42352941 0.64313725
v 0.00730956 -0.00972056 0.01387983 0.54117647 0.42352941 0.64313725
v 0.00578968 -0.00980062 0.01393346 0.54117647 0.42352941 0.64313725
v 0.00318632 -0.01116794 0.01298955 0.54117647 0.42352941 0.64313725
v -0.02545066 -0.01349911 0.01235313 0.54117647 0.42352941 0.64313725
v -0.02805401 -0.01485682 0.01119470 0.54117647 0.42352941 0.64313725
v -0.02805401 -0.01552287 0.00989325 0.54117647 0.42352941 0.64313725
v -0.03065738 -0.01549725 0.00987537 0.54117647 0.42352941 0.64313725
v -0.03586410 -0.01536596 0.00961079 0.54117647 0.42352941 0.64313725
v -0.03326074 -0.01544281 0.00979314 0.54117647 0.42352941 0.64313725
v -0.03848252 -0.01518024 0.00920320 0.54117647 0.42352941 0.64313725
v -0.05672109 -0.01106227 0.00735471 0.54117647 0.42352941 0.64313725
v -0.05930940 -0.01019448 0.00658958 0.54117647 0.42352941 0.64313725
v -0.05410268 -0.01175073 0.00789102 0.54117647 0.42352941 0.64313725
v -0.03848252 -0.01437329 0.01050464 0.54117647 0.42352941 0.64313725
v -0.06103997 -0.00838206 0.00649661 0.54117647 0.42352941 0.64313725
v -0.06239432 -0.00829560 0.00460880 0.54117647 0.42352941 0.64313725
v -0.05772933 -0.00942596 0.00848454 0.54117647 0.42352941 0.64313725
v -0.05933950 -0.00848773 0.00786957 0.54117647 0.42352941 0.64313725
v -0.06290596 -0.00577871 0.00538824 0.54117647 0.42352941 0.64313725
v -0.06313168 -0.00363006 0.00582086 0.54117647 0.42352941 0.64313725
v -0.05933950 0.00182641 0.00919962 0.54117647 0.42352941 0.64313725
v -0.05661575 0.00200893 0.01065839 0.54117647 0.42352941 0.64313725
v -0.05479490 0.00286391 0.01110531 0.54117647 0.42352941 0.64313725
v -0.05655556 0.00461228 0.00931046 0.54117647 0.42352941 0.64313725
v -0.05399734 0.00443937 0.01040811 0.54117647 0.42352941 0.64313725
v -0.05410268 0.00630302 0.00900655 0.54117647 0.42352941 0.64313725
v -0.03852765 0.00743979 0.01217794 0.54117647 0.42352941 0.64313725
v -0.03770000 0.00866621 0.01138419 0.54117647 0.42352941 0.64313725
v -0.03586410 0.00990865 0.00995046 0.54117647 0.42352941 0.64313725
v -0.06227392 -0.00078014 0.00708656 0.54117647 0.42352941 0.64313725
v -0.06073899 -0.00057521 0.00875270 0.54117647 0.42352941 0.64313725
v -0.05930940 -0.00057521 0.00972163 0.54117647 0.42352941 0.64313725
v -0.05723274 -0.00057521 0.01091582 0.54117647 0.42352941 0.64313725
v -0.06221373 -0.00292879 0.00708656 0.54117647 0.42352941 0.64313725
v -0.06072395 -0.00317536 0.00873839 0.54117647 0.42352941 0.64313725
v 0.00318632 -0.00057521 0.01615021 0.54117647 0.42352941 0.64313725
v 0.00318632 -0.00317536 0.01613591 0.54117647 0.42352941 0.64313725
v -0.03193649 -0.00448184 0.01646127 0.54117647 0.42352941 0.64313725
v 0.00578968 -0.00577871 0.01559245 0.54117647 0.42352941 0.64313725
v 0.00839305 -0.00577871 0.01543155 0.54117647 0.42352941 0.64313725
v 0.05785692 -0.00577871 0.01188475 0.54117647 0.42352941 0.64313725
v -0.02545066 0.00751664 0.01304318 0.54117647 0.42352941 0.64313725
v -0.02545066 0.00621336 0.01404787 0.54117647 0.42352941 0.64313725
v -0.02805401 0.00463470 0.01478798 0.54117647 0.42352941 0.64313725
v -0.03065738 0.00202815 0.01567468 0.54117647 0.42352941 0.64313725
v -0.02284729 0.00901525 0.01171671 0.54117647 0.42352941 0.64313725
v -0.03301996 0.01035055 0.00968945 0.54117647 0.42352941 0.64313725
v -0.02805401 0.00905367 0.01176319 0.54117647 0.42352941 0.64313725
v -0.03065738 0.00901525 0.01172743 0.54117647 0.42352941 0.64313725
v -0.03586410 0.00878469 0.01150576 0.54117647 0.42352941 0.64313725
v -0.03326074 0.00890317 0.01162375 0.54117647 0.42352941 0.64313725
v 0.05785692 -0.00721327 0.01132699 0.54117647 0.42352941 0.64313725
v 0.00825761 -0.00856458 0.01435893 0.54117647 0.42352941 0.64313725
v 0.00578968 -0.00838206 0.01461636 0.54117647 0.42352941 0.64313725
v 0.00318632 -0.00986786 0.01397279 0.54117647 0.42352941 0.64313725
v -0.02805401 -0.01204533 0.01371178 0.54117647 0.42352941 0.64313725
v -0.02805401 -0.01355674 0.01241034 0.54117647 0.42352941 0.64313725
v -0.03065738 -0.01354714 0.01240676 0.54117647 0.42352941 0.64313725
v -0.03065738 -0.01485042 0.01117682 0.54117647 0.42352941 0.64313725
v -0.03326074 -0.01480238 0.01109459 0.54117647 0.42352941 0.64313725
v -0.03586410 -0.01468711 0.01091582 0.54117647 0.42352941 0.64313725
v -0.05599877 -0.01005679 0.00896007 0.54117647 0.42352941 0.64313725
v -0.05410268 -0.01045065 0.00933549 0.54117647 0.42352941 0.64313725
v -0.03848252 -0.01307002 0.01196341 0.54117647 0.42352941 0.64313725
v -0.06024240 -0.00623021 0.00835940 0.54117647 0.42352941 0.64313725
v -0.06140112 -0.00552894 0.00743337 0.54117647 0.42352941 0.64313725
v -0.05679633 -0.00848773 0.00950711 0.54117647 0.42352941 0.64313725
v -0.05849679 -0.00769040 0.00897795 0.54117647 0.42352941 0.64313725
v -0.06061861 -0.00449144 0.00865258 0.54117647 0.42352941 0.64313725
v -0.05568276 0.00112834 0.01136274 0.54117647 0.42352941 0.64313725
v -0.05399734 0.00200893 0.01152721 0.54117647 0.42352941 0.64313725
v -0.03848252 0.00202815 0.01510619 0.54117647 0.42352941 0.64313725
v -0.05306434 0.00344030 0.01131269 0.54117647 0.42352941 0.64313725
v -0.03848252 0.00550889 0.01361525 0.54117647 0.42352941 0.64313725
v -0.03658642 0.00581630 0.01378687 0.54117647 0.42352941 0.64313725
v -0.03578886 0.00700430 0.01297883 0.54117647 0.42352941 0.64313725
v -0.05930940 -0.00317536 0.00967873 0.54117647 0.42352941 0.64313725
v -0.05724778 -0.00317536 0.01089079 0.54117647 0.42352941 0.64313725
v -0.05595363 -0.00317536 0.01149146 0.54117647 0.42352941 0.64313725
v -0.05593858 -0.00057521 0.01147000 0.54117647 0.42352941 0.64313725
v -0.03076271 -0.00082177 0.01627535 0.54117647 0.42352941 0.64313725
v -0.03169571 -0.00184966 0.01646127 0.54117647 0.42352941 0.64313725
v -0.03172581 -0.00317536 0.01646127 0.54117647 0.42352941 0.64313725
v -0.03205687 -0.00448184 0.01646127 0.54117647 0.42352941 0.64313725
v -0.03306512 -0.00552254 0.01623602 0.54117647 0.42352941 0.64313725
v -0.03089815 -0.00552254 0.01620742 0.54117647 0.42352941 0.64313725
v -0.03065738 -0.00838206 0.01543155 0.54117647 0.42352941 0.64313725
v -0.02805401 0.00751984 0.01306464 0.54117647 0.42352941 0.64313725
v -0.02805401 0.00621656 0.01404787 0.54117647 0.42352941 0.64313725
v -0.03065738 0.00463470 0.01475223 0.54117647 0.42352941 0.64313725
v -0.03326074 0.00202815 0.01562463 0.54117647 0.42352941 0.64313725
v -0.03314035 -0.00082177 0.01626105 0.54117647 0.42352941 0.64313725
v -0.03065738 0.00746861 0.01302888 0.54117647 0.42352941 0.64313725
v -0.03326074 0.00736934 0.01292519 0.54117647 0.42352941 0.64313725
v -0.02805401 -0.01074205 0.01439826 0.54117647 0.42352941 0.64313725
v -0.03065738 -0.01074525 0.01442329 0.54117647 0.42352941 0.64313725
v -0.03065738 -0.01204853 0.01370821 0.54117647 0.42352941 0.64313725
v -0.03326074 -0.01350231 0.01236743 0.54117647 0.42352941 0.64313725
v -0.03586410 -0.01338703 0.01226017 0.54117647 0.42352941 0.64313725
v -0.05420802 -0.00833723 0.01070844 0.54117647 0.42352941 0.64313725
v -0.03872328 -0.01101744 0.01337927 0.54117647 0.42352941 0.64313725
v -0.03586410 -0.01183719 0.01356162 0.54117647 0.42352941 0.64313725
v -0.05933950 -0.00552894 0.00919605 0.54117647 0.42352941 0.64313725
v -0.05514101 -0.00677778 0.01116967 0.54117647 0.42352941 0.64313725
v -0.05661575 -0.00585876 0.01070487 0.54117647 0.42352941 0.64313725
v -0.05410268 -0.00057521 0.01194196 0.54117647 0.42352941 0.64313725
v -0.03848252 -0.00057521 0.01564608 0.54117647 0.42352941 0.64313725
v -0.03586410 -0.00057521 0.01607513 0.54117647 0.42352941 0.64313725
v -0.03586410 0.00202815 0.01547088 0.54117647 0.42352941 0.64313725
v -0.03848252 0.00420881 0.01429100 0.54117647 0.42352941 0.64313725
v -0.04045384 0.00375091 0.01406575 0.54117647 0.42352941 0.64313725
v -0.03578886 0.00482363 0.01436966 0.54117647 0.42352941 0.64313725
v -0.03485586 0.00598281 0.01388698 0.54117647 0.42352941 0.64313725
v -0.05569780 -0.00504221 0.01139135 0.54117647 0.42352941 0.64313725
v -0.05410268 -0.00317536 0.01204564 0.54117647 0.42352941 0.64313725
v -0.03219231 -0.00184966 0.01646127 0.54117647 0.42352941 0.64313725
v -0.03220735 -0.00317536 0.01646127 0.54117647 0.42352941 0.64313725
v -0.03351657 -0.00317536 0.01644339 0.54117647 0.42352941 0.64313725
v -0.03586410 -0.00317536 0.01628965 0.54117647 0.42352941 0.64313725
v -0.03586410 -0.00577871 0.01601434 0.54117647 0.42352941 0.64313725
v -0.03326074 -0.00838206 0.01545301 0.54117647 0.42352941 0.64313725
v -0.03065738 0.00616533 0.01401212 0.54117647 0.42352941 0.64313725
v -0.03326074 0.00463470 0.01465212 0.54117647 0.42352941 0.64313725
v -0.03326074 0.00606606 0.01394776 0.54117647 0.42352941 0.64313725
v -0.03326074 -0.01068761 0.01442329 0.54117647 0.42352941 0.64313725
v -0.03326074 -0.01199089 0.01366888 0.54117647 0.42352941 0.64313725
v -0.05339541 -0.00743743 0.01143425 0.54117647 0.42352941 0.64313725
v -0.03801601 -0.01016886 0.01413726 0.54117647 0.42352941 0.64313725
v -0.03586410 -0.01053391 0.01434821 0.54117647 0.42352941 0.64313725
v -0.05420802 -0.00585876 0.01168453 0.54117647 0.42352941 0.64313725
v -0.03848252 -0.00317536 0.01577122 0.54117647 0.42352941 0.64313725
v -0.03848252 -0.00577871 0.01546016 0.54117647 0.42352941 0.64313725
v -0.03586410 -0.00838206 0.01529569 0.54117647 0.42352941 0.64313725
v -0.03872328 -0.00862543 0.01455916 0.54117647 0.42352941 0.64313725
f 1 2 3
f 1 3 4
f 1 4 5
f 1 5 6
f 1 6 7
f 1 7 8
f 1 8 2
f 2 9 10
f 2 10 11
f 2 11 12
f 2 12 13
f 2 13 3
f 2 8 9
f 3 13 4
f 4 14 5
f 4 13 15
f 4 15 14
f 5 14 6
f 6 14 16
f 6 16 17
f 6 17 7
f 7 17 18
f 7 18 19
f 7 19 20
f 7 20 8
f 8 20 21
f 8 21 22
f 8 22 23
f 8 23 9
f 9 23 22
f 9 22 24
f 9 24 10
f 10 25 26
f 10 26 27
f 10 27 11
f 10 24 28
f 10 28 25
f 11 27 29
f 11 29 30
f 11 30 13
f 11 13 12
f 13 30 15
f 14 31 32
f 14 32 16
f 14 15 33
f 14 33 34
f 14 34 31
f 15 30 29
f 15 29 35
f 15 35 36
f 15 36 37
f 15 37 33
f 16 38 17
f 16 32 38
f 17 38 18
f 18 39 40
f 18 40 41
f 18 41 42
f 18 42 43
f 18 43 19
f 18 38 44
f 18 44 39
f 19 43 20
f 20 43 45
f 20 45 21
f 21 45 46
f 21 46 47
f 21 47 22
f 22 48 49
f 22 49 24
f 22 47 48
f 24 49 50
f 24 50 28
f 25 51 52
f 25 52 53
f 25 53 26
f 25 28 54
f 25 54 51
f 26 53 55
f 26 55 56
f 26 56 27
f 27 56 57
f 27 57 29
f 28 50 54
f 29 57 35
f 31 58 32
f 31 34 59
f 31 59 58
f 32 58 60
f 32 60 44
f 32 44 38
f 33 61 62
f 33 62 59
f 33 59 34
f 33 37 61
f 35 63 36
f 35 57 64
f 35 64 63
f 36 65 66
f 36 66 61
f 36 61 37
f 36 63 65
f 39 67 40
f 39 44 67
f 40 68 69
f 40 69 70
f 40 70 41
f 40 67 68
f 41 70 42
f 42 70 71
f 42 71 72
f 42 72 73
f 42 73 43
f 43 73 45
f 44 60 67
f 45 73 74
f 45 74 46
f 46 74 75
f 46 75 48
f 46 48 47
f 48 76 77
f 48 77 78
f 48 78 79
f 48 79 80
f 48 80 49
f 48 75 76
f 49 80 50
f 50 80 54
f 51 81 52
f 51 54 82
f 51 82 83
f 51 83 81
f 52 81 84
f 52 84 85
f 52 85 53
f 53 85 86
f 53 86 87
f 53 87 55
f 54 80 88
f 54 88 82
f 55 89 56
f 55 87 90
f 55 90 91
f 55 91 92
f 55 92 89
f 56 89 93
f 56 93 57
f 57 93 108
f 57 108 64
f 58 94 95
f 58 95 60
f 58 59 96
f 58 96 94
f 59 62 97
f 59 97 96
f 60 95 98
f 60 98 99
f 60 99 67
f 61 100 101
f 61 101 102
f 61 102 62
f 61 66 100
f 62 102 103
f 62 103 104
f 62 104 97
f 63 64 105
f 63 105 106
f 63 106 107
f 63 107 65
f 64 108 109
f 64 109 105
f 65 107 110
f 65 110 66
f 66 110 100
f 67 99 111
f 67 111 112
f 67 112 68
f 68 112 113
f 68 113 69
f 69 113 70
f 70 113 114
f 70 114 115
f 70 115 71
f 71 115 72
f 72 116 73
f 72 115 117
f 72 117 118
f 72 118 116
f 73 116 74
f 74 116 119
f 74 119 75
f 75 119 120
f 75 120 77
f 75 77 76
f 77 121 78
f 77 120 122
f 77 122 121
f 78 121 123
f 78 123 124
f 78 124 79
f 79 124 125
f 79 125 80
f 80 125 88
f 81 126 84
f 81 83 127
f 81 127 128
f 81 128 129
f 81 129 126
f 82 88 130
f 82 130 127
f 82 127 83
f 84 126 131
f 84 131 132
f 84 132 85
f 85 132 86
f 86 133 87
f 86 132 133
f 87 133 90
f 88 134 135
f 88 135 130
f 88 125 134
f 89 92 93
f 90 133 91
f 91 136 137
f 91 137 92
f 91 133 136
f 92 137 138
f 92 138 139
f 92 139 93
f 93 139 108
f 94 98 95
f 94 96 140
f 94 140 141
f 94 141 142
f 94 142 98
f 96 97 143
f 96 143 140
f 97 104 144
f 97 144 143
f 98 142 145
f 98 145 146
f 98 146 147
f 98 147 99
f 99 147 111
f 100 148 149
f 100 149 101
f 100 110 148
f 101 150 144
f 101 144 103
f 101 103 102
f 101 149 150
f 103 144 104
f 105 109 151
f 105 151 106
f 106 152 107
f 106 151 153
f 106 153 152
f 107 152 154
f 107 154 110
f 108 139 155
f 108 155 109
f 109 155 156
f 109 156 157
f 109 157 151
f 110 154 158
f 110 158 148
f 111 159 112
f 111 147 159
f 112 159 160
f 112 160 161
f 112 161 113
f 113 161 162
f 113 162 163
f 113 163 164
f 113 164 165
f 113 165 115
f 113 115 114
f 115 165 118
f 115 118 117
f 116 166 119
f 116 118 167
f 116 167 166
f 118 165 168
f 118 168 167
f 119 169 120
f 119 166 169
f 120 169 170
f 120 170 122
f 121 171 172
f 121 172 124
f 121 124 123
f 121 122 171
f 122 170 173
f 122 173 171
f 124 172 174
f 124 174 175
f 124 175 135
f 124 135 125
f 125 135 134
f 126 176 131
f 126 129 176
f 127 130 128
f 128 177 178
f 128 178 129
f 128 130 179
f 128 179 177
f 129 178 180
f 129 180 181
f 129 181 176
f 130 135 179
f 131 176 182
f 131 182 132
f 132 182 183
f 132 183 133
f 133 183 184
f 133 184 185
f 133 185 136
f 135 175 186
f 135 186 177
f 135 177 179
f 136 185 187
f 136 187 188
f 136 188 137
f 137 188 189
f 137 189 190
f 137 190 138
f 138 190 191
f 138 191 156
f 138 156 155
f 138 155 139
f 140 143 141
f 141 192 193
f 141 193 194
f 141 194 142
f 141 143 192
f 142 194 195
f 142 195 196
f 142 196 197
f 142 197 198
f 142 198 145
f 143 144 199
f 143 199 192
f 144 150 149
f 144 149 199
f 145 198 200
f 145 200 146
f 146 201 147
f 146 200 201
f 147 201 202
f 147 202 159
f 148 158 203
f 148 203 204
f 148 204 205
f 148 205 206
f 148 206 207
f 148 207 208
f 148 208 209
f 148 209 199
f 148 199 149
f 151 157 210
f 151 210 153
f 152 153 211
f 152 211 203
f 152 203 154
f 153 210 211
f 154 203 212
f 154 212 158
f 156 191 213
f 156 213 157
f 157 213 210
f 158 212 203
f 159 202 201
f 159 201 214
f 159 214 215
f 159 215 160
f 160 215 161
f 161 216 163
f 161 163 162
f 161 215 214
f 161 214 216
f 163 216 217
f 163 217 276
f 163 276 334
f 163 334 387
f 163 387 447
f 163 447 512
f 163 512 575
f 163 575 594
f 163 594 593
f 163 593 523
f 163 523 456
f 163 456 388
f 163 388 336
f 163 336 279
f 163 279 219
f 163 219 168
f 163 168 165
f 163 165 164
f 166 218 169
f 166 167 218
f 167 168 219
f 167 219 220
f 167 220 221
f 167 221 218
f 169 218 222
f 169 222 223
f 169 223 170
f 170 223 224
f 170 224 225
f 170 225 226
f 170 226 173
f 171 227 228
f 171 228 172
f 171 173 229
f 171 229 227
f 172 228 175
f 172 175 174
f 173 226 229
f 175 230 186
f 175 228 230
f 176 181 231
f 176 231 232
f 176 232 182
f 177 186 233
f 177 233 234
f 177 234 235
f 177 235 180
f 177 180 178
f 180 235 236
f 180 236 181
f 181 236 237
f 181 237 231
f 182 232 238
f 182 238 184
f 182 184 183
f 184 238 239
f 184 239 240
f 184 240 185
f 185 240 187
f 186 230 241
f 186 241 242
f 186 242 233
f 187 240 243
f 187 243 244
f 187 244 188
f 188 244 245
f 188 245 189
f 189 245 246
f 189 246 247
f 189 247 190
f 190 247 248
f 190 248 191
f 191 248 249
f 191 249 213
f 192 199 193
f 193 199 209
f 193 209 250
f 193 250 251
f 193 251 194
f 194 251 252
f 194 252 195
f 195 252 253
f 195 253 196
f 196 253 197
f 197 200 198
f 197 253 201
f 197 201 200
f 201 254 255
f 201 255 214
f 201 253 254
f 203 211 204
f 204 211 256
f 204 256 257
f 204 257 205
f 205 257 258
f 205 258 259
f 205 259 206
f 206 259 260
f 206 260 207
f 207 260 261
f 207 261 262
f 207 262 208
f 208 262 209
f 209 262 250
f 210 213 263
f 210 263 264
f 210 264 265
f 210 265 266
f 210 266 211
f 211 267 256
f 211 266 267
f 213 249 263
f 214 255 268
f 214 268 216
f 216 269 217
f 216 268 269
f 217 270 271
f 217 271 272
f 217 272 273
f 217 273 274
f 217 274 275
f 217 275 276
f 217 269 268
f 217 268 277
f 217 277 278
f 217 278 270
f 218 221 222
f 219 279 220
f 220 279 221
f 221 224 222
f 221 279 280
f 221 280 224
f 222 224 223
f 224 280 279
f 224 279 281
f 224 281 282
f 224 282 283
f 224 283 225
f 225 284 226
f 225 283 284
f 226 285 229
f 226 284 285
f 227 286 228
f 227 229 285
f 227 285 286
f 228 286 230
f 230 286 241
f 231 237 287
f 231 287 238
f 231 238 232
f 233 242 288
f 233 288 234
f 234 289 290
f 234 290 291
f 234 291 235
f 234 288 289
f 235 291 236
f 236 291 292
f 236 292 237
f 237 292 293
f 237 293 294
f 237 294 287
f 238 294 295
f 238 295 239
f 238 287 294
f 239 295 240
f 240 295 296
f 240 296 297
f 240 297 243
f 241 298 299
f 241 299 242
f 241 286 300
f 241 300 298
f 242 299 288
f 243 297 244
f 244 297 301
f 244 301 302
f 244 302 245
f 245 302 303
f 245 303 246
f 246 303 304
f 246 304 247
f 247 304 305
f 247 305 306
f 247 306 248
f 248 306 307
f 248 307 249
f 249 307 308
f 249 308 264
f 249 264 263
f 250 262 309
f 250 309 310
f 250 310 251
f 251 310 311
f 251 311 312
f 251 312 313
f 251 313 252
f 252 313 253
f 253 313 254
f 254 314 315
f 254 315 255
f 254 313 314
f 255 315 268
f 256 316 257
f 256 267 316
f 257 316 258
f 258 317 318
f 258 318 259
f 258 316 319
f 258 319 320
f 258 320 317
f 259 318 321
f 259 321 260
f 260 321 322
f 260 322 261
f 261 322 323
f 261 323 262
f 262 323 322
f 262 322 324
f 262 324 309
f 264 308 325
f 264 325 326
f 264 326 327
f 264 327 328
f 264 328 265
f 265 328 266
f 266 328 329
f 266 329 330
f 266 330 319
f 266 319 316
f 266 316 267
f 268 315 277
f 270 273 271
f 270 278 331
f 270 331 273
f 271 273 272
f 273 332 274
f 273 331 333
f 273 333 332
f 274 332 275
f 275 332 276
f 276 332 334
f 277 315 278
f 278 315 335
f 278 335 331
f 279 336 337
f 279 337 338
f 279 338 339
f 279 339 282
f 279 282 281
f 282 339 338
f 282 338 283
f 283 338 340
f 283 340 341
f 283 341 284
f 284 341 285
f 285 341 342
f 285 342 300
f 285 300 286
f 288 299 343
f 288 343 344
f 288 344 345
f 288 345 289
f 289 345 290
f 290 345 291
f 291 346 347
f 291 347 292
f 291 345 346
f 292 348 293
f 292 347 348
f 293 348 349
f 293 349 294
f 294 349 350
f 294 350 295
f 295 350 351
f 295 351 352
f 295 352 296
f 296 352 297
f 297 352 351
f 297 351 353
f 297 353 354
f 297 354 301
f 298 355 343
f 298 343 299
f 298 300 342
f 298 342 355
f 301 354 356
f 301 356 302
f 302 356 357
f 302 357 303
f 303 357 358
f 303 358 304
f 304 358 359
f 304 359 305
f 305 307 306
f 305 359 360
f 305 360 307
f 307 360 361
f 307 361 326
f 307 326 325
f 307 325 308
f 309 324 362
f 309 362 363
f 309 363 310
f 310 363 364
f 310 364 311
f 311 364 365
f 311 365 312
f 312 365 313
f 313 365 366
f 313 366 314
f 314 367 335
f 314 335 315
f 314 366 367
f 317 320 318
f 318 368 321
f 318 320 369
f 318 369 370
f 318 370 368
f 319 330 320
f 320 330 371
f 320 371 372
f 320 372 373
f 320 373 370
f 320 370 369
f 321 374 375
f 321 375 376
f 321 376 322
f 321 368 374
f 322 377 362
f 322 362 324
f 322 376 375
f 322 375 377
f 326 361 378
f 326 378 379
f 326 379 380
f 326 380 327
f 327 380 329
f 327 329 328
f 329 371 330
f 329 380 381
f 329 381 371
f 331 335 382
f 331 382 333
f 332 383 334
f 332 333 384
f 332 384 383
f 333 382 385
f 333 385 386
f 333 386 384
f 334 383 387
f 335 367 382
f 336 388 389
f 336 389 337
f 337 389 390
f 337 390 338
f 338 391 392
f 338 392 340
f 338 390 391
f 340 392 393
f 340 393 394
f 340 394 395
f 340 395 341
f 341 395 342
f 342 395 396
f 342 396 355
f 343 355 344
f 344 355 397
f 344 397 398
f 344 398 399
f 344 399 400
f 344 400 401
f 344 401 402
f 344 402 403
f 344 403 404
f 344 404 346
f 344 346 345
f 346 404 347
f 347 404 405
f 347 405 348
f 348 405 406
f 348 406 407
f 348 407 408
f 348 408 349
f 349 408 409
f 349 409 410
f 349 410 411
f 349 411 350
f 350 411 351
f 351 411 412
f 351 412 413
f 351 413 414
f 351 414 353
f 353 414 354
f 354 414 415
f 354 415 356
f 355 398 397
f 355 396 416
f 355 416 398
f 356 415 417
f 356 417 357
f 357 417 418
f 357 418 358
f 358 418 419
f 358 419 359
f 359 419 360
f 360 420 378
f 360 378 361
f 360 419 420
f 362 377 421
f 362 421 422
f 362 422 423
f 362 423 424
f 362 424 363
f 363 424 364
f 364 424 425
f 364 425 365
f 365 425 366
f 366 425 426
f 366 426 367
f 367 426 382
f 368 427 428
f 368 428 429
f 368 429 374
f 368 370 430
f 368 430 427
f 370 373 430
f 371 381 372
f 372 431 432
f 372 432 373
f 372 381 433
f 372 433 434
f 372 434 431
f 373 432 435
f 373 435 436
f 373 436 430
f 374 429 428
f 374 428 437
f 374 437 375
f 375 437 438
f 375 438 421
f 375 421 377
f 378 420 439
f 378 439 379
f 379 439 440
f 379 440 441
f 379 441 380
f 380 441 381
f 381 441 433
f 382 426 442
f 382 442 443
f 382 443 385
f 383 444 445
f 383 445 446
f 383 446 447
f 383 447 387
f 383 384 386
f 383 386 448
f 383 448 449
f 383 449 450
f 383 450 451
f 383 451 452
f 383 452 444
f 385 453 386
f 385 443 454
f 385 454 455
f 385 455 453
f 386 453 449
f 386 449 448
f 388 456 389
f 389 457 390
f 389 456 457
f 390 457 458
f 390 458 391
f 391 458 392
f 392 458 459
f 392 459 460
f 392 460 461
f 392 461 462
f 392 462 463
f 392 463 394
f 392 394 393
f 394 463 416
f 394 416 395
f 395 416 396
f 398 464 399
f 398 416 463
f 398 463 464
f 399 464 465
f 399 465 400
f 400 465 401
f 401 466 402
f 401 465 467
f 401 467 466
f 402 466 468
f 402 468 469
f 402 469 470
f 402 470 471
f 402 471 403
f 403 471 472
f 403 472 473
f 403 473 406
f 403 406 405
f 403 405 404
f 406 473 474
f 406 474 475
f 406 475 407
f 407 475 408
f 408 475 409
f 409 476 410
f 409 475 477
f 409 477 476
f 410 478 479
f 410 479 412
f 410 412 411
f 410 476 480
f 410 480 478
f 412 479 481
f 412 481 482
f 412 482 413
f 413 482 414
f 414 482 483
f 414 483 415
f 415 483 484
f 415 484 417
f 417 484 418
f 418 484 485
f 418 485 419
f 419 485 420
f 420 486 487
f 420 487 439
f 420 485 486
f 421 438 488
f 421 488 489
f 421 489 492
f 421 492 422
f 422 490 491
f 422 491 423
f 422 492 490
f 423 491 424
f 424 491 493
f 424 493 425
f 425 493 426
f 426 493 442
f 427 494 495
f 427 495 496
f 427 496 497
f 427 497 428
f 427 430 436
f 427 436 494
f 428 497 488
f 428 488 438
f 428 438 437
f 431 498 499
f 431 499 432
f 431 434 500
f 431 500 498
f 432 499 501
f 432 501 502
f 432 502 435
f 433 441 434
f 434 441 503
f 434 503 500
f 435 502 436
f 436 502 494
f 439 487 504
f 439 504 505
f 439 505 440
f 440 505 441
f 441 505 503
f 442 493 506
f 442 506 507
f 442 507 443
f 443 507 454
f 444 508 447
f 444 447 446
f 444 446 445
f 444 452 509
f 444 509 510
f 444 510 511
f 444 511 508
f 447 508 512
f 449 451 450
f 449 453 513
f 449 513 514
f 449 514 515
f 449 515 451
f 451 515 516
f 451 516 452
f 452 516 517
f 452 517 509
f 453 455 518
f 453 518 513
f 454 507 519
f 454 519 455
f 455 519 520
f 455 520 521
f 455 521 522
f 455 522 518
f 456 523 457
f 457 523 524
f 457 524 525
f 457 525 458
f 458 525 524
f 458 524 526
f 458 526 459
f 459 527 460
f 459 526 527
f 460 527 528
f 460 528 529
f 460 529 461
f 461 529 530
f 461 530 462
f 462 530 531
f 462 531 532
f 462 532 533
f 462 533 534
f 462 534 465
f 462 465 464
f 462 464 463
f 465 534 467
f 466 467 535
f 466 535 468
f 467 534 535
f 468 536 469
f 468 535 536
f 469 536 470
f 470 537 538
f 470 538 471
f 470 536 537
f 471 538 539
f 471 539 472
f 472 539 540
f 472 540 473
f 473 540 474
f 474 540 477
f 474 477 475
f 476 541 480
f 476 477 542
f 476 542 541
f 477 540 543
f 477 543 542
f 478 480 544
f 478 544 545
f 478 545 479
f 479 545 481
f 480 541 546
f 480 546 544
f 481 545 547
f 481 547 548
f 481 548 482
f 482 548 549
f 482 549 483
f 483 549 484
f 484 550 485
f 484 549 550
f 485 550 486
f 486 550 551
f 486 551 552
f 486 552 487
f 487 552 553
f 487 553 504
f 488 554 555
f 488 555 489
f 488 497 556
f 488 556 495
f 488 495 554
f 489 555 492
f 490 492 555
f 490 555 491
f 491 557 506
f 491 506 493
f 491 555 558
f 491 558 557
f 494 559 560
f 494 560 495
f 494 502 559
f 495 556 497
f 495 497 496
f 495 560 554
f 498 561 499
f 498 500 561
f 499 561 562
f 499 562 563
f 499 563 501
f 500 503 564
f 500 564 561
f 501 563 565
f 501 565 502
f 502 565 566
f 502 566 559
f 503 505 567
f 503 567 568
f 503 568 564
f 504 553 569
f 504 569 570
f 504 570 567
f 504 567 505
f 506 519 507
f 506 557 571
f 506 571 519
f 508 572 573
f 508 573 574
f 508 574 575
f 508 575 512
f 508 511 576
f 508 576 572
f 509 517 510
f 510 517 577
f 510 577 578
f 510 578 579
f 510 579 511
f 511 579 580
f 511 580 576
f 513 518 581
f 513 581 582
f 513 582 514
f 514 582 515
f 515 582 583
f 515 583 584
f 515 584 516
f 516 585 517
f 516 584 586
f 516 586 585
f 517 585 577
f 518 522 581
f 519 571 520
f 520 571 587
f 520 587 588
f 520 588 589
f 520 589 521
f 521 590 522
f 521 589 591
f 521 591 590
f 522 592 581
f 522 590 592
f 523 593 524
f 524 593 594
f 524 594 595
f 524 595 596
f 524 596 597
f 524 597 526
f 526 597 527
f 527 597 598
f 527 598 599
f 527 599 600
f 527 600 528
f 528 601 529
f 528 600 599
f 528 599 602
f 528 602 603
f 528 603 604
f 528 604 605
f 528 605 601
f 529 601 530
f 530 601 532
f 530 532 531
f 532 606 607
f 532 607 608
f 532 608 609
f 532 609 533
f 532 601 606
f 533 609 535
f 533 535 534
f 535 609 610
f 535 610 536
f 536 610 611
f 536 611 537
f 537 611 612
f 537 612 613
f 537 613 614
f 537 614 615
f 537 615 538
f 538 615 539
f 539 543 540
f 539 615 543
f 541 616 546
f 541 542 617
f 541 617 618
f 541 618 619
f 541 619 616
f 542 543 620
f 542 620 617
f 543 615 614
f 543 614 620
f 544 546 621
f 544 621 622
f 544 622 623
f 544 623 545
f 545 623 547
f 546 616 621
f 547 623 624
f 547 624 549
f 547 549 548
f 549 624 550
f 550 624 551
f 551 625 626
f 551 626 552
f 551 624 625
f 552 626 553
f 553 626 569
f 554 627 628
f 554 628 555
f 554 560 629
f 554 629 627
f 555 630 558
f 555 628 631
f 555 631 630
f 557 558 630
f 557 630 632
f 557 632 571
f 559 566 633
f 559 633 634
f 559 634 560
f 560 634 627
f 560 627 629
f 561 564 635
f 561 635 636
f 561 636 637
f 561 637 638
f 561 638 639
f 561 639 563
f 561 563 562
f 563 639 640
f 563 640 641
f 563 641 565
f 564 568 635
f 565 641 642
f 565 642 643
f 565 643 566
f 566 643 642
f 566 642 644
f 566 644 633
f 567 570 568
f 568 570 645
f 568 645 646
f 568 646 647
f 568 647 636
f 568 636 635
f 569 626 648
f 569 648 649
f 569 649 570
f 570 649 645
f 571 632 587
f 572 650 573
f 572 576 580
f 572 580 651
f 572 651 652
f 572 652 650
f 573 653 654
f 573 654 574
f 573 650 653
f 574 654 575
f 575 655 656
f 575 656 657
f 575 657 594
f 575 654 655
f 577 585 586
f 577 586 658
f 577 658 659
f 577 659 660
f 577 660 578
f 578 661 580
f 578 580 579
f 578 660 662
f 578 662 663
f 578 663 664
f 578 664 661
f 580 661 652
f 580 652 651
f 581 592 665
f 581 665 582
f 582 665 666
f 582 666 583
f 583 666 584
f 584 658 586
f 584 666 667
f 584 667 668
f 584 668 658
f 587 632 669
f 587 669 588
f 588 669 670
f 588 670 671
f 588 671 591
f 588 591 589
f 590 672 673
f 590 673 592
f 590 591 674
f 590 674 672
f 591 671 675
f 591 675 674
f 592 673 665
f 594 657 596
f 594 596 595
f 596 657 676
f 596 676 677
f 596 677 597
f 597 677 678
f 597 678 598
f 598 678 599
f 599 678 679
f 599 679 602
f 601 605 606
f 602 679 603
f 603 679 680
f 603 680 681
f 603 681 682
f 603 682 604
f 604 682 605
f 605 682 683
f 605 683 607
f 605 607 606
f 607 683 684
f 607 684 685
f 607 685 686
f 607 686 609
f 607 609 608
f 609 686 685
f 609 685 610
f 610 685 687
f 610 687 611
f 611 687 612
f 612 687 684
f 612 684 688
f 612 688 613
f 613 689 614
f 613 688 690
f 613 690 689
f 614 691 620
f 614 689 691
f 616 619 692
f 616 692 621
f 617 620 618
f 618 693 694
f 618 694 619
f 618 620 691
f 618 691 695
f 618 695 693
f 619 694 692
f 621 696 697
f 621 697 622
f 621 692 698
f 621 698 696
f 622 699 623
f 622 697 699
f 623 699 700
f 623 700 624
f 624 700 625
f 625 700 701
f 625 701 702
f 625 702 703
f 625 703 626
f 626 703 648
f 627 631 628
f 627 634 631
f 630 631 669
f 630 669 632
f 631 634 704
f 631 704 705
f 631 705 669
f 633 644 706
f 633 706 707
f 633 707 670
f 633 670 704
f 633 704 634
f 636 708 709
f 636 709 710
f 636 710 637
f 636 647 708
f 637 710 638
f 638 710 639
f 639 710 711
f 639 711 640
f 640 711 712
f 640 712 713
f 640 713 714
f 640 714 641
f 641 714 642
f 642 714 715
f 642 715 644
f 644 715 716
f 644 716 706
f 645 649 646
f 646 717 718
f 646 718 719
f 646 719 647
f 646 649 717
f 647 719 720
f 647 720 708
f 648 703 721
f 648 721 722
f 648 722 649
f 649 722 717
f 650 723 724
f 650 724 725
f 650 725 653
f 650 652 723
f 652 726 727
f 652 727 723
f 652 661 728
f 652 728 726
f 653 725 656
f 653 656 655
f 653 655 654
f 656 725 657
f 657 725 676
f 658 668 659
f 659 668 729
f 659 729 662
f 659 662 660
f 661 664 728
f 662 729 730
f 662 730 731
f 662 731 664
f 662 664 663
f 664 731 728
f 665 673 666
f 666 673 667
f 667 673 732
f 667 732 733
f 667 733 668
f 668 733 729
f 669 705 670
f 670 705 704
f 670 707 671
f 671 707 734
f 671 734 735
f 671 735 675
f 672 674 736
f 672 736 673
f 673 736 732
f 674 675 737
f 674 737 738
f 674 738 736
f 675 735 739
f 675 739 737
f 676 725 724
f 676 724 740
f 676 740 741
f 676 741 742
f 676 742 743
f 676 743 677
f 677 743 744
f 677 744 678
f 678 744 743
f 678 743 745
f 678 745 679
f 679 745 746
f 679 746 680
f 680 746 747
f 680 747 748
f 680 748 681
f 681 748 749
f 681 749 750
f 681 750 682
f 682 750 683
f 683 750 751
f 683 751 684
f 684 751 688
f 684 687 685
f 688 752 690
f 688 751 752
f 689 753 691
f 689 690 754
f 689 754 753
f 690 752 754
f 691 753 755
f 691 755 695
f 692 756 757
f 692 757 698
f 692 694 756
f 693 758 694
f 693 695 759
f 693 759 758
f 694 758 756
f 695 755 759
f 696 760 761
f 696 761 697
f 696 698 757
f 696 757 762
f 696 762 763
f 696 763 760
f 697 761 699
f 699 761 701
f 699 701 700
f 701 761 764
f 701 764 702
f 702 764 765
f 702 765 703
f 703 765 721
f 706 734 707
f 706 716 734
f 708 720 766
f 708 766 767
f 708 767 768
f 708 768 769
f 708 769 709
f 709 769 710
f 710 769 770
f 710 770 771
f 710 771 711
f 711 771 712
f 712 772 773
f 712 773 713
f 712 771 772
f 713 773 774
f 713 774 715
f 713 715 714
f 715 774 716
f 716 774 734
f 717 722 775
f 717 775 776
f 717 776 718
f 718 776 777
f 718 777 778
f 718 778 766
f 718 766 720
f 718 720 719
f 721 765 779
f 721 779 780
f 721 780 776
f 721 776 775
f 721 775 722
f 723 727 741
f 723 741 740
f 723 740 724
f 726 728 781
f 726 781 782
f 726 782 783
f 726 783 784
f 726 784 785
f 726 785 727
f 727 786 741
f 727 785 786
f 728 731 781
f 729 733 787
f 729 787 788
f 729 788 730
f 730 788 789
f 730 789 731
f 731 789 790
f 731 790 781
f 732 736 791
f 732 791 787
f 732 787 733
f 734 774 792
f 734 792 739
f 734 739 735
f 736 738 791
f 737 793 738
f 737 739 794
f 737 794 793
f 738 793 791
f 739 792 795
f 739 795 796
f 739 796 794
f 741 786 743
f 741 743 742
f 743 786 797
f 743 797 745
f 745 797 746
f 746 798 799
f 746 799 747
f 746 797 798
f 747 799 800
f 747 800 801
f 747 801 748
f 748 801 749
f 749 801 802
f 749 802 750
f 750 802 803
f 750 803 804
f 750 804 751
f 751 804 752
f 752 804 805
f 752 805 754
f 753 806 755
f 753 754 805
f 753 805 806
f 755 806 759
f 756 758 807
f 756 807 757
f 757 807 762
f 758 808 807
f 758 759 809
f 758 809 808
f 759 806 809
f 760 763 810
f 760 810 811
f 760 811 764
f 760 764 761
f 762 812 813
f 762 813 763
f 762 807 812
f 763 813 810
f 764 811 765
f 765 811 814
f 765 814 779
f 766 778 767
f 767 815 768
f 767 778 815
f 768 815 816
f 768 816 817
f 768 817 818
f 768 818 770
f 768 770 769
f 770 818 819
f 770 819 771
f 771 819 772
f 772 819 820
f 772 820 773
f 773 820 821
f 773 821 795
f 773 795 774
f 774 795 792
f 776 780 777
f 777 780 822
f 777 822 823
f 777 823 778
f 778 823 824
f 778 824 825
f 778 825 815
f 779 814 780
f 780 814 822
f 781 790 826
f 781 826 827
f 781 827 828
f 781 828 783
f 781 783 782
f 783 828 827
f 783 827 861
f 783 861 862
f 783 862 829
f 783 829 830
f 783 830 831
f 783 831 784
f 784 831 832
f 784 832 799
f 784 799 785
f 785 799 786
f 786 799 797
f 787 791 793
f 787 793 833
f 787 833 788
f 788 833 834
f 788 834 789
f 789 834 835
f 789 835 790
f 790 835 836
f 790 836 837
f 790 837 826
f 793 794 833
f 794 838 833
f 794 796 839
f 794 839 838
f 795 821 839
f 795 839 796
f 797 799 798
f 799 832 840
f 799 840 800
f 800 840 801
f 801 840 841
f 801 841 842
f 801 842 802
f 802 842 803
f 803 842 843
f 803 843 804
f 804 843 805
f 805 843 844
f 805 844 806
f 806 844 809
f 807 808 845
f 807 845 812
f 808 809 846
f 808 846 845
f 809 844 847
f 809 847 846
f 810 813 848
f 810 848 814
f 810 814 811
f 812 845 849
f 812 849 813
f 813 849 850
f 813 850 848
f 814 848 823
f 814 823 822
f 815 825 851
f 815 851 852
f 815 852 817
f 815 817 816
f 817 852 853
f 817 853 854
f 817 854 855
f 817 855 856
f 817 856 818
f 818 856 855
f 818 855 819
f 819 855 820
f 820 855 857
f 820 857 858
f 820 858 821
f 821 858 839
f 823 848 850
f 823 850 859
f 823 859 824
f 824 859 860
f 824 860 825
f 825 860 851
f 826 837 861
f 826 861 827
f 829 862 863
f 829 863 864
f 829 864 865
f 829 865 830
f 830 866 832
f 830 832 831
f 830 865 866
f 832 866 841
f 832 841 840
f 833 838 867
f 833 867 834
f 834 867 835
f 835 867 868
f 835 868 836
f 836 868 854
f 836 854 853
f 836 853 837
f 837 853 861
f 838 839 869
f 838 869 867
f 839 858 869
f 841 866 870
f 841 870 842
f 842 870 871
f 842 871 843
f 843 871 844
f 844 871 847
f 845 872 849
f 845 846 873
f 845 873 872
f 846 847 873
f 847 874 873
f 847 871 874
f 849 872 875
f 849 875 859
f 849 859 850
f 851 860 876
f 851 876 852
f 852 876 864
f 852 864 853
f 853 864 861
f 854 857 855
f 854 868 857
f 857 868 858
f 858 868 869
f 859 875 860
f 860 875 877
f 860 877 876
f 861 864 863
f 861 863 862
f 864 876 865
f 865 876 877
f 865 877 878
f 865 878 866
f 866 878 874
f 866 874 870
f 867 869 868
f 870 874 871
f 872 873 879
f 872 879 877
f 872 877 875
f 873 874 878
f 873 878 879
f 877 879 878

