# https://github.com/mikedh/trimesh
v 0.19327272 0.00391789 -0.00306856 0.54509804 0.71372549 0.60000000
v 0.19327272 0.00368371 -0.00118456 0.54509804 0.71372549 0.60000000
v 0.19587074 0.00385467 -0.00306856 0.54509804 0.71372549 0.60000000
v 0.19587074 0.00356795 -0.00465553 0.54509804 0.71372549 0.60000000
v 0.19327272 0.00356706 -0.00464697 0.54509804 0.71372549 0.60000000
v 0.08920259 0.00281020 -0.00306856 0.54509804 0.71372549 0.60000000
v 0.19327272 0.00254664 0.00011783 0.54509804 0.71372549 0.60000000
v 0.19587074 0.00258671 0.00001986 0.54509804 0.71372549 0.60000000
v 0.19587074 0.00361870 -0.00128253 0.54509804 0.71372549 0.60000000
v 0.08920259 0.00242020 -0.00055397 0.54509804 0.71372549 0.60000000
v 0.08920259 0.00240150 -0.00046533 0.54509804 0.71372549 0.60000000
v 0.11775933 0.00141224 0.00137434 0.54509804 0.71372549 0.60000000
v 0.19730338 0.00344329 -0.00156245 0.54509804 0.71372549 0.60000000
v 0.19736753 0.00349850 -0.00306856 0.54509804 0.71372549 0.60000000
v 0.19730338 0.00344240 -0.00451168 0.54509804 0.71372549 0.60000000
v 0.19587074 0.00203019 -0.00540819 0.54509804 0.71372549 0.60000000
v 0.19327272 0.00203019 -0.00547273 0.54509804 0.71372549 0.60000000
v 0.08920259 0.00161971 -0.00497277 0.54509804 0.71372549 0.60000000
v 0.17764189 0.00127156 0.00126238 0.54509804 0.71372549 0.60000000
v 0.19587074 0.00128491 0.00116518 0.54509804 0.71372549 0.60000000
v 0.12036804 0.00141402 0.00137123 0.54509804 0.71372549 0.60000000
v 0.19741030 0.00106142 0.00106099 0.54509804 0.71372549 0.60000000
v 0.08920259 0.00125197 0.00116674 0.54509804 0.71372549 0.60000000
v 0.08920259 0.00121101 0.00122117 0.54509804 0.71372549 0.60000000
v 0.08920259 -0.00057340 0.00178722 0.54509804 0.71372549 0.60000000
v 0.11255262 -0.00057340 0.00195828 0.54509804 0.71372549 0.60000000
v 0.11775933 -0.00057340 0.00198394 0.54509804 0.71372549 0.60000000
v 0.12036804 -0.00057340 0.00198549 0.54509804 0.71372549 0.60000000
v 0.19764551 0.00196965 -0.00060296 0.54509804 0.71372549 0.60000000
v 0.19797694 0.00203019 -0.00306856 0.54509804 0.71372549 0.60000000
v 0.19757067 0.00203019 -0.00479626 0.54509804 0.71372549 0.60000000
v 0.19587074 -0.00057340 -0.00581018 0.54509804 0.71372549 0.60000000
v 0.19327272 -0.00057340 -0.00595792 0.54509804 0.71372549 0.60000000
v 0.08920259 -0.00057340 -0.00569666 0.54509804 0.71372549 0.60000000
v 0.17243518 0.00126176 0.00128959 0.54509804 0.71372549 0.60000000
v 0.15420633 -0.00057340 0.00190463 0.54509804 0.71372549 0.60000000
v 0.19587074 -0.00057340 0.00129270 0.54509804 0.71372549 0.60000000
v 0.15681503 -0.00057340 0.00187897 0.54509804 0.71372549 0.60000000
v 0.15941304 -0.00057340 0.00184320 0.54509804 0.71372549 0.60000000
v 0.19739961 -0.00057340 0.00104078 0.54509804 0.71372549 0.60000000
v 0.19805178 -0.00057340 -0.00046533 0.54509804 0.71372549 0.60000000
v 0.08920259 -0.00296685 0.00140233 0.54509804 0.71372549 0.60000000
v 0.12036804 -0.00281815 0.00144977 0.54509804 0.71372549 0.60000000
v 0.12818345 -0.00284486 0.00144510 0.54509804 0.71372549 0.60000000
v 0.14899962 -0.00265520 0.00149253 0.54509804 0.71372549 0.60000000
v 0.15160832 -0.00265164 0.00149175 0.54509804 0.71372549 0.60000000
v 0.19842598 -0.00057340 -0.00306856 0.54509804 0.71372549 0.60000000
v 0.19776312 -0.00057340 -0.00498910 0.54509804 0.71372549 0.60000000
v 0.19757067 -0.00250650 -0.00476905 0.54509804 0.71372549 0.60000000
v 0.19587074 -0.00296150 -0.00505752 0.54509804 0.71372549 0.60000000
v 0.19312305 -0.00340671 -0.00498754 0.54509804 0.71372549 0.60000000
v 0.19066402 -0.00317699 -0.00509329 0.54509804 0.71372549 0.60000000
v 0.10995461 -0.00317699 -0.00524413 0.54509804 0.71372549 0.60000000
v 0.08920259 -0.00317699 -0.00527601 0.54509804 0.71372549 0.60000000
v 0.08920259 -0.00066066 -0.00568267 0.54509804 0.71372549 0.60000000
v 0.19587074 -0.00208355 0.00096458 0.54509804 0.71372549 0.60000000
v 0.19722855 -0.00194197 0.00088449 0.54509804 0.71372549 0.60000000
v 0.15420633 -0.00262493 0.00146843 0.54509804 0.71372549 0.60000000
v 0.19755997 -0.00248335 -0.00046533 0.54509804 0.71372549 0.60000000
v 0.08920259 -0.00422501 0.00061002 0.54509804 0.71372549 0.60000000
v 0.12557475 -0.00286445 0.00143655 0.54509804 0.71372549 0.60000000
v 0.08920259 -0.00426953 0.00057658 0.54509804 0.71372549 0.60000000
v 0.12557475 -0.00416624 0.00018003 0.54509804 0.71372549 0.60000000
v 0.18285929 -0.00469871 -0.00141627 0.54509804 0.71372549 0.60000000
v 0.19781657 -0.00290719 -0.00306856 0.54509804 0.71372549 0.60000000
v 0.19579589 -0.00423213 -0.00310355 0.54509804 0.71372549 0.60000000
v 0.19389282 -0.00442714 -0.00399461 0.54509804 0.71372549 0.60000000
v 0.19216081 -0.00448769 -0.00438339 0.54509804 0.71372549 0.60000000
v 0.18285929 -0.00455180 -0.00445337 0.54509804 0.71372549 0.60000000
v 0.10995461 -0.00474858 -0.00463998 0.54509804 0.71372549 0.60000000
v 0.08920259 -0.00465687 -0.00455211 0.54509804 0.71372549 0.60000000
v 0.19327272 -0.00341829 -0.00029505 0.54509804 0.71372549 0.60000000
v 0.19487643 -0.00452063 -0.00168219 0.54509804 0.71372549 0.60000000
v 0.19579589 -0.00353048 -0.00067449 0.54509804 0.71372549 0.60000000
v 0.15681503 -0.00259287 0.00143577 0.54509804 0.71372549 0.60000000
v 0.08920259 -0.00495516 -0.00072503 0.54509804 0.71372549 0.60000000
v 0.18285929 -0.00477262 -0.00306856 0.54509804 0.71372549 0.60000000
v 0.19327272 -0.00456693 -0.00159744 0.54509804 0.71372549 0.60000000
v 0.10734591 -0.00493111 -0.00096996 0.54509804 0.71372549 0.60000000
v 0.10995461 -0.00517687 -0.00306856 0.54509804 0.71372549 0.60000000
v 0.19487643 -0.00452063 -0.00225913 0.54509804 0.71372549 0.60000000
v 0.19312305 -0.00455447 -0.00310355 0.54509804 0.71372549 0.60000000
v 0.08920259 -0.00513324 -0.00306856 0.54509804 0.71372549 0.60000000
v 0.08920259 -0.00512968 -0.00299624 0.54509804 0.71372549 0.60000000
f 1 2 3
f 1 3 4
f 1 4 5
f 1 5 6
f 1 6 2
f 2 7 8
f 2 8 9
f 2 9 3
f 2 6 10
f 2 10 11
f 2 11 12
f 2 12 7
f 3 9 13
f 3 13 14
f 3 14 15
f 3 15 4
f 4 16 17
f 4 17 5
f 4 15 16
f 5 17 18
f 5 18 6
f 6 18 34
f 6 34 55
f 6 55 54
f 6 54 71
f 6 71 83
f 6 83 84
f 6 84 76
f 6 76 62
f 6 62 60
f 6 60 42
f 6 42 25
f 6 25 24
f 6 24 23
f 6 23 11
f 6 11 10
f 7 19 20
f 7 20 8
f 7 12 21
f 7 21 19
f 8 20 22
f 8 22 13
f 8 13 9
f 11 23 12
f 12 23 24
f 12 24 25
f 12 25 26
f 12 26 27
f 12 27 28
f 12 28 21
f 13 22 29
f 13 29 30
f 13 30 14
f 14 30 15
f 15 30 31
f 15 31 16
f 16 31 32
f 16 32 33
f 16 33 17
f 17 33 34
f 17 34 18
f 19 21 35
f 19 35 36
f 19 36 20
f 20 37 22
f 20 36 38
f 20 38 39
f 20 39 37
f 21 28 36
f 21 36 35
f 22 40 41
f 22 41 29
f 22 37 40
f 25 42 26
f 26 42 27
f 27 42 28
f 28 42 43
f 28 43 44
f 28 44 45
f 28 45 46
f 28 46 36
f 29 41 47
f 29 47 30
f 30 47 31
f 31 47 48
f 31 48 32
f 32 48 49
f 32 49 50
f 32 50 33
f 33 50 51
f 33 51 52
f 33 52 53
f 33 53 54
f 33 54 55
f 33 55 34
f 36 46 38
f 37 56 57
f 37 57 40
f 37 39 56
f 38 46 58
f 38 58 39
f 39 58 56
f 40 57 41
f 41 57 59
f 41 59 47
f 42 60 61
f 42 61 44
f 42 44 43
f 44 61 60
f 44 60 46
f 44 46 45
f 46 60 62
f 46 62 63
f 46 63 64
f 46 64 58
f 47 59 65
f 47 65 49
f 47 49 48
f 49 65 66
f 49 66 67
f 49 67 50
f 50 67 68
f 50 68 51
f 51 68 69
f 51 69 70
f 51 70 52
f 52 70 53
f 53 70 54
f 54 70 71
f 56 72 73
f 56 73 74
f 56 74 57
f 56 58 75
f 56 75 72
f 57 74 59
f 58 64 72
f 58 72 75
f 59 74 73
f 59 73 65
f 62 76 64
f 62 64 63
f 64 77 78
f 64 78 72
f 64 76 79
f 64 79 80
f 64 80 77
f 65 73 66
f 66 73 81
f 66 81 67
f 67 81 82
f 67 82 68
f 68 82 77
f 68 77 69
f 69 77 80
f 69 80 70
f 70 80 83
f 70 83 71
f 72 78 73
f 73 78 81
f 76 84 80
f 76 80 79
f 77 82 78
f 78 82 81
f 80 84 83

