# https://github.com/mikedh/trimesh

o geometry_0
v 0.19327272 0.00391789 -0.00306856 0.54509804 0.71372549 0.60000000
v 0.19327272 0.00368371 -0.00118456 0.54509804 0.71372549 0.60000000
v 0.19587074 0.00385467 -0.00306856 0.54509804 0.71372549 0.60000000
v 0.19587074 0.00356795 -0.00465553 0.54509804 0.71372549 0.60000000
v 0.19327272 0.00356706 -0.00464697 0.54509804 0.71372549 0.60000000
v 0.08920259 0.00281020 -0.00306856 0.54509804 0.71372549 0.60000000
v 0.19327272 0.00254664 0.00011783 0.54509804 0.71372549 0.60000000
v 0.19587074 0.00258671 0.00001986 0.54509804 0.71372549 0.60000000
v 0.19587074 0.00361870 -0.00128253 0.54509804 0.71372549 0.60000000
v 0.08920259 0.00242020 -0.00055397 0.54509804 0.71372549 0.60000000
v 0.08920259 0.00240150 -0.00046533 0.54509804 0.71372549 0.60000000
v 0.11775933 0.00141224 0.00137434 0.54509804 0.71372549 0.60000000
v 0.19730338 0.00344329 -0.00156245 0.54509804 0.71372549 0.60000000
v 0.19736753 0.00349850 -0.00306856 0.54509804 0.71372549 0.60000000
v 0.19730338 0.00344240 -0.00451168 0.54509804 0.71372549 0.60000000
v 0.19587074 0.00203019 -0.00540819 0.54509804 0.71372549 0.60000000
v 0.19327272 0.00203019 -0.00547273 0.54509804 0.71372549 0.60000000
v 0.08920259 0.00161971 -0.00497277 0.54509804 0.71372549 0.60000000
v 0.17764189 0.00127156 0.00126238 0.54509804 0.71372549 0.60000000
v 0.19587074 0.00128491 0.00116518 0.54509804 0.71372549 0.60000000
v 0.12036804 0.00141402 0.00137123 0.54509804 0.71372549 0.60000000
v 0.19741030 0.00106142 0.00106099 0.54509804 0.71372549 0.60000000
v 0.08920259 0.00125197 0.00116674 0.54509804 0.71372549 0.60000000
v 0.08920259 0.00121101 0.00122117 0.54509804 0.71372549 0.60000000
v 0.08920259 -0.00057340 0.00178722 0.54509804 0.71372549 0.60000000
v 0.11255262 -0.00057340 0.00195828 0.54509804 0.71372549 0.60000000
v 0.11775933 -0.00057340 0.00198394 0.54509804 0.71372549 0.60000000
v 0.12036804 -0.00057340 0.00198549 0.54509804 0.71372549 0.60000000
v 0.19764551 0.00196965 -0.00060296 0.54509804 0.71372549 0.60000000
v 0.19797694 0.00203019 -0.00306856 0.54509804 0.71372549 0.60000000
v 0.19757067 0.00203019 -0.00479626 0.54509804 0.71372549 0.60000000
v 0.19587074 -0.00057340 -0.00581018 0.54509804 0.71372549 0.60000000
v 0.19327272 -0.00057340 -0.00595792 0.54509804 0.71372549 0.60000000
v 0.08920259 -0.00057340 -0.00569666 0.54509804 0.71372549 0.60000000
v 0.17243518 0.00126176 0.00128959 0.54509804 0.71372549 0.60000000
v 0.15420633 -0.00057340 0.00190463 0.54509804 0.71372549 0.60000000
v 0.19587074 -0.00057340 0.00129270 0.54509804 0.71372549 0.60000000
v 0.15681503 -0.00057340 0.00187897 0.54509804 0.71372549 0.60000000
v 0.15941304 -0.00057340 0.00184320 0.54509804 0.71372549 0.60000000
v 0.19739961 -0.00057340 0.00104078 0.54509804 0.71372549 0.60000000
v 0.19805178 -0.00057340 -0.00046533 0.54509804 0.71372549 0.60000000
v 0.08920259 -0.00296685 0.00140233 0.54509804 0.71372549 0.60000000
v 0.12036804 -0.00281815 0.00144977 0.54509804 0.71372549 0.60000000
v 0.12818345 -0.00284486 0.00144510 0.54509804 0.71372549 0.60000000
v 0.14899962 -0.00265520 0.00149253 0.54509804 0.71372549 0.60000000
v 0.15160832 -0.00265164 0.00149175 0.54509804 0.71372549 0.60000000
v 0.19842598 -0.00057340 -0.00306856 0.54509804 0.71372549 0.60000000
v 0.19776312 -0.00057340 -0.00498910 0.54509804 0.71372549 0.60000000
v 0.19757067 -0.00250650 -0.00476905 0.54509804 0.71372549 0.60000000
v 0.19587074 -0.00296150 -0.00505752 0.54509804 0.71372549 0.60000000
v 0.19312305 -0.00340671 -0.00498754 0.54509804 0.71372549 0.60000000
v 0.19066402 -0.00317699 -0.00509329 0.54509804 0.71372549 0.60000000
v 0.10995461 -0.00317699 -0.00524413 0.54509804 0.71372549 0.60000000
v 0.08920259 -0.00317699 -0.00527601 0.54509804 0.71372549 0.60000000
v 0.08920259 -0.00066066 -0.00568267 0.54509804 0.71372549 0.60000000
v 0.19587074 -0.00208355 0.00096458 0.54509804 0.71372549 0.60000000
v 0.19722855 -0.00194197 0.00088449 0.54509804 0.71372549 0.60000000
v 0.15420633 -0.00262493 0.00146843 0.54509804 0.71372549 0.60000000
v 0.19755997 -0.00248335 -0.00046533 0.54509804 0.71372549 0.60000000
v 0.08920259 -0.00422501 0.00061002 0.54509804 0.71372549 0.60000000
v 0.12557475 -0.00286445 0.00143655 0.54509804 0.71372549 0.60000000
v 0.08920259 -0.00426953 0.00057658 0.54509804 0.71372549 0.60000000
v 0.12557475 -0.00416624 0.00018003 0.54509804 0.71372549 0.60000000
v 0.18285929 -0.00469871 -0.00141627 0.54509804 0.71372549 0.60000000
v 0.19781657 -0.00290719 -0.00306856 0.54509804 0.71372549 0.60000000
v 0.19579589 -0.00423213 -0.00310355 0.54509804 0.71372549 0.60000000
v 0.19389282 -0.00442714 -0.00399461 0.54509804 0.71372549 0.60000000
v 0.19216081 -0.00448769 -0.00438339 0.54509804 0.71372549 0.60000000
v 0.18285929 -0.00455180 -0.00445337 0.54509804 0.71372549 0.60000000
v 0.10995461 -0.00474858 -0.00463998 0.54509804 0.71372549 0.60000000
v 0.08920259 -0.00465687 -0.00455211 0.54509804 0.71372549 0.60000000
v 0.19327272 -0.00341829 -0.00029505 0.54509804 0.71372549 0.60000000
v 0.19487643 -0.00452063 -0.00168219 0.54509804 0.71372549 0.60000000
v 0.19579589 -0.00353048 -0.00067449 0.54509804 0.71372549 0.60000000
v 0.15681503 -0.00259287 0.00143577 0.54509804 0.71372549 0.60000000
v 0.08920259 -0.00495516 -0.00072503 0.54509804 0.71372549 0.60000000
v 0.18285929 -0.00477262 -0.00306856 0.54509804 0.71372549 0.60000000
v 0.19327272 -0.00456693 -0.00159744 0.54509804 0.71372549 0.60000000
v 0.10734591 -0.00493111 -0.00096996 0.54509804 0.71372549 0.60000000
v 0.10995461 -0.00517687 -0.00306856 0.54509804 0.71372549 0.60000000
v 0.19487643 -0.00452063 -0.00225913 0.54509804 0.71372549 0.60000000
v 0.19312305 -0.00455447 -0.00310355 0.54509804 0.71372549 0.60000000
v 0.08920259 -0.00513324 -0.00306856 0.54509804 0.71372549 0.60000000
v 0.08920259 -0.00512968 -0.00299624 0.54509804 0.71372549 0.60000000
f 1 2 3
f 1 3 4
f 1 4 5
f 1 5 6
f 1 6 2
f 2 7 8
f 2 8 9
f 2 9 3
f 2 6 10
f 2 10 11
f 2 11 12
f 2 12 7
f 3 9 13
f 3 13 14
f 3 14 15
f 3 15 4
f 4 16 17
f 4 17 5
f 4 15 16
f 5 17 18
f 5 18 6
f 6 18 34
f 6 34 55
f 6 55 54
f 6 54 71
f 6 71 83
f 6 83 84
f 6 84 76
f 6 76 62
f 6 62 60
f 6 60 42
f 6 42 25
f 6 25 24
f 6 24 23
f 6 23 11
f 6 11 10
f 7 19 20
f 7 20 8
f 7 12 21
f 7 21 19
f 8 20 22
f 8 22 13
f 8 13 9
f 11 23 12
f 12 23 24
f 12 24 25
f 12 25 26
f 12 26 27
f 12 27 28
f 12 28 21
f 13 22 29
f 13 29 30
f 13 30 14
f 14 30 15
f 15 30 31
f 15 31 16
f 16 31 32
f 16 32 33
f 16 33 17
f 17 33 34
f 17 34 18
f 19 21 35
f 19 35 36
f 19 36 20
f 20 37 22
f 20 36 38
f 20 38 39
f 20 39 37
f 21 28 36
f 21 36 35
f 22 40 41
f 22 41 29
f 22 37 40
f 25 42 26
f 26 42 27
f 27 42 28
f 28 42 43
f 28 43 44
f 28 44 45
f 28 45 46
f 28 46 36
f 29 41 47
f 29 47 30
f 30 47 31
f 31 47 48
f 31 48 32
f 32 48 49
f 32 49 50
f 32 50 33
f 33 50 51
f 33 51 52
f 33 52 53
f 33 53 54
f 33 54 55
f 33 55 34
f 36 46 38
f 37 56 57
f 37 57 40
f 37 39 56
f 38 46 58
f 38 58 39
f 39 58 56
f 40 57 41
f 41 57 59
f 41 59 47
f 42 60 61
f 42 61 44
f 42 44 43
f 44 61 60
f 44 60 46
f 44 46 45
f 46 60 62
f 46 62 63
f 46 63 64
f 46 64 58
f 47 59 65
f 47 65 49
f 47 49 48
f 49 65 66
f 49 66 67
f 49 67 50
f 50 67 68
f 50 68 51
f 51 68 69
f 51 69 70
f 51 70 52
f 52 70 53
f 53 70 54
f 54 70 71
f 56 72 73
f 56 73 74
f 56 74 57
f 56 58 75
f 56 75 72
f 57 74 59
f 58 64 72
f 58 72 75
f 59 74 73
f 59 73 65
f 62 76 64
f 62 64 63
f 64 77 78
f 64 78 72
f 64 76 79
f 64 79 80
f 64 80 77
f 65 73 66
f 66 73 81
f 66 81 67
f 67 81 82
f 67 82 68
f 68 82 77
f 68 77 69
f 69 77 80
f 69 80 70
f 70 80 83
f 70 83 71
f 72 78 73
f 73 78 81
f 76 84 80
f 76 80 79
f 77 82 78
f 78 82 81
f 80 84 83

o geometry_1
v 0.00058296 -0.00057521 -0.02005792 0.54117647 0.42352941 0.64313725
v -0.00202040 -0.00250931 -0.02005435 0.54117647 0.42352941 0.64313725
v -0.00180973 -0.00063285 -0.02004720 0.54117647 0.42352941 0.64313725
v -0.00081653 0.00078891 -0.02000072 0.54117647 0.42352941 0.64313725
v 0.00058296 0.00083374 -0.02000429 0.54117647 0.42352941 0.64313725
v 0.00232857 0.00080812 -0.02000429 0.54117647 0.42352941 0.64313725
v 0.00839305 -0.00138215 -0.02005078 0.54117647 0.42352941 0.64313725
v 0.00839305 -0.00220831 -0.02005078 0.54117647 0.42352941 0.64313725
v -0.00202040 -0.00381259 -0.01992206 0.54117647 0.42352941 0.64313725
v -0.03326074 -0.00577871 -0.01932497 0.54117647 0.42352941 0.64313725
v -0.03326074 -0.00317536 -0.01953949 0.54117647 0.42352941 0.64313725
v -0.00856643 -0.00191051 -0.01999714 0.54117647 0.42352941 0.64313725
v -0.00856643 -0.00184006 -0.01999714 0.54117647 0.42352941 0.64313725
v 0.00058296 0.00213702 -0.01985770 0.54117647 0.42352941 0.64313725
v -0.03326074 0.00202815 -0.01934284 0.54117647 0.42352941 0.64313725
v 0.00318632 0.00181680 -0.01985055 0.54117647 0.42352941 0.64313725
v 0.00839305 -0.00007887 -0.01989346 0.54117647 0.42352941 0.64313725
v 0.05525355 0.00202815 -0.01780184 0.54117647 0.42352941 0.64313725
v 0.00985273 -0.00165754 -0.02002575 0.54117647 0.42352941 0.64313725
v 0.00985273 -0.00203539 -0.02002575 0.54117647 0.42352941 0.64313725
v 0.00839305 -0.00351158 -0.01982195 0.54117647 0.42352941 0.64313725
v 0.00058296 -0.00577871 -0.01956094 0.54117647 0.42352941 0.64313725
v 0.00058296 -0.00374214 -0.01991491 0.54117647 0.42352941 0.64313725
v -0.00202040 -0.00577871 -0.01956809 0.54117647 0.42352941 0.64313725
v -0.03326074 -0.00838206 -0.01869927 0.54117647 0.42352941 0.64313725
v -0.03586410 -0.00577871 -0.01918195 0.54117647 0.42352941 0.64313725
v -0.03586410 -0.00317536 -0.01944295 0.54117647 0.42352941 0.64313725
v -0.02545066 -0.00838206 -0.01878866 0.54117647 0.42352941 0.64313725
v -0.03586410 -0.00057521 -0.01937145 0.54117647 0.42352941 0.64313725
v -0.03326074 -0.00057521 -0.01944653 0.54117647 0.42352941 0.64313725
v -0.00202040 0.00463470 -0.01938932 0.54117647 0.42352941 0.64313725
v 0.00058296 0.00463470 -0.01936072 0.54117647 0.42352941 0.64313725
v -0.02545066 0.00463470 -0.01914262 0.54117647 0.42352941 0.64313725
v -0.01764057 0.00463470 -0.01924988 0.54117647 0.42352941 0.64313725
v -0.03586410 0.00202815 -0.01918910 0.54117647 0.42352941 0.64313725
v -0.03326074 0.00463470 -0.01884229 0.54117647 0.42352941 0.64313725
v -0.03065738 0.00463470 -0.01896028 0.54117647 0.42352941 0.64313725
v 0.00578968 0.00202815 -0.01972899 0.54117647 0.42352941 0.64313725
v 0.05525355 0.00354597 -0.01745860 0.54117647 0.42352941 0.64313725
v 0.05665305 0.00339867 -0.01741570 0.54117647 0.42352941 0.64313725
v 0.05764624 0.00182001 -0.01755157 0.54117647 0.42352941 0.64313725
v 0.05785692 -0.00057521 -0.01776609 0.54117647 0.42352941 0.64313725
v 0.05525355 -0.00057521 -0.01805570 0.54117647 0.42352941 0.64313725
v 0.00578968 0.00463470 -0.01916050 0.54117647 0.42352941 0.64313725
v 0.05525355 -0.00317536 -0.01781257 0.54117647 0.42352941 0.64313725
v 0.05525355 -0.00477643 -0.01748721 0.54117647 0.42352941 0.64313725
v 0.00839305 -0.00577871 -0.01932139 0.54117647 0.42352941 0.64313725
v 0.00058296 -0.00838206 -0.01887447 0.54117647 0.42352941 0.64313725
v -0.00202040 -0.00838206 -0.01888877 0.54117647 0.42352941 0.64313725
v -0.00722713 -0.00838206 -0.01889234 0.54117647 0.42352941 0.64313725
v -0.03065738 -0.01092457 -0.01789123 0.54117647 0.42352941 0.64313725
v -0.03326074 -0.01074525 -0.01785905 0.54117647 0.42352941 0.64313725
v -0.03586410 -0.00838206 -0.01850620 0.54117647 0.42352941 0.64313725
v -0.02545066 -0.01098862 -0.01799134 0.54117647 0.42352941 0.64313725
v -0.03848252 -0.00577871 -0.01883156 0.54117647 0.42352941 0.64313725
v -0.03848252 -0.00317536 -0.01912832 0.54117647 0.42352941 0.64313725
v -0.03848252 -0.00057521 -0.01909972 0.54117647 0.42352941 0.64313725
v -0.00202040 0.00723805 -0.01825950 0.54117647 0.42352941 0.64313725
v -0.01764057 0.00723805 -0.01825950 0.54117647 0.42352941 0.64313725
v 0.00578968 0.00715480 -0.01808430 0.54117647 0.42352941 0.64313725
v -0.02805401 0.00714199 -0.01804497 0.54117647 0.42352941 0.64313725
v -0.02284729 0.00723805 -0.01817011 0.54117647 0.42352941 0.64313725
v -0.03586410 0.00463470 -0.01858486 0.54117647 0.42352941 0.64313725
v -0.03848252 0.00202815 -0.01887804 0.54117647 0.42352941 0.64313725
v -0.03326074 0.00677054 -0.01788765 0.54117647 0.42352941 0.64313725
v -0.03065738 0.00699149 -0.01797346 0.54117647 0.42352941 0.64313725
v 0.05525355 0.00484924 -0.01702241 0.54117647 0.42352941 0.64313725
v 0.05764624 0.00441375 -0.01672922 0.54117647 0.42352941 0.64313725
v 0.05838361 0.00255010 -0.01716900 0.54117647 0.42352941 0.64313725
v 0.05921127 0.00081453 -0.01741212 0.54117647 0.42352941 0.64313725
v 0.05928651 -0.00057521 -0.01744430 0.54117647 0.42352941 0.64313725
v 0.05928651 -0.00214106 -0.01744073 0.54117647 0.42352941 0.64313725
v 0.05775158 -0.00307609 -0.01757302 0.54117647 0.42352941 0.64313725
v 0.05680353 -0.00462593 -0.01743715 0.54117647 0.42352941 0.64313725
v 0.05525355 -0.00607971 -0.01706174 0.54117647 0.42352941 0.64313725
v 0.00578968 -0.00838206 -0.01861704 0.54117647 0.42352941 0.64313725
v 0.00318632 -0.01053071 -0.01785548 0.54117647 0.42352941 0.64313725
v 0.00058296 -0.01066200 -0.01792698 0.54117647 0.42352941 0.64313725
v -0.00722713 -0.01091176 -0.01796631 0.54117647 0.42352941 0.64313725
v -0.01503721 -0.01098862 -0.01798776 0.54117647 0.42352941 0.64313725
v -0.03065738 -0.01222465 -0.01735492 0.54117647 0.42352941 0.64313725
v -0.02749722 -0.01232391 -0.01741212 0.54117647 0.42352941 0.64313725
v -0.02922779 -0.01227908 -0.01738710 0.54117647 0.42352941 0.64313725
v -0.03326074 -0.01204853 -0.01725481 0.54117647 0.42352941 0.64313725
v -0.03586410 -0.01042504 -0.01774464 0.54117647 0.42352941 0.64313725
v -0.03848252 -0.00999275 -0.01755157 0.54117647 0.42352941 0.64313725
v -0.03848252 -0.00838206 -0.01813793 0.54117647 0.42352941 0.64313725
v -0.02545066 -0.01235594 -0.01743358 0.54117647 0.42352941 0.64313725
v -0.04108587 -0.00317536 -0.01852050 0.54117647 0.42352941 0.64313725
v -0.04046889 -0.00838206 -0.01765168 0.54117647 0.42352941 0.64313725
v -0.05563761 -0.00469318 -0.01486286 0.54117647 0.42352941 0.64313725
v -0.05601382 -0.00317536 -0.01498085 0.54117647 0.42352941 0.64313725
v -0.04108587 -0.00057521 -0.01854910 0.54117647 0.42352941 0.64313725
v 0.00008637 0.00857015 -0.01741570 0.54117647 0.42352941 0.64313725
v 0.00080869 0.00749743 -0.01804855 0.54117647 0.42352941 0.64313725
v -0.01764057 0.00866301 -0.01748363 0.54117647 0.42352941 0.64313725
v -0.02024393 0.00863419 -0.01745860 0.54117647 0.42352941 0.64313725
v 0.00578968 0.00845807 -0.01732989 0.54117647 0.42352941 0.64313725
v 0.05265019 0.00723805 -0.01593191 0.54117647 0.42352941 0.64313725
v -0.02805401 0.00844527 -0.01732989 0.54117647 0.42352941 0.64313725
v -0.02638365 0.00851571 -0.01737279 0.54117647 0.42352941 0.64313725
v -0.02549580 0.00748462 -0.01797704 0.54117647 0.42352941 0.64313725
v -0.02465309 0.00856695 -0.01740855 0.54117647 0.42352941 0.64313725
v -0.02284729 0.00859577 -0.01743000 0.54117647 0.42352941 0.64313725
v -0.03869318 0.00487486 -0.01801994 0.54117647 0.42352941 0.64313725
v -0.03797087 0.00620055 -0.01756229 0.54117647 0.42352941 0.64313725
v -0.03586410 0.00648875 -0.01774106 0.54117647 0.42352941 0.64313725
v -0.04108587 0.00202815 -0.01832743 0.54117647 0.42352941 0.64313725
v -0.04108587 0.00416078 -0.01776251 0.54117647 0.42352941 0.64313725
v -0.03065738 0.00829476 -0.01722620 0.54117647 0.42352941 0.64313725
v 0.05541908 0.00747821 -0.01560297 0.54117647 0.42352941 0.64313725
v 0.05785692 0.00685379 -0.01542777 0.54117647 0.42352941 0.64313725
v 0.07608045 0.00202815 -0.01131963 0.54117647 0.42352941 0.64313725
v 0.07472610 0.00060639 -0.01217416 0.54117647 0.42352941 0.64313725
v 0.07592996 -0.00038628 -0.01193460 0.54117647 0.42352941 0.64313725
v 0.05854914 -0.00387663 -0.01726911 0.54117647 0.42352941 0.64313725
v 0.07495182 -0.00222111 -0.01222064 0.54117647 0.42352941 0.64313725
v 0.07592996 -0.00312412 -0.01183092 0.54117647 0.42352941 0.64313725
v 0.05775158 -0.00560900 -0.01694375 0.54117647 0.42352941 0.64313725
v 0.05525355 -0.00838206 -0.01609995 0.54117647 0.42352941 0.64313725
v 0.00058296 -0.01196527 -0.01716185 0.54117647 0.42352941 0.64313725
v 0.05525355 -0.01008881 -0.01512387 0.54117647 0.42352941 0.64313725
v -0.00202040 -0.01204213 -0.01722620 0.54117647 0.42352941 0.64313725
v -0.00722713 -0.01221184 -0.01734062 0.54117647 0.42352941 0.64313725
v -0.01503721 -0.01233352 -0.01742285 0.54117647 0.42352941 0.64313725
v -0.03326074 -0.01349590 -0.01595336 0.54117647 0.42352941 0.64313725
v -0.02824964 -0.01335181 -0.01648252 0.54117647 0.42352941 0.64313725
v -0.02805401 -0.01502974 -0.01495582 0.54117647 0.42352941 0.64313725
v -0.02993506 -0.01495929 -0.01487001 0.54117647 0.42352941 0.64313725
v -0.02545066 -0.01365601 -0.01628587 0.54117647 0.42352941 0.64313725
v -0.03586410 -0.01338383 -0.01577101 0.54117647 0.42352941 0.64313725
v -0.03586410 -0.01172511 -0.01707246 0.54117647 0.42352941 0.64313725
v -0.03983686 -0.00973337 -0.01741928 0.54117647 0.42352941 0.64313725
v -0.02024393 -0.01361438 -0.01633593 0.54117647 0.42352941 0.64313725
v -0.02024393 -0.01510018 -0.01503448 0.54117647 0.42352941 0.64313725
v -0.05658566 -0.00564742 -0.01417638 0.54117647 0.42352941 0.64313725
v -0.05732302 -0.00317536 -0.01454465 0.54117647 0.42352941 0.64313725
v -0.05738321 -0.00057521 -0.01459828 0.54117647 0.42352941 0.64313725
v -0.05607402 -0.00057521 -0.01498800 0.54117647 0.42352941 0.64313725
v -0.01503721 0.00994067 -0.01635381 0.54117647 0.42352941 0.64313725
v -0.01503721 0.01136243 -0.01505236 0.54117647 0.42352941 0.64313725
v -0.01243385 0.01134321 -0.01503090 0.54117647 0.42352941 0.64313725
v -0.02024393 0.00993427 -0.01632163 0.54117647 0.42352941 0.64313725
v -0.02284729 0.00989584 -0.01629660 0.54117647 0.42352941 0.64313725
v 0.00318632 0.00977416 -0.01606062 0.54117647 0.42352941 0.64313725
v 0.05265019 0.00871745 -0.01495940 0.54117647 0.42352941 0.64313725
v 0.05465162 0.00865981 -0.01490577 0.54117647 0.42352941 0.64313725
v -0.02948361 0.01116389 -0.01480923 0.54117647 0.42352941 0.64313725
v -0.02805401 0.00984140 -0.01608922 0.54117647 0.42352941 0.64313725
v -0.02549580 0.00959804 -0.01643604 0.54117647 0.42352941 0.64313725
v -0.03970143 0.00590275 -0.01737279 0.54117647 0.42352941 0.64313725
v -0.03586410 0.00778882 -0.01683648 0.54117647 0.42352941 0.64313725
v -0.03869318 0.00713558 -0.01671134 0.54117647 0.42352941 0.64313725
v -0.03326074 0.00807061 -0.01704028 0.54117647 0.42352941 0.64313725
v -0.05571285 0.00100346 -0.01487001 0.54117647 0.42352941 0.64313725
v -0.05663080 0.00193528 -0.01433728 0.54117647 0.42352941 0.64313725
v -0.05670604 0.00463470 -0.01317884 0.54117647 0.42352941 0.64313725
v -0.03047680 0.01002713 -0.01571023 0.54117647 0.42352941 0.64313725
v 0.05639723 0.00850611 -0.01475560 0.54117647 0.42352941 0.64313725
v 0.05785692 0.00815387 -0.01446241 0.54117647 0.42352941 0.64313725
v 0.07608045 0.00394624 -0.01020053 0.54117647 0.42352941 0.64313725
v 0.07760033 0.00351715 -0.00978578 0.54117647 0.42352941 0.64313725
v 0.08920259 0.00161827 -0.00496971 0.54117647 0.42352941 0.64313725
v 0.08920259 0.00154462 -0.00499474 0.54117647 0.42352941 0.64313725
v 0.08920259 -0.00057521 -0.00569552 0.54117647 0.42352941 0.64313725
v 0.06046028 -0.00577871 -0.01605705 0.54117647 0.42352941 0.64313725
v 0.07608045 -0.00577871 -0.01107293 0.54117647 0.42352941 0.64313725
v 0.08920259 -0.00317536 -0.00527362 0.54117647 0.42352941 0.64313725
v 0.05800740 -0.00859340 -0.01556722 0.54117647 0.42352941 0.64313725
v 0.05722488 -0.00992230 -0.01498085 0.54117647 0.42352941 0.64313725
v 0.00318632 -0.01322692 -0.01578174 0.54117647 0.42352941 0.64313725
v -0.00202040 -0.01339343 -0.01592476 0.54117647 0.42352941 0.64313725
v 0.05525355 -0.01138889 -0.01381527 0.54117647 0.42352941 0.64313725
v -0.00462376 -0.01346388 -0.01598196 0.54117647 0.42352941 0.64313725
v -0.01243385 -0.01495288 -0.01486644 0.54117647 0.42352941 0.64313725
v -0.03586410 -0.01468711 -0.01447672 0.54117647 0.42352941 0.64313725
v -0.02805401 -0.01582387 -0.01348275 0.54117647 0.42352941 0.64313725
v -0.03074767 -0.01553568 -0.01371158 0.54117647 0.42352941 0.64313725
v -0.02545066 -0.01505215 -0.01498442 0.54117647 0.42352941 0.64313725
v -0.03326074 -0.01556450 -0.01334331 0.54117647 0.42352941 0.64313725
v -0.03586410 -0.01544922 -0.01317527 0.54117647 0.42352941 0.64313725
v -0.03848252 -0.01304120 -0.01542420 0.54117647 0.42352941 0.64313725
v -0.03848252 -0.01129602 -0.01672565 0.54117647 0.42352941 0.64313725
v -0.05574295 -0.00985185 -0.01229572 0.54117647 0.42352941 0.64313725
v -0.05664585 -0.00845891 -0.01282130 0.54117647 0.42352941 0.64313725
v -0.02024393 -0.01591353 -0.01348275 0.54117647 0.42352941 0.64313725
v -0.05851184 -0.00763916 -0.01251739 0.54117647 0.42352941 0.64313725
v -0.05935455 -0.00565062 -0.01281415 0.54117647 0.42352941 0.64313725
v -0.05930940 -0.00317536 -0.01348990 0.54117647 0.42352941 0.64313725
v -0.05930940 -0.00057521 -0.01365795 0.54117647 0.42352941 0.64313725
v -0.05930940 0.00202815 -0.01326823 0.54117647 0.42352941 0.64313725
v -0.02024393 0.01134642 -0.01502018 0.54117647 0.42352941 0.64313725
v -0.02024393 0.01237111 -0.01348275 0.54117647 0.42352941 0.64313725
v -0.01503721 0.01237751 -0.01348275 0.54117647 0.42352941 0.64313725
v -0.01243385 0.01233268 -0.01348275 0.54117647 0.42352941 0.64313725
v -0.00722713 0.01220459 -0.01348275 0.54117647 0.42352941 0.64313725
v -0.00462376 0.01213095 -0.01348275 0.54117647 0.42352941 0.64313725
v -0.00462376 0.01120872 -0.01486286 0.54117647 0.42352941 0.64313725
v -0.02284729 0.01132400 -0.01499515 0.54117647 0.42352941 0.64313725
v 0.00318632 0.01107423 -0.01469124 0.54117647 0.42352941 0.64313725
v 0.05525355 0.01108064 -0.01207762 0.54117647 0.42352941 0.64313725
v 0.05541908 0.00960444 -0.01372588 0.54117647 0.42352941 0.64313725
v -0.03586410 0.00927142 -0.01553146 0.54117647 0.42352941 0.64313725
v -0.03122922 0.01101660 -0.01460901 0.54117647 0.42352941 0.64313725
v -0.03326074 0.01167624 -0.01303583 0.54117647 0.42352941 0.64313725
v -0.03047680 0.01170506 -0.01364007 0.54117647 0.42352941 0.64313725
v -0.02805401 0.01200926 -0.01348275 0.54117647 0.42352941 0.64313725
v -0.02545066 0.01216617 -0.01348275 0.54117647 0.42352941 0.64313725
v -0.02284729 0.01230706 -0.01348275 0.54117647 0.42352941 0.64313725
v -0.05803029 0.00594438 -0.01218846 0.54117647 0.42352941 0.64313725
v -0.03848252 0.00899604 -0.01525258 0.54117647 0.42352941 0.64313725
v -0.03326074 0.00950518 -0.01573884 0.54117647 0.42352941 0.64313725
v -0.05905358 0.00442016 -0.01248879 0.54117647 0.42352941 0.64313725
v 0.05785692 0.01078284 -0.01167717 0.54117647 0.42352941 0.64313725
v 0.05785692 0.00947956 -0.01316097 0.54117647 0.42352941 0.64313725
v 0.07618579 0.00531035 -0.00829842 0.54117647 0.42352941 0.64313725
v 0.08920259 0.00280947 -0.00306760 0.54117647 0.42352941 0.64313725
v 0.06046028 -0.00774803 -0.01519180 0.54117647 0.42352941 0.64313725
v 0.08920259 -0.00322339 -0.00525217 0.54117647 0.42352941 0.64313725
v 0.07744985 -0.00719406 -0.00965349 0.54117647 0.42352941 0.64313725
v 0.07608045 -0.00779927 -0.01008254 0.54117647 0.42352941 0.64313725
v 0.07368776 -0.00862863 -0.01045438 0.54117647 0.42352941 0.64313725
v 0.05897049 -0.00960208 -0.01471984 0.54117647 0.42352941 0.64313725
v 0.07469600 -0.00965972 -0.00955696 0.54117647 0.42352941 0.64313725
v 0.05904574 -0.01225987 -0.01213840 0.54117647 0.42352941 0.64313725
v 0.05730013 -0.01244560 -0.01238510 0.54117647 0.42352941 0.64313725
v -0.00462376 -0.01476716 -0.01454822 0.54117647 0.42352941 0.64313725
v -0.01091396 -0.01491766 -0.01481638 0.54117647 0.42352941 0.64313725
v 0.05525355 -0.01254166 -0.01251024 0.54117647 0.42352941 0.64313725
v -0.01764057 -0.01581747 -0.01348275 0.54117647 0.42352941 0.64313725
v -0.03848252 -0.01524748 -0.01279270 0.54117647 0.42352941 0.64313725
v -0.03848252 -0.01434447 -0.01409415 0.54117647 0.42352941 0.64313725
v -0.02805401 -0.01685496 -0.01087986 0.54117647 0.42352941 0.64313725
v -0.03065738 -0.01682294 -0.01087986 0.54117647 0.42352941 0.64313725
v -0.03326074 -0.01671087 -0.01087986 0.54117647 0.42352941 0.64313725
v -0.03586410 -0.01654436 -0.01087986 0.54117647 0.42352941 0.64313725
v -0.03848252 -0.01624335 -0.01087986 0.54117647 0.42352941 0.64313725
v -0.05584829 -0.01244880 -0.00978578 0.54117647 0.42352941 0.64313725
v -0.05666090 -0.01098541 -0.01088701 0.54117647 0.42352941 0.64313725
v -0.05748856 -0.00937473 -0.01198823 0.54117647 0.42352941 0.64313725
v -0.01764057 -0.01680693 -0.01087986 0.54117647 0.42352941 0.64313725
v -0.02024393 -0.01688058 -0.01087986 0.54117647 0.42352941 0.64313725
v -0.05935455 -0.00845891 -0.01141974 0.54117647 0.42352941 0.64313725
v -0.06025745 -0.00643515 -0.01192030 0.54117647 0.42352941 0.64313725
v -0.06070890 -0.00469958 -0.01225997 0.54117647 0.42352941 0.64313725
v -0.06090453 -0.00317536 -0.01242801 0.54117647 0.42352941 0.64313725
v -0.06105501 -0.00057521 -0.01254242 0.54117647 0.42352941 0.64313725
v -0.06087443 0.00202815 -0.01238153 0.54117647 0.42352941 0.64313725
v -0.06064871 0.00341148 -0.01221349 0.54117647 0.42352941 0.64313725
v -0.02024393 0.01347265 -0.01128745 0.54117647 0.42352941 0.64313725
v -0.01764057 0.01347905 -0.01137684 0.54117647 0.42352941 0.64313725
v -0.00722713 0.01340540 -0.01132678 0.54117647 0.42352941 0.64313725
v -0.00462376 0.01336698 -0.01128745 0.54117647 0.42352941 0.64313725
v 0.05525355 0.01169545 -0.01077617 0.54117647 0.42352941 0.64313725
v 0.05785692 0.01153214 -0.01037573 0.54117647 0.42352941 0.64313725
v -0.03586410 0.01057150 -0.01397258 0.54117647 0.42352941 0.64313725
v -0.03586410 0.01146490 -0.01267114 0.54117647 0.42352941 0.64313725
v -0.03586410 0.01228145 -0.01087986 0.54117647 0.42352941 0.64313725
v -0.03326074 0.01265290 -0.01087986 0.54117647 0.42352941 0.64313725
v -0.03065738 0.01291227 -0.01087986 0.54117647 0.42352941 0.64313725
v -0.02805401 0.01313322 -0.01087986 0.54117647 0.42352941 0.64313725
v -0.02284729 0.01342782 -0.01108366 0.54117647 0.42352941 0.64313725
v -0.05976085 0.00514704 -0.01180231 0.54117647 0.42352941 0.64313725
v -0.06120549 0.00646954 -0.01006824 0.54117647 0.42352941 0.64313725
v -0.05893319 0.00707474 -0.01070824 0.54117647 0.42352941 0.64313725
v -0.05809049 0.00856374 -0.00961416 0.54117647 0.42352941 0.64313725
v -0.03852765 0.01041139 -0.01334689 0.54117647 0.42352941 0.64313725
v 0.05951223 0.01131440 -0.00988947 0.54117647 0.42352941 0.64313725
v 0.07538823 0.00617173 -0.00744747 0.54117647 0.42352941 0.64313725
v 0.07608045 0.00730530 -0.00306760 0.54117647 0.42352941 0.64313725
v 0.08006826 0.00596359 -0.00186984 0.54117647 0.42352941 0.64313725
v 0.08006826 0.00596359 -0.00150872 0.54117647 0.42352941 0.64313725
v 0.07608045 0.00732771 -0.00046828 0.54117647 0.42352941 0.64313725
v 0.07884934 0.00635746 -0.00057196 0.54117647 0.42352941 0.64313725
v 0.07982748 0.00586433 0.00022893 0.54117647 0.42352941 0.64313725
v 0.08920259 0.00241881 -0.00055409 0.54117647 0.42352941 0.64313725
v 0.06041513 0.01157377 -0.00814467 0.54117647 0.42352941 0.64313725
v 0.06046028 0.01224942 -0.00567049 0.54117647 0.42352941 0.64313725
v 0.08920259 -0.00465475 -0.00455139 0.54117647 0.42352941 0.64313725
v 0.07608045 -0.00910255 -0.00914936 0.54117647 0.42352941 0.64313725
v 0.07770567 -0.01000235 -0.00729373 0.54117647 0.42352941 0.64313725
v 0.07949642 -0.01205173 -0.00405798 0.54117647 0.42352941 0.64313725
v 0.07776586 -0.01240077 -0.00456212 0.54117647 0.42352941 0.64313725
v 0.05805255 -0.01298036 -0.01111226 0.54117647 0.42352941 0.64313725
v 0.05525355 -0.01342225 -0.01087986 0.54117647 0.42352941 0.64313725
v -0.00202040 -0.01532113 -0.01311091 0.54117647 0.42352941 0.64313725
v -0.04016792 -0.01503934 -0.01240656 0.54117647 0.42352941 0.64313725
v -0.02805401 -0.01779320 -0.00786222 0.54117647 0.42352941 0.64313725
v -0.03065738 -0.01737051 -0.00910646 0.54117647 0.42352941 0.64313725
v -0.03326074 -0.01734169 -0.00893841 0.54117647 0.42352941 0.64313725
v -0.03586410 -0.01729046 -0.00879540 0.54117647 0.42352941 0.64313725
v -0.03860290 -0.01723602 -0.00818400 0.54117647 0.42352941 0.64313725
v -0.04108587 -0.01673328 -0.00827696 0.54117647 0.42352941 0.64313725
v -0.05670604 -0.01294833 -0.00839495 0.54117647 0.42352941 0.64313725
v -0.05757884 -0.01211898 -0.00934243 0.54117647 0.42352941 0.64313725
v -0.05930940 -0.01025532 -0.01012187 0.54117647 0.42352941 0.64313725
v -0.06066375 -0.00974618 -0.00963204 0.54117647 0.42352941 0.64313725
v -0.01764057 -0.01734169 -0.00876679 0.54117647 0.42352941 0.64313725
v -0.02024393 -0.01737051 -0.00900992 0.54117647 0.42352941 0.64313725
v -0.00202040 -0.01615369 -0.01087986 0.54117647 0.42352941 0.64313725
v -0.06107006 -0.00838206 -0.01007539 0.54117647 0.42352941 0.64313725
v -0.06147637 -0.00565062 -0.01098355 0.54117647 0.42352941 0.64313725
v -0.06236421 -0.00309530 -0.01066533 0.54117647 0.42352941 0.64313725
v -0.06236421 -0.00057521 -0.01106220 0.54117647 0.42352941 0.64313725
v -0.06332730 0.00202815 -0.00977506 0.54117647 0.42352941 0.64313725
v -0.06216859 0.00202815 -0.01107651 0.54117647 0.42352941 0.64313725
v -0.06328217 0.00358759 -0.00967137 0.54117647 0.42352941 0.64313725
v -0.06180743 0.00436892 -0.01073684 0.54117647 0.42352941 0.64313725
v -0.02024393 0.01386331 -0.00998601 0.54117647 0.42352941 0.64313725
v -0.01764057 0.01389533 -0.01007539 0.54117647 0.42352941 0.64313725
v -0.01503721 0.01389854 -0.01006109 0.54117647 0.42352941 0.64313725
v -0.00722713 0.01390174 -0.01002176 0.54117647 0.42352941 0.64313725
v -0.00462376 0.01389854 -0.00998601 0.54117647 0.42352941 0.64313725
v 0.05525355 0.01256003 -0.00827696 0.54117647 0.42352941 0.64313725
v 0.05785692 0.01229105 -0.00827696 0.54117647 0.42352941 0.64313725
v -0.03770000 0.01127597 -0.01238868 0.54117647 0.42352941 0.64313725
v -0.03848252 0.01259846 -0.00827696 0.54117647 0.42352941 0.64313725
v -0.03586410 0.01300834 -0.00827696 0.54117647 0.42352941 0.64313725
v -0.05670604 0.00947636 -0.00827696 0.54117647 0.42352941 0.64313725
v -0.05670604 0.01041459 -0.00567049 0.54117647 0.42352941 0.64313725
v -0.03326074 0.01330614 -0.00827696 0.54117647 0.42352941 0.64313725
v -0.02435213 0.01376084 -0.00963204 0.54117647 0.42352941 0.64313725
v -0.02531522 0.01340540 -0.01065103 0.54117647 0.42352941 0.64313725
v -0.02284729 0.01380247 -0.00978221 0.54117647 0.42352941 0.64313725
v -0.06295110 0.00532316 -0.00926020 0.54117647 0.42352941 0.64313725
v -0.06347780 0.00649195 -0.00752613 0.54117647 0.42352941 0.64313725
v -0.06200306 0.00735013 -0.00829484 0.54117647 0.42352941 0.64313725
v -0.05982105 0.00820510 -0.00906355 0.54117647 0.42352941 0.64313725
v -0.06103997 0.00869503 -0.00732948 0.54117647 0.42352941 0.64313725
v -0.05909873 0.00889357 -0.00822691 0.54117647 0.42352941 0.64313725
v 0.06046028 0.01256324 -0.00306760 0.54117647 0.42352941 0.64313725
v 0.07809693 0.00622617 0.00170200 0.54117647 0.42352941 0.64313725
v 0.06046028 0.01237431 -0.00046828 0.54117647 0.42352941 0.64313725
v 0.08920259 0.00239960 -0.00046828 0.54117647 0.42352941 0.64313725
v 0.05785692 0.01285143 -0.00567049 0.54117647 0.42352941 0.64313725
v 0.08920259 -0.00513187 -0.00306760 0.54117647 0.42352941 0.64313725
v 0.08322841 -0.01032257 -0.00256346 0.54117647 0.42352941 0.64313725
v 0.08042941 -0.01256728 -0.00232391 0.54117647 0.42352941 0.64313725
v 0.08145270 -0.01118715 -0.00331072 0.54117647 0.42352941 0.64313725
v 0.07865371 -0.01275621 -0.00314268 0.54117647 0.42352941 0.64313725
v 0.05785692 -0.01413633 -0.00827696 0.54117647 0.42352941 0.64313725
v 0.05525355 -0.01436369 -0.00827696 0.54117647 0.42352941 0.64313725
v -0.02024393 -0.01765871 -0.00770847 0.54117647 0.42352941 0.64313725
v -0.02805401 -0.01816465 -0.00567049 0.54117647 0.42352941 0.64313725
v -0.03065738 -0.01774196 -0.00780501 0.54117647 0.42352941 0.64313725
v -0.03586410 -0.01762668 -0.00749395 0.54117647 0.42352941 0.64313725
v -0.03782038 -0.01757225 -0.00725440 0.54117647 0.42352941 0.64313725
v -0.03956599 -0.01747298 -0.00678244 0.54117647 0.42352941 0.64313725
v -0.05670604 -0.01404988 -0.00567049 0.54117647 0.42352941 0.64313725
v -0.05879776 -0.01266334 -0.00760479 0.54117647 0.42352941 0.64313725
v -0.06054336 -0.01224706 -0.00687898 0.54117647 0.42352941 0.64313725
v -0.05952008 -0.01167708 -0.00839495 0.54117647 0.42352941 0.64313725
v -0.06114530 -0.01034818 -0.00827696 0.54117647 0.42352941 0.64313725
v -0.06240936 -0.00831482 -0.00816970 0.54117647 0.42352941 0.64313725
v -0.01160619 -0.01749219 -0.00689328 0.54117647 0.42352941 0.64313725
v -0.06292100 -0.00577871 -0.00897774 0.54117647 0.42352941 0.64313725
v -0.06313168 -0.00391185 -0.00938891 0.54117647 0.42352941 0.64313725
v -0.06325206 -0.00217628 -0.00965707 0.54117647 0.42352941 0.64313725
v -0.06331226 -0.00057521 -0.00976076 0.54117647 0.42352941 0.64313725
v -0.06382390 0.00202815 -0.00827696 0.54117647 0.42352941 0.64313725
v -0.06361323 0.00452583 -0.00834490 0.54117647 0.42352941 0.64313725
v -0.02024393 0.01410988 -0.00827696 0.54117647 0.42352941 0.64313725
v -0.01764057 0.01417712 -0.00827696 0.54117647 0.42352941 0.64313725
v -0.01503721 0.01420914 -0.00827696 0.54117647 0.42352941 0.64313725
v -0.00722713 0.01420594 -0.00827696 0.54117647 0.42352941 0.64313725
v -0.00462376 0.01418993 -0.00827696 0.54117647 0.42352941 0.64313725
v 0.05525355 0.01298592 -0.00567049 0.54117647 0.42352941 0.64313725
v -0.03586410 0.01332215 -0.00567049 0.54117647 0.42352941 0.64313725
v -0.05401239 0.01086930 -0.00549172 0.54117647 0.42352941 0.64313725
v -0.05309444 0.01117030 -0.00450133 0.54117647 0.42352941 0.64313725
v -0.05930940 0.00973894 -0.00567049 0.54117647 0.42352941 0.64313725
v -0.05930940 0.01018083 -0.00306760 0.54117647 0.42352941 0.64313725
v -0.05670604 0.01081486 -0.00306760 0.54117647 0.42352941 0.64313725
v -0.03137970 0.01370961 -0.00637485 0.54117647 0.42352941 0.64313725
v -0.02964915 0.01376404 -0.00708993 0.54117647 0.42352941 0.64313725
v -0.03056709 0.01354950 -0.00808747 0.54117647 0.42352941 0.64313725
v -0.02284729 0.01400100 -0.00827696 0.54117647 0.42352941 0.64313725
v -0.06430545 0.00463470 -0.00567049 0.54117647 0.42352941 0.64313725
v -0.06370351 0.00698828 -0.00567049 0.54117647 0.42352941 0.64313725
v -0.06287586 0.00829156 -0.00567049 0.54117647 0.42352941 0.64313725
v -0.06156665 0.00894480 -0.00567049 0.54117647 0.42352941 0.64313725
v 0.05785692 0.01300834 -0.00306760 0.54117647 0.42352941 0.64313725
v 0.07738965 0.00593478 0.00343964 0.54117647 0.42352941 0.64313725
v 0.06211559 0.01138805 0.00149105 0.54117647 0.42352941 0.64313725
v 0.05785692 0.01270413 -0.00046828 0.54117647 0.42352941 0.64313725
v 0.06055057 0.01165062 0.00227048 0.54117647 0.42352941 0.64313725
v 0.08920259 0.00125002 0.00116568 0.54117647 0.42352941 0.64313725
v 0.08920259 -0.00512867 -0.00299609 0.54117647 0.42352941 0.64313725
v 0.08327355 -0.01040262 -0.00046828 0.54117647 0.42352941 0.64313725
v 0.08172357 -0.01170590 -0.00046828 0.54117647 0.42352941 0.64313725
v 0.08041437 -0.01254807 -0.00046828 0.54117647 0.42352941 0.64313725
v 0.07868381 -0.01305080 -0.00046828 0.54117647 0.42352941 0.64313725
v 0.07608045 -0.01303800 -0.00306760 0.54117647 0.42352941 0.64313725
v 0.05853409 -0.01484401 -0.00358603 0.54117647 0.42352941 0.64313725
v 0.05775158 -0.01470312 -0.00550960 0.54117647 0.42352941 0.64313725
v 0.05525355 -0.01478637 -0.00601731 0.54117647 0.42352941 0.64313725
v -0.02024393 -0.01788926 -0.00567049 0.54117647 0.42352941 0.64313725
v -0.01037223 -0.01756264 -0.00515921 0.54117647 0.42352941 0.64313725
v -0.01243385 -0.01765871 -0.00306760 0.54117647 0.42352941 0.64313725
v -0.02024393 -0.01790527 -0.00306760 0.54117647 0.42352941 0.64313725
v -0.02545066 -0.01806218 -0.00306760 0.54117647 0.42352941 0.64313725
v -0.02805401 -0.01811661 -0.00306760 0.54117647 0.42352941 0.64313725
v -0.03848252 -0.01782842 -0.00306760 0.54117647 0.42352941 0.64313725
v -0.03586410 -0.01786044 -0.00567049 0.54117647 0.42352941 0.64313725
v -0.03860290 -0.01768752 -0.00581708 0.54117647 0.42352941 0.64313725
v -0.04027326 -0.01758506 -0.00504837 0.54117647 0.42352941 0.64313725
v -0.04111597 -0.01732888 -0.00581708 0.54117647 0.42352941 0.64313725
v -0.05329007 -0.01499131 -0.00470513 0.54117647 0.42352941 0.64313725
v -0.05670604 -0.01448857 -0.00306760 0.54117647 0.42352941 0.64313725
v -0.05930940 -0.01374567 -0.00306760 0.54117647 0.42352941 0.64313725
v -0.05952008 -0.01305401 -0.00587429 0.54117647 0.42352941 0.64313725
v -0.06096472 -0.01258009 -0.00514133 0.54117647 0.42352941 0.64313725
v -0.06198801 -0.01097260 -0.00563831 0.54117647 0.42352941 0.64313725
v -0.06301129 -0.00913777 -0.00613172 0.54117647 0.42352941 0.64313725
v -0.06332730 -0.00740220 -0.00722937 0.54117647 0.42352941 0.64313725
v 0.05680353 -0.01491446 -0.00453709 0.54117647 0.42352941 0.64313725
v -0.06347780 -0.00577871 -0.00767629 0.54117647 0.42352941 0.64313725
v -0.06356808 -0.00309530 -0.00842355 0.54117647 0.42352941 0.64313725
v -0.06376371 -0.00057521 -0.00827696 0.54117647 0.42352941 0.64313725
v -0.06438070 0.00202815 -0.00567049 0.54117647 0.42352941 0.64313725
v -0.02284729 0.01420274 -0.00567049 0.54117647 0.42352941 0.64313725
v -0.02024393 0.01430201 -0.00567049 0.54117647 0.42352941 0.64313725
v -0.01764057 0.01437566 -0.00567049 0.54117647 0.42352941 0.64313725
v -0.01503721 0.01444610 -0.00567049 0.54117647 0.42352941 0.64313725
v -0.01243385 0.01446211 -0.00567049 0.54117647 0.42352941 0.64313725
v -0.00722713 0.01442049 -0.00567049 0.54117647 0.42352941 0.64313725
v -0.03586410 0.01338939 -0.00306760 0.54117647 0.42352941 0.64313725
v -0.03213212 0.01376404 -0.00463720 0.54117647 0.42352941 0.64313725
v -0.03311025 0.01361354 -0.00557396 0.54117647 0.42352941 0.64313725
v -0.05479490 0.01108384 -0.00306760 0.54117647 0.42352941 0.64313725
v -0.05930940 0.00994387 -0.00046828 0.54117647 0.42352941 0.64313725
v -0.05670604 0.01061953 -0.00046828 0.54117647 0.42352941 0.64313725
v -0.06188267 0.00914974 -0.00306760 0.54117647 0.42352941 0.64313725
v -0.06170209 0.00903446 -0.00046828 0.54117647 0.42352941 0.64313725
v -0.05458423 0.01101339 -0.00046828 0.54117647 0.42352941 0.64313725
v -0.05327502 0.01119912 -0.00046828 0.54117647 0.42352941 0.64313725
v -0.03056709 0.01381528 -0.00557396 0.54117647 0.42352941 0.64313725
v -0.02805401 0.01394657 -0.00567049 0.54117647 0.42352941 0.64313725
v -0.06448602 0.00463470 -0.00306760 0.54117647 0.42352941 0.64313725
v -0.06379381 0.00721564 -0.00306760 0.54117647 0.42352941 0.64313725
v -0.06319187 0.00851891 -0.00306760 0.54117647 0.42352941 0.64313725
v -0.00983048 0.01451335 -0.00306760 0.54117647 0.42352941 0.64313725
v -0.00722713 0.01427319 -0.00046828 0.54117647 0.42352941 0.64313725
v 0.07741975 0.00335384 0.00606041 0.54117647 0.42352941 0.64313725
v 0.07845808 0.00410634 0.00472679 0.54117647 0.42352941 0.64313725
v 0.08062504 0.00373489 0.00384724 0.54117647 0.42352941 0.64313725
v 0.08920259 0.00121160 0.00121932 0.54117647 0.42352941 0.64313725
v 0.06148356 0.01104221 0.00322869 0.54117647 0.42352941 0.64313725
v 0.05975301 0.01130799 0.00372568 0.54117647 0.42352941 0.64313725
v 0.06055057 0.01044661 0.00465170 0.54117647 0.42352941 0.64313725
v 0.06046028 0.00904727 0.00667896 0.54117647 0.42352941 0.64313725
v 0.06046028 0.00784006 0.00798041 0.54117647 0.42352941 0.64313725
v 0.05785692 0.01200286 0.00213819 0.54117647 0.42352941 0.64313725
v -0.00722713 0.01393696 0.00158401 0.54117647 0.42352941 0.64313725
v -0.01243385 0.01368079 0.00315361 0.54117647 0.42352941 0.64313725
v 0.08920259 -0.00495576 -0.00072571 0.54117647 0.42352941 0.64313725
v 0.08286725 -0.01000555 0.00121932 0.54117647 0.42352941 0.64313725
v 0.08012845 -0.01235914 0.00100122 0.54117647 0.42352941 0.64313725
v 0.07868381 -0.01254807 0.00145529 0.54117647 0.42352941 0.64313725
v 0.07608045 -0.01266975 0.00180926 0.54117647 0.42352941 0.64313725
v 0.06046028 -0.01386415 0.00213819 0.54117647 0.42352941 0.64313725
v 0.05918117 -0.01489845 -0.00174470 0.54117647 0.42352941 0.64313725
v 0.05918117 -0.01489845 -0.00184838 0.54117647 0.42352941 0.64313725
v -0.01019165 -0.01757545 -0.00306760 0.54117647 0.42352941 0.64313725
v -0.01064310 -0.01753702 -0.00139073 0.54117647 0.42352941 0.64313725
v -0.02284729 -0.01784443 -0.00046828 0.54117647 0.42352941 0.64313725
v -0.02024393 -0.01777719 -0.00046828 0.54117647 0.42352941 0.64313725
v -0.02545066 -0.01788606 -0.00046828 0.54117647 0.42352941 0.64313725
v -0.02805401 -0.01788926 -0.00046828 0.54117647 0.42352941 0.64313725
v -0.03586410 -0.01761708 0.00197015 0.54117647 0.42352941 0.64313725
v -0.03848252 -0.01772275 -0.00046828 0.54117647 0.42352941 0.64313725
v -0.04031841 -0.01757545 -0.00046828 0.54117647 0.42352941 0.64313725
v -0.04060433 -0.01762989 -0.00306760 0.54117647 0.42352941 0.64313725
v -0.04189849 -0.01741854 -0.00306760 0.54117647 0.42352941 0.64313725
v -0.05380171 -0.01513861 -0.00306760 0.54117647 0.42352941 0.64313725
v -0.05670604 -0.01439571 -0.00046828 0.54117647 0.42352941 0.64313725
v -0.05374152 -0.01515142 -0.00046828 0.54117647 0.42352941 0.64313725
v -0.06114530 -0.01273059 -0.00046828 0.54117647 0.42352941 0.64313725
v -0.06120549 -0.01279143 -0.00306760 0.54117647 0.42352941 0.64313725
v -0.05930940 -0.01363360 -0.00046828 0.54117647 0.42352941 0.64313725
v -0.06251470 -0.01111670 -0.00306760 0.54117647 0.42352941 0.64313725
v -0.06322198 -0.00969815 -0.00439407 0.54117647 0.42352941 0.64313725
v -0.06347780 -0.00831482 -0.00542736 0.54117647 0.42352941 0.64313725
v -0.06403457 -0.00577871 -0.00567049 0.54117647 0.42352941 0.64313725
v -0.06424526 -0.00317536 -0.00567049 0.54117647 0.42352941 0.64313725
v -0.06445594 -0.00317536 -0.00306760 0.54117647 0.42352941 0.64313725
v -0.06453117 0.00202815 -0.00306760 0.54117647 0.42352941 0.64313725
v -0.02805401 0.01403303 -0.00306760 0.54117647 0.42352941 0.64313725
v -0.02545066 0.01415791 -0.00306760 0.54117647 0.42352941 0.64313725
v -0.01764057 0.01443330 -0.00306760 0.54117647 0.42352941 0.64313725
v -0.01503721 0.01451975 -0.00306760 0.54117647 0.42352941 0.64313725
v -0.02284729 0.01425718 -0.00306760 0.54117647 0.42352941 0.64313725
v -0.01243385 0.01454857 -0.00306760 0.54117647 0.42352941 0.64313725
v -0.03586410 0.01328052 -0.00046828 0.54117647 0.42352941 0.64313725
v -0.03193649 0.01374483 -0.00188414 0.54117647 0.42352941 0.64313725
v -0.03311025 0.01365837 -0.00287810 0.54117647 0.42352941 0.64313725
v -0.03213212 0.01376404 -0.00361821 0.54117647 0.42352941 0.64313725
v -0.05935455 0.00904407 0.00225618 0.54117647 0.42352941 0.64313725
v -0.05670604 0.00983180 0.00213819 0.54117647 0.42352941 0.64313725
v -0.06119044 0.00877188 0.00146602 0.54117647 0.42352941 0.64313725
v -0.05384686 0.01061312 0.00188077 0.54117647 0.42352941 0.64313725
v -0.05280852 0.01114468 0.00084032 0.54117647 0.42352941 0.64313725
v -0.06299624 0.00837482 -0.00046828 0.54117647 0.42352941 0.64313725
v -0.06438070 0.00463470 -0.00046828 0.54117647 0.42352941 0.64313725
v -0.06374867 0.00707154 -0.00046828 0.54117647 0.42352941 0.64313725
v -0.01243385 0.01436925 -0.00046828 0.54117647 0.42352941 0.64313725
v -0.00983048 0.01432762 -0.00046828 0.54117647 0.42352941 0.64313725
v 0.07794644 0.00202815 0.00628567 0.54117647 0.42352941 0.64313725
v 0.06046028 0.00653998 0.00914241 0.54117647 0.42352941 0.64313725
v 0.05785692 0.00529434 0.01087649 0.54117647 0.42352941 0.64313725
v 0.05949719 0.00360681 0.01139492 0.54117647 0.42352941 0.64313725
v 0.08920259 -0.00051757 0.00176635 0.54117647 0.42352941 0.64313725
v 0.05785692 0.01135602 0.00382936 0.54117647 0.42352941 0.64313725
v 0.05785692 0.01060032 0.00513081 0.54117647 0.42352941 0.64313725
v 0.05785692 0.00930024 0.00709728 0.54117647 0.42352941 0.64313725
v 0.05785692 0.00830757 0.00839873 0.54117647 0.42352941 0.64313725
v 0.05785692 0.00700750 0.00957146 0.54117647 0.42352941 0.64313725
v 0.00318632 0.01272655 0.00474109 0.54117647 0.42352941 0.64313725
v -0.01243385 0.01397539 0.00185216 0.54117647 0.42352941 0.64313725
v -0.01503721 0.01368079 0.00312858 0.54117647 0.42352941 0.64313725
v -0.01503721 0.01312682 0.00474109 0.54117647 0.42352941 0.64313725
v -0.01243385 0.01309159 0.00474109 0.54117647 0.42352941 0.64313725
v 0.08920259 -0.00426729 0.00057574 0.54117647 0.42352941 0.64313725
v 0.08042941 -0.01012403 0.00379718 0.54117647 0.42352941 0.64313725
v 0.08113668 -0.01093418 0.00197730 0.54117647 0.42352941 0.64313725
v 0.07868381 -0.01188522 0.00275674 0.54117647 0.42352941 0.64313725
v 0.07608045 -0.01212858 0.00311071 0.54117647 0.42352941 0.64313725
v 0.06046028 -0.01242638 0.00626421 0.54117647 0.42352941 0.64313725
v 0.06046028 -0.01305401 0.00474109 0.54117647 0.42352941 0.64313725
v 0.05785692 -0.01404988 0.00213819 0.54117647 0.42352941 0.64313725
v 0.05785692 -0.01464868 -0.00036459 0.54117647 0.42352941 0.64313725
v -0.00202040 -0.01616330 0.00474109 0.54117647 0.42352941 0.64313725
v -0.00202040 -0.01671727 0.00213819 0.54117647 0.42352941 0.64313725
v -0.01840803 -0.01756264 0.00116926 0.54117647 0.42352941 0.64313725
v -0.02024393 -0.01759786 0.00139094 0.54117647 0.42352941 0.64313725
v -0.02805401 -0.01763949 0.00187361 0.54117647 0.42352941 0.64313725
v -0.03586410 -0.01747618 0.00327160 0.54117647 0.42352941 0.64313725
v -0.03848252 -0.01757225 0.00141954 0.54117647 0.42352941 0.64313725
v -0.03989706 -0.01751461 0.00093686 0.54117647 0.42352941 0.64313725
v -0.04162761 -0.01738972 -0.00046828 0.54117647 0.42352941 0.64313725
v -0.05670604 -0.01380971 0.00213819 0.54117647 0.42352941 0.64313725
v -0.05321483 -0.01500732 0.00119429 0.54117647 0.42352941 0.64313725
v -0.04089024 -0.01719760 0.00193797 0.54117647 0.42352941 0.64313725
v -0.06087443 -0.01249683 0.00138378 0.54117647 0.42352941 0.64313725
v -0.06245451 -0.01112311 -0.00046828 0.54117647 0.42352941 0.64313725
v -0.05939969 -0.01289070 0.00220613 0.54117647 0.42352941 0.64313725
v -0.06328217 -0.00982303 -0.00046828 0.54117647 0.42352941 0.64313725
v -0.06326711 -0.00981663 -0.00306760 0.54117647 0.42352941 0.64313725
v -0.06376371 -0.00838206 -0.00306760 0.54117647 0.42352941 0.64313725
v -0.06433555 -0.00577871 -0.00306760 0.54117647 0.42352941 0.64313725
v -0.06426031 -0.00577871 -0.00046828 0.54117647 0.42352941 0.64313725
v -0.06435059 -0.00317536 -0.00046828 0.54117647 0.42352941 0.64313725
v -0.06441079 0.00202815 -0.00046828 0.54117647 0.42352941 0.64313725
v -0.03019088 0.01381208 -0.00114045 0.54117647 0.42352941 0.64313725
v -0.02545066 0.01403303 -0.00046828 0.54117647 0.42352941 0.64313725
v -0.03089815 0.01384410 -0.00287810 0.54117647 0.42352941 0.64313725
v -0.01503721 0.01434043 -0.00046828 0.54117647 0.42352941 0.64313725
v -0.02284729 0.01411628 -0.00046828 0.54117647 0.42352941 0.64313725
v -0.03586410 0.01296991 0.00213819 0.54117647 0.42352941 0.64313725
v -0.03326074 0.01351748 -0.00046828 0.54117647 0.42352941 0.64313725
v -0.06025745 0.00842925 0.00320367 0.54117647 0.42352941 0.64313725
v -0.05670604 0.00892559 0.00419763 0.54117647 0.42352941 0.64313725
v -0.05425316 0.00923940 0.00494846 0.54117647 0.42352941 0.64313725
v -0.06200306 0.00792011 0.00225618 0.54117647 0.42352941 0.64313725
v -0.05149932 0.01087570 0.00247071 0.54117647 0.42352941 0.64313725
v -0.03586410 0.01237111 0.00474109 0.54117647 0.42352941 0.64313725
v -0.06352293 0.00654639 0.00213819 0.54117647 0.42352941 0.64313725
v -0.06331226 0.00609488 0.00357193 0.54117647 0.42352941 0.64313725
v -0.06412488 0.00202815 0.00213819 0.54117647 0.42352941 0.64313725
v -0.06398944 0.00463470 0.00213819 0.54117647 0.42352941 0.64313725
v -0.01503721 0.01395938 0.00182713 0.54117647 0.42352941 0.64313725
v 0.07608045 -0.00057521 0.00738689 0.54117647 0.42352941 0.64313725
v 0.07886439 -0.00071290 0.00647516 0.54117647 0.42352941 0.64313725
v 0.07984253 0.00006202 0.00597103 0.54117647 0.42352941 0.64313725
v 0.08920259 -0.00057521 0.00178423 0.54117647 0.42352941 0.64313725
v 0.06005397 0.00202815 0.01165235 0.54117647 0.42352941 0.64313725
v 0.05525355 0.00555372 0.01100878 0.54117647 0.42352941 0.64313725
v 0.05525355 0.00425364 0.01174531 0.54117647 0.42352941 0.64313725
v 0.05785692 0.00399427 0.01160945 0.54117647 0.42352941 0.64313725
v 0.05785692 0.00202815 0.01229592 0.54117647 0.42352941 0.64313725
v 0.00318632 0.01169865 0.00705438 0.54117647 0.42352941 0.64313725
v 0.00318632 0.01098137 0.00835583 0.54117647 0.42352941 0.64313725
v 0.00578968 0.00977416 0.00995046 0.54117647 0.42352941 0.64313725
v 0.00839305 0.00864700 0.01137704 0.54117647 0.42352941 0.64313725
v 0.05525355 0.00709075 0.00970733 0.54117647 0.42352941 0.64313725
v 0.01022894 0.00858936 0.01131269 0.54117647 0.42352941 0.64313725
v -0.02284729 0.01360073 0.00271741 0.54117647 0.42352941 0.64313725
v -0.02545066 0.01304356 0.00474109 0.54117647 0.42352941 0.64313725
v -0.02284729 0.01306597 0.00474109 0.54117647 0.42352941 0.64313725
v -0.01503721 0.01196443 0.00734399 0.54117647 0.42352941 0.64313725
v -0.02545066 0.01206370 0.00734399 0.54117647 0.42352941 0.64313725
v -0.01243385 0.01191000 0.00734399 0.54117647 0.42352941 0.64313725
v 0.08920259 -0.00422246 0.00060792 0.54117647 0.42352941 0.64313725
v 0.08920259 -0.00296722 0.00140166 0.54117647 0.42352941 0.64313725
v 0.08130222 -0.00821235 0.00412612 0.54117647 0.42352941 0.64313725
v 0.07877410 -0.00845251 0.00555271 0.54117647 0.42352941 0.64313725
v 0.07868381 -0.01058194 0.00424053 0.54117647 0.42352941 0.64313725
v 0.07608045 -0.01082851 0.00458377 0.54117647 0.42352941 0.64313725
v 0.06046028 -0.01140490 0.00756566 0.54117647 0.42352941 0.64313725
v 0.06188987 -0.01233672 0.00611762 0.54117647 0.42352941 0.64313725
v 0.05785692 -0.01321091 0.00474109 0.54117647 0.42352941 0.64313725
v 0.05785692 -0.01158102 0.00770153 0.54117647 0.42352941 0.64313725
v 0.00578968 -0.01259930 0.01160587 0.54117647 0.42352941 0.64313725
v 0.00318632 -0.01381612 0.00995046 0.54117647 0.42352941 0.64313725
v -0.00316408 -0.01490165 0.00866689 0.54117647 0.42352941 0.64313725
v -0.00218593 -0.01525068 0.00754063 0.54117647 0.42352941 0.64313725
v -0.02545066 -0.01640986 0.00734399 0.54117647 0.42352941 0.64313725
v -0.02024393 -0.01685496 0.00474109 0.54117647 0.42352941 0.64313725
v -0.02024393 -0.01735770 0.00269238 0.54117647 0.42352941 0.64313725
v -0.02805401 -0.01746017 0.00317506 0.54117647 0.42352941 0.64313725
v -0.03326074 -0.01747618 0.00325372 0.54117647 0.42352941 0.64313725
v -0.03326074 -0.01714956 0.00474109 0.54117647 0.42352941 0.64313725
v -0.03586410 -0.01713035 0.00474109 0.54117647 0.42352941 0.64313725
v -0.03848252 -0.01692541 0.00474109 0.54117647 0.42352941 0.64313725
v -0.03848252 -0.01739293 0.00272099 0.54117647 0.42352941 0.64313725
v -0.05860213 -0.01254166 0.00394020 0.54117647 0.42352941 0.64313725
v -0.05408763 -0.01449498 0.00209171 0.54117647 0.42352941 0.64313725
v -0.05410268 -0.01351512 0.00474109 0.54117647 0.42352941 0.64313725
v -0.05663080 -0.01279783 0.00478042 0.54117647 0.42352941 0.64313725
v -0.04108587 -0.01643548 0.00474109 0.54117647 0.42352941 0.64313725
v -0.06034774 -0.01215420 0.00312143 0.54117647 0.42352941 0.64313725
v -0.06194287 -0.01093098 0.00200233 0.54117647 0.42352941 0.64313725
v -0.06322198 -0.00970775 0.00088323 0.54117647 0.42352941 0.64313725
v -0.06373362 -0.00838206 -0.00046828 0.54117647 0.42352941 0.64313725
v -0.06391419 -0.00577871 0.00213819 0.54117647 0.42352941 0.64313725
v -0.06407972 -0.00317536 0.00213819 0.54117647 0.42352941 0.64313725
v -0.02897197 0.01372242 0.00059719 0.54117647 0.42352941 0.64313725
v -0.02808411 0.01387932 -0.00035029 0.54117647 0.42352941 0.64313725
v -0.03089815 0.01368079 -0.00035029 0.54117647 0.42352941 0.64313725
v -0.02545066 0.01381848 0.00121574 0.54117647 0.42352941 0.64313725
v -0.02724140 0.01377685 0.00099764 0.54117647 0.42352941 0.64313725
v -0.02284729 0.01386331 0.00141596 0.54117647 0.42352941 0.64313725
v -0.03326074 0.01259526 0.00474109 0.54117647 0.42352941 0.64313725
v -0.03326074 0.01318445 0.00213819 0.54117647 0.42352941 0.64313725
v -0.06191276 0.00662324 0.00417618 0.54117647 0.42352941 0.64313725
v -0.06058852 0.00591876 0.00602824 0.54117647 0.42352941 0.64313725
v -0.05884291 0.00636386 0.00652879 0.54117647 0.42352941 0.64313725
v -0.05655556 0.00674172 0.00737616 0.54117647 0.42352941 0.64313725
v -0.05521626 0.00848689 0.00595673 0.54117647 0.42352941 0.64313725
v -0.05348570 0.00871104 0.00630354 0.54117647 0.42352941 0.64313725
v -0.05149932 0.00992146 0.00474109 0.54117647 0.42352941 0.64313725
v -0.03848252 0.01137524 0.00655382 0.54117647 0.42352941 0.64313725
v -0.03848252 0.01201247 0.00474109 0.54117647 0.42352941 0.64313725
v -0.03586410 0.01156737 0.00697572 0.54117647 0.42352941 0.64313725
v -0.06346274 0.00463470 0.00395093 0.54117647 0.42352941 0.64313725
v -0.06305644 0.00202815 0.00576723 0.54117647 0.42352941 0.64313725
v -0.06128074 0.00418320 0.00667896 0.54117647 0.42352941 0.64313725
v -0.06349284 -0.00078014 0.00496992 0.54117647 0.42352941 0.64313725
v -0.06356808 0.00202815 0.00446578 0.54117647 0.42352941 0.64313725
v 0.07608045 -0.00317536 0.00746197 0.54117647 0.42352941 0.64313725
v 0.06071610 -0.00031583 0.01183112 0.54117647 0.42352941 0.64313725
v 0.05785692 -0.00057521 0.01267134 0.54117647 0.42352941 0.64313725
v 0.07893963 -0.00324580 0.00651092 0.54117647 0.42352941 0.64313725
v 0.08002311 -0.00167355 0.00606399 0.54117647 0.42352941 0.64313725
v 0.08002311 -0.00242605 0.00606399 0.54117647 0.42352941 0.64313725
v 0.07996292 -0.00416162 0.00603181 0.54117647 0.42352941 0.64313725
v 0.07975224 -0.00577871 0.00592097 0.54117647 0.42352941 0.64313725
v 0.00839305 0.00723805 0.01254263 0.54117647 0.42352941 0.64313725
v 0.00578968 0.00582270 0.01378687 0.54117647 0.42352941 0.64313725
v 0.00839305 0.00569141 0.01371893 0.54117647 0.42352941 0.64313725
v 0.05525355 0.00202815 0.01252117 0.54117647 0.42352941 0.64313725
v 0.00578968 0.00451942 0.01448765 0.54117647 0.42352941 0.64313725
v 0.00839305 0.00438813 0.01439826 0.54117647 0.42352941 0.64313725
v 0.00578968 0.00202815 0.01553167 0.54117647 0.42352941 0.64313725
v -0.00462376 0.01109665 0.00856677 0.54117647 0.42352941 0.64313725
v 0.00318632 0.00989264 0.00995046 0.54117647 0.42352941 0.64313725
v 0.00578968 0.00871425 0.01144498 0.54117647 0.42352941 0.64313725
v 0.00578968 0.00723805 0.01267849 0.54117647 0.42352941 0.64313725
v -0.02545066 0.01357192 0.00251719 0.54117647 0.42352941 0.64313725
v -0.02805401 0.01293469 0.00474109 0.54117647 0.42352941 0.64313725
v -0.02805401 0.01198365 0.00734399 0.54117647 0.42352941 0.64313725
v -0.01503721 0.01121513 0.00875627 0.54117647 0.42352941 0.64313725
v -0.01243385 0.01119271 0.00872409 0.54117647 0.42352941 0.64313725
v -0.02545066 0.01128878 0.00887068 0.54117647 0.42352941 0.64313725
v -0.02805401 0.01125996 0.00883493 0.54117647 0.42352941 0.64313725
v 0.07796149 -0.00762956 0.00626779 0.54117647 0.42352941 0.64313725
v 0.07608045 -0.00938113 0.00588522 0.54117647 0.42352941 0.64313725
v 0.06046028 -0.01010482 0.00903158 0.54117647 0.42352941 0.64313725
v 0.05785692 -0.01027774 0.00920320 0.54117647 0.42352941 0.64313725
v 0.00578968 -0.01110389 0.01290732 0.54117647 0.42352941 0.64313725
v 0.00318632 -0.01268576 0.01168810 0.54117647 0.42352941 0.64313725
v -0.02545066 -0.01480238 0.01110889 0.54117647 0.42352941 0.64313725
v -0.02545066 -0.01549085 0.00980744 0.54117647 0.42352941 0.64313725
v -0.02805401 -0.01647711 0.00734399 0.54117647 0.42352941 0.64313725
v -0.02805401 -0.01711114 0.00474109 0.54117647 0.42352941 0.64313725
v -0.02545066 -0.01703108 0.00474109 0.54117647 0.42352941 0.64313725
v -0.03065738 -0.01713355 0.00474109 0.54117647 0.42352941 0.64313725
v -0.03065738 -0.01646110 0.00734399 0.54117647 0.42352941 0.64313725
v -0.03586410 -0.01632020 0.00734399 0.54117647 0.42352941 0.64313725
v -0.03326074 -0.01641947 0.00734399 0.54117647 0.42352941 0.64313725
v -0.03848252 -0.01601600 0.00734399 0.54117647 0.42352941 0.64313725
v -0.05744341 -0.01207094 0.00567427 0.54117647 0.42352941 0.64313725
v -0.05410268 -0.01261531 0.00658600 0.54117647 0.42352941 0.64313725
v -0.05569780 -0.01239116 0.00622488 0.54117647 0.42352941 0.64313725
v -0.04006259 -0.01499771 0.00883851 0.54117647 0.42352941 0.64313725
v -0.06063366 -0.00971416 0.00606757 0.54117647 0.42352941 0.64313725
v -0.06113025 -0.01025532 0.00474109 0.54117647 0.42352941 0.64313725
v -0.05939969 -0.01157141 0.00478042 0.54117647 0.42352941 0.64313725
v -0.06301129 -0.00910575 0.00262087 0.54117647 0.42352941 0.64313725
v -0.06343265 -0.00829560 0.00190579 0.54117647 0.42352941 0.64313725
v -0.06329722 -0.00737018 0.00365417 0.54117647 0.42352941 0.64313725
v -0.06343265 -0.00577871 0.00408322 0.54117647 0.42352941 0.64313725
v -0.06347780 -0.00292879 0.00486623 0.54117647 0.42352941 0.64313725
v -0.03065738 0.01335417 0.00213819 0.54117647 0.42352941 0.64313725
v -0.02808411 0.01354630 0.00197373 0.54117647 0.42352941 0.64313725
v -0.03301996 0.01158017 0.00752276 0.54117647 0.42352941 0.64313725
v -0.03065738 0.01181713 0.00734399 0.54117647 0.42352941 0.64313725
v -0.05849679 0.00373169 0.00893147 0.54117647 0.42352941 0.64313725
v -0.05733807 0.00546726 0.00826286 0.54117647 0.42352941 0.64313725
v -0.05559246 0.00603404 0.00874555 0.54117647 0.42352941 0.64313725
v -0.05425316 0.00776321 0.00724030 0.54117647 0.42352941 0.64313725
v -0.03944561 0.00844527 0.01115179 0.54117647 0.42352941 0.64313725
v -0.03852765 0.00935788 0.01015068 0.54117647 0.42352941 0.64313725
v -0.03848252 0.01077003 0.00785527 0.54117647 0.42352941 0.64313725
v -0.03586410 0.01096856 0.00827717 0.54117647 0.42352941 0.64313725
v -0.03371219 0.01107423 0.00850957 0.54117647 0.42352941 0.64313725
v -0.06319187 -0.00004685 0.00599248 0.54117647 0.42352941 0.64313725
v -0.06063366 0.00082093 0.00867404 0.54117647 0.42352941 0.64313725
v -0.06153656 0.00182641 0.00746555 0.54117647 0.42352941 0.64313725
v -0.06022735 0.00255650 0.00841661 0.54117647 0.42352941 0.64313725
v -0.06322198 -0.00189449 0.00604611 0.54117647 0.42352941 0.64313725
v -0.06322198 -0.00178242 0.00604611 0.54117647 0.42352941 0.64313725
v 0.06046028 -0.00317536 0.01194911 0.54117647 0.42352941 0.64313725
v 0.07608045 -0.00577871 0.00717594 0.54117647 0.42352941 0.64313725
v 0.07844303 -0.00577871 0.00648589 0.54117647 0.42352941 0.64313725
v 0.00578968 -0.00317536 0.01610015 0.54117647 0.42352941 0.64313725
v 0.05785692 -0.00317536 0.01254263 0.54117647 0.42352941 0.64313725
v 0.00578968 -0.00057521 0.01608943 0.54117647 0.42352941 0.64313725
v 0.00318632 0.00587714 0.01381905 0.54117647 0.42352941 0.64313725
v 0.00318632 0.00457386 0.01451625 0.54117647 0.42352941 0.64313725
v 0.00318632 0.00202815 0.01559960 0.54117647 0.42352941 0.64313725
v 0.00318632 0.00875267 0.01147716 0.54117647 0.42352941 0.64313725
v 0.00318632 0.00723805 0.01274285 0.54117647 0.42352941 0.64313725
v -0.03198163 0.01114468 0.00864901 0.54117647 0.42352941 0.64313725
v -0.03065738 0.01118631 0.00872409 0.54117647 0.42352941 0.64313725
v -0.02284729 0.01031532 0.01014710 0.54117647 0.42352941 0.64313725
v -0.02805401 0.01035375 0.01013995 0.54117647 0.42352941 0.64313725
v -0.02545066 0.01033454 0.01017213 0.54117647 0.42352941 0.64313725
v -0.03065738 0.01031532 0.01002554 0.54117647 0.42352941 0.64313725
v 0.06182967 -0.00461953 0.01129123 0.54117647 0.42352941 0.64313725
v 0.06023455 -0.00560579 0.01147358 0.54117647 0.42352941 0.64313725
v 0.06095687 -0.00635830 0.01106241 0.54117647 0.42352941 0.64313725
v 0.05921127 -0.00710440 0.01126263 0.54117647 0.42352941 0.64313725
v 0.06023455 -0.00813870 0.01040453 0.54117647 0.42352941 0.64313725
v 0.05785692 -0.00851335 0.01050464 0.54117647 0.42352941 0.64313725
v 0.00730956 -0.00972056 0.01387983 0.54117647 0.42352941 0.64313725
v 0.00578968 -0.00980062 0.01393346 0.54117647 0.42352941 0.64313725
v 0.00318632 -0.01116794 0.01298955 0.54117647 0.42352941 0.64313725
v -0.02545066 -0.01349911 0.01235313 0.54117647 0.42352941 0.64313725
v -0.02805401 -0.01485682 0.01119470 0.54117647 0.42352941 0.64313725
v -0.02805401 -0.01552287 0.00989325 0.54117647 0.42352941 0.64313725
v -0.03065738 -0.01549725 0.00987537 0.54117647 0.42352941 0.64313725
v -0.03586410 -0.01536596 0.00961079 0.54117647 0.42352941 0.64313725
v -0.03326074 -0.01544281 0.00979314 0.54117647 0.42352941 0.64313725
v -0.03848252 -0.01518024 0.00920320 0.54117647 0.42352941 0.64313725
v -0.05672109 -0.01106227 0.00735471 0.54117647 0.42352941 0.64313725
v -0.05930940 -0.01019448 0.00658958 0.54117647 0.42352941 0.64313725
v -0.05410268 -0.01175073 0.00789102 0.54117647 0.42352941 0.64313725
v -0.03848252 -0.01437329 0.01050464 0.54117647 0.42352941 0.64313725
v -0.06103997 -0.00838206 0.00649661 0.54117647 0.42352941 0.64313725
v -0.06239432 -0.00829560 0.00460880 0.54117647 0.42352941 0.64313725
v -0.05772933 -0.00942596 0.00848454 0.54117647 0.42352941 0.64313725
v -0.05933950 -0.00848773 0.00786957 0.54117647 0.42352941 0.64313725
v -0.06290596 -0.00577871 0.00538824 0.54117647 0.42352941 0.64313725
v -0.06313168 -0.00363006 0.00582086 0.54117647 0.42352941 0.64313725
v -0.05933950 0.00182641 0.00919962 0.54117647 0.42352941 0.64313725
v -0.05661575 0.00200893 0.01065839 0.54117647 0.42352941 0.64313725
v -0.05479490 0.00286391 0.01110531 0.54117647 0.42352941 0.64313725
v -0.05655556 0.00461228 0.00931046 0.54117647 0.42352941 0.64313725
v -0.05399734 0.00443937 0.01040811 0.54117647 0.42352941 0.64313725
v -0.05410268 0.00630302 0.00900655 0.54117647 0.42352941 0.64313725
v -0.03852765 0.00743979 0.01217794 0.54117647 0.42352941 0.64313725
v -0.03770000 0.00866621 0.01138419 0.54117647 0.42352941 0.64313725
v -0.03586410 0.00990865 0.00995046 0.54117647 0.42352941 0.64313725
v -0.06227392 -0.00078014 0.00708656 0.54117647 0.42352941 0.64313725
v -0.06073899 -0.00057521 0.00875270 0.54117647 0.42352941 0.64313725
v -0.05930940 -0.00057521 0.00972163 0.54117647 0.42352941 0.64313725
v -0.05723274 -0.00057521 0.01091582 0.54117647 0.42352941 0.64313725
v -0.06221373 -0.00292879 0.00708656 0.54117647 0.42352941 0.64313725
v -0.06072395 -0.00317536 0.00873839 0.54117647 0.42352941 0.64313725
v 0.00318632 -0.00057521 0.01615021 0.54117647 0.42352941 0.64313725
v 0.00318632 -0.00317536 0.01613591 0.54117647 0.42352941 0.64313725
v -0.03193649 -0.00448184 0.01646127 0.54117647 0.42352941 0.64313725
v 0.00578968 -0.00577871 0.01559245 0.54117647 0.42352941 0.64313725
v 0.00839305 -0.00577871 0.01543155 0.54117647 0.42352941 0.64313725
v 0.05785692 -0.00577871 0.01188475 0.54117647 0.42352941 0.64313725
v -0.02545066 0.00751664 0.01304318 0.54117647 0.42352941 0.64313725
v -0.02545066 0.00621336 0.01404787 0.54117647 0.42352941 0.64313725
v -0.02805401 0.00463470 0.01478798 0.54117647 0.42352941 0.64313725
v -0.03065738 0.00202815 0.01567468 0.54117647 0.42352941 0.64313725
v -0.02284729 0.00901525 0.01171671 0.54117647 0.42352941 0.64313725
v -0.03301996 0.01035055 0.00968945 0.54117647 0.42352941 0.64313725
v -0.02805401 0.00905367 0.01176319 0.54117647 0.42352941 0.64313725
v -0.03065738 0.00901525 0.01172743 0.54117647 0.42352941 0.64313725
v -0.03586410 0.00878469 0.01150576 0.54117647 0.42352941 0.64313725
v -0.03326074 0.00890317 0.01162375 0.54117647 0.42352941 0.64313725
v 0.05785692 -0.00721327 0.01132699 0.54117647 0.42352941 0.64313725
v 0.00825761 -0.00856458 0.01435893 0.54117647 0.42352941 0.64313725
v 0.00578968 -0.00838206 0.01461636 0.54117647 0.42352941 0.64313725
v 0.00318632 -0.00986786 0.01397279 0.54117647 0.42352941 0.64313725
v -0.02805401 -0.01204533 0.01371178 0.54117647 0.42352941 0.64313725
v -0.02805401 -0.01355674 0.01241034 0.54117647 0.42352941 0.64313725
v -0.03065738 -0.01354714 0.01240676 0.54117647 0.42352941 0.64313725
v -0.03065738 -0.01485042 0.01117682 0.54117647 0.42352941 0.64313725
v -0.03326074 -0.01480238 0.01109459 0.54117647 0.42352941 0.64313725
v -0.03586410 -0.01468711 0.01091582 0.54117647 0.42352941 0.64313725
v -0.05599877 -0.01005679 0.00896007 0.54117647 0.42352941 0.64313725
v -0.05410268 -0.01045065 0.00933549 0.54117647 0.42352941 0.64313725
v -0.03848252 -0.01307002 0.01196341 0.54117647 0.42352941 0.64313725
v -0.06024240 -0.00623021 0.00835940 0.54117647 0.42352941 0.64313725
v -0.06140112 -0.00552894 0.00743337 0.54117647 0.42352941 0.64313725
v -0.05679633 -0.00848773 0.00950711 0.54117647 0.42352941 0.64313725
v -0.05849679 -0.00769040 0.00897795 0.54117647 0.42352941 0.64313725
v -0.06061861 -0.00449144 0.00865258 0.54117647 0.42352941 0.64313725
v -0.05568276 0.00112834 0.01136274 0.54117647 0.42352941 0.64313725
v -0.05399734 0.00200893 0.01152721 0.54117647 0.42352941 0.64313725
v -0.03848252 0.00202815 0.01510619 0.54117647 0.42352941 0.64313725
v -0.05306434 0.00344030 0.01131269 0.54117647 0.42352941 0.64313725
v -0.03848252 0.00550889 0.01361525 0.54117647 0.42352941 0.64313725
v -0.03658642 0.00581630 0.01378687 0.54117647 0.42352941 0.64313725
v -0.03578886 0.00700430 0.01297883 0.54117647 0.42352941 0.64313725
v -0.05930940 -0.00317536 0.00967873 0.54117647 0.42352941 0.64313725
v -0.05724778 -0.00317536 0.01089079 0.54117647 0.42352941 0.64313725
v -0.05595363 -0.00317536 0.01149146 0.54117647 0.42352941 0.64313725
v -0.05593858 -0.00057521 0.01147000 0.54117647 0.42352941 0.64313725
v -0.03076271 -0.00082177 0.01627535 0.54117647 0.42352941 0.64313725
v -0.03169571 -0.00184966 0.01646127 0.54117647 0.42352941 0.64313725
v -0.03172581 -0.00317536 0.01646127 0.54117647 0.42352941 0.64313725
v -0.03205687 -0.00448184 0.01646127 0.54117647 0.42352941 0.64313725
v -0.03306512 -0.00552254 0.01623602 0.54117647 0.42352941 0.64313725
v -0.03089815 -0.00552254 0.01620742 0.54117647 0.42352941 0.64313725
v -0.03065738 -0.00838206 0.01543155 0.54117647 0.42352941 0.64313725
v -0.02805401 0.00751984 0.01306464 0.54117647 0.42352941 0.64313725
v -0.02805401 0.00621656 0.01404787 0.54117647 0.42352941 0.64313725
v -0.03065738 0.00463470 0.01475223 0.54117647 0.42352941 0.64313725
v -0.03326074 0.00202815 0.01562463 0.54117647 0.42352941 0.64313725
v -0.03314035 -0.00082177 0.01626105 0.54117647 0.42352941 0.64313725
v -0.03065738 0.00746861 0.01302888 0.54117647 0.42352941 0.64313725
v -0.03326074 0.00736934 0.01292519 0.54117647 0.42352941 0.64313725
v -0.02805401 -0.01074205 0.01439826 0.54117647 0.42352941 0.64313725
v -0.03065738 -0.01074525 0.01442329 0.54117647 0.42352941 0.64313725
v -0.03065738 -0.01204853 0.01370821 0.54117647 0.42352941 0.64313725
v -0.03326074 -0.01350231 0.01236743 0.54117647 0.42352941 0.64313725
v -0.03586410 -0.01338703 0.01226017 0.54117647 0.42352941 0.64313725
v -0.05420802 -0.00833723 0.01070844 0.54117647 0.42352941 0.64313725
v -0.03872328 -0.01101744 0.01337927 0.54117647 0.42352941 0.64313725
v -0.03586410 -0.01183719 0.01356162 0.54117647 0.42352941 0.64313725
v -0.05933950 -0.00552894 0.00919605 0.54117647 0.42352941 0.64313725
v -0.05514101 -0.00677778 0.01116967 0.54117647 0.42352941 0.64313725
v -0.05661575 -0.00585876 0.01070487 0.54117647 0.42352941 0.64313725
v -0.05410268 -0.00057521 0.01194196 0.54117647 0.42352941 0.64313725
v -0.03848252 -0.00057521 0.01564608 0.54117647 0.42352941 0.64313725
v -0.03586410 -0.00057521 0.01607513 0.54117647 0.42352941 0.64313725
v -0.03586410 0.00202815 0.01547088 0.54117647 0.42352941 0.64313725
v -0.03848252 0.00420881 0.01429100 0.54117647 0.42352941 0.64313725
v -0.04045384 0.00375091 0.01406575 0.54117647 0.42352941 0.64313725
v -0.03578886 0.00482363 0.01436966 0.54117647 0.42352941 0.64313725
v -0.03485586 0.00598281 0.01388698 0.54117647 0.42352941 0.64313725
v -0.05569780 -0.00504221 0.01139135 0.54117647 0.42352941 0.64313725
v -0.05410268 -0.00317536 0.01204564 0.54117647 0.42352941 0.64313725
v -0.03219231 -0.00184966 0.01646127 0.54117647 0.42352941 0.64313725
v -0.03220735 -0.00317536 0.01646127 0.54117647 0.42352941 0.64313725
v -0.03351657 -0.00317536 0.01644339 0.54117647 0.42352941 0.64313725
v -0.03586410 -0.00317536 0.01628965 0.54117647 0.42352941 0.64313725
v -0.03586410 -0.00577871 0.01601434 0.54117647 0.42352941 0.64313725
v -0.03326074 -0.00838206 0.01545301 0.54117647 0.42352941 0.64313725
v -0.03065738 0.00616533 0.01401212 0.54117647 0.42352941 0.64313725
v -0.03326074 0.00463470 0.01465212 0.54117647 0.42352941 0.64313725
v -0.03326074 0.00606606 0.01394776 0.54117647 0.42352941 0.64313725
v -0.03326074 -0.01068761 0.01442329 0.54117647 0.42352941 0.64313725
v -0.03326074 -0.01199089 0.01366888 0.54117647 0.42352941 0.64313725
v -0.05339541 -0.00743743 0.01143425 0.54117647 0.42352941 0.64313725
v -0.03801601 -0.01016886 0.01413726 0.54117647 0.42352941 0.64313725
v -0.03586410 -0.01053391 0.01434821 0.54117647 0.42352941 0.64313725
v -0.05420802 -0.00585876 0.01168453 0.54117647 0.42352941 0.64313725
v -0.03848252 -0.00317536 0.01577122 0.54117647 0.42352941 0.64313725
v -0.03848252 -0.00577871 0.01546016 0.54117647 0.42352941 0.64313725
v -0.03586410 -0.00838206 0.01529569 0.54117647 0.42352941 0.64313725
v -0.03872328 -0.00862543 0.01455916 0.54117647 0.42352941 0.64313725
f 85 86 87
f 85 87 88
f 85 88 89
f 85 89 90
f 85 90 91
f 85 91 92
f 85 92 86
f 86 93 94
f 86 94 95
f 86 95 96
f 86 96 97
f 86 97 87
f 86 92 93
f 87 97 88
f 88 98 89
f 88 97 99
f 88 99 98
f 89 98 90
f 90 98 100
f 90 100 101
f 90 101 91
f 91 101 102
f 91 102 103
f 91 103 104
f 91 104 92
f 92 104 105
f 92 105 106
f 92 106 107
f 92 107 93
f 93 107 106
f 93 106 108
f 93 108 94
f 94 109 110
f 94 110 111
f 94 111 95
f 94 108 112
f 94 112 109
f 95 111 113
f 95 113 114
f 95 114 97
f 95 97 96
f 97 114 99
f 98 115 116
f 98 116 100
f 98 99 117
f 98 117 118
f 98 118 115
f 99 114 113
f 99 113 119
f 99 119 120
f 99 120 121
f 99 121 117
f 100 122 101
f 100 116 122
f 101 122 102
f 102 123 124
f 102 124 125
f 102 125 126
f 102 126 127
f 102 127 103
f 102 122 128
f 102 128 123
f 103 127 104
f 104 127 129
f 104 129 105
f 105 129 130
f 105 130 131
f 105 131 106
f 106 132 133
f 106 133 108
f 106 131 132
f 108 133 134
f 108 134 112
f 109 135 136
f 109 136 137
f 109 137 110
f 109 112 138
f 109 138 135
f 110 137 139
f 110 139 140
f 110 140 111
f 111 140 141
f 111 141 113
f 112 134 138
f 113 141 119
f 115 142 116
f 115 118 143
f 115 143 142
f 116 142 144
f 116 144 128
f 116 128 122
f 117 145 146
f 117 146 143
f 117 143 118
f 117 121 145
f 119 147 120
f 119 141 148
f 119 148 147
f 120 149 150
f 120 150 145
f 120 145 121
f 120 147 149
f 123 151 124
f 123 128 151
f 124 152 153
f 124 153 154
f 124 154 125
f 124 151 152
f 125 154 126
f 126 154 155
f 126 155 156
f 126 156 157
f 126 157 127
f 127 157 129
f 128 144 151
f 129 157 158
f 129 158 130
f 130 158 159
f 130 159 132
f 130 132 131
f 132 160 161
f 132 161 162
f 132 162 163
f 132 163 164
f 132 164 133
f 132 159 160
f 133 164 134
f 134 164 138
f 135 165 136
f 135 138 166
f 135 166 167
f 135 167 165
f 136 165 168
f 136 168 169
f 136 169 137
f 137 169 170
f 137 170 171
f 137 171 139
f 138 164 172
f 138 172 166
f 139 173 140
f 139 171 174
f 139 174 175
f 139 175 176
f 139 176 173
f 140 173 177
f 140 177 141
f 141 177 192
f 141 192 148
f 142 178 179
f 142 179 144
f 142 143 180
f 142 180 178
f 143 146 181
f 143 181 180
f 144 179 182
f 144 182 183
f 144 183 151
f 145 184 185
f 145 185 186
f 145 186 146
f 145 150 184
f 146 186 187
f 146 187 188
f 146 188 181
f 147 148 189
f 147 189 190
f 147 190 191
f 147 191 149
f 148 192 193
f 148 193 189
f 149 191 194
f 149 194 150
f 150 194 184
f 151 183 195
f 151 195 196
f 151 196 152
f 152 196 197
f 152 197 153
f 153 197 154
f 154 197 198
f 154 198 199
f 154 199 155
f 155 199 156
f 156 200 157
f 156 199 201
f 156 201 202
f 156 202 200
f 157 200 158
f 158 200 203
f 158 203 159
f 159 203 204
f 159 204 161
f 159 161 160
f 161 205 162
f 161 204 206
f 161 206 205
f 162 205 207
f 162 207 208
f 162 208 163
f 163 208 209
f 163 209 164
f 164 209 172
f 165 210 168
f 165 167 211
f 165 211 212
f 165 212 213
f 165 213 210
f 166 172 214
f 166 214 211
f 166 211 167
f 168 210 215
f 168 215 216
f 168 216 169
f 169 216 170
f 170 217 171
f 170 216 217
f 171 217 174
f 172 218 219
f 172 219 214
f 172 209 218
f 173 176 177
f 174 217 175
f 175 220 221
f 175 221 176
f 175 217 220
f 176 221 222
f 176 222 223
f 176 223 177
f 177 223 192
f 178 182 179
f 178 180 224
f 178 224 225
f 178 225 226
f 178 226 182
f 180 181 227
f 180 227 224
f 181 188 228
f 181 228 227
f 182 226 229
f 182 229 230
f 182 230 231
f 182 231 183
f 183 231 195
f 184 232 233
f 184 233 185
f 184 194 232
f 185 234 228
f 185 228 187
f 185 187 186
f 185 233 234
f 187 228 188
f 189 193 235
f 189 235 190
f 190 236 191
f 190 235 237
f 190 237 236
f 191 236 238
f 191 238 194
f 192 223 239
f 192 239 193
f 193 239 240
f 193 240 241
f 193 241 235
f 194 238 242
f 194 242 232
f 195 243 196
f 195 231 243
f 196 243 244
f 196 244 245
f 196 245 197
f 197 245 246
f 197 246 247
f 197 247 248
f 197 248 249
f 197 249 199
f 197 199 198
f 199 249 202
f 199 202 201
f 200 250 203
f 200 202 251
f 200 251 250
f 202 249 252
f 202 252 251
f 203 253 204
f 203 250 253
f 204 253 254
f 204 254 206
f 205 255 256
f 205 256 208
f 205 208 207
f 205 206 255
f 206 254 257
f 206 257 255
f 208 256 258
f 208 258 259
f 208 259 219
f 208 219 209
f 209 219 218
f 210 260 215
f 210 213 260
f 211 214 212
f 212 261 262
f 212 262 213
f 212 214 263
f 212 263 261
f 213 262 264
f 213 264 265
f 213 265 260
f 214 219 263
f 215 260 266
f 215 266 216
f 216 266 267
f 216 267 217
f 217 267 268
f 217 268 269
f 217 269 220
f 219 259 270
f 219 270 261
f 219 261 263
f 220 269 271
f 220 271 272
f 220 272 221
f 221 272 273
f 221 273 274
f 221 274 222
f 222 274 275
f 222 275 240
f 222 240 239
f 222 239 223
f 224 227 225
f 225 276 277
f 225 277 278
f 225 278 226
f 225 227 276
f 226 278 279
f 226 279 280
f 226 280 281
f 226 281 282
f 226 282 229
f 227 228 283
f 227 283 276
f 228 234 233
f 228 233 283
f 229 282 284
f 229 284 230
f 230 285 231
f 230 284 285
f 231 285 286
f 231 286 243
f 232 242 287
f 232 287 288
f 232 288 289
f 232 289 290
f 232 290 291
f 232 291 292
f 232 292 293
f 232 293 283
f 232 283 233
f 235 241 294
f 235 294 237
f 236 237 295
f 236 295 287
f 236 287 238
f 237 294 295
f 238 287 296
f 238 296 242
f 240 275 297
f 240 297 241
f 241 297 294
f 242 296 287
f 243 286 285
f 243 285 298
f 243 298 299
f 243 299 244
f 244 299 245
f 245 300 247
f 245 247 246
f 245 299 298
f 245 298 300
f 247 300 301
f 247 301 360
f 247 360 418
f 247 418 471
f 247 471 531
f 247 531 596
f 247 596 659
f 247 659 678
f 247 678 677
f 247 677 607
f 247 607 540
f 247 540 472
f 247 472 420
f 247 420 363
f 247 363 303
f 247 303 252
f 247 252 249
f 247 249 248
f 250 302 253
f 250 251 302
f 251 252 303
f 251 303 304
f 251 304 305
f 251 305 302
f 253 302 306
f 253 306 307
f 253 307 254
f 254 307 308
f 254 308 309
f 254 309 310
f 254 310 257
f 255 311 312
f 255 312 256
f 255 257 313
f 255 313 311
f 256 312 259
f 256 259 258
f 257 310 313
f 259 314 270
f 259 312 314
f 260 265 315
f 260 315 316
f 260 316 266
f 261 270 317
f 261 317 318
f 261 318 319
f 261 319 264
f 261 264 262
f 264 319 320
f 264 320 265
f 265 320 321
f 265 321 315
f 266 316 322
f 266 322 268
f 266 268 267
f 268 322 323
f 268 323 324
f 268 324 269
f 269 324 271
f 270 314 325
f 270 325 326
f 270 326 317
f 271 324 327
f 271 327 328
f 271 328 272
f 272 328 329
f 272 329 273
f 273 329 330
f 273 330 331
f 273 331 274
f 274 331 332
f 274 332 275
f 275 332 333
f 275 333 297
f 276 283 277
f 277 283 293
f 277 293 334
f 277 334 335
f 277 335 278
f 278 335 336
f 278 336 279
f 279 336 337
f 279 337 280
f 280 337 281
f 281 284 282
f 281 337 285
f 281 285 284
f 285 338 339
f 285 339 298
f 285 337 338
f 287 295 288
f 288 295 340
f 288 340 341
f 288 341 289
f 289 341 342
f 289 342 343
f 289 343 290
f 290 343 344
f 290 344 291
f 291 344 345
f 291 345 346
f 291 346 292
f 292 346 293
f 293 346 334
f 294 297 347
f 294 347 348
f 294 348 349
f 294 349 350
f 294 350 295
f 295 351 340
f 295 350 351
f 297 333 347
f 298 339 352
f 298 352 300
f 300 353 301
f 300 352 353
f 301 354 355
f 301 355 356
f 301 356 357
f 301 357 358
f 301 358 359
f 301 359 360
f 301 353 352
f 301 352 361
f 301 361 362
f 301 362 354
f 302 305 306
f 303 363 304
f 304 363 305
f 305 308 306
f 305 363 364
f 305 364 308
f 306 308 307
f 308 364 363
f 308 363 365
f 308 365 366
f 308 366 367
f 308 367 309
f 309 368 310
f 309 367 368
f 310 369 313
f 310 368 369
f 311 370 312
f 311 313 369
f 311 369 370
f 312 370 314
f 314 370 325
f 315 321 371
f 315 371 322
f 315 322 316
f 317 326 372
f 317 372 318
f 318 373 374
f 318 374 375
f 318 375 319
f 318 372 373
f 319 375 320
f 320 375 376
f 320 376 321
f 321 376 377
f 321 377 378
f 321 378 371
f 322 378 379
f 322 379 323
f 322 371 378
f 323 379 324
f 324 379 380
f 324 380 381
f 324 381 327
f 325 382 383
f 325 383 326
f 325 370 384
f 325 384 382
f 326 383 372
f 327 381 328
f 328 381 385
f 328 385 386
f 328 386 329
f 329 386 387
f 329 387 330
f 330 387 388
f 330 388 331
f 331 388 389
f 331 389 390
f 331 390 332
f 332 390 391
f 332 391 333
f 333 391 392
f 333 392 348
f 333 348 347
f 334 346 393
f 334 393 394
f 334 394 335
f 335 394 395
f 335 395 396
f 335 396 397
f 335 397 336
f 336 397 337
f 337 397 338
f 338 398 399
f 338 399 339
f 338 397 398
f 339 399 352
f 340 400 341
f 340 351 400
f 341 400 342
f 342 401 402
f 342 402 343
f 342 400 403
f 342 403 404
f 342 404 401
f 343 402 405
f 343 405 344
f 344 405 406
f 344 406 345
f 345 406 407
f 345 407 346
f 346 407 406
f 346 406 408
f 346 408 393
f 348 392 409
f 348 409 410
f 348 410 411
f 348 411 412
f 348 412 349
f 349 412 350
f 350 412 413
f 350 413 414
f 350 414 403
f 350 403 400
f 350 400 351
f 352 399 361
f 354 357 355
f 354 362 415
f 354 415 357
f 355 357 356
f 357 416 358
f 357 415 417
f 357 417 416
f 358 416 359
f 359 416 360
f 360 416 418
f 361 399 362
f 362 399 419
f 362 419 415
f 363 420 421
f 363 421 422
f 363 422 423
f 363 423 366
f 363 366 365
f 366 423 422
f 366 422 367
f 367 422 424
f 367 424 425
f 367 425 368
f 368 425 369
f 369 425 426
f 369 426 384
f 369 384 370
f 372 383 427
f 372 427 428
f 372 428 429
f 372 429 373
f 373 429 374
f 374 429 375
f 375 430 431
f 375 431 376
f 375 429 430
f 376 432 377
f 376 431 432
f 377 432 433
f 377 433 378
f 378 433 434
f 378 434 379
f 379 434 435
f 379 435 436
f 379 436 380
f 380 436 381
f 381 436 435
f 381 435 437
f 381 437 438
f 381 438 385
f 382 439 427
f 382 427 383
f 382 384 426
f 382 426 439
f 385 438 440
f 385 440 386
f 386 440 441
f 386 441 387
f 387 441 442
f 387 442 388
f 388 442 443
f 388 443 389
f 389 391 390
f 389 443 444
f 389 444 391
f 391 444 445
f 391 445 410
f 391 410 409
f 391 409 392
f 393 408 446
f 393 446 447
f 393 447 394
f 394 447 448
f 394 448 395
f 395 448 449
f 395 449 396
f 396 449 397
f 397 449 450
f 397 450 398
f 398 451 419
f 398 419 399
f 398 450 451
f 401 404 402
f 402 452 405
f 402 404 453
f 402 453 454
f 402 454 452
f 403 414 404
f 404 414 455
f 404 455 456
f 404 456 457
f 404 457 454
f 404 454 453
f 405 458 459
f 405 459 460
f 405 460 406
f 405 452 458
f 406 461 446
f 406 446 408
f 406 460 459
f 406 459 461
f 410 445 462
f 410 462 463
f 410 463 464
f 410 464 411
f 411 464 413
f 411 413 412
f 413 455 414
f 413 464 465
f 413 465 455
f 415 419 466
f 415 466 417
f 416 467 418
f 416 417 468
f 416 468 467
f 417 466 469
f 417 469 470
f 417 470 468
f 418 467 471
f 419 451 466
f 420 472 473
f 420 473 421
f 421 473 474
f 421 474 422
f 422 475 476
f 422 476 424
f 422 474 475
f 424 476 477
f 424 477 478
f 424 478 479
f 424 479 425
f 425 479 426
f 426 479 480
f 426 480 439
f 427 439 428
f 428 439 481
f 428 481 482
f 428 482 483
f 428 483 484
f 428 484 485
f 428 485 486
f 428 486 487
f 428 487 488
f 428 488 430
f 428 430 429
f 430 488 431
f 431 488 489
f 431 489 432
f 432 489 490
f 432 490 491
f 432 491 492
f 432 492 433
f 433 492 493
f 433 493 494
f 433 494 495
f 433 495 434
f 434 495 435
f 435 495 496
f 435 496 497
f 435 497 498
f 435 498 437
f 437 498 438
f 438 498 499
f 438 499 440
f 439 482 481
f 439 480 500
f 439 500 482
f 440 499 501
f 440 501 441
f 441 501 502
f 441 502 442
f 442 502 503
f 442 503 443
f 443 503 444
f 444 504 462
f 444 462 445
f 444 503 504
f 446 461 505
f 446 505 506
f 446 506 507
f 446 507 508
f 446 508 447
f 447 508 448
f 448 508 509
f 448 509 449
f 449 509 450
f 450 509 510
f 450 510 451
f 451 510 466
f 452 511 512
f 452 512 513
f 452 513 458
f 452 454 514
f 452 514 511
f 454 457 514
f 455 465 456
f 456 515 516
f 456 516 457
f 456 465 517
f 456 517 518
f 456 518 515
f 457 516 519
f 457 519 520
f 457 520 514
f 458 513 512
f 458 512 521
f 458 521 459
f 459 521 522
f 459 522 505
f 459 505 461
f 462 504 523
f 462 523 463
f 463 523 524
f 463 524 525
f 463 525 464
f 464 525 465
f 465 525 517
f 466 510 526
f 466 526 527
f 466 527 469
f 467 528 529
f 467 529 530
f 467 530 531
f 467 531 471
f 467 468 470
f 467 470 532
f 467 532 533
f 467 533 534
f 467 534 535
f 467 535 536
f 467 536 528
f 469 537 470
f 469 527 538
f 469 538 539
f 469 539 537
f 470 537 533
f 470 533 532
f 472 540 473
f 473 541 474
f 473 540 541
f 474 541 542
f 474 542 475
f 475 542 476
f 476 542 543
f 476 543 544
f 476 544 545
f 476 545 546
f 476 546 547
f 476 547 478
f 476 478 477
f 478 547 500
f 478 500 479
f 479 500 480
f 482 548 483
f 482 500 547
f 482 547 548
f 483 548 549
f 483 549 484
f 484 549 485
f 485 550 486
f 485 549 551
f 485 551 550
f 486 550 552
f 486 552 553
f 486 553 554
f 486 554 555
f 486 555 487
f 487 555 556
f 487 556 557
f 487 557 490
f 487 490 489
f 487 489 488
f 490 557 558
f 490 558 559
f 490 559 491
f 491 559 492
f 492 559 493
f 493 560 494
f 493 559 561
f 493 561 560
f 494 562 563
f 494 563 496
f 494 496 495
f 494 560 564
f 494 564 562
f 496 563 565
f 496 565 566
f 496 566 497
f 497 566 498
f 498 566 567
f 498 567 499
f 499 567 568
f 499 568 501
f 501 568 502
f 502 568 569
f 502 569 503
f 503 569 504
f 504 570 571
f 504 571 523
f 504 569 570
f 505 522 572
f 505 572 573
f 505 573 576
f 505 576 506
f 506 574 575
f 506 575 507
f 506 576 574
f 507 575 508
f 508 575 577
f 508 577 509
f 509 577 510
f 510 577 526
f 511 578 579
f 511 579 580
f 511 580 581
f 511 581 512
f 511 514 520
f 511 520 578
f 512 581 572
f 512 572 522
f 512 522 521
f 515 582 583
f 515 583 516
f 515 518 584
f 515 584 582
f 516 583 585
f 516 585 586
f 516 586 519
f 517 525 518
f 518 525 587
f 518 587 584
f 519 586 520
f 520 586 578
f 523 571 588
f 523 588 589
f 523 589 524
f 524 589 525
f 525 589 587
f 526 577 590
f 526 590 591
f 526 591 527
f 527 591 538
f 528 592 531
f 528 531 530
f 528 530 529
f 528 536 593
f 528 593 594
f 528 594 595
f 528 595 592
f 531 592 596
f 533 535 534
f 533 537 597
f 533 597 598
f 533 598 599
f 533 599 535
f 535 599 600
f 535 600 536
f 536 600 601
f 536 601 593
f 537 539 602
f 537 602 597
f 538 591 603
f 538 603 539
f 539 603 604
f 539 604 605
f 539 605 606
f 539 606 602
f 540 607 541
f 541 607 608
f 541 608 609
f 541 609 542
f 542 609 608
f 542 608 610
f 542 610 543
f 543 611 544
f 543 610 611
f 544 611 612
f 544 612 613
f 544 613 545
f 545 613 614
f 545 614 546
f 546 614 615
f 546 615 616
f 546 616 617
f 546 617 618
f 546 618 549
f 546 549 548
f 546 548 547
f 549 618 551
f 550 551 619
f 550 619 552
f 551 618 619
f 552 620 553
f 552 619 620
f 553 620 554
f 554 621 622
f 554 622 555
f 554 620 621
f 555 622 623
f 555 623 556
f 556 623 624
f 556 624 557
f 557 624 558
f 558 624 561
f 558 561 559
f 560 625 564
f 560 561 626
f 560 626 625
f 561 624 627
f 561 627 626
f 562 564 628
f 562 628 629
f 562 629 563
f 563 629 565
f 564 625 630
f 564 630 628
f 565 629 631
f 565 631 632
f 565 632 566
f 566 632 633
f 566 633 567
f 567 633 568
f 568 634 569
f 568 633 634
f 569 634 570
f 570 634 635
f 570 635 636
f 570 636 571
f 571 636 637
f 571 637 588
f 572 638 639
f 572 639 573
f 572 581 640
f 572 640 579
f 572 579 638
f 573 639 576
f 574 576 639
f 574 639 575
f 575 641 590
f 575 590 577
f 575 639 642
f 575 642 641
f 578 643 644
f 578 644 579
f 578 586 643
f 579 640 581
f 579 581 580
f 579 644 638
f 582 645 583
f 582 584 645
f 583 645 646
f 583 646 647
f 583 647 585
f 584 587 648
f 584 648 645
f 585 647 649
f 585 649 586
f 586 649 650
f 586 650 643
f 587 589 651
f 587 651 652
f 587 652 648
f 588 637 653
f 588 653 654
f 588 654 651
f 588 651 589
f 590 603 591
f 590 641 655
f 590 655 603
f 592 656 657
f 592 657 658
f 592 658 659
f 592 659 596
f 592 595 660
f 592 660 656
f 593 601 594
f 594 601 661
f 594 661 662
f 594 662 663
f 594 663 595
f 595 663 664
f 595 664 660
f 597 602 665
f 597 665 666
f 597 666 598
f 598 666 599
f 599 666 667
f 599 667 668
f 599 668 600
f 600 669 601
f 600 668 670
f 600 670 669
f 601 669 661
f 602 606 665
f 603 655 604
f 604 655 671
f 604 671 672
f 604 672 673
f 604 673 605
f 605 674 606
f 605 673 675
f 605 675 674
f 606 676 665
f 606 674 676
f 607 677 608
f 608 677 678
f 608 678 679
f 608 679 680
f 608 680 681
f 608 681 610
f 610 681 611
f 611 681 682
f 611 682 683
f 611 683 684
f 611 684 612
f 612 685 613
f 612 684 683
f 612 683 686
f 612 686 687
f 612 687 688
f 612 688 689
f 612 689 685
f 613 685 614
f 614 685 616
f 614 616 615
f 616 690 691
f 616 691 692
f 616 692 693
f 616 693 617
f 616 685 690
f 617 693 619
f 617 619 618
f 619 693 694
f 619 694 620
f 620 694 695
f 620 695 621
f 621 695 696
f 621 696 697
f 621 697 698
f 621 698 699
f 621 699 622
f 622 699 623
f 623 627 624
f 623 699 627
f 625 700 630
f 625 626 701
f 625 701 702
f 625 702 703
f 625 703 700
f 626 627 704
f 626 704 701
f 627 699 698
f 627 698 704
f 628 630 705
f 628 705 706
f 628 706 707
f 628 707 629
f 629 707 631
f 630 700 705
f 631 707 708
f 631 708 633
f 631 633 632
f 633 708 634
f 634 708 635
f 635 709 710
f 635 710 636
f 635 708 709
f 636 710 637
f 637 710 653
f 638 711 712
f 638 712 639
f 638 644 713
f 638 713 711
f 639 714 642
f 639 712 715
f 639 715 714
f 641 642 714
f 641 714 716
f 641 716 655
f 643 650 717
f 643 717 718
f 643 718 644
f 644 718 711
f 644 711 713
f 645 648 719
f 645 719 720
f 645 720 721
f 645 721 722
f 645 722 723
f 645 723 647
f 645 647 646
f 647 723 724
f 647 724 725
f 647 725 649
f 648 652 719
f 649 725 726
f 649 726 727
f 649 727 650
f 650 727 726
f 650 726 728
f 650 728 717
f 651 654 652
f 652 654 729
f 652 729 730
f 652 730 731
f 652 731 720
f 652 720 719
f 653 710 732
f 653 732 733
f 653 733 654
f 654 733 729
f 655 716 671
f 656 734 657
f 656 660 664
f 656 664 735
f 656 735 736
f 656 736 734
f 657 737 738
f 657 738 658
f 657 734 737
f 658 738 659
f 659 739 740
f 659 740 741
f 659 741 678
f 659 738 739
f 661 669 670
f 661 670 742
f 661 742 743
f 661 743 744
f 661 744 662
f 662 745 664
f 662 664 663
f 662 744 746
f 662 746 747
f 662 747 748
f 662 748 745
f 664 745 736
f 664 736 735
f 665 676 749
f 665 749 666
f 666 749 750
f 666 750 667
f 667 750 668
f 668 742 670
f 668 750 751
f 668 751 752
f 668 752 742
f 671 716 753
f 671 753 672
f 672 753 754
f 672 754 755
f 672 755 675
f 672 675 673
f 674 756 757
f 674 757 676
f 674 675 758
f 674 758 756
f 675 755 759
f 675 759 758
f 676 757 749
f 678 741 680
f 678 680 679
f 680 741 760
f 680 760 761
f 680 761 681
f 681 761 762
f 681 762 682
f 682 762 683
f 683 762 763
f 683 763 686
f 685 689 690
f 686 763 687
f 687 763 764
f 687 764 765
f 687 765 766
f 687 766 688
f 688 766 689
f 689 766 767
f 689 767 691
f 689 691 690
f 691 767 768
f 691 768 769
f 691 769 770
f 691 770 693
f 691 693 692
f 693 770 769
f 693 769 694
f 694 769 771
f 694 771 695
f 695 771 696
f 696 771 768
f 696 768 772
f 696 772 697
f 697 773 698
f 697 772 774
f 697 774 773
f 698 775 704
f 698 773 775
f 700 703 776
f 700 776 705
f 701 704 702
f 702 777 778
f 702 778 703
f 702 704 775
f 702 775 779
f 702 779 777
f 703 778 776
f 705 780 781
f 705 781 706
f 705 776 782
f 705 782 780
f 706 783 707
f 706 781 783
f 707 783 784
f 707 784 708
f 708 784 709
f 709 784 785
f 709 785 786
f 709 786 787
f 709 787 710
f 710 787 732
f 711 715 712
f 711 718 715
f 714 715 753
f 714 753 716
f 715 718 788
f 715 788 789
f 715 789 753
f 717 728 790
f 717 790 791
f 717 791 754
f 717 754 788
f 717 788 718
f 720 792 793
f 720 793 794
f 720 794 721
f 720 731 792
f 721 794 722
f 722 794 723
f 723 794 795
f 723 795 724
f 724 795 796
f 724 796 797
f 724 797 798
f 724 798 725
f 725 798 726
f 726 798 799
f 726 799 728
f 728 799 800
f 728 800 790
f 729 733 730
f 730 801 802
f 730 802 803
f 730 803 731
f 730 733 801
f 731 803 804
f 731 804 792
f 732 787 805
f 732 805 806
f 732 806 733
f 733 806 801
f 734 807 808
f 734 808 809
f 734 809 737
f 734 736 807
f 736 810 811
f 736 811 807
f 736 745 812
f 736 812 810
f 737 809 740
f 737 740 739
f 737 739 738
f 740 809 741
f 741 809 760
f 742 752 743
f 743 752 813
f 743 813 746
f 743 746 744
f 745 748 812
f 746 813 814
f 746 814 815
f 746 815 748
f 746 748 747
f 748 815 812
f 749 757 750
f 750 757 751
f 751 757 816
f 751 816 817
f 751 817 752
f 752 817 813
f 753 789 754
f 754 789 788
f 754 791 755
f 755 791 818
f 755 818 819
f 755 819 759
f 756 758 820
f 756 820 757
f 757 820 816
f 758 759 821
f 758 821 822
f 758 822 820
f 759 819 823
f 759 823 821
f 760 809 808
f 760 808 824
f 760 824 825
f 760 825 826
f 760 826 827
f 760 827 761
f 761 827 828
f 761 828 762
f 762 828 827
f 762 827 829
f 762 829 763
f 763 829 830
f 763 830 764
f 764 830 831
f 764 831 832
f 764 832 765
f 765 832 833
f 765 833 834
f 765 834 766
f 766 834 767
f 767 834 835
f 767 835 768
f 768 835 772
f 768 771 769
f 772 836 774
f 772 835 836
f 773 837 775
f 773 774 838
f 773 838 837
f 774 836 838
f 775 837 839
f 775 839 779
f 776 840 841
f 776 841 782
f 776 778 840
f 777 842 778
f 777 779 843
f 777 843 842
f 778 842 840
f 779 839 843
f 780 844 845
f 780 845 781
f 780 782 841
f 780 841 846
f 780 846 847
f 780 847 844
f 781 845 783
f 783 845 785
f 783 785 784
f 785 845 848
f 785 848 786
f 786 848 849
f 786 849 787
f 787 849 805
f 790 818 791
f 790 800 818
f 792 804 850
f 792 850 851
f 792 851 852
f 792 852 853
f 792 853 793
f 793 853 794
f 794 853 854
f 794 854 855
f 794 855 795
f 795 855 796
f 796 856 857
f 796 857 797
f 796 855 856
f 797 857 858
f 797 858 799
f 797 799 798
f 799 858 800
f 800 858 818
f 801 806 859
f 801 859 860
f 801 860 802
f 802 860 861
f 802 861 862
f 802 862 850
f 802 850 804
f 802 804 803
f 805 849 863
f 805 863 864
f 805 864 860
f 805 860 859
f 805 859 806
f 807 811 825
f 807 825 824
f 807 824 808
f 810 812 865
f 810 865 866
f 810 866 867
f 810 867 868
f 810 868 869
f 810 869 811
f 811 870 825
f 811 869 870
f 812 815 865
f 813 817 871
f 813 871 872
f 813 872 814
f 814 872 873
f 814 873 815
f 815 873 874
f 815 874 865
f 816 820 875
f 816 875 871
f 816 871 817
f 818 858 876
f 818 876 823
f 818 823 819
f 820 822 875
f 821 877 822
f 821 823 878
f 821 878 877
f 822 877 875
f 823 876 879
f 823 879 880
f 823 880 878
f 825 870 827
f 825 827 826
f 827 870 881
f 827 881 829
f 829 881 830
f 830 882 883
f 830 883 831
f 830 881 882
f 831 883 884
f 831 884 885
f 831 885 832
f 832 885 833
f 833 885 886
f 833 886 834
f 834 886 887
f 834 887 888
f 834 888 835
f 835 888 836
f 836 888 889
f 836 889 838
f 837 890 839
f 837 838 889
f 837 889 890
f 839 890 843
f 840 842 891
f 840 891 841
f 841 891 846
f 842 892 891
f 842 843 893
f 842 893 892
f 843 890 893
f 844 847 894
f 844 894 895
f 844 895 848
f 844 848 845
f 846 896 897
f 846 897 847
f 846 891 896
f 847 897 894
f 848 895 849
f 849 895 898
f 849 898 863
f 850 862 851
f 851 899 852
f 851 862 899
f 852 899 900
f 852 900 901
f 852 901 902
f 852 902 854
f 852 854 853
f 854 902 903
f 854 903 855
f 855 903 856
f 856 903 904
f 856 904 857
f 857 904 905
f 857 905 879
f 857 879 858
f 858 879 876
f 860 864 861
f 861 864 906
f 861 906 907
f 861 907 862
f 862 907 908
f 862 908 909
f 862 909 899
f 863 898 864
f 864 898 906
f 865 874 910
f 865 910 911
f 865 911 912
f 865 912 867
f 865 867 866
f 867 912 911
f 867 911 945
f 867 945 946
f 867 946 913
f 867 913 914
f 867 914 915
f 867 915 868
f 868 915 916
f 868 916 883
f 868 883 869
f 869 883 870
f 870 883 881
f 871 875 877
f 871 877 917
f 871 917 872
f 872 917 918
f 872 918 873
f 873 918 919
f 873 919 874
f 874 919 920
f 874 920 921
f 874 921 910
f 877 878 917
f 878 922 917
f 878 880 923
f 878 923 922
f 879 905 923
f 879 923 880
f 881 883 882
f 883 916 924
f 883 924 884
f 884 924 885
f 885 924 925
f 885 925 926
f 885 926 886
f 886 926 887
f 887 926 927
f 887 927 888
f 888 927 889
f 889 927 928
f 889 928 890
f 890 928 893
f 891 892 929
f 891 929 896
f 892 893 930
f 892 930 929
f 893 928 931
f 893 931 930
f 894 897 932
f 894 932 898
f 894 898 895
f 896 929 933
f 896 933 897
f 897 933 934
f 897 934 932
f 898 932 907
f 898 907 906
f 899 909 935
f 899 935 936
f 899 936 901
f 899 901 900
f 901 936 937
f 901 937 938
f 901 938 939
f 901 939 940
f 901 940 902
f 902 940 939
f 902 939 903
f 903 939 904
f 904 939 941
f 904 941 942
f 904 942 905
f 905 942 923
f 907 932 934
f 907 934 943
f 907 943 908
f 908 943 944
f 908 944 909
f 909 944 935
f 910 921 945
f 910 945 911
f 913 946 947
f 913 947 948
f 913 948 949
f 913 949 914
f 914 950 916
f 914 916 915
f 914 949 950
f 916 950 925
f 916 925 924
f 917 922 951
f 917 951 918
f 918 951 919
f 919 951 952
f 919 952 920
f 920 952 938
f 920 938 937
f 920 937 921
f 921 937 945
f 922 923 953
f 922 953 951
f 923 942 953
f 925 950 954
f 925 954 926
f 926 954 955
f 926 955 927
f 927 955 928
f 928 955 931
f 929 956 933
f 929 930 957
f 929 957 956
f 930 931 957
f 931 958 957
f 931 955 958
f 933 956 959
f 933 959 943
f 933 943 934
f 935 944 960
f 935 960 936
f 936 960 948
f 936 948 937
f 937 948 945
f 938 941 939
f 938 952 941
f 941 952 942
f 942 952 953
f 943 959 944
f 944 959 961
f 944 961 960
f 945 948 947
f 945 947 946
f 948 960 949
f 949 960 961
f 949 961 962
f 949 962 950
f 950 962 958
f 950 958 954
f 951 953 952
f 954 958 955
f 956 957 963
f 956 963 961
f 956 961 959
f 957 958 962
f 957 962 963
f 961 963 962

