# https://github.com/mikedh/trimesh
v 0.05382514 -0.00067255 -0.01099254 0.54509804 0.71372549 0.60000000
v 0.05382514 0.00053332 -0.01094596 0.54509804 0.71372549 0.60000000
v 0.05451176 0.00053332 -0.01087187 0.54509804 0.71372549 0.60000000
v 0.05458459 -0.00067255 -0.01090786 0.54509804 0.71372549 0.60000000
v 0.05456378 -0.00188231 -0.01089093 0.54509804 0.71372549 0.60000000
v 0.05382514 -0.00188231 -0.01094173 0.54509804 0.71372549 0.60000000
v -0.04171980 -0.00188231 -0.00892645 0.54509804 0.71372549 0.60000000
v -0.04051301 -0.00067255 -0.00897302 0.54509804 0.71372549 0.60000000
v -0.04051301 0.00053332 -0.00897302 0.54509804 0.71372549 0.60000000
v 0.05289923 0.00141297 -0.01086341 0.54509804 0.71372549 0.60000000
v 0.05382514 0.00144404 -0.01087399 0.54509804 0.71372549 0.60000000
v 0.05447015 0.00127122 -0.01084647 0.54509804 0.71372549 0.60000000
v 0.06051454 -0.00100266 -0.00601783 0.54509804 0.71372549 0.60000000
v 0.06051454 -0.00138520 -0.00601783 0.54509804 0.71372549 0.60000000
v 0.05447015 -0.00254447 -0.01083800 0.54509804 0.71372549 0.60000000
v 0.05382514 -0.00254835 -0.01083589 0.54509804 0.71372549 0.60000000
v -0.04166779 -0.00319887 -0.00860045 0.54509804 0.71372549 0.60000000
v -0.04243764 -0.00377947 -0.00842051 0.54509804 0.71372549 0.60000000
v -0.04287459 -0.00308236 -0.00853906 0.54509804 0.71372549 0.60000000
v -0.04525697 -0.00193085 -0.00848825 0.54509804 0.71372549 0.60000000
v -0.04525697 -0.00079100 -0.00859409 0.54509804 0.71372549 0.60000000
v -0.04525697 -0.00067255 -0.00860045 0.54509804 0.71372549 0.60000000
v -0.04171980 -0.00067255 -0.00893068 0.54509804 0.71372549 0.60000000
v -0.04171980 0.00053332 -0.00887352 0.54509804 0.71372549 0.60000000
v -0.04171980 0.00174308 -0.00871899 0.54509804 0.71372549 0.60000000
v -0.04051301 0.00174308 -0.00881002 0.54509804 0.71372549 0.60000000
v 0.05382514 0.00204795 -0.01072792 0.54509804 0.71372549 0.60000000
v 0.05430370 0.00455678 -0.00955093 0.54509804 0.71372549 0.60000000
v 0.05461580 0.00623258 -0.00863431 0.54509804 0.71372549 0.60000000
v 0.06033768 0.00053526 -0.00585695 0.54509804 0.71372549 0.60000000
v 0.06044171 -0.00019680 -0.00593951 0.54509804 0.71372549 0.60000000
v 0.05350263 0.00490437 -0.00968641 0.54509804 0.71372549 0.60000000
v 0.06073301 0.00053526 -0.00525152 0.54509804 0.71372549 0.60000000
v 0.06070180 -0.00062789 -0.00546956 0.54509804 0.71372549 0.60000000
v 0.06063938 -0.00182600 -0.00535313 0.54509804 0.71372549 0.60000000
v 0.06055615 -0.00267846 -0.00493610 0.54509804 0.71372549 0.60000000
v 0.06032727 -0.00348431 -0.00459105 0.54509804 0.71372549 0.60000000
v 0.06019203 -0.00219106 -0.00574475 0.54509804 0.71372549 0.60000000
v 0.05447015 -0.00496593 -0.00964619 0.54509804 0.71372549 0.60000000
v 0.05382514 -0.00512127 -0.00975204 0.54509804 0.71372549 0.60000000
v 0.05382514 -0.00430182 -0.01014789 0.54509804 0.71372549 0.60000000
v 0.05261834 -0.00430182 -0.01016906 0.54509804 0.71372549 0.60000000
v -0.04171980 -0.00539895 -0.00751236 0.54509804 0.71372549 0.60000000
v -0.04293701 -0.00537371 -0.00749331 0.54509804 0.71372549 0.60000000
v -0.04525697 -0.00583392 -0.00704029 0.54509804 0.71372549 0.60000000
v -0.04525697 -0.00528244 -0.00731126 0.54509804 0.71372549 0.60000000
v -0.04525697 -0.00430182 -0.00772405 0.54509804 0.71372549 0.60000000
v -0.04525697 -0.00302216 -0.00821305 0.54509804 0.71372549 0.60000000
v 0.05261834 -0.00515428 -0.00977109 0.54509804 0.71372549 0.60000000
v -0.04525697 0.00042846 -0.00857716 0.54509804 0.71372549 0.60000000
v -0.04525697 0.00053332 -0.00856869 0.54509804 0.71372549 0.60000000
v -0.04525697 0.00139355 -0.00847131 0.54509804 0.71372549 0.60000000
v -0.04525697 0.00146151 -0.00846285 0.54509804 0.71372549 0.60000000
v -0.04171980 0.00252952 -0.00848190 0.54509804 0.71372549 0.60000000
v -0.04525697 0.00206542 -0.00833795 0.54509804 0.71372549 0.60000000
v -0.04051301 0.00264020 -0.00852000 0.54509804 0.71372549 0.60000000
v 0.05261834 0.00295284 -0.01045908 0.54509804 0.71372549 0.60000000
v 0.05386675 0.00533351 -0.00936676 0.54509804 0.71372549 0.60000000
v 0.05461580 0.00739185 -0.00743404 0.54509804 0.71372549 0.60000000
v 0.06054574 0.00363830 -0.00370195 0.54509804 0.71372549 0.60000000
v 0.06050413 0.00243049 -0.00480909 0.54509804 0.71372549 0.60000000
v 0.05382514 0.00638598 -0.00874228 0.54509804 0.71372549 0.60000000
v 0.05382514 0.00699183 -0.00818342 0.54509804 0.71372549 0.60000000
v 0.06061857 0.00174502 -0.00500807 0.54509804 0.71372549 0.60000000
v 0.05289923 0.00490437 -0.00968641 0.54509804 0.71372549 0.60000000
v 0.06081623 0.00174502 -0.00416132 0.54509804 0.71372549 0.60000000
v 0.06094107 0.00053526 -0.00416132 0.54509804 0.71372549 0.60000000
v 0.06092027 -0.00067255 -0.00416132 0.54509804 0.71372549 0.60000000
v 0.06086825 -0.00188231 -0.00416132 0.54509804 0.71372549 0.60000000
v 0.06069139 -0.00308430 -0.00417613 0.54509804 0.71372549 0.60000000
v 0.06059776 -0.00390375 -0.00378451 0.54509804 0.71372549 0.60000000
v 0.05464701 -0.00758933 -0.00744674 0.54509804 0.71372549 0.60000000
v 0.05382514 -0.00711941 -0.00824481 0.54509804 0.71372549 0.60000000
v 0.05382514 -0.00572518 -0.00930749 0.54509804 0.71372549 0.60000000
v -0.03930621 -0.00606112 -0.00714614 0.54509804 0.71372549 0.60000000
v -0.04293701 -0.00597762 -0.00709745 0.54509804 0.71372549 0.60000000
v -0.04414380 -0.00672134 -0.00653859 0.54509804 0.71372549 0.60000000
v -0.04525697 -0.00590771 -0.00699372 0.54509804 0.71372549 0.60000000
v 0.05261834 -0.00575819 -0.00932442 0.54509804 0.71372549 0.60000000
v -0.04525697 0.00295284 -0.00805429 0.54509804 0.71372549 0.60000000
v -0.04051301 0.00324411 -0.00825327 0.54509804 0.71372549 0.60000000
v -0.03688222 0.00416259 -0.00797384 0.54509804 0.71372549 0.60000000
v 0.05465741 0.00861908 -0.00513509 0.54509804 0.71372549 0.60000000
v 0.05382514 0.00748700 -0.00757798 0.54509804 0.71372549 0.60000000
v 0.05386675 0.00813557 -0.00650049 0.54509804 0.71372549 0.60000000
v 0.05429330 0.00836664 -0.00594162 0.54509804 0.71372549 0.60000000
v 0.06060816 0.00288099 -0.00412745 0.54509804 0.71372549 0.60000000
v 0.05480306 0.00883268 -0.00416132 0.54509804 0.71372549 0.60000000
v 0.06023364 0.00458785 -0.00173959 0.54509804 0.71372549 0.60000000
v 0.06062897 0.00378782 -0.00295045 0.54509804 0.71372549 0.60000000
v 0.06082664 0.00295478 -0.00295045 0.54509804 0.71372549 0.60000000
v -0.03688222 0.00518399 -0.00748484 0.54509804 0.71372549 0.60000000
v -0.03809942 0.00576460 -0.00702124 0.54509804 0.71372549 0.60000000
v -0.03809942 0.00647725 -0.00641581 0.54509804 0.71372549 0.60000000
v -0.03809942 0.00708116 -0.00581038 0.54509804 0.71372549 0.60000000
v 0.06096188 0.00295478 -0.00173959 0.54509804 0.71372549 0.60000000
v 0.06102431 0.00295478 -0.00053507 0.54509804 0.71372549 0.60000000
v 0.06092027 -0.00309206 -0.00173959 0.54509804 0.71372549 0.60000000
v 0.06089946 -0.00309206 -0.00295045 0.54509804 0.71372549 0.60000000
v 0.06066019 -0.00407463 -0.00295045 0.54509804 0.71372549 0.60000000
v 0.06050413 -0.00493486 -0.00127599 0.54509804 0.71372549 0.60000000
v 0.06037929 -0.00479893 -0.00208252 0.54509804 0.71372549 0.60000000
v 0.06020243 -0.00467854 -0.00295045 0.54509804 0.71372549 0.60000000
v 0.05464701 -0.00870006 -0.00621047 0.54509804 0.71372549 0.60000000
v 0.05382514 -0.00836606 -0.00697890 0.54509804 0.71372549 0.60000000
v 0.05382514 -0.00775827 -0.00763937 0.54509804 0.71372549 0.60000000
v -0.04414380 -0.00737961 -0.00603688 0.54509804 0.71372549 0.60000000
v -0.04485123 -0.00735243 -0.00600937 0.54509804 0.71372549 0.60000000
v -0.04525697 -0.00684367 -0.00632478 0.54509804 0.71372549 0.60000000
v -0.04525697 0.00427134 -0.00747002 0.54509804 0.71372549 0.60000000
v -0.04051301 0.00416259 -0.00781931 0.54509804 0.71372549 0.60000000
v -0.03809942 0.00416259 -0.00792727 0.54509804 0.71372549 0.60000000
v 0.05386675 0.00870646 -0.00546956 0.54509804 0.71372549 0.60000000
v 0.05382514 0.00927542 -0.00416132 0.54509804 0.71372549 0.60000000
v 0.05449096 0.00965019 -0.00257788 0.54509804 0.71372549 0.60000000
v 0.05261834 0.00844043 -0.00604535 0.54509804 0.71372549 0.60000000
v 0.05349223 0.00843849 -0.00604535 0.54509804 0.71372549 0.60000000
v -0.04171980 0.00810450 -0.00438147 0.54509804 0.71372549 0.60000000
v -0.04171980 0.00851228 -0.00377816 0.54509804 0.71372549 0.60000000
v 0.05455338 0.00969874 -0.00173959 0.54509804 0.71372549 0.60000000
v 0.06021284 0.00462475 -0.00053507 0.54509804 0.71372549 0.60000000
v 0.06075381 0.00401890 -0.00053507 0.54509804 0.71372549 0.60000000
v 0.06072260 0.00398395 -0.00173959 0.54509804 0.71372549 0.60000000
v -0.03809942 0.00516069 -0.00743615 0.54509804 0.71372549 0.60000000
v -0.03930621 0.00570634 -0.00698525 0.54509804 0.71372549 0.60000000
v -0.04525697 0.00616656 -0.00624434 0.54509804 0.71372549 0.60000000
v -0.04525697 0.00623646 -0.00618930 0.54509804 0.71372549 0.60000000
v -0.03930621 0.00644230 -0.00637982 0.54509804 0.71372549 0.60000000
v -0.04525697 0.00684037 -0.00564526 0.54509804 0.71372549 0.60000000
v -0.04525697 0.00742874 -0.00503983 0.54509804 0.71372549 0.60000000
v 0.06096188 -0.00067255 0.00188454 0.54509804 0.71372549 0.60000000
v 0.06093067 -0.00309206 -0.00053507 0.54509804 0.71372549 0.60000000
v 0.06085785 0.00295478 0.00067367 0.54509804 0.71372549 0.60000000
v 0.06093067 0.00053526 0.00188454 0.54509804 0.71372549 0.60000000
v 0.06075381 -0.00430182 -0.00053507 0.54509804 0.71372549 0.60000000
v 0.06067058 -0.00435813 -0.00170360 0.54509804 0.71372549 0.60000000
v 0.06051454 -0.00494262 -0.00053507 0.54509804 0.71372549 0.60000000
v 0.05469903 -0.00988263 -0.00053507 0.54509804 0.71372549 0.60000000
v 0.05442854 -0.00974864 -0.00356647 0.54509804 0.71372549 0.60000000
v 0.05481347 -0.00887870 -0.00537006 0.54509804 0.71372549 0.60000000
v 0.05382514 -0.00925348 -0.00537006 0.54509804 0.71372549 0.60000000
v 0.05382514 -0.00880103 -0.00637559 0.54509804 0.71372549 0.60000000
v -0.04293701 -0.00842820 -0.00462492 0.54509804 0.71372549 0.60000000
v -0.04414380 -0.00839325 -0.00457623 0.54509804 0.71372549 0.60000000
v -0.04414380 -0.00880103 -0.00397291 0.54509804 0.71372549 0.60000000
v -0.04525697 -0.00874860 -0.00387765 0.54509804 0.71372549 0.60000000
v -0.04525697 -0.00836412 -0.00443016 0.54509804 0.71372549 0.60000000
v -0.04525697 -0.00762234 -0.00548861 0.54509804 0.71372549 0.60000000
v -0.04525697 -0.00729029 -0.00594162 0.54509804 0.71372549 0.60000000
v -0.04525697 0.00479951 -0.00720541 0.54509804 0.71372549 0.60000000
v 0.05261834 0.00879967 -0.00537006 0.54509804 0.71372549 0.60000000
v 0.05382514 0.00952397 -0.00320660 0.54509804 0.71372549 0.60000000
v -0.04293701 0.00880744 -0.00295045 0.54509804 0.71372549 0.60000000
v -0.04525697 0.00914920 -0.00174170 0.54509804 0.71372549 0.60000000
v 0.05382514 0.00965990 -0.00260328 0.54509804 0.71372549 0.60000000
v 0.05382514 0.00982884 -0.00173959 0.54509804 0.71372549 0.60000000
v -0.04293701 0.00807731 -0.00435395 0.54509804 0.71372549 0.60000000
v -0.04293701 0.00850451 -0.00375064 0.54509804 0.71372549 0.60000000
v 0.05453257 0.00968709 -0.00075523 0.54509804 0.71372549 0.60000000
v 0.06062897 0.00379170 0.00067367 0.54509804 0.71372549 0.60000000
v 0.05477185 0.00872782 0.00188242 0.54509804 0.71372549 0.60000000
v 0.05460540 0.00859578 0.00282444 0.54509804 0.71372549 0.60000000
v -0.04525697 0.00529662 -0.00687094 0.54509804 0.71372549 0.60000000
v -0.04525697 0.00803265 -0.00423964 0.54509804 0.71372549 0.60000000
v 0.06072260 -0.00067255 0.00299379 0.54509804 0.71372549 0.60000000
v 0.06068099 -0.00188231 0.00289853 0.54509804 0.71372549 0.60000000
v 0.06089946 -0.00188231 0.00188454 0.54509804 0.71372549 0.60000000
v 0.06087866 -0.00309206 0.00067367 0.54509804 0.71372549 0.60000000
v 0.06050413 0.00359946 0.00131721 0.54509804 0.71372549 0.60000000
v 0.06058736 0.00295478 0.00160722 0.54509804 0.71372549 0.60000000
v 0.06047292 0.00234310 0.00248574 0.54509804 0.71372549 0.60000000
v 0.06071220 0.00186153 0.00200308 0.54509804 0.71372549 0.60000000
v 0.06069139 0.00053526 0.00288159 0.54509804 0.71372549 0.60000000
v 0.06063938 -0.00426104 0.00056995 0.54509804 0.71372549 0.60000000
v 0.06049373 -0.00492709 0.00009999 0.54509804 0.71372549 0.60000000
v 0.05456378 -0.00983991 -0.00173959 0.54509804 0.71372549 0.60000000
v 0.05464701 -0.00983214 0.00067156 0.54509804 0.71372549 0.60000000
v 0.05382514 -0.01000885 -0.00053507 0.54509804 0.71372549 0.60000000
v 0.05382514 -0.00998166 -0.00173959 0.54509804 0.71372549 0.60000000
v 0.05382514 -0.00986321 -0.00295045 0.54509804 0.71372549 0.60000000
v 0.05382514 -0.00976806 -0.00363844 0.54509804 0.71372549 0.60000000
v 0.05382514 -0.00959524 -0.00424387 0.54509804 0.71372549 0.60000000
v 0.05299287 -0.00977194 -0.00365326 0.54509804 0.71372549 0.60000000
v -0.04171980 -0.00934668 -0.00295045 0.54509804 0.71372549 0.60000000
v -0.04171980 -0.00885152 -0.00403430 0.54509804 0.71372549 0.60000000
v -0.04293701 -0.00882239 -0.00401948 0.54509804 0.71372549 0.60000000
v -0.04414380 -0.00923988 -0.00295045 0.54509804 0.71372549 0.60000000
v -0.04525697 -0.00915444 -0.00295045 0.54509804 0.71372549 0.60000000
v -0.04525697 -0.00878938 -0.00378663 0.54509804 0.71372549 0.60000000
v -0.04293701 -0.00931950 -0.00295045 0.54509804 0.71372549 0.60000000
v -0.04525697 0.00873753 -0.00295045 0.54509804 0.71372549 0.60000000
v -0.04525697 0.00911813 -0.00184543 0.54509804 0.71372549 0.60000000
v -0.04525697 0.00941911 -0.00053296 0.54509804 0.71372549 0.60000000
v 0.05389796 0.00975311 -0.00042500 0.54509804 0.71372549 0.60000000
v -0.04525697 0.00952397 0.00056783 0.54509804 0.71372549 0.60000000
v -0.04525697 0.00953368 0.00067579 0.54509804 0.71372549 0.60000000
v -0.04525697 0.00948125 0.00188454 0.54509804 0.71372549 0.60000000
v -0.04525697 0.00844626 -0.00363421 0.54509804 0.71372549 0.60000000
v -0.04525697 0.00871035 -0.00301608 0.54509804 0.71372549 0.60000000
v 0.05435571 0.00960164 0.00004919 0.54509804 0.71372549 0.60000000
v 0.05438692 0.00717825 0.00489688 0.54509804 0.71372549 0.60000000
v 0.05468862 0.00754525 0.00409034 0.54509804 0.71372549 0.60000000
v 0.05382514 0.00910260 0.00188242 0.54509804 0.71372549 0.60000000
v 0.05382514 0.00869093 0.00299167 0.54509804 0.71372549 0.60000000
v 0.05382514 0.00833169 0.00359499 0.54509804 0.71372549 0.60000000
v 0.06036889 -0.00067255 0.00359711 0.54509804 0.71372549 0.60000000
v 0.06016082 -0.00188231 0.00349973 0.54509804 0.71372549 0.60000000
v 0.06059776 -0.00280079 0.00270801 0.54509804 0.71372549 0.60000000
v 0.06069139 -0.00315809 0.00193746 0.54509804 0.71372549 0.60000000
v 0.05450136 0.00605976 0.00617760 0.54509804 0.71372549 0.60000000
v 0.06018163 0.00053526 0.00348491 0.54509804 0.71372549 0.60000000
v 0.06057695 0.00153725 0.00266355 0.54509804 0.71372549 0.60000000
v 0.05459499 0.00383831 0.00748584 0.54509804 0.71372549 0.60000000
v 0.05457419 0.00139161 0.00862050 0.54509804 0.71372549 0.60000000
v 0.06057695 -0.00382802 0.00157335 0.54509804 0.71372549 0.60000000
v 0.06036889 -0.00360665 0.00237989 0.54509804 0.71372549 0.60000000
v 0.05454298 -0.00861267 0.00384055 0.54509804 0.71372549 0.60000000
v 0.05447015 -0.00976418 0.00132779 0.54509804 0.71372549 0.60000000
v 0.05384595 -0.00985350 0.00072660 0.54509804 0.71372549 0.60000000
v -0.04293701 -0.00989428 0.00188454 0.54509804 0.71372549 0.60000000
v -0.04293701 -0.00995642 0.00067579 0.54509804 0.71372549 0.60000000
v -0.04293701 -0.00989622 -0.00053296 0.54509804 0.71372549 0.60000000
v -0.04293701 -0.00979719 -0.00135220 0.54509804 0.71372549 0.60000000
v -0.03809942 -0.00967291 -0.00195763 0.54509804 0.71372549 0.60000000
v -0.04293701 -0.00963796 -0.00195763 0.54509804 0.71372549 0.60000000
v -0.04371726 -0.00977777 -0.00126964 0.54509804 0.71372549 0.60000000
v -0.04525697 -0.00951174 -0.00173747 0.54509804 0.71372549 0.60000000
v 0.05354425 0.00962495 0.00012540 0.54509804 0.71372549 0.60000000
v -0.04525697 0.00927736 0.00309328 0.54509804 0.71372549 0.60000000
v 0.05391877 0.00766564 0.00441634 0.54509804 0.71372549 0.60000000
v 0.05391877 0.00683843 0.00545151 0.54509804 0.71372549 0.60000000
v 0.05261834 0.00912590 0.00188242 0.54509804 0.71372549 0.60000000
v -0.03930621 0.00858995 0.00534989 0.54509804 0.71372549 0.60000000
v -0.03930621 0.00830256 0.00595533 0.54509804 0.71372549 0.60000000
v 0.05019435 0.00732777 0.00509587 0.54509804 0.71372549 0.60000000
v 0.05261834 0.00729864 0.00505565 0.54509804 0.71372549 0.60000000
v 0.05358586 0.00725980 0.00501119 0.54509804 0.71372549 0.60000000
v 0.05475105 0.00053332 0.00871787 0.54509804 0.71372549 0.60000000
v 0.05483427 -0.00067255 0.00876868 0.54509804 0.71372549 0.60000000
v 0.05461580 -0.00188231 0.00865014 0.54509804 0.71372549 0.60000000
v 0.05469903 -0.00430182 0.00762132 0.54509804 0.71372549 0.60000000
v 0.05451176 -0.00499700 0.00742022 0.54509804 0.71372549 0.60000000
v 0.05382514 0.00615491 0.00624958 0.54509804 0.71372549 0.60000000
v 0.05382514 0.00537235 0.00676610 0.54509804 0.71372549 0.60000000
v 0.05382514 0.00462281 0.00723605 0.54509804 0.71372549 0.60000000
v 0.05382514 0.00401890 0.00760227 0.54509804 0.71372549 0.60000000
v 0.05382514 0.00295284 0.00810821 0.54509804 0.71372549 0.60000000
v 0.05382514 0.00207319 0.00843844 0.54509804 0.71372549 0.60000000
v 0.05382514 0.00146734 0.00863108 0.54509804 0.71372549 0.60000000
v 0.05382514 0.00053332 0.00880890 0.54509804 0.71372549 0.60000000
v 0.05456378 -0.00630190 0.00625381 0.54509804 0.71372549 0.60000000
v 0.05457419 -0.00751554 0.00509587 0.54509804 0.71372549 0.60000000
v 0.05382514 -0.00764953 0.00526734 0.54509804 0.71372549 0.60000000
v 0.05382514 -0.00825344 0.00451160 0.54509804 0.71372549 0.60000000
v 0.05382514 -0.00864568 0.00390829 0.54509804 0.71372549 0.60000000
v 0.05382514 -0.00901851 0.00309117 0.54509804 0.71372549 0.60000000
v -0.04284337 -0.00882045 0.00562721 0.54509804 0.71372549 0.60000000
v -0.04171980 -0.00936028 0.00430203 0.54509804 0.71372549 0.60000000
v -0.04414380 -0.00965738 0.00327534 0.54509804 0.71372549 0.60000000
v -0.04414380 -0.00978359 0.00267202 0.54509804 0.71372549 0.60000000
v -0.04414380 -0.00988651 0.00188454 0.54509804 0.71372549 0.60000000
v -0.04525697 -0.00987292 0.00188454 0.54509804 0.71372549 0.60000000
v -0.04525697 -0.00992146 0.00077952 0.54509804 0.71372549 0.60000000
v -0.04525697 -0.00992535 0.00067579 0.54509804 0.71372549 0.60000000
v -0.04525697 -0.00982826 -0.00038054 0.54509804 0.71372549 0.60000000
v -0.04525697 -0.00971757 -0.00093305 0.54509804 0.71372549 0.60000000
v -0.04293701 0.00896084 0.00430203 0.54509804 0.71372549 0.60000000
v -0.04525697 0.00892783 0.00430203 0.54509804 0.71372549 0.60000000
v -0.04414380 0.00895113 0.00430203 0.54509804 0.71372549 0.60000000
v -0.04414380 0.00857830 0.00522288 0.54509804 0.71372549 0.60000000
v -0.04525697 0.00855694 0.00521230 0.54509804 0.71372549 0.60000000
v -0.04525697 0.00825596 0.00576481 0.54509804 0.71372549 0.60000000
v -0.04525697 0.00822489 0.00581561 0.54509804 0.71372549 0.60000000
v -0.04525697 0.00759380 0.00675975 0.54509804 0.71372549 0.60000000
v -0.04525697 0.00754914 0.00682325 0.54509804 0.71372549 0.60000000
v -0.04525697 0.00746758 0.00693545 0.54509804 0.71372549 0.60000000
v -0.04491365 0.00717436 0.00731437 0.54509804 0.71372549 0.60000000
v -0.03749602 0.00718796 0.00732919 0.54509804 0.71372549 0.60000000
v -0.03747522 0.00718796 0.00732919 0.54509804 0.71372549 0.60000000
v 0.05019435 0.00680347 0.00569918 0.54509804 0.71372549 0.60000000
v 0.05261834 0.00677241 0.00566108 0.54509804 0.71372549 0.60000000
v 0.05382514 -0.00067255 0.00888299 0.54509804 0.71372549 0.60000000
v 0.05388756 -0.00197940 0.00866919 0.54509804 0.71372549 0.60000000
v 0.05442854 -0.00249981 0.00854006 0.54509804 0.71372549 0.60000000
v 0.05382514 -0.00430182 0.00795791 0.54509804 0.71372549 0.60000000
v 0.05382514 -0.00510574 0.00749008 0.54509804 0.71372549 0.60000000
v 0.05382514 -0.00648055 0.00640411 0.54509804 0.71372549 0.60000000
v 0.05261834 0.00537235 0.00681690 0.54509804 0.71372549 0.60000000
v 0.05261834 0.00467718 0.00727627 0.54509804 0.71372549 0.60000000
v -0.04293701 0.00605976 0.00861203 0.54509804 0.71372549 0.60000000
v -0.04293701 0.00537235 0.00909892 0.54509804 0.71372549 0.60000000
v 0.05261834 0.00407327 0.00760439 0.54509804 0.71372549 0.60000000
v -0.02896522 0.00357810 0.00976362 0.54509804 0.71372549 0.60000000
v -0.02850747 0.00294118 0.00992239 0.54509804 0.71372549 0.60000000
v -0.02841384 0.00174308 0.01019758 0.54509804 0.71372549 0.60000000
v -0.04171980 0.00053332 0.01056381 0.54509804 0.71372549 0.60000000
v 0.05382514 -0.00708446 0.00587277 0.54509804 0.71372549 0.60000000
v 0.05261834 -0.00711941 0.00591299 0.54509804 0.71372549 0.60000000
v 0.05261834 -0.00765730 0.00530756 0.54509804 0.71372549 0.60000000
v -0.04171980 -0.00717766 0.00827968 0.54509804 0.71372549 0.60000000
v -0.04318669 -0.00858355 0.00617548 0.54509804 0.71372549 0.60000000
v -0.04379008 -0.00858355 0.00617548 0.54509804 0.71372549 0.60000000
v -0.04525697 -0.00934862 0.00430203 0.54509804 0.71372549 0.60000000
v -0.04414380 -0.00935833 0.00430203 0.54509804 0.71372549 0.60000000
v -0.04525697 -0.00965349 0.00324358 0.54509804 0.71372549 0.60000000
v -0.04525697 -0.00977583 0.00264027 0.54509804 0.71372549 0.60000000
v -0.04525697 -0.00986515 0.00195439 0.54509804 0.71372549 0.60000000
v -0.04525697 0.00858995 0.00513185 0.54509804 0.71372549 0.60000000
v -0.04525697 0.00679182 0.00768906 0.54509804 0.71372549 0.60000000
v -0.04525697 -0.00056575 0.01063367 0.54509804 0.71372549 0.60000000
v -0.04525697 -0.00067255 0.01063155 0.54509804 0.71372549 0.60000000
v -0.04525697 -0.00177551 0.01052994 0.54509804 0.71372549 0.60000000
v -0.04525697 -0.00188231 0.01051935 0.54509804 0.71372549 0.60000000
v -0.04211514 -0.00507855 0.00979537 0.54509804 0.71372549 0.60000000
v 0.05388756 -0.00297944 0.00842574 0.54509804 0.71372549 0.60000000
v -0.04171980 -0.00549216 0.00956887 0.54509804 0.71372549 0.60000000
v -0.04171980 -0.00657182 0.00895497 0.54509804 0.71372549 0.60000000
v 0.05261834 -0.00574071 0.00704341 0.54509804 0.71372549 0.60000000
v 0.05261834 -0.00651356 0.00643798 0.54509804 0.71372549 0.60000000
v -0.04293701 0.00450047 0.00962814 0.54509804 0.71372549 0.60000000
v -0.04367565 0.00602286 0.00858239 0.54509804 0.71372549 0.60000000
v -0.04525697 0.00541313 0.00881949 0.54509804 0.71372549 0.60000000
v -0.04525697 0.00436454 0.00948207 0.54509804 0.71372549 0.60000000
v -0.04525697 0.00381306 0.00982289 0.54509804 0.71372549 0.60000000
v -0.04293701 0.00389462 0.00987793 0.54509804 0.71372549 0.60000000
v -0.04414380 0.00295284 0.01017853 0.54509804 0.71372549 0.60000000
v -0.04525697 0.00184988 0.01047278 0.54509804 0.71372549 0.60000000
v -0.04525697 0.00174308 0.01049607 0.54509804 0.71372549 0.60000000
v -0.04525697 0.00064012 0.01060615 0.54509804 0.71372549 0.60000000
v -0.04525697 0.00053332 0.01061673 0.54509804 0.71372549 0.60000000
v -0.04525697 -0.00746311 0.00747737 0.54509804 0.71372549 0.60000000
v -0.04525697 -0.00814469 0.00660945 0.54509804 0.71372549 0.60000000
v -0.04525697 -0.00851170 0.00608234 0.54509804 0.71372549 0.60000000
v -0.04525697 -0.00878161 0.00560816 0.54509804 0.71372549 0.60000000
v -0.04525697 -0.00929814 0.00442269 0.54509804 0.71372549 0.60000000
v -0.04525697 0.00656075 0.00791346 0.54509804 0.71372549 0.60000000
v -0.04525697 -0.00309206 0.01025262 0.54509804 0.71372549 0.60000000
v -0.04253127 -0.00507855 0.00979537 0.54509804 0.71372549 0.60000000
v -0.04293701 -0.00549216 0.00946726 0.54509804 0.71372549 0.60000000
v -0.04293701 -0.00644948 0.00883219 0.54509804 0.71372549 0.60000000
v -0.04525697 0.00376063 0.00985465 0.54509804 0.71372549 0.60000000
v -0.04414380 0.00381501 0.00987582 0.54509804 0.71372549 0.60000000
v -0.04525697 0.00302857 0.01015736 0.54509804 0.71372549 0.60000000
v -0.04525697 0.00295284 0.01018488 0.54509804 0.71372549 0.60000000
v -0.04525697 -0.00739515 0.00753665 0.54509804 0.71372549 0.60000000
v -0.04525697 -0.00403968 0.00991392 0.54509804 0.71372549 0.60000000
v -0.04525697 -0.00464552 0.00959004 0.54509804 0.71372549 0.60000000
v -0.04525697 -0.00552711 0.00898884 0.54509804 0.71372549 0.60000000
v -0.04525697 -0.00558925 0.00894438 0.54509804 0.71372549 0.60000000
v -0.04525697 -0.00665920 0.00814208 0.54509804 0.71372549 0.60000000
f 1 2 3
f 1 3 4
f 1 4 5
f 1 5 6
f 1 6 7
f 1 7 8
f 1 8 9
f 1 9 2
f 2 10 11
f 2 11 12
f 2 12 3
f 2 9 10
f 3 12 13
f 3 13 4
f 4 13 14
f 4 14 5
f 5 15 6
f 5 14 15
f 6 15 16
f 6 16 7
f 7 17 18
f 7 18 19
f 7 19 20
f 7 20 21
f 7 21 22
f 7 22 23
f 7 23 8
f 7 16 17
f 8 23 9
f 9 23 24
f 9 24 25
f 9 25 26
f 9 26 10
f 10 27 11
f 10 26 27
f 11 27 12
f 12 28 29
f 12 29 30
f 12 30 31
f 12 31 13
f 12 27 32
f 12 32 28
f 13 31 33
f 13 33 34
f 13 34 14
f 14 34 35
f 14 35 36
f 14 36 37
f 14 37 38
f 14 38 39
f 14 39 15
f 15 39 40
f 15 40 41
f 15 41 42
f 15 42 16
f 16 42 18
f 16 18 17
f 18 43 44
f 18 44 45
f 18 45 46
f 18 46 47
f 18 47 48
f 18 48 19
f 18 42 49
f 18 49 43
f 19 48 20
f 20 48 47
f 20 47 46
f 20 46 45
f 20 45 78
f 20 78 109
f 20 109 149
f 20 149 148
f 20 148 147
f 20 147 146
f 20 146 189
f 20 189 188
f 20 188 227
f 20 227 266
f 20 266 265
f 20 265 264
f 20 264 263
f 20 263 262
f 20 262 307
f 20 307 306
f 20 306 305
f 20 305 303
f 20 303 335
f 20 335 334
f 20 334 333
f 20 333 332
f 20 332 331
f 20 331 345
f 20 345 350
f 20 350 349
f 20 349 348
f 20 348 347
f 20 347 346
f 20 346 337
f 20 337 313
f 20 313 312
f 20 312 311
f 20 311 310
f 20 310 330
f 20 330 329
f 20 329 328
f 20 328 327
f 20 327 344
f 20 344 343
f 20 343 341
f 20 341 324
f 20 324 323
f 20 323 322
f 20 322 336
f 20 336 309
f 20 309 276
f 20 276 275
f 20 275 274
f 20 274 273
f 20 273 272
f 20 272 271
f 20 271 308
f 20 308 268
f 20 268 229
f 20 229 197
f 20 197 196
f 20 196 195
f 20 195 193
f 20 193 154
f 20 154 192
f 20 192 191
f 20 191 199
f 20 199 198
f 20 198 164
f 20 164 130
f 20 130 129
f 20 129 127
f 20 127 126
f 20 126 163
f 20 163 150
f 20 150 110
f 20 110 80
f 20 80 55
f 20 55 53
f 20 53 52
f 20 52 51
f 20 51 50
f 20 50 22
f 20 22 21
f 22 50 23
f 23 50 24
f 24 50 51
f 24 51 52
f 24 52 53
f 24 53 25
f 25 54 26
f 25 53 55
f 25 55 54
f 26 54 56
f 26 56 57
f 26 57 27
f 27 57 32
f 28 58 29
f 28 32 58
f 29 59 60
f 29 60 61
f 29 61 30
f 29 58 62
f 29 62 63
f 29 63 59
f 30 61 64
f 30 64 33
f 30 33 31
f 32 65 62
f 32 62 58
f 32 57 65
f 33 66 67
f 33 67 34
f 33 64 66
f 34 67 68
f 34 68 69
f 34 69 35
f 35 69 70
f 35 70 36
f 36 71 37
f 36 70 71
f 37 71 72
f 37 72 38
f 38 72 39
f 39 72 73
f 39 73 74
f 39 74 40
f 40 74 49
f 40 49 41
f 41 49 42
f 43 75 76
f 43 76 44
f 43 49 75
f 44 76 77
f 44 77 78
f 44 78 45
f 49 74 79
f 49 79 75
f 54 55 80
f 54 80 56
f 56 80 81
f 56 81 82
f 56 82 65
f 56 65 57
f 59 83 60
f 59 63 84
f 59 84 85
f 59 85 86
f 59 86 83
f 60 87 61
f 60 83 88
f 60 88 89
f 60 89 90
f 60 90 91
f 60 91 87
f 61 87 64
f 62 65 92
f 62 92 93
f 62 93 94
f 62 94 63
f 63 94 95
f 63 95 84
f 64 87 66
f 65 82 92
f 66 91 96
f 66 96 67
f 66 87 91
f 67 96 97
f 67 97 98
f 67 98 99
f 67 99 68
f 68 99 69
f 69 99 70
f 70 99 71
f 71 99 100
f 71 100 101
f 71 101 102
f 71 102 103
f 71 103 104
f 71 104 72
f 72 104 105
f 72 105 106
f 72 106 73
f 73 79 74
f 73 106 107
f 73 107 79
f 75 107 77
f 75 77 76
f 75 79 107
f 77 107 108
f 77 108 78
f 78 108 109
f 80 110 81
f 81 111 112
f 81 112 82
f 81 110 111
f 82 112 92
f 83 86 113
f 83 113 114
f 83 114 115
f 83 115 88
f 84 116 117
f 84 117 85
f 84 95 118
f 84 118 119
f 84 119 116
f 85 113 86
f 85 117 113
f 88 115 89
f 89 115 120
f 89 120 121
f 89 121 122
f 89 122 123
f 89 123 90
f 90 123 91
f 91 123 96
f 92 112 111
f 92 111 124
f 92 124 93
f 93 124 125
f 93 125 126
f 93 126 127
f 93 127 128
f 93 128 94
f 94 128 129
f 94 129 95
f 95 129 130
f 95 130 118
f 96 123 97
f 97 131 132
f 97 132 98
f 97 123 122
f 97 122 133
f 97 133 134
f 97 134 131
f 98 132 135
f 98 135 99
f 99 135 136
f 99 136 100
f 100 136 101
f 101 136 135
f 101 135 137
f 101 137 138
f 101 138 139
f 101 139 140
f 101 140 102
f 102 140 103
f 103 140 104
f 104 140 139
f 104 139 141
f 104 141 142
f 104 142 105
f 105 142 143
f 105 143 107
f 105 107 106
f 107 143 144
f 107 144 108
f 108 144 145
f 108 145 146
f 108 146 147
f 108 147 148
f 108 148 149
f 108 149 109
f 110 150 111
f 111 150 124
f 113 117 151
f 113 151 114
f 114 152 115
f 114 151 119
f 114 119 153
f 114 153 154
f 114 154 152
f 115 152 155
f 115 155 156
f 115 156 120
f 116 151 117
f 116 119 151
f 118 130 157
f 118 157 158
f 118 158 119
f 119 158 153
f 120 159 121
f 120 156 159
f 121 160 122
f 121 159 161
f 121 161 162
f 121 162 160
f 122 160 133
f 124 150 163
f 124 163 125
f 125 163 126
f 127 129 128
f 130 164 157
f 131 134 165
f 131 165 166
f 131 166 167
f 131 167 132
f 132 167 168
f 132 168 135
f 133 160 169
f 133 169 170
f 133 170 171
f 133 171 172
f 133 172 134
f 134 172 173
f 134 173 165
f 135 174 175
f 135 175 137
f 135 168 174
f 137 175 138
f 138 176 139
f 138 175 177
f 138 177 178
f 138 178 179
f 138 179 176
f 139 176 179
f 139 179 180
f 139 180 181
f 139 181 182
f 139 182 141
f 141 182 183
f 141 183 184
f 141 184 142
f 142 184 185
f 142 185 143
f 143 185 186
f 143 186 145
f 143 145 144
f 145 187 188
f 145 188 189
f 145 189 146
f 145 186 190
f 145 190 187
f 152 154 155
f 153 158 191
f 153 191 192
f 153 192 154
f 154 193 155
f 155 193 156
f 156 194 159
f 156 193 195
f 156 195 196
f 156 196 197
f 156 197 194
f 157 164 158
f 158 164 198
f 158 198 199
f 158 199 191
f 159 162 161
f 159 194 200
f 159 200 162
f 160 162 169
f 162 201 202
f 162 202 169
f 162 200 203
f 162 203 204
f 162 204 205
f 162 205 201
f 165 173 206
f 165 206 166
f 166 206 207
f 166 207 208
f 166 208 167
f 167 208 209
f 167 209 168
f 168 209 174
f 169 171 170
f 169 202 210
f 169 210 171
f 171 211 212
f 171 212 172
f 171 210 213
f 171 213 214
f 171 214 211
f 172 212 173
f 173 212 211
f 173 211 206
f 174 209 215
f 174 215 175
f 175 215 216
f 175 216 217
f 175 217 218
f 175 218 177
f 177 218 178
f 178 218 219
f 178 219 220
f 178 220 221
f 178 221 179
f 179 221 222
f 179 222 180
f 180 183 181
f 180 222 223
f 180 223 183
f 181 183 182
f 183 223 224
f 183 224 184
f 184 224 225
f 184 225 190
f 184 190 185
f 185 190 186
f 187 190 225
f 187 225 188
f 188 225 226
f 188 226 227
f 194 228 200
f 194 197 229
f 194 229 228
f 200 228 203
f 201 230 231
f 201 231 210
f 201 210 202
f 201 205 230
f 203 228 232
f 203 232 204
f 204 232 233
f 204 233 234
f 204 234 205
f 205 235 236
f 205 236 237
f 205 237 230
f 205 234 235
f 206 211 238
f 206 238 239
f 206 239 207
f 207 239 240
f 207 240 241
f 207 241 208
f 208 216 215
f 208 215 209
f 208 241 242
f 208 242 216
f 210 231 243
f 210 243 244
f 210 244 245
f 210 245 246
f 210 246 213
f 211 214 238
f 213 246 247
f 213 247 214
f 214 247 248
f 214 248 249
f 214 249 250
f 214 250 238
f 216 242 251
f 216 251 252
f 216 252 217
f 217 252 253
f 217 253 254
f 217 254 255
f 217 255 256
f 217 256 218
f 218 256 257
f 218 257 258
f 218 258 259
f 218 259 260
f 218 260 219
f 219 260 220
f 220 260 261
f 220 261 221
f 221 261 262
f 221 262 263
f 221 263 264
f 221 264 222
f 222 264 265
f 222 265 223
f 223 265 226
f 223 226 225
f 223 225 224
f 226 265 266
f 226 266 227
f 228 229 267
f 228 267 232
f 229 268 269
f 229 269 267
f 230 237 231
f 231 237 243
f 232 267 233
f 233 267 269
f 233 269 270
f 233 270 234
f 234 270 271
f 234 271 272
f 234 272 273
f 234 273 274
f 234 274 275
f 234 275 276
f 234 276 277
f 234 277 278
f 234 278 279
f 234 279 235
f 235 280 236
f 235 279 280
f 236 281 237
f 236 280 281
f 237 281 243
f 238 250 282
f 238 282 239
f 239 282 240
f 240 282 283
f 240 283 284
f 240 284 241
f 241 284 242
f 242 284 285
f 242 285 286
f 242 286 287
f 242 287 251
f 243 288 289
f 243 289 244
f 243 281 280
f 243 280 290
f 243 290 291
f 243 291 288
f 244 289 245
f 245 289 246
f 246 289 292
f 246 292 293
f 246 293 247
f 247 293 248
f 248 293 249
f 249 293 294
f 249 294 295
f 249 295 250
f 250 295 296
f 250 296 282
f 251 287 297
f 251 297 252
f 252 297 253
f 253 297 298
f 253 298 299
f 253 299 254
f 254 299 300
f 254 300 301
f 254 301 255
f 255 301 256
f 256 301 257
f 257 301 302
f 257 302 303
f 257 303 304
f 257 304 258
f 258 304 259
f 259 304 303
f 259 303 305
f 259 305 260
f 260 305 306
f 260 306 261
f 261 306 307
f 261 307 262
f 268 308 270
f 268 270 269
f 270 308 271
f 276 309 277
f 277 309 290
f 277 290 278
f 278 290 279
f 279 290 280
f 282 310 311
f 282 311 312
f 282 312 313
f 282 313 283
f 282 296 310
f 283 313 314
f 283 314 284
f 284 314 315
f 284 315 285
f 285 315 314
f 285 314 316
f 285 316 317
f 285 317 286
f 286 318 319
f 286 319 287
f 286 317 318
f 287 319 298
f 287 298 297
f 288 291 289
f 289 291 320
f 289 320 292
f 290 309 321
f 290 321 291
f 291 321 322
f 291 322 323
f 291 323 324
f 291 324 320
f 292 320 293
f 293 320 325
f 293 325 326
f 293 326 294
f 294 326 327
f 294 327 295
f 295 327 328
f 295 328 296
f 296 328 329
f 296 329 330
f 296 330 310
f 298 319 317
f 298 317 300
f 298 300 299
f 300 317 331
f 300 331 332
f 300 332 302
f 300 302 301
f 302 332 333
f 302 333 334
f 302 334 335
f 302 335 303
f 309 336 321
f 313 337 314
f 314 337 338
f 314 338 316
f 316 338 317
f 317 338 339
f 317 339 340
f 317 340 331
f 317 319 318
f 320 324 341
f 320 341 342
f 320 342 325
f 321 336 322
f 325 342 343
f 325 343 344
f 325 344 326
f 326 344 327
f 331 340 345
f 337 346 338
f 338 346 347
f 338 347 339
f 339 347 340
f 340 347 348
f 340 348 349
f 340 349 350
f 340 350 345
f 341 343 342

