# https://github.com/mikedh/trimesh
v -0.05745911 -0.01014124 0.00067605 0.54117647 0.42352941 0.64313725
v -0.05866744 -0.01009840 0.00147603 0.54117647 0.42352941 0.64313725
v -0.05866590 -0.01010814 0.00067605 0.54117647 0.42352941 0.64313725
v -0.05866590 -0.00998351 -0.00053373 0.54117647 0.42352941 0.64313725
v -0.05745911 -0.01001272 -0.00053373 0.54117647 0.42352941 0.64313725
v -0.05624923 -0.01001077 -0.00053373 0.54117647 0.42352941 0.64313725
v -0.05624923 -0.01013540 0.00067605 0.54117647 0.42352941 0.64313725
v -0.05624923 -0.01012177 0.00147603 0.54117647 0.42352941 0.64313725
v -0.05624769 -0.01011398 0.00188582 0.54117647 0.42352941 0.64313725
v -0.05745911 -0.01011787 0.00188582 0.54117647 0.42352941 0.64313725
v -0.05866744 -0.01009256 0.00188582 0.54117647 0.42352941 0.64313725
v -0.05963966 -0.00990756 0.00188582 0.54117647 0.42352941 0.64313725
v -0.05965046 -0.00990951 0.00147603 0.54117647 0.42352941 0.64313725
v -0.05966435 -0.00990951 0.00067605 0.54117647 0.42352941 0.64313725
v -0.05953009 -0.00984720 -0.00053373 0.54117647 0.42352941 0.64313725
v -0.05936805 -0.00978099 -0.00127881 0.54117647 0.42352941 0.64313725
v -0.05866590 -0.00981409 -0.00139450 0.54117647 0.42352941 0.64313725
v -0.05745911 -0.00983162 -0.00143567 0.54117647 0.42352941 0.64313725
v -0.05624923 -0.00982773 -0.00141999 0.54117647 0.42352941 0.64313725
v -0.05503627 -0.00982188 -0.00140626 0.54117647 0.42352941 0.64313725
v -0.05503627 -0.00999909 -0.00053373 0.54117647 0.42352941 0.64313725
v -0.05503627 -0.01011982 0.00067605 0.54117647 0.42352941 0.64313725
v -0.05503936 -0.01009450 0.00188582 0.54117647 0.42352941 0.64313725
v -0.05503936 -0.00992704 0.00309560 0.54117647 0.42352941 0.64313725
v -0.05624769 -0.00994262 0.00309560 0.54117647 0.42352941 0.64313725
v -0.05745911 -0.00995040 0.00309560 0.54117647 0.42352941 0.64313725
v -0.05866744 -0.00992509 0.00309560 0.54117647 0.42352941 0.64313725
v -0.05944522 -0.00981994 0.00309560 0.54117647 0.42352941 0.64313725
v -0.06024614 -0.00951810 0.00188582 0.54117647 0.42352941 0.64313725
v -0.06025540 -0.00953368 0.00147603 0.54117647 0.42352941 0.64313725
v -0.06027238 -0.00956095 0.00067605 0.54117647 0.42352941 0.64313725
v -0.06013657 -0.00950642 -0.00053373 0.54117647 0.42352941 0.64313725
v -0.05981250 -0.00938958 -0.00170429 0.54117647 0.42352941 0.64313725
v -0.05994213 -0.00887355 -0.00297877 0.54117647 0.42352941 0.64313725
v -0.05958410 -0.00868271 -0.00381797 0.54117647 0.42352941 0.64313725
v -0.05866590 -0.00926690 -0.00295328 0.54117647 0.42352941 0.64313725
v -0.05866590 -0.00964078 -0.00200233 0.54117647 0.42352941 0.64313725
v -0.05745911 -0.00965052 -0.00204154 0.54117647 0.42352941 0.64313725
v -0.05503627 -0.00964273 -0.00201213 0.54117647 0.42352941 0.64313725
v -0.05383103 -0.00981409 -0.00138665 0.54117647 0.42352941 0.64313725
v -0.05383103 -0.00963689 -0.00199056 0.54117647 0.42352941 0.64313725
v -0.04709647 -0.00974594 -0.00114352 0.54117647 0.42352941 0.64313725
v -0.05383103 -0.00997767 -0.00053373 0.54117647 0.42352941 0.64313725
v -0.04525697 -0.00982773 -0.00038472 0.54117647 0.42352941 0.64313725
v -0.04525697 -0.00992704 0.00067605 0.54117647 0.42352941 0.64313725
v -0.05382794 -0.01006724 0.00188582 0.54117647 0.42352941 0.64313725
v -0.04525697 -0.00977320 0.00264267 0.54117647 0.42352941 0.64313725
v -0.05382794 -0.00990172 0.00309560 0.54117647 0.42352941 0.64313725
v -0.04525697 -0.00992314 0.00078193 0.54117647 0.42352941 0.64313725
v -0.05382794 -0.00976541 0.00377009 0.54117647 0.42352941 0.64313725
v -0.05503936 -0.00977320 0.00379950 0.54117647 0.42352941 0.64313725
v -0.05745911 -0.00978878 0.00384656 0.54117647 0.42352941 0.64313725
v -0.05866744 -0.00977125 0.00379558 0.54117647 0.42352941 0.64313725
v -0.05928627 -0.00974983 0.00372304 0.54117647 0.42352941 0.64313725
v -0.06005015 -0.00941100 0.00309560 0.54117647 0.42352941 0.64313725
v -0.06055324 -0.00864571 0.00430538 0.54117647 0.42352941 0.64313725
v -0.06062577 -0.00880539 0.00309560 0.54117647 0.42352941 0.64313725
v -0.06065973 -0.00891249 0.00188582 0.54117647 0.42352941 0.64313725
v -0.06067053 -0.00893002 0.00147603 0.54117647 0.42352941 0.64313725
v -0.06039738 -0.00932922 0.00147603 0.54117647 0.42352941 0.64313725
v -0.06069059 -0.00895923 0.00067605 0.54117647 0.42352941 0.64313725
v -0.06068596 -0.00890081 -0.00053373 0.54117647 0.42352941 0.64313725
v -0.06062577 -0.00875476 -0.00174351 0.54117647 0.42352941 0.64313725
v -0.06055016 -0.00862429 -0.00259251 0.54117647 0.42352941 0.64313725
v -0.06039120 -0.00844514 -0.00339837 0.54117647 0.42352941 0.64313725
v -0.05994213 -0.00821926 -0.00419639 0.54117647 0.42352941 0.64313725
v -0.05987886 -0.00760391 -0.00508265 0.54117647 0.42352941 0.64313725
v -0.05866590 -0.00778890 -0.00533166 0.54117647 0.42352941 0.64313725
v -0.05866590 -0.00839257 -0.00455521 0.54117647 0.42352941 0.64313725
v -0.05866590 -0.00876839 -0.00395130 0.54117647 0.42352941 0.64313725
v -0.05745911 -0.00928832 -0.00295328 0.54117647 0.42352941 0.64313725
v -0.05503627 -0.00927274 -0.00295328 0.54117647 0.42352941 0.64313725
v -0.05383103 -0.00926496 -0.00295328 0.54117647 0.42352941 0.64313725
v -0.04664585 -0.00959989 -0.00162586 0.54117647 0.42352941 0.64313725
v -0.04525697 -0.00915591 -0.00295328 0.54117647 0.42352941 0.64313725
v -0.04629091 -0.00973815 -0.00110431 0.54117647 0.42352941 0.64313725
v -0.04525697 -0.00971868 -0.00093568 0.54117647 0.42352941 0.64313725
v -0.04525697 -0.00987251 0.00188582 0.54117647 0.42352941 0.64313725
v -0.04525697 -0.00976346 0.00269561 0.54117647 0.42352941 0.64313725
v -0.04525697 -0.00965442 0.00324854 0.54117647 0.42352941 0.64313725
v -0.05296992 -0.00975373 0.00373480 0.54117647 0.42352941 0.64313725
v -0.05382794 -0.00956289 0.00437400 0.54117647 0.42352941 0.64313725
v -0.05503936 -0.00958042 0.00440537 0.54117647 0.42352941 0.64313725
v -0.05624769 -0.00959405 0.00442890 0.54117647 0.42352941 0.64313725
v -0.05745911 -0.00959989 0.00445243 0.54117647 0.42352941 0.64313725
v -0.05866744 -0.00958431 0.00440145 0.54117647 0.42352941 0.64313725
v -0.05866744 -0.00912864 0.00551515 0.54117647 0.42352941 0.64313725
v -0.05941744 -0.00861650 0.00626023 0.54117647 0.42352941 0.64313725
v -0.05984491 -0.00876255 0.00540927 0.54117647 0.42352941 0.64313725
v -0.05976620 -0.00928053 0.00419753 0.54117647 0.42352941 0.64313725
v -0.06049151 -0.00854835 0.00493673 0.54117647 0.42352941 0.64313725
v -0.06075386 -0.00792911 0.00430538 0.54117647 0.42352941 0.64313725
v -0.06083719 -0.00792911 0.00309560 0.54117647 0.42352941 0.64313725
v -0.06092052 -0.00793106 -0.00053373 0.54117647 0.42352941 0.64313725
v -0.06089429 -0.00793106 -0.00174351 0.54117647 0.42352941 0.64313725
v -0.06070910 -0.00799532 -0.00297877 0.54117647 0.42352941 0.64313725
v -0.06061651 -0.00760586 -0.00416110 0.54117647 0.42352941 0.64313725
v -0.06052392 -0.00738387 -0.00483560 0.54117647 0.42352941 0.64313725
v -0.05987886 -0.00704504 -0.00568852 0.54117647 0.42352941 0.64313725
v -0.05866590 -0.00728845 -0.00593753 0.54117647 0.42352941 0.64313725
v -0.05745911 -0.00779475 -0.00535323 0.54117647 0.42352941 0.64313725
v -0.05745911 -0.00730987 -0.00595910 0.54117647 0.42352941 0.64313725
v -0.05624923 -0.00841204 -0.00457286 0.54117647 0.42352941 0.64313725
v -0.05745911 -0.00877813 -0.00396111 0.54117647 0.42352941 0.64313725
v -0.05624923 -0.00877424 -0.00396699 0.54117647 0.42352941 0.64313725
v -0.05383103 -0.00876839 -0.00396503 0.54117647 0.42352941 0.64313725
v -0.04525697 -0.00874697 -0.00387875 0.54117647 0.42352941 0.64313725
v -0.04525697 -0.00951226 -0.00173959 0.54117647 0.42352941 0.64313725
v -0.04525697 -0.00934869 0.00430538 0.54117647 0.42352941 0.64313725
v -0.05503936 -0.00913059 0.00551515 0.54117647 0.42352941 0.64313725
v -0.05624769 -0.00915201 0.00551515 0.54117647 0.42352941 0.64313725
v -0.05745911 -0.00916759 0.00551515 0.54117647 0.42352941 0.64313725
v -0.05745911 -0.00870803 0.00639945 0.54117647 0.42352941 0.64313725
v -0.05866744 -0.00868466 0.00636611 0.54117647 0.42352941 0.64313725
v -0.05866744 -0.00830104 0.00697198 0.54117647 0.42352941 0.64313725
v -0.05957639 -0.00756496 0.00761314 0.54117647 0.42352941 0.64313725
v -0.05990201 -0.00790574 0.00668179 0.54117647 0.42352941 0.64313725
v -0.06038349 -0.00713072 0.00710531 0.54117647 0.42352941 0.64313725
v -0.06053318 -0.00744034 0.00629945 0.54117647 0.42352941 0.64313725
v -0.06059182 -0.00787653 0.00540927 0.54117647 0.42352941 0.64313725
v -0.06060571 -0.00672373 0.00670924 0.54117647 0.42352941 0.64313725
v -0.06059336 -0.00548525 0.00793275 0.54117647 0.42352941 0.64313725
v -0.06066590 -0.00067348 0.00914252 0.54117647 0.42352941 0.64313725
v -0.06067207 0.00053385 0.00914252 0.54117647 0.42352941 0.64313725
v -0.06078318 0.00658216 0.00551515 0.54117647 0.42352941 0.64313725
v -0.06087731 0.00779143 0.00067605 0.54117647 0.42352941 0.64313725
v -0.06102238 -0.00067153 -0.00657869 0.54117647 0.42352941 0.64313725
v -0.06099460 -0.00188080 -0.00657869 0.54117647 0.42352941 0.64313725
v -0.06091898 -0.00671984 -0.00295328 0.54117647 0.42352941 0.64313725
v -0.06085108 -0.00671984 -0.00416110 0.54117647 0.42352941 0.64313725
v -0.06062886 -0.00664779 -0.00529049 0.54117647 0.42352941 0.64313725
v -0.06052546 -0.00619407 -0.00603949 0.54117647 0.42352941 0.64313725
v -0.05987886 -0.00644137 -0.00626301 0.54117647 0.42352941 0.64313725
v -0.05866590 -0.00668284 -0.00645321 0.54117647 0.42352941 0.64313725
v -0.05624923 -0.00780643 -0.00534735 0.54117647 0.42352941 0.64313725
v -0.05383103 -0.00730792 -0.00595518 0.54117647 0.42352941 0.64313725
v -0.05383103 -0.00780838 -0.00535127 0.54117647 0.42352941 0.64313725
v -0.05745911 -0.00670426 -0.00645517 0.54117647 0.42352941 0.64313725
v -0.05383103 -0.00670036 -0.00646301 0.54117647 0.42352941 0.64313725
v -0.05503627 -0.00841593 -0.00457678 0.54117647 0.42352941 0.64313725
v -0.05383103 -0.00841204 -0.00457090 0.54117647 0.42352941 0.64313725
v -0.04525697 -0.00832831 -0.00448266 0.54117647 0.42352941 0.64313725
v -0.04525697 -0.00929806 0.00442302 0.54117647 0.42352941 0.64313725
v -0.05382794 -0.00909359 0.00551515 0.54117647 0.42352941 0.64313725
v -0.04591437 -0.00853861 0.00612690 0.54117647 0.42352941 0.64313725
v -0.05382794 -0.00866908 0.00633278 0.54117647 0.42352941 0.64313725
v -0.05503936 -0.00869050 0.00636023 0.54117647 0.42352941 0.64313725
v -0.05745911 -0.00831078 0.00700531 0.54117647 0.42352941 0.64313725
v -0.05866744 -0.00769543 0.00777196 0.54117647 0.42352941 0.64313725
v -0.05866744 -0.00716187 0.00837587 0.54117647 0.42352941 0.64313725
v -0.05956713 -0.00639464 0.00875233 0.54117647 0.42352941 0.64313725
v -0.05997762 -0.00676268 0.00797588 0.54117647 0.42352941 0.64313725
v -0.06054706 -0.00632259 0.00753079 0.54117647 0.42352941 0.64313725
v -0.06037269 -0.00586887 0.00833666 0.54117647 0.42352941 0.64313725
v -0.06052392 -0.00506269 0.00862881 0.54117647 0.42352941 0.64313725
v -0.06056250 -0.00430129 0.00879351 0.54117647 0.42352941 0.64313725
v -0.06056404 -0.00188080 0.00988368 0.54117647 0.42352941 0.64313725
v -0.06060571 -0.00067348 0.00996995 0.54117647 0.42352941 0.64313725
v -0.06066281 0.00174507 0.00914252 0.54117647 0.42352941 0.64313725
v -0.06070447 0.00416361 0.00793275 0.54117647 0.42352941 0.64313725
v -0.06060416 -0.00033465 0.00996407 0.54117647 0.42352941 0.64313725
v -0.06062731 0.00537678 0.00794843 0.54117647 0.42352941 0.64313725
v -0.06062886 0.00657826 0.00670532 0.54117647 0.42352941 0.64313725
v -0.06062423 0.00752270 0.00551515 0.54117647 0.42352941 0.64313725
v -0.06066744 0.00787127 0.00433675 0.54117647 0.42352941 0.64313725
v -0.06078318 0.00779143 0.00309560 0.54117647 0.42352941 0.64313725
v -0.06083874 0.00779143 0.00167798 0.54117647 0.42352941 0.64313725
v -0.06066127 0.00869887 0.00067605 0.54117647 0.42352941 0.64313725
v -0.06088966 0.00779143 -0.00053373 0.54117647 0.42352941 0.64313725
v -0.06067053 0.00851582 0.00167798 0.54117647 0.42352941 0.64313725
v -0.06101620 -0.00033270 -0.00657869 0.54117647 0.42352941 0.64313725
v -0.06085725 -0.00033270 -0.00736495 0.54117647 0.42352941 0.64313725
v -0.06080170 -0.00067153 -0.00766887 0.54117647 0.42352941 0.64313725
v -0.06091126 0.00658216 -0.00295328 0.54117647 0.42352941 0.64313725
v -0.06076311 -0.00188080 -0.00761004 0.54117647 0.42352941 0.64313725
v -0.06092515 -0.00309007 -0.00657869 0.54117647 0.42352941 0.64313725
v -0.06085879 -0.00551057 -0.00537088 0.54117647 0.42352941 0.64313725
v -0.06062114 -0.00551057 -0.00626498 0.54117647 0.42352941 0.64313725
v -0.06058719 -0.00399557 -0.00732574 0.54117647 0.42352941 0.64313725
v -0.06040509 -0.00480175 -0.00710417 0.54117647 0.42352941 0.64313725
v -0.05995293 -0.00555535 -0.00688261 0.54117647 0.42352941 0.64313725
v -0.05959800 -0.00518147 -0.00734730 0.54117647 0.42352941 0.64313725
v -0.05866590 -0.00592144 -0.00705907 0.54117647 0.42352941 0.64313725
v -0.04525697 -0.00684057 -0.00632380 0.54117647 0.42352941 0.64313725
v -0.04525697 -0.00729040 -0.00594145 0.54117647 0.42352941 0.64313725
v -0.05624923 -0.00593508 -0.00706496 0.54117647 0.42352941 0.64313725
v -0.05503627 -0.00593702 -0.00706692 0.54117647 0.42352941 0.64313725
v -0.05383103 -0.00593508 -0.00706692 0.54117647 0.42352941 0.64313725
v -0.04525697 -0.00762338 -0.00548852 0.54117647 0.42352941 0.64313725
v -0.04525697 -0.00878203 0.00560927 0.54117647 0.42352941 0.64313725
v -0.04525697 -0.00851135 0.00608377 0.54117647 0.42352941 0.64313725
v -0.04525697 -0.00814331 0.00661121 0.54117647 0.42352941 0.64313725
v -0.04657487 -0.00750460 0.00752491 0.54117647 0.42352941 0.64313725
v -0.05382794 -0.00825431 0.00693473 0.54117647 0.42352941 0.64313725
v -0.05503936 -0.00827573 0.00696610 0.54117647 0.42352941 0.64313725
v -0.05624769 -0.00829715 0.00698571 0.54117647 0.42352941 0.64313725
v -0.05745911 -0.00770517 0.00777785 0.54117647 0.42352941 0.64313725
v -0.05745911 -0.00717356 0.00838372 0.54117647 0.42352941 0.64313725
v -0.05745911 -0.00656795 0.00892292 0.54117647 0.42352941 0.64313725
v -0.05866744 -0.00655432 0.00890331 0.54117647 0.42352941 0.64313725
v -0.05866744 -0.00575982 0.00950722 0.54117647 0.42352941 0.64313725
v -0.05940972 -0.00503737 0.00982878 0.54117647 0.42352941 0.64313725
v -0.05989275 -0.00545215 0.00909546 0.54117647 0.42352941 0.64313725
v -0.06023843 -0.00430129 0.00939938 0.54117647 0.42352941 0.64313725
v -0.06042361 -0.00345422 0.00959545 0.54117647 0.42352941 0.64313725
v -0.06051003 -0.00264804 0.00979153 0.54117647 0.42352941 0.64313725
v -0.05979553 -0.00188470 0.01056406 0.54117647 0.42352941 0.64313725
v -0.06002392 -0.00067348 0.01057386 0.54117647 0.42352941 0.64313725
v -0.06004090 0.00053385 0.01055818 0.54117647 0.42352941 0.64313725
v -0.06059799 0.00053385 0.00995427 0.54117647 0.42352941 0.64313725
v -0.06060726 0.00290760 0.00917978 0.54117647 0.42352941 0.64313725
v -0.06059490 0.00416361 0.00881900 0.54117647 0.42352941 0.64313725
v -0.06054398 0.00497758 0.00865038 0.54117647 0.42352941 0.64313725
v -0.06055479 0.00617128 0.00755432 0.54117647 0.42352941 0.64313725
v -0.06054398 0.00730071 0.00629161 0.54117647 0.42352941 0.64313725
v -0.06043441 0.00832693 0.00476027 0.54117647 0.42352941 0.64313725
v -0.06052855 0.00846909 0.00395440 0.54117647 0.42352941 0.64313725
v -0.06058102 0.00856840 0.00309560 0.54117647 0.42352941 0.64313725
v -0.06062731 0.00866382 0.00188582 0.54117647 0.42352941 0.64313725
v -0.05999768 0.00930253 0.00067605 0.54117647 0.42352941 0.64313725
v -0.06064583 0.00864240 -0.00053373 0.54117647 0.42352941 0.64313725
v -0.06063349 0.00866966 0.00167798 0.54117647 0.42352941 0.64313725
v -0.06002546 0.00926748 0.00188582 0.54117647 0.42352941 0.64313725
v -0.06002083 0.00927527 0.00167798 0.54117647 0.42352941 0.64313725
v -0.06080787 0.00779143 -0.00174351 0.54117647 0.42352941 0.64313725
v -0.06099923 0.00053580 -0.00657869 0.54117647 0.42352941 0.64313725
v -0.06078164 0.00053580 -0.00763749 0.54117647 0.42352941 0.64313725
v -0.06044213 -0.00033270 -0.00809631 0.54117647 0.42352941 0.64313725
v -0.06030941 -0.00067153 -0.00827277 0.54117647 0.42352941 0.64313725
v -0.06073534 0.00668731 -0.00426110 0.54117647 0.42352941 0.64313725
v -0.06075231 0.00546441 -0.00546107 0.54117647 0.42352941 0.64313725
v -0.06092207 0.00537288 -0.00415914 0.54117647 0.42352941 0.64313725
v -0.06068904 -0.00309007 -0.00747475 0.54117647 0.42352941 0.64313725
v -0.06021528 -0.00188080 -0.00821591 0.54117647 0.42352941 0.64313725
v -0.06072762 -0.00436166 -0.00665124 0.54117647 0.42352941 0.64313725
v -0.05985417 -0.00309786 -0.00810219 0.54117647 0.42352941 0.64313725
v -0.05995293 -0.00436166 -0.00756887 0.54117647 0.42352941 0.64313725
v -0.05943287 -0.00269867 -0.00846493 0.54117647 0.42352941 0.64313725
v -0.05866590 -0.00429935 -0.00793945 0.54117647 0.42352941 0.64313725
v -0.05866590 -0.00531778 -0.00742769 0.54117647 0.42352941 0.64313725
v -0.04525697 -0.00678020 -0.00636889 0.54117647 0.42352941 0.64313725
v -0.05624923 -0.00533141 -0.00743162 0.54117647 0.42352941 0.64313725
v -0.05503627 -0.00533141 -0.00743358 0.54117647 0.42352941 0.64313725
v -0.04778320 -0.00590002 -0.00704535 0.54117647 0.42352941 0.64313725
v -0.05383103 -0.00532947 -0.00743162 0.54117647 0.42352941 0.64313725
v -0.04778320 -0.00529636 -0.00741397 0.54117647 0.42352941 0.64313725
v -0.04525697 -0.00746370 0.00747589 0.54117647 0.42352941 0.64313725
v -0.04657487 -0.00688146 0.00812882 0.54117647 0.42352941 0.64313725
v -0.05503936 -0.00711903 0.00833470 0.54117647 0.42352941 0.64313725
v -0.05624769 -0.00715019 0.00836215 0.54117647 0.42352941 0.64313725
v -0.05382794 -0.00765065 0.00769746 0.54117647 0.42352941 0.64313725
v -0.05503936 -0.00767207 0.00772883 0.54117647 0.42352941 0.64313725
v -0.05624769 -0.00768959 0.00775628 0.54117647 0.42352941 0.64313725
v -0.05745911 -0.00577929 0.00952683 0.54117647 0.42352941 0.64313725
v -0.05624769 -0.00654458 0.00889743 0.54117647 0.42352941 0.64313725
v -0.05866744 -0.00515616 0.00989349 0.54117647 0.42352941 0.64313725
v -0.05866744 -0.00430129 0.01030720 0.54117647 0.42352941 0.64313725
v -0.05892515 -0.00228973 0.01092680 0.54117647 0.42352941 0.64313725
v -0.05963503 -0.00430129 0.01000329 0.54117647 0.42352941 0.64313725
v -0.05996374 -0.00306671 0.01015230 0.54117647 0.42352941 0.64313725
v -0.05933719 -0.00148355 0.01098758 0.54117647 0.42352941 0.64313725
v -0.05941898 -0.00067348 0.01102876 0.54117647 0.42352941 0.64313725
v -0.05942361 -0.00033465 0.01103268 0.54117647 0.42352941 0.64313725
v -0.05986034 -0.00033465 0.01070327 0.54117647 0.42352941 0.64313725
v -0.05943442 0.00053385 0.01103856 0.54117647 0.42352941 0.64313725
v -0.05935725 0.00141792 0.01100130 0.54117647 0.42352941 0.64313725
v -0.05980787 0.00178986 0.01055229 0.54117647 0.42352941 0.64313725
v -0.06050386 0.00247530 0.00978172 0.54117647 0.42352941 0.64313725
v -0.06055016 0.00174507 0.00986211 0.54117647 0.42352941 0.64313725
v -0.06037114 0.00578376 0.00836215 0.54117647 0.42352941 0.64313725
v -0.06040355 0.00327954 0.00960722 0.54117647 0.42352941 0.64313725
v -0.06016898 0.00416361 0.00942487 0.54117647 0.42352941 0.64313725
v -0.05985417 0.00530668 0.00909154 0.54117647 0.42352941 0.64313725
v -0.06032176 0.00697551 0.00709747 0.54117647 0.42352941 0.64313725
v -0.06015355 0.00812831 0.00551515 0.54117647 0.42352941 0.64313725
v -0.05954707 0.00856061 0.00551515 0.54117647 0.42352941 0.64313725
v -0.05996991 0.00877871 0.00433675 0.54117647 0.42352941 0.64313725
v -0.05979553 0.00923048 0.00306227 0.54117647 0.42352941 0.64313725
v -0.05938966 0.00965110 0.00067605 0.54117647 0.42352941 0.64313725
v -0.05929861 0.00961605 0.00002312 0.54117647 0.42352941 0.64313725
v -0.05977238 0.00928111 -0.00043962 0.54117647 0.42352941 0.64313725
v -0.06056559 0.00851193 -0.00174351 0.54117647 0.42352941 0.64313725
v -0.05951929 0.00960241 0.00167798 0.54117647 0.42352941 0.64313725
v -0.05941435 0.00966278 0.00167798 0.54117647 0.42352941 0.64313725
v -0.05933719 0.00963162 0.00263875 0.54117647 0.42352941 0.64313725
v -0.05941898 0.00966278 0.00188582 0.54117647 0.42352941 0.64313725
v -0.06050540 0.00842235 -0.00240624 0.54117647 0.42352941 0.64313725
v -0.06065509 0.00778948 -0.00286897 0.54117647 0.42352941 0.64313725
v -0.06093595 0.00174507 -0.00657869 0.54117647 0.42352941 0.64313725
v -0.06093132 0.00416556 -0.00537088 0.54117647 0.42352941 0.64313725
v -0.06084491 0.00295434 -0.00657869 0.54117647 0.42352941 0.64313725
v -0.06070910 0.00174507 -0.00752573 0.54117647 0.42352941 0.64313725
v -0.06026312 0.00053580 -0.00824336 0.54117647 0.42352941 0.64313725
v -0.06029861 -0.00033270 -0.00826493 0.54117647 0.42352941 0.64313725
v -0.05965818 0.00053580 -0.00857081 0.54117647 0.42352941 0.64313725
v -0.05970756 -0.00067153 -0.00859237 0.54117647 0.42352941 0.64313725
v -0.05960880 -0.00188080 -0.00854140 0.54117647 0.42352941 0.64313725
v -0.06062577 0.00635432 -0.00511990 0.54117647 0.42352941 0.64313725
v -0.06059336 0.00738639 -0.00392581 0.54117647 0.42352941 0.64313725
v -0.06061806 0.00512168 -0.00619831 0.54117647 0.42352941 0.64313725
v -0.06068596 0.00410519 -0.00659242 0.54117647 0.42352941 0.64313725
v -0.05866590 -0.00341332 -0.00830022 0.54117647 0.42352941 0.64313725
v -0.05866590 -0.00188080 -0.00868649 0.54117647 0.42352941 0.64313725
v -0.05866590 -0.00280772 -0.00849630 0.54117647 0.42352941 0.64313725
v -0.05745911 -0.00429935 -0.00794337 0.54117647 0.42352941 0.64313725
v -0.04525697 -0.00590781 -0.00699241 0.54117647 0.42352941 0.64313725
v -0.05503627 -0.00429935 -0.00795121 0.54117647 0.42352941 0.64313725
v -0.04525697 -0.00583576 -0.00704143 0.54117647 0.42352941 0.64313725
v -0.05383103 -0.00429935 -0.00794729 0.54117647 0.42352941 0.64313725
v -0.04778320 -0.00429935 -0.00792376 0.54117647 0.42352941 0.64313725
v -0.04657332 -0.00526521 -0.00740417 0.54117647 0.42352941 0.64313725
v -0.04525697 -0.00739360 0.00753472 0.54117647 0.42352941 0.64313725
v -0.04572301 -0.00621354 0.00861900 0.54117647 0.42352941 0.64313725
v -0.04657487 -0.00627585 0.00866606 0.54117647 0.42352941 0.64313725
v -0.05503936 -0.00651342 0.00887782 0.54117647 0.42352941 0.64313725
v -0.05503936 -0.00570919 0.00948173 0.54117647 0.42352941 0.64313725
v -0.05503936 -0.00510747 0.00986407 0.54117647 0.42352941 0.64313725
v -0.05745911 -0.00517758 0.00990721 0.54117647 0.42352941 0.64313725
v -0.05745911 -0.00430129 0.01033661 0.54117647 0.42352941 0.64313725
v -0.05740355 -0.00298102 0.01081503 0.54117647 0.42352941 0.64313725
v -0.05857948 -0.00298102 0.01078562 0.54117647 0.42352941 0.64313725
v -0.05811806 -0.00250394 0.01096209 0.54117647 0.42352941 0.64313725
v -0.05857948 -0.00188470 0.01101895 0.54117647 0.42352941 0.64313725
v -0.05866744 -0.00067348 0.01115032 0.54117647 0.42352941 0.64313725
v -0.05866744 0.00053385 0.01116405 0.54117647 0.42352941 0.64313725
v -0.05860726 0.00178986 0.01103268 0.54117647 0.42352941 0.64313725
v -0.05896837 0.00222410 0.01093464 0.54117647 0.42352941 0.64313725
v -0.05956405 0.00416361 0.00994446 0.54117647 0.42352941 0.64313725
v -0.05995139 0.00290760 0.01013466 0.54117647 0.42352941 0.64313725
v -0.05956405 0.00618491 0.00872685 0.54117647 0.42352941 0.64313725
v -0.05994367 0.00658021 0.00793667 0.54117647 0.42352941 0.64313725
v -0.05933873 0.00482764 0.00978172 0.54117647 0.42352941 0.64313725
v -0.05951466 0.00733187 0.00751119 0.54117647 0.42352941 0.64313725
v -0.05980324 0.00771938 0.00661121 0.54117647 0.42352941 0.64313725
v -0.05928627 0.00840288 0.00612886 0.54117647 0.42352941 0.64313725
v -0.05866744 0.00926358 0.00430538 0.54117647 0.42352941 0.64313725
v -0.05866590 0.00971536 0.00067605 0.54117647 0.42352941 0.64313725
v -0.05866590 0.00963747 -0.00010825 0.54117647 0.42352941 0.64313725
v -0.05866590 0.00953036 -0.00071216 0.54117647 0.42352941 0.64313725
v -0.05866590 0.00926358 -0.00174351 0.54117647 0.42352941 0.64313725
v -0.05987886 0.00892475 -0.00174351 0.54117647 0.42352941 0.64313725
v -0.05866744 0.00972509 0.00188582 0.54117647 0.42352941 0.64313725
v -0.05866744 0.00953815 0.00332893 0.54117647 0.42352941 0.64313725
v -0.05866744 0.00964720 0.00272502 0.54117647 0.42352941 0.64313725
v -0.05980941 0.00856061 -0.00286897 0.54117647 0.42352941 0.64313725
v -0.05936034 0.00843209 -0.00361602 0.54117647 0.42352941 0.64313725
v -0.06016744 0.00819257 -0.00321406 0.54117647 0.42352941 0.64313725
v -0.06045911 0.00716050 -0.00473168 0.54117647 0.42352941 0.64313725
v -0.06060416 0.00295434 -0.00735123 0.54117647 0.42352941 0.64313725
v -0.06009645 0.00174507 -0.00812964 0.54117647 0.42352941 0.64313725
v -0.05949151 0.00174507 -0.00849042 0.54117647 0.42352941 0.64313725
v -0.05866590 0.00053580 -0.00875119 0.54117647 0.42352941 0.64313725
v -0.05866590 -0.00033270 -0.00878060 0.54117647 0.42352941 0.64313725
v -0.05894367 -0.00033270 -0.00872963 0.54117647 0.42352941 0.64313725
v -0.05866590 -0.00067153 -0.00879041 0.54117647 0.42352941 0.64313725
v -0.06044059 0.00592786 -0.00592577 0.54117647 0.42352941 0.64313725
v -0.06052546 0.00366121 -0.00723162 0.54117647 0.42352941 0.64313725
v -0.05503627 -0.00341917 -0.00830611 0.54117647 0.42352941 0.64313725
v -0.05383103 -0.00067153 -0.00882962 0.54117647 0.42352941 0.64313725
v -0.05262269 -0.00067153 -0.00883551 0.54117647 0.42352941 0.64313725
v -0.05503627 -0.00188080 -0.00869825 0.54117647 0.42352941 0.64313725
v -0.05503627 -0.00281550 -0.00849630 0.54117647 0.42352941 0.64313725
v -0.04778320 -0.00338801 -0.00830022 0.54117647 0.42352941 0.64313725
v -0.04657332 -0.00429935 -0.00788847 0.54117647 0.42352941 0.64313725
v -0.04525697 -0.00528078 -0.00731201 0.54117647 0.42352941 0.64313725
v -0.04525697 -0.00665947 0.00814254 0.54117647 0.42352941 0.64313725
v -0.04525697 -0.00559040 0.00894449 0.54117647 0.42352941 0.64313725
v -0.04525697 -0.00464402 0.00958957 0.54117647 0.42352941 0.64313725
v -0.04657487 -0.00551057 0.00918566 0.54117647 0.42352941 0.64313725
v -0.04657487 -0.00473359 0.00966016 0.54117647 0.42352941 0.64313725
v -0.05503936 -0.00430129 0.01025034 0.54117647 0.42352941 0.64313725
v -0.05624769 -0.00430129 0.01029544 0.54117647 0.42352941 0.64313725
v -0.05624769 -0.00309202 0.01075033 0.54117647 0.42352941 0.64313725
v -0.05696220 -0.00247667 0.01095425 0.54117647 0.42352941 0.64313725
v -0.05776775 -0.00250394 0.01096209 0.54117647 0.42352941 0.64313725
v -0.05740355 -0.00199764 0.01103856 0.54117647 0.42352941 0.64313725
v -0.05745911 -0.00067348 0.01118953 0.54117647 0.42352941 0.64313725
v -0.05745911 -0.00033465 0.01119150 0.54117647 0.42352941 0.64313725
v -0.05745757 0.00053385 0.01119542 0.54117647 0.42352941 0.64313725
v -0.05751621 0.00181128 0.01104444 0.54117647 0.42352941 0.64313725
v -0.05816127 0.00236820 0.01096405 0.54117647 0.42352941 0.64313725
v -0.05860726 0.00284334 0.01075817 0.54117647 0.42352941 0.64313725
v -0.05866744 0.00549556 0.00944056 0.54117647 0.42352941 0.64313725
v -0.05866744 0.00630759 0.00883665 0.54117647 0.42352941 0.64313725
v -0.05866744 0.00691125 0.00823666 0.54117647 0.42352941 0.64313725
v -0.05866744 0.00416361 0.01019348 0.54117647 0.42352941 0.64313725
v -0.05866744 0.00488995 0.00981898 0.54117647 0.42352941 0.64313725
v -0.05866744 0.00742923 0.00762883 0.54117647 0.42352941 0.64313725
v -0.05866744 0.00803484 0.00677395 0.54117647 0.42352941 0.64313725
v -0.05866744 0.00842819 0.00617200 0.54117647 0.42352941 0.64313725
v -0.05866744 0.00875729 0.00551515 0.54117647 0.42352941 0.64313725
v -0.05745757 0.00878844 0.00551515 0.54117647 0.42352941 0.64313725
v -0.05745757 0.00927722 0.00430538 0.54117647 0.42352941 0.64313725
v -0.05745757 0.00974457 0.00067605 0.54117647 0.42352941 0.64313725
v -0.05745757 0.00966083 -0.00022982 0.54117647 0.42352941 0.64313725
v -0.05846065 0.00972899 0.00167798 0.54117647 0.42352941 0.64313725
v -0.05745757 0.00955373 -0.00083569 0.54117647 0.42352941 0.64313725
v -0.05745757 0.00930837 -0.00174351 0.54117647 0.42352941 0.64313725
v -0.05866590 0.00880207 -0.00295328 0.54117647 0.42352941 0.64313725
v -0.05745757 0.00973873 0.00188582 0.54117647 0.42352941 0.64313725
v -0.05745757 0.00974067 0.00167798 0.54117647 0.42352941 0.64313725
v -0.05745757 0.00954010 0.00335834 0.54117647 0.42352941 0.64313725
v -0.05745757 0.00965499 0.00275443 0.54117647 0.42352941 0.64313725
v -0.05866590 0.00846325 -0.00367092 0.54117647 0.42352941 0.64313725
v -0.05866590 0.00808352 -0.00427482 0.54117647 0.42352941 0.64313725
v -0.05866590 0.00747791 -0.00512382 0.54117647 0.42352941 0.64313725
v -0.05965201 0.00737081 -0.00499834 0.54117647 0.42352941 0.64313725
v -0.06004553 0.00668731 -0.00546303 0.54117647 0.42352941 0.64313725
v -0.05933873 0.00243636 -0.00842571 0.54117647 0.42352941 0.64313725
v -0.05745757 0.00053580 -0.00876884 0.54117647 0.42352941 0.64313725
v -0.05866590 0.00174507 -0.00859630 0.54117647 0.42352941 0.64313725
v -0.05624923 0.00053580 -0.00878060 0.54117647 0.42352941 0.64313725
v -0.05963349 0.00621606 -0.00617086 0.54117647 0.42352941 0.64313725
v -0.05941590 0.00487438 -0.00725515 0.54117647 0.42352941 0.64313725
v -0.06022299 0.00446739 -0.00700417 0.54117647 0.42352941 0.64313725
v -0.05984337 0.00410519 -0.00742377 0.54117647 0.42352941 0.64313725
v -0.05262424 0.00053580 -0.00879237 0.54117647 0.42352941 0.64313725
v -0.05175233 -0.00033270 -0.00881786 0.54117647 0.42352941 0.64313725
v -0.05141591 -0.00067153 -0.00882570 0.54117647 0.42352941 0.64313725
v -0.04778320 -0.00188080 -0.00868453 0.54117647 0.42352941 0.64313725
v -0.05262269 -0.00188080 -0.00869825 0.54117647 0.42352941 0.64313725
v -0.04778320 -0.00278240 -0.00848257 0.54117647 0.42352941 0.64313725
v -0.04657332 -0.00269282 -0.00845708 0.54117647 0.42352941 0.64313725
v -0.04657332 -0.00329649 -0.00827277 0.54117647 0.42352941 0.64313725
v -0.04525697 -0.00429935 -0.00772377 0.54117647 0.42352941 0.64313725
v -0.04525697 -0.00438697 -0.00768847 0.54117647 0.42352941 0.64313725
v -0.04525697 -0.00403841 0.00991505 0.54117647 0.42352941 0.64313725
v -0.04657487 -0.00412798 0.00994643 0.54117647 0.42352941 0.64313725
v -0.05503936 -0.00309202 0.01070523 0.54117647 0.42352941 0.64313725
v -0.05624769 -0.00241826 0.01094640 0.54117647 0.42352941 0.64313725
v -0.05624769 -0.00181265 0.01104052 0.54117647 0.42352941 0.64313725
v -0.05624769 -0.00067348 0.01115620 0.54117647 0.42352941 0.64313725
v -0.05745757 -0.00033465 0.01119150 0.54117647 0.42352941 0.64313725
v -0.05624769 -0.00033465 0.01115424 0.54117647 0.42352941 0.64313725
v -0.05624923 0.00053385 0.01114836 0.54117647 0.42352941 0.64313725
v -0.05304708 0.00118814 0.01096601 0.54117647 0.42352941 0.64313725
v -0.05382948 0.00128745 0.01098366 0.54117647 0.42352941 0.64313725
v -0.05795757 0.00236820 0.01096405 0.54117647 0.42352941 0.64313725
v -0.05751621 0.00284334 0.01077386 0.54117647 0.42352941 0.64313725
v -0.05745757 0.00416361 0.01021505 0.54117647 0.42352941 0.64313725
v -0.05745757 0.00489580 0.00982486 0.54117647 0.42352941 0.64313725
v -0.05745757 0.00550141 0.00943859 0.54117647 0.42352941 0.64313725
v -0.05745757 0.00631538 0.00883273 0.54117647 0.42352941 0.64313725
v -0.05745757 0.00691709 0.00825431 0.54117647 0.42352941 0.64313725
v -0.05745757 0.00745065 0.00765040 0.54117647 0.42352941 0.64313725
v -0.05745757 0.00805626 0.00681120 0.54117647 0.42352941 0.64313725
v -0.05745757 0.00844961 0.00620729 0.54117647 0.42352941 0.64313725
v -0.05624923 0.00877092 0.00551515 0.54117647 0.42352941 0.64313725
v -0.05624923 0.00926164 0.00430538 0.54117647 0.42352941 0.64313725
v -0.05503936 0.00843014 0.00617592 0.54117647 0.42352941 0.64313725
v -0.05624923 0.00953426 0.00334853 0.54117647 0.42352941 0.64313725
v -0.05624923 0.00975236 0.00067605 0.54117647 0.42352941 0.64313725
v -0.05624923 0.00966083 -0.00022786 0.54117647 0.42352941 0.64313725
v -0.05624923 0.00955179 -0.00083176 0.54117647 0.42352941 0.64313725
v -0.05624923 0.00930837 -0.00174351 0.54117647 0.42352941 0.64313725
v -0.05503781 0.00884686 -0.00295328 0.54117647 0.42352941 0.64313725
v -0.05624923 0.00884492 -0.00295328 0.54117647 0.42352941 0.64313725
v -0.05745757 0.00883907 -0.00295328 0.54117647 0.42352941 0.64313725
v -0.05624923 0.00974262 0.00188582 0.54117647 0.42352941 0.64313725
v -0.05624923 0.00974651 0.00167798 0.54117647 0.42352941 0.64313725
v -0.05624923 0.00965499 0.00274267 0.54117647 0.42352941 0.64313725
v -0.05745757 0.00847882 -0.00369641 0.54117647 0.42352941 0.64313725
v -0.05745757 0.00809910 -0.00430031 0.54117647 0.42352941 0.64313725
v -0.05745757 0.00749349 -0.00513559 0.54117647 0.42352941 0.64313725
v -0.05745757 0.00696772 -0.00574146 0.54117647 0.42352941 0.64313725
v -0.05866590 0.00695214 -0.00572773 0.54117647 0.42352941 0.64313725
v -0.05866590 0.00249478 -0.00844336 0.54117647 0.42352941 0.64313725
v -0.05866590 0.00416556 -0.00774337 0.54117647 0.42352941 0.64313725
v -0.05866590 0.00309844 -0.00822376 0.54117647 0.42352941 0.64313725
v -0.05745757 0.00174507 -0.00861002 0.54117647 0.42352941 0.64313725
v -0.05624923 0.00174507 -0.00861786 0.54117647 0.42352941 0.64313725
v -0.05866590 0.00634653 -0.00629635 0.54117647 0.42352941 0.64313725
v -0.05866590 0.00556567 -0.00690026 0.54117647 0.42352941 0.64313725
v -0.05866590 0.00496200 -0.00731005 0.54117647 0.42352941 0.64313725
v -0.05503781 0.00174507 -0.00861394 0.54117647 0.42352941 0.64313725
v -0.05262424 0.00174507 -0.00860610 0.54117647 0.42352941 0.64313725
v -0.05141436 0.00174507 -0.00859434 0.54117647 0.42352941 0.64313725
v -0.05141436 0.00053580 -0.00877865 0.54117647 0.42352941 0.64313725
v -0.04778320 -0.00067153 -0.00878453 0.54117647 0.42352941 0.64313725
v -0.04657332 -0.00067153 -0.00873747 0.54117647 0.42352941 0.64313725
v -0.04657332 -0.00188080 -0.00863355 0.54117647 0.42352941 0.64313725
v -0.04571684 -0.00256625 -0.00841591 0.54117647 0.42352941 0.64313725
v -0.04525697 -0.00302192 -0.00821199 0.54117647 0.42352941 0.64313725
v -0.04525697 -0.00309202 0.01025426 0.54117647 0.42352941 0.64313725
v -0.04536653 -0.00309202 0.01026014 0.54117647 0.42352941 0.64313725
v -0.04657487 -0.00309202 0.01032289 0.54117647 0.42352941 0.64313725
v -0.05503936 -0.00228000 0.01092483 0.54117647 0.42352941 0.64313725
v -0.05503936 -0.00167439 0.01101503 0.54117647 0.42352941 0.64313725
v -0.05382794 -0.00150303 0.01099150 0.54117647 0.42352941 0.64313725
v -0.05296992 -0.00137061 0.01096993 0.54117647 0.42352941 0.64313725
v -0.05503936 -0.00067348 0.01110718 0.54117647 0.42352941 0.64313725
v -0.05469985 -0.00033465 0.01109150 0.54117647 0.42352941 0.64313725
v -0.05183103 0.00013660 0.01096993 0.54117647 0.42352941 0.64313725
v -0.05382948 0.00053385 0.01104836 0.54117647 0.42352941 0.64313725
v -0.05224307 0.00094278 0.01094444 0.54117647 0.42352941 0.64313725
v -0.04657487 0.00053385 0.01069739 0.54117647 0.42352941 0.64313725
v -0.04525697 0.00174507 0.01049543 0.54117647 0.42352941 0.64313725
v -0.05382948 0.00189306 0.01086993 0.54117647 0.42352941 0.64313725
v -0.04525697 0.00185217 0.01047387 0.54117647 0.42352941 0.64313725
v -0.04525697 0.00295239 0.01018368 0.54117647 0.42352941 0.64313725
v -0.04657487 0.00295239 0.01024642 0.54117647 0.42352941 0.64313725
v -0.05382948 0.00295239 0.01058170 0.54117647 0.42352941 0.64313725
v -0.05382948 0.00416361 0.01008564 0.54117647 0.42352941 0.64313725
v -0.05382948 0.00480427 0.00976800 0.54117647 0.42352941 0.64313725
v -0.05503936 0.00483543 0.00978761 0.54117647 0.42352941 0.64313725
v -0.05382948 0.00540988 0.00936997 0.54117647 0.42352941 0.64313725
v -0.05382948 0.00624138 0.00876606 0.54117647 0.42352941 0.64313725
v -0.05382948 0.00684504 0.00818372 0.54117647 0.42352941 0.64313725
v -0.05382948 0.00739418 0.00757981 0.54117647 0.42352941 0.64313725
v -0.05503936 0.00741755 0.00760334 0.54117647 0.42352941 0.64313725
v -0.05624923 0.00743702 0.00762687 0.54117647 0.42352941 0.64313725
v -0.05624923 0.00804263 0.00679356 0.54117647 0.42352941 0.64313725
v -0.05503936 0.00874950 0.00551515 0.54117647 0.42352941 0.64313725
v -0.05503936 0.00923827 0.00430538 0.54117647 0.42352941 0.64313725
v -0.05503936 0.00802316 0.00677787 0.54117647 0.42352941 0.64313725
v -0.05407640 0.00841846 0.00615435 0.54117647 0.42352941 0.64313725
v -0.05503936 0.00952258 0.00328383 0.54117647 0.42352941 0.64313725
v -0.05503936 0.00964331 0.00267992 0.54117647 0.42352941 0.64313725
v -0.05503781 0.00973678 0.00067605 0.54117647 0.42352941 0.64313725
v -0.05503781 0.00965499 -0.00020237 0.54117647 0.42352941 0.64313725
v -0.05503781 0.00954789 -0.00080627 0.54117647 0.42352941 0.64313725
v -0.05382948 0.00929669 -0.00174351 0.54117647 0.42352941 0.64313725
v -0.05503781 0.00930448 -0.00174351 0.54117647 0.42352941 0.64313725
v -0.05382948 0.00883713 -0.00295328 0.54117647 0.42352941 0.64313725
v -0.04525697 0.00844572 -0.00363366 0.54117647 0.42352941 0.64313725
v -0.05503781 0.00848661 -0.00370817 0.54117647 0.42352941 0.64313725
v -0.05503936 0.00972509 0.00188582 0.54117647 0.42352941 0.64313725
v -0.05503781 0.00972899 0.00167798 0.54117647 0.42352941 0.64313725
v -0.05624923 0.00810300 -0.00430620 0.54117647 0.42352941 0.64313725
v -0.05624923 0.00749739 -0.00514539 0.54117647 0.42352941 0.64313725
v -0.05624923 0.00697746 -0.00575126 0.54117647 0.42352941 0.64313725
v -0.05745757 0.00636406 -0.00631988 0.54117647 0.42352941 0.64313725
v -0.05745757 0.00311791 -0.00824532 0.54117647 0.42352941 0.64313725
v -0.05624923 0.00313154 -0.00825709 0.54117647 0.42352941 0.64313725
v -0.05745757 0.00251425 -0.00844728 0.54117647 0.42352941 0.64313725
v -0.05745757 0.00416556 -0.00778651 0.54117647 0.42352941 0.64313725
v -0.05624923 0.00252788 -0.00844924 0.54117647 0.42352941 0.64313725
v -0.05503781 0.00252983 -0.00844924 0.54117647 0.42352941 0.64313725
v -0.05745757 0.00560461 -0.00692574 0.54117647 0.42352941 0.64313725
v -0.05745757 0.00499900 -0.00733162 0.54117647 0.42352941 0.64313725
v -0.05020295 0.00247920 -0.00843355 0.54117647 0.42352941 0.64313725
v -0.04899616 0.00246557 -0.00842767 0.54117647 0.42352941 0.64313725
v -0.04778474 0.00174507 -0.00855120 0.54117647 0.42352941 0.64313725
v -0.04778474 0.00053580 -0.00871394 0.54117647 0.42352941 0.64313725
v -0.04778474 -0.00033270 -0.00876492 0.54117647 0.42352941 0.64313725
v -0.04657641 0.00053580 -0.00868453 0.54117647 0.42352941 0.64313725
v -0.04657332 -0.00033270 -0.00872374 0.54117647 0.42352941 0.64313725
v -0.04525697 0.00042869 -0.00857669 0.54117647 0.42352941 0.64313725
v -0.04525697 -0.00067153 -0.00860022 0.54117647 0.42352941 0.64313725
v -0.04525697 -0.00079031 -0.00859434 0.54117647 0.42352941 0.64313725
v -0.04525697 -0.00193143 -0.00849042 0.54117647 0.42352941 0.64313725
v -0.04525697 -0.00188080 0.01051896 0.54117647 0.42352941 0.64313725
v -0.04536653 -0.00188080 0.01052876 0.54117647 0.42352941 0.64313725
v -0.04657487 -0.00188080 0.01059739 0.54117647 0.42352941 0.64313725
v -0.05382794 -0.00067348 0.01105620 0.54117647 0.42352941 0.64313725
v -0.04657487 -0.00067348 0.01071504 0.54117647 0.42352941 0.64313725
v -0.05183103 -0.00031128 0.01096993 0.54117647 0.42352941 0.64313725
v -0.04657487 -0.00033465 0.01071111 0.54117647 0.42352941 0.64313725
v -0.04525697 0.00053385 0.01061504 0.54117647 0.42352941 0.64313725
v -0.04525697 0.00064095 0.01060719 0.54117647 0.42352941 0.64313725
v -0.04525697 0.00302834 0.01015819 0.54117647 0.42352941 0.64313725
v -0.04657487 0.00385399 0.00989349 0.54117647 0.42352941 0.64313725
v -0.05314276 0.00477701 0.00975427 0.54117647 0.42352941 0.64313725
v -0.04657487 0.00537094 0.00899743 0.54117647 0.42352941 0.64313725
v -0.04657487 0.00600576 0.00856018 0.54117647 0.42352941 0.64313725
v -0.04573844 0.00720140 0.00734648 0.54117647 0.42352941 0.64313725
v -0.05373535 0.00807768 0.00662297 0.54117647 0.42352941 0.64313725
v -0.04525697 0.00855672 0.00521320 0.54117647 0.42352941 0.64313725
v -0.04525697 0.00858982 0.00513281 0.54117647 0.42352941 0.64313725
v -0.05382948 0.00920711 0.00430538 0.54117647 0.42352941 0.64313725
v -0.05373535 0.00865408 0.00563280 0.54117647 0.42352941 0.64313725
v -0.04525697 0.00822568 0.00581907 0.54117647 0.42352941 0.64313725
v -0.04525697 0.00825683 0.00576613 0.54117647 0.42352941 0.64313725
v -0.04525697 0.00759086 0.00676218 0.54117647 0.42352941 0.64313725
v -0.05382948 0.00950894 0.00321716 0.54117647 0.42352941 0.64313725
v -0.05382948 0.00962968 0.00261130 0.54117647 0.42352941 0.64313725
v -0.05382948 0.00971341 0.00067605 0.54117647 0.42352941 0.64313725
v -0.05382948 0.00963941 -0.00013374 0.54117647 0.42352941 0.64313725
v -0.04525697 0.00941937 -0.00053373 0.54117647 0.42352941 0.64313725
v -0.05382948 0.00954400 -0.00073961 0.54117647 0.42352941 0.64313725
v -0.04525697 0.00915064 -0.00174351 0.54117647 0.42352941 0.64313725
v -0.04525697 0.00911754 -0.00184939 0.54117647 0.42352941 0.64313725
v -0.04525697 0.00873781 -0.00295328 0.54117647 0.42352941 0.64313725
v -0.04525697 0.00871250 -0.00301799 0.54117647 0.42352941 0.64313725
v -0.04525697 0.00803289 -0.00423953 0.54117647 0.42352941 0.64313725
v -0.05503781 0.00810494 -0.00431404 0.54117647 0.42352941 0.64313725
v -0.05382948 0.00970367 0.00188582 0.54117647 0.42352941 0.64313725
v -0.05382948 0.00970562 0.00167798 0.54117647 0.42352941 0.64313725
v -0.05503781 0.00749933 -0.00514735 0.54117647 0.42352941 0.64313725
v -0.05503781 0.00698135 -0.00575322 0.54117647 0.42352941 0.64313725
v -0.05503781 0.00637769 -0.00632968 0.54117647 0.42352941 0.64313725
v -0.05624923 0.00637379 -0.00632576 0.54117647 0.42352941 0.64313725
v -0.05624923 0.00416556 -0.00780220 0.54117647 0.42352941 0.64313725
v -0.05503781 0.00416556 -0.00780612 0.54117647 0.42352941 0.64313725
v -0.05503781 0.00313349 -0.00825709 0.54117647 0.42352941 0.64313725
v -0.04899616 0.00307118 -0.00824336 0.54117647 0.42352941 0.64313725
v -0.05624923 0.00561045 -0.00692967 0.54117647 0.42352941 0.64313725
v -0.05624923 0.00500679 -0.00733554 0.54117647 0.42352941 0.64313725
v -0.04778474 0.00304197 -0.00824140 0.54117647 0.42352941 0.64313725
v -0.04778474 0.00243636 -0.00841787 0.54117647 0.42352941 0.64313725
v -0.04659184 0.00182101 -0.00850022 0.54117647 0.42352941 0.64313725
v -0.04700542 0.00239741 -0.00840806 0.54117647 0.42352941 0.64313725
v -0.04525697 0.00146271 -0.00846297 0.54117647 0.42352941 0.64313725
v -0.04525697 0.00053580 -0.00857081 0.54117647 0.42352941 0.64313725
v -0.04525697 -0.00177565 0.01052876 0.54117647 0.42352941 0.64313725
v -0.04536653 -0.00067348 0.01064053 0.54117647 0.42352941 0.64313725
v -0.04525697 -0.00033465 0.01062876 0.54117647 0.42352941 0.64313725
v -0.04525697 0.00376052 0.00985427 0.54117647 0.42352941 0.64313725
v -0.04657487 0.00445960 0.00957781 0.54117647 0.42352941 0.64313725
v -0.04595449 0.00598044 0.00854057 0.54117647 0.42352941 0.64313725
v -0.04525697 0.00746428 0.00693669 0.54117647 0.42352941 0.64313725
v -0.04525697 0.00754802 0.00682297 0.54117647 0.42352941 0.64313725
v -0.04525697 0.00656074 0.00791510 0.54117647 0.42352941 0.64313725
v -0.04525697 0.00679052 0.00768961 0.54117647 0.42352941 0.64313725
v -0.04525697 0.00892670 0.00430538 0.54117647 0.42352941 0.64313725
v -0.04525697 0.00927722 0.00309560 0.54117647 0.42352941 0.64313725
v -0.05291282 0.00961799 0.00255051 0.54117647 0.42352941 0.64313725
v -0.04525697 0.00953231 0.00067605 0.54117647 0.42352941 0.64313725
v -0.05175696 0.00961215 0.00003880 0.54117647 0.42352941 0.64313725
v -0.04525697 0.00939600 -0.00063961 0.54117647 0.42352941 0.64313725
v -0.04525697 0.00952258 0.00057017 0.54117647 0.42352941 0.64313725
v -0.04525697 0.00742923 -0.00503951 0.54117647 0.42352941 0.64313725
v -0.04657641 0.00744481 -0.00508461 0.54117647 0.42352941 0.64313725
v -0.04778474 0.00745065 -0.00510226 0.54117647 0.42352941 0.64313725
v -0.05020295 0.00746623 -0.00512186 0.54117647 0.42352941 0.64313725
v -0.04525697 0.00948168 0.00188582 0.54117647 0.42352941 0.64313725
v -0.04525697 0.00949142 0.00167798 0.54117647 0.42352941 0.64313725
v -0.05020295 0.00695798 -0.00572577 0.54117647 0.42352941 0.64313725
v -0.04778474 0.00633874 -0.00630419 0.54117647 0.42352941 0.64313725
v -0.04899616 0.00560266 -0.00691006 0.54117647 0.42352941 0.64313725
v -0.05503781 0.00561435 -0.00693359 0.54117647 0.42352941 0.64313725
v -0.05503781 0.00500874 -0.00733750 0.54117647 0.42352941 0.64313725
v -0.04899616 0.00499900 -0.00733554 0.54117647 0.42352941 0.64313725
v -0.04899616 0.00416556 -0.00779043 0.54117647 0.42352941 0.64313725
v -0.04659184 0.00286282 -0.00821983 0.54117647 0.42352941 0.64313725
v -0.04778474 0.00416556 -0.00777475 0.54117647 0.42352941 0.64313725
v -0.04657641 0.00416556 -0.00768455 0.54117647 0.42352941 0.64313725
v -0.04619987 0.00227279 -0.00837669 0.54117647 0.42352941 0.64313725
v -0.04525697 0.00206637 -0.00833748 0.54117647 0.42352941 0.64313725
v -0.04525697 -0.00067348 0.01063072 0.54117647 0.42352941 0.64313725
v -0.04525697 -0.00056638 0.01063072 0.54117647 0.42352941 0.64313725
v -0.04525697 0.00381310 0.00982486 0.54117647 0.42352941 0.64313725
v -0.04525697 0.00436613 0.00948369 0.54117647 0.42352941 0.64313725
v -0.04525697 0.00541378 0.00881900 0.54117647 0.42352941 0.64313725
v -0.04525697 0.00684115 -0.00564538 0.54117647 0.42352941 0.64313725
v -0.04657641 0.00691904 -0.00569048 0.54117647 0.42352941 0.64313725
v -0.04778474 0.00694435 -0.00570813 0.54117647 0.42352941 0.64313725
v -0.04657641 0.00631538 -0.00627086 0.54117647 0.42352941 0.64313725
v -0.04778474 0.00558903 -0.00690810 0.54117647 0.42352941 0.64313725
v -0.04778474 0.00498537 -0.00732378 0.54117647 0.42352941 0.64313725
v -0.04525697 0.00295434 -0.00805317 0.54117647 0.42352941 0.64313725
v -0.04657641 0.00492501 -0.00728456 0.54117647 0.42352941 0.64313725
v -0.04562888 0.00484127 -0.00723162 0.54117647 0.42352941 0.64313725
v -0.04525697 0.00427266 -0.00747083 0.54117647 0.42352941 0.64313725
v -0.04525697 0.00623748 -0.00619047 0.54117647 0.42352941 0.64313725
v -0.04657641 0.00553061 -0.00687673 0.54117647 0.42352941 0.64313725
v -0.04525697 0.00480038 -0.00720613 0.54117647 0.42352941 0.64313725
v -0.04525697 0.00528526 -0.00687869 0.54117647 0.42352941 0.64313725
v -0.04525697 0.00616543 -0.00624341 0.54117647 0.42352941 0.64313725
f 1 2 3
f 1 3 4
f 1 4 5
f 1 5 6
f 1 6 7
f 1 7 8
f 1 8 9
f 1 9 10
f 1 10 11
f 1 11 2
f 2 11 12
f 2 12 3
f 3 12 13
f 3 13 14
f 3 14 15
f 3 15 4
f 4 15 16
f 4 16 17
f 4 17 5
f 5 17 18
f 5 18 6
f 6 18 19
f 6 19 20
f 6 20 21
f 6 21 7
f 7 22 8
f 7 21 22
f 8 22 9
f 9 23 24
f 9 24 25
f 9 25 26
f 9 26 10
f 9 22 23
f 10 26 27
f 10 27 11
f 11 27 28
f 11 28 12
f 12 28 29
f 12 29 30
f 12 30 31
f 12 31 13
f 13 31 14
f 14 31 32
f 14 32 15
f 15 32 16
f 16 33 34
f 16 34 35
f 16 35 36
f 16 36 37
f 16 37 17
f 16 32 33
f 17 37 18
f 18 37 38
f 18 38 39
f 18 39 19
f 19 39 20
f 20 40 21
f 20 39 41
f 20 41 40
f 21 40 42
f 21 42 43
f 21 43 22
f 22 43 44
f 22 44 45
f 22 45 23
f 23 46 47
f 23 47 48
f 23 48 24
f 23 45 49
f 23 49 46
f 24 48 50
f 24 50 25
f 25 50 51
f 25 51 52
f 25 52 26
f 26 52 27
f 27 52 53
f 27 53 54
f 27 54 28
f 28 54 55
f 28 55 29
f 29 55 56
f 29 56 57
f 29 57 58
f 29 58 59
f 29 59 60
f 29 60 30
f 30 60 61
f 30 61 31
f 31 61 62
f 31 62 32
f 32 62 63
f 32 63 64
f 32 64 33
f 33 64 34
f 34 64 65
f 34 65 35
f 35 65 66
f 35 66 67
f 35 67 68
f 35 68 69
f 35 69 70
f 35 70 36
f 36 71 38
f 36 38 37
f 36 70 71
f 38 71 72
f 38 72 73
f 38 73 39
f 39 73 41
f 40 41 74
f 40 74 42
f 41 73 75
f 41 75 74
f 42 76 43
f 42 74 76
f 43 76 44
f 44 76 77
f 44 77 108
f 44 108 75
f 44 75 107
f 44 107 142
f 44 142 189
f 44 189 185
f 44 185 184
f 44 184 241
f 44 241 306
f 44 306 308
f 44 308 365
f 44 365 426
f 44 426 425
f 44 425 483
f 44 483 551
f 44 551 550
f 44 550 549
f 44 549 548
f 44 548 604
f 44 604 603
f 44 603 639
f 44 639 651
f 44 651 654
f 44 654 657
f 44 657 658
f 44 658 659
f 44 659 655
f 44 655 645
f 44 645 622
f 44 622 585
f 44 585 525
f 44 525 584
f 44 584 583
f 44 583 582
f 44 582 581
f 44 581 620
f 44 620 579
f 44 579 621
f 44 621 618
f 44 618 627
f 44 627 626
f 44 626 616
f 44 616 615
f 44 615 569
f 44 569 568
f 44 568 573
f 44 573 572
f 44 572 574
f 44 574 612
f 44 612 611
f 44 611 614
f 44 614 613
f 44 613 644
f 44 644 643
f 44 643 642
f 44 642 608
f 44 608 561
f 44 561 500
f 44 500 499
f 44 499 497
f 44 497 560
f 44 560 559
f 44 559 607
f 44 607 641
f 44 641 640
f 44 640 605
f 44 605 552
f 44 552 484
f 44 484 427
f 44 427 368
f 44 368 367
f 44 367 366
f 44 366 312
f 44 312 247
f 44 247 192
f 44 192 191
f 44 191 190
f 44 190 143
f 44 143 109
f 44 109 80
f 44 80 79
f 44 79 47
f 44 47 78
f 44 78 49
f 44 49 45
f 46 78 47
f 46 49 78
f 47 79 48
f 48 79 80
f 48 80 81
f 48 81 50
f 50 81 82
f 50 82 83
f 50 83 84
f 50 84 51
f 51 84 52
f 52 84 85
f 52 85 86
f 52 86 53
f 53 86 54
f 54 86 87
f 54 87 88
f 54 88 89
f 54 89 90
f 54 90 55
f 55 90 91
f 55 91 56
f 56 91 92
f 56 92 57
f 57 93 58
f 57 92 93
f 58 93 59
f 59 61 60
f 59 93 61
f 61 93 94
f 61 94 62
f 62 94 95
f 62 95 63
f 63 96 64
f 63 95 96
f 64 96 97
f 64 97 98
f 64 98 65
f 65 98 66
f 66 98 67
f 67 98 99
f 67 99 100
f 67 100 68
f 68 101 69
f 68 100 102
f 68 102 101
f 69 101 103
f 69 103 104
f 69 104 70
f 70 104 71
f 71 104 105
f 71 105 106
f 71 106 72
f 72 106 73
f 73 106 107
f 73 107 75
f 74 108 76
f 74 75 108
f 76 108 77
f 80 109 81
f 81 109 82
f 82 109 110
f 82 110 83
f 83 110 84
f 84 110 111
f 84 111 112
f 84 112 85
f 85 112 86
f 86 112 87
f 87 112 113
f 87 113 114
f 87 114 88
f 88 114 115
f 88 115 116
f 88 116 117
f 88 117 91
f 88 91 89
f 89 91 90
f 91 117 118
f 91 118 119
f 91 119 120
f 91 120 92
f 92 120 121
f 92 121 122
f 92 122 93
f 93 122 123
f 93 123 124
f 93 124 125
f 93 125 94
f 94 126 127
f 94 127 128
f 94 128 129
f 94 129 95
f 94 125 126
f 95 129 130
f 95 130 96
f 96 130 97
f 97 130 131
f 97 131 98
f 98 131 132
f 98 132 99
f 99 132 133
f 99 133 100
f 100 133 134
f 100 134 102
f 101 135 103
f 101 102 135
f 102 136 137
f 102 137 135
f 102 134 138
f 102 138 139
f 102 139 136
f 103 135 140
f 103 140 104
f 104 140 105
f 105 140 106
f 106 140 141
f 106 141 107
f 107 141 142
f 109 143 144
f 109 144 110
f 110 144 145
f 110 145 146
f 110 146 147
f 110 147 111
f 111 147 113
f 111 113 112
f 113 147 148
f 113 148 115
f 113 115 114
f 115 148 149
f 115 149 116
f 116 149 150
f 116 150 151
f 116 151 152
f 116 152 118
f 116 118 117
f 118 153 119
f 118 152 154
f 118 154 153
f 119 153 121
f 119 121 120
f 121 153 122
f 122 155 156
f 122 156 157
f 122 157 158
f 122 158 123
f 122 153 155
f 123 158 124
f 124 159 160
f 124 160 125
f 124 158 161
f 124 161 159
f 125 160 162
f 125 162 163
f 125 163 164
f 125 164 165
f 125 165 166
f 125 166 167
f 125 167 126
f 126 168 169
f 126 169 127
f 126 167 170
f 126 170 168
f 127 171 172
f 127 172 173
f 127 173 128
f 127 169 174
f 127 174 171
f 128 173 175
f 128 175 176
f 128 176 177
f 128 177 129
f 129 177 130
f 130 177 131
f 131 177 178
f 131 178 132
f 132 178 179
f 132 179 180
f 132 180 181
f 132 181 133
f 133 181 182
f 133 182 183
f 133 183 134
f 134 183 138
f 135 137 140
f 136 139 184
f 136 184 185
f 136 185 137
f 137 141 140
f 137 185 141
f 138 183 186
f 138 186 187
f 138 187 139
f 139 187 188
f 139 188 184
f 141 185 189
f 141 189 142
f 143 190 144
f 144 190 145
f 145 191 192
f 145 192 193
f 145 193 194
f 145 194 195
f 145 195 146
f 145 190 191
f 146 195 147
f 147 195 196
f 147 196 148
f 148 196 197
f 148 197 149
f 149 197 198
f 149 198 150
f 150 198 199
f 150 199 200
f 150 200 151
f 151 154 152
f 151 200 201
f 151 201 202
f 151 202 203
f 151 203 154
f 153 154 155
f 154 203 204
f 154 204 155
f 155 204 205
f 155 205 206
f 155 206 156
f 156 206 157
f 157 206 207
f 157 207 208
f 157 208 158
f 158 208 209
f 158 209 210
f 158 210 161
f 159 211 160
f 159 161 210
f 159 210 211
f 160 211 212
f 160 212 162
f 162 212 213
f 162 213 214
f 162 214 163
f 163 214 215
f 163 215 164
f 164 216 217
f 164 217 165
f 164 215 216
f 165 217 218
f 165 218 166
f 166 218 219
f 166 219 170
f 166 170 167
f 168 220 221
f 168 221 169
f 168 170 222
f 168 222 223
f 168 223 224
f 168 224 220
f 169 221 225
f 169 225 174
f 170 219 222
f 171 226 172
f 171 174 226
f 172 227 173
f 172 226 227
f 173 227 228
f 173 228 229
f 173 229 175
f 174 225 230
f 174 230 231
f 174 231 232
f 174 232 226
f 175 233 176
f 175 229 234
f 175 234 233
f 176 233 235
f 176 235 177
f 177 235 178
f 178 235 179
f 179 233 234
f 179 234 236
f 179 236 237
f 179 237 180
f 179 235 233
f 180 237 182
f 180 182 181
f 182 237 238
f 182 238 239
f 182 239 240
f 182 240 183
f 183 240 186
f 184 188 241
f 186 240 242
f 186 242 187
f 187 242 243
f 187 243 188
f 188 244 241
f 188 243 245
f 188 245 246
f 188 246 244
f 192 247 193
f 193 247 248
f 193 248 249
f 193 249 250
f 193 250 251
f 193 251 194
f 194 251 252
f 194 252 195
f 195 252 253
f 195 253 196
f 196 253 197
f 197 253 198
f 198 253 252
f 198 252 250
f 198 250 199
f 199 254 200
f 199 250 255
f 199 255 254
f 200 254 201
f 201 254 256
f 201 256 202
f 202 204 203
f 202 256 257
f 202 257 258
f 202 258 259
f 202 259 204
f 204 259 205
f 205 259 260
f 205 260 206
f 206 260 207
f 207 260 261
f 207 261 208
f 208 261 262
f 208 262 263
f 208 263 264
f 208 264 209
f 209 264 265
f 209 265 266
f 209 266 267
f 209 267 268
f 209 268 269
f 209 269 210
f 210 269 211
f 211 269 212
f 212 269 268
f 212 268 213
f 213 270 214
f 213 268 271
f 213 271 272
f 213 272 273
f 213 273 270
f 214 270 215
f 215 270 274
f 215 274 275
f 215 275 216
f 216 275 276
f 216 276 277
f 216 277 217
f 217 277 278
f 217 278 223
f 217 223 218
f 218 223 219
f 219 223 222
f 220 279 280
f 220 280 281
f 220 281 282
f 220 282 221
f 220 224 283
f 220 283 284
f 220 284 279
f 221 282 225
f 223 278 285
f 223 285 286
f 223 286 283
f 223 283 224
f 225 282 287
f 225 287 288
f 225 288 230
f 226 289 227
f 226 232 290
f 226 290 289
f 227 289 291
f 227 291 292
f 227 292 293
f 227 293 294
f 227 294 228
f 228 294 229
f 229 294 295
f 229 295 296
f 229 296 297
f 229 297 234
f 230 298 231
f 230 288 299
f 230 299 298
f 231 290 232
f 231 298 300
f 231 300 301
f 231 301 291
f 231 291 290
f 234 297 238
f 234 238 236
f 236 238 237
f 238 302 239
f 238 297 303
f 238 303 304
f 238 304 302
f 239 302 305
f 239 305 242
f 239 242 240
f 241 244 306
f 242 305 307
f 242 307 243
f 243 307 245
f 244 246 308
f 244 308 306
f 245 307 309
f 245 309 310
f 245 310 246
f 246 311 308
f 246 310 311
f 247 312 313
f 247 313 314
f 247 314 248
f 248 314 315
f 248 315 249
f 249 315 250
f 250 315 255
f 250 252 251
f 254 255 315
f 254 315 316
f 254 316 317
f 254 317 318
f 254 318 256
f 256 318 319
f 256 319 257
f 257 319 320
f 257 320 321
f 257 321 258
f 258 321 322
f 258 322 323
f 258 323 261
f 258 261 259
f 259 261 260
f 261 323 324
f 261 324 262
f 262 324 263
f 263 265 264
f 263 324 325
f 263 325 265
f 265 325 266
f 266 325 326
f 266 326 327
f 266 327 328
f 266 328 329
f 266 329 267
f 267 329 268
f 268 329 271
f 270 273 330
f 270 330 331
f 270 331 274
f 271 329 328
f 271 328 272
f 272 328 273
f 273 328 332
f 273 332 330
f 274 333 334
f 274 334 275
f 274 331 333
f 275 334 335
f 275 335 276
f 276 336 285
f 276 285 277
f 276 335 336
f 277 285 278
f 279 337 280
f 279 284 337
f 280 337 338
f 280 338 339
f 280 339 340
f 280 340 341
f 280 341 281
f 281 341 287
f 281 287 282
f 283 286 284
f 284 286 342
f 284 342 337
f 285 342 286
f 285 336 343
f 285 343 344
f 285 344 342
f 287 345 346
f 287 346 347
f 287 347 348
f 287 348 299
f 287 299 288
f 287 341 345
f 289 290 291
f 291 301 349
f 291 349 292
f 292 349 293
f 293 350 351
f 293 351 295
f 293 295 294
f 293 349 350
f 295 352 353
f 295 353 354
f 295 354 296
f 295 351 352
f 296 354 355
f 296 355 297
f 297 355 303
f 298 299 348
f 298 348 356
f 298 356 300
f 300 356 357
f 300 357 301
f 301 357 349
f 302 358 307
f 302 307 305
f 302 304 358
f 303 355 359
f 303 359 360
f 303 360 361
f 303 361 304
f 304 361 362
f 304 362 358
f 307 358 363
f 307 363 309
f 308 311 364
f 308 364 365
f 309 363 310
f 310 364 311
f 310 363 364
f 312 366 313
f 313 366 367
f 313 367 368
f 313 368 369
f 313 369 314
f 314 369 316
f 314 316 315
f 316 369 317
f 317 369 370
f 317 370 371
f 317 371 372
f 317 372 319
f 317 319 318
f 319 372 373
f 319 373 320
f 320 374 375
f 320 375 322
f 320 322 321
f 320 373 374
f 322 375 376
f 322 376 377
f 322 377 323
f 323 377 324
f 324 377 325
f 325 377 378
f 325 378 379
f 325 379 326
f 326 380 381
f 326 381 327
f 326 379 380
f 327 381 382
f 327 382 332
f 327 332 328
f 330 332 383
f 330 383 384
f 330 384 385
f 330 385 333
f 330 333 331
f 332 382 386
f 332 386 387
f 332 387 383
f 333 335 334
f 333 385 388
f 333 388 335
f 335 388 389
f 335 389 390
f 335 390 391
f 335 391 336
f 336 391 392
f 336 392 393
f 336 393 343
f 337 394 395
f 337 395 338
f 337 342 396
f 337 396 394
f 338 395 397
f 338 397 339
f 339 397 340
f 340 398 399
f 340 399 346
f 340 346 341
f 340 397 398
f 341 346 345
f 342 344 400
f 342 400 401
f 342 401 396
f 343 402 403
f 343 403 344
f 343 393 402
f 344 403 400
f 346 399 404
f 346 404 405
f 346 405 406
f 346 406 407
f 346 407 348
f 346 348 347
f 348 407 408
f 348 408 356
f 349 357 350
f 350 409 351
f 350 357 409
f 351 409 352
f 352 410 353
f 352 409 411
f 352 411 410
f 353 410 355
f 353 355 354
f 355 410 412
f 355 412 359
f 356 413 414
f 356 414 415
f 356 415 357
f 356 408 413
f 357 416 409
f 357 415 416
f 358 362 363
f 359 412 360
f 360 412 417
f 360 417 418
f 360 418 419
f 360 419 420
f 360 420 421
f 360 421 361
f 361 421 362
f 362 421 420
f 362 420 422
f 362 422 363
f 363 422 423
f 363 423 424
f 363 424 364
f 364 424 425
f 364 425 426
f 364 426 365
f 368 427 370
f 368 370 369
f 370 427 428
f 370 428 371
f 371 429 373
f 371 373 372
f 371 428 429
f 373 429 430
f 373 430 374
f 374 430 431
f 374 431 376
f 374 376 375
f 376 431 377
f 377 431 432
f 377 432 433
f 377 433 378
f 378 433 379
f 379 433 432
f 379 432 434
f 379 434 435
f 379 435 436
f 379 436 437
f 379 437 380
f 380 437 438
f 380 438 381
f 381 438 439
f 381 439 382
f 382 439 440
f 382 440 386
f 383 387 441
f 383 441 442
f 383 442 384
f 384 443 444
f 384 444 385
f 384 442 443
f 385 444 445
f 385 445 388
f 386 440 387
f 387 440 441
f 388 445 446
f 388 446 389
f 389 446 390
f 390 446 447
f 390 447 391
f 391 447 392
f 392 448 449
f 392 449 393
f 392 447 450
f 392 450 448
f 393 449 451
f 393 451 402
f 394 452 395
f 394 396 401
f 394 401 452
f 395 453 397
f 395 452 453
f 397 453 454
f 397 454 455
f 397 455 398
f 398 455 456
f 398 456 457
f 398 457 458
f 398 458 399
f 399 458 404
f 400 459 460
f 400 460 401
f 400 403 459
f 401 460 452
f 402 451 461
f 402 461 403
f 403 461 459
f 404 458 462
f 404 462 463
f 404 463 405
f 405 463 406
f 406 463 464
f 406 464 465
f 406 465 466
f 406 466 407
f 407 466 413
f 407 413 408
f 409 467 411
f 409 416 414
f 409 414 468
f 409 468 469
f 409 469 467
f 410 411 470
f 410 470 412
f 411 467 470
f 412 470 471
f 412 471 417
f 413 472 473
f 413 473 414
f 413 466 472
f 414 474 468
f 414 416 415
f 414 473 474
f 417 471 475
f 417 475 476
f 417 476 477
f 417 477 478
f 417 478 418
f 418 478 479
f 418 479 419
f 419 479 420
f 420 479 480
f 420 480 481
f 420 481 423
f 420 423 422
f 423 482 424
f 423 481 482
f 424 482 483
f 424 483 425
f 427 484 485
f 427 485 486
f 427 486 428
f 428 486 429
f 429 486 430
f 430 487 431
f 430 486 487
f 431 487 488
f 431 488 432
f 432 488 489
f 432 489 490
f 432 490 491
f 432 491 492
f 432 492 434
f 434 492 435
f 435 492 493
f 435 493 494
f 435 494 436
f 436 495 496
f 436 496 497
f 436 497 498
f 436 498 437
f 436 494 495
f 437 498 438
f 438 498 499
f 438 499 500
f 438 500 501
f 438 501 502
f 438 502 439
f 439 502 503
f 439 503 440
f 440 503 504
f 440 504 505
f 440 505 441
f 441 505 442
f 442 505 504
f 442 504 506
f 442 506 507
f 442 507 443
f 443 507 444
f 444 508 509
f 444 509 510
f 444 510 511
f 444 511 445
f 444 507 508
f 445 511 512
f 445 512 446
f 446 512 450
f 446 450 447
f 448 513 449
f 448 450 513
f 449 513 514
f 449 514 451
f 450 512 515
f 450 515 516
f 450 516 513
f 451 517 518
f 451 518 461
f 451 514 517
f 452 519 520
f 452 520 453
f 452 460 519
f 453 521 454
f 453 520 521
f 454 521 522
f 454 522 523
f 454 523 455
f 455 523 456
f 456 524 525
f 456 525 526
f 456 526 457
f 456 523 522
f 456 522 524
f 457 526 458
f 458 526 462
f 459 527 528
f 459 528 460
f 459 461 527
f 460 528 519
f 461 518 527
f 462 526 529
f 462 529 463
f 463 529 530
f 463 530 464
f 464 530 531
f 464 531 465
f 465 531 532
f 465 532 466
f 466 532 472
f 467 469 533
f 467 533 534
f 467 534 535
f 467 535 470
f 468 474 536
f 468 536 469
f 469 536 533
f 470 535 471
f 471 535 537
f 471 537 538
f 471 538 475
f 472 532 539
f 472 539 473
f 473 539 474
f 474 539 540
f 474 540 536
f 475 538 476
f 476 538 541
f 476 541 542
f 476 542 477
f 477 543 478
f 477 542 543
f 478 543 544
f 478 544 545
f 478 545 479
f 479 545 546
f 479 546 547
f 479 547 480
f 480 547 548
f 480 548 549
f 480 549 550
f 480 550 481
f 481 550 551
f 481 551 482
f 482 551 483
f 484 552 553
f 484 553 554
f 484 554 485
f 485 554 486
f 486 554 487
f 487 489 488
f 487 554 489
f 489 554 490
f 490 555 491
f 490 554 556
f 490 556 555
f 491 555 493
f 491 493 492
f 493 555 557
f 493 557 556
f 493 556 558
f 493 558 496
f 493 496 494
f 494 496 495
f 496 558 607
f 496 607 559
f 496 559 560
f 496 560 497
f 497 499 498
f 500 561 501
f 501 561 502
f 502 561 562
f 502 562 503
f 503 562 563
f 503 563 504
f 504 563 506
f 506 564 565
f 506 565 507
f 506 563 564
f 507 565 508
f 508 565 566
f 508 566 509
f 509 566 567
f 509 567 515
f 509 515 510
f 510 515 511
f 511 515 512
f 513 568 569
f 513 569 570
f 513 570 514
f 513 516 571
f 513 571 568
f 514 570 517
f 515 567 516
f 516 572 573
f 516 573 568
f 516 568 571
f 516 567 574
f 516 574 572
f 517 575 518
f 517 570 575
f 518 576 527
f 518 575 576
f 519 577 578
f 519 578 520
f 519 528 588
f 519 588 577
f 520 578 579
f 520 579 580
f 520 580 521
f 521 580 522
f 522 581 582
f 522 582 583
f 522 583 524
f 522 580 581
f 524 583 584
f 524 584 525
f 525 585 586
f 525 586 526
f 526 586 529
f 527 576 587
f 527 587 528
f 528 587 588
f 529 586 530
f 530 589 590
f 530 590 531
f 530 586 589
f 531 590 591
f 531 591 592
f 531 592 532
f 532 592 539
f 533 536 534
f 534 536 593
f 534 593 594
f 534 594 595
f 534 595 538
f 534 538 537
f 534 537 535
f 536 540 593
f 538 595 596
f 538 596 541
f 539 592 597
f 539 597 598
f 539 598 540
f 540 598 593
f 541 596 542
f 542 596 599
f 542 599 600
f 542 600 543
f 543 601 546
f 543 546 544
f 543 600 602
f 543 602 601
f 544 546 545
f 546 601 603
f 546 603 604
f 546 604 548
f 546 548 547
f 552 605 553
f 553 605 606
f 553 606 556
f 553 556 554
f 555 556 557
f 556 606 558
f 558 606 607
f 561 608 562
f 562 608 609
f 562 609 563
f 563 609 564
f 564 609 610
f 564 610 565
f 565 610 566
f 566 611 612
f 566 612 574
f 566 574 567
f 566 610 613
f 566 613 614
f 566 614 611
f 569 615 570
f 570 615 616
f 570 616 575
f 575 616 617
f 575 617 576
f 576 617 587
f 577 618 619
f 577 619 578
f 577 588 618
f 578 619 579
f 579 620 580
f 579 619 621
f 580 620 581
f 585 622 623
f 585 623 624
f 585 624 586
f 586 624 625
f 586 625 589
f 587 617 626
f 587 626 627
f 587 627 618
f 587 618 588
f 589 628 590
f 589 625 628
f 590 628 629
f 590 629 591
f 591 629 630
f 591 630 631
f 591 631 597
f 591 597 592
f 593 598 594
f 594 598 632
f 594 632 633
f 594 633 634
f 594 634 595
f 595 634 596
f 596 634 599
f 597 631 598
f 598 631 632
f 599 635 602
f 599 602 600
f 599 634 636
f 599 636 637
f 599 637 635
f 601 602 638
f 601 638 603
f 602 635 638
f 603 638 639
f 605 640 606
f 606 640 641
f 606 641 607
f 608 642 609
f 609 643 644
f 609 644 610
f 609 642 643
f 610 644 613
f 616 626 617
f 618 621 619
f 622 645 646
f 622 646 623
f 623 646 647
f 623 647 624
f 624 647 625
f 625 647 628
f 628 647 629
f 629 647 646
f 629 646 648
f 629 648 649
f 629 649 630
f 630 649 633
f 630 633 631
f 631 633 632
f 633 649 650
f 633 650 636
f 633 636 634
f 635 637 651
f 635 651 638
f 636 650 652
f 636 652 637
f 637 652 653
f 637 653 654
f 637 654 651
f 638 651 639
f 645 655 648
f 645 648 646
f 648 655 656
f 648 656 649
f 649 656 650
f 650 656 652
f 652 656 653
f 653 657 654
f 653 656 658
f 653 658 657
f 655 659 656
f 656 659 658

