# https://github.com/mikedh/trimesh

o geometry_0
v 0.05382514 -0.00067255 -0.01099254 0.54509804 0.71372549 0.60000000
v 0.05382514 0.00053332 -0.01094596 0.54509804 0.71372549 0.60000000
v 0.05451176 0.00053332 -0.01087187 0.54509804 0.71372549 0.60000000
v 0.05458459 -0.00067255 -0.01090786 0.54509804 0.71372549 0.60000000
v 0.05456378 -0.00188231 -0.01089093 0.54509804 0.71372549 0.60000000
v 0.05382514 -0.00188231 -0.01094173 0.54509804 0.71372549 0.60000000
v -0.04171980 -0.00188231 -0.00892645 0.54509804 0.71372549 0.60000000
v -0.04051301 -0.00067255 -0.00897302 0.54509804 0.71372549 0.60000000
v -0.04051301 0.00053332 -0.00897302 0.54509804 0.71372549 0.60000000
v 0.05289923 0.00141297 -0.01086341 0.54509804 0.71372549 0.60000000
v 0.05382514 0.00144404 -0.01087399 0.54509804 0.71372549 0.60000000
v 0.05447015 0.00127122 -0.01084647 0.54509804 0.71372549 0.60000000
v 0.06051454 -0.00100266 -0.00601783 0.54509804 0.71372549 0.60000000
v 0.06051454 -0.00138520 -0.00601783 0.54509804 0.71372549 0.60000000
v 0.05447015 -0.00254447 -0.01083800 0.54509804 0.71372549 0.60000000
v 0.05382514 -0.00254835 -0.01083589 0.54509804 0.71372549 0.60000000
v -0.04166779 -0.00319887 -0.00860045 0.54509804 0.71372549 0.60000000
v -0.04243764 -0.00377947 -0.00842051 0.54509804 0.71372549 0.60000000
v -0.04287459 -0.00308236 -0.00853906 0.54509804 0.71372549 0.60000000
v -0.04525697 -0.00193085 -0.00848825 0.54509804 0.71372549 0.60000000
v -0.04525697 -0.00079100 -0.00859409 0.54509804 0.71372549 0.60000000
v -0.04525697 -0.00067255 -0.00860045 0.54509804 0.71372549 0.60000000
v -0.04171980 -0.00067255 -0.00893068 0.54509804 0.71372549 0.60000000
v -0.04171980 0.00053332 -0.00887352 0.54509804 0.71372549 0.60000000
v -0.04171980 0.00174308 -0.00871899 0.54509804 0.71372549 0.60000000
v -0.04051301 0.00174308 -0.00881002 0.54509804 0.71372549 0.60000000
v 0.05382514 0.00204795 -0.01072792 0.54509804 0.71372549 0.60000000
v 0.05430370 0.00455678 -0.00955093 0.54509804 0.71372549 0.60000000
v 0.05461580 0.00623258 -0.00863431 0.54509804 0.71372549 0.60000000
v 0.06033768 0.00053526 -0.00585695 0.54509804 0.71372549 0.60000000
v 0.06044171 -0.00019680 -0.00593951 0.54509804 0.71372549 0.60000000
v 0.05350263 0.00490437 -0.00968641 0.54509804 0.71372549 0.60000000
v 0.06073301 0.00053526 -0.00525152 0.54509804 0.71372549 0.60000000
v 0.06070180 -0.00062789 -0.00546956 0.54509804 0.71372549 0.60000000
v 0.06063938 -0.00182600 -0.00535313 0.54509804 0.71372549 0.60000000
v 0.06055615 -0.00267846 -0.00493610 0.54509804 0.71372549 0.60000000
v 0.06032727 -0.00348431 -0.00459105 0.54509804 0.71372549 0.60000000
v 0.06019203 -0.00219106 -0.00574475 0.54509804 0.71372549 0.60000000
v 0.05447015 -0.00496593 -0.00964619 0.54509804 0.71372549 0.60000000
v 0.05382514 -0.00512127 -0.00975204 0.54509804 0.71372549 0.60000000
v 0.05382514 -0.00430182 -0.01014789 0.54509804 0.71372549 0.60000000
v 0.05261834 -0.00430182 -0.01016906 0.54509804 0.71372549 0.60000000
v -0.04171980 -0.00539895 -0.00751236 0.54509804 0.71372549 0.60000000
v -0.04293701 -0.00537371 -0.00749331 0.54509804 0.71372549 0.60000000
v -0.04525697 -0.00583392 -0.00704029 0.54509804 0.71372549 0.60000000
v -0.04525697 -0.00528244 -0.00731126 0.54509804 0.71372549 0.60000000
v -0.04525697 -0.00430182 -0.00772405 0.54509804 0.71372549 0.60000000
v -0.04525697 -0.00302216 -0.00821305 0.54509804 0.71372549 0.60000000
v 0.05261834 -0.00515428 -0.00977109 0.54509804 0.71372549 0.60000000
v -0.04525697 0.00042846 -0.00857716 0.54509804 0.71372549 0.60000000
v -0.04525697 0.00053332 -0.00856869 0.54509804 0.71372549 0.60000000
v -0.04525697 0.00139355 -0.00847131 0.54509804 0.71372549 0.60000000
v -0.04525697 0.00146151 -0.00846285 0.54509804 0.71372549 0.60000000
v -0.04171980 0.00252952 -0.00848190 0.54509804 0.71372549 0.60000000
v -0.04525697 0.00206542 -0.00833795 0.54509804 0.71372549 0.60000000
v -0.04051301 0.00264020 -0.00852000 0.54509804 0.71372549 0.60000000
v 0.05261834 0.00295284 -0.01045908 0.54509804 0.71372549 0.60000000
v 0.05386675 0.00533351 -0.00936676 0.54509804 0.71372549 0.60000000
v 0.05461580 0.00739185 -0.00743404 0.54509804 0.71372549 0.60000000
v 0.06054574 0.00363830 -0.00370195 0.54509804 0.71372549 0.60000000
v 0.06050413 0.00243049 -0.00480909 0.54509804 0.71372549 0.60000000
v 0.05382514 0.00638598 -0.00874228 0.54509804 0.71372549 0.60000000
v 0.05382514 0.00699183 -0.00818342 0.54509804 0.71372549 0.60000000
v 0.06061857 0.00174502 -0.00500807 0.54509804 0.71372549 0.60000000
v 0.05289923 0.00490437 -0.00968641 0.54509804 0.71372549 0.60000000
v 0.06081623 0.00174502 -0.00416132 0.54509804 0.71372549 0.60000000
v 0.06094107 0.00053526 -0.00416132 0.54509804 0.71372549 0.60000000
v 0.06092027 -0.00067255 -0.00416132 0.54509804 0.71372549 0.60000000
v 0.06086825 -0.00188231 -0.00416132 0.54509804 0.71372549 0.60000000
v 0.06069139 -0.00308430 -0.00417613 0.54509804 0.71372549 0.60000000
v 0.06059776 -0.00390375 -0.00378451 0.54509804 0.71372549 0.60000000
v 0.05464701 -0.00758933 -0.00744674 0.54509804 0.71372549 0.60000000
v 0.05382514 -0.00711941 -0.00824481 0.54509804 0.71372549 0.60000000
v 0.05382514 -0.00572518 -0.00930749 0.54509804 0.71372549 0.60000000
v -0.03930621 -0.00606112 -0.00714614 0.54509804 0.71372549 0.60000000
v -0.04293701 -0.00597762 -0.00709745 0.54509804 0.71372549 0.60000000
v -0.04414380 -0.00672134 -0.00653859 0.54509804 0.71372549 0.60000000
v -0.04525697 -0.00590771 -0.00699372 0.54509804 0.71372549 0.60000000
v 0.05261834 -0.00575819 -0.00932442 0.54509804 0.71372549 0.60000000
v -0.04525697 0.00295284 -0.00805429 0.54509804 0.71372549 0.60000000
v -0.04051301 0.00324411 -0.00825327 0.54509804 0.71372549 0.60000000
v -0.03688222 0.00416259 -0.00797384 0.54509804 0.71372549 0.60000000
v 0.05465741 0.00861908 -0.00513509 0.54509804 0.71372549 0.60000000
v 0.05382514 0.00748700 -0.00757798 0.54509804 0.71372549 0.60000000
v 0.05386675 0.00813557 -0.00650049 0.54509804 0.71372549 0.60000000
v 0.05429330 0.00836664 -0.00594162 0.54509804 0.71372549 0.60000000
v 0.06060816 0.00288099 -0.00412745 0.54509804 0.71372549 0.60000000
v 0.05480306 0.00883268 -0.00416132 0.54509804 0.71372549 0.60000000
v 0.06023364 0.00458785 -0.00173959 0.54509804 0.71372549 0.60000000
v 0.06062897 0.00378782 -0.00295045 0.54509804 0.71372549 0.60000000
v 0.06082664 0.00295478 -0.00295045 0.54509804 0.71372549 0.60000000
v -0.03688222 0.00518399 -0.00748484 0.54509804 0.71372549 0.60000000
v -0.03809942 0.00576460 -0.00702124 0.54509804 0.71372549 0.60000000
v -0.03809942 0.00647725 -0.00641581 0.54509804 0.71372549 0.60000000
v -0.03809942 0.00708116 -0.00581038 0.54509804 0.71372549 0.60000000
v 0.06096188 0.00295478 -0.00173959 0.54509804 0.71372549 0.60000000
v 0.06102431 0.00295478 -0.00053507 0.54509804 0.71372549 0.60000000
v 0.06092027 -0.00309206 -0.00173959 0.54509804 0.71372549 0.60000000
v 0.06089946 -0.00309206 -0.00295045 0.54509804 0.71372549 0.60000000
v 0.06066019 -0.00407463 -0.00295045 0.54509804 0.71372549 0.60000000
v 0.06050413 -0.00493486 -0.00127599 0.54509804 0.71372549 0.60000000
v 0.06037929 -0.00479893 -0.00208252 0.54509804 0.71372549 0.60000000
v 0.06020243 -0.00467854 -0.00295045 0.54509804 0.71372549 0.60000000
v 0.05464701 -0.00870006 -0.00621047 0.54509804 0.71372549 0.60000000
v 0.05382514 -0.00836606 -0.00697890 0.54509804 0.71372549 0.60000000
v 0.05382514 -0.00775827 -0.00763937 0.54509804 0.71372549 0.60000000
v -0.04414380 -0.00737961 -0.00603688 0.54509804 0.71372549 0.60000000
v -0.04485123 -0.00735243 -0.00600937 0.54509804 0.71372549 0.60000000
v -0.04525697 -0.00684367 -0.00632478 0.54509804 0.71372549 0.60000000
v -0.04525697 0.00427134 -0.00747002 0.54509804 0.71372549 0.60000000
v -0.04051301 0.00416259 -0.00781931 0.54509804 0.71372549 0.60000000
v -0.03809942 0.00416259 -0.00792727 0.54509804 0.71372549 0.60000000
v 0.05386675 0.00870646 -0.00546956 0.54509804 0.71372549 0.60000000
v 0.05382514 0.00927542 -0.00416132 0.54509804 0.71372549 0.60000000
v 0.05449096 0.00965019 -0.00257788 0.54509804 0.71372549 0.60000000
v 0.05261834 0.00844043 -0.00604535 0.54509804 0.71372549 0.60000000
v 0.05349223 0.00843849 -0.00604535 0.54509804 0.71372549 0.60000000
v -0.04171980 0.00810450 -0.00438147 0.54509804 0.71372549 0.60000000
v -0.04171980 0.00851228 -0.00377816 0.54509804 0.71372549 0.60000000
v 0.05455338 0.00969874 -0.00173959 0.54509804 0.71372549 0.60000000
v 0.06021284 0.00462475 -0.00053507 0.54509804 0.71372549 0.60000000
v 0.06075381 0.00401890 -0.00053507 0.54509804 0.71372549 0.60000000
v 0.06072260 0.00398395 -0.00173959 0.54509804 0.71372549 0.60000000
v -0.03809942 0.00516069 -0.00743615 0.54509804 0.71372549 0.60000000
v -0.03930621 0.00570634 -0.00698525 0.54509804 0.71372549 0.60000000
v -0.04525697 0.00616656 -0.00624434 0.54509804 0.71372549 0.60000000
v -0.04525697 0.00623646 -0.00618930 0.54509804 0.71372549 0.60000000
v -0.03930621 0.00644230 -0.00637982 0.54509804 0.71372549 0.60000000
v -0.04525697 0.00684037 -0.00564526 0.54509804 0.71372549 0.60000000
v -0.04525697 0.00742874 -0.00503983 0.54509804 0.71372549 0.60000000
v 0.06096188 -0.00067255 0.00188454 0.54509804 0.71372549 0.60000000
v 0.06093067 -0.00309206 -0.00053507 0.54509804 0.71372549 0.60000000
v 0.06085785 0.00295478 0.00067367 0.54509804 0.71372549 0.60000000
v 0.06093067 0.00053526 0.00188454 0.54509804 0.71372549 0.60000000
v 0.06075381 -0.00430182 -0.00053507 0.54509804 0.71372549 0.60000000
v 0.06067058 -0.00435813 -0.00170360 0.54509804 0.71372549 0.60000000
v 0.06051454 -0.00494262 -0.00053507 0.54509804 0.71372549 0.60000000
v 0.05469903 -0.00988263 -0.00053507 0.54509804 0.71372549 0.60000000
v 0.05442854 -0.00974864 -0.00356647 0.54509804 0.71372549 0.60000000
v 0.05481347 -0.00887870 -0.00537006 0.54509804 0.71372549 0.60000000
v 0.05382514 -0.00925348 -0.00537006 0.54509804 0.71372549 0.60000000
v 0.05382514 -0.00880103 -0.00637559 0.54509804 0.71372549 0.60000000
v -0.04293701 -0.00842820 -0.00462492 0.54509804 0.71372549 0.60000000
v -0.04414380 -0.00839325 -0.00457623 0.54509804 0.71372549 0.60000000
v -0.04414380 -0.00880103 -0.00397291 0.54509804 0.71372549 0.60000000
v -0.04525697 -0.00874860 -0.00387765 0.54509804 0.71372549 0.60000000
v -0.04525697 -0.00836412 -0.00443016 0.54509804 0.71372549 0.60000000
v -0.04525697 -0.00762234 -0.00548861 0.54509804 0.71372549 0.60000000
v -0.04525697 -0.00729029 -0.00594162 0.54509804 0.71372549 0.60000000
v -0.04525697 0.00479951 -0.00720541 0.54509804 0.71372549 0.60000000
v 0.05261834 0.00879967 -0.00537006 0.54509804 0.71372549 0.60000000
v 0.05382514 0.00952397 -0.00320660 0.54509804 0.71372549 0.60000000
v -0.04293701 0.00880744 -0.00295045 0.54509804 0.71372549 0.60000000
v -0.04525697 0.00914920 -0.00174170 0.54509804 0.71372549 0.60000000
v 0.05382514 0.00965990 -0.00260328 0.54509804 0.71372549 0.60000000
v 0.05382514 0.00982884 -0.00173959 0.54509804 0.71372549 0.60000000
v -0.04293701 0.00807731 -0.00435395 0.54509804 0.71372549 0.60000000
v -0.04293701 0.00850451 -0.00375064 0.54509804 0.71372549 0.60000000
v 0.05453257 0.00968709 -0.00075523 0.54509804 0.71372549 0.60000000
v 0.06062897 0.00379170 0.00067367 0.54509804 0.71372549 0.60000000
v 0.05477185 0.00872782 0.00188242 0.54509804 0.71372549 0.60000000
v 0.05460540 0.00859578 0.00282444 0.54509804 0.71372549 0.60000000
v -0.04525697 0.00529662 -0.00687094 0.54509804 0.71372549 0.60000000
v -0.04525697 0.00803265 -0.00423964 0.54509804 0.71372549 0.60000000
v 0.06072260 -0.00067255 0.00299379 0.54509804 0.71372549 0.60000000
v 0.06068099 -0.00188231 0.00289853 0.54509804 0.71372549 0.60000000
v 0.06089946 -0.00188231 0.00188454 0.54509804 0.71372549 0.60000000
v 0.06087866 -0.00309206 0.00067367 0.54509804 0.71372549 0.60000000
v 0.06050413 0.00359946 0.00131721 0.54509804 0.71372549 0.60000000
v 0.06058736 0.00295478 0.00160722 0.54509804 0.71372549 0.60000000
v 0.06047292 0.00234310 0.00248574 0.54509804 0.71372549 0.60000000
v 0.06071220 0.00186153 0.00200308 0.54509804 0.71372549 0.60000000
v 0.06069139 0.00053526 0.00288159 0.54509804 0.71372549 0.60000000
v 0.06063938 -0.00426104 0.00056995 0.54509804 0.71372549 0.60000000
v 0.06049373 -0.00492709 0.00009999 0.54509804 0.71372549 0.60000000
v 0.05456378 -0.00983991 -0.00173959 0.54509804 0.71372549 0.60000000
v 0.05464701 -0.00983214 0.00067156 0.54509804 0.71372549 0.60000000
v 0.05382514 -0.01000885 -0.00053507 0.54509804 0.71372549 0.60000000
v 0.05382514 -0.00998166 -0.00173959 0.54509804 0.71372549 0.60000000
v 0.05382514 -0.00986321 -0.00295045 0.54509804 0.71372549 0.60000000
v 0.05382514 -0.00976806 -0.00363844 0.54509804 0.71372549 0.60000000
v 0.05382514 -0.00959524 -0.00424387 0.54509804 0.71372549 0.60000000
v 0.05299287 -0.00977194 -0.00365326 0.54509804 0.71372549 0.60000000
v -0.04171980 -0.00934668 -0.00295045 0.54509804 0.71372549 0.60000000
v -0.04171980 -0.00885152 -0.00403430 0.54509804 0.71372549 0.60000000
v -0.04293701 -0.00882239 -0.00401948 0.54509804 0.71372549 0.60000000
v -0.04414380 -0.00923988 -0.00295045 0.54509804 0.71372549 0.60000000
v -0.04525697 -0.00915444 -0.00295045 0.54509804 0.71372549 0.60000000
v -0.04525697 -0.00878938 -0.00378663 0.54509804 0.71372549 0.60000000
v -0.04293701 -0.00931950 -0.00295045 0.54509804 0.71372549 0.60000000
v -0.04525697 0.00873753 -0.00295045 0.54509804 0.71372549 0.60000000
v -0.04525697 0.00911813 -0.00184543 0.54509804 0.71372549 0.60000000
v -0.04525697 0.00941911 -0.00053296 0.54509804 0.71372549 0.60000000
v 0.05389796 0.00975311 -0.00042500 0.54509804 0.71372549 0.60000000
v -0.04525697 0.00952397 0.00056783 0.54509804 0.71372549 0.60000000
v -0.04525697 0.00953368 0.00067579 0.54509804 0.71372549 0.60000000
v -0.04525697 0.00948125 0.00188454 0.54509804 0.71372549 0.60000000
v -0.04525697 0.00844626 -0.00363421 0.54509804 0.71372549 0.60000000
v -0.04525697 0.00871035 -0.00301608 0.54509804 0.71372549 0.60000000
v 0.05435571 0.00960164 0.00004919 0.54509804 0.71372549 0.60000000
v 0.05438692 0.00717825 0.00489688 0.54509804 0.71372549 0.60000000
v 0.05468862 0.00754525 0.00409034 0.54509804 0.71372549 0.60000000
v 0.05382514 0.00910260 0.00188242 0.54509804 0.71372549 0.60000000
v 0.05382514 0.00869093 0.00299167 0.54509804 0.71372549 0.60000000
v 0.05382514 0.00833169 0.00359499 0.54509804 0.71372549 0.60000000
v 0.06036889 -0.00067255 0.00359711 0.54509804 0.71372549 0.60000000
v 0.06016082 -0.00188231 0.00349973 0.54509804 0.71372549 0.60000000
v 0.06059776 -0.00280079 0.00270801 0.54509804 0.71372549 0.60000000
v 0.06069139 -0.00315809 0.00193746 0.54509804 0.71372549 0.60000000
v 0.05450136 0.00605976 0.00617760 0.54509804 0.71372549 0.60000000
v 0.06018163 0.00053526 0.00348491 0.54509804 0.71372549 0.60000000
v 0.06057695 0.00153725 0.00266355 0.54509804 0.71372549 0.60000000
v 0.05459499 0.00383831 0.00748584 0.54509804 0.71372549 0.60000000
v 0.05457419 0.00139161 0.00862050 0.54509804 0.71372549 0.60000000
v 0.06057695 -0.00382802 0.00157335 0.54509804 0.71372549 0.60000000
v 0.06036889 -0.00360665 0.00237989 0.54509804 0.71372549 0.60000000
v 0.05454298 -0.00861267 0.00384055 0.54509804 0.71372549 0.60000000
v 0.05447015 -0.00976418 0.00132779 0.54509804 0.71372549 0.60000000
v 0.05384595 -0.00985350 0.00072660 0.54509804 0.71372549 0.60000000
v -0.04293701 -0.00989428 0.00188454 0.54509804 0.71372549 0.60000000
v -0.04293701 -0.00995642 0.00067579 0.54509804 0.71372549 0.60000000
v -0.04293701 -0.00989622 -0.00053296 0.54509804 0.71372549 0.60000000
v -0.04293701 -0.00979719 -0.00135220 0.54509804 0.71372549 0.60000000
v -0.03809942 -0.00967291 -0.00195763 0.54509804 0.71372549 0.60000000
v -0.04293701 -0.00963796 -0.00195763 0.54509804 0.71372549 0.60000000
v -0.04371726 -0.00977777 -0.00126964 0.54509804 0.71372549 0.60000000
v -0.04525697 -0.00951174 -0.00173747 0.54509804 0.71372549 0.60000000
v 0.05354425 0.00962495 0.00012540 0.54509804 0.71372549 0.60000000
v -0.04525697 0.00927736 0.00309328 0.54509804 0.71372549 0.60000000
v 0.05391877 0.00766564 0.00441634 0.54509804 0.71372549 0.60000000
v 0.05391877 0.00683843 0.00545151 0.54509804 0.71372549 0.60000000
v 0.05261834 0.00912590 0.00188242 0.54509804 0.71372549 0.60000000
v -0.03930621 0.00858995 0.00534989 0.54509804 0.71372549 0.60000000
v -0.03930621 0.00830256 0.00595533 0.54509804 0.71372549 0.60000000
v 0.05019435 0.00732777 0.00509587 0.54509804 0.71372549 0.60000000
v 0.05261834 0.00729864 0.00505565 0.54509804 0.71372549 0.60000000
v 0.05358586 0.00725980 0.00501119 0.54509804 0.71372549 0.60000000
v 0.05475105 0.00053332 0.00871787 0.54509804 0.71372549 0.60000000
v 0.05483427 -0.00067255 0.00876868 0.54509804 0.71372549 0.60000000
v 0.05461580 -0.00188231 0.00865014 0.54509804 0.71372549 0.60000000
v 0.05469903 -0.00430182 0.00762132 0.54509804 0.71372549 0.60000000
v 0.05451176 -0.00499700 0.00742022 0.54509804 0.71372549 0.60000000
v 0.05382514 0.00615491 0.00624958 0.54509804 0.71372549 0.60000000
v 0.05382514 0.00537235 0.00676610 0.54509804 0.71372549 0.60000000
v 0.05382514 0.00462281 0.00723605 0.54509804 0.71372549 0.60000000
v 0.05382514 0.00401890 0.00760227 0.54509804 0.71372549 0.60000000
v 0.05382514 0.00295284 0.00810821 0.54509804 0.71372549 0.60000000
v 0.05382514 0.00207319 0.00843844 0.54509804 0.71372549 0.60000000
v 0.05382514 0.00146734 0.00863108 0.54509804 0.71372549 0.60000000
v 0.05382514 0.00053332 0.00880890 0.54509804 0.71372549 0.60000000
v 0.05456378 -0.00630190 0.00625381 0.54509804 0.71372549 0.60000000
v 0.05457419 -0.00751554 0.00509587 0.54509804 0.71372549 0.60000000
v 0.05382514 -0.00764953 0.00526734 0.54509804 0.71372549 0.60000000
v 0.05382514 -0.00825344 0.00451160 0.54509804 0.71372549 0.60000000
v 0.05382514 -0.00864568 0.00390829 0.54509804 0.71372549 0.60000000
v 0.05382514 -0.00901851 0.00309117 0.54509804 0.71372549 0.60000000
v -0.04284337 -0.00882045 0.00562721 0.54509804 0.71372549 0.60000000
v -0.04171980 -0.00936028 0.00430203 0.54509804 0.71372549 0.60000000
v -0.04414380 -0.00965738 0.00327534 0.54509804 0.71372549 0.60000000
v -0.04414380 -0.00978359 0.00267202 0.54509804 0.71372549 0.60000000
v -0.04414380 -0.00988651 0.00188454 0.54509804 0.71372549 0.60000000
v -0.04525697 -0.00987292 0.00188454 0.54509804 0.71372549 0.60000000
v -0.04525697 -0.00992146 0.00077952 0.54509804 0.71372549 0.60000000
v -0.04525697 -0.00992535 0.00067579 0.54509804 0.71372549 0.60000000
v -0.04525697 -0.00982826 -0.00038054 0.54509804 0.71372549 0.60000000
v -0.04525697 -0.00971757 -0.00093305 0.54509804 0.71372549 0.60000000
v -0.04293701 0.00896084 0.00430203 0.54509804 0.71372549 0.60000000
v -0.04525697 0.00892783 0.00430203 0.54509804 0.71372549 0.60000000
v -0.04414380 0.00895113 0.00430203 0.54509804 0.71372549 0.60000000
v -0.04414380 0.00857830 0.00522288 0.54509804 0.71372549 0.60000000
v -0.04525697 0.00855694 0.00521230 0.54509804 0.71372549 0.60000000
v -0.04525697 0.00825596 0.00576481 0.54509804 0.71372549 0.60000000
v -0.04525697 0.00822489 0.00581561 0.54509804 0.71372549 0.60000000
v -0.04525697 0.00759380 0.00675975 0.54509804 0.71372549 0.60000000
v -0.04525697 0.00754914 0.00682325 0.54509804 0.71372549 0.60000000
v -0.04525697 0.00746758 0.00693545 0.54509804 0.71372549 0.60000000
v -0.04491365 0.00717436 0.00731437 0.54509804 0.71372549 0.60000000
v -0.03749602 0.00718796 0.00732919 0.54509804 0.71372549 0.60000000
v -0.03747522 0.00718796 0.00732919 0.54509804 0.71372549 0.60000000
v 0.05019435 0.00680347 0.00569918 0.54509804 0.71372549 0.60000000
v 0.05261834 0.00677241 0.00566108 0.54509804 0.71372549 0.60000000
v 0.05382514 -0.00067255 0.00888299 0.54509804 0.71372549 0.60000000
v 0.05388756 -0.00197940 0.00866919 0.54509804 0.71372549 0.60000000
v 0.05442854 -0.00249981 0.00854006 0.54509804 0.71372549 0.60000000
v 0.05382514 -0.00430182 0.00795791 0.54509804 0.71372549 0.60000000
v 0.05382514 -0.00510574 0.00749008 0.54509804 0.71372549 0.60000000
v 0.05382514 -0.00648055 0.00640411 0.54509804 0.71372549 0.60000000
v 0.05261834 0.00537235 0.00681690 0.54509804 0.71372549 0.60000000
v 0.05261834 0.00467718 0.00727627 0.54509804 0.71372549 0.60000000
v -0.04293701 0.00605976 0.00861203 0.54509804 0.71372549 0.60000000
v -0.04293701 0.00537235 0.00909892 0.54509804 0.71372549 0.60000000
v 0.05261834 0.00407327 0.00760439 0.54509804 0.71372549 0.60000000
v -0.02896522 0.00357810 0.00976362 0.54509804 0.71372549 0.60000000
v -0.02850747 0.00294118 0.00992239 0.54509804 0.71372549 0.60000000
v -0.02841384 0.00174308 0.01019758 0.54509804 0.71372549 0.60000000
v -0.04171980 0.00053332 0.01056381 0.54509804 0.71372549 0.60000000
v 0.05382514 -0.00708446 0.00587277 0.54509804 0.71372549 0.60000000
v 0.05261834 -0.00711941 0.00591299 0.54509804 0.71372549 0.60000000
v 0.05261834 -0.00765730 0.00530756 0.54509804 0.71372549 0.60000000
v -0.04171980 -0.00717766 0.00827968 0.54509804 0.71372549 0.60000000
v -0.04318669 -0.00858355 0.00617548 0.54509804 0.71372549 0.60000000
v -0.04379008 -0.00858355 0.00617548 0.54509804 0.71372549 0.60000000
v -0.04525697 -0.00934862 0.00430203 0.54509804 0.71372549 0.60000000
v -0.04414380 -0.00935833 0.00430203 0.54509804 0.71372549 0.60000000
v -0.04525697 -0.00965349 0.00324358 0.54509804 0.71372549 0.60000000
v -0.04525697 -0.00977583 0.00264027 0.54509804 0.71372549 0.60000000
v -0.04525697 -0.00986515 0.00195439 0.54509804 0.71372549 0.60000000
v -0.04525697 0.00858995 0.00513185 0.54509804 0.71372549 0.60000000
v -0.04525697 0.00679182 0.00768906 0.54509804 0.71372549 0.60000000
v -0.04525697 -0.00056575 0.01063367 0.54509804 0.71372549 0.60000000
v -0.04525697 -0.00067255 0.01063155 0.54509804 0.71372549 0.60000000
v -0.04525697 -0.00177551 0.01052994 0.54509804 0.71372549 0.60000000
v -0.04525697 -0.00188231 0.01051935 0.54509804 0.71372549 0.60000000
v -0.04211514 -0.00507855 0.00979537 0.54509804 0.71372549 0.60000000
v 0.05388756 -0.00297944 0.00842574 0.54509804 0.71372549 0.60000000
v -0.04171980 -0.00549216 0.00956887 0.54509804 0.71372549 0.60000000
v -0.04171980 -0.00657182 0.00895497 0.54509804 0.71372549 0.60000000
v 0.05261834 -0.00574071 0.00704341 0.54509804 0.71372549 0.60000000
v 0.05261834 -0.00651356 0.00643798 0.54509804 0.71372549 0.60000000
v -0.04293701 0.00450047 0.00962814 0.54509804 0.71372549 0.60000000
v -0.04367565 0.00602286 0.00858239 0.54509804 0.71372549 0.60000000
v -0.04525697 0.00541313 0.00881949 0.54509804 0.71372549 0.60000000
v -0.04525697 0.00436454 0.00948207 0.54509804 0.71372549 0.60000000
v -0.04525697 0.00381306 0.00982289 0.54509804 0.71372549 0.60000000
v -0.04293701 0.00389462 0.00987793 0.54509804 0.71372549 0.60000000
v -0.04414380 0.00295284 0.01017853 0.54509804 0.71372549 0.60000000
v -0.04525697 0.00184988 0.01047278 0.54509804 0.71372549 0.60000000
v -0.04525697 0.00174308 0.01049607 0.54509804 0.71372549 0.60000000
v -0.04525697 0.00064012 0.01060615 0.54509804 0.71372549 0.60000000
v -0.04525697 0.00053332 0.01061673 0.54509804 0.71372549 0.60000000
v -0.04525697 -0.00746311 0.00747737 0.54509804 0.71372549 0.60000000
v -0.04525697 -0.00814469 0.00660945 0.54509804 0.71372549 0.60000000
v -0.04525697 -0.00851170 0.00608234 0.54509804 0.71372549 0.60000000
v -0.04525697 -0.00878161 0.00560816 0.54509804 0.71372549 0.60000000
v -0.04525697 -0.00929814 0.00442269 0.54509804 0.71372549 0.60000000
v -0.04525697 0.00656075 0.00791346 0.54509804 0.71372549 0.60000000
v -0.04525697 -0.00309206 0.01025262 0.54509804 0.71372549 0.60000000
v -0.04253127 -0.00507855 0.00979537 0.54509804 0.71372549 0.60000000
v -0.04293701 -0.00549216 0.00946726 0.54509804 0.71372549 0.60000000
v -0.04293701 -0.00644948 0.00883219 0.54509804 0.71372549 0.60000000
v -0.04525697 0.00376063 0.00985465 0.54509804 0.71372549 0.60000000
v -0.04414380 0.00381501 0.00987582 0.54509804 0.71372549 0.60000000
v -0.04525697 0.00302857 0.01015736 0.54509804 0.71372549 0.60000000
v -0.04525697 0.00295284 0.01018488 0.54509804 0.71372549 0.60000000
v -0.04525697 -0.00739515 0.00753665 0.54509804 0.71372549 0.60000000
v -0.04525697 -0.00403968 0.00991392 0.54509804 0.71372549 0.60000000
v -0.04525697 -0.00464552 0.00959004 0.54509804 0.71372549 0.60000000
v -0.04525697 -0.00552711 0.00898884 0.54509804 0.71372549 0.60000000
v -0.04525697 -0.00558925 0.00894438 0.54509804 0.71372549 0.60000000
v -0.04525697 -0.00665920 0.00814208 0.54509804 0.71372549 0.60000000
f 1 2 3
f 1 3 4
f 1 4 5
f 1 5 6
f 1 6 7
f 1 7 8
f 1 8 9
f 1 9 2
f 2 10 11
f 2 11 12
f 2 12 3
f 2 9 10
f 3 12 13
f 3 13 4
f 4 13 14
f 4 14 5
f 5 15 6
f 5 14 15
f 6 15 16
f 6 16 7
f 7 17 18
f 7 18 19
f 7 19 20
f 7 20 21
f 7 21 22
f 7 22 23
f 7 23 8
f 7 16 17
f 8 23 9
f 9 23 24
f 9 24 25
f 9 25 26
f 9 26 10
f 10 27 11
f 10 26 27
f 11 27 12
f 12 28 29
f 12 29 30
f 12 30 31
f 12 31 13
f 12 27 32
f 12 32 28
f 13 31 33
f 13 33 34
f 13 34 14
f 14 34 35
f 14 35 36
f 14 36 37
f 14 37 38
f 14 38 39
f 14 39 15
f 15 39 40
f 15 40 41
f 15 41 42
f 15 42 16
f 16 42 18
f 16 18 17
f 18 43 44
f 18 44 45
f 18 45 46
f 18 46 47
f 18 47 48
f 18 48 19
f 18 42 49
f 18 49 43
f 19 48 20
f 20 48 47
f 20 47 46
f 20 46 45
f 20 45 78
f 20 78 109
f 20 109 149
f 20 149 148
f 20 148 147
f 20 147 146
f 20 146 189
f 20 189 188
f 20 188 227
f 20 227 266
f 20 266 265
f 20 265 264
f 20 264 263
f 20 263 262
f 20 262 307
f 20 307 306
f 20 306 305
f 20 305 303
f 20 303 335
f 20 335 334
f 20 334 333
f 20 333 332
f 20 332 331
f 20 331 345
f 20 345 350
f 20 350 349
f 20 349 348
f 20 348 347
f 20 347 346
f 20 346 337
f 20 337 313
f 20 313 312
f 20 312 311
f 20 311 310
f 20 310 330
f 20 330 329
f 20 329 328
f 20 328 327
f 20 327 344
f 20 344 343
f 20 343 341
f 20 341 324
f 20 324 323
f 20 323 322
f 20 322 336
f 20 336 309
f 20 309 276
f 20 276 275
f 20 275 274
f 20 274 273
f 20 273 272
f 20 272 271
f 20 271 308
f 20 308 268
f 20 268 229
f 20 229 197
f 20 197 196
f 20 196 195
f 20 195 193
f 20 193 154
f 20 154 192
f 20 192 191
f 20 191 199
f 20 199 198
f 20 198 164
f 20 164 130
f 20 130 129
f 20 129 127
f 20 127 126
f 20 126 163
f 20 163 150
f 20 150 110
f 20 110 80
f 20 80 55
f 20 55 53
f 20 53 52
f 20 52 51
f 20 51 50
f 20 50 22
f 20 22 21
f 22 50 23
f 23 50 24
f 24 50 51
f 24 51 52
f 24 52 53
f 24 53 25
f 25 54 26
f 25 53 55
f 25 55 54
f 26 54 56
f 26 56 57
f 26 57 27
f 27 57 32
f 28 58 29
f 28 32 58
f 29 59 60
f 29 60 61
f 29 61 30
f 29 58 62
f 29 62 63
f 29 63 59
f 30 61 64
f 30 64 33
f 30 33 31
f 32 65 62
f 32 62 58
f 32 57 65
f 33 66 67
f 33 67 34
f 33 64 66
f 34 67 68
f 34 68 69
f 34 69 35
f 35 69 70
f 35 70 36
f 36 71 37
f 36 70 71
f 37 71 72
f 37 72 38
f 38 72 39
f 39 72 73
f 39 73 74
f 39 74 40
f 40 74 49
f 40 49 41
f 41 49 42
f 43 75 76
f 43 76 44
f 43 49 75
f 44 76 77
f 44 77 78
f 44 78 45
f 49 74 79
f 49 79 75
f 54 55 80
f 54 80 56
f 56 80 81
f 56 81 82
f 56 82 65
f 56 65 57
f 59 83 60
f 59 63 84
f 59 84 85
f 59 85 86
f 59 86 83
f 60 87 61
f 60 83 88
f 60 88 89
f 60 89 90
f 60 90 91
f 60 91 87
f 61 87 64
f 62 65 92
f 62 92 93
f 62 93 94
f 62 94 63
f 63 94 95
f 63 95 84
f 64 87 66
f 65 82 92
f 66 91 96
f 66 96 67
f 66 87 91
f 67 96 97
f 67 97 98
f 67 98 99
f 67 99 68
f 68 99 69
f 69 99 70
f 70 99 71
f 71 99 100
f 71 100 101
f 71 101 102
f 71 102 103
f 71 103 104
f 71 104 72
f 72 104 105
f 72 105 106
f 72 106 73
f 73 79 74
f 73 106 107
f 73 107 79
f 75 107 77
f 75 77 76
f 75 79 107
f 77 107 108
f 77 108 78
f 78 108 109
f 80 110 81
f 81 111 112
f 81 112 82
f 81 110 111
f 82 112 92
f 83 86 113
f 83 113 114
f 83 114 115
f 83 115 88
f 84 116 117
f 84 117 85
f 84 95 118
f 84 118 119
f 84 119 116
f 85 113 86
f 85 117 113
f 88 115 89
f 89 115 120
f 89 120 121
f 89 121 122
f 89 122 123
f 89 123 90
f 90 123 91
f 91 123 96
f 92 112 111
f 92 111 124
f 92 124 93
f 93 124 125
f 93 125 126
f 93 126 127
f 93 127 128
f 93 128 94
f 94 128 129
f 94 129 95
f 95 129 130
f 95 130 118
f 96 123 97
f 97 131 132
f 97 132 98
f 97 123 122
f 97 122 133
f 97 133 134
f 97 134 131
f 98 132 135
f 98 135 99
f 99 135 136
f 99 136 100
f 100 136 101
f 101 136 135
f 101 135 137
f 101 137 138
f 101 138 139
f 101 139 140
f 101 140 102
f 102 140 103
f 103 140 104
f 104 140 139
f 104 139 141
f 104 141 142
f 104 142 105
f 105 142 143
f 105 143 107
f 105 107 106
f 107 143 144
f 107 144 108
f 108 144 145
f 108 145 146
f 108 146 147
f 108 147 148
f 108 148 149
f 108 149 109
f 110 150 111
f 111 150 124
f 113 117 151
f 113 151 114
f 114 152 115
f 114 151 119
f 114 119 153
f 114 153 154
f 114 154 152
f 115 152 155
f 115 155 156
f 115 156 120
f 116 151 117
f 116 119 151
f 118 130 157
f 118 157 158
f 118 158 119
f 119 158 153
f 120 159 121
f 120 156 159
f 121 160 122
f 121 159 161
f 121 161 162
f 121 162 160
f 122 160 133
f 124 150 163
f 124 163 125
f 125 163 126
f 127 129 128
f 130 164 157
f 131 134 165
f 131 165 166
f 131 166 167
f 131 167 132
f 132 167 168
f 132 168 135
f 133 160 169
f 133 169 170
f 133 170 171
f 133 171 172
f 133 172 134
f 134 172 173
f 134 173 165
f 135 174 175
f 135 175 137
f 135 168 174
f 137 175 138
f 138 176 139
f 138 175 177
f 138 177 178
f 138 178 179
f 138 179 176
f 139 176 179
f 139 179 180
f 139 180 181
f 139 181 182
f 139 182 141
f 141 182 183
f 141 183 184
f 141 184 142
f 142 184 185
f 142 185 143
f 143 185 186
f 143 186 145
f 143 145 144
f 145 187 188
f 145 188 189
f 145 189 146
f 145 186 190
f 145 190 187
f 152 154 155
f 153 158 191
f 153 191 192
f 153 192 154
f 154 193 155
f 155 193 156
f 156 194 159
f 156 193 195
f 156 195 196
f 156 196 197
f 156 197 194
f 157 164 158
f 158 164 198
f 158 198 199
f 158 199 191
f 159 162 161
f 159 194 200
f 159 200 162
f 160 162 169
f 162 201 202
f 162 202 169
f 162 200 203
f 162 203 204
f 162 204 205
f 162 205 201
f 165 173 206
f 165 206 166
f 166 206 207
f 166 207 208
f 166 208 167
f 167 208 209
f 167 209 168
f 168 209 174
f 169 171 170
f 169 202 210
f 169 210 171
f 171 211 212
f 171 212 172
f 171 210 213
f 171 213 214
f 171 214 211
f 172 212 173
f 173 212 211
f 173 211 206
f 174 209 215
f 174 215 175
f 175 215 216
f 175 216 217
f 175 217 218
f 175 218 177
f 177 218 178
f 178 218 219
f 178 219 220
f 178 220 221
f 178 221 179
f 179 221 222
f 179 222 180
f 180 183 181
f 180 222 223
f 180 223 183
f 181 183 182
f 183 223 224
f 183 224 184
f 184 224 225
f 184 225 190
f 184 190 185
f 185 190 186
f 187 190 225
f 187 225 188
f 188 225 226
f 188 226 227
f 194 228 200
f 194 197 229
f 194 229 228
f 200 228 203
f 201 230 231
f 201 231 210
f 201 210 202
f 201 205 230
f 203 228 232
f 203 232 204
f 204 232 233
f 204 233 234
f 204 234 205
f 205 235 236
f 205 236 237
f 205 237 230
f 205 234 235
f 206 211 238
f 206 238 239
f 206 239 207
f 207 239 240
f 207 240 241
f 207 241 208
f 208 216 215
f 208 215 209
f 208 241 242
f 208 242 216
f 210 231 243
f 210 243 244
f 210 244 245
f 210 245 246
f 210 246 213
f 211 214 238
f 213 246 247
f 213 247 214
f 214 247 248
f 214 248 249
f 214 249 250
f 214 250 238
f 216 242 251
f 216 251 252
f 216 252 217
f 217 252 253
f 217 253 254
f 217 254 255
f 217 255 256
f 217 256 218
f 218 256 257
f 218 257 258
f 218 258 259
f 218 259 260
f 218 260 219
f 219 260 220
f 220 260 261
f 220 261 221
f 221 261 262
f 221 262 263
f 221 263 264
f 221 264 222
f 222 264 265
f 222 265 223
f 223 265 226
f 223 226 225
f 223 225 224
f 226 265 266
f 226 266 227
f 228 229 267
f 228 267 232
f 229 268 269
f 229 269 267
f 230 237 231
f 231 237 243
f 232 267 233
f 233 267 269
f 233 269 270
f 233 270 234
f 234 270 271
f 234 271 272
f 234 272 273
f 234 273 274
f 234 274 275
f 234 275 276
f 234 276 277
f 234 277 278
f 234 278 279
f 234 279 235
f 235 280 236
f 235 279 280
f 236 281 237
f 236 280 281
f 237 281 243
f 238 250 282
f 238 282 239
f 239 282 240
f 240 282 283
f 240 283 284
f 240 284 241
f 241 284 242
f 242 284 285
f 242 285 286
f 242 286 287
f 242 287 251
f 243 288 289
f 243 289 244
f 243 281 280
f 243 280 290
f 243 290 291
f 243 291 288
f 244 289 245
f 245 289 246
f 246 289 292
f 246 292 293
f 246 293 247
f 247 293 248
f 248 293 249
f 249 293 294
f 249 294 295
f 249 295 250
f 250 295 296
f 250 296 282
f 251 287 297
f 251 297 252
f 252 297 253
f 253 297 298
f 253 298 299
f 253 299 254
f 254 299 300
f 254 300 301
f 254 301 255
f 255 301 256
f 256 301 257
f 257 301 302
f 257 302 303
f 257 303 304
f 257 304 258
f 258 304 259
f 259 304 303
f 259 303 305
f 259 305 260
f 260 305 306
f 260 306 261
f 261 306 307
f 261 307 262
f 268 308 270
f 268 270 269
f 270 308 271
f 276 309 277
f 277 309 290
f 277 290 278
f 278 290 279
f 279 290 280
f 282 310 311
f 282 311 312
f 282 312 313
f 282 313 283
f 282 296 310
f 283 313 314
f 283 314 284
f 284 314 315
f 284 315 285
f 285 315 314
f 285 314 316
f 285 316 317
f 285 317 286
f 286 318 319
f 286 319 287
f 286 317 318
f 287 319 298
f 287 298 297
f 288 291 289
f 289 291 320
f 289 320 292
f 290 309 321
f 290 321 291
f 291 321 322
f 291 322 323
f 291 323 324
f 291 324 320
f 292 320 293
f 293 320 325
f 293 325 326
f 293 326 294
f 294 326 327
f 294 327 295
f 295 327 328
f 295 328 296
f 296 328 329
f 296 329 330
f 296 330 310
f 298 319 317
f 298 317 300
f 298 300 299
f 300 317 331
f 300 331 332
f 300 332 302
f 300 302 301
f 302 332 333
f 302 333 334
f 302 334 335
f 302 335 303
f 309 336 321
f 313 337 314
f 314 337 338
f 314 338 316
f 316 338 317
f 317 338 339
f 317 339 340
f 317 340 331
f 317 319 318
f 320 324 341
f 320 341 342
f 320 342 325
f 321 336 322
f 325 342 343
f 325 343 344
f 325 344 326
f 326 344 327
f 331 340 345
f 337 346 338
f 338 346 347
f 338 347 339
f 339 347 340
f 340 347 348
f 340 348 349
f 340 349 350
f 340 350 345
f 341 343 342

o geometry_1
v -0.05745911 -0.01014124 0.00067605 0.54117647 0.42352941 0.64313725
v -0.05866744 -0.01009840 0.00147603 0.54117647 0.42352941 0.64313725
v -0.05866590 -0.01010814 0.00067605 0.54117647 0.42352941 0.64313725
v -0.05866590 -0.00998351 -0.00053373 0.54117647 0.42352941 0.64313725
v -0.05745911 -0.01001272 -0.00053373 0.54117647 0.42352941 0.64313725
v -0.05624923 -0.01001077 -0.00053373 0.54117647 0.42352941 0.64313725
v -0.05624923 -0.01013540 0.00067605 0.54117647 0.42352941 0.64313725
v -0.05624923 -0.01012177 0.00147603 0.54117647 0.42352941 0.64313725
v -0.05624769 -0.01011398 0.00188582 0.54117647 0.42352941 0.64313725
v -0.05745911 -0.01011787 0.00188582 0.54117647 0.42352941 0.64313725
v -0.05866744 -0.01009256 0.00188582 0.54117647 0.42352941 0.64313725
v -0.05963966 -0.00990756 0.00188582 0.54117647 0.42352941 0.64313725
v -0.05965046 -0.00990951 0.00147603 0.54117647 0.42352941 0.64313725
v -0.05966435 -0.00990951 0.00067605 0.54117647 0.42352941 0.64313725
v -0.05953009 -0.00984720 -0.00053373 0.54117647 0.42352941 0.64313725
v -0.05936805 -0.00978099 -0.00127881 0.54117647 0.42352941 0.64313725
v -0.05866590 -0.00981409 -0.00139450 0.54117647 0.42352941 0.64313725
v -0.05745911 -0.00983162 -0.00143567 0.54117647 0.42352941 0.64313725
v -0.05624923 -0.00982773 -0.00141999 0.54117647 0.42352941 0.64313725
v -0.05503627 -0.00982188 -0.00140626 0.54117647 0.42352941 0.64313725
v -0.05503627 -0.00999909 -0.00053373 0.54117647 0.42352941 0.64313725
v -0.05503627 -0.01011982 0.00067605 0.54117647 0.42352941 0.64313725
v -0.05503936 -0.01009450 0.00188582 0.54117647 0.42352941 0.64313725
v -0.05503936 -0.00992704 0.00309560 0.54117647 0.42352941 0.64313725
v -0.05624769 -0.00994262 0.00309560 0.54117647 0.42352941 0.64313725
v -0.05745911 -0.00995040 0.00309560 0.54117647 0.42352941 0.64313725
v -0.05866744 -0.00992509 0.00309560 0.54117647 0.42352941 0.64313725
v -0.05944522 -0.00981994 0.00309560 0.54117647 0.42352941 0.64313725
v -0.06024614 -0.00951810 0.00188582 0.54117647 0.42352941 0.64313725
v -0.06025540 -0.00953368 0.00147603 0.54117647 0.42352941 0.64313725
v -0.06027238 -0.00956095 0.00067605 0.54117647 0.42352941 0.64313725
v -0.06013657 -0.00950642 -0.00053373 0.54117647 0.42352941 0.64313725
v -0.05981250 -0.00938958 -0.00170429 0.54117647 0.42352941 0.64313725
v -0.05994213 -0.00887355 -0.00297877 0.54117647 0.42352941 0.64313725
v -0.05958410 -0.00868271 -0.00381797 0.54117647 0.42352941 0.64313725
v -0.05866590 -0.00926690 -0.00295328 0.54117647 0.42352941 0.64313725
v -0.05866590 -0.00964078 -0.00200233 0.54117647 0.42352941 0.64313725
v -0.05745911 -0.00965052 -0.00204154 0.54117647 0.42352941 0.64313725
v -0.05503627 -0.00964273 -0.00201213 0.54117647 0.42352941 0.64313725
v -0.05383103 -0.00981409 -0.00138665 0.54117647 0.42352941 0.64313725
v -0.05383103 -0.00963689 -0.00199056 0.54117647 0.42352941 0.64313725
v -0.04709647 -0.00974594 -0.00114352 0.54117647 0.42352941 0.64313725
v -0.05383103 -0.00997767 -0.00053373 0.54117647 0.42352941 0.64313725
v -0.04525697 -0.00982773 -0.00038472 0.54117647 0.42352941 0.64313725
v -0.04525697 -0.00992704 0.00067605 0.54117647 0.42352941 0.64313725
v -0.05382794 -0.01006724 0.00188582 0.54117647 0.42352941 0.64313725
v -0.04525697 -0.00977320 0.00264267 0.54117647 0.42352941 0.64313725
v -0.05382794 -0.00990172 0.00309560 0.54117647 0.42352941 0.64313725
v -0.04525697 -0.00992314 0.00078193 0.54117647 0.42352941 0.64313725
v -0.05382794 -0.00976541 0.00377009 0.54117647 0.42352941 0.64313725
v -0.05503936 -0.00977320 0.00379950 0.54117647 0.42352941 0.64313725
v -0.05745911 -0.00978878 0.00384656 0.54117647 0.42352941 0.64313725
v -0.05866744 -0.00977125 0.00379558 0.54117647 0.42352941 0.64313725
v -0.05928627 -0.00974983 0.00372304 0.54117647 0.42352941 0.64313725
v -0.06005015 -0.00941100 0.00309560 0.54117647 0.42352941 0.64313725
v -0.06055324 -0.00864571 0.00430538 0.54117647 0.42352941 0.64313725
v -0.06062577 -0.00880539 0.00309560 0.54117647 0.42352941 0.64313725
v -0.06065973 -0.00891249 0.00188582 0.54117647 0.42352941 0.64313725
v -0.06067053 -0.00893002 0.00147603 0.54117647 0.42352941 0.64313725
v -0.06039738 -0.00932922 0.00147603 0.54117647 0.42352941 0.64313725
v -0.06069059 -0.00895923 0.00067605 0.54117647 0.42352941 0.64313725
v -0.06068596 -0.00890081 -0.00053373 0.54117647 0.42352941 0.64313725
v -0.06062577 -0.00875476 -0.00174351 0.54117647 0.42352941 0.64313725
v -0.06055016 -0.00862429 -0.00259251 0.54117647 0.42352941 0.64313725
v -0.06039120 -0.00844514 -0.00339837 0.54117647 0.42352941 0.64313725
v -0.05994213 -0.00821926 -0.00419639 0.54117647 0.42352941 0.64313725
v -0.05987886 -0.00760391 -0.00508265 0.54117647 0.42352941 0.64313725
v -0.05866590 -0.00778890 -0.00533166 0.54117647 0.42352941 0.64313725
v -0.05866590 -0.00839257 -0.00455521 0.54117647 0.42352941 0.64313725
v -0.05866590 -0.00876839 -0.00395130 0.54117647 0.42352941 0.64313725
v -0.05745911 -0.00928832 -0.00295328 0.54117647 0.42352941 0.64313725
v -0.05503627 -0.00927274 -0.00295328 0.54117647 0.42352941 0.64313725
v -0.05383103 -0.00926496 -0.00295328 0.54117647 0.42352941 0.64313725
v -0.04664585 -0.00959989 -0.00162586 0.54117647 0.42352941 0.64313725
v -0.04525697 -0.00915591 -0.00295328 0.54117647 0.42352941 0.64313725
v -0.04629091 -0.00973815 -0.00110431 0.54117647 0.42352941 0.64313725
v -0.04525697 -0.00971868 -0.00093568 0.54117647 0.42352941 0.64313725
v -0.04525697 -0.00987251 0.00188582 0.54117647 0.42352941 0.64313725
v -0.04525697 -0.00976346 0.00269561 0.54117647 0.42352941 0.64313725
v -0.04525697 -0.00965442 0.00324854 0.54117647 0.42352941 0.64313725
v -0.05296992 -0.00975373 0.00373480 0.54117647 0.42352941 0.64313725
v -0.05382794 -0.00956289 0.00437400 0.54117647 0.42352941 0.64313725
v -0.05503936 -0.00958042 0.00440537 0.54117647 0.42352941 0.64313725
v -0.05624769 -0.00959405 0.00442890 0.54117647 0.42352941 0.64313725
v -0.05745911 -0.00959989 0.00445243 0.54117647 0.42352941 0.64313725
v -0.05866744 -0.00958431 0.00440145 0.54117647 0.42352941 0.64313725
v -0.05866744 -0.00912864 0.00551515 0.54117647 0.42352941 0.64313725
v -0.05941744 -0.00861650 0.00626023 0.54117647 0.42352941 0.64313725
v -0.05984491 -0.00876255 0.00540927 0.54117647 0.42352941 0.64313725
v -0.05976620 -0.00928053 0.00419753 0.54117647 0.42352941 0.64313725
v -0.06049151 -0.00854835 0.00493673 0.54117647 0.42352941 0.64313725
v -0.06075386 -0.00792911 0.00430538 0.54117647 0.42352941 0.64313725
v -0.06083719 -0.00792911 0.00309560 0.54117647 0.42352941 0.64313725
v -0.06092052 -0.00793106 -0.00053373 0.54117647 0.42352941 0.64313725
v -0.06089429 -0.00793106 -0.00174351 0.54117647 0.42352941 0.64313725
v -0.06070910 -0.00799532 -0.00297877 0.54117647 0.42352941 0.64313725
v -0.06061651 -0.00760586 -0.00416110 0.54117647 0.42352941 0.64313725
v -0.06052392 -0.00738387 -0.00483560 0.54117647 0.42352941 0.64313725
v -0.05987886 -0.00704504 -0.00568852 0.54117647 0.42352941 0.64313725
v -0.05866590 -0.00728845 -0.00593753 0.54117647 0.42352941 0.64313725
v -0.05745911 -0.00779475 -0.00535323 0.54117647 0.42352941 0.64313725
v -0.05745911 -0.00730987 -0.00595910 0.54117647 0.42352941 0.64313725
v -0.05624923 -0.00841204 -0.00457286 0.54117647 0.42352941 0.64313725
v -0.05745911 -0.00877813 -0.00396111 0.54117647 0.42352941 0.64313725
v -0.05624923 -0.00877424 -0.00396699 0.54117647 0.42352941 0.64313725
v -0.05383103 -0.00876839 -0.00396503 0.54117647 0.42352941 0.64313725
v -0.04525697 -0.00874697 -0.00387875 0.54117647 0.42352941 0.64313725
v -0.04525697 -0.00951226 -0.00173959 0.54117647 0.42352941 0.64313725
v -0.04525697 -0.00934869 0.00430538 0.54117647 0.42352941 0.64313725
v -0.05503936 -0.00913059 0.00551515 0.54117647 0.42352941 0.64313725
v -0.05624769 -0.00915201 0.00551515 0.54117647 0.42352941 0.64313725
v -0.05745911 -0.00916759 0.00551515 0.54117647 0.42352941 0.64313725
v -0.05745911 -0.00870803 0.00639945 0.54117647 0.42352941 0.64313725
v -0.05866744 -0.00868466 0.00636611 0.54117647 0.42352941 0.64313725
v -0.05866744 -0.00830104 0.00697198 0.54117647 0.42352941 0.64313725
v -0.05957639 -0.00756496 0.00761314 0.54117647 0.42352941 0.64313725
v -0.05990201 -0.00790574 0.00668179 0.54117647 0.42352941 0.64313725
v -0.06038349 -0.00713072 0.00710531 0.54117647 0.42352941 0.64313725
v -0.06053318 -0.00744034 0.00629945 0.54117647 0.42352941 0.64313725
v -0.06059182 -0.00787653 0.00540927 0.54117647 0.42352941 0.64313725
v -0.06060571 -0.00672373 0.00670924 0.54117647 0.42352941 0.64313725
v -0.06059336 -0.00548525 0.00793275 0.54117647 0.42352941 0.64313725
v -0.06066590 -0.00067348 0.00914252 0.54117647 0.42352941 0.64313725
v -0.06067207 0.00053385 0.00914252 0.54117647 0.42352941 0.64313725
v -0.06078318 0.00658216 0.00551515 0.54117647 0.42352941 0.64313725
v -0.06087731 0.00779143 0.00067605 0.54117647 0.42352941 0.64313725
v -0.06102238 -0.00067153 -0.00657869 0.54117647 0.42352941 0.64313725
v -0.06099460 -0.00188080 -0.00657869 0.54117647 0.42352941 0.64313725
v -0.06091898 -0.00671984 -0.00295328 0.54117647 0.42352941 0.64313725
v -0.06085108 -0.00671984 -0.00416110 0.54117647 0.42352941 0.64313725
v -0.06062886 -0.00664779 -0.00529049 0.54117647 0.42352941 0.64313725
v -0.06052546 -0.00619407 -0.00603949 0.54117647 0.42352941 0.64313725
v -0.05987886 -0.00644137 -0.00626301 0.54117647 0.42352941 0.64313725
v -0.05866590 -0.00668284 -0.00645321 0.54117647 0.42352941 0.64313725
v -0.05624923 -0.00780643 -0.00534735 0.54117647 0.42352941 0.64313725
v -0.05383103 -0.00730792 -0.00595518 0.54117647 0.42352941 0.64313725
v -0.05383103 -0.00780838 -0.00535127 0.54117647 0.42352941 0.64313725
v -0.05745911 -0.00670426 -0.00645517 0.54117647 0.42352941 0.64313725
v -0.05383103 -0.00670036 -0.00646301 0.54117647 0.42352941 0.64313725
v -0.05503627 -0.00841593 -0.00457678 0.54117647 0.42352941 0.64313725
v -0.05383103 -0.00841204 -0.00457090 0.54117647 0.42352941 0.64313725
v -0.04525697 -0.00832831 -0.00448266 0.54117647 0.42352941 0.64313725
v -0.04525697 -0.00929806 0.00442302 0.54117647 0.42352941 0.64313725
v -0.05382794 -0.00909359 0.00551515 0.54117647 0.42352941 0.64313725
v -0.04591437 -0.00853861 0.00612690 0.54117647 0.42352941 0.64313725
v -0.05382794 -0.00866908 0.00633278 0.54117647 0.42352941 0.64313725
v -0.05503936 -0.00869050 0.00636023 0.54117647 0.42352941 0.64313725
v -0.05745911 -0.00831078 0.00700531 0.54117647 0.42352941 0.64313725
v -0.05866744 -0.00769543 0.00777196 0.54117647 0.42352941 0.64313725
v -0.05866744 -0.00716187 0.00837587 0.54117647 0.42352941 0.64313725
v -0.05956713 -0.00639464 0.00875233 0.54117647 0.42352941 0.64313725
v -0.05997762 -0.00676268 0.00797588 0.54117647 0.42352941 0.64313725
v -0.06054706 -0.00632259 0.00753079 0.54117647 0.42352941 0.64313725
v -0.06037269 -0.00586887 0.00833666 0.54117647 0.42352941 0.64313725
v -0.06052392 -0.00506269 0.00862881 0.54117647 0.42352941 0.64313725
v -0.06056250 -0.00430129 0.00879351 0.54117647 0.42352941 0.64313725
v -0.06056404 -0.00188080 0.00988368 0.54117647 0.42352941 0.64313725
v -0.06060571 -0.00067348 0.00996995 0.54117647 0.42352941 0.64313725
v -0.06066281 0.00174507 0.00914252 0.54117647 0.42352941 0.64313725
v -0.06070447 0.00416361 0.00793275 0.54117647 0.42352941 0.64313725
v -0.06060416 -0.00033465 0.00996407 0.54117647 0.42352941 0.64313725
v -0.06062731 0.00537678 0.00794843 0.54117647 0.42352941 0.64313725
v -0.06062886 0.00657826 0.00670532 0.54117647 0.42352941 0.64313725
v -0.06062423 0.00752270 0.00551515 0.54117647 0.42352941 0.64313725
v -0.06066744 0.00787127 0.00433675 0.54117647 0.42352941 0.64313725
v -0.06078318 0.00779143 0.00309560 0.54117647 0.42352941 0.64313725
v -0.06083874 0.00779143 0.00167798 0.54117647 0.42352941 0.64313725
v -0.06066127 0.00869887 0.00067605 0.54117647 0.42352941 0.64313725
v -0.06088966 0.00779143 -0.00053373 0.54117647 0.42352941 0.64313725
v -0.06067053 0.00851582 0.00167798 0.54117647 0.42352941 0.64313725
v -0.06101620 -0.00033270 -0.00657869 0.54117647 0.42352941 0.64313725
v -0.06085725 -0.00033270 -0.00736495 0.54117647 0.42352941 0.64313725
v -0.06080170 -0.00067153 -0.00766887 0.54117647 0.42352941 0.64313725
v -0.06091126 0.00658216 -0.00295328 0.54117647 0.42352941 0.64313725
v -0.06076311 -0.00188080 -0.00761004 0.54117647 0.42352941 0.64313725
v -0.06092515 -0.00309007 -0.00657869 0.54117647 0.42352941 0.64313725
v -0.06085879 -0.00551057 -0.00537088 0.54117647 0.42352941 0.64313725
v -0.06062114 -0.00551057 -0.00626498 0.54117647 0.42352941 0.64313725
v -0.06058719 -0.00399557 -0.00732574 0.54117647 0.42352941 0.64313725
v -0.06040509 -0.00480175 -0.00710417 0.54117647 0.42352941 0.64313725
v -0.05995293 -0.00555535 -0.00688261 0.54117647 0.42352941 0.64313725
v -0.05959800 -0.00518147 -0.00734730 0.54117647 0.42352941 0.64313725
v -0.05866590 -0.00592144 -0.00705907 0.54117647 0.42352941 0.64313725
v -0.04525697 -0.00684057 -0.00632380 0.54117647 0.42352941 0.64313725
v -0.04525697 -0.00729040 -0.00594145 0.54117647 0.42352941 0.64313725
v -0.05624923 -0.00593508 -0.00706496 0.54117647 0.42352941 0.64313725
v -0.05503627 -0.00593702 -0.00706692 0.54117647 0.42352941 0.64313725
v -0.05383103 -0.00593508 -0.00706692 0.54117647 0.42352941 0.64313725
v -0.04525697 -0.00762338 -0.00548852 0.54117647 0.42352941 0.64313725
v -0.04525697 -0.00878203 0.00560927 0.54117647 0.42352941 0.64313725
v -0.04525697 -0.00851135 0.00608377 0.54117647 0.42352941 0.64313725
v -0.04525697 -0.00814331 0.00661121 0.54117647 0.42352941 0.64313725
v -0.04657487 -0.00750460 0.00752491 0.54117647 0.42352941 0.64313725
v -0.05382794 -0.00825431 0.00693473 0.54117647 0.42352941 0.64313725
v -0.05503936 -0.00827573 0.00696610 0.54117647 0.42352941 0.64313725
v -0.05624769 -0.00829715 0.00698571 0.54117647 0.42352941 0.64313725
v -0.05745911 -0.00770517 0.00777785 0.54117647 0.42352941 0.64313725
v -0.05745911 -0.00717356 0.00838372 0.54117647 0.42352941 0.64313725
v -0.05745911 -0.00656795 0.00892292 0.54117647 0.42352941 0.64313725
v -0.05866744 -0.00655432 0.00890331 0.54117647 0.42352941 0.64313725
v -0.05866744 -0.00575982 0.00950722 0.54117647 0.42352941 0.64313725
v -0.05940972 -0.00503737 0.00982878 0.54117647 0.42352941 0.64313725
v -0.05989275 -0.00545215 0.00909546 0.54117647 0.42352941 0.64313725
v -0.06023843 -0.00430129 0.00939938 0.54117647 0.42352941 0.64313725
v -0.06042361 -0.00345422 0.00959545 0.54117647 0.42352941 0.64313725
v -0.06051003 -0.00264804 0.00979153 0.54117647 0.42352941 0.64313725
v -0.05979553 -0.00188470 0.01056406 0.54117647 0.42352941 0.64313725
v -0.06002392 -0.00067348 0.01057386 0.54117647 0.42352941 0.64313725
v -0.06004090 0.00053385 0.01055818 0.54117647 0.42352941 0.64313725
v -0.06059799 0.00053385 0.00995427 0.54117647 0.42352941 0.64313725
v -0.06060726 0.00290760 0.00917978 0.54117647 0.42352941 0.64313725
v -0.06059490 0.00416361 0.00881900 0.54117647 0.42352941 0.64313725
v -0.06054398 0.00497758 0.00865038 0.54117647 0.42352941 0.64313725
v -0.06055479 0.00617128 0.00755432 0.54117647 0.42352941 0.64313725
v -0.06054398 0.00730071 0.00629161 0.54117647 0.42352941 0.64313725
v -0.06043441 0.00832693 0.00476027 0.54117647 0.42352941 0.64313725
v -0.06052855 0.00846909 0.00395440 0.54117647 0.42352941 0.64313725
v -0.06058102 0.00856840 0.00309560 0.54117647 0.42352941 0.64313725
v -0.06062731 0.00866382 0.00188582 0.54117647 0.42352941 0.64313725
v -0.05999768 0.00930253 0.00067605 0.54117647 0.42352941 0.64313725
v -0.06064583 0.00864240 -0.00053373 0.54117647 0.42352941 0.64313725
v -0.06063349 0.00866966 0.00167798 0.54117647 0.42352941 0.64313725
v -0.06002546 0.00926748 0.00188582 0.54117647 0.42352941 0.64313725
v -0.06002083 0.00927527 0.00167798 0.54117647 0.42352941 0.64313725
v -0.06080787 0.00779143 -0.00174351 0.54117647 0.42352941 0.64313725
v -0.06099923 0.00053580 -0.00657869 0.54117647 0.42352941 0.64313725
v -0.06078164 0.00053580 -0.00763749 0.54117647 0.42352941 0.64313725
v -0.06044213 -0.00033270 -0.00809631 0.54117647 0.42352941 0.64313725
v -0.06030941 -0.00067153 -0.00827277 0.54117647 0.42352941 0.64313725
v -0.06073534 0.00668731 -0.00426110 0.54117647 0.42352941 0.64313725
v -0.06075231 0.00546441 -0.00546107 0.54117647 0.42352941 0.64313725
v -0.06092207 0.00537288 -0.00415914 0.54117647 0.42352941 0.64313725
v -0.06068904 -0.00309007 -0.00747475 0.54117647 0.42352941 0.64313725
v -0.06021528 -0.00188080 -0.00821591 0.54117647 0.42352941 0.64313725
v -0.06072762 -0.00436166 -0.00665124 0.54117647 0.42352941 0.64313725
v -0.05985417 -0.00309786 -0.00810219 0.54117647 0.42352941 0.64313725
v -0.05995293 -0.00436166 -0.00756887 0.54117647 0.42352941 0.64313725
v -0.05943287 -0.00269867 -0.00846493 0.54117647 0.42352941 0.64313725
v -0.05866590 -0.00429935 -0.00793945 0.54117647 0.42352941 0.64313725
v -0.05866590 -0.00531778 -0.00742769 0.54117647 0.42352941 0.64313725
v -0.04525697 -0.00678020 -0.00636889 0.54117647 0.42352941 0.64313725
v -0.05624923 -0.00533141 -0.00743162 0.54117647 0.42352941 0.64313725
v -0.05503627 -0.00533141 -0.00743358 0.54117647 0.42352941 0.64313725
v -0.04778320 -0.00590002 -0.00704535 0.54117647 0.42352941 0.64313725
v -0.05383103 -0.00532947 -0.00743162 0.54117647 0.42352941 0.64313725
v -0.04778320 -0.00529636 -0.00741397 0.54117647 0.42352941 0.64313725
v -0.04525697 -0.00746370 0.00747589 0.54117647 0.42352941 0.64313725
v -0.04657487 -0.00688146 0.00812882 0.54117647 0.42352941 0.64313725
v -0.05503936 -0.00711903 0.00833470 0.54117647 0.42352941 0.64313725
v -0.05624769 -0.00715019 0.00836215 0.54117647 0.42352941 0.64313725
v -0.05382794 -0.00765065 0.00769746 0.54117647 0.42352941 0.64313725
v -0.05503936 -0.00767207 0.00772883 0.54117647 0.42352941 0.64313725
v -0.05624769 -0.00768959 0.00775628 0.54117647 0.42352941 0.64313725
v -0.05745911 -0.00577929 0.00952683 0.54117647 0.42352941 0.64313725
v -0.05624769 -0.00654458 0.00889743 0.54117647 0.42352941 0.64313725
v -0.05866744 -0.00515616 0.00989349 0.54117647 0.42352941 0.64313725
v -0.05866744 -0.00430129 0.01030720 0.54117647 0.42352941 0.64313725
v -0.05892515 -0.00228973 0.01092680 0.54117647 0.42352941 0.64313725
v -0.05963503 -0.00430129 0.01000329 0.54117647 0.42352941 0.64313725
v -0.05996374 -0.00306671 0.01015230 0.54117647 0.42352941 0.64313725
v -0.05933719 -0.00148355 0.01098758 0.54117647 0.42352941 0.64313725
v -0.05941898 -0.00067348 0.01102876 0.54117647 0.42352941 0.64313725
v -0.05942361 -0.00033465 0.01103268 0.54117647 0.42352941 0.64313725
v -0.05986034 -0.00033465 0.01070327 0.54117647 0.42352941 0.64313725
v -0.05943442 0.00053385 0.01103856 0.54117647 0.42352941 0.64313725
v -0.05935725 0.00141792 0.01100130 0.54117647 0.42352941 0.64313725
v -0.05980787 0.00178986 0.01055229 0.54117647 0.42352941 0.64313725
v -0.06050386 0.00247530 0.00978172 0.54117647 0.42352941 0.64313725
v -0.06055016 0.00174507 0.00986211 0.54117647 0.42352941 0.64313725
v -0.06037114 0.00578376 0.00836215 0.54117647 0.42352941 0.64313725
v -0.06040355 0.00327954 0.00960722 0.54117647 0.42352941 0.64313725
v -0.06016898 0.00416361 0.00942487 0.54117647 0.42352941 0.64313725
v -0.05985417 0.00530668 0.00909154 0.54117647 0.42352941 0.64313725
v -0.06032176 0.00697551 0.00709747 0.54117647 0.42352941 0.64313725
v -0.06015355 0.00812831 0.00551515 0.54117647 0.42352941 0.64313725
v -0.05954707 0.00856061 0.00551515 0.54117647 0.42352941 0.64313725
v -0.05996991 0.00877871 0.00433675 0.54117647 0.42352941 0.64313725
v -0.05979553 0.00923048 0.00306227 0.54117647 0.42352941 0.64313725
v -0.05938966 0.00965110 0.00067605 0.54117647 0.42352941 0.64313725
v -0.05929861 0.00961605 0.00002312 0.54117647 0.42352941 0.64313725
v -0.05977238 0.00928111 -0.00043962 0.54117647 0.42352941 0.64313725
v -0.06056559 0.00851193 -0.00174351 0.54117647 0.42352941 0.64313725
v -0.05951929 0.00960241 0.00167798 0.54117647 0.42352941 0.64313725
v -0.05941435 0.00966278 0.00167798 0.54117647 0.42352941 0.64313725
v -0.05933719 0.00963162 0.00263875 0.54117647 0.42352941 0.64313725
v -0.05941898 0.00966278 0.00188582 0.54117647 0.42352941 0.64313725
v -0.06050540 0.00842235 -0.00240624 0.54117647 0.42352941 0.64313725
v -0.06065509 0.00778948 -0.00286897 0.54117647 0.42352941 0.64313725
v -0.06093595 0.00174507 -0.00657869 0.54117647 0.42352941 0.64313725
v -0.06093132 0.00416556 -0.00537088 0.54117647 0.42352941 0.64313725
v -0.06084491 0.00295434 -0.00657869 0.54117647 0.42352941 0.64313725
v -0.06070910 0.00174507 -0.00752573 0.54117647 0.42352941 0.64313725
v -0.06026312 0.00053580 -0.00824336 0.54117647 0.42352941 0.64313725
v -0.06029861 -0.00033270 -0.00826493 0.54117647 0.42352941 0.64313725
v -0.05965818 0.00053580 -0.00857081 0.54117647 0.42352941 0.64313725
v -0.05970756 -0.00067153 -0.00859237 0.54117647 0.42352941 0.64313725
v -0.05960880 -0.00188080 -0.00854140 0.54117647 0.42352941 0.64313725
v -0.06062577 0.00635432 -0.00511990 0.54117647 0.42352941 0.64313725
v -0.06059336 0.00738639 -0.00392581 0.54117647 0.42352941 0.64313725
v -0.06061806 0.00512168 -0.00619831 0.54117647 0.42352941 0.64313725
v -0.06068596 0.00410519 -0.00659242 0.54117647 0.42352941 0.64313725
v -0.05866590 -0.00341332 -0.00830022 0.54117647 0.42352941 0.64313725
v -0.05866590 -0.00188080 -0.00868649 0.54117647 0.42352941 0.64313725
v -0.05866590 -0.00280772 -0.00849630 0.54117647 0.42352941 0.64313725
v -0.05745911 -0.00429935 -0.00794337 0.54117647 0.42352941 0.64313725
v -0.04525697 -0.00590781 -0.00699241 0.54117647 0.42352941 0.64313725
v -0.05503627 -0.00429935 -0.00795121 0.54117647 0.42352941 0.64313725
v -0.04525697 -0.00583576 -0.00704143 0.54117647 0.42352941 0.64313725
v -0.05383103 -0.00429935 -0.00794729 0.54117647 0.42352941 0.64313725
v -0.04778320 -0.00429935 -0.00792376 0.54117647 0.42352941 0.64313725
v -0.04657332 -0.00526521 -0.00740417 0.54117647 0.42352941 0.64313725
v -0.04525697 -0.00739360 0.00753472 0.54117647 0.42352941 0.64313725
v -0.04572301 -0.00621354 0.00861900 0.54117647 0.42352941 0.64313725
v -0.04657487 -0.00627585 0.00866606 0.54117647 0.42352941 0.64313725
v -0.05503936 -0.00651342 0.00887782 0.54117647 0.42352941 0.64313725
v -0.05503936 -0.00570919 0.00948173 0.54117647 0.42352941 0.64313725
v -0.05503936 -0.00510747 0.00986407 0.54117647 0.42352941 0.64313725
v -0.05745911 -0.00517758 0.00990721 0.54117647 0.42352941 0.64313725
v -0.05745911 -0.00430129 0.01033661 0.54117647 0.42352941 0.64313725
v -0.05740355 -0.00298102 0.01081503 0.54117647 0.42352941 0.64313725
v -0.05857948 -0.00298102 0.01078562 0.54117647 0.42352941 0.64313725
v -0.05811806 -0.00250394 0.01096209 0.54117647 0.42352941 0.64313725
v -0.05857948 -0.00188470 0.01101895 0.54117647 0.42352941 0.64313725
v -0.05866744 -0.00067348 0.01115032 0.54117647 0.42352941 0.64313725
v -0.05866744 0.00053385 0.01116405 0.54117647 0.42352941 0.64313725
v -0.05860726 0.00178986 0.01103268 0.54117647 0.42352941 0.64313725
v -0.05896837 0.00222410 0.01093464 0.54117647 0.42352941 0.64313725
v -0.05956405 0.00416361 0.00994446 0.54117647 0.42352941 0.64313725
v -0.05995139 0.00290760 0.01013466 0.54117647 0.42352941 0.64313725
v -0.05956405 0.00618491 0.00872685 0.54117647 0.42352941 0.64313725
v -0.05994367 0.00658021 0.00793667 0.54117647 0.42352941 0.64313725
v -0.05933873 0.00482764 0.00978172 0.54117647 0.42352941 0.64313725
v -0.05951466 0.00733187 0.00751119 0.54117647 0.42352941 0.64313725
v -0.05980324 0.00771938 0.00661121 0.54117647 0.42352941 0.64313725
v -0.05928627 0.00840288 0.00612886 0.54117647 0.42352941 0.64313725
v -0.05866744 0.00926358 0.00430538 0.54117647 0.42352941 0.64313725
v -0.05866590 0.00971536 0.00067605 0.54117647 0.42352941 0.64313725
v -0.05866590 0.00963747 -0.00010825 0.54117647 0.42352941 0.64313725
v -0.05866590 0.00953036 -0.00071216 0.54117647 0.42352941 0.64313725
v -0.05866590 0.00926358 -0.00174351 0.54117647 0.42352941 0.64313725
v -0.05987886 0.00892475 -0.00174351 0.54117647 0.42352941 0.64313725
v -0.05866744 0.00972509 0.00188582 0.54117647 0.42352941 0.64313725
v -0.05866744 0.00953815 0.00332893 0.54117647 0.42352941 0.64313725
v -0.05866744 0.00964720 0.00272502 0.54117647 0.42352941 0.64313725
v -0.05980941 0.00856061 -0.00286897 0.54117647 0.42352941 0.64313725
v -0.05936034 0.00843209 -0.00361602 0.54117647 0.42352941 0.64313725
v -0.06016744 0.00819257 -0.00321406 0.54117647 0.42352941 0.64313725
v -0.06045911 0.00716050 -0.00473168 0.54117647 0.42352941 0.64313725
v -0.06060416 0.00295434 -0.00735123 0.54117647 0.42352941 0.64313725
v -0.06009645 0.00174507 -0.00812964 0.54117647 0.42352941 0.64313725
v -0.05949151 0.00174507 -0.00849042 0.54117647 0.42352941 0.64313725
v -0.05866590 0.00053580 -0.00875119 0.54117647 0.42352941 0.64313725
v -0.05866590 -0.00033270 -0.00878060 0.54117647 0.42352941 0.64313725
v -0.05894367 -0.00033270 -0.00872963 0.54117647 0.42352941 0.64313725
v -0.05866590 -0.00067153 -0.00879041 0.54117647 0.42352941 0.64313725
v -0.06044059 0.00592786 -0.00592577 0.54117647 0.42352941 0.64313725
v -0.06052546 0.00366121 -0.00723162 0.54117647 0.42352941 0.64313725
v -0.05503627 -0.00341917 -0.00830611 0.54117647 0.42352941 0.64313725
v -0.05383103 -0.00067153 -0.00882962 0.54117647 0.42352941 0.64313725
v -0.05262269 -0.00067153 -0.00883551 0.54117647 0.42352941 0.64313725
v -0.05503627 -0.00188080 -0.00869825 0.54117647 0.42352941 0.64313725
v -0.05503627 -0.00281550 -0.00849630 0.54117647 0.42352941 0.64313725
v -0.04778320 -0.00338801 -0.00830022 0.54117647 0.42352941 0.64313725
v -0.04657332 -0.00429935 -0.00788847 0.54117647 0.42352941 0.64313725
v -0.04525697 -0.00528078 -0.00731201 0.54117647 0.42352941 0.64313725
v -0.04525697 -0.00665947 0.00814254 0.54117647 0.42352941 0.64313725
v -0.04525697 -0.00559040 0.00894449 0.54117647 0.42352941 0.64313725
v -0.04525697 -0.00464402 0.00958957 0.54117647 0.42352941 0.64313725
v -0.04657487 -0.00551057 0.00918566 0.54117647 0.42352941 0.64313725
v -0.04657487 -0.00473359 0.00966016 0.54117647 0.42352941 0.64313725
v -0.05503936 -0.00430129 0.01025034 0.54117647 0.42352941 0.64313725
v -0.05624769 -0.00430129 0.01029544 0.54117647 0.42352941 0.64313725
v -0.05624769 -0.00309202 0.01075033 0.54117647 0.42352941 0.64313725
v -0.05696220 -0.00247667 0.01095425 0.54117647 0.42352941 0.64313725
v -0.05776775 -0.00250394 0.01096209 0.54117647 0.42352941 0.64313725
v -0.05740355 -0.00199764 0.01103856 0.54117647 0.42352941 0.64313725
v -0.05745911 -0.00067348 0.01118953 0.54117647 0.42352941 0.64313725
v -0.05745911 -0.00033465 0.01119150 0.54117647 0.42352941 0.64313725
v -0.05745757 0.00053385 0.01119542 0.54117647 0.42352941 0.64313725
v -0.05751621 0.00181128 0.01104444 0.54117647 0.42352941 0.64313725
v -0.05816127 0.00236820 0.01096405 0.54117647 0.42352941 0.64313725
v -0.05860726 0.00284334 0.01075817 0.54117647 0.42352941 0.64313725
v -0.05866744 0.00549556 0.00944056 0.54117647 0.42352941 0.64313725
v -0.05866744 0.00630759 0.00883665 0.54117647 0.42352941 0.64313725
v -0.05866744 0.00691125 0.00823666 0.54117647 0.42352941 0.64313725
v -0.05866744 0.00416361 0.01019348 0.54117647 0.42352941 0.64313725
v -0.05866744 0.00488995 0.00981898 0.54117647 0.42352941 0.64313725
v -0.05866744 0.00742923 0.00762883 0.54117647 0.42352941 0.64313725
v -0.05866744 0.00803484 0.00677395 0.54117647 0.42352941 0.64313725
v -0.05866744 0.00842819 0.00617200 0.54117647 0.42352941 0.64313725
v -0.05866744 0.00875729 0.00551515 0.54117647 0.42352941 0.64313725
v -0.05745757 0.00878844 0.00551515 0.54117647 0.42352941 0.64313725
v -0.05745757 0.00927722 0.00430538 0.54117647 0.42352941 0.64313725
v -0.05745757 0.00974457 0.00067605 0.54117647 0.42352941 0.64313725
v -0.05745757 0.00966083 -0.00022982 0.54117647 0.42352941 0.64313725
v -0.05846065 0.00972899 0.00167798 0.54117647 0.42352941 0.64313725
v -0.05745757 0.00955373 -0.00083569 0.54117647 0.42352941 0.64313725
v -0.05745757 0.00930837 -0.00174351 0.54117647 0.42352941 0.64313725
v -0.05866590 0.00880207 -0.00295328 0.54117647 0.42352941 0.64313725
v -0.05745757 0.00973873 0.00188582 0.54117647 0.42352941 0.64313725
v -0.05745757 0.00974067 0.00167798 0.54117647 0.42352941 0.64313725
v -0.05745757 0.00954010 0.00335834 0.54117647 0.42352941 0.64313725
v -0.05745757 0.00965499 0.00275443 0.54117647 0.42352941 0.64313725
v -0.05866590 0.00846325 -0.00367092 0.54117647 0.42352941 0.64313725
v -0.05866590 0.00808352 -0.00427482 0.54117647 0.42352941 0.64313725
v -0.05866590 0.00747791 -0.00512382 0.54117647 0.42352941 0.64313725
v -0.05965201 0.00737081 -0.00499834 0.54117647 0.42352941 0.64313725
v -0.06004553 0.00668731 -0.00546303 0.54117647 0.42352941 0.64313725
v -0.05933873 0.00243636 -0.00842571 0.54117647 0.42352941 0.64313725
v -0.05745757 0.00053580 -0.00876884 0.54117647 0.42352941 0.64313725
v -0.05866590 0.00174507 -0.00859630 0.54117647 0.42352941 0.64313725
v -0.05624923 0.00053580 -0.00878060 0.54117647 0.42352941 0.64313725
v -0.05963349 0.00621606 -0.00617086 0.54117647 0.42352941 0.64313725
v -0.05941590 0.00487438 -0.00725515 0.54117647 0.42352941 0.64313725
v -0.06022299 0.00446739 -0.00700417 0.54117647 0.42352941 0.64313725
v -0.05984337 0.00410519 -0.00742377 0.54117647 0.42352941 0.64313725
v -0.05262424 0.00053580 -0.00879237 0.54117647 0.42352941 0.64313725
v -0.05175233 -0.00033270 -0.00881786 0.54117647 0.42352941 0.64313725
v -0.05141591 -0.00067153 -0.00882570 0.54117647 0.42352941 0.64313725
v -0.04778320 -0.00188080 -0.00868453 0.54117647 0.42352941 0.64313725
v -0.05262269 -0.00188080 -0.00869825 0.54117647 0.42352941 0.64313725
v -0.04778320 -0.00278240 -0.00848257 0.54117647 0.42352941 0.64313725
v -0.04657332 -0.00269282 -0.00845708 0.54117647 0.42352941 0.64313725
v -0.04657332 -0.00329649 -0.00827277 0.54117647 0.42352941 0.64313725
v -0.04525697 -0.00429935 -0.00772377 0.54117647 0.42352941 0.64313725
v -0.04525697 -0.00438697 -0.00768847 0.54117647 0.42352941 0.64313725
v -0.04525697 -0.00403841 0.00991505 0.54117647 0.42352941 0.64313725
v -0.04657487 -0.00412798 0.00994643 0.54117647 0.42352941 0.64313725
v -0.05503936 -0.00309202 0.01070523 0.54117647 0.42352941 0.64313725
v -0.05624769 -0.00241826 0.01094640 0.54117647 0.42352941 0.64313725
v -0.05624769 -0.00181265 0.01104052 0.54117647 0.42352941 0.64313725
v -0.05624769 -0.00067348 0.01115620 0.54117647 0.42352941 0.64313725
v -0.05745757 -0.00033465 0.01119150 0.54117647 0.42352941 0.64313725
v -0.05624769 -0.00033465 0.01115424 0.54117647 0.42352941 0.64313725
v -0.05624923 0.00053385 0.01114836 0.54117647 0.42352941 0.64313725
v -0.05304708 0.00118814 0.01096601 0.54117647 0.42352941 0.64313725
v -0.05382948 0.00128745 0.01098366 0.54117647 0.42352941 0.64313725
v -0.05795757 0.00236820 0.01096405 0.54117647 0.42352941 0.64313725
v -0.05751621 0.00284334 0.01077386 0.54117647 0.42352941 0.64313725
v -0.05745757 0.00416361 0.01021505 0.54117647 0.42352941 0.64313725
v -0.05745757 0.00489580 0.00982486 0.54117647 0.42352941 0.64313725
v -0.05745757 0.00550141 0.00943859 0.54117647 0.42352941 0.64313725
v -0.05745757 0.00631538 0.00883273 0.54117647 0.42352941 0.64313725
v -0.05745757 0.00691709 0.00825431 0.54117647 0.42352941 0.64313725
v -0.05745757 0.00745065 0.00765040 0.54117647 0.42352941 0.64313725
v -0.05745757 0.00805626 0.00681120 0.54117647 0.42352941 0.64313725
v -0.05745757 0.00844961 0.00620729 0.54117647 0.42352941 0.64313725
v -0.05624923 0.00877092 0.00551515 0.54117647 0.42352941 0.64313725
v -0.05624923 0.00926164 0.00430538 0.54117647 0.42352941 0.64313725
v -0.05503936 0.00843014 0.00617592 0.54117647 0.42352941 0.64313725
v -0.05624923 0.00953426 0.00334853 0.54117647 0.42352941 0.64313725
v -0.05624923 0.00975236 0.00067605 0.54117647 0.42352941 0.64313725
v -0.05624923 0.00966083 -0.00022786 0.54117647 0.42352941 0.64313725
v -0.05624923 0.00955179 -0.00083176 0.54117647 0.42352941 0.64313725
v -0.05624923 0.00930837 -0.00174351 0.54117647 0.42352941 0.64313725
v -0.05503781 0.00884686 -0.00295328 0.54117647 0.42352941 0.64313725
v -0.05624923 0.00884492 -0.00295328 0.54117647 0.42352941 0.64313725
v -0.05745757 0.00883907 -0.00295328 0.54117647 0.42352941 0.64313725
v -0.05624923 0.00974262 0.00188582 0.54117647 0.42352941 0.64313725
v -0.05624923 0.00974651 0.00167798 0.54117647 0.42352941 0.64313725
v -0.05624923 0.00965499 0.00274267 0.54117647 0.42352941 0.64313725
v -0.05745757 0.00847882 -0.00369641 0.54117647 0.42352941 0.64313725
v -0.05745757 0.00809910 -0.00430031 0.54117647 0.42352941 0.64313725
v -0.05745757 0.00749349 -0.00513559 0.54117647 0.42352941 0.64313725
v -0.05745757 0.00696772 -0.00574146 0.54117647 0.42352941 0.64313725
v -0.05866590 0.00695214 -0.00572773 0.54117647 0.42352941 0.64313725
v -0.05866590 0.00249478 -0.00844336 0.54117647 0.42352941 0.64313725
v -0.05866590 0.00416556 -0.00774337 0.54117647 0.42352941 0.64313725
v -0.05866590 0.00309844 -0.00822376 0.54117647 0.42352941 0.64313725
v -0.05745757 0.00174507 -0.00861002 0.54117647 0.42352941 0.64313725
v -0.05624923 0.00174507 -0.00861786 0.54117647 0.42352941 0.64313725
v -0.05866590 0.00634653 -0.00629635 0.54117647 0.42352941 0.64313725
v -0.05866590 0.00556567 -0.00690026 0.54117647 0.42352941 0.64313725
v -0.05866590 0.00496200 -0.00731005 0.54117647 0.42352941 0.64313725
v -0.05503781 0.00174507 -0.00861394 0.54117647 0.42352941 0.64313725
v -0.05262424 0.00174507 -0.00860610 0.54117647 0.42352941 0.64313725
v -0.05141436 0.00174507 -0.00859434 0.54117647 0.42352941 0.64313725
v -0.05141436 0.00053580 -0.00877865 0.54117647 0.42352941 0.64313725
v -0.04778320 -0.00067153 -0.00878453 0.54117647 0.42352941 0.64313725
v -0.04657332 -0.00067153 -0.00873747 0.54117647 0.42352941 0.64313725
v -0.04657332 -0.00188080 -0.00863355 0.54117647 0.42352941 0.64313725
v -0.04571684 -0.00256625 -0.00841591 0.54117647 0.42352941 0.64313725
v -0.04525697 -0.00302192 -0.00821199 0.54117647 0.42352941 0.64313725
v -0.04525697 -0.00309202 0.01025426 0.54117647 0.42352941 0.64313725
v -0.04536653 -0.00309202 0.01026014 0.54117647 0.42352941 0.64313725
v -0.04657487 -0.00309202 0.01032289 0.54117647 0.42352941 0.64313725
v -0.05503936 -0.00228000 0.01092483 0.54117647 0.42352941 0.64313725
v -0.05503936 -0.00167439 0.01101503 0.54117647 0.42352941 0.64313725
v -0.05382794 -0.00150303 0.01099150 0.54117647 0.42352941 0.64313725
v -0.05296992 -0.00137061 0.01096993 0.54117647 0.42352941 0.64313725
v -0.05503936 -0.00067348 0.01110718 0.54117647 0.42352941 0.64313725
v -0.05469985 -0.00033465 0.01109150 0.54117647 0.42352941 0.64313725
v -0.05183103 0.00013660 0.01096993 0.54117647 0.42352941 0.64313725
v -0.05382948 0.00053385 0.01104836 0.54117647 0.42352941 0.64313725
v -0.05224307 0.00094278 0.01094444 0.54117647 0.42352941 0.64313725
v -0.04657487 0.00053385 0.01069739 0.54117647 0.42352941 0.64313725
v -0.04525697 0.00174507 0.01049543 0.54117647 0.42352941 0.64313725
v -0.05382948 0.00189306 0.01086993 0.54117647 0.42352941 0.64313725
v -0.04525697 0.00185217 0.01047387 0.54117647 0.42352941 0.64313725
v -0.04525697 0.00295239 0.01018368 0.54117647 0.42352941 0.64313725
v -0.04657487 0.00295239 0.01024642 0.54117647 0.42352941 0.64313725
v -0.05382948 0.00295239 0.01058170 0.54117647 0.42352941 0.64313725
v -0.05382948 0.00416361 0.01008564 0.54117647 0.42352941 0.64313725
v -0.05382948 0.00480427 0.00976800 0.54117647 0.42352941 0.64313725
v -0.05503936 0.00483543 0.00978761 0.54117647 0.42352941 0.64313725
v -0.05382948 0.00540988 0.00936997 0.54117647 0.42352941 0.64313725
v -0.05382948 0.00624138 0.00876606 0.54117647 0.42352941 0.64313725
v -0.05382948 0.00684504 0.00818372 0.54117647 0.42352941 0.64313725
v -0.05382948 0.00739418 0.00757981 0.54117647 0.42352941 0.64313725
v -0.05503936 0.00741755 0.00760334 0.54117647 0.42352941 0.64313725
v -0.05624923 0.00743702 0.00762687 0.54117647 0.42352941 0.64313725
v -0.05624923 0.00804263 0.00679356 0.54117647 0.42352941 0.64313725
v -0.05503936 0.00874950 0.00551515 0.54117647 0.42352941 0.64313725
v -0.05503936 0.00923827 0.00430538 0.54117647 0.42352941 0.64313725
v -0.05503936 0.00802316 0.00677787 0.54117647 0.42352941 0.64313725
v -0.05407640 0.00841846 0.00615435 0.54117647 0.42352941 0.64313725
v -0.05503936 0.00952258 0.00328383 0.54117647 0.42352941 0.64313725
v -0.05503936 0.00964331 0.00267992 0.54117647 0.42352941 0.64313725
v -0.05503781 0.00973678 0.00067605 0.54117647 0.42352941 0.64313725
v -0.05503781 0.00965499 -0.00020237 0.54117647 0.42352941 0.64313725
v -0.05503781 0.00954789 -0.00080627 0.54117647 0.42352941 0.64313725
v -0.05382948 0.00929669 -0.00174351 0.54117647 0.42352941 0.64313725
v -0.05503781 0.00930448 -0.00174351 0.54117647 0.42352941 0.64313725
v -0.05382948 0.00883713 -0.00295328 0.54117647 0.42352941 0.64313725
v -0.04525697 0.00844572 -0.00363366 0.54117647 0.42352941 0.64313725
v -0.05503781 0.00848661 -0.00370817 0.54117647 0.42352941 0.64313725
v -0.05503936 0.00972509 0.00188582 0.54117647 0.42352941 0.64313725
v -0.05503781 0.00972899 0.00167798 0.54117647 0.42352941 0.64313725
v -0.05624923 0.00810300 -0.00430620 0.54117647 0.42352941 0.64313725
v -0.05624923 0.00749739 -0.00514539 0.54117647 0.42352941 0.64313725
v -0.05624923 0.00697746 -0.00575126 0.54117647 0.42352941 0.64313725
v -0.05745757 0.00636406 -0.00631988 0.54117647 0.42352941 0.64313725
v -0.05745757 0.00311791 -0.00824532 0.54117647 0.42352941 0.64313725
v -0.05624923 0.00313154 -0.00825709 0.54117647 0.42352941 0.64313725
v -0.05745757 0.00251425 -0.00844728 0.54117647 0.42352941 0.64313725
v -0.05745757 0.00416556 -0.00778651 0.54117647 0.42352941 0.64313725
v -0.05624923 0.00252788 -0.00844924 0.54117647 0.42352941 0.64313725
v -0.05503781 0.00252983 -0.00844924 0.54117647 0.42352941 0.64313725
v -0.05745757 0.00560461 -0.00692574 0.54117647 0.42352941 0.64313725
v -0.05745757 0.00499900 -0.00733162 0.54117647 0.42352941 0.64313725
v -0.05020295 0.00247920 -0.00843355 0.54117647 0.42352941 0.64313725
v -0.04899616 0.00246557 -0.00842767 0.54117647 0.42352941 0.64313725
v -0.04778474 0.00174507 -0.00855120 0.54117647 0.42352941 0.64313725
v -0.04778474 0.00053580 -0.00871394 0.54117647 0.42352941 0.64313725
v -0.04778474 -0.00033270 -0.00876492 0.54117647 0.42352941 0.64313725
v -0.04657641 0.00053580 -0.00868453 0.54117647 0.42352941 0.64313725
v -0.04657332 -0.00033270 -0.00872374 0.54117647 0.42352941 0.64313725
v -0.04525697 0.00042869 -0.00857669 0.54117647 0.42352941 0.64313725
v -0.04525697 -0.00067153 -0.00860022 0.54117647 0.42352941 0.64313725
v -0.04525697 -0.00079031 -0.00859434 0.54117647 0.42352941 0.64313725
v -0.04525697 -0.00193143 -0.00849042 0.54117647 0.42352941 0.64313725
v -0.04525697 -0.00188080 0.01051896 0.54117647 0.42352941 0.64313725
v -0.04536653 -0.00188080 0.01052876 0.54117647 0.42352941 0.64313725
v -0.04657487 -0.00188080 0.01059739 0.54117647 0.42352941 0.64313725
v -0.05382794 -0.00067348 0.01105620 0.54117647 0.42352941 0.64313725
v -0.04657487 -0.00067348 0.01071504 0.54117647 0.42352941 0.64313725
v -0.05183103 -0.00031128 0.01096993 0.54117647 0.42352941 0.64313725
v -0.04657487 -0.00033465 0.01071111 0.54117647 0.42352941 0.64313725
v -0.04525697 0.00053385 0.01061504 0.54117647 0.42352941 0.64313725
v -0.04525697 0.00064095 0.01060719 0.54117647 0.42352941 0.64313725
v -0.04525697 0.00302834 0.01015819 0.54117647 0.42352941 0.64313725
v -0.04657487 0.00385399 0.00989349 0.54117647 0.42352941 0.64313725
v -0.05314276 0.00477701 0.00975427 0.54117647 0.42352941 0.64313725
v -0.04657487 0.00537094 0.00899743 0.54117647 0.42352941 0.64313725
v -0.04657487 0.00600576 0.00856018 0.54117647 0.42352941 0.64313725
v -0.04573844 0.00720140 0.00734648 0.54117647 0.42352941 0.64313725
v -0.05373535 0.00807768 0.00662297 0.54117647 0.42352941 0.64313725
v -0.04525697 0.00855672 0.00521320 0.54117647 0.42352941 0.64313725
v -0.04525697 0.00858982 0.00513281 0.54117647 0.42352941 0.64313725
v -0.05382948 0.00920711 0.00430538 0.54117647 0.42352941 0.64313725
v -0.05373535 0.00865408 0.00563280 0.54117647 0.42352941 0.64313725
v -0.04525697 0.00822568 0.00581907 0.54117647 0.42352941 0.64313725
v -0.04525697 0.00825683 0.00576613 0.54117647 0.42352941 0.64313725
v -0.04525697 0.00759086 0.00676218 0.54117647 0.42352941 0.64313725
v -0.05382948 0.00950894 0.00321716 0.54117647 0.42352941 0.64313725
v -0.05382948 0.00962968 0.00261130 0.54117647 0.42352941 0.64313725
v -0.05382948 0.00971341 0.00067605 0.54117647 0.42352941 0.64313725
v -0.05382948 0.00963941 -0.00013374 0.54117647 0.42352941 0.64313725
v -0.04525697 0.00941937 -0.00053373 0.54117647 0.42352941 0.64313725
v -0.05382948 0.00954400 -0.00073961 0.54117647 0.42352941 0.64313725
v -0.04525697 0.00915064 -0.00174351 0.54117647 0.42352941 0.64313725
v -0.04525697 0.00911754 -0.00184939 0.54117647 0.42352941 0.64313725
v -0.04525697 0.00873781 -0.00295328 0.54117647 0.42352941 0.64313725
v -0.04525697 0.00871250 -0.00301799 0.54117647 0.42352941 0.64313725
v -0.04525697 0.00803289 -0.00423953 0.54117647 0.42352941 0.64313725
v -0.05503781 0.00810494 -0.00431404 0.54117647 0.42352941 0.64313725
v -0.05382948 0.00970367 0.00188582 0.54117647 0.42352941 0.64313725
v -0.05382948 0.00970562 0.00167798 0.54117647 0.42352941 0.64313725
v -0.05503781 0.00749933 -0.00514735 0.54117647 0.42352941 0.64313725
v -0.05503781 0.00698135 -0.00575322 0.54117647 0.42352941 0.64313725
v -0.05503781 0.00637769 -0.00632968 0.54117647 0.42352941 0.64313725
v -0.05624923 0.00637379 -0.00632576 0.54117647 0.42352941 0.64313725
v -0.05624923 0.00416556 -0.00780220 0.54117647 0.42352941 0.64313725
v -0.05503781 0.00416556 -0.00780612 0.54117647 0.42352941 0.64313725
v -0.05503781 0.00313349 -0.00825709 0.54117647 0.42352941 0.64313725
v -0.04899616 0.00307118 -0.00824336 0.54117647 0.42352941 0.64313725
v -0.05624923 0.00561045 -0.00692967 0.54117647 0.42352941 0.64313725
v -0.05624923 0.00500679 -0.00733554 0.54117647 0.42352941 0.64313725
v -0.04778474 0.00304197 -0.00824140 0.54117647 0.42352941 0.64313725
v -0.04778474 0.00243636 -0.00841787 0.54117647 0.42352941 0.64313725
v -0.04659184 0.00182101 -0.00850022 0.54117647 0.42352941 0.64313725
v -0.04700542 0.00239741 -0.00840806 0.54117647 0.42352941 0.64313725
v -0.04525697 0.00146271 -0.00846297 0.54117647 0.42352941 0.64313725
v -0.04525697 0.00053580 -0.00857081 0.54117647 0.42352941 0.64313725
v -0.04525697 -0.00177565 0.01052876 0.54117647 0.42352941 0.64313725
v -0.04536653 -0.00067348 0.01064053 0.54117647 0.42352941 0.64313725
v -0.04525697 -0.00033465 0.01062876 0.54117647 0.42352941 0.64313725
v -0.04525697 0.00376052 0.00985427 0.54117647 0.42352941 0.64313725
v -0.04657487 0.00445960 0.00957781 0.54117647 0.42352941 0.64313725
v -0.04595449 0.00598044 0.00854057 0.54117647 0.42352941 0.64313725
v -0.04525697 0.00746428 0.00693669 0.54117647 0.42352941 0.64313725
v -0.04525697 0.00754802 0.00682297 0.54117647 0.42352941 0.64313725
v -0.04525697 0.00656074 0.00791510 0.54117647 0.42352941 0.64313725
v -0.04525697 0.00679052 0.00768961 0.54117647 0.42352941 0.64313725
v -0.04525697 0.00892670 0.00430538 0.54117647 0.42352941 0.64313725
v -0.04525697 0.00927722 0.00309560 0.54117647 0.42352941 0.64313725
v -0.05291282 0.00961799 0.00255051 0.54117647 0.42352941 0.64313725
v -0.04525697 0.00953231 0.00067605 0.54117647 0.42352941 0.64313725
v -0.05175696 0.00961215 0.00003880 0.54117647 0.42352941 0.64313725
v -0.04525697 0.00939600 -0.00063961 0.54117647 0.42352941 0.64313725
v -0.04525697 0.00952258 0.00057017 0.54117647 0.42352941 0.64313725
v -0.04525697 0.00742923 -0.00503951 0.54117647 0.42352941 0.64313725
v -0.04657641 0.00744481 -0.00508461 0.54117647 0.42352941 0.64313725
v -0.04778474 0.00745065 -0.00510226 0.54117647 0.42352941 0.64313725
v -0.05020295 0.00746623 -0.00512186 0.54117647 0.42352941 0.64313725
v -0.04525697 0.00948168 0.00188582 0.54117647 0.42352941 0.64313725
v -0.04525697 0.00949142 0.00167798 0.54117647 0.42352941 0.64313725
v -0.05020295 0.00695798 -0.00572577 0.54117647 0.42352941 0.64313725
v -0.04778474 0.00633874 -0.00630419 0.54117647 0.42352941 0.64313725
v -0.04899616 0.00560266 -0.00691006 0.54117647 0.42352941 0.64313725
v -0.05503781 0.00561435 -0.00693359 0.54117647 0.42352941 0.64313725
v -0.05503781 0.00500874 -0.00733750 0.54117647 0.42352941 0.64313725
v -0.04899616 0.00499900 -0.00733554 0.54117647 0.42352941 0.64313725
v -0.04899616 0.00416556 -0.00779043 0.54117647 0.42352941 0.64313725
v -0.04659184 0.00286282 -0.00821983 0.54117647 0.42352941 0.64313725
v -0.04778474 0.00416556 -0.00777475 0.54117647 0.42352941 0.64313725
v -0.04657641 0.00416556 -0.00768455 0.54117647 0.42352941 0.64313725
v -0.04619987 0.00227279 -0.00837669 0.54117647 0.42352941 0.64313725
v -0.04525697 0.00206637 -0.00833748 0.54117647 0.42352941 0.64313725
v -0.04525697 -0.00067348 0.01063072 0.54117647 0.42352941 0.64313725
v -0.04525697 -0.00056638 0.01063072 0.54117647 0.42352941 0.64313725
v -0.04525697 0.00381310 0.00982486 0.54117647 0.42352941 0.64313725
v -0.04525697 0.00436613 0.00948369 0.54117647 0.42352941 0.64313725
v -0.04525697 0.00541378 0.00881900 0.54117647 0.42352941 0.64313725
v -0.04525697 0.00684115 -0.00564538 0.54117647 0.42352941 0.64313725
v -0.04657641 0.00691904 -0.00569048 0.54117647 0.42352941 0.64313725
v -0.04778474 0.00694435 -0.00570813 0.54117647 0.42352941 0.64313725
v -0.04657641 0.00631538 -0.00627086 0.54117647 0.42352941 0.64313725
v -0.04778474 0.00558903 -0.00690810 0.54117647 0.42352941 0.64313725
v -0.04778474 0.00498537 -0.00732378 0.54117647 0.42352941 0.64313725
v -0.04525697 0.00295434 -0.00805317 0.54117647 0.42352941 0.64313725
v -0.04657641 0.00492501 -0.00728456 0.54117647 0.42352941 0.64313725
v -0.04562888 0.00484127 -0.00723162 0.54117647 0.42352941 0.64313725
v -0.04525697 0.00427266 -0.00747083 0.54117647 0.42352941 0.64313725
v -0.04525697 0.00623748 -0.00619047 0.54117647 0.42352941 0.64313725
v -0.04657641 0.00553061 -0.00687673 0.54117647 0.42352941 0.64313725
v -0.04525697 0.00480038 -0.00720613 0.54117647 0.42352941 0.64313725
v -0.04525697 0.00528526 -0.00687869 0.54117647 0.42352941 0.64313725
v -0.04525697 0.00616543 -0.00624341 0.54117647 0.42352941 0.64313725
f 351 352 353
f 351 353 354
f 351 354 355
f 351 355 356
f 351 356 357
f 351 357 358
f 351 358 359
f 351 359 360
f 351 360 361
f 351 361 352
f 352 361 362
f 352 362 353
f 353 362 363
f 353 363 364
f 353 364 365
f 353 365 354
f 354 365 366
f 354 366 367
f 354 367 355
f 355 367 368
f 355 368 356
f 356 368 369
f 356 369 370
f 356 370 371
f 356 371 357
f 357 372 358
f 357 371 372
f 358 372 359
f 359 373 374
f 359 374 375
f 359 375 376
f 359 376 360
f 359 372 373
f 360 376 377
f 360 377 361
f 361 377 378
f 361 378 362
f 362 378 379
f 362 379 380
f 362 380 381
f 362 381 363
f 363 381 364
f 364 381 382
f 364 382 365
f 365 382 366
f 366 383 384
f 366 384 385
f 366 385 386
f 366 386 387
f 366 387 367
f 366 382 383
f 367 387 368
f 368 387 388
f 368 388 389
f 368 389 369
f 369 389 370
f 370 390 371
f 370 389 391
f 370 391 390
f 371 390 392
f 371 392 393
f 371 393 372
f 372 393 394
f 372 394 395
f 372 395 373
f 373 396 397
f 373 397 398
f 373 398 374
f 373 395 399
f 373 399 396
f 374 398 400
f 374 400 375
f 375 400 401
f 375 401 402
f 375 402 376
f 376 402 377
f 377 402 403
f 377 403 404
f 377 404 378
f 378 404 405
f 378 405 379
f 379 405 406
f 379 406 407
f 379 407 408
f 379 408 409
f 379 409 410
f 379 410 380
f 380 410 411
f 380 411 381
f 381 411 412
f 381 412 382
f 382 412 413
f 382 413 414
f 382 414 383
f 383 414 384
f 384 414 415
f 384 415 385
f 385 415 416
f 385 416 417
f 385 417 418
f 385 418 419
f 385 419 420
f 385 420 386
f 386 421 388
f 386 388 387
f 386 420 421
f 388 421 422
f 388 422 423
f 388 423 389
f 389 423 391
f 390 391 424
f 390 424 392
f 391 423 425
f 391 425 424
f 392 426 393
f 392 424 426
f 393 426 394
f 394 426 427
f 394 427 458
f 394 458 425
f 394 425 457
f 394 457 492
f 394 492 539
f 394 539 535
f 394 535 534
f 394 534 591
f 394 591 656
f 394 656 658
f 394 658 715
f 394 715 776
f 394 776 775
f 394 775 833
f 394 833 901
f 394 901 900
f 394 900 899
f 394 899 898
f 394 898 954
f 394 954 953
f 394 953 989
f 394 989 1001
f 394 1001 1004
f 394 1004 1007
f 394 1007 1008
f 394 1008 1009
f 394 1009 1005
f 394 1005 995
f 394 995 972
f 394 972 935
f 394 935 875
f 394 875 934
f 394 934 933
f 394 933 932
f 394 932 931
f 394 931 970
f 394 970 929
f 394 929 971
f 394 971 968
f 394 968 977
f 394 977 976
f 394 976 966
f 394 966 965
f 394 965 919
f 394 919 918
f 394 918 923
f 394 923 922
f 394 922 924
f 394 924 962
f 394 962 961
f 394 961 964
f 394 964 963
f 394 963 994
f 394 994 993
f 394 993 992
f 394 992 958
f 394 958 911
f 394 911 850
f 394 850 849
f 394 849 847
f 394 847 910
f 394 910 909
f 394 909 957
f 394 957 991
f 394 991 990
f 394 990 955
f 394 955 902
f 394 902 834
f 394 834 777
f 394 777 718
f 394 718 717
f 394 717 716
f 394 716 662
f 394 662 597
f 394 597 542
f 394 542 541
f 394 541 540
f 394 540 493
f 394 493 459
f 394 459 430
f 394 430 429
f 394 429 397
f 394 397 428
f 394 428 399
f 394 399 395
f 396 428 397
f 396 399 428
f 397 429 398
f 398 429 430
f 398 430 431
f 398 431 400
f 400 431 432
f 400 432 433
f 400 433 434
f 400 434 401
f 401 434 402
f 402 434 435
f 402 435 436
f 402 436 403
f 403 436 404
f 404 436 437
f 404 437 438
f 404 438 439
f 404 439 440
f 404 440 405
f 405 440 441
f 405 441 406
f 406 441 442
f 406 442 407
f 407 443 408
f 407 442 443
f 408 443 409
f 409 411 410
f 409 443 411
f 411 443 444
f 411 444 412
f 412 444 445
f 412 445 413
f 413 446 414
f 413 445 446
f 414 446 447
f 414 447 448
f 414 448 415
f 415 448 416
f 416 448 417
f 417 448 449
f 417 449 450
f 417 450 418
f 418 451 419
f 418 450 452
f 418 452 451
f 419 451 453
f 419 453 454
f 419 454 420
f 420 454 421
f 421 454 455
f 421 455 456
f 421 456 422
f 422 456 423
f 423 456 457
f 423 457 425
f 424 458 426
f 424 425 458
f 426 458 427
f 430 459 431
f 431 459 432
f 432 459 460
f 432 460 433
f 433 460 434
f 434 460 461
f 434 461 462
f 434 462 435
f 435 462 436
f 436 462 437
f 437 462 463
f 437 463 464
f 437 464 438
f 438 464 465
f 438 465 466
f 438 466 467
f 438 467 441
f 438 441 439
f 439 441 440
f 441 467 468
f 441 468 469
f 441 469 470
f 441 470 442
f 442 470 471
f 442 471 472
f 442 472 443
f 443 472 473
f 443 473 474
f 443 474 475
f 443 475 444
f 444 476 477
f 444 477 478
f 444 478 479
f 444 479 445
f 444 475 476
f 445 479 480
f 445 480 446
f 446 480 447
f 447 480 481
f 447 481 448
f 448 481 482
f 448 482 449
f 449 482 483
f 449 483 450
f 450 483 484
f 450 484 452
f 451 485 453
f 451 452 485
f 452 486 487
f 452 487 485
f 452 484 488
f 452 488 489
f 452 489 486
f 453 485 490
f 453 490 454
f 454 490 455
f 455 490 456
f 456 490 491
f 456 491 457
f 457 491 492
f 459 493 494
f 459 494 460
f 460 494 495
f 460 495 496
f 460 496 497
f 460 497 461
f 461 497 463
f 461 463 462
f 463 497 498
f 463 498 465
f 463 465 464
f 465 498 499
f 465 499 466
f 466 499 500
f 466 500 501
f 466 501 502
f 466 502 468
f 466 468 467
f 468 503 469
f 468 502 504
f 468 504 503
f 469 503 471
f 469 471 470
f 471 503 472
f 472 505 506
f 472 506 507
f 472 507 508
f 472 508 473
f 472 503 505
f 473 508 474
f 474 509 510
f 474 510 475
f 474 508 511
f 474 511 509
f 475 510 512
f 475 512 513
f 475 513 514
f 475 514 515
f 475 515 516
f 475 516 517
f 475 517 476
f 476 518 519
f 476 519 477
f 476 517 520
f 476 520 518
f 477 521 522
f 477 522 523
f 477 523 478
f 477 519 524
f 477 524 521
f 478 523 525
f 478 525 526
f 478 526 527
f 478 527 479
f 479 527 480
f 480 527 481
f 481 527 528
f 481 528 482
f 482 528 529
f 482 529 530
f 482 530 531
f 482 531 483
f 483 531 532
f 483 532 533
f 483 533 484
f 484 533 488
f 485 487 490
f 486 489 534
f 486 534 535
f 486 535 487
f 487 491 490
f 487 535 491
f 488 533 536
f 488 536 537
f 488 537 489
f 489 537 538
f 489 538 534
f 491 535 539
f 491 539 492
f 493 540 494
f 494 540 495
f 495 541 542
f 495 542 543
f 495 543 544
f 495 544 545
f 495 545 496
f 495 540 541
f 496 545 497
f 497 545 546
f 497 546 498
f 498 546 547
f 498 547 499
f 499 547 548
f 499 548 500
f 500 548 549
f 500 549 550
f 500 550 501
f 501 504 502
f 501 550 551
f 501 551 552
f 501 552 553
f 501 553 504
f 503 504 505
f 504 553 554
f 504 554 505
f 505 554 555
f 505 555 556
f 505 556 506
f 506 556 507
f 507 556 557
f 507 557 558
f 507 558 508
f 508 558 559
f 508 559 560
f 508 560 511
f 509 561 510
f 509 511 560
f 509 560 561
f 510 561 562
f 510 562 512
f 512 562 563
f 512 563 564
f 512 564 513
f 513 564 565
f 513 565 514
f 514 566 567
f 514 567 515
f 514 565 566
f 515 567 568
f 515 568 516
f 516 568 569
f 516 569 520
f 516 520 517
f 518 570 571
f 518 571 519
f 518 520 572
f 518 572 573
f 518 573 574
f 518 574 570
f 519 571 575
f 519 575 524
f 520 569 572
f 521 576 522
f 521 524 576
f 522 577 523
f 522 576 577
f 523 577 578
f 523 578 579
f 523 579 525
f 524 575 580
f 524 580 581
f 524 581 582
f 524 582 576
f 525 583 526
f 525 579 584
f 525 584 583
f 526 583 585
f 526 585 527
f 527 585 528
f 528 585 529
f 529 583 584
f 529 584 586
f 529 586 587
f 529 587 530
f 529 585 583
f 530 587 532
f 530 532 531
f 532 587 588
f 532 588 589
f 532 589 590
f 532 590 533
f 533 590 536
f 534 538 591
f 536 590 592
f 536 592 537
f 537 592 593
f 537 593 538
f 538 594 591
f 538 593 595
f 538 595 596
f 538 596 594
f 542 597 543
f 543 597 598
f 543 598 599
f 543 599 600
f 543 600 601
f 543 601 544
f 544 601 602
f 544 602 545
f 545 602 603
f 545 603 546
f 546 603 547
f 547 603 548
f 548 603 602
f 548 602 600
f 548 600 549
f 549 604 550
f 549 600 605
f 549 605 604
f 550 604 551
f 551 604 606
f 551 606 552
f 552 554 553
f 552 606 607
f 552 607 608
f 552 608 609
f 552 609 554
f 554 609 555
f 555 609 610
f 555 610 556
f 556 610 557
f 557 610 611
f 557 611 558
f 558 611 612
f 558 612 613
f 558 613 614
f 558 614 559
f 559 614 615
f 559 615 616
f 559 616 617
f 559 617 618
f 559 618 619
f 559 619 560
f 560 619 561
f 561 619 562
f 562 619 618
f 562 618 563
f 563 620 564
f 563 618 621
f 563 621 622
f 563 622 623
f 563 623 620
f 564 620 565
f 565 620 624
f 565 624 625
f 565 625 566
f 566 625 626
f 566 626 627
f 566 627 567
f 567 627 628
f 567 628 573
f 567 573 568
f 568 573 569
f 569 573 572
f 570 629 630
f 570 630 631
f 570 631 632
f 570 632 571
f 570 574 633
f 570 633 634
f 570 634 629
f 571 632 575
f 573 628 635
f 573 635 636
f 573 636 633
f 573 633 574
f 575 632 637
f 575 637 638
f 575 638 580
f 576 639 577
f 576 582 640
f 576 640 639
f 577 639 641
f 577 641 642
f 577 642 643
f 577 643 644
f 577 644 578
f 578 644 579
f 579 644 645
f 579 645 646
f 579 646 647
f 579 647 584
f 580 648 581
f 580 638 649
f 580 649 648
f 581 640 582
f 581 648 650
f 581 650 651
f 581 651 641
f 581 641 640
f 584 647 588
f 584 588 586
f 586 588 587
f 588 652 589
f 588 647 653
f 588 653 654
f 588 654 652
f 589 652 655
f 589 655 592
f 589 592 590
f 591 594 656
f 592 655 657
f 592 657 593
f 593 657 595
f 594 596 658
f 594 658 656
f 595 657 659
f 595 659 660
f 595 660 596
f 596 661 658
f 596 660 661
f 597 662 663
f 597 663 664
f 597 664 598
f 598 664 665
f 598 665 599
f 599 665 600
f 600 665 605
f 600 602 601
f 604 605 665
f 604 665 666
f 604 666 667
f 604 667 668
f 604 668 606
f 606 668 669
f 606 669 607
f 607 669 670
f 607 670 671
f 607 671 608
f 608 671 672
f 608 672 673
f 608 673 611
f 608 611 609
f 609 611 610
f 611 673 674
f 611 674 612
f 612 674 613
f 613 615 614
f 613 674 675
f 613 675 615
f 615 675 616
f 616 675 676
f 616 676 677
f 616 677 678
f 616 678 679
f 616 679 617
f 617 679 618
f 618 679 621
f 620 623 680
f 620 680 681
f 620 681 624
f 621 679 678
f 621 678 622
f 622 678 623
f 623 678 682
f 623 682 680
f 624 683 684
f 624 684 625
f 624 681 683
f 625 684 685
f 625 685 626
f 626 686 635
f 626 635 627
f 626 685 686
f 627 635 628
f 629 687 630
f 629 634 687
f 630 687 688
f 630 688 689
f 630 689 690
f 630 690 691
f 630 691 631
f 631 691 637
f 631 637 632
f 633 636 634
f 634 636 692
f 634 692 687
f 635 692 636
f 635 686 693
f 635 693 694
f 635 694 692
f 637 695 696
f 637 696 697
f 637 697 698
f 637 698 649
f 637 649 638
f 637 691 695
f 639 640 641
f 641 651 699
f 641 699 642
f 642 699 643
f 643 700 701
f 643 701 645
f 643 645 644
f 643 699 700
f 645 702 703
f 645 703 704
f 645 704 646
f 645 701 702
f 646 704 705
f 646 705 647
f 647 705 653
f 648 649 698
f 648 698 706
f 648 706 650
f 650 706 707
f 650 707 651
f 651 707 699
f 652 708 657
f 652 657 655
f 652 654 708
f 653 705 709
f 653 709 710
f 653 710 711
f 653 711 654
f 654 711 712
f 654 712 708
f 657 708 713
f 657 713 659
f 658 661 714
f 658 714 715
f 659 713 660
f 660 714 661
f 660 713 714
f 662 716 663
f 663 716 717
f 663 717 718
f 663 718 719
f 663 719 664
f 664 719 666
f 664 666 665
f 666 719 667
f 667 719 720
f 667 720 721
f 667 721 722
f 667 722 669
f 667 669 668
f 669 722 723
f 669 723 670
f 670 724 725
f 670 725 672
f 670 672 671
f 670 723 724
f 672 725 726
f 672 726 727
f 672 727 673
f 673 727 674
f 674 727 675
f 675 727 728
f 675 728 729
f 675 729 676
f 676 730 731
f 676 731 677
f 676 729 730
f 677 731 732
f 677 732 682
f 677 682 678
f 680 682 733
f 680 733 734
f 680 734 735
f 680 735 683
f 680 683 681
f 682 732 736
f 682 736 737
f 682 737 733
f 683 685 684
f 683 735 738
f 683 738 685
f 685 738 739
f 685 739 740
f 685 740 741
f 685 741 686
f 686 741 742
f 686 742 743
f 686 743 693
f 687 744 745
f 687 745 688
f 687 692 746
f 687 746 744
f 688 745 747
f 688 747 689
f 689 747 690
f 690 748 749
f 690 749 696
f 690 696 691
f 690 747 748
f 691 696 695
f 692 694 750
f 692 750 751
f 692 751 746
f 693 752 753
f 693 753 694
f 693 743 752
f 694 753 750
f 696 749 754
f 696 754 755
f 696 755 756
f 696 756 757
f 696 757 698
f 696 698 697
f 698 757 758
f 698 758 706
f 699 707 700
f 700 759 701
f 700 707 759
f 701 759 702
f 702 760 703
f 702 759 761
f 702 761 760
f 703 760 705
f 703 705 704
f 705 760 762
f 705 762 709
f 706 763 764
f 706 764 765
f 706 765 707
f 706 758 763
f 707 766 759
f 707 765 766
f 708 712 713
f 709 762 710
f 710 762 767
f 710 767 768
f 710 768 769
f 710 769 770
f 710 770 771
f 710 771 711
f 711 771 712
f 712 771 770
f 712 770 772
f 712 772 713
f 713 772 773
f 713 773 774
f 713 774 714
f 714 774 775
f 714 775 776
f 714 776 715
f 718 777 720
f 718 720 719
f 720 777 778
f 720 778 721
f 721 779 723
f 721 723 722
f 721 778 779
f 723 779 780
f 723 780 724
f 724 780 781
f 724 781 726
f 724 726 725
f 726 781 727
f 727 781 782
f 727 782 783
f 727 783 728
f 728 783 729
f 729 783 782
f 729 782 784
f 729 784 785
f 729 785 786
f 729 786 787
f 729 787 730
f 730 787 788
f 730 788 731
f 731 788 789
f 731 789 732
f 732 789 790
f 732 790 736
f 733 737 791
f 733 791 792
f 733 792 734
f 734 793 794
f 734 794 735
f 734 792 793
f 735 794 795
f 735 795 738
f 736 790 737
f 737 790 791
f 738 795 796
f 738 796 739
f 739 796 740
f 740 796 797
f 740 797 741
f 741 797 742
f 742 798 799
f 742 799 743
f 742 797 800
f 742 800 798
f 743 799 801
f 743 801 752
f 744 802 745
f 744 746 751
f 744 751 802
f 745 803 747
f 745 802 803
f 747 803 804
f 747 804 805
f 747 805 748
f 748 805 806
f 748 806 807
f 748 807 808
f 748 808 749
f 749 808 754
f 750 809 810
f 750 810 751
f 750 753 809
f 751 810 802
f 752 801 811
f 752 811 753
f 753 811 809
f 754 808 812
f 754 812 813
f 754 813 755
f 755 813 756
f 756 813 814
f 756 814 815
f 756 815 816
f 756 816 757
f 757 816 763
f 757 763 758
f 759 817 761
f 759 766 764
f 759 764 818
f 759 818 819
f 759 819 817
f 760 761 820
f 760 820 762
f 761 817 820
f 762 820 821
f 762 821 767
f 763 822 823
f 763 823 764
f 763 816 822
f 764 824 818
f 764 766 765
f 764 823 824
f 767 821 825
f 767 825 826
f 767 826 827
f 767 827 828
f 767 828 768
f 768 828 829
f 768 829 769
f 769 829 770
f 770 829 830
f 770 830 831
f 770 831 773
f 770 773 772
f 773 832 774
f 773 831 832
f 774 832 833
f 774 833 775
f 777 834 835
f 777 835 836
f 777 836 778
f 778 836 779
f 779 836 780
f 780 837 781
f 780 836 837
f 781 837 838
f 781 838 782
f 782 838 839
f 782 839 840
f 782 840 841
f 782 841 842
f 782 842 784
f 784 842 785
f 785 842 843
f 785 843 844
f 785 844 786
f 786 845 846
f 786 846 847
f 786 847 848
f 786 848 787
f 786 844 845
f 787 848 788
f 788 848 849
f 788 849 850
f 788 850 851
f 788 851 852
f 788 852 789
f 789 852 853
f 789 853 790
f 790 853 854
f 790 854 855
f 790 855 791
f 791 855 792
f 792 855 854
f 792 854 856
f 792 856 857
f 792 857 793
f 793 857 794
f 794 858 859
f 794 859 860
f 794 860 861
f 794 861 795
f 794 857 858
f 795 861 862
f 795 862 796
f 796 862 800
f 796 800 797
f 798 863 799
f 798 800 863
f 799 863 864
f 799 864 801
f 800 862 865
f 800 865 866
f 800 866 863
f 801 867 868
f 801 868 811
f 801 864 867
f 802 869 870
f 802 870 803
f 802 810 869
f 803 871 804
f 803 870 871
f 804 871 872
f 804 872 873
f 804 873 805
f 805 873 806
f 806 874 875
f 806 875 876
f 806 876 807
f 806 873 872
f 806 872 874
f 807 876 808
f 808 876 812
f 809 877 878
f 809 878 810
f 809 811 877
f 810 878 869
f 811 868 877
f 812 876 879
f 812 879 813
f 813 879 880
f 813 880 814
f 814 880 881
f 814 881 815
f 815 881 882
f 815 882 816
f 816 882 822
f 817 819 883
f 817 883 884
f 817 884 885
f 817 885 820
f 818 824 886
f 818 886 819
f 819 886 883
f 820 885 821
f 821 885 887
f 821 887 888
f 821 888 825
f 822 882 889
f 822 889 823
f 823 889 824
f 824 889 890
f 824 890 886
f 825 888 826
f 826 888 891
f 826 891 892
f 826 892 827
f 827 893 828
f 827 892 893
f 828 893 894
f 828 894 895
f 828 895 829
f 829 895 896
f 829 896 897
f 829 897 830
f 830 897 898
f 830 898 899
f 830 899 900
f 830 900 831
f 831 900 901
f 831 901 832
f 832 901 833
f 834 902 903
f 834 903 904
f 834 904 835
f 835 904 836
f 836 904 837
f 837 839 838
f 837 904 839
f 839 904 840
f 840 905 841
f 840 904 906
f 840 906 905
f 841 905 843
f 841 843 842
f 843 905 907
f 843 907 906
f 843 906 908
f 843 908 846
f 843 846 844
f 844 846 845
f 846 908 957
f 846 957 909
f 846 909 910
f 846 910 847
f 847 849 848
f 850 911 851
f 851 911 852
f 852 911 912
f 852 912 853
f 853 912 913
f 853 913 854
f 854 913 856
f 856 914 915
f 856 915 857
f 856 913 914
f 857 915 858
f 858 915 916
f 858 916 859
f 859 916 917
f 859 917 865
f 859 865 860
f 860 865 861
f 861 865 862
f 863 918 919
f 863 919 920
f 863 920 864
f 863 866 921
f 863 921 918
f 864 920 867
f 865 917 866
f 866 922 923
f 866 923 918
f 866 918 921
f 866 917 924
f 866 924 922
f 867 925 868
f 867 920 925
f 868 926 877
f 868 925 926
f 869 927 928
f 869 928 870
f 869 878 938
f 869 938 927
f 870 928 929
f 870 929 930
f 870 930 871
f 871 930 872
f 872 931 932
f 872 932 933
f 872 933 874
f 872 930 931
f 874 933 934
f 874 934 875
f 875 935 936
f 875 936 876
f 876 936 879
f 877 926 937
f 877 937 878
f 878 937 938
f 879 936 880
f 880 939 940
f 880 940 881
f 880 936 939
f 881 940 941
f 881 941 942
f 881 942 882
f 882 942 889
f 883 886 884
f 884 886 943
f 884 943 944
f 884 944 945
f 884 945 888
f 884 888 887
f 884 887 885
f 886 890 943
f 888 945 946
f 888 946 891
f 889 942 947
f 889 947 948
f 889 948 890
f 890 948 943
f 891 946 892
f 892 946 949
f 892 949 950
f 892 950 893
f 893 951 896
f 893 896 894
f 893 950 952
f 893 952 951
f 894 896 895
f 896 951 953
f 896 953 954
f 896 954 898
f 896 898 897
f 902 955 903
f 903 955 956
f 903 956 906
f 903 906 904
f 905 906 907
f 906 956 908
f 908 956 957
f 911 958 912
f 912 958 959
f 912 959 913
f 913 959 914
f 914 959 960
f 914 960 915
f 915 960 916
f 916 961 962
f 916 962 924
f 916 924 917
f 916 960 963
f 916 963 964
f 916 964 961
f 919 965 920
f 920 965 966
f 920 966 925
f 925 966 967
f 925 967 926
f 926 967 937
f 927 968 969
f 927 969 928
f 927 938 968
f 928 969 929
f 929 970 930
f 929 969 971
f 930 970 931
f 935 972 973
f 935 973 974
f 935 974 936
f 936 974 975
f 936 975 939
f 937 967 976
f 937 976 977
f 937 977 968
f 937 968 938
f 939 978 940
f 939 975 978
f 940 978 979
f 940 979 941
f 941 979 980
f 941 980 981
f 941 981 947
f 941 947 942
f 943 948 944
f 944 948 982
f 944 982 983
f 944 983 984
f 944 984 945
f 945 984 946
f 946 984 949
f 947 981 948
f 948 981 982
f 949 985 952
f 949 952 950
f 949 984 986
f 949 986 987
f 949 987 985
f 951 952 988
f 951 988 953
f 952 985 988
f 953 988 989
f 955 990 956
f 956 990 991
f 956 991 957
f 958 992 959
f 959 993 994
f 959 994 960
f 959 992 993
f 960 994 963
f 966 976 967
f 968 971 969
f 972 995 996
f 972 996 973
f 973 996 997
f 973 997 974
f 974 997 975
f 975 997 978
f 978 997 979
f 979 997 996
f 979 996 998
f 979 998 999
f 979 999 980
f 980 999 983
f 980 983 981
f 981 983 982
f 983 999 1000
f 983 1000 986
f 983 986 984
f 985 987 1001
f 985 1001 988
f 986 1000 1002
f 986 1002 987
f 987 1002 1003
f 987 1003 1004
f 987 1004 1001
f 988 1001 989
f 995 1005 998
f 995 998 996
f 998 1005 1006
f 998 1006 999
f 999 1006 1000
f 1000 1006 1002
f 1002 1006 1003
f 1003 1007 1004
f 1003 1006 1008
f 1003 1008 1007
f 1005 1009 1006
f 1006 1009 1008

