# https://github.com/mikedh/trimesh

o geometry_0
v 0.05396149 -0.00060463 -0.01121862 0.54509804 0.71372549 0.60000000
v 0.05396149 0.00060518 -0.01120103 0.54509804 0.71372549 0.60000000
v 0.05487350 -0.00060463 -0.01108012 0.54509804 0.71372549 0.60000000
v 0.05487350 -0.00181845 -0.01107792 0.54509804 0.71372549 0.60000000
v 0.05396149 -0.00181845 -0.01119663 0.54509804 0.71372549 0.60000000
v -0.05275502 -0.00060463 -0.00914333 0.54509804 0.71372549 0.60000000
v -0.05881505 0.00060518 -0.00903781 0.54509804 0.71372549 0.60000000
v 0.05270149 0.00192115 -0.01102736 0.54509804 0.71372549 0.60000000
v 0.05399749 0.00191714 -0.01103395 0.54509804 0.71372549 0.60000000
v 0.05466950 0.00157863 -0.01099658 0.54509804 0.71372549 0.60000000
v 0.05477750 0.00060518 -0.01105813 0.54509804 0.71372549 0.60000000
v 0.06068153 -0.00089907 -0.00611174 0.54509804 0.71372549 0.60000000
v 0.06068153 -0.00181845 -0.00610734 0.54509804 0.71372549 0.60000000
v 0.06064553 -0.00243938 -0.00607436 0.54509804 0.71372549 0.60000000
v 0.05475350 -0.00277187 -0.01101856 0.54509804 0.71372549 0.60000000
v 0.05396149 -0.00293812 -0.01104274 0.54509804 0.71372549 0.60000000
v -0.04547098 -0.00181845 -0.00920488 0.54509804 0.71372549 0.60000000
v -0.05396702 -0.00060463 -0.00911915 0.54509804 0.71372549 0.60000000
v -0.05517903 -0.00060463 -0.00909276 0.54509804 0.71372549 0.60000000
v -0.05881505 -0.00060463 -0.00901142 0.54509804 0.71372549 0.60000000
v -0.05975105 -0.00060463 -0.00874322 0.54509804 0.71372549 0.60000000
v -0.05973905 0.00060518 -0.00875641 0.54509804 0.71372549 0.60000000
v -0.05964305 0.00181899 -0.00865528 0.54509804 0.71372549 0.60000000
v -0.05881505 0.00181899 -0.00883116 0.54509804 0.71372549 0.60000000
v 0.05306149 0.00246796 -0.01093063 0.54509804 0.71372549 0.60000000
v 0.05442950 0.00238584 -0.01089985 0.54509804 0.71372549 0.60000000
v 0.05362549 0.00246796 -0.01093063 0.54509804 0.71372549 0.60000000
v 0.05463350 0.00501177 -0.00976108 0.54509804 0.71372549 0.60000000
v 0.06026152 0.00181899 -0.00576219 0.54509804 0.71372549 0.60000000
v 0.06050153 0.00060518 -0.00596884 0.54509804 0.71372549 0.60000000
v 0.06060953 -0.00009187 -0.00604139 0.54509804 0.71372549 0.60000000
v 0.06095753 0.00060518 -0.00536208 0.54509804 0.71372549 0.60000000
v 0.06089753 -0.00053853 -0.00556434 0.54509804 0.71372549 0.60000000
v 0.06092153 -0.00181845 -0.00545661 0.54509804 0.71372549 0.60000000
v 0.06074152 -0.00272580 -0.00545661 0.54509804 0.71372549 0.60000000
v 0.06062153 -0.00362114 -0.00482787 0.54509804 0.71372549 0.60000000
v 0.05492150 -0.00877085 -0.00643710 0.54509804 0.71372549 0.60000000
v 0.05448950 -0.00845037 -0.00724611 0.54509804 0.71372549 0.60000000
v 0.05484950 -0.00764116 -0.00756048 0.54509804 0.71372549 0.60000000
v 0.05475350 -0.00631117 -0.00867947 0.54509804 0.71372549 0.60000000
v 0.05465750 -0.00497116 -0.00979185 0.54509804 0.71372549 0.60000000
v 0.05486150 -0.00424408 -0.01005346 0.54509804 0.71372549 0.60000000
v 0.05386549 -0.00540782 -0.00994794 0.54509804 0.71372549 0.60000000
v 0.05396149 -0.00424408 -0.01057009 0.54509804 0.71372549 0.60000000
v 0.05396149 -0.00354503 -0.01088446 0.54509804 0.71372549 0.60000000
v 0.05274949 -0.00424408 -0.01068001 0.54509804 0.71372549 0.60000000
v -0.05881505 -0.00303026 -0.00869925 0.54509804 0.71372549 0.60000000
v -0.05275502 -0.00181845 -0.00904660 0.54509804 0.71372549 0.60000000
v -0.05639104 -0.00181845 -0.00896746 0.54509804 0.71372549 0.60000000
v -0.05881505 -0.00181845 -0.00891250 0.54509804 0.71372549 0.60000000
v -0.05973905 -0.00181845 -0.00869486 0.54509804 0.71372549 0.60000000
v -0.06030306 -0.00181845 -0.00788145 0.54509804 0.71372549 0.60000000
v -0.06033906 -0.00060463 -0.00788145 0.54509804 0.71372549 0.60000000
v -0.06032706 0.00060518 -0.00788145 0.54509804 0.71372549 0.60000000
v -0.06020706 0.00181899 -0.00788145 0.54509804 0.71372549 0.60000000
v -0.05951105 0.00259616 -0.00853877 0.54509804 0.71372549 0.60000000
v -0.06043506 0.00424462 -0.00698230 0.54509804 0.71372549 0.60000000
v -0.05881505 0.00330321 -0.00838928 0.54509804 0.71372549 0.60000000
v 0.05274949 0.00517201 -0.00983143 0.54509804 0.71372549 0.60000000
v -0.05760304 0.00424462 -0.00804633 0.54509804 0.71372549 0.60000000
v 0.05396149 0.00515598 -0.00982044 0.54509804 0.71372549 0.60000000
v 0.05396149 0.00576289 -0.00956542 0.54509804 0.71372549 0.60000000
v 0.05478950 0.00640385 -0.00877620 0.54509804 0.71372549 0.60000000
v 0.06071752 0.00261418 -0.00495758 0.54509804 0.71372549 0.60000000
v 0.06086153 0.00181899 -0.00515543 0.54509804 0.71372549 0.60000000
v 0.06118552 0.00181899 -0.00424310 0.54509804 0.71372549 0.60000000
v 0.06128153 0.00060518 -0.00424310 0.54509804 0.71372549 0.60000000
v 0.06125753 -0.00060463 -0.00424310 0.54509804 0.71372549 0.60000000
v 0.06118552 -0.00181845 -0.00424310 0.54509804 0.71372549 0.60000000
v 0.06090953 -0.00314243 -0.00435082 0.54509804 0.71372549 0.60000000
v 0.06075352 -0.00389756 -0.00401886 0.54509804 0.71372549 0.60000000
v 0.06051353 -0.00470677 -0.00329119 0.54509804 0.71372549 0.60000000
v 0.05526950 -0.00888902 -0.00540825 0.54509804 0.71372549 0.60000000
v 0.05441750 -0.00965818 -0.00459264 0.54509804 0.71372549 0.60000000
v 0.05399749 -0.00955602 -0.00545002 0.54509804 0.71372549 0.60000000
v 0.05403350 -0.00891306 -0.00677126 0.54509804 0.71372549 0.60000000
v 0.05368549 -0.00858657 -0.00740440 0.54509804 0.71372549 0.60000000
v 0.05356549 -0.00740480 -0.00859153 0.54509804 0.71372549 0.60000000
v 0.05436950 -0.00711838 -0.00836949 0.54509804 0.71372549 0.60000000
v 0.05421350 -0.00578037 -0.00948848 0.54509804 0.71372549 0.60000000
v 0.05339749 -0.00609084 -0.00972370 0.54509804 0.71372549 0.60000000
v 0.05273749 -0.00556405 -0.01005127 0.54509804 0.71372549 0.60000000
v -0.05881505 -0.00368123 -0.00851019 0.54509804 0.71372549 0.60000000
v -0.05943905 -0.00365920 -0.00849920 0.54509804 0.71372549 0.60000000
v -0.05959505 -0.00303026 -0.00858713 0.54509804 0.71372549 0.60000000
v -0.06013506 -0.00303026 -0.00788145 0.54509804 0.71372549 0.60000000
v -0.06056706 -0.00303026 -0.00686359 0.54509804 0.71372549 0.60000000
v -0.06059106 -0.00181845 -0.00702187 0.54509804 0.71372549 0.60000000
v -0.06061506 -0.00060463 -0.00713839 0.54509804 0.71372549 0.60000000
v -0.06060306 0.00060518 -0.00715598 0.54509804 0.71372549 0.60000000
v -0.06059106 0.00181899 -0.00712520 0.54509804 0.71372549 0.60000000
v -0.06056706 0.00303081 -0.00708563 0.54509804 0.71372549 0.60000000
v -0.05983505 0.00424462 -0.00762423 0.54509804 0.71372549 0.60000000
v -0.05961905 0.00501577 -0.00740440 0.54509804 0.71372549 0.60000000
v -0.05881505 0.00424462 -0.00800456 0.54509804 0.71372549 0.60000000
v -0.06074706 0.00424462 -0.00637555 0.54509804 0.71372549 0.60000000
v -0.06069906 0.00501177 -0.00621946 0.54509804 0.71372549 0.60000000
v 0.05274949 0.00577691 -0.00958081 0.54509804 0.71372549 0.60000000
v -0.05760304 0.00534627 -0.00753190 0.54509804 0.71372549 0.60000000
v 0.05396149 0.00661617 -0.00895866 0.54509804 0.71372549 0.60000000
v 0.05477750 0.00748146 -0.00761104 0.54509804 0.71372549 0.60000000
v 0.06076552 0.00381999 -0.00388916 0.54509804 0.71372549 0.60000000
v 0.06045353 0.00342339 -0.00469817 0.54509804 0.71372549 0.60000000
v 0.05396149 0.00722308 -0.00843105 0.54509804 0.71372549 0.60000000
v 0.06089753 0.00302279 -0.00427388 0.54509804 0.71372549 0.60000000
v 0.06122154 0.00303081 -0.00303178 0.54509804 0.71372549 0.60000000
v 0.06128153 -0.00181845 -0.00303178 0.54509804 0.71372549 0.60000000
v 0.06129353 0.00181899 -0.00303178 0.54509804 0.71372549 0.60000000
v 0.06130553 0.00060518 -0.00303178 0.54509804 0.71372549 0.60000000
v 0.06130553 -0.00060463 -0.00303178 0.54509804 0.71372549 0.60000000
v 0.06129353 -0.00303026 -0.00181827 0.54509804 0.71372549 0.60000000
v 0.06118552 -0.00303026 -0.00303178 0.54509804 0.71372549 0.60000000
v 0.06083753 -0.00427813 -0.00294385 0.54509804 0.71372549 0.60000000
v 0.06064553 -0.00486300 -0.00248218 0.54509804 0.71372549 0.60000000
v 0.05566550 -0.00952397 -0.00060475 0.54509804 0.71372549 0.60000000
v 0.05462150 -0.00972628 -0.00378363 0.54509804 0.71372549 0.60000000
v 0.05399749 -0.00983043 -0.00421012 0.54509804 0.71372549 0.60000000
v 0.05361349 -0.00977034 -0.00504112 0.54509804 0.71372549 0.60000000
v 0.05274949 -0.00956003 -0.00567426 0.54509804 0.71372549 0.60000000
v 0.05274949 -0.00906529 -0.00667013 0.54509804 0.71372549 0.60000000
v 0.05274949 -0.00860059 -0.00742418 0.54509804 0.71372549 0.60000000
v 0.05274949 -0.00803775 -0.00803094 0.54509804 0.71372549 0.60000000
v 0.05274949 -0.00743084 -0.00861132 0.54509804 0.71372549 0.60000000
v 0.05313349 -0.00609084 -0.00972370 0.54509804 0.71372549 0.60000000
v -0.05760304 -0.00611888 -0.00730547 0.54509804 0.71372549 0.60000000
v -0.05881505 -0.00428814 -0.00820461 0.54509804 0.71372549 0.60000000
v -0.05893505 -0.00557807 -0.00754289 0.54509804 0.71372549 0.60000000
v -0.05941505 -0.00606280 -0.00727469 0.54509804 0.71372549 0.60000000
v -0.05964305 -0.00525359 -0.00748793 0.54509804 0.71372549 0.60000000
v -0.05977505 -0.00413591 -0.00788804 0.54509804 0.71372549 0.60000000
v -0.06047106 -0.00420001 -0.00659319 0.54509804 0.71372549 0.60000000
v -0.06060306 -0.00457457 -0.00594026 0.54509804 0.71372549 0.60000000
v -0.06072306 -0.00420001 -0.00550498 0.54509804 0.71372549 0.60000000
v -0.06107106 -0.00545589 -0.00303178 0.54509804 0.71372549 0.60000000
v -0.06066306 -0.00303026 -0.00625683 0.54509804 0.71372549 0.60000000
v -0.06089106 -0.00060463 -0.00545661 0.54509804 0.71372549 0.60000000
v -0.06093905 0.00060518 -0.00545661 0.54509804 0.71372549 0.60000000
v -0.06098707 0.00181899 -0.00545661 0.54509804 0.71372549 0.60000000
v -0.06101107 0.00303081 -0.00545661 0.54509804 0.71372549 0.60000000
v -0.06102307 0.00424462 -0.00545661 0.54509804 0.71372549 0.60000000
v -0.06075906 0.00303081 -0.00647887 0.54509804 0.71372549 0.60000000
v -0.06003906 0.00541637 -0.00663935 0.54509804 0.71372549 0.60000000
v -0.05964305 0.00628167 -0.00625024 0.54509804 0.71372549 0.60000000
v -0.05881505 0.00650200 -0.00647008 0.54509804 0.71372549 0.60000000
v -0.05881505 0.00582298 -0.00707683 0.54509804 0.71372549 0.60000000
v -0.05881505 0.00521607 -0.00749673 0.54509804 0.71372549 0.60000000
v -0.06087906 0.00543240 -0.00546981 0.54509804 0.71372549 0.60000000
v -0.06079506 0.00627165 -0.00507629 0.54509804 0.71372549 0.60000000
v -0.06044706 0.00581898 -0.00588310 0.54509804 0.71372549 0.60000000
v 0.05274949 0.00663019 -0.00897405 0.54509804 0.71372549 0.60000000
v -0.05760304 0.00595318 -0.00720654 0.54509804 0.71372549 0.60000000
v -0.05517903 0.00599123 -0.00723072 0.54509804 0.71372549 0.60000000
v -0.05396702 0.00601126 -0.00724171 0.54509804 0.71372549 0.60000000
v 0.05464550 0.00854305 -0.00615351 0.54509804 0.71372549 0.60000000
v 0.06089753 0.00400626 -0.00303178 0.54509804 0.71372549 0.60000000
v 0.05483750 0.00871331 -0.00545661 0.54509804 0.71372549 0.60000000
v 0.05274949 0.00723710 -0.00843984 0.54509804 0.71372549 0.60000000
v 0.05274949 0.00767575 -0.00783308 0.54509804 0.71372549 0.60000000
v 0.05274949 0.00828266 -0.00697131 0.54509804 0.71372549 0.60000000
v 0.05396149 0.00763169 -0.00782429 0.54509804 0.71372549 0.60000000
v 0.06128153 0.00303081 -0.00181827 0.54509804 0.71372549 0.60000000
v 0.06094553 0.00413045 -0.00181827 0.54509804 0.71372549 0.60000000
v 0.06130553 0.00181899 -0.00181827 0.54509804 0.71372549 0.60000000
v 0.06130553 -0.00181845 -0.00181827 0.54509804 0.71372549 0.60000000
v 0.06130553 -0.00181845 -0.00060475 0.54509804 0.71372549 0.60000000
v 0.06126953 -0.00303026 -0.00060475 0.54509804 0.71372549 0.60000000
v 0.06106553 -0.00424408 -0.00060475 0.54509804 0.71372549 0.60000000
v 0.06102953 -0.00424408 -0.00181827 0.54509804 0.71372549 0.60000000
v 0.06070552 -0.00493110 -0.00181827 0.54509804 0.71372549 0.60000000
v 0.06075352 -0.00500722 -0.00060475 0.54509804 0.71372549 0.60000000
v 0.06070552 -0.00495113 0.00060437 0.54509804 0.71372549 0.60000000
v 0.05564150 -0.00943785 0.00060437 0.54509804 0.71372549 0.60000000
v 0.05502950 -0.00997264 0.00060437 0.54509804 0.71372549 0.60000000
v 0.05505350 -0.00996463 -0.00060475 0.54509804 0.71372549 0.60000000
v 0.05490950 -0.00988451 -0.00181827 0.54509804 0.71372549 0.60000000
v 0.05396149 -0.00998867 -0.00303178 0.54509804 0.71372549 0.60000000
v 0.05472950 -0.00978837 -0.00303178 0.54509804 0.71372549 0.60000000
v 0.05274949 -0.00995662 -0.00424310 0.54509804 0.71372549 0.60000000
v 0.05274949 -0.00977835 -0.00506750 0.54509804 0.71372549 0.60000000
v -0.05760304 -0.00955202 -0.00321425 0.54509804 0.71372549 0.60000000
v -0.05760304 -0.00899318 -0.00424310 0.54509804 0.71372549 0.60000000
v -0.05760304 -0.00853650 -0.00491141 0.54509804 0.71372549 0.60000000
v -0.05760304 -0.00806379 -0.00551817 0.54509804 0.71372549 0.60000000
v -0.05760304 -0.00745888 -0.00628101 0.54509804 0.71372549 0.60000000
v -0.05517903 -0.00676385 -0.00690756 0.54509804 0.71372549 0.60000000
v -0.05760304 -0.00672579 -0.00688777 0.54509804 0.71372549 0.60000000
v -0.05861105 -0.00609284 -0.00729228 0.54509804 0.71372549 0.60000000
v -0.05893505 -0.00656555 -0.00692734 0.54509804 0.71372549 0.60000000
v -0.05881505 -0.00741882 -0.00623485 0.54509804 0.71372549 0.60000000
v -0.05948705 -0.00734672 -0.00614911 0.54509804 0.71372549 0.60000000
v -0.05964305 -0.00666970 -0.00643050 0.54509804 0.71372549 0.60000000
v -0.05991906 -0.00557807 -0.00679104 0.54509804 0.71372549 0.60000000
v -0.06050706 -0.00552399 -0.00550498 0.54509804 0.71372549 0.60000000
v -0.06061506 -0.00597266 -0.00479490 0.54509804 0.71372549 0.60000000
v -0.06073506 -0.00643736 -0.00398589 0.54509804 0.71372549 0.60000000
v -0.06087906 -0.00677186 -0.00313730 0.54509804 0.71372549 0.60000000
v -0.06119106 -0.00666970 -0.00181827 0.54509804 0.71372549 0.60000000
v -0.06111906 -0.00424408 -0.00303178 0.54509804 0.71372549 0.60000000
v -0.06116706 -0.00303026 -0.00303178 0.54509804 0.71372549 0.60000000
v -0.06121506 0.00303081 -0.00424310 0.54509804 0.71372549 0.60000000
v -0.06123906 0.00424462 -0.00424310 0.54509804 0.71372549 0.60000000
v -0.06121506 0.00545643 -0.00424310 0.54509804 0.71372549 0.60000000
v -0.06003906 0.00668026 -0.00547640 0.54509804 0.71372549 0.60000000
v -0.05963105 0.00745943 -0.00506750 0.54509804 0.71372549 0.60000000
v -0.05881505 0.00710891 -0.00589629 0.54509804 0.71372549 0.60000000
v -0.05760304 0.00661817 -0.00659978 0.54509804 0.71372549 0.60000000
v -0.06085506 0.00667225 -0.00412439 0.54509804 0.71372549 0.60000000
v -0.06063906 0.00727716 -0.00364074 0.54509804 0.71372549 0.60000000
v -0.06043506 0.00707886 -0.00444975 0.54509804 0.71372549 0.60000000
v -0.05070301 0.00605733 -0.00727249 0.54509804 0.71372549 0.60000000
v 0.05396149 0.00823659 -0.00687238 0.54509804 0.71372549 0.60000000
v 0.05396149 0.00861115 -0.00626562 0.54509804 0.71372549 0.60000000
v 0.05396149 0.00899973 -0.00545661 0.54509804 0.71372549 0.60000000
v 0.05396149 0.00943438 -0.00424310 0.54509804 0.71372549 0.60000000
v 0.06050153 0.00473736 -0.00181827 0.54509804 0.71372549 0.60000000
v 0.05500550 0.00892963 -0.00424310 0.54509804 0.71372549 0.60000000
v -0.05760304 0.00722508 -0.00601281 0.54509804 0.71372549 0.60000000
v -0.05760304 0.00774386 -0.00540605 0.54509804 0.71372549 0.60000000
v -0.05639104 0.00835878 -0.00459924 0.54509804 0.71372549 0.60000000
v 0.05153748 0.00869528 -0.00636235 0.54509804 0.71372549 0.60000000
v 0.05274949 0.00868526 -0.00636455 0.54509804 0.71372549 0.60000000
v 0.06090953 0.00417452 -0.00060475 0.54509804 0.71372549 0.60000000
v 0.06124554 0.00303081 -0.00060475 0.54509804 0.71372549 0.60000000
v 0.06129353 0.00181899 -0.00060475 0.54509804 0.71372549 0.60000000
v 0.06053753 0.00477942 -0.00060475 0.54509804 0.71372549 0.60000000
v 0.06130553 0.00060518 0.00060437 0.54509804 0.71372549 0.60000000
v 0.06130553 -0.00060463 0.00060437 0.54509804 0.71372549 0.60000000
v 0.06126953 -0.00060463 0.00181789 0.54509804 0.71372549 0.60000000
v 0.06119754 -0.00303026 0.00060437 0.54509804 0.71372549 0.60000000
v 0.06095753 -0.00424408 0.00060437 0.54509804 0.71372549 0.60000000
v 0.06064553 -0.00486901 0.00124410 0.54509804 0.71372549 0.60000000
v 0.05481350 -0.00986649 0.00161124 0.54509804 0.71372549 0.60000000
v 0.05396149 -0.01022502 0.00060437 0.54509804 0.71372549 0.60000000
v 0.05396149 -0.01023103 -0.00060475 0.54509804 0.71372549 0.60000000
v 0.05396149 -0.01011886 -0.00181827 0.54509804 0.71372549 0.60000000
v 0.05274949 -0.01009082 -0.00303178 0.54509804 0.71372549 0.60000000
v -0.05760304 -0.01010084 -0.00060475 0.54509804 0.71372549 0.60000000
v -0.05760304 -0.00994260 -0.00181827 0.54509804 0.71372549 0.60000000
v -0.05881505 -0.00993859 -0.00181827 0.54509804 0.71372549 0.60000000
v -0.05881505 -0.00976033 -0.00259650 0.54509804 0.71372549 0.60000000
v -0.05881505 -0.00951396 -0.00320326 0.54509804 0.71372549 0.60000000
v -0.05887505 -0.00884095 -0.00435522 0.54509804 0.71372549 0.60000000
v -0.05851505 -0.00851847 -0.00488723 0.54509804 0.71372549 0.60000000
v -0.05887505 -0.00810986 -0.00535769 0.54509804 0.71372549 0.60000000
v -0.05931905 -0.00847440 -0.00483447 0.54509804 0.71372549 0.60000000
v -0.06011106 -0.00666970 -0.00545661 0.54509804 0.71372549 0.60000000
v -0.05963105 -0.00874481 -0.00402546 0.54509804 0.71372549 0.60000000
v -0.06061506 -0.00844837 -0.00238325 0.54509804 0.71372549 0.60000000
v -0.06050706 -0.00797966 -0.00313730 0.54509804 0.71372549 0.60000000
v -0.06051906 -0.00677186 -0.00433103 0.54509804 0.71372549 0.60000000
v -0.06062706 -0.00724657 -0.00361216 0.54509804 0.71372549 0.60000000
v -0.06077106 -0.00763915 -0.00280535 0.54509804 0.71372549 0.60000000
v -0.06092705 -0.00797966 -0.00191499 0.54509804 0.71372549 0.60000000
v -0.06117906 -0.00788152 -0.00060475 0.54509804 0.71372549 0.60000000
v -0.06127506 -0.00666970 -0.00060475 0.54509804 0.71372549 0.60000000
v -0.06122706 -0.00545589 -0.00181827 0.54509804 0.71372549 0.60000000
v -0.06120306 -0.00181845 -0.00303178 0.54509804 0.71372549 0.60000000
v -0.06125106 -0.00424408 -0.00181827 0.54509804 0.71372549 0.60000000
v -0.06127506 0.00181899 -0.00303178 0.54509804 0.71372549 0.60000000
v -0.06128706 0.00303081 -0.00303178 0.54509804 0.71372549 0.60000000
v -0.06127506 0.00424462 -0.00303178 0.54509804 0.71372549 0.60000000
v -0.06125106 0.00545643 -0.00303178 0.54509804 0.71372549 0.60000000
v -0.06107106 0.00666825 -0.00181827 0.54509804 0.71372549 0.60000000
v -0.06099907 0.00666825 -0.00303178 0.54509804 0.71372549 0.60000000
v -0.05930705 0.00844891 -0.00354840 0.54509804 0.71372549 0.60000000
v -0.05886305 0.00827665 -0.00423870 0.54509804 0.71372549 0.60000000
v -0.05881505 0.00764771 -0.00528954 0.54509804 0.71372549 0.60000000
v -0.06002706 0.00760565 -0.00412439 0.54509804 0.71372549 0.60000000
v -0.06080706 0.00756559 -0.00181827 0.54509804 0.71372549 0.60000000
v -0.06071106 0.00738131 -0.00303178 0.54509804 0.71372549 0.60000000
v -0.05949905 0.00976488 -0.00017826 0.54509804 0.71372549 0.60000000
v -0.05957105 0.00861516 -0.00273939 0.54509804 0.71372549 0.60000000
v 0.05274949 0.00910790 -0.00545661 0.54509804 0.71372549 0.60000000
v 0.05274949 0.00950449 -0.00424310 0.54509804 0.71372549 0.60000000
v 0.05274949 0.00986303 -0.00299001 0.54509804 0.71372549 0.60000000
v 0.05369749 0.00982096 -0.00280974 0.54509804 0.71372549 0.60000000
v 0.05404550 0.00964470 -0.00314170 0.54509804 0.71372549 0.60000000
v 0.05448950 0.00965672 -0.00181827 0.54509804 0.71372549 0.60000000
v -0.05760304 0.00835076 -0.00456406 0.54509804 0.71372549 0.60000000
v -0.05639104 0.00866123 -0.00399248 0.54509804 0.71372549 0.60000000
v -0.05517903 0.00866924 -0.00400567 0.54509804 0.71372549 0.60000000
v 0.05153748 0.00910790 -0.00545661 0.54509804 0.71372549 0.60000000
v -0.05275502 0.00916999 -0.00303178 0.54509804 0.71372549 0.60000000
v 0.06084953 0.00409640 0.00060437 0.54509804 0.71372549 0.60000000
v 0.06125753 0.00181899 0.00060437 0.54509804 0.71372549 0.60000000
v 0.06114952 0.00303081 0.00060437 0.54509804 0.71372549 0.60000000
v 0.05504150 0.00897570 0.00181789 0.54509804 0.71372549 0.60000000
v 0.05450150 0.00965672 -0.00060475 0.54509804 0.71372549 0.60000000
v 0.05440550 0.00965271 0.00060437 0.54509804 0.71372549 0.60000000
v 0.06125753 0.00060518 0.00181789 0.54509804 0.71372549 0.60000000
v 0.06099353 -0.00060463 0.00303140 0.54509804 0.71372549 0.60000000
v 0.06118552 -0.00181845 0.00181789 0.54509804 0.71372549 0.60000000
v 0.06106553 -0.00303026 0.00181789 0.54509804 0.71372549 0.60000000
v 0.06078952 -0.00420802 0.00171676 0.54509804 0.71372549 0.60000000
v 0.06071752 -0.00378138 0.00254995 0.54509804 0.71372549 0.60000000
v 0.05462150 -0.00853650 0.00490663 0.54509804 0.71372549 0.60000000
v 0.05478950 -0.00870074 0.00424272 0.54509804 0.71372549 0.60000000
v 0.05396149 -0.00968622 0.00238727 0.54509804 0.71372549 0.60000000
v 0.05396149 -0.00993459 0.00178051 0.54509804 0.71372549 0.60000000
v -0.05639104 -0.00995862 0.00424272 0.54509804 0.71372549 0.60000000
v -0.05517903 -0.01022502 0.00303140 0.54509804 0.71372549 0.60000000
v -0.05031901 -0.01026909 0.00181789 0.54509804 0.71372549 0.60000000
v -0.05275502 -0.01026709 0.00181789 0.54509804 0.71372549 0.60000000
v -0.05517903 -0.01026508 0.00181789 0.54509804 0.71372549 0.60000000
v -0.05639104 -0.01018496 0.00060437 0.54509804 0.71372549 0.60000000
v -0.05517903 -0.01010484 -0.00060475 0.54509804 0.71372549 0.60000000
v -0.05881505 -0.01007480 -0.00060475 0.54509804 0.71372549 0.60000000
v -0.05964305 -0.00981841 -0.00181827 0.54509804 0.71372549 0.60000000
v -0.05948705 -0.00974030 -0.00253274 0.54509804 0.71372549 0.60000000
v -0.05982306 -0.00912738 -0.00297462 0.54509804 0.71372549 0.60000000
v -0.06078306 -0.00871877 -0.00157644 0.54509804 0.71372549 0.60000000
v -0.06111906 -0.00788152 0.00060437 0.54509804 0.71372549 0.60000000
v -0.06123906 -0.00666970 0.00060437 0.54509804 0.71372549 0.60000000
v -0.06085506 -0.00882693 -0.00060475 0.54509804 0.71372549 0.60000000
v -0.06081906 -0.00877886 0.00060437 0.54509804 0.71372549 0.60000000
v -0.06127506 -0.00424408 -0.00060475 0.54509804 0.71372549 0.60000000
v -0.06125106 -0.00545589 0.00060437 0.54509804 0.71372549 0.60000000
v -0.06126306 -0.00181845 -0.00060475 0.54509804 0.71372549 0.60000000
v -0.06125106 0.00424462 -0.00181827 0.54509804 0.71372549 0.60000000
v -0.06121506 0.00424462 -0.00060475 0.54509804 0.71372549 0.60000000
v -0.06113106 0.00424462 0.00181789 0.54509804 0.71372549 0.60000000
v -0.06115506 0.00545643 -0.00060475 0.54509804 0.71372549 0.60000000
v -0.06105906 0.00666825 -0.00060475 0.54509804 0.71372549 0.60000000
v -0.06083106 0.00788206 0.00181789 0.54509804 0.71372549 0.60000000
v -0.06069906 0.00863719 0.00181789 0.54509804 0.71372549 0.60000000
v -0.06068706 0.00857510 0.00090115 0.54509804 0.71372549 0.60000000
v -0.05850305 0.00856709 -0.00383200 0.54509804 0.71372549 0.60000000
v -0.06061506 0.00844090 0.00009434 0.54509804 0.71372549 0.60000000
v -0.06025506 0.00902577 0.00054062 0.54509804 0.71372549 0.60000000
v -0.05955905 0.00980694 0.00060437 0.54509804 0.71372549 0.60000000
v -0.05881505 0.00995917 0.00060437 0.54509804 0.71372549 0.60000000
v -0.05881505 0.00982697 -0.00039370 0.54509804 0.71372549 0.60000000
v -0.05881505 0.00961265 -0.00100046 0.54509804 0.71372549 0.60000000
v -0.05396702 0.00957660 -0.00199634 0.54509804 0.71372549 0.60000000
v -0.05517903 0.00975286 -0.00138958 0.54509804 0.71372549 0.60000000
v 0.05274949 0.01014745 -0.00181827 0.54509804 0.71372549 0.60000000
v 0.05388949 0.00994515 -0.00181827 0.54509804 0.71372549 0.60000000
v 0.05390149 0.00996718 -0.00060475 0.54509804 0.71372549 0.60000000
v -0.05760304 0.00863118 -0.00395731 0.54509804 0.71372549 0.60000000
v -0.05639104 0.00909788 -0.00303178 0.54509804 0.71372549 0.60000000
v -0.05517903 0.00913994 -0.00303178 0.54509804 0.71372549 0.60000000
v -0.05396702 0.00915597 -0.00303178 0.54509804 0.71372549 0.60000000
v -0.05153101 0.00918201 -0.00303178 0.54509804 0.71372549 0.60000000
v -0.05517903 0.00956658 -0.00199634 0.54509804 0.71372549 0.60000000
v 0.06075352 0.00388208 0.00141118 0.54509804 0.71372549 0.60000000
v 0.05481350 0.00873534 0.00303140 0.54509804 0.71372549 0.60000000
v 0.06108953 0.00181899 0.00181789 0.54509804 0.71372549 0.60000000
v 0.05398549 0.00956258 0.00177612 0.54509804 0.71372549 0.60000000
v 0.05379349 0.00983899 0.00060437 0.54509804 0.71372549 0.60000000
v 0.06088553 0.00058915 0.00309955 0.54509804 0.71372549 0.60000000
v 0.06066953 0.00017453 0.00367993 0.54509804 0.71372549 0.60000000
v 0.06069352 -0.00060463 0.00370191 0.54509804 0.71372549 0.60000000
v 0.06066953 -0.00156607 0.00367993 0.54509804 0.71372549 0.60000000
v 0.06084953 -0.00190858 0.00314352 0.54509804 0.71372549 0.60000000
v 0.06080152 -0.00303026 0.00281156 0.54509804 0.71372549 0.60000000
v 0.06062153 -0.00237328 0.00362497 0.54509804 0.71372549 0.60000000
v 0.05478950 -0.00523957 0.00761946 0.54509804 0.71372549 0.60000000
v 0.05459750 -0.00730065 0.00608498 0.54509804 0.71372549 0.60000000
v 0.05396149 -0.00791356 0.00553098 0.54509804 0.71372549 0.60000000
v 0.05396149 -0.00855052 0.00492422 0.54509804 0.71372549 0.60000000
v 0.05396149 -0.00888902 0.00424272 0.54509804 0.71372549 0.60000000
v 0.05396149 -0.00941782 0.00303140 0.54509804 0.71372549 0.60000000
v -0.05396702 -0.00947390 0.00548481 0.54509804 0.71372549 0.60000000
v -0.05639104 -0.00972828 0.00491543 0.54509804 0.71372549 0.60000000
v -0.05760304 -0.00973629 0.00492422 0.54509804 0.71372549 0.60000000
v -0.05760304 -0.00995862 0.00424272 0.54509804 0.71372549 0.60000000
v -0.05639104 -0.01021100 0.00303140 0.54509804 0.71372549 0.60000000
v -0.05639104 -0.01024305 0.00181789 0.54509804 0.71372549 0.60000000
v -0.05760304 -0.01015892 0.00060437 0.54509804 0.71372549 0.60000000
v -0.05881505 -0.01008882 0.00060437 0.54509804 0.71372549 0.60000000
v -0.05973905 -0.00987450 -0.00060475 0.54509804 0.71372549 0.60000000
v -0.05760304 -0.01017495 0.00181789 0.54509804 0.71372549 0.60000000
v -0.06033906 -0.00943384 -0.00060475 0.54509804 0.71372549 0.60000000
v -0.06031506 -0.00911136 -0.00191499 0.54509804 0.71372549 0.60000000
v -0.06101107 -0.00666970 0.00303140 0.54509804 0.71372549 0.60000000
v -0.06114306 -0.00666970 0.00181789 0.54509804 0.71372549 0.60000000
v -0.06073506 -0.00867070 0.00181789 0.54509804 0.71372549 0.60000000
v -0.06067506 -0.00856654 0.00269724 0.54509804 0.71372549 0.60000000
v -0.06061506 -0.00841431 0.00350625 0.54509804 0.71372549 0.60000000
v -0.06066306 -0.00739679 0.00510229 0.54509804 0.71372549 0.60000000
v -0.06061506 -0.00710435 0.00591130 0.54509804 0.71372549 0.60000000
v -0.06099907 0.00060518 0.00909458 0.54509804 0.71372549 0.60000000
v -0.06117906 -0.00424408 0.00303140 0.54509804 0.71372549 0.60000000
v -0.06031506 -0.00938376 0.00060437 0.54509804 0.71372549 0.60000000
v -0.06029106 -0.00927761 0.00181789 0.54509804 0.71372549 0.60000000
v -0.06032706 -0.00902122 0.00307317 0.54509804 0.71372549 0.60000000
v -0.06108306 -0.00060463 0.00666975 0.54509804 0.71372549 0.60000000
v -0.06123906 0.00181899 -0.00060475 0.54509804 0.71372549 0.60000000
v -0.06115506 0.00181899 0.00303140 0.54509804 0.71372549 0.60000000
v -0.06109506 0.00181899 0.00545623 0.54509804 0.71372549 0.60000000
v -0.06105906 0.00181899 0.00666975 0.54509804 0.71372549 0.60000000
v -0.06099907 0.00303081 0.00666975 0.54509804 0.71372549 0.60000000
v -0.06102307 0.00424462 0.00424272 0.54509804 0.71372549 0.60000000
v -0.06078306 0.00788206 0.00303140 0.54509804 0.71372549 0.60000000
v -0.06068706 0.00862517 0.00303140 0.54509804 0.71372549 0.60000000
v -0.06019506 0.00924210 0.00181789 0.54509804 0.71372549 0.60000000
v -0.05802304 0.00968276 -0.00115435 0.54509804 0.71372549 0.60000000
v -0.05760304 0.00900975 -0.00303178 0.54509804 0.71372549 0.60000000
v -0.05959505 0.00979092 0.00181789 0.54509804 0.71372549 0.60000000
v -0.05881505 0.00991911 0.00181789 0.54509804 0.71372549 0.60000000
v -0.05760304 0.00998120 0.00181789 0.54509804 0.71372549 0.60000000
v -0.05760304 0.01000924 0.00060437 0.54509804 0.71372549 0.60000000
v -0.05761504 0.00983498 -0.00069269 0.54509804 0.71372549 0.60000000
v -0.05721904 0.00972282 -0.00127086 0.54509804 0.71372549 0.60000000
v -0.05639104 0.00974485 -0.00134341 0.54509804 0.71372549 0.60000000
v -0.05639104 0.00989107 -0.00060475 0.54509804 0.71372549 0.60000000
v 0.05274949 0.01019352 -0.00060475 0.54509804 0.71372549 0.60000000
v -0.05639104 0.00953253 -0.00195017 0.54509804 0.71372549 0.60000000
v 0.05469350 0.00629369 0.00623227 0.54509804 0.71372549 0.60000000
v 0.06068153 0.00252405 0.00248840 0.54509804 0.71372549 0.60000000
v 0.06078952 0.00181899 0.00271263 0.54509804 0.71372549 0.60000000
v 0.06083753 0.00297072 0.00181569 0.54509804 0.71372549 0.60000000
v 0.05462150 0.00853504 0.00370631 0.54509804 0.71372549 0.60000000
v 0.05469350 0.00742538 0.00507371 0.54509804 0.71372549 0.60000000
v 0.05396149 0.00906984 0.00303140 0.54509804 0.71372549 0.60000000
v 0.05358949 0.00973684 0.00134523 0.54509804 0.71372549 0.60000000
v 0.05274949 0.00957660 0.00196518 0.54509804 0.71372549 0.60000000
v 0.06054953 0.00098374 0.00355022 0.54509804 0.71372549 0.60000000
v 0.05504150 0.00060518 0.00873185 0.54509804 0.71372549 0.60000000
v 0.05507750 -0.00060463 0.00878241 0.54509804 0.71372549 0.60000000
v 0.05492150 -0.00181845 0.00872525 0.54509804 0.71372549 0.60000000
v 0.05476550 -0.00303026 0.00862193 0.54509804 0.71372549 0.60000000
v 0.05464550 -0.00386952 0.00854279 0.54509804 0.71372549 0.60000000
v 0.05396149 -0.00457858 0.00838890 0.54509804 0.71372549 0.60000000
v 0.05396149 -0.00542985 0.00778434 0.54509804 0.71372549 0.60000000
v 0.05396149 -0.00603676 0.00725013 0.54509804 0.71372549 0.60000000
v -0.04062296 -0.00626109 0.00984863 0.54509804 0.71372549 0.60000000
v -0.04062296 -0.00686800 0.00918911 0.54509804 0.71372549 0.60000000
v -0.04183497 -0.00687802 0.00920670 0.54509804 0.71372549 0.60000000
v -0.04547098 -0.00739279 0.00864611 0.54509804 0.71372549 0.60000000
v -0.05083501 -0.00849043 0.00727871 0.54509804 0.71372549 0.60000000
v -0.05153101 -0.00885898 0.00666975 0.54509804 0.71372549 0.60000000
v -0.05275502 -0.00887300 0.00666975 0.54509804 0.71372549 0.60000000
v -0.05517903 -0.00947390 0.00550680 0.54509804 0.71372549 0.60000000
v -0.05881505 -0.00972828 0.00490444 0.54509804 0.71372549 0.60000000
v -0.05639104 -0.00945587 0.00552219 0.54509804 0.71372549 0.60000000
v -0.05881505 -0.00991656 0.00424272 0.54509804 0.71372549 0.60000000
v -0.05760304 -0.01015892 0.00303140 0.54509804 0.71372549 0.60000000
v -0.05881505 -0.01007680 0.00303140 0.54509804 0.71372549 0.60000000
v -0.05971505 -0.00987250 0.00060437 0.54509804 0.71372549 0.60000000
v -0.05966705 -0.00986649 0.00303140 0.54509804 0.71372549 0.60000000
v -0.06086706 -0.00666970 0.00424272 0.54509804 0.71372549 0.60000000
v -0.06096305 -0.00303026 0.00666975 0.54509804 0.71372549 0.60000000
v -0.06008705 -0.00909533 0.00424272 0.54509804 0.71372549 0.60000000
v -0.06055506 -0.00822002 0.00424272 0.54509804 0.71372549 0.60000000
v -0.06047106 -0.00783344 0.00548701 0.54509804 0.71372549 0.60000000
v -0.06056706 -0.00668773 0.00667195 0.54509804 0.71372549 0.60000000
v -0.06066306 -0.00629514 0.00626964 0.54509804 0.71372549 0.60000000
v -0.06101107 0.00181899 0.00788107 0.54509804 0.71372549 0.60000000
v -0.06104706 0.00060518 0.00788107 0.54509804 0.71372549 0.60000000
v -0.06093905 -0.00181845 0.00788107 0.54509804 0.71372549 0.60000000
v -0.06090305 -0.00060463 0.00909458 0.54509804 0.71372549 0.60000000
v -0.06079506 0.00060518 0.01000692 0.54509804 0.71372549 0.60000000
v -0.06077106 0.00181899 0.00995416 0.54509804 0.71372549 0.60000000
v -0.06095105 0.00181899 0.00909458 0.54509804 0.71372549 0.60000000
v -0.05954705 -0.00979037 0.00424272 0.54509804 0.71372549 0.60000000
v -0.06096305 0.00424462 0.00545623 0.54509804 0.71372549 0.60000000
v -0.06092705 0.00303081 0.00788107 0.54509804 0.71372549 0.60000000
v -0.06089106 0.00424462 0.00666975 0.54509804 0.71372549 0.60000000
v -0.06069906 0.00788807 0.00422293 0.54509804 0.71372549 0.60000000
v -0.06065106 0.00856108 0.00380524 0.54509804 0.71372549 0.60000000
v -0.05996705 0.00931621 0.00309296 0.54509804 0.71372549 0.60000000
v -0.05761504 0.00950850 -0.00173253 0.54509804 0.71372549 0.60000000
v -0.05953505 0.00974485 0.00273022 0.54509804 0.71372549 0.60000000
v -0.05881505 0.00978491 0.00295666 0.54509804 0.71372549 0.60000000
v -0.05772304 0.00980894 0.00315231 0.54509804 0.71372549 0.60000000
v -0.05639104 0.00987504 0.00303140 0.54509804 0.71372549 0.60000000
v -0.05639104 0.01001125 0.00181789 0.54509804 0.71372549 0.60000000
v 0.05274949 0.00994715 0.00060437 0.54509804 0.71372549 0.60000000
v -0.05517903 0.01001325 0.00181789 0.54509804 0.71372549 0.60000000
v -0.05517903 0.00987504 0.00303140 0.54509804 0.71372549 0.60000000
v 0.05396149 0.00708888 0.00585854 0.54509804 0.71372549 0.60000000
v 0.05396149 0.00648197 0.00639715 0.54509804 0.71372549 0.60000000
v 0.05408149 0.00544642 0.00705447 0.54509804 0.71372549 0.60000000
v 0.05456150 0.00484352 0.00726991 0.54509804 0.71372549 0.60000000
v 0.06029752 0.00181899 0.00331719 0.54509804 0.71372549 0.60000000
v 0.05396149 0.00860915 0.00380744 0.54509804 0.71372549 0.60000000
v 0.05396149 0.00755758 0.00525178 0.54509804 0.71372549 0.60000000
v 0.05274949 0.00914395 0.00303140 0.54509804 0.71372549 0.60000000
v 0.05274949 0.00866323 0.00388438 0.54509804 0.71372549 0.60000000
v -0.05639104 0.00972081 0.00370191 0.54509804 0.71372549 0.60000000
v -0.05639104 0.00953453 0.00430867 0.54509804 0.71372549 0.60000000
v -0.05760304 0.00915196 0.00545623 0.54509804 0.71372549 0.60000000
v 0.05480150 0.00149851 0.00861094 0.54509804 0.71372549 0.60000000
v 0.05396149 0.00060518 0.00897147 0.54509804 0.71372549 0.60000000
v 0.05396149 -0.00060463 0.00907040 0.54509804 0.71372549 0.60000000
v 0.05396149 -0.00181845 0.00899785 0.54509804 0.71372549 0.60000000
v 0.05396149 -0.00303026 0.00879560 0.54509804 0.71372549 0.60000000
v 0.05396149 -0.00397167 0.00857576 0.54509804 0.71372549 0.60000000
v -0.04183497 -0.00545589 0.01016081 0.54509804 0.71372549 0.60000000
v -0.04183497 -0.00627311 0.00985963 0.54509804 0.71372549 0.60000000
v -0.04304697 -0.00687000 0.00922429 0.54509804 0.71372549 0.60000000
v -0.04668299 -0.00740280 0.00865270 0.54509804 0.71372549 0.60000000
v -0.05153101 -0.00849443 0.00728530 0.54509804 0.71372549 0.60000000
v -0.05396702 -0.00888302 0.00666975 0.54509804 0.71372549 0.60000000
v -0.05517903 -0.00888502 0.00666975 0.54509804 0.71372549 0.60000000
v -0.05881505 -0.00940379 0.00551119 0.54509804 0.71372549 0.60000000
v -0.05943905 -0.00971226 0.00486926 0.54509804 0.71372549 0.60000000
v -0.05760304 -0.00942983 0.00553098 0.54509804 0.71372549 0.60000000
v -0.05639104 -0.00886899 0.00666975 0.54509804 0.71372549 0.60000000
v -0.05766304 -0.00876484 0.00678627 0.54509804 0.71372549 0.60000000
v -0.06060306 -0.00457257 0.00823941 0.54509804 0.71372549 0.60000000
v -0.05976305 -0.00909133 0.00534631 0.54509804 0.71372549 0.60000000
v -0.05999105 -0.00798968 0.00676648 0.54509804 0.71372549 0.60000000
v -0.06051906 -0.00544387 0.00785469 0.54509804 0.71372549 0.60000000
v -0.06001506 -0.00678388 0.00799978 0.54509804 0.71372549 0.60000000
v -0.06065106 -0.00376336 0.00852520 0.54509804 0.71372549 0.60000000
v -0.06066306 -0.00134173 0.00975410 0.54509804 0.71372549 0.60000000
v -0.06072306 -0.00060463 0.00987941 0.54509804 0.71372549 0.60000000
v -0.06026705 -0.00060463 0.01048617 0.54509804 0.71372549 0.60000000
v -0.06032706 0.00060518 0.01061368 0.54509804 0.71372549 0.60000000
v -0.06030306 0.00181899 0.01056092 0.54509804 0.71372549 0.60000000
v -0.06069906 0.00275039 0.00981566 0.54509804 0.71372549 0.60000000
v -0.06077106 0.00310492 0.00916493 0.54509804 0.71372549 0.60000000
v -0.06075906 0.00433476 0.00796900 0.54509804 0.71372549 0.60000000
v -0.06072306 0.00670831 0.00548701 0.54509804 0.71372549 0.60000000
v -0.06066306 0.00748747 0.00510229 0.54509804 0.71372549 0.60000000
v -0.06057906 0.00829468 0.00461425 0.54509804 0.71372549 0.60000000
v -0.06011106 0.00892362 0.00422293 0.54509804 0.71372549 0.60000000
v -0.05975105 0.00873133 0.00545623 0.54509804 0.71372549 0.60000000
v -0.05881505 0.00950449 0.00424272 0.54509804 0.71372549 0.60000000
v -0.05881505 0.00969077 0.00356341 0.54509804 0.71372549 0.60000000
v -0.05820304 0.00970078 0.00363596 0.54509804 0.71372549 0.60000000
v -0.05739904 0.00971480 0.00368433 0.54509804 0.71372549 0.60000000
v 0.05274949 0.00715898 0.00592669 0.54509804 0.71372549 0.60000000
v 0.05274949 0.00655408 0.00646750 0.54509804 0.71372549 0.60000000
v 0.05274949 0.00572884 0.00707426 0.54509804 0.71372549 0.60000000
v 0.05374549 0.00503581 0.00737983 0.54509804 0.71372549 0.60000000
v 0.05408149 0.00436080 0.00761286 0.54509804 0.71372549 0.60000000
v 0.05438150 0.00230772 0.00843506 0.54509804 0.71372549 0.60000000
v 0.05274949 0.00822858 0.00449114 0.54509804 0.71372549 0.60000000
v 0.05274949 0.00762368 0.00531993 0.54509804 0.71372549 0.60000000
v -0.05639104 0.00913994 0.00545623 0.54509804 0.71372549 0.60000000
v -0.03819895 0.00858712 0.00619929 0.54509804 0.71372549 0.60000000
v -0.03577494 0.00857109 0.00617731 0.54509804 0.71372549 0.60000000
v 0.05153748 0.00824460 0.00450213 0.54509804 0.71372549 0.60000000
v -0.03335093 0.00855106 0.00615093 0.54509804 0.71372549 0.60000000
v -0.02970291 0.00852102 0.00610916 0.54509804 0.71372549 0.60000000
v -0.02727890 0.00850099 0.00608058 0.54509804 0.71372549 0.60000000
v -0.02557489 0.00848697 0.00605860 0.54509804 0.71372549 0.60000000
v -0.05772304 0.00957059 0.00415039 0.54509804 0.71372549 0.60000000
v -0.05881505 0.00906583 0.00545623 0.54509804 0.71372549 0.60000000
v -0.05760304 0.00870930 0.00636417 0.54509804 0.71372549 0.60000000
v 0.05356549 0.00255209 0.00854059 0.54509804 0.71372549 0.60000000
v 0.05397349 0.00186907 0.00867249 0.54509804 0.71372549 0.60000000
v 0.05274949 0.00269030 0.00856477 0.54509804 0.71372549 0.60000000
v 0.05274949 0.00181899 0.00875823 0.54509804 0.71372549 0.60000000
v -0.02849090 0.00303081 0.01046858 0.54509804 0.71372549 0.60000000
v -0.04232697 0.00243191 0.01091706 0.54509804 0.71372549 0.60000000
v -0.03212692 0.00060518 0.01075657 0.54509804 0.71372549 0.60000000
v -0.04425898 -0.00060463 0.01098521 0.54509804 0.71372549 0.60000000
v -0.05760304 -0.00181845 0.01122923 0.54509804 0.71372549 0.60000000
v -0.05639104 -0.00181845 0.01120505 0.54509804 0.71372549 0.60000000
v -0.02849090 0.00181899 0.01066204 0.54509804 0.71372549 0.60000000
v -0.03212692 0.00181899 0.01073459 0.54509804 0.71372549 0.60000000
v -0.04099496 0.00138635 0.01091925 0.54509804 0.71372549 0.60000000
v -0.05275502 -0.00292010 0.01100719 0.54509804 0.71372549 0.60000000
v -0.05402703 -0.00312640 0.01100499 0.54509804 0.71372549 0.60000000
v -0.05448303 -0.00364117 0.01091706 0.54509804 0.71372549 0.60000000
v -0.04304697 -0.00545589 0.01016960 0.54509804 0.71372549 0.60000000
v -0.04304697 -0.00626310 0.00985083 0.54509804 0.71372549 0.60000000
v -0.05275502 -0.00742083 0.00862852 0.54509804 0.71372549 0.60000000
v -0.05153101 -0.00741882 0.00863512 0.54509804 0.71372549 0.60000000
v -0.04910700 -0.00741282 0.00864611 0.54509804 0.71372549 0.60000000
v -0.04789500 -0.00740881 0.00865051 0.54509804 0.71372549 0.60000000
v -0.05471103 -0.00364117 0.01091706 0.54509804 0.71372549 0.60000000
v -0.05275502 -0.00802774 0.00789865 0.54509804 0.71372549 0.60000000
v -0.05153101 -0.00802573 0.00789206 0.54509804 0.71372549 0.60000000
v -0.05275502 -0.00850044 0.00729190 0.54509804 0.71372549 0.60000000
v -0.05396702 -0.00850445 0.00729629 0.54509804 0.71372549 0.60000000
v -0.05517903 -0.00850645 0.00730069 0.54509804 0.71372549 0.60000000
v -0.05639104 -0.00850845 0.00730289 0.54509804 0.71372549 0.60000000
v -0.05729104 -0.00850245 0.00729410 0.54509804 0.71372549 0.60000000
v -0.05881505 -0.00879689 0.00663238 0.54509804 0.71372549 0.60000000
v -0.05965505 -0.00868472 0.00642573 0.54509804 0.71372549 0.60000000
v -0.05881505 -0.00846840 0.00723914 0.54509804 0.71372549 0.60000000
v -0.05810704 -0.00848442 0.00726771 0.54509804 0.71372549 0.60000000
v -0.06033906 -0.00419801 0.00899565 0.54509804 0.71372549 0.60000000
v -0.05975105 -0.00765718 0.00767222 0.54509804 0.71372549 0.60000000
v -0.05969105 -0.00645739 0.00873185 0.54509804 0.71372549 0.60000000
v -0.05987105 -0.00542184 0.00911877 0.54509804 0.71372549 0.60000000
v -0.05982306 -0.00304028 0.01037185 0.54509804 0.71372549 0.60000000
v -0.05951105 -0.00264368 0.01099400 0.54509804 0.71372549 0.60000000
v -0.05959505 -0.00181845 0.01104456 0.54509804 0.71372549 0.60000000
v -0.05966705 -0.00060463 0.01106215 0.54509804 0.71372549 0.60000000
v -0.05972705 0.00060518 0.01107534 0.54509804 0.71372549 0.60000000
v -0.05970305 0.00181899 0.01107754 0.54509804 0.71372549 0.60000000
v -0.05958305 0.00266426 0.01102258 0.54509804 0.71372549 0.60000000
v -0.06009906 0.00311093 0.01032349 0.54509804 0.71372549 0.60000000
v -0.06061506 0.00355960 0.00961560 0.54509804 0.71372549 0.60000000
v -0.06062706 0.00479945 0.00843067 0.54509804 0.71372549 0.60000000
v -0.06068706 0.00515999 0.00762166 0.54509804 0.71372549 0.60000000
v -0.06067506 0.00633174 0.00636197 0.54509804 0.71372549 0.60000000
v -0.06060306 0.00713895 0.00590910 0.54509804 0.71372549 0.60000000
v -0.06051906 0.00670831 0.00672691 0.54509804 0.71372549 0.60000000
v -0.06000306 0.00674436 0.00794042 0.54509804 0.71372549 0.60000000
v -0.05967905 0.00749548 0.00757329 0.54509804 0.71372549 0.60000000
v -0.05985905 0.00789208 0.00660819 0.54509804 0.71372549 0.60000000
v -0.05951105 0.00854906 0.00616192 0.54509804 0.71372549 0.60000000
v -0.03577494 0.00807034 0.00678407 0.54509804 0.71372549 0.60000000
v -0.04304697 0.00753354 0.00757989 0.54509804 0.71372549 0.60000000
v -0.05275502 0.00710690 0.00828997 0.54509804 0.71372549 0.60000000
v -0.05517903 0.00652403 0.00892750 0.54509804 0.71372549 0.60000000
v -0.05396702 0.00651201 0.00891212 0.54509804 0.71372549 0.60000000
v -0.05153101 0.00648597 0.00887914 0.54509804 0.71372549 0.60000000
v -0.05517903 0.00576690 0.00953426 0.54509804 0.71372549 0.60000000
v 0.05274949 0.00512193 0.00743699 0.54509804 0.71372549 0.60000000
v -0.04668299 0.00564872 0.00941775 0.54509804 0.71372549 0.60000000
v -0.04425898 0.00500175 0.00979367 0.54509804 0.71372549 0.60000000
v -0.04183497 0.00495569 0.00976729 0.54509804 0.71372549 0.60000000
v -0.02970291 0.00411843 0.01001132 0.54509804 0.71372549 0.60000000
v -0.02485489 0.00402630 0.00995196 0.54509804 0.71372549 0.60000000
v 0.05274949 0.00424462 0.00791624 0.54509804 0.71372549 0.60000000
v 0.05274949 0.00329720 0.00836252 0.54509804 0.71372549 0.60000000
v 0.05397349 0.00298674 0.00824600 0.54509804 0.71372549 0.60000000
v -0.04183497 0.00860915 0.00623227 0.54509804 0.71372549 0.60000000
v -0.05275502 0.00821055 0.00693136 0.54509804 0.71372549 0.60000000
v -0.04910700 0.00818652 0.00690058 0.54509804 0.71372549 0.60000000
v -0.04789500 0.00817851 0.00688959 0.54509804 0.71372549 0.60000000
v -0.04547098 0.00816048 0.00686980 0.54509804 0.71372549 0.60000000
v -0.04183497 0.00812843 0.00683903 0.54509804 0.71372549 0.60000000
v -0.03819895 0.00809438 0.00680605 0.54509804 0.71372549 0.60000000
v -0.05881505 0.00864520 0.00628943 0.54509804 0.71372549 0.60000000
v -0.05881505 0.00822858 0.00689619 0.54509804 0.71372549 0.60000000
v -0.05881505 0.00762167 0.00772498 0.54509804 0.71372549 0.60000000
v -0.05881505 0.00715698 0.00833174 0.54509804 0.71372549 0.60000000
v -0.05760304 0.00824260 0.00697093 0.54509804 0.71372549 0.60000000
v -0.04668299 0.00863920 0.00627404 0.54509804 0.71372549 0.60000000
v 0.05153748 0.00333326 0.00840868 0.54509804 0.71372549 0.60000000
v -0.00787480 0.00369179 0.00973212 0.54509804 0.71372549 0.60000000
v -0.00908681 0.00372184 0.00974971 0.54509804 0.71372549 0.60000000
v -0.01029882 0.00374788 0.00976509 0.54509804 0.71372549 0.60000000
v -0.03091491 0.00303081 0.01052134 0.54509804 0.71372549 0.60000000
v -0.04547098 0.00252204 0.01094783 0.54509804 0.71372549 0.60000000
v -0.05881505 0.00181899 0.01123582 0.54509804 0.71372549 0.60000000
v -0.05760304 0.00181899 0.01121824 0.54509804 0.71372549 0.60000000
v -0.05639104 0.00181899 0.01119845 0.54509804 0.71372549 0.60000000
v -0.05396702 0.00181899 0.01115448 0.54509804 0.71372549 0.60000000
v -0.04151097 0.00219556 0.01090826 0.54509804 0.71372549 0.60000000
v -0.03456293 0.00181899 0.01078295 0.54509804 0.71372549 0.60000000
v -0.03941095 0.00060518 0.01089507 0.54509804 0.71372549 0.60000000
v -0.04085096 0.00060518 0.01092145 0.54509804 0.71372549 0.60000000
v -0.05275502 0.00060518 0.01113909 0.54509804 0.71372549 0.60000000
v -0.05760304 0.00060518 0.01122703 0.54509804 0.71372549 0.60000000
v -0.05881505 0.00060518 0.01123582 0.54509804 0.71372549 0.60000000
v -0.05881505 -0.00060463 0.01122483 0.54509804 0.71372549 0.60000000
v -0.05881505 -0.00181845 0.01120724 0.54509804 0.71372549 0.60000000
v -0.05760304 -0.00290207 0.01107094 0.54509804 0.71372549 0.60000000
v -0.05639104 -0.00296616 0.01105775 0.54509804 0.71372549 0.60000000
v -0.05514303 -0.00314243 0.01101818 0.54509804 0.71372549 0.60000000
v -0.03941095 0.00181899 0.01087748 0.54509804 0.71372549 0.60000000
v -0.04188297 0.00180297 0.01092585 0.54509804 0.71372549 0.60000000
v -0.05153101 0.00181899 0.01110832 0.54509804 0.71372549 0.60000000
v -0.05552703 -0.00362114 0.01090826 0.54509804 0.71372549 0.60000000
v -0.04425898 -0.00623906 0.00983105 0.54509804 0.71372549 0.60000000
v -0.05396702 -0.00741081 0.00861094 0.54509804 0.71372549 0.60000000
v -0.05031901 -0.00741682 0.00863951 0.54509804 0.71372549 0.60000000
v -0.05517903 -0.00738678 0.00858236 0.54509804 0.71372549 0.60000000
v -0.05766304 -0.00803775 0.00777115 0.54509804 0.71372549 0.60000000
v -0.05928305 -0.00726459 0.00848123 0.54509804 0.71372549 0.60000000
v -0.05885105 -0.00775533 0.00799978 0.54509804 0.71372549 0.60000000
v -0.05952305 -0.00499320 0.00978928 0.54509804 0.71372549 0.60000000
v -0.05967905 -0.00424408 0.00999813 0.54509804 0.71372549 0.60000000
v -0.05881505 -0.00342084 0.01080933 0.54509804 0.71372549 0.60000000
v -0.05881505 -0.00281394 0.01105556 0.54509804 0.71372549 0.60000000
v -0.05961905 0.00508788 0.00982005 0.54509804 0.71372549 0.60000000
v -0.05985905 0.00424462 0.01003330 0.54509804 0.71372549 0.60000000
v -0.05881505 0.00277643 0.01107314 0.54509804 0.71372549 0.60000000
v -0.05881505 0.00338333 0.01078735 0.54509804 0.71372549 0.60000000
v -0.06056706 0.00552053 0.00796900 0.54509804 0.71372549 0.60000000
v -0.05996705 0.00547847 0.00916054 0.54509804 0.71372549 0.60000000
v -0.05973905 0.00638983 0.00880220 0.54509804 0.71372549 0.60000000
v -0.06049506 0.00433476 0.00916493 0.54509804 0.71372549 0.60000000
v -0.06061506 0.00596920 0.00717098 0.54509804 0.71372549 0.60000000
v -0.04668299 0.00756359 0.00761946 0.54509804 0.71372549 0.60000000
v -0.05396702 0.00711892 0.00830096 0.54509804 0.71372549 0.60000000
v -0.05639104 0.00653405 0.00893850 0.54509804 0.71372549 0.60000000
v -0.05760304 0.00579694 0.00955405 0.54509804 0.71372549 0.60000000
v -0.05639104 0.00578292 0.00954525 0.54509804 0.71372549 0.60000000
v -0.04547098 0.00502379 0.00980686 0.54509804 0.71372549 0.60000000
v 0.05153748 0.00424462 0.00795801 0.54509804 0.71372549 0.60000000
v -0.01151082 0.00377191 0.00978048 0.54509804 0.71372549 0.60000000
v -0.03091491 0.00414047 0.01002451 0.54509804 0.71372549 0.60000000
v -0.02606689 0.00404833 0.00996735 0.54509804 0.71372549 0.60000000
v -0.05760304 0.00763770 0.00772498 0.54509804 0.71372549 0.60000000
v -0.05760304 0.00714897 0.00833174 0.54509804 0.71372549 0.60000000
v -0.05881505 0.00655007 0.00895389 0.54509804 0.71372549 0.60000000
v -0.03212692 0.00303081 0.01054333 0.54509804 0.71372549 0.60000000
v -0.03456293 0.00303081 0.01058730 0.54509804 0.71372549 0.60000000
v -0.04789500 0.00258213 0.01097202 0.54509804 0.71372549 0.60000000
v -0.05153101 0.00266025 0.01100719 0.54509804 0.71372549 0.60000000
v -0.05396702 0.00270632 0.01103137 0.54509804 0.71372549 0.60000000
v -0.05517903 0.00272635 0.01104236 0.54509804 0.71372549 0.60000000
v -0.05639104 0.00274438 0.01105336 0.54509804 0.71372549 0.60000000
v -0.05639104 -0.00357307 0.01089287 0.54509804 0.71372549 0.60000000
v -0.05760304 -0.00424408 0.01043561 0.54509804 0.71372549 0.60000000
v -0.05639104 -0.00424408 0.01049496 0.54509804 0.71372549 0.60000000
v -0.05031901 -0.00542985 0.01005748 0.54509804 0.71372549 0.60000000
v -0.04668299 -0.00617296 0.00977389 0.54509804 0.71372549 0.60000000
v -0.04547098 -0.00620902 0.00980247 0.54509804 0.71372549 0.60000000
v -0.05639104 -0.00735673 0.00855378 0.54509804 0.71372549 0.60000000
v -0.05760304 -0.00732268 0.00852300 0.54509804 0.71372549 0.60000000
v -0.05881505 -0.00569625 0.00947491 0.54509804 0.71372549 0.60000000
v -0.05881505 -0.00509134 0.00984863 0.54509804 0.71372549 0.60000000
v -0.05847905 -0.00729464 0.00850102 0.54509804 0.71372549 0.60000000
v -0.04789500 -0.00613090 0.00974311 0.54509804 0.71372549 0.60000000
v -0.05517903 -0.00666970 0.00905281 0.54509804 0.71372549 0.60000000
v -0.05760304 -0.00666970 0.00893410 0.54509804 0.71372549 0.60000000
v -0.05881505 -0.00424408 0.01034987 0.54509804 0.71372549 0.60000000
v -0.05760304 -0.00350697 0.01086210 0.54509804 0.71372549 0.60000000
v -0.05881505 0.00424462 0.01035646 0.54509804 0.71372549 0.60000000
v -0.05881505 0.00520205 0.00987721 0.54509804 0.71372549 0.60000000
v -0.05881505 0.00580896 0.00956064 0.54509804 0.71372549 0.60000000
v -0.05031901 0.00324312 0.01074558 0.54509804 0.71372549 0.60000000
v -0.05517903 0.00333326 0.01076976 0.54509804 0.71372549 0.60000000
v -0.05275502 0.00424462 0.01029711 0.54509804 0.71372549 0.60000000
v -0.05760304 0.00424462 0.01034547 0.54509804 0.71372549 0.60000000
v -0.04668299 0.00424462 0.01023555 0.54509804 0.71372549 0.60000000
v -0.05760304 0.00654206 0.00894729 0.54509804 0.71372549 0.60000000
v -0.05760304 0.00519004 0.00987062 0.54509804 0.71372549 0.60000000
v -0.05517903 0.00515999 0.00985963 0.54509804 0.71372549 0.60000000
v -0.04668299 0.00504181 0.00981566 0.54509804 0.71372549 0.60000000
v -0.04547098 0.00424462 0.01022016 0.54509804 0.71372549 0.60000000
v -0.03941095 0.00424462 0.01012123 0.54509804 0.71372549 0.60000000
v -0.03698694 0.00424462 0.01007947 0.54509804 0.71372549 0.60000000
v -0.03456293 0.00421057 0.01005528 0.54509804 0.71372549 0.60000000
v -0.03212692 0.00416450 0.01003550 0.54509804 0.71372549 0.60000000
v -0.03698694 0.00303081 0.01062687 0.54509804 0.71372549 0.60000000
v -0.04425898 0.00309490 0.01071480 0.54509804 0.71372549 0.60000000
v -0.04789500 0.00318904 0.01073239 0.54509804 0.71372549 0.60000000
v -0.04910700 0.00321708 0.01073898 0.54509804 0.71372549 0.60000000
v -0.05275502 -0.00533371 0.01000032 0.54509804 0.71372549 0.60000000
v -0.04887900 -0.00609284 0.00971893 0.54509804 0.71372549 0.60000000
v -0.04969501 -0.00606079 0.00969914 0.54509804 0.71372549 0.60000000
f 1 2 3
f 1 3 4
f 1 4 5
f 1 5 6
f 1 6 7
f 1 7 2
f 2 8 9
f 2 9 10
f 2 10 11
f 2 11 3
f 2 7 8
f 3 11 12
f 3 12 4
f 4 12 13
f 4 13 14
f 4 14 15
f 4 15 5
f 5 15 16
f 5 16 17
f 5 17 18
f 5 18 6
f 6 18 7
f 7 18 19
f 7 19 20
f 7 20 21
f 7 21 22
f 7 22 23
f 7 23 24
f 7 24 8
f 8 25 9
f 8 24 25
f 9 26 10
f 9 25 27
f 9 27 26
f 10 26 28
f 10 28 29
f 10 29 30
f 10 30 31
f 10 31 12
f 10 12 11
f 12 31 32
f 12 32 33
f 12 33 13
f 13 33 34
f 13 34 14
f 14 34 35
f 14 35 36
f 14 36 37
f 14 37 38
f 14 38 39
f 14 39 40
f 14 40 41
f 14 41 42
f 14 42 15
f 15 42 41
f 15 41 43
f 15 43 44
f 15 44 45
f 15 45 16
f 16 45 46
f 16 46 47
f 16 47 17
f 17 47 48
f 17 48 18
f 18 48 49
f 18 49 19
f 19 49 20
f 20 50 51
f 20 51 21
f 20 49 50
f 21 52 53
f 21 53 22
f 21 51 52
f 22 53 54
f 22 54 55
f 22 55 23
f 23 56 24
f 23 55 57
f 23 57 56
f 24 56 58
f 24 58 25
f 25 59 27
f 25 58 60
f 25 60 59
f 26 27 61
f 26 61 28
f 27 59 61
f 28 61 62
f 28 62 63
f 28 63 64
f 28 64 29
f 29 64 65
f 29 65 30
f 30 65 31
f 31 65 32
f 32 65 66
f 32 66 67
f 32 67 33
f 33 67 34
f 34 67 68
f 34 68 69
f 34 69 70
f 34 70 35
f 35 70 36
f 36 70 71
f 36 71 72
f 36 72 37
f 37 72 73
f 37 73 74
f 37 74 75
f 37 75 76
f 37 76 38
f 38 76 77
f 38 77 78
f 38 78 79
f 38 79 41
f 38 41 40
f 38 40 39
f 41 79 80
f 41 80 43
f 43 81 44
f 43 80 81
f 44 81 82
f 44 82 46
f 44 46 45
f 46 82 83
f 46 83 47
f 47 83 84
f 47 84 50
f 47 50 49
f 47 49 48
f 50 84 85
f 50 85 51
f 51 85 86
f 51 86 52
f 52 86 87
f 52 87 88
f 52 88 89
f 52 89 53
f 53 89 90
f 53 90 54
f 54 90 91
f 54 91 92
f 54 92 55
f 55 92 57
f 56 57 93
f 56 93 94
f 56 94 95
f 56 95 58
f 57 94 93
f 57 92 96
f 57 96 97
f 57 97 94
f 58 95 60
f 59 98 61
f 59 60 98
f 60 95 99
f 60 99 98
f 61 98 62
f 62 100 63
f 62 98 150
f 62 150 100
f 63 101 102
f 63 102 103
f 63 103 64
f 63 100 104
f 63 104 101
f 64 103 102
f 64 102 105
f 64 105 65
f 65 105 66
f 66 105 106
f 66 106 67
f 67 107 68
f 67 106 108
f 67 108 109
f 67 109 110
f 67 110 107
f 68 107 69
f 69 107 111
f 69 111 112
f 69 112 70
f 70 112 71
f 71 112 113
f 71 113 72
f 72 113 114
f 72 114 73
f 73 114 115
f 73 115 116
f 73 116 74
f 74 116 117
f 74 117 118
f 74 118 75
f 75 118 119
f 75 119 76
f 76 119 120
f 76 120 77
f 77 120 121
f 77 121 122
f 77 122 78
f 78 81 79
f 78 122 123
f 78 123 81
f 79 81 80
f 81 123 124
f 81 124 82
f 82 124 125
f 82 125 126
f 82 126 83
f 83 126 84
f 84 127 128
f 84 128 129
f 84 129 130
f 84 130 85
f 84 126 127
f 85 130 86
f 86 130 129
f 86 129 131
f 86 131 87
f 87 132 133
f 87 133 134
f 87 134 135
f 87 135 136
f 87 136 88
f 87 131 132
f 88 136 137
f 88 137 138
f 88 138 89
f 89 138 139
f 89 139 140
f 89 140 90
f 90 140 141
f 90 141 91
f 91 141 92
f 92 141 96
f 94 97 142
f 94 142 143
f 94 143 144
f 94 144 145
f 94 145 146
f 94 146 95
f 95 146 99
f 96 141 140
f 96 140 147
f 96 147 97
f 97 147 148
f 97 148 149
f 97 149 142
f 98 99 151
f 98 151 152
f 98 152 153
f 98 153 150
f 99 146 151
f 100 150 104
f 101 104 154
f 101 154 102
f 102 155 106
f 102 106 105
f 102 154 156
f 102 156 155
f 104 150 157
f 104 157 158
f 104 158 159
f 104 159 160
f 104 160 154
f 106 161 108
f 106 155 162
f 106 162 161
f 107 110 111
f 108 163 109
f 108 161 163
f 109 163 226
f 109 226 227
f 109 227 165
f 109 165 164
f 109 164 110
f 110 164 111
f 111 164 165
f 111 165 166
f 111 166 167
f 111 167 168
f 111 168 112
f 112 168 113
f 113 168 114
f 114 168 169
f 114 169 115
f 115 169 170
f 115 170 171
f 115 171 172
f 115 172 173
f 115 173 174
f 115 174 175
f 115 175 116
f 116 176 117
f 116 175 177
f 116 177 176
f 117 176 118
f 118 176 178
f 118 178 179
f 118 179 119
f 119 179 180
f 119 180 120
f 120 180 181
f 120 181 121
f 121 181 182
f 121 182 183
f 121 183 184
f 121 184 122
f 122 184 123
f 123 184 185
f 123 185 124
f 124 185 186
f 124 186 125
f 125 186 187
f 125 187 126
f 126 187 127
f 127 187 128
f 128 187 186
f 128 186 188
f 128 188 189
f 128 189 190
f 128 190 191
f 128 191 192
f 128 192 129
f 129 192 131
f 131 192 193
f 131 193 132
f 132 193 194
f 132 194 195
f 132 195 196
f 132 196 197
f 132 197 133
f 133 197 134
f 134 197 198
f 134 198 137
f 134 137 136
f 134 136 135
f 137 198 199
f 137 199 138
f 138 199 200
f 138 200 139
f 139 200 201
f 139 201 140
f 140 201 202
f 140 202 147
f 142 149 143
f 143 149 203
f 143 203 204
f 143 204 205
f 143 205 144
f 144 205 206
f 144 206 151
f 144 151 145
f 145 151 146
f 147 202 148
f 148 202 207
f 148 207 208
f 148 208 209
f 148 209 204
f 148 204 203
f 148 203 149
f 150 153 210
f 150 210 157
f 151 206 152
f 152 206 153
f 153 206 210
f 154 160 211
f 154 211 212
f 154 212 213
f 154 213 214
f 154 214 156
f 155 215 162
f 155 156 215
f 156 216 215
f 156 214 216
f 157 210 206
f 157 206 217
f 157 217 218
f 157 218 219
f 157 219 158
f 158 220 159
f 158 219 220
f 159 221 160
f 159 220 221
f 160 221 211
f 161 162 222
f 161 222 223
f 161 223 224
f 161 224 163
f 162 215 225
f 162 225 222
f 163 224 226
f 165 227 228
f 165 228 166
f 166 228 229
f 166 229 167
f 167 229 230
f 167 230 171
f 167 171 170
f 167 170 168
f 168 170 169
f 171 230 231
f 171 231 172
f 172 232 173
f 172 231 232
f 173 232 233
f 173 233 234
f 173 234 174
f 174 234 235
f 174 235 175
f 175 235 176
f 175 176 177
f 176 235 236
f 176 236 178
f 178 236 237
f 178 237 238
f 178 238 239
f 178 239 179
f 179 239 240
f 179 240 180
f 180 240 241
f 180 241 181
f 181 241 242
f 181 242 243
f 181 243 182
f 182 243 183
f 183 243 184
f 184 243 189
f 184 189 186
f 184 186 185
f 186 189 188
f 189 243 244
f 189 244 245
f 189 245 190
f 190 246 191
f 190 245 247
f 190 247 248
f 190 248 249
f 190 249 246
f 191 246 192
f 192 246 193
f 193 250 251
f 193 251 194
f 193 246 250
f 194 251 252
f 194 252 195
f 195 252 253
f 195 253 196
f 196 253 197
f 197 199 198
f 197 253 254
f 197 254 255
f 197 255 256
f 197 256 257
f 197 257 199
f 199 257 200
f 200 257 256
f 200 256 258
f 200 258 201
f 201 258 259
f 201 259 260
f 201 260 261
f 201 261 262
f 201 262 202
f 202 262 263
f 202 263 264
f 202 264 207
f 204 265 266
f 204 266 267
f 204 267 205
f 204 209 268
f 204 268 265
f 205 267 217
f 205 217 206
f 207 269 270
f 207 270 208
f 207 264 269
f 208 270 271
f 208 271 272
f 208 272 268
f 208 268 209
f 211 221 212
f 212 221 213
f 213 221 273
f 213 273 214
f 214 273 274
f 214 274 275
f 214 275 276
f 214 276 277
f 214 277 216
f 215 216 278
f 215 278 225
f 216 277 278
f 217 267 218
f 218 267 279
f 218 279 219
f 219 279 280
f 219 280 281
f 219 281 220
f 220 282 273
f 220 273 221
f 220 281 283
f 220 283 282
f 222 284 223
f 222 225 284
f 223 285 224
f 223 284 286
f 223 286 285
f 224 285 226
f 225 287 284
f 225 278 288
f 225 288 289
f 225 289 287
f 226 285 290
f 226 290 228
f 226 228 227
f 228 290 291
f 228 291 292
f 228 292 229
f 229 292 293
f 229 293 230
f 230 293 294
f 230 294 231
f 231 294 295
f 231 295 296
f 231 296 297
f 231 297 232
f 232 297 296
f 232 296 298
f 232 298 299
f 232 299 233
f 233 299 300
f 233 300 301
f 233 301 302
f 233 302 234
f 234 236 235
f 234 302 303
f 234 303 304
f 234 304 236
f 236 304 305
f 236 305 306
f 236 306 237
f 237 306 305
f 237 305 369
f 237 369 307
f 237 307 239
f 237 239 238
f 239 307 308
f 239 308 309
f 239 309 240
f 240 309 241
f 241 309 245
f 241 245 242
f 242 245 243
f 243 245 244
f 245 309 247
f 246 249 251
f 246 251 250
f 247 309 310
f 247 310 311
f 247 311 248
f 248 311 252
f 248 252 251
f 248 251 249
f 252 311 253
f 253 311 254
f 254 312 313
f 254 313 255
f 254 311 314
f 254 314 315
f 254 315 312
f 255 316 260
f 255 260 259
f 255 259 258
f 255 258 256
f 255 313 317
f 255 317 316
f 260 316 318
f 260 318 319
f 260 319 261
f 261 319 262
f 262 319 320
f 262 320 321
f 262 321 322
f 262 322 323
f 262 323 263
f 263 323 324
f 263 324 325
f 263 325 326
f 263 326 264
f 264 326 269
f 265 268 272
f 265 272 271
f 265 271 327
f 265 327 266
f 266 327 279
f 266 279 267
f 269 326 270
f 270 326 328
f 270 328 271
f 271 329 330
f 271 330 331
f 271 331 332
f 271 332 333
f 271 333 327
f 271 328 329
f 273 282 274
f 274 282 334
f 274 334 335
f 274 335 275
f 275 336 276
f 275 335 336
f 276 337 277
f 276 336 337
f 277 337 278
f 278 337 338
f 278 338 288
f 279 327 339
f 279 339 280
f 280 340 341
f 280 341 342
f 280 342 281
f 280 339 340
f 281 342 283
f 282 283 343
f 282 343 344
f 282 344 334
f 283 342 344
f 283 344 343
f 284 345 286
f 284 287 346
f 284 346 345
f 285 286 290
f 286 347 290
f 286 345 347
f 287 289 348
f 287 348 346
f 288 338 289
f 289 338 349
f 289 349 348
f 290 347 350
f 290 350 291
f 291 350 351
f 291 351 352
f 291 352 353
f 291 353 354
f 291 354 292
f 292 354 293
f 293 354 355
f 293 355 295
f 293 295 294
f 295 355 356
f 295 356 357
f 295 357 358
f 295 358 296
f 296 358 359
f 296 359 360
f 296 360 361
f 296 361 362
f 296 362 298
f 298 362 363
f 298 363 299
f 299 363 364
f 299 364 365
f 299 365 300
f 300 365 366
f 300 366 301
f 301 366 367
f 301 367 304
f 301 304 303
f 301 303 302
f 304 367 368
f 304 368 305
f 305 368 369
f 307 370 371
f 307 371 308
f 307 369 372
f 307 372 370
f 308 371 373
f 308 373 374
f 308 374 309
f 309 374 310
f 310 374 311
f 311 374 373
f 311 373 314
f 312 375 376
f 312 376 313
f 312 315 377
f 312 377 378
f 312 378 379
f 312 379 380
f 312 380 381
f 312 381 375
f 313 376 382
f 313 382 383
f 313 383 317
f 314 373 384
f 314 384 315
f 315 384 385
f 315 385 386
f 315 386 377
f 316 317 387
f 316 387 318
f 317 383 387
f 318 388 319
f 318 387 389
f 318 389 388
f 319 388 389
f 319 389 390
f 319 390 391
f 319 391 320
f 320 391 321
f 321 391 392
f 321 392 322
f 322 392 393
f 322 393 323
f 323 393 394
f 323 394 324
f 324 394 395
f 324 395 325
f 325 395 396
f 325 396 326
f 326 396 329
f 326 329 328
f 327 333 397
f 327 397 398
f 327 398 339
f 329 396 330
f 330 396 399
f 330 399 331
f 331 399 400
f 331 400 401
f 331 401 402
f 331 402 332
f 332 402 403
f 332 403 404
f 332 404 397
f 332 397 333
f 334 344 335
f 335 344 405
f 335 405 406
f 335 406 336
f 336 407 337
f 336 406 402
f 336 402 407
f 337 407 338
f 338 407 349
f 339 398 340
f 340 408 344
f 340 344 341
f 340 398 408
f 341 344 342
f 344 408 405
f 345 409 410
f 345 410 411
f 345 411 412
f 345 412 347
f 345 346 413
f 345 413 414
f 345 414 409
f 346 348 415
f 346 415 413
f 347 412 411
f 347 411 350
f 348 349 416
f 348 416 417
f 348 417 415
f 349 407 416
f 350 411 418
f 350 418 351
f 351 418 419
f 351 419 420
f 351 420 352
f 352 420 353
f 353 356 354
f 353 420 356
f 354 356 355
f 356 420 421
f 356 421 422
f 356 422 423
f 356 423 357
f 357 423 424
f 357 424 425
f 357 425 358
f 358 425 426
f 358 426 427
f 358 427 359
f 359 427 360
f 360 427 428
f 360 428 429
f 360 429 430
f 360 430 431
f 360 431 432
f 360 432 433
f 360 433 361
f 361 433 363
f 361 363 362
f 363 433 434
f 363 434 365
f 363 365 364
f 365 435 366
f 365 434 436
f 365 436 435
f 366 435 437
f 366 437 367
f 367 437 438
f 367 438 368
f 368 438 372
f 368 372 369
f 370 439 371
f 370 372 439
f 371 440 373
f 371 439 440
f 372 438 439
f 373 440 441
f 373 441 384
f 375 381 442
f 375 442 443
f 375 443 376
f 376 443 382
f 377 386 378
f 378 386 444
f 378 444 379
f 379 445 380
f 379 444 445
f 380 445 446
f 380 446 381
f 381 447 448
f 381 448 442
f 381 446 447
f 382 449 391
f 382 391 450
f 382 450 387
f 382 387 383
f 382 443 451
f 382 451 452
f 382 452 453
f 382 453 454
f 382 454 455
f 382 455 449
f 384 441 385
f 385 441 386
f 386 441 456
f 386 456 444
f 387 450 389
f 389 450 390
f 390 450 391
f 391 449 392
f 392 457 393
f 392 449 455
f 392 455 458
f 392 458 459
f 392 459 457
f 393 457 394
f 394 459 460
f 394 460 461
f 394 461 395
f 394 457 459
f 395 461 462
f 395 462 396
f 396 462 399
f 397 463 398
f 397 404 463
f 398 463 404
f 398 404 408
f 399 464 400
f 399 462 464
f 400 464 465
f 400 465 401
f 401 465 466
f 401 466 467
f 401 467 468
f 401 468 402
f 402 406 403
f 402 468 407
f 403 406 405
f 403 405 404
f 404 405 408
f 407 469 416
f 407 468 470
f 407 470 471
f 407 471 469
f 409 414 472
f 409 472 473
f 409 473 474
f 409 474 475
f 409 475 410
f 410 476 418
f 410 418 411
f 410 475 476
f 413 415 477
f 413 477 478
f 413 478 472
f 413 472 414
f 415 417 479
f 415 479 480
f 415 480 477
f 416 469 417
f 417 469 481
f 417 481 482
f 417 482 483
f 417 483 479
f 418 484 419
f 418 476 475
f 418 475 484
f 419 484 485
f 419 485 486
f 419 486 420
f 420 486 487
f 420 487 421
f 421 487 422
f 422 487 423
f 423 487 488
f 423 488 489
f 423 489 424
f 424 489 490
f 424 490 427
f 424 427 425
f 425 427 426
f 427 490 491
f 427 491 429
f 427 429 428
f 429 491 492
f 429 492 493
f 429 493 430
f 430 493 494
f 430 494 431
f 431 494 433
f 431 433 432
f 433 494 495
f 433 495 434
f 434 495 496
f 434 496 436
f 435 497 498
f 435 498 437
f 435 436 499
f 435 499 500
f 435 500 501
f 435 501 497
f 436 496 500
f 436 500 499
f 437 498 456
f 437 456 439
f 437 439 438
f 439 456 441
f 439 441 440
f 442 448 443
f 443 448 502
f 443 502 451
f 444 503 446
f 444 446 445
f 444 456 498
f 444 498 503
f 446 503 504
f 446 504 447
f 447 505 502
f 447 502 448
f 447 504 506
f 447 506 505
f 451 502 507
f 451 507 452
f 452 507 508
f 452 508 509
f 452 509 453
f 453 509 510
f 453 510 511
f 453 511 512
f 453 512 454
f 454 512 513
f 454 513 455
f 455 513 514
f 455 514 515
f 455 515 516
f 455 516 458
f 458 516 460
f 458 460 459
f 460 517 461
f 460 516 517
f 461 517 518
f 461 518 519
f 461 519 462
f 462 519 464
f 464 519 520
f 464 520 521
f 464 521 522
f 464 522 465
f 465 522 466
f 466 522 523
f 466 523 467
f 467 523 524
f 467 524 481
f 467 481 471
f 467 471 470
f 467 470 468
f 469 471 481
f 472 478 525
f 472 525 526
f 472 526 473
f 473 526 527
f 473 527 528
f 473 528 474
f 474 528 475
f 475 528 529
f 475 529 530
f 475 530 484
f 477 480 531
f 477 531 478
f 478 531 532
f 478 532 525
f 479 483 533
f 479 533 534
f 479 534 535
f 479 535 480
f 480 536 531
f 480 535 537
f 480 537 538
f 480 538 539
f 480 539 540
f 480 540 536
f 481 524 541
f 481 541 482
f 482 541 483
f 483 541 521
f 483 521 542
f 483 542 543
f 483 543 533
f 484 530 544
f 484 544 545
f 484 545 485
f 485 545 544
f 485 544 546
f 485 546 547
f 485 547 548
f 485 548 549
f 485 549 486
f 486 550 551
f 486 551 552
f 486 552 553
f 486 553 487
f 486 549 554
f 486 554 555
f 486 555 556
f 486 556 550
f 487 553 557
f 487 557 558
f 487 558 488
f 488 558 559
f 488 559 489
f 489 559 490
f 490 559 560
f 490 560 491
f 491 561 562
f 491 562 563
f 491 563 564
f 491 564 565
f 491 565 492
f 491 560 559
f 491 559 566
f 491 566 561
f 492 565 493
f 493 565 567
f 493 567 568
f 493 568 569
f 493 569 494
f 494 569 495
f 495 570 571
f 495 571 572
f 495 572 496
f 495 569 570
f 496 572 573
f 496 573 500
f 497 574 498
f 497 501 574
f 498 575 503
f 498 574 576
f 498 576 575
f 500 573 501
f 501 577 576
f 501 576 574
f 501 573 577
f 502 508 507
f 502 505 578
f 502 578 508
f 503 575 504
f 504 575 579
f 504 579 506
f 505 506 578
f 506 579 580
f 506 580 581
f 506 581 578
f 508 578 582
f 508 582 583
f 508 583 509
f 509 583 510
f 510 583 584
f 510 584 511
f 511 584 585
f 511 585 586
f 511 586 587
f 511 587 512
f 512 587 588
f 512 588 589
f 512 589 513
f 513 590 514
f 513 589 590
f 514 590 591
f 514 591 515
f 515 591 592
f 515 592 593
f 515 593 516
f 516 593 517
f 517 593 594
f 517 594 518
f 518 594 595
f 518 595 596
f 518 596 597
f 518 597 598
f 518 598 520
f 518 520 519
f 520 598 597
f 520 597 599
f 520 599 542
f 520 542 521
f 521 541 523
f 521 523 522
f 523 541 524
f 525 532 540
f 525 540 539
f 525 539 600
f 525 600 601
f 525 601 602
f 525 602 603
f 525 603 604
f 525 604 526
f 526 604 605
f 526 605 606
f 526 606 527
f 527 607 528
f 527 606 608
f 527 608 609
f 527 609 610
f 527 610 611
f 527 611 612
f 527 612 607
f 528 607 613
f 528 613 614
f 528 614 544
f 528 544 529
f 529 615 530
f 529 544 615
f 530 615 544
f 531 536 532
f 532 536 540
f 533 543 616
f 533 616 534
f 534 616 617
f 534 617 618
f 534 618 619
f 534 619 535
f 535 619 620
f 535 620 621
f 535 621 622
f 535 622 537
f 537 622 600
f 537 600 538
f 538 600 539
f 542 599 623
f 542 623 543
f 543 623 624
f 543 624 625
f 543 625 626
f 543 626 627
f 543 627 628
f 543 628 616
f 544 614 546
f 546 614 629
f 546 629 548
f 546 548 547
f 548 630 631
f 548 631 632
f 548 632 633
f 548 633 549
f 548 629 630
f 549 633 634
f 549 634 635
f 549 635 636
f 549 636 637
f 549 637 638
f 549 638 639
f 549 639 640
f 549 640 555
f 549 555 554
f 550 556 641
f 550 641 551
f 551 641 642
f 551 642 643
f 551 643 552
f 552 643 644
f 552 644 635
f 552 635 645
f 552 645 646
f 552 646 647
f 552 647 648
f 552 648 649
f 552 649 650
f 552 650 558
f 552 558 557
f 552 557 553
f 555 640 556
f 556 640 651
f 556 651 652
f 556 652 653
f 556 653 638
f 556 638 641
f 558 650 559
f 559 650 649
f 559 649 566
f 561 566 654
f 561 654 655
f 561 655 656
f 561 656 562
f 562 656 573
f 562 573 572
f 562 572 567
f 562 567 563
f 563 567 657
f 563 657 564
f 564 657 567
f 564 567 565
f 566 649 648
f 566 648 654
f 567 572 571
f 567 571 570
f 567 570 568
f 568 570 569
f 573 656 658
f 573 658 659
f 573 659 577
f 575 660 579
f 575 576 660
f 576 577 661
f 576 661 660
f 577 659 661
f 578 581 582
f 579 660 580
f 580 660 662
f 580 662 581
f 581 662 663
f 581 663 582
f 582 663 583
f 583 663 662
f 583 662 664
f 583 664 665
f 583 665 647
f 583 647 584
f 584 647 585
f 585 647 586
f 586 647 646
f 586 646 645
f 586 645 635
f 586 635 587
f 587 635 588
f 588 666 667
f 588 667 589
f 588 635 668
f 588 668 669
f 588 669 666
f 589 667 590
f 590 670 591
f 590 667 666
f 590 666 671
f 590 671 672
f 590 672 673
f 590 673 670
f 591 670 674
f 591 674 593
f 591 593 592
f 593 674 594
f 594 674 670
f 594 670 595
f 595 670 596
f 596 672 597
f 596 670 672
f 597 672 626
f 597 626 625
f 597 625 624
f 597 624 599
f 599 624 623
f 600 622 601
f 601 622 675
f 601 675 676
f 601 676 602
f 602 676 603
f 603 676 677
f 603 677 678
f 603 678 679
f 603 679 606
f 603 606 604
f 604 606 605
f 606 679 680
f 606 680 608
f 607 681 613
f 607 612 682
f 607 682 632
f 607 632 631
f 607 631 681
f 608 680 609
f 609 680 683
f 609 683 611
f 609 611 610
f 611 683 633
f 611 633 684
f 611 684 612
f 612 684 633
f 612 633 682
f 613 681 629
f 613 629 614
f 616 628 627
f 616 627 617
f 617 627 685
f 617 685 618
f 618 685 686
f 618 686 619
f 619 686 620
f 620 686 676
f 620 676 621
f 621 676 675
f 621 675 622
f 626 672 687
f 626 687 686
f 626 686 685
f 626 685 627
f 629 681 631
f 629 631 630
f 632 682 633
f 633 683 688
f 633 688 634
f 634 688 689
f 634 689 690
f 634 690 635
f 635 691 692
f 635 692 693
f 635 693 694
f 635 694 668
f 635 644 636
f 635 690 691
f 636 644 637
f 637 644 643
f 637 643 638
f 638 643 642
f 638 642 641
f 638 653 639
f 639 652 651
f 639 651 640
f 639 653 652
f 647 665 648
f 648 695 654
f 648 665 695
f 654 695 696
f 654 696 697
f 654 697 698
f 654 698 699
f 654 699 700
f 654 700 655
f 655 700 701
f 655 701 658
f 655 658 656
f 658 701 659
f 659 702 661
f 659 701 702
f 660 703 704
f 660 704 662
f 660 661 705
f 660 705 706
f 660 706 707
f 660 707 708
f 660 708 696
f 660 696 703
f 661 702 705
f 662 704 709
f 662 709 664
f 664 709 710
f 664 710 665
f 665 710 695
f 666 672 671
f 666 669 711
f 666 711 712
f 666 712 713
f 666 713 672
f 668 694 714
f 668 714 715
f 668 715 669
f 669 716 717
f 669 717 711
f 669 715 718
f 669 718 716
f 670 673 672
f 672 713 687
f 676 686 677
f 677 719 713
f 677 713 678
f 677 686 719
f 678 713 712
f 678 712 720
f 678 720 721
f 678 721 722
f 678 722 679
f 679 722 680
f 680 722 723
f 680 723 724
f 680 724 725
f 680 725 726
f 680 726 727
f 680 727 683
f 683 727 689
f 683 689 688
f 686 687 719
f 687 713 719
f 689 724 723
f 689 723 728
f 689 728 692
f 689 692 691
f 689 691 690
f 689 727 724
f 692 728 693
f 693 728 729
f 693 729 730
f 693 730 694
f 694 730 731
f 694 731 714
f 695 710 696
f 696 710 709
f 696 709 704
f 696 704 703
f 696 708 732
f 696 732 697
f 697 732 698
f 698 732 706
f 698 706 699
f 699 706 705
f 699 705 702
f 699 702 701
f 699 701 700
f 706 732 733
f 706 733 707
f 707 734 708
f 707 733 734
f 708 734 732
f 711 717 712
f 712 717 716
f 712 716 718
f 712 718 720
f 714 731 723
f 714 723 715
f 715 723 718
f 718 723 722
f 718 722 721
f 718 721 720
f 723 731 730
f 723 730 728
f 724 727 726
f 724 726 725
f 728 730 729
f 732 734 733

