# https://github.com/mikedh/trimesh
mtllib material.mtl
usemtl material_0
v -0.06000000 -0.01250000 -0.01000000
v -0.06000000 -0.01250000 0.01000000
v -0.06000000 0.01250000 -0.01000000
v -0.06000000 0.01250000 0.01000000
v 0.06000000 -0.01250000 -0.01000000
v 0.06000000 -0.01250000 0.01000000
v 0.06000000 0.01250000 -0.01000000
v 0.06000000 0.01250000 0.01000000
v 0.06000000 -0.02000000 -0.00100000
v 0.06000000 -0.02000000 0.00100000
v 0.06000000 0.02000000 -0.00100000
v 0.06000000 0.02000000 0.00100000
v 0.24000000 -0.02000000 -0.00100000
v 0.24000000 -0.02000000 0.00100000
v 0.24000000 0.02000000 -0.00100000
v 0.24000000 0.02000000 0.00100000
f 2 4 1
f 5 2 1
f 1 4 3
f 3 5 1
f 2 8 4
f 6 2 5
f 6 8 2
f 4 8 3
f 7 5 3
f 3 8 7
f 7 6 5
f 8 6 7
f 10 12 9
f 13 10 9
f 9 12 11
f 11 13 9
f 10 16 12
f 14 10 13
f 14 16 10
f 12 16 11
f 15 13 11
f 11 16 15
f 15 14 13
f 16 14 15