# https://github.com/mikedh/trimesh
v 0.05675537 0.01659629 -0.02501583 0.54117647 0.42352941 0.64313725
v 0.05805341 0.01648150 -0.01723830 0.54117647 0.42352941 0.64313725
v 0.05805341 0.01652933 -0.02501583 0.54117647 0.42352941 0.64313725
v 0.05675537 0.01646237 -0.02631244 0.54117647 0.42352941 0.64313725
v 0.02953067 0.01611481 -0.02701656 0.54117647 0.42352941 0.64313725
v 0.00555107 0.01606698 -0.02436967 0.54117647 0.42352941 0.64313725
v 0.00555107 0.01606698 -0.02436323 0.54117647 0.42352941 0.64313725
v 0.05675537 0.01646556 -0.01723830 0.54117647 0.42352941 0.64313725
v 0.05923531 0.01619133 -0.00988796 0.54117647 0.42352941 0.64313725
v 0.06053335 0.01620090 -0.00988796 0.54117647 0.42352941 0.64313725
v 0.05935146 0.01635395 -0.01464507 0.54117647 0.42352941 0.64313725
v 0.05913967 0.01630613 -0.02371922 0.54117647 0.42352941 0.64313725
v 0.05903036 0.01626467 -0.02501583 0.54117647 0.42352941 0.64313725
v 0.05890739 0.01618814 -0.02595180 0.54117647 0.42352941 0.64313725
v 0.05806708 0.01631250 -0.02635538 0.54117647 0.42352941 0.64313725
v 0.06069732 0.01619133 -0.01086257 0.54117647 0.42352941 0.64313725
v 0.06031474 0.01622003 -0.01464507 0.54117647 0.42352941 0.64313725
v 0.06129852 0.01607017 -0.01142286 0.54117647 0.42352941 0.64313725
v 0.06018493 0.01617858 -0.01983152 0.54117647 0.42352941 0.64313725
v 0.06013711 0.01614988 -0.02112599 0.54117647 0.42352941 0.64313725
v 0.05765034 0.01614032 -0.02718830 0.54117647 0.42352941 0.64313725
v 0.05675537 0.01616901 -0.02734501 0.54117647 0.42352941 0.64313725
v 0.05469900 0.01606060 -0.02821872 0.54117647 0.42352941 0.64313725
v 0.05383820 0.01608292 -0.02827668 0.54117647 0.42352941 0.64313725
v 0.05286808 0.01623916 -0.02760906 0.54117647 0.42352941 0.64313725
v 0.02874501 0.01609886 -0.02699724 0.54117647 0.42352941 0.64313725
v 0.05286808 0.01608930 -0.02828312 0.54117647 0.42352941 0.64313725
v 0.05215758 0.01608292 -0.02827239 0.54117647 0.42352941 0.64313725
v -0.00417058 0.01511358 -0.02460366 0.54117647 0.42352941 0.64313725
v -0.00417058 0.01563970 -0.02371922 0.54117647 0.42352941 0.64313725
v -0.00158133 0.01589479 -0.02242260 0.54117647 0.42352941 0.64313725
v 0.05705597 0.01611481 -0.00988796 0.54117647 0.42352941 0.64313725
v -0.00158133 0.01576087 -0.02112599 0.54117647 0.42352941 0.64313725
v -0.00581704 0.01546114 -0.01983152 0.54117647 0.42352941 0.64313725
v 0.06098426 0.01605741 -0.00988796 0.54117647 0.42352941 0.64313725
v 0.06129852 0.01607017 -0.01136704 0.54117647 0.42352941 0.64313725
v 0.06004829 0.01610205 -0.02195677 0.54117647 0.42352941 0.64313725
v 0.05851115 0.01600002 -0.02681477 0.54117647 0.42352941 0.64313725
v 0.05967938 0.01582464 -0.02501583 0.54117647 0.42352941 0.64313725
v 0.06017810 0.01499560 -0.02631244 0.54117647 0.42352941 0.64313725
v 0.05934462 0.01568753 -0.02635538 0.54117647 0.42352941 0.64313725
v 0.06082712 0.01561100 -0.01983152 0.54117647 0.42352941 0.64313725
v 0.06176308 0.01540055 -0.00988796 0.54117647 0.42352941 0.64313725
v 0.06168110 0.01551853 -0.01086257 0.54117647 0.42352941 0.64313725
v 0.06164694 0.01548346 -0.01193378 0.54117647 0.42352941 0.64313725
v 0.06155813 0.01508807 -0.01723830 0.54117647 0.42352941 0.64313725
v 0.06149664 0.01503067 -0.01853491 0.54117647 0.42352941 0.64313725
v 0.06087494 0.01535591 -0.02121186 0.54117647 0.42352941 0.64313725
v 0.05675537 0.01597132 -0.02799332 0.54117647 0.42352941 0.64313725
v 0.05806708 0.01576406 -0.02761550 0.54117647 0.42352941 0.64313725
v 0.05545733 0.01538461 -0.02880477 0.54117647 0.42352941 0.64313725
v 0.05675537 0.01532084 -0.02872749 0.54117647 0.42352941 0.64313725
v 0.05422761 0.01554404 -0.02869744 0.54117647 0.42352941 0.64313725
v 0.02175608 0.01505618 -0.02714322 0.54117647 0.42352941 0.64313725
v 0.00620009 0.01504343 -0.02584017 0.54117647 0.42352941 0.64313725
v 0.03503026 0.01485211 -0.02830459 0.54117647 0.42352941 0.64313725
v 0.05286808 0.01541969 -0.02879189 0.54117647 0.42352941 0.64313725
v 0.05545733 0.01455557 -0.02945308 0.54117647 0.42352941 0.64313725
v 0.04638471 0.01521880 -0.02862445 0.54117647 0.42352941 0.64313725
v 0.00520264 0.01495733 -0.02578006 0.54117647 0.42352941 0.64313725
v -0.00546862 0.01501473 -0.02450491 0.54117647 0.42352941 0.64313725
v -0.00581704 0.01510720 -0.02429239 0.54117647 0.42352941 0.64313725
v -0.00581704 0.01545157 -0.02371922 0.54117647 0.42352941 0.64313725
v -0.00581704 0.01552810 -0.02336930 0.54117647 0.42352941 0.64313725
v -0.00581704 0.01560781 -0.02242260 0.54117647 0.42352941 0.64313725
v -0.00581704 0.01551534 -0.02077822 0.54117647 0.42352941 0.64313725
v 0.01268346 0.01440251 -0.00988796 0.54117647 0.42352941 0.64313725
v -0.00581704 0.01294212 -0.00988796 0.54117647 0.42352941 0.64313725
v 0.01181582 0.01436106 -0.00988796 0.54117647 0.42352941 0.64313725
v 0.06113455 0.01600639 -0.00988796 0.54117647 0.42352941 0.64313725
v 0.06034890 0.01517735 -0.02501583 0.54117647 0.42352941 0.64313725
v 0.05926947 0.01506575 -0.02750601 0.54117647 0.42352941 0.64313725
v 0.05878442 0.01485211 -0.02832176 0.54117647 0.42352941 0.64313725
v 0.06102525 0.01404857 -0.02500295 0.54117647 0.42352941 0.64313725
v 0.06060851 0.01412191 -0.02631244 0.54117647 0.42352941 0.64313725
v 0.06003463 0.01481385 -0.02700583 0.54117647 0.42352941 0.64313725
v 0.06141465 0.01496052 -0.01983152 0.54117647 0.42352941 0.64313725
v 0.06221398 0.01467673 -0.00988796 0.54117647 0.42352941 0.64313725
v 0.06243943 0.01426540 -0.00988796 0.54117647 0.42352941 0.64313725
v 0.06241893 0.01419206 -0.01075523 0.54117647 0.42352941 0.64313725
v 0.06207734 0.01412191 -0.01594168 0.54117647 0.42352941 0.64313725
v 0.06198170 0.01412191 -0.01723830 0.54117647 0.42352941 0.64313725
v 0.06135317 0.01488081 -0.02083833 0.54117647 0.42352941 0.64313725
v 0.05805341 0.01508807 -0.02850638 0.54117647 0.42352941 0.64313725
v 0.05685785 0.01415699 -0.02940370 0.54117647 0.42352941 0.64313725
v 0.01835385 0.01479790 -0.02698007 0.54117647 0.42352941 0.64313725
v 0.00101475 0.01386682 -0.02580153 0.54117647 0.42352941 0.64313725
v 0.05157004 0.01443121 -0.02940370 0.54117647 0.42352941 0.64313725
v 0.05027200 0.01433236 -0.02939512 0.54117647 0.42352941 0.64313725
v 0.05157004 0.01378392 -0.02966990 0.54117647 0.42352941 0.64313725
v 0.05027200 0.01368507 -0.02962696 0.54117647 0.42352941 0.64313725
v 0.04638471 0.01330243 -0.02951963 0.54117647 0.42352941 0.64313725
v 0.03464085 0.01423033 -0.02847847 0.54117647 0.42352941 0.64313725
v 0.03082871 0.01438976 -0.02813715 0.54117647 0.42352941 0.64313725
v 0.02175608 0.01412191 -0.02750601 0.54117647 0.42352941 0.64313725
v 0.05416612 0.01452368 -0.02944235 0.54117647 0.42352941 0.64313725
v 0.05545733 0.01390827 -0.02972786 0.54117647 0.42352941 0.64313725
v 0.05648893 0.01374884 -0.02965702 0.54117647 0.42352941 0.64313725
v 0.00101475 0.01451411 -0.02552031 0.54117647 0.42352941 0.64313725
v -0.00287937 0.01412191 -0.02526485 0.54117647 0.42352941 0.64313725
v -0.00581704 0.01412191 -0.02491493 0.54117647 0.42352941 0.64313725
v -0.00581704 0.01497328 -0.02448345 0.54117647 0.42352941 0.64313725
v -0.00581704 -0.01561527 -0.00988796 0.54117647 0.42352941 0.64313725
v 0.06128485 0.01473413 -0.02169916 0.54117647 0.42352941 0.64313725
v 0.06110039 0.01436425 -0.02371922 0.54117647 0.42352941 0.64313725
v 0.05961106 0.01412191 -0.02783446 0.54117647 0.42352941 0.64313725
v 0.05896204 0.01412191 -0.02847203 0.54117647 0.42352941 0.64313725
v 0.05805341 0.01412191 -0.02898510 0.54117647 0.42352941 0.64313725
v 0.06124386 0.01317170 -0.02542585 0.54117647 0.42352941 0.64313725
v 0.06122337 0.01459383 -0.02242260 0.54117647 0.42352941 0.64313725
v 0.06133268 0.01356390 -0.02456287 0.54117647 0.42352941 0.64313725
v 0.06101158 0.01277312 -0.02621155 0.54117647 0.42352941 0.64313725
v 0.06017127 0.01412191 -0.02718615 0.54117647 0.42352941 0.64313725
v 0.06186556 0.01412191 -0.01853491 0.54117647 0.42352941 0.64313725
v 0.06250775 0.01405176 -0.00988796 0.54117647 0.42352941 0.64313725
v 0.06260339 0.01351926 -0.01151087 0.54117647 0.42352941 0.64313725
v 0.06239844 0.01401988 -0.01198744 0.54117647 0.42352941 0.64313725
v 0.06228913 0.01282733 -0.01723830 0.54117647 0.42352941 0.64313725
v 0.06172892 0.01412191 -0.01983152 0.54117647 0.42352941 0.64313725
v 0.06153080 0.01423033 -0.02121186 0.54117647 0.42352941 0.64313725
v 0.05735657 0.01336940 -0.02953895 0.54117647 0.42352941 0.64313725
v 0.01316852 0.01351607 -0.02697363 0.54117647 0.42352941 0.64313725
v 0.01230088 0.01336940 -0.02693713 0.54117647 0.42352941 0.64313725
v 0.01138542 0.01315257 -0.02691138 0.54117647 0.42352941 0.64313725
v -0.00201856 0.01338534 -0.02564911 0.54117647 0.42352941 0.64313725
v 0.05416612 0.01387639 -0.02971283 0.54117647 0.42352941 0.64313725
v 0.05416612 0.01282733 -0.02997688 0.54117647 0.42352941 0.64313725
v 0.04638471 0.01265514 -0.02964414 0.54117647 0.42352941 0.64313725
v 0.04508667 0.01308880 -0.02948743 0.54117647 0.42352941 0.64313725
v 0.03082871 0.01374247 -0.02833250 0.54117647 0.42352941 0.64313725
v 0.02985859 0.01360217 -0.02829600 0.54117647 0.42352941 0.64313725
v 0.05545733 0.01282733 -0.02996829 0.54117647 0.42352941 0.64313725
v 0.05685785 0.01289429 -0.02972571 0.54117647 0.42352941 0.64313725
v 0.05675537 0.01023178 -0.03019584 0.54117647 0.42352941 0.64313725
v 0.05545733 0.01023178 -0.03041051 0.54117647 0.42352941 0.64313725
v -0.00581704 0.01282733 -0.02535716 0.54117647 0.42352941 0.64313725
v -0.00417058 -0.01571411 -0.00988796 0.54117647 0.42352941 0.64313725
v -0.00581704 -0.01548453 -0.01464507 0.54117647 0.42352941 0.64313725
v -0.00417058 -0.01560251 -0.01464507 0.54117647 0.42352941 0.64313725
v 0.05980918 0.01282733 -0.02805342 0.54117647 0.42352941 0.64313725
v 0.05916016 0.01282733 -0.02863304 0.54117647 0.42352941 0.64313725
v 0.05799193 0.01289429 -0.02932642 0.54117647 0.42352941 0.64313725
v 0.06131901 0.01230758 -0.02571136 0.54117647 0.42352941 0.64313725
v 0.06140782 0.01277312 -0.02500295 0.54117647 0.42352941 0.64313725
v 0.06191338 0.01282733 -0.02112599 0.54117647 0.42352941 0.64313725
v 0.06160595 0.01282733 -0.02371922 0.54117647 0.42352941 0.64313725
v 0.06107307 0.01152956 -0.02648203 0.54117647 0.42352941 0.64313725
v 0.06033523 0.01282733 -0.02740512 0.54117647 0.42352941 0.64313725
v 0.06216615 0.01282733 -0.01853491 0.54117647 0.42352941 0.64313725
v 0.06263071 0.01361811 -0.00988796 0.54117647 0.42352941 0.64313725
v 0.06278785 0.01282733 -0.00988796 0.54117647 0.42352941 0.64313725
v 0.06275369 0.01282733 -0.01075523 0.54117647 0.42352941 0.64313725
v 0.06269220 0.01285921 -0.01198744 0.54117647 0.42352941 0.64313725
v 0.06239160 0.01282733 -0.01594168 0.54117647 0.42352941 0.64313725
v 0.06198853 0.01023178 -0.02371922 0.54117647 0.42352941 0.64313725
v 0.06261022 0.01226932 -0.01420285 0.54117647 0.42352941 0.64313725
v 0.05769133 0.01152956 -0.02967634 0.54117647 0.42352941 0.64313725
v 0.05805341 0.00634484 -0.03029459 0.54117647 0.42352941 0.64313725
v 0.01271079 0.01289110 -0.02707023 0.54117647 0.42352941 0.64313725
v 0.01138542 0.01250209 -0.02702300 0.54117647 0.42352941 0.64313725
v 0.00101475 0.01282733 -0.02604625 0.54117647 0.42352941 0.64313725
v -0.00581704 0.01151999 -0.02558256 0.54117647 0.42352941 0.64313725
v 0.05416612 0.01152956 -0.03021516 0.54117647 0.42352941 0.64313725
v 0.05286808 0.01152956 -0.03015505 0.54117647 0.42352941 0.64313725
v 0.04508667 0.01244150 -0.02960979 0.54117647 0.42352941 0.64313725
v 0.05416612 0.01023178 -0.03043198 0.54117647 0.42352941 0.64313725
v 0.04249742 0.01282733 -0.02935862 0.54117647 0.42352941 0.64313725
v 0.03082871 0.01282733 -0.02851712 0.54117647 0.42352941 0.64313725
v 0.05675537 0.00893720 -0.03037402 0.54117647 0.42352941 0.64313725
v 0.05545733 0.00893720 -0.03060801 0.54117647 0.42352941 0.64313725
v -0.00287937 -0.01566310 -0.01464507 0.54117647 0.42352941 0.64313725
v -0.00330977 -0.01574919 -0.00988796 0.54117647 0.42352941 0.64313725
v -0.00581704 -0.01526133 -0.01982938 0.54117647 0.42352941 0.64313725
v -0.00546862 -0.01531872 -0.01983152 0.54117647 0.42352941 0.64313725
v -0.00492208 -0.01513060 -0.02590242 0.54117647 0.42352941 0.64313725
v -0.00417058 -0.01540163 -0.01983152 0.54117647 0.42352941 0.64313725
v 0.05999364 0.01086632 -0.02825307 0.54117647 0.42352941 0.64313725
v 0.06007563 0.01000220 -0.02833250 0.54117647 0.42352941 0.64313725
v 0.05980918 0.00504707 -0.02939727 0.54117647 0.42352941 0.64313725
v 0.05916016 0.00504707 -0.02986740 0.54117647 0.42352941 0.64313725
v 0.05899620 0.00634484 -0.02977294 0.54117647 0.42352941 0.64313725
v 0.05853164 0.01023178 -0.02946381 0.54117647 0.42352941 0.64313725
v 0.05834035 0.01152956 -0.02938009 0.54117647 0.42352941 0.64313725
v 0.06116188 0.01023178 -0.02667309 0.54117647 0.42352941 0.64313725
v 0.06159228 0.01152956 -0.02501583 0.54117647 0.42352941 0.64313725
v 0.06174941 0.01023178 -0.02501583 0.54117647 0.42352941 0.64313725
v 0.06136683 0.01152956 -0.02583373 0.54117647 0.42352941 0.64313725
v 0.06183140 0.01152956 -0.02371922 0.54117647 0.42352941 0.64313725
v 0.06045821 0.01035295 -0.02773571 0.54117647 0.42352941 0.64313725
v 0.06289032 0.01196002 -0.00988796 0.54117647 0.42352941 0.64313725
v 0.06284250 0.01152956 -0.01205184 0.54117647 0.42352941 0.64313725
v 0.06265121 0.01245107 -0.01334846 0.54117647 0.42352941 0.64313725
v 0.06258973 0.00440296 -0.02177644 0.54117647 0.42352941 0.64313725
v 0.06261705 0.00374929 -0.02201902 0.54117647 0.42352941 0.64313725
v 0.06266488 0.00248660 -0.02248700 0.54117647 0.42352941 0.64313725
v 0.06257606 -0.00108786 -0.02553319 0.54117647 0.42352941 0.64313725
v 0.05798510 0.00376843 -0.03065094 0.54117647 0.42352941 0.64313725
v 0.05751370 0.00335071 -0.03088494 0.54117647 0.42352941 0.64313725
v 0.05889372 -0.00143223 -0.03096866 0.54117647 0.42352941 0.64313725
v 0.02175608 0.01282733 -0.02779797 0.54117647 0.42352941 0.64313725
v 0.02045804 0.01282733 -0.02769492 0.54117647 0.42352941 0.64313725
v 0.00101475 -0.00143223 -0.02775503 0.54117647 0.42352941 0.64313725
v 0.00230596 0.01152956 -0.02636611 0.54117647 0.42352941 0.64313725
v 0.01397467 0.01152956 -0.02734930 0.54117647 0.42352941 0.64313725
v -0.00417058 0.01023178 -0.02596038 0.54117647 0.42352941 0.64313725
v -0.00581704 0.01040716 -0.02575000 0.54117647 0.42352941 0.64313725
v 0.05416612 0.00893720 -0.03060372 0.54117647 0.42352941 0.64313725
v 0.05314135 0.00598134 -0.03087635 0.54117647 0.42352941 0.64313725
v 0.05157004 0.00482067 -0.03090426 0.54117647 0.42352941 0.64313725
v 0.05069557 0.00455921 -0.03087206 0.54117647 0.42352941 0.64313725
v 0.03082871 0.01152956 -0.02866738 0.54117647 0.42352941 0.64313725
v 0.05675537 0.00763942 -0.03054146 0.54117647 0.42352941 0.64313725
v 0.05545733 0.00374929 -0.03117045 0.54117647 0.42352941 0.64313725
v 0.05416612 0.00504707 -0.03105023 0.54117647 0.42352941 0.64313725
v 0.05665290 0.00624918 -0.03072608 0.54117647 0.42352941 0.64313725
v 0.05681686 0.00376843 -0.03098583 0.54117647 0.42352941 0.64313725
v 0.05637962 0.00504707 -0.03090855 0.54117647 0.42352941 0.64313725
v 0.05675537 0.00245471 -0.03114254 0.54117647 0.42352941 0.64313725
v 0.05675537 0.00115694 -0.03128422 0.54117647 0.42352941 0.64313725
v 0.02694142 -0.01596283 -0.01205184 0.54117647 0.42352941 0.64313725
v 0.02565021 -0.01597877 -0.01075523 0.54117647 0.42352941 0.64313725
v 0.03341796 -0.01579383 -0.00988796 0.54117647 0.42352941 0.64313725
v -0.00581704 -0.01521988 -0.02013421 0.54117647 0.42352941 0.64313725
v 0.02905927 -0.01508277 -0.02204049 0.54117647 0.42352941 0.64313725
v -0.00581704 -0.01514016 -0.02068377 0.54117647 0.42352941 0.64313725
v -0.00581704 -0.01511146 -0.02084262 0.54117647 0.42352941 0.64313725
v -0.00581704 -0.01425691 -0.02497290 0.54117647 0.42352941 0.64313725
v -0.00581704 -0.01366064 -0.02559759 0.54117647 0.42352941 0.64313725
v -0.00509287 -0.01438764 -0.02632532 0.54117647 0.42352941 0.64313725
v -0.00490158 -0.01395080 -0.02702086 0.54117647 0.42352941 0.64313725
v -0.00417058 -0.01467462 -0.02650779 0.54117647 0.42352941 0.64313725
v 0.03656058 -0.01378180 -0.02958188 0.54117647 0.42352941 0.64313725
v 0.03669722 -0.01378180 -0.02958188 0.54117647 0.42352941 0.64313725
v 0.06145565 -0.00143223 -0.02850423 0.54117647 0.42352941 0.64313725
v 0.06095693 -0.00143223 -0.02915254 0.54117647 0.42352941 0.64313725
v 0.06041039 0.00504707 -0.02874896 0.54117647 0.42352941 0.64313725
v 0.06040355 -0.00273001 -0.02998117 0.54117647 0.42352941 0.64313725
v 0.05970671 -0.00273001 -0.03062948 0.54117647 0.42352941 0.64313725
v 0.06144198 0.01023178 -0.02602478 0.54117647 0.42352941 0.64313725
v 0.06192704 -0.00143223 -0.02760906 0.54117647 0.42352941 0.64313725
v 0.06229596 -0.00013765 -0.02631244 0.54117647 0.42352941 0.64313725
v 0.06263755 -0.00273001 -0.02583802 0.54117647 0.42352941 0.64313725
v 0.06293815 0.01152956 -0.00988796 0.54117647 0.42352941 0.64313725
v 0.06334122 0.00634484 -0.00988796 0.54117647 0.42352941 0.64313725
v 0.06338905 0.00504707 -0.01075523 0.54117647 0.42352941 0.64313725
v 0.06387410 -0.00402459 -0.01115452 0.54117647 0.42352941 0.64313725
v 0.05765717 0.00245471 -0.03094290 0.54117647 0.42352941 0.64313725
v 0.05805341 -0.00273001 -0.03141517 0.54117647 0.42352941 0.64313725
v 0.05905769 -0.00273001 -0.03104809 0.54117647 0.42352941 0.64313725
v 0.05805341 -0.00143223 -0.03126276 0.54117647 0.42352941 0.64313725
v 0.00101475 -0.00273001 -0.02789457 0.54117647 0.42352941 0.64313725
v -0.00028329 -0.00143223 -0.02761550 0.54117647 0.42352941 0.64313725
v -0.00417058 -0.00402459 -0.02744161 0.54117647 0.42352941 0.64313725
v -0.00581704 -0.00401184 -0.02722265 0.54117647 0.42352941 0.64313725
v -0.00546862 -0.00402459 -0.02728275 0.54117647 0.42352941 0.64313725
v 0.05157004 -0.00273001 -0.03165346 0.54117647 0.42352941 0.64313725
v 0.05027200 -0.00273001 -0.03156759 0.54117647 0.42352941 0.64313725
v 0.05545733 -0.00013765 -0.03155042 0.54117647 0.42352941 0.64313725
v 0.05675537 -0.00013765 -0.03141732 0.54117647 0.42352941 0.64313725
v 0.05416612 -0.00273001 -0.03175006 0.54117647 0.42352941 0.64313725
v 0.05286808 -0.00273001 -0.03170498 0.54117647 0.42352941 0.64313725
v 0.04119937 -0.01573643 -0.00988796 0.54117647 0.42352941 0.64313725
v 0.02953067 -0.01579702 -0.01334846 0.54117647 0.42352941 0.64313725
v 0.03471600 -0.01577470 -0.01205184 0.54117647 0.42352941 0.64313725
v 0.03471600 -0.01579064 -0.00988796 0.54117647 0.42352941 0.64313725
v 0.05489029 -0.01505726 -0.01404614 0.54117647 0.42352941 0.64313725
v 0.05286808 -0.01519118 -0.01334846 0.54117647 0.42352941 0.64313725
v -0.00581704 -0.01298783 -0.02617935 0.54117647 0.42352941 0.64313725
v -0.00417058 -0.01402733 -0.02704876 0.54117647 0.42352941 0.64313725
v -0.00581704 -0.01272637 -0.02624375 0.54117647 0.42352941 0.64313725
v -0.00581704 -0.00669985 -0.02711961 0.54117647 0.42352941 0.64313725
v -0.00581704 -0.00532236 -0.02728490 0.54117647 0.42352941 0.64313725
v -0.00546862 -0.00532236 -0.02732140 0.54117647 0.42352941 0.64313725
v -0.00417058 -0.00532236 -0.02744591 0.54117647 0.42352941 0.64313725
v 0.00101475 -0.00402459 -0.02796756 0.54117647 0.42352941 0.64313725
v 0.01138542 -0.00532236 -0.02869744 0.54117647 0.42352941 0.64313725
v 0.03601404 -0.00532236 -0.03054361 0.54117647 0.42352941 0.64313725
v 0.05027200 -0.00921249 -0.03134433 0.54117647 0.42352941 0.64313725
v 0.05027200 -0.01042099 -0.03109746 0.54117647 0.42352941 0.64313725
v 0.05193213 -0.01133612 -0.03094934 0.54117647 0.42352941 0.64313725
v 0.05262897 -0.01133612 -0.03094934 0.54117647 0.42352941 0.64313725
v 0.05257431 -0.01253505 -0.02971283 0.54117647 0.42352941 0.64313725
v 0.05295006 -0.01273274 -0.02901086 0.54117647 0.42352941 0.64313725
v 0.05286808 -0.01311219 -0.02760906 0.54117647 0.42352941 0.64313725
v 0.06202269 -0.00273001 -0.02760906 0.54117647 0.42352941 0.64313725
v 0.06149664 -0.00273001 -0.02858796 0.54117647 0.42352941 0.64313725
v 0.06114138 -0.00402459 -0.02930925 0.54117647 0.42352941 0.64313725
v 0.06105257 -0.00273001 -0.02923626 0.54117647 0.42352941 0.64313725
v 0.06049236 -0.00402459 -0.03005416 0.54117647 0.42352941 0.64313725
v 0.05972037 -0.00402459 -0.03070247 0.54117647 0.42352941 0.64313725
v 0.06246675 -0.00273001 -0.02648633 0.54117647 0.42352941 0.64313725
v 0.06243943 -0.00148325 -0.02619652 0.54117647 0.42352941 0.64313725
v 0.06264438 -0.00377588 -0.02587237 0.54117647 0.42352941 0.64313725
v 0.06384677 -0.00532236 -0.01205184 0.54117647 0.42352941 0.64313725
v 0.06343004 0.00504707 -0.00988796 0.54117647 0.42352941 0.64313725
v 0.06394242 -0.00363558 -0.00988796 0.54117647 0.42352941 0.64313725
v 0.06396292 -0.00402459 -0.00988796 0.54117647 0.42352941 0.64313725
v 0.05805341 -0.00402459 -0.03138727 0.54117647 0.42352941 0.64313725
v 0.05675537 -0.00402459 -0.03166204 0.54117647 0.42352941 0.64313725
v 0.05675537 -0.00273001 -0.03162340 0.54117647 0.42352941 0.64313725
v 0.05907135 -0.00402459 -0.03101374 0.54117647 0.42352941 0.64313725
v 0.05157004 -0.00402459 -0.03169210 0.54117647 0.42352941 0.64313725
v 0.05416612 -0.00402459 -0.03181661 0.54117647 0.42352941 0.64313725
v 0.05286808 -0.00402459 -0.03175865 0.54117647 0.42352941 0.64313725
v 0.05027200 -0.00402459 -0.03159979 0.54117647 0.42352941 0.64313725
v 0.03601404 -0.00402459 -0.03057152 0.54117647 0.42352941 0.64313725
v 0.05545733 -0.00273001 -0.03171571 0.54117647 0.42352941 0.64313725
v 0.05780064 -0.01511784 -0.00988796 0.54117647 0.42352941 0.64313725
v 0.05416612 -0.01514973 -0.01334846 0.54117647 0.42352941 0.64313725
v 0.05416612 -0.01339279 -0.02501583 0.54117647 0.42352941 0.64313725
v 0.05575793 -0.01499986 -0.01365973 0.54117647 0.42352941 0.64313725
v 0.05618833 -0.01505726 -0.01279461 0.54117647 0.42352941 0.64313725
v 0.05538218 -0.01508595 -0.01327547 0.54117647 0.42352941 0.64313725
v 0.04036590 -0.00485682 -0.03087635 0.54117647 0.42352941 0.64313725
v 0.05545733 -0.00402459 -0.03178226 0.54117647 0.42352941 0.64313725
v 0.05675537 -0.00532236 -0.03141732 0.54117647 0.42352941 0.64313725
v 0.05349661 -0.01105871 -0.03084200 0.54117647 0.42352941 0.64313725
v 0.05303204 -0.01188138 -0.03027742 0.54117647 0.42352941 0.64313725
v 0.05343512 -0.01242664 -0.02951533 0.54117647 0.42352941 0.64313725
v 0.05416612 -0.01264984 -0.02863948 0.54117647 0.42352941 0.64313725
v 0.05416612 -0.01289855 -0.02760906 0.54117647 0.42352941 0.64313725
v 0.06199536 -0.00402459 -0.02760906 0.54117647 0.42352941 0.64313725
v 0.06151030 -0.00402459 -0.02866094 0.54117647 0.42352941 0.64313725
v 0.06107307 -0.00532236 -0.02927276 0.54117647 0.42352941 0.64313725
v 0.06149664 -0.00532236 -0.02862445 0.54117647 0.42352941 0.64313725
v 0.06042405 -0.00532236 -0.02994468 0.54117647 0.42352941 0.64313725
v 0.05935146 -0.00533512 -0.03060157 0.54117647 0.42352941 0.64313725
v 0.05892105 -0.00491422 -0.03093431 0.54117647 0.42352941 0.64313725
v 0.06260339 -0.00600473 -0.02569204 0.54117647 0.42352941 0.64313725
v 0.06338905 -0.00532236 -0.01723830 0.54117647 0.42352941 0.64313725
v 0.06396975 -0.00532236 -0.00988796 0.54117647 0.42352941 0.64313725
v 0.06390826 -0.00625026 -0.00988796 0.54117647 0.42352941 0.64313725
v 0.06369648 -0.00662014 -0.01205184 0.54117647 0.42352941 0.64313725
v 0.05611318 -0.00857796 -0.03085488 0.54117647 0.42352941 0.64313725
v 0.05758885 -0.01510509 -0.01035809 0.54117647 0.42352941 0.64313725
v 0.05805341 -0.01454708 -0.01334846 0.54117647 0.42352941 0.64313725
v 0.05839500 -0.01493928 -0.00988796 0.54117647 0.42352941 0.64313725
v 0.05545733 -0.01316321 -0.02501583 0.54117647 0.42352941 0.64313725
v 0.05675537 -0.01317277 -0.02371922 0.54117647 0.42352941 0.64313725
v 0.05667339 -0.01489145 -0.01327547 0.54117647 0.42352941 0.64313725
v 0.05643428 -0.01027431 -0.02983734 0.54117647 0.42352941 0.64313725
v 0.05606536 -0.01113843 -0.02953466 0.54117647 0.42352941 0.64313725
v 0.05492445 -0.01253186 -0.02837543 0.54117647 0.42352941 0.64313725
v 0.05675537 -0.01289536 -0.02501583 0.54117647 0.42352941 0.64313725
v 0.06192704 -0.00532236 -0.02760906 0.54117647 0.42352941 0.64313725
v 0.06021226 -0.00623112 -0.02973859 0.54117647 0.42352941 0.64313725
v 0.06140099 -0.00620561 -0.02843339 0.54117647 0.42352941 0.64313725
v 0.06336172 -0.00662014 -0.01594168 0.54117647 0.42352941 0.64313725
v 0.06258973 -0.00726743 -0.02307735 0.54117647 0.42352941 0.64313725
v 0.06254190 -0.00700915 -0.02394247 0.54117647 0.42352941 0.64313725
v 0.06245309 -0.00677638 -0.02501583 0.54117647 0.42352941 0.64313725
v 0.06221398 -0.00650853 -0.02620081 0.54117647 0.42352941 0.64313725
v 0.06387410 -0.00652129 -0.00988796 0.54117647 0.42352941 0.64313725
v 0.06382628 -0.00681783 -0.00988796 0.54117647 0.42352941 0.64313725
v 0.06314993 -0.00791472 -0.01464507 0.54117647 0.42352941 0.64313725
v 0.05872293 -0.01376267 -0.01664795 0.54117647 0.42352941 0.64313725
v 0.05908502 -0.01396356 -0.01464507 0.54117647 0.42352941 0.64313725
v 0.05923531 -0.01405603 -0.01334846 0.54117647 0.42352941 0.64313725
v 0.05931730 -0.01443229 -0.00988796 0.54117647 0.42352941 0.64313725
v 0.05760252 -0.01257969 -0.02501583 0.54117647 0.42352941 0.64313725
v 0.05786212 -0.01273593 -0.02371922 0.54117647 0.42352941 0.64313725
v 0.05730875 -0.01104277 -0.02814788 0.54117647 0.42352941 0.64313725
v 0.05767084 -0.01138714 -0.02728275 0.54117647 0.42352941 0.64313725
v 0.05743855 -0.01247765 -0.02571566 0.54117647 0.42352941 0.64313725
v 0.05982968 -0.00709524 -0.02941659 0.54117647 0.42352941 0.64313725
v 0.06030107 -0.00755759 -0.02855146 0.54117647 0.42352941 0.64313725
v 0.06068366 -0.00664883 -0.02892499 0.54117647 0.42352941 0.64313725
v 0.06157862 -0.00662970 -0.02758759 0.54117647 0.42352941 0.64313725
v 0.06116188 -0.00706973 -0.02800620 0.54117647 0.42352941 0.64313725
v 0.06270587 -0.00887131 -0.01594168 0.54117647 0.42352941 0.64313725
v 0.06249408 -0.00965253 -0.01464507 0.54117647 0.42352941 0.64313725
v 0.06238477 -0.00951860 -0.01594168 0.54117647 0.42352941 0.64313725
v 0.06137366 -0.00875014 -0.02458434 0.54117647 0.42352941 0.64313725
v 0.06174941 -0.00798806 -0.02501583 0.54117647 0.42352941 0.64313725
v 0.06303379 -0.00791472 -0.01594168 0.54117647 0.42352941 0.64313725
v 0.06157862 -0.00758310 -0.02631244 0.54117647 0.42352941 0.64313725
v 0.06137366 -0.00735352 -0.02714322 0.54117647 0.42352941 0.64313725
v 0.06368964 -0.00729932 -0.00988796 0.54117647 0.42352941 0.64313725
v 0.06353251 -0.00783819 -0.00988796 0.54117647 0.42352941 0.64313725
v 0.06276052 -0.00900523 -0.01464507 0.54117647 0.42352941 0.64313725
v 0.05864778 -0.01240431 -0.02290776 0.54117647 0.42352941 0.64313725
v 0.05876392 -0.01252229 -0.02204263 0.54117647 0.42352941 0.64313725
v 0.05973403 -0.01353309 -0.01464507 0.54117647 0.42352941 0.64313725
v 0.05987750 -0.01364150 -0.01334846 0.54117647 0.42352941 0.64313725
v 0.06009612 -0.01385833 -0.00988796 0.54117647 0.42352941 0.64313725
v 0.05851115 -0.01228315 -0.02371922 0.54117647 0.42352941 0.64313725
v 0.05853847 -0.01096305 -0.02666665 0.54117647 0.42352941 0.64313725
v 0.05798510 -0.01174108 -0.02619008 0.54117647 0.42352941 0.64313725
v 0.06015761 -0.00881073 -0.02722479 0.54117647 0.42352941 0.64313725
v 0.05877075 -0.01123090 -0.02580153 0.54117647 0.42352941 0.64313725
v 0.05825154 -0.01205038 -0.02501583 0.54117647 0.42352941 0.64313725
v 0.06309528 -0.00864492 -0.00988796 0.54117647 0.42352941 0.64313725
v 0.06150347 -0.01145729 -0.01334846 0.54117647 0.42352941 0.64313725
v 0.06142832 -0.01133612 -0.01427154 0.54117647 0.42352941 0.64313725
v 0.06030107 -0.01288580 -0.01464507 0.54117647 0.42352941 0.64313725
v 0.06103208 -0.00943570 -0.02371922 0.54117647 0.42352941 0.64313725
v 0.06029424 -0.01010531 -0.02476252 0.54117647 0.42352941 0.64313725
v 0.06016444 -0.01269129 -0.01594168 0.54117647 0.42352941 0.64313725
v 0.06039672 -0.01299102 -0.01334846 0.54117647 0.42352941 0.64313725
v 0.06104574 -0.01210458 -0.01334846 0.54117647 0.42352941 0.64313725
v 0.06019860 -0.01368933 -0.00988796 0.54117647 0.42352941 0.64313725
v 0.05892105 -0.01139990 -0.02501583 0.54117647 0.42352941 0.64313725
v 0.06291765 -0.00896378 -0.00988796 0.54117647 0.42352941 0.64313725
v 0.06052652 -0.01313770 -0.00988796 0.54117647 0.42352941 0.64313725
f 1 2 3
f 1 3 4
f 1 4 5
f 1 5 6
f 1 6 7
f 1 7 2
f 2 8 9
f 2 9 10
f 2 10 11
f 2 11 3
f 2 7 8
f 3 12 13
f 3 13 14
f 3 14 15
f 3 15 4
f 3 11 16
f 3 16 17
f 3 17 18
f 3 18 19
f 3 19 20
f 3 20 12
f 4 15 21
f 4 21 22
f 4 22 23
f 4 23 24
f 4 24 25
f 4 25 5
f 5 26 6
f 5 25 27
f 5 27 28
f 5 28 26
f 6 26 29
f 6 29 30
f 6 30 31
f 6 31 7
f 7 31 8
f 8 31 9
f 9 32 67
f 9 67 69
f 9 69 68
f 9 68 103
f 9 103 137
f 9 137 172
f 9 172 222
f 9 222 265
f 9 265 262
f 9 262 308
f 9 308 337
f 9 337 359
f 9 359 385
f 9 385 401
f 9 401 404
f 9 404 403
f 9 403 392
f 9 392 379
f 9 379 378
f 9 378 354
f 9 354 353
f 9 353 332
f 9 332 331
f 9 331 297
f 9 297 296
f 9 296 295
f 9 295 244
f 9 244 243
f 9 243 190
f 9 190 151
f 9 151 150
f 9 150 115
f 9 115 79
f 9 79 78
f 9 78 43
f 9 43 70
f 9 70 35
f 9 35 10
f 9 31 33
f 9 33 34
f 9 34 32
f 10 35 36
f 10 36 16
f 10 16 11
f 12 20 13
f 13 20 37
f 13 37 14
f 14 38 15
f 14 37 39
f 14 39 40
f 14 40 41
f 14 41 38
f 15 38 21
f 16 36 18
f 16 18 17
f 18 42 20
f 18 20 19
f 18 36 43
f 18 43 44
f 18 44 45
f 18 45 46
f 18 46 47
f 18 47 42
f 20 42 48
f 20 48 37
f 21 49 22
f 21 38 50
f 21 50 49
f 22 49 23
f 23 51 24
f 23 49 52
f 23 52 51
f 24 51 53
f 24 53 27
f 24 27 25
f 26 54 55
f 26 55 29
f 26 28 56
f 26 56 54
f 27 57 28
f 27 53 58
f 27 58 57
f 28 57 59
f 28 59 56
f 29 55 60
f 29 60 61
f 29 61 62
f 29 62 63
f 29 63 30
f 30 63 64
f 30 64 65
f 30 65 31
f 31 65 66
f 31 66 34
f 31 34 33
f 32 34 67
f 34 66 65
f 34 65 64
f 34 64 63
f 34 63 62
f 34 62 102
f 34 102 101
f 34 101 136
f 34 136 162
f 34 162 206
f 34 206 254
f 34 254 272
f 34 272 271
f 34 271 270
f 34 270 268
f 34 268 228
f 34 228 227
f 34 227 226
f 34 226 225
f 34 225 223
f 34 223 173
f 34 173 138
f 34 138 103
f 34 103 68
f 34 68 69
f 34 69 67
f 35 70 36
f 36 70 43
f 37 48 71
f 37 71 39
f 38 41 72
f 38 72 73
f 38 73 50
f 39 71 40
f 40 71 74
f 40 74 75
f 40 75 76
f 40 76 41
f 41 76 72
f 42 47 77
f 42 77 48
f 43 78 44
f 44 78 45
f 45 78 46
f 46 78 79
f 46 79 80
f 46 80 47
f 47 80 81
f 47 81 82
f 47 82 77
f 48 77 83
f 48 83 71
f 49 50 84
f 49 84 52
f 50 73 84
f 51 58 53
f 51 52 58
f 52 84 85
f 52 85 58
f 54 86 55
f 54 56 86
f 55 87 60
f 55 86 87
f 56 59 88
f 56 88 89
f 56 89 90
f 56 90 91
f 56 91 92
f 56 92 93
f 56 93 94
f 56 94 95
f 56 95 86
f 57 58 96
f 57 96 88
f 57 88 59
f 58 97 96
f 58 85 98
f 58 98 97
f 60 87 99
f 60 99 61
f 61 99 100
f 61 100 101
f 61 101 102
f 61 102 62
f 71 83 104
f 71 104 105
f 71 105 74
f 72 76 73
f 73 76 106
f 73 106 107
f 73 107 108
f 73 108 84
f 74 109 75
f 74 105 110
f 74 110 111
f 74 111 109
f 75 109 112
f 75 112 113
f 75 113 76
f 76 113 106
f 77 82 114
f 77 114 83
f 79 115 116
f 79 116 80
f 80 117 81
f 80 116 117
f 81 117 116
f 81 116 82
f 82 118 114
f 82 116 118
f 83 114 119
f 83 119 120
f 83 120 111
f 83 111 104
f 84 108 85
f 85 108 121
f 85 121 98
f 86 95 122
f 86 122 87
f 87 123 124
f 87 124 125
f 87 125 100
f 87 100 99
f 87 122 123
f 88 96 126
f 88 126 90
f 88 90 89
f 90 126 127
f 90 127 92
f 90 92 91
f 92 127 128
f 92 128 129
f 92 129 93
f 93 129 130
f 93 130 94
f 94 130 95
f 95 130 131
f 95 131 122
f 96 97 126
f 97 132 127
f 97 127 126
f 97 98 132
f 98 121 133
f 98 133 134
f 98 134 135
f 98 135 132
f 100 125 101
f 101 125 136
f 103 138 139
f 103 139 137
f 104 110 105
f 104 111 110
f 106 140 107
f 106 113 140
f 107 140 141
f 107 141 142
f 107 142 108
f 108 142 121
f 109 143 112
f 109 111 144
f 109 144 143
f 111 120 119
f 111 119 145
f 111 145 146
f 111 146 144
f 112 143 147
f 112 147 148
f 112 148 113
f 113 148 140
f 114 118 149
f 114 149 145
f 114 145 119
f 115 150 116
f 116 150 151
f 116 151 152
f 116 152 153
f 116 153 154
f 116 154 118
f 118 155 149
f 118 154 156
f 118 156 155
f 121 142 157
f 121 157 158
f 121 158 134
f 121 134 133
f 122 131 123
f 123 131 124
f 124 131 159
f 124 159 160
f 124 160 161
f 124 161 125
f 125 161 162
f 125 162 136
f 127 132 163
f 127 163 164
f 127 164 128
f 128 165 129
f 128 164 166
f 128 166 165
f 129 165 167
f 129 167 131
f 129 131 130
f 131 167 168
f 131 168 159
f 132 135 163
f 134 158 169
f 134 169 170
f 134 170 135
f 135 170 166
f 135 166 163
f 137 139 171
f 137 171 172
f 138 173 174
f 138 174 139
f 139 175 176
f 139 176 171
f 139 174 175
f 140 148 177
f 140 177 141
f 141 177 178
f 141 178 179
f 141 179 180
f 141 180 181
f 141 181 182
f 141 182 183
f 141 183 142
f 142 183 157
f 143 184 147
f 143 144 185
f 143 185 186
f 143 186 187
f 143 187 184
f 144 146 188
f 144 188 185
f 145 149 188
f 145 188 146
f 147 184 148
f 148 184 189
f 148 189 178
f 148 178 177
f 149 155 188
f 151 190 152
f 152 190 191
f 152 191 153
f 153 191 192
f 153 192 154
f 154 192 156
f 155 186 185
f 155 185 188
f 155 156 191
f 155 191 193
f 155 193 194
f 155 194 195
f 155 195 196
f 155 196 186
f 156 192 191
f 157 183 158
f 158 197 198
f 158 198 169
f 158 183 199
f 158 199 197
f 159 168 200
f 159 200 201
f 159 201 160
f 160 202 203
f 160 203 161
f 160 201 200
f 160 200 168
f 160 168 204
f 160 204 202
f 161 205 162
f 161 203 205
f 162 205 206
f 163 166 164
f 165 166 207
f 165 207 208
f 165 208 209
f 165 209 210
f 165 210 211
f 165 211 168
f 165 168 167
f 166 170 207
f 168 211 204
f 169 198 212
f 169 212 170
f 170 213 214
f 170 214 207
f 170 212 215
f 170 215 216
f 170 216 217
f 170 217 218
f 170 218 219
f 170 219 213
f 171 176 175
f 171 175 220
f 171 220 221
f 171 221 172
f 172 221 222
f 173 223 175
f 173 175 174
f 175 224 220
f 175 223 225
f 175 225 226
f 175 226 227
f 175 227 228
f 175 228 229
f 175 229 230
f 175 230 231
f 175 231 232
f 175 232 233
f 175 233 224
f 178 189 234
f 178 234 235
f 178 235 236
f 178 236 237
f 178 237 179
f 179 238 180
f 179 237 238
f 180 238 199
f 180 199 181
f 181 199 182
f 182 199 183
f 184 187 239
f 184 239 240
f 184 240 234
f 184 234 189
f 186 241 239
f 186 239 187
f 186 196 242
f 186 242 241
f 190 243 191
f 191 194 193
f 191 243 244
f 191 244 245
f 191 245 194
f 194 245 195
f 195 245 246
f 195 246 242
f 195 242 196
f 197 199 198
f 198 199 247
f 198 247 248
f 198 248 219
f 198 219 218
f 198 218 216
f 198 216 212
f 199 238 249
f 199 249 248
f 199 248 250
f 199 250 247
f 202 251 205
f 202 205 203
f 202 204 211
f 202 211 251
f 205 251 252
f 205 252 253
f 205 253 206
f 206 253 255
f 206 255 254
f 207 214 208
f 208 214 209
f 209 214 256
f 209 256 257
f 209 257 210
f 210 257 251
f 210 251 211
f 212 216 215
f 213 258 214
f 213 219 259
f 213 259 258
f 214 258 260
f 214 260 261
f 214 261 256
f 216 218 217
f 219 248 259
f 220 262 221
f 220 224 263
f 220 263 264
f 220 264 262
f 221 262 265
f 221 265 222
f 224 233 266
f 224 266 267
f 224 267 264
f 224 264 263
f 228 268 229
f 229 268 230
f 230 269 231
f 230 268 270
f 230 270 271
f 230 271 272
f 230 272 273
f 230 273 274
f 230 274 275
f 230 275 276
f 230 276 277
f 230 277 278
f 230 278 232
f 230 232 269
f 231 269 232
f 232 278 279
f 232 279 280
f 232 280 281
f 232 281 233
f 233 281 282
f 233 282 283
f 233 283 284
f 233 284 266
f 234 240 285
f 234 285 286
f 234 286 287
f 234 287 288
f 234 288 235
f 235 288 237
f 235 237 236
f 237 288 287
f 237 287 289
f 237 289 238
f 238 290 249
f 238 289 290
f 239 241 240
f 240 241 291
f 240 291 285
f 241 242 292
f 241 292 291
f 242 293 291
f 242 291 292
f 242 246 294
f 242 294 293
f 244 295 245
f 245 295 296
f 245 296 246
f 246 296 297
f 246 297 294
f 247 250 248
f 248 249 298
f 248 298 299
f 248 299 300
f 248 300 259
f 249 290 301
f 249 301 298
f 251 275 253
f 251 253 252
f 251 257 275
f 253 273 272
f 253 272 255
f 253 275 273
f 254 255 272
f 256 302 257
f 256 261 303
f 256 303 304
f 256 304 302
f 257 302 305
f 257 305 306
f 257 306 275
f 258 307 260
f 258 259 300
f 258 300 307
f 260 307 315
f 260 315 303
f 260 303 261
f 262 264 267
f 262 267 309
f 262 309 308
f 266 284 310
f 266 310 311
f 266 311 312
f 266 312 313
f 266 313 309
f 266 309 267
f 273 275 274
f 275 306 277
f 275 277 276
f 277 306 314
f 277 314 278
f 278 314 302
f 278 302 304
f 278 304 303
f 278 303 315
f 278 315 281
f 278 281 280
f 278 280 279
f 281 315 299
f 281 299 316
f 281 316 317
f 281 317 318
f 281 318 282
f 282 318 319
f 282 319 320
f 282 320 283
f 283 320 284
f 284 320 321
f 284 321 310
f 285 322 323
f 285 323 286
f 285 291 322
f 286 323 287
f 287 324 289
f 287 323 325
f 287 325 324
f 289 324 326
f 289 326 290
f 290 327 328
f 290 328 301
f 290 326 327
f 291 293 322
f 293 329 322
f 293 294 330
f 293 330 329
f 294 297 331
f 294 331 332
f 294 332 333
f 294 333 329
f 294 329 330
f 298 334 316
f 298 316 299
f 298 301 328
f 298 328 334
f 299 315 300
f 300 315 307
f 302 314 305
f 305 314 306
f 308 309 313
f 308 313 335
f 308 335 336
f 308 336 337
f 310 321 338
f 310 338 339
f 310 339 311
f 311 339 340
f 311 340 312
f 312 340 335
f 312 335 313
f 316 334 317
f 317 334 341
f 317 341 342
f 317 342 318
f 318 342 319
f 319 343 320
f 319 342 343
f 320 343 321
f 321 343 344
f 321 344 339
f 321 339 338
f 322 345 325
f 322 325 323
f 322 329 345
f 324 346 326
f 324 325 347
f 324 347 346
f 325 345 329
f 325 329 347
f 326 346 327
f 327 334 328
f 327 346 334
f 329 333 348
f 329 348 349
f 329 349 350
f 329 350 351
f 329 351 352
f 329 352 347
f 332 353 333
f 333 353 354
f 333 354 355
f 333 355 349
f 333 349 348
f 334 346 341
f 335 340 336
f 336 340 339
f 336 339 356
f 336 356 357
f 336 357 337
f 337 357 358
f 337 358 359
f 339 344 360
f 339 360 361
f 339 361 356
f 341 346 342
f 342 362 363
f 342 363 364
f 342 364 343
f 342 346 365
f 342 365 366
f 342 366 362
f 343 364 344
f 344 364 360
f 346 347 367
f 346 367 365
f 347 352 368
f 347 368 369
f 347 369 367
f 349 370 371
f 349 371 372
f 349 372 373
f 349 373 374
f 349 374 351
f 349 351 350
f 349 355 375
f 349 375 370
f 351 374 376
f 351 376 352
f 352 376 377
f 352 377 368
f 354 378 355
f 355 378 379
f 355 379 380
f 355 380 370
f 355 370 375
f 356 381 382
f 356 382 383
f 356 383 357
f 356 361 381
f 357 383 384
f 357 384 358
f 358 384 359
f 359 384 385
f 360 364 386
f 360 386 381
f 360 381 361
f 362 366 363
f 363 387 388
f 363 388 364
f 363 366 389
f 363 389 387
f 364 388 390
f 364 390 391
f 364 391 386
f 365 367 366
f 366 367 369
f 366 369 389
f 368 377 369
f 369 377 389
f 370 380 371
f 371 380 379
f 371 379 392
f 371 392 393
f 371 393 372
f 372 393 394
f 372 394 395
f 372 395 373
f 373 395 396
f 373 396 397
f 373 397 376
f 373 376 374
f 376 397 377
f 377 397 389
f 381 386 397
f 381 397 382
f 382 397 383
f 383 397 398
f 383 398 395
f 383 395 384
f 384 395 399
f 384 399 385
f 385 399 400
f 385 400 393
f 385 393 401
f 386 391 402
f 386 402 397
f 387 390 388
f 387 389 390
f 389 397 390
f 390 402 391
f 390 397 402
f 392 403 393
f 393 403 404
f 393 404 401
f 393 400 395
f 393 395 394
f 395 398 397
f 395 397 396
f 395 400 399

