# https://github.com/mikedh/trimesh
v -0.01066477 0.01443668 0.02165802 0.54509804 0.71372549 0.60000000
v -0.01066477 0.01425253 0.02295428 0.54509804 0.71372549 0.60000000
v -0.00582961 0.01428428 0.02295428 0.54509804 0.71372549 0.60000000
v -0.00582961 0.01430333 0.02165802 0.54509804 0.71372549 0.60000000
v -0.00582961 0.01372231 -0.00044331 0.54509804 0.71372549 0.60000000
v -0.05863158 0.01420491 -0.00038130 0.54509804 0.71372549 0.60000000
v -0.05863158 0.01420491 0.00091495 0.54509804 0.71372549 0.60000000
v -0.05863158 0.01402711 0.00739919 0.54509804 0.71372549 0.60000000
v -0.05733378 0.01373818 0.01647300 0.54509804 0.71372549 0.60000000
v -0.04566509 0.01368738 0.02425054 0.54509804 0.71372549 0.60000000
v -0.05085054 0.01355721 0.02518361 0.54509804 0.71372549 0.60000000
v -0.04696289 0.01360483 0.02530172 0.54509804 0.71372549 0.60000000
v -0.04273069 0.01351911 0.02631451 0.54509804 0.71372549 0.60000000
v -0.00582961 0.01420808 0.02330566 0.54509804 0.71372549 0.60000000
v -0.00582961 -0.01633866 -0.00044331 0.54509804 0.71372549 0.60000000
v -0.05863158 0.01420173 -0.00044331 0.54509804 0.71372549 0.60000000
v -0.05992363 0.01414776 -0.00038130 0.54509804 0.71372549 0.60000000
v -0.05992363 0.01414776 0.00091495 0.54509804 0.71372549 0.60000000
v -0.06122143 0.01400171 0.00091495 0.54509804 0.71372549 0.60000000
v -0.05863158 0.01365246 0.01647300 0.54509804 0.71372549 0.60000000
v -0.05603598 0.01340163 0.02425054 0.54509804 0.71372549 0.60000000
v -0.05289486 0.01348101 0.02492081 0.54509804 0.71372549 0.60000000
v -0.05603598 0.01318573 0.02554680 0.54509804 0.71372549 0.60000000
v -0.04955274 0.01343338 0.02594837 0.54509804 0.71372549 0.60000000
v -0.04955274 0.01313810 0.02684305 0.54509804 0.71372549 0.60000000
v -0.04177170 0.01318256 0.02694049 0.54509804 0.71372549 0.60000000
v -0.03270435 0.01351276 0.02625841 0.54509804 0.71372549 0.60000000
v -0.00677138 0.01397313 0.02425054 0.54509804 0.71372549 0.60000000
v -0.00582961 0.01387153 0.02432436 0.54509804 0.71372549 0.60000000
v -0.00582961 -0.01634501 -0.00038130 0.54509804 0.71372549 0.60000000
v -0.01844006 -0.01673553 -0.00044331 0.54509804 0.71372549 0.60000000
v -0.05992363 0.01414458 -0.00044331 0.54509804 0.71372549 0.60000000
v -0.06122143 0.01403346 -0.00044331 0.54509804 0.71372549 0.60000000
v -0.06122143 0.01403346 -0.00038130 0.54509804 0.71372549 0.60000000
v -0.06058402 0.01348101 0.01456552 0.54509804 0.71372549 0.60000000
v -0.06215171 0.01374771 -0.00044331 0.54509804 0.71372549 0.60000000
v -0.06219765 0.01373183 -0.00044331 0.54509804 0.71372549 0.60000000
v -0.06219765 0.01372866 -0.00038130 0.54509804 0.71372549 0.60000000
v -0.06214022 0.01368103 0.00091495 0.54509804 0.71372549 0.60000000
v -0.05942404 0.01350958 0.01733520 0.54509804 0.71372549 0.60000000
v -0.05866029 0.01357943 0.01776925 0.54509804 0.71372549 0.60000000
v -0.05733378 0.01327145 0.02425054 0.54509804 0.71372549 0.60000000
v -0.05733378 0.01303015 0.02554680 0.54509804 0.71372549 0.60000000
v -0.05603598 0.01272853 0.02684305 0.54509804 0.71372549 0.60000000
v -0.05473818 0.01241420 0.02781746 0.54509804 0.71372549 0.60000000
v -0.05344613 0.01245548 0.02787947 0.54509804 0.71372549 0.60000000
v -0.04955274 0.01253168 0.02789423 0.54509804 0.71372549 0.60000000
v -0.04696289 0.01254438 0.02788242 0.54509804 0.71372549 0.60000000
v -0.04436730 0.01255708 0.02783813 0.54509804 0.71372549 0.60000000
v -0.04306950 0.01255390 0.02780860 0.54509804 0.71372549 0.60000000
v -0.04047964 0.01252533 0.02777908 0.54509804 0.71372549 0.60000000
v -0.03163051 0.01350323 0.02624069 0.54509804 0.71372549 0.60000000
v -0.00677138 0.01361118 0.02501235 0.54509804 0.71372549 0.60000000
v -0.00582961 0.01358261 0.02497987 0.54509804 0.71372549 0.60000000
v -0.00582961 -0.01745308 0.01388048 0.54509804 0.71372549 0.60000000
v -0.01066477 -0.01675141 0.00221121 0.54509804 0.71372549 0.60000000
v -0.01844006 -0.01674188 -0.00038130 0.54509804 0.71372549 0.60000000
v -0.02363125 -0.01679586 -0.00044331 0.54509804 0.71372549 0.60000000
v -0.06164063 0.01331590 0.00869545 0.54509804 0.71372549 0.60000000
v -0.06092282 0.01249358 0.02036177 0.54509804 0.71372549 0.60000000
v -0.06080797 0.01239515 0.02165802 0.54509804 0.71372549 0.60000000
v -0.05992363 0.01293173 0.02165802 0.54509804 0.71372549 0.60000000
v -0.05863158 0.01329686 0.02165802 0.54509804 0.71372549 0.60000000
v -0.06188756 0.01348736 0.00556258 0.54509804 0.71372549 0.60000000
v -0.06223211 0.01370008 -0.00044331 0.54509804 0.71372549 0.60000000
v -0.06284655 0.01293490 -0.00044331 0.54509804 0.71372549 0.60000000
v -0.06284655 0.01292855 -0.00038130 0.54509804 0.71372549 0.60000000
v -0.05863158 0.01310318 0.02295428 0.54509804 0.71372549 0.60000000
v -0.05863158 0.01289998 0.02425054 0.54509804 0.71372549 0.60000000
v -0.05870049 0.01250628 0.02560585 0.54509804 0.71372549 0.60000000
v -0.05831574 0.01232530 0.02644148 0.54509804 0.71372549 0.60000000
v -0.05730507 0.01248723 0.02686372 0.54509804 0.71372549 0.60000000
v -0.05685716 0.01225545 0.02758419 0.54509804 0.71372549 0.60000000
v -0.05603598 0.01233483 0.02769345 0.54509804 0.71372549 0.60000000
v -0.05473818 0.01176968 0.02846411 0.54509804 0.71372549 0.60000000
v -0.05344613 0.01182048 0.02852907 0.54509804 0.71372549 0.60000000
v -0.04825495 0.01253803 0.02788833 0.54509804 0.71372549 0.60000000
v -0.05085054 0.01177920 0.02854088 0.54509804 0.71372549 0.60000000
v -0.04955274 0.01174110 0.02854384 0.54509804 0.71372549 0.60000000
v -0.03918185 0.01250945 0.02774069 0.54509804 0.71372549 0.60000000
v -0.02233346 0.01339845 0.02606648 0.54509804 0.71372549 0.60000000
v -0.02363125 0.01341433 0.02609306 0.54509804 0.71372549 0.60000000
v -0.04696289 0.01161093 0.02853203 0.54509804 0.71372549 0.60000000
v -0.03788405 0.01248723 0.02769049 0.54509804 0.71372549 0.60000000
v -0.03658625 0.01243643 0.02765801 0.54509804 0.71372549 0.60000000
v -0.00582961 0.01355086 0.02499759 0.54509804 0.71372549 0.60000000
v -0.03173387 0.01222053 0.02751923 0.54509804 0.71372549 0.60000000
v -0.00582961 -0.01741498 0.02001039 0.54509804 0.71372549 0.60000000
v -0.01109545 -0.01769438 0.01731453 0.54509804 0.71372549 0.60000000
v -0.01109545 -0.01769438 0.01691591 0.54509804 0.71372549 0.60000000
v -0.02363125 -0.01767851 0.01418461 0.54509804 0.71372549 0.60000000
v -0.01195682 -0.01678951 0.00221121 0.54509804 0.71372549 0.60000000
v -0.03270435 -0.01691968 0.00091495 0.54509804 0.71372549 0.60000000
v -0.03140655 -0.01680856 -0.00044331 0.54509804 0.71372549 0.60000000
v -0.06221488 0.01266820 0.00869545 0.54509804 0.71372549 0.60000000
v -0.06188181 0.01219195 0.01460981 0.54509804 0.71372549 0.60000000
v -0.06134776 0.01152838 0.02165802 0.54509804 0.71372549 0.60000000
v -0.06068164 0.01228085 0.02272102 0.54509804 0.71372549 0.60000000
v -0.06056679 0.01216973 0.02358322 0.54509804 0.71372549 0.60000000
v -0.06004996 0.01255390 0.02307239 0.54509804 0.71372549 0.60000000
v -0.06321406 0.01228720 -0.00044331 0.54509804 0.71372549 0.60000000
v -0.06321406 0.01228085 -0.00038130 0.54509804 0.71372549 0.60000000
v -0.06285803 0.01271265 0.00092677 0.54509804 0.71372549 0.60000000
v -0.05972265 0.01242373 0.02425054 0.54509804 0.71372549 0.60000000
v -0.05944701 0.01229038 0.02521314 0.54509804 0.71372549 0.60000000
v -0.05918285 0.01211575 0.02607829 0.54509804 0.71372549 0.60000000
v -0.05771853 0.01201733 0.02730664 0.54509804 0.71372549 0.60000000
v -0.05721319 0.01145535 0.02808616 0.54509804 0.71372549 0.60000000
v -0.05670785 0.01089337 0.02879777 0.54509804 0.71372549 0.60000000
v -0.05603598 0.01163315 0.02834010 0.54509804 0.71372549 0.60000000
v -0.05473818 0.01111880 0.02892179 0.54509804 0.71372549 0.60000000
v -0.05603598 0.01098545 0.02885388 0.54509804 0.71372549 0.60000000
v -0.05344613 0.01117278 0.02893655 0.54509804 0.71372549 0.60000000
v -0.05085054 0.01113150 0.02890112 0.54509804 0.71372549 0.60000000
v -0.04955274 0.01109340 0.02888340 0.54509804 0.71372549 0.60000000
v -0.04614172 0.01092830 0.02880663 0.54509804 0.71372549 0.60000000
v -0.04047964 0.01152838 0.02826628 0.54509804 0.71372549 0.60000000
v -0.00677138 0.01282695 0.02539916 0.54509804 0.71372549 0.60000000
v -0.00582961 0.01289998 0.02527219 0.54509804 0.71372549 0.60000000
v -0.01455242 0.01231895 0.02627022 0.54509804 0.71372549 0.60000000
v -0.01357045 0.01225228 0.02623774 0.54509804 0.71372549 0.60000000
v -0.03010875 0.01142678 0.02764620 0.54509804 0.71372549 0.60000000
v -0.03010875 0.01207765 0.02745723 0.54509804 0.71372549 0.60000000
v -0.00582961 -0.01741181 0.02036177 0.54509804 0.71372549 0.60000000
v -0.01123327 -0.01765946 0.02233716 0.54509804 0.71372549 0.60000000
v -0.02233346 -0.01799284 0.02165802 0.54509804 0.71372549 0.60000000
v -0.03400214 -0.01793886 0.01906551 0.54509804 0.71372549 0.60000000
v -0.02492331 -0.01768486 0.01421414 0.54509804 0.71372549 0.60000000
v -0.03270435 -0.01680856 -0.00044331 0.54509804 0.71372549 0.60000000
v -0.04306950 -0.01777059 0.01647300 0.54509804 0.71372549 0.60000000
v -0.05085054 -0.01741181 0.01128797 0.54509804 0.71372549 0.60000000
v -0.05085054 -0.01733243 0.00999171 0.54509804 0.71372549 0.60000000
v -0.05344613 -0.01659266 -0.00038130 0.54509804 0.71372549 0.60000000
v -0.06317961 0.01220783 0.00050157 0.54509804 0.71372549 0.60000000
v -0.06172103 0.01175380 0.01776925 0.54509804 0.71372549 0.60000000
v -0.06315664 0.01207448 0.00136672 0.54509804 0.71372549 0.60000000
v -0.06268002 0.01152838 0.00869545 0.54509804 0.71372549 0.60000000
v -0.06098024 0.01165538 0.02307239 0.54509804 0.71372549 0.60000000
v -0.06150855 0.01152838 0.02036177 0.54509804 0.71372549 0.60000000
v -0.06152004 0.01023297 0.02295428 0.54509804 0.71372549 0.60000000
v -0.06081945 0.01130613 0.02425054 0.54509804 0.71372549 0.60000000
v -0.06065866 0.01102037 0.02508321 0.54509804 0.71372549 0.60000000
v -0.05994660 0.01156965 0.02558223 0.54509804 0.71372549 0.60000000
v -0.06322555 0.01224275 -0.00044331 0.54509804 0.71372549 0.60000000
v -0.05957909 0.01125215 0.02651530 0.54509804 0.71372549 0.60000000
v -0.05872920 0.01163315 0.02691097 0.54509804 0.71372549 0.60000000
v -0.05827554 0.01115373 0.02772002 0.54509804 0.71372549 0.60000000
v -0.05759219 0.01023297 0.02859699 0.54509804 0.71372549 0.60000000
v -0.05694329 0.01023297 0.02889817 0.54509804 0.71372549 0.60000000
v -0.05603598 0.01023297 0.02912258 0.54509804 0.71372549 0.60000000
v -0.05473818 0.01023297 0.02924954 0.54509804 0.71372549 0.60000000
v -0.05344613 0.01023297 0.02923774 0.54509804 0.71372549 0.60000000
v -0.05085054 0.01023297 0.02916687 0.54509804 0.71372549 0.60000000
v -0.04955274 0.01023297 0.02911962 0.54509804 0.71372549 0.60000000
v -0.04955274 0.00893757 0.02933222 0.54509804 0.71372549 0.60000000
v -0.04569380 0.01027425 0.02887750 0.54509804 0.71372549 0.60000000
v -0.02881670 0.01126485 0.02760782 0.54509804 0.71372549 0.60000000
v -0.00582961 0.01152838 0.02577121 0.54509804 0.71372549 0.60000000
v -0.01455242 0.01152838 0.02647101 0.54509804 0.71372549 0.60000000
v -0.01195682 0.01136963 0.02629975 0.54509804 0.71372549 0.60000000
v -0.02233346 0.01152838 0.02708518 0.54509804 0.71372549 0.60000000
v -0.00582961 -0.01738323 0.02165802 0.54509804 0.71372549 0.60000000
v -0.00582961 -0.01709431 0.02260586 0.54509804 0.71372549 0.60000000
v -0.00582961 -0.01697048 0.02295428 0.54509804 0.71372549 0.60000000
v -0.02363125 -0.01774836 0.02503892 0.54509804 0.71372549 0.60000000
v -0.02363125 -0.01791346 0.02425054 0.54509804 0.71372549 0.60000000
v -0.03918185 -0.01793886 0.02425054 0.54509804 0.71372549 0.60000000
v -0.04566509 -0.01798649 0.02295428 0.54509804 0.71372549 0.60000000
v -0.04696289 -0.01798649 0.02295428 0.54509804 0.71372549 0.60000000
v -0.04696289 -0.01794839 0.02165802 0.54509804 0.71372549 0.60000000
v -0.05349781 -0.01658631 -0.00044331 0.54509804 0.71372549 0.60000000
v -0.05291208 -0.01765311 0.01834504 0.54509804 0.71372549 0.60000000
v -0.05539283 -0.01764041 0.01970921 0.54509804 0.71372549 0.60000000
v -0.05733378 -0.01657361 0.00091495 0.54509804 0.71372549 0.60000000
v -0.05733378 -0.01650058 -0.00044331 0.54509804 0.71372549 0.60000000
v -0.06192775 0.01110610 0.01776925 0.54509804 0.71372549 0.60000000
v -0.06334614 0.01152838 -0.00044331 0.54509804 0.71372549 0.60000000
v -0.06317387 0.01092513 0.00306751 0.54509804 0.71372549 0.60000000
v -0.06308199 0.01142678 0.00350156 0.54509804 0.71372549 0.60000000
v -0.06300734 0.01023297 0.00610294 0.54509804 0.71372549 0.60000000
v -0.06280635 0.01023297 0.00869545 0.54509804 0.71372549 0.60000000
v -0.06203686 0.01023297 0.01776925 0.54509804 0.71372549 0.60000000
v -0.06188756 0.01093148 0.01854287 0.54509804 0.71372549 0.60000000
v -0.06122143 0.01023297 0.02425054 0.54509804 0.71372549 0.60000000
v -0.06168082 0.01023297 0.02165802 0.54509804 0.71372549 0.60000000
v -0.06168082 0.00893757 0.02295428 0.54509804 0.71372549 0.60000000
v -0.06142241 0.00893757 0.02425054 0.54509804 0.71372549 0.60000000
v -0.06075055 0.01011550 0.02552908 0.54509804 0.71372549 0.60000000
v -0.06044046 0.01046792 0.02594837 0.54509804 0.71372549 0.60000000
v -0.05989492 0.01010915 0.02679286 0.54509804 0.71372549 0.60000000
v -0.05914266 0.01061715 0.02738046 0.54509804 0.71372549 0.60000000
v -0.05867752 0.01020440 0.02789423 0.54509804 0.71372549 0.60000000
v -0.05789654 0.00893757 0.02874758 0.54509804 0.71372549 0.60000000
v -0.05724764 0.00893757 0.02902514 0.54509804 0.71372549 0.60000000
v -0.05603598 0.00893757 0.02938537 0.54509804 0.71372549 0.60000000
v -0.05473818 0.00893757 0.02952415 0.54509804 0.71372549 0.60000000
v -0.05085054 0.00893757 0.02939718 0.54509804 0.71372549 0.60000000
v -0.05344613 0.00893757 0.02948281 0.54509804 0.71372549 0.60000000
v -0.04047964 0.01023297 0.02853793 0.54509804 0.71372549 0.60000000
v -0.04955274 0.00763899 0.02942671 0.54509804 0.71372549 0.60000000
v -0.02881670 0.01023297 0.02776136 0.54509804 0.71372549 0.60000000
v -0.01092892 0.01115373 0.02625250 0.54509804 0.71372549 0.60000000
v -0.00582961 0.01023297 0.02595132 0.54509804 0.71372549 0.60000000
v -0.00582961 -0.01662123 0.02353597 0.54509804 0.71372549 0.60000000
v -0.00936697 -0.01669743 0.02413538 0.54509804 0.71372549 0.60000000
v -0.03788405 -0.01780869 0.02516589 0.54509804 0.71372549 0.60000000
v -0.01844006 -0.01670696 0.02527219 0.54509804 0.71372549 0.60000000
v -0.01973786 -0.01588146 0.02595428 0.54509804 0.71372549 0.60000000
v -0.03529420 -0.01678633 0.02648577 0.54509804 0.71372549 0.60000000
v -0.05473818 -0.01662758 0.02774660 0.54509804 0.71372549 0.60000000
v -0.04534926 -0.01775154 0.02509798 0.54509804 0.71372549 0.60000000
v -0.04896701 -0.01764676 0.02495329 0.54509804 0.71372549 0.60000000
v -0.05412948 -0.01764358 0.02360979 0.54509804 0.71372549 0.60000000
v -0.05539283 -0.01764041 0.01980665 0.54509804 0.71372549 0.60000000
v -0.05590965 -0.01759278 0.02028795 0.54509804 0.71372549 0.60000000
v -0.06251923 -0.01663393 0.00999171 0.54509804 0.71372549 0.60000000
v -0.05992363 -0.01661806 0.00480668 0.54509804 0.71372549 0.60000000
v -0.05863158 -0.01649423 0.00091495 0.54509804 0.71372549 0.60000000
v -0.05862009 -0.01643073 -0.00029272 0.54509804 0.71372549 0.60000000
v -0.05856841 -0.01642438 -0.00044331 0.54509804 0.71372549 0.60000000
v -0.06347247 0.01023297 -0.00044331 0.54509804 0.71372549 0.60000000
v -0.06349545 0.00893757 0.00091495 0.54509804 0.71372549 0.60000000
v -0.06310496 0.01023297 0.00480668 0.54509804 0.71372549 0.60000000
v -0.06310496 0.00893757 0.00610294 0.54509804 0.71372549 0.60000000
v -0.06235844 0.00893757 0.01517378 0.54509804 0.71372549 0.60000000
v -0.06188756 0.00842322 0.02125940 0.54509804 0.71372549 0.60000000
v -0.06093431 0.00893757 0.02554680 0.54509804 0.71372549 0.60000000
v -0.06057827 0.00960432 0.02620231 0.54509804 0.71372549 0.60000000
v -0.06185884 0.00763899 0.02212751 0.54509804 0.71372549 0.60000000
v -0.06176122 0.00763899 0.02295428 0.54509804 0.71372549 0.60000000
v -0.06150281 0.00763899 0.02425054 0.54509804 0.71372549 0.60000000
v -0.05934938 0.00975355 0.02755762 0.54509804 0.71372549 0.60000000
v -0.05863158 0.00893757 0.02823675 0.54509804 0.71372549 0.60000000
v -0.05797694 0.00824859 0.02878596 0.54509804 0.71372549 0.60000000
v -0.05603598 0.00763899 0.02947100 0.54509804 0.71372549 0.60000000
v -0.05746011 0.00774694 0.02903695 0.54509804 0.71372549 0.60000000
v -0.05473818 0.00763899 0.02961569 0.54509804 0.71372549 0.60000000
v -0.05344613 0.00763899 0.02960092 0.54509804 0.71372549 0.60000000
v -0.05085054 0.00763899 0.02948577 0.54509804 0.71372549 0.60000000
v -0.04825495 0.00763899 0.02933222 0.54509804 0.71372549 0.60000000
v -0.05344613 0.00634359 0.02963931 0.54509804 0.71372549 0.60000000
v -0.05344613 0.00504819 0.02965998 0.54509804 0.71372549 0.60000000
v -0.05344613 0.00374961 0.02967179 0.54509804 0.71372549 0.60000000
v -0.05344613 0.00115563 0.02968065 0.54509804 0.71372549 0.60000000
v -0.05344613 -0.00013977 0.02968360 0.54509804 0.71372549 0.60000000
v -0.04955274 -0.01050934 0.02945624 0.54509804 0.71372549 0.60000000
v -0.03948620 -0.00973464 0.02881844 0.54509804 0.71372549 0.60000000
v -0.04089310 0.00714687 0.02880959 0.54509804 0.71372549 0.60000000
v -0.02751890 0.00893757 0.02770526 0.54509804 0.71372549 0.60000000
v -0.01195682 0.01023297 0.02644148 0.54509804 0.71372549 0.60000000
v -0.00773611 0.00763899 0.02617278 0.54509804 0.71372549 0.60000000
v -0.00582961 0.00634359 0.02601924 0.54509804 0.71372549 0.60000000
v -0.00582961 -0.01648788 0.02373971 0.54509804 0.71372549 0.60000000
v -0.00582961 -0.01569413 0.02418853 0.54509804 0.71372549 0.60000000
v -0.00936697 -0.01569413 0.02466688 0.54509804 0.71372549 0.60000000
v -0.05473818 -0.01704351 0.02684305 0.54509804 0.71372549 0.60000000
v -0.01973786 -0.01523376 0.02627908 0.54509804 0.71372549 0.60000000
v -0.05344613 -0.01569413 0.02820132 0.54509804 0.71372549 0.60000000
v -0.05473818 -0.01569413 0.02826037 0.54509804 0.71372549 0.60000000
v -0.05565124 -0.01649106 0.02760191 0.54509804 0.71372549 0.60000000
v -0.05733378 -0.01670378 0.02664227 0.54509804 0.71372549 0.60000000
v -0.05733378 -0.01724353 0.02554680 0.54509804 0.71372549 0.60000000
v -0.05603598 -0.01753246 0.02165802 0.54509804 0.71372549 0.60000000
v -0.05992363 -0.01695143 0.02165802 0.54509804 0.71372549 0.60000000
v -0.06216319 -0.01642756 0.01860783 0.54509804 0.71372549 0.60000000
v -0.06321981 -0.01638946 0.01073580 0.54509804 0.71372549 0.60000000
v -0.06323129 -0.01639898 0.00999171 0.54509804 0.71372549 0.60000000
v -0.06319684 -0.01637041 0.00924761 0.54509804 0.71372549 0.60000000
v -0.06190478 -0.01636406 0.00277519 0.54509804 0.71372549 0.60000000
v -0.06122143 -0.01602116 -0.00038130 0.54509804 0.71372549 0.60000000
v -0.06122143 -0.01600211 -0.00044331 0.54509804 0.71372549 0.60000000
v -0.06356435 0.00887407 -0.00044331 0.54509804 0.71372549 0.60000000
v -0.06355861 0.00893757 -0.00038130 0.54509804 0.71372549 0.60000000
v -0.06448889 -0.01371293 0.00421022 0.54509804 0.71372549 0.60000000
v -0.06324278 -0.01361133 0.02000153 0.54509804 0.71372549 0.60000000
v -0.06101470 0.00763899 0.02554680 0.54509804 0.71372549 0.60000000
v -0.06060699 0.00893757 0.02624069 0.54509804 0.71372549 0.60000000
v -0.06007294 0.00893757 0.02688735 0.54509804 0.71372549 0.60000000
v -0.05942404 0.00893757 0.02763144 0.54509804 0.71372549 0.60000000
v -0.06160043 0.00245421 0.02425054 0.54509804 0.71372549 0.60000000
v -0.06129608 -0.00402598 0.02554680 0.54509804 0.71372549 0.60000000
v -0.06105490 0.00634359 0.02554680 0.54509804 0.71372549 0.60000000
v -0.06188181 -0.00184475 0.02363932 0.54509804 0.71372549 0.60000000
v -0.05853395 0.00774694 0.02842868 0.54509804 0.71372549 0.60000000
v -0.05803436 0.00738499 0.02882140 0.54509804 0.71372549 0.60000000
v -0.05733378 0.00634359 0.02911372 0.54509804 0.71372549 0.60000000
v -0.05603598 0.00634359 0.02949462 0.54509804 0.71372549 0.60000000
v -0.05473818 0.00374961 0.02968655 0.54509804 0.71372549 0.60000000
v -0.05473818 -0.00013977 0.02972199 0.54509804 0.71372549 0.60000000
v -0.05344613 -0.00143518 0.02968065 0.54509804 0.71372549 0.60000000
v -0.04177170 -0.01036647 0.02893065 0.54509804 0.71372549 0.60000000
v -0.04047964 -0.01014422 0.02886864 0.54509804 0.71372549 0.60000000
v -0.03948620 -0.00996959 0.02881844 0.54509804 0.71372549 0.60000000
v -0.05344613 -0.01050934 0.02964226 0.54509804 0.71372549 0.60000000
v -0.02290770 -0.00982037 0.02750742 0.54509804 0.71372549 0.60000000
v -0.00739156 0.00320033 0.02619935 0.54509804 0.71372549 0.60000000
v -0.00582961 0.00373374 0.02603991 0.54509804 0.71372549 0.60000000
v -0.00582961 -0.01439555 0.02464030 0.54509804 0.71372549 0.60000000
v -0.00718483 -0.01395423 0.02498873 0.54509804 0.71372549 0.60000000
v -0.00582961 -0.01050934 0.02584503 0.54509804 0.71372549 0.60000000
v -0.01325462 -0.01050934 0.02658026 0.54509804 0.71372549 0.60000000
v -0.02363125 -0.01004579 0.02754876 0.54509804 0.71372549 0.60000000
v -0.05473818 -0.01050934 0.02955368 0.54509804 0.71372549 0.60000000
v -0.05613935 -0.01062047 0.02913144 0.54509804 0.71372549 0.60000000
v -0.05702369 -0.01026169 0.02894541 0.54509804 0.71372549 0.60000000
v -0.05606470 -0.01570366 0.02777022 0.54509804 0.71372549 0.60000000
v -0.05732804 -0.01570366 0.02727711 0.54509804 0.71372549 0.60000000
v -0.05837317 -0.01656408 0.02645329 0.54509804 0.71372549 0.60000000
v -0.05873494 -0.01678951 0.02564719 0.54509804 0.71372549 0.60000000
v -0.05863158 -0.01703716 0.02425054 0.54509804 0.71372549 0.60000000
v -0.06002700 -0.01671966 0.02304877 0.54509804 0.71372549 0.60000000
v -0.06075629 -0.01650376 0.02267968 0.54509804 0.71372549 0.60000000
v -0.06204834 -0.01524963 0.02295428 0.54509804 0.71372549 0.60000000
v -0.06221488 -0.01543696 0.02165802 0.54509804 0.71372549 0.60000000
v -0.06318535 -0.01517978 0.01853401 0.54509804 0.71372549 0.60000000
v -0.06326575 -0.01530043 0.01776925 0.54509804 0.71372549 0.60000000
v -0.06339782 -0.01541473 0.01647300 0.54509804 0.71372549 0.60000000
v -0.06358732 -0.01569413 0.00999171 0.54509804 0.71372549 0.60000000
v -0.06448889 -0.01383358 0.00409507 0.54509804 0.71372549 0.60000000
v -0.06348396 -0.01529091 0.00351042 0.54509804 0.71372549 0.60000000
v -0.06324852 -0.01518931 0.00002618 0.54509804 0.71372549 0.60000000
v -0.06251923 -0.01575446 0.00091495 0.54509804 0.71372549 0.60000000
v -0.06258814 -0.01551316 -0.00039607 0.54509804 0.71372549 0.60000000
v -0.06126737 -0.01598623 -0.00044331 0.54509804 0.71372549 0.60000000
v -0.06257091 -0.01550681 -0.00044331 0.54509804 0.71372549 0.60000000
v -0.06361030 0.00757867 -0.00044331 0.54509804 0.71372549 0.60000000
v -0.06448889 -0.01371293 0.00409507 0.54509804 0.71372549 0.60000000
v -0.06448889 -0.01383358 0.00421022 0.54509804 0.71372549 0.60000000
v -0.06324278 -0.01400820 0.02000153 0.54509804 0.71372549 0.60000000
v -0.06267427 -0.01439873 0.02165802 0.54509804 0.71372549 0.60000000
v -0.06064144 0.00763899 0.02629089 0.54509804 0.71372549 0.60000000
v -0.06013036 0.00763899 0.02694049 0.54509804 0.71372549 0.60000000
v -0.05948146 0.00763899 0.02769049 0.54509804 0.71372549 0.60000000
v -0.06079075 -0.00402598 0.02650349 0.54509804 0.71372549 0.60000000
v -0.06214597 -0.01437015 0.02306353 0.54509804 0.71372549 0.60000000
v -0.06189904 -0.01509723 0.02363637 0.54509804 0.71372549 0.60000000
v -0.05867752 0.00634359 0.02834896 0.54509804 0.71372549 0.60000000
v -0.05874068 0.00115563 0.02841687 0.54509804 0.71372549 0.60000000
v -0.05812050 -0.00013977 0.02887455 0.54509804 0.71372549 0.60000000
v -0.05733378 -0.00013977 0.02921707 0.54509804 0.71372549 0.60000000
v -0.05603598 -0.00013977 0.02959206 0.54509804 0.71372549 0.60000000
v -0.05473818 -0.00921077 0.02961273 0.54509804 0.71372549 0.60000000
v -0.02290770 -0.00990292 0.02750742 0.54509804 0.71372549 0.60000000
v -0.00739156 0.00303206 0.02619935 0.54509804 0.71372549 0.60000000
v -0.00582961 0.00345116 0.02603695 0.54509804 0.71372549 0.60000000
v -0.00582961 0.00247643 0.02602514 0.54509804 0.71372549 0.60000000
v -0.00964835 -0.01008389 0.02626727 0.54509804 0.71372549 0.60000000
v -0.05603598 -0.00921077 0.02940014 0.54509804 0.71372549 0.60000000
v -0.05725339 -0.00921077 0.02902514 0.54509804 0.71372549 0.60000000
v -0.05790228 -0.00921077 0.02874758 0.54509804 0.71372549 0.60000000
v -0.05873494 -0.01576081 0.02659502 0.54509804 0.71372549 0.60000000
v -0.05689735 -0.01527821 0.02758124 0.54509804 0.71372549 0.60000000
v -0.05924028 -0.01623706 0.02614325 0.54509804 0.71372549 0.60000000
v -0.05946424 -0.01649423 0.02528105 0.54509804 0.71372549 0.60000000
v -0.06119846 -0.01597036 0.02304877 0.54509804 0.71372549 0.60000000
v -0.06299585 -0.01442413 0.02040311 0.54509804 0.71372549 0.60000000
v -0.06310496 -0.01487180 0.01939622 0.54509804 0.71372549 0.60000000
v -0.06349545 -0.01439873 0.01647300 0.54509804 0.71372549 0.60000000
v -0.06379405 -0.00661996 -0.00044331 0.54509804 0.71372549 0.60000000
v -0.06373089 -0.00791536 -0.00044331 0.54509804 0.71372549 0.60000000
v -0.06322555 -0.01269692 -0.00044331 0.54509804 0.71372549 0.60000000
v -0.06297288 -0.01433205 -0.00044331 0.54509804 0.71372549 0.60000000
v -0.06371366 0.00245421 -0.00044331 0.54509804 0.71372549 0.60000000
v -0.06376534 -0.00273058 -0.00044331 0.54509804 0.71372549 0.60000000
v -0.06377683 -0.00402598 -0.00044331 0.54509804 0.71372549 0.60000000
v -0.06027392 -0.00273058 0.02713538 0.54509804 0.71372549 0.60000000
v -0.05962502 -0.00273058 0.02779679 0.54509804 0.71372549 0.60000000
v -0.06069887 -0.00791536 0.02639128 0.54509804 0.71372549 0.60000000
v -0.06022798 -0.00791536 0.02703794 0.54509804 0.71372549 0.60000000
v -0.06028541 -0.00402598 0.02715309 0.54509804 0.71372549 0.60000000
v -0.05938384 -0.01537346 0.02626431 0.54509804 0.71372549 0.60000000
v -0.05954463 -0.00921077 0.02773183 0.54509804 0.71372549 0.60000000
v -0.06066441 -0.00890597 0.02634404 0.54509804 0.71372549 0.60000000
v -0.05878088 -0.00402598 0.02845821 0.54509804 0.71372549 0.60000000
v -0.05963651 -0.00402598 0.02781156 0.54509804 0.71372549 0.60000000
v -0.05813198 -0.00402598 0.02887455 0.54509804 0.71372549 0.60000000
v -0.05733378 -0.00402598 0.02919639 0.54509804 0.71372549 0.60000000
v -0.05603598 -0.00402598 0.02952120 0.54509804 0.71372549 0.60000000
v -0.05806307 -0.00766136 0.02883911 0.54509804 0.71372549 0.60000000
v -0.05863158 -0.00921077 0.02834010 0.54509804 0.71372549 0.60000000
v -0.05941830 -0.01006484 0.02761372 0.54509804 0.71372549 0.60000000
v -0.05957909 -0.00791536 0.02777317 0.54509804 0.71372549 0.60000000
v -0.05855118 -0.00802332 0.02849364 0.54509804 0.71372549 0.60000000
f 1 2 3
f 1 3 4
f 1 4 5
f 1 5 6
f 1 6 7
f 1 7 8
f 1 8 9
f 1 9 10
f 1 10 11
f 1 11 12
f 1 12 13
f 1 13 2
f 2 13 3
f 3 14 29
f 3 29 54
f 3 54 86
f 3 86 119
f 3 119 158
f 3 158 203
f 3 203 252
f 3 252 297
f 3 297 345
f 3 345 346
f 3 346 300
f 3 300 298
f 3 298 254
f 3 254 253
f 3 253 204
f 3 204 164
f 3 164 163
f 3 163 162
f 3 162 124
f 3 124 88
f 3 88 55
f 3 55 30
f 3 30 15
f 3 15 5
f 3 5 4
f 3 13 14
f 5 15 31
f 5 31 58
f 5 58 94
f 5 94 129
f 5 129 171
f 5 171 175
f 5 175 220
f 5 220 271
f 5 271 324
f 5 324 325
f 5 325 362
f 5 362 361
f 5 361 360
f 5 360 359
f 5 359 365
f 5 365 364
f 5 364 363
f 5 363 326
f 5 326 272
f 5 272 221
f 5 221 177
f 5 177 144
f 5 144 101
f 5 101 66
f 5 66 65
f 5 65 37
f 5 37 36
f 5 36 33
f 5 33 32
f 5 32 16
f 5 16 6
f 6 16 32
f 6 32 17
f 6 17 18
f 6 18 7
f 7 18 8
f 8 18 19
f 8 19 20
f 8 20 9
f 9 20 21
f 9 21 11
f 9 11 10
f 11 22 23
f 11 23 24
f 11 24 13
f 11 13 12
f 11 21 22
f 13 24 25
f 13 25 26
f 13 26 27
f 13 27 28
f 13 28 14
f 14 28 29
f 15 30 57
f 15 57 31
f 17 32 33
f 17 33 34
f 17 34 18
f 18 34 19
f 19 35 20
f 19 34 36
f 19 36 37
f 19 37 38
f 19 38 39
f 19 39 35
f 20 35 40
f 20 40 41
f 20 41 21
f 21 41 42
f 21 42 23
f 21 23 22
f 23 42 43
f 23 43 44
f 23 44 25
f 23 25 24
f 25 45 46
f 25 46 47
f 25 47 26
f 25 44 45
f 26 47 48
f 26 48 49
f 26 49 50
f 26 50 51
f 26 51 27
f 27 52 28
f 27 51 52
f 28 53 54
f 28 54 29
f 28 52 53
f 30 55 56
f 30 56 57
f 31 57 58
f 33 36 34
f 35 59 60
f 35 60 61
f 35 61 62
f 35 62 63
f 35 63 40
f 35 39 64
f 35 64 59
f 37 65 38
f 38 65 39
f 39 65 66
f 39 66 67
f 39 67 64
f 40 63 41
f 41 63 42
f 42 63 68
f 42 68 69
f 42 69 43
f 43 69 70
f 43 70 71
f 43 71 72
f 43 72 44
f 44 72 73
f 44 73 74
f 44 74 45
f 45 75 76
f 45 76 46
f 45 74 75
f 46 76 47
f 47 77 48
f 47 76 77
f 48 77 76
f 48 76 78
f 48 78 49
f 49 51 50
f 49 78 79
f 49 79 51
f 51 80 81
f 51 81 82
f 51 82 52
f 51 79 83
f 51 83 80
f 52 82 53
f 53 82 81
f 53 81 84
f 53 84 85
f 53 85 54
f 54 85 87
f 54 87 86
f 55 88 89
f 55 89 90
f 55 90 91
f 55 91 57
f 55 57 92
f 55 92 56
f 56 92 57
f 57 91 58
f 58 91 93
f 58 93 94
f 59 64 60
f 60 64 95
f 60 95 96
f 60 96 97
f 60 97 61
f 61 97 98
f 61 98 62
f 62 98 99
f 62 99 100
f 62 100 69
f 62 69 68
f 62 68 63
f 64 67 95
f 66 101 102
f 66 102 67
f 67 102 103
f 67 103 95
f 69 100 104
f 69 104 105
f 69 105 70
f 70 105 106
f 70 106 71
f 71 107 73
f 71 73 72
f 71 106 107
f 73 107 108
f 73 108 109
f 73 109 110
f 73 110 74
f 74 110 75
f 75 111 76
f 75 110 112
f 75 112 111
f 76 111 113
f 76 113 78
f 78 113 79
f 79 113 114
f 79 114 115
f 79 115 83
f 80 83 85
f 80 85 84
f 80 84 81
f 83 115 116
f 83 116 117
f 83 117 85
f 85 117 87
f 86 118 119
f 86 87 120
f 86 120 121
f 86 121 118
f 87 122 123
f 87 123 121
f 87 121 120
f 87 117 116
f 87 116 122
f 88 124 125
f 88 125 89
f 89 125 126
f 89 126 90
f 90 126 91
f 91 126 127
f 91 127 128
f 91 128 93
f 93 129 94
f 93 128 127
f 93 127 130
f 93 130 131
f 93 131 132
f 93 132 133
f 93 133 129
f 95 103 134
f 95 134 96
f 96 135 97
f 96 134 136
f 96 136 137
f 96 137 135
f 97 138 98
f 97 135 139
f 97 139 185
f 97 185 140
f 97 140 138
f 98 138 99
f 99 138 141
f 99 141 142
f 99 142 143
f 99 143 106
f 99 106 105
f 99 105 104
f 99 104 100
f 101 144 102
f 102 144 134
f 102 134 103
f 106 143 145
f 106 145 146
f 106 146 107
f 107 146 147
f 107 147 108
f 108 147 109
f 109 147 148
f 109 148 149
f 109 149 150
f 109 150 112
f 109 112 110
f 111 151 113
f 111 112 151
f 112 150 151
f 113 151 152
f 113 152 114
f 114 152 115
f 115 152 153
f 115 153 116
f 116 153 154
f 116 154 155
f 116 155 156
f 116 156 157
f 116 157 122
f 118 158 119
f 118 121 158
f 121 159 160
f 121 160 158
f 121 123 161
f 121 161 159
f 122 157 123
f 123 157 161
f 124 162 125
f 125 162 163
f 125 163 164
f 125 164 165
f 125 165 166
f 125 166 126
f 126 166 167
f 126 167 168
f 126 168 169
f 126 169 127
f 127 169 170
f 127 170 130
f 129 133 171
f 130 170 131
f 131 170 172
f 131 172 173
f 131 173 174
f 131 174 175
f 131 175 132
f 132 175 133
f 133 175 171
f 134 144 136
f 135 137 176
f 135 176 139
f 136 144 177
f 136 177 178
f 136 178 179
f 136 179 137
f 137 179 178
f 137 178 180
f 137 180 181
f 137 181 182
f 137 182 183
f 137 183 176
f 138 140 184
f 138 184 141
f 139 176 183
f 139 183 185
f 140 185 186
f 140 186 187
f 140 187 184
f 141 184 142
f 142 188 189
f 142 189 145
f 142 145 143
f 142 184 188
f 145 190 191
f 145 191 147
f 145 147 146
f 145 189 190
f 147 191 192
f 147 192 148
f 148 192 193
f 148 193 149
f 149 194 195
f 149 195 150
f 149 193 194
f 150 195 196
f 150 196 151
f 151 196 152
f 152 196 153
f 153 197 154
f 153 196 198
f 153 198 197
f 154 197 155
f 155 199 156
f 155 197 200
f 155 200 201
f 155 201 199
f 156 199 157
f 157 201 161
f 157 199 201
f 158 160 202
f 158 202 203
f 159 161 160
f 160 161 202
f 161 201 202
f 164 204 205
f 164 205 165
f 165 206 166
f 165 205 207
f 165 207 208
f 165 208 209
f 165 209 210
f 165 210 206
f 166 206 167
f 167 211 169
f 167 169 168
f 167 206 211
f 169 211 212
f 169 212 213
f 169 213 214
f 169 214 173
f 169 173 170
f 170 173 172
f 173 214 215
f 173 215 216
f 173 216 217
f 173 217 174
f 174 218 219
f 174 219 175
f 174 217 218
f 175 219 220
f 177 221 178
f 178 221 222
f 178 222 223
f 178 223 180
f 180 223 224
f 180 224 181
f 181 225 226
f 181 226 182
f 181 224 225
f 182 226 185
f 182 185 183
f 184 187 227
f 184 227 228
f 184 228 188
f 185 226 186
f 186 229 230
f 186 230 231
f 186 231 187
f 186 226 229
f 187 231 276
f 187 276 227
f 188 228 189
f 189 228 190
f 190 232 191
f 190 228 232
f 191 232 192
f 192 232 193
f 193 232 233
f 193 233 234
f 193 234 194
f 194 235 195
f 194 234 236
f 194 236 235
f 195 235 237
f 195 237 196
f 196 237 238
f 196 238 198
f 197 198 238
f 197 238 239
f 197 239 200
f 200 240 201
f 200 239 241
f 200 241 242
f 200 242 243
f 200 243 244
f 200 244 245
f 200 245 246
f 200 246 247
f 200 247 248
f 200 248 240
f 201 249 250
f 201 250 202
f 201 240 248
f 201 248 249
f 202 250 203
f 203 251 252
f 203 250 251
f 204 253 205
f 205 253 254
f 205 254 255
f 205 255 208
f 205 208 207
f 206 210 256
f 206 256 211
f 208 255 257
f 208 257 258
f 208 258 209
f 209 258 210
f 210 258 259
f 210 259 260
f 210 260 261
f 210 261 262
f 210 262 256
f 211 256 262
f 211 262 212
f 212 262 213
f 213 262 263
f 213 263 215
f 213 215 214
f 215 263 262
f 215 262 264
f 215 264 216
f 216 264 265
f 216 265 266
f 216 266 267
f 216 267 268
f 216 268 269
f 216 269 217
f 217 219 218
f 217 269 219
f 219 269 220
f 220 270 271
f 220 269 270
f 221 272 273
f 221 273 222
f 222 273 274
f 222 274 224
f 222 224 223
f 224 274 275
f 224 275 226
f 224 226 225
f 226 275 229
f 227 276 277
f 227 277 228
f 228 277 278
f 228 278 279
f 228 279 232
f 229 275 230
f 230 275 231
f 231 280 281
f 231 281 282
f 231 282 276
f 231 275 283
f 231 283 280
f 232 279 233
f 233 284 234
f 233 279 284
f 234 285 236
f 234 284 285
f 235 236 286
f 235 286 287
f 235 287 237
f 236 285 286
f 237 288 241
f 237 241 238
f 237 287 288
f 238 241 239
f 241 288 242
f 242 288 289
f 242 289 243
f 243 289 244
f 244 289 245
f 245 289 290
f 245 290 246
f 246 291 292
f 246 292 293
f 246 293 247
f 246 290 294
f 246 294 258
f 246 258 257
f 246 257 291
f 247 293 343
f 247 343 295
f 247 295 296
f 247 296 248
f 248 296 251
f 248 251 250
f 248 250 249
f 251 296 252
f 252 296 297
f 254 298 299
f 254 299 257
f 254 257 255
f 257 299 300
f 257 300 301
f 257 301 302
f 257 302 291
f 258 294 259
f 259 294 303
f 259 303 304
f 259 304 305
f 259 305 306
f 259 306 260
f 260 306 307
f 260 307 308
f 260 308 261
f 261 308 262
f 262 308 309
f 262 309 310
f 262 310 264
f 264 310 311
f 264 311 312
f 264 312 265
f 265 313 314
f 265 314 315
f 265 315 316
f 265 316 317
f 265 317 266
f 265 312 313
f 266 317 318
f 266 318 267
f 267 318 319
f 267 319 268
f 268 319 320
f 268 320 321
f 268 321 322
f 268 322 269
f 269 322 323
f 269 323 270
f 270 324 271
f 270 323 325
f 270 325 324
f 272 326 327
f 272 327 274
f 272 274 273
f 274 327 319
f 274 319 328
f 274 328 329
f 274 329 275
f 275 329 330
f 275 330 281
f 275 281 283
f 276 282 331
f 276 331 277
f 277 331 332
f 277 332 278
f 278 332 333
f 278 333 279
f 279 333 284
f 280 283 281
f 281 334 331
f 281 331 282
f 281 330 335
f 281 335 336
f 281 336 334
f 284 333 337
f 284 337 338
f 284 338 285
f 285 339 340
f 285 340 286
f 285 338 339
f 286 340 287
f 287 340 341
f 287 341 288
f 288 341 289
f 289 342 294
f 289 294 290
f 289 341 342
f 291 302 292
f 292 302 293
f 293 302 343
f 294 342 303
f 295 343 344
f 295 344 296
f 296 344 297
f 297 344 345
f 298 300 299
f 300 346 347
f 300 347 301
f 301 347 343
f 301 343 302
f 303 342 348
f 303 348 305
f 303 305 304
f 305 348 349
f 305 349 350
f 305 350 351
f 305 351 307
f 305 307 352
f 305 352 306
f 306 352 307
f 307 351 308
f 308 351 353
f 308 353 309
f 309 353 354
f 309 354 312
f 309 312 311
f 309 311 310
f 312 354 355
f 312 355 313
f 313 355 336
f 313 336 330
f 313 330 329
f 313 329 356
f 313 356 357
f 313 357 315
f 313 315 314
f 315 357 329
f 315 329 316
f 316 329 317
f 317 329 358
f 317 358 328
f 317 328 318
f 318 328 319
f 319 327 359
f 319 359 360
f 319 360 321
f 319 321 320
f 321 360 361
f 321 361 362
f 321 362 325
f 321 325 323
f 321 323 322
f 326 363 327
f 327 363 364
f 327 364 365
f 327 365 359
f 328 358 329
f 329 357 356
f 330 336 335
f 331 366 332
f 331 334 366
f 332 366 333
f 333 366 367
f 333 367 338
f 333 338 337
f 334 336 368
f 334 368 369
f 334 369 370
f 334 370 366
f 336 355 354
f 336 354 353
f 336 353 371
f 336 371 372
f 336 372 373
f 336 373 368
f 338 374 339
f 338 367 375
f 338 375 374
f 339 376 340
f 339 374 376
f 340 376 377
f 340 377 341
f 341 377 378
f 341 378 342
f 342 378 348
f 343 347 344
f 344 347 346
f 344 346 345
f 348 378 377
f 348 377 379
f 348 379 349
f 349 379 350
f 350 379 380
f 350 380 351
f 351 380 381
f 351 381 353
f 353 381 371
f 366 370 367
f 367 370 375
f 368 373 369
f 369 373 372
f 369 372 382
f 369 382 370
f 370 382 375
f 371 381 372
f 372 381 380
f 372 380 383
f 372 383 382
f 374 383 379
f 374 379 376
f 374 375 382
f 374 382 383
f 376 379 377
f 379 383 380

