# https://github.com/mikedh/trimesh
v -0.00582387 -0.01561503 -0.00988796 0.38039216 0.78823529 0.52549020
v -0.00582387 -0.01562175 -0.00980707 0.38039216 0.78823529 0.52549020
v -0.00582387 0.01294140 -0.00988796 0.38039216 0.78823529 0.52549020
v -0.00417093 -0.01571250 -0.00988796 0.38039216 0.78823529 0.52549020
v -0.00582387 -0.01745022 0.01387878 0.38039216 0.78823529 0.52549020
v -0.00386976 -0.01769895 0.01417068 0.38039216 0.78823529 0.52549020
v -0.00582387 0.01377161 -0.00259054 0.38039216 0.78823529 0.52549020
v -0.00549468 0.01369766 -0.00418718 0.38039216 0.78823529 0.52549020
v -0.00417093 0.01385227 -0.00556577 0.38039216 0.78823529 0.52549020
v -0.00287520 0.01398000 -0.00556577 0.38039216 0.78823529 0.52549020
v 0.01181214 0.01435981 -0.00988796 0.38039216 0.78823529 0.52549020
v -0.00330944 -0.01574947 -0.00988796 0.38039216 0.78823529 0.52549020
v -0.00582387 -0.01741325 0.02036030 0.38039216 0.78823529 0.52549020
v -0.00386976 -0.01769895 0.01491625 0.38039216 0.78823529 0.52549020
v 0.00101201 -0.01793087 0.01647069 0.38039216 0.78823529 0.52549020
v -0.00028373 -0.01795103 0.01776840 0.38039216 0.78823529 0.52549020
v -0.00157946 -0.01792414 0.01906611 0.38039216 0.78823529 0.52549020
v 0.00749769 -0.01732922 0.00480536 0.38039216 0.78823529 0.52549020
v 0.00230774 -0.01778298 0.01258107 0.38039216 0.78823529 0.52549020
v -0.00582387 0.01430267 0.02165801 0.38039216 0.78823529 0.52549020
v -0.00547367 0.01383883 -0.00297387 0.38039216 0.78823529 0.52549020
v -0.00417093 0.01396991 -0.00427158 0.38039216 0.78823529 0.52549020
v 0.05705781 0.01611770 -0.00988796 0.38039216 0.78823529 0.52549020
v 0.01268063 0.01440350 -0.00988796 0.38039216 0.78823529 0.52549020
v 0.02095933 -0.01770231 0.00654971 0.38039216 0.78823529 0.52549020
v 0.03341939 -0.01579317 -0.00988796 0.38039216 0.78823529 0.52549020
v -0.00582387 -0.01738300 0.02165801 0.38039216 0.78823529 0.52549020
v -0.00369466 -0.01767878 0.01989608 0.38039216 0.78823529 0.52549020
v -0.00298726 -0.01776617 0.01896764 0.38039216 0.78823529 0.52549020
v 0.00101201 -0.01798128 0.01776840 0.38039216 0.78823529 0.52549020
v 0.00749769 -0.01801826 0.02036030 0.38039216 0.78823529 0.52549020
v 0.00089995 -0.01779306 0.02302958 0.38039216 0.78823529 0.52549020
v -0.00282617 -0.01772584 0.02034272 0.38039216 0.78823529 0.52549020
v 0.01138489 -0.01809556 0.01906611 0.38039216 0.78823529 0.52549020
v -0.00582387 0.01428586 0.02295572 0.38039216 0.78823529 0.52549020
v -0.00157946 0.01451106 0.02036030 0.38039216 0.78823529 0.52549020
v 0.05923605 0.01619164 -0.00988796 0.38039216 0.78823529 0.52549020
v 0.02136556 -0.01770231 0.00654971 0.38039216 0.78823529 0.52549020
v 0.02046204 -0.01812917 0.01906611 0.38039216 0.78823529 0.52549020
v 0.03471513 -0.01578981 -0.00988796 0.38039216 0.78823529 0.52549020
v -0.00582387 -0.01709394 0.02260404 0.38039216 0.78823529 0.52549020
v 0.00003145 -0.01772584 0.02295572 0.38039216 0.78823529 0.52549020
v 0.00034663 -0.01764181 0.02360634 0.38039216 0.78823529 0.52549020
v 0.01268063 -0.01804851 0.02036030 0.38039216 0.78823529 0.52549020
v 0.00039566 -0.01764181 0.02360634 0.38039216 0.78823529 0.52549020
v 0.02046204 -0.01799137 0.02036030 0.38039216 0.78823529 0.52549020
v -0.00582387 0.01420856 0.02330389 0.38039216 0.78823529 0.52549020
v -0.00547367 0.01429595 0.02295572 0.38039216 0.78823529 0.52549020
v 0.04249654 0.01545891 0.01776840 0.38039216 0.78823529 0.52549020
v 0.05992244 0.01608745 0.00941241 0.38039216 0.78823529 0.52549020
v 0.05805237 0.01620509 -0.00427158 0.38039216 0.78823529 0.52549020
v 0.06046174 0.01620845 -0.00945539 0.38039216 0.78823529 0.52549020
v 0.06053178 0.01620173 -0.00988796 0.38039216 0.78823529 0.52549020
v 0.04120081 -0.01573603 -0.00988796 0.38039216 0.78823529 0.52549020
v 0.04120081 -0.01577972 -0.00945539 0.38039216 0.78823529 0.52549020
v 0.04120081 -0.01589736 -0.00816120 0.38039216 0.78823529 0.52549020
v 0.05675664 -0.01572594 -0.00556577 0.38039216 0.78823529 0.52549020
v 0.04722423 -0.01767206 0.01701228 0.38039216 0.78823529 0.52549020
v 0.04722423 -0.01767206 0.01721977 0.38039216 0.78823529 0.52549020
v 0.03990508 -0.01774600 0.01872498 0.38039216 0.78823529 0.52549020
v -0.00582387 -0.01696957 0.02295572 0.38039216 0.78823529 0.52549020
v -0.00028373 -0.01657968 0.02507989 0.38039216 0.78823529 0.52549020
v -0.00016466 -0.01726872 0.02412331 0.38039216 0.78823529 0.52549020
v 0.03990508 -0.01750064 0.01937207 0.38039216 0.78823529 0.52549020
v 0.03601087 -0.01667043 0.02130633 0.38039216 0.78823529 0.52549020
v -0.00582387 0.01387244 0.02432377 0.38039216 0.78823529 0.52549020
v 0.00620195 0.01435981 0.02295572 0.38039216 0.78823529 0.52549020
v 0.02694072 0.01483037 0.02113752 0.38039216 0.78823529 0.52549020
v 0.01008916 0.01462198 0.02165801 0.38039216 0.78823529 0.52549020
v 0.04120081 0.01524379 0.01906611 0.38039216 0.78823529 0.52549020
v 0.04897522 0.01528413 0.01906611 0.38039216 0.78823529 0.52549020
v 0.05675664 0.01550260 0.01776840 0.38039216 0.78823529 0.52549020
v 0.05675664 0.01559335 0.01647069 0.38039216 0.78823529 0.52549020
v 0.06005551 0.01608745 0.00941241 0.38039216 0.78823529 0.52549020
v 0.06098704 0.01605720 -0.00988796 0.38039216 0.78823529 0.52549020
v 0.06194658 0.01568075 0.01128688 0.38039216 0.78823529 0.52549020
v 0.06194658 0.01571772 0.00610307 0.38039216 0.78823529 0.52549020
v 0.05780023 -0.01511757 -0.00988796 0.38039216 0.78823529 0.52549020
v 0.05805237 -0.01549066 -0.00686349 0.38039216 0.78823529 0.52549020
v 0.05805237 -0.01600492 -0.00038197 0.38039216 0.78823529 0.52549020
v 0.05805237 -0.01688218 0.01258107 0.38039216 0.78823529 0.52549020
v 0.05805237 -0.01693260 0.01387878 0.38039216 0.78823529 0.52549020
v 0.05546090 -0.01714099 0.01647069 0.38039216 0.78823529 0.52549020
v 0.05675664 -0.01678807 0.01776840 0.38039216 0.78823529 0.52549020
v 0.05352781 -0.01634440 0.01971672 0.38039216 0.78823529 0.52549020
v -0.00582387 -0.01662001 0.02353600 0.38039216 0.78823529 0.52549020
v 0.00073185 -0.01648893 0.02501659 0.38039216 0.78823529 0.52549020
v -0.00028373 -0.01569569 0.02539992 0.38039216 0.78823529 0.52549020
v -0.00107518 -0.01650909 0.02502011 0.38039216 0.78823529 0.52549020
v 0.05403910 -0.01576292 0.01999807 0.38039216 0.78823529 0.52549020
v -0.00582387 -0.01648557 0.02373998 0.38039216 0.78823529 0.52549020
v -0.00582387 0.01358338 0.02498142 0.38039216 0.78823529 0.52549020
v 0.04120081 0.01475979 0.02098630 0.38039216 0.78823529 0.52549020
v 0.04120081 0.01498162 0.02033920 0.38039216 0.78823529 0.52549020
v 0.05027096 0.01528077 0.01906611 0.38039216 0.78823529 0.52549020
v 0.05546090 0.01518329 0.01906611 0.38039216 0.78823529 0.52549020
v 0.05934811 0.01536816 0.01776840 0.38039216 0.78823529 0.52549020
v 0.06064384 0.01548580 0.01647069 0.38039216 0.78823529 0.52549020
v 0.05934811 0.01553286 0.01647069 0.38039216 0.78823529 0.52549020
v 0.06194658 0.01559000 0.01387878 0.38039216 0.78823529 0.52549020
v 0.06194658 0.01566394 0.01258107 0.38039216 0.78823529 0.52549020
v 0.06113412 0.01600678 -0.00988796 0.38039216 0.78823529 0.52549020
v 0.06322130 0.01514968 0.01387878 0.38039216 0.78823529 0.52549020
v 0.06318628 0.01515977 0.01258107 0.38039216 0.78823529 0.52549020
v 0.05839556 -0.01493943 -0.00988796 0.38039216 0.78823529 0.52549020
v 0.05845860 -0.01495624 -0.00974377 0.38039216 0.78823529 0.52549020
v 0.05873176 -0.01506380 -0.00887863 0.38039216 0.78823529 0.52549020
v 0.05892787 -0.01515455 -0.00816120 0.38039216 0.78823529 0.52549020
v 0.05915199 -0.01524530 -0.00686349 0.38039216 0.78823529 0.52549020
v 0.05924305 -0.01666035 0.01258107 0.38039216 0.78823529 0.52549020
v 0.05909597 -0.01663010 0.01387878 0.38039216 0.78823529 0.52549020
v 0.05675664 -0.01699646 0.01647069 0.38039216 0.78823529 0.52549020
v 0.05775120 -0.01651918 0.01776840 0.38039216 0.78823529 0.52549020
v 0.05748505 -0.01639482 0.01848232 0.38039216 0.78823529 0.52549020
v 0.05675664 -0.01646204 0.01859837 0.38039216 0.78823529 0.52549020
v 0.05546090 -0.01539319 0.01993477 0.38039216 0.78823529 0.52549020
v 0.05149665 -0.01435795 0.02083156 0.38039216 0.78823529 0.52549020
v 0.01138489 -0.00921201 0.02467546 0.38039216 0.78823529 0.52549020
v 0.00714749 -0.01008928 0.02496735 0.38039216 0.78823529 0.52549020
v -0.00582387 0.00247474 0.02602592 0.38039216 0.78823529 0.52549020
v -0.00582387 -0.01050942 0.02584304 0.38039216 0.78823529 0.52549020
v 0.05102038 -0.01390083 0.02103905 0.38039216 0.78823529 0.52549020
v 0.04638375 -0.00921201 0.02195695 0.38039216 0.78823529 0.52549020
v -0.00582387 -0.01439492 0.02464029 0.38039216 0.78823529 0.52549020
v -0.00582387 -0.01569569 0.02418661 0.38039216 0.78823529 0.52549020
v -0.00582387 0.01354977 0.02499900 0.38039216 0.78823529 0.52549020
v -0.00157946 0.01337835 0.02482668 0.38039216 0.78823529 0.52549020
v 0.03341939 0.01364724 0.02241062 0.38039216 0.78823529 0.52549020
v 0.04249654 0.01473962 0.02093706 0.38039216 0.78823529 0.52549020
v 0.05157370 0.01494465 0.01996290 0.38039216 0.78823529 0.52549020
v 0.04897522 0.01496818 0.02005082 0.38039216 0.78823529 0.52549020
v 0.04767949 0.01499171 0.02006137 0.38039216 0.78823529 0.52549020
v 0.05546090 0.01486735 0.01982574 0.38039216 0.78823529 0.52549020
v 0.05675664 0.01482701 0.01977651 0.38039216 0.78823529 0.52549020
v 0.05754809 0.01480012 0.01974838 0.38039216 0.78823529 0.52549020
v 0.05675664 0.01511607 0.01906611 0.38039216 0.78823529 0.52549020
v 0.05934811 0.01500851 0.01883400 0.38039216 0.78823529 0.52549020
v 0.06040571 0.01492112 0.01864409 0.38039216 0.78823529 0.52549020
v 0.06076291 0.01511943 0.01788445 0.38039216 0.78823529 0.52549020
v 0.06194658 0.01524043 0.01647069 0.38039216 0.78823529 0.52549020
v 0.06194658 0.01548244 0.01517649 0.38039216 0.78823529 0.52549020
v 0.06311625 0.01508582 0.01517649 0.38039216 0.78823529 0.52549020
v 0.06176448 0.01540177 -0.00988796 0.38039216 0.78823529 0.52549020
v 0.06310924 0.01516313 0.00998917 0.38039216 0.78823529 0.52549020
v 0.06294815 0.01513960 0.00351117 0.38039216 0.78823529 0.52549020
v 0.06292013 0.01510263 0.00221346 0.38039216 0.78823529 0.52549020
v 0.06387268 0.01474634 0.01387878 0.38039216 0.78823529 0.52549020
v 0.05932009 -0.01443190 -0.00988796 0.38039216 0.78823529 0.52549020
v 0.05957223 -0.01476129 -0.00816120 0.38039216 0.78823529 0.52549020
v 0.05980337 -0.01491254 -0.00686349 0.38039216 0.78823529 0.52549020
v 0.05987341 -0.01497641 -0.00556577 0.38039216 0.78823529 0.52549020
v 0.05989442 -0.01627717 0.01258107 0.38039216 0.78823529 0.52549020
v 0.05858467 -0.01627717 0.01647069 0.38039216 0.78823529 0.52549020
v 0.05974033 -0.01615617 0.01387878 0.38039216 0.78823529 0.52549020
v 0.05993644 -0.01496296 0.01682237 0.38039216 0.78823529 0.52549020
v 0.05906795 -0.01544361 0.01752574 0.38039216 0.78823529 0.52549020
v 0.05978936 -0.01232445 0.01962177 0.38039216 0.78823529 0.52549020
v 0.05628737 -0.01518144 0.01978354 0.38039216 0.78823529 0.52549020
v 0.06282208 -0.01266729 0.01609439 0.38039216 0.78823529 0.52549020
v 0.06248589 -0.01107074 0.01830647 0.38039216 0.78823529 0.52549020
v 0.06287811 -0.01020692 0.01872146 0.38039216 0.78823529 0.52549020
v 0.05546090 -0.01439829 0.02025128 0.38039216 0.78823529 0.52549020
v 0.05416517 -0.01439829 0.02045526 0.38039216 0.78823529 0.52549020
v -0.00582387 0.00373182 0.02603998 0.38039216 0.78823529 0.52549020
v 0.03601087 -0.00532315 0.02285374 0.38039216 0.78823529 0.52549020
v 0.05934811 -0.01050942 0.02033217 0.38039216 0.78823529 0.52549020
v 0.05665158 -0.00912799 0.02090893 0.38039216 0.78823529 0.52549020
v 0.05614729 -0.00864062 0.02101443 0.38039216 0.78823529 0.52549020
v 0.05675664 0.00634344 0.02122193 0.38039216 0.78823529 0.52549020
v -0.00582387 0.01289770 0.02526980 0.38039216 0.78823529 0.52549020
v -0.00157946 0.01272965 0.02515023 0.38039216 0.78823529 0.52549020
v 0.00360348 0.01301871 0.02468249 0.38039216 0.78823529 0.52549020
v 0.04249654 0.01282712 0.02204838 0.38039216 0.78823529 0.52549020
v 0.05349278 0.01346910 0.02100740 0.38039216 0.78823529 0.52549020
v 0.04249654 0.01409428 0.02146107 0.38039216 0.78823529 0.52549020
v 0.00496225 0.01277670 0.02471766 0.38039216 0.78823529 0.52549020
v 0.00457003 0.01230950 0.02494274 0.38039216 0.78823529 0.52549020
v 0.05801035 0.01419511 0.02001214 0.38039216 0.78823529 0.52549020
v 0.05934811 0.01383211 0.01992070 0.38039216 0.78823529 0.52549020
v 0.05840958 0.01467240 0.01960770 0.38039216 0.78823529 0.52549020
v 0.06126720 0.01474970 0.01839440 0.38039216 0.78823529 0.52549020
v 0.05934811 0.01448081 0.01948110 0.38039216 0.78823529 0.52549020
v 0.06194658 0.01492112 0.01743782 0.38039216 0.78823529 0.52549020
v 0.06260496 0.01477995 0.01713185 0.38039216 0.78823529 0.52549020
v 0.06280107 0.01490432 0.01647069 0.38039216 0.78823529 0.52549020
v 0.06376061 0.01462534 0.01517649 0.38039216 0.78823529 0.52549020
v 0.06259795 0.01477995 -0.00628321 0.38039216 0.78823529 0.52549020
v 0.06221273 0.01467576 -0.00988796 0.38039216 0.78823529 0.52549020
v 0.06383766 0.01470265 0.01258107 0.38039216 0.78823529 0.52549020
v 0.06412482 0.01397664 0.01517649 0.38039216 0.78823529 0.52549020
v 0.06413883 0.01409764 0.01387878 0.38039216 0.78823529 0.52549020
v 0.06412482 0.01405394 0.01258107 0.38039216 0.78823529 0.52549020
v 0.06009753 -0.01386050 -0.00988796 0.38039216 0.78823529 0.52549020
v 0.06133723 -0.01508732 0.00908183 0.38039216 0.78823529 0.52549020
v 0.06027963 -0.01411259 -0.00816120 0.38039216 0.78823529 0.52549020
v 0.06037769 -0.01426384 -0.00686349 0.38039216 0.78823529 0.52549020
v 0.06391470 -0.01247906 0.01053428 0.38039216 0.78823529 0.52549020
v 0.06135825 -0.01511421 0.00998917 0.38039216 0.78823529 0.52549020
v 0.06135125 -0.01511085 0.01128688 0.38039216 0.78823529 0.52549020
v 0.06133023 -0.01508396 0.01215905 0.38039216 0.78823529 0.52549020
v 0.06075591 -0.01553772 0.01258811 0.38039216 0.78823529 0.52549020
v 0.06048975 -0.01551083 0.01387878 0.38039216 0.78823529 0.52549020
v 0.06300418 -0.01284207 0.01517649 0.38039216 0.78823529 0.52549020
v 0.06020259 -0.01146063 0.01984685 0.38039216 0.78823529 0.52549020
v 0.06365555 -0.01201522 0.01517649 0.38039216 0.78823529 0.52549020
v 0.06419486 -0.01051278 0.01636518 0.38039216 0.78823529 0.52549020
v 0.06405478 -0.01008255 0.01736748 0.38039216 0.78823529 0.52549020
v 0.06328434 -0.01057665 0.01783874 0.38039216 0.78823529 0.52549020
v 0.06373260 -0.00921201 0.01822910 0.38039216 0.78823529 0.52549020
v 0.06308823 -0.00921201 0.01886565 0.38039216 0.78823529 0.52549020
v 0.06222674 -0.00921201 0.01951626 0.38039216 0.78823529 0.52549020
v 0.06145630 -0.00997500 0.01976948 0.38039216 0.78823529 0.52549020
v 0.00101201 0.00893490 0.02550543 0.38039216 0.78823529 0.52549020
v -0.00287520 0.00893490 0.02579381 0.38039216 0.78823529 0.52549020
v -0.00582387 0.00634344 0.02601888 0.38039216 0.78823529 0.52549020
v 0.04508802 0.00893490 0.02216444 0.38039216 0.78823529 0.52549020
v 0.05675664 0.00764085 0.02122896 0.38039216 0.78823529 0.52549020
v 0.06063684 -0.01044892 0.01996642 0.38039216 0.78823529 0.52549020
v 0.06064384 -0.00921201 0.02021611 0.38039216 0.78823529 0.52549020
v 0.05934811 -0.00921201 0.02048691 0.38039216 0.78823529 0.52549020
v 0.06064384 -0.00532315 0.02040954 0.38039216 0.78823529 0.52549020
v 0.06064384 -0.00272833 0.02049043 0.38039216 0.78823529 0.52549020
v 0.05826950 0.00115717 0.02096520 0.38039216 0.78823529 0.52549020
v 0.05787727 0.00634344 0.02109884 0.38039216 0.78823529 0.52549020
v -0.00582387 0.01152971 0.02576919 0.38039216 0.78823529 0.52549020
v 0.03601087 0.01152971 0.02273768 0.38039216 0.78823529 0.52549020
v 0.04508802 0.01152971 0.02203783 0.38039216 0.78823529 0.52549020
v 0.05286943 0.01152971 0.02141887 0.38039216 0.78823529 0.52549020
v 0.05298150 0.01295148 0.02117621 0.38039216 0.78823529 0.52549020
v 0.00360348 0.01152971 0.02515023 0.38039216 0.78823529 0.52549020
v 0.05618231 0.01222547 0.02102147 0.38039216 0.78823529 0.52549020
v 0.05667259 0.01272292 0.02081397 0.38039216 0.78823529 0.52549020
v 0.05805237 0.01282712 0.02058890 0.38039216 0.78823529 0.52549020
v 0.05934811 0.01282712 0.02032162 0.38039216 0.78823529 0.52549020
v 0.06015357 0.01361699 0.01978706 0.38039216 0.78823529 0.52549020
v 0.06070688 0.01418503 0.01909776 0.38039216 0.78823529 0.52549020
v 0.06158938 0.01388589 0.01868629 0.38039216 0.78823529 0.52549020
v 0.06199561 0.01424217 0.01807436 0.38039216 0.78823529 0.52549020
v 0.06245787 0.01325399 0.01828537 0.38039216 0.78823529 0.52549020
v 0.06281508 0.01412117 0.01735693 0.38039216 0.78823529 0.52549020
v 0.06401976 0.01372119 0.01605570 0.38039216 0.78823529 0.52549020
v 0.06348745 0.01412117 0.00221346 0.38039216 0.78823529 0.52549020
v 0.06271002 0.01385564 -0.00816120 0.38039216 0.78823529 0.52549020
v 0.06250690 0.01405058 -0.00988796 0.38039216 0.78823529 0.52549020
v 0.06244387 0.01426570 -0.00988796 0.38039216 0.78823529 0.52549020
v 0.06409680 0.01396319 0.01128688 0.38039216 0.78823529 0.52549020
v 0.06441898 0.01282712 0.01517649 0.38039216 0.78823529 0.52549020
v 0.06449603 0.01282712 0.01387878 0.38039216 0.78823529 0.52549020
v 0.06445400 0.01282712 0.01258107 0.38039216 0.78823529 0.52549020
v 0.06052478 -0.01313785 -0.00988796 0.38039216 0.78823529 0.52549020
v 0.06128821 -0.01244209 -0.00876258 0.38039216 0.78823529 0.52549020
v 0.06100104 -0.01301349 -0.00826318 0.38039216 0.78823529 0.52549020
v 0.06388668 -0.00855659 -0.00618474 0.38039216 0.78823529 0.52549020
v 0.06510537 -0.00967922 0.00998917 0.38039216 0.78823529 0.52549020
v 0.06516141 -0.00980022 0.01128688 0.38039216 0.78823529 0.52549020
v 0.06516841 -0.00981366 0.01258107 0.38039216 0.78823529 0.52549020
v 0.06391470 -0.01247906 0.01106180 0.38039216 0.78823529 0.52549020
v 0.06126019 -0.01500666 0.01302419 0.38039216 0.78823529 0.52549020
v 0.06388668 -0.01245217 0.01192694 0.38039216 0.78823529 0.52549020
v 0.06375361 -0.01224042 0.01387878 0.38039216 0.78823529 0.52549020
v 0.06453805 -0.01050942 0.01517649 0.38039216 0.78823529 0.52549020
v 0.06507035 -0.00942713 0.01517649 0.38039216 0.78823529 0.52549020
v 0.06486024 -0.00908765 0.01634760 0.38039216 0.78823529 0.52549020
v 0.06421587 -0.00921201 0.01758201 0.38039216 0.78823529 0.52549020
v 0.06274504 -0.00367282 0.01979409 0.38039216 0.78823529 0.52549020
v 0.06432093 -0.00791461 0.01765234 0.38039216 0.78823529 0.52549020
v 0.06394271 -0.00366274 0.01852452 0.38039216 0.78823529 0.52549020
v 0.06158238 -0.00921201 0.01985036 0.38039216 0.78823529 0.52549020
v 0.00101201 0.01023230 0.02547378 0.38039216 0.78823529 0.52549020
v -0.00547367 0.01023230 0.02592745 0.38039216 0.78823529 0.52549020
v -0.00582387 0.01023230 0.02594855 0.38039216 0.78823529 0.52549020
v 0.05286943 0.01023230 0.02148569 0.38039216 0.78823529 0.52549020
v 0.04508802 0.01023230 0.02212575 0.38039216 0.78823529 0.52549020
v 0.05784926 0.00764085 0.02109181 0.38039216 0.78823529 0.52549020
v 0.05752007 0.00985921 0.02104609 0.38039216 0.78823529 0.52549020
v 0.05675664 0.00893490 0.02117621 0.38039216 0.78823529 0.52549020
v 0.05416517 0.01023230 0.02136612 0.38039216 0.78823529 0.52549020
v 0.06207265 -0.00261069 0.02005786 0.38039216 0.78823529 0.52549020
v 0.06064384 0.00504603 0.02044119 0.38039216 0.78823529 0.52549020
v 0.05934811 0.00504603 0.02082453 0.38039216 0.78823529 0.52549020
v 0.05849362 0.00504603 0.02098630 0.38039216 0.78823529 0.52549020
v 0.05852864 0.00634344 0.02098278 0.38039216 0.78823529 0.52549020
v 0.05850063 0.00764085 0.02097927 0.38039216 0.78823529 0.52549020
v 0.05416517 0.01152971 0.02128523 0.38039216 0.78823529 0.52549020
v 0.05805237 0.01152971 0.02081749 0.38039216 0.78823529 0.52549020
v 0.05934811 0.01152971 0.02055725 0.38039216 0.78823529 0.52549020
v 0.06042672 0.01282712 0.01992773 0.38039216 0.78823529 0.52549020
v 0.06107109 0.01282712 0.01958660 0.38039216 0.78823529 0.52549020
v 0.06199561 0.01282376 0.01891137 0.38039216 0.78823529 0.52549020
v 0.06269601 0.01239017 0.01854913 0.38039216 0.78823529 0.52549020
v 0.06409680 0.01282712 0.01625265 0.38039216 0.78823529 0.52549020
v 0.06374660 0.01282712 0.01690326 0.38039216 0.78823529 0.52549020
v 0.06395672 0.01367413 0.00740078 0.38039216 0.78823529 0.52549020
v 0.06392871 0.01358674 0.00649696 0.38039216 0.78823529 0.52549020
v 0.06366256 0.01282712 0.00091574 0.38039216 0.78823529 0.52549020
v 0.06263297 0.01361699 -0.00988796 0.38039216 0.78823529 0.52549020
v 0.06453805 0.01152971 0.01517649 0.38039216 0.78823529 0.52549020
v 0.06464311 0.01152971 0.01387878 0.38039216 0.78823529 0.52549020
v 0.06437696 0.01282712 0.01128688 0.38039216 0.78823529 0.52549020
v 0.06482522 0.00893490 0.01258107 0.38039216 0.78823529 0.52549020
v 0.06292013 -0.00896329 -0.00988796 0.38039216 0.78823529 0.52549020
v 0.06309523 -0.00864398 -0.00988796 0.38039216 0.78823529 0.52549020
v 0.06352948 -0.00783730 -0.00988796 0.38039216 0.78823529 0.52549020
v 0.06383766 -0.00838853 -0.00686349 0.38039216 0.78823529 0.52549020
v 0.06404077 -0.00773983 -0.00686349 0.38039216 0.78823529 0.52549020
v 0.06452404 -0.00791461 -0.00167616 0.38039216 0.78823529 0.52549020
v 0.06537853 -0.00903051 0.00998917 0.38039216 0.78823529 0.52549020
v 0.06541355 -0.00915151 0.01128688 0.38039216 0.78823529 0.52549020
v 0.06538553 -0.00916496 0.01258107 0.38039216 0.78823529 0.52549020
v 0.06514039 -0.00970947 0.01387878 0.38039216 0.78823529 0.52549020
v 0.06473416 -0.01050942 0.01387878 0.38039216 0.78823529 0.52549020
v 0.06413182 -0.01159172 0.01387878 0.38039216 0.78823529 0.52549020
v 0.06532950 -0.00906412 0.01387878 0.38039216 0.78823529 0.52549020
v 0.06524545 -0.00877842 0.01517649 0.38039216 0.78823529 0.52549020
v 0.06518942 -0.00857339 0.01583062 0.38039216 0.78823529 0.52549020
v 0.06496530 -0.00791461 0.01658323 0.38039216 0.78823529 0.52549020
v 0.06502133 -0.00662056 0.01676962 0.38039216 0.78823529 0.52549020
v 0.06274504 -0.00296025 0.01979409 0.38039216 0.78823529 0.52549020
v 0.06394271 -0.00310815 0.01852452 0.38039216 0.78823529 0.52549020
v 0.06064384 0.00634344 0.02041657 0.38039216 0.78823529 0.52549020
v 0.05934811 0.00634344 0.02081397 0.38039216 0.78823529 0.52549020
v 0.05934811 0.00764085 0.02078936 0.38039216 0.78823529 0.52549020
v 0.06064384 0.01023230 0.02015633 0.38039216 0.78823529 0.52549020
v 0.06076991 0.01159021 0.01999807 0.38039216 0.78823529 0.52549020
v 0.06128121 0.01206414 0.01970617 0.38039216 0.78823529 0.52549020
v 0.06280807 0.01152971 0.01865112 0.38039216 0.78823529 0.52549020
v 0.06351547 0.01151291 0.01767345 0.38039216 0.78823529 0.52549020
v 0.06412482 0.01151291 0.01654454 0.38039216 0.78823529 0.52549020
v 0.06392170 0.01107259 0.01717757 0.38039216 0.78823529 0.52549020
v 0.06369758 0.00893490 -0.00297387 0.38039216 0.78823529 0.52549020
v 0.06308123 0.01152971 -0.00816120 0.38039216 0.78823529 0.52549020
v 0.06293414 0.01282712 -0.00816120 0.38039216 0.78823529 0.52549020
v 0.06441898 0.01152971 0.00998917 0.38039216 0.78823529 0.52549020
v 0.06436295 0.00893490 0.00610307 0.38039216 0.78823529 0.52549020
v 0.06274504 0.01306576 -0.00988796 0.38039216 0.78823529 0.52549020
v 0.06518942 0.00183612 0.01583414 0.38039216 0.78823529 0.52549020
v 0.06521744 0.00234366 0.01507099 0.38039216 0.78823529 0.52549020
v 0.06530148 0.00245458 0.01387878 0.38039216 0.78823529 0.52549020
v 0.06532950 0.00245458 0.01258107 0.38039216 0.78823529 0.52549020
v 0.06522444 0.00336881 0.01171593 0.38039216 0.78823529 0.52549020
v 0.06369057 -0.00729951 -0.00988796 0.38039216 0.78823529 0.52549020
v 0.06388668 -0.00726926 -0.00881181 0.38039216 0.78823529 0.52549020
v 0.06418085 -0.00662056 -0.00686349 0.38039216 0.78823529 0.52549020
v 0.06387268 -0.00651972 -0.00988796 0.38039216 0.78823529 0.52549020
v 0.06390770 -0.00625083 -0.00988796 0.38039216 0.78823529 0.52549020
v 0.06564468 -0.00791461 0.00998917 0.38039216 0.78823529 0.52549020
v 0.06572873 -0.00791461 0.01128688 0.38039216 0.78823529 0.52549020
v 0.06566569 -0.00791461 0.01258107 0.38039216 0.78823529 0.52549020
v 0.06554662 -0.00791461 0.01387878 0.38039216 0.78823529 0.52549020
v 0.06537153 -0.00791461 0.01517649 0.38039216 0.78823529 0.52549020
v 0.06549760 -0.00662056 0.01517649 0.38039216 0.78823529 0.52549020
v 0.06522444 -0.00791461 0.01593261 0.38039216 0.78823529 0.52549020
v 0.06528748 -0.00662056 0.01612252 0.38039216 0.78823529 0.52549020
v 0.06528048 -0.00532315 0.01608032 0.38039216 0.78823529 0.52549020
v 0.06497230 -0.00272833 0.01663246 0.38039216 0.78823529 0.52549020
v 0.06291313 0.01023230 0.01871794 0.38039216 0.78823529 0.52549020
v 0.06205865 0.01023230 0.01936504 0.38039216 0.78823529 0.52549020
v 0.06157537 0.00634344 0.01993477 0.38039216 0.78823529 0.52549020
v 0.06418085 0.00374862 0.01759959 0.38039216 0.78823529 0.52549020
v 0.06379563 0.00245458 0.01828537 0.38039216 0.78823529 0.52549020
v 0.06141428 0.01023230 0.01978003 0.38039216 0.78823529 0.52549020
v 0.06184152 0.01159021 0.01937911 0.38039216 0.78823529 0.52549020
v 0.06355749 0.01023230 0.01788797 0.38039216 0.78823529 0.52549020
v 0.06387268 0.00796016 -0.00167616 0.38039216 0.78823529 0.52549020
v 0.06411081 0.00245458 -0.00427158 0.38039216 0.78823529 0.52549020
v 0.06294115 0.01152971 -0.00988796 0.38039216 0.78823529 0.52549020
v 0.06289212 0.01195994 -0.00988796 0.38039216 0.78823529 0.52549020
v 0.06278706 0.01282712 -0.00988796 0.38039216 0.78823529 0.52549020
v 0.06545557 -0.00272833 0.01517649 0.38039216 0.78823529 0.52549020
v 0.06529448 0.00115717 0.01517649 0.38039216 0.78823529 0.52549020
v 0.06538553 0.00115717 0.01387878 0.38039216 0.78823529 0.52549020
v 0.06553261 -0.00143429 0.01387878 0.38039216 0.78823529 0.52549020
v 0.06560266 -0.00272833 0.01387878 0.38039216 0.78823529 0.52549020
v 0.06556764 -0.00272833 0.01258107 0.38039216 0.78823529 0.52549020
v 0.06553261 -0.00272833 0.01128688 0.38039216 0.78823529 0.52549020
v 0.06544156 -0.00272833 0.00998917 0.38039216 0.78823529 0.52549020
v 0.06382365 -0.00681551 -0.00988796 0.38039216 0.78823529 0.52549020
v 0.06396373 -0.00532315 -0.00988796 0.38039216 0.78823529 0.52549020
v 0.06396373 -0.00402574 -0.00988796 0.38039216 0.78823529 0.52549020
v 0.06564468 -0.00402574 0.01387878 0.38039216 0.78823529 0.52549020
v 0.06570071 -0.00662056 0.01258107 0.38039216 0.78823529 0.52549020
v 0.06563768 -0.00662056 0.01387878 0.38039216 0.78823529 0.52549020
v 0.06565869 -0.00532315 0.01387878 0.38039216 0.78823529 0.52549020
v 0.06550461 -0.00532315 0.01517649 0.38039216 0.78823529 0.52549020
v 0.06373960 0.00374862 0.01825021 0.38039216 0.78823529 0.52549020
v 0.06343142 0.00504603 -0.00988796 0.38039216 0.78823529 0.52549020
v 0.06334037 0.00634344 -0.00988796 0.38039216 0.78823529 0.52549020
f 1 2 5
f 1 5 13
f 1 13 27
f 1 27 41
f 1 41 61
f 1 61 86
f 1 86 91
f 1 91 125
f 1 125 124
f 1 124 121
f 1 121 120
f 1 120 164
f 1 164 215
f 1 215 271
f 1 271 225
f 1 225 170
f 1 170 126
f 1 126 92
f 1 92 66
f 1 66 47
f 1 47 35
f 1 35 20
f 1 20 7
f 1 7 3
f 1 3 11
f 1 11 24
f 1 24 23
f 1 23 37
f 1 37 53
f 1 53 75
f 1 75 102
f 1 102 143
f 1 143 188
f 1 188 245
f 1 245 244
f 1 244 296
f 1 296 335
f 1 335 368
f 1 368 367
f 1 367 366
f 1 366 387
f 1 387 386
f 1 386 379
f 1 379 378
f 1 378 345
f 1 345 344
f 1 344 377
f 1 377 341
f 1 341 303
f 1 303 302
f 1 302 301
f 1 301 250
f 1 250 193
f 1 193 148
f 1 148 105
f 1 105 78
f 1 78 54
f 1 54 40
f 1 40 26
f 1 26 12
f 1 12 4
f 1 4 2
f 2 4 6
f 2 6 5
f 3 7 8
f 3 8 9
f 3 9 10
f 3 10 11
f 4 12 6
f 5 6 14
f 5 14 13
f 6 15 16
f 6 16 17
f 6 17 14
f 6 12 18
f 6 18 19
f 6 19 15
f 7 20 21
f 7 21 8
f 8 21 9
f 9 21 22
f 9 22 10
f 10 22 23
f 10 23 24
f 10 24 11
f 12 25 18
f 12 26 25
f 13 14 28
f 13 28 27
f 14 17 29
f 14 29 28
f 15 30 16
f 15 19 25
f 15 25 30
f 16 30 17
f 17 31 32
f 17 32 33
f 17 33 27
f 17 27 28
f 17 28 29
f 17 30 34
f 17 34 31
f 18 25 19
f 20 22 21
f 20 35 36
f 20 36 22
f 22 36 23
f 23 36 37
f 25 38 39
f 25 39 34
f 25 34 30
f 25 26 38
f 26 40 38
f 27 33 32
f 27 32 42
f 27 42 43
f 27 43 41
f 31 34 44
f 31 44 32
f 32 45 43
f 32 43 42
f 32 44 46
f 32 46 45
f 34 39 44
f 35 47 48
f 35 48 36
f 36 48 49
f 36 49 50
f 36 50 51
f 36 51 37
f 37 51 52
f 37 52 53
f 38 40 54
f 38 54 55
f 38 55 56
f 38 56 57
f 38 57 58
f 38 58 39
f 39 46 44
f 39 58 59
f 39 59 60
f 39 60 46
f 41 43 61
f 43 45 62
f 43 62 63
f 43 63 61
f 45 46 64
f 45 64 65
f 45 65 62
f 46 60 64
f 47 66 67
f 47 67 48
f 48 67 68
f 48 68 69
f 48 69 49
f 49 70 71
f 49 71 72
f 49 72 73
f 49 73 50
f 49 69 68
f 49 68 70
f 50 73 72
f 50 72 74
f 50 74 51
f 51 74 52
f 52 74 53
f 53 74 76
f 53 76 77
f 53 77 75
f 54 78 57
f 54 57 55
f 55 57 56
f 57 78 79
f 57 79 80
f 57 80 81
f 57 81 58
f 58 81 82
f 58 82 83
f 58 83 59
f 59 83 84
f 59 84 60
f 60 84 85
f 60 85 64
f 61 63 86
f 62 87 88
f 62 88 89
f 62 89 63
f 62 65 85
f 62 85 90
f 62 90 87
f 63 89 91
f 63 91 86
f 64 85 65
f 66 92 67
f 67 92 93
f 67 93 68
f 68 93 94
f 68 94 95
f 68 95 71
f 68 71 70
f 71 95 72
f 72 96 136
f 72 136 97
f 72 97 98
f 72 98 99
f 72 99 74
f 72 95 96
f 74 99 98
f 74 98 100
f 74 100 101
f 74 101 76
f 75 77 102
f 76 101 103
f 76 103 77
f 77 103 104
f 77 104 102
f 78 105 106
f 78 106 107
f 78 107 108
f 78 108 79
f 79 108 109
f 79 109 80
f 80 109 110
f 80 110 81
f 81 110 82
f 82 110 111
f 82 111 112
f 82 112 83
f 83 112 84
f 84 112 113
f 84 113 114
f 84 114 115
f 84 115 85
f 85 115 114
f 85 114 116
f 85 116 90
f 87 90 117
f 87 117 88
f 88 118 119
f 88 119 120
f 88 120 121
f 88 121 89
f 88 117 122
f 88 122 123
f 88 123 118
f 89 121 124
f 89 124 125
f 89 125 91
f 90 116 117
f 92 126 127
f 92 127 128
f 92 128 129
f 92 129 93
f 93 129 130
f 93 130 131
f 93 131 132
f 93 132 94
f 94 132 95
f 95 132 96
f 96 133 134
f 96 134 135
f 96 135 136
f 96 132 131
f 96 131 130
f 96 130 133
f 97 137 138
f 97 138 139
f 97 139 98
f 97 136 137
f 98 139 140
f 98 140 141
f 98 141 100
f 100 141 142
f 100 142 103
f 100 103 101
f 102 104 144
f 102 144 145
f 102 145 146
f 102 146 143
f 103 142 147
f 103 147 104
f 104 147 144
f 105 148 106
f 106 148 107
f 107 148 108
f 108 148 149
f 108 149 150
f 108 150 109
f 109 150 151
f 109 151 110
f 110 151 152
f 110 152 111
f 111 153 113
f 111 113 112
f 111 152 154
f 111 154 153
f 113 153 155
f 113 155 156
f 113 156 114
f 114 157 158
f 114 158 116
f 114 156 159
f 114 159 160
f 114 160 161
f 114 161 157
f 116 158 162
f 116 162 163
f 116 163 117
f 117 163 122
f 118 164 119
f 118 123 165
f 118 165 164
f 119 164 120
f 122 163 162
f 122 162 166
f 122 166 167
f 122 167 168
f 122 168 123
f 123 168 169
f 123 169 165
f 126 170 171
f 126 171 127
f 127 171 172
f 127 172 128
f 128 173 174
f 128 174 175
f 128 175 129
f 128 172 176
f 128 176 177
f 128 177 173
f 129 175 135
f 129 135 134
f 129 134 133
f 129 133 130
f 135 174 178
f 135 178 179
f 135 179 180
f 135 180 138
f 135 138 137
f 135 137 136
f 135 175 174
f 138 181 139
f 138 180 182
f 138 182 181
f 139 181 183
f 139 183 140
f 140 183 184
f 140 184 185
f 140 185 142
f 140 142 141
f 142 185 186
f 142 186 147
f 143 146 187
f 143 187 188
f 144 147 145
f 145 147 146
f 146 147 189
f 146 189 187
f 147 186 190
f 147 190 191
f 147 191 192
f 147 192 189
f 148 193 149
f 149 193 150
f 150 194 151
f 150 193 195
f 150 195 196
f 150 196 197
f 150 197 194
f 151 194 152
f 152 194 198
f 152 198 199
f 152 199 200
f 152 200 201
f 152 201 154
f 153 154 202
f 153 202 203
f 153 203 155
f 154 201 202
f 155 203 159
f 155 159 156
f 157 204 158
f 157 161 204
f 158 204 162
f 159 203 205
f 159 205 206
f 159 206 207
f 159 207 208
f 159 208 160
f 160 208 161
f 161 208 207
f 161 207 209
f 161 209 210
f 161 210 211
f 161 211 212
f 161 212 204
f 162 204 166
f 164 213 214
f 164 214 215
f 164 165 216
f 164 216 213
f 165 169 217
f 165 217 216
f 166 204 218
f 166 218 219
f 166 219 220
f 166 220 167
f 167 220 168
f 168 220 221
f 168 221 222
f 168 222 223
f 168 223 169
f 169 223 224
f 169 224 217
f 170 225 171
f 171 225 177
f 171 177 176
f 171 176 172
f 173 226 227
f 173 227 228
f 173 228 229
f 173 229 174
f 173 177 230
f 173 230 226
f 174 229 231
f 174 231 232
f 174 232 233
f 174 233 178
f 177 225 230
f 178 233 179
f 179 182 180
f 179 233 234
f 179 234 235
f 179 235 182
f 181 182 236
f 181 236 237
f 181 237 238
f 181 238 184
f 181 184 183
f 182 235 236
f 184 186 185
f 184 238 239
f 184 239 240
f 184 240 241
f 184 241 186
f 186 241 190
f 187 189 242
f 187 242 243
f 187 243 244
f 187 244 245
f 187 245 188
f 189 192 246
f 189 246 242
f 190 241 247
f 190 247 248
f 190 248 191
f 191 248 192
f 192 248 249
f 192 249 246
f 193 250 251
f 193 251 195
f 194 197 198
f 195 251 252
f 195 252 196
f 196 252 197
f 197 253 254
f 197 254 255
f 197 255 256
f 197 256 257
f 197 257 198
f 197 252 251
f 197 251 253
f 198 257 199
f 199 257 200
f 200 258 201
f 200 257 259
f 200 259 203
f 200 203 258
f 201 258 202
f 202 258 203
f 203 259 260
f 203 260 205
f 204 212 218
f 205 260 261
f 205 261 206
f 206 261 262
f 206 262 263
f 206 263 207
f 207 263 264
f 207 264 209
f 209 265 210
f 209 264 266
f 209 266 267
f 209 267 265
f 210 265 211
f 211 265 268
f 211 268 212
f 212 268 219
f 212 219 218
f 213 269 214
f 213 216 269
f 214 269 270
f 214 270 215
f 215 270 271
f 216 217 272
f 216 272 273
f 216 273 269
f 217 224 274
f 217 274 275
f 217 275 276
f 217 276 277
f 217 277 272
f 219 221 220
f 219 268 265
f 219 265 221
f 221 265 278
f 221 278 222
f 222 279 280
f 222 280 281
f 222 281 223
f 222 278 279
f 223 281 224
f 224 281 282
f 224 282 283
f 224 283 274
f 225 271 270
f 225 270 230
f 226 273 227
f 226 230 269
f 226 269 273
f 227 273 228
f 228 272 277
f 228 277 275
f 228 275 284
f 228 284 231
f 228 231 229
f 228 273 272
f 230 270 269
f 231 284 275
f 231 275 285
f 231 285 233
f 231 233 232
f 233 285 286
f 233 286 234
f 234 286 287
f 234 287 235
f 235 287 288
f 235 288 237
f 235 237 236
f 237 288 289
f 237 289 290
f 237 290 239
f 237 239 238
f 239 290 240
f 240 290 241
f 241 291 247
f 241 290 292
f 241 292 291
f 242 246 293
f 242 293 294
f 242 294 295
f 242 295 296
f 242 296 243
f 243 296 244
f 246 249 293
f 247 297 298
f 247 298 248
f 247 291 297
f 248 298 249
f 249 299 294
f 249 294 293
f 249 298 300
f 249 300 299
f 250 301 251
f 251 301 302
f 251 302 303
f 251 303 253
f 253 303 304
f 253 304 305
f 253 305 306
f 253 306 307
f 253 307 254
f 254 307 255
f 255 307 308
f 255 308 256
f 256 308 309
f 256 309 310
f 256 310 259
f 256 259 257
f 259 310 311
f 259 311 312
f 259 312 260
f 260 312 261
f 261 312 311
f 261 311 310
f 261 310 262
f 262 310 313
f 262 313 314
f 262 314 315
f 262 315 263
f 263 315 316
f 263 316 264
f 264 316 317
f 264 317 266
f 265 267 319
f 265 319 318
f 265 318 278
f 266 317 267
f 267 317 319
f 274 283 275
f 275 283 286
f 275 286 285
f 275 277 276
f 278 318 320
f 278 320 279
f 279 320 322
f 279 322 321
f 279 321 280
f 280 321 283
f 280 283 282
f 280 282 281
f 283 321 322
f 283 322 286
f 286 322 320
f 286 320 323
f 286 323 324
f 286 324 287
f 287 324 325
f 287 325 288
f 288 325 289
f 289 325 290
f 290 326 327
f 290 327 292
f 290 325 326
f 291 328 297
f 291 292 329
f 291 329 328
f 292 327 329
f 294 299 295
f 295 330 331
f 295 331 332
f 295 332 296
f 295 299 333
f 295 333 300
f 295 300 334
f 295 334 330
f 296 332 335
f 297 328 336
f 297 336 337
f 297 337 298
f 298 337 338
f 298 338 339
f 298 339 300
f 299 300 333
f 300 339 340
f 300 340 334
f 303 341 342
f 303 342 304
f 304 342 305
f 305 343 306
f 305 342 344
f 305 344 345
f 305 345 343
f 306 343 346
f 306 346 307
f 307 346 347
f 307 347 308
f 308 347 309
f 309 347 348
f 309 348 313
f 309 313 310
f 313 348 349
f 313 349 314
f 314 349 315
f 315 349 350
f 315 350 351
f 315 351 352
f 315 352 316
f 316 352 353
f 316 353 317
f 317 353 354
f 317 354 336
f 317 336 355
f 317 355 319
f 318 356 357
f 318 357 358
f 318 358 320
f 318 319 356
f 319 355 359
f 319 359 360
f 319 360 356
f 320 358 361
f 320 361 323
f 323 361 324
f 324 361 325
f 325 361 357
f 325 357 362
f 325 362 326
f 326 362 356
f 326 356 363
f 326 363 327
f 327 363 329
f 328 329 336
f 329 363 359
f 329 359 336
f 330 334 364
f 330 364 365
f 330 365 331
f 331 366 332
f 331 365 366
f 332 366 367
f 332 367 368
f 332 368 335
f 334 340 364
f 336 359 355
f 336 354 369
f 336 369 370
f 336 370 337
f 337 370 338
f 338 370 371
f 338 371 339
f 339 371 372
f 339 372 373
f 339 373 374
f 339 374 375
f 339 375 340
f 340 375 376
f 340 376 365
f 340 365 364
f 341 377 342
f 342 377 344
f 343 378 346
f 343 345 378
f 346 376 375
f 346 375 347
f 346 378 379
f 346 379 376
f 347 380 381
f 347 381 382
f 347 382 348
f 347 375 374
f 347 374 373
f 347 373 380
f 348 382 349
f 349 382 351
f 349 351 350
f 351 382 383
f 351 383 384
f 351 384 353
f 351 353 352
f 353 384 354
f 354 384 369
f 356 362 357
f 356 360 385
f 356 385 363
f 357 361 358
f 359 363 385
f 359 385 360
f 365 376 379
f 365 379 386
f 365 386 387
f 365 387 366
f 369 384 380
f 369 380 373
f 369 373 370
f 370 373 372
f 370 372 371
f 380 383 381
f 380 384 383
f 381 383 382

