# https://github.com/mikedh/trimesh
v -0.00807039 0.01569945 -0.02242240 0.43529412 0.89019608 0.96078431
v -0.00677343 0.01550215 -0.01982905 0.43529412 0.89019608 0.96078431
v -0.00582966 0.01560716 -0.02242240 0.43529412 0.89019608 0.96078431
v -0.00582966 0.01552761 -0.02336830 0.43529412 0.89019608 0.96078431
v -0.00582966 0.01545442 -0.02371775 0.43529412 0.89019608 0.96078431
v -0.00807039 0.01540350 -0.02371775 0.43529412 0.89019608 0.96078431
v -0.03270680 0.01539714 -0.02112441 0.43529412 0.89019608 0.96078431
v -0.03270680 0.01546396 -0.01982905 0.43529412 0.89019608 0.96078431
v -0.03140984 0.01547033 -0.01982905 0.43529412 0.89019608 0.96078431
v -0.05862860 0.01420382 -0.00044331 0.43529412 0.89019608 0.96078431
v -0.00582966 0.01372331 -0.00044331 0.43529412 0.89019608 0.96078431
v -0.00582966 0.01546078 -0.01982905 0.43529412 0.89019608 0.96078431
v -0.00582966 0.01551488 -0.02077495 0.43529412 0.89019608 0.96078431
v -0.00582966 0.01510756 -0.02429318 0.43529412 0.89019608 0.96078431
v -0.00582966 0.01497391 -0.02448499 0.43529412 0.89019608 0.96078431
v -0.01131278 0.01477025 -0.02436675 0.43529412 0.89019608 0.96078431
v -0.02460081 0.01483071 -0.02312394 0.43529412 0.89019608 0.96078431
v -0.03400376 0.01499300 -0.02204666 0.43529412 0.89019608 0.96078431
v -0.03270680 0.01503119 -0.02210184 0.43529412 0.89019608 0.96078431
v -0.04955568 0.01491027 -0.02064883 0.43529412 0.89019608 0.96078431
v -0.04955568 0.01513302 -0.01982905 0.43529412 0.89019608 0.96078431
v -0.06213734 0.01489117 -0.01687573 0.43529412 0.89019608 0.96078431
v -0.06213734 0.01489117 -0.01633709 0.43529412 0.89019608 0.96078431
v -0.05992556 0.01414654 -0.00044331 0.43529412 0.89019608 0.96078431
v -0.00582966 -0.01633876 -0.00044331 0.43529412 0.89019608 0.96078431
v -0.00582966 0.01412427 -0.02491590 0.43529412 0.89019608 0.96078431
v -0.00677343 0.01282594 -0.02531002 0.43529412 0.89019608 0.96078431
v -0.01325822 0.01384105 -0.02454279 0.43529412 0.89019608 0.96078431
v -0.03011289 0.01381560 -0.02331575 0.43529412 0.89019608 0.96078431
v -0.04001377 0.01478934 -0.02179179 0.43529412 0.89019608 0.96078431
v -0.05053419 0.01487844 -0.02060153 0.43529412 0.89019608 0.96078431
v -0.05473772 0.01491027 -0.01971606 0.43529412 0.89019608 0.96078431
v -0.05603468 0.01489117 -0.01951112 0.43529412 0.89019608 0.96078431
v -0.05703635 0.01481162 -0.01929304 0.43529412 0.89019608 0.96078431
v -0.05789906 0.01476070 -0.01904342 0.43529412 0.89019608 0.96078431
v -0.05992556 0.01387606 -0.01963461 0.43529412 0.89019608 0.96078431
v -0.06085196 0.01366921 -0.01937974 0.43529412 0.89019608 0.96078431
v -0.06215471 0.01379968 -0.01818160 0.43529412 0.89019608 0.96078431
v -0.06257737 0.01417836 -0.01725935 0.43529412 0.89019608 0.96078431
v -0.06325480 0.01369467 -0.01678114 0.43529412 0.89019608 0.96078431
v -0.06338218 0.01379968 -0.01594034 0.43529412 0.89019608 0.96078431
v -0.06350956 0.01381878 -0.01464235 0.43529412 0.89019608 0.96078431
v -0.06350377 0.01380923 -0.01334962 0.43529412 0.89019608 0.96078431
v -0.06334165 0.01367240 -0.00816292 0.43529412 0.89019608 0.96078431
v -0.06220102 0.01372968 -0.00044331 0.43529412 0.89019608 0.96078431
v -0.06122252 0.01403517 -0.00044331 0.43529412 0.89019608 0.96078431
v -0.00864938 -0.01636740 -0.00244547 0.43529412 0.89019608 0.96078431
v -0.00582966 -0.01633558 -0.00050637 0.43529412 0.89019608 0.96078431
v -0.01844026 -0.01673653 -0.00044331 0.43529412 0.89019608 0.96078431
v -0.00582966 0.01282594 -0.02535732 0.43529412 0.89019608 0.96078431
v -0.00677343 0.01153079 -0.02555175 0.43529412 0.89019608 0.96078431
v -0.00807039 0.01153079 -0.02548344 0.43529412 0.89019608 0.96078431
v -0.00807039 0.01282594 -0.02522332 0.43529412 0.89019608 0.96078431
v -0.03011289 0.01282594 -0.02360215 0.43529412 0.89019608 0.96078431
v -0.03140984 0.01373286 -0.02323955 0.43529412 0.89019608 0.96078431
v -0.04696176 0.01360239 -0.02185485 0.43529412 0.89019608 0.96078431
v -0.05473772 0.01406062 -0.02084064 0.43529412 0.89019608 0.96078431
v -0.05473772 0.01470979 -0.02036506 0.43529412 0.89019608 0.96078431
v -0.05603468 0.01456659 -0.02015748 0.43529412 0.89019608 0.96078431
v -0.05913812 0.01342419 -0.02044914 0.43529412 0.89019608 0.96078431
v -0.06126305 0.01281957 -0.01959783 0.43529412 0.89019608 0.96078431
v -0.06172045 0.01324598 -0.01904605 0.43529412 0.89019608 0.96078431
v -0.06001819 0.01292458 -0.02030200 0.43529412 0.89019608 0.96078431
v -0.06302320 0.01319825 -0.01764559 0.43529412 0.89019608 0.96078431
v -0.06323164 0.01233270 -0.01796352 0.43529412 0.89019608 0.96078431
v -0.06341113 0.01279093 -0.01722256 0.43529412 0.89019608 0.96078431
v -0.06385117 0.01282594 -0.01594034 0.43529412 0.89019608 0.96078431
v -0.06409435 0.01282594 -0.01464235 0.43529412 0.89019608 0.96078431
v -0.06407698 0.01282594 -0.01334962 0.43529412 0.89019608 0.96078431
v -0.06371800 0.01282594 -0.00816292 0.43529412 0.89019608 0.96078431
v -0.06327796 0.01360557 -0.00686493 0.43529412 0.89019608 0.96078431
v -0.06222997 0.01369785 -0.00044331 0.43529412 0.89019608 0.96078431
v -0.00582966 -0.01526000 -0.01982642 0.43529412 0.89019608 0.96078431
v -0.02362810 -0.01680654 -0.00297623 0.43529412 0.89019608 0.96078431
v -0.02362810 -0.01679699 -0.00044331 0.43529412 0.89019608 0.96078431
v -0.02362810 -0.01680654 -0.00168087 0.43529412 0.89019608 0.96078431
v -0.00582966 0.01152124 -0.02558329 0.43529412 0.89019608 0.96078431
v -0.00582966 0.01040748 -0.02575144 0.43529412 0.89019608 0.96078431
v -0.00807039 0.01047112 -0.02562007 0.43529412 0.89019608 0.96078431
v -0.02458923 0.00978377 -0.02440091 0.43529412 0.89019608 0.96078431
v -0.04436785 0.01023246 -0.02277973 0.43529412 0.89019608 0.96078431
v -0.04696176 0.01153079 -0.02241451 0.43529412 0.89019608 0.96078431
v -0.05214960 0.01232952 -0.02181281 0.43529412 0.89019608 0.96078431
v -0.05214960 0.01297550 -0.02161049 0.43529412 0.89019608 0.96078431
v -0.05085264 0.01313461 -0.02167093 0.43529412 0.89019608 0.96078431
v -0.04787079 0.01352283 -0.02179968 0.43529412 0.89019608 0.96078431
v -0.05473772 0.01282594 -0.02136877 0.43529412 0.89019608 0.96078431
v -0.05603468 0.01391742 -0.02074342 0.43529412 0.89019608 0.96078431
v -0.05867492 0.01292458 -0.02075130 0.43529412 0.89019608 0.96078431
v -0.05964764 0.01255863 -0.02064357 0.43529412 0.89019608 0.96078431
v -0.06197522 0.01238043 -0.01927727 0.43529412 0.89019608 0.96078431
v -0.06051035 0.01206221 -0.02044388 0.43529412 0.89019608 0.96078431
v -0.06249631 0.01278775 -0.01850479 0.43529412 0.89019608 0.96078431
v -0.06279160 0.01153079 -0.01876228 0.43529412 0.89019608 0.96078431
v -0.06332428 0.01153079 -0.01811591 0.43529412 0.89019608 0.96078431
v -0.06378748 0.01153079 -0.01723570 0.43529412 0.89019608 0.96078431
v -0.06427384 0.01142578 -0.01583524 0.43529412 0.89019608 0.96078431
v -0.06440122 0.01175991 -0.01464235 0.43529412 0.89019608 0.96078431
v -0.06440122 0.01155943 -0.01324715 0.43529412 0.89019608 0.96078431
v -0.06414067 0.01153079 -0.00945828 0.43529412 0.89019608 0.96078431
v -0.06361378 0.01153079 -0.00297623 0.43529412 0.89019608 0.96078431
v -0.06322585 0.01224360 -0.00044331 0.43529412 0.89019608 0.96078431
v -0.06321427 0.01228497 -0.00044331 0.43529412 0.89019608 0.96078431
v -0.06334744 0.01256182 -0.00297623 0.43529412 0.89019608 0.96078431
v -0.06319690 0.01231679 -0.00044331 0.43529412 0.89019608 0.96078431
v -0.06284950 0.01293413 -0.00044331 0.43529412 0.89019608 0.96078431
v -0.00965105 -0.01513589 -0.02338143 0.43529412 0.89019608 0.96078431
v -0.00582966 -0.01521863 -0.02013121 0.43529412 0.89019608 0.96078431
v -0.03140984 -0.01680972 -0.00044331 0.43529412 0.89019608 0.96078431
v -0.03270680 -0.01680654 -0.00044331 0.43529412 0.89019608 0.96078431
v -0.03140984 -0.01679699 -0.00168087 0.43529412 0.89019608 0.96078431
v -0.05473772 -0.01579461 -0.02242240 0.43529412 0.89019608 0.96078431
v -0.00582966 -0.00401099 -0.02722285 0.43529412 0.89019608 0.96078431
v -0.01006793 -0.00333318 -0.02697061 0.43529412 0.89019608 0.96078431
v -0.00872466 0.00959920 -0.02566474 0.43529412 0.89019608 0.96078431
v -0.04134547 0.00965967 -0.02308453 0.43529412 0.89019608 0.96078431
v -0.05344077 0.00893731 -0.02218329 0.43529412 0.89019608 0.96078431
v -0.05344077 0.01023246 -0.02203615 0.43529412 0.89019608 0.96078431
v -0.04825872 0.01153079 -0.02229890 0.43529412 0.89019608 0.96078431
v -0.05534567 0.01084025 -0.02177077 0.43529412 0.89019608 0.96078431
v -0.05281545 0.01218632 -0.02177603 0.43529412 0.89019608 0.96078431
v -0.05733164 0.01153079 -0.02139504 0.43529412 0.89019608 0.96078431
v -0.05862860 0.01153079 -0.02121637 0.43529412 0.89019608 0.96078431
v -0.05733164 0.01282594 -0.02100880 0.43529412 0.89019608 0.96078431
v -0.06001819 0.01159125 -0.02077232 0.43529412 0.89019608 0.96078431
v -0.06214312 0.01153079 -0.01941653 0.43529412 0.89019608 0.96078431
v -0.06117041 0.01159125 -0.02012858 0.43529412 0.89019608 0.96078431
v -0.06070142 0.01119666 -0.02055687 0.43529412 0.89019608 0.96078431
v -0.06294214 0.01023246 -0.01892256 0.43529412 0.89019608 0.96078431
v -0.06343429 0.01023246 -0.01827619 0.43529412 0.89019608 0.96078431
v -0.06399592 0.01023246 -0.01723570 0.43529412 0.89019608 0.96078431
v -0.06437806 0.01023246 -0.01615579 0.43529412 0.89019608 0.96078431
v -0.06447070 0.01092617 -0.01533601 0.43529412 0.89019608 0.96078431
v -0.06449386 0.01111392 -0.01464235 0.43529412 0.89019608 0.96078431
v -0.06449386 0.01114574 -0.01361237 0.43529412 0.89019608 0.96078431
v -0.06375274 0.01023246 -0.00297623 0.43529412 0.89019608 0.96078431
v -0.06456913 0.01034702 -0.01324715 0.43529412 0.89019608 0.96078431
v -0.06334744 0.01153079 -0.00044331 0.43529412 0.89019608 0.96078431
v -0.01123751 -0.01505316 -0.02437726 0.43529412 0.89019608 0.96078431
v -0.01037480 -0.01499588 -0.02424588 0.43529412 0.89019608 0.96078431
v -0.00582966 -0.01425761 -0.02497370 0.43529412 0.89019608 0.96078431
v -0.00582966 -0.01511044 -0.02084064 0.43529412 0.89019608 0.96078431
v -0.00582966 -0.01513908 -0.02068299 0.43529412 0.89019608 0.96078431
v -0.05349866 -0.01658379 -0.00044331 0.43529412 0.89019608 0.96078431
v -0.05733164 -0.01650105 -0.00044331 0.43529412 0.89019608 0.96078431
v -0.05856491 -0.01642468 -0.00044331 0.43529412 0.89019608 0.96078431
v -0.06251947 -0.01525363 -0.01205163 0.43529412 0.89019608 0.96078431
v -0.06317953 -0.01505316 -0.01271113 0.43529412 0.89019608 0.96078431
v -0.05599994 -0.01545093 -0.02241714 0.43529412 0.89019608 0.96078431
v -0.05554254 -0.01516772 -0.02315284 0.43529412 0.89019608 0.96078431
v -0.05473772 -0.01529819 -0.02327896 0.43529412 0.89019608 0.96078431
v -0.04908669 -0.01509453 -0.02439828 0.43529412 0.89019608 0.96078431
v -0.04953252 -0.01537774 -0.02380972 0.43529412 0.89019608 0.96078431
v -0.00582966 -0.00532205 -0.02728591 0.43529412 0.89019608 0.96078431
v -0.03658610 -0.00402690 -0.02483444 0.43529412 0.89019608 0.96078431
v -0.04908669 -0.01496087 -0.02439828 0.43529412 0.89019608 0.96078431
v -0.04379464 -0.00588847 -0.02438251 0.43529412 0.89019608 0.96078431
v -0.05214960 -0.00532205 -0.02365469 0.43529412 0.89019608 0.96078431
v -0.05566991 -0.00312316 -0.02310555 0.43529412 0.89019608 0.96078431
v -0.05695529 -0.00442149 -0.02309504 0.43529412 0.89019608 0.96078431
v -0.05484774 0.01033747 -0.02189427 0.43529412 0.89019608 0.96078431
v -0.05733164 0.01023246 -0.02159473 0.43529412 0.89019608 0.96078431
v -0.05901653 0.00634383 -0.02172611 0.43529412 0.89019608 0.96078431
v -0.05992556 0.01023246 -0.02099041 0.43529412 0.89019608 0.96078431
v -0.05823488 0.00724121 -0.02182332 0.43529412 0.89019608 0.96078431
v -0.06146569 0.01023246 -0.02019953 0.43529412 0.89019608 0.96078431
v -0.06229946 0.01023246 -0.01955053 0.43529412 0.89019608 0.96078431
v -0.06078248 -0.00040558 -0.02188638 0.43529412 0.89019608 0.96078431
v -0.06081721 0.01023246 -0.02061993 0.43529412 0.89019608 0.96078431
v -0.06307531 -0.00143342 -0.02035980 0.43529412 0.89019608 0.96078431
v -0.06315059 -0.00272857 -0.02045702 0.43529412 0.89019608 0.96078431
v -0.06323743 -0.00426238 -0.02054636 0.43529412 0.89019608 0.96078431
v -0.06350956 0.00893731 -0.01834451 0.43529412 0.89019608 0.96078431
v -0.06419278 0.00884503 -0.01711746 0.43529412 0.89019608 0.96078431
v -0.06447070 0.00835179 -0.01660773 0.43529412 0.89019608 0.96078431
v -0.06451123 0.01023246 -0.01550680 0.43529412 0.89019608 0.96078431
v -0.06460387 0.01023246 -0.01464235 0.43529412 0.89019608 0.96078431
v -0.06381643 0.00893731 -0.00297623 0.43529412 0.89019608 0.96078431
v -0.06356167 0.00893731 -0.00044331 0.43529412 0.89019608 0.96078431
v -0.06347482 0.01023246 -0.00044331 0.43529412 0.89019608 0.96078431
v -0.06451123 0.00995879 -0.01205163 0.43529412 0.89019608 0.96078431
v -0.06447649 0.00967876 -0.01130016 0.43529412 0.89019608 0.96078431
v -0.06463861 0.00893731 -0.01334962 0.43529412 0.89019608 0.96078431
v -0.00582966 -0.01365936 -0.02559905 0.43529412 0.89019608 0.96078431
v -0.04875666 -0.01509453 -0.02439828 0.43529412 0.89019608 0.96078431
v -0.06122252 -0.01600145 -0.00044331 0.43529412 0.89019608 0.96078431
v -0.06353272 -0.01523136 -0.00686493 0.43529412 0.89019608 0.96078431
v -0.06384538 -0.01468721 -0.01205163 0.43529412 0.89019608 0.96078431
v -0.06464440 -0.01398076 -0.01306848 0.43529412 0.89019608 0.96078431
v -0.06345745 -0.01398076 -0.01594034 0.43529412 0.89019608 0.96078431
v -0.06329533 -0.01385347 -0.01673647 0.43529412 0.89019608 0.96078431
v -0.05684528 -0.01523136 -0.02198097 0.43529412 0.89019608 0.96078431
v -0.06066668 -0.01380892 -0.02056212 0.43529412 0.89019608 0.96078431
v -0.05950289 -0.01269198 -0.02189689 0.43529412 0.89019608 0.96078431
v -0.05992556 -0.00532205 -0.02274032 0.43529412 0.89019608 0.96078431
v -0.05862860 -0.00532205 -0.02296366 0.43529412 0.89019608 0.96078431
v -0.00807039 -0.00641990 -0.02706783 0.43529412 0.89019608 0.96078431
v -0.00582966 -0.00669993 -0.02711775 0.43529412 0.89019608 0.96078431
v -0.00582966 -0.01272698 -0.02624279 0.43529412 0.89019608 0.96078431
v -0.00582966 -0.01298792 -0.02617973 0.43529412 0.89019608 0.96078431
v -0.05712899 -0.00532205 -0.02313970 0.43529412 0.89019608 0.96078431
v -0.05992556 -0.00402690 -0.02260107 0.43529412 0.89019608 0.96078431
v -0.05992556 0.00763898 -0.02128469 0.43529412 0.89019608 0.96078431
v -0.06159886 0.00893731 -0.02028361 0.43529412 0.89019608 0.96078431
v -0.06184784 -0.00358776 -0.02176026 0.43529412 0.89019608 0.96078431
v -0.06242683 -0.00143342 -0.02095362 0.43529412 0.89019608 0.96078431
v -0.06092723 -0.00143342 -0.02193893 0.43529412 0.89019608 0.96078431
v -0.06328376 -0.00532205 -0.02058840 0.43529412 0.89019608 0.96078431
v -0.06382801 -0.00532205 -0.01982905 0.43529412 0.89019608 0.96078431
v -0.06447649 0.00059363 -0.01790834 0.43529412 0.89019608 0.96078431
v -0.06482390 -0.00532205 -0.01723570 0.43529412 0.89019608 0.96078431
v -0.06454018 0.00884503 -0.01595610 0.43529412 0.89019608 0.96078431
v -0.06465598 0.00893731 -0.01464235 0.43529412 0.89019608 0.96078431
v -0.06360799 0.00763898 -0.00044331 0.43529412 0.89019608 0.96078431
v -0.06475441 -0.01310248 -0.00686493 0.43529412 0.89019608 0.96078431
v -0.06497443 -0.00532205 -0.01594034 0.43529412 0.89019608 0.96078431
v -0.06486442 -0.00143342 -0.01464235 0.43529412 0.89019608 0.96078431
v -0.06126883 -0.01598554 -0.00044331 0.43529412 0.89019608 0.96078431
v -0.06257158 -0.01550503 -0.00044331 0.43529412 0.89019608 0.96078431
v -0.06346903 -0.01520590 -0.00556958 0.43529412 0.89019608 0.96078431
v -0.06418120 -0.01468402 -0.00686493 0.43529412 0.89019608 0.96078431
v -0.06469073 -0.01404122 -0.01205163 0.43529412 0.89019608 0.96078431
v -0.06482390 -0.01310248 -0.01205163 0.43529412 0.89019608 0.96078431
v -0.06454597 -0.01261561 -0.01556198 0.43529412 0.89019608 0.96078431
v -0.06414067 -0.01307066 -0.01597187 0.43529412 0.89019608 0.96078431
v -0.06354430 -0.01310248 -0.01700448 0.43529412 0.89019608 0.96078431
v -0.06205048 -0.01286063 -0.01948484 0.43529412 0.89019608 0.96078431
v -0.06158728 -0.01321704 -0.01988160 0.43529412 0.89019608 0.96078431
v -0.06089249 -0.01310248 -0.02075918 0.43529412 0.89019608 0.96078431
v -0.06191152 -0.00605395 -0.02181019 0.43529412 0.89019608 0.96078431
v -0.06122252 -0.00532205 -0.02220694 0.43529412 0.89019608 0.96078431
v -0.06133832 -0.00402372 -0.02204929 0.43529412 0.89019608 0.96078431
v -0.06188837 -0.00445331 -0.02178917 0.43529412 0.89019608 0.96078431
v -0.06256580 -0.00532205 -0.02123739 0.43529412 0.89019608 0.96078431
v -0.06324901 -0.00619715 -0.02055687 0.43529412 0.89019608 0.96078431
v -0.06357904 -0.00662356 -0.01989211 0.43529412 0.89019608 0.96078431
v -0.06436069 -0.00532205 -0.01886475 0.43529412 0.89019608 0.96078431
v -0.06431437 -0.00402690 -0.01879118 0.43529412 0.89019608 0.96078431
v -0.06456913 -0.00532205 -0.01821839 0.43529412 0.89019608 0.96078431
v -0.06486442 -0.00143342 -0.01594034 0.43529412 0.89019608 0.96078431
v -0.06454018 -0.00628625 -0.01811066 0.43529412 0.89019608 0.96078431
v -0.06371221 0.00245521 -0.00044331 0.43529412 0.89019608 0.96078431
v -0.06492811 -0.00532205 -0.01464235 0.43529412 0.89019608 0.96078431
v -0.06457492 -0.01403486 -0.00686493 0.43529412 0.89019608 0.96078431
v -0.06452860 -0.01392667 -0.00556958 0.43529412 0.89019608 0.96078431
v -0.06446491 -0.01375801 -0.00491270 0.43529412 0.89019608 0.96078431
v -0.06446491 -0.01372937 -0.00491270 0.43529412 0.89019608 0.96078431
v -0.06379327 -0.00662038 -0.00044331 0.43529412 0.89019608 0.96078431
v -0.06377590 -0.00402690 -0.00044331 0.43529412 0.89019608 0.96078431
v -0.06376432 -0.00272857 -0.00044331 0.43529412 0.89019608 0.96078431
v -0.06297109 -0.01433080 -0.00044331 0.43529412 0.89019608 0.96078431
v -0.06411751 -0.01457583 -0.00556958 0.43529412 0.89019608 0.96078431
v -0.06428542 -0.00668084 -0.01853894 0.43529412 0.89019608 0.96078431
v -0.06436648 -0.01180415 -0.01627929 0.43529412 0.89019608 0.96078431
v -0.06191731 -0.00532205 -0.02181019 0.43529412 0.89019608 0.96078431
v -0.06322585 -0.01269516 -0.00044331 0.43529412 0.89019608 0.96078431
v -0.06372958 -0.00791552 -0.00044331 0.43529412 0.89019608 0.96078431
v -0.06379327 -0.00668084 -0.00044331 0.43529412 0.89019608 0.96078431
f 1 2 3
f 1 3 4
f 1 4 5
f 1 5 6
f 1 6 7
f 1 7 8
f 1 8 9
f 1 9 10
f 1 10 2
f 2 11 12
f 2 12 13
f 2 13 3
f 2 10 11
f 3 13 12
f 3 12 11
f 3 11 25
f 3 25 48
f 3 48 73
f 3 73 108
f 3 108 143
f 3 143 142
f 3 142 141
f 3 141 184
f 3 184 200
f 3 200 199
f 3 199 198
f 3 198 154
f 3 154 113
f 3 113 78
f 3 78 77
f 3 77 50
f 3 50 26
f 3 26 15
f 3 15 14
f 3 14 5
f 3 5 4
f 5 14 6
f 6 14 15
f 6 15 16
f 6 16 17
f 6 17 18
f 6 18 19
f 6 19 20
f 6 20 7
f 7 20 21
f 7 21 8
f 8 21 22
f 8 22 23
f 8 23 10
f 8 10 9
f 10 23 24
f 10 24 46
f 10 46 45
f 10 45 72
f 10 72 106
f 10 106 105
f 10 105 103
f 10 103 102
f 10 102 138
f 10 138 180
f 10 180 179
f 10 179 214
f 10 214 242
f 10 242 250
f 10 250 249
f 10 249 248
f 10 248 258
f 10 258 257
f 10 257 256
f 10 256 251
f 10 251 219
f 10 219 218
f 10 218 186
f 10 186 146
f 10 146 145
f 10 145 144
f 10 144 110
f 10 110 109
f 10 109 75
f 10 75 49
f 10 49 25
f 10 25 11
f 15 26 16
f 16 26 27
f 16 27 28
f 16 28 29
f 16 29 30
f 16 30 17
f 17 30 18
f 18 30 20
f 18 20 19
f 20 30 31
f 20 31 21
f 21 31 32
f 21 32 33
f 21 33 22
f 22 33 34
f 22 34 35
f 22 35 36
f 22 36 37
f 22 37 38
f 22 38 39
f 22 39 40
f 22 40 41
f 22 41 42
f 22 42 23
f 23 42 43
f 23 43 44
f 23 44 45
f 23 45 46
f 23 46 24
f 25 47 48
f 25 49 47
f 26 50 27
f 27 50 51
f 27 51 52
f 27 52 53
f 27 53 28
f 28 53 29
f 29 53 54
f 29 54 55
f 29 55 56
f 29 56 30
f 30 56 57
f 30 57 58
f 30 58 31
f 31 58 32
f 32 58 33
f 33 58 34
f 34 58 59
f 34 59 35
f 35 59 36
f 36 60 37
f 36 59 60
f 37 61 62
f 37 62 38
f 37 60 63
f 37 63 61
f 38 62 64
f 38 64 39
f 39 64 40
f 40 64 65
f 40 65 66
f 40 66 67
f 40 67 41
f 41 67 68
f 41 68 42
f 42 68 43
f 43 68 69
f 43 69 44
f 44 69 70
f 44 70 71
f 44 71 45
f 45 71 72
f 47 73 48
f 47 49 74
f 47 74 73
f 49 75 76
f 49 76 74
f 50 77 51
f 51 77 78
f 51 78 52
f 52 78 79
f 52 79 54
f 52 54 53
f 54 79 80
f 54 80 81
f 54 81 82
f 54 82 83
f 54 83 55
f 55 83 84
f 55 84 85
f 55 85 56
f 56 85 86
f 56 86 57
f 57 84 87
f 57 87 88
f 57 88 58
f 57 86 84
f 58 88 60
f 58 60 59
f 60 89 90
f 60 90 63
f 60 88 89
f 61 91 62
f 61 63 92
f 61 92 91
f 62 91 93
f 62 93 64
f 63 90 92
f 64 93 65
f 65 93 91
f 65 91 94
f 65 94 95
f 65 95 96
f 65 96 66
f 66 96 67
f 67 96 97
f 67 97 98
f 67 98 68
f 68 98 69
f 69 98 99
f 69 99 70
f 70 99 100
f 70 100 101
f 70 101 102
f 70 102 103
f 70 103 104
f 70 104 71
f 71 104 103
f 71 103 105
f 71 105 106
f 71 106 72
f 73 107 108
f 73 74 107
f 74 76 109
f 74 109 110
f 74 110 111
f 74 111 112
f 74 112 107
f 75 109 76
f 78 113 114
f 78 114 79
f 79 114 115
f 79 115 80
f 80 115 114
f 80 114 116
f 80 116 81
f 81 116 117
f 81 117 118
f 81 118 82
f 82 118 119
f 82 119 83
f 83 119 120
f 83 120 121
f 83 121 87
f 83 87 84
f 84 86 85
f 87 121 122
f 87 122 123
f 87 123 124
f 87 124 88
f 88 124 89
f 89 123 90
f 89 124 123
f 90 123 125
f 90 125 92
f 91 126 94
f 91 92 127
f 91 127 126
f 92 125 128
f 92 128 127
f 94 129 95
f 94 126 129
f 95 129 130
f 95 130 131
f 95 131 96
f 96 131 132
f 96 132 97
f 97 132 133
f 97 133 98
f 98 133 134
f 98 134 135
f 98 135 99
f 99 135 100
f 100 136 101
f 100 135 137
f 100 137 136
f 101 136 138
f 101 138 102
f 107 139 140
f 107 140 141
f 107 141 142
f 107 142 143
f 107 143 108
f 107 112 139
f 110 144 111
f 111 144 112
f 112 144 145
f 112 145 146
f 112 146 147
f 112 147 148
f 112 148 149
f 112 149 150
f 112 150 151
f 112 151 152
f 112 152 153
f 112 153 139
f 113 154 114
f 114 155 117
f 114 117 116
f 114 154 156
f 114 156 157
f 114 157 158
f 114 158 155
f 117 158 159
f 117 159 160
f 117 160 161
f 117 161 118
f 117 155 158
f 118 161 119
f 119 161 120
f 120 161 162
f 120 162 122
f 120 122 121
f 122 162 123
f 123 163 164
f 123 164 125
f 123 162 165
f 123 165 163
f 125 164 128
f 126 127 166
f 126 166 167
f 126 167 129
f 127 128 166
f 128 164 168
f 128 168 169
f 128 169 166
f 129 170 171
f 129 171 130
f 129 167 170
f 130 171 172
f 130 172 173
f 130 173 174
f 130 174 131
f 131 174 175
f 131 175 132
f 132 175 176
f 132 176 133
f 133 176 177
f 133 177 134
f 134 177 135
f 135 177 137
f 136 178 179
f 136 179 180
f 136 180 138
f 136 137 181
f 136 181 182
f 136 182 178
f 137 177 183
f 137 183 182
f 137 182 181
f 139 184 141
f 139 141 140
f 139 153 185
f 139 185 184
f 146 186 147
f 147 186 187
f 147 187 148
f 148 187 188
f 148 188 189
f 148 189 190
f 148 190 191
f 148 191 192
f 148 192 149
f 149 192 193
f 149 193 150
f 150 193 194
f 150 194 195
f 150 195 152
f 150 152 151
f 152 185 153
f 152 195 196
f 152 196 156
f 152 156 154
f 152 154 197
f 152 197 198
f 152 198 199
f 152 199 200
f 152 200 185
f 154 198 197
f 156 196 201
f 156 201 158
f 156 158 157
f 158 201 160
f 158 160 159
f 160 201 196
f 160 196 165
f 160 165 161
f 161 165 162
f 163 195 202
f 163 202 203
f 163 203 164
f 163 165 195
f 164 203 168
f 165 196 195
f 166 169 204
f 166 204 167
f 167 204 205
f 167 205 206
f 167 206 170
f 168 203 202
f 168 202 195
f 168 195 207
f 168 207 205
f 168 205 169
f 169 205 204
f 170 206 205
f 170 205 171
f 171 205 172
f 172 208 209
f 172 209 173
f 172 205 208
f 173 209 210
f 173 210 174
f 174 210 175
f 175 210 211
f 175 211 212
f 175 212 176
f 176 212 177
f 177 213 183
f 177 212 213
f 178 214 179
f 178 182 215
f 178 215 214
f 182 183 215
f 183 213 216
f 183 216 217
f 183 217 215
f 184 185 200
f 186 218 187
f 187 218 219
f 187 219 220
f 187 220 221
f 187 221 222
f 187 222 188
f 188 222 189
f 189 222 223
f 189 223 224
f 189 224 225
f 189 225 191
f 189 191 190
f 191 225 226
f 191 226 227
f 191 227 228
f 191 228 193
f 191 193 192
f 193 228 229
f 193 229 194
f 194 229 230
f 194 230 231
f 194 231 195
f 195 231 232
f 195 232 207
f 205 207 232
f 205 232 231
f 205 231 233
f 205 233 208
f 208 233 234
f 208 234 230
f 208 230 235
f 208 235 209
f 209 235 236
f 209 236 237
f 209 237 238
f 209 238 210
f 210 239 211
f 210 238 237
f 210 237 239
f 211 216 240
f 211 240 212
f 211 239 241
f 211 241 224
f 211 224 216
f 212 240 213
f 213 240 216
f 214 215 242
f 215 217 243
f 215 243 216
f 215 216 223
f 215 223 222
f 215 222 244
f 215 244 245
f 215 245 246
f 215 246 247
f 215 247 248
f 215 248 249
f 215 249 250
f 215 250 242
f 216 243 217
f 216 224 223
f 219 251 246
f 219 246 245
f 219 245 252
f 219 252 221
f 219 221 220
f 221 252 245
f 221 245 244
f 221 244 222
f 224 241 253
f 224 253 254
f 224 254 226
f 224 226 225
f 226 254 236
f 226 236 227
f 227 229 228
f 227 236 235
f 227 235 229
f 229 235 230
f 230 255 231
f 230 234 255
f 231 255 233
f 233 255 234
f 236 254 253
f 236 253 237
f 237 253 241
f 237 241 239
f 246 251 256
f 246 256 257
f 246 257 258
f 246 258 248
f 246 248 247

