# https://github.com/mikedh/trimesh
v 0.25445565 -0.03030053 0.07403201 0.54117647 0.42352941 0.64313725
v 0.25415413 -0.03030053 0.07403201 0.54117647 0.42352941 0.64313725
v 0.25445565 -0.03099879 0.07403201 0.54117647 0.42352941 0.64313725
v 0.26446307 -0.04544167 0.06817317 0.54117647 0.42352941 0.64313725
v 0.26774544 -0.03206455 0.06555190 0.54117647 0.42352941 0.64313725
v 0.26079139 0.02059868 0.06759797 0.54117647 0.42352941 0.64313725
v 0.25278012 0.02110400 0.06837038 0.54117647 0.42352941 0.64313725
v 0.25063130 0.02124181 0.06845256 0.54117647 0.42352941 0.64313725
v 0.24414289 -0.04607562 0.07091771 0.54117647 0.42352941 0.64313725
v 0.25415413 -0.03099879 0.07403201 0.54117647 0.42352941 0.64313725
v 0.24640620 -0.04665443 0.07096701 0.54117647 0.42352941 0.64313725
v 0.24958934 -0.04650743 0.07083554 0.54117647 0.42352941 0.64313725
v 0.25119999 -0.04641555 0.07076158 0.54117647 0.42352941 0.64313725
v 0.25915402 -0.04482610 0.06992343 0.54117647 0.42352941 0.64313725
v 0.26446307 -0.04702193 0.06817317 0.54117647 0.42352941 0.64313725
v 0.26823780 -0.03524345 0.06278271 0.54117647 0.42352941 0.64313725
v 0.26824925 -0.03206455 0.06278271 0.54117647 0.42352941 0.64313725
v 0.26846299 0.01578439 0.05960266 0.54117647 0.42352941 0.64313725
v 0.26767292 0.01578439 0.06184595 0.54117647 0.42352941 0.64313725
v 0.26766530 -0.02886727 0.06542042 0.54117647 0.42352941 0.64313725
v 0.26747064 -0.04482610 0.06482878 0.54117647 0.42352941 0.64313725
v 0.26818437 -0.04482610 0.06278271 0.54117647 0.42352941 0.64313725
v 0.26753552 0.01811804 0.06175556 0.54117647 0.42352941 0.64313725
v 0.26717676 0.04000286 0.05804140 0.54117647 0.42352941 0.64313725
v 0.25206639 0.04364114 0.05887134 0.54117647 0.42352941 0.64313725
v 0.24252079 0.01798022 0.06224859 0.54117647 0.42352941 0.64313725
v 0.24958934 0.04358602 0.05878095 0.54117647 0.42352941 0.64313725
v 0.24787182 0.04309908 0.05816466 0.54117647 0.42352941 0.64313725
v 0.24252079 0.03792647 0.05631580 0.54117647 0.42352941 0.64313725
v 0.24414289 -0.04659931 0.07091771 0.54117647 0.42352941 0.64313725
v 0.24252079 0.01575683 0.06238828 0.54117647 0.42352941 0.64313725
v 0.22960504 -0.01983587 0.01358651 0.54117647 0.42352941 0.64313725
v 0.24414289 -0.04718731 0.06968513 0.54117647 0.42352941 0.64313725
v 0.25915402 -0.04993440 0.06497669 0.54117647 0.42352941 0.64313725
v 0.26234861 -0.04891458 0.06646400 0.54117647 0.42352941 0.64313725
v 0.26234861 -0.04731594 0.06846077 0.54117647 0.42352941 0.64313725
v 0.26729506 -0.04680143 0.06464801 0.54117647 0.42352941 0.64313725
v 0.26419208 -0.04968633 0.06459049 0.54117647 0.42352941 0.64313725
v 0.26538671 -0.04796825 0.06568337 0.54117647 0.42352941 0.64313725
v 0.26859657 -0.03843154 0.05959445 0.54117647 0.42352941 0.64313725
v 0.26832559 0.04132587 0.05321792 0.54117647 0.42352941 0.64313725
v 0.26760804 0.04116968 0.05658696 0.54117647 0.42352941 0.64313725
v 0.26757751 -0.04711381 0.06278271 0.54117647 0.42352941 0.64313725
v 0.26755843 -0.04696681 0.06039151 0.54117647 0.42352941 0.64313725
v 0.26784468 -0.04488122 0.05943832 0.54117647 0.42352941 0.64313725
v 0.26840573 -0.04162882 0.05959445 0.54117647 0.42352941 0.64313725
v 0.26747446 0.04323689 0.05564199 0.54117647 0.42352941 0.64313725
v 0.26766147 0.04350333 0.05321792 0.54117647 0.42352941 0.64313725
v 0.24958934 0.04392595 0.05641440 0.54117647 0.42352941 0.64313725
v 0.24252079 0.04164744 0.05010362 0.54117647 0.42352941 0.64313725
v 0.24252079 0.04136262 0.05321792 0.54117647 0.42352941 0.64313725
v 0.24252079 0.04132587 0.05358770 0.54117647 0.42352941 0.64313725
v 0.23505530 0.02789362 0.01358651 0.54117647 0.42352941 0.64313725
v 0.22960504 -0.02591805 0.01358651 0.54117647 0.42352941 0.64313725
v 0.22960504 -0.01597709 0.00557477 0.54117647 0.42352941 0.64313725
v 0.24414289 -0.04738944 0.06915923 0.54117647 0.42352941 0.64313725
v 0.25668461 -0.04976902 0.06473018 0.54117647 0.42352941 0.64313725
v 0.25915402 -0.04993440 0.06391668 0.54117647 0.42352941 0.64313725
v 0.26234861 -0.04985171 0.06486987 0.54117647 0.42352941 0.64313725
v 0.26419208 -0.04968633 0.06413854 0.54117647 0.42352941 0.64313725
v 0.26777979 -0.03843154 0.05656231 0.54117647 0.42352941 0.64313725
v 0.26735232 0.01703390 0.04767133 0.54117647 0.42352941 0.64313725
v 0.26724927 0.03630945 0.04500075 0.54117647 0.42352941 0.64313725
v 0.26762331 0.03819290 0.04659488 0.54117647 0.42352941 0.64313725
v 0.26820344 0.03813778 0.05002966 0.54117647 0.42352941 0.64313725
v 0.26796680 0.04155556 0.04983245 0.54117647 0.42352941 0.64313725
v 0.26750499 0.04338389 0.05076099 0.54117647 0.42352941 0.64313725
v 0.26736759 -0.04386140 0.05763054 0.54117647 0.42352941 0.64313725
v 0.26554320 -0.04738944 0.05997244 0.54117647 0.42352941 0.64313725
v 0.23363930 -0.02570674 -0.00103183 0.54117647 0.42352941 0.64313725
v 0.23604383 -0.02454910 -0.00103183 0.54117647 0.42352941 0.64313725
v 0.23763922 -0.02353847 -0.00103183 0.54117647 0.42352941 0.64313725
v 0.23962390 -0.02193983 -0.00103183 0.54117647 0.42352941 0.64313725
v 0.24121547 -0.02046982 -0.00103183 0.54117647 0.42352941 0.64313725
v 0.24253224 -0.01888036 -0.00103183 0.54117647 0.42352941 0.64313725
v 0.24411617 -0.01654672 -0.00103183 0.54117647 0.42352941 0.64313725
v 0.24505127 -0.01495727 -0.00103183 0.54117647 0.42352941 0.64313725
v 0.26760041 -0.04162882 0.05707178 0.54117647 0.42352941 0.64313725
v 0.26647066 0.04338389 0.05076099 0.54117647 0.42352941 0.64313725
v 0.24783747 0.04303476 0.05104859 0.54117647 0.42352941 0.64313725
v 0.23505530 0.03118278 -0.00282318 0.54117647 0.42352941 0.64313725
v 0.23505530 0.03144003 -0.00102362 0.54117647 0.42352941 0.64313725
v 0.23505530 0.03123791 0.00216464 0.54117647 0.42352941 0.64313725
v 0.23505530 0.03064071 0.00536112 0.54117647 0.42352941 0.64313725
v 0.23505530 0.03020890 0.00702099 0.54117647 0.42352941 0.64313725
v 0.22960504 -0.02702975 0.00217286 0.54117647 0.42352941 0.64313725
v 0.22960504 -0.01427738 -0.00103183 0.54117647 0.42352941 0.64313725
v 0.24414289 -0.04753644 0.06597097 0.54117647 0.42352941 0.64313725
v 0.25668461 -0.04976902 0.06413854 0.54117647 0.42352941 0.64313725
v 0.22960504 -0.02688275 -0.00102362 0.54117647 0.42352941 0.64313725
v 0.26234861 -0.04985171 0.06391668 0.54117647 0.42352941 0.64313725
v 0.23044471 -0.02671737 -0.00103183 0.54117647 0.42352941 0.64313725
v 0.26739812 -0.03206455 0.05438476 0.54117647 0.42352941 0.64313725
v 0.24771915 0.00229702 -0.00403110 0.54117647 0.42352941 0.64313725
v 0.26394781 0.00461229 0.03886253 0.54117647 0.42352941 0.64313725
v 0.26724927 0.03717308 0.04500075 0.54117647 0.42352941 0.64313725
v 0.24766572 0.00622011 -0.00446661 0.54117647 0.42352941 0.64313725
v 0.26768055 0.04064599 0.04749877 0.54117647 0.42352941 0.64313725
v 0.24150173 0.02688299 -0.00560058 0.54117647 0.42352941 0.64313725
v 0.23551331 0.03026402 -0.00597857 0.54117647 0.42352941 0.64313725
v 0.23505530 0.03054884 -0.00554306 0.54117647 0.42352941 0.64313725
v 0.23505530 0.03095309 -0.00421188 0.54117647 0.42352941 0.64313725
v 0.24588713 -0.01291762 -0.00103183 0.54117647 0.42352941 0.64313725
v 0.24682604 -0.00972034 -0.00103183 0.54117647 0.42352941 0.64313725
v 0.24002466 0.00229702 -0.00965986 0.54117647 0.42352941 0.64313725
v 0.24266582 0.00229702 -0.00926544 0.54117647 0.42352941 0.64313725
v 0.24426503 0.00229702 -0.00883815 0.54117647 0.42352941 0.64313725
v 0.24608178 0.00229702 -0.00724402 0.54117647 0.42352941 0.64313725
v 0.22960504 -0.02386922 -0.00103183 0.54117647 0.42352941 0.64313725
v 0.23505530 0.03032833 -0.00608539 0.54117647 0.42352941 0.64313725
v 0.23505530 0.02747100 -0.00884637 0.54117647 0.42352941 0.64313725
v 0.23505530 0.02713106 -0.00909288 0.54117647 0.42352941 0.64313725
v 0.23505530 0.02528435 -0.00941335 0.54117647 0.42352941 0.64313725
v 0.23505530 0.02394296 -0.00960234 0.54117647 0.42352941 0.64313725
v 0.23505530 0.02216057 -0.00973382 0.54117647 0.42352941 0.64313725
v 0.23505530 0.02074568 -0.00981599 0.54117647 0.42352941 0.64313725
v 0.23505530 0.01754841 -0.00986529 0.54117647 0.42352941 0.64313725
v 0.23505530 0.01579358 -0.00988995 0.54117647 0.42352941 0.64313725
v 0.23505530 0.01259630 -0.00991459 0.54117647 0.42352941 0.64313725
v 0.25278393 -0.04858382 0.06278271 0.54117647 0.42352941 0.64313725
v 0.23505530 0.00798413 -0.00988173 0.54117647 0.42352941 0.64313725
v 0.23505530 0.00479604 -0.00985708 0.54117647 0.42352941 0.64313725
v 0.23505530 0.00229702 -0.00983243 0.54117647 0.42352941 0.64313725
v 0.23682626 0.00229702 -0.00981599 0.54117647 0.42352941 0.64313725
v 0.23755906 0.00229702 -0.00978312 0.54117647 0.42352941 0.64313725
v 0.24643673 0.00229702 -0.00655377 0.54117647 0.42352941 0.64313725
v 0.24751687 0.01259630 -0.00421188 0.54117647 0.42352941 0.64313725
v 0.24715428 0.01579358 -0.00421188 0.54117647 0.42352941 0.64313725
v 0.24582225 0.01579358 -0.00707145 0.54117647 0.42352941 0.64313725
v 0.24537569 0.01898167 -0.00659486 0.54117647 0.42352941 0.64313725
v 0.24608559 0.00302284 -0.00724402 0.54117647 0.42352941 0.64313725
v 0.24605506 0.00940821 -0.00722758 0.54117647 0.42352941 0.64313725
v 0.24601308 0.01259630 -0.00721115 0.54117647 0.42352941 0.64313725
v 0.24243301 0.02475147 -0.00662773 0.54117647 0.42352941 0.64313725
v 0.24499783 0.02103969 -0.00609361 0.54117647 0.42352941 0.64313725
v 0.23937200 0.02762718 -0.00649625 0.54117647 0.42352941 0.64313725
v 0.23654000 0.02840813 -0.00730154 0.54117647 0.42352941 0.64313725
v 0.23544461 0.02706674 -0.00906823 0.54117647 0.42352941 0.64313725
v 0.23682626 0.01259630 -0.00989816 0.54117647 0.42352941 0.64313725
v 0.24002466 0.01259630 -0.00972560 0.54117647 0.42352941 0.64313725
v 0.24002466 0.01579358 -0.00973382 0.54117647 0.42352941 0.64313725
v 0.24266964 0.00940821 -0.00928187 0.54117647 0.42352941 0.64313725
v 0.24265437 0.01259630 -0.00929009 0.54117647 0.42352941 0.64313725
v 0.24426503 0.00940821 -0.00882993 0.54117647 0.42352941 0.64313725
v 0.23663542 0.02519248 -0.00924900 0.54117647 0.42352941 0.64313725
v 0.23682626 0.02216057 -0.00965986 0.54117647 0.42352941 0.64313725
v 0.23682626 0.01898167 -0.00984064 0.54117647 0.42352941 0.64313725
v 0.23682626 0.01579358 -0.00989816 0.54117647 0.42352941 0.64313725
v 0.23682626 0.00302284 -0.00982421 0.54117647 0.42352941 0.64313725
v 0.24410091 0.01579358 -0.00866558 0.54117647 0.42352941 0.64313725
v 0.24361237 0.01898167 -0.00818899 0.54117647 0.42352941 0.64313725
v 0.24425357 0.01259630 -0.00881349 0.54117647 0.42352941 0.64313725
v 0.24084907 0.02275777 -0.00875598 0.54117647 0.42352941 0.64313725
v 0.24011626 0.02544973 -0.00762200 0.54117647 0.42352941 0.64313725
v 0.24310093 0.02189413 -0.00742479 0.54117647 0.42352941 0.64313725
v 0.23757051 0.02614798 -0.00862450 0.54117647 0.42352941 0.64313725
v 0.23872316 0.02401646 -0.00908466 0.54117647 0.42352941 0.64313725
v 0.24002466 0.01898167 -0.00955304 0.54117647 0.42352941 0.64313725
v 0.24251316 0.01579358 -0.00929009 0.54117647 0.42352941 0.64313725
v 0.23987581 0.02187576 -0.00919970 0.54117647 0.42352941 0.64313725
v 0.24201698 0.01898167 -0.00915040 0.54117647 0.42352941 0.64313725
v 0.24163913 0.02062625 -0.00901071 0.54117647 0.42352941 0.64313725
f 1 2 10
f 1 10 3
f 1 3 15
f 1 15 4
f 1 4 5
f 1 5 6
f 1 6 7
f 1 7 8
f 1 8 2
f 2 9 30
f 2 30 10
f 2 8 9
f 3 10 11
f 3 11 12
f 3 12 13
f 3 13 14
f 3 14 15
f 4 15 5
f 5 16 17
f 5 17 18
f 5 18 19
f 5 19 20
f 5 20 6
f 5 15 21
f 5 21 22
f 5 22 16
f 6 20 19
f 6 19 23
f 6 23 24
f 6 24 25
f 6 25 7
f 7 25 8
f 8 26 9
f 8 25 27
f 8 27 28
f 8 28 29
f 8 29 26
f 9 26 31
f 9 31 32
f 9 32 54
f 9 54 30
f 10 30 11
f 11 30 33
f 11 33 34
f 11 34 35
f 11 35 12
f 12 35 36
f 12 36 13
f 13 36 14
f 14 36 15
f 15 37 21
f 15 36 35
f 15 35 38
f 15 38 39
f 15 39 37
f 16 40 17
f 16 22 40
f 17 40 18
f 18 23 19
f 18 40 41
f 18 41 42
f 18 42 23
f 21 37 22
f 22 37 43
f 22 43 44
f 22 44 45
f 22 45 46
f 22 46 40
f 23 42 24
f 24 42 47
f 24 47 25
f 25 47 48
f 25 48 49
f 25 49 27
f 26 32 31
f 26 29 32
f 27 49 28
f 28 49 50
f 28 50 51
f 28 51 52
f 28 52 29
f 29 52 53
f 29 53 32
f 30 54 33
f 32 55 87
f 32 87 109
f 32 109 90
f 32 90 86
f 32 86 54
f 32 53 55
f 33 56 34
f 33 54 56
f 34 56 57
f 34 57 89
f 34 89 58
f 34 58 91
f 34 91 59
f 34 59 35
f 35 59 38
f 37 39 38
f 37 38 43
f 38 59 91
f 38 91 60
f 38 60 43
f 40 46 61
f 40 61 62
f 40 62 63
f 40 63 64
f 40 64 65
f 40 65 41
f 41 65 66
f 41 66 67
f 41 67 48
f 41 48 47
f 41 47 42
f 43 60 44
f 44 68 45
f 44 60 69
f 44 69 70
f 44 70 71
f 44 71 72
f 44 72 73
f 44 73 74
f 44 74 75
f 44 75 76
f 44 76 77
f 44 77 68
f 45 68 78
f 45 78 46
f 46 78 61
f 48 67 49
f 49 67 79
f 49 79 80
f 49 80 50
f 50 80 81
f 50 81 82
f 50 82 83
f 50 83 51
f 51 83 52
f 52 83 84
f 52 84 85
f 52 85 53
f 53 85 55
f 54 86 56
f 55 85 84
f 55 84 87
f 56 86 88
f 56 88 57
f 57 88 89
f 58 90 91
f 58 89 90
f 60 91 90
f 60 90 92
f 60 92 69
f 61 93 62
f 61 78 94
f 61 94 93
f 62 93 95
f 62 95 63
f 63 96 64
f 63 95 94
f 63 94 97
f 63 97 96
f 64 98 65
f 64 96 98
f 65 98 66
f 66 98 67
f 67 98 99
f 67 99 100
f 67 100 101
f 67 101 102
f 67 102 79
f 68 77 103
f 68 103 104
f 68 104 78
f 69 92 70
f 70 92 105
f 70 105 106
f 70 106 71
f 71 106 72
f 72 106 107
f 72 107 73
f 73 107 74
f 74 107 75
f 75 107 76
f 76 107 77
f 77 107 108
f 77 108 103
f 78 104 94
f 79 102 80
f 80 102 81
f 81 102 87
f 81 87 82
f 82 87 83
f 83 87 84
f 86 90 88
f 87 102 101
f 87 101 110
f 87 110 111
f 87 111 112
f 87 112 113
f 87 113 114
f 87 114 115
f 87 115 116
f 87 116 117
f 87 117 118
f 87 118 119
f 87 119 109
f 88 120 89
f 88 90 120
f 89 120 90
f 90 109 119
f 90 119 121
f 90 121 122
f 90 122 123
f 90 123 124
f 90 124 125
f 90 125 105
f 90 105 92
f 93 94 95
f 94 126 97
f 94 104 126
f 96 97 127
f 96 127 128
f 96 128 129
f 96 129 130
f 96 130 98
f 97 126 108
f 97 108 131
f 97 131 132
f 97 132 133
f 97 133 127
f 98 134 99
f 98 130 135
f 98 135 134
f 99 134 136
f 99 136 100
f 100 110 101
f 100 136 137
f 100 137 138
f 100 138 111
f 100 111 110
f 103 108 104
f 104 108 126
f 105 125 139
f 105 139 140
f 105 140 106
f 106 140 141
f 106 141 142
f 106 142 107
f 107 142 143
f 107 143 144
f 107 144 131
f 107 131 108
f 111 138 112
f 112 138 113
f 113 138 145
f 113 145 146
f 113 146 114
f 114 146 115
f 115 146 116
f 116 146 147
f 116 147 148
f 116 148 117
f 117 148 118
f 118 148 119
f 119 148 139
f 119 139 121
f 121 139 149
f 121 149 122
f 122 149 123
f 123 149 124
f 124 149 125
f 125 149 139
f 127 133 129
f 127 129 128
f 129 133 150
f 129 150 130
f 130 150 151
f 130 151 135
f 131 144 132
f 132 144 152
f 132 152 133
f 133 152 150
f 134 153 154
f 134 154 136
f 134 135 155
f 134 155 153
f 135 151 155
f 136 154 156
f 136 156 138
f 136 138 137
f 138 156 157
f 138 157 145
f 139 148 141
f 139 141 140
f 141 148 147
f 141 147 158
f 141 158 159
f 141 159 143
f 141 143 142
f 143 159 152
f 143 152 144
f 145 157 146
f 146 157 160
f 146 160 158
f 146 158 147
f 150 152 159
f 150 159 161
f 150 161 162
f 150 162 151
f 151 162 155
f 153 157 156
f 153 156 154
f 153 155 162
f 153 162 157
f 157 162 160
f 158 160 162
f 158 162 161
f 158 161 159

