# https://github.com/mikedh/trimesh
v 0.09295582 0.01182430 0.01358628 0.79607843 0.45882353 0.78039216
v 0.09673143 0.01714842 0.05960624 0.79607843 0.45882353 0.78039216
v 0.09457088 0.02041411 0.07478411 0.79607843 0.45882353 0.78039216
v 0.09431419 0.02019408 0.07236500 0.79607843 0.45882353 0.78039216
v 0.09408957 0.01991905 0.06917531 0.79607843 0.45882353 0.78039216
v 0.09408957 0.02186746 0.06917531 0.79607843 0.45882353 0.78039216
v 0.09461367 0.03669915 0.07439882 0.79607843 0.45882353 0.78039216
v 0.09461367 0.03669915 0.07341981 0.79607843 0.45882353 0.78039216
v 0.09772614 0.03036174 0.05089618 0.79607843 0.45882353 0.78039216
v 0.09800423 0.02699471 0.04200926 0.79607843 0.45882353 0.78039216
v 0.10726677 0.02401564 0.01905612 0.79607843 0.45882353 0.78039216
v 0.10661433 0.02128554 0.01358628 0.79607843 0.45882353 0.78039216
v 0.11345962 0.01182430 0.01358628 0.79607843 0.45882353 0.78039216
v 0.10706355 0.01182430 0.02426069 0.79607843 0.45882353 0.78039216
v 0.09705231 0.01735976 0.06131794 0.79607843 0.45882353 0.78039216
v 0.10244298 0.01584851 0.05322055 0.79607843 0.45882353 0.78039216
v 0.10279594 0.01584851 0.05342898 0.79607843 0.45882353 0.78039216
v 0.12832675 0.01584851 0.06822156 0.79607843 0.45882353 0.78039216
v 0.09446393 0.02290102 0.07811276 0.79607843 0.45882353 0.78039216
v 0.09435697 0.02197458 0.07573154 0.79607843 0.45882353 0.78039216
v 0.09641056 0.01956584 0.07236500 0.79607843 0.45882353 0.78039216
v 0.09633569 0.02021724 0.07573154 0.79607843 0.45882353 0.78039216
v 0.09522333 0.02077311 0.07691267 0.79607843 0.45882353 0.78039216
v 0.09446393 0.02401274 0.07811276 0.79607843 0.45882353 0.78039216
v 0.10919201 0.04000248 0.07184707 0.79607843 0.45882353 0.78039216
v 0.10739512 0.03995905 0.07127861 0.79607843 0.45882353 0.78039216
v 0.12014448 0.03986061 0.07420933 0.79607843 0.45882353 0.78039216
v 0.10739512 0.03995905 0.07008484 0.79607843 0.45882353 0.78039216
v 0.11007976 0.03993878 0.06654776 0.79607843 0.45882353 0.78039216
v 0.11052898 0.03672231 0.05433851 0.79607843 0.45882353 0.78039216
v 0.11555599 0.02611170 0.01358628 0.79607843 0.45882353 0.78039216
v 0.11234726 0.02453386 0.01358628 0.79607843 0.45882353 0.78039216
v 0.11372702 0.01182430 0.01487479 0.79607843 0.45882353 0.78039216
v 0.11965248 0.02103656 0.01358628 0.79607843 0.45882353 0.78039216
v 0.20222385 0.02139266 0.02426700 0.79607843 0.45882353 0.78039216
v 0.11366284 0.01182430 0.02426069 0.79607843 0.45882353 0.78039216
v 0.12963163 0.01584851 0.06817735 0.79607843 0.45882353 0.78039216
v 0.11098890 0.02043148 0.07737376 0.79607843 0.45882353 0.78039216
v 0.11031507 0.02043148 0.07737376 0.79607843 0.45882353 0.78039216
v 0.09735179 0.02050386 0.07729797 0.79607843 0.45882353 0.78039216
v 0.09633569 0.02197458 0.07791695 0.79607843 0.45882353 0.78039216
v 0.20051253 0.03297024 0.07417144 0.79607843 0.45882353 0.78039216
v 0.19851242 0.03848543 0.07438619 0.79607843 0.45882353 0.78039216
v 0.19851242 0.04015013 0.07438619 0.79607843 0.45882353 0.78039216
v 0.10908505 0.04007486 0.06908057 0.79607843 0.45882353 0.78039216
v 0.18895040 0.04140082 0.06917531 0.79607843 0.45882353 0.78039216
v 0.18895040 0.04094049 0.07237132 0.79607843 0.45882353 0.78039216
v 0.18730325 0.03975639 0.05473012 0.79607843 0.45882353 0.78039216
v 0.13287245 0.03030094 0.02426700 0.79607843 0.45882353 0.78039216
v 0.11688227 0.02640121 0.01358628 0.79607843 0.45882353 0.78039216
v 0.11380189 0.01182430 0.01800132 0.79607843 0.45882353 0.78039216
v 0.11965248 0.02651412 0.01358628 0.79607843 0.45882353 0.78039216
v 0.20222385 0.03110578 0.02426700 0.79607843 0.45882353 0.78039216
v 0.20222385 0.02139266 0.05952413 0.79607843 0.45882353 0.78039216
v 0.11379119 0.01182430 0.02166472 0.79607843 0.45882353 0.78039216
v 0.17684278 0.01956295 0.06851842 0.79607843 0.45882353 0.78039216
v 0.17638286 0.01956295 0.06931427 0.79607843 0.45882353 0.78039216
v 0.13036964 0.01584851 0.06813945 0.79607843 0.45882353 0.78039216
v 0.17532398 0.02287786 0.07165758 0.79607843 0.45882353 0.78039216
v 0.20222385 0.02974218 0.07145546 0.79607843 0.45882353 0.78039216
v 0.20222385 0.03195984 0.07220709 0.79607843 0.45882353 0.78039216
v 0.20051253 0.03397195 0.07417144 0.79607843 0.45882353 0.78039216
v 0.20044835 0.03909341 0.07422197 0.79607843 0.45882353 0.78039216
v 0.20044835 0.04004301 0.07422197 0.79607843 0.45882353 0.78039216
v 0.19851242 0.04078995 0.07237132 0.79607843 0.45882353 0.78039216
v 0.20184949 0.04063940 0.06910583 0.79607843 0.45882353 0.78039216
v 0.20188159 0.04048017 0.06597930 0.79607843 0.45882353 0.78039216
v 0.18738881 0.03975639 0.05473012 0.79607843 0.45882353 0.78039216
v 0.20187089 0.03113763 0.02426700 0.79607843 0.45882353 0.78039216
v 0.18722838 0.03338713 0.03228860 0.79607843 0.45882353 0.78039216
v 0.11885029 0.02649675 0.01358628 0.79607843 0.45882353 0.78039216
v 0.11380189 0.01182430 0.02131101 0.79607843 0.45882353 0.78039216
v 0.20039487 0.03986641 0.06057262 0.79607843 0.45882353 0.78039216
v 0.20222385 0.04042806 0.06606142 0.79607843 0.45882353 0.78039216
v 0.20096175 0.02139266 0.06124214 0.79607843 0.45882353 0.78039216
v 0.20222385 0.04056124 0.06901740 0.79607843 0.45882353 0.78039216
v 0.20092966 0.04047438 0.07237132 0.79607843 0.45882353 0.78039216
v 0.20222385 0.04056124 0.06882160 0.79607843 0.45882353 0.78039216
v 0.20092966 0.04014145 0.06278962 0.79607843 0.45882353 0.78039216
f 1 2 3
f 1 3 4
f 1 4 5
f 1 5 6
f 1 6 7
f 1 7 8
f 1 8 9
f 1 9 10
f 1 10 11
f 1 11 12
f 1 12 32
f 1 32 31
f 1 31 50
f 1 50 71
f 1 71 52
f 1 52 34
f 1 34 13
f 1 13 33
f 1 33 51
f 1 51 72
f 1 72 55
f 1 55 36
f 1 36 14
f 1 14 2
f 2 15 3
f 2 14 16
f 2 16 17
f 2 17 18
f 2 18 15
f 3 19 20
f 3 20 4
f 3 15 21
f 3 21 22
f 3 22 23
f 3 23 19
f 4 20 5
f 5 20 6
f 6 20 24
f 6 24 7
f 7 25 26
f 7 26 28
f 7 28 8
f 7 24 27
f 7 27 25
f 8 28 29
f 8 29 30
f 8 30 31
f 8 31 11
f 8 11 9
f 9 11 10
f 11 31 32
f 11 32 12
f 13 34 35
f 13 35 33
f 14 36 18
f 14 18 17
f 14 17 16
f 15 22 21
f 15 18 22
f 18 37 38
f 18 38 39
f 18 39 40
f 18 40 22
f 18 36 37
f 19 24 20
f 19 23 40
f 19 40 41
f 19 41 38
f 19 38 42
f 19 42 43
f 19 43 44
f 19 44 24
f 22 40 23
f 24 44 27
f 25 45 26
f 25 27 46
f 25 46 45
f 26 45 28
f 27 44 47
f 27 47 46
f 28 45 29
f 29 45 46
f 29 46 48
f 29 48 49
f 29 49 50
f 29 50 30
f 30 50 31
f 33 35 51
f 34 52 53
f 34 53 35
f 35 53 74
f 35 74 78
f 35 78 76
f 35 76 61
f 35 61 60
f 35 60 54
f 35 54 72
f 35 72 51
f 36 55 54
f 36 54 56
f 36 56 57
f 36 57 58
f 36 58 37
f 37 58 38
f 38 41 39
f 38 58 57
f 38 57 59
f 38 59 42
f 39 41 40
f 42 59 57
f 42 57 60
f 42 60 61
f 42 61 62
f 42 62 64
f 42 64 63
f 42 63 43
f 43 63 64
f 43 64 44
f 44 64 65
f 44 65 47
f 46 47 65
f 46 65 66
f 46 66 67
f 46 67 68
f 46 68 48
f 48 68 69
f 48 69 70
f 48 70 49
f 49 70 69
f 49 69 52
f 49 52 71
f 49 71 50
f 52 69 53
f 53 69 68
f 53 68 73
f 53 73 74
f 54 60 75
f 54 75 57
f 54 57 56
f 54 55 72
f 57 75 60
f 61 76 64
f 61 64 62
f 64 77 65
f 64 76 77
f 65 77 66
f 66 77 76
f 66 76 78
f 66 78 74
f 66 74 67
f 67 74 79
f 67 79 68
f 68 79 73
f 73 79 74

