# https://github.com/mikedh/trimesh
v 0.16854328 -0.01944377 0.07126293 0.38039216 0.78823529 0.52549020
v 0.16693920 -0.01930792 0.07128604 0.38039216 0.78823529 0.52549020
v 0.16707749 -0.02181346 0.07129066 0.38039216 0.78823529 0.52549020
v 0.16854328 -0.02194159 0.07126293 0.38039216 0.78823529 0.52549020
v 0.16854328 -0.01862402 0.07111502 0.38039216 0.78823529 0.52549020
v 0.16792693 -0.01760977 0.07094400 0.38039216 0.78823529 0.52549020
v 0.16173977 -0.01733497 0.07099947 0.38039216 0.78823529 0.52549020
v 0.12818449 -0.01916280 0.07141545 0.38039216 0.78823529 0.52549020
v 0.13408323 -0.01974017 0.07147554 0.38039216 0.78823529 0.52549020
v 0.15850791 -0.02443479 0.07122595 0.38039216 0.78823529 0.52549020
v 0.15648502 -0.02242325 0.07135074 0.38039216 0.78823529 0.52549020
v 0.16854328 -0.02729076 0.06879014 0.38039216 0.78823529 0.52549020
v 0.16854328 -0.01740908 0.07004733 0.38039216 0.78823529 0.52549020
v 0.15882793 -0.01411775 0.06819852 0.38039216 0.78823529 0.52549020
v 0.16067302 -0.01733497 0.07099947 0.38039216 0.78823529 0.52549020
v 0.12818449 -0.02146920 0.07137848 0.38039216 0.78823529 0.52549020
v 0.13392124 -0.02248963 0.07146167 0.38039216 0.78823529 0.52549020
v 0.13831468 -0.01764990 0.07088392 0.38039216 0.78823529 0.52549020
v 0.12818449 -0.01690426 0.06904897 0.38039216 0.78823529 0.52549020
v 0.15759129 -0.02443479 0.07122595 0.38039216 0.78823529 0.52549020
v 0.13234877 -0.02420013 0.07098098 0.38039216 0.78823529 0.52549020
v 0.16836154 -0.02729076 0.06876240 0.38039216 0.78823529 0.52549020
v 0.16854328 -0.02729076 0.02425684 0.38039216 0.78823529 0.52549020
v 0.16854328 -0.01655846 0.06665476 0.38039216 0.78823529 0.52549020
v 0.16854328 -0.01585295 0.06352564 0.38039216 0.78823529 0.52549020
v 0.16854328 -0.01168014 0.04303154 0.38039216 0.78823529 0.52549020
v 0.16149482 -0.01168014 0.04886455 0.38039216 0.78823529 0.52549020
v 0.15989468 -0.01168014 0.04976584 0.38039216 0.78823529 0.52549020
v 0.13947625 -0.01151958 0.05911622 0.38039216 0.78823529 0.52549020
v 0.15770192 -0.01411775 0.06819852 0.38039216 0.78823529 0.52549020
v 0.13112793 -0.02231055 0.07135999 0.38039216 0.78823529 0.52549020
v 0.12818449 -0.02214691 0.06948344 0.38039216 0.78823529 0.52549020
v 0.13816059 -0.01151958 0.05911622 0.38039216 0.78823529 0.52549020
v 0.13754424 -0.01151958 0.05637073 0.38039216 0.78823529 0.52549020
v 0.13725978 -0.01151958 0.05462360 0.38039216 0.78823529 0.52549020
v 0.12818449 -0.01672518 0.06252266 0.38039216 0.78823529 0.52549020
v 0.12818449 -0.02225343 0.06917377 0.38039216 0.78823529 0.52549020
v 0.12818449 -0.02261622 0.06649299 0.38039216 0.78823529 0.52549020
v 0.12818449 -0.02559570 0.03964821 0.38039216 0.78823529 0.52549020
v 0.13033379 -0.02559570 0.04705733 0.38039216 0.78823529 0.52549020
v 0.13151512 -0.02559570 0.05016334 0.38039216 0.78823529 0.52549020
v 0.13161389 -0.02559570 0.05034822 0.38039216 0.78823529 0.52549020
v 0.14386969 -0.02559570 0.06612322 0.38039216 0.78823529 0.52549020
v 0.16747258 -0.02729076 0.06841113 0.38039216 0.78823529 0.52549020
v 0.15377864 -0.02729076 0.02425684 0.38039216 0.78823529 0.52549020
v 0.16854328 -0.02058462 0.02425684 0.38039216 0.78823529 0.52549020
v 0.16854328 -0.01168014 0.03504929 0.38039216 0.78823529 0.52549020
v 0.14981585 -0.01151958 0.05109237 0.38039216 0.78823529 0.52549020
v 0.14911259 -0.01151958 0.05228947 0.38039216 0.78823529 0.52549020
v 0.13725978 -0.01151958 0.05321851 0.38039216 0.78823529 0.52549020
v 0.12818449 -0.01705092 0.05912084 0.38039216 0.78823529 0.52549020
v 0.12818449 -0.02559570 0.02426146 0.38039216 0.78823529 0.52549020
v 0.14981585 -0.02729076 0.04258783 0.38039216 0.78823529 0.52549020
v 0.15753992 -0.02729076 0.05944901 0.38039216 0.78823529 0.52549020
v 0.14981585 -0.02621630 0.02425684 0.38039216 0.78823529 0.52549020
v 0.14981585 -0.02729076 0.02762630 0.38039216 0.78823529 0.52549020
v 0.16599493 -0.02052750 0.02425684 0.38039216 0.78823529 0.52549020
v 0.16280258 -0.02049662 0.02425684 0.38039216 0.78823529 0.52549020
v 0.15987889 -0.02047346 0.02425684 0.38039216 0.78823529 0.52549020
v 0.13788798 -0.02049508 0.02426146 0.38039216 0.78823529 0.52549020
v 0.13740596 -0.02049662 0.02426146 0.38039216 0.78823529 0.52549020
v 0.13153488 -0.02055683 0.02426146 0.38039216 0.78823529 0.52549020
v 0.16618458 -0.01168014 0.03508626 0.38039216 0.78823529 0.52549020
v 0.14981585 -0.01151958 0.03774856 0.38039216 0.78823529 0.52549020
v 0.13765092 -0.01151958 0.05167474 0.38039216 0.78823529 0.52549020
v 0.12818449 -0.02070657 0.02426146 0.38039216 0.78823529 0.52549020
v 0.12818449 -0.01767461 0.05314917 0.38039216 0.78823529 0.52549020
v 0.14981585 -0.02083471 0.02425684 0.38039216 0.78823529 0.52549020
v 0.13109237 -0.02057072 0.02426146 0.38039216 0.78823529 0.52549020
v 0.15322946 -0.01168014 0.03692121 0.38039216 0.78823529 0.52549020
v 0.14817226 -0.01151958 0.03858514 0.38039216 0.78823529 0.52549020
v 0.13805392 -0.01151958 0.05046839 0.38039216 0.78823529 0.52549020
f 1 2 3
f 1 3 4
f 1 4 12
f 1 12 23
f 1 23 46
f 1 46 47
f 1 47 26
f 1 26 25
f 1 25 24
f 1 24 13
f 1 13 5
f 1 5 2
f 2 5 6
f 2 6 7
f 2 7 8
f 2 8 9
f 2 9 3
f 3 10 4
f 3 9 11
f 3 11 10
f 4 10 12
f 5 13 6
f 6 13 14
f 6 14 7
f 7 15 8
f 7 14 30
f 7 30 15
f 8 16 17
f 8 17 9
f 8 15 18
f 8 18 19
f 8 19 36
f 8 36 51
f 8 51 67
f 8 67 66
f 8 66 52
f 8 52 39
f 8 39 38
f 8 38 37
f 8 37 32
f 8 32 16
f 9 17 11
f 10 11 17
f 10 17 20
f 10 20 12
f 12 20 21
f 12 21 22
f 12 22 44
f 12 44 54
f 12 54 53
f 12 53 56
f 12 56 45
f 12 45 23
f 13 24 14
f 14 24 25
f 14 25 26
f 14 26 27
f 14 27 28
f 14 28 29
f 14 29 33
f 14 33 30
f 15 30 18
f 16 31 17
f 16 32 21
f 16 21 31
f 17 31 21
f 17 21 20
f 18 30 19
f 19 30 33
f 19 33 34
f 19 34 35
f 19 35 36
f 21 32 37
f 21 37 38
f 21 38 39
f 21 39 40
f 21 40 41
f 21 41 42
f 21 42 43
f 21 43 44
f 21 44 22
f 23 45 55
f 23 55 68
f 23 68 59
f 23 59 58
f 23 58 57
f 23 57 46
f 26 47 64
f 26 64 48
f 26 48 49
f 26 49 27
f 27 49 29
f 27 29 28
f 29 49 48
f 29 48 64
f 29 64 71
f 29 71 72
f 29 72 65
f 29 65 50
f 29 50 35
f 29 35 34
f 29 34 33
f 35 50 36
f 36 50 51
f 39 52 56
f 39 56 53
f 39 53 40
f 40 53 41
f 41 53 54
f 41 54 42
f 42 54 43
f 43 54 44
f 45 56 52
f 45 52 55
f 46 57 47
f 47 57 58
f 47 58 59
f 47 59 60
f 47 60 61
f 47 61 62
f 47 62 63
f 47 63 64
f 50 65 66
f 50 66 67
f 50 67 51
f 52 66 68
f 52 68 55
f 59 68 69
f 59 69 62
f 59 62 61
f 59 61 60
f 62 69 63
f 63 70 64
f 63 69 66
f 63 66 70
f 64 70 66
f 64 66 71
f 65 72 66
f 66 72 71
f 66 69 68

