# https://github.com/mikedh/trimesh
v 0.20212771 0.02138882 0.02425684 0.94117647 0.52156863 0.41176471
v 0.20222162 0.02138882 0.02425684 0.94117647 0.52156863 0.41176471
v 0.20222162 0.02136293 0.02425684 0.94117647 0.52156863 0.41176471
v 0.20190674 -0.01167867 0.03508441 0.94117647 0.52156863 0.41176471
v 0.18894134 -0.01167867 0.03691912 0.94117647 0.52156863 0.41176471
v 0.18575385 -0.01167867 0.03762336 0.94117647 0.52156863 0.41176471
v 0.18717358 0.00760315 0.03240184 0.94117647 0.52156863 0.41176471
v 0.15453082 0.01956001 0.04439696 0.94117647 0.52156863 0.41176471
v 0.18219072 0.02138882 0.03304584 0.94117647 0.52156863 0.41176471
v 0.20222162 0.02138882 0.05952870 0.94117647 0.52156863 0.41176471
v 0.20426559 0.00284500 0.04516143 0.94117647 0.52156863 0.41176471
v 0.20426559 -0.00396529 0.03816080 0.94117647 0.52156863 0.41176471
v 0.20426559 -0.01167867 0.03504272 0.94117647 0.52156863 0.41176471
v 0.18553841 -0.01167867 0.03775308 0.94117647 0.52156863 0.41176471
v 0.18389218 -0.01151359 0.03859168 0.94117647 0.52156863 0.41176471
v 0.15505010 0.01673426 0.04491587 0.94117647 0.52156863 0.41176471
v 0.15317738 0.01956001 0.04685251 0.94117647 0.52156863 0.41176471
v 0.18111348 0.02138882 0.03368058 0.94117647 0.52156863 0.41176471
v 0.20426559 -0.00388113 0.05930631 0.94117647 0.52156863 0.41176471
v 0.20426559 0.00284500 0.04893741 0.94117647 0.52156863 0.41176471
v 0.20097314 0.02138882 0.06124758 0.94117647 0.52156863 0.41176471
v 0.20076874 0.02132409 0.06167846 0.94117647 0.52156863 0.41176471
v 0.19702883 0.01769236 0.07085665 0.94117647 0.52156863 0.41176471
v 0.20073008 0.00851270 0.07158868 0.94117647 0.52156863 0.41176471
v 0.20426559 -0.01167867 0.04303483 0.94117647 0.52156863 0.41176471
v 0.18553841 -0.01167867 0.05113814 0.94117647 0.52156863 0.41176471
v 0.17298732 -0.01151359 0.05322767 0.94117647 0.52156863 0.41176471
v 0.17337954 -0.01151359 0.05168484 0.94117647 0.52156863 0.41176471
v 0.17378281 -0.01151359 0.05047097 0.94117647 0.52156863 0.41176471
v 0.15511639 0.01388584 0.04780693 0.94117647 0.52156863 0.41176471
v 0.15453635 0.01571789 0.04678301 0.94117647 0.52156863 0.41176471
v 0.15229350 0.01956001 0.05006326 0.94117647 0.52156863 0.41176471
v 0.14782992 0.01272706 0.06406914 0.94117647 0.52156863 0.41176471
v 0.18111348 0.02138882 0.05322304 0.94117647 0.52156863 0.41176471
v 0.15189023 0.01956001 0.05343153 0.94117647 0.52156863 0.41176471
v 0.15159745 0.01956001 0.05640598 0.94117647 0.52156863 0.41176471
v 0.15135991 0.01956001 0.05960283 0.94117647 0.52156863 0.41176471
v 0.15133229 0.01956001 0.06022830 0.94117647 0.52156863 0.41176471
v 0.20426559 -0.00574879 0.05930631 0.94117647 0.52156863 0.41176471
v 0.19970809 0.02138882 0.06124758 0.94117647 0.52156863 0.41176471
v 0.19413413 0.02067348 0.07101418 0.94117647 0.52156863 0.41176471
v 0.19525003 0.01884791 0.07111147 0.94117647 0.52156863 0.41176471
v 0.19949265 0.00851270 0.07158868 0.94117647 0.52156863 0.41176471
v 0.20073008 0.00723739 0.07158868 0.94117647 0.52156863 0.41176471
v 0.19238294 0.01882849 0.07136166 0.94117647 0.52156863 0.41176471
v 0.20013347 -0.00495576 0.07078252 0.94117647 0.52156863 0.41176471
v 0.19851485 -0.00590739 0.06917483 0.94117647 0.52156863 0.41176471
v 0.19721114 -0.01167867 0.04887255 0.94117647 0.52156863 0.41176471
v 0.17520807 -0.01151359 0.05911635 0.94117647 0.52156863 0.41176471
v 0.17388225 -0.01151359 0.05911635 0.94117647 0.52156863 0.41176471
v 0.17327458 -0.01151359 0.05636892 0.94117647 0.52156863 0.41176471
v 0.17298732 -0.01151359 0.05462224 0.94117647 0.52156863 0.41176471
v 0.19560910 -0.01167867 0.04977137 0.94117647 0.52156863 0.41176471
v 0.14782992 0.01006962 0.06917483 0.94117647 0.52156863 0.41176471
v 0.14782992 0.01039330 0.06637180 0.94117647 0.52156863 0.41176471
v 0.15845304 0.00284500 0.05736967 0.94117647 0.52156863 0.41176471
v 0.14782992 0.01291479 0.06416181 0.94117647 0.52156863 0.41176471
v 0.14782992 0.01354921 0.06598262 0.94117647 0.52156863 0.41176471
v 0.15136543 0.01956001 0.06340198 0.94117647 0.52156863 0.41176471
v 0.15166374 0.01956001 0.06495407 0.94117647 0.52156863 0.41176471
v 0.19360933 0.02067348 0.07101418 0.94117647 0.52156863 0.41176471
v 0.19896785 0.02138882 0.06120588 0.94117647 0.52156863 0.41176471
v 0.14782992 0.01354921 0.06672392 0.94117647 0.52156863 0.41176471
v 0.20034891 -0.00335029 0.07103734 0.94117647 0.52156863 0.41176471
v 0.15065833 0.01080114 0.07131996 0.94117647 0.52156863 0.41176471
v 0.17937887 -0.00553839 0.07142652 0.94117647 0.52156863 0.41176471
v 0.15065833 0.01192109 0.07131996 0.94117647 0.52156863 0.41176471
v 0.19614496 0.00409766 0.07155162 0.94117647 0.52156863 0.41176471
v 0.19752602 0.00409766 0.07155162 0.94117647 0.52156863 0.41176471
v 0.19610628 -0.00540245 0.07142189 0.94117647 0.52156863 0.41176471
v 0.19841542 -0.00317874 0.07137092 0.94117647 0.52156863 0.41176471
v 0.19851485 -0.00529887 0.07126900 0.94117647 0.52156863 0.41176471
v 0.17445677 0.01812933 0.07094005 0.94117647 0.52156863 0.41176471
v 0.14782992 0.01169451 0.07129216 0.94117647 0.52156863 0.41176471
v 0.17428552 -0.00525355 0.07112537 0.94117647 0.52156863 0.41176471
v 0.14782992 0.01058104 0.07129216 0.94117647 0.52156863 0.41176471
v 0.14782992 0.01008256 0.06942039 0.94117647 0.52156863 0.41176471
v 0.17618034 -0.00548013 0.07138019 0.94117647 0.52156863 0.41176471
v 0.14782992 0.01323848 0.06905900 0.94117647 0.52156863 0.41176471
v 0.17407007 0.01956001 0.06939259 0.94117647 0.52156863 0.41176471
v 0.14782992 0.01187577 0.07116707 0.94117647 0.52156863 0.41176471
f 1 2 3
f 1 3 4
f 1 4 5
f 1 5 6
f 1 6 7
f 1 7 8
f 1 8 9
f 1 9 18
f 1 18 34
f 1 34 62
f 1 62 40
f 1 40 21
f 1 21 10
f 1 10 2
f 2 10 20
f 2 20 11
f 2 11 12
f 2 12 13
f 2 13 3
f 3 13 4
f 4 13 25
f 4 25 48
f 4 48 53
f 4 53 26
f 4 26 14
f 4 14 6
f 4 6 5
f 6 14 15
f 6 15 16
f 6 16 8
f 6 8 7
f 8 16 17
f 8 17 18
f 8 18 9
f 10 19 20
f 10 21 22
f 10 22 23
f 10 23 24
f 10 24 19
f 11 20 19
f 11 19 39
f 11 39 25
f 11 25 13
f 11 13 12
f 14 26 52
f 14 52 27
f 14 27 28
f 14 28 29
f 14 29 15
f 15 29 16
f 16 30 31
f 16 31 17
f 16 29 30
f 17 32 18
f 17 31 33
f 17 33 32
f 18 32 35
f 18 35 36
f 18 36 37
f 18 37 38
f 18 38 34
f 19 24 44
f 19 44 39
f 21 40 61
f 21 61 41
f 21 41 22
f 22 41 23
f 23 41 42
f 23 42 24
f 24 43 44
f 24 42 45
f 24 45 43
f 25 39 46
f 25 46 47
f 25 47 48
f 26 49 50
f 26 50 51
f 26 51 52
f 26 53 49
f 27 52 54
f 27 54 55
f 27 55 28
f 28 55 29
f 29 55 56
f 29 56 30
f 30 56 55
f 30 55 31
f 31 55 33
f 32 33 57
f 32 57 58
f 32 58 35
f 33 55 54
f 33 54 77
f 33 77 76
f 33 76 74
f 33 74 81
f 33 81 79
f 33 79 63
f 33 63 58
f 33 58 57
f 34 38 59
f 34 59 60
f 34 60 61
f 34 61 62
f 35 58 36
f 36 58 37
f 37 58 38
f 38 58 63
f 38 63 59
f 39 44 64
f 39 64 46
f 40 62 61
f 41 61 45
f 41 45 42
f 43 65 66
f 43 66 44
f 43 45 67
f 43 67 65
f 44 66 68
f 44 68 69
f 44 69 70
f 44 70 71
f 44 71 72
f 44 72 64
f 45 61 73
f 45 73 74
f 45 74 67
f 46 64 72
f 46 72 47
f 47 53 48
f 47 72 49
f 47 49 53
f 49 72 70
f 49 70 66
f 49 66 50
f 50 75 76
f 50 76 77
f 50 77 51
f 50 66 78
f 50 78 75
f 51 77 52
f 52 77 54
f 59 63 79
f 59 79 60
f 60 80 61
f 60 79 81
f 60 81 73
f 60 73 80
f 61 80 73
f 65 67 74
f 65 74 76
f 65 76 66
f 66 76 78
f 66 70 69
f 66 69 68
f 70 72 71
f 73 81 74
f 75 78 76

