# https://github.com/mikedh/trimesh
v 0.15322455 0.00941596 0.03220731 0.56470588 0.92549020 0.07058824
v 0.15322455 0.01260554 0.03221502 0.56470588 0.92549020 0.07058824
v 0.15558893 0.01260554 0.03233452 0.56470588 0.92549020 0.07058824
v 0.15648938 0.00911627 0.03237692 0.56470588 0.92549020 0.07058824
v 0.15801960 0.00781353 0.03248871 0.56470588 0.92549020 0.07058824
v 0.15641204 0.00766368 0.03244245 0.56470588 0.92549020 0.07058824
v 0.15322455 0.00750772 0.03237307 0.56470588 0.92549020 0.07058824
v 0.15145127 0.00760558 0.03240005 0.56470588 0.92549020 0.07058824
v 0.15135736 0.00941596 0.03234994 0.56470588 0.92549020 0.07058824
v 0.15140708 0.01260554 0.03237692 0.56470588 0.92549020 0.07058824
v 0.15142918 0.01301226 0.03238849 0.56470588 0.92549020 0.07058824
v 0.15287101 0.01301226 0.03226513 0.56470588 0.92549020 0.07058824
v 0.15322455 0.01301226 0.03225357 0.56470588 0.92549020 0.07058824
v 0.15550606 0.01301226 0.03234994 0.56470588 0.92549020 0.07058824
v 0.15801960 0.00785634 0.03248871 0.56470588 0.92549020 0.07058824
v 0.16854328 -0.01167867 0.03504064 0.56470588 0.92549020 0.07058824
v 0.16618443 -0.01167867 0.03508304 0.56470588 0.92549020 0.07058824
v 0.15322455 -0.01167867 0.03691796 0.56470588 0.92549020 0.07058824
v 0.15003707 -0.01167867 0.03761955 0.56470588 0.92549020 0.07058824
v 0.11880299 0.01956267 0.04439641 0.56470588 0.92549020 0.07058824
v 0.14538565 0.01956267 0.03543769 0.56470588 0.92549020 0.07058824
v 0.15676007 0.01301226 0.03265833 0.56470588 0.92549020 0.07058824
v 0.15759976 0.00998477 0.03257738 0.56470588 0.92549020 0.07058824
v 0.15717991 0.01260554 0.03272772 0.56470588 0.92549020 0.07058824
v 0.16649931 0.01301226 0.04044131 0.56470588 0.92549020 0.07058824
v 0.16854328 -0.00396619 0.03815923 0.56470588 0.92549020 0.07058824
v 0.16854328 -0.01167867 0.04303179 0.56470588 0.92549020 0.07058824
v 0.15939513 0.01301226 0.03435062 0.56470588 0.92549020 0.07058824
v 0.14981610 -0.01167867 0.03775061 0.56470588 0.92549020 0.07058824
v 0.14816987 -0.01151659 0.03858712 0.56470588 0.92549020 0.07058824
v 0.11932227 0.01673700 0.04491297 0.56470588 0.92549020 0.07058824
v 0.11745507 0.01956267 0.04684811 0.56470588 0.92549020 0.07058824
v 0.14538565 0.01956267 0.05337056 0.56470588 0.92549020 0.07058824
v 0.15706943 0.01301226 0.03275084 0.56470588 0.92549020 0.07058824
v 0.16649931 0.01301226 0.04706013 0.56470588 0.92549020 0.07058824
v 0.16854328 0.00284415 0.04515968 0.56470588 0.92549020 0.07058824
v 0.16854328 -0.00574905 0.05930706 0.56470588 0.92549020 0.07058824
v 0.16441116 -0.00495701 0.07078687 0.56470588 0.92549020 0.07058824
v 0.16279807 -0.00590807 0.06917553 0.56470588 0.92549020 0.07058824
v 0.16149434 -0.01167867 0.04887577 0.56470588 0.92549020 0.07058824
v 0.14981610 -0.01167867 0.05113858 0.56470588 0.92549020 0.07058824
v 0.13725949 -0.01151659 0.05462339 0.56470588 0.92549020 0.07058824
v 0.13726501 -0.01151659 0.05322792 0.56470588 0.92549020 0.07058824
v 0.13765723 -0.01151659 0.05168598 0.56470588 0.92549020 0.07058824
v 0.13805498 -0.01151659 0.05047555 0.56470588 0.92549020 0.07058824
v 0.11939408 0.01388687 0.04780412 0.56470588 0.92549020 0.07058824
v 0.11881404 0.01571866 0.04678258 0.56470588 0.92549020 0.07058824
v 0.11210761 0.01272786 0.06407168 0.56470588 0.92549020 0.07058824
v 0.11657119 0.01956267 0.05006693 0.56470588 0.92549020 0.07058824
v 0.14238599 0.01956267 0.06610320 0.56470588 0.92549020 0.07058824
v 0.16542208 0.00894808 0.06917168 0.56470588 0.92549020 0.07058824
v 0.16567620 0.00915908 0.06598370 0.56470588 0.92549020 0.07058824
v 0.16854328 0.00284415 0.04894131 0.56470588 0.92549020 0.07058824
v 0.16500777 0.00723861 0.07158868 0.56470588 0.92549020 0.07058824
v 0.16462660 -0.00335152 0.07103743 0.56470588 0.92549020 0.07058824
v 0.16854328 -0.00388362 0.05930706 0.56470588 0.92549020 0.07058824
v 0.16279807 -0.00529951 0.07127258 0.56470588 0.92549020 0.07058824
v 0.15989232 -0.01167867 0.04977396 0.56470588 0.92549020 0.07058824
v 0.13948024 -0.01151659 0.05911817 0.56470588 0.92549020 0.07058824
v 0.13815994 -0.01151659 0.05911817 0.56470588 0.92549020 0.07058824
v 0.13754675 -0.01151659 0.05637350 0.56470588 0.92549020 0.07058824
v 0.11210761 0.01008262 0.06942224 0.56470588 0.92549020 0.07058824
v 0.11210761 0.01007039 0.06917553 0.56470588 0.92549020 0.07058824
v 0.11210761 0.01039455 0.06637304 0.56470588 0.92549020 0.07058824
v 0.12273073 0.00284415 0.05737191 0.56470588 0.92549020 0.07058824
v 0.11210761 0.01291746 0.06416420 0.56470588 0.92549020 0.07058824
v 0.11616792 0.01956267 0.05343223 0.56470588 0.92549020 0.07058824
v 0.11210761 0.01355049 0.06598370 0.56470588 0.92549020 0.07058824
v 0.14214845 0.01956267 0.06659662 0.56470588 0.92549020 0.07058824
v 0.14112094 0.01956267 0.06852406 0.56470588 0.92549020 0.07058824
v 0.14066795 0.01956267 0.06932202 0.56470588 0.92549020 0.07058824
v 0.16500777 0.00851383 0.07158868 0.56470588 0.92549020 0.07058824
v 0.16377034 0.00851383 0.07158868 0.56470588 0.92549020 0.07058824
v 0.16042816 0.00409491 0.07155399 0.56470588 0.92549020 0.07058824
v 0.16180371 0.00409491 0.07155399 0.56470588 0.92549020 0.07058824
v 0.16038397 -0.00540349 0.07142292 0.56470588 0.92549020 0.07058824
v 0.16269311 -0.00318026 0.07137281 0.56470588 0.92549020 0.07058824
v 0.14365656 -0.00554110 0.07142678 0.56470588 0.92549020 0.07058824
v 0.14046355 -0.00548300 0.07138052 0.56470588 0.92549020 0.07058824
v 0.13856321 -0.00525364 0.07112610 0.56470588 0.92549020 0.07058824
v 0.11210761 0.01058415 0.07129571 0.56470588 0.92549020 0.07058824
v 0.11587514 0.01956267 0.05640819 0.56470588 0.92549020 0.07058824
v 0.11210761 0.01355049 0.06672769 0.56470588 0.92549020 0.07058824
v 0.11560446 0.01956267 0.06023223 0.56470588 0.92549020 0.07058824
v 0.11563760 0.01956267 0.05960388 0.56470588 0.92549020 0.07058824
v 0.13834224 0.01956267 0.06939526 0.56470588 0.92549020 0.07058824
v 0.13946366 0.01813149 0.07094106 0.56470588 0.92549020 0.07058824
v 0.14049670 0.01577677 0.07114923 0.56470588 0.92549020 0.07058824
v 0.13853559 0.01579512 0.07114923 0.56470588 0.92549020 0.07058824
v 0.11493602 0.01080433 0.07132270 0.56470588 0.92549020 0.07058824
v 0.11493602 0.01192359 0.07132270 0.56470588 0.92549020 0.07058824
v 0.11210761 0.01169729 0.07129571 0.56470588 0.92549020 0.07058824
v 0.11210761 0.01324162 0.06905988 0.56470588 0.92549020 0.07058824
v 0.11564312 0.01956267 0.06340479 0.56470588 0.92549020 0.07058824
v 0.13872894 0.01813149 0.07094106 0.56470588 0.92549020 0.07058824
v 0.11594143 0.01956267 0.06495830 0.56470588 0.92549020 0.07058824
v 0.11210761 0.01187772 0.07116850 0.56470588 0.92549020 0.07058824
f 1 2 3
f 1 3 4
f 1 4 5
f 1 5 6
f 1 6 7
f 1 7 8
f 1 8 9
f 1 9 2
f 2 9 10
f 2 10 11
f 2 11 12
f 2 12 13
f 2 13 14
f 2 14 3
f 3 14 15
f 3 15 4
f 4 15 5
f 5 15 16
f 5 16 6
f 6 16 7
f 7 16 17
f 7 17 8
f 8 17 18
f 8 18 19
f 8 19 20
f 8 20 9
f 9 20 10
f 10 20 11
f 11 20 21
f 11 21 12
f 12 21 13
f 13 21 14
f 14 21 22
f 14 22 23
f 14 23 15
f 15 23 24
f 15 24 16
f 16 25 26
f 16 26 36
f 16 36 53
f 16 53 56
f 16 56 37
f 16 37 27
f 16 27 40
f 16 40 58
f 16 58 41
f 16 41 29
f 16 29 19
f 16 19 18
f 16 18 17
f 16 24 28
f 16 28 25
f 19 29 30
f 19 30 31
f 19 31 20
f 20 31 32
f 20 32 49
f 20 49 67
f 20 67 82
f 20 82 85
f 20 85 84
f 20 84 94
f 20 94 96
f 20 96 86
f 20 86 71
f 20 71 70
f 20 70 69
f 20 69 50
f 20 50 33
f 20 33 21
f 21 33 35
f 21 35 25
f 21 25 28
f 21 28 34
f 21 34 22
f 22 34 24
f 22 24 23
f 24 34 28
f 25 35 53
f 25 53 36
f 25 36 26
f 27 37 38
f 27 38 39
f 27 39 40
f 29 41 42
f 29 42 43
f 29 43 44
f 29 44 45
f 29 45 30
f 30 45 31
f 31 46 47
f 31 47 32
f 31 45 46
f 32 48 49
f 32 47 48
f 33 50 35
f 35 51 52
f 35 52 53
f 35 50 51
f 37 54 55
f 37 55 38
f 37 56 72
f 37 72 54
f 38 55 57
f 38 57 39
f 39 58 40
f 39 57 59
f 39 59 58
f 41 59 60
f 41 60 61
f 41 61 42
f 41 58 59
f 42 61 62
f 42 62 63
f 42 63 43
f 43 63 64
f 43 64 44
f 44 64 45
f 45 64 65
f 45 65 46
f 46 65 64
f 46 64 47
f 47 64 48
f 48 66 49
f 48 64 63
f 48 63 62
f 48 62 81
f 48 81 92
f 48 92 97
f 48 97 93
f 48 93 83
f 48 83 68
f 48 68 66
f 49 66 68
f 49 68 67
f 50 69 51
f 51 69 70
f 51 70 71
f 51 71 72
f 51 72 56
f 51 56 53
f 51 53 52
f 54 72 73
f 54 73 74
f 54 74 75
f 54 75 76
f 54 76 77
f 54 77 57
f 54 57 55
f 57 77 76
f 57 76 59
f 59 76 78
f 59 78 60
f 60 78 79
f 60 79 80
f 60 80 81
f 60 81 62
f 60 62 61
f 67 68 82
f 68 83 84
f 68 84 85
f 68 85 82
f 71 86 87
f 71 87 72
f 72 87 88
f 72 88 89
f 72 89 73
f 73 90 78
f 73 78 74
f 73 89 91
f 73 91 90
f 74 78 75
f 75 78 76
f 78 90 81
f 78 81 79
f 79 81 80
f 81 90 91
f 81 91 92
f 83 93 94
f 83 94 84
f 86 95 87
f 86 96 95
f 87 95 89
f 87 89 88
f 89 95 91
f 91 95 92
f 92 95 97
f 93 97 96
f 93 96 94
f 95 96 97

