# https://github.com/mikedh/trimesh
v 0.14185985 0.01956267 0.05960229 0.43529412 0.89019608 0.96078431
v 0.14173329 0.01956267 0.05641258 0.43529412 0.89019608 0.96078431
v 0.14133128 0.01956267 0.06279200 0.43529412 0.89019608 0.96078431
v 0.16752896 0.00284067 0.06033106 0.43529412 0.89019608 0.96078431
v 0.16752896 0.00284067 0.05419457 0.43529412 0.89019608 0.96078431
v 0.14157696 0.01956267 0.05582639 0.43529412 0.89019608 0.96078431
v 0.14046771 0.01956267 0.06575990 0.43529412 0.89019608 0.96078431
v 0.14782301 0.01324041 0.06906051 0.43529412 0.89019608 0.96078431
v 0.14782301 0.01187510 0.07117290 0.43529412 0.89019608 0.96078431
v 0.15933986 -0.00119992 0.07108841 0.43529412 0.89019608 0.96078431
v 0.16752896 -0.00049266 0.06162490 0.43529412 0.89019608 0.96078431
v 0.14002847 0.01956267 0.06672632 0.43529412 0.89019608 0.96078431
v 0.14058682 0.01956267 0.05319647 0.43529412 0.89019608 0.96078431
v 0.16752896 0.00210881 0.05416817 0.43529412 0.89019608 0.96078431
v 0.16388109 -0.02070790 0.02426201 0.43529412 0.89019608 0.96078431
v 0.11520061 0.01584189 0.02426201 0.43529412 0.89019608 0.96078431
v 0.13378987 0.01134620 0.07492240 0.43529412 0.89019608 0.96078431
v 0.14782301 0.01169675 0.07129965 0.43529412 0.89019608 0.96078431
v 0.16388109 -0.03899202 0.07466891 0.43529412 0.89019608 0.96078431
v 0.16388109 -0.01916423 0.07141583 0.43529412 0.89019608 0.96078431
v 0.16388109 -0.04059103 0.07466891 0.43529412 0.89019608 0.96078431
v 0.16752896 -0.00239303 0.06129748 0.43529412 0.89019608 0.96078431
v 0.13895644 0.01956267 0.06672632 0.43529412 0.89019608 0.96078431
v 0.10463667 0.01200425 0.07738861 0.43529412 0.89019608 0.96078431
v 0.13780997 0.01956267 0.05324928 0.43529412 0.89019608 0.96078431
v 0.10232884 0.01584189 0.02426201 0.43529412 0.89019608 0.96078431
v 0.16752896 -0.00016671 0.05416289 0.43529412 0.89019608 0.96078431
v 0.16388109 -0.02621220 0.02426201 0.43529412 0.89019608 0.96078431
v 0.11534950 -0.01861073 0.02425673 0.43529412 0.89019608 0.96078431
v 0.12050119 -0.00136597 0.07727243 0.43529412 0.89019608 0.96078431
v 0.13393876 0.00941508 0.07506498 0.43529412 0.89019608 0.96078431
v 0.12053097 -0.00771898 0.07731996 0.43529412 0.89019608 0.96078431
v 0.16388109 -0.04092313 0.07236640 0.43529412 0.89019608 0.96078431
v 0.16752896 -0.00552341 0.05607460 0.43529412 0.89019608 0.96078431
v 0.16752896 -0.00532046 0.05652876 0.43529412 0.89019608 0.96078431
v 0.16752896 -0.00447175 0.05835070 0.43529412 0.89019608 0.96078431
v 0.12053097 -0.00837089 0.07731996 0.43529412 0.89019608 0.96078431
v 0.10279785 -0.02148281 0.07820716 0.43529412 0.89019608 0.96078431
v 0.16021832 -0.04062178 0.07479565 0.43529412 0.89019608 0.96078431
v 0.15702457 -0.04100309 0.07480621 0.43529412 0.89019608 0.96078431
v 0.15549098 -0.04326630 0.07100919 0.43529412 0.89019608 0.96078431
v 0.13868099 0.01956267 0.06636194 0.43529412 0.89019608 0.96078431
v 0.09960410 0.01584189 0.04989058 0.43529412 0.89019608 0.96078431
v 0.10045279 0.01584189 0.05088868 0.43529412 0.89019608 0.96078431
v 0.10244795 0.01584189 0.05322287 0.43529412 0.89019608 0.96078431
v 0.10429422 0.01200425 0.07738861 0.43529412 0.89019608 0.96078431
v 0.10279785 -0.01967469 0.07820716 0.43529412 0.89019608 0.96078431
v 0.13761641 0.01956267 0.05379322 0.43529412 0.89019608 0.96078431
v 0.10227672 0.01567584 0.02426201 0.43529412 0.89019608 0.96078431
v 0.10104091 0.01450732 0.02573012 0.43529412 0.89019608 0.96078431
v 0.10222461 0.01584189 0.02460000 0.43529412 0.89019608 0.96078431
v 0.13676028 0.01956267 0.05638089 0.43529412 0.89019608 0.96078431
v 0.16752896 -0.00335859 0.05417345 0.43529412 0.89019608 0.96078431
v 0.16752896 -0.00552341 0.05451671 0.43529412 0.89019608 0.96078431
v 0.16388109 -0.03855536 0.06282368 0.43529412 0.89019608 0.96078431
v 0.15903463 -0.03394282 0.04117169 0.43529412 0.89019608 0.96078431
v 0.15910908 -0.03075094 0.03169234 0.43529412 0.89019608 0.96078431
v 0.15991309 -0.02769436 0.02426201 0.43529412 0.89019608 0.96078431
v 0.11848370 -0.01973619 0.02426201 0.43529412 0.89019608 0.96078431
v 0.11675654 -0.02121835 0.02848151 0.43529412 0.89019608 0.96078431
v 0.11991307 -0.04032043 0.07325889 0.43529412 0.89019608 0.96078431
v 0.10120470 -0.01771897 0.05160161 0.43529412 0.89019608 0.96078431
v 0.10408577 -0.01485305 0.03799783 0.43529412 0.89019608 0.96078431
v 0.10719763 -0.01187642 0.02896736 0.43529412 0.89019608 0.96078431
v 0.10727952 -0.00842009 0.02546607 0.43529412 0.89019608 0.96078431
v 0.10694451 -0.00661812 0.02426201 0.43529412 0.89019608 0.96078431
v 0.10270851 0.00386158 0.02426201 0.43529412 0.89019608 0.96078431
v 0.15784348 -0.02781737 0.02426201 0.43529412 0.89019608 0.96078431
v 0.13148947 -0.02396743 0.02426201 0.43529412 0.89019608 0.96078431
v 0.16388109 -0.04041268 0.06957805 0.43529412 0.89019608 0.96078431
v 0.15549098 -0.04326630 0.06994244 0.43529412 0.89019608 0.96078431
v 0.09151922 0.00622320 0.07743086 0.43529412 0.89019608 0.96078431
v 0.10043045 -0.02124295 0.07799064 0.43529412 0.89019608 0.96078431
v 0.11881126 -0.03837086 0.07536600 0.43529412 0.89019608 0.96078431
v 0.12187845 -0.03846926 0.07543993 0.43529412 0.89019608 0.96078431
v 0.14744333 -0.04098463 0.07495408 0.43529412 0.89019608 0.96078431
v 0.15407650 -0.04114454 0.07470588 0.43529412 0.89019608 0.96078431
v 0.15407650 -0.04239915 0.07253540 0.43529412 0.89019608 0.96078431
v 0.15535698 -0.04326630 0.07100919 0.43529412 0.89019608 0.96078431
v 0.13847254 0.01956267 0.06576519 0.43529412 0.89019608 0.96078431
v 0.13777275 0.01956267 0.06358414 0.43529412 0.89019608 0.96078431
v 0.09880008 0.01584189 0.04685402 0.43529412 0.89019608 0.96078431
v 0.09156389 0.00787141 0.07734636 0.43529412 0.89019608 0.96078431
v 0.10110792 0.00450733 0.02578293 0.43529412 0.89019608 0.96078431
v 0.10104091 0.01399072 0.02573012 0.43529412 0.89019608 0.96078431
v 0.09786950 0.00503009 0.04115585 0.43529412 0.89019608 0.96078431
v 0.09467575 0.00530069 0.05737372 0.43529412 0.89019608 0.96078431
v 0.09152667 0.00509159 0.07352294 0.43529412 0.89019608 0.96078431
v 0.10072824 0.01493168 0.02770521 0.43529412 0.89019608 0.96078431
v 0.10129403 0.01584189 0.02770521 0.43529412 0.89019608 0.96078431
v 0.13671561 0.01956267 0.05738956 0.43529412 0.89019608 0.96078431
v 0.09943287 0.01584189 0.03733242 0.43529412 0.89019608 0.96078431
v 0.09920953 0.01584189 0.04051157 0.43529412 0.89019608 0.96078431
v 0.15702457 -0.04195635 0.06598699 0.43529412 0.89019608 0.96078431
v 0.15888573 -0.03701170 0.05100486 0.43529412 0.89019608 0.96078431
v 0.15801471 -0.03394282 0.04117169 0.43529412 0.89019608 0.96078431
v 0.15811149 -0.03075094 0.03169234 0.43529412 0.89019608 0.96078431
v 0.11991307 -0.04032043 0.07475869 0.43529412 0.89019608 0.96078431
v 0.10002844 -0.02145206 0.07556139 0.43529412 0.89019608 0.96078431
v 0.10014011 -0.02145206 0.07237168 0.43529412 0.89019608 0.96078431
v 0.10043045 -0.02131061 0.06918198 0.43529412 0.89019608 0.96078431
v 0.10084735 -0.02108305 0.06598699 0.43529412 0.89019608 0.96078431
v 0.10112281 -0.02092930 0.06417033 0.43529412 0.89019608 0.96078431
v 0.13276251 -0.03699940 0.05761664 0.43529412 0.89019608 0.96078431
v 0.13256150 -0.04021588 0.06699037 0.43529412 0.89019608 0.96078431
v 0.15535698 -0.04326630 0.06994244 0.43529412 0.89019608 0.96078431
v 0.10101858 -0.01794652 0.05322287 0.43529412 0.89019608 0.96078431
v 0.09413974 -0.00931799 0.06598699 0.43529412 0.89019608 0.96078431
v 0.09453430 -0.00865379 0.06279200 0.43529412 0.89019608 0.96078431
v 0.09476509 -0.00825403 0.06093309 0.43529412 0.89019608 0.96078431
v 0.09791417 -0.00523436 0.04482084 0.43529412 0.89019608 0.96078431
v 0.10105580 -0.00515441 0.03532565 0.43529412 0.89019608 0.96078431
v 0.10407088 -0.00553571 0.02876140 0.43529412 0.89019608 0.96078431
v 0.09147456 0.00618015 0.07570398 0.43529412 0.89019608 0.96078431
v 0.09148945 0.00447658 0.07556139 0.43529412 0.89019608 0.96078431
v 0.09154156 0.00454423 0.07732524 0.43529412 0.89019608 0.96078431
v 0.09442263 -0.00913964 0.07436790 0.43529412 0.89019608 0.96078431
v 0.09411740 -0.01001910 0.07258821 0.43529412 0.89019608 0.96078431
v 0.13148947 -0.04062793 0.07503858 0.43529412 0.89019608 0.96078431
v 0.13712506 0.01956267 0.06048949 0.43529412 0.89019608 0.96078431
v 0.09156389 0.00787141 0.07685523 0.43529412 0.89019608 0.96078431
v 0.09786950 0.00442738 0.04115585 0.43529412 0.89019608 0.96078431
v 0.09467575 0.00434743 0.05737372 0.43529412 0.89019608 0.96078431
v 0.09152667 0.00450733 0.07352294 0.43529412 0.89019608 0.96078431
v 0.09942543 0.01579269 0.03727961 0.43529412 0.89019608 0.96078431
v 0.15516342 -0.04022818 0.06076939 0.43529412 0.89019608 0.96078431
v 0.09469808 -0.01139671 0.07166932 0.43529412 0.89019608 0.96078431
v 0.09877030 -0.01931184 0.07237168 0.43529412 0.89019608 0.96078431
v 0.09905320 -0.01931184 0.06918198 0.43529412 0.89019608 0.96078431
v 0.10066868 -0.01838318 0.05641258 0.43529412 0.89019608 0.96078431
v 0.09400573 -0.01001295 0.06916613 0.43529412 0.89019608 0.96078431
v 0.09469808 -0.01139671 0.07022233 0.43529412 0.89019608 0.96078431
f 1 2 6
f 1 6 13
f 1 13 25
f 1 25 48
f 1 48 52
f 1 52 91
f 1 91 120
f 1 120 81
f 1 81 80
f 1 80 42
f 1 42 23
f 1 23 12
f 1 12 7
f 1 7 3
f 1 3 4
f 1 4 5
f 1 5 2
f 2 5 6
f 3 7 4
f 4 8 9
f 4 9 10
f 4 10 11
f 4 11 22
f 4 22 36
f 4 36 35
f 4 35 34
f 4 34 54
f 4 54 53
f 4 53 27
f 4 27 14
f 4 14 5
f 4 7 12
f 4 12 8
f 5 13 6
f 5 14 15
f 5 15 16
f 5 16 13
f 8 12 9
f 9 12 17
f 9 17 18
f 9 18 10
f 10 19 20
f 10 20 11
f 10 18 17
f 10 17 19
f 11 20 19
f 11 19 21
f 11 21 22
f 12 23 46
f 12 46 24
f 12 24 17
f 13 16 26
f 13 26 25
f 14 27 15
f 15 27 28
f 15 28 29
f 15 29 16
f 16 29 26
f 17 30 31
f 17 31 19
f 17 24 30
f 19 31 30
f 19 30 32
f 19 32 37
f 19 37 21
f 21 33 34
f 21 34 35
f 21 35 36
f 21 36 22
f 21 37 38
f 21 38 39
f 21 39 40
f 21 40 41
f 21 41 33
f 23 42 43
f 23 43 44
f 23 44 45
f 23 45 46
f 24 46 47
f 24 47 30
f 25 26 48
f 26 49 50
f 26 50 51
f 26 51 52
f 26 52 48
f 26 29 49
f 27 53 28
f 28 53 54
f 28 54 55
f 28 55 56
f 28 56 57
f 28 57 58
f 28 58 29
f 29 59 60
f 29 60 61
f 29 61 62
f 29 62 63
f 29 63 64
f 29 64 65
f 29 65 66
f 29 66 67
f 29 67 49
f 29 58 68
f 29 68 69
f 29 69 59
f 30 47 32
f 32 47 38
f 32 38 37
f 33 70 54
f 33 54 34
f 33 41 71
f 33 71 70
f 38 47 72
f 38 72 73
f 38 73 74
f 38 74 75
f 38 75 76
f 38 76 40
f 38 40 39
f 40 77 41
f 40 76 77
f 41 77 78
f 41 78 79
f 41 79 106
f 41 106 71
f 42 80 43
f 43 80 81
f 43 81 82
f 43 82 83
f 43 83 46
f 43 46 44
f 44 46 45
f 46 83 72
f 46 72 47
f 49 84 85
f 49 85 50
f 49 67 84
f 50 85 122
f 50 122 86
f 50 86 87
f 50 87 88
f 50 88 89
f 50 89 90
f 50 90 51
f 51 90 52
f 52 90 92
f 52 92 93
f 52 93 82
f 52 82 91
f 54 70 55
f 55 70 94
f 55 94 95
f 55 95 56
f 56 95 94
f 56 94 71
f 56 71 106
f 56 106 96
f 56 96 97
f 56 97 57
f 57 97 68
f 57 68 58
f 59 69 60
f 60 69 61
f 61 98 99
f 61 99 100
f 61 100 101
f 61 101 102
f 61 102 103
f 61 103 62
f 61 69 104
f 61 104 105
f 61 105 106
f 61 106 79
f 61 79 98
f 62 103 107
f 62 107 108
f 62 108 109
f 62 109 110
f 62 110 111
f 62 111 63
f 63 111 112
f 63 112 113
f 63 113 64
f 64 66 65
f 64 113 66
f 66 113 84
f 66 84 67
f 68 97 69
f 69 97 104
f 70 71 94
f 72 83 114
f 72 114 115
f 72 115 116
f 72 116 73
f 73 116 117
f 73 117 118
f 73 118 99
f 73 99 98
f 73 98 74
f 74 98 75
f 75 119 76
f 75 98 119
f 76 119 79
f 76 79 78
f 76 78 77
f 79 119 98
f 81 120 82
f 82 120 91
f 82 93 121
f 82 121 83
f 83 121 114
f 84 113 112
f 84 112 111
f 84 111 110
f 84 110 122
f 84 122 85
f 86 122 123
f 86 123 87
f 87 123 124
f 87 124 88
f 88 124 114
f 88 114 121
f 88 121 89
f 89 121 125
f 89 125 92
f 89 92 90
f 92 125 121
f 92 121 93
f 96 106 126
f 96 126 105
f 96 105 97
f 97 105 104
f 99 118 127
f 99 127 128
f 99 128 100
f 100 128 129
f 100 129 101
f 101 129 130
f 101 130 102
f 102 130 103
f 103 130 107
f 105 126 106
f 107 130 108
f 108 130 129
f 108 129 131
f 108 131 124
f 108 124 109
f 109 124 110
f 110 124 123
f 110 123 122
f 114 124 115
f 115 131 118
f 115 118 116
f 115 124 131
f 116 118 117
f 118 131 127
f 127 132 128
f 127 131 132
f 128 132 131
f 128 131 129

