# https://github.com/mikedh/trimesh
v 0.20317566 -0.03273144 0.07425101 0.11764706 0.63921569 0.14117647
v 0.20233418 -0.03273144 0.07425101 0.11764706 0.63921569 0.14117647
v 0.20317566 -0.03416676 0.07425101 0.11764706 0.63921569 0.14117647
v 0.20841402 -0.04608181 0.07093797 0.11764706 0.63921569 0.14117647
v 0.20275584 0.02389032 0.07400143 0.11764706 0.63921569 0.14117647
v 0.20233418 -0.03416676 0.07425101 0.11764706 0.63921569 0.14117647
v 0.20263696 0.02389032 0.07400143 0.11764706 0.63921569 0.14117647
v 0.19621346 0.03667944 0.07084499 0.11764706 0.63921569 0.14117647
v 0.20841402 -0.04660625 0.07093797 0.11764706 0.63921569 0.14117647
v 0.20841402 -0.00805488 0.06173779 0.11764706 0.63921569 0.14117647
v 0.20596573 0.04390207 0.06514381 0.11764706 0.63921569 0.14117647
v 0.20565180 0.04478535 0.06611766 0.11764706 0.63921569 0.14117647
v 0.20615149 0.01579361 0.06844707 0.11764706 0.63921569 0.14117647
v 0.20396327 0.04464734 0.06924474 0.11764706 0.63921569 0.14117647
v 0.20300104 0.04367205 0.07097712 0.11764706 0.63921569 0.14117647
v 0.19996948 -0.03782869 0.07145670 0.11764706 0.63921569 0.14117647
v 0.20585985 -0.04644064 0.07078626 0.11764706 0.63921569 0.14117647
v 0.20748338 -0.04657865 0.07091839 0.11764706 0.63921569 0.14117647
v 0.19621346 0.03642182 0.07084499 0.11764706 0.63921569 0.14117647
v 0.18943703 -0.02356744 0.06074436 0.11764706 0.63921569 0.14117647
v 0.20231188 0.04367205 0.07097712 0.11764706 0.63921569 0.14117647
v 0.19918187 0.04009294 0.07098690 0.11764706 0.63921569 0.14117647
v 0.20256266 0.04626668 0.06822685 0.11764706 0.63921569 0.14117647
v 0.19370388 0.03765472 0.06572127 0.11764706 0.63921569 0.14117647
v 0.20748338 -0.04742513 0.06918113 0.11764706 0.63921569 0.14117647
v 0.20841402 -0.04720430 0.06970475 0.11764706 0.63921569 0.14117647
v 0.20841402 0.00283888 0.04606322 0.11764706 0.63921569 0.14117647
v 0.20679422 0.04132585 0.05358975 0.11764706 0.63921569 0.14117647
v 0.20671062 0.04132585 0.05641343 0.11764706 0.63921569 0.14117647
v 0.20653972 0.04132585 0.05960413 0.11764706 0.63921569 0.14117647
v 0.20602703 0.04478535 0.06276547 0.11764706 0.63921569 0.14117647
v 0.20581898 0.04602746 0.06381272 0.11764706 0.63921569 0.14117647
v 0.20350630 0.04626668 0.06822685 0.11764706 0.63921569 0.14117647
v 0.20235275 -0.04681788 0.06804089 0.11764706 0.63921569 0.14117647
v 0.20459299 -0.04708470 0.06913708 0.11764706 0.63921569 0.14117647
v 0.18943703 0.00283888 0.04667004 0.11764706 0.63921569 0.14117647
v 0.18943703 -0.02356744 0.02426173 0.11764706 0.63921569 0.14117647
v 0.19996948 -0.04429685 0.06082755 0.11764706 0.63921569 0.14117647
v 0.20194409 -0.04703869 0.06599042 0.11764706 0.63921569 0.14117647
v 0.20251808 0.04633109 0.06598553 0.11764706 0.63921569 0.14117647
v 0.19370388 0.04049778 0.05960413 0.11764706 0.63921569 0.14117647
v 0.19370388 0.04047018 0.05978519 0.11764706 0.63921569 0.14117647
v 0.19370388 0.03993652 0.06236418 0.11764706 0.63921569 0.14117647
v 0.20429020 -0.04766435 0.06599042 0.11764706 0.63921569 0.14117647
v 0.20841402 -0.04754474 0.06599042 0.11764706 0.63921569 0.14117647
v 0.20841402 -0.04739752 0.06918113 0.11764706 0.63921569 0.14117647
v 0.20841402 0.00283888 0.04022013 0.11764706 0.63921569 0.14117647
v 0.20679422 0.04164787 0.05010543 0.11764706 0.63921569 0.14117647
v 0.20589329 0.04611947 0.06168395 0.11764706 0.63921569 0.14117647
v 0.20405243 0.04633109 0.06598553 0.11764706 0.63921569 0.14117647
v 0.18943703 0.00283888 0.03744539 0.11764706 0.63921569 0.14117647
v 0.18943703 -0.01849779 0.02426173 0.11764706 0.63921569 0.14117647
v 0.19370388 0.02233538 0.02425683 0.11764706 0.63921569 0.14117647
v 0.19996948 -0.02958476 0.02425683 0.11764706 0.63921569 0.14117647
v 0.19996948 -0.04034971 0.04776623 0.11764706 0.63921569 0.14117647
v 0.19996948 -0.04339517 0.05444615 0.11764706 0.63921569 0.14117647
v 0.19996948 -0.04356999 0.05512638 0.11764706 0.63921569 0.14117647
v 0.19996948 -0.04422324 0.05782771 0.11764706 0.63921569 0.14117647
v 0.20203325 -0.04684548 0.06348484 0.11764706 0.63921569 0.14117647
v 0.20255894 0.04627588 0.06279483 0.11764706 0.63921569 0.14117647
v 0.19370388 0.04014814 0.05641343 0.11764706 0.63921569 0.14117647
v 0.20260166 0.04622067 0.05960413 0.11764706 0.63921569 0.14117647
v 0.20264625 0.04616547 0.05737259 0.11764706 0.63921569 0.14117647
v 0.20429020 -0.04685468 0.06342612 0.11764706 0.63921569 0.14117647
v 0.20841402 -0.04675347 0.06320590 0.11764706 0.63921569 0.14117647
v 0.20841402 -0.00119108 0.02426173 0.11764706 0.63921569 0.14117647
v 0.20679422 0.04093942 0.04717409 0.11764706 0.63921569 0.14117647
v 0.20577998 0.04608266 0.05851283 0.11764706 0.63921569 0.14117647
v 0.20589329 0.04611947 0.06063670 0.11764706 0.63921569 0.14117647
v 0.20454655 0.04621147 0.05958945 0.11764706 0.63921569 0.14117647
v 0.18943703 -0.01427462 0.02586687 0.11764706 0.63921569 0.14117647
v 0.19370388 0.03825278 0.04685600 0.11764706 0.63921569 0.14117647
v 0.19370388 0.03759032 0.04366041 0.11764706 0.63921569 0.14117647
v 0.19370388 0.03620100 0.03935883 0.11764706 0.63921569 0.14117647
v 0.19370388 0.03542813 0.03722518 0.11764706 0.63921569 0.14117647
v 0.19370388 0.02937400 0.02425683 0.11764706 0.63921569 0.14117647
v 0.20110260 -0.02939155 0.02425683 0.11764706 0.63921569 0.14117647
v 0.20841402 -0.03389074 0.03529705 0.11764706 0.63921569 0.14117647
v 0.20841402 -0.03716623 0.04177144 0.11764706 0.63921569 0.14117647
v 0.20841402 -0.04341357 0.05451467 0.11764706 0.63921569 0.14117647
v 0.20043202 -0.04034971 0.04776623 0.11764706 0.63921569 0.14117647
v 0.20001964 -0.04339517 0.05444615 0.11764706 0.63921569 0.14117647
v 0.20841402 -0.04624743 0.06164970 0.11764706 0.63921569 0.14117647
v 0.20365120 0.04616547 0.05737259 0.11764706 0.63921569 0.14117647
v 0.20262581 0.04296359 0.04516767 0.11764706 0.63921569 0.14117647
v 0.20233603 0.04327642 0.04685600 0.11764706 0.63921569 0.14117647
v 0.20841402 -0.02356744 0.02425683 0.11764706 0.63921569 0.14117647
v 0.20679422 0.02975123 0.02425683 0.11764706 0.63921569 0.14117647
v 0.20679422 0.03029408 0.02487834 0.11764706 0.63921569 0.14117647
v 0.20679422 0.03077252 0.02577878 0.11764706 0.63921569 0.14117647
v 0.20679422 0.03729589 0.03872755 0.11764706 0.63921569 0.14117647
v 0.20679422 0.03949489 0.04374360 0.11764706 0.63921569 0.14117647
v 0.20561837 0.04272437 0.04897498 0.11764706 0.63921569 0.14117647
v 0.20607348 0.04312920 0.05108907 0.11764706 0.63921569 0.14117647
v 0.20335770 0.04327642 0.04685600 0.11764706 0.63921569 0.14117647
v 0.20278185 0.04296359 0.04516767 0.11764706 0.63921569 0.14117647
v 0.19906298 0.03385479 0.02849968 0.11764706 0.63921569 0.14117647
v 0.19790200 0.03122336 0.02425683 0.11764706 0.63921569 0.14117647
v 0.20459856 -0.02847147 0.02425683 0.11764706 0.63921569 0.14117647
v 0.20653044 -0.03078087 0.02874437 0.11764706 0.63921569 0.14117647
v 0.20841402 -0.03340310 0.03438193 0.11764706 0.63921569 0.14117647
v 0.20841402 -0.04350559 0.05472510 0.11764706 0.63921569 0.14117647
v 0.20841402 -0.02732137 0.02425683 0.11764706 0.63921569 0.14117647
v 0.20440723 0.03068051 0.02425683 0.11764706 0.63921569 0.14117647
v 0.20652301 0.03059771 0.02510834 0.11764706 0.63921569 0.14117647
v 0.20429206 0.03070812 0.02425683 0.11764706 0.63921569 0.14117647
v 0.20108403 0.03142578 0.02425683 0.11764706 0.63921569 0.14117647
v 0.20050632 0.03385479 0.02849968 0.11764706 0.63921569 0.14117647
v 0.20748338 -0.02760659 0.02425683 0.11764706 0.63921569 0.14117647
v 0.20841402 -0.02787341 0.02515238 0.11764706 0.63921569 0.14117647
f 1 2 6
f 1 6 3
f 1 3 9
f 1 9 4
f 1 4 5
f 1 5 7
f 1 7 2
f 2 7 8
f 2 8 19
f 2 19 6
f 3 6 9
f 4 9 26
f 4 26 46
f 4 46 45
f 4 45 65
f 4 65 83
f 4 83 102
f 4 102 80
f 4 80 79
f 4 79 78
f 4 78 101
f 4 101 110
f 4 110 103
f 4 103 87
f 4 87 66
f 4 66 47
f 4 47 27
f 4 27 10
f 4 10 11
f 4 11 12
f 4 12 13
f 4 13 5
f 5 13 12
f 5 12 14
f 5 14 15
f 5 15 21
f 5 21 7
f 6 16 17
f 6 17 18
f 6 18 9
f 6 19 20
f 6 20 16
f 7 21 22
f 7 22 8
f 8 22 23
f 8 23 24
f 8 24 20
f 8 20 19
f 9 18 25
f 9 25 26
f 10 27 28
f 10 28 29
f 10 29 30
f 10 30 11
f 11 30 31
f 11 31 32
f 11 32 12
f 12 32 33
f 12 33 14
f 14 33 15
f 15 33 23
f 15 23 21
f 16 34 17
f 16 20 34
f 17 34 35
f 17 35 25
f 17 25 18
f 20 36 51
f 20 51 71
f 20 71 52
f 20 52 37
f 20 37 38
f 20 38 39
f 20 39 34
f 20 24 36
f 21 23 22
f 23 33 50
f 23 50 40
f 23 40 41
f 23 41 42
f 23 42 43
f 23 43 24
f 24 43 36
f 25 44 45
f 25 45 46
f 25 46 26
f 25 35 44
f 27 47 48
f 27 48 28
f 28 48 49
f 28 49 29
f 29 49 31
f 29 31 30
f 31 49 32
f 32 49 50
f 32 50 33
f 34 39 44
f 34 44 35
f 36 43 42
f 36 42 41
f 36 41 51
f 37 52 76
f 37 76 53
f 37 53 54
f 37 54 55
f 37 55 56
f 37 56 57
f 37 57 58
f 37 58 38
f 38 58 39
f 39 58 59
f 39 59 44
f 40 50 62
f 40 62 60
f 40 60 41
f 41 61 51
f 41 60 62
f 41 62 63
f 41 63 61
f 44 64 65
f 44 65 45
f 44 59 64
f 47 66 67
f 47 67 48
f 48 67 68
f 48 68 69
f 48 69 49
f 49 69 50
f 50 70 62
f 50 69 70
f 51 61 72
f 51 72 73
f 51 73 74
f 51 74 75
f 51 75 76
f 51 76 71
f 52 71 76
f 53 76 98
f 53 98 107
f 53 107 106
f 53 106 104
f 53 104 88
f 53 88 87
f 53 87 103
f 53 103 109
f 53 109 99
f 53 99 77
f 53 77 54
f 54 77 78
f 54 78 79
f 54 79 80
f 54 80 81
f 54 81 55
f 55 81 82
f 55 82 56
f 56 82 83
f 56 83 59
f 56 59 57
f 57 59 58
f 59 83 64
f 61 63 72
f 62 70 84
f 62 84 63
f 63 84 96
f 63 96 85
f 63 85 86
f 63 86 73
f 63 73 72
f 64 83 65
f 66 87 88
f 66 88 89
f 66 89 90
f 66 90 91
f 66 91 92
f 66 92 67
f 67 92 93
f 67 93 94
f 67 94 68
f 68 84 70
f 68 70 69
f 68 94 93
f 68 93 95
f 68 95 96
f 68 96 84
f 73 86 85
f 73 85 74
f 74 85 75
f 75 85 97
f 75 97 76
f 76 97 98
f 77 99 100
f 77 100 78
f 78 100 101
f 80 82 81
f 80 102 82
f 82 102 83
f 85 96 108
f 85 108 97
f 88 104 89
f 89 104 105
f 89 105 90
f 90 105 96
f 90 96 91
f 91 96 93
f 91 93 92
f 93 96 95
f 96 105 104
f 96 104 106
f 96 106 107
f 96 107 108
f 97 108 107
f 97 107 98
f 99 109 100
f 100 109 103
f 100 103 110
f 100 110 101

