# https://github.com/mikedh/trimesh
v 0.21306979 -0.04290392 0.07411742 0.08627451 0.01960784 0.83137255
v 0.21306979 -0.04352320 0.07411742 0.08627451 0.01960784 0.83137255
v 0.21306979 -0.04201412 0.07335246 0.08627451 0.01960784 0.83137255
v 0.21010057 -0.01940071 0.06916739 0.08627451 0.01960784 0.83137255
v 0.20936909 -0.01940071 0.07037158 0.08627451 0.01960784 0.83137255
v 0.20783876 -0.01940071 0.07129447 0.08627451 0.01960784 0.83137255
v 0.17619273 -0.03916544 0.07467510 0.08627451 0.01960784 0.83137255
v 0.17619273 -0.04082445 0.07467510 0.08627451 0.01960784 0.83137255
v 0.21128440 -0.04355580 0.07411248 0.08627451 0.01960784 0.83137255
v 0.21128440 -0.04450101 0.07237035 0.08627451 0.01960784 0.83137255
v 0.21306979 -0.04393714 0.07335246 0.08627451 0.01960784 0.83137255
v 0.21306979 -0.04041377 0.07158565 0.08627451 0.01960784 0.83137255
v 0.20426318 -0.01585453 0.06352149 0.08627451 0.01960784 0.83137255
v 0.20426318 -0.01655855 0.06665042 0.08627451 0.01960784 0.83137255
v 0.21306979 -0.03996073 0.07089965 0.08627451 0.01960784 0.83137255
v 0.21306979 -0.01940071 0.03926486 0.08627451 0.01960784 0.83137255
v 0.20426318 -0.01168255 0.04303537 0.08627451 0.01960784 0.83137255
v 0.20426318 -0.01740924 0.07004586 0.08627451 0.01960784 0.83137255
v 0.20364721 -0.01761132 0.07093914 0.08627451 0.01960784 0.83137255
v 0.19745852 -0.01733754 0.07099836 0.08627451 0.01960784 0.83137255
v 0.16391161 -0.03899922 0.07467016 0.08627451 0.01960784 0.83137255
v 0.16390680 -0.01916603 0.07141292 0.08627451 0.01960784 0.83137255
v 0.16391161 -0.04059956 0.07467016 0.08627451 0.01960784 0.83137255
v 0.16662096 -0.04080816 0.07465536 0.08627451 0.01960784 0.83137255
v 0.18257391 -0.04372202 0.07173864 0.08627451 0.01960784 0.83137255
v 0.18040354 -0.04373180 0.07156097 0.08627451 0.01960784 0.83137255
v 0.18257391 -0.04414900 0.06918220 0.08627451 0.01960784 0.83137255
v 0.21128440 -0.04481717 0.06916739 0.08627451 0.01960784 0.83137255
v 0.21306979 -0.04449449 0.07095394 0.08627451 0.01960784 0.83137255
v 0.21306979 -0.04435434 0.07237035 0.08627451 0.01960784 0.83137255
v 0.19454704 -0.01412055 0.06819515 0.08627451 0.01960784 0.83137255
v 0.21306979 -0.01940071 0.02854061 0.08627451 0.01960784 0.83137255
v 0.20426318 -0.01168255 0.03505017 0.08627451 0.01960784 0.83137255
v 0.18553832 -0.01151959 0.05108966 0.08627451 0.01960784 0.83137255
v 0.18483572 -0.01151959 0.05228892 0.08627451 0.01960784 0.83137255
v 0.19721309 -0.01168255 0.04886881 0.08627451 0.01960784 0.83137255
v 0.19639499 -0.01733754 0.07099836 0.08627451 0.01960784 0.83137255
v 0.17404161 -0.01765043 0.07087991 0.08627451 0.01960784 0.83137255
v 0.16390680 -0.01690730 0.06904894 0.08627451 0.01960784 0.83137255
v 0.16390680 -0.02147040 0.07137837 0.08627451 0.01960784 0.83137255
v 0.16390680 -0.02214835 0.06948324 0.08627451 0.01960784 0.83137255
v 0.16390680 -0.02225591 0.06917232 0.08627451 0.01960784 0.83137255
v 0.16391161 -0.04092549 0.07237035 0.08627451 0.01960784 0.83137255
v 0.17139482 -0.04324290 0.06767695 0.08627451 0.01960784 0.83137255
v 0.16662096 -0.04151544 0.07237035 0.08627451 0.01960784 0.83137255
v 0.16981155 -0.04199130 0.07237035 0.08627451 0.01960784 0.83137255
v 0.18003299 -0.04402840 0.06918220 0.08627451 0.01960784 0.83137255
v 0.18014367 -0.04387521 0.06598910 0.08627451 0.01960784 0.83137255
v 0.21306979 -0.04451730 0.06916739 0.08627451 0.01960784 0.83137255
v 0.18055272 -0.04352320 0.06383734 0.08627451 0.01960784 0.83137255
v 0.20910922 -0.04350691 0.06352149 0.08627451 0.01960784 0.83137255
v 0.21041818 -0.04350691 0.06352149 0.08627451 0.01960784 0.83137255
v 0.19561539 -0.01168255 0.04976208 0.08627451 0.01960784 0.83137255
v 0.17520139 -0.01151959 0.05911433 0.08627451 0.01960784 0.83137255
v 0.19342095 -0.01412055 0.06819515 0.08627451 0.01960784 0.83137255
v 0.21306979 -0.02059689 0.02426177 0.08627451 0.01960784 0.83137255
v 0.21141915 -0.02055452 0.02426177 0.08627451 0.01960784 0.83137255
v 0.19560095 -0.02047630 0.02426177 0.08627451 0.01960784 0.83137255
v 0.17361331 -0.02049585 0.02426177 0.08627451 0.01960784 0.83137255
v 0.17313207 -0.02049911 0.02426177 0.08627451 0.01960784 0.83137255
v 0.16726100 -0.02055778 0.02426177 0.08627451 0.01960784 0.83137255
v 0.20190514 -0.01168255 0.03508966 0.08627451 0.01960784 0.83137255
v 0.18553832 -0.01151959 0.03774974 0.08627451 0.01960784 0.83137255
v 0.17388761 -0.01151959 0.05911433 0.08627451 0.01960784 0.83137255
v 0.17326682 -0.01151959 0.05637035 0.08627451 0.01960784 0.83137255
v 0.17298289 -0.01151959 0.05462328 0.08627451 0.01960784 0.83137255
v 0.16390680 -0.01672804 0.06251964 0.08627451 0.01960784 0.83137255
v 0.16390680 -0.02261769 0.06649250 0.08627451 0.01960784 0.83137255
v 0.16390680 -0.02559674 0.03964980 0.08627451 0.01960784 0.83137255
v 0.16390680 -0.02559674 0.02426177 0.08627451 0.01960784 0.83137255
v 0.16391161 -0.04041377 0.06958195 0.08627451 0.01960784 0.83137255
v 0.17139482 -0.04324290 0.06757331 0.08627451 0.01960784 0.83137255
v 0.21306979 -0.04410337 0.06765721 0.08627451 0.01960784 0.83137255
v 0.17765569 -0.03693279 0.04506375 0.08627451 0.01960784 0.83137255
v 0.20921510 -0.04029318 0.05418898 0.08627451 0.01960784 0.83137255
v 0.21306979 -0.04370573 0.06630989 0.08627451 0.01960784 0.83137255
v 0.21030750 -0.04029318 0.05418898 0.08627451 0.01960784 0.83137255
v 0.21306979 -0.04152522 0.05959799 0.08627451 0.01960784 0.83137255
v 0.21306979 -0.02704390 0.02426177 0.08627451 0.01960784 0.83137255
v 0.20425837 -0.02729813 0.02425683 0.08627451 0.01960784 0.83137255
v 0.18554313 -0.02560000 0.02425683 0.08627451 0.01960784 0.83137255
v 0.16391161 -0.02560000 0.02425683 0.08627451 0.01960784 0.83137255
v 0.16681827 -0.02057082 0.02426177 0.08627451 0.01960784 0.83137255
v 0.18895027 -0.01168255 0.03692556 0.08627451 0.01960784 0.83137255
v 0.16390680 -0.02070771 0.02426177 0.08627451 0.01960784 0.83137255
v 0.18389731 -0.01151959 0.03858873 0.08627451 0.01960784 0.83137255
v 0.17298289 -0.01151959 0.05321674 0.08627451 0.01960784 0.83137255
v 0.16390680 -0.01705397 0.05911927 0.08627451 0.01960784 0.83137255
v 0.16391161 -0.02622254 0.02425683 0.08627451 0.01960784 0.83137255
v 0.16391161 -0.03856246 0.06283056 0.08627451 0.01960784 0.83137255
v 0.17725626 -0.03073675 0.02856035 0.08627451 0.01960784 0.83137255
v 0.17796849 -0.03693279 0.04506375 0.08627451 0.01960784 0.83137255
v 0.21306979 -0.03964457 0.05442587 0.08627451 0.01960784 0.83137255
v 0.21306979 -0.04053111 0.05675036 0.08627451 0.01960784 0.83137255
v 0.17823317 -0.03073675 0.02856035 0.08627451 0.01960784 0.83137255
v 0.20652498 -0.03048578 0.02928090 0.08627451 0.01960784 0.83137255
v 0.21306979 -0.03427641 0.04050853 0.08627451 0.01960784 0.83137255
v 0.21306979 -0.03550193 0.04366214 0.08627451 0.01960784 0.83137255
v 0.20772327 -0.02771207 0.02426177 0.08627451 0.01960784 0.83137255
v 0.20425837 -0.02738939 0.02425683 0.08627451 0.01960784 0.83137255
v 0.16390680 -0.01767651 0.05314765 0.08627451 0.01960784 0.83137255
v 0.17337750 -0.01151959 0.05167201 0.08627451 0.01960784 0.83137255
v 0.17377693 -0.01151959 0.05046782 0.08627451 0.01960784 0.83137255
v 0.17590399 -0.02837698 0.02425683 0.08627451 0.01960784 0.83137255
v 0.17956619 -0.02829549 0.02425683 0.08627451 0.01960784 0.83137255
f 1 2 11
f 1 11 30
f 1 30 29
f 1 29 49
f 1 49 73
f 1 73 76
f 1 76 78
f 1 78 94
f 1 94 93
f 1 93 98
f 1 98 97
f 1 97 79
f 1 79 56
f 1 56 32
f 1 32 16
f 1 16 15
f 1 15 12
f 1 12 3
f 1 3 4
f 1 4 5
f 1 5 6
f 1 6 7
f 1 7 8
f 1 8 2
f 2 8 9
f 2 9 10
f 2 10 11
f 3 12 4
f 4 13 14
f 4 14 5
f 4 12 15
f 4 15 16
f 4 16 17
f 4 17 13
f 5 14 18
f 5 18 19
f 5 19 6
f 6 20 7
f 6 19 20
f 7 21 23
f 7 23 8
f 7 20 22
f 7 22 21
f 8 23 24
f 8 24 9
f 9 24 25
f 9 25 10
f 10 25 26
f 10 26 27
f 10 27 28
f 10 28 29
f 10 29 30
f 10 30 11
f 13 31 14
f 13 17 31
f 14 31 18
f 16 32 33
f 16 33 17
f 17 33 63
f 17 63 34
f 17 34 35
f 17 35 36
f 17 36 31
f 18 31 19
f 19 31 20
f 20 31 55
f 20 55 37
f 20 37 22
f 21 22 23
f 22 37 38
f 22 38 39
f 22 39 67
f 22 67 88
f 22 88 101
f 22 101 85
f 22 85 70
f 22 70 69
f 22 69 68
f 22 68 42
f 22 42 41
f 22 41 40
f 22 40 23
f 23 40 41
f 23 41 42
f 23 42 43
f 23 43 44
f 23 44 45
f 23 45 46
f 23 46 26
f 23 26 24
f 24 26 25
f 26 46 44
f 26 44 47
f 26 47 27
f 27 47 48
f 27 48 28
f 28 49 29
f 28 48 50
f 28 50 51
f 28 51 52
f 28 52 49
f 31 36 53
f 31 53 54
f 31 54 64
f 31 64 55
f 32 56 33
f 33 56 57
f 33 57 58
f 33 58 59
f 33 59 60
f 33 60 61
f 33 61 62
f 33 62 63
f 34 63 86
f 34 86 103
f 34 103 102
f 34 102 87
f 34 87 66
f 34 66 65
f 34 65 64
f 34 64 54
f 34 54 35
f 35 54 36
f 36 54 53
f 37 55 38
f 38 55 39
f 39 55 64
f 39 64 65
f 39 65 66
f 39 66 67
f 42 68 43
f 43 68 69
f 43 69 70
f 43 70 71
f 43 71 72
f 43 72 44
f 44 72 47
f 44 46 45
f 47 72 48
f 48 72 50
f 49 52 73
f 50 72 74
f 50 74 75
f 50 75 51
f 51 75 77
f 51 77 52
f 52 76 73
f 52 77 78
f 52 78 76
f 56 79 100
f 56 100 80
f 56 80 81
f 56 81 57
f 57 81 58
f 58 81 82
f 58 82 59
f 59 82 60
f 60 82 61
f 61 82 83
f 61 83 62
f 62 84 63
f 62 83 85
f 62 85 84
f 63 84 85
f 63 85 86
f 66 87 67
f 67 87 88
f 70 85 82
f 70 82 89
f 70 89 90
f 70 90 71
f 71 90 72
f 72 90 89
f 72 89 74
f 74 89 91
f 74 91 95
f 74 95 92
f 74 92 77
f 74 77 75
f 77 93 94
f 77 94 78
f 77 92 95
f 77 95 96
f 77 96 97
f 77 97 98
f 77 98 93
f 79 96 99
f 79 99 100
f 79 97 96
f 80 100 105
f 80 105 104
f 80 104 89
f 80 89 82
f 80 82 81
f 82 85 83
f 85 101 87
f 85 87 102
f 85 102 103
f 85 103 86
f 87 101 88
f 89 104 91
f 91 104 95
f 95 104 99
f 95 99 96
f 99 104 105
f 99 105 100

