# https://github.com/mikedh/trimesh
v 0.05723351 0.01182430 0.01358628 0.77647059 0.86666667 0.97647059
v 0.06100905 0.01714842 0.05960624 0.77647059 0.86666667 0.97647059
v 0.05884855 0.02041411 0.07478411 0.77647059 0.86666667 0.97647059
v 0.05859185 0.02019408 0.07236500 0.77647059 0.86666667 0.97647059
v 0.05836725 0.01991905 0.06917531 0.77647059 0.86666667 0.97647059
v 0.05836725 0.02186746 0.06917531 0.77647059 0.86666667 0.97647059
v 0.05890202 0.03669915 0.07439882 0.77647059 0.86666667 0.97647059
v 0.05890202 0.03669915 0.07341981 0.77647059 0.86666667 0.97647059
v 0.06200374 0.03035884 0.05090249 0.77647059 0.86666667 0.97647059
v 0.06227113 0.02699182 0.04200926 0.77647059 0.86666667 0.97647059
v 0.07154419 0.02401564 0.01905612 0.77647059 0.86666667 0.97647059
v 0.07089176 0.02128554 0.01358628 0.77647059 0.86666667 0.97647059
v 0.07773692 0.01182430 0.01358628 0.77647059 0.86666667 0.97647059
v 0.07134097 0.01182430 0.02426069 0.77647059 0.86666667 0.97647059
v 0.06132992 0.01735976 0.06131794 0.77647059 0.86666667 0.97647059
v 0.06672049 0.01584851 0.05322055 0.77647059 0.86666667 0.97647059
v 0.06707344 0.01584851 0.05342898 0.77647059 0.86666667 0.97647059
v 0.09260377 0.01584851 0.06822156 0.77647059 0.86666667 0.97647059
v 0.05874159 0.02290102 0.07811276 0.77647059 0.86666667 0.97647059
v 0.05863463 0.02197458 0.07573154 0.77647059 0.86666667 0.97647059
v 0.06068818 0.01956584 0.07236500 0.77647059 0.86666667 0.97647059
v 0.06061332 0.02021724 0.07573154 0.77647059 0.86666667 0.97647059
v 0.05950097 0.02077311 0.07691267 0.77647059 0.86666667 0.97647059
v 0.05874159 0.02401274 0.07811276 0.77647059 0.86666667 0.97647059
v 0.07432504 0.03757347 0.07458831 0.77647059 0.86666667 0.97647059
v 0.08441096 0.03986061 0.07420933 0.77647059 0.86666667 0.97647059
v 0.07345870 0.04000537 0.07184707 0.77647059 0.86666667 0.97647059
v 0.07167254 0.03995905 0.07127861 0.77647059 0.86666667 0.97647059
v 0.07167254 0.03995905 0.07008484 0.77647059 0.86666667 0.97647059
v 0.07435713 0.03994168 0.06654776 0.77647059 0.86666667 0.97647059
v 0.07479564 0.03672231 0.05433851 0.77647059 0.86666667 0.97647059
v 0.07983326 0.02611170 0.01358628 0.77647059 0.86666667 0.97647059
v 0.07662459 0.02453386 0.01358628 0.77647059 0.86666667 0.97647059
v 0.07800432 0.01182430 0.01487479 0.77647059 0.86666667 0.97647059
v 0.08392966 0.02103656 0.01358628 0.77647059 0.86666667 0.97647059
v 0.16649948 0.02136371 0.02426700 0.77647059 0.86666667 0.97647059
v 0.15674511 0.01301419 0.03265494 0.77647059 0.86666667 0.97647059
v 0.15706598 0.01301419 0.03275600 0.77647059 0.86666667 0.97647059
v 0.15938692 0.01301419 0.03434769 0.77647059 0.86666667 0.97647059
v 0.16649948 0.01301419 0.04044284 0.77647059 0.86666667 0.97647059
v 0.07794014 0.01182430 0.02426069 0.77647059 0.86666667 0.97647059
v 0.14538642 0.01301419 0.06385705 0.77647059 0.86666667 0.97647059
v 0.06162939 0.02050386 0.07729797 0.77647059 0.86666667 0.97647059
v 0.06061332 0.02197458 0.07791695 0.77647059 0.86666667 0.97647059
v 0.07526625 0.02043148 0.07737376 0.77647059 0.86666667 0.97647059
v 0.16478818 0.03297024 0.07417144 0.77647059 0.86666667 0.97647059
v 0.16278811 0.03848543 0.07438619 0.77647059 0.86666667 0.97647059
v 0.16278811 0.04015013 0.07438619 0.77647059 0.86666667 0.97647059
v 0.15322627 0.04094049 0.07236500 0.77647059 0.86666667 0.97647059
v 0.15322627 0.04140082 0.06917531 0.77647059 0.86666667 0.97647059
v 0.07335174 0.04007486 0.06908057 0.77647059 0.86666667 0.97647059
v 0.08115951 0.02640121 0.01358628 0.77647059 0.86666667 0.97647059
v 0.15157915 0.03975060 0.05472380 0.77647059 0.86666667 0.97647059
v 0.09714939 0.03030094 0.02426700 0.77647059 0.86666667 0.97647059
v 0.07808988 0.01182430 0.01800132 0.77647059 0.86666667 0.97647059
v 0.08392966 0.02651412 0.01358628 0.77647059 0.86666667 0.97647059
v 0.16649948 0.03110289 0.02426700 0.77647059 0.86666667 0.97647059
v 0.16649948 0.01301419 0.04706223 0.77647059 0.86666667 0.97647059
v 0.07806849 0.01182430 0.02166472 0.77647059 0.86666667 0.97647059
v 0.15641356 0.01551268 0.06917531 0.77647059 0.86666667 0.97647059
v 0.15448835 0.01642754 0.07126598 0.77647059 0.86666667 0.97647059
v 0.07459243 0.02043148 0.07737376 0.77647059 0.86666667 0.97647059
v 0.15641356 0.01655492 0.07131651 0.77647059 0.86666667 0.97647059
v 0.16129072 0.01733371 0.07084911 0.77647059 0.86666667 0.97647059
v 0.16649948 0.02973639 0.07144915 0.77647059 0.86666667 0.97647059
v 0.16649948 0.03195695 0.07220078 0.77647059 0.86666667 0.97647059
v 0.16478818 0.03396905 0.07417144 0.77647059 0.86666667 0.97647059
v 0.16472401 0.03909341 0.07422197 0.77647059 0.86666667 0.97647059
v 0.16472401 0.04004301 0.07422197 0.77647059 0.86666667 0.97647059
v 0.16278811 0.04078705 0.07236500 0.77647059 0.86666667 0.97647059
v 0.15166472 0.03975060 0.05472380 0.77647059 0.86666667 0.97647059
v 0.16612513 0.04063940 0.06910583 0.77647059 0.86666667 0.97647059
v 0.16615722 0.04048017 0.06597299 0.77647059 0.86666667 0.97647059
v 0.08312749 0.02649675 0.01358628 0.77647059 0.86666667 0.97647059
v 0.16614652 0.03113184 0.02426700 0.77647059 0.86666667 0.97647059
v 0.15151498 0.03338424 0.03229492 0.77647059 0.86666667 0.97647059
v 0.07807918 0.01182430 0.02131101 0.77647059 0.86666667 0.97647059
v 0.16649948 0.04042516 0.06605510 0.77647059 0.86666667 0.97647059
v 0.16467053 0.03986351 0.06057262 0.77647059 0.86666667 0.97647059
v 0.16649948 0.01920106 0.05952413 0.77647059 0.86666667 0.97647059
v 0.16440315 0.01738003 0.06445078 0.77647059 0.86666667 0.97647059
v 0.16182551 0.01705577 0.06917531 0.77647059 0.86666667 0.97647059
v 0.16649948 0.04056124 0.06901109 0.77647059 0.86666667 0.97647059
v 0.16520531 0.04047149 0.07236500 0.77647059 0.86666667 0.97647059
v 0.16520531 0.04013855 0.06278330 0.77647059 0.86666667 0.97647059
v 0.16649948 0.04056124 0.06881528 0.77647059 0.86666667 0.97647059
f 1 2 3
f 1 3 4
f 1 4 5
f 1 5 6
f 1 6 7
f 1 7 8
f 1 8 9
f 1 9 10
f 1 10 11
f 1 11 12
f 1 12 33
f 1 33 32
f 1 32 52
f 1 52 74
f 1 74 56
f 1 56 35
f 1 35 13
f 1 13 34
f 1 34 55
f 1 55 77
f 1 77 59
f 1 59 41
f 1 41 14
f 1 14 2
f 2 15 3
f 2 14 16
f 2 16 17
f 2 17 18
f 2 18 15
f 3 19 20
f 3 20 4
f 3 15 21
f 3 21 22
f 3 22 23
f 3 23 19
f 4 20 5
f 5 20 6
f 6 20 24
f 6 24 7
f 7 24 25
f 7 25 26
f 7 26 27
f 7 27 28
f 7 28 29
f 7 29 8
f 8 29 30
f 8 30 31
f 8 31 32
f 8 32 11
f 8 11 9
f 9 11 10
f 11 32 33
f 11 33 12
f 13 35 36
f 13 36 37
f 13 37 38
f 13 38 39
f 13 39 40
f 13 40 34
f 14 41 42
f 14 42 18
f 14 18 17
f 14 17 16
f 15 22 21
f 15 18 22
f 18 42 43
f 18 43 22
f 19 24 20
f 19 23 43
f 19 43 44
f 19 44 45
f 19 45 46
f 19 46 47
f 19 47 48
f 19 48 24
f 22 43 23
f 24 48 26
f 24 26 25
f 26 48 49
f 26 49 50
f 26 50 27
f 27 51 28
f 27 50 51
f 28 51 29
f 29 51 30
f 30 52 31
f 30 51 50
f 30 50 53
f 30 53 54
f 30 54 52
f 31 52 32
f 34 40 55
f 35 56 57
f 35 57 36
f 36 57 78
f 36 78 86
f 36 86 83
f 36 83 66
f 36 66 65
f 36 65 80
f 36 80 58
f 36 58 40
f 36 40 39
f 36 39 38
f 36 38 37
f 40 58 55
f 41 59 58
f 41 58 42
f 42 58 60
f 42 60 61
f 42 61 43
f 43 62 44
f 43 61 62
f 44 62 45
f 45 62 61
f 45 61 63
f 45 63 46
f 46 63 64
f 46 64 65
f 46 65 66
f 46 66 67
f 46 67 69
f 46 69 68
f 46 68 47
f 47 68 69
f 47 69 48
f 48 69 70
f 48 70 49
f 49 70 50
f 50 71 53
f 50 70 72
f 50 72 73
f 50 73 71
f 52 54 74
f 53 71 75
f 53 75 76
f 53 76 54
f 54 76 75
f 54 75 56
f 54 56 74
f 55 58 77
f 56 75 57
f 57 75 71
f 57 71 79
f 57 79 78
f 58 80 81
f 58 81 82
f 58 82 60
f 58 59 77
f 60 82 64
f 60 64 63
f 60 63 61
f 64 82 81
f 64 81 65
f 65 81 80
f 66 83 69
f 66 69 67
f 69 84 70
f 69 83 84
f 70 84 72
f 71 73 85
f 71 85 79
f 72 84 83
f 72 83 86
f 72 86 73
f 73 86 78
f 73 78 85
f 78 79 85

