# https://github.com/mikedh/trimesh
v -0.04401319 -0.00196640 -0.01542368 0.54509804 0.71372549 0.60000000
v -0.04399483 -0.00016923 -0.01541591 0.54509804 0.71372549 0.60000000
v -0.04142402 -0.00196997 -0.01542368 0.54509804 0.71372549 0.60000000
v -0.04461917 -0.00653778 -0.01465464 0.54509804 0.71372549 0.60000000
v -0.04489461 -0.00315739 -0.01521783 0.54509804 0.71372549 0.60000000
v -0.04781430 -0.00334638 -0.01512073 0.54509804 0.71372549 0.60000000
v -0.05100944 -0.00334638 -0.01497313 0.54509804 0.71372549 0.60000000
v -0.04781430 -0.00016923 -0.01530328 0.54509804 0.71372549 0.60000000
v -0.04331540 0.00153523 -0.01539261 0.54509804 0.71372549 0.60000000
v -0.04280124 0.00153523 -0.01539261 0.54509804 0.71372549 0.60000000
v -0.04160765 -0.00022985 -0.01541591 0.54509804 0.71372549 0.60000000
v -0.04142402 -0.00356746 -0.01514791 0.54509804 0.71372549 0.60000000
v -0.03969791 -0.00132455 -0.01539650 0.54509804 0.71372549 0.60000000
v -0.03969791 -0.00183090 -0.01539650 0.54509804 0.71372549 0.60000000
v -0.04461917 -0.00972919 -0.01371858 0.54509804 0.71372549 0.60000000
v -0.04781430 -0.00972919 -0.01373023 0.54509804 0.71372549 0.60000000
v -0.04781430 -0.00653778 -0.01461968 0.54509804 0.71372549 0.60000000
v -0.04142402 -0.00653778 -0.01458084 0.54509804 0.71372549 0.60000000
v -0.05100944 -0.00653778 -0.01451093 0.54509804 0.71372549 0.60000000
v -0.05100944 -0.00016923 -0.01512461 0.54509804 0.71372549 0.60000000
v -0.05418622 -0.00653778 -0.01417302 0.54509804 0.71372549 0.60000000
v -0.05418622 -0.00334638 -0.01461580 0.54509804 0.71372549 0.60000000
v -0.04781430 0.00303288 -0.01516734 0.54509804 0.71372549 0.60000000
v -0.04447226 0.00277257 -0.01527609 0.54509804 0.71372549 0.60000000
v -0.04160765 0.00277257 -0.01527609 0.54509804 0.71372549 0.60000000
v -0.04067114 0.00080067 -0.01536154 0.54509804 0.71372549 0.60000000
v -0.03822889 0.00303288 -0.01507412 0.54509804 0.71372549 0.60000000
v -0.03846760 -0.00022985 -0.01524890 0.54509804 0.71372549 0.60000000
v -0.03505211 -0.00016923 -0.01495371 0.54509804 0.71372549 0.60000000
v -0.03185697 -0.00016923 -0.01465464 0.54509804 0.71372549 0.60000000
v -0.03846760 -0.00307894 -0.01504305 0.54509804 0.71372549 0.60000000
v -0.03185697 -0.00334638 -0.01432450 0.54509804 0.71372549 0.60000000
v -0.04142402 -0.00972919 -0.01353603 0.54509804 0.71372549 0.60000000
v -0.04461917 -0.01205411 -0.01264270 0.54509804 0.71372549 0.60000000
v -0.04781430 -0.01209690 -0.01266212 0.54509804 0.71372549 0.60000000
v -0.05100944 -0.00972919 -0.01360595 0.54509804 0.71372549 0.60000000
v -0.03822889 -0.00653778 -0.01429731 0.54509804 0.71372549 0.60000000
v -0.05418622 -0.00972919 -0.01331076 0.54509804 0.71372549 0.60000000
v -0.05100944 0.00303288 -0.01497702 0.54509804 0.71372549 0.60000000
v -0.05418622 -0.00016923 -0.01470902 0.54509804 0.71372549 0.60000000
v -0.05738136 -0.00972919 -0.01285633 0.54509804 0.71372549 0.60000000
v -0.05738136 -0.00653778 -0.01366809 0.54509804 0.71372549 0.60000000
v -0.05738136 -0.00334638 -0.01411476 0.54509804 0.71372549 0.60000000
v -0.04781430 0.00622072 -0.01476340 0.54509804 0.71372549 0.60000000
v -0.04461917 0.00622072 -0.01487215 0.54509804 0.71372549 0.60000000
v -0.04142402 0.00622072 -0.01483719 0.54509804 0.71372549 0.60000000
v -0.03822889 0.00622072 -0.01467018 0.54509804 0.71372549 0.60000000
v -0.03505211 0.00303288 -0.01481777 0.54509804 0.71372549 0.60000000
v -0.03185697 0.00303288 -0.01454201 0.54509804 0.71372549 0.60000000
v -0.02868019 -0.00016923 -0.01421574 0.54509804 0.71372549 0.60000000
v 0.02236859 -0.00016210 -0.00647094 0.54509804 0.71372549 0.60000000
v 0.02236859 -0.00271166 -0.00616410 0.54509804 0.71372549 0.60000000
v -0.03185697 -0.00653778 -0.01347778 0.54509804 0.71372549 0.60000000
v -0.03505211 -0.00653778 -0.01389337 0.54509804 0.71372549 0.60000000
v -0.03505211 -0.00941184 -0.01282525 0.54509804 0.71372549 0.60000000
v -0.03800853 -0.01002516 -0.01297285 0.54509804 0.71372549 0.60000000
v -0.03888994 -0.01159055 -0.01233975 0.54509804 0.71372549 0.60000000
v -0.04142402 -0.01185442 -0.01250676 0.54509804 0.71372549 0.60000000
v -0.04461917 -0.01365160 -0.01135320 0.54509804 0.71372549 0.60000000
v -0.04781430 -0.01368725 -0.01144641 0.54509804 0.71372549 0.60000000
v -0.05100944 -0.01357671 -0.01141923 0.54509804 0.71372549 0.60000000
v -0.05100944 -0.01197923 -0.01258833 0.54509804 0.71372549 0.60000000
v -0.05418622 -0.01180094 -0.01247180 0.54509804 0.71372549 0.60000000
v -0.05738136 -0.01151924 -0.01230868 0.54509804 0.71372549 0.60000000
v -0.05899729 -0.01133025 -0.01219215 0.54509804 0.71372549 0.60000000
v -0.05100944 0.00622072 -0.01454977 0.54509804 0.71372549 0.60000000
v -0.05418622 0.00303288 -0.01454589 0.54509804 0.71372549 0.60000000
v -0.05418622 0.00622072 -0.01419632 0.54509804 0.71372549 0.60000000
v -0.05738136 -0.00016923 -0.01414583 0.54509804 0.71372549 0.60000000
v -0.06026433 -0.00953307 -0.01239412 0.54509804 0.71372549 0.60000000
v -0.06057649 -0.00653778 -0.01304664 0.54509804 0.71372549 0.60000000
v -0.06057649 -0.00334638 -0.01348166 0.54509804 0.71372549 0.60000000
v -0.06057649 -0.00016923 -0.01354768 0.54509804 0.71372549 0.60000000
v -0.04781430 0.00941570 -0.01395551 0.54509804 0.71372549 0.60000000
v -0.04461917 0.00941570 -0.01403708 0.54509804 0.71372549 0.60000000
v -0.04142402 0.00941570 -0.01392056 0.54509804 0.71372549 0.60000000
v -0.03822889 0.00941570 -0.01369917 0.54509804 0.71372549 0.60000000
v -0.03505211 0.00622072 -0.01440606 0.54509804 0.71372549 0.60000000
v -0.03185697 0.00622072 -0.01400989 0.54509804 0.71372549 0.60000000
v -0.02868019 0.00303288 -0.01408757 0.54509804 0.71372549 0.60000000
v 0.02416815 -0.00214826 -0.00594271 0.54509804 0.71372549 0.60000000
v 0.02424160 0.00189538 -0.00594660 0.54509804 0.71372549 0.60000000
v 0.02433341 -0.00016210 -0.00601263 0.54509804 0.71372549 0.60000000
v 0.09031120 -0.01498521 0.01358242 0.54509804 0.71372549 0.60000000
v 0.02236859 -0.00430915 -0.00557373 0.54509804 0.71372549 0.60000000
v -0.03185697 -0.00888053 -0.01257279 0.54509804 0.71372549 0.60000000
v -0.03677822 -0.01128389 -0.01216885 0.54509804 0.71372549 0.60000000
v -0.04142402 -0.01345191 -0.01119395 0.54509804 0.71372549 0.60000000
v -0.04142402 -0.01492459 -0.00959761 0.54509804 0.71372549 0.60000000
v -0.04461917 -0.01507079 -0.00975685 0.54509804 0.71372549 0.60000000
v -0.04781430 -0.01519203 -0.00985007 0.54509804 0.71372549 0.60000000
v -0.05100944 -0.01522056 -0.00982677 0.54509804 0.71372549 0.60000000
v -0.05418622 -0.01514211 -0.00971412 0.54509804 0.71372549 0.60000000
v -0.05738136 -0.01505653 -0.00960149 0.54509804 0.71372549 0.60000000
v -0.06057649 -0.01494599 -0.00945001 0.54509804 0.71372549 0.60000000
v -0.05418622 -0.01339486 -0.01131047 0.54509804 0.71372549 0.60000000
v -0.05738136 -0.01311672 -0.01119784 0.54509804 0.71372549 0.60000000
v -0.06377163 -0.01470708 -0.00918201 0.54509804 0.71372549 0.60000000
v -0.06026433 -0.01260681 -0.01113957 0.54509804 0.71372549 0.60000000
v -0.06540593 -0.01452879 -0.00900723 0.54509804 0.71372549 0.60000000
v -0.06377163 -0.01292060 -0.01026955 0.54509804 0.71372549 0.60000000
v -0.06665460 -0.01298479 -0.00957818 0.54509804 0.71372549 0.60000000
v -0.06933558 -0.01196140 -0.00934514 0.54509804 0.71372549 0.60000000
v -0.06110902 -0.01046732 -0.01196688 0.54509804 0.71372549 0.60000000
v -0.05100944 0.00941570 -0.01371858 0.54509804 0.71372549 0.60000000
v -0.05418622 0.00941570 -0.01340398 0.54509804 0.71372549 0.60000000
v -0.05738136 0.00303288 -0.01397493 0.54509804 0.71372549 0.60000000
v -0.05738136 0.00622072 -0.01366421 0.54509804 0.71372549 0.60000000
v -0.05756499 0.00966887 -0.01279418 0.54509804 0.71372549 0.60000000
v -0.06239443 -0.00833852 -0.01224653 0.54509804 0.71372549 0.60000000
v -0.06296367 -0.00653778 -0.01243685 0.54509804 0.71372549 0.60000000
v -0.06456123 -0.00653778 -0.01197853 0.54509804 0.71372549 0.60000000
v -0.06340437 -0.00334638 -0.01265047 0.54509804 0.71372549 0.60000000
v -0.06345946 -0.00016923 -0.01271262 0.54509804 0.71372549 0.60000000
v -0.06057649 0.00303288 -0.01337679 0.54509804 0.71372549 0.60000000
v -0.06345946 0.00303288 -0.01262328 0.54509804 0.71372549 0.60000000
v -0.04781430 0.01200092 -0.01281748 0.54509804 0.71372549 0.60000000
v -0.05100944 0.01189751 -0.01270096 0.54509804 0.71372549 0.60000000
v -0.04461917 0.01201875 -0.01283302 0.54509804 0.71372549 0.60000000
v -0.04142402 0.01196169 -0.01275534 0.54509804 0.71372549 0.60000000
v -0.03822889 0.01172635 -0.01261163 0.54509804 0.71372549 0.60000000
v -0.03505211 0.00941570 -0.01336513 0.54509804 0.71372549 0.60000000
v 0.02236859 0.00412758 -0.00565141 0.54509804 0.71372549 0.60000000
v 0.02236859 0.00253366 -0.00611361 0.54509804 0.71372549 0.60000000
v 0.07773264 0.01182263 0.01358242 0.54509804 0.71372549 0.60000000
v 0.02236859 -0.00653778 -0.00440463 0.54509804 0.71372549 0.60000000
v 0.09848268 -0.01498521 0.02425579 0.54509804 0.71372549 0.60000000
v -0.04461917 -0.01843693 0.00216330 0.54509804 0.71372549 0.60000000
v -0.04461917 -0.01821941 -0.00102162 0.54509804 0.71372549 0.60000000
v -0.04247071 -0.01776299 -0.00285877 0.54509804 0.71372549 0.60000000
v -0.04461917 -0.01745633 -0.00465321 0.54509804 0.71372549 0.60000000
v -0.04461917 -0.01641511 -0.00740700 0.54509804 0.71372549 0.60000000
v -0.04142402 -0.01617976 -0.00740700 0.54509804 0.71372549 0.60000000
v -0.04781430 -0.01656131 -0.00740700 0.54509804 0.71372549 0.60000000
v -0.05100944 -0.01661836 -0.00740700 0.54509804 0.71372549 0.60000000
v -0.05418622 -0.01656131 -0.00740700 0.54509804 0.71372549 0.60000000
v -0.05738136 -0.01646859 -0.00740700 0.54509804 0.71372549 0.60000000
v -0.06057649 -0.01627961 -0.00740700 0.54509804 0.71372549 0.60000000
v -0.06377163 -0.01589450 -0.00740700 0.54509804 0.71372549 0.60000000
v -0.06665460 -0.01533110 -0.00753906 0.54509804 0.71372549 0.60000000
v -0.07016192 -0.01526691 -0.00667680 0.54509804 0.71372549 0.60000000
v -0.07120860 -0.01512785 -0.00649425 0.54509804 0.71372549 0.60000000
v -0.07278781 -0.01491390 -0.00621460 0.54509804 0.71372549 0.60000000
v -0.06751766 -0.01409019 -0.00869262 0.54509804 0.71372549 0.60000000
v -0.06975793 -0.00972919 -0.00958984 0.54509804 0.71372549 0.60000000
v -0.06694842 -0.00972919 -0.01070456 0.54509804 0.71372549 0.60000000
v -0.06358801 -0.00953307 -0.01167169 0.54509804 0.71372549 0.60000000
v -0.07491790 -0.01450026 -0.00579900 0.54509804 0.71372549 0.60000000
v -0.07824158 -0.01144435 -0.00585726 0.54509804 0.71372549 0.60000000
v -0.05418622 0.01161224 -0.01251453 0.54509804 0.71372549 0.60000000
v -0.05662848 0.01127706 -0.01233586 0.54509804 0.71372549 0.60000000
v -0.06057649 0.00622072 -0.01297285 0.54509804 0.71372549 0.60000000
v -0.06239443 0.00800363 -0.01224653 0.54509804 0.71372549 0.60000000
v -0.06057649 0.00867401 -0.01246403 0.54509804 0.71372549 0.60000000
v -0.06057649 0.01026793 -0.01196688 0.54509804 0.71372549 0.60000000
v -0.05875858 0.01089551 -0.01215331 0.54509804 0.71372549 0.60000000
v -0.06500195 -0.00334638 -0.01204844 0.54509804 0.71372549 0.60000000
v -0.06505704 0.00303288 -0.01207951 0.54509804 0.71372549 0.60000000
v -0.06454288 0.00622072 -0.01198630 0.54509804 0.71372549 0.60000000
v -0.06294530 0.00622072 -0.01239801 0.54509804 0.71372549 0.60000000
v -0.04781430 0.01359840 -0.01170276 0.54509804 0.71372549 0.60000000
v -0.05100944 0.01349500 -0.01165227 0.54509804 0.71372549 0.60000000
v -0.05418622 0.01320973 -0.01148137 0.54509804 0.71372549 0.60000000
v -0.04461917 0.01361267 -0.01170276 0.54509804 0.71372549 0.60000000
v -0.04142402 0.01355918 -0.01165227 0.54509804 0.71372549 0.60000000
v -0.03822889 0.01332027 -0.01141923 0.54509804 0.71372549 0.60000000
v -0.03505211 0.01133411 -0.01239801 0.54509804 0.71372549 0.60000000
v -0.03321582 0.01108450 -0.01224653 0.54509804 0.71372549 0.60000000
v -0.03202223 0.00953694 -0.01279418 0.54509804 0.71372549 0.60000000
v 0.02236859 0.00622072 -0.00475419 0.54509804 0.71372549 0.60000000
v 0.07789790 0.01182263 0.01438642 0.54509804 0.71372549 0.60000000
v 0.02460886 0.00835308 -0.00303356 0.54509804 0.71372549 0.60000000
v 0.02236859 0.00875245 -0.00332486 0.54509804 0.71372549 0.60000000
v 0.02236859 0.01034994 -0.00192272 0.54509804 0.71372549 0.60000000
v 0.02236859 0.01172635 -0.00032637 0.54509804 0.71372549 0.60000000
v 0.02405797 0.01422599 0.00371693 0.54509804 0.71372549 0.60000000
v 0.02236859 0.01476443 0.00535211 0.54509804 0.71372549 0.60000000
v 0.02236859 0.01533496 0.00854092 0.54509804 0.71372549 0.60000000
v 0.07798972 0.01182263 0.01486804 0.54509804 0.71372549 0.60000000
v 0.07806317 0.01182263 0.01799470 0.54509804 0.71372549 0.60000000
v 0.07806317 0.01182263 0.02164959 0.54509804 0.71372549 0.60000000
v 0.07793463 0.01182263 0.02425579 0.54509804 0.71372549 0.60000000
v 0.07833861 -0.01498521 0.02425579 0.54509804 0.71372549 0.60000000
v -0.04461917 -0.01788066 0.00741843 0.54509804 0.71372549 0.60000000
v -0.04461917 -0.01819445 0.00534434 0.54509804 0.71372549 0.60000000
v -0.04781430 -0.01845119 0.00216330 0.54509804 0.71372549 0.60000000
v -0.05100944 -0.01829786 -0.00102162 0.54509804 0.71372549 0.60000000
v -0.04781430 -0.01827647 -0.00102162 0.54509804 0.71372549 0.60000000
v -0.04781430 -0.01784144 -0.00320834 0.54509804 0.71372549 0.60000000
v -0.04461917 -0.01780578 -0.00306074 0.54509804 0.71372549 0.60000000
v -0.04781430 -0.01748485 -0.00480857 0.54509804 0.71372549 0.60000000
v -0.05100944 -0.01751338 -0.00494063 0.54509804 0.71372549 0.60000000
v -0.05418622 -0.01753121 -0.00502996 0.54509804 0.71372549 0.60000000
v -0.05738136 -0.01752764 -0.00502607 0.54509804 0.71372549 0.60000000
v -0.06057649 -0.01744920 -0.00488625 0.54509804 0.71372549 0.60000000
v -0.06377163 -0.01730300 -0.00458718 0.54509804 0.71372549 0.60000000
v -0.07016192 -0.01669324 -0.00421431 0.54509804 0.71372549 0.60000000
v -0.07365086 -0.01570551 -0.00452892 0.54509804 0.71372549 0.60000000
v -0.07996769 -0.00972919 -0.00524747 0.54509804 0.71372549 0.60000000
v -0.08292411 -0.00653778 -0.00421431 0.54509804 0.71372549 0.60000000
v -0.07653383 -0.01523839 -0.00373269 0.54509804 0.71372549 0.60000000
v -0.07860884 -0.01478909 -0.00304909 0.54509804 0.71372549 0.60000000
v -0.08204269 -0.01197923 -0.00323553 0.54509804 0.71372549 0.60000000
v -0.07653383 -0.01379779 -0.00532515 0.54509804 0.71372549 0.60000000
v -0.08303429 -0.00971136 -0.00358509 0.54509804 0.71372549 0.60000000
v -0.08477875 -0.00863449 -0.00286266 0.54509804 0.71372549 0.60000000
v -0.08521947 -0.00653778 -0.00309959 0.54509804 0.71372549 0.60000000
v -0.06057649 0.01260354 -0.01074729 0.54509804 0.71372549 0.60000000
v -0.05756499 0.01244664 -0.01139592 0.54509804 0.71372549 0.60000000
v -0.06694842 0.00941570 -0.01051036 0.54509804 0.71372549 0.60000000
v -0.06356964 0.00920531 -0.01159012 0.54509804 0.71372549 0.60000000
v -0.06694842 0.01185828 -0.00949662 0.54509804 0.71372549 0.60000000
v -0.06380836 0.01282106 -0.00989668 0.54509804 0.71372549 0.60000000
v -0.08551327 -0.00334638 -0.00321611 0.54509804 0.71372549 0.60000000
v -0.08547655 -0.00016923 -0.00321999 0.54509804 0.71372549 0.60000000
v -0.08529292 0.00303288 -0.00320057 0.54509804 0.71372549 0.60000000
v -0.06694842 0.00622072 -0.01114346 0.54509804 0.71372549 0.60000000
v -0.04781430 0.01510675 -0.01010642 0.54509804 0.71372549 0.60000000
v -0.05100944 0.01508179 -0.01005592 0.54509804 0.71372549 0.60000000
v -0.05418622 0.01494628 -0.00988891 0.54509804 0.71372549 0.60000000
v -0.06279841 0.01435792 -0.00917036 0.54509804 0.71372549 0.60000000
v -0.06057649 0.01454335 -0.00937622 0.54509804 0.71372549 0.60000000
v -0.05738136 0.01475016 -0.00962868 0.54509804 0.71372549 0.60000000
v -0.04461917 0.01507465 -0.01010642 0.54509804 0.71372549 0.60000000
v -0.04142402 0.01496768 -0.01005592 0.54509804 0.71372549 0.60000000
v -0.03822889 0.01476443 -0.00982288 0.54509804 0.71372549 0.60000000
v 0.02236859 0.01332027 0.00198464 0.54509804 0.71372549 0.60000000
v -0.03641095 0.01742453 -0.00272672 0.54509804 0.71372549 0.60000000
v -0.03822889 0.01606239 -0.00740700 0.54509804 0.71372549 0.60000000
v -0.04142402 0.01639044 -0.00740700 0.54509804 0.71372549 0.60000000
v -0.03822889 0.01709291 -0.00460271 0.54509804 0.71372549 0.60000000
v -0.03822889 0.01774902 -0.00102162 0.54509804 0.71372549 0.60000000
v 0.02236859 0.01537418 0.01173361 0.54509804 0.71372549 0.60000000
v 0.07132399 0.01182263 0.02425579 0.54509804 0.71372549 0.60000000
v 0.02236859 0.01464676 0.01512439 0.54509804 0.71372549 0.60000000
v 0.02407633 0.01426878 0.01662751 0.54509804 0.71372549 0.60000000
v -0.04781430 -0.01785213 0.00732133 0.54509804 0.71372549 0.60000000
v 0.07119546 -0.00659840 0.02425579 0.54509804 0.71372549 0.60000000
v 0.02236859 -0.00016210 0.02355278 0.54509804 0.71372549 0.60000000
v 0.02236859 -0.00334638 0.02342849 0.54509804 0.71372549 0.60000000
v 0.02236859 -0.00535393 0.02301678 0.54509804 0.71372549 0.60000000
v 0.02051394 -0.00511502 0.02295464 0.54509804 0.71372549 0.60000000
v -0.03822889 -0.00956873 0.01717128 0.54509804 0.71372549 0.60000000
v -0.04142402 -0.01085956 0.01631679 0.54509804 0.71372549 0.60000000
v -0.03822889 -0.01116622 0.01643331 0.54509804 0.71372549 0.60000000
v -0.03644769 -0.01129816 0.01650323 0.54509804 0.71372549 0.60000000
v -0.04142402 -0.01292060 0.01479813 0.54509804 0.71372549 0.60000000
v -0.04781430 -0.01428275 0.01311633 0.54509804 0.71372549 0.60000000
v -0.04518841 -0.01442538 0.01323285 0.54509804 0.71372549 0.60000000
v -0.04142402 -0.01459297 0.01339987 0.54509804 0.71372549 0.60000000
v -0.05100944 -0.01553078 0.01134909 0.54509804 0.71372549 0.60000000
v -0.05418622 -0.01702486 0.00873124 0.54509804 0.71372549 0.60000000
v -0.05936454 -0.01772733 0.00697953 0.54509804 0.71372549 0.60000000
v -0.05738136 -0.01775229 0.00704167 0.54509804 0.71372549 0.60000000
v -0.05418622 -0.01778795 0.00713489 0.54509804 0.71372549 0.60000000
v -0.04781430 -0.01815879 0.00534434 0.54509804 0.71372549 0.60000000
v -0.06377163 -0.01832282 0.00216330 0.54509804 0.71372549 0.60000000
v -0.05738136 -0.01837987 0.00216330 0.54509804 0.71372549 0.60000000
v -0.05418622 -0.01840484 0.00216330 0.54509804 0.71372549 0.60000000
v -0.06057649 -0.01826577 -0.00102162 0.54509804 0.71372549 0.60000000
v -0.05738136 -0.01828716 -0.00102162 0.54509804 0.71372549 0.60000000
v -0.05418622 -0.01830143 -0.00102162 0.54509804 0.71372549 0.60000000
v -0.05418622 -0.01788779 -0.00343361 0.54509804 0.71372549 0.60000000
v -0.05100944 -0.01786996 -0.00334428 0.54509804 0.71372549 0.60000000
v -0.05738136 -0.01788423 -0.00342973 0.54509804 0.71372549 0.60000000
v -0.06057649 -0.01787709 -0.00329767 0.54509804 0.71372549 0.60000000
v -0.06377163 -0.01782004 -0.00299083 0.54509804 0.71372549 0.60000000
v -0.06579156 -0.01774872 -0.00273837 0.54509804 0.71372549 0.60000000
v -0.06689333 -0.01720315 -0.00396961 0.54509804 0.71372549 0.60000000
v -0.07016192 -0.01754191 -0.00193049 0.54509804 0.71372549 0.60000000
v -0.07346724 -0.01735648 -0.00093617 0.54509804 0.71372549 0.60000000
v -0.07653383 -0.01652208 -0.00102162 0.54509804 0.71372549 0.60000000
v -0.07969224 -0.01519560 -0.00091675 0.54509804 0.71372549 0.60000000
v -0.08156526 -0.01468212 0.00021739 0.54509804 0.71372549 0.60000000
v -0.08073892 -0.01410802 -0.00190718 0.54509804 0.71372549 0.60000000
v -0.08286902 -0.01291704 -0.00097501 0.54509804 0.71372549 0.60000000
v -0.08487058 -0.01172605 -0.00004284 0.54509804 0.71372549 0.60000000
v -0.08417278 -0.01075972 -0.00217130 0.54509804 0.71372549 0.60000000
v -0.08553164 -0.00971136 -0.00107600 0.54509804 0.71372549 0.60000000
v -0.08696394 -0.00684088 -0.00107600 0.54509804 0.71372549 0.60000000
v -0.08711084 -0.00334638 -0.00203924 0.54509804 0.71372549 0.60000000
v -0.06959266 0.00941570 -0.00947332 0.54509804 0.71372549 0.60000000
v -0.06889488 0.01125209 -0.00913929 0.54509804 0.71372549 0.60000000
v -0.06491013 0.01402630 -0.00881302 0.54509804 0.71372549 0.60000000
v -0.08705575 -0.00016923 -0.00201982 0.54509804 0.71372549 0.60000000
v -0.08689049 0.00303288 -0.00162365 0.54509804 0.71372549 0.60000000
v -0.08498075 0.00558601 -0.00299083 0.54509804 0.71372549 0.60000000
v -0.07829667 0.00810704 -0.00588057 0.54509804 0.71372549 0.60000000
v -0.07335706 0.00940856 -0.00784202 0.54509804 0.71372549 0.60000000
v -0.07120860 0.00941570 -0.00877418 0.54509804 0.71372549 0.60000000
v -0.04781430 0.01662935 -0.00740700 0.54509804 0.71372549 0.60000000
v -0.05100944 0.01658300 -0.00740700 0.54509804 0.71372549 0.60000000
v -0.05418622 0.01635835 -0.00740700 0.54509804 0.71372549 0.60000000
v -0.06057649 0.01569154 -0.00740700 0.54509804 0.71372549 0.60000000
v -0.05738136 0.01603743 -0.00740700 0.54509804 0.71372549 0.60000000
v -0.06946412 0.01443994 -0.00617575 0.54509804 0.71372549 0.60000000
v -0.06694842 0.01474303 -0.00674671 0.54509804 0.71372549 0.60000000
v -0.06380836 0.01501403 -0.00761285 0.54509804 0.71372549 0.60000000
v -0.04461917 0.01655447 -0.00740700 0.54509804 0.71372549 0.60000000
v -0.04142402 0.01722128 -0.00492509 0.54509804 0.71372549 0.60000000
v -0.03822889 0.01747445 -0.00300637 0.54509804 0.71372549 0.60000000
v -0.03822889 0.01768127 0.00216330 0.54509804 0.71372549 0.60000000
v -0.04142402 0.01752437 -0.00332874 0.54509804 0.71372549 0.60000000
v -0.04142402 0.01782747 -0.00102162 0.54509804 0.71372549 0.60000000
v -0.04142402 0.01772762 0.00216330 0.54509804 0.71372549 0.60000000
v -0.03822889 0.01740670 0.00381791 0.54509804 0.71372549 0.60000000
v -0.04142402 0.01742453 0.00388394 0.54509804 0.71372549 0.60000000
v 0.06697200 0.00583918 0.02425579 0.54509804 0.71372549 0.60000000
v 0.02343363 0.01426878 0.01662751 0.54509804 0.71372549 0.60000000
v -0.04461917 0.01456831 0.01054897 0.54509804 0.71372549 0.60000000
v -0.04781430 0.01443637 0.01037807 0.54509804 0.71372549 0.60000000
v -0.05040347 0.01430800 0.01024213 0.54509804 0.71372549 0.60000000
v -0.04461917 0.01280679 0.01214143 0.54509804 0.71372549 0.60000000
v -0.04461917 0.01121644 0.01347366 0.54509804 0.71372549 0.60000000
v -0.04674925 0.01108450 0.01337268 0.54509804 0.71372549 0.60000000
v 0.02236859 0.01125209 0.01990954 0.54509804 0.71372549 0.60000000
v 0.02236859 0.00940856 0.02094658 0.54509804 0.71372549 0.60000000
v 0.02231350 0.00601747 0.02242640 0.54509804 0.71372549 0.60000000
v 0.02334182 0.00481935 0.02297017 0.54509804 0.71372549 0.60000000
v 0.02231350 0.00316481 0.02313719 0.54509804 0.71372549 0.60000000
v -0.04461917 0.01742809 0.00389559 0.54509804 0.71372549 0.60000000
v -0.05100944 -0.01811244 0.00534434 0.54509804 0.71372549 0.60000000
v -0.05738136 -0.01801973 0.00534434 0.54509804 0.71372549 0.60000000
v 0.06697200 0.00386371 0.02425579 0.54509804 0.71372549 0.60000000
v -0.03505211 -0.00016923 0.01853458 0.54509804 0.71372549 0.60000000
v -0.03505211 -0.00334638 0.01867441 0.54509804 0.71372549 0.60000000
v -0.03822889 -0.00653778 0.01804908 0.54509804 0.71372549 0.60000000
v -0.04142402 -0.00926564 0.01698096 0.54509804 0.71372549 0.60000000
v -0.04461917 -0.01029973 0.01613424 0.54509804 0.71372549 0.60000000
v -0.05100944 -0.01240356 0.01397471 0.54509804 0.71372549 0.60000000
v -0.04781430 -0.01268526 0.01426601 0.54509804 0.71372549 0.60000000
v -0.04434372 -0.01318804 0.01429708 0.54509804 0.71372549 0.60000000
v -0.05100944 -0.01400105 0.01294155 0.54509804 0.71372549 0.60000000
v -0.05418622 -0.01543094 0.01111993 0.54509804 0.71372549 0.60000000
v -0.05738136 -0.01681448 0.00864190 0.54509804 0.71372549 0.60000000
v -0.06147628 -0.01766671 0.00676591 0.54509804 0.71372549 0.60000000
v -0.06694842 -0.01788423 0.00448597 0.54509804 0.71372549 0.60000000
v -0.06377163 -0.01794841 0.00489768 0.54509804 0.71372549 0.60000000
v -0.06048469 -0.01792345 0.00555797 0.54509804 0.71372549 0.60000000
v -0.06694842 -0.01821941 0.00216330 0.54509804 0.71372549 0.60000000
v -0.06377163 -0.01819802 -0.00102162 0.54509804 0.71372549 0.60000000
v -0.06689333 -0.01800190 -0.00120028 0.54509804 0.71372549 0.60000000
v -0.06792164 -0.01765245 -0.00238492 0.54509804 0.71372549 0.60000000
v -0.07016192 -0.01792702 -0.00033026 0.54509804 0.71372549 0.60000000
v -0.07120860 -0.01786996 -0.00009721 0.54509804 0.71372549 0.60000000
v -0.07247564 -0.01779865 0.00019409 0.54509804 0.71372549 0.60000000
v -0.07653383 -0.01696781 0.00216330 0.54509804 0.71372549 0.60000000
v -0.07972897 -0.01570907 0.00216330 0.54509804 0.71372549 0.60000000
v -0.08162034 -0.01471778 0.00216330 0.54509804 0.71372549 0.60000000
v -0.08321791 -0.01355889 0.00216330 0.54509804 0.71372549 0.60000000
v -0.08512766 -0.01196140 0.00216330 0.54509804 0.71372549 0.60000000
v -0.08769846 -0.00810675 0.00102528 0.54509804 0.71372549 0.60000000
v -0.08806570 -0.00597438 -0.00005061 0.54509804 0.71372549 0.60000000
v -0.08835952 -0.00334638 -0.00044678 0.54509804 0.71372549 0.60000000
v -0.08839624 -0.00016923 -0.00041959 0.54509804 0.71372549 0.60000000
v -0.07563404 0.01150170 -0.00616022 0.54509804 0.71372549 0.60000000
v -0.07335706 0.01213285 -0.00665738 0.54509804 0.71372549 0.60000000
v -0.07157586 0.01414398 -0.00571355 0.54509804 0.71372549 0.60000000
v -0.08812079 0.00303288 -0.00002730 0.54509804 0.71372549 0.60000000
v -0.08782700 0.00482649 0.00036110 0.54509804 0.71372549 0.60000000
v -0.08444823 0.00771123 -0.00254417 0.54509804 0.71372549 0.60000000
v -0.07774578 0.01023584 -0.00555042 0.54509804 0.71372549 0.60000000
v -0.07662565 0.00926950 -0.00637384 0.54509804 0.71372549 0.60000000
v -0.04781430 0.01732112 -0.00540283 0.54509804 0.71372549 0.60000000
v -0.05100944 0.01729973 -0.00536787 0.54509804 0.71372549 0.60000000
v -0.05418622 0.01720701 -0.00499889 0.54509804 0.71372549 0.60000000
v -0.05738136 0.01708578 -0.00450173 0.54509804 0.71372549 0.60000000
v -0.06377163 0.01647959 -0.00421431 0.54509804 0.71372549 0.60000000
v -0.06030105 0.01698950 -0.00391135 0.54509804 0.71372549 0.60000000
v -0.07120860 0.01440071 -0.00532126 0.54509804 0.71372549 0.60000000
v -0.07038226 0.01495698 -0.00447454 0.54509804 0.71372549 0.60000000
v -0.06694842 0.01585200 -0.00421431 0.54509804 0.71372549 0.60000000
v -0.04461917 0.01727833 -0.00517367 0.54509804 0.71372549 0.60000000
v -0.04781430 0.01793801 -0.00102162 0.54509804 0.71372549 0.60000000
v -0.04781430 0.01759925 -0.00380648 0.54509804 0.71372549 0.60000000
v -0.04461917 0.01774902 0.00216330 0.54509804 0.71372549 0.60000000
v -0.05100944 0.01797723 -0.00102162 0.54509804 0.71372549 0.60000000
v -0.04461917 0.01701446 0.00548417 0.54509804 0.71372549 0.60000000
v -0.04781430 0.01700376 0.00542979 0.54509804 0.71372549 0.60000000
v -0.05418622 0.01692888 0.00534434 0.54509804 0.71372549 0.60000000
v -0.04461917 0.01578425 0.00853703 0.54509804 0.71372549 0.60000000
v -0.04781430 0.01564162 0.00853703 0.54509804 0.71372549 0.60000000
v -0.05418622 0.01535992 0.00843216 0.54509804 0.71372549 0.60000000
v -0.05738136 0.01525294 0.00824573 0.54509804 0.71372549 0.60000000
v -0.06057649 0.01508892 0.00805930 0.54509804 0.71372549 0.60000000
v -0.05253356 0.01419390 0.01012173 0.54509804 0.71372549 0.60000000
v -0.05418622 0.01409762 0.01003239 0.54509804 0.71372549 0.60000000
v -0.04783266 0.01232897 0.01221523 0.54509804 0.71372549 0.60000000
v -0.05738136 0.01388010 0.00984207 0.54509804 0.71372549 0.60000000
v -0.04887935 0.01090264 0.01327169 0.54509804 0.71372549 0.60000000
v -0.03330763 0.00780751 0.01651099 0.54509804 0.71372549 0.60000000
v -0.03505211 0.00593902 0.01700815 0.54509804 0.71372549 0.60000000
v -0.03505211 0.00303288 0.01790148 0.54509804 0.71372549 0.60000000
v -0.04781430 0.01775258 0.00216330 0.54509804 0.71372549 0.60000000
v -0.05126652 0.01768483 0.00248180 0.54509804 0.71372549 0.60000000
v -0.05038510 0.01740313 0.00379461 0.54509804 0.71372549 0.60000000
v -0.05126652 0.01707151 0.00504916 0.54509804 0.71372549 0.60000000
v -0.03822889 -0.00016923 0.01820444 0.54509804 0.71372549 0.60000000
v -0.03822889 -0.00334638 0.01836757 0.54509804 0.71372549 0.60000000
v -0.04142402 -0.00653778 0.01763348 0.54509804 0.71372549 0.60000000
v -0.04461917 -0.00870580 0.01671685 0.54509804 0.71372549 0.60000000
v -0.04649217 -0.00826721 0.01656149 0.54509804 0.71372549 0.60000000
v -0.04766740 -0.00949028 0.01591285 0.54509804 0.71372549 0.60000000
v -0.05100944 -0.00972919 0.01522149 0.54509804 0.71372549 0.60000000
v -0.05418622 -0.01191861 0.01364456 0.54509804 0.71372549 0.60000000
v -0.07653383 -0.01292060 0.00900312 0.54509804 0.71372549 0.60000000
v -0.07653383 -0.01520629 0.00765924 0.54509804 0.71372549 0.60000000
v -0.05418622 -0.01351253 0.01270851 0.54509804 0.71372549 0.60000000
v -0.05738136 -0.01521699 0.01082086 0.54509804 0.71372549 0.60000000
v -0.07335706 -0.01553435 0.00788451 0.54509804 0.71372549 0.60000000
v -0.06377163 -0.01757757 0.00649014 0.54509804 0.71372549 0.60000000
v -0.06694842 -0.01743493 0.00608620 0.54509804 0.71372549 0.60000000
v -0.06940903 -0.01779151 0.00409368 0.54509804 0.71372549 0.60000000
v -0.07120860 -0.01775942 0.00323142 0.54509804 0.71372549 0.60000000
v -0.07032718 -0.01793415 0.00236528 0.54509804 0.71372549 0.60000000
v -0.07247564 -0.01779865 0.00144087 0.54509804 0.71372549 0.60000000
v -0.07346724 -0.01758826 0.00236916 0.54509804 0.71372549 0.60000000
v -0.07653383 -0.01637232 0.00534434 0.54509804 0.71372549 0.60000000
v -0.07978405 -0.01513854 0.00523947 0.54509804 0.71372549 0.60000000
v -0.08147344 -0.01462150 0.00410145 0.54509804 0.71372549 0.60000000
v -0.08499911 -0.01180807 0.00534434 0.54509804 0.71372549 0.60000000
v -0.08771681 -0.00815667 0.00384510 0.54509804 0.71372549 0.60000000
v -0.08690885 -0.00942610 0.00211669 0.54509804 0.71372549 0.60000000
v -0.08771681 -0.00815667 0.00315374 0.54509804 0.71372549 0.60000000
v -0.08813916 -0.00684088 0.00211669 0.54509804 0.71372549 0.60000000
v -0.08903893 -0.00334638 0.00216330 0.54509804 0.71372549 0.60000000
v -0.08911240 -0.00016923 0.00216330 0.54509804 0.71372549 0.60000000
v -0.07335706 0.01373034 -0.00517755 0.54509804 0.71372549 0.60000000
v -0.08128982 0.01097396 -0.00258689 0.54509804 0.71372549 0.60000000
v -0.07915972 0.01173348 -0.00342585 0.54509804 0.71372549 0.60000000
v -0.07655219 0.01268199 -0.00424538 0.54509804 0.71372549 0.60000000
v -0.07535861 0.01435436 -0.00293646 0.54509804 0.71372549 0.60000000
v -0.07335706 0.01461466 -0.00358121 0.54509804 0.71372549 0.60000000
v -0.08856150 0.00303288 0.00216330 0.54509804 0.71372549 0.60000000
v -0.08795554 0.00508679 0.00216330 0.54509804 0.71372549 0.60000000
v -0.08700067 0.00668428 0.00216330 0.54509804 0.71372549 0.60000000
v -0.08505420 0.00852781 -0.00041571 0.54509804 0.71372549 0.60000000
v -0.08323628 0.00975445 -0.00150324 0.54509804 0.71372549 0.60000000
v -0.05100944 0.01761708 -0.00377541 0.54509804 0.71372549 0.60000000
v -0.05418622 0.01756360 -0.00340254 0.54509804 0.71372549 0.60000000
v -0.05905238 0.01739957 -0.00264904 0.54509804 0.71372549 0.60000000
v -0.07016192 0.01608021 -0.00102162 0.54509804 0.71372549 0.60000000
v -0.06694842 0.01669354 -0.00102162 0.54509804 0.71372549 0.60000000
v -0.06120083 0.01731755 -0.00168191 0.54509804 0.71372549 0.60000000
v -0.05418622 0.01788452 -0.00102162 0.54509804 0.71372549 0.60000000
v -0.05418622 0.01771336 0.00204678 0.54509804 0.71372549 0.60000000
v -0.05251520 0.01739244 0.00375577 0.54509804 0.71372549 0.60000000
v -0.05418622 0.01736748 0.00363925 0.54509804 0.71372549 0.60000000
v -0.05738136 0.01729616 0.00325084 0.54509804 0.71372549 0.60000000
v -0.05738136 0.01675415 0.00534434 0.54509804 0.71372549 0.60000000
v -0.06057649 0.01649385 0.00534434 0.54509804 0.71372549 0.60000000
v -0.06377163 0.01622998 0.00534434 0.54509804 0.71372549 0.60000000
v -0.07120860 0.01455404 0.00739512 0.54509804 0.71372549 0.60000000
v -0.07335706 0.01444350 0.00725918 0.54509804 0.71372549 0.60000000
v -0.05100944 0.01063521 0.01313964 0.54509804 0.71372549 0.60000000
v -0.07335706 0.01260354 0.00859530 0.54509804 0.71372549 0.60000000
v -0.03505211 0.00753651 0.01640612 0.54509804 0.71372549 0.60000000
v -0.05100944 0.00903772 0.01385042 0.54509804 0.71372549 0.60000000
v -0.05418622 0.00858843 0.01366010 0.54509804 0.71372549 0.60000000
v -0.05100944 0.00622072 0.01495349 0.54509804 0.71372549 0.60000000
v -0.04302159 0.00462680 0.01651488 0.54509804 0.71372549 0.60000000
v -0.03822889 0.00303288 0.01752861 0.54509804 0.71372549 0.60000000
v -0.04142402 0.00303288 0.01712467 0.54509804 0.71372549 0.60000000
v -0.04693289 0.00197740 0.01664694 0.54509804 0.71372549 0.60000000
v -0.04142402 -0.00016923 0.01778885 0.54509804 0.71372549 0.60000000
v -0.04142402 -0.00334638 0.01792479 0.54509804 0.71372549 0.60000000
v -0.04461917 -0.00334638 0.01740044 0.54509804 0.71372549 0.60000000
v -0.04461917 -0.00653778 0.01709748 0.54509804 0.71372549 0.60000000
v -0.04713487 -0.00653778 0.01667412 0.54509804 0.71372549 0.60000000
v -0.04873245 -0.00653778 0.01639836 0.54509804 0.71372549 0.60000000
v -0.05100944 -0.00653778 0.01599830 0.54509804 0.71372549 0.60000000
v -0.08292411 -0.00653778 0.00968671 0.54509804 0.71372549 0.60000000
v -0.08292411 -0.00972919 0.00891379 0.54509804 0.71372549 0.60000000
v -0.07978405 -0.01309889 0.00816416 0.54509804 0.71372549 0.60000000
v -0.07877410 -0.01482119 0.00730967 0.54509804 0.71372549 0.60000000
v -0.07335706 -0.01701060 0.00534434 0.54509804 0.71372549 0.60000000
v -0.07120860 -0.01726377 0.00526278 0.54509804 0.71372549 0.60000000
v -0.07032718 -0.01736362 0.00523171 0.54509804 0.71372549 0.60000000
v -0.07153912 -0.01768811 0.00356933 0.54509804 0.71372549 0.60000000
v -0.08088583 -0.01427918 0.00622602 0.54509804 0.71372549 0.60000000
v -0.08268539 -0.01348400 0.00523947 0.54509804 0.71372549 0.60000000
v -0.08472367 -0.01152280 0.00714266 0.54509804 0.71372549 0.60000000
v -0.08668850 -0.00942610 0.00508023 0.54509804 0.71372549 0.60000000
v -0.08747810 -0.00757544 0.00596191 0.54509804 0.71372549 0.60000000
v -0.08801063 -0.00651996 0.00508023 0.54509804 0.71372549 0.60000000
v -0.08874515 -0.00334638 0.00534434 0.54509804 0.71372549 0.60000000
v -0.08881859 -0.00016923 0.00534434 0.54509804 0.71372549 0.60000000
v -0.08834115 0.00303288 0.00534434 0.54509804 0.71372549 0.60000000
v -0.08204269 0.01162651 -0.00045843 0.54509804 0.71372549 0.60000000
v -0.07976570 0.01274261 -0.00107211 0.54509804 0.71372549 0.60000000
v -0.07747034 0.01386228 -0.00168191 0.54509804 0.71372549 0.60000000
v -0.07646038 0.01453978 -0.00078081 0.54509804 0.71372549 0.60000000
v -0.07335706 0.01536705 -0.00102162 0.54509804 0.71372549 0.60000000
v -0.07822321 0.01423669 0.00044655 0.54509804 0.71372549 0.60000000
v -0.08788209 0.00499051 0.00534434 0.54509804 0.71372549 0.60000000
v -0.08692721 0.00658800 0.00534434 0.54509804 0.71372549 0.60000000
v -0.08540309 0.00890578 0.00216330 0.54509804 0.71372549 0.60000000
v -0.08400752 0.01049971 0.00216330 0.54509804 0.71372549 0.60000000
v -0.05738136 0.01766701 -0.00102162 0.54509804 0.71372549 0.60000000
v -0.07335706 0.01558100 0.00216330 0.54509804 0.71372549 0.60000000
v -0.07120860 0.01601603 0.00216330 0.54509804 0.71372549 0.60000000
v -0.07016192 0.01622641 0.00216330 0.54509804 0.71372549 0.60000000
v -0.06694842 0.01674346 0.00216330 0.54509804 0.71372549 0.60000000
v -0.06230260 0.01740313 0.00044655 0.54509804 0.71372549 0.60000000
v -0.06353292 0.01717849 -0.00077692 0.54509804 0.71372549 0.60000000
v -0.06030105 0.01746019 -0.00077692 0.54509804 0.71372549 0.60000000
v -0.06230260 0.01740313 0.00063687 0.54509804 0.71372549 0.60000000
v -0.06057649 0.01747445 0.00102528 0.54509804 0.71372549 0.60000000
v -0.05738136 0.01760639 0.00165838 0.54509804 0.71372549 0.60000000
v -0.06057649 0.01720345 0.00261774 0.54509804 0.71372549 0.60000000
v -0.06694842 0.01592332 0.00534434 0.54509804 0.71372549 0.60000000
v -0.07526679 0.01430800 0.00708440 0.54509804 0.71372549 0.60000000
v -0.05418622 0.01018235 0.01291824 0.54509804 0.71372549 0.60000000
v -0.07640529 0.01274974 0.00798161 0.54509804 0.71372549 0.60000000
v -0.07972897 0.00940856 0.00917013 0.54509804 0.71372549 0.60000000
v -0.05633468 0.00817479 0.01348532 0.54509804 0.71372549 0.60000000
v -0.05100944 0.00303288 0.01577691 0.54509804 0.71372549 0.60000000
v -0.04792448 0.00303288 0.01624299 0.54509804 0.71372549 0.60000000
v -0.04515169 0.00409906 0.01638282 0.54509804 0.71372549 0.60000000
v -0.05418622 0.00622072 0.01443691 0.54509804 0.71372549 0.60000000
v -0.04430699 0.00303288 0.01675569 0.54509804 0.71372549 0.60000000
v -0.04906298 0.00080424 0.01645273 0.54509804 0.71372549 0.60000000
v -0.04461917 -0.00016923 0.01731499 0.54509804 0.71372549 0.60000000
v -0.04963223 -0.00132099 0.01655372 0.54509804 0.71372549 0.60000000
v -0.04963223 -0.00247988 0.01655372 0.54509804 0.71372549 0.60000000
v -0.04928333 -0.00460868 0.01649546 0.54509804 0.71372549 0.60000000
v -0.08292411 -0.00334638 0.00983042 0.54509804 0.71372549 0.60000000
v -0.08610088 -0.00334638 0.00885941 0.54509804 0.71372549 0.60000000
v -0.08628452 -0.00651996 0.00805153 0.54509804 0.71372549 0.60000000
v -0.05080745 -0.00346405 0.01628572 0.54509804 0.71372549 0.60000000
v -0.08529292 -0.00972919 0.00759321 0.54509804 0.71372549 0.60000000
v -0.08292411 -0.01208977 0.00764370 0.54509804 0.71372549 0.60000000
v -0.08786372 -0.00544664 0.00714654 0.54509804 0.71372549 0.60000000
v -0.08804736 -0.00334638 0.00739512 0.54509804 0.71372549 0.60000000
v -0.08810245 -0.00016923 0.00746115 0.54509804 0.71372549 0.60000000
v -0.08788209 0.00303288 0.00719315 0.54509804 0.71372549 0.60000000
v -0.08773518 0.00470525 0.00699118 0.54509804 0.71372549 0.60000000
v -0.08240994 0.01189038 0.00216330 0.54509804 0.71372549 0.60000000
v -0.07947189 0.01361623 0.00222933 0.54509804 0.71372549 0.60000000
v -0.07822321 0.01423669 0.00120783 0.54509804 0.71372549 0.60000000
v -0.07680927 0.01464319 0.00222933 0.54509804 0.71372549 0.60000000
v -0.08532965 0.00873462 0.00534434 0.54509804 0.71372549 0.60000000
v -0.08494402 0.00829960 0.00732909 0.54509804 0.71372549 0.60000000
v -0.08378716 0.01033211 0.00534434 0.54509804 0.71372549 0.60000000
v -0.07335706 0.01506752 0.00534434 0.54509804 0.71372549 0.60000000
v -0.07594622 0.01452908 0.00534434 0.54509804 0.71372549 0.60000000
v -0.07120860 0.01537062 0.00534434 0.54509804 0.71372549 0.60000000
v -0.07016192 0.01551682 0.00534434 0.54509804 0.71372549 0.60000000
v -0.06353292 0.01711430 0.00187977 0.54509804 0.71372549 0.60000000
v -0.07754379 0.01396568 0.00534434 0.54509804 0.71372549 0.60000000
v -0.07972897 0.01299221 0.00534434 0.54509804 0.71372549 0.60000000
v -0.08174888 0.01127706 0.00729025 0.54509804 0.71372549 0.60000000
v -0.07972897 0.01179053 0.00775634 0.54509804 0.71372549 0.60000000
v -0.08285066 0.00938004 0.00795443 0.54509804 0.71372549 0.60000000
v -0.08292411 0.00622072 0.00937987 0.54509804 0.71372549 0.60000000
v -0.08292411 0.00303288 0.00983042 0.54509804 0.71372549 0.60000000
v -0.05080745 -0.00022985 0.01622746 0.54509804 0.71372549 0.60000000
v -0.04792448 -0.00022985 0.01675957 0.54509804 0.71372549 0.60000000
v -0.08610088 -0.00016923 0.00896428 0.54509804 0.71372549 0.60000000
v -0.08610088 0.00303288 0.00866909 0.54509804 0.71372549 0.60000000
v -0.08604579 0.00594615 0.00776411 0.54509804 0.71372549 0.60000000
v -0.08218960 0.01163007 0.00534434 0.54509804 0.71372549 0.60000000
v -0.07805795 0.01417607 0.00333240 0.54509804 0.71372549 0.60000000
f 1 2 3
f 1 3 4
f 1 4 5
f 1 5 6
f 1 6 7
f 1 7 8
f 1 8 2
f 2 9 10
f 2 10 11
f 2 11 3
f 2 8 9
f 3 12 4
f 3 11 13
f 3 13 14
f 3 14 12
f 4 15 16
f 4 16 17
f 4 17 5
f 4 12 18
f 4 18 15
f 5 17 6
f 6 17 19
f 6 19 7
f 7 20 8
f 7 19 21
f 7 21 22
f 7 22 20
f 8 23 9
f 8 20 23
f 9 23 24
f 9 24 25
f 9 25 10
f 10 25 26
f 10 26 11
f 11 26 13
f 12 14 18
f 13 27 28
f 13 28 29
f 13 29 30
f 13 30 14
f 13 26 27
f 14 31 18
f 14 30 32
f 14 32 31
f 15 18 33
f 15 33 34
f 15 34 35
f 15 35 16
f 16 35 36
f 16 36 19
f 16 19 17
f 18 31 37
f 18 37 33
f 19 36 38
f 19 38 21
f 20 39 23
f 20 22 40
f 20 40 39
f 21 38 41
f 21 41 42
f 21 42 43
f 21 43 22
f 22 43 40
f 23 44 45
f 23 45 24
f 23 39 44
f 24 45 25
f 25 45 46
f 25 46 27
f 25 27 26
f 27 46 47
f 27 47 48
f 27 48 28
f 28 48 29
f 29 48 49
f 29 49 30
f 30 49 50
f 30 50 32
f 31 32 37
f 32 50 51
f 32 51 52
f 32 52 53
f 32 53 54
f 32 54 37
f 33 37 54
f 33 54 55
f 33 55 56
f 33 56 57
f 33 57 58
f 33 58 34
f 34 58 59
f 34 59 60
f 34 60 35
f 35 60 61
f 35 61 62
f 35 62 36
f 36 62 63
f 36 63 64
f 36 64 38
f 38 64 65
f 38 65 41
f 39 66 44
f 39 40 67
f 39 67 68
f 39 68 66
f 40 43 69
f 40 69 67
f 41 65 42
f 42 65 70
f 42 70 71
f 42 71 43
f 43 71 72
f 43 72 73
f 43 73 69
f 44 74 45
f 44 66 74
f 45 74 75
f 45 75 46
f 46 76 47
f 46 75 76
f 47 77 78
f 47 78 48
f 47 76 77
f 48 78 49
f 49 79 80
f 49 80 50
f 49 78 79
f 50 80 51
f 51 81 52
f 51 80 82
f 51 82 83
f 51 83 81
f 52 81 84
f 52 84 85
f 52 85 53
f 53 86 55
f 53 55 54
f 53 85 86
f 55 87 57
f 55 57 56
f 55 86 87
f 57 88 58
f 57 87 84
f 57 84 88
f 58 88 59
f 59 88 89
f 59 89 90
f 59 90 91
f 59 91 60
f 60 91 92
f 60 92 61
f 61 92 93
f 61 93 94
f 61 94 95
f 61 95 96
f 61 96 62
f 62 96 63
f 63 96 97
f 63 97 64
f 64 97 98
f 64 98 99
f 64 99 65
f 65 99 98
f 65 98 100
f 65 100 101
f 65 101 102
f 65 102 103
f 65 103 104
f 65 104 70
f 66 105 74
f 66 68 106
f 66 106 105
f 67 69 107
f 67 107 108
f 67 108 68
f 68 108 109
f 68 109 106
f 69 73 115
f 69 115 107
f 70 104 110
f 70 110 71
f 71 110 111
f 71 111 72
f 72 111 112
f 72 112 113
f 72 113 114
f 72 114 73
f 73 114 116
f 73 116 115
f 74 117 75
f 74 105 118
f 74 118 117
f 75 119 120
f 75 120 76
f 75 117 119
f 76 120 77
f 77 121 122
f 77 122 78
f 77 120 121
f 78 122 79
f 79 122 123
f 79 123 124
f 79 124 82
f 79 82 80
f 81 83 84
f 82 125 84
f 82 84 83
f 82 124 123
f 82 123 125
f 84 87 126
f 84 126 85
f 84 125 127
f 84 127 128
f 84 128 129
f 84 129 130
f 84 130 131
f 84 131 132
f 84 132 133
f 84 133 89
f 84 89 88
f 85 126 87
f 85 87 86
f 89 133 90
f 90 133 132
f 90 132 91
f 91 132 134
f 91 134 135
f 91 135 92
f 92 135 136
f 92 136 137
f 92 137 93
f 93 137 94
f 94 137 138
f 94 138 95
f 95 138 139
f 95 139 98
f 95 98 97
f 95 97 96
f 98 139 140
f 98 140 100
f 100 140 141
f 100 141 142
f 100 142 143
f 100 143 144
f 100 144 102
f 100 102 101
f 102 144 103
f 103 145 146
f 103 146 147
f 103 147 104
f 103 144 148
f 103 148 149
f 103 149 145
f 104 147 110
f 105 106 150
f 105 150 118
f 106 151 150
f 106 109 151
f 107 115 108
f 108 115 152
f 108 152 153
f 108 153 154
f 108 154 109
f 109 154 155
f 109 155 156
f 109 156 151
f 110 147 146
f 110 146 111
f 111 146 112
f 112 146 145
f 112 145 157
f 112 157 113
f 113 157 114
f 114 157 158
f 114 158 116
f 115 116 159
f 115 159 160
f 115 160 152
f 116 158 159
f 117 161 119
f 117 118 162
f 117 162 161
f 118 150 163
f 118 163 162
f 119 164 165
f 119 165 120
f 119 161 164
f 120 165 121
f 121 166 167
f 121 167 122
f 121 165 166
f 122 167 168
f 122 168 169
f 122 169 123
f 123 169 170
f 123 170 125
f 125 171 127
f 125 170 172
f 125 172 173
f 125 173 174
f 125 174 175
f 125 175 176
f 125 176 177
f 125 177 178
f 125 178 171
f 127 171 179
f 127 179 180
f 127 180 181
f 127 181 182
f 127 182 234
f 127 234 308
f 127 308 324
f 127 324 238
f 127 238 183
f 127 183 184
f 127 184 185
f 127 185 128
f 128 185 186
f 128 186 187
f 128 187 188
f 128 188 129
f 129 188 189
f 129 189 190
f 129 190 130
f 130 190 131
f 131 190 189
f 131 189 191
f 131 191 134
f 131 134 132
f 134 191 192
f 134 192 135
f 135 192 193
f 135 193 194
f 135 194 136
f 136 194 137
f 137 194 195
f 137 195 138
f 138 195 196
f 138 196 139
f 139 196 197
f 139 197 141
f 139 141 140
f 141 197 198
f 141 198 142
f 142 198 143
f 143 198 148
f 143 148 144
f 145 149 199
f 145 199 200
f 145 200 157
f 148 198 201
f 148 201 202
f 148 202 203
f 148 203 204
f 148 204 149
f 149 204 203
f 149 203 205
f 149 205 206
f 149 206 207
f 149 207 199
f 150 151 163
f 151 156 208
f 151 208 209
f 151 209 163
f 152 160 153
f 153 155 154
f 153 160 159
f 153 159 210
f 153 210 211
f 153 211 155
f 155 211 212
f 155 212 213
f 155 213 156
f 156 213 208
f 157 200 214
f 157 214 158
f 158 214 215
f 158 215 216
f 158 216 217
f 158 217 159
f 159 217 210
f 161 218 164
f 161 162 219
f 161 219 218
f 162 163 220
f 162 220 219
f 163 209 221
f 163 221 222
f 163 222 223
f 163 223 220
f 164 224 165
f 164 218 224
f 165 225 226
f 165 226 166
f 165 224 225
f 166 226 174
f 166 174 173
f 166 173 168
f 166 168 167
f 168 173 170
f 168 170 169
f 170 173 172
f 171 178 179
f 174 226 175
f 175 227 176
f 175 226 227
f 176 228 177
f 176 227 226
f 176 226 229
f 176 229 230
f 176 230 231
f 176 231 228
f 177 228 178
f 178 228 232
f 178 232 233
f 178 233 179
f 179 233 180
f 180 233 181
f 181 233 182
f 182 233 235
f 182 235 236
f 182 236 309
f 182 309 234
f 183 237 184
f 183 238 239
f 183 239 240
f 183 240 241
f 183 241 242
f 183 242 243
f 183 243 244
f 183 244 245
f 183 245 246
f 183 246 247
f 183 247 248
f 183 248 249
f 183 249 250
f 183 250 251
f 183 251 252
f 183 252 253
f 183 253 254
f 183 254 255
f 183 255 237
f 184 237 256
f 184 256 185
f 185 256 257
f 185 257 258
f 185 258 259
f 185 259 186
f 186 259 260
f 186 260 261
f 186 261 262
f 186 262 187
f 187 262 263
f 187 263 188
f 188 263 264
f 188 264 189
f 189 264 191
f 191 264 192
f 192 264 263
f 192 263 193
f 193 263 265
f 193 265 194
f 194 265 266
f 194 266 195
f 195 266 267
f 195 267 268
f 195 268 196
f 196 268 269
f 196 269 197
f 197 270 271
f 197 271 198
f 197 269 270
f 198 271 272
f 198 272 201
f 199 207 200
f 200 207 214
f 201 272 202
f 202 272 273
f 202 273 274
f 202 274 275
f 202 275 203
f 203 275 276
f 203 276 277
f 203 277 278
f 203 278 206
f 203 206 205
f 206 278 279
f 206 279 280
f 206 280 207
f 207 280 281
f 207 281 214
f 208 221 209
f 208 213 221
f 210 217 282
f 210 282 283
f 210 283 212
f 210 212 211
f 212 284 213
f 212 283 284
f 213 284 221
f 214 281 215
f 215 281 285
f 215 285 216
f 216 285 286
f 216 286 287
f 216 287 288
f 216 288 217
f 217 288 289
f 217 289 290
f 217 290 282
f 218 291 224
f 218 219 292
f 218 292 291
f 219 220 293
f 219 293 292
f 220 223 294
f 220 294 295
f 220 295 293
f 221 294 222
f 221 284 296
f 221 296 297
f 221 297 298
f 221 298 294
f 222 294 223
f 224 299 225
f 224 291 299
f 225 230 229
f 225 229 226
f 225 299 230
f 228 231 300
f 228 300 301
f 228 301 232
f 230 300 231
f 230 299 300
f 232 302 233
f 232 301 303
f 232 303 304
f 232 304 302
f 233 302 305
f 233 305 306
f 233 306 307
f 233 307 235
f 234 309 310
f 234 310 311
f 234 311 312
f 234 312 313
f 234 313 314
f 234 314 315
f 234 315 316
f 234 316 317
f 234 317 318
f 234 318 319
f 234 319 320
f 234 320 239
f 234 239 308
f 235 309 236
f 235 307 321
f 235 321 309
f 237 322 256
f 237 255 323
f 237 323 322
f 238 324 239
f 239 320 325
f 239 325 326
f 239 326 240
f 239 324 308
f 240 326 327
f 240 327 242
f 240 242 241
f 242 327 243
f 243 327 328
f 243 328 244
f 244 328 329
f 244 329 330
f 244 330 331
f 244 331 248
f 244 248 332
f 244 332 245
f 245 332 247
f 245 247 246
f 247 332 248
f 248 331 333
f 248 333 334
f 248 334 251
f 248 251 249
f 249 251 250
f 251 334 252
f 252 334 335
f 252 335 253
f 253 336 337
f 253 337 338
f 253 338 339
f 253 339 323
f 253 323 254
f 253 335 336
f 254 323 255
f 256 322 257
f 257 338 340
f 257 340 341
f 257 341 260
f 257 260 258
f 257 322 323
f 257 323 338
f 258 260 259
f 260 341 266
f 260 266 265
f 260 265 261
f 261 265 262
f 262 265 263
f 266 341 267
f 267 341 342
f 267 342 268
f 268 342 343
f 268 343 269
f 269 343 270
f 270 343 344
f 270 344 345
f 270 345 346
f 270 346 271
f 271 346 272
f 272 347 348
f 272 348 274
f 272 274 273
f 272 346 347
f 274 349 350
f 274 350 351
f 274 351 277
f 274 277 276
f 274 276 275
f 274 348 349
f 277 351 352
f 277 352 279
f 277 279 278
f 279 352 353
f 279 353 280
f 280 353 281
f 281 353 354
f 281 354 355
f 281 355 285
f 282 290 356
f 282 356 283
f 283 356 357
f 283 357 284
f 284 357 358
f 284 358 296
f 285 355 286
f 286 355 359
f 286 359 360
f 286 360 287
f 287 360 361
f 287 361 362
f 287 362 288
f 288 362 363
f 288 363 289
f 289 363 356
f 289 356 290
f 291 364 299
f 291 292 365
f 291 365 364
f 292 293 366
f 292 366 365
f 293 295 367
f 293 367 366
f 294 298 368
f 294 368 369
f 294 369 295
f 295 369 367
f 296 358 370
f 296 370 371
f 296 371 372
f 296 372 297
f 297 372 298
f 298 372 368
f 299 373 300
f 299 364 373
f 300 303 301
f 300 373 303
f 302 304 374
f 302 374 305
f 303 373 364
f 303 364 375
f 303 375 304
f 304 375 374
f 305 376 307
f 305 307 306
f 305 374 377
f 305 377 376
f 307 376 321
f 309 321 378
f 309 378 379
f 309 379 380
f 309 380 381
f 309 381 382
f 309 382 310
f 310 382 383
f 310 383 384
f 310 384 311
f 311 384 312
f 312 384 385
f 312 385 386
f 312 386 313
f 313 386 387
f 313 387 388
f 313 388 315
f 313 315 314
f 315 388 387
f 315 387 389
f 315 389 390
f 315 390 316
f 316 391 317
f 316 390 391
f 317 391 318
f 318 391 319
f 319 391 392
f 319 392 393
f 319 393 325
f 319 325 320
f 321 376 394
f 321 394 395
f 321 395 396
f 321 396 397
f 321 397 379
f 321 379 378
f 323 339 338
f 325 393 398
f 325 398 399
f 325 399 326
f 326 399 327
f 327 399 400
f 327 400 401
f 327 401 328
f 328 401 329
f 329 401 402
f 329 402 403
f 329 403 404
f 329 404 405
f 329 405 330
f 330 333 331
f 330 405 406
f 330 406 407
f 330 407 408
f 330 408 333
f 333 408 407
f 333 407 409
f 333 409 334
f 334 409 410
f 334 410 335
f 335 410 336
f 336 411 337
f 336 410 411
f 337 412 413
f 337 413 340
f 337 340 338
f 337 411 412
f 340 413 414
f 340 414 415
f 340 415 416
f 340 416 346
f 340 346 345
f 340 345 344
f 340 344 341
f 341 344 342
f 342 344 343
f 346 416 347
f 347 417 418
f 347 418 419
f 347 419 348
f 347 416 417
f 348 419 420
f 348 420 349
f 349 420 350
f 350 421 351
f 350 420 421
f 351 421 422
f 351 422 423
f 351 423 352
f 352 423 424
f 352 424 425
f 352 425 426
f 352 426 353
f 353 426 354
f 354 426 427
f 354 427 355
f 355 427 359
f 356 428 358
f 356 358 357
f 356 363 362
f 356 362 429
f 356 429 430
f 356 430 431
f 356 431 428
f 358 428 432
f 358 432 433
f 358 433 370
f 359 427 434
f 359 434 360
f 360 434 435
f 360 435 436
f 360 436 437
f 360 437 361
f 361 437 438
f 361 438 429
f 361 429 362
f 364 365 439
f 364 439 375
f 365 366 440
f 365 440 439
f 366 367 441
f 366 441 440
f 367 369 441
f 368 372 442
f 368 442 443
f 368 443 444
f 368 444 369
f 369 444 441
f 370 433 371
f 371 433 372
f 372 433 442
f 374 375 377
f 375 439 377
f 376 377 394
f 377 439 445
f 377 445 446
f 377 446 394
f 379 397 380
f 380 383 382
f 380 382 381
f 380 397 447
f 380 447 448
f 380 448 449
f 380 449 450
f 380 450 383
f 383 450 384
f 384 450 451
f 384 451 385
f 385 451 452
f 385 452 453
f 385 453 386
f 386 453 387
f 387 453 454
f 387 454 389
f 389 454 390
f 390 455 391
f 390 454 456
f 390 456 455
f 391 457 392
f 391 455 458
f 391 458 459
f 391 459 457
f 392 457 460
f 392 460 461
f 392 461 393
f 393 461 462
f 393 462 398
f 394 446 395
f 395 446 447
f 395 447 396
f 396 447 397
f 398 462 463
f 398 463 464
f 398 464 465
f 398 465 399
f 399 465 466
f 399 466 400
f 400 466 467
f 400 467 468
f 400 468 402
f 400 402 401
f 402 469 470
f 402 470 471
f 402 471 472
f 402 472 473
f 402 473 404
f 402 404 403
f 402 468 469
f 404 473 406
f 404 406 405
f 406 473 474
f 406 474 407
f 407 474 475
f 407 475 418
f 407 418 476
f 407 476 410
f 407 410 409
f 410 476 412
f 410 412 411
f 412 476 477
f 412 477 478
f 412 478 413
f 413 478 477
f 413 477 476
f 413 476 479
f 413 479 414
f 414 479 416
f 414 416 415
f 416 479 417
f 417 479 476
f 417 476 418
f 418 475 419
f 419 480 420
f 419 475 480
f 420 480 481
f 420 481 421
f 421 481 482
f 421 482 483
f 421 483 422
f 422 483 484
f 422 484 485
f 422 485 426
f 422 426 425
f 422 425 424
f 422 424 423
f 426 486 487
f 426 487 427
f 426 485 486
f 427 487 488
f 427 488 434
f 428 431 432
f 429 438 489
f 429 489 490
f 429 490 491
f 429 491 432
f 429 432 430
f 430 432 431
f 432 492 493
f 432 493 433
f 432 491 494
f 432 494 492
f 433 493 442
f 434 488 495
f 434 495 435
f 435 495 496
f 435 496 436
f 436 496 497
f 436 497 437
f 437 498 489
f 437 489 438
f 437 497 498
f 439 440 445
f 440 441 445
f 441 444 499
f 441 499 445
f 442 493 500
f 442 500 501
f 442 501 502
f 442 502 443
f 443 503 504
f 443 504 505
f 443 505 444
f 443 502 503
f 444 504 506
f 444 506 499
f 444 505 504
f 445 499 504
f 445 504 507
f 445 507 508
f 445 508 509
f 445 509 446
f 446 448 447
f 446 509 449
f 446 449 448
f 449 509 510
f 449 510 450
f 450 510 451
f 451 510 452
f 452 503 511
f 452 511 454
f 452 454 453
f 452 510 503
f 454 512 456
f 454 511 512
f 455 456 513
f 455 513 459
f 455 459 458
f 456 512 514
f 456 514 515
f 456 515 513
f 457 459 460
f 459 513 515
f 459 515 516
f 459 516 460
f 460 517 518
f 460 518 519
f 460 519 461
f 460 516 520
f 460 520 517
f 461 519 462
f 462 519 463
f 463 519 521
f 463 521 464
f 464 519 518
f 464 518 517
f 464 517 522
f 464 522 523
f 464 523 465
f 464 521 519
f 465 523 466
f 466 523 524
f 466 524 467
f 467 525 526
f 467 526 469
f 467 469 468
f 467 524 525
f 469 526 470
f 470 526 471
f 471 526 472
f 472 527 528
f 472 528 529
f 472 529 473
f 472 526 530
f 472 530 527
f 473 529 531
f 473 531 482
f 473 482 532
f 473 532 474
f 474 532 475
f 475 532 482
f 475 482 480
f 480 482 481
f 482 531 533
f 482 533 484
f 482 484 483
f 484 533 485
f 485 533 486
f 486 533 534
f 486 534 535
f 486 535 487
f 487 535 536
f 487 536 537
f 487 537 488
f 488 537 495
f 489 538 494
f 489 494 490
f 489 498 538
f 490 494 491
f 492 494 493
f 493 494 500
f 494 539 540
f 494 540 541
f 494 541 500
f 494 538 539
f 495 537 496
f 496 542 497
f 496 537 543
f 496 543 542
f 497 542 498
f 498 544 538
f 498 542 544
f 499 506 504
f 500 545 501
f 500 541 546
f 500 546 545
f 501 545 502
f 502 545 503
f 503 545 547
f 503 547 548
f 503 548 511
f 503 510 549
f 503 549 507
f 503 507 504
f 507 549 508
f 508 549 509
f 509 549 510
f 511 548 512
f 512 546 550
f 512 550 551
f 512 551 552
f 512 552 553
f 512 553 514
f 512 548 547
f 512 547 545
f 512 545 546
f 514 553 515
f 515 553 552
f 515 552 554
f 515 554 555
f 515 555 517
f 515 517 520
f 515 520 516
f 517 555 556
f 517 556 522
f 522 556 557
f 522 557 524
f 522 524 558
f 522 558 523
f 523 558 524
f 524 557 556
f 524 556 527
f 524 527 525
f 525 527 530
f 525 530 526
f 527 556 559
f 527 559 528
f 528 559 535
f 528 535 534
f 528 534 533
f 528 533 529
f 529 533 531
f 535 559 560
f 535 560 536
f 536 560 537
f 537 560 561
f 537 561 543
f 538 544 562
f 538 562 539
f 539 551 563
f 539 563 540
f 539 562 551
f 540 563 541
f 541 563 546
f 542 543 544
f 543 555 554
f 543 554 552
f 543 552 544
f 543 561 555
f 544 552 562
f 546 563 550
f 550 563 551
f 551 562 552
f 555 561 560
f 555 560 556
f 556 560 559

