# https://github.com/mikedh/trimesh
v 0.04845810 -0.00052241 -0.01876116 0.43529412 0.89019608 0.96078431
v 0.04845810 -0.00269185 -0.01851191 0.43529412 0.89019608 0.96078431
v 0.04629032 -0.00269185 -0.01819722 0.43529412 0.89019608 0.96078431
v 0.04629032 -0.00052241 -0.01841532 0.43529412 0.89019608 0.96078431
v 0.02633883 0.00164392 -0.01520923 0.43529412 0.89019608 0.96078431
v 0.04845810 0.00164392 -0.01872066 0.43529412 0.89019608 0.96078431
v 0.05062947 0.00164392 -0.01850256 0.43529412 0.89019608 0.96078431
v 0.05062947 -0.00052241 -0.01848075 0.43529412 0.89019608 0.96078431
v 0.05062947 -0.00269185 -0.01834366 0.43529412 0.89019608 0.96078431
v 0.04845810 -0.00486130 -0.01807882 0.43529412 0.89019608 0.96078431
v 0.04615034 -0.00499825 -0.01771739 0.43529412 0.89019608 0.96078431
v 0.05062947 -0.00486130 -0.01794484 0.43529412 0.89019608 0.96078431
v 0.02633883 -0.00486130 -0.01459855 0.43529412 0.89019608 0.96078431
v 0.02633883 -0.00444733 -0.01467021 0.43529412 0.89019608 0.96078431
v 0.02633883 -0.00269185 -0.01490077 0.43529412 0.89019608 0.96078431
v 0.02633883 -0.00224676 -0.01494439 0.43529412 0.89019608 0.96078431
v 0.02633883 -0.00012712 -0.01514380 0.43529412 0.89019608 0.96078431
v 0.02633883 0.00240027 -0.01518742 0.43529412 0.89019608 0.96078431
v 0.04845810 0.00381648 -0.01833742 0.43529412 0.89019608 0.96078431
v 0.05062947 0.00381648 -0.01819099 0.43529412 0.89019608 0.96078431
v 0.02633883 0.00345231 -0.01514380 0.43529412 0.89019608 0.96078431
v 0.02633883 0.00389118 -0.01510641 0.43529412 0.89019608 0.96078431
v 0.05205073 0.00381648 -0.01761146 0.43529412 0.89019608 0.96078431
v 0.05233426 0.00164392 -0.01779217 0.43529412 0.89019608 0.96078431
v 0.05234862 -0.00052241 -0.01779217 0.43529412 0.89019608 0.96078431
v 0.05229478 -0.00269185 -0.01776725 0.43529412 0.89019608 0.96078431
v 0.05197895 -0.00486130 -0.01757095 0.43529412 0.89019608 0.96078431
v 0.04845810 -0.00635221 -0.01761146 0.43529412 0.89019608 0.96078431
v 0.04678202 -0.00617168 -0.01752110 0.43529412 0.89019608 0.96078431
v 0.05172054 -0.00595691 -0.01740271 0.43529412 0.89019608 0.96078431
v 0.05062947 -0.00619035 -0.01752110 0.43529412 0.89019608 0.96078431
v 0.02633883 -0.00661055 -0.01410938 0.43529412 0.89019608 0.96078431
v 0.04862678 0.00599837 -0.01767377 0.43529412 0.89019608 0.96078431
v 0.04946303 0.00709710 -0.01741205 0.43529412 0.89019608 0.96078431
v 0.04958865 0.00709710 -0.01741205 0.43529412 0.89019608 0.96078431
v 0.02633883 0.00595479 -0.01465775 0.43529412 0.89019608 0.96078431
v 0.05043925 0.00579917 -0.01760523 0.43529412 0.89019608 0.96078431
v 0.05174925 0.00495255 -0.01741828 0.43529412 0.89019608 0.96078431
v 0.05313462 0.00381648 -0.01691354 0.43529412 0.89019608 0.96078431
v 0.05609558 0.00283602 -0.01525908 0.43529412 0.89019608 0.96078431
v 0.05342174 0.00164392 -0.01708802 0.43529412 0.89019608 0.96078431
v 0.05496862 -0.00052241 -0.01613149 0.43529412 0.89019608 0.96078431
v 0.05343251 -0.00052241 -0.01710671 0.43529412 0.89019608 0.96078431
v 0.05617813 -0.00208491 -0.01532763 0.43529412 0.89019608 0.96078431
v 0.05338226 -0.00269185 -0.01706309 0.43529412 0.89019608 0.96078431
v 0.05514089 -0.00276344 -0.01588846 0.43529412 0.89019608 0.96078431
v 0.05597714 -0.00353224 -0.01516873 0.43529412 0.89019608 0.96078431
v 0.05306284 -0.00486130 -0.01680449 0.43529412 0.89019608 0.96078431
v 0.05062947 -0.00727663 -0.01696027 0.43529412 0.89019608 0.96078431
v 0.04988654 -0.01042030 -0.01533698 0.43529412 0.89019608 0.96078431
v 0.04914002 -0.01042030 -0.01533698 0.43529412 0.89019608 0.96078431
v 0.04845810 -0.00743537 -0.01699143 0.43529412 0.89019608 0.96078431
v 0.02633883 -0.00846874 -0.01331798 0.43529412 0.89019608 0.96078431
v 0.02633883 -0.00818861 -0.01345196 0.43529412 0.89019608 0.96078431
v 0.02633883 -0.00703385 -0.01398163 0.43529412 0.89019608 0.96078431
v 0.05455947 -0.00486130 -0.01572021 0.43529412 0.89019608 0.96078431
v 0.05413955 -0.00632108 -0.01542733 0.43529412 0.89019608 0.96078431
v 0.05267522 -0.00686266 -0.01622184 0.43529412 0.89019608 0.96078431
v 0.05217993 -0.00863370 -0.01557377 0.43529412 0.89019608 0.96078431
v 0.05133292 -0.01007792 -0.01507526 0.43529412 0.89019608 0.96078431
v 0.05061870 -0.00929356 -0.01581057 0.43529412 0.89019608 0.96078431
v 0.04845810 0.00965561 -0.01556131 0.43529412 0.89019608 0.96078431
v 0.02633883 0.00789391 -0.01366071 0.43529412 0.89019608 0.96078431
v 0.05062947 0.00957779 -0.01550834 0.43529412 0.89019608 0.96078431
v 0.05182462 0.00934435 -0.01531205 0.43529412 0.89019608 0.96078431
v 0.05103503 0.00639989 -0.01712541 0.43529412 0.89019608 0.96078431
v 0.05231273 0.00815536 -0.01562986 0.43529412 0.89019608 0.96078431
v 0.05280084 0.00598592 -0.01631843 0.43529412 0.89019608 0.96078431
v 0.05432977 0.00556884 -0.01551457 0.43529412 0.89019608 0.96078431
v 0.05501887 0.00366085 -0.01572644 0.43529412 0.89019608 0.96078431
v 0.05618531 -0.00052241 -0.01533698 0.43529412 0.89019608 0.96078431
v 0.05496862 0.00164392 -0.01605983 0.43529412 0.89019608 0.96078431
v 0.05577615 0.00428336 -0.01500359 0.43529412 0.89019608 0.96078431
v 0.06300449 0.00222285 -0.00765670 0.43529412 0.89019608 0.96078431
v 0.06300449 0.00164392 -0.00786545 0.43529412 0.89019608 0.96078431
v 0.06300449 0.00026506 -0.00802124 0.43529412 0.89019608 0.96078431
v 0.06300449 -0.00052241 -0.00808356 0.43529412 0.89019608 0.96078431
v 0.05715794 -0.00267940 -0.01413742 0.43529412 0.89019608 0.96078431
v 0.05826336 -0.00182657 -0.01310611 0.43529412 0.89019608 0.96078431
v 0.05564336 -0.00486130 -0.01489454 0.43529412 0.89019608 0.96078431
v 0.05813774 -0.00327390 -0.01291917 0.43529412 0.89019608 0.96078431
v 0.05678827 -0.00486130 -0.01381027 0.43529412 0.89019608 0.96078431
v 0.04988654 -0.01256796 -0.01317777 0.43529412 0.89019608 0.96078431
v 0.05061152 -0.01136963 -0.01412496 0.43529412 0.89019608 0.96078431
v 0.04915796 -0.01256796 -0.01317777 0.43529412 0.89019608 0.96078431
v 0.02633883 -0.01065686 -0.01128964 0.43529412 0.89019608 0.96078431
v 0.02633883 -0.00955502 -0.01237703 0.43529412 0.89019608 0.96078431
v 0.05639347 -0.00657009 -0.01339276 0.43529412 0.89019608 0.96078431
v 0.05598432 -0.00801742 -0.01299395 0.43529412 0.89019608 0.96078431
v 0.05362632 -0.00776841 -0.01502229 0.43529412 0.89019608 0.96078431
v 0.05300541 -0.00943051 -0.01432436 0.43529412 0.89019608 0.96078431
v 0.05238451 -0.01087162 -0.01362956 0.43529412 0.89019608 0.96078431
v 0.05133292 -0.01231895 -0.01287866 0.43529412 0.89019608 0.96078431
v 0.04845810 0.01073877 -0.01465463 0.43529412 0.89019608 0.96078431
v 0.02633883 0.00810556 -0.01349869 0.43529412 0.89019608 0.96078431
v 0.02633883 0.00898019 -0.01282881 0.43529412 0.89019608 0.96078431
v 0.05062947 0.01066407 -0.01452065 0.43529412 0.89019608 0.96078431
v 0.05384884 0.00701617 -0.01519988 0.43529412 0.89019608 0.96078431
v 0.05062947 0.01178770 -0.01343638 0.43529412 0.89019608 0.96078431
v 0.05183898 0.01152314 -0.01317154 0.43529412 0.89019608 0.96078431
v 0.05255678 0.01009759 -0.01391620 0.43529412 0.89019608 0.96078431
v 0.05405700 0.00940038 -0.01321205 0.43529412 0.89019608 0.96078431
v 0.05613506 0.00717802 -0.01313727 0.43529412 0.89019608 0.96078431
v 0.05642577 0.00598592 -0.01349246 0.43529412 0.89019608 0.96078431
v 0.05501887 0.00616956 -0.01469202 0.43529412 0.89019608 0.96078431
v 0.06300449 0.00329046 -0.00708341 0.43529412 0.89019608 0.96078431
v 0.06300449 -0.00249888 -0.00733266 0.43529412 0.89019608 0.96078431
v 0.05787216 -0.00486130 -0.01254528 0.43529412 0.89019608 0.96078431
v 0.05061870 -0.01310332 -0.01208104 0.43529412 0.89019608 0.96078431
v 0.05023826 -0.01484323 -0.00916471 0.43529412 0.89019608 0.96078431
v 0.04885648 -0.01484323 -0.00916471 0.43529412 0.89019608 0.96078431
v 0.04844374 -0.01310020 -0.01210908 0.43529412 0.89019608 0.96078431
v 0.02633883 -0.01202638 -0.00932362 0.43529412 0.89019608 0.96078431
v 0.02633883 -0.01178982 -0.00966323 0.43529412 0.89019608 0.96078431
v 0.05722613 -0.00713657 -0.01202807 0.43529412 0.89019608 0.96078431
v 0.05599509 -0.01022732 -0.01081605 0.43529412 0.89019608 0.96078431
v 0.05526651 -0.00950521 -0.01227421 0.43529412 0.89019608 0.96078431
v 0.05383448 -0.01023044 -0.01300329 0.43529412 0.89019608 0.96078431
v 0.05453794 -0.00878310 -0.01357659 0.43529412 0.89019608 0.96078431
v 0.05805520 -0.00769994 -0.01051071 0.43529412 0.89019608 0.96078431
v 0.05660881 -0.00877999 -0.01154513 0.43529412 0.89019608 0.96078431
v 0.05303772 -0.01158751 -0.01221813 0.43529412 0.89019608 0.96078431
v 0.05224454 -0.01283564 -0.01143297 0.43529412 0.89019608 0.96078431
v 0.04845810 0.01190598 -0.01357036 0.43529412 0.89019608 0.96078431
v 0.02633883 0.00998865 -0.01174454 0.43529412 0.89019608 0.96078431
v 0.05002651 0.01375794 -0.01117436 0.43529412 0.89019608 0.96078431
v 0.05070125 0.01294557 -0.01192837 0.43529412 0.89019608 0.96078431
v 0.05147289 0.01346848 -0.01068207 0.43529412 0.89019608 0.96078431
v 0.05265728 0.01188108 -0.01180685 0.43529412 0.89019608 0.96078431
v 0.05396369 0.01147022 -0.01097184 0.43529412 0.89019608 0.96078431
v 0.05619248 0.00939104 -0.01105908 0.43529412 0.89019608 0.96078431
v 0.05550339 0.00862536 -0.01250478 0.43529412 0.89019608 0.96078431
v 0.05655498 0.00800285 -0.01185671 0.43529412 0.89019608 0.96078431
v 0.06300449 0.00426157 -0.00546323 0.43529412 0.89019608 0.96078431
v 0.05655139 0.00982057 -0.00980344 0.43529412 0.89019608 0.96078431
v 0.06300449 -0.00326456 -0.00656619 0.43529412 0.89019608 0.96078431
v 0.05083045 -0.01433277 -0.00985329 0.43529412 0.89019608 0.96078431
v 0.05168465 -0.01461601 -0.00869112 0.43529412 0.89019608 0.96078431
v 0.05083045 -0.01514515 -0.00783430 0.43529412 0.89019608 0.96078431
v 0.05062947 -0.01576766 -0.00546323 0.43529412 0.89019608 0.96078431
v 0.04826429 -0.01511713 -0.00782495 0.43529412 0.89019608 0.96078431
v 0.02633883 -0.01251505 -0.00763177 0.43529412 0.89019608 0.96078431
v 0.05454511 -0.01085606 -0.01155759 0.43529412 0.89019608 0.96078431
v 0.05729073 -0.00931224 -0.00994053 0.43529412 0.89019608 0.96078431
v 0.05652268 -0.01071599 -0.00937035 0.43529412 0.89019608 0.96078431
v 0.05369092 -0.01230339 -0.01061976 0.43529412 0.89019608 0.96078431
v 0.05835309 -0.00839715 -0.00906501 0.43529412 0.89019608 0.96078431
v 0.05290133 -0.01324649 -0.00985952 0.43529412 0.89019608 0.96078431
v 0.04845810 0.01299226 -0.01225552 0.43529412 0.89019608 0.96078431
v 0.02633883 0.01107493 -0.01033000 0.43529412 0.89019608 0.96078431
v 0.05062947 0.01502163 -0.00763177 0.43529412 0.89019608 0.96078431
v 0.05070125 0.01413767 -0.00989691 0.43529412 0.89019608 0.96078431
v 0.04845810 0.01375483 -0.01117124 0.43529412 0.89019608 0.96078431
v 0.04845810 0.01439913 -0.00980344 0.43529412 0.89019608 0.96078431
v 0.05208662 0.01382953 -0.00923638 0.43529412 0.89019608 0.96078431
v 0.05280802 0.01295491 -0.00989691 0.43529412 0.89019608 0.96078431
v 0.05439078 0.01180015 -0.00980344 0.43529412 0.89019608 0.96078431
v 0.05593048 0.01131148 -0.00851976 0.43529412 0.89019608 0.96078431
v 0.05547826 0.01090685 -0.00980344 0.43529412 0.89019608 0.96078431
v 0.06300449 0.00475024 -0.00329156 0.43529412 0.89019608 0.96078431
v 0.05630374 0.01164452 -0.00707406 0.43529412 0.89019608 0.96078431
v 0.05654421 0.01184995 -0.00546323 0.43529412 0.89019608 0.96078431
v 0.06300449 -0.00434462 -0.00513296 0.43529412 0.89019608 0.96078431
v 0.05212251 -0.01485879 -0.00724231 0.43529412 0.89019608 0.96078431
v 0.05420774 -0.01268624 -0.00917406 0.43529412 0.89019608 0.96078431
v 0.05282596 -0.01419582 -0.00783430 0.43529412 0.89019608 0.96078431
v 0.05062947 -0.01596686 -0.00329156 0.43529412 0.89019608 0.96078431
v 0.04845810 -0.01562448 -0.00546323 0.43529412 0.89019608 0.96078431
v 0.05247783 -0.01508912 -0.00546323 0.43529412 0.89019608 0.96078431
v 0.02633883 -0.01272670 -0.00546323 0.43529412 0.89019608 0.96078431
v 0.05800495 -0.00991296 -0.00763177 0.43529412 0.89019608 0.96078431
v 0.05692106 -0.01112996 -0.00763177 0.43529412 0.89019608 0.96078431
v 0.05572232 -0.01221313 -0.00763177 0.43529412 0.89019608 0.96078431
v 0.02633883 0.01168187 -0.00924572 0.43529412 0.89019608 0.96078431
v 0.04845810 0.01515236 -0.00763177 0.43529412 0.89019608 0.96078431
v 0.04972144 0.01580288 -0.00498340 0.43529412 0.89019608 0.96078431
v 0.05051821 0.01546984 -0.00560967 0.43529412 0.89019608 0.96078431
v 0.05251013 0.01410966 -0.00763177 0.43529412 0.89019608 0.96078431
v 0.02633883 0.01239465 -0.00763177 0.43529412 0.89019608 0.96078431
v 0.05359761 0.01336576 -0.00763177 0.43529412 0.89019608 0.96078431
v 0.05511218 0.01224525 -0.00773148 0.43529412 0.89019608 0.96078431
v 0.06300449 0.00463819 -0.00235061 0.43529412 0.89019608 0.96078431
v 0.05667342 0.01194022 -0.00329156 0.43529412 0.89019608 0.96078431
v 0.05772859 0.01069520 -0.00112613 0.43529412 0.89019608 0.96078431
v 0.05385243 0.01355874 -0.00643845 0.43529412 0.89019608 0.96078431
v 0.05486095 0.01305139 -0.00561278 0.43529412 0.89019608 0.96078431
v 0.05406777 0.01370503 -0.00498964 0.43529412 0.89019608 0.96078431
v 0.05526651 0.01302338 -0.00329156 0.43529412 0.89019608 0.96078431
v 0.06300449 -0.00466521 -0.00393340 0.43529412 0.89019608 0.96078431
v 0.05818799 -0.01022732 -0.00633563 0.43529412 0.89019608 0.96078431
v 0.05356531 -0.01441370 -0.00546323 0.43529412 0.89019608 0.96078431
v 0.05463843 -0.01301305 -0.00763177 0.43529412 0.89019608 0.96078431
v 0.05260703 -0.01518872 -0.00329156 0.43529412 0.89019608 0.96078431
v 0.05062947 -0.01588904 -0.00112613 0.43529412 0.89019608 0.96078431
v 0.04845810 -0.01577077 -0.00112613 0.43529412 0.89019608 0.96078431
v 0.04845810 -0.01578944 -0.00329156 0.43529412 0.89019608 0.96078431
v 0.02633883 -0.01283252 -0.00392094 0.43529412 0.89019608 0.96078431
v 0.05629298 -0.01263955 -0.00500521 0.43529412 0.89019608 0.96078431
v 0.05601662 -0.01242478 -0.00645091 0.43529412 0.89019608 0.96078431
v 0.04936254 0.01580288 -0.00498340 0.43529412 0.89019608 0.96078431
v 0.02633883 0.01250981 -0.00721115 0.43529412 0.89019608 0.96078431
v 0.02633883 0.01292689 -0.00546323 0.43529412 0.89019608 0.96078431
v 0.04984706 0.01583090 -0.00329156 0.43529412 0.89019608 0.96078431
v 0.05093095 0.01550408 -0.00329156 0.43529412 0.89019608 0.96078431
v 0.05280084 0.01462946 -0.00329156 0.43529412 0.89019608 0.96078431
v 0.05299824 0.01424661 -0.00561278 0.43529412 0.89019608 0.96078431
v 0.06300449 0.00429269 -0.00112613 0.43529412 0.89019608 0.96078431
v 0.05645090 0.01173479 0.00104553 0.43529412 0.89019608 0.96078431
v 0.05764964 0.01023765 0.00113901 0.43529412 0.89019608 0.96078431
v 0.05664111 0.01189042 -0.00112613 0.43529412 0.89019608 0.96078431
v 0.05418262 0.01378907 -0.00329156 0.43529412 0.89019608 0.96078431
v 0.05412878 0.01375483 -0.00112613 0.43529412 0.89019608 0.96078431
v 0.05521268 0.01297669 -0.00112613 0.43529412 0.89019608 0.96078431
v 0.06300449 -0.00479594 -0.00329156 0.43529412 0.89019608 0.96078431
v 0.05830284 -0.01041408 -0.00488993 0.43529412 0.89019608 0.96078431
v 0.05369451 -0.01450085 -0.00329156 0.43529412 0.89019608 0.96078431
v 0.05516243 -0.01326517 -0.00562213 0.43529412 0.89019608 0.96078431
v 0.05360837 -0.01444171 -0.00112613 0.43529412 0.89019608 0.96078431
v 0.05252089 -0.01512647 -0.00112613 0.43529412 0.89019608 0.96078431
v 0.05225172 -0.01495839 0.00104553 0.43529412 0.89019608 0.96078431
v 0.05062947 -0.01557156 0.00104553 0.43529412 0.89019608 0.96078431
v 0.04845810 -0.01552176 0.00104553 0.43529412 0.89019608 0.96078431
v 0.02633883 -0.01282630 0.00331690 0.43529412 0.89019608 0.96078431
v 0.02633883 -0.01288544 0.00276230 0.43529412 0.89019608 0.96078431
v 0.02633883 -0.01300683 0.00104553 0.43529412 0.89019608 0.96078431
v 0.02633883 -0.01300371 0.00062180 0.43529412 0.89019608 0.96078431
v 0.02633883 -0.01298815 -0.00112613 0.43529412 0.89019608 0.96078431
v 0.02633883 -0.01297259 -0.00154675 0.43529412 0.89019608 0.96078431
v 0.02633883 -0.01286988 -0.00336322 0.43529412 0.89019608 0.96078431
v 0.05744147 -0.01151592 -0.00329156 0.43529412 0.89019608 0.96078431
v 0.05635758 -0.01269246 -0.00329156 0.43529412 0.89019608 0.96078431
v 0.05496862 -0.01365424 -0.00329156 0.43529412 0.89019608 0.96078431
v 0.04926922 0.01583090 -0.00329156 0.43529412 0.89019608 0.96078431
v 0.02633883 0.01295491 -0.00503949 0.43529412 0.89019608 0.96078431
v 0.02633883 0.01302650 -0.00329156 0.43529412 0.89019608 0.96078431
v 0.04987218 0.01582778 -0.00112613 0.43529412 0.89019608 0.96078431
v 0.05095966 0.01553209 -0.00112613 0.43529412 0.89019608 0.96078431
v 0.05280084 0.01462012 -0.00112613 0.43529412 0.89019608 0.96078431
v 0.06300449 0.00400634 -0.00043132 0.43529412 0.89019608 0.96078431
v 0.05481788 0.01289888 0.00099880 0.43529412 0.89019608 0.96078431
v 0.05622479 0.01155115 0.00238530 0.43529412 0.89019608 0.96078431
v 0.05399599 0.01365523 0.00024168 0.43529412 0.89019608 0.96078431
v 0.06300449 -0.00444422 -0.00124141 0.43529412 0.89019608 0.96078431
v 0.05821670 -0.01027090 -0.00016960 0.43529412 0.89019608 0.96078431
v 0.05333561 -0.01424873 0.00104553 0.43529412 0.89019608 0.96078431
v 0.05496862 -0.01350795 -0.00112613 0.43529412 0.89019608 0.96078431
v 0.05613865 -0.01252438 0.00017001 0.43529412 0.89019608 0.96078431
v 0.05193229 -0.01476541 0.00255355 0.43529412 0.89019608 0.96078431
v 0.05056845 -0.01494905 0.00325147 0.43529412 0.89019608 0.96078431
v 0.04980399 -0.01467826 0.00438248 0.43529412 0.89019608 0.96078431
v 0.04935177 -0.01467826 0.00438248 0.43529412 0.89019608 0.96078431
v 0.04856218 -0.01495217 0.00321720 0.43529412 0.89019608 0.96078431
v 0.02633883 -0.01257730 0.00452892 0.43529412 0.89019608 0.96078431
v 0.05749890 -0.01119221 -0.00098592 0.43529412 0.89019608 0.96078431
v 0.05623914 -0.01260842 -0.00112613 0.43529412 0.89019608 0.96078431
v 0.04927999 0.01582778 -0.00112613 0.43529412 0.89019608 0.96078431
v 0.02633883 0.01302961 -0.00287094 0.43529412 0.89019608 0.96078431
v 0.02633883 0.01303272 -0.00112613 0.43529412 0.89019608 0.96078431
v 0.04975733 0.01580288 0.00020117 0.43529412 0.89019608 0.96078431
v 0.05053974 0.01537646 0.00097076 0.43529412 0.89019608 0.96078431
v 0.05290851 0.01418436 0.00099880 0.43529412 0.89019608 0.96078431
v 0.06300449 0.00334648 0.00052521 0.43529412 0.89019608 0.96078431
v 0.05796188 0.00881522 0.00321408 0.43529412 0.89019608 0.96078431
v 0.05370528 0.01346225 0.00169049 0.43529412 0.89019608 0.96078431
v 0.05424722 0.01172545 0.00474702 0.43529412 0.89019608 0.96078431
v 0.05569361 0.01108427 0.00383411 0.43529412 0.89019608 0.96078431
v 0.05647243 0.00963693 0.00480622 0.43529412 0.89019608 0.96078431
v 0.05681339 0.01034659 0.00315177 0.43529412 0.89019608 0.96078431
v 0.05229120 0.01395403 0.00321408 0.43529412 0.89019608 0.96078431
v 0.05194306 0.01371748 0.00455073 0.43529412 0.89019608 0.96078431
v 0.06300449 -0.00401780 -0.00053726 0.43529412 0.89019608 0.96078431
v 0.05823106 -0.00812636 0.00431082 0.43529412 0.89019608 0.96078431
v 0.05766758 -0.00956435 0.00321408 0.43529412 0.89019608 0.96078431
v 0.05809468 -0.01008726 0.00104553 0.43529412 0.89019608 0.96078431
v 0.05504758 -0.01306285 0.00095206 0.43529412 0.89019608 0.96078431
v 0.05582281 -0.01226604 0.00161571 0.43529412 0.89019608 0.96078431
v 0.05686722 -0.01147546 0.00095206 0.43529412 0.89019608 0.96078431
v 0.05125037 -0.01451019 0.00400236 0.43529412 0.89019608 0.96078431
v 0.05271470 -0.01393748 0.00325147 0.43529412 0.89019608 0.96078431
v 0.05056845 -0.01389079 0.00521750 0.43529412 0.89019608 0.96078431
v 0.05062947 -0.01270802 0.00682210 0.43529412 0.89019608 0.96078431
v 0.05062947 -0.01187075 0.00790637 0.43529412 0.89019608 0.96078431
v 0.04845810 -0.01269868 0.00680652 0.43529412 0.89019608 0.96078431
v 0.02633883 -0.01089963 0.00722403 0.43529412 0.89019608 0.96078431
v 0.02633883 -0.01111129 0.00693738 0.43529412 0.89019608 0.96078431
v 0.02633883 -0.01206373 0.00545429 0.43529412 0.89019608 0.96078431
v 0.02633883 -0.01222247 0.00517699 0.43529412 0.89019608 0.96078431
v 0.02633883 -0.01257107 0.00454450 0.43529412 0.89019608 0.96078431
v 0.04937330 0.01580288 0.00020117 0.43529412 0.89019608 0.96078431
v 0.02633883 0.01301716 -0.00070239 0.43529412 0.89019608 0.96078431
v 0.04845810 0.01469171 0.00321408 0.43529412 0.89019608 0.96078431
v 0.05062947 0.01464813 0.00321408 0.43529412 0.89019608 0.96078431
v 0.06300449 0.00164392 0.00132907 0.43529412 0.89019608 0.96078431
v 0.05833514 0.00731498 0.00450711 0.43529412 0.89019608 0.96078431
v 0.05794753 0.00598592 0.00605875 0.43529412 0.89019608 0.96078431
v 0.05820594 0.00484984 0.00643575 0.43529412 0.89019608 0.96078431
v 0.05845358 0.00340251 0.00683456 0.43529412 0.89019608 0.96078431
v 0.05280084 0.01249114 0.00537328 0.43529412 0.89019608 0.96078431
v 0.05221583 0.01181260 0.00705266 0.43529412 0.89019608 0.96078431
v 0.05366221 0.01120566 0.00619584 0.43529412 0.89019608 0.96078431
v 0.05587306 0.00902376 0.00625192 0.43529412 0.89019608 0.96078431
v 0.05717229 0.00816781 0.00537952 0.43529412 0.89019608 0.96078431
v 0.05062947 0.01391357 0.00490592 0.43529412 0.89019608 0.96078431
v 0.05062947 0.01325371 0.00599020 0.43529412 0.89019608 0.96078431
v 0.06300449 -0.00262338 0.00077758 0.43529412 0.89019608 0.96078431
v 0.05848947 -0.00703385 0.00477195 0.43529412 0.89019608 0.96078431
v 0.05816287 -0.00575149 0.00636720 0.43529412 0.89019608 0.96078431
v 0.05780755 -0.00703385 0.00585934 0.43529412 0.89019608 0.96078431
v 0.05628580 -0.00836291 0.00671305 0.43529412 0.89019608 0.96078431
v 0.05696772 -0.00896986 0.00512091 0.43529412 0.89019608 0.96078431
v 0.05619966 -0.01042653 0.00448219 0.43529412 0.89019608 0.96078431
v 0.05658369 -0.01079070 0.00321408 0.43529412 0.89019608 0.96078431
v 0.05538136 -0.01187697 0.00321408 0.43529412 0.89019608 0.96078431
v 0.05429747 -0.01277027 0.00321408 0.43529412 0.89019608 0.96078431
v 0.05394215 -0.01250259 0.00437313 0.43529412 0.89019608 0.96078431
v 0.05263933 -0.01288855 0.00521127 0.43529412 0.89019608 0.96078431
v 0.05181026 -0.01252438 0.00655726 0.43529412 0.89019608 0.96078431
v 0.05203637 -0.01052924 0.00885044 0.43529412 0.89019608 0.96078431
v 0.05062947 -0.01078447 0.00906854 0.43529412 0.89019608 0.96078431
v 0.02633883 -0.00993786 0.00830830 0.43529412 0.89019608 0.96078431
v 0.02633883 0.01294557 0.00104553 0.43529412 0.89019608 0.96078431
v 0.02633883 0.01254405 0.00321408 0.43529412 0.89019608 0.96078431
v 0.04845810 0.01391357 0.00489658 0.43529412 0.89019608 0.96078431
v 0.02633883 0.01181883 0.00514272 0.43529412 0.89019608 0.96078431
v 0.06300449 -0.00052241 0.00154717 0.43529412 0.89019608 0.96078431
v 0.05778602 0.00164392 0.00811824 0.43529412 0.89019608 0.96078431
v 0.05642577 0.00757643 0.00689065 0.43529412 0.89019608 0.96078431
v 0.05677032 0.00589565 0.00758857 0.43529412 0.89019608 0.96078431
v 0.05616736 0.00511129 0.00874451 0.43529412 0.89019608 0.96078431
v 0.05764605 0.00400323 0.00755741 0.43529412 0.89019608 0.96078431
v 0.05223377 0.00982057 0.00905919 0.43529412 0.89019608 0.96078431
v 0.05294799 0.01051467 0.00775059 0.43529412 0.89019608 0.96078431
v 0.05062947 0.01217054 0.00740162 0.43529412 0.89019608 0.96078431
v 0.05062947 0.01125857 0.00848590 0.43529412 0.89019608 0.96078431
v 0.05442667 0.00975832 0.00700593 0.43529412 0.89019608 0.96078431
v 0.05368015 0.00900197 0.00845163 0.43529412 0.89019608 0.96078431
v 0.05507988 0.00828920 0.00766958 0.43529412 0.89019608 0.96078431
v 0.04845810 0.01328484 0.00598397 0.43529412 0.89019608 0.96078431
v 0.06300449 -0.00141882 0.00125429 0.43529412 0.89019608 0.96078431
v 0.05838180 -0.00430415 0.00673797 0.43529412 0.89019608 0.96078431
v 0.05754555 -0.00496090 0.00749821 0.43529412 0.89019608 0.96078431
v 0.05607046 -0.00596936 0.00865415 0.43529412 0.89019608 0.96078431
v 0.05659805 -0.00682843 0.00748263 0.43529412 0.89019608 0.96078431
v 0.05416109 -0.01054792 0.00679094 0.43529412 0.89019608 0.96078431
v 0.05560747 -0.00981024 0.00592788 0.43529412 0.89019608 0.96078431
v 0.05556081 -0.00741670 0.00815875 0.43529412 0.89019608 0.96078431
v 0.05411084 -0.00839092 0.00881617 0.43529412 0.89019608 0.96078431
v 0.05348276 -0.00983826 0.00823976 0.43529412 0.89019608 0.96078431
v 0.05477481 -0.01121089 0.00514895 0.43529412 0.89019608 0.96078431
v 0.05325665 -0.01199525 0.00581883 0.43529412 0.89019608 0.96078431
v 0.05264651 -0.01126380 0.00739851 0.43529412 0.89019608 0.96078431
v 0.05141906 -0.00794894 0.01071676 0.43529412 0.89019608 0.96078431
v 0.05066895 -0.00910992 0.01022759 0.43529412 0.89019608 0.96078431
v 0.05277572 -0.00915038 0.00924925 0.43529412 0.89019608 0.96078431
v 0.04997267 -0.00832556 0.01093175 0.43529412 0.89019608 0.96078431
v 0.04927281 -0.00832556 0.01093175 0.43529412 0.89019608 0.96078431
v 0.02633883 -0.00906323 0.00899376 0.43529412 0.89019608 0.96078431
v 0.02633883 0.01127724 0.00622699 0.43529412 0.89019608 0.96078431
v 0.05784344 -0.00052241 0.00815563 0.43529412 0.89019608 0.96078431
v 0.05776090 -0.00269185 0.00806528 0.43529412 0.89019608 0.96078431
v 0.05856125 -0.00269185 0.00698100 0.43529412 0.89019608 0.96078431
v 0.05643295 0.00381648 0.00894080 0.43529412 0.89019608 0.96078431
v 0.05670213 0.00164392 0.00918694 0.43529412 0.89019608 0.96078431
v 0.05675596 -0.00052241 0.00926795 0.43529412 0.89019608 0.96078431
v 0.05573668 0.00655863 0.00833634 0.43529412 0.89019608 0.96078431
v 0.05499733 0.00589565 0.00929911 0.43529412 0.89019608 0.96078431
v 0.05380936 0.00473779 0.01076038 0.43529412 0.89019608 0.96078431
v 0.05409648 0.00329357 0.01099095 0.43529412 0.89019608 0.96078431
v 0.05276495 0.00812735 0.00973219 0.43529412 0.89019608 0.96078431
v 0.05429029 0.00755775 0.00895949 0.43529412 0.89019608 0.96078431
v 0.05062947 0.01017229 0.00939881 0.43529412 0.89019608 0.96078431
v 0.05062947 0.00865959 0.01048308 0.43529412 0.89019608 0.96078431
v 0.05185333 0.00724961 0.01089747 0.43529412 0.89019608 0.96078431
v 0.04845810 0.01220167 0.00736112 0.43529412 0.89019608 0.96078431
v 0.04845810 0.01116208 0.00844540 0.43529412 0.89019608 0.96078431
v 0.02633883 0.01026567 0.00755430 0.43529412 0.89019608 0.96078431
v 0.05633963 -0.00486130 0.00888160 0.43529412 0.89019608 0.96078431
v 0.05488966 -0.00682843 0.00909347 0.43529412 0.89019608 0.96078431
v 0.05408213 -0.00414541 0.01096290 0.43529412 0.89019608 0.96078431
v 0.05365862 -0.00558963 0.01065133 0.43529412 0.89019608 0.96078431
v 0.05287980 -0.00714902 0.01033041 0.43529412 0.89019608 0.96078431
v 0.05066895 -0.00714902 0.01130875 0.43529412 0.89019608 0.96078431
v 0.05221224 -0.00650161 0.01110623 0.43529412 0.89019608 0.96078431
v 0.05062947 -0.00486130 0.01227463 0.43529412 0.89019608 0.96078431
v 0.04845810 -0.00486130 0.01221543 0.43529412 0.89019608 0.96078431
v 0.02633883 -0.00699962 0.01011543 0.43529412 0.89019608 0.96078431
v 0.02633883 -0.00885158 0.00914643 0.43529412 0.89019608 0.96078431
v 0.05667700 -0.00269185 0.00917448 0.43529412 0.89019608 0.96078431
v 0.05537059 0.00164392 0.01027121 0.43529412 0.89019608 0.96078431
v 0.05545314 -0.00052241 0.01035222 0.43529412 0.89019608 0.96078431
v 0.05338944 0.00598592 0.01047062 0.43529412 0.89019608 0.96078431
v 0.05230196 0.00598592 0.01117477 0.43529412 0.89019608 0.96078431
v 0.05296952 0.00393475 0.01155178 0.43529412 0.89019608 0.96078431
v 0.05428670 0.00164392 0.01112492 0.43529412 0.89019608 0.96078431
v 0.05280084 0.00164392 0.01212196 0.43529412 0.89019608 0.96078431
v 0.02633883 0.00931634 0.00871335 0.43529412 0.89019608 0.96078431
v 0.02633883 0.00907668 0.00890341 0.43529412 0.89019608 0.96078431
v 0.02633883 0.00815536 0.00956706 0.43529412 0.89019608 0.96078431
v 0.02633883 0.00790013 0.00975089 0.43529412 0.89019608 0.96078431
v 0.04883136 0.00756087 0.01105326 0.43529412 0.89019608 0.96078431
v 0.05062947 0.00757332 0.01105638 0.43529412 0.89019608 0.96078431
v 0.02633883 0.00655863 0.01057967 0.43529412 0.89019608 0.96078431
v 0.05062947 0.00598592 0.01178234 0.43529412 0.89019608 0.96078431
v 0.05062947 0.00381648 0.01256439 0.43529412 0.89019608 0.96078431
v 0.02633883 0.01007269 0.00779421 0.43529412 0.89019608 0.96078431
v 0.05280084 -0.00269185 0.01205964 0.43529412 0.89019608 0.96078431
v 0.05287980 -0.00486441 0.01142715 0.43529412 0.89019608 0.96078431
v 0.05535983 -0.00269185 0.01025875 0.43529412 0.89019608 0.96078431
v 0.05427235 -0.00269185 0.01111246 0.43529412 0.89019608 0.96078431
v 0.05065818 -0.00267629 0.01283546 0.43529412 0.89019608 0.96078431
v 0.04995473 -0.00193862 0.01302552 0.43529412 0.89019608 0.96078431
v 0.04928717 -0.00193862 0.01302552 0.43529412 0.89019608 0.96078431
v 0.04852270 -0.00267629 0.01278872 0.43529412 0.89019608 0.96078431
v 0.02633883 -0.00524103 0.01056098 0.43529412 0.89019608 0.96078431
v 0.05436566 -0.00052241 0.01117789 0.43529412 0.89019608 0.96078431
v 0.05067254 0.00183378 0.01290712 0.43529412 0.89019608 0.96078431
v 0.05126114 -0.00052241 0.01291335 0.43529412 0.89019608 0.96078431
v 0.05280084 -0.00052241 0.01219673 0.43529412 0.89019608 0.96078431
v 0.02633883 0.00634697 0.01068560 0.43529412 0.89019608 0.96078431
v 0.02633883 0.00547235 0.01106572 0.43529412 0.89019608 0.96078431
v 0.04916873 0.00123618 0.01305045 0.43529412 0.89019608 0.96078431
v 0.04997626 0.00123618 0.01305045 0.43529412 0.89019608 0.96078431
v 0.02633883 0.00509262 0.01115920 0.43529412 0.89019608 0.96078431
v 0.05017725 -0.00052241 0.01306914 0.43529412 0.89019608 0.96078431
v 0.04906824 -0.00052241 0.01306914 0.43529412 0.89019608 0.96078431
v 0.02633883 0.00339317 0.01131187 0.43529412 0.89019608 0.96078431
v 0.02633883 0.00157544 0.01122463 0.43529412 0.89019608 0.96078431
v 0.02633883 0.00102141 0.01118101 0.43529412 0.89019608 0.96078431
v 0.02633883 -0.00052241 0.01104391 0.43529412 0.89019608 0.96078431
v 0.02633883 -0.00486130 0.01064510 0.43529412 0.89019608 0.96078431
v 0.02633883 0.00381648 0.01131810 0.43529412 0.89019608 0.96078431
f 1 2 3
f 1 3 4
f 1 4 5
f 1 5 6
f 1 6 7
f 1 7 8
f 1 8 9
f 1 9 2
f 2 10 11
f 2 11 3
f 2 9 12
f 2 12 10
f 3 11 13
f 3 13 14
f 3 14 15
f 3 15 4
f 4 15 16
f 4 16 17
f 4 17 5
f 5 17 16
f 5 16 15
f 5 15 14
f 5 14 13
f 5 13 32
f 5 32 55
f 5 55 54
f 5 54 53
f 5 53 87
f 5 87 86
f 5 86 114
f 5 114 113
f 5 113 142
f 5 142 170
f 5 170 197
f 5 197 229
f 5 229 228
f 5 228 227
f 5 227 226
f 5 226 225
f 5 225 224
f 5 224 223
f 5 223 253
f 5 253 288
f 5 288 287
f 5 287 286
f 5 286 285
f 5 285 284
f 5 284 320
f 5 320 357
f 5 357 387
f 5 387 386
f 5 386 414
f 5 414 430
f 5 430 429
f 5 429 428
f 5 428 427
f 5 427 426
f 5 426 431
f 5 431 423
f 5 423 420
f 5 420 419
f 5 419 402
f 5 402 399
f 5 399 398
f 5 398 397
f 5 397 396
f 5 396 405
f 5 405 376
f 5 376 358
f 5 358 324
f 5 324 322
f 5 322 321
f 5 321 290
f 5 290 258
f 5 258 257
f 5 257 235
f 5 235 234
f 5 234 202
f 5 202 201
f 5 201 179
f 5 179 174
f 5 174 150
f 5 150 125
f 5 125 96
f 5 96 95
f 5 95 63
f 5 63 36
f 5 36 22
f 5 22 21
f 5 21 18
f 5 18 6
f 6 19 20
f 6 20 7
f 6 18 21
f 6 21 22
f 6 22 19
f 7 20 23
f 7 23 24
f 7 24 25
f 7 25 8
f 8 25 26
f 8 26 9
f 9 26 27
f 9 27 12
f 10 28 29
f 10 29 11
f 10 12 28
f 11 29 13
f 12 27 30
f 12 30 31
f 12 31 28
f 13 29 32
f 19 33 34
f 19 34 35
f 19 35 20
f 19 22 36
f 19 36 33
f 20 35 37
f 20 37 38
f 20 38 23
f 23 38 39
f 23 39 40
f 23 40 24
f 24 41 42
f 24 42 43
f 24 43 25
f 24 40 41
f 25 43 26
f 26 43 44
f 26 44 45
f 26 45 27
f 27 45 46
f 27 46 47
f 27 47 48
f 27 48 30
f 28 31 49
f 28 49 50
f 28 50 51
f 28 51 52
f 28 52 29
f 29 52 51
f 29 51 53
f 29 53 54
f 29 54 55
f 29 55 32
f 30 48 47
f 30 47 56
f 30 56 57
f 30 57 58
f 30 58 59
f 30 59 60
f 30 60 61
f 30 61 49
f 30 49 31
f 33 36 34
f 34 62 35
f 34 36 63
f 34 63 62
f 35 62 64
f 35 64 65
f 35 65 66
f 35 66 37
f 37 66 38
f 38 66 67
f 38 67 68
f 38 68 69
f 38 69 39
f 39 69 70
f 39 70 40
f 40 71 72
f 40 72 41
f 40 70 73
f 40 73 74
f 40 74 75
f 40 75 76
f 40 76 77
f 40 77 71
f 41 72 71
f 41 71 42
f 42 71 44
f 42 44 43
f 44 78 47
f 44 47 46
f 44 46 45
f 44 71 77
f 44 77 79
f 44 79 78
f 47 80 56
f 47 78 81
f 47 81 82
f 47 82 80
f 49 61 50
f 50 83 85
f 50 85 51
f 50 61 60
f 50 60 84
f 50 84 83
f 51 85 86
f 51 86 87
f 51 87 53
f 56 80 57
f 57 80 88
f 57 88 89
f 57 89 90
f 57 90 58
f 58 90 59
f 59 90 89
f 59 89 91
f 59 91 60
f 60 91 92
f 60 92 93
f 60 93 84
f 62 94 64
f 62 63 95
f 62 95 96
f 62 96 94
f 64 97 65
f 64 94 97
f 65 98 67
f 65 67 66
f 65 97 99
f 65 99 100
f 65 100 101
f 65 101 102
f 65 102 103
f 65 103 98
f 67 98 68
f 68 98 69
f 69 73 70
f 69 98 73
f 73 103 104
f 73 104 74
f 73 98 105
f 73 105 103
f 74 106 134
f 74 134 160
f 74 160 182
f 74 182 207
f 74 207 239
f 74 239 262
f 74 262 293
f 74 293 325
f 74 325 339
f 74 339 305
f 74 305 271
f 74 271 243
f 74 243 214
f 74 214 189
f 74 189 163
f 74 163 136
f 74 136 107
f 74 107 77
f 74 77 76
f 74 76 75
f 74 104 106
f 77 107 81
f 77 81 79
f 78 79 81
f 80 82 88
f 81 108 82
f 81 107 108
f 82 108 88
f 83 84 93
f 83 93 109
f 83 109 110
f 83 110 111
f 83 111 85
f 85 111 112
f 85 112 113
f 85 113 114
f 85 114 86
f 88 108 115
f 88 115 89
f 89 116 117
f 89 117 118
f 89 118 119
f 89 119 91
f 89 115 120
f 89 120 121
f 89 121 116
f 91 118 92
f 91 119 118
f 92 118 122
f 92 122 93
f 93 122 123
f 93 123 109
f 94 124 97
f 94 96 124
f 96 125 124
f 97 124 99
f 98 103 105
f 99 124 126
f 99 126 127
f 99 127 100
f 100 102 101
f 100 127 128
f 100 128 129
f 100 129 130
f 100 130 131
f 100 131 102
f 102 131 132
f 102 132 103
f 103 132 131
f 103 131 133
f 103 133 106
f 103 106 104
f 106 133 131
f 106 131 135
f 106 135 134
f 107 136 120
f 107 120 115
f 107 115 108
f 109 123 137
f 109 137 110
f 110 137 138
f 110 138 139
f 110 139 140
f 110 140 111
f 111 140 141
f 111 141 142
f 111 142 113
f 111 113 112
f 116 143 118
f 116 118 117
f 116 121 144
f 116 144 145
f 116 145 146
f 116 146 143
f 118 143 122
f 120 144 121
f 120 136 147
f 120 147 144
f 122 143 146
f 122 146 123
f 123 146 148
f 123 148 138
f 123 138 137
f 124 149 126
f 124 125 149
f 125 150 149
f 126 151 152
f 126 152 128
f 126 128 127
f 126 149 153
f 126 153 154
f 126 154 151
f 128 155 156
f 128 156 130
f 128 130 129
f 128 152 155
f 130 156 157
f 130 157 158
f 130 158 159
f 130 159 131
f 131 159 158
f 131 158 135
f 134 135 158
f 134 158 161
f 134 161 162
f 134 162 160
f 136 163 147
f 138 164 139
f 138 148 165
f 138 165 166
f 138 166 164
f 139 164 140
f 140 167 168
f 140 168 141
f 140 164 169
f 140 169 167
f 141 168 142
f 142 168 170
f 144 147 171
f 144 171 145
f 145 171 172
f 145 172 173
f 145 173 165
f 145 165 146
f 146 165 148
f 147 163 171
f 149 150 153
f 150 174 153
f 151 154 175
f 151 175 176
f 151 176 177
f 151 177 178
f 151 178 155
f 151 155 152
f 153 174 154
f 154 174 179
f 154 179 175
f 155 178 180
f 155 180 181
f 155 181 158
f 155 158 156
f 156 158 157
f 158 181 161
f 160 162 183
f 160 183 184
f 160 184 182
f 161 181 180
f 161 180 185
f 161 185 186
f 161 186 162
f 162 186 187
f 162 187 188
f 162 188 183
f 163 189 190
f 163 190 171
f 164 166 191
f 164 191 169
f 165 173 192
f 165 192 166
f 166 192 191
f 167 169 193
f 167 193 194
f 167 194 195
f 167 195 196
f 167 196 168
f 168 196 170
f 169 191 193
f 170 196 197
f 171 190 172
f 172 198 199
f 172 199 173
f 172 190 198
f 173 199 192
f 175 200 176
f 175 179 201
f 175 201 202
f 175 202 200
f 176 200 233
f 176 233 203
f 176 203 204
f 176 204 177
f 177 204 205
f 177 205 206
f 177 206 178
f 178 206 185
f 178 185 180
f 182 184 208
f 182 208 209
f 182 209 207
f 183 188 210
f 183 210 184
f 184 210 208
f 185 206 187
f 185 187 186
f 187 206 205
f 187 205 211
f 187 211 188
f 188 211 212
f 188 212 213
f 188 213 210
f 189 214 215
f 189 215 190
f 190 215 198
f 191 216 193
f 191 192 199
f 191 199 217
f 191 217 198
f 191 198 216
f 193 216 218
f 193 218 219
f 193 219 194
f 194 219 220
f 194 220 221
f 194 221 222
f 194 222 195
f 195 222 223
f 195 223 224
f 195 224 225
f 195 225 196
f 196 225 226
f 196 226 227
f 196 227 228
f 196 228 229
f 196 229 197
f 198 230 231
f 198 231 232
f 198 232 216
f 198 217 199
f 198 215 230
f 200 202 234
f 200 234 235
f 200 235 233
f 203 233 256
f 203 256 236
f 203 236 237
f 203 237 204
f 204 237 205
f 205 238 211
f 205 237 238
f 207 209 239
f 208 240 241
f 208 241 209
f 208 210 213
f 208 213 242
f 208 242 240
f 209 241 239
f 211 238 212
f 212 238 242
f 212 242 213
f 214 243 244
f 214 244 230
f 214 230 215
f 216 232 218
f 218 245 220
f 218 220 219
f 218 232 246
f 218 246 247
f 218 247 245
f 220 245 248
f 220 248 221
f 221 249 250
f 221 250 251
f 221 251 222
f 221 248 249
f 222 251 252
f 222 252 253
f 222 253 223
f 230 254 255
f 230 255 231
f 230 244 254
f 231 255 246
f 231 246 232
f 233 235 257
f 233 257 258
f 233 258 256
f 236 256 289
f 236 289 259
f 236 259 237
f 237 260 238
f 237 259 260
f 238 260 261
f 238 261 242
f 239 241 263
f 239 263 262
f 240 242 261
f 240 261 264
f 240 264 241
f 241 265 266
f 241 266 267
f 241 267 268
f 241 268 263
f 241 264 269
f 241 269 270
f 241 270 265
f 243 271 272
f 243 272 273
f 243 273 274
f 243 274 244
f 244 274 247
f 244 247 254
f 245 247 275
f 245 275 248
f 246 255 247
f 247 276 275
f 247 255 254
f 247 274 277
f 247 277 276
f 248 278 249
f 248 275 276
f 248 276 279
f 248 279 278
f 249 278 250
f 250 278 280
f 250 280 281
f 250 281 282
f 250 282 251
f 251 282 283
f 251 283 284
f 251 284 285
f 251 285 286
f 251 286 287
f 251 287 288
f 251 288 253
f 251 253 252
f 256 258 289
f 258 290 289
f 259 289 291
f 259 291 292
f 259 292 260
f 260 292 270
f 260 270 269
f 260 269 261
f 261 269 264
f 262 263 294
f 262 294 295
f 262 295 296
f 262 296 297
f 262 297 293
f 263 268 267
f 263 267 294
f 265 270 298
f 265 298 299
f 265 299 300
f 265 300 266
f 266 300 267
f 267 301 302
f 267 302 294
f 267 300 301
f 270 292 303
f 270 303 304
f 270 304 299
f 270 299 298
f 271 305 272
f 272 305 306
f 272 306 307
f 272 307 308
f 272 308 309
f 272 309 310
f 272 310 311
f 272 311 273
f 273 311 312
f 273 312 274
f 274 312 277
f 276 313 314
f 276 314 279
f 276 277 312
f 276 312 313
f 278 279 315
f 278 315 316
f 278 316 317
f 278 317 280
f 279 314 315
f 280 317 281
f 281 317 282
f 282 317 318
f 282 318 319
f 282 319 320
f 282 320 284
f 282 284 283
f 289 290 321
f 289 321 322
f 289 322 291
f 291 323 303
f 291 303 292
f 291 322 324
f 291 324 323
f 293 297 326
f 293 326 325
f 294 302 327
f 294 327 295
f 295 327 328
f 295 328 296
f 296 328 329
f 296 329 330
f 296 330 297
f 297 330 326
f 299 331 332
f 299 332 300
f 299 304 333
f 299 333 334
f 299 334 331
f 300 332 335
f 300 335 301
f 301 335 336
f 301 336 337
f 301 337 327
f 301 327 302
f 303 323 338
f 303 338 304
f 304 338 333
f 305 339 340
f 305 340 307
f 305 307 306
f 307 341 342
f 307 342 343
f 307 343 308
f 307 340 341
f 308 343 309
f 309 344 345
f 309 345 311
f 309 311 310
f 309 343 346
f 309 346 347
f 309 347 348
f 309 348 344
f 311 345 344
f 311 344 349
f 311 349 315
f 311 315 313
f 311 313 312
f 313 315 314
f 315 350 316
f 315 349 344
f 315 344 350
f 316 350 317
f 317 350 351
f 317 351 318
f 318 352 353
f 318 353 319
f 318 351 344
f 318 344 348
f 318 348 347
f 318 347 354
f 318 354 352
f 319 353 355
f 319 355 356
f 319 356 320
f 320 356 357
f 323 324 358
f 323 358 338
f 325 359 360
f 325 360 361
f 325 361 340
f 325 340 339
f 325 326 359
f 326 330 362
f 326 362 363
f 326 363 364
f 326 364 359
f 327 337 365
f 327 365 328
f 328 365 329
f 329 362 330
f 329 365 366
f 329 366 367
f 329 367 368
f 329 368 362
f 331 369 370
f 331 370 336
f 331 336 332
f 331 334 371
f 331 371 372
f 331 372 373
f 331 373 369
f 332 336 335
f 333 338 374
f 333 374 334
f 334 374 375
f 334 375 371
f 336 370 337
f 337 370 365
f 338 358 376
f 338 376 374
f 340 361 360
f 340 360 341
f 341 360 377
f 341 377 342
f 342 378 347
f 342 347 346
f 342 346 343
f 342 377 379
f 342 379 380
f 342 380 378
f 344 351 350
f 347 378 380
f 347 380 381
f 347 381 354
f 352 382 355
f 352 355 353
f 352 354 383
f 352 383 382
f 354 381 383
f 355 382 384
f 355 384 356
f 356 384 385
f 356 385 386
f 356 386 387
f 356 387 357
f 359 364 388
f 359 388 360
f 360 388 377
f 362 368 363
f 363 368 389
f 363 389 390
f 363 390 364
f 364 390 388
f 365 370 366
f 366 370 391
f 366 391 367
f 367 391 373
f 367 373 392
f 367 392 393
f 367 393 368
f 368 394 389
f 368 393 395
f 368 395 394
f 369 373 370
f 370 373 391
f 371 375 396
f 371 396 397
f 371 397 398
f 371 398 399
f 371 399 372
f 372 400 401
f 372 401 373
f 372 399 402
f 372 402 400
f 373 401 403
f 373 403 404
f 373 404 392
f 374 376 405
f 374 405 396
f 374 396 375
f 377 388 379
f 379 406 407
f 379 407 380
f 379 388 408
f 379 408 409
f 379 409 406
f 380 407 383
f 380 383 381
f 382 383 384
f 383 407 384
f 384 407 406
f 384 406 410
f 384 410 411
f 384 411 412
f 384 412 385
f 385 412 413
f 385 413 386
f 386 413 414
f 388 390 408
f 389 394 390
f 390 394 415
f 390 415 409
f 390 409 408
f 392 404 393
f 393 404 395
f 394 395 415
f 395 404 416
f 395 416 417
f 395 417 418
f 395 418 415
f 400 403 401
f 400 402 419
f 400 419 420
f 400 420 403
f 403 420 404
f 404 421 422
f 404 422 416
f 404 420 423
f 404 423 421
f 406 409 418
f 406 418 417
f 406 417 410
f 409 415 418
f 410 417 411
f 411 417 424
f 411 424 425
f 411 425 412
f 412 425 426
f 412 426 427
f 412 427 428
f 412 428 429
f 412 429 430
f 412 430 414
f 412 414 413
f 416 422 417
f 417 422 424
f 421 425 424
f 421 424 422
f 421 423 431
f 421 431 425
f 425 431 426

