# https://github.com/mikedh/trimesh
v 0.14610643 0.00743486 -0.00763240 0.54509804 0.71372549 0.60000000
v 0.14610643 0.00714872 -0.00881870 0.54509804 0.71372549 0.60000000
v 0.14394097 0.00711879 -0.00877935 0.54509804 0.71372549 0.60000000
v 0.14394097 0.00737021 -0.00763240 0.54509804 0.71372549 0.60000000
v 0.12950137 0.00708167 -0.00658383 0.54509804 0.71372549 0.60000000
v 0.12950137 0.00708167 -0.00642412 0.54509804 0.71372549 0.60000000
v 0.13090988 0.00710562 -0.00620885 0.54509804 0.71372549 0.60000000
v 0.13308492 0.00714154 -0.00594381 0.54509804 0.71372549 0.60000000
v 0.13525038 0.00717745 -0.00575979 0.54509804 0.71372549 0.60000000
v 0.13742542 0.00721337 -0.00565331 0.54509804 0.71372549 0.60000000
v 0.13960046 0.00725048 -0.00559892 0.54509804 0.71372549 0.60000000
v 0.14394097 0.00732232 -0.00553642 0.54509804 0.71372549 0.60000000
v 0.14610643 0.00735465 -0.00552253 0.54509804 0.71372549 0.60000000
v 0.14828147 0.00737141 -0.00565100 0.54509804 0.71372549 0.60000000
v 0.14828147 0.00742289 -0.00763240 0.54509804 0.71372549 0.60000000
v 0.14610643 0.00598620 -0.00959992 0.54509804 0.71372549 0.60000000
v 0.14394097 0.00598620 -0.00955247 0.54509804 0.71372549 0.60000000
v 0.14828147 0.00712118 -0.00878514 0.54509804 0.71372549 0.60000000
v 0.13525038 0.00573118 -0.00931868 0.54509804 0.71372549 0.60000000
v 0.12874442 0.00549892 -0.00916938 0.54509804 0.71372549 0.60000000
v 0.12440392 0.00534926 -0.00906522 0.54509804 0.71372549 0.60000000
v 0.12006341 0.00520200 -0.00895643 0.54509804 0.71372549 0.60000000
v 0.11356703 0.00498650 -0.00878861 0.54509804 0.71372549 0.60000000
v 0.11195731 0.00493382 -0.00874463 0.54509804 0.71372549 0.60000000
v 0.14264744 0.00708287 -0.00873306 0.54509804 0.71372549 0.60000000
v 0.06665510 0.00491466 -0.00440683 0.54509804 0.71372549 0.60000000
v 0.06665510 0.00491466 -0.00420661 0.54509804 0.71372549 0.60000000
v 0.06799654 0.00495058 -0.00394157 0.54509804 0.71372549 0.60000000
v 0.06301407 0.00475064 -0.00329460 0.54509804 0.71372549 0.60000000
v 0.12440392 0.00684103 -0.00546235 0.54509804 0.71372549 0.60000000
v 0.12657896 0.00690448 -0.00546235 0.54509804 0.71372549 0.60000000
v 0.13090988 0.00698230 -0.00512440 0.54509804 0.71372549 0.60000000
v 0.13308492 0.00700146 -0.00485936 0.54509804 0.71372549 0.60000000
v 0.13525038 0.00701942 -0.00467534 0.54509804 0.71372549 0.60000000
v 0.13742542 0.00703019 -0.00456886 0.54509804 0.71372549 0.60000000
v 0.13960046 0.00703498 -0.00451447 0.54509804 0.71372549 0.60000000
v 0.14176593 0.00703618 -0.00447974 0.54509804 0.71372549 0.60000000
v 0.14394097 0.00703498 -0.00445313 0.54509804 0.71372549 0.60000000
v 0.14610643 0.00702660 -0.00443924 0.54509804 0.71372549 0.60000000
v 0.15044693 0.00734626 -0.00591372 0.54509804 0.71372549 0.60000000
v 0.15261239 0.00726725 -0.00741019 0.54509804 0.71372549 0.60000000
v 0.15046609 0.00730197 -0.00781642 0.54509804 0.71372549 0.60000000
v 0.14974746 0.00708766 -0.00874116 0.54509804 0.71372549 0.60000000
v 0.14828147 0.00598620 -0.00954206 0.54509804 0.71372549 0.60000000
v 0.14610643 0.00381559 -0.01018092 0.54509804 0.71372549 0.60000000
v 0.14394097 0.00381559 -0.01020870 0.54509804 0.71372549 0.60000000
v 0.14176593 0.00381559 -0.01020870 0.54509804 0.71372549 0.60000000
v 0.13960046 0.00381559 -0.01019134 0.54509804 0.71372549 0.60000000
v 0.13742542 0.00381559 -0.01015546 0.54509804 0.71372549 0.60000000
v 0.13525038 0.00381559 -0.01010801 0.54509804 0.71372549 0.60000000
v 0.13308492 0.00381559 -0.01005708 0.54509804 0.71372549 0.60000000
v 0.13090988 0.00381559 -0.00999690 0.54509804 0.71372549 0.60000000
v 0.12874442 0.00381559 -0.00991588 0.54509804 0.71372549 0.60000000
v 0.09064764 0.00274167 -0.00872380 0.54509804 0.71372549 0.60000000
v 0.11052006 0.00487515 -0.00870412 0.54509804 0.71372549 0.60000000
v 0.06301407 0.00329120 -0.00708497 0.54509804 0.71372549 0.60000000
v 0.08370092 0.00493382 -0.00659425 0.54509804 0.71372549 0.60000000
v 0.08225409 0.00488952 -0.00651671 0.54509804 0.71372549 0.60000000
v 0.06301407 0.00426336 -0.00546235 0.54509804 0.71372549 0.60000000
v 0.06301407 0.00463690 -0.00235019 0.54509804 0.71372549 0.60000000
v 0.07372639 0.00489551 -0.00227149 0.54509804 0.71372549 0.60000000
v 0.07517322 0.00490748 -0.00219511 0.54509804 0.71372549 0.60000000
v 0.06301407 0.00429449 -0.00112455 0.54509804 0.71372549 0.60000000
v 0.06301407 0.00400476 -0.00043129 0.54509804 0.71372549 0.60000000
v 0.06301407 0.00334747 0.00052701 0.54509804 0.71372549 0.60000000
v 0.14828147 0.00683025 -0.00456655 0.54509804 0.71372549 0.60000000
v 0.15478743 0.00714752 -0.00640676 0.54509804 0.71372549 0.60000000
v 0.15261239 0.00726725 -0.00616602 0.54509804 0.71372549 0.60000000
v 0.12223845 0.00501763 -0.00210483 0.54509804 0.71372549 0.60000000
v 0.12440392 0.00499488 -0.00212798 0.54509804 0.71372549 0.60000000
v 0.12657896 0.00496255 -0.00215807 0.54509804 0.71372549 0.60000000
v 0.12874442 0.00492185 -0.00219279 0.54509804 0.71372549 0.60000000
v 0.12983673 0.00490030 -0.00221015 0.54509804 0.71372549 0.60000000
v 0.13128356 0.00485839 -0.00223330 0.54509804 0.71372549 0.60000000
v 0.13308492 0.00478656 -0.00226223 0.54509804 0.71372549 0.60000000
v 0.13525038 0.00462493 -0.00230390 0.54509804 0.71372549 0.60000000
v 0.15261239 0.00699428 -0.00849464 0.54509804 0.71372549 0.60000000
v 0.15120388 0.00704815 -0.00866246 0.54509804 0.71372549 0.60000000
v 0.15478743 0.00714752 -0.00695766 0.54509804 0.71372549 0.60000000
v 0.15478743 0.00689730 -0.00804327 0.54509804 0.71372549 0.60000000
v 0.15478743 0.00581260 -0.00925156 0.54509804 0.71372549 0.60000000
v 0.15261239 0.00590957 -0.00933489 0.54509804 0.71372549 0.60000000
v 0.15046609 0.00618973 -0.00928975 0.54509804 0.71372549 0.60000000
v 0.15044693 0.00381559 -0.01002005 0.54509804 0.71372549 0.60000000
v 0.14828147 0.00381559 -0.01011958 0.54509804 0.71372549 0.60000000
v 0.13960046 0.00164499 -0.01014388 0.54509804 0.71372549 0.60000000
v 0.13742542 0.00164499 -0.01019712 0.54509804 0.71372549 0.60000000
v 0.13525038 0.00164499 -0.01024110 0.54509804 0.71372549 0.60000000
v 0.13308492 0.00164499 -0.01027235 0.54509804 0.71372549 0.60000000
v 0.13090988 0.00164499 -0.01027698 0.54509804 0.71372549 0.60000000
v 0.12874442 0.00164499 -0.01025036 0.54509804 0.71372549 0.60000000
v 0.12657896 0.00164499 -0.01018786 0.54509804 0.71372549 0.60000000
v 0.06301407 0.00164619 -0.00786735 0.54509804 0.71372549 0.60000000
v 0.06301407 0.00222206 -0.00765671 0.54509804 0.71372549 0.60000000
v 0.06301407 0.00164619 0.00132907 0.54509804 0.71372549 0.60000000
v 0.09723984 0.00272251 -0.00004010 0.54509804 0.71372549 0.60000000
v 0.12006341 0.00381559 -0.00130278 0.54509804 0.71372549 0.60000000
v 0.14610643 0.00594190 -0.00396356 0.54509804 0.71372549 0.60000000
v 0.14828147 0.00574555 -0.00410939 0.54509804 0.71372549 0.60000000
v 0.15044693 0.00530616 -0.00425637 0.54509804 0.71372549 0.60000000
v 0.15176920 0.00500326 -0.00434781 0.54509804 0.71372549 0.60000000
v 0.15677084 0.00613106 -0.00592992 0.54509804 0.71372549 0.60000000
v 0.15593723 0.00707928 -0.00653175 0.54509804 0.71372549 0.60000000
v 0.12223845 0.00381559 -0.00136759 0.54509804 0.71372549 0.60000000
v 0.12440392 0.00381559 -0.00144051 0.54509804 0.71372549 0.60000000
v 0.12657896 0.00381559 -0.00152268 0.54509804 0.71372549 0.60000000
v 0.12874442 0.00381559 -0.00160832 0.54509804 0.71372549 0.60000000
v 0.13308492 0.00370066 -0.00182359 0.54509804 0.71372549 0.60000000
v 0.13525038 0.00353903 -0.00196132 0.54509804 0.71372549 0.60000000
v 0.13742542 0.00425019 -0.00238029 0.54509804 0.71372549 0.60000000
v 0.15695290 0.00569287 -0.00916244 0.54509804 0.71372549 0.60000000
v 0.15593723 0.00707928 -0.00661277 0.54509804 0.71372549 0.60000000
v 0.15677084 0.00676560 -0.00745533 0.54509804 0.71372549 0.60000000
v 0.15044693 0.00164499 -0.00971450 0.54509804 0.71372549 0.60000000
v 0.15261239 0.00381559 -0.00989274 0.54509804 0.71372549 0.60000000
v 0.15478743 0.00164499 -0.00950502 0.54509804 0.71372549 0.60000000
v 0.15261239 0.00164499 -0.00961265 0.54509804 0.71372549 0.60000000
v 0.14828147 0.00164499 -0.00980941 0.54509804 0.71372549 0.60000000
v 0.14610643 0.00164499 -0.00990084 0.54509804 0.71372549 0.60000000
v 0.14394097 0.00164499 -0.00998995 0.54509804 0.71372549 0.60000000
v 0.14176593 0.00164499 -0.01007328 0.54509804 0.71372549 0.60000000
v 0.13960046 -0.00052202 -0.00979205 0.54509804 0.71372549 0.60000000
v 0.13742542 -0.00052202 -0.00985454 0.54509804 0.71372549 0.60000000
v 0.13525038 -0.00052202 -0.00990547 0.54509804 0.71372549 0.60000000
v 0.13308492 -0.00052202 -0.00993093 0.54509804 0.71372549 0.60000000
v 0.13090988 -0.00052202 -0.00993672 0.54509804 0.71372549 0.60000000
v 0.12874442 -0.00052202 -0.00992861 0.54509804 0.71372549 0.60000000
v 0.12657896 -0.00052202 -0.00988811 0.54509804 0.71372549 0.60000000
v 0.11356703 -0.00052202 -0.00951891 0.54509804 0.71372549 0.60000000
v 0.06301407 -0.00052202 -0.00808262 0.54509804 0.71372549 0.60000000
v 0.06301407 0.00026577 -0.00802244 0.54509804 0.71372549 0.60000000
v 0.06301407 -0.00052202 0.00154665 0.54509804 0.71372549 0.60000000
v 0.11790753 0.00164499 -0.00051924 0.54509804 0.71372549 0.60000000
v 0.10273015 0.00217058 -0.00009912 0.54509804 0.71372549 0.60000000
v 0.10055510 0.00243397 -0.00007597 0.54509804 0.71372549 0.60000000
v 0.09838006 0.00263152 -0.00005283 0.54509804 0.71372549 0.60000000
v 0.14176593 0.00381559 -0.00277263 0.54509804 0.71372549 0.60000000
v 0.14394097 0.00381559 -0.00305619 0.54509804 0.71372549 0.60000000
v 0.14610643 0.00381559 -0.00334437 0.54509804 0.71372549 0.60000000
v 0.15321603 0.00454352 -0.00444502 0.54509804 0.71372549 0.60000000
v 0.15695290 0.00381559 -0.00482117 0.54509804 0.71372549 0.60000000
v 0.15912794 0.00542589 -0.00614519 0.54509804 0.71372549 0.60000000
v 0.16026815 0.00499727 -0.00646925 0.54509804 0.71372549 0.60000000
v 0.15912794 0.00580541 -0.00763240 0.54509804 0.71372549 0.60000000
v 0.12006341 0.00164499 -0.00059332 0.54509804 0.71372549 0.60000000
v 0.12223845 0.00164499 -0.00068128 0.54509804 0.71372549 0.60000000
v 0.12874442 0.00164499 -0.00097640 0.54509804 0.71372549 0.60000000
v 0.13090988 0.00164499 -0.00111760 0.54509804 0.71372549 0.60000000
v 0.13742542 0.00316429 -0.00210252 0.54509804 0.71372549 0.60000000
v 0.13308492 0.00164499 -0.00133519 0.54509804 0.71372549 0.60000000
v 0.13949507 0.00366713 -0.00246825 0.54509804 0.71372549 0.60000000
v 0.15695290 0.00381559 -0.00957678 0.54509804 0.71372549 0.60000000
v 0.15478743 0.00381559 -0.00975617 0.54509804 0.71372549 0.60000000
v 0.15912794 0.00527982 -0.00892981 0.54509804 0.71372549 0.60000000
v 0.14394097 -0.00052202 -0.00960571 0.54509804 0.71372549 0.60000000
v 0.14176593 -0.00052202 -0.00970756 0.54509804 0.71372549 0.60000000
v 0.15695290 0.00164499 -0.00933720 0.54509804 0.71372549 0.60000000
v 0.15766193 -0.00146904 -0.00868676 0.54509804 0.71372549 0.60000000
v 0.15621510 -0.00165821 -0.00874000 0.54509804 0.71372549 0.60000000
v 0.15478743 -0.00052202 -0.00906175 0.54509804 0.71372549 0.60000000
v 0.15261239 -0.00052202 -0.00917170 0.54509804 0.71372549 0.60000000
v 0.14828147 -0.00052202 -0.00939044 0.54509804 0.71372549 0.60000000
v 0.14610643 -0.00052202 -0.00949923 0.54509804 0.71372549 0.60000000
v 0.14610643 -0.00234183 -0.00899694 0.54509804 0.71372549 0.60000000
v 0.14394097 -0.00236697 -0.00905249 0.54509804 0.71372549 0.60000000
v 0.14176593 -0.00237655 -0.00910689 0.54509804 0.71372549 0.60000000
v 0.13960046 -0.00237057 -0.00914624 0.54509804 0.71372549 0.60000000
v 0.13742542 -0.00235021 -0.00916475 0.54509804 0.71372549 0.60000000
v 0.13525038 -0.00233106 -0.00917054 0.54509804 0.71372549 0.60000000
v 0.12874442 -0.00224964 -0.00914276 0.54509804 0.71372549 0.60000000
v 0.12657896 -0.00221971 -0.00912425 0.54509804 0.71372549 0.60000000
v 0.11356703 -0.00204252 -0.00898768 0.54509804 0.71372549 0.60000000
v 0.11140157 -0.00201019 -0.00896453 0.54509804 0.71372549 0.60000000
v 0.13308492 -0.00230711 -0.00916475 0.54509804 0.71372549 0.60000000
v 0.13090988 -0.00227838 -0.00915434 0.54509804 0.71372549 0.60000000
v 0.10922653 -0.00197188 -0.00893791 0.54509804 0.71372549 0.60000000
v 0.10706106 -0.00192998 -0.00890898 0.54509804 0.71372549 0.60000000
v 0.10273015 -0.00183899 -0.00884995 0.54509804 0.71372549 0.60000000
v 0.10055510 -0.00179110 -0.00882102 0.54509804 0.71372549 0.60000000
v 0.09838006 -0.00174081 -0.00879208 0.54509804 0.71372549 0.60000000
v 0.09444199 -0.00164264 -0.00873769 0.54509804 0.71372549 0.60000000
v 0.09298557 -0.00160193 -0.00871685 0.54509804 0.71372549 0.60000000
v 0.06301407 -0.00249987 -0.00733265 0.54509804 0.71372549 0.60000000
v 0.06301407 -0.00141876 0.00125384 0.54509804 0.71372549 0.60000000
v 0.09522769 -0.00161510 -0.00003662 0.54509804 0.71372549 0.60000000
v 0.09667452 -0.00147622 -0.00006440 0.54509804 0.71372549 0.60000000
v 0.12006341 -0.00052202 -0.00081900 0.54509804 0.71372549 0.60000000
v 0.10445485 0.00042739 -0.00001695 0.54509804 0.71372549 0.60000000
v 0.13869978 0.00284343 -0.00218469 0.54509804 0.71372549 0.60000000
v 0.14015620 0.00231784 -0.00227844 0.54509804 0.71372549 0.60000000
v 0.14828147 0.00164499 -0.00324252 0.54509804 0.71372549 0.60000000
v 0.15044693 0.00164499 -0.00353418 0.54509804 0.71372549 0.60000000
v 0.15807395 0.00059381 -0.00437211 0.54509804 0.71372549 0.60000000
v 0.14828147 0.00381559 -0.00363950 0.54509804 0.71372549 0.60000000
v 0.15487367 0.00176471 -0.00415453 0.54509804 0.71372549 0.60000000
v 0.15893630 0.00144744 -0.00474015 0.54509804 0.71372549 0.60000000
v 0.15912794 0.00381559 -0.00537439 0.54509804 0.71372549 0.60000000
v 0.16055561 0.00381559 -0.00616255 0.54509804 0.71372549 0.60000000
v 0.16067059 0.00381559 -0.00763240 0.54509804 0.71372549 0.60000000
v 0.16026815 0.00498889 -0.00763240 0.54509804 0.71372549 0.60000000
v 0.16022983 0.00492065 -0.00873537 0.54509804 0.71372549 0.60000000
v 0.12657896 -0.00052202 -0.00110024 0.54509804 0.71372549 0.60000000
v 0.12874442 -0.00052202 -0.00119862 0.54509804 0.71372549 0.60000000
v 0.13090988 -0.00052202 -0.00131320 0.54509804 0.71372549 0.60000000
v 0.13308492 -0.00052202 -0.00146365 0.54509804 0.71372549 0.60000000
v 0.14131559 -0.00171088 -0.00216502 0.54509804 0.71372549 0.60000000
v 0.14144973 -0.00052202 -0.00213840 0.54509804 0.71372549 0.60000000
v 0.14254204 -0.00052202 -0.00224719 0.54509804 0.71372549 0.60000000
v 0.14107604 0.00087397 -0.00215923 0.54509804 0.71372549 0.60000000
v 0.13949507 0.00161506 -0.00208516 0.54509804 0.71372549 0.60000000
v 0.15912794 0.00381559 -0.00919600 0.54509804 0.71372549 0.60000000
v 0.15912794 0.00164499 -0.00906754 0.54509804 0.71372549 0.60000000
v 0.14828147 -0.00222809 -0.00894370 0.54509804 0.71372549 0.60000000
v 0.15912794 0.00010055 -0.00880250 0.54509804 0.71372549 0.60000000
v 0.16022983 0.00053036 -0.00872611 0.54509804 0.71372549 0.60000000
v 0.15912794 -0.00098416 -0.00828053 0.54509804 0.71372549 0.60000000
v 0.15912794 -0.00208323 -0.00719492 0.54509804 0.71372549 0.60000000
v 0.15694331 -0.00235141 -0.00783031 0.54509804 0.71372549 0.60000000
v 0.14828147 -0.00331280 -0.00830252 0.54509804 0.71372549 0.60000000
v 0.14610643 -0.00342534 -0.00841941 0.54509804 0.71372549 0.60000000
v 0.14394097 -0.00345287 -0.00841363 0.54509804 0.71372549 0.60000000
v 0.14176593 -0.00346125 -0.00839048 0.54509804 0.71372549 0.60000000
v 0.13960046 -0.00345647 -0.00836964 0.54509804 0.71372549 0.60000000
v 0.13525038 -0.00341576 -0.00833145 0.54509804 0.71372549 0.60000000
v 0.13308492 -0.00339181 -0.00830946 0.54509804 0.71372549 0.60000000
v 0.13090988 -0.00336428 -0.00828631 0.54509804 0.71372549 0.60000000
v 0.12223845 -0.00324575 -0.00819951 0.54509804 0.71372549 0.60000000
v 0.12006341 -0.00321702 -0.00817637 0.54509804 0.71372549 0.60000000
v 0.11573249 -0.00315715 -0.00812776 0.54509804 0.71372549 0.60000000
v 0.11356703 -0.00312842 -0.00810114 0.54509804 0.71372549 0.60000000
v 0.11140157 -0.00309490 -0.00807567 0.54509804 0.71372549 0.60000000
v 0.09621460 -0.00168933 -0.00876083 0.54509804 0.71372549 0.60000000
v 0.07529778 -0.00378451 -0.00655606 0.54509804 0.71372549 0.60000000
v 0.07385095 -0.00376655 -0.00652944 0.54509804 0.71372549 0.60000000
v 0.07233704 -0.00374500 -0.00649819 0.54509804 0.71372549 0.60000000
v 0.06301407 -0.00326371 -0.00656647 0.54509804 0.71372549 0.60000000
v 0.06301407 -0.00262558 0.00077700 0.54509804 0.71372549 0.60000000
v 0.12440392 -0.00052202 -0.00100418 0.54509804 0.71372549 0.60000000
v 0.12223845 -0.00052202 -0.00090928 0.54509804 0.71372549 0.60000000
v 0.12874442 -0.00229634 -0.00184790 0.54509804 0.71372549 0.60000000
v 0.13090988 -0.00221612 -0.00189882 0.54509804 0.71372549 0.60000000
v 0.13308492 -0.00212992 -0.00195090 0.54509804 0.71372549 0.60000000
v 0.13525038 -0.00203893 -0.00200183 0.54509804 0.71372549 0.60000000
v 0.13742542 -0.00193716 -0.00205622 0.54509804 0.71372549 0.60000000
v 0.13960046 -0.00182342 -0.00211294 0.54509804 0.71372549 0.60000000
v 0.14178509 0.00161506 -0.00237566 0.54509804 0.71372549 0.60000000
v 0.14394097 0.00164499 -0.00266500 0.54509804 0.71372549 0.60000000
v 0.15044693 -0.00052202 -0.00323789 0.54509804 0.71372549 0.60000000
v 0.15261239 -0.00052202 -0.00353997 0.54509804 0.71372549 0.60000000
v 0.15478743 -0.00052202 -0.00386750 0.54509804 0.71372549 0.60000000
v 0.15807395 0.00008139 -0.00437211 0.54509804 0.71372549 0.60000000
v 0.15802604 -0.00136608 -0.00438253 0.54509804 0.71372549 0.60000000
v 0.15893630 -0.00059505 -0.00483968 0.54509804 0.71372549 0.60000000
v 0.16077599 0.00164499 -0.00581766 0.54509804 0.71372549 0.60000000
v 0.16089097 0.00164499 -0.00763240 0.54509804 0.71372549 0.60000000
v 0.16032565 0.00381559 -0.00882102 0.54509804 0.71372549 0.60000000
v 0.14394097 -0.00269262 -0.00296823 0.54509804 0.71372549 0.60000000
v 0.14610643 -0.00269262 -0.00312447 0.54509804 0.71372549 0.60000000
v 0.14828147 -0.00269262 -0.00334206 0.54509804 0.71372549 0.60000000
v 0.15657921 -0.00187491 -0.00425406 0.54509804 0.71372549 0.60000000
v 0.14828147 -0.00052202 -0.00295318 0.54509804 0.71372549 0.60000000
v 0.14610643 -0.00052202 -0.00267426 0.54509804 0.71372549 0.60000000
v 0.14394097 -0.00052202 -0.00241153 0.54509804 0.71372549 0.60000000
v 0.16032565 0.00164499 -0.00881407 0.54509804 0.71372549 0.60000000
v 0.16046938 -0.00032448 -0.00751898 0.54509804 0.71372549 0.60000000
v 0.16028732 -0.00168933 -0.00671924 0.54509804 0.71372549 0.60000000
v 0.15912794 -0.00208323 -0.00590214 0.54509804 0.71372549 0.60000000
v 0.15478743 -0.00321223 -0.00546235 0.54509804 0.71372549 0.60000000
v 0.15217164 -0.00384796 -0.00674471 0.54509804 0.71372549 0.60000000
v 0.15044693 -0.00393895 -0.00697618 0.54509804 0.71372549 0.60000000
v 0.14828147 -0.00405389 -0.00721807 0.54509804 0.71372549 0.60000000
v 0.14610643 -0.00412213 -0.00733380 0.54509804 0.71372549 0.60000000
v 0.14394097 -0.00413530 -0.00732802 0.54509804 0.71372549 0.60000000
v 0.13525038 -0.00415087 -0.00724584 0.54509804 0.71372549 0.60000000
v 0.13308492 -0.00415087 -0.00722501 0.54509804 0.71372549 0.60000000
v 0.13090988 -0.00414727 -0.00720187 0.54509804 0.71372549 0.60000000
v 0.12440392 -0.00413171 -0.00713590 0.54509804 0.71372549 0.60000000
v 0.12223845 -0.00412453 -0.00711390 0.54509804 0.71372549 0.60000000
v 0.12006341 -0.00411615 -0.00709076 0.54509804 0.71372549 0.60000000
v 0.11790753 -0.00410537 -0.00706761 0.54509804 0.71372549 0.60000000
v 0.11573249 -0.00409460 -0.00704215 0.54509804 0.71372549 0.60000000
v 0.10055510 -0.00399642 -0.00686391 0.54509804 0.71372549 0.60000000
v 0.09621460 -0.00396529 -0.00681415 0.54509804 0.71372549 0.60000000
v 0.09187410 -0.00393177 -0.00676091 0.54509804 0.71372549 0.60000000
v 0.08319309 -0.00385754 -0.00665443 0.54509804 0.71372549 0.60000000
v 0.08102763 -0.00383839 -0.00662781 0.54509804 0.71372549 0.60000000
v 0.07667755 -0.00379888 -0.00657457 0.54509804 0.71372549 0.60000000
v 0.06301407 -0.00434362 -0.00513366 0.54509804 0.71372549 0.60000000
v 0.07017159 -0.00369352 -0.00644032 0.54509804 0.71372549 0.60000000
v 0.06301407 -0.00401797 -0.00053661 0.54509804 0.71372549 0.60000000
v 0.11261845 -0.00378092 -0.00220552 0.54509804 0.71372549 0.60000000
v 0.11407486 -0.00375458 -0.00224372 0.54509804 0.71372549 0.60000000
v 0.12223845 -0.00357379 -0.00245089 0.54509804 0.71372549 0.60000000
v 0.12440392 -0.00351752 -0.00249949 0.54509804 0.71372549 0.60000000
v 0.12657896 -0.00345407 -0.00254926 0.54509804 0.71372549 0.60000000
v 0.12657896 -0.00236817 -0.00179813 0.54509804 0.71372549 0.60000000
v 0.12874442 -0.00338104 -0.00259671 0.54509804 0.71372549 0.60000000
v 0.13090988 -0.00330202 -0.00264532 0.54509804 0.71372549 0.60000000
v 0.13308492 -0.00321582 -0.00269509 0.54509804 0.71372549 0.60000000
v 0.13525038 -0.00312483 -0.00274138 0.54509804 0.71372549 0.60000000
v 0.13742542 -0.00302187 -0.00278652 0.54509804 0.71372549 0.60000000
v 0.13960046 -0.00290693 -0.00282703 0.54509804 0.71372549 0.60000000
v 0.16028732 -0.00168933 -0.00640676 0.54509804 0.71372549 0.60000000
v 0.16052686 -0.00052202 -0.00603756 0.54509804 0.71372549 0.60000000
v 0.15716369 -0.00248191 -0.00524823 0.54509804 0.71372549 0.60000000
v 0.14828147 -0.00397367 -0.00410244 0.54509804 0.71372549 0.60000000
v 0.15044693 -0.00385874 -0.00426679 0.54509804 0.71372549 0.60000000
v 0.15157757 -0.00378451 -0.00436979 0.54509804 0.71372549 0.60000000
v 0.15044693 -0.00269262 -0.00364760 0.54509804 0.71372549 0.60000000
v 0.15478743 -0.00219816 -0.00409781 0.54509804 0.71372549 0.60000000
v 0.15313938 -0.00361929 -0.00546235 0.54509804 0.71372549 0.60000000
v 0.15205665 -0.00383599 -0.00546235 0.54509804 0.71372549 0.60000000
v 0.15044693 -0.00401917 -0.00546235 0.54509804 0.71372549 0.60000000
v 0.14828147 -0.00425024 -0.00546235 0.54509804 0.71372549 0.60000000
v 0.14610643 -0.00437236 -0.00546235 0.54509804 0.71372549 0.60000000
v 0.14394097 -0.00439989 -0.00546235 0.54509804 0.71372549 0.60000000
v 0.13960046 -0.00443581 -0.00546235 0.54509804 0.71372549 0.60000000
v 0.13742542 -0.00445377 -0.00546235 0.54509804 0.71372549 0.60000000
v 0.13525038 -0.00447053 -0.00546235 0.54509804 0.71372549 0.60000000
v 0.13308492 -0.00448370 -0.00546235 0.54509804 0.71372549 0.60000000
v 0.13090988 -0.00449328 -0.00546235 0.54509804 0.71372549 0.60000000
v 0.12874442 -0.00449926 -0.00546235 0.54509804 0.71372549 0.60000000
v 0.12657896 -0.00450405 -0.00546235 0.54509804 0.71372549 0.60000000
v 0.12440392 -0.00450765 -0.00546235 0.54509804 0.71372549 0.60000000
v 0.12223845 -0.00451004 -0.00546235 0.54509804 0.71372549 0.60000000
v 0.12006341 -0.00451004 -0.00546235 0.54509804 0.71372549 0.60000000
v 0.13960046 -0.00414368 -0.00728520 0.54509804 0.71372549 0.60000000
v 0.11790753 -0.00450765 -0.00546235 0.54509804 0.71372549 0.60000000
v 0.11573249 -0.00450166 -0.00546235 0.54509804 0.71372549 0.60000000
v 0.11356703 -0.00449448 -0.00546235 0.54509804 0.71372549 0.60000000
v 0.06301407 -0.00466448 -0.00393463 0.54509804 0.71372549 0.60000000
v 0.12874442 -0.00414249 -0.00717872 0.54509804 0.71372549 0.60000000
v 0.06301407 -0.00444419 -0.00124028 0.54509804 0.71372549 0.60000000
v 0.14610643 -0.00402635 -0.00402027 0.54509804 0.71372549 0.60000000
v 0.15243034 -0.00278721 -0.00400291 0.54509804 0.71372549 0.60000000
v 0.06301407 -0.00479618 -0.00329460 0.54509804 0.71372549 0.60000000
f 1 2 3
f 1 3 4
f 1 4 5
f 1 5 6
f 1 6 7
f 1 7 8
f 1 8 9
f 1 9 10
f 1 10 11
f 1 11 12
f 1 12 13
f 1 13 14
f 1 14 15
f 1 15 2
f 2 16 17
f 2 17 3
f 2 15 18
f 2 18 16
f 3 17 19
f 3 19 20
f 3 20 21
f 3 21 22
f 3 22 23
f 3 23 24
f 3 24 25
f 3 25 4
f 4 25 5
f 5 25 26
f 5 26 27
f 5 27 6
f 6 27 28
f 6 28 29
f 6 29 30
f 6 30 7
f 7 30 31
f 7 31 8
f 8 31 32
f 8 32 9
f 9 32 33
f 9 33 10
f 10 33 34
f 10 34 11
f 11 34 12
f 12 34 13
f 13 34 35
f 13 35 36
f 13 36 37
f 13 37 38
f 13 38 39
f 13 39 14
f 14 40 15
f 14 39 40
f 15 40 41
f 15 41 42
f 15 42 43
f 15 43 18
f 16 18 44
f 16 44 45
f 16 45 46
f 16 46 47
f 16 47 48
f 16 48 49
f 16 49 50
f 16 50 17
f 17 50 51
f 17 51 52
f 17 52 53
f 17 53 21
f 17 21 20
f 17 20 19
f 18 43 44
f 21 53 22
f 22 53 23
f 23 53 24
f 24 53 54
f 24 54 55
f 24 55 56
f 24 56 25
f 25 56 57
f 25 57 26
f 26 57 58
f 26 58 59
f 26 59 29
f 26 29 27
f 27 29 28
f 29 59 56
f 29 56 94
f 29 94 93
f 29 93 131
f 29 131 130
f 29 130 183
f 29 183 236
f 29 236 288
f 29 288 331
f 29 331 336
f 29 336 333
f 29 333 290
f 29 290 237
f 29 237 184
f 29 184 132
f 29 132 95
f 29 95 65
f 29 65 64
f 29 64 63
f 29 63 60
f 29 60 30
f 30 60 31
f 31 60 32
f 32 60 33
f 33 60 34
f 34 60 61
f 34 61 62
f 34 62 63
f 34 63 35
f 35 63 64
f 35 64 36
f 36 64 37
f 37 64 38
f 38 64 65
f 38 65 39
f 39 66 67
f 39 67 68
f 39 68 40
f 39 65 69
f 39 69 70
f 39 70 71
f 39 71 72
f 39 72 73
f 39 73 74
f 39 74 75
f 39 75 76
f 39 76 66
f 40 68 41
f 41 77 78
f 41 78 42
f 41 68 67
f 41 67 79
f 41 79 80
f 41 80 77
f 42 78 43
f 43 78 81
f 43 81 82
f 43 82 83
f 43 83 44
f 44 84 85
f 44 85 45
f 44 83 82
f 44 82 81
f 44 81 84
f 45 85 86
f 45 86 87
f 45 87 88
f 45 88 89
f 45 89 46
f 46 89 90
f 46 90 47
f 47 90 48
f 48 90 91
f 48 91 49
f 49 91 50
f 50 91 51
f 51 91 52
f 52 91 92
f 52 92 54
f 52 54 53
f 54 93 94
f 54 94 55
f 54 92 93
f 55 94 56
f 56 59 58
f 56 58 57
f 60 63 61
f 61 63 62
f 65 95 96
f 65 96 97
f 65 97 72
f 65 72 71
f 65 71 70
f 65 70 69
f 66 76 98
f 66 98 99
f 66 99 100
f 66 100 101
f 66 101 102
f 66 102 103
f 66 103 67
f 67 103 112
f 67 112 79
f 72 97 73
f 73 97 104
f 73 104 74
f 74 104 105
f 74 105 75
f 75 105 106
f 75 106 107
f 75 107 76
f 76 107 108
f 76 108 109
f 76 109 110
f 76 110 99
f 76 99 98
f 77 80 111
f 77 111 78
f 78 111 81
f 79 112 80
f 80 112 113
f 80 113 111
f 81 111 84
f 84 114 85
f 84 111 115
f 84 115 116
f 84 116 117
f 84 117 114
f 85 118 119
f 85 119 120
f 85 120 121
f 85 121 86
f 85 114 118
f 86 121 122
f 86 122 123
f 86 123 87
f 87 123 124
f 87 124 88
f 88 124 89
f 89 125 126
f 89 126 90
f 89 124 125
f 90 126 127
f 90 127 91
f 91 127 128
f 91 128 129
f 91 129 130
f 91 130 92
f 92 130 131
f 92 131 93
f 95 132 133
f 95 133 134
f 95 134 135
f 95 135 136
f 95 136 96
f 96 136 106
f 96 106 105
f 96 105 104
f 96 104 97
f 99 110 137
f 99 137 100
f 100 137 101
f 101 137 138
f 101 138 139
f 101 139 140
f 101 140 141
f 101 141 102
f 102 141 142
f 102 142 103
f 103 142 143
f 103 143 144
f 103 144 113
f 103 113 112
f 106 136 135
f 106 135 145
f 106 145 107
f 107 145 146
f 107 146 147
f 107 147 108
f 108 147 148
f 108 148 109
f 109 149 110
f 109 148 150
f 109 150 149
f 110 149 151
f 110 151 137
f 111 152 153
f 111 153 115
f 111 113 154
f 111 154 152
f 113 144 154
f 114 117 155
f 114 155 156
f 114 156 118
f 115 153 116
f 116 153 157
f 116 157 158
f 116 158 159
f 116 159 160
f 116 160 161
f 116 161 162
f 116 162 163
f 116 163 117
f 117 163 155
f 118 156 119
f 119 156 120
f 120 156 122
f 120 122 121
f 122 156 164
f 122 164 165
f 122 165 123
f 123 165 166
f 123 166 124
f 124 166 167
f 124 167 125
f 125 167 168
f 125 168 126
f 126 168 169
f 126 169 127
f 127 170 171
f 127 171 172
f 127 172 173
f 127 173 128
f 127 169 174
f 127 174 175
f 127 175 170
f 128 173 176
f 128 176 177
f 128 177 178
f 128 178 179
f 128 179 180
f 128 180 181
f 128 181 182
f 128 182 129
f 129 182 130
f 130 182 183
f 132 184 185
f 132 185 186
f 132 186 187
f 132 187 188
f 132 188 145
f 132 145 133
f 133 145 134
f 134 145 135
f 137 151 149
f 137 149 189
f 137 189 138
f 138 189 190
f 138 190 139
f 139 191 192
f 139 192 193
f 139 193 194
f 139 194 140
f 139 190 191
f 140 195 193
f 140 193 141
f 140 194 195
f 141 193 196
f 141 196 197
f 141 197 142
f 142 197 143
f 143 198 199
f 143 199 200
f 143 200 144
f 143 197 198
f 144 200 201
f 144 201 154
f 145 188 146
f 146 188 202
f 146 202 147
f 147 202 203
f 147 203 204
f 147 204 148
f 148 204 205
f 148 205 206
f 148 206 207
f 148 207 208
f 148 208 150
f 149 150 189
f 150 208 209
f 150 209 210
f 150 210 189
f 152 157 153
f 152 154 211
f 152 211 212
f 152 212 157
f 154 201 211
f 155 163 159
f 155 159 156
f 156 159 213
f 156 213 164
f 157 212 214
f 157 214 158
f 158 214 215
f 158 215 216
f 158 216 217
f 158 217 218
f 158 218 159
f 159 218 219
f 159 219 220
f 159 220 213
f 159 163 162
f 159 162 161
f 159 161 160
f 164 213 220
f 164 220 165
f 165 220 166
f 166 220 167
f 167 220 221
f 167 221 168
f 168 221 169
f 169 221 222
f 169 222 174
f 170 175 223
f 170 223 224
f 170 224 225
f 170 225 171
f 171 225 226
f 171 226 227
f 171 227 228
f 171 228 172
f 172 228 229
f 172 229 173
f 173 229 230
f 173 230 231
f 173 231 183
f 173 183 176
f 174 222 223
f 174 223 175
f 176 183 177
f 177 183 178
f 178 183 179
f 179 183 180
f 180 183 232
f 180 232 181
f 181 232 183
f 181 183 182
f 183 233 234
f 183 234 235
f 183 235 236
f 183 231 233
f 184 237 185
f 185 238 239
f 185 239 186
f 185 237 240
f 185 240 241
f 185 241 242
f 185 242 243
f 185 243 244
f 185 244 245
f 185 245 202
f 185 202 238
f 186 239 187
f 187 239 188
f 188 239 238
f 188 238 202
f 189 210 209
f 189 209 190
f 190 209 246
f 190 246 247
f 190 247 191
f 191 193 192
f 191 247 193
f 193 248 249
f 193 249 250
f 193 250 251
f 193 251 196
f 193 195 194
f 193 247 209
f 193 209 248
f 196 251 252
f 196 252 253
f 196 253 254
f 196 254 198
f 196 198 197
f 198 254 199
f 199 254 255
f 199 255 256
f 199 256 201
f 199 201 200
f 201 256 211
f 202 245 203
f 203 245 206
f 203 206 204
f 204 206 205
f 206 257 258
f 206 258 259
f 206 259 260
f 206 260 248
f 206 248 261
f 206 261 262
f 206 262 263
f 206 263 208
f 206 208 207
f 206 245 257
f 208 263 209
f 209 263 262
f 209 262 261
f 209 261 248
f 209 247 246
f 211 256 264
f 211 264 212
f 212 264 215
f 212 215 214
f 215 264 255
f 215 255 265
f 215 265 266
f 215 266 216
f 216 266 217
f 217 266 303
f 217 303 267
f 217 267 268
f 217 268 269
f 217 269 218
f 218 269 219
f 219 269 270
f 219 270 271
f 219 271 220
f 220 271 272
f 220 272 221
f 221 273 222
f 221 272 273
f 222 273 274
f 222 274 275
f 222 275 223
f 223 275 276
f 223 276 277
f 223 277 278
f 223 278 279
f 223 279 280
f 223 280 281
f 223 281 282
f 223 282 283
f 223 283 224
f 224 283 284
f 224 284 285
f 224 285 286
f 224 286 287
f 224 287 225
f 225 287 226
f 226 287 227
f 227 287 228
f 228 287 233
f 228 233 229
f 229 233 230
f 230 233 231
f 233 287 288
f 233 288 234
f 234 288 235
f 235 288 289
f 235 289 236
f 236 289 288
f 237 290 291
f 237 291 292
f 237 292 293
f 237 293 294
f 237 294 295
f 237 295 296
f 237 296 240
f 240 296 297
f 240 297 298
f 240 298 241
f 241 298 299
f 241 299 300
f 241 300 242
f 242 300 243
f 243 300 301
f 243 301 302
f 243 302 244
f 244 302 245
f 245 302 257
f 248 260 252
f 248 252 249
f 249 252 250
f 250 252 251
f 252 267 303
f 252 303 304
f 252 304 253
f 252 260 305
f 252 305 267
f 253 304 254
f 254 304 255
f 255 304 266
f 255 266 265
f 255 264 256
f 257 302 306
f 257 306 258
f 258 306 259
f 259 306 307
f 259 307 308
f 259 308 309
f 259 309 310
f 259 310 260
f 260 310 308
f 260 308 305
f 266 304 303
f 267 305 268
f 268 305 308
f 268 308 311
f 268 311 269
f 269 311 312
f 269 312 313
f 269 313 314
f 269 314 270
f 270 314 271
f 271 314 315
f 271 315 272
f 272 315 316
f 272 316 317
f 272 317 318
f 272 318 319
f 272 319 320
f 272 320 273
f 273 320 321
f 273 321 322
f 273 322 323
f 273 323 324
f 273 324 325
f 273 325 326
f 273 326 327
f 273 327 274
f 274 327 326
f 274 326 328
f 274 328 275
f 275 328 329
f 275 329 330
f 275 330 331
f 275 331 276
f 276 332 277
f 276 331 332
f 277 331 288
f 277 288 278
f 277 332 331
f 278 288 279
f 279 288 280
f 280 288 281
f 281 288 282
f 282 288 283
f 283 288 284
f 284 288 285
f 285 288 286
f 286 288 287
f 290 333 291
f 291 333 334
f 291 334 292
f 292 334 293
f 293 334 294
f 294 334 295
f 295 334 297
f 295 297 296
f 297 334 298
f 298 334 299
f 299 334 300
f 300 334 306
f 300 306 301
f 301 306 302
f 306 314 307
f 306 334 315
f 306 315 314
f 307 314 308
f 308 312 311
f 308 310 335
f 308 335 309
f 308 314 313
f 308 313 312
f 309 335 310
f 315 334 333
f 315 333 316
f 316 333 336
f 316 336 317
f 317 336 318
f 318 336 319
f 319 336 320
f 320 336 321
f 321 336 322
f 322 336 323
f 323 336 324
f 324 336 325
f 325 336 326
f 326 336 328
f 328 336 329
f 329 336 331
f 329 331 330

