# https://github.com/mikedh/trimesh
mtllib material.mtl

o geometry_0
usemtl material_0
v 0.18141008 0.00036694 0.00445820
v 0.18545839 0.00201576 0.00393486
v 0.16182690 0.00192989 0.00388958
v 0.20563701 0.00033977 0.00454908
v 0.21138072 0.00205636 0.00400355
v 0.22189719 -0.00005562 0.00472919
v 0.11444725 0.00032388 0.00431209
v 0.10796032 0.00182144 0.00380907
v 0.08651188 0.00030792 0.00424267
v 0.13323954 0.00182930 0.00383809
v 0.14231927 0.00034375 0.00434892
v 0.08514807 0.00185027 0.00380051
v 0.22851580 0.00121032 0.00459120
v 0.22911625 -0.00019733 0.00492289
v 0.22914265 0.00272213 0.00396318
v 0.23362550 0.00237094 0.00400251
v 0.23371475 -0.00011305 0.00473396
v 0.08421143 0.00208163 0.00391732
v 0.08418888 -0.00008470 0.00440167
v 0.08797818 -0.00066967 0.00419513
v 0.11452629 -0.00056351 0.00425705
v 0.19251911 -0.00056240 0.00446256
v 0.14731628 -0.00056347 0.00431432
v 0.21470551 -0.00058531 0.00448910
v 0.21494547 0.00303243 0.00331323
v 0.12845639 0.00296652 0.00297890
v 0.17398659 0.00308542 0.00306992
v 0.09316226 0.00288249 0.00297138
v 0.08515386 0.00320452 0.00281196
v 0.08418333 0.00364544 0.00253446
v 0.22924256 0.00397770 0.00272683
v 0.21627917 0.00390971 0.00227534
v 0.08835584 0.00376317 0.00171894
v 0.19965911 0.00367477 0.00255758
v 0.23365231 0.00393897 0.00230528
v 0.23684253 0.00004169 0.00318238
v 0.17649747 0.00379935 0.00217733
v 0.13209813 0.00381246 0.00184740
v 0.11389532 0.00382629 0.00181160
v 0.23683522 0.00227048 0.00223093
v 0.08438437 -0.00157686 0.00395720
v 0.22610786 -0.00222693 0.00418652
v 0.21497433 -0.00217383 0.00397324
v 0.20194090 -0.00220577 0.00397280
v 0.17747794 -0.00218367 0.00386775
v 0.11191148 -0.00207673 0.00372354
v 0.13517966 -0.00205347 0.00379048
v 0.09380547 -0.00209206 0.00365417
v 0.23324679 -0.00233492 0.00400547
v 0.23691254 -0.00208405 0.00243550
v 0.08452653 -0.00277538 0.00330153
v 0.10233197 -0.00317836 0.00283774
v 0.14702547 -0.00320833 0.00298510
v 0.22738876 -0.00370907 0.00305845
v 0.21665783 -0.00323775 0.00316290
v 0.18863531 -0.00324632 0.00309260
v 0.23363965 -0.00298036 0.00334913
v 0.17982518 -0.00406869 -0.00200785
v 0.17362738 -0.00451704 -0.00028709
v 0.15927363 -0.00406312 -0.00195430
v 0.19952939 -0.00419194 -0.00192289
v 0.21935346 -0.00467422 -0.00028663
v 0.21455703 -0.00415254 -0.00193592
v 0.22475602 -0.00438530 -0.00189385
v 0.23023222 -0.00499777 0.00016641
v 0.22245169 -0.00488108 0.00023364
v 0.11226722 -0.00434488 -0.00031302
v 0.12997061 -0.00400229 -0.00188947
v 0.10732936 -0.00392698 -0.00176370
v 0.09123092 -0.00389377 -0.00163686
v 0.08756843 -0.00433522 -0.00029229
v 0.22924205 -0.00399418 -0.00275991
v 0.23364471 -0.00392766 -0.00249162
v 0.23355887 -0.00475889 0.00019572
v 0.08455358 -0.00315748 -0.00296491
v 0.21366781 -0.00462744 0.00055362
v 0.08428419 -0.00455614 -0.00000357
v 0.08487884 -0.00436521 0.00018707
v 0.09295708 -0.00308417 -0.00290305
v 0.19745716 -0.00342346 -0.00306030
v 0.15713235 -0.00325953 -0.00310800
v 0.12325673 -0.00315950 -0.00301510
v 0.21637424 -0.00322093 -0.00314564
v 0.18719524 -0.00457441 0.00055728
v 0.14717874 -0.00443728 0.00055627
v 0.11051308 -0.00431697 0.00054664
v 0.23706536 -0.00262419 -0.00143958
v 0.23666859 -0.00327653 0.00032571
v 0.22814019 -0.00261756 -0.00397515
v 0.23361114 -0.00238568 -0.00384413
v 0.20270547 -0.00239289 -0.00386237
v 0.18556862 -0.00208680 -0.00396046
v 0.15903597 -0.00195999 -0.00398099
v 0.09748166 -0.00191371 -0.00378840
v 0.12394398 -0.00196938 -0.00387013
v 0.08438095 -0.00157603 -0.00394640
v 0.21562095 -0.00198314 -0.00399059
v 0.23725518 -0.00153436 -0.00236244
v 0.22585690 -0.00428702 0.00220276
v 0.23311140 -0.00419523 0.00199056
v 0.21444408 -0.00408225 0.00205059
v 0.08501709 -0.00373165 0.00201313
v 0.11152155 -0.00386689 0.00180910
v 0.13405280 -0.00387963 0.00192864
v 0.16174581 -0.00396320 0.00192884
v 0.18721180 -0.00403812 0.00199265
v 0.22738876 -0.00370907 0.00305845
v 0.10233197 -0.00317836 0.00283774
v 0.23691254 -0.00208405 0.00243550
v 0.14702547 -0.00320833 0.00298510
v 0.18863531 -0.00324632 0.00309260
v 0.08452653 -0.00277538 0.00330153
v 0.21665783 -0.00323775 0.00316290
v 0.23363965 -0.00298036 0.00334913
v 0.21681520 0.00297371 -0.00336110
v 0.21618529 0.00167806 -0.00410124
v 0.20505110 0.00180134 -0.00409823
v 0.19917047 0.00309031 -0.00331584
v 0.22741331 0.00231356 -0.00407018
v 0.17857155 0.00295675 -0.00328510
v 0.17983044 0.00161848 -0.00406827
v 0.14306642 0.00287781 -0.00320706
v 0.14071262 0.00144451 -0.00401870
v 0.11500774 0.00279633 -0.00323045
v 0.11310660 0.00148572 -0.00396032
v 0.09727802 0.00280926 -0.00315515
v 0.09581790 0.00151346 -0.00389223
v 0.08486934 0.00203314 -0.00370840
v 0.08499342 0.00306285 -0.00299198
v 0.23176816 0.00307908 -0.00356528
v 0.23320568 0.00051819 -0.00457693
v 0.23379401 0.00262318 -0.00355663
v 0.22777382 0.00052183 -0.00472759
v 0.08886151 0.00044457 -0.00425860
v 0.11222107 0.00035362 -0.00430745
v 0.14226339 0.00033213 -0.00437015
v 0.19330916 0.00036201 -0.00450147
v 0.21684805 0.00039074 -0.00450372
v 0.08485086 -0.00027471 -0.00428606
v 0.08408802 0.00318662 -0.00319271
v 0.08411862 0.00055664 -0.00452274
v 0.10947342 -0.00048717 -0.00429366
v 0.14479087 -0.00054079 -0.00437320
v 0.20404537 -0.00066676 -0.00449907
v 0.21877614 -0.00042609 -0.00450577
v 0.22764008 -0.00084761 -0.00464400
v 0.18351914 -0.00049549 -0.00443143
v 0.23310912 -0.00080058 -0.00449088
v 0.23668547 0.00015584 -0.00327811
v 0.23679519 0.00253459 -0.00211428
v 0.08438095 -0.00157603 -0.00394640
v 0.09748166 -0.00191371 -0.00378840
v 0.08408806 -0.00349067 -0.00347671
v 0.21562095 -0.00198314 -0.00399059
v 0.15903597 -0.00195999 -0.00398099
v 0.18556862 -0.00208680 -0.00396046
v 0.12394398 -0.00196938 -0.00387013
v 0.20270547 -0.00239289 -0.00386237
v 0.22814019 -0.00261756 -0.00397515
v 0.23361114 -0.00238568 -0.00384413
v 0.23725518 -0.00153436 -0.00236244
v 0.02992891 -0.01339120 -0.00003215
v 0.02013424 -0.01403892 0.00006943
v 0.02150844 -0.01356330 -0.00359242
v 0.03742029 -0.01250209 -0.00351740
v 0.04965843 -0.01226672 0.00014012
v 0.05172366 -0.01175652 -0.00330803
v 0.00584233 -0.01406258 -0.00399864
v 0.01007050 -0.01436914 0.00007952
v -0.01280417 -0.01472481 0.00019088
v -0.01800460 -0.01437670 -0.00393765
v -0.02067466 -0.01469701 0.00020521
v 0.05999037 -0.01179207 -0.00325462
v 0.05761570 -0.01221821 0.00016056
v -0.02487277 -0.01404872 -0.00423318
v -0.02572811 -0.01447729 0.00011824
v 0.06742405 -0.01236173 -0.00330990
v 0.06303795 -0.01248944 0.00012191
v 0.07172225 -0.01331541 0.00010241
v -0.02929575 -0.01364787 -0.00351307
v 0.08051875 -0.01367044 -0.00408714
v 0.08059625 -0.01429616 0.00006767
v -0.03215674 -0.01348546 0.00016870
v -0.00096196 -0.01405602 0.00364322
v 0.02336647 -0.01275282 -0.00582823
v 0.00444446 -0.01366958 -0.00528744
v -0.01483549 -0.01407467 0.00461600
v -0.02018295 -0.01406233 0.00441677
v 0.00921828 -0.01368409 0.00434253
v -0.02588400 -0.01389347 0.00400457
v -0.03180371 -0.01303194 0.00363935
v 0.05593742 -0.01157714 0.00350678
v 0.06302804 -0.01194884 0.00338761
v 0.06997729 -0.01255469 0.00369208
v 0.07636830 -0.01328708 0.00383141
v 0.04605339 -0.01174265 0.00365370
v 0.03557023 -0.01233114 0.00365294
v 0.02123109 -0.01336115 0.00349212
v 0.08284328 -0.01408944 0.00405094
v -0.03313640 -0.01286371 -0.00353529
v 0.02056965 -0.01297116 0.00491256
v 0.08280702 -0.01458179 -0.00109957
v 0.08285004 -0.01458868 0.00112641
v 0.08273384 -0.01399409 -0.00433640
v -0.01890598 -0.01386482 -0.00544781
v 0.07361617 -0.01273636 -0.00445866
v -0.03518332 -0.01196303 0.00350619
v -0.01973942 -0.01274772 0.00746433
v -0.02578983 -0.01221223 0.00779896
v 0.03839774 -0.01115841 0.00577436
v -0.03176111 -0.01203606 0.00613740
v 0.00822115 -0.01226685 0.00746498
v -0.01150909 -0.01269739 0.00755952
v 0.05135670 -0.01058133 0.00553640
v 0.05948532 -0.01052999 0.00576821
v 0.06845212 -0.01144986 0.00568549
v 0.07898846 -0.01179084 0.00775130
v 0.08298755 -0.01275548 0.00721076
v 0.02138238 -0.01162146 0.00736111
v -0.03599166 -0.01213971 -0.00014754
v -0.01832162 -0.01132679 0.00962978
v 0.05295519 -0.00970523 0.00688620
v 0.06015161 -0.00963645 0.00715025
v 0.04428777 -0.00962230 0.00748975
v 0.03405359 -0.01018158 0.00778374
v 0.06976423 -0.01012309 0.00790966
v -0.00799177 -0.01153897 0.00914363
v 0.08280794 -0.01178620 0.00865616
v 0.00354248 -0.01009158 0.01058680
v 0.01525934 -0.00970861 0.01028800
v 0.02129795 -0.00960134 0.00987228
v -0.03260351 -0.01015293 0.00858364
v -0.03607982 -0.00983499 0.00686998
v -0.02519257 -0.01002551 0.01049893
v -0.02975152 -0.00980659 0.00976967
v 0.08088976 -0.00978667 0.01041288
v -0.01966258 -0.00990475 0.01102495
v -0.01101692 -0.00967633 0.01122904
v 0.03386970 -0.01190448 -0.00583093
v 0.05099498 -0.01070713 -0.00575748
v -0.03238262 -0.01208178 -0.00625868
v 0.08290305 -0.01277942 -0.00701699
v -0.03675834 -0.01128603 -0.00317809
v 0.06686155 -0.01161564 -0.00499954
v -0.02715650 -0.01238634 -0.00758918
v -0.01812834 -0.01290143 -0.00766960
v 0.00227159 -0.01273512 -0.00757922
v 0.01974267 -0.01218229 -0.00738483
v 0.05827900 -0.01064873 -0.00567739
v 0.06526292 -0.01091605 -0.00598416
v 0.07558999 -0.01129195 -0.00769812
v -0.03831712 -0.00994154 0.00329913
v -0.03673987 -0.01016583 -0.00594809
v 0.00832921 -0.01124719 -0.00954006
v -0.00548693 -0.01161376 -0.00946455
v 0.04096154 -0.01011699 -0.00756902
v 0.05461298 -0.00939565 -0.00739177
v 0.06130074 -0.00954537 -0.00750246
v 0.06936933 -0.00980543 -0.00825135
v -0.03265273 -0.01081208 -0.00810784
v -0.02484986 -0.01071776 -0.01018118
v -0.01993021 -0.01112972 -0.01009509
v 0.08170587 -0.01092345 -0.00937309
v 0.02354970 -0.00998724 -0.00988058
v 0.08303405 -0.01142023 -0.00882935
v 0.00078344 -0.01074126 -0.01037131
v -0.03959001 -0.00931442 -0.00010782
v 0.07835355 -0.00971315 -0.00994404
v -0.03923022 -0.00911946 -0.00326443
v -0.03674630 -0.00884263 -0.00773574
v -0.03551847 -0.00740235 0.00977105
v 0.01959871 0.01412625 -0.00004554
v 0.01184604 0.01437154 -0.00003072
v 0.02009215 0.01359697 0.00403936
v 0.00408300 0.01408338 0.00410600
v -0.00264138 0.01464363 -0.00020610
v -0.01431834 0.01440837 0.00335399
v -0.01634382 0.01480395 -0.00011784
v -0.01995646 0.01431523 0.00401690
v -0.02506776 0.01454137 -0.00025517
v -0.02622126 0.01405795 0.00385152
v 0.03068801 0.01339082 0.00009153
v 0.03465232 0.01263126 0.00372283
v 0.04821817 0.01237407 0.00004106
v 0.04460886 0.01203530 0.00362395
v 0.05208119 0.01169561 0.00332131
v 0.05433995 0.01215770 -0.00013422
v 0.05883643 0.01167931 0.00322020
v 0.06350631 0.01241656 -0.00013869
v 0.06591780 0.01223106 0.00326873
v 0.03804473 0.01268760 -0.00165376
v 0.08028415 0.01382201 0.00397626
v 0.07204168 0.01336224 -0.00005253
v -0.03114867 0.01375002 -0.00013934
v -0.02961627 0.01361298 0.00373471
v -0.02022818 0.01414228 -0.00438720
v -0.00248802 0.01396907 -0.00445892
v 0.00646691 0.01374254 -0.00436987
v -0.02611254 0.01382149 -0.00428143
v 0.05907286 0.01164499 -0.00354330
v 0.05179575 0.01161977 -0.00366644
v 0.06561133 0.01204633 -0.00354127
v 0.04150491 0.01207566 -0.00377009
v 0.02142330 0.01320353 -0.00405831
v -0.03003548 0.01345052 -0.00352486
v 0.07554556 0.01313801 -0.00413700
v 0.08083475 0.01454614 -0.00014009
v 0.08114515 0.01386049 -0.00431302
v -0.03391339 0.01267443 0.00342049
v 0.07521784 0.01321554 0.00388379
v 0.08283297 0.01452425 0.00360886
v -0.01216147 0.01357267 -0.00572768
v -0.03457127 0.01281186 -0.00023149
v -0.03482494 0.01213225 -0.00355886
v 0.02152584 0.01251203 -0.00579724
v -0.03069744 0.01273118 -0.00521815
v 0.00832038 0.01236287 -0.00732048
v -0.01928399 0.01271213 -0.00759838
v -0.00897299 0.01259748 -0.00774969
v 0.08262934 0.01512803 -0.00004177
v 0.08281643 0.01444020 -0.00375064
v 0.08306742 0.01496467 0.00031115
v 0.04141793 0.01119215 -0.00570623
v 0.05093454 0.01056873 -0.00590421
v 0.05890112 0.01048958 -0.00596595
v 0.06572164 0.01101020 -0.00594518
v -0.02558978 0.01230727 -0.00759379
v 0.07439575 0.01214726 -0.00586606
v 0.07883589 0.01152143 -0.00810679
v 0.08298979 0.01204396 -0.00830978
v 0.08294146 0.01348772 -0.00553387
v -0.03362297 0.01154163 -0.00597412
v -0.03044418 0.01127238 -0.00795546
v 0.06635612 0.01008271 -0.00742323
v 0.02458135 0.01100589 -0.00793804
v 0.03851693 0.00975989 -0.00805127
v 0.05875590 0.00917636 -0.00765488
v -0.00536496 0.01064419 -0.01027690
v 0.00531197 0.01040250 -0.01023312
v 0.01724726 0.01010602 -0.00974308
v 0.05109020 0.00932672 -0.00755770
v -0.01992783 0.01041045 -0.01063430
v 0.06952623 0.00963737 -0.00842098
v 0.07912562 0.00979833 -0.00995144
v -0.02604859 0.01028940 -0.01006901
v -0.03414608 0.01021470 -0.00774478
v -0.03683331 0.01166480 -0.00044062
v -0.03649005 0.00981241 -0.00645980
v -0.03229084 0.00941650 -0.00940547
v -0.00791755 0.01289540 0.00761262
v 0.08288597 0.00783080 -0.01226380
v -0.01915894 0.01298296 0.00747075
v 0.01197673 0.01253889 0.00742709
v 0.05663579 0.01049282 0.00566393
v -0.02576523 0.01259001 0.00751093
v 0.02184986 0.01225534 0.00696842
v 0.04218823 0.01102211 0.00611580
v -0.03063299 0.01252399 0.00608437
v 0.06655712 0.01096273 0.00618480
v -0.03698921 0.01117239 0.00318262
v 0.08279162 0.01225684 0.00796543
v -0.03402080 0.01156689 0.00609026
v 0.08280878 0.01369354 0.00534685
v -0.03860836 0.00966153 -0.00355733
v -0.03118210 0.01131984 0.00807762
v 0.07630542 0.01141622 0.00781700
v -0.01041625 0.01153876 0.00963646
v 0.01000530 0.01101658 0.00975990
v -0.01937754 0.01100271 0.01027365
v 0.03018691 0.01076342 0.00800431
v 0.02326934 0.01007581 0.00971968
v -0.02493604 0.01070769 0.01017872
v -0.03532079 0.01025388 0.00730678
v -0.03911939 0.00986599 -0.00028507
v 0.05454339 0.00917408 0.00746307
v 0.06189194 0.00924359 0.00773256
v 0.07024837 0.00984180 0.00837292
v 0.03792574 0.00952842 0.00847127
v 0.00324664 0.01044016 0.01064294
v -0.03778001 0.00913954 0.00618300
v 0.08287080 0.01012644 0.01032334
v 0.07578133 0.00938695 0.00986475
v -0.03144860 0.00938273 0.01006693
v -0.03558687 0.00709325 -0.00988333
v -0.03712406 0.00788877 0.00832563
v -0.03773491 0.00649121 -0.00869141
v 0.01406005 -0.00402624 0.01347424
v 0.01596564 -0.00024410 0.01390767
v 0.00505526 -0.00394736 0.01389374
v 0.02290251 -0.00400047 0.01288673
v 0.02311507 -0.00001386 0.01344270
v 0.00414966 -0.00035968 0.01431919
v -0.00490534 -0.00038010 0.01453618
v -0.01388025 -0.00429086 0.01411575
v -0.01649583 0.00003771 0.01469374
v -0.02551693 -0.00006425 0.01436198
v -0.02550441 -0.00403129 0.01378009
v -0.01963705 -0.00470120 0.01387992
v 0.03048085 0.00000853 0.01274090
v 0.03766528 -0.00368189 0.01143131
v 0.04037476 0.00014917 0.01164726
v 0.04620810 -0.00092689 0.01107095
v 0.04946049 -0.00392484 0.01044427
v 0.05146399 0.00005316 0.01084622
v 0.05590061 -0.00314836 0.01047017
v 0.06072820 -0.00006748 0.01096115
v 0.05857749 -0.00521878 0.00995799
v 0.06396579 -0.00370765 0.01079730
v 0.01791429 -0.00532120 0.01283605
v 0.01203024 0.00351617 0.01389276
v -0.00324322 0.00355832 0.01427417
v 0.01937575 0.00336266 0.01351827
v 0.07160952 -0.00008855 0.01204618
v -0.02959868 -0.00027796 0.01384754
v 0.07124346 -0.00400083 0.01162288
v -0.02859645 -0.00467208 0.01327578
v 0.04901253 -0.00568976 0.00985465
v 0.04118215 -0.00505877 0.01067993
v 0.03177560 -0.00581346 0.01124958
v 0.00389268 -0.00514886 0.01349008
v 0.06519312 -0.00539532 0.01039402
v 0.07580700 -0.00484740 0.01215896
v 0.07938592 0.00002612 0.01343529
v 0.08283763 -0.00424901 0.01359721
v -0.01058035 -0.00779149 0.01253735
v 0.01099273 -0.00729229 0.01224624
v -0.01853661 -0.00774764 0.01255359
v -0.02617916 -0.00789015 0.01201302
v 0.08307746 -0.00568061 0.01313650
v 0.08304010 -0.00001124 0.01425836
v -0.03403777 -0.00029411 0.01282446
v -0.03334007 -0.00378281 0.01244878
v -0.02576424 0.00385446 0.01393648
v -0.01693349 0.00380957 0.01425356
v 0.02867678 0.00388232 0.01250420
v 0.04153814 0.00367578 0.01112080
v 0.05020344 0.00340285 0.01056933
v 0.05591499 0.00343827 0.01043835
v 0.06183257 0.00302793 0.01070157
v 0.07138541 0.00396173 0.01161886
v -0.03072092 0.00296779 0.01338802
v 0.08293080 0.00390372 0.01363235
v 0.06337094 0.00471672 0.01039205
v 0.00215799 0.00548593 0.01365206
v 0.05458041 0.00585970 0.00958300
v 0.01865516 0.00625560 0.01264193
v -0.01997598 0.00614321 0.01341878
v -0.01054583 0.00765932 0.01287739
v -0.03413788 0.00318771 0.01243016
v 0.03603508 0.00527785 0.01122402
v 0.04602056 0.00669022 0.00964629
v 0.05804088 0.00757796 0.00871307
v -0.03087431 0.00521790 0.01274882
v 0.07051852 0.00571086 0.01094281
v 0.08021745 0.00714988 0.01203028
v 0.00542215 0.00786757 0.01253347
v -0.02556324 0.00769319 0.01240696
v 0.08297327 0.00738050 0.01250653
v 0.02133899 0.00799070 0.01159874
v 0.01575805 0.00894875 0.01138022
v 0.03798415 0.00771593 0.00984024
v -0.01861035 0.00904137 0.01199187
v 0.06887238 0.00784816 0.00965456
v -0.03350349 0.00614831 0.01157992
v -0.02978727 0.00754205 0.01177382
v -0.03233055 -0.00575161 0.01198955
v -0.03551851 -0.00383963 0.01156586
v 0.07865868 -0.00775661 0.01136928
v 0.07220693 -0.00831141 0.00994847
v 0.08298298 -0.00808972 0.01210899
v 0.06319284 -0.00782068 0.00897808
v 0.05382306 -0.00781845 0.00860617
v 0.04407332 -0.00789702 0.00899332
v 0.03456373 -0.00808316 0.00972229
v 0.02194282 -0.00770989 0.01122495
v -0.03673341 0.00319995 0.01113829
v 0.04682348 0.00845138 0.00852258
v 0.00012043 0.00951784 0.01158079
v -0.03711892 -0.00020040 0.01120829
v -0.03211074 -0.00795865 0.01077690
v 0.07578133 0.00938695 0.00986475
v 0.00354248 -0.01009158 0.01058680
v -0.01966258 -0.00990475 0.01102495
v 0.08088976 -0.00978667 0.01041288
v 0.01525934 -0.00970861 0.01028800
v 0.02129795 -0.00960134 0.00987228
v -0.01101692 -0.00967633 0.01122904
v -0.03551847 -0.00740235 0.00977105
v -0.02519257 -0.01002551 0.01049893
v -0.02975152 -0.00980659 0.00976967
v -0.03706542 0.00602679 0.00979899
v 0.08287080 0.01012644 0.01032334
v -0.03144860 0.00938273 0.01006693
v 0.03792574 0.00952842 0.00847127
v 0.05454339 0.00917408 0.00746307
v 0.06189194 0.00924359 0.00773256
v 0.07024837 0.00984180 0.00837292
v 0.02326934 0.01007581 0.00971968
v -0.02493604 0.01070769 0.01017872
v -0.03491192 0.00744052 0.01022581
v -0.01937754 0.01100271 0.01027365
v 0.00324664 0.01044016 0.01064294
v -0.03768493 -0.00460326 0.00989479
v 0.01000530 0.01101658 0.00975990
v 0.04428777 -0.00962230 0.00748975
v 0.05295519 -0.00970523 0.00688620
v 0.06976423 -0.01012309 0.00790966
v 0.06015161 -0.00963645 0.00715025
v 0.03405359 -0.01018158 0.00778374
v 0.08296199 -0.01031218 0.00991664
v 0.08280794 -0.01178620 0.00865616
v -0.03260351 -0.01015293 0.00858364
v -0.03712406 0.00788877 0.00832563
v -0.03532079 0.01025388 0.00730678
v 0.15855372 0.00436777 -0.00061012
v 0.10991595 0.00422042 -0.00060013
v 0.11106336 0.00427833 0.00034001
v 0.17161559 0.00445649 0.00030800
v 0.08670786 0.00424697 0.00024830
v 0.08655692 0.00421430 -0.00065988
v 0.19788488 0.00452755 -0.00064725
v 0.21619468 0.00459648 0.00032082
v 0.08418293 0.00441785 -0.00033539
v 0.21630475 0.00462714 -0.00025740
v 0.22836764 0.00484561 0.00051213
v 0.22839001 0.00486482 -0.00035374
v 0.23350738 0.00478190 -0.00012710
v 0.21418411 0.00392640 -0.00221636
v 0.19911536 0.00397763 -0.00215402
v 0.18112078 0.00380530 -0.00223184
v 0.15246352 0.00378401 -0.00214039
v 0.11468711 0.00371992 -0.00208080
v 0.09198659 0.00367685 -0.00197510
v 0.23334291 0.00404358 -0.00220847
v 0.22814920 0.00402899 -0.00255356
v 0.08499342 0.00306285 -0.00299198
v 0.08408802 0.00318662 -0.00319271
v 0.09727802 0.00280926 -0.00315515
v 0.19917047 0.00309031 -0.00331584
v 0.17857155 0.00295675 -0.00328510
v 0.14306642 0.00287781 -0.00320706
v 0.11500774 0.00279633 -0.00323045
v 0.23176816 0.00307908 -0.00356528
v 0.21681520 0.00297371 -0.00336110
v 0.23379401 0.00262318 -0.00355663
v 0.23661313 0.00344005 0.00007944
v 0.23679519 0.00253459 -0.00211428
v 0.21396640 0.00431870 0.00132263
v 0.08418333 0.00364544 0.00253446
v 0.08835584 0.00376317 0.00171894
v 0.11389532 0.00382629 0.00181160
v 0.13209813 0.00381246 0.00184740
v 0.17911154 0.00417670 0.00130097
v 0.23365231 0.00393897 0.00230528
v 0.22924256 0.00397770 0.00272683
v 0.21627917 0.00390971 0.00227534
v 0.17649747 0.00379935 0.00217733
v 0.23750251 0.00260541 -0.00001286
v 0.23683522 0.00227048 0.00223093
v 0.02212783 -0.00020125 -0.01334775
v 0.02025634 -0.00314232 -0.01332874
v 0.00915015 -0.00015776 -0.01412227
v 0.01145494 -0.00394458 -0.01381588
v 0.00325823 -0.00359627 -0.01413539
v -0.00771817 -0.00308723 -0.01435728
v -0.00962123 0.00011115 -0.01459261
v -0.01588365 -0.00353140 -0.01434828
v -0.01878448 0.00038999 -0.01462964
v -0.02465417 -0.00265053 -0.01413922
v -0.02696724 0.00042156 -0.01413792
v 0.02551979 -0.00371491 -0.01277147
v 0.04071011 -0.00289428 -0.01131601
v 0.03841637 0.00017264 -0.01179566
v 0.04850277 0.00040981 -0.01104854
v 0.05140064 -0.00309327 -0.01065281
v -0.00186660 0.00323108 -0.01418819
v 0.05784313 0.00055376 -0.01085403
v 0.05865824 -0.00270364 -0.01067255
v 0.01976864 0.00302445 -0.01316925
v 0.00972958 0.00375016 -0.01371532
v 0.06795689 0.00000073 -0.01154401
v 0.06436241 -0.00313460 -0.01093631
v 0.03297927 0.00362375 -0.01191911
v -0.00834943 0.00424295 -0.01411112
v 0.04155855 0.00408949 -0.01099116
v 0.04756136 0.00416015 -0.01056372
v 0.05604036 0.00405452 -0.01035486
v 0.02386080 0.00402916 -0.01260606
v -0.01949617 0.00452830 -0.01399788
v -0.02713493 0.00394884 -0.01361308
v 0.06300778 0.00376576 -0.01073805
v 0.00237792 0.00457011 -0.01375857
v 0.07184809 0.00457311 -0.01156393
v 0.03167398 0.00554545 -0.01134613
v 0.07112963 -0.00403096 -0.01156054
v 0.07483146 0.00011359 -0.01253387
v 0.08066746 0.00462206 -0.01306868
v -0.02884772 -0.00332924 -0.01353915
v 0.07625263 -0.00418954 -0.01232940
v -0.03145593 0.00015812 -0.01339692
v 0.08070647 0.00006466 -0.01363090
v 0.01667670 0.00603956 -0.01245100
v -0.03284068 0.00430489 -0.01244951
v 0.08116019 -0.00375361 -0.01323741
v 0.05619931 0.00629455 -0.00949614
v -0.03052125 0.00463676 -0.01280357
v 0.01172476 0.00748969 -0.01208145
v -0.00196179 0.00750870 -0.01260593
v -0.01674529 0.00766823 -0.01264890
v 0.06121216 0.00740900 -0.00914078
v 0.05066691 0.00726657 -0.00912305
v 0.04030403 0.00764726 -0.00954787
v 0.06627962 0.00447506 -0.01084686
v 0.07115251 0.00784217 -0.01005130
v 0.07747606 0.00750549 -0.01124540
v -0.02498739 0.00776002 -0.01220904
v 0.01942806 0.00783852 -0.01126358
v -0.03422447 0.00006091 -0.01264407
v 0.08288597 0.00783080 -0.01226380
v 0.08292880 0.00436114 -0.01363502
v 0.08267110 -0.00009792 -0.01423819
v 0.08293650 -0.00274343 -0.01394141
v -0.03150517 0.00743134 -0.01129916
v -0.03293441 -0.00299002 -0.01278873
v -0.02395305 -0.00492815 -0.01366786
v 0.04140391 -0.00514455 -0.01073122
v 0.02310927 -0.00541831 -0.01252325
v 0.05200521 -0.00488807 -0.01013812
v 0.05941513 -0.00530294 -0.01002244
v 0.06595827 -0.00533914 -0.01051099
v 0.00364668 -0.00539744 -0.01362979
v -0.01584015 -0.00572413 -0.01368779
v 0.03425490 -0.00593167 -0.01115794
v 0.08293864 -0.00625295 -0.01284220
v 0.07715897 -0.00734716 -0.01126400
v -0.03615220 0.00332705 -0.01135129
v 0.01412601 -0.00729597 -0.01241938
v -0.03280723 -0.00537915 -0.01212678
v -0.02887143 -0.00637790 -0.01249815
v 0.05333225 -0.00644441 -0.00944985
v -0.02462889 -0.00707444 -0.01276216
v -0.01756758 -0.00775865 -0.01274970
v 0.00016810 -0.00801160 -0.01255385
v 0.06859323 -0.00798866 -0.00958698
v 0.02387194 -0.00771648 -0.01141333
v 0.04074225 -0.00819747 -0.00929004
v 0.08291530 -0.00837235 -0.01192044
v 0.01692240 -0.00855426 -0.01155439
v -0.03688829 -0.00323917 -0.01097455
v -0.03717235 0.00017186 -0.01122395
v -0.00339793 0.00852305 -0.01200947
v 0.05632997 -0.00784948 -0.00863213
v 0.06370861 -0.00825955 -0.00876475
v 0.04559170 -0.00868841 -0.00851692
v 0.03350966 -0.00978160 -0.00879469
v 0.00444942 -0.00948710 -0.01151547
v -0.02608619 -0.00940501 -0.01117291
v -0.01875751 -0.00961616 -0.01153820
v -0.03306037 -0.00846789 -0.01029157
v 0.07835355 -0.00971315 -0.00994404
v 0.02354970 -0.00998724 -0.00988058
v -0.03681834 -0.00624251 -0.00980111
v 0.05461298 -0.00939565 -0.00739177
v 0.06936933 -0.00980543 -0.00825135
v 0.06130074 -0.00954537 -0.00750246
v -0.02484986 -0.01071776 -0.01018118
v 0.04096154 -0.01011699 -0.00756902
v -0.01993021 -0.01112972 -0.01009509
v 0.00078344 -0.01074126 -0.01037131
v 0.08170587 -0.01092345 -0.00937309
v -0.03558687 0.00709325 -0.00988333
v -0.01992783 0.01041045 -0.01063430
v 0.07912562 0.00979833 -0.00995144
v 0.00531197 0.01040250 -0.01023312
v -0.00536496 0.01064419 -0.01027690
v 0.01724726 0.01010602 -0.00974308
v 0.05109020 0.00932672 -0.00755770
v 0.03851693 0.00975989 -0.00805127
v 0.05875590 0.00917636 -0.00765488
v 0.06952623 0.00963737 -0.00842098
v -0.02604859 0.01028940 -0.01006901
v -0.03229084 0.00941650 -0.00940547
v -0.03773491 0.00649121 -0.00869141
v -0.03909889 0.00352436 -0.00893694
v 0.00832921 -0.01124719 -0.00954006
v -0.03939347 0.00023148 -0.00930705
v -0.03935307 -0.00395865 -0.00855636
v -0.03265273 -0.01081208 -0.00810784
v -0.03674630 -0.00884263 -0.00773574
v -0.03414608 0.01021470 -0.00774478
v 0.08287557 -0.00970654 -0.01039921
v 0.08303405 -0.01142023 -0.00882935
v -0.04211306 0.00000901 -0.00430241
v -0.04223495 -0.00351593 -0.00025640
v -0.04249818 -0.00016311 -0.00004206
v -0.04177630 -0.00405015 -0.00383064
v -0.04219201 0.00385620 -0.00012765
v -0.04175693 0.00423440 -0.00386561
v -0.04184238 0.00387489 0.00381125
v -0.04204339 -0.00006571 0.00456299
v -0.04174369 -0.00414502 0.00370223
v -0.04154172 -0.00602436 -0.00006032
v -0.04100873 0.00738445 -0.00012548
v -0.04075869 0.00684954 0.00377191
v -0.04057680 0.00333190 0.00720820
v -0.04061795 -0.00370796 0.00671939
v -0.04025324 -0.00002790 0.00828937
v -0.04065313 0.00698179 -0.00390863
v -0.03947645 0.00651143 0.00692448
v -0.04045877 -0.00706056 0.00395183
v -0.04060419 -0.00704578 -0.00390532
v -0.04051064 0.00336833 -0.00728672
v -0.04051383 -0.00360661 -0.00716086
v -0.04062496 -0.00006694 -0.00779912
v -0.03959001 -0.00931442 -0.00010782
v -0.03903275 -0.00716511 0.00664704
v -0.03936494 -0.00703283 -0.00641402
v -0.03923022 -0.00911946 -0.00326443
v -0.03915078 0.00698009 -0.00685305
v -0.03931501 0.00913860 0.00313058
v -0.03879946 -0.00371560 0.00916040
v -0.03831712 -0.00994154 0.00329913
v -0.03920469 0.00321567 0.00899027
v -0.03911939 0.00986599 -0.00028507
v -0.03935307 -0.00395865 -0.00855636
v -0.03939347 0.00023148 -0.00930705
v -0.03860836 0.00966153 -0.00355733
v -0.03909889 0.00352436 -0.00893694
v -0.03778001 0.00913954 0.00618300
v -0.03768493 -0.00460326 0.00989479
v -0.03706542 0.00602679 0.00979899
v -0.03711892 -0.00020040 0.01120829
v -0.03673341 0.00319995 0.01113829
v -0.03763631 -0.00768956 0.00776197
v -0.03712406 0.00788877 0.00832563
v -0.03698921 0.01117239 0.00318262
v -0.03773491 0.00649121 -0.00869141
v -0.03607982 -0.00983499 0.00686998
v -0.03673987 -0.01016583 -0.00594809
v -0.03681834 -0.00624251 -0.00980111
v -0.03551847 -0.00740235 0.00977105
v -0.03674630 -0.00884263 -0.00773574
v -0.03649005 0.00981241 -0.00645980
v 0.23755365 0.00059064 -0.00212779
v 0.23750251 0.00260541 -0.00001286
v 0.23759514 -0.00201854 0.00090532
v 0.23750288 0.00050489 0.00246625
v 0.23725518 -0.00153436 -0.00236244
v 0.23706536 -0.00262419 -0.00143958
v 0.23679519 0.00253459 -0.00211428
v 0.23691254 -0.00208405 0.00243550
v 0.23683522 0.00227048 0.00223093
v 0.23668547 0.00015584 -0.00327811
v 0.23666859 -0.00327653 0.00032571
v 0.23684253 0.00004169 0.00318238
v 0.08408806 -0.00349067 -0.00347671
v 0.08438095 -0.00157603 -0.00394640
v 0.08455358 -0.00315748 -0.00296491
v 0.08428419 -0.00455614 -0.00000357
v 0.08393966 -0.00541160 0.00022879
v 0.08452653 -0.00277538 0.00330153
v 0.08301145 -0.00820560 -0.00495064
v 0.08317551 -0.00871441 0.00001923
v 0.08333397 -0.00699069 0.00459665
v 0.08349063 -0.00420699 -0.00684556
v 0.08201566 -0.00573263 -0.01131001
v 0.08187370 -0.01147250 -0.00565740
v 0.08327653 0.00023960 -0.00868588
v 0.08223224 0.00027320 -0.01181220
v 0.08319510 0.00483760 -0.00802784
v 0.08194304 0.00678060 -0.01057273
v 0.08208748 0.01163029 -0.00516962
v 0.08319523 0.00799974 -0.00456713
v 0.08184403 0.00476853 -0.01191145
v 0.08408802 0.00318662 -0.00319271
v 0.08181187 0.01070217 -0.00775144
v 0.08238928 0.01330391 -0.00400757
v 0.08194707 0.01281413 -0.00346857
v 0.08204712 0.01349427 0.00011341
v 0.08207631 0.01212225 0.00451285
v 0.08300977 0.00985139 -0.00000436
v 0.08306742 0.01496467 0.00031115
v 0.08280878 0.01369354 0.00534685
v 0.08281643 0.01444020 -0.00375064
v 0.08283297 0.01452425 0.00360886
v 0.08184192 -0.01147514 0.00539565
v 0.08214589 0.01306743 0.00426107
v 0.08411164 -0.00299281 0.00367928
v 0.08197072 -0.01189005 -0.00185677
v 0.08194529 -0.00980742 0.00787079
v 0.08210077 0.00769146 -0.01100489
v 0.08294146 0.01348772 -0.00553387
v 0.08216601 -0.00003047 -0.01280871
v 0.08217410 -0.01168532 0.00697792
v 0.08211409 -0.01303494 0.00341643
v 0.08287318 -0.01327899 0.00518279
v 0.08298755 -0.01275548 0.00721076
v 0.08284328 -0.01408944 0.00405094
v 0.08178791 -0.01094528 -0.00765180
v 0.08189202 -0.00814214 -0.01058362
v 0.08287557 -0.00970654 -0.01039921
v 0.08303405 -0.01142023 -0.00882935
v 0.08290305 -0.01277942 -0.00701699
v 0.08286773 -0.00728226 -0.01208861
v 0.08290818 -0.01416797 0.00129238
v 0.08184036 -0.00938291 0.00932421
v 0.08291530 -0.00837235 -0.01192044
v 0.08293864 -0.00625295 -0.01284220
v 0.08293340 -0.00366299 -0.01330864
v 0.08293650 -0.00274343 -0.01394141
v 0.08296199 -0.01031218 0.00991664
v 0.08298298 -0.00808972 0.01210899
v 0.08217499 -0.00652733 0.01162267
v 0.08307746 -0.00568061 0.01313650
v 0.08221115 -0.00120556 0.01267705
v 0.08304010 -0.00001124 0.01425836
v 0.08280794 -0.01178620 0.00865616
v 0.08294477 0.00455326 0.01308730
v 0.08293080 0.00390372 0.01363235
v 0.08297327 0.00738050 0.01250653
v 0.08230151 0.00725270 0.01127133
v 0.08244590 0.00955215 0.00995486
v 0.08187681 0.00996854 0.00847964
v 0.08213492 0.00821447 0.00968817
v 0.08287080 0.01012644 0.01032334
v 0.08219853 0.00449923 0.01196740
v 0.08227150 -0.00154187 0.01191054
v 0.08319623 0.00003070 0.00907405
v 0.08345947 0.00477900 0.00701821
v 0.08418888 -0.00008470 0.00440167
v 0.08421143 0.00208163 0.00391732
v 0.08418333 0.00364544 0.00253446
v 0.08222383 -0.00539059 -0.01209445
v 0.08294164 0.00530754 -0.01290800
v 0.08292880 0.00436114 -0.01363502
v 0.08288597 0.00783080 -0.01226380
v 0.08293357 0.00790497 -0.01183195
v 0.08285004 -0.01458868 0.00112641
v 0.08280702 -0.01458179 -0.00109957
v 0.08262335 -0.01373314 -0.00323920
v 0.08273384 -0.01399409 -0.00433640
v 0.08201095 -0.00568427 0.01109826
v 0.08199952 -0.01270206 -0.00383553
v 0.08418293 0.00441785 -0.00033539
v 0.08322963 -0.00450054 0.00767980
v 0.08302483 0.00867210 0.00436230
v 0.08289307 0.01254517 0.00720062
v 0.08181739 -0.01304813 0.00094962
v 0.08215694 0.01131828 0.00768900
v 0.08298979 0.01204396 -0.00830978
v 0.08438437 -0.00157686 0.00395720
v 0.08408806 -0.00349067 -0.00347671
v 0.08349063 -0.00420699 -0.00684556
v 0.08411862 0.00055664 -0.00452274
v 0.08327653 0.00023960 -0.00868588
v 0.08319510 0.00483760 -0.00802784
v 0.08408802 0.00318662 -0.00319271
v 0.08411164 -0.00299281 0.00367928
v 0.08418888 -0.00008470 0.00440167
v 0.08322963 -0.00450054 0.00767980
v 0.08438437 -0.00157686 0.00395720
v 0.08418293 0.00441785 -0.00033539
v 0.08302483 0.00867210 0.00436230
v 0.08418333 0.00364544 0.00253446
v 0.08207631 0.01212225 0.00451285
v 0.08215694 0.01131828 0.00768900
v 0.08187681 0.00996854 0.00847964
v 0.08302483 0.00867210 0.00436230
v 0.08262335 -0.01373314 -0.00323920
v 0.08199952 -0.01270206 -0.00383553
v 0.08181739 -0.01304813 0.00094962
v 0.08290305 -0.01277942 -0.00701699
v 0.08273384 -0.01399409 -0.00433640
v 0.08289307 0.01254517 0.00720062
v 0.08244590 0.00955215 0.00995486
v 0.08215694 0.01131828 0.00768900
v 0.08214589 0.01306743 0.00426107
v 0.08289307 0.01254517 0.00720062
v 0.08279162 0.01225684 0.00796543
v 0.08287080 0.01012644 0.01032334
v 0.08280878 0.01369354 0.00534685
v 0.08293340 -0.00366299 -0.01330864
v 0.08216601 -0.00003047 -0.01280871
v 0.08222383 -0.00539059 -0.01209445
v 0.08293650 -0.00274343 -0.01394141
v 0.08292880 0.00436114 -0.01363502
v 0.08267110 -0.00009792 -0.01423819
vt 0.15741478 0.34603965
vt 0.14376904 0.32099366
vt 0.14521360 0.46765447
vt 0.15690029 0.19575769
vt 0.14260903 0.16026270
vt 0.15949848 0.09544897
vt 0.15988040 0.76191026
vt 0.14778651 0.80230963
vt 0.16103019 0.93567026
vt 0.14690776 0.64517897
vt 0.15885833 0.58871895
vt 0.14844343 0.94417059
vt 0.14942339 0.05518579
vt 0.16016743 0.05177939
vt 0.13717787 0.05127823
vt 0.14130795 0.02588731
vt 0.15924336 0.02592695
vt 0.14733768 0.95012271
vt 0.16438031 0.95002687
vt 0.16870645 0.92648780
vt 0.16681750 0.76138860
vt 0.16430096 0.27707452
vt 0.16580305 0.55765635
vt 0.16399784 0.13969082
vt 0.13307823 0.13833934
vt 0.13597287 0.67495406
vt 0.13359873 0.39221394
vt 0.13776040 0.89437157
vt 0.13534796 0.94414985
vt 0.13138802 0.95016891
vt 0.12377694 0.05015486
vt 0.12239089 0.13020033
vt 0.12589189 0.92426622
vt 0.12619327 0.23314941
vt 0.12475538 0.02315706
vt 0.15680702 0.00551701
vt 0.12454364 0.37669629
vt 0.12475777 0.65239704
vt 0.12525302 0.76553726
vt 0.13831075 0.00419605
vt 0.17634365 0.94868451
vt 0.17664374 0.06961000
vt 0.17699370 0.13797617
vt 0.17744023 0.21867603
vt 0.17815445 0.37035781
vt 0.17943239 0.77759737
vt 0.17845987 0.63300544
vt 0.18041065 0.89016980
vt 0.17612523 0.02694249
vt 0.17378668 0.00253379
vt 0.18694796 0.94773722
vt 0.19070208 0.83711004
vt 0.18921745 0.55939656
vt 0.19070208 0.06155789
vt 0.18736824 0.12756294
vt 0.18825170 0.30110753
vt 0.18240325 0.02348149
vt 0.09692004 0.38040608
vt 0.08274312 0.41878963
vt 0.09626921 0.50788134
vt 0.09619565 0.25828284
vt 0.08293270 0.13553071
vt 0.09661748 0.16509193
vt 0.09577192 0.10292315
vt 0.07971223 0.07034671
vt 0.07868214 0.11672181
vt 0.08260050 0.79971260
vt 0.09554680 0.68979841
vt 0.09457751 0.83041441
vt 0.09361988 0.93049067
vt 0.08238540 0.95331842
vt 0.10295813 0.07576340
vt 0.09990164 0.05036730
vt 0.07980357 0.05162072
vt 0.10578945 0.97188622
vt 0.07619109 0.17065150
vt 0.07999346 0.97381759
vt 0.07828235 0.96998310
vt 0.10559031 0.91975683
vt 0.10701340 0.27112997
vt 0.10738105 0.52118576
vt 0.10654422 0.73151314
vt 0.10872510 0.15397775
vt 0.07611709 0.33467048
vt 0.07590736 0.58295059
vt 0.07574082 0.81060719
vt 0.09437278 0.02807760
vt 0.07948871 0.03120500
vt 0.11742012 0.08198059
vt 0.11504937 0.04824442
vt 0.11738724 0.23861969
vt 0.11953193 0.34487808
vt 0.11984978 0.50941652
vt 0.11727121 0.89167023
vt 0.11819891 0.72729206
vt 0.12049336 0.97288388
vt 0.12049336 0.15868056
vt 0.10517848 0.02449322
vt 0.06264959 0.09596735
vt 0.06615657 0.05299014
vt 0.06356090 0.16590548
vt 0.06296411 0.96899003
vt 0.06508552 0.80434191
vt 0.06419872 0.66444337
vt 0.06433801 0.49256539
vt 0.06398109 0.33456951
vt 0.05473711 0.08649468
vt 0.05523420 0.86141741
vt 0.06110324 0.02656311
vt 0.05418480 0.58391935
vt 0.05323330 0.32575405
vt 0.05028463 0.97211552
vt 0.05247524 0.15231508
vt 0.05318565 0.04780054
vt 0.00277598 0.13112819
vt 0.01416531 0.13513780
vt 0.01315946 0.20611238
vt 0.00178559 0.24360454
vt 0.00891603 0.06356502
vt 0.00286289 0.37491214
vt 0.01464486 0.36688113
vt 0.00345379 0.60123956
vt 0.01604683 0.61623728
vt 0.00416559 0.78009874
vt 0.01566772 0.79221177
vt 0.00399376 0.89311713
vt 0.01538173 0.90241879
vt 0.01093870 0.97221160
vt 0.00175427 0.97142619
vt 0.00211385 0.03580916
vt 0.02415469 0.02663809
vt 0.00584046 0.02289575
vt 0.02428510 0.06126201
vt 0.02452865 0.94675940
vt 0.02530850 0.79785407
vt 0.02552874 0.60634947
vt 0.02538444 0.28095824
vt 0.02513483 0.13091004
vt 0.03045584 0.97232533
vt 0.00094877 0.97719592
vt 0.02388757 0.97699058
vt 0.03218804 0.81536925
vt 0.03268545 0.59023839
vt 0.03380725 0.21252096
vt 0.03183117 0.11861980
vt 0.03542368 0.06211579
vt 0.03234752 0.34336543
vt 0.03487532 0.02725488
vt 0.02577394 0.00446755
vt 0.00506701 0.00377727
vt 0.04077040 0.97532403
vt 0.04336518 0.89181536
vt 0.05597723 0.97719592
vt 0.04406162 0.13873762
vt 0.04390146 0.49943739
vt 0.04490101 0.33030581
vt 0.04388789 0.72313136
vt 0.04729620 0.22106826
vt 0.04923714 0.05893433
vt 0.04719659 0.02406102
vt 0.03867742 0.00084460
vt 0.71975005 0.55833834
vt 0.72002620 0.49732828
vt 0.69150800 0.50617158
vt 0.69246346 0.60560840
vt 0.72203195 0.68225622
vt 0.69449669 0.69553351
vt 0.68762809 0.40944707
vt 0.71955305 0.43519604
vt 0.71914345 0.29499596
vt 0.68739080 0.26347548
vt 0.71884859 0.24749142
vt 0.69531834 0.74789459
vt 0.72265899 0.73273307
vt 0.68548506 0.22224575
vt 0.71801317 0.21750939
vt 0.69568181 0.79514748
vt 0.72281283 0.76725668
vt 0.72342443 0.82245523
vt 0.69100422 0.19588685
vt 0.69096780 0.87803835
vt 0.72402972 0.87860304
vt 0.71831423 0.17929298
vt 0.74663508 0.36736441
vt 0.67335087 0.51809734
vt 0.67705047 0.40097630
vt 0.75312495 0.28230250
vt 0.75101805 0.24998945
vt 0.75296688 0.42984223
vt 0.74709684 0.21597838
vt 0.74416095 0.18053931
vt 0.74959207 0.72178656
vt 0.74912602 0.76665860
vt 0.75201303 0.81063557
vt 0.75355530 0.85108864
vt 0.75014830 0.65956020
vt 0.74953556 0.59378290
vt 0.74710470 0.50415093
vt 0.75568867 0.89197624
vt 0.69089973 0.17261535
vt 0.75856525 0.50010318
vt 0.71517247 0.89270616
vt 0.73253149 0.89273649
vt 0.68949664 0.89211583
vt 0.67524993 0.25788379
vt 0.68705416 0.83426988
vt 0.74339211 0.15929556
vt 0.77640265 0.25193405
vt 0.77836949 0.21483922
vt 0.76811737 0.61179036
vt 0.76431042 0.17911285
vt 0.77956986 0.42377460
vt 0.77830058 0.30235207
vt 0.76719117 0.69293582
vt 0.76985192 0.74360603
vt 0.76923698 0.80005968
vt 0.78763831 0.86559892
vt 0.78255004 0.89133906
vt 0.78024089 0.50549871
vt 0.71607167 0.15518183
vt 0.79682225 0.26000154
vt 0.77977633 0.70287627
vt 0.78289860 0.74724644
vt 0.78502154 0.64902842
vt 0.78640902 0.58504277
vt 0.79016483 0.80691850
vt 0.79349792 0.32388908
vt 0.79597259 0.88911766
vt 0.80938160 0.39504194
vt 0.80836850 0.46790570
vt 0.80545270 0.50566429
vt 0.78703415 0.17071116
vt 0.77245402 0.14885163
vt 0.80562085 0.21644175
vt 0.79878438 0.18778223
vt 0.81499052 0.87497854
vt 0.81197858 0.25112617
vt 0.81499052 0.30504215
vt 0.67312205 0.58381945
vt 0.67330587 0.69127023
vt 0.66905242 0.17544687
vt 0.66644984 0.89236885
vt 0.69303429 0.14840895
vt 0.68115193 0.79128468
vt 0.65801835 0.20708066
vt 0.65657192 0.26235962
vt 0.65767896 0.38782454
vt 0.65980476 0.49593914
vt 0.67417026 0.73700690
vt 0.67207617 0.78090745
vt 0.65863055 0.84567893
vt 0.74356341 0.13549376
vt 0.66993010 0.14499581
vt 0.63943303 0.42564064
vt 0.64014691 0.34019578
vt 0.65614319 0.62892509
vt 0.65749621 0.71422750
vt 0.65716332 0.75561160
vt 0.65099525 0.80580717
vt 0.65198004 0.17137039
vt 0.63295591 0.21978331
vt 0.63354832 0.25081664
vt 0.64349329 0.88348925
vt 0.63507450 0.52064323
vt 0.64862281 0.89216077
vt 0.63092977 0.37908185
vt 0.71672732 0.12584460
vt 0.63573498 0.86157590
vt 0.69116551 0.12691128
vt 0.65245390 0.14139068
vt 0.80289948 0.14613777
vt 0.35072127 0.38829452
vt 0.35237437 0.34057224
vt 0.31872663 0.39058936
vt 0.32187968 0.29197252
vt 0.35686421 0.25160491
vt 0.33180067 0.17953289
vt 0.35886779 0.16793811
vt 0.32803944 0.14505357
vt 0.36165494 0.11548442
vt 0.33101419 0.10742140
vt 0.34721458 0.45705795
vt 0.31762183 0.48117530
vt 0.34382305 0.56663430
vt 0.31612790 0.54341054
vt 0.31669956 0.59033734
vt 0.34396785 0.60519886
vt 0.31613940 0.63301373
vt 0.34252384 0.66335487
vt 0.31492668 0.67789668
vt 0.35941491 0.50337052
vt 0.30731416 0.76867616
vt 0.34054038 0.71756124
vt 0.36203954 0.07898855
vt 0.33253327 0.08698285
vt 0.39239872 0.14507568
vt 0.39005888 0.25344723
vt 0.38768536 0.30856448
vt 0.39244911 0.10956335
vt 0.37066227 0.63559806
vt 0.37277436 0.58993679
vt 0.36961210 0.67689496
vt 0.37561613 0.52557772
vt 0.38208202 0.40079105
vt 0.38743934 0.08584529
vt 0.37261504 0.73976082
vt 0.33997670 0.77333534
vt 0.37312970 0.77505684
vt 0.33560443 0.06043816
vt 0.30878040 0.73663121
vt 0.31042570 0.78522927
vt 0.40233403 0.19448113
vt 0.36353308 0.05771840
vt 0.38923305 0.05582535
vt 0.39653558 0.40208936
vt 0.40115333 0.08131599
vt 0.41241837 0.32099020
vt 0.41924146 0.15101099
vt 0.41916007 0.21444857
vt 0.33896047 0.78512675
vt 0.36801234 0.78589183
vt 0.33621979 0.78800678
vt 0.39230970 0.52582532
vt 0.39238530 0.58519572
vt 0.39179131 0.63465518
vt 0.39030915 0.67729944
vt 0.42032811 0.11220098
vt 0.38791078 0.73201245
vt 0.40700060 0.75911558
vt 0.40788624 0.78511560
vt 0.38361308 0.78577685
vt 0.40886292 0.06214899
vt 0.42514697 0.08151960
vt 0.40415379 0.68085545
vt 0.41548628 0.42213547
vt 0.41503829 0.50904316
vt 0.40838316 0.63375151
vt 0.44315541 0.23749804
vt 0.44075114 0.30361480
vt 0.43431881 0.37760860
vt 0.40841177 0.58678567
vt 0.44894803 0.14703929
vt 0.41357395 0.70015281
vt 0.42677820 0.75944656
vt 0.44521770 0.10830617
vt 0.42587170 0.05675745
vt 0.36594319 0.04199064
vt 0.41576785 0.04075539
vt 0.44201198 0.06771839
vt 0.29567751 0.21765828
vt 0.45256168 0.78078878
vt 0.29946753 0.14873570
vt 0.29224616 0.34003854
vt 0.29526082 0.61848235
vt 0.30084753 0.10815853
vt 0.29361683 0.40124905
vt 0.29513848 0.52810168
vt 0.31370839 0.07904136
vt 0.28958005 0.68050021
vt 0.33722657 0.03844631
vt 0.27247825 0.78195405
vt 0.31351697 0.05718130
vt 0.29562929 0.78387010
vt 0.39274433 0.02670515
vt 0.29642403 0.07367122
vt 0.27437353 0.74105293
vt 0.27735439 0.20176977
vt 0.27074167 0.32760125
vt 0.27284560 0.14613831
vt 0.28095472 0.45329297
vt 0.26629403 0.41023213
vt 0.27484208 0.11103195
vt 0.30164540 0.04624128
vt 0.36617064 0.02280408
vt 0.27816123 0.60509026
vt 0.27435037 0.65019804
vt 0.26814535 0.70198089
vt 0.27307314 0.50174505
vt 0.26358369 0.28579450
vt 0.30949116 0.02780801
vt 0.24762808 0.77978766
vt 0.25240442 0.73530263
vt 0.27511963 0.06863195
vt 0.45256168 0.03931326
vt 0.28864703 0.02739161
vt 0.44434765 0.02370214
vt 0.87277997 0.32545197
vt 0.90259188 0.33651721
vt 0.87255222 0.27024317
vt 0.87386405 0.37989223
vt 0.90522796 0.38043851
vt 0.90040374 0.26425660
vt 0.89939612 0.20896983
vt 0.86817378 0.15454429
vt 0.90160763 0.13849735
vt 0.90030271 0.08441484
vt 0.87001604 0.08432937
vt 0.86471403 0.11969846
vt 0.90629667 0.42616260
vt 0.87771976 0.47193933
vt 0.90867239 0.48825026
vt 0.90072495 0.52545667
vt 0.87672985 0.54654598
vt 0.90929979 0.55873913
vt 0.88368708 0.58738726
vt 0.90934753 0.61803007
vt 0.86655968 0.60451078
vt 0.88011372 0.63893682
vt 0.86257148 0.34945506
vt 0.93126190 0.31206435
vt 0.92999494 0.21876574
vt 0.93101209 0.35705602
vt 0.91037756 0.68772674
vt 0.89850003 0.06002671
vt 0.87884229 0.68546623
vt 0.86496663 0.06551760
vt 0.86173916 0.54406667
vt 0.86656368 0.49451858
vt 0.85930026 0.43586624
vt 0.86256790 0.26335895
vt 0.86606479 0.64665926
vt 0.87281060 0.71449584
vt 0.91219884 0.73748773
vt 0.87882966 0.75920880
vt 0.83858114 0.17498940
vt 0.84489316 0.30746806
vt 0.83892965 0.12603694
vt 0.83776498 0.07904822
vt 0.86713243 0.76057583
vt 0.91228181 0.76097971
vt 0.89802468 0.03270394
vt 0.87116641 0.03647381
vt 0.92992091 0.08240044
vt 0.93064398 0.13543874
vt 0.93654221 0.41468424
vt 0.93716496 0.49537861
vt 0.93631923 0.55037117
vt 0.93737531 0.58676922
vt 0.93466240 0.62461793
vt 0.94287318 0.68549114
vt 0.92296624 0.05271024
vt 0.94331127 0.75908023
vt 0.94889843 0.63401884
vt 0.94603145 0.25158918
vt 0.95782077 0.57793736
vt 0.95451778 0.35268235
vt 0.94915980 0.11661321
vt 0.96284324 0.17385340
vt 0.92481107 0.03115499
vt 0.94938928 0.46078324
vt 0.96373570 0.52381724
vt 0.97366476 0.59943718
vt 0.94062400 0.05091363
vt 0.95740604 0.67922688
vt 0.97011930 0.74013478
vt 0.96650952 0.27151346
vt 0.96134841 0.08214182
vt 0.97191262 0.75758773
vt 0.96986419 0.36948109
vt 0.97778434 0.33513749
vt 0.97114366 0.47337520
vt 0.97449285 0.12419116
vt 0.97628176 0.66760755
vt 0.94890779 0.03350049
vt 0.96053976 0.05604422
vt 0.85535258 0.04191798
vt 0.86978734 0.02189654
vt 0.84822774 0.73162049
vt 0.84169245 0.69038022
vt 0.84665823 0.75907576
vt 0.84403282 0.63348067
vt 0.84295481 0.57469130
vt 0.84163380 0.51378167
vt 0.83916557 0.45443201
vt 0.84175396 0.37542498
vt 0.92580748 0.01255149
vt 0.98035306 0.52902204
vt 0.98130608 0.23899013
vt 0.89810550 0.01052111
vt 0.83586103 0.04155505
vt 0.99053746 0.71009797
vt 0.81790918 0.26238889
vt 0.81838208 0.11867845
vt 0.82956445 0.74441767
vt 0.82205892 0.33480239
vt 0.82324123 0.37250447
vt 0.82059658 0.17250246
vt 0.83840936 0.01869231
vt 0.81676006 0.08384579
vt 0.81750929 0.05465728
vt 0.95080590 0.00786167
vt 0.99905121 0.75381416
vt 0.97868806 0.04345882
vt 0.98897809 0.47357690
vt 0.98932374 0.57738554
vt 0.99032646 0.62275517
vt 0.99577898 0.67460191
vt 0.99132234 0.38219595
vt 0.99092013 0.08396477
vt 0.96132022 0.02249992
vt 0.99464452 0.11875725
vt 0.99160063 0.25821388
vt 0.86121434 0.00481993
vt 0.99905121 0.30001205
vt 0.82377636 0.51604670
vt 0.82274818 0.56966192
vt 0.82189202 0.67356884
vt 0.82445729 0.61393517
vt 0.81650245 0.45290506
vt 0.82237768 0.75661445
vt 0.80740041 0.75421381
vt 0.81208986 0.03499913
vt 0.96994966 0.00422299
vt 0.99245495 0.01349092
vt 0.22092482 0.51019788
vt 0.22186145 0.20760334
vt 0.21442394 0.21473813
vt 0.21340612 0.59140331
vt 0.21544111 0.06282866
vt 0.22267146 0.06187421
vt 0.22032847 0.75462502
vt 0.21234219 0.86824685
vt 0.21989882 0.04703671
vt 0.21692175 0.86892658
vt 0.21057917 0.94246531
vt 0.21718635 0.94254434
vt 0.21598643 0.97191209
vt 0.23322193 0.85589588
vt 0.23290481 0.76230723
vt 0.23418596 0.65047395
vt 0.23388655 0.47233838
vt 0.23410916 0.23733813
vt 0.23378710 0.09579331
vt 0.23179089 0.97163534
vt 0.23499398 0.94121271
vt 0.24327508 0.05224019
vt 0.24433815 0.04645270
vt 0.24528995 0.12879586
vt 0.24438691 0.76267338
vt 0.24483123 0.63463444
vt 0.24496177 0.41390657
vt 0.24573055 0.23934364
vt 0.24522316 0.96334004
vt 0.24488920 0.87209362
vt 0.24573055 0.97648680
vt 0.21555500 0.99152118
vt 0.23327330 0.99437404
vt 0.20426144 0.85448658
vt 0.19658321 0.04732198
vt 0.20328292 0.07315028
vt 0.20222427 0.23233449
vt 0.20141774 0.34554601
vt 0.20508721 0.63796866
vt 0.19733626 0.97461718
vt 0.19259962 0.94808829
vt 0.19600296 0.86869830
vt 0.19766484 0.62169296
vt 0.21656774 0.99915540
vt 0.19810246 0.99702710
vt 0.53835237 0.39027929
vt 0.51530027 0.40158904
vt 0.53790760 0.47019684
vt 0.50871223 0.45573270
vt 0.51083666 0.50583917
vt 0.51404411 0.57261413
vt 0.53848147 0.58443677
vt 0.51014912 0.62205482
vt 0.53980017 0.63950127
vt 0.51677090 0.67418993
vt 0.53944677 0.68773156
vt 0.51085317 0.36884010
vt 0.51773870 0.27317053
vt 0.54224610 0.28806001
vt 0.54500896 0.22398043
vt 0.51689446 0.20509416
vt 0.56323498 0.53759587
vt 0.54719293 0.16421038
vt 0.52076548 0.15866268
vt 0.56351990 0.40486121
vt 0.56837928 0.46683455
vt 0.54391086 0.09913218
vt 0.51796120 0.12202424
vt 0.56937140 0.32233071
vt 0.57043856 0.57707542
vt 0.57417393 0.26814103
vt 0.57539356 0.23021156
vt 0.57563078 0.17619562
vt 0.57194722 0.37938821
vt 0.57128406 0.64433914
vt 0.56577945 0.68951201
vt 0.57400900 0.13157731
vt 0.57432783 0.51184338
vt 0.58135843 0.07505286
vt 0.58538914 0.33026874
vt 0.51163697 0.07857978
vt 0.54565680 0.05483729
vt 0.58239734 0.01846999
vt 0.51170999 0.69892788
vt 0.51122767 0.04564506
vt 0.53723067 0.71409178
vt 0.54600286 0.01698142
vt 0.58796751 0.42382526
vt 0.56795889 0.72365117
vt 0.51556706 0.01423287
vt 0.59496683 0.17554611
vt 0.57083142 0.71005499
vt 0.59996891 0.45428014
vt 0.59874815 0.53853834
vt 0.59791917 0.62853795
vt 0.60539097 0.14415479
vt 0.60267895 0.21053517
vt 0.60495800 0.27557015
vt 0.58032256 0.11081564
vt 0.60967857 0.08129573
vt 0.60706931 0.04075241
vt 0.59724265 0.67844832
vt 0.60431790 0.40639752
vt 0.53634846 0.73080200
vt 0.60949850 0.00620806
vt 0.58032793 0.00384486
vt 0.54500353 0.00400978
vt 0.52420998 0.00253379
vt 0.59394276 0.71825111
vt 0.51404732 0.72309667
vt 0.49930042 0.67036933
vt 0.49923041 0.26833791
vt 0.49699527 0.38352668
vt 0.50191665 0.20099795
vt 0.49908680 0.15367711
vt 0.49981111 0.11189437
vt 0.49642000 0.50326324
vt 0.49265981 0.62186337
vt 0.49250612 0.31329012
vt 0.49544877 0.00340575
vt 0.48450074 0.04073930
vt 0.56090599 0.74456882
vt 0.48108929 0.43859875
vt 0.49583885 0.72337574
vt 0.48784450 0.70022655
vt 0.48844138 0.19233704
vt 0.48194018 0.67504328
vt 0.47554007 0.63251221
vt 0.47410971 0.52416050
vt 0.47691426 0.09570050
vt 0.47718084 0.37808257
vt 0.47207209 0.27147698
vt 0.47728294 0.00426459
vt 0.47008574 0.42091733
vt 0.51098382 0.74916220
vt 0.53696221 0.75048625
vt 0.60787386 0.54736078
vt 0.47585952 0.17321980
vt 0.47288701 0.12685382
vt 0.46714053 0.24058235
vt 0.45633203 0.31621253
vt 0.46063089 0.49764311
vt 0.46103448 0.68532115
vt 0.45847657 0.64012545
vt 0.46927840 0.72801268
vt 0.46248522 0.03452325
vt 0.45546323 0.37910438
vt 0.48603517 0.75170422
vt 0.46002236 0.18377459
vt 0.45874515 0.09183496
vt 0.45917651 0.14225316
vt 0.44720912 0.67887580
vt 0.45171127 0.26885438
vt 0.44228438 0.64777511
vt 0.44687164 0.51994878
vt 0.44990778 0.01447290
vt 0.59254277 0.74533039
vt 0.62338078 0.64893925
vt 0.62903225 0.03254545
vt 0.62755001 0.49354649
vt 0.62903225 0.55961955
vt 0.62635404 0.41936290
vt 0.62314200 0.20784676
vt 0.62581831 0.28610682
vt 0.62283665 0.16030431
vt 0.62753665 0.09316868
vt 0.62204909 0.68723506
vt 0.61397755 0.72639084
vt 0.58876079 0.76173383
vt 0.56423181 0.76900518
vt 0.44117647 0.47290158
vt 0.53720069 0.76951271
vt 0.50292093 0.77111489
vt 0.44424793 0.72967488
vt 0.45991302 0.75560516
vt 0.62426937 0.74141520
vt 0.46144462 0.00592238
vt 0.44305897 0.00676620
vt 0.86426717 0.89886999
vt 0.89743465 0.91925728
vt 0.89623266 0.89708936
vt 0.87097925 0.92583942
vt 0.89268821 0.87076044
vt 0.86439431 0.87031811
vt 0.92179823 0.86813951
vt 0.92996323 0.89323962
vt 0.92737150 0.92035830
vt 0.90132737 0.93618816
vt 0.89029789 0.84621185
vt 0.92039233 0.84745967
vt 0.94871253 0.86884022
vt 0.95073569 0.91572201
vt 0.95976382 0.89020199
vt 0.86134171 0.85081291
vt 0.94628435 0.84626323
vt 0.93337566 0.94059598
vt 0.87256128 0.94767183
vt 0.83700538 0.87750071
vt 0.84328204 0.92645097
vt 0.83544326 0.90191019
vt 0.90507990 0.96197778
vt 0.95630044 0.94054496
vt 0.85118353 0.95157015
vt 0.87875432 0.96478301
vt 0.83599269 0.85051358
vt 0.91517723 0.82941461
vt 0.97344255 0.91491741
vt 0.93470186 0.96519339
vt 0.96511745 0.86744100
vt 0.88700259 0.82507247
vt 0.82980347 0.93161380
vt 0.81994134 0.90100634
vt 0.85954720 0.82773584
vt 0.82010794 0.87612969
vt 0.94192815 0.82424158
vt 0.98336810 0.92145288
vt 0.97531319 0.84441960
vt 0.99146110 0.88857210
vt 0.98931921 0.86386329
vt 0.96873909 0.94540888
vt 0.96194786 0.83116168
vt 0.91657692 0.80827701
vt 0.81747216 0.85227031
vt 0.96812928 0.96507448
vt 0.85365516 0.98057431
vt 0.81688803 0.95469272
vt 0.99146110 0.94558972
vt 0.83719981 0.97195125
vt 0.83113623 0.82401353
vt 0.29761967 0.89564192
vt 0.27610508 0.90345258
vt 0.30692393 0.92216015
vt 0.28388962 0.92523587
vt 0.31424066 0.89970911
vt 0.31973433 0.90898740
vt 0.28309822 0.88892448
vt 0.30313131 0.93327701
vt 0.27039847 0.91953605
vt 0.30495191 0.88766891
vt 0.31973433 0.92299509
vt 0.28419614 0.93255645
vt 0.52791429 0.91515040
vt 0.51375109 0.91989857
vt 0.52423382 0.91137964
vt 0.53522754 0.89147019
vt 0.54216319 0.88995063
vt 0.52207190 0.86892349
vt 0.56466979 0.92475408
vt 0.56785667 0.89113444
vt 0.55443501 0.86032093
vt 0.53429043 0.93798769
vt 0.54792088 0.96876556
vt 0.59066427 0.92975348
vt 0.50120026 0.95199913
vt 0.50238979 0.97399735
vt 0.46592537 0.94969743
vt 0.45221663 0.96909785
vt 0.41147065 0.93596482
vt 0.43928427 0.92863786
vt 0.46823651 0.97714633
vt 0.47502804 0.91573673
vt 0.42033234 0.95281798
vt 0.39787722 0.92909181
vt 0.40191790 0.92479765
vt 0.39286497 0.90152371
vt 0.39839181 0.87080324
vt 0.42228454 0.89957488
vt 0.37962312 0.90206653
vt 0.38254234 0.86706853
vt 0.38856059 0.92859590
vt 0.37855786 0.87958360
vt 0.58996040 0.85445958
vt 0.39088407 0.87343204
vt 0.52423435 0.86634839
vt 0.59362721 0.90372747
vt 0.57727152 0.83773440
vt 0.44554648 0.97259521
vt 0.39666682 0.93992978
vt 0.50516671 0.98059589
vt 0.59173208 0.84361362
vt 0.60237795 0.86753082
vt 0.60560334 0.85497534
vt 0.60139781 0.84132016
vt 0.61190277 0.86253488
vt 0.58702368 0.94330949
vt 0.56616151 0.96350920
vt 0.57989115 0.96372676
vt 0.59317338 0.95331687
vt 0.60342610 0.94099396
vt 0.56228536 0.97614545
vt 0.61352229 0.88097495
vt 0.57399374 0.82783031
vt 0.57049584 0.97455430
vt 0.55485952 0.98171294
vt 0.53542292 0.98603016
vt 0.52876133 0.99070948
vt 0.58356261 0.82240677
vt 0.56767780 0.80668163
vt 0.55453593 0.80991745
vt 0.55061030 0.79746228
vt 0.51580006 0.79701740
vt 0.50925207 0.78394479
vt 0.59466845 0.83111924
vt 0.47336042 0.78570575
vt 0.47902563 0.78293920
vt 0.45134681 0.78586042
vt 0.45052934 0.79515713
vt 0.43104252 0.79998213
vt 0.42567921 0.80981195
vt 0.44078165 0.80427945
vt 0.42714411 0.79599184
vt 0.47214389 0.79451197
vt 0.51722151 0.80253422
vt 0.50130272 0.82015896
vt 0.46272972 0.82781333
vt 0.49532756 0.85190523
vt 0.47839332 0.85232842
vt 0.46457916 0.85936505
vt 0.54638624 0.97515696
vt 0.46488869 0.98678392
vt 0.47279531 0.99070948
vt 0.44521907 0.98495638
vt 0.44393548 0.98157942
vt 0.61678714 0.88193750
vt 0.61764705 0.89683592
vt 0.61211926 0.91150141
vt 0.61471438 0.91873002
vt 0.54694653 0.81359178
vt 0.60099339 0.91775882
vt 0.46364054 0.89786035
vt 0.53430963 0.83693254
vt 0.42840573 0.85139966
vt 0.39486802 0.83200407
vt 0.60240883 0.88397104
vt 0.40788716 0.82964230
vt 0.40481862 0.95938689
vt 0.51533711 0.86406076
vt 0.73058927 0.04476351
vt 0.72390890 0.02049410
vt 0.76186752 0.03617907
vt 0.75801009 0.00591218
vt 0.79411763 0.00907964
vt 0.78290337 0.04476351
vt 0.95385236 0.76773649
vt 0.96869069 0.78462839
vt 0.92504746 0.78462839
vt 0.96236372 0.77486879
vt 0.35009488 0.87415540
vt 0.35009488 0.82854730
vt 0.32922202 0.86287916
vt 0.65559775 0.90118241
vt 0.63024324 0.90518397
vt 0.62333965 0.91457450
vt 0.65559775 0.92652029
vt 0.72148949 0.97337282
vt 0.72475410 0.98226351
vt 0.68785578 0.97564924
vt 0.75047439 0.98226351
vt 0.73025262 0.97212839
vt 0.67974955 0.93834460
vt 0.71062618 0.94679052
vt 0.68787038 0.94584429
vt 0.65749526 0.94679052
vt 0.24879268 0.54096788
vt 0.25142315 0.53531963
vt 0.24762808 0.51266891
vt 0.24762808 0.55658782
vt 0.74887991 0.07809496
vt 0.75806451 0.10287118
vt 0.75806451 0.06503379
vt 0.74516648 0.08516532
vt 0.75400674 0.13429058
vt 0.74478179 0.10386223
f 202/202 203/203 182/182
f 186/186 168/168 171/171
f 186/186 171/171 205/205
f 205/205 171/171 175/175
f 841/841 840/840 839/839
f 168/168 170/170 171/171
f 172/172 175/175 171/171
f 175/175 176/176 180/180
f 204/204 202/202 181/181
f 182/182 179/179 181/181
f 164/164 163/163 168/168
f 168/168 163/163 169/169
f 168/168 169/169 170/170
f 172/172 176/176 175/175
f 839/839 840/840 805/805
f 202/202 182/182 181/181
f 162/162 163/163 164/164
f 170/170 172/172 171/171
f 176/176 183/183 180/180
f 170/170 187/187 172/172
f 805/805 798/798 838/838
f 203/203 199/199 182/182
f 182/182 195/195 179/179
f 163/163 189/189 169/169
f 169/169 189/189 184/184
f 169/169 184/184 170/170
f 170/170 184/184 187/187
f 188/188 190/190 176/176
f 172/172 188/188 176/176
f 176/176 191/191 183/183
f 805/805 796/796 798/798
f 182/182 199/199 195/195
f 163/163 198/198 189/189
f 187/187 188/188 172/172
f 176/176 190/190 191/191
f 184/184 189/189 187/187
f 185/185 186/186 248/248
f 248/248 186/186 247/247
f 247/247 186/186 246/246
f 246/246 186/186 205/205
f 246/246 205/205 175/175
f 246/246 175/175 245/245
f 204/204 181/181 242/242
f 242/242 181/181 206/206
f 245/245 175/175 241/241
f 872/872 870/870 869/869
f 873/873 872/872 869/869
f 239/239 165/165 185/185
f 185/185 165/165 164/164
f 164/164 168/168 186/186
f 185/185 164/164 186/186
f 175/175 180/180 241/241
f 180/180 200/200 241/241
f 206/206 181/181 177/177
f 181/181 179/179 177/177
f 162/162 164/164 165/165
f 179/179 178/178 177/177
f 165/165 166/166 162/162
f 180/180 183/183 200/200
f 200/200 183/183 220/220
f 166/166 197/197 162/162
f 197/197 198/198 162/162
f 183/183 207/207 220/220
f 195/195 194/194 179/179
f 162/162 198/198 163/163
f 191/191 207/207 183/183
f 198/198 197/197 201/201
f 198/198 201/201 189/189
f 199/199 217/217 195/195
f 195/195 217/217 194/194
f 190/190 211/211 191/191
f 796/796 797/797 798/798
f 201/201 212/212 189/189
f 189/189 212/212 187/187
f 212/212 213/213 187/187
f 187/187 208/208 188/188
f 188/188 208/208 209/209
f 188/188 209/209 190/190
f 190/190 209/209 211/211
f 199/199 218/218 217/217
f 187/187 213/213 208/208
f 228/228 217/217 218/218
f 213/213 221/221 208/208
f 265/265 242/242 263/263
f 254/254 248/248 247/247
f 254/254 247/247 255/255
f 255/255 246/246 262/262
f 262/262 246/246 261/261
f 263/263 242/242 251/251
f 248/248 239/239 185/185
f 251/251 206/206 244/244
f 799/799 767/767 843/843
f 206/206 177/177 244/244
f 240/240 167/167 165/165
f 240/240 165/165 239/239
f 200/200 243/243 253/253
f 241/241 200/200 253/253
f 843/843 767/767 789/789
f 244/244 177/177 173/173
f 200/200 220/220 243/243
f 177/177 174/174 173/173
f 174/174 166/166 173/173
f 173/173 166/166 167/167
f 167/167 166/166 165/165
f 843/843 789/789 848/848
f 177/177 178/178 174/174
f 848/848 789/789 786/786
f 178/178 192/192 174/174
f 194/194 193/193 178/178
f 178/178 193/193 192/192
f 174/174 192/192 166/166
f 192/192 196/196 166/166
f 196/196 197/197 166/166
f 848/848 786/786 795/795
f 795/795 786/786 794/794
f 194/194 216/216 193/193
f 196/196 210/210 197/197
f 197/197 210/210 201/201
f 191/191 211/211 207/207
f 194/194 217/217 216/216
f 210/210 219/219 201/201
f 219/219 212/212 201/201
f 817/817 797/797 811/811
f 229/229 227/227 212/212
f 212/212 227/227 213/213
f 227/227 221/221 213/213
f 208/208 221/221 209/209
f 264/264 248/248 254/254
f 266/266 254/254 255/255
f 266/266 255/255 262/262
f 803/803 802/802 799/799
f 261/261 245/245 260/260
f 245/245 241/241 260/260
f 260/260 241/241 253/253
f 240/240 239/239 256/256
f 244/244 173/173 250/250
f 250/250 173/173 249/249
f 249/249 173/173 167/167
f 249/249 167/167 240/240
f 789/789 763/763 786/786
f 220/220 252/252 267/267
f 193/193 215/215 192/192
f 193/193 216/216 215/215
f 192/192 215/215 214/214
f 192/192 214/214 196/196
f 196/196 214/214 210/210
f 207/207 233/233 252/252
f 216/216 226/226 215/215
f 226/226 223/223 215/215
f 211/211 233/233 207/207
f 216/216 217/217 226/226
f 225/225 219/219 210/210
f 211/211 232/232 233/233
f 209/209 235/235 232/232
f 209/209 232/232 211/211
f 228/228 236/236 217/217
f 219/219 230/230 212/212
f 209/209 234/234 235/235
f 230/230 229/229 212/212
f 229/229 221/221 227/227
f 221/221 234/234 209/209
f 658/658 669/669 668/668
f 668/668 666/666 658/658
f 801/801 800/800 799/799
f 666/666 688/688 659/659
f 657/657 666/666 659/659
f 268/268 251/251 259/259
f 655/655 667/667 661/661
f 251/251 250/250 259/259
f 259/259 250/250 258/258
f 258/258 250/250 249/249
f 258/258 249/249 257/257
f 257/257 240/240 256/256
f 249/249 240/240 257/257
f 243/243 269/269 253/253
f 767/767 762/762 789/789
f 789/789 762/762 763/763
f 243/243 267/267 269/269
f 223/223 222/222 215/215
f 215/215 222/222 214/214
f 222/222 224/224 214/214
f 214/214 224/224 210/210
f 786/786 790/790 794/794
f 210/210 224/224 225/225
f 794/794 790/790 806/806
f 505/505 473/473 474/474
f 505/505 474/474 509/509
f 217/217 236/236 226/226
f 484/484 469/469 507/507
f 225/225 231/231 219/219
f 231/231 230/230 219/219
f 510/510 470/470 484/484
f 510/510 484/484 511/511
f 485/485 426/426 482/482
f 229/229 238/238 221/221
f 221/221 238/238 237/237
f 221/221 237/237 234/234
f 483/483 428/428 489/489
f 647/647 691/691 670/670
f 801/801 804/804 800/800
f 660/660 664/664 644/644
f 646/646 655/655 661/661
f 654/654 655/655 646/646
f 659/659 688/688 689/689
f 766/766 762/762 767/767
f 799/799 766/766 767/767
f 763/763 764/764 786/786
f 786/786 764/764 790/790
f 507/507 471/471 508/508
f 508/508 472/472 506/506
f 506/506 472/472 473/473
f 506/506 473/473 505/505
f 741/741 734/734 738/738
f 507/507 469/469 471/471
f 509/509 474/474 486/486
f 232/232 271/271 233/233
f 484/484 468/468 469/469
f 486/486 475/475 485/485
f 489/489 480/480 490/490
f 490/490 480/480 512/512
f 470/470 468/468 484/484
f 482/482 425/425 487/487
f 425/425 427/427 487/487
f 487/487 427/427 483/483
f 427/427 428/428 483/483
f 637/637 656/656 643/643
f 807/807 804/804 801/801
f 800/800 766/766 799/799
f 790/790 842/842 806/806
f 508/508 471/471 472/472
f 806/806 842/842 813/813
f 474/474 475/475 486/486
f 512/512 480/480 488/488
f 485/485 475/475 426/426
f 426/426 425/425 482/482
f 808/808 804/804 807/807
f 647/647 635/635 634/634
f 644/644 653/653 629/629
f 742/742 717/717 740/740
f 763/763 762/762 760/760
f 764/764 845/845 790/790
f 471/471 407/407 472/472
f 472/472 407/407 417/417
f 472/472 417/417 473/473
f 741/741 730/730 734/734
f 469/469 421/421 471/471
f 473/473 418/418 474/474
f 468/468 422/422 469/469
f 474/474 419/419 475/475
f 480/480 466/466 488/488
f 813/813 814/814 812/812
f 470/470 429/429 468/468
f 475/475 409/409 426/426
f 428/428 466/466 480/480
f 428/428 416/416 466/466
f 426/426 409/409 420/420
f 426/426 420/420 425/425
f 425/425 394/394 427/427
f 427/427 394/394 398/398
f 427/427 398/398 428/428
f 809/809 833/833 804/804
f 808/808 809/809 804/804
f 804/804 833/833 800/800
f 800/800 833/833 766/766
f 766/766 765/765 762/762
f 765/765 756/756 762/762
f 762/762 756/756 760/760
f 763/763 760/760 764/764
f 730/730 716/716 734/734
f 845/845 842/842 790/790
f 471/471 421/421 407/407
f 417/417 418/418 473/473
f 469/469 422/422 421/421
f 418/418 419/419 474/474
f 429/429 422/422 468/468
f 419/419 409/409 475/475
f 425/425 420/420 394/394
f 428/428 398/398 416/416
f 756/756 759/759 760/760
f 760/760 788/788 764/764
f 788/788 845/845 764/764
f 408/408 407/407 421/421
f 407/407 403/403 417/417
f 417/417 403/403 418/418
f 422/422 415/415 421/421
f 415/415 408/408 421/421
f 418/418 400/400 419/419
f 488/488 467/467 503/503
f 419/419 400/400 390/390
f 419/419 390/390 409/409
f 466/466 467/467 488/488
f 466/466 432/432 467/467
f 424/424 422/422 429/429
f 409/409 390/390 387/387
f 387/387 389/389 409/409
f 409/409 389/389 420/420
f 398/398 397/397 416/416
f 420/420 389/389 394/394
f 561/561 571/571 563/563
f 882/882 883/883 884/884
f 833/833 793/793 766/766
f 73/73 87/87 74/74
f 73/73 65/65 72/72
f 72/72 65/65 64/64
f 74/74 87/87 88/88
f 73/73 74/74 65/65
f 64/64 65/65 62/62
f 64/64 62/62 63/63
f 63/63 62/62 61/61
f 61/61 62/62 59/59
f 61/61 59/59 58/58
f 58/58 59/59 60/60
f 59/59 67/67 60/60
f 60/60 67/67 68/68
f 68/68 67/67 69/69
f 69/69 67/67 70/70
f 70/70 67/67 71/71
f 62/62 66/66 76/76
f 76/76 84/84 62/62
f 62/62 84/84 59/59
f 59/59 84/84 85/85
f 59/59 85/85 67/67
f 67/67 85/85 86/86
f 67/67 86/86 78/78
f 67/67 78/78 71/71
f 74/74 88/88 100/100
f 65/65 100/100 99/99
f 65/65 99/99 66/66
f 66/66 99/99 101/101
f 66/66 101/101 76/76
f 76/76 101/101 84/84
f 84/84 101/101 106/106
f 106/106 105/105 84/84
f 84/84 105/105 85/85
f 105/105 104/104 85/85
f 85/85 104/104 86/86
f 104/104 103/103 86/86
f 103/103 102/102 86/86
f 86/86 102/102 78/78
f 74/74 100/100 65/65
f 100/100 107/107 99/99
f 99/99 107/107 101/101
f 759/759 761/761 760/760
f 760/760 761/761 788/788
f 842/842 845/845 827/827
f 408/408 405/405 407/407
f 407/407 405/405 403/403
f 418/418 403/403 400/400
f 842/842 815/815 813/813
f 466/466 416/416 432/432
f 398/398 394/394 397/397
f 766/766 769/769 768/768
f 766/766 768/768 765/765
f 73/73 98/98 87/87
f 72/72 63/63 83/83
f 83/83 63/63 80/80
f 80/80 58/58 81/81
f 81/81 58/58 60/60
f 81/81 68/68 82/82
f 68/68 69/69 82/82
f 82/82 69/69 79/79
f 69/69 70/70 79/79
f 70/70 71/71 75/75
f 71/71 77/77 75/75
f 758/758 759/759 756/756
f 71/71 78/78 77/77
f 754/754 749/749 746/746
f 746/746 751/751 754/754
f 78/78 102/102 77/77
f 88/88 109/109 100/100
f 100/100 109/109 114/114
f 106/106 101/101 111/111
f 105/105 110/110 104/104
f 103/103 104/104 108/108
f 103/103 108/108 102/102
f 108/108 112/112 102/102
f 102/102 112/112 77/77
f 100/100 114/114 107/107
f 57/57 49/49 54/54
f 107/107 113/113 101/101
f 101/101 113/113 111/111
f 55/55 44/44 56/56
f 44/44 45/45 56/56
f 106/106 111/111 105/105
f 105/105 111/111 110/110
f 104/104 110/110 108/108
f 47/47 46/46 52/52
f 53/53 47/47 52/52
f 405/405 402/402 403/403
f 415/415 413/413 408/408
f 403/403 402/402 400/400
f 842/842 827/827 815/815
f 422/422 413/413 415/415
f 400/400 399/399 390/390
f 416/416 397/397 414/414
f 390/390 388/388 387/387
f 387/387 388/388 389/389
f 389/389 393/393 394/394
f 394/394 395/395 396/396
f 394/394 396/396 397/397
f 397/397 396/396 414/414
f 793/793 769/769 766/766
f 89/89 83/83 97/97
f 92/92 81/81 93/93
f 756/756 757/757 758/758
f 749/749 748/748 746/746
f 57/57 50/50 49/49
f 55/55 43/43 44/44
f 56/56 45/45 53/53
f 53/53 45/45 47/47
f 52/52 46/46 48/48
f 52/52 48/48 51/51
f 48/48 41/41 51/51
f 761/761 851/851 788/788
f 54/54 49/49 42/42
f 54/54 42/42 43/43
f 54/54 43/43 55/55
f 858/858 859/859 860/860
f 845/845 830/830 828/828
f 408/408 406/406 405/405
f 730/730 732/732 721/721
f 467/467 479/479 503/503
f 432/432 431/431 467/467
f 423/423 413/413 422/422
f 390/390 399/399 391/391
f 416/416 414/414 431/431
f 416/416 431/431 432/432
f 388/388 392/392 389/389
f 389/389 392/392 393/393
f 393/393 395/395 394/394
f 885/885 883/883 882/882
f 141/141 151/151 153/153
f 149/149 161/161 160/160
f 748/748 744/744 746/746
f 746/746 747/747 751/751
f 751/751 747/747 755/755
f 50/50 36/36 49/49
f 49/49 36/36 17/17
f 17/17 14/14 49/49
f 49/49 14/14 42/42
f 14/14 6/6 42/42
f 42/42 6/6 43/43
f 6/6 24/24 43/43
f 43/43 24/24 22/22
f 43/43 22/22 44/44
f 44/44 22/22 45/45
f 22/22 23/23 45/45
f 45/45 23/23 47/47
f 23/23 21/21 47/47
f 47/47 21/21 46/46
f 46/46 21/21 20/20
f 46/46 20/20 48/48
f 48/48 20/20 41/41
f 861/861 859/859 858/858
f 828/828 827/827 845/845
f 406/406 404/404 405/405
f 413/413 406/406 408/408
f 405/405 404/404 402/402
f 402/402 401/401 400/400
f 400/400 401/401 399/399
f 431/431 479/479 467/467
f 424/424 423/423 422/422
f 430/430 423/423 424/424
f 391/391 388/388 390/390
f 885/885 886/886 883/883
f 853/853 855/855 854/854
f 753/753 744/744 748/748
f 6/6 4/4 24/24
f 24/24 4/4 22/22
f 4/4 1/1 22/22
f 22/22 1/1 23/23
f 23/23 1/1 11/11
f 23/23 11/11 21/21
f 21/21 11/11 7/7
f 7/7 9/9 20/20
f 21/21 7/7 20/20
f 41/41 20/20 19/19
f 20/20 9/9 19/19
f 402/402 404/404 401/401
f 769/769 770/770 768/768
f 855/855 856/856 854/854
f 744/744 745/745 746/746
f 746/746 745/745 747/747
f 747/747 752/752 755/755
f 40/40 16/16 36/36
f 36/36 16/16 17/17
f 17/17 16/16 13/13
f 17/17 13/13 14/14
f 14/14 13/13 6/6
f 6/6 13/13 5/5
f 6/6 5/5 4/4
f 5/5 2/2 4/4
f 4/4 2/2 1/1
f 1/1 2/2 3/3
f 1/1 3/3 11/11
f 3/3 10/10 11/11
f 10/10 8/8 7/7
f 11/11 10/10 7/7
f 7/7 8/8 9/9
f 9/9 8/8 12/12
f 830/830 831/831 829/829
f 830/830 829/829 828/828
f 406/406 438/438 404/404
f 732/732 733/733 707/707
f 413/413 440/440 439/439
f 413/413 439/439 406/406
f 404/404 436/436 401/401
f 827/827 826/826 815/815
f 401/401 436/436 399/399
f 815/815 818/818 816/816
f 423/423 442/442 413/413
f 414/414 441/441 431/431
f 430/430 442/442 423/423
f 391/391 412/412 388/388
f 392/392 411/411 393/393
f 393/393 411/411 395/395
f 793/793 774/774 769/769
f 744/744 750/750 745/745
f 745/745 752/752 747/747
f 8/8 28/28 12/12
f 16/16 15/15 13/13
f 13/13 15/15 5/5
f 829/829 826/826 828/828
f 439/439 438/438 406/406
f 438/438 437/437 404/404
f 733/733 723/723 707/707
f 828/828 826/826 827/827
f 437/437 436/436 404/404
f 436/436 435/435 399/399
f 431/431 449/449 476/476
f 431/431 476/476 479/479
f 399/399 412/412 391/391
f 441/441 449/449 431/431
f 412/412 410/410 388/388
f 388/388 410/410 392/392
f 395/395 433/433 396/396
f 396/396 433/433 441/441
f 396/396 441/441 414/414
f 835/835 834/834 793/793
f 793/793 834/834 774/774
f 774/774 771/771 769/769
f 856/856 857/857 854/854
f 558/558 547/547 546/546
f 546/546 559/559 558/558
f 40/40 35/35 16/16
f 5/5 25/25 2/2
f 2/2 25/25 27/27
f 2/2 27/27 3/3
f 3/3 27/27 26/26
f 3/3 26/26 10/10
f 10/10 26/26 8/8
f 26/26 28/28 8/8
f 442/442 440/440 413/413
f 399/399 435/435 412/412
f 392/392 410/410 411/411
f 411/411 434/434 395/395
f 395/395 434/434 433/433
f 34/34 32/32 37/37
f 831/831 832/832 829/829
f 439/439 443/443 438/438
f 440/440 443/443 439/439
f 450/450 435/435 436/436
f 441/441 433/433 453/453
f 441/441 453/453 449/449
f 438/438 445/445 437/437
f 437/437 445/445 436/436
f 440/440 454/454 443/443
f 453/453 464/464 449/449
f 449/449 464/464 476/476
f 818/818 820/820 819/819
f 435/435 446/446 412/412
f 412/412 446/446 410/410
f 410/410 444/444 411/411
f 411/411 444/444 434/434
f 434/434 447/447 433/433
f 835/835 836/836 834/834
f 834/834 837/837 774/774
f 837/837 791/791 774/774
f 774/774 791/791 771/771
f 770/770 773/773 775/775
f 773/773 844/844 775/775
f 699/699 703/703 697/697
f 862/862 863/863 864/864
f 832/832 846/846 829/829
f 705/705 709/709 704/704
f 829/829 824/824 826/826
f 443/443 454/454 452/452
f 443/443 452/452 445/445
f 443/443 445/445 438/438
f 445/445 451/451 436/436
f 436/436 451/451 450/450
f 824/824 821/821 826/826
f 440/440 455/455 454/454
f 435/435 450/450 446/446
f 442/442 458/458 455/455
f 442/442 455/455 440/440
f 433/433 447/447 457/457
f 433/433 457/457 453/453
f 444/444 448/448 434/434
f 448/448 447/447 434/434
f 834/834 836/836 837/837
f 771/771 772/772 770/770
f 829/829 846/846 824/824
f 445/445 452/452 451/451
f 454/454 463/463 452/452
f 451/451 461/461 450/450
f 455/455 463/463 454/454
f 461/461 459/459 450/450
f 464/464 500/500 491/491
f 450/450 459/459 446/446
f 457/457 465/465 453/453
f 453/453 465/465 464/464
f 446/446 456/456 444/444
f 444/444 456/456 448/448
f 844/844 773/773 781/781
f 844/844 781/781 846/846
f 709/709 735/735 729/729
f 463/463 496/496 452/452
f 452/452 477/477 451/451
f 451/451 477/477 461/461
f 823/823 822/822 821/821
f 824/824 823/823 821/821
f 465/465 493/493 464/464
f 464/464 493/493 500/500
f 459/459 460/460 446/446
f 446/446 460/460 456/456
f 448/448 462/462 447/447
f 447/447 462/462 457/457
f 791/791 776/776 771/771
f 771/771 776/776 772/772
f 770/770 772/772 773/773
f 846/846 823/823 824/824
f 385/385 373/373 380/380
f 452/452 496/496 495/495
f 463/463 497/497 496/496
f 477/477 494/494 461/461
f 461/461 498/498 459/459
f 455/455 492/492 481/481
f 457/457 493/493 465/465
f 460/460 478/478 456/456
f 456/456 478/478 448/448
f 448/448 478/478 462/462
f 836/836 850/850 837/837
f 837/837 850/850 791/791
f 791/791 850/850 776/776
f 773/773 772/772 781/781
f 781/781 780/780 846/846
f 729/729 736/736 720/720
f 868/868 865/865 867/867
f 495/495 494/494 477/477
f 823/823 849/849 822/822
f 383/383 365/365 373/373
f 462/462 501/501 499/499
f 462/462 499/499 457/457
f 457/457 499/499 493/493
f 776/776 777/777 772/772
f 772/772 778/778 781/781
f 781/781 778/778 780/780
f 736/736 724/724 720/720
f 865/865 866/866 867/867
f 378/378 357/357 370/370
f 874/874 875/875 876/876
f 847/847 825/825 822/822
f 502/502 501/501 478/478
f 478/478 501/501 462/462
f 772/772 777/777 778/778
f 359/359 290/290 288/288
f 787/787 849/849 780/780
f 370/370 357/357 356/356
f 356/356 353/353 368/368
f 878/878 879/879 880/880
f 792/792 776/776 850/850
f 792/792 777/777 776/776
f 778/778 779/779 780/780
f 779/779 787/787 780/780
f 283/283 356/356 357/357
f 358/358 309/309 362/362
f 877/877 874/874 876/876
f 787/787 783/783 847/847
f 361/361 310/310 359/359
f 777/777 792/792 784/784
f 777/777 779/779 778/778
f 777/777 782/782 779/779
f 282/282 272/272 274/274
f 782/782 783/783 779/779
f 783/783 787/787 779/779
f 783/783 782/782 785/785
f 275/275 350/350 353/353
f 784/784 782/782 777/777
f 279/279 278/278 280/280
f 838/838 839/839 805/805
f 255/255 247/247 246/246
f 246/246 245/245 261/261
f 242/242 206/206 251/251
f 869/869 870/870 871/871
f 805/805 840/840 848/848
f 795/795 805/805 848/848
f 178/178 179/179 194/194
f 805/805 795/795 796/796
f 256/256 239/239 248/248
f 843/843 803/803 799/799
f 252/252 220/220 207/207
f 796/796 795/795 794/794
f 796/796 794/794 797/797
f 692/692 670/670 691/691
f 661/661 685/685 656/656
f 656/656 685/685 669/669
f 263/263 251/251 268/268
f 256/256 248/248 264/264
f 251/251 244/244 250/250
f 260/260 253/253 270/270
f 243/243 220/220 267/267
f 648/648 661/661 656/656
f 656/656 669/669 658/658
f 657/657 658/658 666/666
f 647/647 670/670 660/660
f 802/802 801/801 799/799
f 653/653 664/664 665/665
f 663/663 667/667 654/654
f 654/654 667/667 655/655
f 722/722 738/738 716/716
f 797/797 794/794 806/806
f 811/811 797/797 806/806
f 643/643 656/656 658/658
f 643/643 658/658 642/642
f 642/642 658/658 641/641
f 641/641 658/658 657/657
f 647/647 660/660 635/635
f 645/645 661/661 648/648
f 660/660 644/644 635/635
f 646/646 661/661 645/645
f 644/644 664/664 653/653
f 659/659 689/689 662/662
f 665/665 663/663 653/653
f 653/653 663/663 652/652
f 652/652 663/663 654/654
f 742/742 739/739 717/717
f 717/717 739/739 718/718
f 711/711 718/718 715/715
f 715/715 722/722 710/710
f 716/716 738/738 734/734
f 812/812 811/811 806/806
f 480/480 489/489 428/428
f 645/645 648/648 637/637
f 648/648 656/656 637/637
f 641/641 657/657 639/639
f 639/639 657/657 659/659
f 639/639 659/659 638/638
f 652/652 654/654 640/640
f 640/640 654/654 646/646
f 717/717 718/718 711/711
f 711/711 715/715 702/702
f 702/702 715/715 710/710
f 710/710 722/722 716/716
f 812/812 806/806 813/813
f 637/637 643/643 631/631
f 631/631 643/643 632/632
f 643/643 642/642 632/632
f 633/633 645/645 627/627
f 645/645 637/637 627/627
f 630/630 635/635 644/644
f 630/630 644/644 629/629
f 640/640 646/646 626/626
f 626/626 646/646 633/633
f 646/646 645/645 633/633
f 629/629 653/653 652/652
f 629/629 652/652 640/640
f 701/701 702/702 710/710
f 627/627 637/637 563/563
f 563/563 637/637 631/631
f 632/632 642/642 625/625
f 625/625 642/642 641/641
f 625/625 641/641 639/639
f 634/634 635/635 599/599
f 599/599 635/635 595/595
f 595/595 635/635 630/630
f 638/638 659/659 662/662
f 629/629 640/640 628/628
f 628/628 640/640 626/626
f 740/740 717/717 725/725
f 725/725 717/717 713/713
f 713/713 717/717 711/711
f 696/696 711/711 702/702
f 622/622 634/634 604/604
f 563/563 631/631 564/564
f 564/564 631/631 567/567
f 631/631 632/632 567/567
f 567/567 632/632 625/625
f 809/809 808/808 810/810
f 604/604 634/634 599/599
f 571/571 627/627 563/563
f 598/598 625/625 639/639
f 598/598 639/639 638/638
f 626/626 633/633 571/571
f 571/571 633/633 627/627
f 624/624 638/638 649/649
f 649/649 638/638 662/662
f 628/628 626/626 575/575
f 649/649 662/662 687/687
f 713/713 711/711 696/696
f 65/65 66/66 62/62
f 696/696 702/702 694/694
f 701/701 710/710 706/706
f 706/706 710/710 716/716
f 706/706 716/716 721/721
f 721/721 716/716 730/730
f 564/564 567/567 565/565
f 567/567 625/625 569/569
f 569/569 625/625 598/598
f 624/624 598/598 638/638
f 572/572 626/626 571/571
f 582/582 595/595 630/630
f 575/575 626/626 572/572
f 582/582 630/630 629/629
f 582/582 629/629 578/578
f 578/578 629/629 628/628
f 578/578 628/628 575/575
f 72/72 64/64 63/63
f 63/63 61/61 80/80
f 80/80 61/61 58/58
f 81/81 60/60 68/68
f 694/694 702/702 701/701
f 814/814 813/813 815/815
f 430/430 424/424 429/429
f 621/621 622/622 604/604
f 621/621 604/604 601/601
f 98/98 73/73 90/90
f 90/90 73/73 72/72
f 90/90 72/72 89/89
f 89/89 72/72 83/83
f 97/97 83/83 91/91
f 83/83 80/80 91/91
f 91/91 80/80 92/92
f 92/92 80/80 81/81
f 82/82 79/79 94/94
f 79/79 70/70 75/75
f 707/707 706/706 721/721
f 816/816 814/814 815/815
f 561/561 563/563 562/562
f 562/562 563/563 564/564
f 562/562 564/564 565/565
f 601/601 604/604 599/599
f 571/571 561/561 560/560
f 596/596 599/599 581/581
f 581/581 599/599 595/595
f 572/572 571/571 573/573
f 624/624 649/649 618/618
f 581/581 595/595 582/582
f 581/581 582/582 578/578
f 574/574 575/575 572/572
f 650/650 649/649 687/687
f 650/650 687/687 686/686
f 725/725 713/713 714/714
f 726/726 725/725 714/714
f 852/852 853/853 854/854
f 713/713 696/696 693/693
f 148/148 160/160 159/159
f 148/148 159/159 146/146
f 146/146 159/159 154/154
f 154/154 158/158 144/144
f 144/144 158/158 156/156
f 93/93 81/81 82/82
f 93/93 82/82 95/95
f 95/95 82/82 94/94
f 94/94 79/79 96/96
f 96/96 79/79 75/75
f 693/693 696/696 694/694
f 695/695 694/694 701/701
f 560/560 561/561 562/562
f 562/562 565/565 566/566
f 565/565 567/567 566/566
f 566/566 567/567 568/568
f 567/567 569/569 568/568
f 568/568 569/569 570/570
f 569/569 598/598 570/570
f 570/570 598/598 600/600
f 601/601 599/599 596/596
f 573/573 571/571 560/560
f 598/598 624/624 600/600
f 600/600 624/624 618/618
f 581/581 578/578 577/577
f 577/577 578/578 575/575
f 577/577 575/575 574/574
f 574/574 572/572 573/573
f 618/618 649/649 650/650
f 714/714 713/713 693/693
f 149/149 160/160 148/148
f 145/145 146/146 154/154
f 145/145 154/154 144/144
f 147/147 144/144 156/156
f 147/147 156/156 155/155
f 147/147 155/155 143/143
f 155/155 157/157 143/143
f 143/143 157/157 142/142
f 142/142 157/157 152/152
f 142/142 152/152 139/139
f 152/152 151/151 139/139
f 693/693 694/694 695/695
f 700/700 695/695 701/701
f 701/701 706/706 700/700
f 700/700 706/706 707/707
f 707/707 721/721 732/732
f 149/149 148/148 131/131
f 131/131 148/148 146/146
f 131/131 146/146 133/133
f 133/133 146/146 138/138
f 146/146 145/145 138/138
f 145/145 144/144 138/138
f 138/138 144/144 137/137
f 137/137 144/144 147/147
f 147/147 143/143 137/137
f 137/137 143/143 136/136
f 136/136 143/143 142/142
f 136/136 142/142 135/135
f 135/135 142/142 134/134
f 142/142 139/139 134/134
f 139/139 151/151 141/141
f 886/886 885/885 887/887
f 597/597 621/621 601/601
f 579/579 560/560 562/562
f 579/579 562/562 580/580
f 576/576 562/562 566/566
f 583/583 573/573 560/560
f 603/603 600/600 618/618
f 591/591 581/581 577/577
f 726/726 714/714 712/712
f 712/712 714/714 693/693
f 149/149 131/131 132/132
f 133/133 138/138 116/116
f 138/138 137/137 117/117
f 117/117 137/137 121/121
f 137/137 136/136 121/121
f 121/121 136/136 123/123
f 123/123 136/136 135/135
f 123/123 135/135 125/125
f 125/125 135/135 127/127
f 127/127 135/135 134/134
f 134/134 139/139 128/128
f 128/128 139/139 141/141
f 693/693 695/695 697/697
f 698/698 693/693 697/697
f 697/697 695/695 699/699
f 699/699 695/695 700/700
f 9/9 18/18 19/19
f 18/18 9/9 12/12
f 562/562 576/576 580/580
f 584/584 566/566 568/568
f 597/597 601/601 596/596
f 583/583 560/560 588/588
f 588/588 560/560 579/579
f 596/596 581/581 593/593
f 585/585 573/573 583/583
f 593/593 581/581 591/591
f 574/574 573/573 585/585
f 712/712 693/693 698/698
f 132/132 131/131 130/130
f 131/131 133/133 119/119
f 130/130 131/131 119/119
f 119/119 133/133 116/116
f 150/150 149/149 132/132
f 116/116 138/138 117/117
f 117/117 121/121 120/120
f 118/118 117/117 120/120
f 121/121 123/123 122/122
f 120/120 121/121 122/122
f 122/122 123/123 124/124
f 124/124 123/123 125/125
f 124/124 125/125 126/126
f 125/125 127/127 126/126
f 126/126 127/127 128/128
f 128/128 127/127 134/134
f 128/128 141/141 140/140
f 744/744 753/753 750/750
f 699/699 700/700 705/705
f 705/705 700/700 707/707
f 705/705 707/707 723/723
f 620/620 621/621 597/597
f 576/576 566/566 584/584
f 584/584 568/568 589/589
f 568/568 570/570 590/590
f 589/589 568/568 590/590
f 597/597 596/596 593/593
f 570/570 600/600 590/590
f 590/590 600/600 603/603
f 603/603 618/618 636/636
f 593/593 591/591 613/613
f 586/586 574/574 585/585
f 636/636 618/618 650/650
f 770/770 769/769 771/771
f 591/591 577/577 587/587
f 587/587 577/577 574/574
f 587/587 574/574 586/586
f 650/650 686/686 684/684
f 636/636 650/650 684/684
f 728/728 726/726 712/712
f 130/130 119/119 115/115
f 115/115 119/119 116/116
f 115/115 116/116 117/117
f 115/115 117/117 118/118
f 547/547 545/545 534/534
f 126/126 128/128 129/129
f 538/538 536/536 533/533
f 129/129 128/128 140/140
f 28/28 29/29 12/12
f 29/29 30/30 12/12
f 12/12 30/30 18/18
f 15/15 25/25 5/5
f 818/818 815/815 826/826
f 819/819 816/816 818/818
f 580/580 576/576 592/592
f 592/592 576/576 584/584
f 588/588 579/579 580/580
f 590/590 603/603 606/606
f 545/545 543/543 534/534
f 534/534 543/543 535/535
f 535/535 543/543 544/544
f 535/535 544/544 528/528
f 528/528 544/544 539/539
f 528/528 539/539 529/529
f 529/529 539/539 530/530
f 539/539 540/540 530/530
f 530/530 540/540 531/531
f 540/540 541/541 531/531
f 541/541 542/542 532/532
f 531/531 541/541 532/532
f 542/542 538/538 532/532
f 532/532 538/538 533/533
f 533/533 536/536 520/520
f 520/520 536/536 523/523
f 536/536 537/537 523/523
f 547/547 534/534 546/546
f 559/559 546/546 554/554
f 519/519 523/523 549/549
f 550/550 519/519 549/549
f 33/33 30/30 29/29
f 35/35 31/31 16/16
f 31/31 32/32 15/15
f 15/15 32/32 25/25
f 25/25 32/32 34/34
f 25/25 34/34 27/27
f 34/34 37/37 27/27
f 27/27 37/37 38/38
f 27/27 38/38 26/26
f 26/26 38/38 39/39
f 26/26 39/39 28/28
f 39/39 33/33 28/28
f 33/33 29/29 28/28
f 16/16 31/31 15/15
f 588/588 580/580 602/602
f 583/583 588/588 594/594
f 585/585 583/583 594/594
f 603/603 636/636 671/671
f 605/605 587/587 586/586
f 636/636 684/684 683/683
f 737/737 728/728 719/719
f 719/719 728/728 712/712
f 712/712 698/698 708/708
f 546/546 534/534 527/527
f 527/527 534/534 526/526
f 526/526 534/534 535/535
f 526/526 535/535 528/528
f 526/526 528/528 524/524
f 528/528 529/529 524/524
f 524/524 529/529 521/521
f 521/521 529/529 530/530
f 521/521 530/530 515/515
f 515/515 530/530 531/531
f 515/515 531/531 516/516
f 531/531 532/532 516/516
f 532/532 533/533 516/516
f 516/516 533/533 520/520
f 522/522 524/524 521/521
f 522/522 521/521 518/518
f 518/518 521/521 515/515
f 518/518 515/515 517/517
f 515/515 516/516 517/517
f 517/517 516/516 519/519
f 519/519 516/516 520/520
f 519/519 520/520 523/523
f 554/554 546/546 527/527
f 554/554 527/527 525/525
f 524/524 522/522 525/525
f 525/525 522/522 548/548
f 548/548 522/522 518/518
f 548/548 518/518 553/553
f 553/553 518/518 552/552
f 518/518 517/517 552/552
f 552/552 517/517 551/551
f 551/551 517/517 550/550
f 517/517 519/519 550/550
f 554/554 525/525 555/555
f 555/555 525/525 556/556
f 525/525 548/548 556/556
f 556/556 548/548 557/557
f 548/548 553/553 557/557
f 557/557 553/553 552/552
f 699/699 705/705 704/704
f 705/705 723/723 709/709
f 709/709 723/723 731/731
f 723/723 733/733 731/731
f 602/602 580/580 607/607
f 607/607 580/580 592/592
f 589/589 590/590 616/616
f 590/590 606/606 616/616
f 615/615 597/597 593/593
f 602/602 594/594 588/588
f 623/623 606/606 603/603
f 613/613 591/591 610/610
f 610/610 591/591 605/605
f 591/591 587/587 605/605
f 611/611 605/605 586/586
f 586/586 585/585 594/594
f 671/671 636/636 683/683
f 719/719 712/712 708/708
f 698/698 697/697 703/703
f 525/525 527/527 526/526
f 525/525 526/526 524/524
f 703/703 699/699 704/704
f 818/818 826/826 821/821
f 464/464 491/491 476/476
f 410/410 446/446 444/444
f 607/607 592/592 608/608
f 592/592 584/584 608/608
f 584/584 589/589 608/608
f 609/609 608/608 589/589
f 609/609 589/589 616/616
f 620/620 597/597 619/619
f 619/619 597/597 615/615
f 616/616 606/606 623/623
f 615/615 593/593 614/614
f 617/617 594/594 602/602
f 623/623 603/603 671/671
f 614/614 593/593 613/613
f 614/614 613/613 610/610
f 612/612 611/611 586/586
f 612/612 586/586 594/594
f 698/698 703/703 708/708
f 709/709 731/731 735/735
f 513/513 491/491 500/500
f 818/818 821/821 820/820
f 651/651 607/607 608/608
f 602/602 607/607 617/617
f 612/612 594/594 617/617
f 682/682 623/623 671/671
f 680/680 614/614 610/610
f 610/610 605/605 611/611
f 719/719 708/708 727/727
f 720/720 704/704 709/709
f 651/651 608/608 609/609
f 651/651 609/609 672/672
f 609/609 616/616 672/672
f 619/619 615/615 673/673
f 617/617 607/607 676/676
f 616/616 623/623 681/681
f 673/673 615/615 614/614
f 612/612 617/617 676/676
f 681/681 623/623 682/682
f 682/682 671/671 690/690
f 610/610 611/611 679/679
f 679/679 611/611 677/677
f 677/677 611/611 612/612
f 677/677 612/612 678/678
f 348/348 384/384 386/386
f 743/743 737/737 719/719
f 727/727 708/708 724/724
f 724/724 708/708 703/703
f 724/724 703/703 720/720
f 703/703 704/704 720/720
f 729/729 720/720 709/709
f 452/452 495/495 477/477
f 513/513 500/500 514/514
f 820/820 821/821 822/822
f 825/825 820/820 822/822
f 497/497 463/463 481/481
f 514/514 500/500 493/493
f 455/455 481/481 463/463
f 607/607 651/651 674/674
f 674/674 651/651 675/675
f 675/675 651/651 672/672
f 676/676 607/607 674/674
f 673/673 614/614 680/680
f 678/678 612/612 676/676
f 345/345 349/349 333/333
f 680/680 610/610 679/679
f 324/324 337/337 341/341
f 346/346 384/384 348/348
f 743/743 719/719 727/727
f 461/461 494/494 498/498
f 459/459 498/498 460/460
f 458/458 492/492 455/455
f 330/330 351/351 344/344
f 681/681 672/672 616/616
f 329/329 344/344 343/343
f 329/329 343/343 334/334
f 336/336 340/340 335/335
f 334/334 343/343 337/337
f 333/333 349/349 346/346
f 326/326 334/334 337/337
f 326/326 337/337 325/325
f 325/325 337/337 324/324
f 341/341 336/336 324/324
f 324/324 336/336 323/323
f 347/347 364/364 374/374
f 360/360 380/380 373/373
f 359/359 354/354 376/376
f 376/376 354/354 375/375
f 375/375 354/354 357/357
f 375/375 357/357 378/378
f 377/377 359/359 376/376
f 382/382 366/366 377/377
f 378/378 370/370 371/371
f 381/381 366/366 382/382
f 460/460 498/498 504/504
f 460/460 504/504 502/502
f 460/460 502/502 478/478
f 329/329 330/330 344/344
f 327/327 342/342 345/345
f 335/335 340/340 317/317
f 317/317 340/340 339/339
f 327/327 345/345 333/333
f 328/328 329/329 334/334
f 328/328 334/334 326/326
f 336/336 335/335 323/323
f 323/323 335/335 315/315
f 333/333 346/346 332/332
f 332/332 346/346 348/348
f 332/332 348/348 314/314
f 302/302 326/326 325/325
f 302/302 325/325 300/300
f 300/300 325/325 301/301
f 301/301 325/325 324/324
f 301/301 324/324 303/303
f 324/324 323/323 303/303
f 314/314 348/348 364/364
f 347/347 314/314 364/364
f 360/360 347/347 374/374
f 359/359 288/288 354/354
f 288/288 286/286 354/354
f 354/354 286/286 285/285
f 362/362 360/360 373/373
f 354/354 285/285 357/357
f 366/366 359/359 377/377
f 365/365 362/362 373/373
f 361/361 366/366 381/381
f 371/371 370/370 356/356
f 371/371 356/356 368/368
f 372/372 365/365 383/383
f 368/368 367/367 379/379
f 379/379 367/367 369/369
f 317/317 339/339 338/338
f 317/317 338/338 319/319
f 338/338 342/342 319/319
f 319/319 342/342 318/318
f 318/318 342/342 327/327
f 335/335 317/317 315/315
f 327/327 333/333 316/316
f 306/306 328/328 326/326
f 316/316 333/333 332/332
f 302/302 306/306 326/326
f 323/323 315/315 303/303
f 303/303 315/315 304/304
f 316/316 332/332 314/314
f 301/301 303/303 287/287
f 287/287 303/303 291/291
f 289/289 302/302 300/300
f 289/289 300/300 287/287
f 287/287 300/300 301/301
f 284/284 287/287 291/291
f 314/314 347/347 313/313
f 289/289 287/287 288/288
f 286/286 287/287 284/284
f 309/309 313/313 347/347
f 290/290 289/289 288/288
f 288/288 287/287 286/286
f 286/286 284/284 285/285
f 309/309 347/347 360/360
f 310/310 290/290 359/359
f 357/357 285/285 283/283
f 309/309 360/360 362/362
f 361/361 359/359 366/366
f 365/365 358/358 362/362
f 355/355 358/358 365/365
f 368/368 353/353 350/350
f 368/368 350/350 367/367
f 367/367 350/350 352/352
f 367/367 352/352 369/369
f 352/352 355/355 369/369
f 369/369 355/355 372/372
f 372/372 355/355 365/365
f 331/331 330/330 308/308
f 308/308 330/330 329/329
f 297/297 317/317 319/319
f 297/297 319/319 312/312
f 312/312 319/319 318/318
f 318/318 327/327 296/296
f 308/308 329/329 328/328
f 315/315 317/317 298/298
f 298/298 317/317 297/297
f 296/296 327/327 299/299
f 299/299 327/327 316/316
f 306/306 308/308 328/328
f 315/315 298/298 304/304
f 299/299 316/316 305/305
f 305/305 316/316 314/314
f 291/291 303/303 304/304
f 291/291 304/304 272/272
f 305/305 314/314 313/313
f 306/306 302/302 293/293
f 294/294 305/305 313/313
f 289/289 293/293 302/302
f 284/284 291/291 282/282
f 282/282 291/291 272/272
f 292/292 293/293 289/289
f 292/292 289/289 290/290
f 284/284 282/282 283/283
f 295/295 294/294 309/309
f 294/294 313/313 309/309
f 310/310 292/292 290/290
f 285/285 284/284 283/283
f 283/283 282/282 274/274
f 283/283 274/274 356/356
f 295/295 309/309 358/358
f 361/361 292/292 310/310
f 356/356 274/274 353/353
f 353/353 274/274 275/275
f 281/281 295/295 358/358
f 878/878 881/881 879/879
f 363/363 292/292 361/361
f 352/352 281/281 355/355
f 281/281 358/358 355/355
f 312/312 318/318 296/296
f 321/321 331/331 308/308
f 297/297 312/312 296/296
f 304/304 298/298 272/272
f 272/272 298/298 273/273
f 273/273 298/298 276/276
f 276/276 298/298 297/297
f 276/276 297/297 278/278
f 278/278 297/297 296/296
f 296/296 299/299 280/280
f 307/307 308/308 306/306
f 307/307 306/306 293/293
f 280/280 299/299 305/305
f 278/278 296/296 280/280
f 280/280 305/305 294/294
f 307/307 293/293 292/292
f 277/277 276/276 278/278
f 277/277 278/278 279/279
f 280/280 294/294 281/281
f 281/281 294/294 295/295
f 272/272 273/273 274/274
f 274/274 273/273 275/275
f 273/273 276/276 275/275
f 275/275 276/276 277/277
f 311/311 307/307 292/292
f 320/320 307/307 311/311
f 279/279 280/280 281/281
f 275/275 277/277 279/279
f 311/311 292/292 363/363
f 275/275 279/279 350/350
f 352/352 279/279 281/281
f 350/350 279/279 352/352
f 320/320 321/321 308/308
f 322/322 321/321 320/320
f 320/320 308/308 307/307
f 311/311 322/322 320/320