# https://github.com/mikedh/trimesh
v 0.05763186 0.05678879 0.00112851 0.54509804 0.71372549 0.60000000
v 0.05763186 0.05658857 0.00240072 0.54509804 0.71372549 0.60000000
v 0.05915199 0.05656633 0.00235397 0.54509804 0.71372549 0.60000000
v 0.09603749 0.05559859 0.00112851 0.54509804 0.71372549 0.60000000
v 0.05988969 0.05664419 -0.00041250 0.54509804 0.71372549 0.60000000
v 0.05763186 0.05668869 -0.00056276 0.54509804 0.71372549 0.60000000
v 0.03954678 0.05678879 0.00112851 0.54509804 0.71372549 0.60000000
v 0.03954678 0.05658857 0.00240072 0.54509804 0.71372549 0.60000000
v 0.05988969 0.05463085 0.00511210 0.54509804 0.71372549 0.60000000
v 0.09377965 0.05460861 0.00511210 0.54509804 0.71372549 0.60000000
v 0.09603749 0.05459748 0.00509206 0.54509804 0.71372549 0.60000000
v 0.09603749 0.05526489 0.00338910 0.54509804 0.71372549 0.60000000
v 0.09829533 0.05544286 0.00112851 0.54509804 0.71372549 0.60000000
v 0.09603749 0.05538725 -0.00112874 0.54509804 0.71372549 0.60000000
v 0.05763186 0.05622150 -0.00169306 0.54509804 0.71372549 0.60000000
v 0.03954678 0.05668869 -0.00056276 0.54509804 0.71372549 0.60000000
v 0.09603749 0.05469759 -0.00305709 0.54509804 0.71372549 0.60000000
v 0.03728894 0.05668869 -0.00056109 0.54509804 0.71372549 0.60000000
v 0.03728894 0.05677767 0.00112851 0.54509804 0.71372549 0.60000000
v 0.03728894 0.05658857 0.00239905 0.54509804 0.71372549 0.60000000
v -0.09377756 0.05460861 0.00511210 0.54509804 0.71372549 0.60000000
v 0.03728894 0.05463085 0.00511210 0.54509804 0.71372549 0.60000000
v 0.09377965 0.05372986 0.00624072 0.54509804 0.71372549 0.60000000
v 0.09603749 0.05371873 0.00622236 0.54509804 0.71372549 0.60000000
v 0.09829533 0.05451962 0.00496684 0.54509804 0.71372549 0.60000000
v 0.09829533 0.05510916 0.00338910 0.54509804 0.71372549 0.60000000
v 0.09829533 0.05523152 -0.00112874 0.54509804 0.71372549 0.60000000
v 0.10057553 0.05502017 0.00112851 0.54509804 0.71372549 0.60000000
v 0.09829533 0.05461973 -0.00292353 0.54509804 0.71372549 0.60000000
v 0.05763186 0.05509803 -0.00314391 0.54509804 0.71372549 0.60000000
v 0.03954678 0.05622150 -0.00169306 0.54509804 0.71372549 0.60000000
v 0.09603749 0.05397457 -0.00418572 0.54509804 0.71372549 0.60000000
v 0.09377965 0.05398570 -0.00420742 0.54509804 0.71372549 0.60000000
v 0.03728894 0.05622150 -0.00168972 0.54509804 0.71372549 0.60000000
v -0.09377756 0.05470872 -0.00307713 0.54509804 0.71372549 0.60000000
v -0.09377756 0.05542061 -0.00112874 0.54509804 0.71372549 0.60000000
v -0.09377756 0.05562084 0.00112851 0.54509804 0.71372549 0.60000000
v -0.09377756 0.05528713 0.00338910 0.54509804 0.71372549 0.60000000
v -0.09603541 0.05459748 0.00509039 0.54509804 0.71372549 0.60000000
v -0.09377756 0.05372986 0.00624072 0.54509804 0.71372549 0.60000000
v 0.09377965 0.05260639 0.00721408 0.54509804 0.71372549 0.60000000
v 0.09603749 0.05258414 0.00720573 0.54509804 0.71372549 0.60000000
v 0.09829533 0.05248403 0.00714730 0.54509804 0.71372549 0.60000000
v 0.09829533 0.05361862 0.00609714 0.54509804 0.71372549 0.60000000
v 0.09997195 0.05437501 0.00474813 0.54509804 0.71372549 0.60000000
v 0.10066494 0.05461973 0.00348928 0.54509804 0.71372549 0.60000000
v 0.10057553 0.05479770 -0.00112874 0.54509804 0.71372549 0.60000000
v 0.10057553 0.05439726 -0.00254287 0.54509804 0.71372549 0.60000000
v 0.10207330 0.05438614 0.00280309 0.54509804 0.71372549 0.60000000
v 0.10231921 0.05448625 0.00112851 0.54509804 0.71372549 0.60000000
v 0.10202859 0.05437501 -0.00112874 0.54509804 0.71372549 0.60000000
v 0.09829533 0.05387446 -0.00405382 0.54509804 0.71372549 0.60000000
v 0.05763186 0.05398570 -0.00427254 0.54509804 0.71372549 0.60000000
v 0.03954678 0.05509803 -0.00314391 0.54509804 0.71372549 0.60000000
v 0.03728894 0.05509803 -0.00314224 0.54509804 0.71372549 0.60000000
v 0.09829533 0.05275099 -0.00513069 0.54509804 0.71372549 0.60000000
v 0.09603749 0.05283998 -0.00518579 0.54509804 0.71372549 0.60000000
v 0.09377965 0.05286223 -0.00519247 0.54509804 0.71372549 0.60000000
v -0.09377756 0.05398570 -0.00420742 0.54509804 0.71372549 0.60000000
v -0.09603541 0.05469759 -0.00305375 0.54509804 0.71372549 0.60000000
v -0.09603541 0.05538725 -0.00112874 0.54509804 0.71372549 0.60000000
v -0.09603541 0.05559859 0.00112851 0.54509804 0.71372549 0.60000000
v -0.09603541 0.05526489 0.00338910 0.54509804 0.71372549 0.60000000
v -0.09831560 0.05450849 0.00494848 0.54509804 0.71372549 0.60000000
v -0.09603541 0.05371873 0.00621902 0.54509804 0.71372549 0.60000000
v -0.09603541 0.05258414 0.00720573 0.54509804 0.71372549 0.60000000
v -0.09377756 0.05260639 0.00721408 0.54509804 0.71372549 0.60000000
v 0.09377965 0.05084889 0.00801046 0.54509804 0.71372549 0.60000000
v 0.09603749 0.05084889 0.00800045 0.54509804 0.71372549 0.60000000
v 0.09829533 0.05084889 0.00792699 0.54509804 0.71372549 0.60000000
v 0.10057553 0.05084889 0.00769659 0.54509804 0.71372549 0.60000000
v 0.10057553 0.05225044 0.00698368 0.54509804 0.71372549 0.60000000
v 0.10066494 0.05350739 0.00555954 0.54509804 0.71372549 0.60000000
v 0.10272159 0.05266201 0.00572984 0.54509804 0.71372549 0.60000000
v 0.10146972 0.05417479 0.00431070 0.54509804 0.71372549 0.60000000
v 0.10171563 0.05424153 -0.00227073 0.54509804 0.71372549 0.60000000
v 0.10057553 0.05364087 -0.00367316 0.54509804 0.71372549 0.60000000
v 0.10283337 0.05387446 0.00348928 0.54509804 0.71372549 0.60000000
v 0.10343695 0.05401906 0.00112851 0.54509804 0.71372549 0.60000000
v 0.10316869 0.05390783 -0.00112874 0.54509804 0.71372549 0.60000000
v 0.10057553 0.05250628 -0.00497042 0.54509804 0.71372549 0.60000000
v 0.03728894 0.05398570 -0.00427254 0.54509804 0.71372549 0.60000000
v 0.09829533 0.05084889 -0.00615414 0.54509804 0.71372549 0.60000000
v 0.10057553 0.05084889 -0.00592708 0.54509804 0.71372549 0.60000000
v 0.09603749 0.05084889 -0.00622593 0.54509804 0.71372549 0.60000000
v 0.09377965 0.05084889 -0.00623428 0.54509804 0.71372549 0.60000000
v -0.09377756 0.05286223 -0.00519247 0.54509804 0.71372549 0.60000000
v -0.09603541 0.05283998 -0.00518412 0.54509804 0.71372549 0.60000000
v -0.09603541 0.05397457 -0.00418405 0.54509804 0.71372549 0.60000000
v -0.09831560 0.05460861 -0.00290182 0.54509804 0.71372549 0.60000000
v -0.09831560 0.05520927 -0.00112874 0.54509804 0.71372549 0.60000000
v -0.09831560 0.05542061 0.00112851 0.54509804 0.71372549 0.60000000
v -0.09831560 0.05508691 0.00338910 0.54509804 0.71372549 0.60000000
v -0.09990279 0.05436389 0.00472476 0.54509804 0.71372549 0.60000000
v -0.09831560 0.05360750 0.00607878 0.54509804 0.71372549 0.60000000
v -0.09831560 0.05247291 0.00714229 0.54509804 0.71372549 0.60000000
v -0.09831560 0.05084889 0.00791864 0.54509804 0.71372549 0.60000000
v -0.09603541 0.05084889 0.00800045 0.54509804 0.71372549 0.60000000
v -0.09377756 0.05084889 0.00801046 0.54509804 0.71372549 0.60000000
v 0.09377965 0.04859084 0.00845290 0.54509804 0.71372549 0.60000000
v 0.09603749 0.04859084 0.00844789 0.54509804 0.71372549 0.60000000
v 0.09829533 0.04859084 0.00841784 0.54509804 0.71372549 0.60000000
v 0.10057553 0.04859084 0.00833603 0.54509804 0.71372549 0.60000000
v 0.10283337 0.04859084 0.00812232 0.54509804 0.71372549 0.60000000
v 0.10272159 0.05090451 0.00724747 0.54509804 0.71372549 0.60000000
v 0.10187211 0.05205022 0.00684010 0.54509804 0.71372549 0.60000000
v 0.10339224 0.05169427 0.00653624 0.54509804 0.71372549 0.60000000
v 0.10457705 0.05235055 0.00502862 0.54509804 0.71372549 0.60000000
v 0.10620895 0.05197236 -0.00225904 0.54509804 0.71372549 0.60000000
v 0.10471118 0.05242842 -0.00293188 0.54509804 0.71372549 0.60000000
v 0.10276631 0.05308470 -0.00335428 0.54509804 0.71372549 0.60000000
v 0.10229685 0.05222820 -0.00474502 0.54509804 0.71372549 0.60000000
v 0.10609718 0.05189449 0.00428733 0.54509804 0.71372549 0.60000000
v 0.10524769 0.05266201 0.00347592 0.54509804 0.71372549 0.60000000
v 0.10509120 0.05316256 0.00112851 0.54509804 0.71372549 0.60000000
v 0.10531476 0.05272875 -0.00135580 0.54509804 0.71372549 0.60000000
v 0.09603749 0.04632166 -0.00801904 0.54509804 0.71372549 0.60000000
v 0.09377965 0.04632166 -0.00812256 0.54509804 0.71372549 0.60000000
v 0.09377965 0.04837949 -0.00730113 0.54509804 0.71372549 0.60000000
v 0.10296749 0.05102687 -0.00527929 0.54509804 0.71372549 0.60000000
v 0.10509120 0.04859084 -0.00582523 0.54509804 0.71372549 0.60000000
v 0.10283337 0.04859084 -0.00634948 0.54509804 0.71372549 0.60000000
v 0.09829533 0.04632166 -0.00774523 0.54509804 0.71372549 0.60000000
v 0.09152181 0.04839062 -0.00731115 0.54509804 0.71372549 0.60000000
v -0.09377756 0.05084889 -0.00623428 0.54509804 0.71372549 0.60000000
v -0.09603541 0.05084889 -0.00622426 0.54509804 0.71372549 0.60000000
v -0.09831560 0.05084889 -0.00614746 0.54509804 0.71372549 0.60000000
v -0.09831560 0.05273987 -0.00512569 0.54509804 0.71372549 0.60000000
v -0.09831560 0.05386334 -0.00403212 0.54509804 0.71372549 0.60000000
v -0.10017105 0.05443063 -0.00260297 0.54509804 0.71372549 0.60000000
v -0.10077463 0.05466422 -0.00133744 0.54509804 0.71372549 0.60000000
v -0.10057344 0.05497568 0.00112851 0.54509804 0.71372549 0.60000000
v -0.10061814 0.05459748 0.00346256 0.54509804 0.71372549 0.60000000
v -0.10142292 0.05415255 0.00426396 0.54509804 0.71372549 0.60000000
v -0.10267479 0.05262864 0.00571147 0.54509804 0.71372549 0.60000000
v -0.10061814 0.05348514 0.00554618 0.54509804 0.71372549 0.60000000
v -0.10184766 0.05203910 0.00682841 0.54509804 0.71372549 0.60000000
v -0.10057344 0.05222820 0.00697032 0.54509804 0.71372549 0.60000000
v -0.10057344 0.05084889 0.00767655 0.54509804 0.71372549 0.60000000
v -0.10283128 0.04859084 0.00809895 0.54509804 0.71372549 0.60000000
v -0.10057344 0.04859084 0.00832935 0.54509804 0.71372549 0.60000000
v -0.09831560 0.04859084 0.00841450 0.54509804 0.71372549 0.60000000
v -0.09603541 0.04859084 0.00844789 0.54509804 0.71372549 0.60000000
v -0.09377756 0.04859084 0.00845290 0.54509804 0.71372549 0.60000000
v 0.09377965 0.04632166 0.00854305 0.54509804 0.71372549 0.60000000
v 0.09603749 0.04632166 0.00853972 0.54509804 0.71372549 0.60000000
v 0.10057553 0.04632166 0.00850966 0.54509804 0.71372549 0.60000000
v 0.10283337 0.04632166 0.00844789 0.54509804 0.71372549 0.60000000
v 0.10509120 0.04632166 0.00821749 0.54509804 0.71372549 0.60000000
v 0.10527004 0.04877994 0.00745450 0.54509804 0.71372549 0.60000000
v 0.10464411 0.05019261 0.00705881 0.54509804 0.71372549 0.60000000
v 0.10616424 0.04966981 0.00674660 0.54509804 0.71372549 0.60000000
v 0.10535947 0.05103799 0.00588844 0.54509804 0.71372549 0.60000000
v 0.10647721 0.05216145 -0.00075142 0.54509804 0.71372549 0.60000000
v 0.10728198 0.05134945 -0.00135580 0.54509804 0.71372549 0.60000000
v 0.10860092 0.04983666 -0.00242600 0.54509804 0.71372549 0.60000000
v 0.10723727 0.05034834 -0.00326245 0.54509804 0.71372549 0.60000000
v 0.10641015 0.04989228 -0.00465487 0.54509804 0.71372549 0.60000000
v 0.10531476 0.05158304 -0.00356631 0.54509804 0.71372549 0.60000000
v 0.10379463 0.05189449 -0.00443782 0.54509804 0.71372549 0.60000000
v 0.10725963 0.05122709 0.00347592 0.54509804 0.71372549 0.60000000
v 0.10643250 0.05213921 0.00278138 0.54509804 0.71372549 0.60000000
v 0.10734905 0.05023710 0.00509039 0.54509804 0.71372549 0.60000000
v 0.10851150 0.04974767 0.00455947 0.54509804 0.71372549 0.60000000
v 0.10656663 0.05223932 0.00112851 0.54509804 0.71372549 0.60000000
v 0.09829533 0.04406361 -0.00836798 0.54509804 0.71372549 0.60000000
v 0.09603749 0.04406361 -0.00842475 0.54509804 0.71372549 0.60000000
v 0.09152181 0.04632166 -0.00813257 0.54509804 0.71372549 0.60000000
v 0.10509120 0.05034834 -0.00495038 0.54509804 0.71372549 0.60000000
v 0.10723727 0.04847960 -0.00497375 0.54509804 0.71372549 0.60000000
v 0.10734905 0.04632166 -0.00581021 0.54509804 0.71372549 0.60000000
v 0.10509120 0.04632166 -0.00644297 0.54509804 0.71372549 0.60000000
v 0.10057553 0.04406361 -0.00802739 0.54509804 0.71372549 0.60000000
v 0.07569457 0.04839062 -0.00731115 0.54509804 0.71372549 0.60000000
v 0.07569457 0.04632166 -0.00813257 0.54509804 0.71372549 0.60000000
v -0.09603541 0.04859084 -0.00665167 0.54509804 0.71372549 0.60000000
v -0.09831560 0.04859084 -0.00663330 0.54509804 0.71372549 0.60000000
v -0.10057344 0.04859084 -0.00655984 0.54509804 0.71372549 0.60000000
v -0.10283128 0.04859084 -0.00632944 0.54509804 0.71372549 0.60000000
v -0.10057344 0.05084889 -0.00590871 0.54509804 0.71372549 0.60000000
v -0.10057344 0.05249516 -0.00495706 0.54509804 0.71372549 0.60000000
v -0.10077463 0.05374098 -0.00336930 0.54509804 0.71372549 0.60000000
v -0.10166883 0.05423041 -0.00222899 0.54509804 0.71372549 0.60000000
v -0.10209357 0.05439726 -0.00072304 0.54509804 0.71372549 0.60000000
v -0.10227241 0.05446400 0.00112851 0.54509804 0.71372549 0.60000000
v -0.10204886 0.05437501 0.00275801 0.54509804 0.71372549 0.60000000
v -0.10280892 0.05384109 0.00346256 0.54509804 0.71372549 0.60000000
v -0.10455260 0.05232830 0.00500024 0.54509804 0.71372549 0.60000000
v -0.10334544 0.05166090 0.00650618 0.54509804 0.71372549 0.60000000
v -0.10459731 0.05015924 0.00704212 0.54509804 0.71372549 0.60000000
v -0.10267479 0.05088226 0.00722577 0.54509804 0.71372549 0.60000000
v -0.10283128 0.04632166 0.00844288 0.54509804 0.71372549 0.60000000
v -0.10524560 0.04875769 0.00743279 0.54509804 0.71372549 0.60000000
v -0.10508912 0.04632166 0.00819578 0.54509804 0.71372549 0.60000000
v -0.10057344 0.04632166 0.00850799 0.54509804 0.71372549 0.60000000
v -0.09831560 0.04632166 0.00852469 0.54509804 0.71372549 0.60000000
v -0.09603541 0.04632166 0.00853972 0.54509804 0.71372549 0.60000000
v -0.09377756 0.04632166 0.00854305 0.54509804 0.71372549 0.60000000
v 0.09829533 0.04406361 0.00855307 0.54509804 0.71372549 0.60000000
v 0.10057553 0.04406361 0.00855140 0.54509804 0.71372549 0.60000000
v 0.10283337 0.04406361 0.00853137 0.54509804 0.71372549 0.60000000
v 0.10509120 0.04406361 0.00844455 0.54509804 0.71372549 0.60000000
v 0.10734905 0.04406361 0.00810062 0.54509804 0.71372549 0.60000000
v 0.10752788 0.04651076 0.00744615 0.54509804 0.71372549 0.60000000
v 0.10690195 0.04815702 0.00711725 0.54509804 0.71372549 0.60000000
v 0.10842208 0.04737839 0.00673825 0.54509804 0.71372549 0.60000000
v 0.10752788 0.04877994 0.00630751 0.54509804 0.71372549 0.60000000
v 0.10770672 0.05132720 0.00112851 0.54509804 0.71372549 0.60000000
v 0.10882447 0.05005913 -0.00112874 0.54509804 0.71372549 0.60000000
v 0.11009870 0.04850185 -0.00131407 0.54509804 0.71372549 0.60000000
v 0.11072463 0.04742288 -0.00219059 0.54509804 0.71372549 0.60000000
v 0.10909273 0.04847960 -0.00326245 0.54509804 0.71372549 0.60000000
v 0.10793028 0.04915813 -0.00393195 0.54509804 0.71372549 0.60000000
v 0.10864563 0.04765647 -0.00464819 0.54509804 0.71372549 0.60000000
v 0.10873505 0.04997014 0.00338910 0.54509804 0.71372549 0.60000000
v 0.10898095 0.04859084 0.00508371 0.54509804 0.71372549 0.60000000
v 0.11063521 0.04730052 0.00423223 0.54509804 0.71372549 0.60000000
v 0.10996456 0.04847960 0.00344253 0.54509804 0.71372549 0.60000000
v 0.10057553 0.04180556 -0.00838134 0.54509804 0.71372549 0.60000000
v 0.09829533 0.04180556 -0.00842809 0.54509804 0.71372549 0.60000000
v 0.09603749 0.03954750 -0.00845981 0.54509804 0.71372549 0.60000000
v 0.08474829 0.03728945 -0.00849988 0.54509804 0.71372549 0.60000000
v 0.07117890 0.04406361 -0.00842475 0.54509804 0.71372549 0.60000000
v 0.10907037 0.04632166 -0.00493702 0.54509804 0.71372549 0.60000000
v 0.10976337 0.04416372 -0.00525090 0.54509804 0.71372549 0.60000000
v 0.10960689 0.04180556 -0.00587365 0.54509804 0.71372549 0.60000000
v 0.10734905 0.04406361 -0.00632944 0.54509804 0.71372549 0.60000000
v 0.10283337 0.04180556 -0.00785209 0.54509804 0.71372549 0.60000000
v -0.10057344 0.04632166 -0.00670009 0.54509804 0.71372549 0.60000000
v -0.10283128 0.04632166 -0.00665501 0.54509804 0.71372549 0.60000000
v -0.10508912 0.04632166 -0.00642461 0.54509804 0.71372549 0.60000000
v -0.10508912 0.04859084 -0.00578182 0.54509804 0.71372549 0.60000000
v -0.10292069 0.05100462 -0.00525925 0.54509804 0.71372549 0.60000000
v -0.10225005 0.05221707 -0.00473167 0.54509804 0.71372549 0.60000000
v -0.10292069 0.05282886 -0.00354628 0.54509804 0.71372549 0.60000000
v -0.10466438 0.05240617 -0.00289848 0.54509804 0.71372549 0.60000000
v -0.10616215 0.05195011 -0.00215720 0.54509804 0.71372549 0.60000000
v -0.10283128 0.05395232 -0.00133744 0.54509804 0.71372549 0.60000000
v -0.10339015 0.05399682 0.00112851 0.54509804 0.71372549 0.60000000
v -0.10520089 0.05261752 0.00342750 0.54509804 0.71372549 0.60000000
v -0.10605038 0.05186112 0.00420552 0.54509804 0.71372549 0.60000000
v -0.10696693 0.05035946 0.00521394 0.54509804 0.71372549 0.60000000
v -0.10533502 0.05101574 0.00586006 0.54509804 0.71372549 0.60000000
v -0.10611744 0.04963644 0.00672156 0.54509804 0.71372549 0.60000000
v -0.10283128 0.04406361 0.00852970 0.54509804 0.71372549 0.60000000
v -0.10508912 0.04406361 0.00843620 0.54509804 0.71372549 0.60000000
v -0.10687750 0.04812366 0.00710055 0.54509804 0.71372549 0.60000000
v -0.10750344 0.04647739 0.00741944 0.54509804 0.71372549 0.60000000
v -0.10734696 0.04406361 0.00806222 0.54509804 0.71372549 0.60000000
v -0.10057344 0.04406361 0.00855140 0.54509804 0.71372549 0.60000000
v -0.09831560 0.04406361 0.00855307 0.54509804 0.71372549 0.60000000
v 0.10057553 0.04180556 0.00855307 0.54509804 0.71372549 0.60000000
v 0.10283337 0.04180556 0.00855140 0.54509804 0.71372549 0.60000000
v 0.10509120 0.04180556 0.00850799 0.54509804 0.71372549 0.60000000
v 0.10734905 0.03954750 0.00839780 0.54509804 0.71372549 0.60000000
v 0.10734905 0.04180556 0.00831933 0.54509804 0.71372549 0.60000000
v 0.10960689 0.03954750 0.00786688 0.54509804 0.71372549 0.60000000
v 0.10960689 0.04180556 0.00763982 0.54509804 0.71372549 0.60000000
v 0.10965159 0.04390788 0.00721742 0.54509804 0.71372549 0.60000000
v 0.10891389 0.04587673 0.00704712 0.54509804 0.71372549 0.60000000
v 0.11043401 0.04455304 0.00650118 0.54509804 0.71372549 0.60000000
v 0.10976337 0.04658862 0.00586674 0.54509804 0.71372549 0.60000000
v 0.10895860 0.05020374 0.00112851 0.54509804 0.71372549 0.60000000
v 0.11007634 0.04891342 0.00112851 0.54509804 0.71372549 0.60000000
v 0.11090347 0.04768984 -0.00068297 0.54509804 0.71372549 0.60000000
v 0.11143999 0.04653301 -0.00131407 0.54509804 0.71372549 0.60000000
v 0.11266950 0.04405249 -0.00126565 0.54509804 0.71372549 0.60000000
v 0.11296012 0.04280666 -0.00210878 0.54509804 0.71372549 0.60000000
v 0.11114937 0.04592122 -0.00289181 0.54509804 0.71372549 0.60000000
v 0.11029989 0.04653301 -0.00354294 0.54509804 0.71372549 0.60000000
v 0.11061285 0.04497573 -0.00439942 0.54509804 0.71372549 0.60000000
v 0.11088111 0.04765647 0.00272629 0.54509804 0.71372549 0.60000000
v 0.11108231 0.04579886 0.00499356 0.54509804 0.71372549 0.60000000
v 0.11137292 0.04645514 0.00344253 0.54509804 0.71372549 0.60000000
v 0.10057553 0.03954750 -0.00842475 0.54509804 0.71372549 0.60000000
v 0.10283337 0.03954750 -0.00815595 0.54509804 0.71372549 0.60000000
v 0.10283337 0.03728945 -0.00823442 0.54509804 0.71372549 0.60000000
v 0.09603749 0.03728945 -0.00846983 0.54509804 0.71372549 0.60000000
v 0.08474829 0.03503140 -0.00850322 0.54509804 0.71372549 0.60000000
v 0.08249045 0.03728945 -0.00849988 0.54509804 0.71372549 0.60000000
v 0.07343673 0.03954750 -0.00846649 0.54509804 0.71372549 0.60000000
v 0.07117890 0.03954750 -0.00845647 0.54509804 0.71372549 0.60000000
v 0.06666322 0.03954750 -0.00842475 0.54509804 0.71372549 0.60000000
v -0.10283128 0.04406361 -0.00670343 0.54509804 0.71372549 0.60000000
v 0.11094818 0.04347407 -0.00471998 0.54509804 0.71372549 0.60000000
v 0.11121644 0.04180556 -0.00493035 0.54509804 0.71372549 0.60000000
v 0.11141763 0.03954750 -0.00508395 0.54509804 0.71372549 0.60000000
v 0.10960689 0.03954750 -0.00609904 0.54509804 0.71372549 0.60000000
v -0.10508912 0.04406361 -0.00665000 0.54509804 0.71372549 0.60000000
v -0.10734696 0.04180556 -0.00653146 0.54509804 0.71372549 0.60000000
v -0.10734696 0.04406361 -0.00629438 0.54509804 0.71372549 0.60000000
v -0.10734696 0.04632166 -0.00576012 0.54509804 0.71372549 0.60000000
v -0.10721283 0.04845736 -0.00493535 0.54509804 0.71372549 0.60000000
v -0.10638570 0.04985891 -0.00463316 0.54509804 0.71372549 0.60000000
v -0.10508912 0.05030384 -0.00492200 0.54509804 0.71372549 0.60000000
v -0.10374783 0.05187225 -0.00440443 0.54509804 0.71372549 0.60000000
v -0.10529031 0.05152742 -0.00354628 0.54509804 0.71372549 0.60000000
v -0.10721283 0.05029272 -0.00323073 0.54509804 0.71372549 0.60000000
v -0.10855412 0.04980329 -0.00237257 0.54509804 0.71372549 0.60000000
v -0.10725754 0.05128271 -0.00129403 0.54509804 0.71372549 0.60000000
v -0.10643041 0.05213921 -0.00065125 0.54509804 0.71372549 0.60000000
v -0.10529031 0.05269538 -0.00129403 0.54509804 0.71372549 0.60000000
v -0.10508912 0.05309582 0.00112851 0.54509804 0.71372549 0.60000000
v -0.10640805 0.05211696 0.00269957 0.54509804 0.71372549 0.60000000
v -0.10743638 0.05092676 0.00360114 0.54509804 0.71372549 0.60000000
v -0.10846470 0.04971430 0.00450103 0.54509804 0.71372549 0.60000000
v -0.10765992 0.04891342 0.00596191 0.54509804 0.71372549 0.60000000
v -0.10837528 0.04732277 0.00670987 0.54509804 0.71372549 0.60000000
v -0.10283128 0.04180556 0.00855140 0.54509804 0.71372549 0.60000000
v -0.10508912 0.04180556 0.00850466 0.54509804 0.71372549 0.60000000
v -0.10734696 0.04180556 0.00829596 0.54509804 0.71372549 0.60000000
v -0.10734696 0.03954750 0.00838111 0.54509804 0.71372549 0.60000000
v -0.10886709 0.04582111 0.00702375 0.54509804 0.71372549 0.60000000
v -0.10962715 0.04384114 0.00717401 0.54509804 0.71372549 0.60000000
v -0.10960479 0.04180556 0.00757471 0.54509804 0.71372549 0.60000000
v -0.10960479 0.03954750 0.00781512 0.54509804 0.71372549 0.60000000
v -0.10283128 0.03954750 0.00855307 0.54509804 0.71372549 0.60000000
v 0.10283337 0.03954750 0.00855307 0.54509804 0.71372549 0.60000000
v 0.10509120 0.03728945 0.00852469 0.54509804 0.71372549 0.60000000
v 0.10734905 0.03728945 0.00842118 0.54509804 0.71372549 0.60000000
v 0.10960689 0.03728945 0.00793867 0.54509804 0.71372549 0.60000000
v 0.11123879 0.03728945 0.00715398 0.54509804 0.71372549 0.60000000
v 0.11117172 0.03954750 0.00709888 0.54509804 0.71372549 0.60000000
v 0.11094818 0.04180556 0.00694361 0.54509804 0.71372549 0.60000000
v 0.11076934 0.04305138 0.00681672 0.54509804 0.71372549 0.60000000
v 0.11135056 0.04390788 0.00570813 0.54509804 0.71372549 0.60000000
v 0.11097053 0.04778995 0.00112851 0.54509804 0.71372549 0.60000000
v 0.11184237 0.04632166 0.00112851 0.54509804 0.71372549 0.60000000
v 0.11273657 0.04455304 0.00112851 0.54509804 0.71372549 0.60000000
v 0.11311659 0.04328497 -0.00060116 0.54509804 0.71372549 0.60000000
v 0.11336250 0.04195016 -0.00126565 0.54509804 0.71372549 0.60000000
v 0.11316131 0.04129388 -0.00253786 0.54509804 0.71372549 0.60000000
v 0.11244595 0.04195016 -0.00333090 0.54509804 0.71372549 0.60000000
v 0.11155176 0.04416372 -0.00354294 0.54509804 0.71372549 0.60000000
v 0.11289305 0.04253970 0.00416712 0.54509804 0.71372549 0.60000000
v 0.11258008 0.04401912 0.00340413 0.54509804 0.71372549 0.60000000
v 0.10057553 0.03503140 -0.00842475 0.54509804 0.71372549 0.60000000
v 0.10960689 0.03728945 -0.00616583 0.54509804 0.71372549 0.60000000
v 0.10960689 0.03503140 -0.00617417 0.54509804 0.71372549 0.60000000
v 0.10960689 -0.03502386 -0.00617417 0.54509804 0.71372549 0.60000000
v 0.10960689 -0.03728192 -0.00616749 0.54509804 0.71372549 0.60000000
v 0.10734905 -0.03955109 -0.00662830 0.54509804 0.71372549 0.60000000
v 0.09603749 0.03503140 -0.00845981 0.54509804 0.71372549 0.60000000
v 0.07117890 0.03050417 -0.00842475 0.54509804 0.71372549 0.60000000
v 0.07117890 0.03503140 -0.00845647 0.54509804 0.71372549 0.60000000
v 0.07117890 0.03728945 -0.00847150 0.54509804 0.71372549 0.60000000
v 0.09603749 0.03050417 -0.00842475 0.54509804 0.71372549 0.60000000
v -0.10508912 0.03954750 -0.00670343 0.54509804 0.71372549 0.60000000
v -0.10508912 0.04180556 -0.00669675 0.54509804 0.71372549 0.60000000
v 0.11255773 0.03954750 -0.00391692 0.54509804 0.71372549 0.60000000
v 0.11262479 0.03728945 -0.00404548 0.54509804 0.71372549 0.60000000
v 0.11150705 0.03728945 -0.00513737 0.54509804 0.71372549 0.60000000
v -0.10734696 0.03954750 -0.00661494 0.54509804 0.71372549 0.60000000
v -0.10960479 0.03954750 -0.00605062 0.54509804 0.71372549 0.60000000
v -0.10960479 0.04180556 -0.00581021 0.54509804 0.71372549 0.60000000
v -0.10973893 0.04410810 -0.00520749 0.54509804 0.71372549 0.60000000
v -0.10902357 0.04632166 -0.00490196 0.54509804 0.71372549 0.60000000
v -0.10859883 0.04761198 -0.00462148 0.54509804 0.71372549 0.60000000
v -0.10788348 0.04911364 -0.00388019 0.54509804 0.71372549 0.60000000
v -0.10902357 0.04845736 -0.00323073 0.54509804 0.71372549 0.60000000
v -0.11067783 0.04735614 -0.00203031 0.54509804 0.71372549 0.60000000
v -0.11000719 0.04846848 -0.00121890 0.54509804 0.71372549 0.60000000
v -0.10875531 0.05000351 -0.00112874 0.54509804 0.71372549 0.60000000
v -0.10765992 0.05127158 0.00112851 0.54509804 0.71372549 0.60000000
v -0.10651983 0.05220595 0.00112851 0.54509804 0.71372549 0.60000000
v -0.10873296 0.04999239 0.00299509 0.54509804 0.71372549 0.60000000
v -0.10967186 0.04865758 0.00354938 0.54509804 0.71372549 0.60000000
v -0.11058841 0.04723378 0.00410368 0.54509804 0.71372549 0.60000000
v -0.10909064 0.04820152 0.00520225 0.54509804 0.71372549 0.60000000
v -0.10973893 0.04652189 0.00582834 0.54509804 0.71372549 0.60000000
v -0.11038722 0.04445293 0.00645443 0.54509804 0.71372549 0.60000000
v -0.10508912 0.03954750 0.00851133 0.54509804 0.71372549 0.60000000
v -0.10734696 0.03728945 0.00840114 0.54509804 0.71372549 0.60000000
v -0.10960479 0.03728945 0.00789025 0.54509804 0.71372549 0.60000000
v -0.11074490 0.04294014 0.00678166 0.54509804 0.71372549 0.60000000
v -0.11087902 0.04180556 0.00689853 0.54509804 0.71372549 0.60000000
v -0.11110258 0.03954750 0.00706048 0.54509804 0.71372549 0.60000000
v -0.11116964 0.03728945 0.00711391 0.54509804 0.71372549 0.60000000
v -0.10283128 -0.03955109 0.00855307 0.54509804 0.71372549 0.60000000
v 0.10283337 -0.04180915 0.00855307 0.54509804 0.71372549 0.60000000
v 0.10509120 0.03503140 0.00852636 0.54509804 0.71372549 0.60000000
v 0.10734905 0.03503140 0.00842619 0.54509804 0.71372549 0.60000000
v 0.10960689 0.03503140 0.00794702 0.54509804 0.71372549 0.60000000
v 0.11126115 0.03503140 0.00716065 0.54509804 0.71372549 0.60000000
v 0.11240124 0.03503140 0.00610716 0.54509804 0.71372549 0.60000000
v 0.11237889 0.03728945 0.00608879 0.54509804 0.71372549 0.60000000
v 0.11228947 0.03954750 0.00597025 0.54509804 0.71372549 0.60000000
v 0.11220005 0.04179443 0.00551112 0.54509804 0.71372549 0.60000000
v 0.11309425 0.04102692 0.00466465 0.54509804 0.71372549 0.60000000
v 0.11309425 0.04322935 0.00265950 0.54509804 0.71372549 0.60000000
v 0.11318367 0.04341845 0.00112851 0.54509804 0.71372549 0.60000000
v 0.11363076 0.04180556 0.00112851 0.54509804 0.71372549 0.60000000
v 0.11383195 0.03954750 -0.00112874 0.54509804 0.71372549 0.60000000
v 0.11329544 0.03954750 -0.00278662 0.54509804 0.71372549 0.60000000
v 0.11329544 0.04179443 0.00340413 0.54509804 0.71372549 0.60000000
v 0.10057553 0.03276222 -0.00838468 0.54509804 0.71372549 0.60000000
v 0.11150705 0.03503140 -0.00514238 0.54509804 0.71372549 0.60000000
v 0.11150705 -0.03502386 -0.00514238 0.54509804 0.71372549 0.60000000
v 0.11150705 -0.03728192 -0.00513904 0.54509804 0.71372549 0.60000000
v 0.10960689 -0.03955109 -0.00611574 0.54509804 0.71372549 0.60000000
v 0.10734905 -0.04180915 -0.00656819 0.54509804 0.71372549 0.60000000
v 0.10509120 -0.04406720 -0.00666669 0.54509804 0.71372549 0.60000000
v -0.09377756 -0.04858330 -0.00667003 0.54509804 0.71372549 0.60000000
v -0.09603541 -0.04858330 -0.00666836 0.54509804 0.71372549 0.60000000
v -0.10057344 -0.04632525 -0.00670343 0.54509804 0.71372549 0.60000000
v 0.06666322 0.03503140 -0.00842475 0.54509804 0.71372549 0.60000000
v -0.10283128 -0.04406720 -0.00670343 0.54509804 0.71372549 0.60000000
v -0.10508912 -0.04180915 -0.00670009 0.54509804 0.71372549 0.60000000
v -0.10508912 -0.03955109 -0.00670343 0.54509804 0.71372549 0.60000000
v 0.09829533 0.03050417 -0.00838301 0.54509804 0.71372549 0.60000000
v 0.10283337 -0.04632525 -0.00667003 0.54509804 0.71372549 0.60000000
v 0.10057553 -0.04632525 -0.00670343 0.54509804 0.71372549 0.60000000
v 0.09603749 -0.04858330 -0.00666836 0.54509804 0.71372549 0.60000000
v 0.09377965 -0.04858330 -0.00667003 0.54509804 0.71372549 0.60000000
v -0.10734696 0.03503140 -0.00663330 0.54509804 0.71372549 0.60000000
v -0.10734696 0.03728945 -0.00663163 0.54509804 0.71372549 0.60000000
v 0.11264715 0.03503140 -0.00406217 0.54509804 0.71372549 0.60000000
v 0.11336250 0.03728945 -0.00291518 0.54509804 0.71372549 0.60000000
v 0.11338485 0.03503140 -0.00293354 0.54509804 0.71372549 0.60000000
v -0.10960479 0.03728945 -0.00611908 0.54509804 0.71372549 0.60000000
v -0.11143789 0.03728945 -0.00509897 0.54509804 0.71372549 0.60000000
v -0.11134848 0.03954750 -0.00504555 0.54509804 0.71372549 0.60000000
v -0.11114728 0.04180556 -0.00488360 0.54509804 0.71372549 0.60000000
v -0.11092374 0.04338508 -0.00468492 0.54509804 0.71372549 0.60000000
v -0.11056606 0.04488674 -0.00434767 0.54509804 0.71372549 0.60000000
v -0.11023073 0.04649964 -0.00351288 0.54509804 0.71372549 0.60000000
v -0.11085667 0.04763422 -0.00052436 0.54509804 0.71372549 0.60000000
v -0.11110258 0.04585448 -0.00284172 0.54509804 0.71372549 0.60000000
v -0.11260035 0.04398575 -0.00115546 0.54509804 0.71372549 0.60000000
v -0.11137083 0.04649964 -0.00121890 0.54509804 0.71372549 0.60000000
v -0.10888944 0.05014812 0.00112851 0.54509804 0.71372549 0.60000000
v -0.11002954 0.04883555 0.00112851 0.54509804 0.71372549 0.60000000
v -0.11083431 0.04760086 0.00259773 0.54509804 0.71372549 0.60000000
v -0.11130376 0.04642177 0.00336573 0.54509804 0.71372549 0.60000000
v -0.11103551 0.04573212 0.00494848 0.54509804 0.71372549 0.60000000
v -0.11128141 0.04384114 0.00568142 0.54509804 0.71372549 0.60000000
v -0.10734696 0.03503140 0.00840281 0.54509804 0.71372549 0.60000000
v -0.10508912 -0.03955109 0.00851133 0.54509804 0.71372549 0.60000000
v -0.10960479 0.03503140 0.00789860 0.54509804 0.71372549 0.60000000
v -0.11119199 0.03503140 0.00712225 0.54509804 0.71372549 0.60000000
v -0.11304745 0.04087119 0.00459787 0.54509804 0.71372549 0.60000000
v -0.11222031 0.03954750 0.00586841 0.54509804 0.71372549 0.60000000
v -0.11230974 0.03728945 0.00598862 0.54509804 0.71372549 0.60000000
v -0.11233209 0.03503140 0.00600531 0.54509804 0.71372549 0.60000000
v -0.10283128 -0.04180915 0.00855140 0.54509804 0.71372549 0.60000000
v -0.10057344 -0.04406720 0.00855307 0.54509804 0.71372549 0.60000000
v 0.10057553 -0.04406720 0.00855307 0.54509804 0.71372549 0.60000000
v 0.10283337 -0.04406720 0.00853137 0.54509804 0.71372549 0.60000000
v 0.10509120 -0.04180915 0.00851133 0.54509804 0.71372549 0.60000000
v 0.10509120 -0.03955109 0.00851801 0.54509804 0.71372549 0.60000000
v 0.10509120 -0.03728192 0.00852469 0.54509804 0.71372549 0.60000000
v 0.10509120 -0.03502386 0.00852636 0.54509804 0.71372549 0.60000000
v 0.10734905 -0.03502386 0.00842619 0.54509804 0.71372549 0.60000000
v 0.10960689 -0.03502386 0.00794702 0.54509804 0.71372549 0.60000000
v 0.11126115 -0.03502386 0.00716065 0.54509804 0.71372549 0.60000000
v 0.11240124 -0.03502386 0.00610716 0.54509804 0.71372549 0.60000000
v 0.11327308 0.03503140 0.00497686 0.54509804 0.71372549 0.60000000
v 0.11327308 0.03728945 0.00496017 0.54509804 0.71372549 0.60000000
v 0.11318367 0.03954750 0.00483996 0.54509804 0.71372549 0.60000000
v 0.11369782 0.03954750 0.00338910 0.54509804 0.71372549 0.60000000
v 0.11403315 0.03954750 0.00112851 0.54509804 0.71372549 0.60000000
v 0.11418963 0.03728945 0.00112851 0.54509804 0.71372549 0.60000000
v 0.11396609 0.03728945 -0.00112874 0.54509804 0.71372549 0.60000000
v 0.11264715 -0.03502386 -0.00406217 0.54509804 0.71372549 0.60000000
v 0.11143999 -0.03955109 -0.00509730 0.54509804 0.71372549 0.60000000
v 0.11262479 -0.03728192 -0.00405048 0.54509804 0.71372549 0.60000000
v 0.10960689 -0.04180915 -0.00591372 0.54509804 0.71372549 0.60000000
v 0.10734905 -0.04406720 -0.00636951 0.54509804 0.71372549 0.60000000
v 0.10509120 -0.04632525 -0.00648304 0.54509804 0.71372549 0.60000000
v -0.09377756 -0.05085248 -0.00632443 0.54509804 0.71372549 0.60000000
v -0.09603541 -0.05085248 -0.00631442 0.54509804 0.71372549 0.60000000
v -0.09831560 -0.04858330 -0.00665334 0.54509804 0.71372549 0.60000000
v -0.10283128 -0.04632525 -0.00666669 0.54509804 0.71372549 0.60000000
v -0.10508912 -0.04406720 -0.00666002 0.54509804 0.71372549 0.60000000
v -0.10734696 -0.03955109 -0.00661828 0.54509804 0.71372549 0.60000000
v -0.10734696 -0.03728192 -0.00663163 0.54509804 0.71372549 0.60000000
v -0.10734696 -0.03502386 -0.00663330 0.54509804 0.71372549 0.60000000
v 0.10057553 -0.04858330 -0.00660492 0.54509804 0.71372549 0.60000000
v 0.09829533 -0.04858330 -0.00665334 0.54509804 0.71372549 0.60000000
v 0.09603749 -0.05085248 -0.00631609 0.54509804 0.71372549 0.60000000
v 0.09377965 -0.05085248 -0.00632443 0.54509804 0.71372549 0.60000000
v -0.10960479 0.03503140 -0.00612743 0.54509804 0.71372549 0.60000000
v 0.11398844 0.03503140 -0.00112874 0.54509804 0.71372549 0.60000000
v 0.11338485 -0.03502386 -0.00293354 0.54509804 0.71372549 0.60000000
v -0.11143789 0.03503140 -0.00510565 0.54509804 0.71372549 0.60000000
v -0.11257799 0.00338528 -0.00412228 0.54509804 0.71372549 0.60000000
v -0.11257799 0.03503140 -0.00395532 0.54509804 0.71372549 0.60000000
v -0.11255564 0.03728945 -0.00393695 0.54509804 0.71372549 0.60000000
v -0.11248858 0.03954750 -0.00381007 0.54509804 0.71372549 0.60000000
v -0.11237680 0.04185005 -0.00328749 0.54509804 0.71372549 0.60000000
v -0.11148260 0.04410810 -0.00351288 0.54509804 0.71372549 0.60000000
v -0.11090138 0.04770097 0.00112851 0.54509804 0.71372549 0.60000000
v -0.11170616 0.04632166 0.00112851 0.54509804 0.71372549 0.60000000
v -0.11291332 0.04263981 -0.00192680 0.54509804 0.71372549 0.60000000
v -0.11309216 0.04317374 -0.00041918 0.54509804 0.71372549 0.60000000
v -0.11266741 0.04437506 0.00112851 0.54509804 0.71372549 0.60000000
v -0.11306979 0.04311812 0.00251258 0.54509804 0.71372549 0.60000000
v -0.11248858 0.04395237 0.00331564 0.54509804 0.71372549 0.60000000
v -0.11284625 0.04237285 0.00402020 0.54509804 0.71372549 0.60000000
v -0.10734696 -0.03502386 0.00840281 0.54509804 0.71372549 0.60000000
v -0.10734696 -0.03728192 0.00840114 0.54509804 0.71372549 0.60000000
v -0.10508912 -0.04180915 0.00850799 0.54509804 0.71372549 0.60000000
v -0.10960479 -0.03502386 0.00789860 0.54509804 0.71372549 0.60000000
v -0.11119199 -0.03502386 0.00712225 0.54509804 0.71372549 0.60000000
v -0.11233209 0.00338528 0.00605373 0.54509804 0.71372549 0.60000000
v -0.11322628 0.04169432 0.00331564 0.54509804 0.71372549 0.60000000
v -0.11356161 0.03954750 0.00338910 0.54509804 0.71372549 0.60000000
v -0.11313687 0.03954750 0.00473978 0.54509804 0.71372549 0.60000000
v -0.11320393 0.03728945 0.00485832 0.54509804 0.71372549 0.60000000
v -0.11320393 0.03503140 0.00487502 0.54509804 0.71372549 0.60000000
v -0.11331570 0.00338528 0.00492344 0.54509804 0.71372549 0.60000000
v -0.10283128 -0.04406720 0.00853137 0.54509804 0.71372549 0.60000000
v -0.10057344 -0.04632525 0.00851133 0.54509804 0.71372549 0.60000000
v -0.09831560 -0.04632525 0.00853137 0.54509804 0.71372549 0.60000000
v -0.09603541 -0.04632525 0.00854973 0.54509804 0.71372549 0.60000000
v 0.09603749 -0.04632525 0.00854973 0.54509804 0.71372549 0.60000000
v 0.10057553 -0.04632525 0.00851300 0.54509804 0.71372549 0.60000000
v 0.10283337 -0.04632525 0.00845791 0.54509804 0.71372549 0.60000000
v 0.10509120 -0.04406720 0.00845624 0.54509804 0.71372549 0.60000000
v 0.10734905 -0.03955109 0.00840114 0.54509804 0.71372549 0.60000000
v 0.10734905 -0.03728192 0.00842285 0.54509804 0.71372549 0.60000000
v 0.10960689 -0.03728192 0.00794034 0.54509804 0.71372549 0.60000000
v 0.11126115 -0.03728192 0.00715732 0.54509804 0.71372549 0.60000000
v 0.11237889 -0.03728192 0.00609547 0.54509804 0.71372549 0.60000000
v 0.11327308 -0.03728192 0.00496517 0.54509804 0.71372549 0.60000000
v 0.11327308 -0.03502386 0.00497686 0.54509804 0.71372549 0.60000000
v 0.11387667 0.03503140 0.00338910 0.54509804 0.71372549 0.60000000
v 0.11385430 0.03728945 0.00338910 0.54509804 0.71372549 0.60000000
v 0.11421198 0.03503140 0.00112851 0.54509804 0.71372549 0.60000000
v 0.11255773 -0.03955109 -0.00394363 0.54509804 0.71372549 0.60000000
v 0.11123879 -0.04180915 -0.00495706 0.54509804 0.71372549 0.60000000
v 0.11336250 -0.03728192 -0.00292019 0.54509804 0.71372549 0.60000000
v 0.10980808 -0.04423405 -0.00528763 0.54509804 0.71372549 0.60000000
v 0.10734905 -0.04632525 -0.00589869 0.54509804 0.71372549 0.60000000
v 0.10509120 -0.04858330 -0.00593042 0.54509804 0.71372549 0.60000000
v 0.10283337 -0.04858330 -0.00641459 0.54509804 0.71372549 0.60000000
v -0.09377756 -0.05302155 -0.00526593 0.54509804 0.71372549 0.60000000
v -0.09603541 -0.05299930 -0.00525758 0.54509804 0.71372549 0.60000000
v -0.09831560 -0.05085248 -0.00624263 0.54509804 0.71372549 0.60000000
v -0.10057344 -0.04858330 -0.00659657 0.54509804 0.71372549 0.60000000
v -0.10283128 -0.04858330 -0.00639623 0.54509804 0.71372549 0.60000000
v -0.10508912 -0.04632525 -0.00646301 0.54509804 0.71372549 0.60000000
v -0.10734696 -0.04180915 -0.00654816 0.54509804 0.71372549 0.60000000
v -0.10960479 -0.03955109 -0.00606398 0.54509804 0.71372549 0.60000000
v -0.10960479 -0.03728192 -0.00612242 0.54509804 0.71372549 0.60000000
v -0.10960479 -0.03502386 -0.00612743 0.54509804 0.71372549 0.60000000
v 0.09829533 -0.05085248 -0.00624930 0.54509804 0.71372549 0.60000000
v 0.09603749 -0.05301042 -0.00525925 0.54509804 0.71372549 0.60000000
v 0.09377965 -0.05302155 -0.00526593 0.54509804 0.71372549 0.60000000
v 0.11398844 -0.03728192 -0.00112874 0.54509804 0.71372549 0.60000000
v -0.11143789 -0.03502386 -0.00510565 0.54509804 0.71372549 0.60000000
v -0.11257799 -0.00338887 -0.00412228 0.54509804 0.71372549 0.60000000
v -0.11358396 0.00338528 -0.00299198 0.54509804 0.71372549 0.60000000
v -0.11331570 0.03503140 -0.00282502 0.54509804 0.71372549 0.60000000
v -0.11329335 0.03728945 -0.00280666 0.54509804 0.71372549 0.60000000
v -0.11322628 0.03954750 -0.00267977 0.54509804 0.71372549 0.60000000
v -0.11311451 0.04113815 -0.00246607 0.54509804 0.71372549 0.60000000
v -0.11327099 0.04185005 -0.00115546 0.54509804 0.71372549 0.60000000
v -0.11311451 0.04325160 0.00112851 0.54509804 0.71372549 0.60000000
v -0.11351690 0.04180556 0.00112851 0.54509804 0.71372549 0.60000000
v -0.10734696 -0.03955109 0.00838612 0.54509804 0.71372549 0.60000000
v -0.10960479 -0.03728192 0.00789192 0.54509804 0.71372549 0.60000000
v -0.10508912 -0.04406720 0.00844956 0.54509804 0.71372549 0.60000000
v -0.11119199 -0.03728192 0.00711725 0.54509804 0.71372549 0.60000000
v -0.11233209 -0.00338887 0.00605373 0.54509804 0.71372549 0.60000000
v -0.11233209 -0.03502386 0.00600531 0.54509804 0.71372549 0.60000000
v -0.11389693 0.03954750 0.00112851 0.54509804 0.71372549 0.60000000
v -0.11371809 0.03728945 0.00338910 0.54509804 0.71372549 0.60000000
v -0.11374044 0.03503140 0.00338910 0.54509804 0.71372549 0.60000000
v -0.11382987 0.00564334 0.00338910 0.54509804 0.71372549 0.60000000
v -0.11331570 -0.00338887 0.00492344 0.54509804 0.71372549 0.60000000
v -0.10283128 -0.04632525 0.00845624 0.54509804 0.71372549 0.60000000
v -0.09831560 -0.04858330 0.00844121 0.54509804 0.71372549 0.60000000
v -0.09603541 -0.04858330 0.00847460 0.54509804 0.71372549 0.60000000
v -0.09377756 -0.04858330 0.00847794 0.54509804 0.71372549 0.60000000
v 0.09377965 -0.04858330 0.00847794 0.54509804 0.71372549 0.60000000
v 0.09603749 -0.04858330 0.00847460 0.54509804 0.71372549 0.60000000
v 0.09829533 -0.04858330 0.00844288 0.54509804 0.71372549 0.60000000
v 0.10057553 -0.04858330 0.00837109 0.54509804 0.71372549 0.60000000
v 0.10283337 -0.04858330 0.00818577 0.54509804 0.71372549 0.60000000
v 0.10509120 -0.04632525 0.00825422 0.54509804 0.71372549 0.60000000
v 0.10734905 -0.04406720 0.00814403 0.54509804 0.71372549 0.60000000
v 0.10734905 -0.04180915 0.00833770 0.54509804 0.71372549 0.60000000
v 0.10960689 -0.03955109 0.00788358 0.54509804 0.71372549 0.60000000
v 0.11117172 -0.03955109 0.00711391 0.54509804 0.71372549 0.60000000
v 0.11231182 -0.03955109 0.00599530 0.54509804 0.71372549 0.60000000
v 0.11320602 -0.03955109 0.00486500 0.54509804 0.71372549 0.60000000
v 0.11385430 -0.03728192 0.00338910 0.54509804 0.71372549 0.60000000
v 0.11387667 -0.03502386 0.00338910 0.54509804 0.71372549 0.60000000
v 0.11421198 -0.03502386 0.00112851 0.54509804 0.71372549 0.60000000
v 0.11329544 -0.03955109 -0.00281334 0.54509804 0.71372549 0.60000000
v 0.11316131 -0.04143095 -0.00256624 0.54509804 0.71372549 0.60000000
v 0.11249066 -0.04203161 -0.00334760 0.54509804 0.71372549 0.60000000
v 0.11097053 -0.04358889 -0.00474002 0.54509804 0.71372549 0.60000000
v 0.11067992 -0.04509055 -0.00446788 0.54509804 0.71372549 0.60000000
v 0.10918215 -0.04632525 -0.00499212 0.54509804 0.71372549 0.60000000
v 0.10730434 -0.04852769 -0.00505890 0.54509804 0.71372549 0.60000000
v 0.10871270 -0.04773792 -0.00469828 0.54509804 0.71372549 0.60000000
v 0.10652192 -0.04997373 -0.00471163 0.54509804 0.71372549 0.60000000
v 0.10489002 -0.05077462 -0.00493702 0.54509804 0.71372549 0.60000000
v 0.10283337 -0.05085248 -0.00559149 0.54509804 0.71372549 0.60000000
v 0.10057553 -0.05085248 -0.00605062 0.54509804 0.71372549 0.60000000
v -0.09377756 -0.05415614 -0.00442113 0.54509804 0.71372549 0.60000000
v 0.03049306 -0.05415614 -0.00443949 0.54509804 0.71372549 0.60000000
v -0.09603541 -0.05413389 -0.00439942 0.54509804 0.71372549 0.60000000
v -0.09831560 -0.05288807 -0.00520082 0.54509804 0.71372549 0.60000000
v -0.10057344 -0.05085248 -0.00603226 0.54509804 0.71372549 0.60000000
v -0.10283128 -0.05085248 -0.00555476 0.54509804 0.71372549 0.60000000
v -0.10508912 -0.04858330 -0.00588868 0.54509804 0.71372549 0.60000000
v -0.10734696 -0.04632525 -0.00584527 0.54509804 0.71372549 0.60000000
v -0.10734696 -0.04406720 -0.00633612 0.54509804 0.71372549 0.60000000
v -0.10960479 -0.04180915 -0.00585195 0.54509804 0.71372549 0.60000000
v -0.11137083 -0.03955109 -0.00505723 0.54509804 0.71372549 0.60000000
v -0.11143789 -0.03728192 -0.00510064 0.54509804 0.71372549 0.60000000
v 0.09829533 -0.05289919 -0.00520582 0.54509804 0.71372549 0.60000000
v 0.09603749 -0.05413389 -0.00440109 0.54509804 0.71372549 0.60000000
v 0.09377965 -0.05415614 -0.00442113 0.54509804 0.71372549 0.60000000
v 0.08023261 -0.05415614 -0.00443282 0.54509804 0.71372549 0.60000000
v 0.07795242 -0.05415614 -0.00443448 0.54509804 0.71372549 0.60000000
v 0.06214753 -0.05415614 -0.00443949 0.54509804 0.71372549 0.60000000
v 0.11418963 -0.03728192 0.00112851 0.54509804 0.71372549 0.60000000
v 0.11385430 -0.03955109 -0.00112874 0.54509804 0.71372549 0.60000000
v -0.11257799 -0.03502386 -0.00395532 0.54509804 0.71372549 0.60000000
v -0.11358396 -0.00338887 -0.00299198 0.54509804 0.71372549 0.60000000
v -0.11394164 0.00790139 -0.00112874 0.54509804 0.71372549 0.60000000
v -0.11385222 0.03503140 -0.00112874 0.54509804 0.71372549 0.60000000
v -0.11382987 0.03728945 -0.00112874 0.54509804 0.71372549 0.60000000
v -0.11369573 0.03954750 -0.00112874 0.54509804 0.71372549 0.60000000
v -0.10734696 -0.04180915 0.00831432 0.54509804 0.71372549 0.60000000
v -0.10960479 -0.03955109 0.00783015 0.54509804 0.71372549 0.60000000
v -0.10734696 -0.04406720 0.00810897 0.54509804 0.71372549 0.60000000
v -0.10508912 -0.04632525 0.00823752 0.54509804 0.71372549 0.60000000
v -0.11110258 -0.03955109 0.00707050 0.54509804 0.71372549 0.60000000
v -0.11230974 -0.03728192 0.00599363 0.54509804 0.71372549 0.60000000
v -0.11320393 -0.03728192 0.00486333 0.54509804 0.71372549 0.60000000
v -0.11405341 0.03728945 0.00112851 0.54509804 0.71372549 0.60000000
v -0.11407577 0.03503140 0.00112851 0.54509804 0.71372549 0.60000000
v -0.11414283 0.00790139 0.00112851 0.54509804 0.71372549 0.60000000
v -0.11416518 -0.00790498 0.00112851 0.54509804 0.71372549 0.60000000
v -0.11382987 -0.00564693 0.00338910 0.54509804 0.71372549 0.60000000
v -0.11374044 -0.03502386 0.00338910 0.54509804 0.71372549 0.60000000
v -0.10283128 -0.04858330 0.00816907 0.54509804 0.71372549 0.60000000
v -0.10057344 -0.04858330 0.00836441 0.54509804 0.71372549 0.60000000
v -0.09831560 -0.05085248 0.00801881 0.54509804 0.71372549 0.60000000
v -0.09603541 -0.05085248 0.00809561 0.54509804 0.71372549 0.60000000
v -0.09377756 -0.05085248 0.00810396 0.54509804 0.71372549 0.60000000
v 0.09377965 -0.05085248 0.00810396 0.54509804 0.71372549 0.60000000
v 0.09603749 -0.05085248 0.00809561 0.54509804 0.71372549 0.60000000
v 0.09829533 -0.05085248 0.00802549 0.54509804 0.71372549 0.60000000
v 0.10057553 -0.05085248 0.00781846 0.54509804 0.71372549 0.60000000
v 0.10283337 -0.05096372 0.00732928 0.54509804 0.71372549 0.60000000
v 0.10509120 -0.04858330 0.00770660 0.54509804 0.71372549 0.60000000
v 0.10734905 -0.04632525 0.00767321 0.54509804 0.71372549 0.60000000
v 0.10967395 -0.04395596 0.00725749 0.54509804 0.71372549 0.60000000
v 0.10960689 -0.04180915 0.00768323 0.54509804 0.71372549 0.60000000
v 0.11097053 -0.04180915 0.00697032 0.54509804 0.71372549 0.60000000
v 0.11224476 -0.04185364 0.00552615 0.54509804 0.71372549 0.60000000
v 0.11309425 -0.04114174 0.00468970 0.54509804 0.71372549 0.60000000
v 0.11081405 -0.04313283 0.00683676 0.54509804 0.71372549 0.60000000
v 0.11372018 -0.03955109 0.00338910 0.54509804 0.71372549 0.60000000
v 0.11300482 -0.04293261 -0.00225904 0.54509804 0.71372549 0.60000000
v 0.11161883 -0.04423405 -0.00358468 0.54509804 0.71372549 0.60000000
v 0.11112702 -0.04632525 -0.00284339 0.54509804 0.71372549 0.60000000
v 0.11079169 -0.04752658 -0.00233584 0.54509804 0.71372549 0.60000000
v 0.11029989 -0.04632525 -0.00397368 0.54509804 0.71372549 0.60000000
v 0.10945041 -0.04838308 -0.00319567 0.54509804 0.71372549 0.60000000
v 0.10801969 -0.04925071 -0.00405549 0.54509804 0.71372549 0.60000000
v 0.10719257 -0.05070788 -0.00323240 0.54509804 0.71372549 0.60000000
v 0.10551595 -0.05147539 -0.00391692 0.54509804 0.71372549 0.60000000
v 0.10399582 -0.05200932 -0.00454635 0.54509804 0.71372549 0.60000000
v 0.10283337 -0.05225403 -0.00475504 0.54509804 0.71372549 0.60000000
v 0.10057553 -0.05264335 -0.00505723 0.54509804 0.71372549 0.60000000
v -0.09377756 -0.05485691 -0.00329083 0.54509804 0.71372549 0.60000000
v 0.03275090 -0.05523511 -0.00330920 0.54509804 0.71372549 0.60000000
v 0.03275090 -0.05636969 -0.00188005 0.54509804 0.71372549 0.60000000
v -0.09603541 -0.05483466 -0.00326913 0.54509804 0.71372549 0.60000000
v -0.09831560 -0.05474568 -0.00312721 0.54509804 0.71372549 0.60000000
v -0.09831560 -0.05402265 -0.00425751 0.54509804 0.71372549 0.60000000
v -0.10057344 -0.05263223 -0.00504555 0.54509804 0.71372549 0.60000000
v -0.10283128 -0.05222066 -0.00473334 0.54509804 0.71372549 0.60000000
v -0.10397137 -0.05198707 -0.00452297 0.54509804 0.71372549 0.60000000
v -0.10486557 -0.05075237 -0.00490363 0.54509804 0.71372549 0.60000000
v -0.10647512 -0.04994036 -0.00468826 0.54509804 0.71372549 0.60000000
v -0.10727989 -0.04850544 -0.00501716 0.54509804 0.71372549 0.60000000
v -0.10866590 -0.04769343 -0.00466822 0.54509804 0.71372549 0.60000000
v -0.10909064 -0.04632525 -0.00495706 0.54509804 0.71372549 0.60000000
v -0.10976128 -0.04416731 -0.00524923 0.54509804 0.71372549 0.60000000
v -0.11094609 -0.04347766 -0.00471163 0.54509804 0.71372549 0.60000000
v -0.11116964 -0.04180915 -0.00491198 0.54509804 0.71372549 0.60000000
v -0.11251093 -0.03955109 -0.00383845 0.54509804 0.71372549 0.60000000
v -0.11255564 -0.03728192 -0.00394196 0.54509804 0.71372549 0.60000000
v 0.09829533 -0.05403378 -0.00426753 0.54509804 0.71372549 0.60000000
v 0.09829533 -0.05475680 -0.00313723 0.54509804 0.71372549 0.60000000
v 0.09603749 -0.05483466 -0.00327080 0.54509804 0.71372549 0.60000000
v 0.08023261 -0.05622509 -0.00159288 0.54509804 0.71372549 0.60000000
v 0.06214753 -0.05636969 -0.00188005 0.54509804 0.71372549 0.60000000
v 0.06214753 -0.05523511 -0.00330920 0.54509804 0.71372549 0.60000000
v 0.11405550 -0.03955109 0.00112851 0.54509804 0.71372549 0.60000000
v 0.11369782 -0.04180915 0.00112851 0.54509804 0.71372549 0.60000000
v 0.11338485 -0.04203161 -0.00135580 0.54509804 0.71372549 0.60000000
v -0.11329335 -0.03728192 -0.00281334 0.54509804 0.71372549 0.60000000
v -0.11331570 -0.03502386 -0.00282502 0.54509804 0.71372549 0.60000000
v -0.11385222 -0.03728192 -0.00112874 0.54509804 0.71372549 0.60000000
v -0.11394164 -0.00790498 -0.00112874 0.54509804 0.71372549 0.60000000
v -0.10960479 -0.04180915 0.00761645 0.54509804 0.71372549 0.60000000
v -0.10964951 -0.04390035 0.00721575 0.54509804 0.71372549 0.60000000
v -0.10893415 -0.04591369 0.00705380 0.54509804 0.71372549 0.60000000
v -0.10754815 -0.04653660 0.00746285 0.54509804 0.71372549 0.60000000
v -0.10508912 -0.04858330 0.00766653 0.54509804 0.71372549 0.60000000
v -0.11224267 -0.03955109 0.00589679 0.54509804 0.71372549 0.60000000
v -0.11092374 -0.04180915 0.00692525 0.54509804 0.71372549 0.60000000
v -0.11371809 -0.03728192 0.00338910 0.54509804 0.71372549 0.60000000
v -0.11313687 -0.03955109 0.00476650 0.54509804 0.71372549 0.60000000
v -0.11407577 -0.03502386 0.00112851 0.54509804 0.71372549 0.60000000
v -0.10280892 -0.05095259 0.00731258 0.54509804 0.71372549 0.60000000
v -0.10057344 -0.05085248 0.00780010 0.54509804 0.71372549 0.60000000
v -0.09831560 -0.05263223 0.00722243 0.54509804 0.71372549 0.60000000
v -0.09603541 -0.05274346 0.00728253 0.54509804 0.71372549 0.60000000
v -0.09377756 -0.05275458 0.00729088 0.54509804 0.71372549 0.60000000
v 0.09377965 -0.05275458 0.00729088 0.54509804 0.71372549 0.60000000
v 0.09603749 -0.05274346 0.00728420 0.54509804 0.71372549 0.60000000
v 0.09829533 -0.05264335 0.00722911 0.54509804 0.71372549 0.60000000
v 0.10057553 -0.05238751 0.00707217 0.54509804 0.71372549 0.60000000
v 0.10209566 -0.05213168 0.00690354 0.54509804 0.71372549 0.60000000
v 0.10359343 -0.05179797 0.00662973 0.54509804 0.71372549 0.60000000
v 0.10509120 -0.05017395 0.00704212 0.54509804 0.71372549 0.60000000
v 0.10625366 -0.04976239 0.00680838 0.54509804 0.71372549 0.60000000
v 0.10714785 -0.04837196 0.00702542 0.54509804 0.71372549 0.60000000
v 0.10848914 -0.04748209 0.00679335 0.54509804 0.71372549 0.60000000
v 0.10886918 -0.04632525 0.00701206 0.54509804 0.71372549 0.60000000
v 0.11141763 -0.04395596 0.00574486 0.54509804 0.71372549 0.60000000
v 0.11291541 -0.04264340 0.00428733 0.54509804 0.71372549 0.60000000
v 0.11334015 -0.04185364 0.00347592 0.54509804 0.71372549 0.60000000
v 0.11047873 -0.04463449 0.00656128 0.54509804 0.71372549 0.60000000
v 0.11316131 -0.04338867 -0.00075142 0.54509804 0.71372549 0.60000000
v 0.11275892 -0.04411169 -0.00135580 0.54509804 0.71372549 0.60000000
v 0.11177531 -0.04632525 -0.00112874 0.54509804 0.71372549 0.60000000
v 0.11094818 -0.04776017 -0.00112874 0.54509804 0.71372549 0.60000000
v 0.11007634 -0.04888364 -0.00112874 0.54509804 0.71372549 0.60000000
v 0.10869034 -0.04994036 -0.00254787 0.54509804 0.71372549 0.60000000
v 0.10634308 -0.05207606 -0.00240930 0.54509804 0.71372549 0.60000000
v 0.10489002 -0.05237639 -0.00325410 0.54509804 0.71372549 0.60000000
v 0.10274395 -0.05343311 -0.00327080 0.54509804 0.71372549 0.60000000
v 0.10057553 -0.05377794 -0.00390523 0.54509804 0.71372549 0.60000000
v -0.09377756 -0.05570229 -0.00112874 0.54509804 0.71372549 0.60000000
v 0.03275090 -0.05669228 -0.00074975 0.54509804 0.71372549 0.60000000
v 0.03049306 -0.05669228 -0.00072805 0.54509804 0.71372549 0.60000000
v -0.09603541 -0.05566892 -0.00112874 0.54509804 0.71372549 0.60000000
v -0.09831560 -0.05550207 -0.00112874 0.54509804 0.71372549 0.60000000
v -0.10057344 -0.05452321 -0.00274822 0.54509804 0.71372549 0.60000000
v -0.10057344 -0.05376682 -0.00387852 0.54509804 0.71372549 0.60000000
v -0.10486557 -0.05233189 -0.00322238 0.54509804 0.71372549 0.60000000
v -0.10629628 -0.05204269 -0.00235754 0.54509804 0.71372549 0.60000000
v -0.10546915 -0.05144202 -0.00386349 0.54509804 0.71372549 0.60000000
v -0.10191473 -0.05432299 -0.00241097 0.54509804 0.71372549 0.60000000
v -0.10714577 -0.05066338 -0.00317563 0.54509804 0.71372549 0.60000000
v -0.10797289 -0.04919509 -0.00399372 0.54509804 0.71372549 0.60000000
v -0.10864354 -0.04988475 -0.00248777 0.54509804 0.71372549 0.60000000
v -0.10940361 -0.04832747 -0.00312721 0.54509804 0.71372549 0.60000000
v -0.11074490 -0.04745984 -0.00226071 0.54509804 0.71372549 0.60000000
v -0.11023073 -0.04632525 -0.00387184 0.54509804 0.71372549 0.60000000
v -0.11063312 -0.04497932 -0.00440777 0.54509804 0.71372549 0.60000000
v -0.11152732 -0.04416731 -0.00354794 0.54509804 0.71372549 0.60000000
v -0.11242151 -0.04190926 -0.00330586 0.54509804 0.71372549 0.60000000
v -0.11313687 -0.04123073 -0.00249779 0.54509804 0.71372549 0.60000000
v -0.11324864 -0.03955109 -0.00270815 0.54509804 0.71372549 0.60000000
v 0.10057553 -0.05453433 -0.00277661 0.54509804 0.71372549 0.60000000
v 0.09829533 -0.05551319 -0.00112874 0.54509804 0.71372549 0.60000000
v 0.09603749 -0.05568004 -0.00112874 0.54509804 0.71372549 0.60000000
v 0.08023261 -0.05664778 -0.00046259 0.54509804 0.71372549 0.60000000
v 0.06214753 -0.05669228 -0.00074975 0.54509804 0.71372549 0.60000000
v 0.11313896 -0.04333305 0.00278138 0.54509804 0.71372549 0.60000000
v 0.11322837 -0.04356665 0.00112851 0.54509804 0.71372549 0.60000000
v -0.11405341 -0.03728192 0.00112851 0.54509804 0.71372549 0.60000000
v -0.11374044 -0.03955109 -0.00112874 0.54509804 0.71372549 0.60000000
v -0.11076725 -0.04303272 0.00680671 0.54509804 0.71372549 0.60000000
v -0.10844234 -0.04742647 0.00676163 0.54509804 0.71372549 0.60000000
v -0.11043193 -0.04453438 0.00650952 0.54509804 0.71372549 0.60000000
v -0.10676573 -0.04858330 0.00704712 0.54509804 0.71372549 0.60000000
v -0.10622922 -0.04972902 0.00678500 0.54509804 0.71372549 0.60000000
v -0.10508912 -0.05012946 0.00701540 0.54509804 0.71372549 0.60000000
v -0.11306979 -0.04095264 0.00462792 0.54509804 0.71372549 0.60000000
v -0.11360632 -0.03955109 0.00338910 0.54509804 0.71372549 0.60000000
v -0.10204886 -0.05212055 0.00689519 0.54509804 0.71372549 0.60000000
v -0.10354663 -0.05176460 0.00660636 0.54509804 0.71372549 0.60000000
v -0.10057344 -0.05236527 0.00706048 0.54509804 0.71372549 0.60000000
v -0.09831560 -0.05376682 0.00628580 0.54509804 0.71372549 0.60000000
v -0.09603541 -0.05387805 0.00641436 0.54509804 0.71372549 0.60000000
v -0.09377756 -0.05388917 0.00643272 0.54509804 0.71372549 0.60000000
v 0.09377965 -0.05388917 0.00643272 0.54509804 0.71372549 0.60000000
v 0.09603749 -0.05387805 0.00641603 0.54509804 0.71372549 0.60000000
v 0.09829533 -0.05376682 0.00629582 0.54509804 0.71372549 0.60000000
v 0.10057553 -0.05351098 0.00596024 0.54509804 0.71372549 0.60000000
v 0.10178269 -0.05426737 0.00457283 0.54509804 0.71372549 0.60000000
v 0.10267688 -0.05304380 0.00560128 0.54509804 0.71372549 0.60000000
v 0.10509120 -0.05234302 0.00499189 0.54509804 0.71372549 0.60000000
v 0.10509120 -0.05130854 0.00612218 0.54509804 0.71372549 0.60000000
v 0.10623131 -0.05199819 0.00454611 0.54509804 0.71372549 0.60000000
v 0.10701373 -0.05055215 0.00536253 0.54509804 0.71372549 0.60000000
v 0.10860092 -0.04985137 0.00467467 0.54509804 0.71372549 0.60000000
v 0.10777379 -0.04898375 0.00618062 0.54509804 0.71372549 0.60000000
v 0.10900331 -0.04837196 0.00551613 0.54509804 0.71372549 0.60000000
v 0.11070228 -0.04740422 0.00443258 0.54509804 0.71372549 0.60000000
v 0.11012105 -0.04652548 0.00574486 0.54509804 0.71372549 0.60000000
v 0.11112702 -0.04590256 0.00505366 0.54509804 0.71372549 0.60000000
v 0.11264715 -0.04407832 0.00347592 0.54509804 0.71372549 0.60000000
v 0.11280363 -0.04470123 0.00112851 0.54509804 0.71372549 0.60000000
v 0.11199886 -0.04632525 0.00112851 0.54509804 0.71372549 0.60000000
v 0.11105995 -0.04792702 0.00112851 0.54509804 0.71372549 0.60000000
v 0.11021047 -0.04906161 0.00112851 0.54509804 0.71372549 0.60000000
v 0.10895860 -0.05020733 -0.00112874 0.54509804 0.71372549 0.60000000
v 0.10772908 -0.05134191 -0.00112874 0.54509804 0.71372549 0.60000000
v 0.10661133 -0.05226515 -0.00112874 0.54509804 0.71372549 0.60000000
v 0.10509120 -0.05321065 -0.00112874 0.54509804 0.71372549 0.60000000
v 0.10352637 -0.05405603 -0.00112874 0.54509804 0.71372549 0.60000000
v 0.10196153 -0.05433411 -0.00243935 0.54509804 0.71372549 0.60000000
v -0.09377756 -0.05591364 0.00112851 0.54509804 0.71372549 0.60000000
v 0.03275090 -0.05684800 0.00112851 0.54509804 0.71372549 0.60000000
v 0.03049306 -0.05683688 0.00112851 0.54509804 0.71372549 0.60000000
v -0.09603541 -0.05588026 0.00112851 0.54509804 0.71372549 0.60000000
v -0.09831560 -0.05571341 0.00112851 0.54509804 0.71372549 0.60000000
v -0.10057344 -0.05526848 0.00112851 0.54509804 0.71372549 0.60000000
v -0.10057344 -0.05504601 -0.00112874 0.54509804 0.71372549 0.60000000
v -0.10345721 -0.05402265 -0.00112874 0.54509804 0.71372549 0.60000000
v -0.10508912 -0.05312166 -0.00112874 0.54509804 0.71372549 0.60000000
v -0.10651983 -0.05220954 -0.00112874 0.54509804 0.71372549 0.60000000
v -0.10765992 -0.05126405 -0.00112874 0.54509804 0.71372549 0.60000000
v -0.10231711 -0.05448984 -0.00112874 0.54509804 0.71372549 0.60000000
v -0.10886709 -0.05014058 -0.00112874 0.54509804 0.71372549 0.60000000
v -0.11000719 -0.04878353 -0.00112874 0.54509804 0.71372549 0.60000000
v -0.11087902 -0.04766006 -0.00112874 0.54509804 0.71372549 0.60000000
v -0.11163909 -0.04632525 -0.00112874 0.54509804 0.71372549 0.60000000
v -0.11266741 -0.04403383 -0.00122725 0.54509804 0.71372549 0.60000000
v -0.11293567 -0.04273239 -0.00204700 0.54509804 0.71372549 0.60000000
v -0.11105786 -0.04632525 -0.00274154 0.54509804 0.71372549 0.60000000
v -0.11331570 -0.04190926 -0.00122725 0.54509804 0.71372549 0.60000000
v 0.10057553 -0.05507938 -0.00112874 0.54509804 0.71372549 0.60000000
v 0.09829533 -0.05572454 0.00112851 0.54509804 0.71372549 0.60000000
v 0.09603749 -0.05588026 0.00112851 0.54509804 0.71372549 0.60000000
v 0.08161861 -0.05659216 -0.00030398 0.54509804 0.71372549 0.60000000
v 0.08023261 -0.05664778 0.00036552 0.54509804 0.71372549 0.60000000
v 0.06214753 -0.05684800 0.00112851 0.54509804 0.71372549 0.60000000
v 0.11146234 -0.04652548 0.00356274 0.54509804 0.71372549 0.60000000
v -0.11394164 -0.03955109 0.00112851 0.54509804 0.71372549 0.60000000
v -0.11358396 -0.04180915 0.00112851 0.54509804 0.71372549 0.60000000
v -0.11134848 -0.04390035 0.00571314 0.54509804 0.71372549 0.60000000
v -0.10978363 -0.04662559 0.00588177 0.54509804 0.71372549 0.60000000
v -0.10904593 -0.04858330 0.00514382 0.54509804 0.71372549 0.60000000
v -0.10855412 -0.04979576 0.00461790 0.54509804 0.71372549 0.60000000
v -0.10790583 -0.04858330 0.00627411 0.54509804 0.71372549 0.60000000
v -0.11108022 -0.04582470 0.00500190 0.54509804 0.71372549 0.60000000
v -0.10712341 -0.05020733 0.00548274 0.54509804 0.71372549 0.60000000
v -0.10618451 -0.05196482 0.00447265 0.54509804 0.71372549 0.60000000
v -0.10529031 -0.05139753 0.00577157 0.54509804 0.71372549 0.60000000
v -0.11324864 -0.04174241 0.00337408 0.54509804 0.71372549 0.60000000
v -0.11286861 -0.04245430 0.00411703 0.54509804 0.71372549 0.60000000
v -0.10265244 -0.05302155 0.00557624 0.54509804 0.71372549 0.60000000
v -0.10173589 -0.05425625 0.00454611 0.54509804 0.71372549 0.60000000
v -0.10057344 -0.05349985 0.00593352 0.54509804 0.71372549 0.60000000
v -0.10468673 -0.05242088 0.00509874 0.54509804 0.71372549 0.60000000
v -0.09831560 -0.05464557 0.00515717 0.54509804 0.71372549 0.60000000
v -0.10057344 -0.05442310 0.00480323 0.54509804 0.71372549 0.60000000
v -0.09603541 -0.05473455 0.00528406 0.54509804 0.71372549 0.60000000
v -0.09377756 -0.05475680 0.00530243 0.54509804 0.71372549 0.60000000
v 0.03049306 -0.05476792 0.00530243 0.54509804 0.71372549 0.60000000
v 0.06440537 -0.05476792 0.00530243 0.54509804 0.71372549 0.60000000
v 0.09377965 -0.05475680 0.00530243 0.54509804 0.71372549 0.60000000
v 0.09603749 -0.05474568 0.00528573 0.54509804 0.71372549 0.60000000
v 0.09829533 -0.05465669 0.00516552 0.54509804 0.71372549 0.60000000
v 0.10057553 -0.05443422 0.00482994 0.54509804 0.71372549 0.60000000
v 0.10222979 -0.05444534 0.00338910 0.54509804 0.71372549 0.60000000
v 0.10336989 -0.05397816 0.00338910 0.54509804 0.71372549 0.60000000
v 0.10057553 -0.05494590 0.00338910 0.54509804 0.71372549 0.60000000
v 0.10649956 -0.05218729 0.00338910 0.54509804 0.71372549 0.60000000
v 0.10761731 -0.05125292 0.00338910 0.54509804 0.71372549 0.60000000
v 0.10509120 -0.05306604 0.00338910 0.54509804 0.71372549 0.60000000
v 0.10886918 -0.05011834 0.00338910 0.54509804 0.71372549 0.60000000
v 0.11012105 -0.04853881 0.00356274 0.54509804 0.71372549 0.60000000
v 0.11094818 -0.04776017 0.00292496 0.54509804 0.71372549 0.60000000
v 0.10909273 -0.05035193 0.00112851 0.54509804 0.71372549 0.60000000
v 0.10790792 -0.05148652 0.00112851 0.54509804 0.71372549 0.60000000
v 0.10676782 -0.05238751 0.00112851 0.54509804 0.71372549 0.60000000
v 0.10509120 -0.05345536 0.00112851 0.54509804 0.71372549 0.60000000
v 0.10381698 -0.05417838 0.00112851 0.54509804 0.71372549 0.60000000
v 0.10240863 -0.05451208 -0.00112874 0.54509804 0.71372549 0.60000000
v 0.03049306 -0.05664778 0.00250089 0.54509804 0.71372549 0.60000000
v -0.09377756 -0.05556881 0.00338910 0.54509804 0.71372549 0.60000000
v -0.09603541 -0.05554656 0.00338910 0.54509804 0.71372549 0.60000000
v 0.03275090 -0.05664778 0.00250757 0.54509804 0.71372549 0.60000000
v -0.09831560 -0.05536859 0.00338910 0.54509804 0.71372549 0.60000000
v -0.10057344 -0.05491253 0.00338910 0.54509804 0.71372549 0.60000000
v -0.10216063 -0.05442310 0.00338910 0.54509804 0.71372549 0.60000000
v -0.10258538 -0.05460107 0.00112851 0.54509804 0.71372549 0.60000000
v -0.10372547 -0.05413389 0.00112851 0.54509804 0.71372549 0.60000000
v -0.10508912 -0.05336637 0.00112851 0.54509804 0.71372549 0.60000000
v -0.10669867 -0.05234302 0.00112851 0.54509804 0.71372549 0.60000000
v -0.10781641 -0.05140865 0.00112851 0.54509804 0.71372549 0.60000000
v -0.10902357 -0.05028519 0.00112851 0.54509804 0.71372549 0.60000000
v -0.11014131 -0.04896150 0.00112851 0.54509804 0.71372549 0.60000000
v -0.11099080 -0.04783804 0.00112851 0.54509804 0.71372549 0.60000000
v -0.11186264 -0.04632525 0.00112851 0.54509804 0.71372549 0.60000000
v -0.11273448 -0.04451214 0.00112851 0.54509804 0.71372549 0.60000000
v -0.11311451 -0.04325519 -0.00054106 0.54509804 0.71372549 0.60000000
v 0.10057553 -0.05529072 0.00112851 0.54509804 0.71372549 0.60000000
v 0.09829533 -0.05537971 0.00338910 0.54509804 0.71372549 0.60000000
v 0.09603749 -0.05554656 0.00338910 0.54509804 0.71372549 0.60000000
v 0.08161861 -0.05659216 0.00024364 0.54509804 0.71372549 0.60000000
v 0.06214753 -0.05664778 0.00250757 0.54509804 0.71372549 0.60000000
v -0.11315922 -0.04337755 0.00112851 0.54509804 0.71372549 0.60000000
v -0.11309216 -0.04319957 0.00260942 0.54509804 0.71372549 0.60000000
v -0.11065548 -0.04732636 0.00429067 0.54509804 0.71372549 0.60000000
v -0.11002954 -0.04850544 0.00347759 0.54509804 0.71372549 0.60000000
v -0.10880002 -0.05005160 0.00338910 0.54509804 0.71372549 0.60000000
v -0.10730225 -0.05133079 0.00358778 0.54509804 0.71372549 0.60000000
v -0.11255564 -0.04400046 0.00337408 0.54509804 0.71372549 0.60000000
v -0.11137083 -0.04648098 0.00347759 0.54509804 0.71372549 0.60000000
v -0.10651983 -0.05220954 0.00296503 0.54509804 0.71372549 0.60000000
v -0.10529031 -0.05278796 0.00358778 0.54509804 0.71372549 0.60000000
v -0.10327837 -0.05394479 0.00338910 0.54509804 0.71372549 0.60000000
v 0.03275090 -0.05590251 0.00363787 0.54509804 0.71372549 0.60000000
v 0.06214753 -0.05590251 0.00363787 0.54509804 0.71372549 0.60000000
v 0.10267688 -0.05462332 0.00112851 0.54509804 0.71372549 0.60000000
v -0.11090138 -0.04769343 0.00278305 0.54509804 0.71372549 0.60000000
f 1 2 3
f 1 3 4
f 1 4 5
f 1 5 6
f 1 6 16
f 1 16 7
f 1 7 8
f 1 8 2
f 2 8 22
f 2 22 9
f 2 9 10
f 2 10 11
f 2 11 12
f 2 12 3
f 3 12 4
f 4 12 26
f 4 26 13
f 4 13 27
f 4 27 14
f 4 14 5
f 5 14 6
f 6 15 31
f 6 31 16
f 6 14 17
f 6 17 15
f 7 16 18
f 7 18 19
f 7 19 20
f 7 20 8
f 8 20 21
f 8 21 22
f 9 23 10
f 9 22 40
f 9 40 23
f 10 23 24
f 10 24 11
f 11 24 25
f 11 25 12
f 12 25 26
f 13 26 28
f 13 28 27
f 14 27 29
f 14 29 17
f 15 30 54
f 15 54 31
f 15 17 32
f 15 32 33
f 15 33 30
f 16 31 18
f 17 29 32
f 18 31 34
f 18 34 35
f 18 35 36
f 18 36 37
f 18 37 19
f 19 37 38
f 19 38 20
f 20 38 21
f 21 38 39
f 21 39 65
f 21 65 40
f 21 40 22
f 23 41 42
f 23 42 24
f 23 40 67
f 23 67 41
f 24 42 43
f 24 43 44
f 24 44 25
f 25 44 45
f 25 45 26
f 26 45 46
f 26 46 28
f 27 28 47
f 27 47 48
f 27 48 29
f 28 46 49
f 28 49 50
f 28 50 51
f 28 51 47
f 29 52 32
f 29 48 52
f 30 53 82
f 30 82 54
f 30 33 53
f 31 54 55
f 31 55 34
f 32 52 56
f 32 56 57
f 32 57 33
f 33 57 58
f 33 58 53
f 34 55 59
f 34 59 35
f 35 59 89
f 35 89 60
f 35 60 36
f 36 60 61
f 36 61 62
f 36 62 37
f 37 62 63
f 37 63 38
f 38 63 39
f 39 63 64
f 39 64 65
f 40 65 66
f 40 66 67
f 41 68 69
f 41 69 42
f 41 67 99
f 41 99 68
f 42 69 70
f 42 70 43
f 43 70 71
f 43 71 72
f 43 72 44
f 44 72 73
f 44 73 45
f 45 73 74
f 45 74 75
f 45 75 46
f 46 75 49
f 47 51 76
f 47 76 48
f 48 77 52
f 48 76 77
f 49 75 78
f 49 78 79
f 49 79 50
f 50 79 80
f 50 80 51
f 51 80 76
f 52 77 81
f 52 81 56
f 53 58 87
f 53 87 82
f 54 82 59
f 54 59 55
f 56 83 57
f 56 81 84
f 56 84 83
f 57 85 58
f 57 83 85
f 58 85 86
f 58 86 125
f 58 125 87
f 59 87 88
f 59 88 89
f 59 82 87
f 60 89 90
f 60 90 61
f 61 90 91
f 61 91 92
f 61 92 62
f 62 92 93
f 62 93 63
f 63 93 64
f 64 93 94
f 64 94 95
f 64 95 65
f 65 95 96
f 65 96 66
f 66 96 97
f 66 97 98
f 66 98 67
f 67 98 99
f 68 100 101
f 68 101 69
f 68 99 144
f 68 144 100
f 69 101 102
f 69 102 70
f 70 102 103
f 70 103 104
f 70 104 71
f 71 104 105
f 71 105 106
f 71 106 72
f 72 106 73
f 73 106 74
f 74 106 107
f 74 107 108
f 74 108 75
f 75 108 78
f 76 80 109
f 76 109 110
f 76 110 111
f 76 111 77
f 77 111 112
f 77 112 81
f 78 108 113
f 78 113 114
f 78 114 79
f 79 114 115
f 79 115 80
f 80 115 116
f 80 116 109
f 81 112 84
f 83 117 118
f 83 118 119
f 83 119 85
f 83 84 117
f 84 112 120
f 84 120 121
f 84 121 122
f 84 122 123
f 84 123 117
f 85 119 124
f 85 124 86
f 86 124 174
f 86 174 125
f 87 125 126
f 87 126 88
f 88 126 127
f 88 127 128
f 88 128 89
f 89 128 129
f 89 129 90
f 90 129 130
f 90 130 91
f 91 130 131
f 91 131 132
f 91 132 92
f 92 132 93
f 93 132 133
f 93 133 94
f 94 133 134
f 94 134 135
f 94 135 136
f 94 136 95
f 95 136 137
f 95 137 138
f 95 138 96
f 96 138 139
f 96 139 97
f 97 139 140
f 97 140 141
f 97 141 142
f 97 142 98
f 98 142 143
f 98 143 99
f 99 143 144
f 100 145 146
f 100 146 101
f 100 144 198
f 100 198 145
f 101 146 147
f 101 147 102
f 102 147 148
f 102 148 103
f 103 148 104
f 104 148 149
f 104 149 150
f 104 150 151
f 104 151 105
f 105 151 106
f 106 151 107
f 107 151 152
f 107 152 153
f 107 153 108
f 108 153 113
f 109 154 155
f 109 155 156
f 109 156 157
f 109 157 158
f 109 158 159
f 109 159 110
f 109 116 154
f 110 159 160
f 110 160 111
f 111 160 112
f 112 160 120
f 113 161 162
f 113 162 114
f 113 153 163
f 113 163 164
f 113 164 161
f 114 162 115
f 115 162 165
f 115 165 154
f 115 154 116
f 117 123 166
f 117 166 118
f 118 166 167
f 118 167 168
f 118 168 124
f 118 124 119
f 120 160 169
f 120 169 121
f 121 169 158
f 121 158 170
f 121 170 171
f 121 171 172
f 121 172 122
f 122 173 123
f 122 172 173
f 123 173 166
f 124 168 175
f 124 175 174
f 125 174 175
f 125 175 126
f 126 176 177
f 126 177 178
f 126 178 127
f 126 175 176
f 127 178 179
f 127 179 180
f 127 180 128
f 128 180 181
f 128 181 129
f 129 181 182
f 129 182 130
f 130 182 183
f 130 183 131
f 131 183 184
f 131 184 132
f 132 184 185
f 132 185 186
f 132 186 133
f 133 186 134
f 134 186 187
f 134 187 188
f 134 188 135
f 135 137 136
f 135 188 189
f 135 189 137
f 137 189 190
f 137 190 191
f 137 191 139
f 137 139 138
f 139 191 140
f 140 192 141
f 140 191 190
f 140 190 193
f 140 193 194
f 140 194 192
f 141 192 142
f 142 192 195
f 142 195 143
f 143 195 196
f 143 196 197
f 143 197 144
f 144 197 198
f 145 199 200
f 145 200 146
f 145 198 251
f 145 251 199
f 146 200 147
f 147 200 201
f 147 201 148
f 148 201 202
f 148 202 149
f 149 202 203
f 149 203 204
f 149 204 150
f 150 204 205
f 150 205 152
f 150 152 151
f 152 205 206
f 152 206 207
f 152 207 164
f 152 164 163
f 152 163 153
f 154 165 208
f 154 208 209
f 154 209 155
f 155 209 156
f 156 209 210
f 156 210 211
f 156 211 212
f 156 212 213
f 156 213 157
f 157 213 158
f 158 213 214
f 158 214 170
f 158 169 160
f 158 160 159
f 161 164 215
f 161 215 162
f 162 215 208
f 162 208 165
f 164 207 206
f 164 206 216
f 164 216 217
f 164 217 218
f 164 218 215
f 166 173 219
f 166 219 167
f 167 219 220
f 167 220 221
f 167 221 222
f 167 222 280
f 167 280 223
f 167 223 175
f 167 175 168
f 170 214 171
f 171 214 224
f 171 224 225
f 171 225 226
f 171 226 227
f 171 227 172
f 172 227 173
f 173 227 228
f 173 228 219
f 175 223 176
f 176 223 177
f 177 229 230
f 177 230 178
f 177 223 229
f 178 230 231
f 178 231 179
f 179 231 232
f 179 232 180
f 180 232 233
f 180 233 234
f 180 234 181
f 181 234 182
f 182 234 235
f 182 235 183
f 183 235 236
f 183 236 237
f 183 237 238
f 183 238 184
f 184 238 239
f 184 239 185
f 185 239 186
f 186 239 240
f 186 240 187
f 187 240 188
f 188 240 241
f 188 241 242
f 188 242 243
f 188 243 189
f 189 243 244
f 189 244 190
f 190 244 193
f 192 245 195
f 192 194 246
f 192 246 245
f 193 244 247
f 193 247 248
f 193 248 194
f 194 248 249
f 194 249 246
f 195 250 196
f 195 245 250
f 196 250 197
f 197 250 198
f 198 250 251
f 199 252 200
f 199 251 317
f 199 317 379
f 199 379 446
f 199 446 447
f 199 447 380
f 199 380 318
f 199 318 252
f 200 252 318
f 200 318 253
f 200 253 201
f 201 253 254
f 201 254 202
f 202 254 255
f 202 255 256
f 202 256 203
f 203 256 257
f 203 257 258
f 203 258 259
f 203 259 260
f 203 260 204
f 204 260 206
f 204 206 205
f 206 260 261
f 206 261 262
f 206 262 216
f 208 215 263
f 208 263 209
f 209 263 264
f 209 264 265
f 209 265 210
f 210 265 211
f 211 265 266
f 211 266 267
f 211 267 268
f 211 268 269
f 211 269 270
f 211 270 214
f 211 214 212
f 212 214 213
f 214 270 271
f 214 271 224
f 215 218 272
f 215 272 263
f 216 262 273
f 216 273 217
f 217 273 274
f 217 274 272
f 217 272 218
f 219 275 220
f 219 228 276
f 219 276 277
f 219 277 275
f 220 275 221
f 221 275 278
f 221 278 222
f 222 279 280
f 222 278 279
f 223 280 281
f 223 281 282
f 223 282 283
f 223 283 284
f 223 284 229
f 224 271 285
f 224 285 225
f 225 285 226
f 226 285 286
f 226 286 287
f 226 287 288
f 226 288 276
f 226 276 227
f 227 276 228
f 229 284 230
f 230 284 289
f 230 289 231
f 231 289 290
f 231 290 291
f 231 291 292
f 231 292 232
f 232 292 293
f 232 293 294
f 232 294 295
f 232 295 233
f 233 295 234
f 234 295 296
f 234 296 235
f 235 296 236
f 236 296 297
f 236 297 237
f 237 294 298
f 237 298 299
f 237 299 300
f 237 300 301
f 237 301 302
f 237 302 238
f 237 297 294
f 238 302 239
f 239 302 303
f 239 303 304
f 239 304 240
f 240 304 241
f 241 304 305
f 241 305 306
f 241 306 242
f 242 244 243
f 242 306 244
f 244 306 307
f 244 307 308
f 244 308 247
f 245 309 250
f 245 246 310
f 245 310 309
f 246 249 311
f 246 311 312
f 246 312 310
f 247 308 248
f 248 308 313
f 248 313 249
f 249 313 314
f 249 314 315
f 249 315 316
f 249 316 311
f 250 309 317
f 250 317 251
f 253 318 381
f 253 381 319
f 253 319 254
f 254 319 320
f 254 320 255
f 255 320 321
f 255 321 257
f 255 257 256
f 257 321 322
f 257 322 323
f 257 323 258
f 258 323 324
f 258 324 325
f 258 325 259
f 259 325 260
f 260 325 261
f 261 325 326
f 261 326 273
f 261 273 262
f 263 272 264
f 264 272 327
f 264 327 265
f 265 327 328
f 265 328 266
f 266 328 329
f 266 329 267
f 267 329 330
f 267 330 268
f 268 330 331
f 268 331 332
f 268 332 333
f 268 333 334
f 268 334 269
f 269 271 270
f 269 334 271
f 271 334 285
f 272 274 328
f 272 328 327
f 273 326 335
f 273 335 336
f 273 336 274
f 274 336 329
f 274 329 328
f 275 277 337
f 275 337 278
f 276 288 277
f 277 288 338
f 277 338 339
f 277 339 340
f 277 340 341
f 277 341 342
f 277 342 337
f 278 337 343
f 278 343 279
f 279 344 345
f 279 345 346
f 279 346 280
f 279 343 347
f 279 347 344
f 280 346 281
f 281 346 282
f 282 346 283
f 283 346 348
f 283 348 349
f 283 349 284
f 284 349 289
f 285 334 333
f 285 333 286
f 286 333 350
f 286 350 287
f 287 350 351
f 287 351 352
f 287 352 288
f 288 352 338
f 289 349 353
f 289 353 290
f 290 353 354
f 290 354 291
f 291 354 355
f 291 355 356
f 291 356 292
f 292 356 357
f 292 357 358
f 292 358 293
f 293 358 294
f 294 358 359
f 294 359 299
f 294 299 298
f 294 297 296
f 294 296 295
f 299 359 358
f 299 358 360
f 299 360 361
f 299 361 362
f 299 362 363
f 299 363 300
f 300 363 301
f 301 363 364
f 301 364 365
f 301 365 303
f 301 303 302
f 303 365 304
f 304 365 364
f 304 364 366
f 304 366 305
f 305 366 306
f 306 366 367
f 306 367 368
f 306 368 369
f 306 369 308
f 306 308 307
f 308 369 370
f 308 370 371
f 308 371 313
f 309 310 372
f 309 372 317
f 310 312 373
f 310 373 372
f 311 316 312
f 312 316 374
f 312 374 373
f 313 371 375
f 313 375 314
f 314 375 315
f 315 375 376
f 315 376 377
f 315 377 316
f 316 377 378
f 316 378 374
f 317 372 438
f 317 438 379
f 318 380 452
f 318 452 381
f 319 381 382
f 319 382 320
f 320 382 383
f 320 383 321
f 321 383 384
f 321 384 322
f 322 384 385
f 322 385 386
f 322 386 323
f 323 386 387
f 323 387 324
f 324 387 388
f 324 388 325
f 325 388 326
f 326 388 389
f 326 389 335
f 329 390 391
f 329 391 330
f 329 336 390
f 330 391 392
f 330 392 331
f 331 392 393
f 331 393 332
f 332 350 333
f 332 393 394
f 332 394 350
f 335 389 395
f 335 395 390
f 335 390 336
f 337 342 396
f 337 396 347
f 337 347 343
f 338 352 339
f 339 352 397
f 339 397 398
f 339 398 340
f 340 398 399
f 340 399 341
f 341 399 400
f 341 400 342
f 342 400 401
f 342 401 402
f 342 402 396
f 344 347 414
f 344 414 403
f 344 403 404
f 344 404 405
f 344 405 345
f 345 406 346
f 345 405 407
f 345 407 406
f 346 406 408
f 346 408 409
f 346 409 348
f 347 396 410
f 347 410 411
f 347 411 412
f 347 412 413
f 347 413 414
f 348 409 477
f 348 477 415
f 348 415 416
f 348 416 349
f 349 416 353
f 350 394 418
f 350 418 351
f 351 417 352
f 351 418 419
f 351 419 417
f 352 417 397
f 353 416 420
f 353 420 354
f 354 420 421
f 354 421 422
f 354 422 355
f 355 422 423
f 355 423 424
f 355 424 356
f 356 424 357
f 357 424 425
f 357 425 358
f 358 425 426
f 358 426 360
f 360 426 361
f 361 427 362
f 361 426 428
f 361 428 429
f 361 429 430
f 361 430 427
f 362 427 363
f 363 431 364
f 363 427 432
f 363 432 431
f 364 431 366
f 366 431 432
f 366 432 433
f 366 433 367
f 367 433 368
f 368 433 434
f 368 434 435
f 368 435 369
f 369 435 370
f 370 435 371
f 371 435 436
f 371 436 375
f 372 373 437
f 372 437 500
f 372 500 438
f 373 374 439
f 373 439 437
f 374 378 440
f 374 440 439
f 375 436 441
f 375 441 376
f 376 441 442
f 376 442 377
f 377 442 443
f 377 443 378
f 378 443 444
f 378 444 440
f 379 445 446
f 379 438 445
f 380 447 448
f 380 448 449
f 380 449 450
f 380 450 451
f 380 451 452
f 381 452 453
f 381 453 382
f 382 453 454
f 382 454 383
f 383 454 455
f 383 455 384
f 384 455 456
f 384 456 385
f 385 456 526
f 385 526 457
f 385 457 458
f 385 458 386
f 386 458 387
f 387 458 459
f 387 459 389
f 387 389 388
f 389 459 460
f 389 460 395
f 390 395 392
f 390 392 391
f 392 395 461
f 392 461 393
f 393 461 462
f 393 462 463
f 393 463 394
f 394 463 418
f 395 460 461
f 396 411 410
f 396 402 411
f 397 417 464
f 397 464 398
f 398 464 399
f 399 465 400
f 399 464 466
f 399 466 465
f 400 467 468
f 400 468 401
f 400 465 467
f 401 468 469
f 401 469 402
f 402 469 411
f 403 470 404
f 403 414 481
f 403 481 470
f 404 471 472
f 404 472 405
f 404 470 471
f 405 472 473
f 405 473 407
f 406 407 408
f 407 473 408
f 408 474 475
f 408 475 476
f 408 476 409
f 408 473 474
f 409 476 477
f 411 478 479
f 411 479 412
f 411 469 478
f 412 479 413
f 413 479 480
f 413 480 481
f 413 481 414
f 415 477 546
f 415 546 482
f 415 482 416
f 416 482 420
f 417 419 484
f 417 484 464
f 418 463 419
f 419 463 483
f 419 483 550
f 419 550 484
f 420 482 421
f 421 482 485
f 421 485 486
f 421 486 487
f 421 487 488
f 421 488 422
f 422 488 489
f 422 489 423
f 423 489 490
f 423 490 424
f 424 490 491
f 424 491 425
f 425 491 428
f 425 428 426
f 427 492 432
f 427 430 493
f 427 493 492
f 428 491 494
f 428 494 429
f 429 494 495
f 429 495 430
f 430 495 496
f 430 496 493
f 432 492 433
f 433 492 493
f 433 493 434
f 434 493 497
f 434 497 498
f 434 498 435
f 435 498 499
f 435 499 441
f 435 441 436
f 437 439 503
f 437 503 500
f 438 500 501
f 438 501 502
f 438 502 445
f 439 440 504
f 439 504 503
f 440 444 505
f 440 505 565
f 440 565 504
f 441 499 506
f 441 506 507
f 441 507 508
f 441 508 442
f 442 508 443
f 443 508 509
f 443 509 444
f 444 509 510
f 444 510 511
f 444 511 505
f 445 512 446
f 445 502 512
f 446 512 513
f 446 513 514
f 446 514 515
f 446 515 516
f 446 516 447
f 447 516 517
f 447 517 448
f 448 517 518
f 448 518 519
f 448 519 449
f 449 519 520
f 449 520 521
f 449 521 450
f 450 521 451
f 451 521 453
f 451 453 452
f 453 521 454
f 454 521 522
f 454 522 523
f 454 523 455
f 455 523 456
f 456 523 524
f 456 524 525
f 456 525 526
f 457 526 589
f 457 589 527
f 457 527 458
f 458 527 528
f 458 528 459
f 459 528 460
f 460 528 462
f 460 462 461
f 462 529 483
f 462 483 463
f 462 528 527
f 462 527 529
f 464 484 466
f 465 466 530
f 465 530 531
f 465 531 467
f 466 484 532
f 466 532 591
f 466 591 530
f 467 533 534
f 467 534 468
f 467 531 533
f 468 534 469
f 469 534 535
f 469 535 536
f 469 536 478
f 470 537 471
f 470 481 549
f 470 549 537
f 471 537 538
f 471 538 539
f 471 539 540
f 471 540 472
f 472 540 473
f 473 540 541
f 473 541 542
f 473 542 474
f 474 542 543
f 474 543 475
f 475 543 544
f 475 544 545
f 475 545 476
f 476 545 546
f 476 546 477
f 478 547 480
f 478 480 479
f 478 536 547
f 480 547 548
f 480 548 549
f 480 549 481
f 482 546 551
f 482 551 485
f 483 529 590
f 483 590 550
f 484 550 532
f 485 551 552
f 485 552 486
f 486 552 624
f 486 624 553
f 486 553 487
f 487 553 554
f 487 554 555
f 487 555 488
f 488 555 556
f 488 556 489
f 489 556 557
f 489 557 490
f 490 557 491
f 491 557 494
f 493 496 497
f 494 557 558
f 494 558 495
f 495 559 496
f 495 558 560
f 495 560 559
f 496 559 497
f 497 499 498
f 497 559 560
f 497 560 506
f 497 506 499
f 500 503 501
f 501 561 502
f 501 503 562
f 501 562 561
f 502 561 563
f 502 563 512
f 503 504 564
f 503 564 562
f 504 565 566
f 504 566 564
f 505 511 571
f 505 571 565
f 506 560 567
f 506 567 507
f 507 567 636
f 507 636 568
f 507 568 508
f 508 568 509
f 509 568 569
f 509 569 511
f 509 511 510
f 511 569 570
f 511 570 640
f 511 640 571
f 512 572 513
f 512 563 572
f 513 572 573
f 513 573 574
f 513 574 514
f 514 574 515
f 515 574 575
f 515 575 576
f 515 576 516
f 516 576 577
f 516 577 517
f 517 578 518
f 517 577 578
f 518 578 579
f 518 579 580
f 518 580 581
f 518 581 519
f 519 581 582
f 519 582 583
f 519 583 520
f 520 583 584
f 520 584 522
f 520 522 521
f 522 584 523
f 523 584 585
f 523 585 524
f 524 585 586
f 524 586 587
f 524 587 525
f 525 587 588
f 525 588 589
f 525 589 526
f 527 589 590
f 527 590 529
f 530 591 592
f 530 592 593
f 530 593 531
f 531 593 594
f 531 594 533
f 532 550 591
f 533 594 595
f 533 595 596
f 533 596 534
f 534 597 535
f 534 596 598
f 534 598 597
f 535 597 599
f 535 599 600
f 535 600 601
f 535 601 536
f 536 601 602
f 536 602 547
f 537 603 538
f 537 549 620
f 537 620 604
f 537 604 603
f 538 603 605
f 538 605 606
f 538 606 539
f 539 606 607
f 539 607 541
f 539 541 540
f 541 607 608
f 541 608 609
f 541 609 542
f 542 609 610
f 542 610 611
f 542 611 543
f 543 611 612
f 543 612 544
f 544 612 613
f 544 613 614
f 544 614 545
f 545 614 551
f 545 551 546
f 547 602 615
f 547 615 548
f 548 615 616
f 548 616 617
f 548 617 549
f 549 617 618
f 549 618 619
f 549 619 620
f 550 590 621
f 550 621 698
f 550 698 622
f 550 622 591
f 551 614 552
f 552 614 623
f 552 623 624
f 553 624 704
f 553 704 625
f 553 625 626
f 553 626 627
f 553 627 554
f 554 627 555
f 555 627 556
f 556 627 628
f 556 628 557
f 557 628 558
f 558 628 560
f 560 628 567
f 561 629 563
f 561 562 630
f 561 630 629
f 562 564 630
f 563 629 631
f 563 631 632
f 563 632 572
f 564 633 630
f 564 566 634
f 564 634 633
f 565 571 566
f 566 571 635
f 566 635 634
f 567 628 636
f 568 636 637
f 568 637 569
f 569 637 570
f 570 637 638
f 570 638 639
f 570 639 640
f 571 640 641
f 571 641 635
f 572 642 643
f 572 643 573
f 572 632 642
f 573 644 645
f 573 645 574
f 573 643 644
f 574 645 646
f 574 646 575
f 575 646 647
f 575 647 576
f 576 647 577
f 577 648 578
f 577 647 648
f 578 649 579
f 578 648 649
f 579 649 580
f 580 649 650
f 580 650 651
f 580 651 652
f 580 652 581
f 581 652 653
f 581 653 582
f 582 653 654
f 582 654 655
f 582 655 584
f 582 584 583
f 584 655 585
f 585 655 656
f 585 656 586
f 586 657 658
f 586 658 587
f 586 656 659
f 586 659 657
f 587 658 660
f 587 660 588
f 588 660 698
f 588 698 621
f 588 621 590
f 588 590 589
f 591 622 592
f 592 661 593
f 592 622 661
f 593 661 662
f 593 662 594
f 594 662 595
f 595 662 663
f 595 663 664
f 595 664 665
f 595 665 598
f 595 598 596
f 597 598 599
f 598 665 664
f 598 664 666
f 598 666 667
f 598 667 599
f 599 667 668
f 599 668 669
f 599 669 670
f 599 670 600
f 600 670 601
f 601 671 672
f 601 672 602
f 601 670 671
f 602 672 615
f 603 673 676
f 603 676 605
f 603 604 674
f 603 674 675
f 603 675 673
f 604 620 697
f 604 697 674
f 605 676 677
f 605 677 678
f 605 678 606
f 606 678 679
f 606 679 607
f 607 679 608
f 608 679 680
f 608 680 681
f 608 681 682
f 608 682 609
f 609 682 683
f 609 683 684
f 609 684 610
f 610 685 686
f 610 686 687
f 610 687 612
f 610 612 611
f 610 684 685
f 612 687 688
f 612 688 689
f 612 689 613
f 613 689 690
f 613 690 691
f 613 691 614
f 614 691 623
f 615 672 692
f 615 692 616
f 616 692 693
f 616 693 694
f 616 694 695
f 616 695 696
f 616 696 617
f 617 696 697
f 617 697 618
f 618 697 619
f 619 697 620
f 622 699 700
f 622 700 661
f 622 698 699
f 623 691 701
f 623 701 702
f 623 702 624
f 624 702 703
f 624 703 704
f 625 704 639
f 625 639 638
f 625 638 637
f 625 637 626
f 626 637 636
f 626 636 627
f 627 636 628
f 629 630 631
f 630 705 631
f 630 633 705
f 631 705 706
f 631 706 707
f 631 707 708
f 631 708 632
f 632 708 709
f 632 709 642
f 633 634 710
f 633 710 711
f 633 711 705
f 634 635 713
f 634 713 710
f 635 641 712
f 635 712 713
f 639 704 703
f 639 703 714
f 639 714 641
f 639 641 640
f 641 714 774
f 641 774 712
f 642 715 716
f 642 716 644
f 642 644 643
f 642 709 715
f 644 717 718
f 644 718 645
f 644 716 717
f 645 718 719
f 645 719 646
f 646 719 720
f 646 720 647
f 647 720 648
f 648 721 649
f 648 720 721
f 649 722 650
f 649 721 722
f 650 722 723
f 650 723 651
f 651 723 724
f 651 724 725
f 651 725 726
f 651 726 652
f 652 726 727
f 652 727 728
f 652 728 653
f 653 728 729
f 653 729 730
f 653 730 654
f 654 659 655
f 654 730 659
f 655 659 656
f 657 731 658
f 657 659 731
f 658 731 732
f 658 732 733
f 658 733 660
f 659 730 734
f 659 734 731
f 660 733 699
f 660 699 698
f 661 700 735
f 661 735 736
f 661 736 664
f 661 664 663
f 661 663 662
f 664 736 737
f 664 737 738
f 664 738 739
f 664 739 740
f 664 740 666
f 666 740 667
f 667 740 668
f 668 741 669
f 668 740 741
f 669 741 670
f 670 741 742
f 670 742 743
f 670 743 744
f 670 744 671
f 671 744 672
f 672 744 692
f 673 745 676
f 673 675 745
f 674 697 696
f 674 696 675
f 675 696 771
f 675 771 746
f 675 746 747
f 675 747 745
f 676 745 748
f 676 748 677
f 677 748 749
f 677 749 750
f 677 750 678
f 678 750 751
f 678 751 679
f 679 751 680
f 680 751 681
f 681 752 753
f 681 753 754
f 681 754 683
f 681 683 682
f 681 751 755
f 681 755 752
f 683 754 753
f 683 753 756
f 683 756 757
f 683 757 685
f 683 685 684
f 685 757 758
f 685 758 759
f 685 759 760
f 685 760 761
f 685 761 762
f 685 762 686
f 686 762 688
f 686 688 687
f 688 762 763
f 688 763 764
f 688 764 689
f 689 764 690
f 690 764 765
f 690 765 766
f 690 766 701
f 690 701 691
f 692 744 767
f 692 767 693
f 693 767 768
f 693 768 769
f 693 769 694
f 694 769 695
f 695 770 696
f 695 769 770
f 696 770 771
f 699 733 772
f 699 772 773
f 699 773 735
f 699 735 700
f 701 766 703
f 701 703 702
f 703 774 714
f 703 766 775
f 703 775 844
f 703 844 774
f 705 711 776
f 705 776 706
f 706 776 707
f 707 777 708
f 707 776 778
f 707 778 777
f 708 777 779
f 708 779 709
f 709 779 780
f 709 780 781
f 709 781 715
f 710 713 782
f 710 782 711
f 711 782 776
f 712 783 713
f 712 774 844
f 712 844 783
f 713 783 782
f 715 784 716
f 715 781 785
f 715 785 784
f 716 784 786
f 716 786 717
f 717 787 788
f 717 788 718
f 717 786 787
f 718 788 789
f 718 789 719
f 719 789 790
f 719 790 720
f 720 790 721
f 721 791 722
f 721 790 791
f 722 792 723
f 722 791 792
f 723 793 724
f 723 792 793
f 724 794 795
f 724 795 725
f 724 793 794
f 725 795 796
f 725 796 797
f 725 797 727
f 725 727 726
f 727 798 799
f 727 799 800
f 727 800 801
f 727 801 729
f 727 729 728
f 727 797 798
f 729 801 800
f 729 800 802
f 729 802 803
f 729 803 804
f 729 804 734
f 729 734 730
f 731 734 805
f 731 805 732
f 732 806 772
f 732 772 733
f 732 805 806
f 734 804 805
f 735 773 807
f 735 807 736
f 736 807 737
f 737 807 808
f 737 808 738
f 738 809 810
f 738 810 739
f 738 808 809
f 739 810 811
f 739 811 740
f 740 811 812
f 740 812 741
f 741 812 813
f 741 813 814
f 741 814 815
f 741 815 816
f 741 816 742
f 742 816 743
f 743 816 744
f 744 816 767
f 745 817 820
f 745 820 748
f 745 747 817
f 746 818 747
f 746 771 842
f 746 842 818
f 747 818 819
f 747 819 817
f 748 820 821
f 748 821 749
f 749 821 822
f 749 822 823
f 749 823 750
f 750 823 755
f 750 755 751
f 752 755 753
f 753 755 824
f 753 824 825
f 753 825 826
f 753 826 827
f 753 827 758
f 753 758 756
f 755 823 828
f 755 828 824
f 756 758 757
f 758 827 829
f 758 829 830
f 758 830 760
f 758 760 759
f 760 831 832
f 760 832 833
f 760 833 834
f 760 834 835
f 760 835 762
f 760 762 761
f 760 830 831
f 762 835 763
f 763 834 764
f 763 835 834
f 764 834 765
f 765 834 836
f 765 836 775
f 765 775 766
f 767 816 837
f 767 837 768
f 768 837 904
f 768 904 838
f 768 838 769
f 769 838 839
f 769 839 840
f 769 840 770
f 770 840 907
f 770 907 841
f 770 841 842
f 770 842 771
f 772 806 843
f 772 843 807
f 772 807 773
f 775 836 845
f 775 845 844
f 776 782 846
f 776 846 778
f 777 778 847
f 777 847 848
f 777 848 849
f 777 849 850
f 777 850 780
f 777 780 779
f 778 846 851
f 778 851 847
f 780 850 849
f 780 849 852
f 780 852 853
f 780 853 854
f 780 854 785
f 780 785 781
f 782 783 855
f 782 855 856
f 782 856 846
f 783 844 845
f 783 845 855
f 784 785 857
f 784 857 858
f 784 858 859
f 784 859 786
f 785 854 860
f 785 860 857
f 786 859 787
f 787 861 788
f 787 859 862
f 787 862 861
f 788 863 864
f 788 864 789
f 788 861 863
f 789 864 865
f 789 865 866
f 789 866 790
f 790 866 867
f 790 867 868
f 790 868 791
f 791 868 869
f 791 869 792
f 792 869 870
f 792 870 793
f 793 870 794
f 794 871 872
f 794 872 798
f 794 798 796
f 794 796 795
f 794 870 873
f 794 873 871
f 796 798 797
f 798 874 875
f 798 875 800
f 798 800 799
f 798 872 876
f 798 876 874
f 800 877 878
f 800 878 803
f 800 803 802
f 800 875 877
f 803 879 843
f 803 843 806
f 803 806 805
f 803 805 804
f 803 878 879
f 807 843 808
f 808 843 879
f 808 879 809
f 809 879 810
f 810 879 877
f 810 877 880
f 810 880 811
f 811 880 881
f 811 881 812
f 812 881 813
f 813 882 883
f 813 883 814
f 813 881 882
f 814 883 884
f 814 884 815
f 815 884 885
f 815 885 816
f 816 885 837
f 817 819 886
f 817 886 887
f 817 887 888
f 817 888 820
f 818 842 908
f 818 908 889
f 818 889 886
f 818 886 819
f 820 888 821
f 821 888 890
f 821 890 822
f 822 890 891
f 822 891 892
f 822 892 893
f 822 893 828
f 822 828 823
f 824 894 825
f 824 828 893
f 824 893 894
f 825 895 896
f 825 896 826
f 825 894 895
f 826 896 827
f 827 897 898
f 827 898 829
f 827 896 897
f 829 898 899
f 829 899 830
f 830 899 831
f 831 899 900
f 831 900 901
f 831 901 832
f 832 901 902
f 832 902 903
f 832 903 833
f 833 903 834
f 834 903 836
f 836 903 845
f 837 885 904
f 838 904 873
f 838 873 905
f 838 905 906
f 838 906 839
f 839 906 841
f 839 841 907
f 839 907 840
f 841 908 842
f 841 906 908
f 845 903 909
f 845 909 910
f 845 910 855
f 846 856 851
f 847 851 911
f 847 911 848
f 848 911 849
f 849 911 912
f 849 912 913
f 849 913 914
f 849 914 853
f 849 853 852
f 851 856 915
f 851 915 916
f 851 916 911
f 853 914 917
f 853 917 918
f 853 918 919
f 853 919 858
f 853 858 860
f 853 860 854
f 855 910 856
f 856 910 915
f 857 860 858
f 858 919 892
f 858 892 891
f 858 891 862
f 858 862 859
f 861 890 888
f 861 888 863
f 861 862 890
f 862 891 890
f 863 888 864
f 864 888 887
f 864 887 886
f 864 886 889
f 864 889 920
f 864 920 865
f 865 920 921
f 865 921 866
f 866 921 867
f 867 921 908
f 867 908 868
f 868 906 869
f 868 908 906
f 869 905 870
f 869 906 905
f 870 905 873
f 871 873 904
f 871 904 922
f 871 922 884
f 871 884 872
f 872 884 876
f 874 876 883
f 874 883 882
f 874 882 881
f 874 881 875
f 875 881 877
f 876 884 883
f 877 881 880
f 877 879 878
f 884 922 885
f 885 922 904
f 889 908 921
f 889 921 920
f 892 919 894
f 892 894 893
f 894 919 918
f 894 918 895
f 895 918 917
f 895 917 896
f 896 917 897
f 897 917 913
f 897 913 898
f 898 913 899
f 899 913 923
f 899 923 900
f 900 923 901
f 901 923 916
f 901 916 902
f 902 916 910
f 902 910 909
f 902 909 903
f 910 916 915
f 911 916 923
f 911 923 912
f 912 923 913
f 913 917 914

