# https://github.com/mikedh/trimesh
v 0.09858329 0.02492944 0.01289720 0.54117647 0.42352941 0.64313725
v 0.08222317 0.02250736 -0.00621729 0.54117647 0.42352941 0.64313725
v 0.07754422 0.02254148 -0.00621729 0.54117647 0.42352941 0.64313725
v 0.07521015 0.02255122 -0.00621729 0.54117647 0.42352941 0.64313725
v 0.09177558 0.02488071 0.01289720 0.54117647 0.42352941 0.64313725
v 0.11494341 0.02440311 0.01289720 0.54117647 0.42352941 0.64313725
v 0.08836092 0.02206876 -0.00747546 0.54117647 0.42352941 0.64313725
v 0.08222317 0.02216135 -0.00759644 0.54117647 0.42352941 0.64313725
v 0.08222317 0.02472963 0.01289720 0.54117647 0.42352941 0.64313725
v 0.08455724 0.02477349 0.01289720 0.54117647 0.42352941 0.64313725
v 0.07521015 0.02210774 -0.00752143 0.54117647 0.42352941 0.64313725
v 0.07134164 0.02207363 -0.00747546 0.54117647 0.42352941 0.64313725
v 0.07286527 0.02248299 -0.00621729 0.54117647 0.42352941 0.64313725
v 0.11564579 0.02435438 0.01289720 0.54117647 0.42352941 0.64313725
v 0.14244440 0.01972466 -0.00552772 0.54117647 0.42352941 0.64313725
v 0.13363760 0.02021199 -0.00621729 0.54117647 0.42352941 0.64313725
v 0.10559631 0.01924706 -0.00949579 0.54117647 0.42352941 0.64313725
v 0.13766820 0.01971491 -0.00745852 0.54117647 0.42352941 0.64313725
v 0.13363760 0.01986111 -0.00762547 0.54117647 0.42352941 0.64313725
v 0.11494341 0.02028997 -0.00811906 0.54117647 0.42352941 0.64313725
v 0.10793038 0.01921295 -0.00943772 0.54117647 0.42352941 0.64313725
v 0.08222317 0.02083091 -0.00872879 0.54117647 0.42352941 0.64313725
v 0.07521015 0.02083091 -0.00864653 0.54117647 0.42352941 0.64313725
v 0.07055281 0.02224907 -0.00625842 0.54117647 0.42352941 0.64313725
v 0.06896434 0.02211262 -0.00550594 0.54117647 0.42352941 0.64313725
v 0.07988910 0.02444697 0.01289720 0.54117647 0.42352941 0.64313725
v 0.07286527 0.02083091 -0.00858846 0.54117647 0.42352941 0.64313725
v 0.07286527 0.01945662 -0.00965306 0.54117647 0.42352941 0.64313725
v 0.07055281 0.02100148 -0.00821343 0.54117647 0.42352941 0.64313725
v 0.06819712 0.02044104 -0.00807793 0.54117647 0.42352941 0.64313725
v 0.06978559 0.02188844 -0.00706414 0.54117647 0.42352941 0.64313725
v 0.11727748 0.02423742 0.01289720 0.54117647 0.42352941 0.64313725
v 0.14532957 0.01939326 -0.00621729 0.54117647 0.42352941 0.64313725
v 0.14065062 0.01959794 -0.00704478 0.54117647 0.42352941 0.64313725
v 0.08923619 0.01948098 -0.00965548 0.54117647 0.42352941 0.64313725
v 0.11026445 0.01797510 -0.01002083 0.54117647 0.42352941 0.64313725
v 0.10793038 0.01804333 -0.01004261 0.54117647 0.42352941 0.64313725
v 0.15234260 0.01786789 -0.00788679 0.54117647 0.42352941 0.64313725
v 0.14532957 0.01824801 -0.00819649 0.54117647 0.42352941 0.64313725
v 0.14299550 0.01834548 -0.00830779 0.54117647 0.42352941 0.64313725
v 0.14065062 0.01842833 -0.00837312 0.54117647 0.42352941 0.64313725
v 0.13598248 0.01849656 -0.00857394 0.54117647 0.42352941 0.64313725
v 0.11026445 0.01914472 -0.00939175 0.54117647 0.42352941 0.64313725
v 0.12429050 0.01747802 -0.00980791 0.54117647 0.42352941 0.64313725
v 0.08222317 0.01954434 -0.00968694 0.54117647 0.42352941 0.64313725
v 0.07988910 0.01955896 -0.00968452 0.54117647 0.42352941 0.64313725
v 0.07521015 0.01953459 -0.00967968 0.54117647 0.42352941 0.64313725
v 0.06818632 0.02162040 -0.00625842 0.54117647 0.42352941 0.64313725
v 0.06585224 0.02095275 -0.00388000 0.54117647 0.42352941 0.64313725
v 0.06896434 0.02211262 -0.00430826 0.54117647 0.42352941 0.64313725
v 0.07738213 0.02405223 0.01289720 0.54117647 0.42352941 0.64313725
v 0.07286527 0.01829187 -0.01001841 0.54117647 0.42352941 0.64313725
v 0.07053119 0.01797510 -0.00993373 0.54117647 0.42352941 0.64313725
v 0.07053119 0.01914472 -0.00952241 0.54117647 0.42352941 0.64313725
v 0.06806745 0.01842833 -0.00932400 0.54117647 0.42352941 0.64313725
v 0.06636012 0.02003168 -0.00772952 0.54117647 0.42352941 0.64313725
v 0.11822840 0.02414482 0.01289720 0.54117647 0.42352941 0.64313725
v 0.14766365 0.01917396 -0.00621729 0.54117647 0.42352941 0.64313725
v 0.15234260 0.01871586 -0.00621729 0.54117647 0.42352941 0.64313725
v 0.10793038 0.01615733 -0.01065960 0.54117647 0.42352941 0.64313725
v 0.15832906 0.01740004 -0.00746094 0.54117647 0.42352941 0.64313725
v 0.15234260 0.01615733 -0.00886913 0.54117647 0.42352941 0.64313725
v 0.15000852 0.01615733 -0.00909898 0.54117647 0.42352941 0.64313725
v 0.14299550 0.01652771 -0.00947643 0.54117647 0.42352941 0.64313725
v 0.14065062 0.01671289 -0.00954176 0.54117647 0.42352941 0.64313725
v 0.13363760 0.01849656 -0.00869250 0.54117647 0.42352941 0.64313725
v 0.12662457 0.01738542 -0.00975952 0.54117647 0.42352941 0.64313725
v 0.12429050 0.01615733 -0.01019988 0.54117647 0.42352941 0.64313725
v 0.13831655 0.01682011 -0.00958048 0.54117647 0.42352941 0.64313725
v 0.07988910 0.01838934 -0.01006923 0.54117647 0.42352941 0.64313725
v 0.07754422 0.01837472 -0.01005955 0.54117647 0.42352941 0.64313725
v 0.07521015 0.01836498 -0.01003293 0.54117647 0.42352941 0.64313725
v 0.06569016 0.02043617 -0.00636731 0.54117647 0.42352941 0.64313725
v 0.06818632 0.02180559 -0.00366950 0.54117647 0.42352941 0.64313725
v 0.06432861 0.01991471 -0.00568983 0.54117647 0.42352941 0.64313725
v 0.06414491 0.02002193 -0.00388000 0.54117647 0.42352941 0.64313725
v 0.06471763 0.01964668 0.00400775 0.54117647 0.42352941 0.64313725
v 0.06603595 0.02019737 0.00546916 0.54117647 0.42352941 0.64313725
v 0.06819712 0.02117693 0.00546916 0.54117647 0.42352941 0.64313725
v 0.07521015 0.02336996 0.01289720 0.54117647 0.42352941 0.64313725
v 0.07709037 0.02396451 0.01289720 0.54117647 0.42352941 0.64313725
v 0.07286527 0.01615733 -0.01056281 0.54117647 0.42352941 0.64313725
v 0.07053119 0.01615733 -0.01042974 0.54117647 0.42352941 0.64313725
v 0.06876983 0.01760473 -0.00981759 0.54117647 0.42352941 0.64313725
v 0.06721378 0.01720023 -0.00969419 0.54117647 0.42352941 0.64313725
v 0.06569016 0.01867687 -0.00831989 0.54117647 0.42352941 0.64313725
v 0.06480407 0.01957845 -0.00724802 0.54117647 0.42352941 0.64313725
v 0.11961155 0.02400349 0.01289720 0.54117647 0.42352941 0.64313725
v 0.15467667 0.01854042 -0.00388000 0.54117647 0.42352941 0.64313725
v 0.15467667 0.01835036 -0.00621729 0.54117647 0.42352941 0.64313725
v 0.12175112 0.02376957 0.01289720 0.54117647 0.42352941 0.64313725
v 0.13130353 0.02266818 0.01289720 0.54117647 0.42352941 0.64313725
v 0.13598248 0.02208338 0.01289720 0.54117647 0.42352941 0.64313725
v 0.14065062 0.01554328 -0.00986598 0.54117647 0.42352941 0.64313725
v 0.11026445 0.01381810 -0.01096930 0.54117647 0.42352941 0.64313725
v 0.10793038 0.01381810 -0.01100317 0.54117647 0.42352941 0.64313725
v 0.09391514 0.01381810 -0.01098866 0.54117647 0.42352941 0.64313725
v 0.07754422 0.01615733 -0.01062330 0.54117647 0.42352941 0.64313725
v 0.15702155 0.01795074 -0.00621729 0.54117647 0.42352941 0.64313725
v 0.15866404 0.01755112 -0.00621729 0.54117647 0.42352941 0.64313725
v 0.15989591 0.01616220 -0.00631407 0.54117647 0.42352941 0.64313725
v 0.16041460 0.01453449 -0.00715608 0.54117647 0.42352941 0.64313725
v 0.15879371 0.01615733 -0.00771984 0.54117647 0.42352941 0.64313725
v 0.15702155 0.01615733 -0.00824004 0.54117647 0.42352941 0.64313725
v 0.15467667 0.01615733 -0.00859088 0.54117647 0.42352941 0.64313725
v 0.14872262 0.01493411 -0.00972323 0.54117647 0.42352941 0.64313725
v 0.05060513 0.01051881 -0.00314688 0.54117647 0.42352941 0.64313725
v 0.05060513 0.01075273 -0.00240649 0.54117647 0.42352941 0.64313725
v 0.05060513 0.01102077 -0.00154271 0.54117647 0.42352941 0.64313725
v 0.05060513 0.01125469 -0.00031116 0.54117647 0.42352941 0.64313725
v 0.05060513 0.01144963 0.00079216 0.54117647 0.42352941 0.64313725
v 0.05060513 0.01152273 0.00313187 0.54117647 0.42352941 0.64313725
v 0.06486891 0.01954434 0.00546916 0.54117647 0.42352941 0.64313725
v 0.06640334 0.02001219 0.00780645 0.54117647 0.42352941 0.64313725
v 0.07220611 0.02204926 0.01289720 0.54117647 0.42352941 0.64313725
v 0.07286527 0.01381810 -0.01089429 0.54117647 0.42352941 0.64313725
v 0.07053119 0.01381810 -0.01085800 0.54117647 0.42352941 0.64313725
v 0.06819712 0.01381810 -0.01059185 0.54117647 0.42352941 0.64313725
v 0.06806745 0.01631328 -0.01004503 0.54117647 0.42352941 0.64313725
v 0.06637093 0.01564075 -0.00986840 0.54117647 0.42352941 0.64313725
v 0.06480407 0.01483664 -0.00969661 0.54117647 0.42352941 0.64313725
v 0.06569016 0.01631328 -0.00950305 0.54117647 0.42352941 0.64313725
v 0.06351817 0.01615733 -0.00861991 0.54117647 0.42352941 0.64313725
v 0.06351817 0.01787276 -0.00775613 0.54117647 0.42352941 0.64313725
v 0.06231872 0.01736106 -0.00741255 0.54117647 0.42352941 0.64313725
v 0.05060513 0.00981216 -0.00431794 0.54117647 0.42352941 0.64313725
v 0.05060513 0.01023128 -0.00370095 0.54117647 0.42352941 0.64313725
v 0.15000852 0.01978313 0.01289720 0.54117647 0.42352941 0.64313725
v 0.15702155 0.01813593 -0.00388000 0.54117647 0.42352941 0.64313725
v 0.13814366 0.02173737 0.01289720 0.54117647 0.42352941 0.64313725
v 0.12429050 0.01381810 -0.01057733 0.54117647 0.42352941 0.64313725
v 0.11259853 0.01147887 -0.01105640 0.54117647 0.42352941 0.64313725
v 0.10326224 0.00680528 -0.01156451 0.54117647 0.42352941 0.64313725
v 0.10092817 0.00914451 -0.01146289 0.54117647 0.42352941 0.64313725
v 0.09858329 0.00914451 -0.01146531 0.54117647 0.42352941 0.64313725
v 0.07754422 0.01381810 -0.01095478 0.54117647 0.42352941 0.64313725
v 0.15885855 0.01762909 -0.00388000 0.54117647 0.42352941 0.64313725
v 0.16002559 0.01665929 -0.00388000 0.54117647 0.42352941 0.64313725
v 0.16066314 0.01538733 -0.00559789 0.54117647 0.42352941 0.64313725
v 0.16074958 0.01377911 -0.00631407 0.54117647 0.42352941 0.64313725
v 0.16057669 0.01297500 -0.00743917 0.54117647 0.42352941 0.64313725
v 0.15952852 0.01377911 -0.00795695 0.54117647 0.42352941 0.64313725
v 0.15702155 0.01381810 -0.00894413 0.54117647 0.42352941 0.64313725
v 0.14766365 0.00914451 -0.01011762 0.54117647 0.42352941 0.64313725
v 0.14532957 0.01147887 -0.01006681 0.54117647 0.42352941 0.64313725
v 0.14065062 0.01381810 -0.01006923 0.54117647 0.42352941 0.64313725
v 0.15467667 0.01381810 -0.00924900 0.54117647 0.42352941 0.64313725
v 0.15702155 0.01147887 -0.00934820 0.54117647 0.42352941 0.64313725
v 0.15702155 0.00948565 -0.00964096 0.54117647 0.42352941 0.64313725
v 0.15818858 0.00798951 -0.00972565 0.54117647 0.42352941 0.64313725
v 0.05060513 0.01115722 0.00546916 0.54117647 0.42352941 0.64313725
v 0.06675994 0.01981237 0.00944933 0.54117647 0.42352941 0.64313725
v 0.07055281 0.02114281 0.01289720 0.54117647 0.42352941 0.64313725
v 0.07053119 0.01147887 -0.01103463 0.54117647 0.42352941 0.64313725
v 0.06819712 0.01147887 -0.01088704 0.54117647 0.42352941 0.64313725
v 0.06585224 0.01147887 -0.01045394 0.54117647 0.42352941 0.64313725
v 0.06569016 0.01395943 -0.01004987 0.54117647 0.42352941 0.64313725
v 0.06430700 0.01327715 -0.00983211 0.54117647 0.42352941 0.64313725
v 0.05060513 0.00442219 -0.00743433 0.54117647 0.42352941 0.64313725
v 0.05060513 0.00501187 -0.00727948 0.54117647 0.42352941 0.64313725
v 0.05060513 0.00680528 -0.00669395 0.54117647 0.42352941 0.64313725
v 0.05060513 0.00766300 -0.00620519 0.54117647 0.42352941 0.64313725
v 0.05060513 0.00864255 -0.00561724 0.54117647 0.42352941 0.64313725
v 0.15204004 0.01941763 0.01289720 0.54117647 0.42352941 0.64313725
v 0.15249388 0.01930554 0.01289720 0.54117647 0.42352941 0.64313725
v 0.15423363 0.01884257 0.01289720 0.54117647 0.42352941 0.64313725
v 0.12896945 0.01147887 -0.01056281 0.54117647 0.42352941 0.64313725
v 0.11494341 0.00914451 -0.01110722 0.54117647 0.42352941 0.64313725
v 0.10559631 0.00680528 -0.01150644 0.54117647 0.42352941 0.64313725
v 0.10793038 0.00446605 -0.01152096 0.54117647 0.42352941 0.64313725
v 0.09391514 0.00446605 -0.01182098 0.54117647 0.42352941 0.64313725
v 0.07521015 0.00680528 -0.01142902 0.54117647 0.42352941 0.64313725
v 0.15469828 0.01870611 0.01289720 0.54117647 0.42352941 0.64313725
v 0.15699994 0.01792637 0.01289720 0.54117647 0.42352941 0.64313725
v 0.15774554 0.01764371 0.01289720 0.54117647 0.42352941 0.64313725
v 0.15904225 0.01663005 0.01289720 0.54117647 0.42352941 0.64313725
v 0.15948529 0.01617195 0.01289720 0.54117647 0.42352941 0.64313725
v 0.15970141 0.01581131 0.01289720 0.54117647 0.42352941 0.64313725
v 0.16069555 0.01548967 -0.00388000 0.54117647 0.42352941 0.64313725
v 0.16090086 0.01381810 -0.00388000 0.54117647 0.42352941 0.64313725
v 0.16087925 0.01147887 -0.00621729 0.54117647 0.42352941 0.64313725
v 0.16061992 0.00914451 -0.00752869 0.54117647 0.42352941 0.64313725
v 0.15702155 0.00680528 -0.00981275 0.54117647 0.42352941 0.64313725
v 0.15467667 0.00446605 -0.00993615 0.54117647 0.42352941 0.64313725
v 0.11259853 0.00213169 -0.01140482 0.54117647 0.42352941 0.64313725
v 0.16063072 0.00733648 -0.00753595 0.54117647 0.42352941 0.64313725
v 0.15818858 0.00560642 -0.00972565 0.54117647 0.42352941 0.64313725
v 0.15708638 0.00468535 -0.00981275 0.54117647 0.42352941 0.64313725
v 0.05060513 0.01090381 0.00623858 0.54117647 0.42352941 0.64313725
v 0.06873742 0.02007554 0.01289720 0.54117647 0.42352941 0.64313725
v 0.06819712 0.00914451 -0.01102495 0.54117647 0.42352941 0.64313725
v 0.06585224 0.00680528 -0.01083623 0.54117647 0.42352941 0.64313725
v 0.06585224 0.00914451 -0.01067895 0.54117647 0.42352941 0.64313725
v 0.05060513 0.00223891 -0.00776823 0.54117647 0.42352941 0.64313725
v 0.06234033 0.01033849 -0.00972807 0.54117647 0.42352941 0.64313725
v 0.06352898 0.01126444 -0.00990953 0.54117647 0.42352941 0.64313725
v 0.05060513 0.00390561 -0.00751417 0.54117647 0.42352941 0.64313725
v 0.09624922 0.00213169 -0.01177259 0.54117647 0.42352941 0.64313725
v 0.08222317 -0.00488113 -0.01166129 0.54117647 0.42352941 0.64313725
v 0.08222317 0.00213169 -0.01163952 0.54117647 0.42352941 0.64313725
v 0.07521015 0.00446605 -0.01144353 0.54117647 0.42352941 0.64313725
v 0.06819712 0.00680528 -0.01109996 0.54117647 0.42352941 0.64313725
v 0.16032815 0.01381810 0.01289720 0.54117647 0.42352941 0.64313725
v 0.16098731 0.01147887 -0.00388000 0.54117647 0.42352941 0.64313725
v 0.16091167 0.00914451 -0.00621729 0.54117647 0.42352941 0.64313725
v 0.15467667 0.00213169 -0.00992405 0.54117647 0.42352941 0.64313725
v 0.14766365 0.00213169 -0.01018294 0.54117647 0.42352941 0.64313725
v 0.15000852 -0.00020266 -0.01008132 0.54117647 0.42352941 0.64313725
v 0.15000852 -0.00721548 -0.00992889 0.54117647 0.42352941 0.64313725
v 0.14695046 -0.01549051 -0.00973775 0.54117647 0.42352941 0.64313725
v 0.09157027 -0.00955471 -0.01147257 0.54117647 0.42352941 0.64313725
v 0.15921515 0.00213169 -0.00844812 0.54117647 0.42352941 0.64313725
v 0.16076039 0.00665420 -0.00637456 0.54117647 0.42352941 0.64313725
v 0.16050104 0.00446605 -0.00726738 0.54117647 0.42352941 0.64313725
v 0.15828584 -0.01583165 -0.00747062 0.54117647 0.42352941 0.64313725
v 0.15838309 -0.01422830 -0.00756015 0.54117647 0.42352941 0.64313725
v 0.15877210 -0.00721548 -0.00792066 0.54117647 0.42352941 0.64313725
v 0.15739975 -0.00020266 -0.00951999 0.54117647 0.42352941 0.64313725
v 0.15585451 -0.00371638 -0.00972565 0.54117647 0.42352941 0.64313725
v 0.15598418 -0.00254189 -0.00975468 0.54117647 0.42352941 0.64313725
v 0.15623272 -0.00020266 -0.00979340 0.54117647 0.42352941 0.64313725
v 0.15647045 0.00213169 -0.00981759 0.54117647 0.42352941 0.64313725
v 0.15467667 -0.00020266 -0.00990228 0.54117647 0.42352941 0.64313725
v 0.05060513 0.01057729 0.00715559 0.54117647 0.42352941 0.64313725
v 0.06777569 0.01935915 0.01289720 0.54117647 0.42352941 0.64313725
v 0.05060513 0.00991938 0.00832424 0.54117647 0.42352941 0.64313725
v 0.06585224 0.00446605 -0.01089913 0.54117647 0.42352941 0.64313725
v 0.05060513 -0.00020266 -0.00798357 0.54117647 0.42352941 0.64313725
v 0.08455724 -0.00721548 -0.01157419 0.54117647 0.42352941 0.64313725
v 0.08222317 -0.00721548 -0.01152580 0.54117647 0.42352941 0.64313725
v 0.07988910 -0.00488113 -0.01158871 0.54117647 0.42352941 0.64313725
v 0.06819712 0.00446605 -0.01110479 0.54117647 0.42352941 0.64313725
v 0.16036057 0.01159096 0.01289720 0.54117647 0.42352941 0.64313725
v 0.16096570 0.00914451 -0.00388000 0.54117647 0.42352941 0.64313725
v 0.16037137 0.00903242 0.01289720 0.54117647 0.42352941 0.64313725
v 0.16037137 0.00873027 0.01289720 0.54117647 0.42352941 0.64313725
v 0.16058749 0.00213169 -0.00561482 0.54117647 0.42352941 0.64313725
v 0.15234260 -0.00020266 -0.00999664 0.54117647 0.42352941 0.64313725
v 0.15234260 -0.00254189 -0.00994341 0.54117647 0.42352941 0.64313725
v 0.15467667 -0.00254189 -0.00983937 0.54117647 0.42352941 0.64313725
v 0.15155377 -0.00886269 -0.00976678 0.54117647 0.42352941 0.64313725
v 0.14856054 -0.01422830 -0.00971597 0.54117647 0.42352941 0.64313725
v 0.15000852 -0.01656753 -0.00925867 0.54117647 0.42352941 0.64313725
v 0.14770687 -0.01638722 -0.00953934 0.54117647 0.42352941 0.64313725
v 0.10092817 -0.01422830 -0.01071283 0.54117647 0.42352941 0.64313725
v 0.09391514 -0.01189394 -0.01118706 0.54117647 0.42352941 0.64313725
v 0.09157027 -0.01189394 -0.01119190 0.54117647 0.42352941 0.64313725
v 0.08923619 -0.00955471 -0.01144595 0.54117647 0.42352941 0.64313725
v 0.15950691 -0.01422830 -0.00388000 0.54117647 0.42352941 0.64313725
v 0.15929078 -0.01189394 -0.00621729 0.54117647 0.42352941 0.64313725
v 0.15906387 -0.01422830 -0.00621729 0.54117647 0.42352941 0.64313725
v 0.15804811 -0.01739113 -0.00688751 0.54117647 0.42352941 0.64313725
v 0.15649206 -0.01826347 -0.00765209 0.54117647 0.42352941 0.64313725
v 0.15717283 -0.01659677 -0.00780936 0.54117647 0.42352941 0.64313725
v 0.15702155 -0.01422830 -0.00813600 0.54117647 0.42352941 0.64313725
v 0.15715122 -0.00254189 -0.00936755 0.54117647 0.42352941 0.64313725
v 0.15851277 -0.01659677 -0.00615196 0.54117647 0.42352941 0.64313725
v 0.15467667 -0.01656753 -0.00848442 0.54117647 0.42352941 0.64313725
v 0.15000852 -0.01422830 -0.00951999 0.54117647 0.42352941 0.64313725
v 0.06632771 0.01798485 0.01289720 0.54117647 0.42352941 0.64313725
v 0.05060513 0.00930533 0.00915898 0.54117647 0.42352941 0.64313725
v 0.05060513 0.00875464 0.00979533 0.54117647 0.42352941 0.64313725
v 0.05060513 0.00739983 0.01096397 0.54117647 0.42352941 0.64313725
v 0.05060513 0.00678091 0.01130755 0.54117647 0.42352941 0.64313725
v 0.05060513 0.00623022 0.01158338 0.54117647 0.42352941 0.64313725
v 0.06819712 0.00213169 -0.01103221 0.54117647 0.42352941 0.64313725
v 0.06819712 -0.00721548 -0.01066928 0.54117647 0.42352941 0.64313725
v 0.06585224 0.00213169 -0.01079267 0.54117647 0.42352941 0.64313725
v 0.05060513 -0.00364816 -0.00799567 0.54117647 0.42352941 0.64313725
v 0.05060513 -0.00254189 -0.00800292 0.54117647 0.42352941 0.64313725
v 0.05060513 -0.00130893 -0.00800051 0.54117647 0.42352941 0.64313725
v 0.08690212 -0.00955471 -0.01141208 0.54117647 0.42352941 0.64313725
v 0.07754422 -0.01189394 -0.01083623 0.54117647 0.42352941 0.64313725
v 0.07521015 -0.01189394 -0.01072734 0.54117647 0.42352941 0.64313725
v 0.07053119 -0.00955471 -0.01069589 0.54117647 0.42352941 0.64313725
v 0.07053119 -0.00721548 -0.01086042 0.54117647 0.42352941 0.64313725
v 0.16058749 0.00213169 -0.00452844 0.54117647 0.42352941 0.64313725
v 0.16032815 0.00721952 0.01289720 0.54117647 0.42352941 0.64313725
v 0.16052266 0.00094746 -0.00505591 0.54117647 0.42352941 0.64313725
v 0.15967980 -0.01189394 -0.00388000 0.54117647 0.42352941 0.64313725
v 0.15000852 -0.01890676 -0.00840457 0.54117647 0.42352941 0.64313725
v 0.15448217 -0.01898961 -0.00778274 0.54117647 0.42352941 0.64313725
v 0.15234260 -0.01890676 -0.00814810 0.54117647 0.42352941 0.64313725
v 0.14766365 -0.01890676 -0.00858846 0.54117647 0.42352941 0.64313725
v 0.14532957 -0.01890676 -0.00868282 0.54117647 0.42352941 0.64313725
v 0.12896945 -0.01711822 -0.00961193 0.54117647 0.42352941 0.64313725
v 0.10559631 -0.01634335 -0.01006923 0.54117647 0.42352941 0.64313725
v 0.09858329 -0.01422830 -0.01072976 0.54117647 0.42352941 0.64313725
v 0.08455724 -0.01422830 -0.01061846 0.54117647 0.42352941 0.64313725
v 0.15906387 -0.01422830 0.01289720 0.54117647 0.42352941 0.64313725
v 0.15900983 -0.01464254 0.01289720 0.54117647 0.42352941 0.64313725
v 0.15875049 -0.01656753 0.01289720 0.54117647 0.42352941 0.64313725
v 0.15882613 -0.01656753 -0.00388000 0.54117647 0.42352941 0.64313725
v 0.15822100 -0.01780537 -0.00532932 0.54117647 0.42352941 0.64313725
v 0.15616788 -0.02030055 -0.00555191 0.54117647 0.42352941 0.64313725
v 0.15514133 -0.01982296 -0.00711011 0.54117647 0.42352941 0.64313725
v 0.15357447 -0.02008612 -0.00740046 0.54117647 0.42352941 0.64313725
v 0.06536598 0.01700042 0.01289720 0.54117647 0.42352941 0.64313725
v 0.05060513 0.00446605 0.01209390 0.54117647 0.42352941 0.64313725
v 0.06819712 -0.00955471 -0.01047329 0.54117647 0.42352941 0.64313725
v 0.06585224 -0.00955471 -0.01015149 0.54117647 0.42352941 0.64313725
v 0.06585224 -0.00721548 -0.01029666 0.54117647 0.42352941 0.64313725
v 0.05060513 -0.00497859 -0.00788195 0.54117647 0.42352941 0.64313725
v 0.06406927 -0.00955471 -0.00984905 0.54117647 0.42352941 0.64313725
v 0.08222317 -0.01422830 -0.01055314 0.54117647 0.42352941 0.64313725
v 0.07754422 -0.01422830 -0.01039829 0.54117647 0.42352941 0.64313725
v 0.07521015 -0.01422830 -0.01031360 0.54117647 0.42352941 0.64313725
v 0.07286527 -0.01189394 -0.01055798 0.54117647 0.42352941 0.64313725
v 0.07053119 -0.01189394 -0.01038377 0.54117647 0.42352941 0.64313725
v 0.06819712 -0.01189394 -0.01016843 0.54117647 0.42352941 0.64313725
v 0.16052266 0.00094746 -0.00503655 0.54117647 0.42352941 0.64313725
v 0.15234260 -0.02018359 -0.00749482 0.54117647 0.42352941 0.64313725
v 0.15000852 -0.02027618 -0.00758676 0.54117647 0.42352941 0.64313725
v 0.14532957 -0.02038827 -0.00771016 0.54117647 0.42352941 0.64313725
v 0.11259853 -0.01750809 -0.00966032 0.54117647 0.42352941 0.64313725
v 0.10326224 -0.01629462 -0.01008858 0.54117647 0.42352941 0.64313725
v 0.10092817 -0.01622639 -0.01011278 0.54117647 0.42352941 0.64313725
v 0.09858329 -0.01621665 -0.01010068 0.54117647 0.42352941 0.64313725
v 0.08455724 -0.01606070 -0.01003293 0.54117647 0.42352941 0.64313725
v 0.08222317 -0.01606557 -0.01000148 0.54117647 0.42352941 0.64313725
v 0.15830745 -0.01802955 0.01289720 0.54117647 0.42352941 0.64313725
v 0.15777796 -0.01919916 0.01289720 0.54117647 0.42352941 0.64313725
v 0.15824261 -0.01782487 -0.00388000 0.54117647 0.42352941 0.64313725
v 0.15760507 -0.01951593 0.01289720 0.54117647 0.42352941 0.64313725
v 0.15629755 -0.02166510 0.01289720 0.54117647 0.42352941 0.64313725
v 0.15738895 -0.01899448 -0.00388000 0.54117647 0.42352941 0.64313725
v 0.15547631 -0.02238149 0.01289720 0.54117647 0.42352941 0.64313725
v 0.15467667 -0.02285908 0.01289720 0.54117647 0.42352941 0.64313725
v 0.15463345 -0.02287858 0.01289720 0.54117647 0.42352941 0.64313725
v 0.15449297 -0.02292731 0.01289720 0.54117647 0.42352941 0.64313725
v 0.15250469 -0.02354623 0.01289720 0.54117647 0.42352941 0.64313725
v 0.15467667 -0.02076353 -0.00388000 0.54117647 0.42352941 0.64313725
v 0.15234260 -0.02108030 -0.00388000 0.54117647 0.42352941 0.64313725
v 0.15234260 -0.02069042 -0.00621729 0.54117647 0.42352941 0.64313725
v 0.15448217 -0.02039315 -0.00628504 0.54117647 0.42352941 0.64313725
v 0.05060513 0.00323795 0.01233586 0.54117647 0.42352941 0.64313725
v 0.05060513 0.00213169 0.01249313 0.54117647 0.42352941 0.64313725
v 0.05505716 0.00441244 0.01289720 0.54117647 0.42352941 0.64313725
v 0.06583063 -0.01191344 -0.00988534 0.54117647 0.42352941 0.64313725
v 0.06447990 -0.01114831 -0.00977646 0.54117647 0.42352941 0.64313725
v 0.05060513 -0.00673302 -0.00759160 0.54117647 0.42352941 0.64313725
v 0.06504180 -0.01270293 -0.00967242 0.54117647 0.42352941 0.64313725
v 0.07521015 -0.01570494 -0.00987566 0.54117647 0.42352941 0.64313725
v 0.07338395 -0.01554412 -0.00980066 0.54117647 0.42352941 0.64313725
v 0.07053119 -0.01517861 -0.00966274 0.54117647 0.42352941 0.64313725
v 0.07053119 -0.01400900 -0.00996035 0.54117647 0.42352941 0.64313725
v 0.06819712 -0.01358988 -0.00985872 0.54117647 0.42352941 0.64313725
v 0.06659785 -0.01322438 -0.00977888 0.54117647 0.42352941 0.64313725
v 0.15000852 -0.02089023 -0.00621729 0.54117647 0.42352941 0.64313725
v 0.14766365 -0.02097795 -0.00621729 0.54117647 0.42352941 0.64313725
v 0.14532957 -0.02105106 -0.00621729 0.54117647 0.42352941 0.64313725
v 0.14299550 -0.02103643 -0.00621729 0.54117647 0.42352941 0.64313725
v 0.13363760 -0.02095846 -0.00621729 0.54117647 0.42352941 0.64313725
v 0.13130353 -0.02030055 -0.00763031 0.54117647 0.42352941 0.64313725
v 0.10559631 -0.01751297 -0.00961677 0.54117647 0.42352941 0.64313725
v 0.08222317 -0.01723519 -0.00943530 0.54117647 0.42352941 0.64313725
v 0.15041915 -0.02378503 0.01289720 0.54117647 0.42352941 0.64313725
v 0.15000852 -0.02129960 -0.00388000 0.54117647 0.42352941 0.64313725
v 0.05060513 0.00089872 0.01260201 0.54117647 0.42352941 0.64313725
v 0.05409544 0.00213169 0.01289720 0.54117647 0.42352941 0.64313725
v 0.05060513 -0.00724472 -0.00737868 0.54117647 0.42352941 0.64313725
v 0.06819712 -0.01475463 -0.00949579 0.54117647 0.42352941 0.64313725
v 0.06583063 -0.01409672 -0.00926351 0.54117647 0.42352941 0.64313725
v 0.07521015 -0.01687455 -0.00915947 0.54117647 0.42352941 0.64313725
v 0.07988910 -0.01711335 -0.00936997 0.54117647 0.42352941 0.64313725
v 0.07053119 -0.01656753 -0.00880622 0.54117647 0.42352941 0.64313725
v 0.13598248 -0.02469148 0.01289720 0.54117647 0.42352941 0.64313725
v 0.13075243 -0.02482306 0.01289720 0.54117647 0.42352941 0.64313725
v 0.12896945 -0.02485718 0.01289720 0.54117647 0.42352941 0.64313725
v 0.12195643 -0.02481819 0.01289720 0.54117647 0.42352941 0.64313725
v 0.13130353 -0.02093409 -0.00621729 0.54117647 0.42352941 0.64313725
v 0.12896945 -0.02028106 -0.00761822 0.54117647 0.42352941 0.64313725
v 0.11333333 -0.02013486 -0.00746578 0.54117647 0.42352941 0.64313725
v 0.08222317 -0.01841942 -0.00826666 0.54117647 0.42352941 0.64313725
v 0.07988910 -0.01839018 -0.00820133 0.54117647 0.42352941 0.64313725
v 0.07521015 -0.01824398 -0.00799083 0.54117647 0.42352941 0.64313725
v 0.13831655 -0.02456477 0.01289720 0.54117647 0.42352941 0.64313725
v 0.13728999 -0.02462813 0.01289720 0.54117647 0.42352941 0.64313725
v 0.05060513 -0.00020266 0.01263831 0.54117647 0.42352941 0.64313725
v 0.05407382 0.00203422 0.01289720 0.54117647 0.42352941 0.64313725
v 0.05060513 -0.00776130 -0.00710769 0.54117647 0.42352941 0.64313725
v 0.06811067 -0.01674297 -0.00823762 0.54117647 0.42352941 0.64313725
v 0.06585224 -0.01616791 -0.00801744 0.54117647 0.42352941 0.64313725
v 0.06411250 -0.01573418 -0.00768838 0.54117647 0.42352941 0.64313725
v 0.06341011 -0.01435988 -0.00822068 0.54117647 0.42352941 0.64313725
v 0.07286527 -0.01814651 -0.00784807 0.54117647 0.42352941 0.64313725
v 0.07053119 -0.01802468 -0.00770048 0.54117647 0.42352941 0.64313725
v 0.06883467 -0.01789797 -0.00755289 0.54117647 0.42352941 0.64313725
v 0.12896945 -0.02088049 -0.00621729 0.54117647 0.42352941 0.64313725
v 0.10557470 -0.02442832 0.01289720 0.54117647 0.42352941 0.64313725
v 0.11494341 -0.02048574 -0.00621729 0.54117647 0.42352941 0.64313725
v 0.07988910 -0.01931125 -0.00621729 0.54117647 0.42352941 0.64313725
v 0.07754422 -0.01832683 -0.00808519 0.54117647 0.42352941 0.64313725
v 0.07754422 -0.01918942 -0.00621729 0.54117647 0.42352941 0.64313725
v 0.07521015 -0.01903834 -0.00621729 0.54117647 0.42352941 0.64313725
v 0.05467895 -0.00017342 0.01289720 0.54117647 0.42352941 0.64313725
v 0.05452767 0.00017746 0.01289720 0.54117647 0.42352941 0.64313725
v 0.05060513 -0.00254189 0.01229231 0.54117647 0.42352941 0.64313725
v 0.06874822 -0.01681120 0.01289720 0.54117647 0.42352941 0.64313725
v 0.06630609 -0.01427216 0.01289720 0.54117647 0.42352941 0.64313725
v 0.06611158 -0.01406260 0.01289720 0.54117647 0.42352941 0.64313725
v 0.06491213 -0.01264445 0.01289720 0.54117647 0.42352941 0.64313725
v 0.05060513 -0.00899915 -0.00597050 0.54117647 0.42352941 0.64313725
v 0.06726781 -0.01764455 -0.00714882 0.54117647 0.42352941 0.64313725
v 0.06255645 -0.01522735 -0.00706172 0.54117647 0.42352941 0.64313725
v 0.07286527 -0.01885315 -0.00621729 0.54117647 0.42352941 0.64313725
v 0.07053119 -0.01860461 -0.00621729 0.54117647 0.42352941 0.64313725
v 0.06811067 -0.01812214 -0.00630924 0.54117647 0.42352941 0.64313725
v 0.09858329 -0.02417003 0.01289720 0.54117647 0.42352941 0.64313725
v 0.09624922 -0.02399458 0.01289720 0.54117647 0.42352941 0.64313725
v 0.05060513 -0.00453024 0.01163661 0.54117647 0.42352941 0.64313725
v 0.06956947 -0.01759094 0.01289720 0.54117647 0.42352941 0.64313725
v 0.05060513 -0.00961319 -0.00489622 0.54117647 0.42352941 0.64313725
v 0.06664107 -0.01787847 -0.00559063 0.54117647 0.42352941 0.64313725
v 0.06586305 -0.01731803 -0.00630924 0.54117647 0.42352941 0.64313725
v 0.06341011 -0.01606070 -0.00625601 0.54117647 0.42352941 0.64313725
v 0.09448786 -0.02383864 0.01289720 0.54117647 0.42352941 0.64313725
v 0.09205653 -0.02360959 0.01289720 0.54117647 0.42352941 0.64313725
v 0.09154865 -0.02355598 0.01289720 0.54117647 0.42352941 0.64313725
v 0.08455724 -0.02271288 0.01289720 0.54117647 0.42352941 0.64313725
v 0.08429790 -0.02267390 0.01289720 0.54117647 0.42352941 0.64313725
v 0.08222317 -0.02233763 0.01289720 0.54117647 0.42352941 0.64313725
v 0.08071034 -0.02204523 0.01289720 0.54117647 0.42352941 0.64313725
v 0.05060513 -0.00569986 0.01111882 0.54117647 0.42352941 0.64313725
v 0.07076892 -0.01837068 0.01289720 0.54117647 0.42352941 0.64313725
v 0.05060513 -0.00636751 0.01050426 0.54117647 0.42352941 0.64313725
v 0.05060513 -0.00705953 0.00986549 0.54117647 0.42352941 0.64313725
v 0.05060513 -0.00811706 0.00854200 0.54117647 0.42352941 0.64313725
v 0.05060513 -0.01003231 -0.00393807 0.54117647 0.42352941 0.64313725
v 0.06664107 -0.01787847 -0.00428649 0.54117647 0.42352941 0.64313725
v 0.06351817 -0.01644569 -0.00388000 0.54117647 0.42352941 0.64313725
v 0.05060513 -0.01036370 -0.00154271 0.54117647 0.42352941 0.64313725
v 0.08028892 -0.02195751 0.01289720 0.54117647 0.42352941 0.64313725
v 0.07999715 -0.02188928 0.01289720 0.54117647 0.42352941 0.64313725
v 0.07754422 -0.02123137 0.01289720 0.54117647 0.42352941 0.64313725
v 0.07119036 -0.01857537 0.01289720 0.54117647 0.42352941 0.64313725
v 0.05060513 -0.00873598 0.00747255 0.54117647 0.42352941 0.64313725
v 0.05060513 -0.00953522 0.00546916 0.54117647 0.42352941 0.64313725
v 0.05060513 -0.01008591 0.00313429 0.54117647 0.42352941 0.64313725
v 0.07537223 -0.02040777 0.01289720 0.54117647 0.42352941 0.64313725
v 0.07302736 -0.01944283 0.01289720 0.54117647 0.42352941 0.64313725
v 0.05060513 -0.01034908 0.00079216 0.54117647 0.42352941 0.64313725
f 1 2 3
f 1 3 4
f 1 4 5
f 1 5 10
f 1 10 9
f 1 9 26
f 1 26 51
f 1 51 81
f 1 81 80
f 1 80 115
f 1 115 153
f 1 153 190
f 1 190 225
f 1 225 260
f 1 260 298
f 1 298 338
f 1 338 360
f 1 360 380
f 1 380 397
f 1 397 396
f 1 396 402
f 1 402 401
f 1 401 400
f 1 400 399
f 1 399 412
f 1 412 425
f 1 425 436
f 1 436 441
f 1 441 440
f 1 440 435
f 1 435 434
f 1 434 433
f 1 433 423
f 1 423 422
f 1 422 421
f 1 421 420
f 1 420 419
f 1 419 418
f 1 418 417
f 1 417 410
f 1 410 409
f 1 409 390
f 1 390 370
f 1 370 369
f 1 369 368
f 1 368 367
f 1 367 378
f 1 378 377
f 1 377 357
f 1 357 331
f 1 331 330
f 1 330 329
f 1 329 328
f 1 328 327
f 1 327 325
f 1 325 324
f 1 324 322
f 1 322 321
f 1 321 292
f 1 292 291
f 1 291 290
f 1 290 278
f 1 278 236
f 1 236 235
f 1 235 233
f 1 233 203
f 1 203 178
f 1 178 177
f 1 177 176
f 1 176 175
f 1 175 174
f 1 174 173
f 1 173 166
f 1 166 165
f 1 165 164
f 1 164 128
f 1 128 130
f 1 130 93
f 1 93 92
f 1 92 91
f 1 91 88
f 1 88 57
f 1 57 32
f 1 32 14
f 1 14 6
f 1 6 2
f 2 7 8
f 2 8 3
f 2 6 7
f 3 8 4
f 4 9 10
f 4 10 5
f 4 8 11
f 4 11 12
f 4 12 13
f 4 13 9
f 6 14 15
f 6 15 16
f 6 16 7
f 7 17 8
f 7 16 18
f 7 18 19
f 7 19 20
f 7 20 21
f 7 21 17
f 8 22 23
f 8 23 11
f 8 17 22
f 9 13 24
f 9 24 25
f 9 25 26
f 11 23 12
f 12 27 28
f 12 28 29
f 12 29 30
f 12 30 31
f 12 31 24
f 12 24 13
f 12 23 27
f 14 32 15
f 15 33 34
f 15 34 16
f 15 32 33
f 16 34 18
f 17 35 22
f 17 21 36
f 17 36 37
f 17 37 35
f 18 34 38
f 18 38 39
f 18 39 40
f 18 40 19
f 19 40 41
f 19 41 42
f 19 42 43
f 19 43 20
f 20 43 21
f 21 43 44
f 21 44 36
f 22 35 45
f 22 45 46
f 22 46 47
f 22 47 23
f 23 47 27
f 24 31 25
f 25 31 48
f 25 48 49
f 25 49 50
f 25 50 51
f 25 51 26
f 27 47 28
f 28 52 53
f 28 53 54
f 28 54 29
f 28 47 52
f 29 54 30
f 30 54 55
f 30 55 56
f 30 56 31
f 31 56 48
f 32 57 58
f 32 58 33
f 33 58 34
f 34 58 59
f 34 59 38
f 35 37 45
f 36 60 37
f 36 44 60
f 37 60 45
f 38 59 61
f 38 61 62
f 38 62 63
f 38 63 64
f 38 64 39
f 39 64 65
f 39 65 40
f 40 65 42
f 40 42 41
f 42 66 43
f 42 65 66
f 43 66 65
f 43 65 67
f 43 67 44
f 44 68 60
f 44 67 65
f 44 65 69
f 44 69 68
f 45 70 46
f 45 60 70
f 46 70 47
f 47 71 72
f 47 72 52
f 47 70 71
f 48 56 73
f 48 73 49
f 49 74 50
f 49 73 75
f 49 75 76
f 49 76 77
f 49 77 78
f 49 78 79
f 49 79 80
f 49 80 74
f 50 74 80
f 50 80 81
f 50 81 51
f 52 82 83
f 52 83 53
f 52 72 82
f 53 83 84
f 53 84 54
f 54 84 85
f 54 85 55
f 55 85 86
f 55 86 56
f 56 86 87
f 56 87 73
f 57 88 59
f 57 59 58
f 59 89 90
f 59 90 61
f 59 88 91
f 59 91 92
f 59 92 93
f 59 93 89
f 60 68 94
f 60 94 95
f 60 95 96
f 60 96 97
f 60 97 98
f 60 98 70
f 61 90 99
f 61 99 100
f 61 100 101
f 61 101 102
f 61 102 103
f 61 103 104
f 61 104 105
f 61 105 62
f 62 106 63
f 62 105 106
f 63 106 64
f 64 106 65
f 65 106 94
f 65 94 68
f 65 68 69
f 70 98 71
f 71 98 72
f 72 98 82
f 73 87 75
f 75 87 107
f 75 107 108
f 75 108 109
f 75 109 110
f 75 110 111
f 75 111 76
f 76 111 112
f 76 112 77
f 77 113 78
f 77 112 113
f 78 114 115
f 78 115 79
f 78 113 114
f 79 115 80
f 82 116 117
f 82 117 83
f 82 98 136
f 82 136 116
f 83 117 118
f 83 118 119
f 83 119 84
f 84 119 85
f 85 120 121
f 85 121 122
f 85 122 86
f 85 119 120
f 86 122 123
f 86 123 124
f 86 124 87
f 87 124 125
f 87 125 126
f 87 126 127
f 87 127 107
f 89 128 129
f 89 129 99
f 89 99 90
f 89 93 130
f 89 130 128
f 94 106 131
f 94 131 95
f 95 131 132
f 95 132 133
f 95 133 134
f 95 134 96
f 96 134 135
f 96 135 97
f 97 135 136
f 97 136 98
f 99 129 100
f 100 129 137
f 100 137 138
f 100 138 101
f 101 138 139
f 101 139 102
f 102 139 140
f 102 140 141
f 102 141 142
f 102 142 103
f 103 143 104
f 103 142 143
f 104 143 105
f 105 143 106
f 106 144 145
f 106 145 146
f 106 146 131
f 106 143 147
f 106 147 148
f 106 148 149
f 106 149 150
f 106 150 144
f 107 127 126
f 107 126 163
f 107 163 162
f 107 162 161
f 107 161 160
f 107 160 159
f 107 159 197
f 107 197 194
f 107 194 228
f 107 228 271
f 107 271 270
f 107 270 269
f 107 269 303
f 107 303 341
f 107 341 361
f 107 361 381
f 107 381 403
f 107 403 413
f 107 413 429
f 107 429 432
f 107 432 442
f 107 442 439
f 107 439 438
f 107 438 437
f 107 437 428
f 107 428 427
f 107 427 426
f 107 426 424
f 107 424 411
f 107 411 398
f 107 398 379
f 107 379 359
f 107 359 337
f 107 337 336
f 107 336 299
f 107 299 265
f 107 265 264
f 107 264 263
f 107 263 262
f 107 262 261
f 107 261 226
f 107 226 224
f 107 224 189
f 107 189 151
f 107 151 112
f 107 112 111
f 107 111 110
f 107 110 109
f 107 109 108
f 112 151 113
f 113 151 114
f 114 152 153
f 114 153 115
f 114 151 152
f 116 154 117
f 116 136 154
f 117 154 155
f 117 155 118
f 118 155 156
f 118 156 157
f 118 157 120
f 118 120 119
f 120 157 121
f 121 157 158
f 121 158 159
f 121 159 160
f 121 160 161
f 121 161 122
f 122 161 123
f 123 125 124
f 123 161 125
f 125 161 162
f 125 162 163
f 125 163 126
f 128 164 129
f 129 164 165
f 129 165 166
f 129 166 137
f 131 167 132
f 131 146 145
f 131 145 167
f 132 167 168
f 132 168 169
f 132 169 133
f 133 169 170
f 133 170 171
f 133 171 134
f 134 171 135
f 135 171 136
f 136 171 172
f 136 172 154
f 137 166 173
f 137 173 174
f 137 174 175
f 137 175 176
f 137 176 138
f 138 176 177
f 138 177 178
f 138 178 179
f 138 179 139
f 139 179 180
f 139 180 140
f 140 180 181
f 140 181 141
f 141 181 182
f 141 182 150
f 141 150 142
f 142 150 143
f 143 148 147
f 143 150 148
f 144 150 183
f 144 183 184
f 144 184 185
f 144 185 170
f 144 170 169
f 144 169 168
f 144 168 167
f 144 167 145
f 148 150 149
f 150 182 186
f 150 186 187
f 150 187 188
f 150 188 183
f 151 189 190
f 151 190 152
f 152 190 153
f 154 191 155
f 154 172 191
f 155 191 192
f 155 192 193
f 155 193 156
f 156 193 194
f 156 194 195
f 156 195 196
f 156 196 158
f 156 158 157
f 158 196 195
f 158 195 194
f 158 194 197
f 158 197 159
f 170 185 198
f 170 198 171
f 171 198 199
f 171 199 200
f 171 200 172
f 172 200 201
f 172 201 202
f 172 202 191
f 178 203 179
f 179 203 180
f 180 204 181
f 180 203 204
f 181 204 205
f 181 205 182
f 182 205 186
f 183 188 184
f 184 188 206
f 184 206 207
f 184 207 185
f 185 207 208
f 185 208 209
f 185 209 210
f 185 210 211
f 185 211 198
f 186 212 187
f 186 205 213
f 186 213 214
f 186 214 215
f 186 215 216
f 186 216 217
f 186 217 212
f 187 217 216
f 187 216 215
f 187 215 218
f 187 218 219
f 187 219 220
f 187 220 221
f 187 221 188
f 187 212 217
f 188 221 222
f 188 222 223
f 188 223 206
f 189 224 190
f 190 224 226
f 190 226 225
f 191 202 192
f 192 202 227
f 192 227 228
f 192 228 193
f 193 228 194
f 198 211 199
f 199 229 230
f 199 230 231
f 199 231 201
f 199 201 200
f 199 211 229
f 201 231 232
f 201 232 202
f 202 232 227
f 203 233 204
f 204 234 205
f 204 233 235
f 204 235 236
f 204 236 234
f 205 234 237
f 205 237 213
f 206 223 238
f 206 238 207
f 207 238 208
f 208 238 209
f 209 238 239
f 209 239 223
f 209 223 240
f 209 240 219
f 209 219 241
f 209 241 242
f 209 242 210
f 210 242 243
f 210 243 244
f 210 244 245
f 210 245 246
f 210 246 211
f 211 246 247
f 211 247 248
f 211 248 229
f 213 237 214
f 214 237 249
f 214 249 250
f 214 250 251
f 214 251 215
f 215 252 253
f 215 253 254
f 215 254 255
f 215 255 256
f 215 256 218
f 215 251 257
f 215 257 252
f 218 256 219
f 219 240 220
f 219 256 255
f 219 255 254
f 219 254 258
f 219 258 243
f 219 243 259
f 219 259 242
f 219 242 241
f 220 240 223
f 220 223 221
f 221 223 222
f 223 239 238
f 225 226 261
f 225 261 262
f 225 262 263
f 225 263 264
f 225 264 265
f 225 265 260
f 227 232 266
f 227 266 267
f 227 267 268
f 227 268 269
f 227 269 270
f 227 270 271
f 227 271 228
f 229 248 272
f 229 272 230
f 230 273 274
f 230 274 275
f 230 275 231
f 230 272 273
f 231 275 276
f 231 276 266
f 231 266 232
f 234 277 237
f 234 236 278
f 234 278 277
f 237 277 311
f 237 311 279
f 237 279 280
f 237 280 249
f 242 259 243
f 243 281 244
f 243 258 282
f 243 282 283
f 243 283 281
f 244 281 284
f 244 284 285
f 244 285 286
f 244 286 245
f 245 287 288
f 245 288 246
f 245 286 287
f 246 288 247
f 247 288 289
f 247 289 273
f 247 273 272
f 247 272 248
f 249 280 290
f 249 290 291
f 249 291 292
f 249 292 293
f 249 293 257
f 249 257 251
f 249 251 250
f 252 257 294
f 252 294 295
f 252 295 253
f 253 295 296
f 253 296 297
f 253 297 282
f 253 282 258
f 253 258 254
f 257 293 294
f 260 265 298
f 265 299 298
f 266 276 267
f 267 276 275
f 267 275 300
f 267 300 301
f 267 301 302
f 267 302 268
f 268 302 269
f 269 302 301
f 269 301 304
f 269 304 303
f 273 289 305
f 273 305 306
f 273 306 307
f 273 307 274
f 274 307 308
f 274 308 275
f 275 308 309
f 275 309 310
f 275 310 300
f 277 278 290
f 277 290 280
f 277 280 311
f 279 311 280
f 281 283 312
f 281 312 284
f 282 297 283
f 283 297 312
f 284 312 313
f 284 313 314
f 284 314 285
f 285 314 315
f 285 315 286
f 286 315 287
f 287 316 288
f 287 315 316
f 288 316 317
f 288 317 318
f 288 318 289
f 289 319 320
f 289 320 305
f 289 318 319
f 292 321 293
f 293 321 322
f 293 322 323
f 293 323 294
f 294 323 324
f 294 324 325
f 294 325 326
f 294 326 295
f 295 326 325
f 295 325 327
f 295 327 328
f 295 328 329
f 295 329 330
f 295 330 331
f 295 331 332
f 295 332 333
f 295 333 334
f 295 334 335
f 295 335 296
f 296 335 297
f 297 335 334
f 297 334 312
f 298 299 336
f 298 336 337
f 298 337 338
f 300 310 339
f 300 339 301
f 301 339 340
f 301 340 304
f 303 304 340
f 303 340 342
f 303 342 341
f 305 320 306
f 306 343 307
f 306 320 343
f 307 343 344
f 307 344 345
f 307 345 346
f 307 346 347
f 307 347 309
f 307 309 308
f 309 347 348
f 309 348 310
f 310 348 339
f 312 334 349
f 312 349 313
f 313 349 350
f 313 350 314
f 314 350 351
f 314 351 352
f 314 352 353
f 314 353 354
f 314 354 355
f 314 355 315
f 315 355 317
f 315 317 316
f 317 355 318
f 318 355 319
f 319 355 320
f 320 355 356
f 320 356 343
f 322 324 323
f 331 357 333
f 331 333 332
f 333 357 358
f 333 358 334
f 334 358 349
f 337 359 338
f 338 359 360
f 339 342 340
f 339 348 342
f 341 342 361
f 342 348 362
f 342 362 363
f 342 363 361
f 343 364 344
f 343 356 365
f 343 365 364
f 344 366 345
f 344 364 366
f 345 366 362
f 345 362 348
f 345 348 347
f 345 347 346
f 349 358 350
f 350 358 367
f 350 367 351
f 351 367 368
f 351 368 369
f 351 369 370
f 351 370 352
f 352 370 353
f 353 370 371
f 353 371 354
f 354 371 372
f 354 372 355
f 355 372 373
f 355 373 356
f 356 374 375
f 356 375 376
f 356 376 365
f 356 373 374
f 357 377 358
f 358 377 378
f 358 378 367
f 359 379 360
f 360 379 380
f 361 363 381
f 362 366 382
f 362 382 383
f 362 383 363
f 363 383 384
f 363 384 385
f 363 385 381
f 364 376 386
f 364 386 387
f 364 387 366
f 364 365 376
f 366 387 388
f 366 388 382
f 370 389 371
f 370 390 389
f 371 389 373
f 371 373 372
f 373 389 391
f 373 391 392
f 373 392 375
f 373 375 374
f 375 392 393
f 375 393 376
f 376 393 394
f 376 394 395
f 376 395 386
f 379 396 397
f 379 397 380
f 379 398 399
f 379 399 400
f 379 400 401
f 379 401 402
f 379 402 396
f 381 385 384
f 381 384 403
f 382 388 383
f 383 388 404
f 383 404 384
f 384 405 403
f 384 404 405
f 386 395 406
f 386 406 387
f 387 406 407
f 387 407 388
f 388 407 408
f 388 408 404
f 389 390 391
f 390 409 392
f 390 392 391
f 392 409 394
f 392 394 393
f 394 409 395
f 395 409 410
f 395 410 406
f 398 411 412
f 398 412 399
f 403 405 413
f 404 414 415
f 404 415 405
f 404 408 414
f 405 415 416
f 405 416 413
f 406 410 417
f 406 417 418
f 406 418 419
f 406 419 407
f 407 419 420
f 407 420 421
f 407 421 422
f 407 422 423
f 407 423 408
f 408 423 414
f 411 424 412
f 412 424 426
f 412 426 427
f 412 427 428
f 412 428 425
f 413 416 429
f 414 430 431
f 414 431 432
f 414 432 429
f 414 429 415
f 414 423 433
f 414 433 434
f 414 434 435
f 414 435 430
f 415 429 416
f 425 428 437
f 425 437 438
f 425 438 439
f 425 439 436
f 430 435 440
f 430 440 441
f 430 441 442
f 430 442 431
f 431 442 432
f 436 439 441
f 439 442 441

