# https://github.com/mikedh/trimesh
v 0.06274759 0.01382051 0.03352174 0.56470588 0.92549020 0.07058824
v 0.06373137 0.00577926 0.01839323 0.56470588 0.92549020 0.07058824
v 0.06358625 0.00452474 0.01839323 0.56470588 0.92549020 0.07058824
v 0.06353717 0.00325480 0.01839323 0.56470588 0.92549020 0.07058824
v 0.06350089 0.00212882 0.01839323 0.56470588 0.92549020 0.07058824
v 0.06359906 -0.00023111 0.01839323 0.56470588 0.92549020 0.07058824
v 0.06284575 0.01148114 0.03352174 0.56470588 0.92549020 0.07058824
v 0.06365027 -0.00487900 0.03585942 0.56470588 0.92549020 0.07058824
v 0.06341980 0.00212882 0.03585942 0.56470588 0.92549020 0.07058824
v 0.06323628 0.01148114 0.03585942 0.56470588 0.92549020 0.07058824
v 0.06338566 0.01382051 0.03585942 0.56470588 0.92549020 0.07058824
v 0.06327682 0.01615474 0.03352174 0.56470588 0.92549020 0.07058824
v 0.06350943 0.01615474 0.03118406 0.56470588 0.92549020 0.07058824
v 0.06383593 0.01615474 0.02884639 0.56470588 0.92549020 0.07058824
v 0.06417097 0.01615474 0.02651072 0.56470588 0.92549020 0.07058824
v 0.06520810 0.01502361 0.01839323 0.56470588 0.92549020 0.07058824
v 0.06384660 -0.00262189 0.01839323 0.56470588 0.92549020 0.07058824
v 0.06414536 -0.00955259 0.03352174 0.56470588 0.92549020 0.07058824
v 0.06442705 -0.01196394 0.03343523 0.56470588 0.92549020 0.07058824
v 0.06446120 -0.01123385 0.03500643 0.56470588 0.92549020 0.07058824
v 0.06419018 -0.00487900 0.03770622 0.56470588 0.92549020 0.07058824
v 0.06408135 0.00212882 0.03797178 0.56470588 0.92549020 0.07058824
v 0.06408561 0.00446819 0.03789130 0.56470588 0.92549020 0.07058824
v 0.06426487 0.01148114 0.03729582 0.56470588 0.92549020 0.07058824
v 0.06442279 0.01382051 0.03716908 0.56470588 0.92549020 0.07058824
v 0.06454656 0.01518814 0.03709263 0.56470588 0.92549020 0.07058824
v 0.06402799 0.01604162 0.03589764 0.56470588 0.92549020 0.07058824
v 0.06439504 0.01769717 0.03514322 0.56470588 0.92549020 0.07058824
v 0.06422432 0.01797481 0.03352174 0.56470588 0.92549020 0.07058824
v 0.06425633 0.01807250 0.03118406 0.56470588 0.92549020 0.07058824
v 0.06435236 0.01803137 0.02884639 0.56470588 0.92549020 0.07058824
v 0.06449961 0.01774859 0.02651072 0.56470588 0.92549020 0.07058824
v 0.06463405 0.01745038 0.02512260 0.56470588 0.92549020 0.07058824
v 0.06554954 0.01615474 0.01839323 0.56470588 0.92549020 0.07058824
v 0.06549832 -0.01189196 0.01839323 0.56470588 0.92549020 0.07058824
v 0.06645649 -0.02124428 0.02417304 0.56470588 0.92549020 0.07058824
v 0.06462978 -0.01316704 0.03187410 0.56470588 0.92549020 0.07058824
v 0.06462978 -0.01316704 0.03259632 0.56470588 0.92549020 0.07058824
v 0.06582696 -0.01196394 0.03533233 0.56470588 0.92549020 0.07058824
v 0.06480050 -0.00828779 0.03693974 0.56470588 0.92549020 0.07058824
v 0.06442919 -0.00672992 0.03736824 0.56470588 0.92549020 0.07058824
v 0.06675312 -0.02286899 0.02651072 0.56470588 0.92549020 0.07058824
v 0.06694305 -0.02254507 0.02777612 0.56470588 0.92549020 0.07058824
v 0.06659094 -0.01331100 0.03485353 0.56470588 0.92549020 0.07058824
v 0.06585257 -0.00487900 0.03855318 0.56470588 0.92549020 0.07058824
v 0.06585257 0.00212882 0.03894346 0.56470588 0.92549020 0.07058824
v 0.06585257 0.00446819 0.03882477 0.56470588 0.92549020 0.07058824
v 0.06585257 0.01527555 0.03712281 0.56470588 0.92549020 0.07058824
v 0.06585257 0.01644266 0.03658365 0.56470588 0.92549020 0.07058824
v 0.06585257 0.01804165 0.03541481 0.56470588 0.92549020 0.07058824
v 0.06585470 0.01913164 0.03354990 0.56470588 0.92549020 0.07058824
v 0.06630285 0.02009824 0.03118406 0.56470588 0.92549020 0.07058824
v 0.06513341 0.01923962 0.03118406 0.56470588 0.92549020 0.07058824
v 0.06499043 0.01919848 0.02884639 0.56470588 0.92549020 0.07058824
v 0.06510994 0.01891570 0.02651072 0.56470588 0.92549020 0.07058824
v 0.06650558 0.01837585 0.01839323 0.56470588 0.92549020 0.07058824
v 0.06610012 0.01747095 0.01839323 0.56470588 0.92549020 0.07058824
v 0.06600622 -0.01423132 0.01839323 0.56470588 0.92549020 0.07058824
v 0.06676379 -0.02284842 0.02417304 0.56470588 0.92549020 0.07058824
v 0.06639888 -0.02124428 0.02651072 0.56470588 0.92549020 0.07058824
v 0.06635833 -0.00882250 0.03723748 0.56470588 0.92549020 0.07058824
v 0.06568825 -0.00958344 0.03658566 0.56470588 0.92549020 0.07058824
v 0.06568825 -0.00739317 0.03768208 0.56470588 0.92549020 0.07058824
v 0.06830241 -0.02404638 0.02641416 0.56470588 0.92549020 0.07058824
v 0.06915815 -0.02481246 0.02508438 0.56470588 0.92549020 0.07058824
v 0.06915815 -0.02481246 0.02556921 0.56470588 0.92549020 0.07058824
v 0.06819144 -0.02293068 0.02810002 0.56470588 0.92549020 0.07058824
v 0.07052818 -0.02324945 0.02837362 0.56470588 0.92549020 0.07058824
v 0.07520166 -0.02342426 0.02854663 0.56470588 0.92549020 0.07058824
v 0.07754053 -0.02331629 0.02861704 0.56470588 0.92549020 0.07058824
v 0.06734851 -0.01331100 0.03485353 0.56470588 0.92549020 0.07058824
v 0.06767501 -0.00882250 0.03723748 0.56470588 0.92549020 0.07058824
v 0.06834936 -0.00736232 0.03758551 0.56470588 0.92549020 0.07058824
v 0.06819144 -0.00487900 0.03810858 0.56470588 0.92549020 0.07058824
v 0.08454647 0.00049383 0.03229657 0.56470588 0.92549020 0.07058824
v 0.08454647 0.00904409 0.03211350 0.56470588 0.92549020 0.07058824
v 0.07430111 0.01790798 0.03487767 0.56470588 0.92549020 0.07058824
v 0.06715432 0.01516758 0.03709062 0.56470588 0.92549020 0.07058824
v 0.07206680 0.01972805 0.03475697 0.56470588 0.92549020 0.07058824
v 0.07134124 0.01972805 0.03475697 0.56470588 0.92549020 0.07058824
v 0.06819144 0.01941957 0.03432846 0.56470588 0.92549020 0.07058824
v 0.06663575 0.01984117 0.03278744 0.56470588 0.92549020 0.07058824
v 0.06615987 0.02032447 0.02884639 0.56470588 0.92549020 0.07058824
v 0.07610221 0.02676672 0.02088380 0.56470588 0.92549020 0.07058824
v 0.06627937 0.02029362 0.02651072 0.56470588 0.92549020 0.07058824
v 0.06694945 0.01974348 0.02029234 0.56470588 0.92549020 0.07058824
v 0.06711163 0.01954296 0.01873322 0.56470588 0.92549020 0.07058824
v 0.06717139 0.01947612 0.01839323 0.56470588 0.92549020 0.07058824
v 0.06671471 -0.01625192 0.01839323 0.56470588 0.92549020 0.07058824
v 0.06695585 -0.02251936 0.02288953 0.56470588 0.92549020 0.07058824
v 0.06830241 -0.02407723 0.02425150 0.56470588 0.92549020 0.07058824
v 0.07052818 -0.02442171 0.02695733 0.56470588 0.92549020 0.07058824
v 0.07005443 -0.02460166 0.02352525 0.56470588 0.92549020 0.07058824
v 0.07161439 -0.02476618 0.02297000 0.56470588 0.92549020 0.07058824
v 0.07286705 -0.02488444 0.02257972 0.56470588 0.92549020 0.07058824
v 0.07286705 -0.02515694 0.02417304 0.56470588 0.92549020 0.07058824
v 0.07052818 -0.02489986 0.02578849 0.56470588 0.92549020 0.07058824
v 0.07286705 -0.02450397 0.02723898 0.56470588 0.92549020 0.07058824
v 0.07520166 -0.02459137 0.02730939 0.56470588 0.92549020 0.07058824
v 0.08454647 -0.02321346 0.02866734 0.56470588 0.92549020 0.07058824
v 0.08221400 -0.02137282 0.02981606 0.56470588 0.92549020 0.07058824
v 0.08448032 -0.02111574 0.02985026 0.56470588 0.92549020 0.07058824
v 0.08454647 -0.02111574 0.02984422 0.56470588 0.92549020 0.07058824
v 0.08454647 -0.00020541 0.03224024 0.56470588 0.92549020 0.07058824
v 0.08454647 0.01848896 0.03117199 0.56470588 0.92549020 0.07058824
v 0.08454647 0.02082319 0.03082396 0.56470588 0.92549020 0.07058824
v 0.08454647 0.02263812 0.03033509 0.56470588 0.92549020 0.07058824
v 0.07362463 0.01946584 0.03454573 0.56470588 0.92549020 0.07058824
v 0.07285425 0.01860721 0.03499637 0.56470588 0.92549020 0.07058824
v 0.08454647 0.02380524 0.02960683 0.56470588 0.92549020 0.07058824
v 0.08454647 0.02486438 0.02843800 0.56470588 0.92549020 0.07058824
v 0.06819144 0.02004683 0.03315962 0.56470588 0.92549020 0.07058824
v 0.08221400 0.02467929 0.02816238 0.56470588 0.92549020 0.07058824
v 0.06819144 0.02084375 0.03118406 0.56470588 0.92549020 0.07058824
v 0.07487302 0.02621144 0.01949769 0.56470588 0.92549020 0.07058824
v 0.08221400 0.02543508 0.02651072 0.56470588 0.92549020 0.07058824
v 0.07754053 0.02687469 0.02117551 0.56470588 0.92549020 0.07058824
v 0.07754053 0.02707521 0.01949769 0.56470588 0.92549020 0.07058824
v 0.07604246 0.02678729 0.01949769 0.56470588 0.92549020 0.07058824
v 0.06801005 0.02047357 0.01950775 0.56470588 0.92549020 0.07058824
v 0.07362676 0.02490037 0.01839323 0.56470588 0.92549020 0.07058824
v 0.06826827 0.02042215 0.01839323 0.56470588 0.92549020 0.07058824
v 0.06707109 -0.01710540 0.01839323 0.56470588 0.92549020 0.07058824
v 0.06919016 -0.02252451 0.02051766 0.56470588 0.92549020 0.07058824
v 0.06832375 -0.02292554 0.02200033 0.56470588 0.92549020 0.07058824
v 0.06720553 -0.01736762 0.01839323 0.56470588 0.92549020 0.07058824
v 0.06804206 -0.01889463 0.01839323 0.56470588 0.92549020 0.07058824
v 0.06903011 -0.02050905 0.01839323 0.56470588 0.92549020 0.07058824
v 0.07286705 -0.02501812 0.02607014 0.56470588 0.92549020 0.07058824
v 0.07286705 -0.02437029 0.02141088 0.56470588 0.92549020 0.07058824
v 0.07071171 -0.02401553 0.02204861 0.56470588 0.92549020 0.07058824
v 0.07520166 -0.02496156 0.02221961 0.56470588 0.92549020 0.07058824
v 0.07520166 -0.02463765 0.02105078 0.56470588 0.92549020 0.07058824
v 0.08454647 -0.02470963 0.01839323 0.56470588 0.92549020 0.07058824
v 0.07520166 -0.02522377 0.02417304 0.56470588 0.92549020 0.07058824
v 0.08454647 -0.02433430 0.02650267 0.56470588 0.92549020 0.07058824
v 0.07520166 -0.02501297 0.02614055 0.56470588 0.92549020 0.07058824
v 0.08454647 -0.02299238 0.02879408 0.56470588 0.92549020 0.07058824
v 0.08454647 0.02572300 0.02651072 0.56470588 0.92549020 0.07058824
v 0.07616836 0.02674615 0.01839323 0.56470588 0.92549020 0.07058824
v 0.07509923 0.02608290 0.01839323 0.56470588 0.92549020 0.07058824
v 0.07987727 0.02694667 0.02145514 0.56470588 0.92549020 0.07058824
v 0.07987727 0.02729629 0.01949769 0.56470588 0.92549020 0.07058824
v 0.08454647 0.02574871 0.02642623 0.56470588 0.92549020 0.07058824
v 0.07987727 0.02720374 0.01839323 0.56470588 0.92549020 0.07058824
v 0.07864381 0.02708549 0.01839323 0.56470588 0.92549020 0.07058824
v 0.07764510 0.02696210 0.01839323 0.56470588 0.92549020 0.07058824
v 0.06965751 -0.02089980 0.01839323 0.56470588 0.92549020 0.07058824
v 0.07058793 -0.02141395 0.01839323 0.56470588 0.92549020 0.07058824
v 0.07347738 -0.02274045 0.01839323 0.56470588 0.92549020 0.07058824
v 0.07531049 -0.02338827 0.01839323 0.56470588 0.92549020 0.07058824
v 0.07520166 -0.02394869 0.01949769 0.56470588 0.92549020 0.07058824
v 0.08454647 -0.02473534 0.01854612 0.56470588 0.92549020 0.07058824
v 0.08454647 0.02714719 0.01839323 0.56470588 0.92549020 0.07058824
v 0.08454647 -0.02481760 0.01961236 0.56470588 0.92549020 0.07058824
v 0.08454647 -0.02485359 0.02182732 0.56470588 0.92549020 0.07058824
v 0.08454647 -0.02479189 0.02355342 0.56470588 0.92549020 0.07058824
v 0.08454647 -0.02470449 0.02472226 0.56470588 0.92549020 0.07058824
v 0.08244235 0.02689012 0.02195607 0.56470588 0.92549020 0.07058824
v 0.08337277 0.02667932 0.02300823 0.56470588 0.92549020 0.07058824
v 0.08221400 0.02730143 0.01949769 0.56470588 0.92549020 0.07058824
v 0.08221400 0.02723974 0.01839323 0.56470588 0.92549020 0.07058824
v 0.08098055 0.02723460 0.01839323 0.56470588 0.92549020 0.07058824
v 0.08454647 0.02638111 0.02396181 0.56470588 0.92549020 0.07058824
v 0.08432668 0.02639654 0.02394169 0.56470588 0.92549020 0.07058824
v 0.08339625 0.02667932 0.02300823 0.56470588 0.92549020 0.07058824
v 0.08454647 0.02721917 0.01949769 0.56470588 0.92549020 0.07058824
v 0.08432668 0.02686955 0.02195406 0.56470588 0.92549020 0.07058824
v 0.08454647 0.02689526 0.02174282 0.56470588 0.92549020 0.07058824
v 0.08454647 0.02686955 0.02190980 0.56470588 0.92549020 0.07058824
f 1 2 3
f 1 3 4
f 1 4 5
f 1 5 6
f 1 6 7
f 1 7 8
f 1 8 9
f 1 9 10
f 1 10 11
f 1 11 12
f 1 12 13
f 1 13 14
f 1 14 15
f 1 15 2
f 2 15 16
f 2 16 34
f 2 34 57
f 2 57 56
f 2 56 88
f 2 88 122
f 2 122 121
f 2 121 141
f 2 141 140
f 2 140 147
f 2 147 146
f 2 146 145
f 2 145 163
f 2 163 162
f 2 162 154
f 2 154 134
f 2 134 151
f 2 151 150
f 2 150 149
f 2 149 148
f 2 148 128
f 2 128 127
f 2 127 126
f 2 126 123
f 2 123 89
f 2 89 58
f 2 58 35
f 2 35 17
f 2 17 6
f 2 6 5
f 2 5 4
f 2 4 3
f 6 17 18
f 6 18 8
f 6 8 7
f 8 18 19
f 8 19 20
f 8 20 21
f 8 21 9
f 9 22 10
f 9 21 22
f 10 22 23
f 10 23 11
f 11 23 24
f 11 24 25
f 11 25 26
f 11 26 27
f 11 27 12
f 12 27 28
f 12 28 29
f 12 29 30
f 12 30 31
f 12 31 13
f 13 31 32
f 13 32 14
f 14 32 33
f 14 33 15
f 15 33 16
f 16 33 34
f 17 19 18
f 17 35 36
f 17 36 37
f 17 37 19
f 19 37 38
f 19 38 20
f 20 39 40
f 20 40 41
f 20 41 21
f 20 38 42
f 20 42 43
f 20 43 44
f 20 44 39
f 21 41 45
f 21 45 46
f 21 46 22
f 22 46 23
f 23 46 47
f 23 47 25
f 23 25 24
f 25 47 26
f 26 48 49
f 26 49 50
f 26 50 28
f 26 28 27
f 26 47 48
f 28 50 51
f 28 51 52
f 28 52 53
f 28 53 29
f 29 53 54
f 29 54 30
f 30 54 31
f 31 54 55
f 31 55 32
f 32 56 33
f 32 55 56
f 33 56 57
f 33 57 34
f 35 58 59
f 35 59 36
f 36 59 37
f 37 59 60
f 37 60 42
f 37 42 38
f 39 61 62
f 39 62 40
f 39 44 61
f 40 61 63
f 40 63 41
f 40 62 61
f 41 63 45
f 42 64 43
f 42 60 59
f 42 59 65
f 42 65 66
f 42 66 64
f 43 64 67
f 43 67 44
f 44 67 68
f 44 68 69
f 44 69 70
f 44 70 71
f 44 71 72
f 44 72 61
f 45 63 61
f 45 61 72
f 45 72 73
f 45 73 74
f 45 74 46
f 46 75 76
f 46 76 47
f 46 74 75
f 47 76 77
f 47 77 78
f 47 78 48
f 48 79 49
f 48 78 79
f 49 79 80
f 49 80 50
f 50 80 81
f 50 81 82
f 50 82 51
f 51 82 52
f 52 83 53
f 52 82 84
f 52 84 83
f 53 83 54
f 54 83 85
f 54 85 55
f 55 85 86
f 55 86 87
f 55 87 56
f 56 87 88
f 58 89 90
f 58 90 59
f 59 90 91
f 59 91 65
f 64 66 92
f 64 92 67
f 65 93 94
f 65 94 95
f 65 95 96
f 65 96 66
f 65 91 93
f 66 96 97
f 66 97 92
f 67 92 68
f 68 92 98
f 68 98 69
f 69 98 99
f 69 99 100
f 69 100 70
f 70 100 101
f 70 101 71
f 71 101 102
f 71 102 72
f 72 102 103
f 72 103 73
f 73 103 74
f 74 103 104
f 74 104 75
f 75 104 103
f 75 103 138
f 75 138 100
f 75 100 136
f 75 136 158
f 75 158 157
f 75 157 156
f 75 156 155
f 75 155 153
f 75 153 134
f 75 134 154
f 75 154 167
f 75 167 169
f 75 169 170
f 75 170 164
f 75 164 144
f 75 144 139
f 75 139 111
f 75 111 110
f 75 110 107
f 75 107 106
f 75 106 105
f 75 105 76
f 76 105 77
f 77 105 106
f 77 106 107
f 77 107 108
f 77 108 109
f 77 109 78
f 78 109 79
f 79 109 108
f 79 108 107
f 79 107 110
f 79 110 111
f 79 111 80
f 80 112 81
f 80 111 113
f 80 113 112
f 81 112 82
f 82 112 114
f 82 114 84
f 83 84 115
f 83 115 85
f 84 116 117
f 84 117 118
f 84 118 119
f 84 119 115
f 84 114 112
f 84 112 116
f 85 115 86
f 86 115 120
f 86 120 87
f 87 120 115
f 87 115 121
f 87 121 122
f 87 122 88
f 89 123 90
f 90 124 125
f 90 125 91
f 90 123 126
f 90 126 127
f 90 127 128
f 90 128 124
f 91 125 93
f 92 97 129
f 92 129 98
f 93 130 94
f 93 125 124
f 93 124 131
f 93 131 130
f 94 130 95
f 95 132 96
f 95 130 133
f 95 133 134
f 95 134 132
f 96 132 135
f 96 135 129
f 96 129 97
f 98 129 99
f 99 136 100
f 99 129 137
f 99 137 136
f 100 138 101
f 101 138 102
f 102 138 103
f 111 139 116
f 111 116 113
f 112 113 116
f 115 119 140
f 115 140 141
f 115 141 121
f 116 139 117
f 117 142 143
f 117 143 118
f 117 139 144
f 117 144 142
f 118 143 145
f 118 145 146
f 118 146 147
f 118 147 140
f 118 140 119
f 124 128 148
f 124 148 149
f 124 149 150
f 124 150 131
f 129 135 137
f 130 131 151
f 130 151 152
f 130 152 133
f 131 150 151
f 132 134 153
f 132 153 135
f 133 152 134
f 134 152 151
f 135 153 155
f 135 155 156
f 135 156 157
f 135 157 158
f 135 158 137
f 136 137 158
f 142 159 143
f 142 144 160
f 142 160 159
f 143 161 162
f 143 162 163
f 143 163 145
f 143 159 161
f 144 164 165
f 144 165 166
f 144 166 160
f 154 162 167
f 159 160 166
f 159 166 168
f 159 168 161
f 161 167 162
f 161 168 169
f 161 169 167
f 164 170 166
f 164 166 165
f 166 170 168
f 168 170 169

