# https://github.com/mikedh/trimesh
v -0.06739162 0.01797107 0.00313129 0.54509804 0.71372549 0.60000000
v -0.06739162 0.01771868 0.00079495 0.54509804 0.71372549 0.60000000
v -0.06972931 0.01785266 0.00313129 0.54509804 0.71372549 0.60000000
v -0.06739162 0.01794614 0.00546763 0.54509804 0.71372549 0.60000000
v 0.04246750 0.01226895 0.00079495 0.54509804 0.71372549 0.60000000
v -0.06739162 0.01742890 -0.00074379 0.54509804 0.71372549 0.60000000
v -0.06909288 0.01742578 -0.00071679 0.54509804 0.71372549 0.60000000
v -0.06981499 0.01757847 0.00070906 0.54509804 0.71372549 0.60000000
v 0.04246750 0.01193244 -0.00154138 0.54509804 0.71372549 0.60000000
v -0.07107562 0.01743202 0.00143058 0.54509804 0.71372549 0.60000000
v -0.07116130 0.01748810 0.00313129 0.54509804 0.71372549 0.60000000
v -0.07107562 0.01743825 0.00496208 0.54509804 0.71372549 0.60000000
v -0.06992514 0.01767194 0.00563206 0.54509804 0.71372549 0.60000000
v -0.06927646 0.01752238 0.00740640 0.54509804 0.71372549 0.60000000
v -0.06739162 0.01759093 0.00760028 0.54509804 0.71372549 0.60000000
v 0.05058209 0.01115657 0.00546763 0.54509804 0.71372549 0.60000000
v 0.05058209 0.01152425 0.00313129 0.54509804 0.71372549 0.60000000
v 0.05058209 0.01145258 0.00079495 0.54509804 0.71372549 0.60000000
v -0.06739162 0.01708927 -0.00191441 0.54509804 0.71372549 0.60000000
v -0.06981499 0.01698956 -0.00151439 0.54509804 0.71372549 0.60000000
v -0.07064725 0.01726999 -0.00012780 0.54509804 0.71372549 0.60000000
v 0.05058209 0.01125317 -0.00031186 0.54509804 0.71372549 0.60000000
v 0.05058209 0.01102259 -0.00154138 0.54509804 0.71372549 0.60000000
v 0.05058209 0.01075150 -0.00240769 0.54509804 0.71372549 0.60000000
v 0.05058209 0.01051781 -0.00314885 0.54509804 0.71372549 0.60000000
v 0.04246750 0.01095404 -0.00362495 0.54509804 0.71372549 0.60000000
v -0.06739162 0.01618877 -0.00388018 0.54509804 0.71372549 0.60000000
v -0.07221387 0.01573073 -0.00153648 0.54509804 0.71372549 0.60000000
v -0.07194461 0.01655956 0.00070906 0.54509804 0.71372549 0.60000000
v -0.07342555 0.01524153 0.00079495 0.54509804 0.71372549 0.60000000
v -0.07233626 0.01647543 0.00313129 0.54509804 0.71372549 0.60000000
v -0.07083084 0.01730115 0.00652046 0.54509804 0.71372549 0.60000000
v -0.07194461 0.01649413 0.00563206 0.54509804 0.71372549 0.60000000
v -0.06992514 0.01712977 0.00803466 0.54509804 0.71372549 0.60000000
v -0.06739162 0.01726064 0.00876845 0.54509804 0.71372549 0.60000000
v 0.05058209 0.01090419 0.00623823 0.54509804 0.71372549 0.60000000
v -0.06970483 0.01569022 -0.00399307 0.54509804 0.71372549 0.60000000
v -0.07154072 0.01539733 -0.00329118 0.54509804 0.71372549 0.60000000
v 0.05058209 0.01023115 -0.00370103 0.54509804 0.71372549 0.60000000
v 0.05058209 0.00981362 -0.00431701 0.54509804 0.71372549 0.60000000
v 0.04246750 0.01005042 -0.00479312 0.54509804 0.71372549 0.60000000
v 0.02844137 0.01052404 -0.00531585 0.54509804 0.71372549 0.60000000
v -0.06505393 0.01522907 -0.00533548 0.54509804 0.71372549 0.60000000
v -0.06739162 0.01525711 -0.00535020 0.54509804 0.71372549 0.60000000
v -0.06890929 0.01510443 -0.00516615 0.54509804 0.71372549 0.60000000
v -0.07309510 0.01483335 -0.00231198 0.54509804 0.71372549 0.60000000
v -0.07331539 0.01509197 -0.00075361 0.54509804 0.71372549 0.60000000
v -0.07368257 0.01396089 -0.00153648 0.54509804 0.71372549 0.60000000
v -0.07398855 0.01382068 0.00079495 0.54509804 0.71372549 0.60000000
v -0.07346227 0.01530697 0.00313129 0.54509804 0.71372549 0.60000000
v -0.07333989 0.01513559 0.00546763 0.54509804 0.71372549 0.60000000
v -0.07324196 0.01499538 0.00665298 0.54509804 0.71372549 0.60000000
v -0.07209148 0.01573385 0.00758064 0.54509804 0.71372549 0.60000000
v -0.07133265 0.01546588 0.00956359 0.54509804 0.71372549 0.60000000
v -0.06980274 0.01591457 0.01026302 0.54509804 0.71372549 0.60000000
v -0.06739162 0.01653775 0.01014522 0.54509804 0.71372549 0.60000000
v 0.05058209 0.01058013 0.00715608 0.54509804 0.71372549 0.60000000
v -0.07046367 0.01483646 -0.00484956 0.54509804 0.71372549 0.60000000
v -0.07238522 0.01405437 -0.00416240 0.54509804 0.71372549 0.60000000
v 0.05058209 0.00864515 -0.00561525 0.54509804 0.71372549 0.60000000
v 0.02610368 0.00943971 -0.00655273 0.54509804 0.71372549 0.60000000
v 0.02376599 0.00952072 -0.00659691 0.54509804 0.71372549 0.60000000
v -0.06494378 0.01360879 -0.00667544 0.54509804 0.71372549 0.60000000
v 0.02376599 0.00835225 -0.00763746 0.54509804 0.71372549 0.60000000
v -0.06637577 0.01268960 -0.00740923 0.54509804 0.71372549 0.60000000
v -0.06725700 0.01360879 -0.00663372 0.54509804 0.71372549 0.60000000
v -0.06970483 0.01396089 -0.00585085 0.54509804 0.71372549 0.60000000
v -0.07322972 0.01261794 -0.00503117 0.54509804 0.71372549 0.60000000
v -0.07353570 0.01327539 -0.00347279 0.54509804 0.71372549 0.60000000
v -0.07414766 0.01148063 -0.00154138 0.54509804 0.71372549 0.60000000
v -0.07423334 0.01148063 0.00079495 0.54509804 0.71372549 0.60000000
v -0.07402527 0.01382068 0.00313129 0.54509804 0.71372549 0.60000000
v -0.07380497 0.01382068 0.00546763 0.54509804 0.71372549 0.60000000
v -0.07293598 0.01382068 0.00829971 0.54509804 0.71372549 0.60000000
v -0.07343779 0.01382068 0.00713154 0.54509804 0.71372549 0.60000000
v -0.07174878 0.01387676 0.01026302 0.54509804 0.71372549 0.60000000
v -0.07062278 0.01469625 0.01112442 0.54509804 0.71372549 0.60000000
v -0.06906839 0.01527892 0.01153671 0.54509804 0.71372549 0.60000000
v -0.06739162 0.01543472 0.01173795 0.54509804 0.71372549 0.60000000
v 0.02844137 0.00986970 0.01059923 0.54509804 0.71372549 0.60000000
v 0.05058209 0.00992267 0.00832425 0.54509804 0.71372549 0.60000000
v -0.07167535 0.01327851 -0.00558580 0.54509804 0.71372549 0.60000000
v 0.05058209 0.00766364 -0.00620670 0.54509804 0.71372549 0.60000000
v 0.02610368 0.00827124 -0.00758838 0.54509804 0.71372549 0.60000000
v -0.06564142 0.01268960 -0.00740923 0.54509804 0.71372549 0.60000000
v 0.02610368 0.00680676 -0.00813074 0.54509804 0.71372549 0.60000000
v 0.02376599 0.00680676 -0.00820682 0.54509804 0.71372549 0.60000000
v -0.06739162 0.00747980 -0.00962531 0.54509804 0.71372549 0.60000000
v -0.06739162 0.00914370 -0.00898969 0.54509804 0.71372549 0.60000000
v -0.06972931 0.00914370 -0.00883508 0.54509804 0.71372549 0.60000000
v -0.06972931 0.01105686 -0.00782643 0.54509804 0.71372549 0.60000000
v -0.06794239 0.01248707 -0.00728897 0.54509804 0.71372549 0.60000000
v -0.06972931 0.01222533 -0.00713191 0.54509804 0.71372549 0.60000000
v -0.07167535 0.00914370 -0.00799577 0.54509804 0.71372549 0.60000000
v -0.07316853 0.00772596 -0.00723989 0.54509804 0.71372549 0.60000000
v -0.07335212 0.00616800 -0.00753684 0.54509804 0.71372549 0.60000000
v -0.07340107 0.01105998 -0.00533057 0.54509804 0.71372549 0.60000000
v -0.07368257 0.01169563 -0.00410350 0.54509804 0.71372549 0.60000000
v -0.07122249 0.01068919 -0.00761538 0.54509804 0.71372549 0.60000000
v -0.07427005 0.00446983 -0.00388018 0.54509804 0.71372549 0.60000000
v -0.07438022 0.00212978 -0.00388018 0.54509804 0.71372549 0.60000000
v -0.07391512 0.00446983 -0.00621652 0.54509804 0.71372549 0.60000000
v -0.07419662 0.01148063 0.00313129 0.54509804 0.71372549 0.60000000
v -0.07440469 -0.00020404 -0.00154138 0.54509804 0.71372549 0.60000000
v -0.07397632 0.01148063 0.00546763 0.54509804 0.71372549 0.60000000
v -0.07353570 0.01148063 0.00754874 0.54509804 0.71372549 0.60000000
v -0.07315629 0.01148063 0.00871691 0.54509804 0.71372549 0.60000000
v -0.07242194 0.01148063 0.01014522 0.54509804 0.71372549 0.60000000
v -0.07116130 0.01313829 0.01153181 0.54509804 0.71372549 0.60000000
v -0.06980274 0.01387676 0.01193919 0.54509804 0.71372549 0.60000000
v -0.06739162 0.01382068 0.01273924 0.54509804 0.71372549 0.60000000
v -0.06505393 0.01382068 0.01277605 0.54509804 0.71372549 0.60000000
v 0.02142830 0.00767610 0.01346076 0.54509804 0.71372549 0.60000000
v 0.02376599 0.00758574 0.01340922 0.54509804 0.71372549 0.60000000
v 0.02610368 0.00879160 0.01217234 0.54509804 0.71372549 0.60000000
v 0.02376599 0.01003485 0.01080784 0.54509804 0.71372549 0.60000000
v 0.05058209 0.00930884 0.00915866 0.54509804 0.71372549 0.60000000
v 0.05058209 0.00680676 -0.00669507 0.54509804 0.71372549 0.60000000
v 0.02610368 0.00446983 -0.00861421 0.54509804 0.71372549 0.60000000
v 0.01909061 0.00446983 -0.00888416 0.54509804 0.71372549 0.60000000
v 0.05058209 0.00501511 -0.00727916 0.54509804 0.71372549 0.60000000
v 0.05058209 0.00442309 -0.00743622 0.54509804 0.71372549 0.60000000
v -0.06739162 0.00631133 -0.00982410 0.54509804 0.71372549 0.60000000
v -0.06972931 0.00617423 -0.00979710 0.54509804 0.71372549 0.60000000
v -0.06972931 0.00734270 -0.00956396 0.54509804 0.71372549 0.60000000
v 0.01675292 0.00446983 -0.00892098 0.54509804 0.71372549 0.60000000
v -0.07204252 0.00671329 -0.00853322 0.54509804 0.71372549 0.60000000
v -0.07092875 0.00570373 -0.00973821 0.54509804 0.71372549 0.60000000
v -0.07215267 0.00446983 -0.00881545 0.54509804 0.71372549 0.60000000
v -0.07341332 0.00446983 -0.00764728 0.54509804 0.71372549 0.60000000
v -0.07362139 0.00689089 -0.00636377 0.54509804 0.71372549 0.60000000
v -0.07352346 0.00914370 -0.00573550 0.54509804 0.71372549 0.60000000
v -0.07440469 -0.00020404 -0.00388018 0.54509804 0.71372549 0.60000000
v -0.07401304 0.00212978 -0.00621652 0.54509804 0.71372549 0.60000000
v -0.07442917 -0.00254097 -0.00154138 0.54509804 0.71372549 0.60000000
v -0.07438022 -0.00488102 0.00079495 0.54509804 0.71372549 0.60000000
v -0.07429454 -0.00721795 0.00313129 0.54509804 0.71372549 0.60000000
v -0.07413542 -0.00721795 0.00546763 0.54509804 0.71372549 0.60000000
v -0.07369482 -0.00488102 0.00780643 0.54509804 0.71372549 0.60000000
v -0.07331539 -0.00488102 0.00917093 0.54509804 0.71372549 0.60000000
v -0.07285031 -0.00254097 0.01020903 0.54509804 0.71372549 0.60000000
v -0.07158967 0.00212978 0.01224351 0.54509804 0.71372549 0.60000000
v -0.07138161 0.00914370 0.01189011 0.54509804 0.71372549 0.60000000
v -0.07133265 0.01148063 0.01173795 0.54509804 0.71372549 0.60000000
v -0.07002305 0.00914370 0.01305828 0.54509804 0.71372549 0.60000000
v -0.06886033 0.00914370 0.01382152 0.54509804 0.71372549 0.60000000
v -0.06952124 0.01128744 0.01294784 0.54509804 0.71372549 0.60000000
v -0.06860330 0.01038071 0.01366936 0.54509804 0.71372549 0.60000000
v -0.06739162 0.01201033 0.01348285 0.54509804 0.71372549 0.60000000
v -0.06505393 0.01238113 0.01357365 0.54509804 0.71372549 0.60000000
v 0.01909061 0.00773530 0.01350493 0.54509804 0.71372549 0.60000000
v 0.02142830 0.00650764 0.01406693 0.54509804 0.71372549 0.60000000
v 0.02376599 0.00641727 0.01402766 0.54509804 0.71372549 0.60000000
v 0.02610368 0.00630510 0.01398104 0.54509804 0.71372549 0.60000000
v 0.02610368 0.00747357 0.01334051 0.54509804 0.71372549 0.60000000
v 0.05058209 0.00875421 0.00979428 0.54509804 0.71372549 0.60000000
v 0.01909061 0.00212978 -0.00923511 0.54509804 0.71372549 0.60000000
v 0.05058209 0.00390897 -0.00751475 0.54509804 0.71372549 0.60000000
v 0.05058209 0.00223884 -0.00776753 0.54509804 0.71372549 0.60000000
v -0.06739162 0.00446983 -0.00999343 0.54509804 0.71372549 0.60000000
v -0.06972931 0.00446983 -0.00992226 0.54509804 0.71372549 0.60000000
v -0.07098995 0.00446983 -0.00976765 0.54509804 0.71372549 0.60000000
v -0.07217716 0.00212978 -0.00887680 0.54509804 0.71372549 0.60000000
v -0.07346227 0.00212978 -0.00770863 0.54509804 0.71372549 0.60000000
v -0.07440469 -0.00488102 -0.00154138 0.54509804 0.71372549 0.60000000
v -0.07396409 -0.00020404 -0.00621652 0.54509804 0.71372549 0.60000000
v -0.07433125 -0.00254097 -0.00388018 0.54509804 0.71372549 0.60000000
v -0.07434349 -0.00721795 0.00079495 0.54509804 0.71372549 0.60000000
v -0.07396409 -0.00955488 0.00313129 0.54509804 0.71372549 0.60000000
v -0.07381720 -0.00955488 0.00546763 0.54509804 0.71372549 0.60000000
v -0.07346227 -0.00955488 0.00732051 0.54509804 0.71372549 0.60000000
v -0.07359690 -0.00744853 0.00803957 0.54509804 0.71372549 0.60000000
v -0.07331539 -0.00682535 0.00915375 0.54509804 0.71372549 0.60000000
v -0.07278911 -0.00488102 0.01033910 0.54509804 0.71372549 0.60000000
v -0.07165087 -0.00020404 0.01225087 0.54509804 0.71372549 0.60000000
v -0.07062278 0.00212978 0.01341168 0.54509804 0.71372549 0.60000000
v -0.07053710 0.00446983 0.01330860 0.54509804 0.71372549 0.60000000
v -0.07037799 0.00680676 0.01317853 0.54509804 0.71372549 0.60000000
v -0.06920303 0.00680676 0.01404484 0.54509804 0.71372549 0.60000000
v -0.06739162 0.00680676 0.01454303 0.54509804 0.71372549 0.60000000
v -0.06739162 0.00914370 0.01420682 0.54509804 0.71372549 0.60000000
v -0.06739162 0.01084187 0.01380679 0.54509804 0.71372549 0.60000000
v -0.06505393 0.01121266 0.01389514 0.54509804 0.71372549 0.60000000
v 0.01207755 0.00446983 0.01481544 0.54509804 0.71372549 0.60000000
v 0.01909061 0.00446983 0.01471973 0.54509804 0.71372549 0.60000000
v 0.01909061 0.00656684 0.01409147 0.54509804 0.71372549 0.60000000
v 0.02376599 0.00446983 0.01462157 0.54509804 0.71372549 0.60000000
v 0.02610368 0.00446983 0.01454058 0.54509804 0.71372549 0.60000000
v 0.05058209 0.00623032 0.01158334 0.54509804 0.71372549 0.60000000
v 0.05058209 0.00678495 0.01130848 0.54509804 0.71372549 0.60000000
v 0.05058209 0.00739879 0.01096490 0.54509804 0.71372549 0.60000000
v 0.05058209 -0.00020404 -0.00798349 0.54509804 0.71372549 0.60000000
v 0.02376599 -0.00020404 -0.00918602 0.54509804 0.71372549 0.60000000
v 0.02142830 -0.00020404 -0.00927928 0.54509804 0.71372549 0.60000000
v 0.01909061 -0.00020404 -0.00933327 0.54509804 0.71372549 0.60000000
v -0.06739162 0.00212978 -0.01002288 0.54509804 0.71372549 0.60000000
v -0.06972931 0.00212978 -0.00993944 0.54509804 0.71372549 0.60000000
v -0.07100219 0.00212978 -0.00977747 0.54509804 0.71372549 0.60000000
v -0.07095323 0.00071516 -0.00975293 0.54509804 0.71372549 0.60000000
v -0.07187117 -0.00011991 -0.00893816 0.54509804 0.71372549 0.60000000
v -0.07341332 -0.00020404 -0.00762274 0.54509804 0.71372549 0.60000000
v -0.07415990 -0.00488102 -0.00388018 0.54509804 0.71372549 0.60000000
v -0.07423334 -0.00721795 -0.00154138 0.54509804 0.71372549 0.60000000
v -0.07365809 -0.00256901 -0.00638831 0.54509804 0.71372549 0.60000000
v -0.07391512 -0.00955488 0.00079495 0.54509804 0.71372549 0.60000000
v -0.07343779 -0.01106610 0.00313129 0.54509804 0.71372549 0.60000000
v -0.07337659 -0.01095393 0.00546763 0.54509804 0.71372549 0.60000000
v -0.07327869 -0.01079813 0.00676833 0.54509804 0.71372549 0.60000000
v -0.07324196 -0.00838330 0.00897459 0.54509804 0.71372549 0.60000000
v -0.07267896 -0.00744853 0.01001760 0.54509804 0.71372549 0.60000000
v -0.07162639 -0.00488102 0.01200545 0.54509804 0.71372549 0.60000000
v -0.07168758 -0.00254097 0.01217724 0.54509804 0.71372549 0.60000000
v -0.07054934 -0.00020404 0.01341904 0.54509804 0.71372549 0.60000000
v -0.06946004 0.00212978 0.01413565 0.54509804 0.71372549 0.60000000
v -0.06936214 0.00446983 0.01413074 0.54509804 0.71372549 0.60000000
v -0.06505393 0.00914370 0.01427062 0.54509804 0.71372549 0.60000000
v -0.06739162 0.00446983 0.01463384 0.54509804 0.71372549 0.60000000
v 0.01675292 0.00212978 0.01500441 0.54509804 0.71372549 0.60000000
v 0.00973986 0.00446983 0.01483262 0.54509804 0.71372549 0.60000000
v 0.02376599 0.00212978 0.01487925 0.54509804 0.71372549 0.60000000
v 0.02610368 0.00212978 0.01477863 0.54509804 0.71372549 0.60000000
v 0.05058209 0.00212978 0.01249383 0.54509804 0.71372549 0.60000000
v 0.05058209 0.00323905 0.01233676 0.54509804 0.71372549 0.60000000
v 0.05058209 0.00446983 0.01209380 0.54509804 0.71372549 0.60000000
v 0.05058209 -0.00131018 -0.00800068 0.54509804 0.71372549 0.60000000
v 0.02376599 -0.00254097 -0.00926946 0.54509804 0.71372549 0.60000000
v -0.06271624 -0.00169032 -0.00975293 0.54509804 0.71372549 0.60000000
v -0.06715908 -0.00043773 -0.00983637 0.54509804 0.71372549 0.60000000
v -0.06872570 -0.00144417 -0.00974066 0.54509804 0.71372549 0.60000000
v -0.06959468 -0.00011991 -0.00980692 0.54509804 0.71372549 0.60000000
v 0.02142830 -0.00254097 -0.00928664 0.54509804 0.71372549 0.60000000
v -0.07029231 -0.00084280 -0.00965967 0.54509804 0.71372549 0.60000000
v -0.07165087 -0.00488102 -0.00788533 0.54509804 0.71372549 0.60000000
v -0.07226282 -0.00256901 -0.00814547 0.54509804 0.71372549 0.60000000
v -0.07316853 -0.00336357 -0.00728161 0.54509804 0.71372549 0.60000000
v -0.07330316 -0.00180561 -0.00746813 0.54509804 0.71372549 0.60000000
v -0.07358466 -0.00488102 -0.00576741 0.54509804 0.71372549 0.60000000
v -0.07341332 -0.00656361 -0.00533303 0.54509804 0.71372549 0.60000000
v -0.07369482 -0.00729273 -0.00397589 0.54509804 0.71372549 0.60000000
v -0.07346227 -0.00890989 -0.00325928 0.54509804 0.71372549 0.60000000
v -0.07362139 -0.00963590 -0.00150457 0.54509804 0.71372549 0.60000000
v -0.07331539 -0.01084175 -0.00070207 0.54509804 0.71372549 0.60000000
v -0.07340107 -0.01098197 0.00079495 0.54509804 0.71372549 0.60000000
v -0.07254433 -0.01223457 0.00313129 0.54509804 0.71372549 0.60000000
v -0.07240970 -0.01212239 0.00546763 0.54509804 0.71372549 0.60000000
v -0.07299718 -0.00955488 0.00848868 0.54509804 0.71372549 0.60000000
v -0.07105114 -0.01314753 0.00680759 0.54509804 0.71372549 0.60000000
v -0.07198132 -0.01172356 0.00756837 0.54509804 0.71372549 0.60000000
v -0.07135712 -0.01108791 0.00937953 0.54509804 0.71372549 0.60000000
v -0.07176102 -0.00947075 0.01015258 0.54509804 0.71372549 0.60000000
v -0.07110010 -0.00863569 0.01145327 0.54509804 0.71372549 0.60000000
v -0.07136937 -0.00721795 0.01170114 0.54509804 0.71372549 0.60000000
v -0.07012097 -0.00254097 0.01334787 0.54509804 0.71372549 0.60000000
v -0.06937438 -0.00020404 0.01403993 0.54509804 0.71372549 0.60000000
v -0.06739162 0.00212978 0.01460439 0.54509804 0.71372549 0.60000000
v 0.01675292 -0.00020404 0.01504859 0.54509804 0.71372549 0.60000000
v 0.02376599 -0.00020404 0.01490134 0.54509804 0.71372549 0.60000000
v 0.03311674 -0.00020404 0.01427799 0.54509804 0.71372549 0.60000000
v 0.05058209 0.00090211 0.01260181 0.54509804 0.71372549 0.60000000
v 0.05058209 -0.00254097 -0.00800313 0.54509804 0.71372549 0.60000000
v 0.02376599 -0.00488102 -0.00894797 0.54509804 0.71372549 0.60000000
v 0.05058209 -0.00365023 -0.00799577 0.54509804 0.71372549 0.60000000
v 0.05058209 -0.00498073 -0.00788042 0.54509804 0.71372549 0.60000000
v -0.06271624 -0.00286191 -0.00965231 0.54509804 0.71372549 0.60000000
v -0.06505393 -0.00488102 -0.00917375 0.54509804 0.71372549 0.60000000
v -0.06739162 -0.00488102 -0.00894061 0.54509804 0.71372549 0.60000000
v -0.06959468 -0.00235090 -0.00940199 0.54509804 0.71372549 0.60000000
v -0.06271624 -0.00488102 -0.00930382 0.54509804 0.71372549 0.60000000
v -0.06972931 -0.00488102 -0.00859703 0.54509804 0.71372549 0.60000000
v -0.07281359 -0.00488102 -0.00693558 0.54509804 0.71372549 0.60000000
v -0.07118578 -0.00636731 -0.00758102 0.54509804 0.71372549 0.60000000
v -0.07310733 -0.00812156 -0.00481766 0.54509804 0.71372549 0.60000000
v -0.07307061 -0.01046784 -0.00226045 0.54509804 0.71372549 0.60000000
v -0.07200581 -0.01178587 -0.00134751 0.54509804 0.71372549 0.60000000
v -0.07094099 -0.01308833 -0.00043457 0.54509804 0.71372549 0.60000000
v -0.07117354 -0.01323166 0.00079495 0.54509804 0.71372549 0.60000000
v -0.07233626 -0.01215044 0.00079495 0.54509804 0.71372549 0.60000000
v -0.07136937 -0.01335941 0.00313129 0.54509804 0.71372549 0.60000000
v -0.07124697 -0.01327528 0.00546763 0.54509804 0.71372549 0.60000000
v -0.06972931 -0.01357752 0.00546763 0.54509804 0.71372549 0.60000000
v -0.06972931 -0.01322542 0.00702846 0.54509804 0.71372549 0.60000000
v -0.06972931 -0.01260847 0.00819663 0.54509804 0.71372549 0.60000000
v -0.06972931 -0.01144001 0.00979918 0.54509804 0.71372549 0.60000000
v -0.06972931 -0.01024038 0.01096735 0.54509804 0.71372549 0.60000000
v -0.06972931 -0.00907192 0.01172323 0.54509804 0.71372549 0.60000000
v -0.06972931 -0.00721795 0.01248401 0.54509804 0.71372549 0.60000000
v -0.06953349 -0.00468783 0.01318344 0.54509804 0.71372549 0.60000000
v -0.06894600 -0.00254097 0.01380679 0.54509804 0.71372549 0.60000000
v -0.06739162 -0.00020404 0.01438842 0.54509804 0.71372549 0.60000000
v 0.01441523 -0.00254097 0.01487925 0.54509804 0.71372549 0.60000000
v 0.00038910 -0.00020404 0.01494797 0.54509804 0.71372549 0.60000000
v 0.01675292 -0.00254097 0.01488907 0.54509804 0.71372549 0.60000000
v 0.02142830 -0.00254097 0.01484489 0.54509804 0.71372549 0.60000000
v 0.02376599 -0.00254097 0.01480317 0.54509804 0.71372549 0.60000000
v 0.03077905 -0.00254097 0.01432216 0.54509804 0.71372549 0.60000000
v 0.03311674 -0.00254097 0.01412338 0.54509804 0.71372549 0.60000000
v 0.05058209 -0.00020404 0.01263862 0.54509804 0.71372549 0.60000000
v 0.05058209 -0.00673498 -0.00759083 0.54509804 0.71372549 0.60000000
v 0.02376599 -0.00721795 -0.00811111 0.54509804 0.71372549 0.60000000
v -0.06037856 -0.00721795 -0.00864611 0.54509804 0.71372549 0.60000000
v -0.06271624 -0.00721795 -0.00858476 0.54509804 0.71372549 0.60000000
v -0.06505393 -0.00721795 -0.00830253 0.54509804 0.71372549 0.60000000
v -0.06972931 -0.00672252 -0.00777980 0.54509804 0.71372549 0.60000000
v -0.07215267 -0.00724599 -0.00621406 0.54509804 0.71372549 0.60000000
v -0.06972931 -0.00789099 -0.00707301 0.54509804 0.71372549 0.60000000
v -0.07154072 -0.00898779 -0.00553672 0.54509804 0.71372549 0.60000000
v -0.07231178 -0.00972937 -0.00405933 0.54509804 0.71372549 0.60000000
v -0.07151623 -0.01117204 -0.00330100 0.54509804 0.71372549 0.60000000
v -0.06972931 -0.01270195 -0.00191687 0.54509804 0.71372549 0.60000000
v -0.06972931 -0.01320361 -0.00074870 0.54509804 0.71372549 0.60000000
v -0.06972931 -0.01356194 0.00079495 0.54509804 0.71372549 0.60000000
v -0.06972931 -0.01377382 0.00313129 0.54509804 0.71372549 0.60000000
v -0.06739162 -0.01386107 0.00313129 0.54509804 0.71372549 0.60000000
v -0.06739162 -0.01362738 0.00546763 0.54509804 0.71372549 0.60000000
v -0.06739162 -0.01323789 0.00710945 0.54509804 0.71372549 0.60000000
v -0.06739162 -0.01276739 0.00828007 0.54509804 0.71372549 0.60000000
v -0.06739162 -0.01159892 0.01005932 0.54509804 0.71372549 0.60000000
v -0.06739162 -0.01061429 0.01122749 0.54509804 0.71372549 0.60000000
v -0.06739162 -0.00944583 0.01195392 0.54509804 0.71372549 0.60000000
v -0.06739162 -0.00721795 0.01295766 0.54509804 0.71372549 0.60000000
v -0.06861554 -0.00378110 0.01366445 0.54509804 0.71372549 0.60000000
v -0.06739162 -0.00254097 0.01398349 0.54509804 0.71372549 0.60000000
v -0.00896165 -0.00254097 0.01465838 0.54509804 0.71372549 0.60000000
v 0.01207755 -0.00488102 0.01441296 0.54509804 0.71372549 0.60000000
v 0.01441523 -0.00488102 0.01442033 0.54509804 0.71372549 0.60000000
v 0.02142830 -0.00488102 0.01438842 0.54509804 0.71372549 0.60000000
v 0.02376599 -0.00488102 0.01434670 0.54509804 0.71372549 0.60000000
v 0.03077905 -0.00453827 0.01392459 0.54509804 0.71372549 0.60000000
v 0.03311674 -0.00415813 0.01379697 0.54509804 0.71372549 0.60000000
v 0.05058209 -0.00254097 0.01229259 0.54509804 0.71372549 0.60000000
v 0.05058209 -0.00724599 -0.00737978 0.54509804 0.71372549 0.60000000
v 0.02610368 -0.00721795 -0.00804976 0.54509804 0.71372549 0.60000000
v 0.02972648 -0.00840511 -0.00740186 0.54509804 0.71372549 0.60000000
v 0.02610368 -0.00846431 -0.00745095 0.54509804 0.71372549 0.60000000
v 0.02376599 -0.00850171 -0.00748040 0.54509804 0.71372549 0.60000000
v -0.05804087 -0.00914670 -0.00783134 0.54509804 0.71372549 0.60000000
v -0.06037856 -0.00912177 -0.00783379 0.54509804 0.71372549 0.60000000
v -0.06271624 -0.00895663 -0.00776262 0.54509804 0.71372549 0.60000000
v -0.06505393 -0.00863881 -0.00756384 0.54509804 0.71372549 0.60000000
v -0.06972931 -0.00942090 -0.00590239 0.54509804 0.71372549 0.60000000
v -0.06972931 -0.01059248 -0.00490601 0.54509804 0.71372549 0.60000000
v -0.06972931 -0.01153349 -0.00373784 0.54509804 0.71372549 0.60000000
v -0.06739162 -0.01287333 -0.00225554 0.54509804 0.71372549 0.60000000
v -0.06739162 -0.01330955 -0.00108491 0.54509804 0.71372549 0.60000000
v -0.06739162 -0.01371774 0.00079495 0.54509804 0.71372549 0.60000000
v -0.05102780 -0.01355571 0.00079495 0.54509804 0.71372549 0.60000000
v -0.03933936 -0.01334071 0.00079495 0.54509804 0.71372549 0.60000000
v -0.05102780 -0.01355260 0.00313129 0.54509804 0.71372549 0.60000000
v -0.03741780 -0.01311948 0.00452034 0.54509804 0.71372549 0.60000000
v 0.04014205 -0.01104117 0.00560752 0.54509804 0.71372549 0.60000000
v 0.03937098 -0.01078878 0.00673888 0.54509804 0.71372549 0.60000000
v -0.06271624 -0.01155530 0.01014522 0.54509804 0.71372549 0.60000000
v -0.06511513 -0.01144001 0.01036118 0.54509804 0.71372549 0.60000000
v 0.02142830 -0.00964524 0.01014522 0.54509804 0.71372549 0.60000000
v 0.02142830 -0.00872294 0.01174777 0.54509804 0.71372549 0.60000000
v -0.06438078 -0.01076697 0.01135020 0.54509804 0.71372549 0.60000000
v -0.06593516 -0.01069219 0.01128639 0.54509804 0.71372549 0.60000000
v -0.06511513 -0.00976988 0.01186311 0.54509804 0.71372549 0.60000000
v -0.06505393 -0.00721795 0.01298956 0.54509804 0.71372549 0.60000000
v -0.06739162 -0.00520507 0.01348775 0.54509804 0.71372549 0.60000000
v -0.06739162 -0.00403661 0.01370863 0.54509804 0.71372549 0.60000000
v 0.01207755 -0.00641716 0.01387060 0.54509804 0.71372549 0.60000000
v 0.01441523 -0.00642028 0.01387060 0.54509804 0.71372549 0.60000000
v 0.02142830 -0.00632992 0.01382642 0.54509804 0.71372549 0.60000000
v 0.02376599 -0.00628941 0.01380925 0.54509804 0.71372549 0.60000000
v 0.02610368 -0.00617724 0.01373317 0.54509804 0.71372549 0.60000000
v 0.02756014 -0.00609311 0.01367918 0.54509804 0.71372549 0.60000000
v 0.03077905 -0.00570985 0.01351966 0.54509804 0.71372549 0.60000000
v 0.03311674 -0.00532659 0.01339204 0.54509804 0.71372549 0.60000000
v 0.05058209 -0.00453204 0.01163733 0.54509804 0.71372549 0.60000000
v 0.05058209 -0.00776323 -0.00710737 0.54509804 0.71372549 0.60000000
v 0.02029006 -0.01072647 -0.00505080 0.54509804 0.71372549 0.60000000
v 0.05058209 -0.00899714 -0.00597110 0.54509804 0.71372549 0.60000000
v -0.05804087 -0.01031516 -0.00701902 0.54509804 0.71372549 0.60000000
v -0.06037856 -0.01029024 -0.00699448 0.54509804 0.71372549 0.60000000
v -0.06271624 -0.01012509 -0.00684968 0.54509804 0.71372549 0.60000000
v -0.06856659 -0.01072335 -0.00504835 0.54509804 0.71372549 0.60000000
v -0.06505393 -0.01104429 -0.00541647 0.54509804 0.71372549 0.60000000
v -0.06271624 -0.01121878 -0.00568151 0.54509804 0.71372549 0.60000000
v -0.06762416 -0.01158334 -0.00411332 0.54509804 0.71372549 0.60000000
v -0.06505393 -0.01293876 -0.00235125 0.54509804 0.71372549 0.60000000
v -0.06271624 -0.01228130 -0.00388018 0.54509804 0.71372549 0.60000000
v -0.06505393 -0.01330332 -0.00118308 0.54509804 0.71372549 0.60000000
v -0.05336549 -0.01326593 -0.00126652 0.54509804 0.71372549 0.60000000
v -0.05102780 -0.01325658 -0.00120762 0.54509804 0.71372549 0.60000000
v -0.03933936 -0.01317869 -0.00081005 0.54509804 0.71372549 0.60000000
v -0.03700167 -0.01315064 -0.00070943 0.54509804 0.71372549 0.60000000
v -0.00662396 -0.01270507 0.00079495 0.54509804 0.71372549 0.60000000
v 0.04012981 -0.01153972 0.00313129 0.54509804 0.71372549 0.60000000
v 0.04246750 -0.01136523 0.00313129 0.54509804 0.71372549 0.60000000
v 0.04246750 -0.01097574 0.00501853 0.54509804 0.71372549 0.60000000
v 0.04092536 -0.01066415 0.00647874 0.54509804 0.71372549 0.60000000
v 0.05058209 -0.00873851 0.00747266 0.54509804 0.71372549 0.60000000
v 0.05058209 -0.00811845 0.00854267 0.54509804 0.71372549 0.60000000
v 0.04246750 -0.00863881 0.00927155 0.54509804 0.71372549 0.60000000
v 0.03311674 -0.00828359 0.01118086 0.54509804 0.71372549 0.60000000
v 0.03011814 -0.00844562 0.01138701 0.54509804 0.71372549 0.60000000
v 0.02844137 -0.00853598 0.01149009 0.54509804 0.71372549 0.60000000
v 0.02610368 -0.00861699 0.01159807 0.54509804 0.71372549 0.60000000
v 0.02610368 -0.00947387 0.01014522 0.54509804 0.71372549 0.60000000
v 0.02376599 -0.00956735 0.01014522 0.54509804 0.71372549 0.60000000
v -0.06271624 -0.01076697 0.01135020 0.54509804 0.71372549 0.60000000
v 0.02376599 -0.00866996 0.01168151 0.54509804 0.71372549 0.60000000
v 0.02376599 -0.00745788 0.01284968 0.54509804 0.71372549 0.60000000
v 0.02142830 -0.00749838 0.01291839 0.54509804 0.71372549 0.60000000
v 0.01441523 -0.00759186 0.01297975 0.54509804 0.71372549 0.60000000
v 0.02610368 -0.00734882 0.01276624 0.54509804 0.71372549 0.60000000
v 0.02838017 -0.00700918 0.01282514 0.54509804 0.71372549 0.60000000
v 0.03311674 -0.00711512 0.01222387 0.54509804 0.71372549 0.60000000
v 0.05058209 -0.00570362 0.01111951 0.54509804 0.71372549 0.60000000
v 0.05058209 -0.00961409 -0.00489619 0.54509804 0.71372549 0.60000000
v 0.02610368 -0.01061118 -0.00480048 0.54509804 0.71372549 0.60000000
v 0.04012981 -0.01084487 -0.00298687 0.54509804 0.71372549 0.60000000
v 0.02610368 -0.01108791 -0.00363231 0.54509804 0.71372549 0.60000000
v -0.05102780 -0.01297304 -0.00237825 0.54509804 0.71372549 0.60000000
v -0.05336549 -0.01299485 -0.00243714 0.54509804 0.71372549 0.60000000
v -0.05336549 -0.01240594 -0.00388018 0.54509804 0.71372549 0.60000000
v -0.05336549 -0.01130602 -0.00577477 0.54509804 0.71372549 0.60000000
v -0.05570318 -0.01129979 -0.00581895 0.54509804 0.71372549 0.60000000
v -0.05804087 -0.01129044 -0.00585085 0.54509804 0.71372549 0.60000000
v -0.06037856 -0.01127487 -0.00582385 0.54509804 0.71372549 0.60000000
v -0.06037856 -0.01231558 -0.00388018 0.54509804 0.71372549 0.60000000
v -0.03700167 -0.01285463 -0.00187760 0.54509804 0.71372549 0.60000000
v 0.02610368 -0.01166435 -0.00154138 0.54509804 0.71372549 0.60000000
v 0.04012981 -0.01158022 0.00079495 0.54509804 0.71372549 0.60000000
v 0.04246750 -0.01141820 0.00079495 0.54509804 0.71372549 0.60000000
v 0.04394844 -0.01084799 0.00464059 0.54509804 0.71372549 0.60000000
v 0.05058209 -0.01035256 0.00079495 0.54509804 0.71372549 0.60000000
v 0.05058209 -0.01008459 0.00313375 0.54509804 0.71372549 0.60000000
v 0.04246750 -0.01054574 0.00618915 0.54509804 0.71372549 0.60000000
v 0.05058209 -0.00953619 0.00546763 0.54509804 0.71372549 0.60000000
v 0.05058209 -0.00705904 0.00986545 0.54509804 0.71372549 0.60000000
v 0.04427890 -0.00851105 0.00912430 0.54509804 0.71372549 0.60000000
v 0.03545443 -0.00811845 0.01101398 0.54509804 0.71372549 0.60000000
v 0.05058209 -0.00637042 0.01050352 0.54509804 0.71372549 0.60000000
v 0.05058209 -0.01003473 -0.00393662 0.54509804 0.71372549 0.60000000
v 0.04195345 -0.01078878 -0.00286907 0.54509804 0.71372549 0.60000000
v 0.04012981 -0.01123436 -0.00154138 0.54509804 0.71372549 0.60000000
v 0.05058209 -0.01036502 -0.00154138 0.54509804 0.71372549 0.60000000
v 0.04262660 -0.01100690 -0.00174262 0.54509804 0.71372549 0.60000000
f 1 2 3
f 1 3 4
f 1 4 5
f 1 5 2
f 2 6 7
f 2 7 8
f 2 8 3
f 2 5 9
f 2 9 6
f 3 8 10
f 3 10 11
f 3 11 12
f 3 12 13
f 3 13 4
f 4 13 14
f 4 14 15
f 4 15 16
f 4 16 17
f 4 17 5
f 5 17 18
f 5 18 9
f 6 19 7
f 6 9 19
f 7 20 21
f 7 21 8
f 7 19 20
f 8 21 10
f 9 18 22
f 9 22 23
f 9 23 24
f 9 24 25
f 9 25 26
f 9 26 27
f 9 27 19
f 10 21 28
f 10 28 29
f 10 29 30
f 10 30 31
f 10 31 11
f 11 31 12
f 12 32 13
f 12 31 33
f 12 33 32
f 13 32 14
f 14 32 34
f 14 34 35
f 14 35 15
f 15 35 16
f 16 36 57
f 16 57 81
f 16 81 117
f 16 117 156
f 16 156 191
f 16 191 190
f 16 190 189
f 16 189 224
f 16 224 223
f 16 223 222
f 16 222 259
f 16 259 297
f 16 297 330
f 16 330 370
f 16 370 410
f 16 410 435
f 16 435 432
f 16 432 394
f 16 394 393
f 16 393 431
f 16 431 429
f 16 429 428
f 16 428 439
f 16 439 436
f 16 436 411
f 16 411 373
f 16 373 371
f 16 371 331
f 16 331 298
f 16 298 263
f 16 263 262
f 16 262 260
f 16 260 225
f 16 225 192
f 16 192 159
f 16 159 158
f 16 158 122
f 16 122 121
f 16 121 118
f 16 118 83
f 16 83 60
f 16 60 40
f 16 40 39
f 16 39 25
f 16 25 24
f 16 24 23
f 16 23 22
f 16 22 18
f 16 18 17
f 16 35 36
f 19 27 20
f 20 27 37
f 20 37 38
f 20 38 21
f 21 38 28
f 25 39 26
f 26 39 40
f 26 40 41
f 26 41 42
f 26 42 43
f 26 43 27
f 27 43 44
f 27 44 45
f 27 45 37
f 28 38 46
f 28 46 29
f 29 46 47
f 29 47 30
f 30 48 49
f 30 49 50
f 30 50 31
f 30 47 48
f 31 50 51
f 31 51 33
f 32 33 52
f 32 52 53
f 32 53 54
f 32 54 34
f 33 51 52
f 34 54 55
f 34 55 56
f 34 56 35
f 35 56 57
f 35 57 36
f 37 45 58
f 37 58 38
f 38 59 46
f 38 58 59
f 40 60 41
f 41 60 42
f 42 60 61
f 42 61 62
f 42 62 43
f 43 63 44
f 43 62 64
f 43 64 63
f 44 65 66
f 44 66 45
f 44 63 65
f 45 67 58
f 45 66 67
f 46 68 69
f 46 69 48
f 46 48 47
f 46 59 68
f 48 69 70
f 48 70 49
f 49 70 71
f 49 71 72
f 49 72 50
f 50 72 51
f 51 72 73
f 51 73 52
f 52 74 54
f 52 54 53
f 52 73 75
f 52 75 74
f 54 74 76
f 54 76 77
f 54 77 55
f 55 77 78
f 55 78 56
f 56 78 79
f 56 79 80
f 56 80 81
f 56 81 57
f 58 67 82
f 58 82 59
f 59 82 68
f 60 83 84
f 60 84 61
f 61 84 64
f 61 64 62
f 63 85 65
f 63 64 85
f 64 84 86
f 64 86 87
f 64 87 88
f 64 88 89
f 64 89 85
f 65 85 89
f 65 89 90
f 65 90 91
f 65 91 92
f 65 92 66
f 66 92 93
f 66 93 67
f 67 93 82
f 68 94 95
f 68 95 96
f 68 96 97
f 68 97 98
f 68 98 69
f 68 82 99
f 68 99 94
f 69 98 70
f 70 100 101
f 70 101 71
f 70 98 102
f 70 102 100
f 71 103 72
f 71 101 104
f 71 104 103
f 72 103 105
f 72 105 73
f 73 105 106
f 73 106 75
f 74 75 107
f 74 107 108
f 74 108 76
f 75 106 107
f 76 108 109
f 76 109 77
f 77 109 110
f 77 110 78
f 78 110 111
f 78 111 79
f 79 111 112
f 79 112 113
f 79 113 114
f 79 114 115
f 79 115 116
f 79 116 80
f 80 116 115
f 80 115 117
f 80 117 81
f 82 93 99
f 83 118 84
f 84 118 86
f 86 119 120
f 86 120 87
f 86 118 121
f 86 121 122
f 86 122 119
f 87 120 88
f 88 123 124
f 88 124 125
f 88 125 89
f 88 120 126
f 88 126 123
f 89 125 90
f 90 125 99
f 90 99 91
f 91 99 93
f 91 93 92
f 94 127 95
f 94 99 128
f 94 128 127
f 95 127 96
f 96 127 128
f 96 128 129
f 96 129 130
f 96 130 102
f 96 102 131
f 96 131 97
f 97 131 132
f 97 132 98
f 98 132 131
f 98 131 102
f 99 125 128
f 100 102 101
f 101 133 104
f 101 102 134
f 101 134 133
f 102 130 134
f 103 104 135
f 103 135 136
f 103 136 137
f 103 137 138
f 103 138 105
f 104 133 135
f 105 138 139
f 105 139 106
f 106 139 140
f 106 140 107
f 107 140 141
f 107 141 108
f 108 142 143
f 108 143 144
f 108 144 109
f 108 141 142
f 109 145 146
f 109 146 147
f 109 147 110
f 109 144 145
f 110 147 148
f 110 148 149
f 110 149 111
f 111 149 150
f 111 150 112
f 112 150 151
f 112 151 113
f 113 151 152
f 113 152 153
f 113 153 114
f 114 153 154
f 114 154 155
f 114 155 115
f 115 155 156
f 115 156 117
f 119 157 120
f 119 122 158
f 119 158 159
f 119 159 157
f 120 157 126
f 123 160 124
f 123 126 157
f 123 157 160
f 124 161 128
f 124 128 125
f 124 160 161
f 128 162 129
f 128 161 162
f 129 163 164
f 129 164 130
f 129 162 163
f 130 164 134
f 133 165 135
f 133 134 166
f 133 166 167
f 133 167 165
f 134 164 166
f 135 165 136
f 136 165 168
f 136 168 137
f 137 168 169
f 137 169 170
f 137 170 138
f 138 170 171
f 138 171 172
f 138 172 139
f 139 172 173
f 139 173 140
f 140 173 174
f 140 174 141
f 141 174 175
f 141 175 142
f 142 175 176
f 142 176 143
f 143 176 177
f 143 177 144
f 144 177 178
f 144 178 179
f 144 179 145
f 145 179 146
f 146 148 147
f 146 179 180
f 146 180 181
f 146 181 148
f 148 181 182
f 148 182 149
f 149 182 150
f 150 182 183
f 150 183 184
f 150 184 185
f 150 185 186
f 150 186 152
f 150 152 151
f 152 186 185
f 152 185 187
f 152 187 153
f 153 187 154
f 154 187 188
f 154 188 189
f 154 189 190
f 154 190 155
f 155 190 191
f 155 191 156
f 157 159 192
f 157 192 193
f 157 193 194
f 157 194 195
f 157 195 160
f 160 196 161
f 160 195 196
f 161 197 162
f 161 196 197
f 162 197 198
f 162 198 163
f 163 198 199
f 163 199 200
f 163 200 201
f 163 201 164
f 164 201 166
f 165 167 202
f 165 202 203
f 165 203 168
f 166 202 167
f 166 201 204
f 166 204 202
f 168 203 205
f 168 205 169
f 169 206 207
f 169 207 170
f 169 205 206
f 170 207 208
f 170 208 171
f 171 208 209
f 171 209 172
f 172 209 173
f 173 209 174
f 174 209 210
f 174 210 211
f 174 211 212
f 174 212 175
f 175 212 176
f 176 213 214
f 176 214 215
f 176 215 177
f 176 212 213
f 177 215 179
f 177 179 178
f 179 215 180
f 180 216 181
f 180 215 217
f 180 217 218
f 180 218 219
f 180 219 216
f 181 216 183
f 181 183 182
f 183 216 219
f 183 219 184
f 184 219 218
f 184 218 185
f 185 220 187
f 185 218 220
f 187 220 188
f 188 220 221
f 188 221 222
f 188 222 223
f 188 223 224
f 188 224 189
f 192 225 226
f 192 226 193
f 193 226 194
f 194 226 195
f 195 226 196
f 196 227 228
f 196 228 229
f 196 229 230
f 196 230 197
f 196 226 231
f 196 231 227
f 197 230 199
f 197 199 198
f 199 230 232
f 199 232 233
f 199 233 234
f 199 234 200
f 200 234 235
f 200 235 236
f 200 236 201
f 201 236 204
f 202 204 237
f 202 237 238
f 202 238 239
f 202 239 203
f 203 239 240
f 203 240 241
f 203 241 205
f 204 236 235
f 204 235 237
f 205 241 242
f 205 242 243
f 205 243 206
f 206 244 207
f 206 243 244
f 207 244 245
f 207 245 208
f 208 246 209
f 208 245 247
f 208 247 248
f 208 248 249
f 208 249 246
f 209 246 250
f 209 250 251
f 209 251 252
f 209 252 210
f 210 252 211
f 211 252 253
f 211 253 213
f 211 213 212
f 213 253 254
f 213 254 214
f 214 254 255
f 214 255 217
f 214 217 215
f 217 255 256
f 217 256 218
f 218 256 220
f 220 257 221
f 220 256 257
f 221 257 258
f 221 258 259
f 221 259 222
f 225 260 226
f 226 261 231
f 226 260 262
f 226 262 263
f 226 263 261
f 227 264 228
f 227 231 264
f 228 264 229
f 229 265 266
f 229 266 267
f 229 267 232
f 229 232 230
f 229 264 268
f 229 268 265
f 231 261 264
f 232 267 269
f 232 269 233
f 233 270 235
f 233 235 234
f 233 269 271
f 233 271 270
f 235 270 238
f 235 238 237
f 238 240 239
f 238 270 272
f 238 272 240
f 240 272 273
f 240 273 241
f 241 273 242
f 242 273 274
f 242 274 275
f 242 275 276
f 242 276 277
f 242 277 243
f 243 277 244
f 244 277 278
f 244 278 279
f 244 279 245
f 245 279 247
f 246 249 250
f 247 279 280
f 247 280 281
f 247 281 282
f 247 282 283
f 247 283 249
f 247 249 248
f 249 283 284
f 249 284 251
f 249 251 250
f 251 284 285
f 251 285 286
f 251 286 252
f 252 286 287
f 252 287 253
f 253 287 288
f 253 288 254
f 254 288 289
f 254 289 255
f 255 289 290
f 255 290 291
f 255 291 256
f 256 291 290
f 256 290 292
f 256 292 293
f 256 293 294
f 256 294 257
f 257 294 258
f 258 294 295
f 258 295 296
f 258 296 297
f 258 297 259
f 261 263 298
f 261 298 299
f 261 299 300
f 261 300 268
f 261 268 264
f 265 268 301
f 265 301 266
f 266 301 302
f 266 302 269
f 266 269 267
f 268 300 301
f 269 303 271
f 269 302 303
f 270 271 304
f 270 304 272
f 271 303 305
f 271 305 306
f 271 306 304
f 272 304 306
f 272 306 307
f 272 307 273
f 273 307 308
f 273 308 274
f 274 308 275
f 275 309 310
f 275 310 311
f 275 311 276
f 275 308 309
f 276 311 312
f 276 312 278
f 276 278 277
f 278 312 279
f 279 312 280
f 280 312 313
f 280 313 314
f 280 314 281
f 281 314 315
f 281 315 316
f 281 316 282
f 282 316 317
f 282 317 283
f 283 317 318
f 283 318 284
f 284 318 285
f 285 318 319
f 285 319 320
f 285 320 286
f 286 320 321
f 286 321 287
f 287 321 288
f 288 321 289
f 289 321 322
f 289 322 323
f 289 323 290
f 290 324 292
f 290 323 324
f 292 324 325
f 292 325 326
f 292 326 293
f 293 326 327
f 293 327 294
f 294 327 295
f 295 328 296
f 295 327 328
f 296 328 329
f 296 329 330
f 296 330 297
f 298 331 332
f 298 332 299
f 299 332 333
f 299 333 334
f 299 334 335
f 299 335 336
f 299 336 300
f 300 336 337
f 300 337 301
f 301 337 338
f 301 338 302
f 302 339 303
f 302 338 339
f 303 339 305
f 305 340 306
f 305 339 340
f 306 308 307
f 306 340 341
f 306 341 308
f 308 341 342
f 308 342 309
f 309 342 343
f 309 343 310
f 310 343 344
f 310 344 311
f 311 344 345
f 311 345 312
f 312 345 313
f 313 346 347
f 313 347 348
f 313 348 314
f 313 345 346
f 314 348 349
f 314 349 350
f 314 350 315
f 315 350 351
f 315 351 316
f 316 352 353
f 316 353 317
f 316 351 354
f 316 354 355
f 316 355 352
f 317 353 356
f 317 356 357
f 317 357 318
f 318 357 319
f 319 357 356
f 319 356 358
f 319 358 320
f 320 358 359
f 320 359 360
f 320 360 321
f 321 360 361
f 321 361 322
f 322 361 323
f 323 361 360
f 323 360 324
f 324 362 325
f 324 360 359
f 324 359 362
f 325 362 363
f 325 363 326
f 326 364 365
f 326 365 327
f 326 363 364
f 327 365 366
f 327 366 367
f 327 367 328
f 328 368 329
f 328 367 368
f 329 368 369
f 329 369 370
f 329 370 330
f 331 371 333
f 331 333 332
f 333 372 334
f 333 371 373
f 333 373 372
f 334 372 335
f 335 372 374
f 335 374 336
f 336 374 337
f 337 374 375
f 337 375 338
f 338 375 376
f 338 376 339
f 339 376 340
f 340 376 341
f 341 376 377
f 341 377 342
f 342 377 378
f 342 378 379
f 342 379 380
f 342 380 343
f 343 381 344
f 343 380 379
f 343 379 382
f 343 382 381
f 344 381 383
f 344 383 345
f 345 383 384
f 345 384 385
f 345 385 346
f 346 385 386
f 346 386 387
f 346 387 347
f 347 388 348
f 347 387 388
f 348 388 389
f 348 389 349
f 349 389 350
f 350 389 390
f 350 390 391
f 350 391 351
f 351 391 392
f 351 392 393
f 351 393 394
f 351 394 395
f 351 395 396
f 351 396 397
f 351 397 398
f 351 398 399
f 351 399 400
f 351 400 401
f 351 401 354
f 352 402 353
f 352 355 402
f 353 402 356
f 354 401 355
f 355 401 403
f 355 403 404
f 355 404 405
f 355 405 406
f 355 406 402
f 356 402 363
f 356 363 362
f 356 362 358
f 358 362 359
f 363 402 406
f 363 406 364
f 364 405 365
f 364 406 405
f 365 405 404
f 365 404 366
f 366 407 367
f 366 404 407
f 367 407 408
f 367 408 409
f 367 409 410
f 367 410 368
f 368 410 370
f 368 370 369
f 372 373 411
f 372 411 412
f 372 412 413
f 372 413 414
f 372 414 415
f 372 415 416
f 372 416 417
f 372 417 418
f 372 418 374
f 374 418 419
f 374 419 420
f 374 420 421
f 374 421 375
f 375 421 379
f 375 379 376
f 376 379 378
f 376 378 377
f 379 421 382
f 381 382 422
f 381 422 417
f 381 417 416
f 381 416 383
f 382 421 422
f 383 416 384
f 384 416 385
f 385 416 386
f 386 423 424
f 386 424 387
f 386 416 415
f 386 415 423
f 387 424 388
f 388 424 425
f 388 425 389
f 389 425 426
f 389 426 390
f 390 427 391
f 390 426 428
f 390 428 429
f 390 429 427
f 391 430 392
f 391 427 431
f 391 431 430
f 392 430 393
f 393 430 431
f 394 432 433
f 394 433 395
f 395 433 432
f 395 432 434
f 395 434 396
f 396 434 409
f 396 409 397
f 397 409 398
f 398 409 408
f 398 408 407
f 398 407 404
f 398 404 399
f 399 404 403
f 399 403 400
f 400 403 401
f 409 434 410
f 410 434 435
f 411 436 412
f 412 436 413
f 413 436 437
f 413 437 438
f 413 438 424
f 413 424 414
f 414 424 423
f 414 423 415
f 417 422 421
f 417 421 420
f 417 420 419
f 417 419 418
f 424 438 425
f 425 438 426
f 426 439 428
f 426 438 440
f 426 440 436
f 426 436 439
f 427 429 431
f 432 435 434
f 436 440 438
f 436 438 437

