# https://github.com/mikedh/trimesh
v 0.08454648 0.02721972 0.01949756 0.43529412 0.89019608 0.96078431
v 0.08454648 0.02707037 0.01716092 0.43529412 0.89019608 0.96078431
v 0.08454648 0.02689528 0.02174366 0.43529412 0.89019608 0.96078431
v 0.09157053 0.02714762 0.01949756 0.43529412 0.89019608 0.96078431
v 0.09390685 0.02708582 0.01716092 0.43529412 0.89019608 0.96078431
v 0.09157053 0.02710127 0.01716092 0.43529412 0.89019608 0.96078431
v 0.08454648 0.02677168 0.01580075 0.43529412 0.89019608 0.96078431
v 0.09157053 0.02680773 0.01571237 0.43529412 0.89019608 0.96078431
v 0.08454648 0.02686953 0.02190964 0.43529412 0.89019608 0.96078431
v 0.09157053 0.02685923 0.02129530 0.43529412 0.89019608 0.96078431
v 0.09390685 0.02708582 0.01949756 0.43529412 0.89019608 0.96078431
v 0.09390685 0.02681288 0.01570591 0.43529412 0.89019608 0.96078431
v 0.09624317 0.02702403 0.01716092 0.43529412 0.89019608 0.96078431
v 0.09624317 0.02678713 0.01576195 0.43529412 0.89019608 0.96078431
v 0.08454648 0.02604040 0.01463243 0.43529412 0.89019608 0.96078431
v 0.09157053 0.02614340 0.01454405 0.43529412 0.89019608 0.96078431
v 0.08454648 0.02638544 0.02395959 0.43529412 0.89019608 0.96078431
v 0.09624317 0.02566446 0.02650963 0.43529412 0.89019608 0.96078431
v 0.09858703 0.02560781 0.02650963 0.43529412 0.89019608 0.96078431
v 0.09390685 0.02681288 0.02116813 0.43529412 0.89019608 0.96078431
v 0.09578345 0.02675108 0.02095688 0.43529412 0.89019608 0.96078431
v 0.11261252 0.02605070 0.01949756 0.43529412 0.89019608 0.96078431
v 0.11261252 0.02626700 0.01716092 0.43529412 0.89019608 0.96078431
v 0.09390685 0.02614340 0.01453759 0.43529412 0.89019608 0.96078431
v 0.09858703 0.02612795 0.01471003 0.43529412 0.89019608 0.96078431
v 0.09983056 0.02668414 0.01596889 0.43529412 0.89019608 0.96078431
v 0.09858703 0.02672533 0.01587835 0.43529412 0.89019608 0.96078431
v 0.11494884 0.02550482 0.01482212 0.43529412 0.89019608 0.96078431
v 0.11261252 0.02561296 0.01482212 0.43529412 0.89019608 0.96078431
v 0.11494884 0.02467569 0.01322700 0.43529412 0.89019608 0.96078431
v 0.08454648 0.02487138 0.01302869 0.43529412 0.89019608 0.96078431
v 0.09858703 0.02495893 0.01293600 0.43529412 0.89019608 0.96078431
v 0.09157053 0.02497438 0.01300282 0.43529412 0.89019608 0.96078431
v 0.08454648 0.02477353 0.01289935 0.43529412 0.89019608 0.96078431
v 0.08454648 0.02572626 0.02650963 0.43529412 0.89019608 0.96078431
v 0.08455402 0.02572626 0.02650963 0.43529412 0.89019608 0.96078431
v 0.08689788 0.02572111 0.02650963 0.43529412 0.89019608 0.96078431
v 0.09157053 0.02490743 0.02867598 0.43529412 0.89019608 0.96078431
v 0.09858703 0.02488683 0.02851000 0.43529412 0.89019608 0.96078431
v 0.10092336 0.02477869 0.02840654 0.43529412 0.89019608 0.96078431
v 0.10325968 0.02464994 0.02822978 0.43529412 0.89019608 0.96078431
v 0.10092336 0.02540182 0.02650963 0.43529412 0.89019608 0.96078431
v 0.11494884 0.02582411 0.01949756 0.43529412 0.89019608 0.96078431
v 0.13035350 0.02436155 0.01848659 0.43529412 0.89019608 0.96078431
v 0.11494884 0.02603010 0.01716092 0.43529412 0.89019608 0.96078431
v 0.13002190 0.02433065 0.01621893 0.43529412 0.89019608 0.96078431
v 0.11962149 0.02505163 0.01482212 0.43529412 0.89019608 0.96078431
v 0.12117401 0.02438729 0.01358267 0.43529412 0.89019608 0.96078431
v 0.11962149 0.02446969 0.01346627 0.43529412 0.89019608 0.96078431
v 0.11728516 0.02458299 0.01331322 0.43529412 0.89019608 0.96078431
v 0.11565727 0.02435640 0.01289935 0.43529412 0.89019608 0.96078431
v 0.11494884 0.02440274 0.01289935 0.43529412 0.89019608 0.96078431
v 0.09866240 0.02492803 0.01289935 0.43529412 0.89019608 0.96078431
v 0.09858703 0.02492803 0.01289935 0.43529412 0.89019608 0.96078431
v 0.09157053 0.02487653 0.01289935 0.43529412 0.89019608 0.96078431
v 0.08454648 -0.02270825 0.01289935 0.43529412 0.89019608 0.96078431
v 0.08454648 0.02486623 0.02843456 0.43529412 0.89019608 0.96078431
v 0.08455402 0.02486623 0.02843671 0.43529412 0.89019608 0.96078431
v 0.08689788 0.02490228 0.02856389 0.43529412 0.89019608 0.96078431
v 0.08923420 0.02489198 0.02866520 0.43529412 0.89019608 0.96078431
v 0.09157053 0.02413495 0.02984430 0.43529412 0.89019608 0.96078431
v 0.08923420 0.02415555 0.02983352 0.43529412 0.89019608 0.96078431
v 0.09858703 0.02383626 0.02967832 0.43529412 0.89019608 0.96078431
v 0.10092336 0.02375901 0.02957701 0.43529412 0.89019608 0.96078431
v 0.10325968 0.02369721 0.02940025 0.43529412 0.89019608 0.96078431
v 0.10559601 0.02369721 0.02915021 0.43529412 0.89019608 0.96078431
v 0.11425548 0.02208015 0.03007279 0.43529412 0.89019608 0.96078431
v 0.12196535 0.02242004 0.02848413 0.43529412 0.89019608 0.96078431
v 0.10559601 0.02449029 0.02798189 0.43529412 0.89019608 0.96078431
v 0.13000682 0.02199261 0.02758311 0.43529412 0.89019608 0.96078431
v 0.10717114 0.02438729 0.02778789 0.43529412 0.89019608 0.96078431
v 0.12736150 0.02429460 0.02045679 0.43529412 0.89019608 0.96078431
v 0.12429414 0.02446454 0.02100430 0.43529412 0.89019608 0.96078431
v 0.12896678 0.02423280 0.02004292 0.43529412 0.89019608 0.96078431
v 0.12196535 0.02507738 0.01949756 0.43529412 0.89019608 0.96078431
v 0.13120514 0.02410920 0.01935745 0.43529412 0.89019608 0.96078431
v 0.13364697 0.02373326 0.01949756 0.43529412 0.89019608 0.96078431
v 0.13598329 0.02335732 0.01949756 0.43529412 0.89019608 0.96078431
v 0.13364697 0.02391351 0.01716092 0.43529412 0.89019608 0.96078431
v 0.13035350 0.02436155 0.01777741 0.43529412 0.89019608 0.96078431
v 0.11962149 0.02553571 0.01716092 0.43529412 0.89019608 0.96078431
v 0.13120514 0.02422765 0.01706392 0.43529412 0.89019608 0.96078431
v 0.13598329 0.02302773 0.01482212 0.43529412 0.89019608 0.96078431
v 0.13364697 0.02337277 0.01482212 0.43529412 0.89019608 0.96078431
v 0.13130311 0.02371266 0.01482212 0.43529412 0.89019608 0.96078431
v 0.12846184 0.02439759 0.01583955 0.43529412 0.89019608 0.96078431
v 0.12195781 0.02472204 0.01465830 0.43529412 0.89019608 0.96078431
v 0.12273407 0.02428430 0.01377020 0.43529412 0.89019608 0.96078431
v 0.12176187 0.02376931 0.01289935 0.43529412 0.89019608 0.96078431
v 0.13773930 0.02217285 0.01338005 0.43529412 0.89019608 0.96078431
v 0.13598329 0.02230160 0.01319682 0.43529412 0.89019608 0.96078431
v 0.13130311 0.02266724 0.01289935 0.43529412 0.89019608 0.96078431
v 0.12130213 0.02382081 0.01289935 0.43529412 0.89019608 0.96078431
v 0.11962149 0.02400105 0.01289935 0.43529412 0.89019608 0.96078431
v 0.11728516 0.02423795 0.01289935 0.43529412 0.89019608 0.96078431
v 0.08454648 -0.02275460 0.01298126 0.43529412 0.89019608 0.96078431
v 0.08455402 -0.02271340 0.01289935 0.43529412 0.89019608 0.96078431
v 0.08454648 0.02380536 0.02960719 0.43529412 0.89019608 0.96078431
v 0.08455402 0.02381051 0.02960503 0.43529412 0.89019608 0.96078431
v 0.08689788 0.02397531 0.02973437 0.43529412 0.89019608 0.96078431
v 0.09157053 0.02296593 0.03051899 0.43529412 0.89019608 0.96078431
v 0.10559601 0.02252819 0.03037888 0.43529412 0.89019608 0.96078431
v 0.08923420 0.02298653 0.03056642 0.43529412 0.89019608 0.96078431
v 0.12856735 0.01986571 0.03012453 0.43529412 0.89019608 0.96078431
v 0.12196535 0.02152912 0.02965245 0.43529412 0.89019608 0.96078431
v 0.14299227 0.01997386 0.02819529 0.43529412 0.89019608 0.96078431
v 0.14476335 0.01981936 0.02793231 0.43529412 0.89019608 0.96078431
v 0.14299227 0.02047855 0.02650963 0.43529412 0.89019608 0.96078431
v 0.13598329 0.02275994 0.02183635 0.43529412 0.89019608 0.96078431
v 0.14511003 0.02177116 0.01928200 0.43529412 0.89019608 0.96078431
v 0.14418303 0.02200291 0.01835942 0.43529412 0.89019608 0.96078431
v 0.14533612 0.02124588 0.02183635 0.43529412 0.89019608 0.96078431
v 0.15243553 0.01999446 0.02197431 0.43529412 0.89019608 0.96078431
v 0.15408603 0.01983996 0.02128668 0.43529412 0.89019608 0.96078431
v 0.15234510 0.02045280 0.01949756 0.43529412 0.89019608 0.96078431
v 0.13598329 0.02350152 0.01716092 0.43529412 0.89019608 0.96078431
v 0.15401067 0.01982966 0.01551622 0.43529412 0.89019608 0.96078431
v 0.15232248 0.01998931 0.01477039 0.43529412 0.89019608 0.96078431
v 0.15152362 0.01974726 0.01344471 0.43529412 0.89019608 0.96078431
v 0.13814628 0.02173511 0.01289935 0.43529412 0.89019608 0.96078431
v 0.13598329 0.02208530 0.01289935 0.43529412 0.89019608 0.96078431
v 0.15000878 0.01988631 0.01313862 0.43529412 0.89019608 0.96078431
v 0.15000878 0.01978331 0.01289935 0.43529412 0.89019608 0.96078431
v 0.08454648 -0.02365582 0.01481781 0.43529412 0.89019608 0.96078431
v 0.08689788 -0.02299664 0.01289935 0.43529412 0.89019608 0.96078431
v 0.08689788 -0.02395451 0.01482212 0.43529412 0.89019608 0.96078431
v 0.08455402 -0.02366097 0.01482212 0.43529412 0.89019608 0.96078431
v 0.08454648 0.02264149 0.03033577 0.43529412 0.89019608 0.96078431
v 0.10559601 0.02083389 0.03081862 0.43529412 0.89019608 0.96078431
v 0.12196535 0.02036010 0.03028404 0.43529412 0.89019608 0.96078431
v 0.08455402 0.02083389 0.03082077 0.43529412 0.89019608 0.96078431
v 0.08454648 0.02082359 0.03082293 0.43529412 0.89019608 0.96078431
v 0.09236186 0.00572417 0.03476547 0.43529412 0.89019608 0.96078431
v 0.09304015 0.00572417 0.03476547 0.43529412 0.89019608 0.96078431
v 0.13598329 0.01849585 0.02975161 0.43529412 0.89019608 0.96078431
v 0.14299227 0.01849585 0.02916530 0.43529412 0.89019608 0.96078431
v 0.09385409 0.00450365 0.03491636 0.43529412 0.89019608 0.96078431
v 0.15234510 0.01780576 0.02808104 0.43529412 0.89019608 0.96078431
v 0.15701774 0.01715173 0.02754862 0.43529412 0.89019608 0.96078431
v 0.15701774 0.01781091 0.02638030 0.43529412 0.89019608 0.96078431
v 0.15884159 0.01760492 0.02595134 0.43529412 0.89019608 0.96078431
v 0.15234510 0.01875849 0.02650963 0.43529412 0.89019608 0.96078431
v 0.15243553 0.01946402 0.02425275 0.43529412 0.89019608 0.96078431
v 0.15234510 0.02045795 0.01716092 0.43529412 0.89019608 0.96078431
v 0.14418303 0.02200291 0.01828828 0.43529412 0.89019608 0.96078431
v 0.15171203 0.01976271 0.02352848 0.43529412 0.89019608 0.96078431
v 0.15701774 0.01855764 0.02417084 0.43529412 0.89019608 0.96078431
v 0.15936161 0.01854220 0.02183635 0.43529412 0.89019608 0.96078431
v 0.15449301 0.01997901 0.01949756 0.43529412 0.89019608 0.96078431
v 0.15444025 0.01996871 0.01716092 0.43529412 0.89019608 0.96078431
v 0.15701774 0.01920653 0.01716092 0.43529412 0.89019608 0.96078431
v 0.15701774 0.01864519 0.01482212 0.43529412 0.89019608 0.96078431
v 0.15423676 0.01884604 0.01289935 0.43529412 0.89019608 0.96078431
v 0.15308368 0.01955672 0.01395774 0.43529412 0.89019608 0.96078431
v 0.15203610 0.01941767 0.01289935 0.43529412 0.89019608 0.96078431
v 0.08454648 -0.02447980 0.01720403 0.43529412 0.89019608 0.96078431
v 0.09154792 -0.02355282 0.01289935 0.43529412 0.89019608 0.96078431
v 0.08689788 -0.02463945 0.01658322 0.43529412 0.89019608 0.96078431
v 0.09205287 -0.02360947 0.01289935 0.43529412 0.89019608 0.96078431
v 0.09624317 -0.02457765 0.01416683 0.43529412 0.89019608 0.96078431
v 0.08454648 0.01848555 0.03117213 0.43529412 0.89019608 0.96078431
v 0.08797560 0.00102749 0.03473745 0.43529412 0.89019608 0.96078431
v 0.09219606 0.00446761 0.03486247 0.43529412 0.89019608 0.96078431
v 0.09566286 0.00374662 0.03483876 0.43529412 0.89019608 0.96078431
v 0.15701774 0.00446761 0.02932696 0.43529412 0.89019608 0.96078431
v 0.15866824 0.01555012 0.02786980 0.43529412 0.89019608 0.96078431
v 0.09390685 0.00289690 0.03491852 0.43529412 0.89019608 0.96078431
v 0.15953495 0.01633805 0.02663897 0.43529412 0.89019608 0.96078431
v 0.16040165 0.01712598 0.02512575 0.43529412 0.89019608 0.96078431
v 0.15951988 0.01785726 0.02427646 0.43529412 0.89019608 0.96078431
v 0.16069557 0.01750192 0.02356943 0.43529412 0.89019608 0.96078431
v 0.16096688 0.01780061 0.02183635 0.43529412 0.89019608 0.96078431
v 0.15936161 0.01871729 0.01949756 0.43529412 0.89019608 0.96078431
v 0.15936161 0.01836710 0.01716092 0.43529412 0.89019608 0.96078431
v 0.15932392 0.01775942 0.01495577 0.43529412 0.89019608 0.96078431
v 0.15851752 0.01750707 0.01330029 0.43529412 0.89019608 0.96078431
v 0.15699514 0.01792421 0.01289935 0.43529412 0.89019608 0.96078431
v 0.15469649 0.01870184 0.01289935 0.43529412 0.89019608 0.96078431
v 0.15249583 0.01930438 0.01289935 0.43529412 0.89019608 0.96078431
v 0.08454648 -0.02449525 0.01725361 0.43529412 0.89019608 0.96078431
v 0.08459924 -0.02450555 0.01725576 0.43529412 0.89019608 0.96078431
v 0.08923420 -0.02470640 0.01621247 0.43529412 0.89019608 0.96078431
v 0.08689788 -0.02485059 0.01775154 0.43529412 0.89019608 0.96078431
v 0.08541318 -0.02478879 0.01810075 0.43529412 0.89019608 0.96078431
v 0.09448716 -0.02384122 0.01289935 0.43529412 0.89019608 0.96078431
v 0.09624317 -0.02399571 0.01289935 0.43529412 0.89019608 0.96078431
v 0.09858703 -0.02417081 0.01289935 0.43529412 0.89019608 0.96078431
v 0.09858703 -0.02466005 0.01399438 0.43529412 0.89019608 0.96078431
v 0.09624317 -0.02494844 0.01533730 0.43529412 0.89019608 0.96078431
v 0.08454648 0.00904584 0.03211412 0.43529412 0.89019608 0.96078431
v 0.08454648 0.00049191 0.03229734 0.43529412 0.89019608 0.96078431
v 0.08797560 0.00085755 0.03473745 0.43529412 0.89019608 0.96078431
v 0.09566286 0.00297929 0.03483876 0.43529412 0.89019608 0.96078431
v 0.15701774 -0.00254136 0.02954252 0.43529412 0.89019608 0.96078431
v 0.15701774 -0.00020332 0.02954037 0.43529412 0.89019608 0.96078431
v 0.15701774 0.00212957 0.02949941 0.43529412 0.89019608 0.96078431
v 0.15886419 0.01381977 0.02796464 0.43529412 0.89019608 0.96078431
v 0.16003236 0.01381977 0.02696446 0.43529412 0.89019608 0.96078431
v 0.16068050 0.01556557 0.02576811 0.43529412 0.89019608 0.96078431
v 0.08813387 0.00085755 0.03473745 0.43529412 0.89019608 0.96078431
v 0.15468142 -0.01890765 0.02821684 0.43529412 0.89019608 0.96078431
v 0.16087645 0.01627110 0.02427646 0.43529412 0.89019608 0.96078431
v 0.16143415 0.01615781 0.02183635 0.43529412 0.89019608 0.96078431
v 0.16153966 0.01615781 0.01949756 0.43529412 0.89019608 0.96078431
v 0.16101211 0.01786241 0.01949756 0.43529412 0.89019608 0.96078431
v 0.16074834 0.01757402 0.01716092 0.43529412 0.89019608 0.96078431
v 0.16059760 0.01740407 0.01582446 0.43529412 0.89019608 0.96078431
v 0.15904507 0.01663159 0.01289935 0.43529412 0.89019608 0.96078431
v 0.15774879 0.01764097 0.01289935 0.43529412 0.89019608 0.96078431
v 0.08454648 -0.02473729 0.01854695 0.43529412 0.89019608 0.96078431
v 0.08923420 -0.02491754 0.01738079 0.43529412 0.89019608 0.96078431
v 0.08689788 -0.02497419 0.01949756 0.43529412 0.89019608 0.96078431
v 0.09624317 -0.02523168 0.01716092 0.43529412 0.89019608 0.96078431
v 0.08923420 -0.02510809 0.01949756 0.43529412 0.89019608 0.96078431
v 0.08454648 -0.02481969 0.01964414 0.43529412 0.89019608 0.96078431
v 0.08454648 -0.02481454 0.01956438 0.43529412 0.89019608 0.96078431
v 0.09928040 -0.02419656 0.01289935 0.43529412 0.89019608 0.96078431
v 0.10604820 -0.02479394 0.01355680 0.43529412 0.89019608 0.96078431
v 0.10325968 -0.02501539 0.01490188 0.43529412 0.89019608 0.96078431
v 0.08454648 -0.00020332 0.03224130 0.43529412 0.89019608 0.96078431
v 0.08454648 -0.02111694 0.02984430 0.43529412 0.89019608 0.96078431
v 0.09390685 -0.02032901 0.03006201 0.43529412 0.89019608 0.96078431
v 0.12129460 -0.00175858 0.03253876 0.43529412 0.89019608 0.96078431
v 0.15701774 -0.00487940 0.02934205 0.43529412 0.89019608 0.96078431
v 0.15821605 -0.01562203 0.02770382 0.43529412 0.89019608 0.96078431
v 0.15869839 -0.00254136 0.02850569 0.43529412 0.89019608 0.96078431
v 0.15893202 0.00212957 0.02862856 0.43529412 0.89019608 0.96078431
v 0.15896217 0.00446761 0.02856605 0.43529412 0.89019608 0.96078431
v 0.16068050 0.01381977 0.02579614 0.43529412 0.89019608 0.96078431
v 0.16099704 0.01381977 0.02417084 0.43529412 0.89019608 0.96078431
v 0.09557996 -0.02031871 0.03006201 0.43529412 0.89019608 0.96078431
v 0.11261252 -0.02124053 0.02929032 0.43529412 0.89019608 0.96078431
v 0.15602292 -0.02022086 0.02777926 0.43529412 0.89019608 0.96078431
v 0.15648265 -0.01890765 0.02800775 0.43529412 0.89019608 0.96078431
v 0.16132110 0.01381977 0.02183635 0.43529412 0.89019608 0.96078431
v 0.16148691 0.01381977 0.01949756 0.43529412 0.89019608 0.96078431
v 0.16138894 0.01381977 0.01716092 0.43529412 0.89019608 0.96078431
v 0.16120052 0.01615781 0.01716092 0.43529412 0.89019608 0.96078431
v 0.16074834 0.01598786 0.01495577 0.43529412 0.89019608 0.96078431
v 0.16056746 0.01509693 0.01355249 0.43529412 0.89019608 0.96078431
v 0.16007758 0.01665734 0.01426383 0.43529412 0.89019608 0.96078431
v 0.15948219 0.01617326 0.01289935 0.43529412 0.89019608 0.96078431
v 0.08454648 -0.02485574 0.02182773 0.43529412 0.89019608 0.96078431
v 0.09858703 -0.02529863 0.01949756 0.43529412 0.89019608 0.96078431
v 0.10325968 -0.02536558 0.01716092 0.43529412 0.89019608 0.96078431
v 0.08923420 -0.02505144 0.02183635 0.43529412 0.89019608 0.96078431
v 0.08689788 -0.02495874 0.02183635 0.43529412 0.89019608 0.96078431
v 0.10557339 -0.02442830 0.01289935 0.43529412 0.89019608 0.96078431
v 0.12196535 -0.02481454 0.01289935 0.43529412 0.89019608 0.96078431
v 0.12196535 -0.02493814 0.01317742 0.43529412 0.89019608 0.96078431
v 0.12196535 -0.02522138 0.01482212 0.43529412 0.89019608 0.96078431
v 0.08454648 -0.02299149 0.02879238 0.43529412 0.89019608 0.96078431
v 0.08455402 -0.02320778 0.02867167 0.43529412 0.89019608 0.96078431
v 0.09390685 -0.02149803 0.02977748 0.43529412 0.89019608 0.96078431
v 0.15719109 -0.01646661 0.02804224 0.43529412 0.89019608 0.96078431
v 0.15808040 -0.01718244 0.02731150 0.43529412 0.89019608 0.96078431
v 0.15840447 -0.01646661 0.02652257 0.43529412 0.89019608 0.96078431
v 0.15864564 -0.01423156 0.02650963 0.43529412 0.89019608 0.96078431
v 0.15977611 0.00212957 0.02650963 0.43529412 0.89019608 0.96078431
v 0.15901493 -0.01423156 0.02417084 0.43529412 0.89019608 0.96078431
v 0.09631854 -0.02115814 0.02983783 0.43529412 0.89019608 0.96078431
v 0.09858703 -0.02124053 0.02974299 0.43529412 0.89019608 0.96078431
v 0.11494884 -0.02305844 0.02841947 0.43529412 0.89019608 0.96078431
v 0.15379965 -0.02246620 0.02543185 0.43529412 0.89019608 0.96078431
v 0.15535971 -0.02228081 0.02471404 0.43529412 0.89019608 0.96078431
v 0.15636207 -0.02066890 0.02650963 0.43529412 0.89019608 0.96078431
v 0.15759053 -0.01876860 0.02652257 0.43529412 0.89019608 0.96078431
v 0.13130311 -0.02252285 0.02775340 0.43529412 0.89019608 0.96078431
v 0.16126081 0.00914369 0.01949756 0.43529412 0.89019608 0.96078431
v 0.15930132 -0.01423156 0.02183635 0.43529412 0.89019608 0.96078431
v 0.16132110 0.01148173 0.01716092 0.43529412 0.89019608 0.96078431
v 0.16124573 0.00914369 0.01716092 0.43529412 0.89019608 0.96078431
v 0.16077848 0.00891194 0.01459794 0.43529412 0.89019608 0.96078431
v 0.16093674 0.01381977 0.01482212 0.43529412 0.89019608 0.96078431
v 0.16037904 0.00903039 0.01289935 0.43529412 0.89019608 0.96078431
v 0.16036396 0.01158987 0.01289935 0.43529412 0.89019608 0.96078431
v 0.16033382 0.01381977 0.01289935 0.43529412 0.89019608 0.96078431
v 0.15970828 0.01581276 0.01289935 0.43529412 0.89019608 0.96078431
v 0.08454648 -0.02479394 0.02355219 0.43529412 0.89019608 0.96078431
v 0.10325968 -0.02537073 0.01949756 0.43529412 0.89019608 0.96078431
v 0.12896678 -0.02526258 0.01482212 0.43529412 0.89019608 0.96078431
v 0.13598329 -0.02539133 0.01716092 0.43529412 0.89019608 0.96078431
v 0.08689788 -0.02483514 0.02383026 0.43529412 0.89019608 0.96078431
v 0.08455402 -0.02479394 0.02356081 0.43529412 0.89019608 0.96078431
v 0.10325968 -0.02520593 0.02183635 0.43529412 0.89019608 0.96078431
v 0.12896678 -0.02485574 0.01289935 0.43529412 0.89019608 0.96078431
v 0.12896678 -0.02495359 0.01313431 0.43529412 0.89019608 0.96078431
v 0.08454648 -0.02321294 0.02866520 0.43529412 0.89019608 0.96078431
v 0.10092336 -0.02323868 0.02862640 0.43529412 0.89019608 0.96078431
v 0.15826127 -0.01789827 0.02575303 0.43529412 0.89019608 0.96078431
v 0.15868332 -0.01656960 0.02417084 0.43529412 0.89019608 0.96078431
v 0.10331997 -0.02443860 0.02635443 0.43529412 0.89019608 0.96078431
v 0.11494884 -0.02395967 0.02650963 0.43529412 0.89019608 0.96078431
v 0.13130311 -0.02336743 0.02650963 0.43529412 0.89019608 0.96078431
v 0.15234510 -0.02411416 0.02183635 0.43529412 0.89019608 0.96078431
v 0.13831962 -0.02300179 0.02630485 0.43529412 0.89019608 0.96078431
v 0.13831962 -0.02403176 0.02417084 0.43529412 0.89019608 0.96078431
v 0.15355848 -0.02477334 0.01848659 0.43529412 0.89019608 0.96078431
v 0.15468142 -0.02336228 0.02183635 0.43529412 0.89019608 0.96078431
v 0.15587973 -0.02244045 0.02315772 0.43529412 0.89019608 0.96078431
v 0.15649019 -0.02140018 0.02403072 0.43529412 0.89019608 0.96078431
v 0.15955756 -0.01423156 0.01949756 0.43529412 0.89019608 0.96078431
v 0.16070311 0.00703739 0.01477470 0.43529412 0.89019608 0.96078431
v 0.15953495 -0.01423156 0.01716092 0.43529412 0.89019608 0.96078431
v 0.15932392 -0.01423156 0.01482212 0.43529412 0.89019608 0.96078431
v 0.15906768 -0.01423156 0.01289935 0.43529412 0.89019608 0.96078431
v 0.16052976 0.00797467 0.01365380 0.43529412 0.89019608 0.96078431
v 0.16037904 0.00873170 0.01289935 0.43529412 0.89019608 0.96078431
v 0.08454648 -0.02470125 0.02472051 0.43529412 0.89019608 0.96078431
v 0.13130311 -0.02525743 0.01482212 0.43529412 0.89019608 0.96078431
v 0.13598329 -0.02521623 0.01482212 0.43529412 0.89019608 0.96078431
v 0.13831962 -0.02532438 0.01716092 0.43529412 0.89019608 0.96078431
v 0.13831962 -0.02516988 0.01949756 0.43529412 0.89019608 0.96078431
v 0.08689788 -0.02471155 0.02499858 0.43529412 0.89019608 0.96078431
v 0.08455402 -0.02470125 0.02472913 0.43529412 0.89019608 0.96078431
v 0.10331997 -0.02491239 0.02434113 0.43529412 0.89019608 0.96078431
v 0.10258140 -0.02478364 0.02547280 0.43529412 0.89019608 0.96078431
v 0.10169962 -0.02478364 0.02547280 0.43529412 0.89019608 0.96078431
v 0.13130311 -0.02480939 0.01289935 0.43529412 0.89019608 0.96078431
v 0.13130311 -0.02493299 0.01318820 0.43529412 0.89019608 0.96078431
v 0.08454648 -0.02433560 0.02650101 0.43529412 0.89019608 0.96078431
v 0.10092336 -0.02445920 0.02635443 0.43529412 0.89019608 0.96078431
v 0.15779401 -0.01915999 0.02417084 0.43529412 0.89019608 0.96078431
v 0.15848737 -0.01838751 0.01716092 0.43529412 0.89019608 0.96078431
v 0.15906768 -0.01656960 0.01949756 0.43529412 0.89019608 0.96078431
v 0.13130311 -0.02434591 0.02417084 0.43529412 0.89019608 0.96078431
v 0.13831962 -0.02461370 0.02243345 0.43529412 0.89019608 0.96078431
v 0.14428854 -0.02475789 0.02069821 0.43529412 0.89019608 0.96078431
v 0.15355848 -0.02477334 0.01787226 0.43529412 0.89019608 0.96078431
v 0.15447793 -0.02407296 0.01711996 0.43529412 0.89019608 0.96078431
v 0.15609075 -0.02274430 0.01716092 0.43529412 0.89019608 0.96078431
v 0.15447793 -0.02398027 0.01935745 0.43529412 0.89019608 0.96078431
v 0.13831962 -0.02488664 0.02126513 0.43529412 0.89019608 0.96078431
v 0.15594003 -0.02253830 0.02183635 0.43529412 0.89019608 0.96078431
v 0.15674643 -0.02124053 0.02183635 0.43529412 0.89019608 0.96078431
v 0.15603800 -0.02268250 0.01949756 0.43529412 0.89019608 0.96078431
v 0.15914305 -0.01656960 0.01716092 0.43529412 0.89019608 0.96078431
v 0.15899231 -0.01656960 0.01482212 0.43529412 0.89019608 0.96078431
v 0.15875115 -0.01656960 0.01289935 0.43529412 0.89019608 0.96078431
v 0.16032628 0.00721764 0.01289935 0.43529412 0.89019608 0.96078431
v 0.13598329 -0.02488149 0.01333047 0.43529412 0.89019608 0.96078431
v 0.13831962 -0.02482484 0.01347489 0.43529412 0.89019608 0.96078431
v 0.13831962 -0.02511839 0.01482212 0.43529412 0.89019608 0.96078431
v 0.13598329 -0.02469610 0.01289935 0.43529412 0.89019608 0.96078431
v 0.15794473 -0.01955653 0.01716092 0.43529412 0.89019608 0.96078431
v 0.15689716 -0.02124053 0.01949756 0.43529412 0.89019608 0.96078431
v 0.15842708 -0.01827421 0.01482212 0.43529412 0.89019608 0.96078431
v 0.15790706 -0.01944323 0.01482212 0.43529412 0.89019608 0.96078431
v 0.15234510 -0.02447980 0.01482212 0.43529412 0.89019608 0.96078431
v 0.15468142 -0.02363522 0.01482212 0.43529412 0.89019608 0.96078431
v 0.15602292 -0.02263615 0.01482212 0.43529412 0.89019608 0.96078431
v 0.15701021 -0.02124053 0.01716092 0.43529412 0.89019608 0.96078431
v 0.15690470 -0.02124053 0.01482212 0.43529412 0.89019608 0.96078431
v 0.15831403 -0.01802702 0.01289935 0.43529412 0.89019608 0.96078431
v 0.13729465 -0.02462915 0.01289935 0.43529412 0.89019608 0.96078431
v 0.15042328 -0.02378457 0.01289935 0.43529412 0.89019608 0.96078431
v 0.15760560 -0.01951533 0.01289935 0.43529412 0.89019608 0.96078431
v 0.15777893 -0.01919604 0.01289935 0.43529412 0.89019608 0.96078431
v 0.15251090 -0.02354768 0.01289935 0.43529412 0.89019608 0.96078431
v 0.15449301 -0.02292969 0.01289935 0.43529412 0.89019608 0.96078431
v 0.15468142 -0.02289879 0.01296186 0.43529412 0.89019608 0.96078431
v 0.15591741 -0.02249195 0.01350507 0.43529412 0.89019608 0.96078431
v 0.15652787 -0.02129203 0.01289935 0.43529412 0.89019608 0.96078431
v 0.15463620 -0.02287819 0.01289935 0.43529412 0.89019608 0.96078431
v 0.15468142 -0.02285759 0.01289935 0.43529412 0.89019608 0.96078431
v 0.15548029 -0.02238381 0.01289935 0.43529412 0.89019608 0.96078431
v 0.15630177 -0.02166282 0.01289935 0.43529412 0.89019608 0.96078431
f 1 2 7
f 1 7 15
f 1 15 31
f 1 31 34
f 1 34 56
f 1 56 96
f 1 96 124
f 1 124 156
f 1 156 180
f 1 180 210
f 1 210 216
f 1 216 215
f 1 215 243
f 1 243 279
f 1 279 309
f 1 309 321
f 1 321 288
f 1 288 252
f 1 252 221
f 1 221 220
f 1 220 191
f 1 191 190
f 1 190 161
f 1 161 132
f 1 132 128
f 1 128 98
f 1 98 57
f 1 57 35
f 1 35 17
f 1 17 9
f 1 9 3
f 1 3 4
f 1 4 5
f 1 5 6
f 1 6 2
f 2 6 8
f 2 8 7
f 3 9 4
f 4 10 11
f 4 11 13
f 4 13 5
f 4 9 10
f 5 12 6
f 5 13 14
f 5 14 12
f 6 12 8
f 7 8 16
f 7 16 15
f 8 12 16
f 9 17 18
f 9 18 10
f 10 18 19
f 10 19 20
f 10 20 11
f 11 20 21
f 11 21 22
f 11 22 23
f 11 23 13
f 12 24 16
f 12 14 25
f 12 25 24
f 13 26 27
f 13 27 14
f 13 23 26
f 14 27 28
f 14 28 29
f 14 29 30
f 14 30 25
f 15 16 31
f 16 24 32
f 16 32 33
f 16 33 34
f 16 34 31
f 17 35 36
f 17 36 37
f 17 37 18
f 18 38 39
f 18 39 19
f 18 37 38
f 19 21 20
f 19 39 40
f 19 40 41
f 19 41 42
f 19 42 22
f 19 22 21
f 22 42 43
f 22 43 23
f 23 43 44
f 23 44 45
f 23 45 46
f 23 46 47
f 23 47 28
f 23 28 26
f 24 25 32
f 25 30 32
f 26 28 27
f 28 30 29
f 28 47 48
f 28 48 49
f 28 49 50
f 28 50 30
f 30 50 51
f 30 51 52
f 30 52 53
f 30 53 32
f 32 53 54
f 32 54 33
f 33 54 55
f 33 55 34
f 34 55 54
f 34 54 53
f 34 53 52
f 34 52 51
f 34 51 95
f 34 95 94
f 34 94 93
f 34 93 89
f 34 89 92
f 34 92 121
f 34 121 120
f 34 120 123
f 34 123 155
f 34 155 179
f 34 179 153
f 34 153 178
f 34 178 177
f 34 177 209
f 34 209 208
f 34 208 242
f 34 242 278
f 34 278 277
f 34 277 276
f 34 276 275
f 34 275 308
f 34 308 340
f 34 340 306
f 34 306 339
f 34 339 354
f 34 354 358
f 34 358 357
f 34 357 363
f 34 363 367
f 34 367 366
f 34 366 365
f 34 365 364
f 34 364 360
f 34 360 359
f 34 359 356
f 34 356 355
f 34 355 344
f 34 344 319
f 34 319 286
f 34 286 249
f 34 249 248
f 34 248 217
f 34 217 187
f 34 187 186
f 34 186 185
f 34 185 159
f 34 159 157
f 34 157 125
f 34 125 97
f 34 97 56
f 35 57 58
f 35 58 59
f 35 59 60
f 35 60 38
f 35 38 36
f 36 38 37
f 38 61 39
f 38 60 62
f 38 62 61
f 39 61 63
f 39 63 64
f 39 64 40
f 40 64 65
f 40 65 66
f 40 66 67
f 40 67 68
f 40 68 41
f 41 69 42
f 41 68 70
f 41 70 69
f 42 69 71
f 42 71 72
f 42 72 73
f 42 73 43
f 43 73 72
f 43 72 74
f 43 74 75
f 43 75 44
f 44 75 74
f 44 74 76
f 44 76 77
f 44 77 78
f 44 78 79
f 44 79 80
f 44 80 81
f 44 81 45
f 45 81 46
f 46 80 82
f 46 82 79
f 46 79 83
f 46 83 84
f 46 84 85
f 46 85 86
f 46 86 47
f 46 81 80
f 47 87 88
f 47 88 48
f 47 86 85
f 47 85 87
f 48 89 49
f 48 88 90
f 48 90 91
f 48 91 92
f 48 92 89
f 49 89 93
f 49 93 94
f 49 94 50
f 50 94 95
f 50 95 51
f 56 97 96
f 57 98 99
f 57 99 58
f 58 99 100
f 58 100 62
f 58 62 59
f 59 62 60
f 61 101 102
f 61 102 63
f 61 62 103
f 61 103 101
f 62 100 103
f 63 102 64
f 64 102 67
f 64 67 65
f 65 67 66
f 67 102 104
f 67 104 105
f 67 105 68
f 68 105 106
f 68 106 70
f 69 70 71
f 70 106 107
f 70 107 108
f 70 108 109
f 70 109 74
f 70 74 72
f 70 72 71
f 74 109 77
f 74 77 76
f 77 109 108
f 77 108 78
f 78 110 111
f 78 111 79
f 78 108 112
f 78 112 113
f 78 113 114
f 78 114 115
f 78 115 110
f 79 111 116
f 79 116 83
f 79 82 80
f 83 90 84
f 83 116 117
f 83 117 118
f 83 118 119
f 83 119 90
f 84 90 85
f 85 88 87
f 85 90 88
f 90 120 121
f 90 121 91
f 90 119 122
f 90 122 123
f 90 123 120
f 91 121 92
f 96 97 125
f 96 125 126
f 96 126 127
f 96 127 124
f 98 128 99
f 99 128 100
f 100 128 103
f 101 103 102
f 102 103 129
f 102 129 130
f 102 130 104
f 103 128 131
f 103 131 132
f 103 132 133
f 103 133 134
f 103 134 129
f 104 135 136
f 104 136 106
f 104 106 105
f 104 130 134
f 104 134 137
f 104 137 135
f 106 136 138
f 106 138 107
f 107 138 139
f 107 139 140
f 107 140 141
f 107 141 142
f 107 142 143
f 107 143 108
f 108 143 112
f 110 115 111
f 111 115 144
f 111 144 145
f 111 145 116
f 112 143 146
f 112 146 113
f 113 146 143
f 113 143 114
f 114 143 147
f 114 147 148
f 114 148 149
f 114 149 115
f 115 149 144
f 116 145 144
f 116 144 117
f 117 144 150
f 117 150 151
f 117 151 152
f 117 152 153
f 117 153 154
f 117 154 118
f 118 154 119
f 119 154 155
f 119 155 123
f 119 123 122
f 124 127 156
f 125 157 126
f 126 158 127
f 126 157 159
f 126 159 160
f 126 160 158
f 127 158 156
f 128 132 131
f 129 134 130
f 132 161 162
f 132 162 133
f 133 163 137
f 133 137 134
f 133 162 163
f 135 137 136
f 136 137 164
f 136 164 165
f 136 165 166
f 136 166 138
f 137 163 162
f 137 162 167
f 137 167 164
f 138 166 139
f 139 166 168
f 139 168 141
f 139 141 140
f 141 148 147
f 141 147 142
f 141 168 169
f 141 169 170
f 141 170 148
f 142 147 143
f 144 149 150
f 148 170 171
f 148 171 172
f 148 172 173
f 148 173 149
f 149 173 150
f 150 173 151
f 151 173 174
f 151 174 152
f 152 174 175
f 152 175 176
f 152 176 177
f 152 177 178
f 152 178 153
f 153 179 154
f 154 179 155
f 156 158 181
f 156 181 180
f 158 160 182
f 158 182 211
f 158 211 183
f 158 183 184
f 158 184 181
f 159 185 160
f 160 185 186
f 160 186 187
f 160 187 188
f 160 188 189
f 160 189 182
f 161 190 162
f 162 190 191
f 162 191 192
f 162 192 167
f 164 167 193
f 164 193 194
f 164 194 195
f 164 195 196
f 164 196 165
f 165 196 197
f 165 197 166
f 166 197 198
f 166 198 199
f 166 199 168
f 167 192 200
f 167 200 201
f 167 201 193
f 168 199 169
f 169 199 202
f 169 202 171
f 169 171 170
f 171 202 203
f 171 203 172
f 172 203 204
f 172 204 205
f 172 205 173
f 173 205 174
f 174 205 206
f 174 206 207
f 174 207 175
f 175 207 176
f 176 207 208
f 176 208 209
f 176 209 177
f 180 181 210
f 181 184 210
f 182 189 211
f 183 212 184
f 183 211 213
f 183 213 214
f 183 214 212
f 184 212 215
f 184 215 216
f 184 216 210
f 187 217 218
f 187 218 188
f 188 218 189
f 189 213 211
f 189 218 219
f 189 219 213
f 191 220 192
f 192 220 221
f 192 221 222
f 192 222 200
f 193 223 194
f 193 201 223
f 194 224 225
f 194 225 226
f 194 226 227
f 194 227 195
f 194 223 224
f 195 227 196
f 196 227 228
f 196 228 197
f 197 228 198
f 198 229 199
f 198 228 227
f 198 227 229
f 199 229 230
f 199 230 203
f 199 203 202
f 200 222 231
f 200 231 232
f 200 232 201
f 201 233 234
f 201 234 224
f 201 224 223
f 201 232 233
f 203 235 269
f 203 269 236
f 203 236 204
f 203 230 235
f 204 236 237
f 204 237 238
f 204 238 205
f 205 238 206
f 206 238 207
f 207 238 239
f 207 239 240
f 207 240 241
f 207 241 242
f 207 242 208
f 212 214 243
f 212 243 215
f 213 244 214
f 213 219 245
f 213 245 244
f 214 244 246
f 214 246 247
f 214 247 243
f 217 248 218
f 218 248 249
f 218 249 250
f 218 250 219
f 219 250 251
f 219 251 245
f 221 252 253
f 221 253 254
f 221 254 222
f 222 254 231
f 224 234 255
f 224 255 225
f 225 255 234
f 225 234 256
f 225 256 257
f 225 257 258
f 225 258 259
f 225 259 226
f 226 259 227
f 227 259 229
f 229 259 230
f 230 259 258
f 230 258 260
f 230 260 235
f 231 254 261
f 231 261 232
f 232 261 262
f 232 262 263
f 232 263 233
f 233 264 265
f 233 265 266
f 233 266 267
f 233 267 256
f 233 256 234
f 233 263 268
f 233 268 264
f 235 260 270
f 235 270 269
f 236 271 237
f 236 269 272
f 236 272 271
f 237 271 273
f 237 273 274
f 237 274 238
f 238 274 240
f 238 240 239
f 240 275 276
f 240 276 277
f 240 277 278
f 240 278 241
f 240 274 275
f 241 278 242
f 243 247 279
f 244 280 246
f 244 245 280
f 245 251 281
f 245 281 282
f 245 282 280
f 246 283 284
f 246 284 247
f 246 280 285
f 246 285 283
f 247 284 279
f 249 286 250
f 250 286 287
f 250 287 281
f 250 281 251
f 252 288 253
f 253 288 289
f 253 289 254
f 254 289 263
f 254 263 262
f 254 262 261
f 256 267 290
f 256 290 257
f 257 290 291
f 257 291 260
f 257 260 258
f 260 291 270
f 263 289 292
f 263 292 293
f 263 293 294
f 263 294 268
f 264 295 265
f 264 268 296
f 264 296 294
f 264 294 297
f 264 297 295
f 265 295 298
f 265 298 299
f 265 299 300
f 265 300 266
f 266 301 267
f 266 300 301
f 267 301 290
f 268 294 296
f 269 270 302
f 269 302 272
f 270 291 302
f 271 272 273
f 272 303 273
f 272 302 304
f 272 304 305
f 272 305 306
f 272 306 303
f 273 303 306
f 273 306 307
f 273 307 308
f 273 308 274
f 274 308 275
f 279 284 315
f 279 315 309
f 280 282 285
f 281 287 310
f 281 310 282
f 282 310 311
f 282 311 312
f 282 312 313
f 282 313 285
f 283 314 315
f 283 315 284
f 283 285 314
f 285 316 317
f 285 317 318
f 285 318 314
f 285 313 316
f 286 319 320
f 286 320 287
f 287 320 311
f 287 311 310
f 288 321 322
f 288 322 289
f 289 322 292
f 290 301 323
f 290 323 324
f 290 324 325
f 290 325 291
f 291 325 302
f 292 317 326
f 292 326 293
f 292 322 317
f 293 326 294
f 294 326 297
f 295 297 327
f 295 327 328
f 295 328 298
f 297 326 327
f 298 329 330
f 298 330 331
f 298 331 332
f 298 332 300
f 298 300 299
f 298 328 333
f 298 333 313
f 298 313 312
f 298 312 329
f 300 332 334
f 300 334 301
f 301 335 323
f 301 334 336
f 301 336 335
f 302 325 337
f 302 337 304
f 304 337 338
f 304 338 305
f 305 338 339
f 305 339 306
f 306 340 307
f 307 340 308
f 309 315 321
f 311 341 342
f 311 342 343
f 311 343 329
f 311 329 312
f 311 320 341
f 313 333 317
f 313 317 316
f 314 321 315
f 314 318 321
f 317 322 318
f 317 333 327
f 317 327 326
f 318 322 321
f 319 344 341
f 319 341 320
f 323 345 324
f 323 335 346
f 323 346 345
f 324 347 337
f 324 337 325
f 324 345 348
f 324 348 347
f 327 333 328
f 329 349 350
f 329 350 330
f 329 343 349
f 330 350 351
f 330 351 331
f 331 352 336
f 331 336 332
f 331 351 353
f 331 353 352
f 332 336 334
f 335 336 346
f 336 352 346
f 337 347 338
f 338 347 354
f 338 354 339
f 341 344 342
f 342 344 355
f 342 355 356
f 342 356 349
f 342 349 343
f 345 346 352
f 345 352 348
f 347 348 354
f 348 352 353
f 348 353 357
f 348 357 358
f 348 358 354
f 349 356 359
f 349 359 360
f 349 360 361
f 349 361 350
f 350 361 362
f 350 362 351
f 351 362 353
f 353 362 357
f 357 362 363
f 360 364 361
f 361 365 366
f 361 366 362
f 361 364 365
f 362 366 367
f 362 367 363

