# https://github.com/mikedh/trimesh
v 0.05406723 0.00203296 0.01289720 0.38039216 0.78823529 0.52549020
v 0.05452669 0.00018197 0.01289720 0.38039216 0.78823529 0.52549020
v 0.06600712 -0.01422931 0.01839323 0.38039216 0.78823529 0.52549020
v 0.06549993 -0.01189015 0.01839323 0.38039216 0.78823529 0.52549020
v 0.06384708 -0.00261994 0.01839323 0.38039216 0.78823529 0.52549020
v 0.06359945 -0.00022993 0.01839323 0.38039216 0.78823529 0.52549020
v 0.06350100 0.00212958 0.01839323 0.38039216 0.78823529 0.52549020
v 0.06353680 0.00325339 0.01839323 0.38039216 0.78823529 0.52549020
v 0.06358752 0.00452468 0.01839323 0.38039216 0.78823529 0.52549020
v 0.06373371 0.00578071 0.01839323 0.38039216 0.78823529 0.52549020
v 0.06520755 0.01502040 0.01839323 0.38039216 0.78823529 0.52549020
v 0.05409110 0.00212958 0.01289720 0.38039216 0.78823529 0.52549020
v 0.05467288 -0.00016890 0.01289720 0.38039216 0.78823529 0.52549020
v 0.06671719 -0.01625319 0.01839323 0.38039216 0.78823529 0.52549020
v 0.06555065 0.01615439 0.01839323 0.38039216 0.78823529 0.52549020
v 0.06609961 0.01747144 0.01839323 0.38039216 0.78823529 0.52549020
v 0.05505178 0.00441281 0.01289720 0.38039216 0.78823529 0.52549020
v 0.06490622 -0.01264275 0.01289720 0.38039216 0.78823529 0.52549020
v 0.06903237 -0.02050945 0.01839323 0.38039216 0.78823529 0.52549020
v 0.06804484 -0.01889238 0.01839323 0.38039216 0.78823529 0.52549020
v 0.06720648 -0.01736684 0.01839323 0.38039216 0.78823529 0.52549020
v 0.06707223 -0.01710241 0.01839323 0.38039216 0.78823529 0.52549020
v 0.06650537 0.01837659 0.01839323 0.38039216 0.78823529 0.52549020
v 0.06536269 0.01700361 0.01289720 0.38039216 0.78823529 0.52549020
v 0.06717068 0.01947498 0.01839323 0.38039216 0.78823529 0.52549020
v 0.06610558 -0.01406150 0.01289720 0.38039216 0.78823529 0.52549020
v 0.06835512 -0.01640575 0.01289720 0.38039216 0.78823529 0.52549020
v 0.06874596 -0.01681256 0.01289720 0.38039216 0.78823529 0.52549020
v 0.06956642 -0.01759058 0.01289720 0.38039216 0.78823529 0.52549020
v 0.07075683 -0.01837370 0.01289720 0.38039216 0.78823529 0.52549020
v 0.06965592 -0.02089592 0.01839323 0.38039216 0.78823529 0.52549020
v 0.06630547 -0.01426999 0.01289720 0.38039216 0.78823529 0.52549020
v 0.06632337 0.01798504 0.01289720 0.38039216 0.78823529 0.52549020
v 0.06826860 0.02042590 0.01839323 0.38039216 0.78823529 0.52549020
v 0.06777036 0.01935802 0.01289720 0.38039216 0.78823529 0.52549020
v 0.07118048 -0.01857710 0.01289720 0.38039216 0.78823529 0.52549020
v 0.07058378 -0.02141461 0.01839323 0.38039216 0.78823529 0.52549020
v 0.07362395 0.02490082 0.01839323 0.38039216 0.78823529 0.52549020
v 0.07510078 0.02608058 0.01839323 0.38039216 0.78823529 0.52549020
v 0.06873403 0.02007503 0.01289720 0.38039216 0.78823529 0.52549020
v 0.07301830 -0.01944157 0.01289720 0.38039216 0.78823529 0.52549020
v 0.07347478 -0.02274183 0.01839323 0.38039216 0.78823529 0.52549020
v 0.07616588 0.02674673 0.01839323 0.38039216 0.78823529 0.52549020
v 0.07620168 0.02673656 0.01810325 0.38039216 0.78823529 0.52549020
v 0.07533349 0.02594836 0.01725808 0.38039216 0.78823529 0.52549020
v 0.07054798 0.02114291 0.01289720 0.38039216 0.78823529 0.52549020
v 0.07536929 -0.02040775 0.01289720 0.38039216 0.78823529 0.52549020
v 0.07530962 -0.02338764 0.01839323 0.38039216 0.78823529 0.52549020
v 0.07753828 -0.02123154 0.01289720 0.38039216 0.78823529 0.52549020
v 0.07764568 0.02696030 0.01839323 0.38039216 0.78823529 0.52549020
v 0.07867499 0.02668571 0.01597661 0.38039216 0.78823529 0.52549020
v 0.07711761 0.02649247 0.01654472 0.38039216 0.78823529 0.52549020
v 0.07775309 0.02684335 0.01725808 0.38039216 0.78823529 0.52549020
v 0.07220083 0.02204806 0.01289720 0.38039216 0.78823529 0.52549020
v 0.08027711 -0.02195872 0.01289720 0.38039216 0.78823529 0.52549020
v 0.08221339 -0.02323000 0.01482156 0.38039216 0.78823529 0.52549020
v 0.08454648 -0.02365715 0.01481672 0.38039216 0.78823529 0.52549020
v 0.08454648 -0.02449620 0.01725324 0.38039216 0.78823529 0.52549020
v 0.08454648 -0.02470978 0.01839323 0.38039216 0.78823529 0.52549020
v 0.07998772 -0.02188753 0.01289720 0.38039216 0.78823529 0.52549020
v 0.07864217 0.02708743 0.01839323 0.38039216 0.78823529 0.52549020
v 0.07755320 0.02551104 0.01482371 0.38039216 0.78823529 0.52549020
v 0.07987733 0.02710269 0.01715856 0.38039216 0.78823529 0.52549020
v 0.07987733 0.02675181 0.01586202 0.38039216 0.78823529 0.52549020
v 0.07987733 0.02587717 0.01469352 0.38039216 0.78823529 0.52549020
v 0.07737120 0.02405161 0.01289720 0.38039216 0.78823529 0.52549020
v 0.07520221 0.02337020 0.01289720 0.38039216 0.78823529 0.52549020
v 0.08070674 -0.02204517 0.01289720 0.38039216 0.78823529 0.52549020
v 0.08221339 -0.02233502 0.01289720 0.38039216 0.78823529 0.52549020
v 0.08429288 -0.02267064 0.01289720 0.38039216 0.78823529 0.52549020
v 0.08454648 -0.02271132 0.01289720 0.38039216 0.78823529 0.52549020
v 0.08454648 0.02714845 0.01839323 0.38039216 0.78823529 0.52549020
v 0.07987733 0.02720439 0.01839323 0.38039216 0.78823529 0.52549020
v 0.07643141 0.02432620 0.01366974 0.38039216 0.78823529 0.52549020
v 0.07708777 0.02396516 0.01289720 0.38039216 0.78823529 0.52549020
v 0.08221339 0.02681283 0.01574151 0.38039216 0.78823529 0.52549020
v 0.08221339 0.02716879 0.01715856 0.38039216 0.78823529 0.52549020
v 0.08221339 0.02601955 0.01457355 0.38039216 0.78823529 0.52549020
v 0.08221339 0.02473301 0.01289720 0.38039216 0.78823529 0.52549020
v 0.07987733 0.02444825 0.01289720 0.38039216 0.78823529 0.52549020
v 0.08454648 0.02474827 0.01289720 0.38039216 0.78823529 0.52549020
v 0.08454648 0.02707218 0.01715856 0.38039216 0.78823529 0.52549020
v 0.08221339 0.02723999 0.01839323 0.38039216 0.78823529 0.52549020
v 0.08098122 0.02723490 0.01839323 0.38039216 0.78823529 0.52549020
v 0.08454648 0.02677215 0.01579908 0.38039216 0.78823529 0.52549020
v 0.08454648 0.02603989 0.01463058 0.38039216 0.78823529 0.52549020
v 0.08454648 0.02487540 0.01302739 0.38039216 0.78823529 0.52549020
v 0.08251771 0.02473810 0.01289720 0.38039216 0.78823529 0.52549020
v 0.08454648 0.02477369 0.01289774 0.38039216 0.78823529 0.52549020
f 1 2 3
f 1 3 4
f 1 4 5
f 1 5 6
f 1 6 7
f 1 7 8
f 1 8 9
f 1 9 10
f 1 10 11
f 1 11 12
f 1 12 17
f 1 17 24
f 1 24 33
f 1 33 35
f 1 35 40
f 1 40 46
f 1 46 54
f 1 54 67
f 1 67 75
f 1 75 66
f 1 66 80
f 1 80 79
f 1 79 88
f 1 88 81
f 1 81 71
f 1 71 70
f 1 70 69
f 1 69 68
f 1 68 55
f 1 55 60
f 1 60 49
f 1 49 47
f 1 47 41
f 1 41 36
f 1 36 30
f 1 30 29
f 1 29 28
f 1 28 27
f 1 27 32
f 1 32 26
f 1 26 18
f 1 18 13
f 1 13 2
f 2 13 14
f 2 14 3
f 3 14 22
f 3 22 21
f 3 21 20
f 3 20 19
f 3 19 31
f 3 31 37
f 3 37 42
f 3 42 48
f 3 48 59
f 3 59 72
f 3 72 83
f 3 83 84
f 3 84 73
f 3 73 61
f 3 61 50
f 3 50 43
f 3 43 39
f 3 39 38
f 3 38 34
f 3 34 25
f 3 25 23
f 3 23 16
f 3 16 15
f 3 15 11
f 3 11 10
f 3 10 9
f 3 9 8
f 3 8 7
f 3 7 6
f 3 6 5
f 3 5 4
f 11 15 12
f 12 15 16
f 12 16 17
f 13 18 19
f 13 19 20
f 13 20 21
f 13 21 22
f 13 22 14
f 16 23 17
f 17 23 25
f 17 25 24
f 18 26 19
f 19 27 28
f 19 28 29
f 19 29 30
f 19 30 31
f 19 26 32
f 19 32 27
f 24 25 33
f 25 34 35
f 25 35 33
f 30 36 37
f 30 37 31
f 34 38 35
f 35 38 39
f 35 39 40
f 36 41 37
f 37 41 42
f 39 43 44
f 39 44 45
f 39 45 40
f 40 45 46
f 41 47 42
f 42 47 49
f 42 49 48
f 43 50 44
f 44 51 52
f 44 52 45
f 44 50 53
f 44 53 51
f 45 52 54
f 45 54 46
f 48 55 56
f 48 56 57
f 48 57 58
f 48 58 59
f 48 49 60
f 48 60 55
f 50 61 53
f 51 62 52
f 51 53 63
f 51 63 64
f 51 64 65
f 51 65 66
f 51 66 62
f 52 62 67
f 52 67 54
f 53 61 63
f 55 68 56
f 56 68 69
f 56 69 57
f 57 69 70
f 57 70 71
f 57 71 81
f 57 81 89
f 57 89 87
f 57 87 86
f 57 86 85
f 57 85 82
f 57 82 72
f 57 72 59
f 57 59 58
f 61 73 63
f 62 74 67
f 62 66 75
f 62 75 74
f 63 76 64
f 63 73 77
f 63 77 76
f 64 76 78
f 64 78 65
f 65 78 79
f 65 79 80
f 65 80 66
f 67 74 75
f 72 82 77
f 72 77 83
f 73 84 77
f 76 77 85
f 76 85 86
f 76 86 78
f 77 82 85
f 77 84 83
f 78 87 79
f 78 86 87
f 79 87 89
f 79 89 88
f 81 88 89

