# https://github.com/mikedh/trimesh
v 0.11365901 0.02276965 0.00286458 0.54117647 0.42352941 0.64313725
v 0.11365901 0.02272929 0.00568489 0.54117647 0.42352941 0.64313725
v 0.11365901 0.02236608 0.00226173 0.54117647 0.42352941 0.64313725
v -0.12428822 0.01403792 -0.00684661 0.54117647 0.42352941 0.64313725
v -0.12428822 0.01491476 -0.00515600 0.54117647 0.42352941 0.64313725
v -0.12428822 0.01548342 -0.00245888 0.54117647 0.42352941 0.64313725
v 0.11365901 0.02195884 0.00699806 0.54117647 0.42352941 0.64313725
v -0.12428822 0.01543206 0.00024610 0.54117647 0.42352941 0.64313725
v -0.12428822 0.01536969 0.00149112 0.54117647 0.42352941 0.64313725
v -0.12436129 0.01528897 0.00294059 0.54117647 0.42352941 0.64313725
v -0.12165763 0.01461392 0.00564295 0.54117647 0.42352941 0.64313725
v -0.12375236 0.01390584 0.00714222 0.54117647 0.42352941 0.64313725
v 0.11365901 0.02110401 0.00066547 0.54117647 0.42352941 0.64313725
v -0.12428822 0.01268413 -0.00819385 0.54117647 0.42352941 0.64313725
v -0.12516509 0.01307302 -0.00776661 0.54117647 0.42352941 0.64313725
v -0.12516509 0.01402324 -0.00682040 0.54117647 0.42352941 0.64313725
v -0.12706497 0.01398655 -0.00675749 0.54117647 0.42352941 0.64313725
v -0.12516509 0.01487073 -0.00516124 0.54117647 0.42352941 0.64313725
v -0.12516509 0.01504684 -0.00434870 0.54117647 0.42352941 0.64313725
v -0.12516509 0.01544673 -0.00245888 0.54117647 0.42352941 0.64313725
v 0.11365901 0.02094626 0.00776866 0.54117647 0.42352941 0.64313725
v -0.12165763 0.01393519 0.00718940 0.54117647 0.42352941 0.64313725
v -0.12165763 0.01256673 0.00854189 0.54117647 0.42352941 0.64313725
v -0.12165763 0.01121661 0.00978429 0.54117647 0.42352941 0.64313725
v -0.12436129 0.01536602 0.00149636 0.54117647 0.42352941 0.64313725
v -0.12706497 0.01535868 -0.00245888 0.54117647 0.42352941 0.64313725
v -0.12516509 0.01538069 0.00023823 0.54117647 0.42352941 0.64313725
v -0.12453180 0.01440113 0.00588409 0.54117647 0.42352941 0.64313725
v -0.12706497 0.01525962 0.00023823 0.54117647 0.42352941 0.64313725
v -0.12706497 0.01509453 0.00149374 0.54117647 0.42352941 0.64313725
v -0.12706497 0.01490008 0.00294059 0.54117647 0.42352941 0.64313725
v -0.12555481 0.01374074 0.00694040 0.54117647 0.42352941 0.64313725
v -0.12577402 0.01110655 0.00970828 0.54117647 0.42352941 0.64313725
v -0.12436129 0.01115791 0.00974498 0.54117647 0.42352941 0.64313725
v 0.11365901 0.02059772 0.00017795 0.54117647 0.42352941 0.64313725
v 0.11365901 0.01831206 -0.00187437 0.54117647 0.42352941 0.64313725
v 0.11365901 0.01797820 -0.00216794 0.54117647 0.42352941 0.64313725
v -0.12428822 0.01133768 -0.00937073 0.54117647 0.42352941 0.64313725
v -0.12514074 0.01130466 -0.00934976 0.54117647 0.42352941 0.64313725
v -0.12648039 0.01124596 -0.00931569 0.54117647 0.42352941 0.64313725
v -0.12725982 0.01226222 -0.00830656 0.54117647 0.42352941 0.64313725
v -0.12864819 0.01387649 -0.00661071 0.54117647 0.42352941 0.64313725
v -0.12706497 0.01476801 -0.00516124 0.54117647 0.42352941 0.64313725
v 0.11365901 0.02068577 0.00794428 0.54117647 0.42352941 0.64313725
v -0.12165763 0.00973809 0.01050510 0.54117647 0.42352941 0.64313725
v -0.01628761 0.00879888 0.01264130 0.54117647 0.42352941 0.64313725
v 0.11365901 0.01849917 0.00924697 0.54117647 0.42352941 0.64313725
v -0.12964685 0.01423603 -0.00512978 0.54117647 0.42352941 0.64313725
v -0.12976863 0.01470931 -0.00245888 0.54117647 0.42352941 0.64313725
v -0.12706497 0.01421769 0.00521833 0.54117647 0.42352941 0.64313725
v -0.12989042 0.01433509 0.00013601 0.54117647 0.42352941 0.64313725
v -0.12952506 0.01425438 0.00149374 0.54117647 0.42352941 0.64313725
v -0.12913534 0.01416632 0.00294059 0.54117647 0.42352941 0.64313725
v -0.12869691 0.01394987 0.00467838 0.54117647 0.42352941 0.64313725
v -0.12706497 0.01355730 0.00656820 0.54117647 0.42352941 0.64313725
v -0.12684575 0.01199440 0.00849471 0.54117647 0.42352941 0.64313725
v -0.12757647 0.01078003 0.00949073 0.54117647 0.42352941 0.64313725
v -0.12684575 0.00982247 0.01011717 0.54117647 0.42352941 0.64313725
v -0.12436129 0.00973809 0.01040549 0.54117647 0.42352941 0.64313725
v 0.11365901 0.01626854 -0.00362265 0.54117647 0.42352941 0.64313725
v 0.11365901 0.01612179 -0.00372487 0.54117647 0.42352941 0.64313725
v 0.11365901 0.01492943 -0.00447189 0.54117647 0.42352941 0.64313725
v -0.10541126 0.01113957 -0.00924754 0.54117647 0.42352941 0.64313725
v -0.12163327 0.00973809 -0.01019376 0.54117647 0.42352941 0.64313725
v -0.12428822 0.00973809 -0.01020162 0.54117647 0.42352941 0.64313725
v -0.12516509 0.01031409 -0.00986350 0.54117647 0.42352941 0.64313725
v -0.12516509 0.00981147 -0.01011250 0.54117647 0.42352941 0.64313725
v -0.12725982 0.00999124 -0.00988184 0.54117647 0.42352941 0.64313725
v -0.12828283 0.01105519 -0.00917415 0.54117647 0.42352941 0.64313725
v -0.12964685 0.01254472 -0.00743111 0.54117647 0.42352941 0.64313725
v -0.13045064 0.01351328 -0.00600785 0.54117647 0.42352941 0.64313725
v -0.12436129 0.00703786 0.01121279 0.54117647 0.42352941 0.64313725
v -0.12165763 0.00703786 0.01129143 0.54117647 0.42352941 0.64313725
v -0.07299159 0.00606196 0.01250500 0.54117647 0.42352941 0.64313725
v -0.01628761 0.00704153 0.01328871 0.54117647 0.42352941 0.64313725
v 0.00256500 0.00704153 0.01351150 0.54117647 0.42352941 0.64313725
v 0.00524431 0.00903001 0.01275138 0.54117647 0.42352941 0.64313725
v 0.11365901 0.01708668 0.01000184 0.54117647 0.42352941 0.64313725
v -0.13137622 0.01396087 -0.00420978 0.54117647 0.42352941 0.64313725
v -0.13137622 0.01396454 -0.00245888 0.54117647 0.42352941 0.64313725
v -0.13118136 0.01385081 -0.00083118 0.54117647 0.42352941 0.64313725
v -0.13040193 0.01376643 0.00149374 0.54117647 0.42352941 0.64313725
v -0.13076729 0.01355364 0.00149636 0.54117647 0.42352941 0.64313725
v -0.13047499 0.01337386 0.00294059 0.54117647 0.42352941 0.64313725
v -0.12967120 0.01294095 0.00560363 0.54117647 0.42352941 0.64313725
v -0.12976863 0.01166421 0.00765334 0.54117647 0.42352941 0.64313725
v -0.12993914 0.00982247 0.00908184 0.54117647 0.42352941 0.64313725
v -0.12913534 0.00897865 0.00997039 0.54117647 0.42352941 0.64313725
v -0.12706497 0.00703786 0.01101883 0.54117647 0.42352941 0.64313725
v 0.11365901 0.01461025 -0.00459246 0.54117647 0.42352941 0.64313725
v 0.10525571 0.00927582 -0.00693048 0.54117647 0.42352941 0.64313725
v 0.10255204 0.00922446 -0.00703533 0.54117647 0.42352941 0.64313725
v -0.12428822 0.00706354 -0.01138898 0.54117647 0.42352941 0.64313725
v -0.12572531 0.00568774 -0.01191320 0.54117647 0.42352941 0.64313725
v -0.12679703 0.00677004 -0.01133656 0.54117647 0.42352941 0.64313725
v -0.12976863 0.00382766 -0.01218579 0.54117647 0.42352941 0.64313725
v -0.12976863 0.00517411 -0.01159342 0.54117647 0.42352941 0.64313725
v -0.12976863 0.00703786 -0.01075991 0.54117647 0.42352941 0.64313725
v -0.12976863 0.00933452 -0.00972982 0.54117647 0.42352941 0.64313725
v -0.12976863 0.01068097 -0.00893825 0.54117647 0.42352941 0.64313725
v -0.13161979 0.01170823 -0.00708251 0.54117647 0.42352941 0.64313725
v -0.12436129 0.00433396 0.01145918 0.54117647 0.42352941 0.64313725
v -0.12165763 0.00433396 0.01159810 0.54117647 0.42352941 0.64313725
v -0.12706497 0.00433396 0.01131764 0.54117647 0.42352941 0.64313725
v -0.08650993 0.00392672 0.01253645 0.54117647 0.42352941 0.64313725
v -0.08378191 0.00412850 0.01256528 0.54117647 0.42352941 0.64313725
v -0.01358394 0.00433762 0.01384962 0.54117647 0.42352941 0.64313725
v -0.00284234 0.00433762 0.01392301 0.54117647 0.42352941 0.64313725
v 0.10255204 0.00704153 0.01385224 0.54117647 0.42352941 0.64313725
v 0.10260076 0.00991786 0.01295058 0.54117647 0.42352941 0.64313725
v 0.10352634 0.01119827 0.01245782 0.54117647 0.42352941 0.64313725
v 0.11365901 0.01591267 0.01051820 0.54117647 0.42352941 0.64313725
v -0.13200951 0.01254472 -0.00512978 0.54117647 0.42352941 0.64313725
v -0.13354403 0.01041315 -0.00245888 0.54117647 0.42352941 0.64313725
v -0.13244794 0.01243832 -0.00245888 0.54117647 0.42352941 0.64313725
v -0.13196080 0.01260709 0.00013601 0.54117647 0.42352941 0.64313725
v -0.13086472 0.01361967 0.00096428 0.54117647 0.42352941 0.64313725
v -0.13191208 0.01202375 0.00294059 0.54117647 0.42352941 0.64313725
v -0.13157108 0.01157616 0.00564295 0.54117647 0.42352941 0.64313725
v -0.13125444 0.01122762 0.00717367 0.54117647 0.42352941 0.64313725
v -0.13093778 0.00815317 0.00959557 0.54117647 0.42352941 0.64313725
v -0.12993914 0.00716627 0.01028230 0.54117647 0.42352941 0.64313725
v -0.12976863 0.00433396 0.01078555 0.54117647 0.42352941 0.64313725
v 0.11365901 0.01241998 -0.00531064 0.54117647 0.42352941 0.64313725
v 0.10255204 0.00703786 -0.00784525 0.54117647 0.42352941 0.64313725
v -0.12263192 0.00572076 -0.01192106 0.54117647 0.42352941 0.64313725
v -0.12428822 0.00571342 -0.01192106 0.54117647 0.42352941 0.64313725
v -0.12514074 0.00570242 -0.01191582 0.54117647 0.42352941 0.64313725
v -0.12679703 0.00451006 -0.01219366 0.54117647 0.42352941 0.64313725
v -0.12976863 0.00163739 -0.01259206 0.54117647 0.42352941 0.64313725
v -0.13135187 0.00336906 -0.01204163 0.54117647 0.42352941 0.64313725
v -0.13142493 0.00878053 -0.00943364 0.54117647 0.42352941 0.64313725
v -0.13213130 0.00970507 -0.00793436 0.54117647 0.42352941 0.64313725
v -0.13378761 0.00826323 -0.00634335 0.54117647 0.42352941 0.64313725
v -0.13344660 0.00972708 -0.00532899 0.54117647 0.42352941 0.64313725
v -0.12165763 0.00163739 0.01182875 0.54117647 0.42352941 0.64313725
v -0.12706497 0.00163739 0.01133336 0.54117647 0.42352941 0.64313725
v -0.08378191 0.00164473 0.01273565 0.54117647 0.42352941 0.64313725
v -0.01358394 0.00164473 0.01388370 0.54117647 0.42352941 0.64313725
v -0.01085591 0.00164473 0.01390729 0.54117647 0.42352941 0.64313725
v -0.00013867 0.00433762 0.01392826 0.54117647 0.42352941 0.64313725
v 0.10255204 0.00433762 0.01401999 0.54117647 0.42352941 0.64313725
v 0.10525571 0.00433762 0.01376837 0.54117647 0.42352941 0.64313725
v 0.10525571 0.00704153 0.01359538 0.54117647 0.42352941 0.64313725
v 0.11365901 0.01272816 0.01138841 0.54117647 0.42352941 0.64313725
v 0.11365901 0.01536969 0.01073313 0.54117647 0.42352941 0.64313725
v 0.10525571 0.00991052 0.01284312 0.54117647 0.42352941 0.64313725
v 0.09984837 0.00433762 0.01404359 0.54117647 0.42352941 0.64313725
v 0.10435449 0.01119827 0.01245782 0.54117647 0.42352941 0.64313725
v -0.13390939 0.00881722 -0.00454266 0.54117647 0.42352941 0.64313725
v -0.13398246 0.00906303 -0.00245888 0.54117647 0.42352941 0.64313725
v -0.13400683 0.00898599 0.00023823 0.54117647 0.42352941 0.64313725
v -0.13344660 0.01033610 0.00023823 0.54117647 0.42352941 0.64313725
v -0.13337352 0.01019302 0.00149374 0.54117647 0.42352941 0.64313725
v -0.13325174 0.01002426 0.00294059 0.54117647 0.42352941 0.64313725
v -0.13295945 0.00949962 0.00544375 0.54117647 0.42352941 0.64313725
v -0.13356839 0.00752581 0.00620649 0.54117647 0.42352941 0.64313725
v -0.13171723 0.00973809 0.00772935 0.54117647 0.42352941 0.64313725
v -0.13247230 0.00693880 0.00830075 0.54117647 0.42352941 0.64313725
v -0.13137622 0.00635179 0.00987865 0.54117647 0.42352941 0.64313725
v -0.12976863 0.00163739 0.01076721 0.54117647 0.42352941 0.64313725
v -0.13154672 0.00433396 0.01000709 0.54117647 0.42352941 0.64313725
v 0.11365901 0.00974176 -0.00549674 0.54117647 0.42352941 0.64313725
v 0.10525571 0.00434129 -0.00780593 0.54117647 0.42352941 0.64313725
v 0.10525571 0.00703786 -0.00756217 0.54117647 0.42352941 0.64313725
v 0.10255204 0.00434129 -0.00819910 0.54117647 0.42352941 0.64313725
v 0.09984837 0.00434129 -0.00828821 0.54117647 0.42352941 0.64313725
v -0.00554601 0.00164473 -0.01084117 0.54117647 0.42352941 0.64313725
v -0.11890525 0.00422756 -0.01218842 0.54117647 0.42352941 0.64313725
v -0.12165763 0.00457243 -0.01215696 0.54117647 0.42352941 0.64313725
v -0.12428822 0.00433762 -0.01224608 0.54117647 0.42352941 0.64313725
v -0.12706497 0.00163739 -0.01269691 0.54117647 0.42352941 0.64313725
v -0.12976863 -0.00106284 -0.01271788 0.54117647 0.42352941 0.64313725
v -0.13166851 0.00068351 -0.01221987 0.54117647 0.42352941 0.64313725
v -0.13161979 0.00163739 -0.01218579 0.54117647 0.42352941 0.64313725
v -0.13295945 0.00163739 -0.01106920 0.54117647 0.42352941 0.64313725
v -0.13395809 0.00343877 -0.00944674 0.54117647 0.42352941 0.64313725
v -0.13249666 0.00430094 -0.01055285 0.54117647 0.42352941 0.64313725
v -0.13188772 0.00703786 -0.00986612 0.54117647 0.42352941 0.64313725
v -0.13361710 0.00523648 -0.00878884 0.54117647 0.42352941 0.64313725
v -0.13332481 0.00723230 -0.00787932 0.54117647 0.42352941 0.64313725
v -0.13417732 0.00433762 -0.00787932 0.54117647 0.42352941 0.64313725
v -0.13461576 0.00163739 -0.00786097 0.54117647 0.42352941 0.64313725
v -0.13410426 0.00723230 -0.00532899 0.54117647 0.42352941 0.64313725
v -0.12706497 -0.00106284 0.01127570 0.54117647 0.42352941 0.64313725
v -0.12260757 0.00068718 0.01170818 0.54117647 0.42352941 0.64313725
v -0.12165763 -0.00106284 0.01167935 0.54117647 0.42352941 0.64313725
v -0.08380626 0.00069084 0.01266226 0.54117647 0.42352941 0.64313725
v -0.01085591 -0.00106284 0.01366615 0.54117647 0.42352941 0.64313725
v -0.00284234 -0.00106284 0.01377099 0.54117647 0.42352941 0.64313725
v -0.08380626 -0.00060424 0.01256266 0.54117647 0.42352941 0.64313725
v -0.00284234 0.00003046 0.01383390 0.54117647 0.42352941 0.64313725
v 0.09987273 -0.00105917 0.01398854 0.54117647 0.42352941 0.64313725
v -0.00284234 0.00164473 0.01392039 0.54117647 0.42352941 0.64313725
v 0.09984837 0.00164473 0.01405407 0.54117647 0.42352941 0.64313725
v 0.10255204 0.00164473 0.01400951 0.54117647 0.42352941 0.64313725
v 0.10525571 0.00164473 0.01375264 0.54117647 0.42352941 0.64313725
v 0.10795937 0.00433762 0.01322842 0.54117647 0.42352941 0.64313725
v 0.11046819 0.00704153 0.01262557 0.54117647 0.42352941 0.64313725
v 0.11365901 0.01244199 0.01142510 0.54117647 0.42352941 0.64313725
v -0.13434782 0.00703786 -0.00245888 0.54117647 0.42352941 0.64313725
v -0.13444525 0.00703786 0.00023823 0.54117647 0.42352941 0.64313725
v -0.13398246 0.00884290 0.00149636 0.54117647 0.42352941 0.64313725
v -0.13369017 0.00956199 0.00149374 0.54117647 0.42352941 0.64313725
v -0.13437217 0.00703786 0.00294059 0.54117647 0.42352941 0.64313725
v -0.13393374 0.00867414 0.00294059 0.54117647 0.42352941 0.64313725
v -0.13383631 0.00843934 0.00440841 0.54117647 0.42352941 0.64313725
v -0.13400683 0.00678838 0.00544375 0.54117647 0.42352941 0.64313725
v -0.13381196 0.00572443 0.00700854 0.54117647 0.42352941 0.64313725
v -0.13288638 0.00433396 0.00855499 0.54117647 0.42352941 0.64313725
v -0.13152236 0.00163739 0.00997825 0.54117647 0.42352941 0.64313725
v -0.12976863 0.00068718 0.01070692 0.54117647 0.42352941 0.64313725
v -0.13286202 0.00163739 0.00866770 0.54117647 0.42352941 0.64313725
v 0.11365901 0.00937121 -0.00550198 0.54117647 0.42352941 0.64313725
v 0.11024897 -0.00647064 -0.00676011 0.54117647 0.42352941 0.64313725
v 0.11017590 -0.00376307 -0.00673390 0.54117647 0.42352941 0.64313725
v 0.10795937 0.00434129 -0.00712444 0.54117647 0.42352941 0.64313725
v 0.10523135 -0.00376307 -0.00791864 0.54117647 0.42352941 0.64313725
v 0.10250333 -0.00106284 -0.00832491 0.54117647 0.42352941 0.64313725
v 0.10255204 0.00127051 -0.00827249 0.54117647 0.42352941 0.64313725
v 0.10793502 -0.00376307 -0.00731841 0.54117647 0.42352941 0.64313725
v 0.10793502 -0.00647064 -0.00736821 0.54117647 0.42352941 0.64313725
v 0.09984837 -0.00106284 -0.00859750 0.54117647 0.42352941 0.64313725
v 0.09984837 0.00127051 -0.00851363 0.54117647 0.42352941 0.64313725
v 0.09984837 0.00164473 -0.00849790 0.54117647 0.42352941 0.64313725
v -0.00554601 -0.00106284 -0.01106920 0.54117647 0.42352941 0.64313725
v -0.00554601 0.00003046 -0.01097746 0.54117647 0.42352941 0.64313725
v -0.11890525 0.00164473 -0.01257896 0.54117647 0.42352941 0.64313725
v -0.12706497 0.00068351 -0.01270739 0.54117647 0.42352941 0.64313725
v -0.00554601 -0.00376307 -0.01113735 0.54117647 0.42352941 0.64313725
v -0.12976863 -0.00376307 -0.01247674 0.54117647 0.42352941 0.64313725
v -0.13159544 -0.00376307 -0.01217007 0.54117647 0.42352941 0.64313725
v -0.13176594 -0.00106284 -0.01227753 0.54117647 0.42352941 0.64313725
v -0.12706497 -0.00106284 -0.01272312 0.54117647 0.42352941 0.64313725
v -0.13312995 -0.00106284 -0.01124482 0.54117647 0.42352941 0.64313725
v -0.13410426 0.00163739 -0.00971933 0.54117647 0.42352941 0.64313725
v -0.13478624 -0.00106284 -0.00786097 0.54117647 0.42352941 0.64313725
v -0.13488367 0.00163739 -0.00516124 0.54117647 0.42352941 0.64313725
v -0.13456703 0.00433762 -0.00516124 0.54117647 0.42352941 0.64313725
v -0.13415296 0.00068351 -0.00978224 0.54117647 0.42352941 0.64313725
v -0.12976863 -0.00106284 0.01059159 0.54117647 0.42352941 0.64313725
v -0.12706497 -0.00376307 0.01108174 0.54117647 0.42352941 0.64313725
v -0.12436129 -0.00376307 0.01132550 0.54117647 0.42352941 0.64313725
v -0.12436129 -0.00106284 0.01148539 0.54117647 0.42352941 0.64313725
v -0.05409026 -0.00312103 0.01258887 0.54117647 0.42352941 0.64313725
v -0.00284234 -0.00376307 0.01324415 0.54117647 0.42352941 0.64313725
v 0.10250333 -0.00646330 0.01325725 0.54117647 0.42352941 0.64313725
v 0.10250333 -0.00376307 0.01376575 0.54117647 0.42352941 0.64313725
v -0.12165763 -0.00376307 0.01137006 0.54117647 0.42352941 0.64313725
v 0.10250333 -0.00105917 0.01395447 0.54117647 0.42352941 0.64313725
v 0.10255204 0.00127051 0.01400427 0.54117647 0.42352941 0.64313725
v 0.10523135 -0.00105917 0.01364256 0.54117647 0.42352941 0.64313725
v 0.10525571 0.00127051 0.01373691 0.54117647 0.42352941 0.64313725
v 0.10759401 0.00127051 0.01325201 0.54117647 0.42352941 0.64313725
v 0.10795937 0.00164473 0.01318648 0.54117647 0.42352941 0.64313725
v 0.11044383 0.00433762 0.01265440 0.54117647 0.42352941 0.64313725
v 0.11365901 0.00744509 0.01175012 0.54117647 0.42352941 0.64313725
v 0.11365901 0.01010864 0.01164265 0.54117647 0.42352941 0.64313725
v -0.13471319 0.00433762 0.00023823 0.54117647 0.42352941 0.64313725
v -0.13476189 0.00433396 0.00294059 0.54117647 0.42352941 0.64313725
v -0.13442090 0.00433396 0.00564295 0.54117647 0.42352941 0.64313725
v -0.13393374 0.00433396 0.00719988 0.54117647 0.42352941 0.64313725
v -0.13400683 0.00163739 0.00731521 0.54117647 0.42352941 0.64313725
v -0.13381196 -0.00520491 0.00700592 0.54117647 0.42352941 0.64313725
v -0.13132751 -0.00106284 0.00984720 0.54117647 0.42352941 0.64313725
v 0.11365901 0.00664530 -0.00553343 0.54117647 0.42352941 0.64313725
v 0.10993232 -0.00852883 -0.00667361 0.54117647 0.42352941 0.64313725
v 0.11363465 -0.00647064 -0.00567759 0.54117647 0.42352941 0.64313725
v 0.11363465 -0.00683385 -0.00565663 0.54117647 0.42352941 0.64313725
v 0.11363465 -0.00916354 -0.00551246 0.54117647 0.42352941 0.64313725
v 0.10523135 -0.00647064 -0.00791602 0.54117647 0.42352941 0.64313725
v 0.10250333 -0.00376307 -0.00829608 0.54117647 0.42352941 0.64313725
v 0.09984837 -0.00376307 -0.00842451 0.54117647 0.42352941 0.64313725
v 0.10250333 -0.00647064 -0.00815454 0.54117647 0.42352941 0.64313725
v -0.00554601 -0.00647064 -0.01062362 0.54117647 0.42352941 0.64313725
v -0.12976863 -0.00563782 -0.01207571 0.54117647 0.42352941 0.64313725
v -0.13127879 -0.00545072 -0.01200232 0.54117647 0.42352941 0.64313725
v -0.13293509 -0.00376307 -0.01116881 0.54117647 0.42352941 0.64313725
v -0.13420169 -0.00376307 -0.00981632 0.54117647 0.42352941 0.64313725
v -0.13420169 -0.00106284 -0.00989757 0.54117647 0.42352941 0.64313725
v -0.13498110 -0.00376307 -0.00516124 0.54117647 0.42352941 0.64313725
v -0.13500547 -0.00106284 -0.00516124 0.54117647 0.42352941 0.64313725
v -0.13493241 0.00068351 -0.00516124 0.54117647 0.42352941 0.64313725
v -0.13473754 -0.00376307 -0.00786097 0.54117647 0.42352941 0.64313725
v -0.13517597 -0.00376307 0.00024348 0.54117647 0.42352941 0.64313725
v -0.13118136 -0.00293392 0.00974760 0.54117647 0.42352941 0.64313725
v -0.12998785 -0.00380710 0.01019843 0.54117647 0.42352941 0.64313725
v -0.12918406 -0.00646330 0.00998612 0.54117647 0.42352941 0.64313725
v -0.12706497 -0.00646330 0.01049723 0.54117647 0.42352941 0.64313725
v -0.12436129 -0.00646330 0.01075148 0.54117647 0.42352941 0.64313725
v -0.00284234 -0.00564883 0.01263081 0.54117647 0.42352941 0.64313725
v 0.10523135 -0.00854351 0.01267013 0.54117647 0.42352941 0.64313725
v 0.10523135 -0.00646330 0.01318386 0.54117647 0.42352941 0.64313725
v 0.10523135 -0.00376307 0.01349053 0.54117647 0.42352941 0.64313725
v 0.10929904 -0.00782076 0.01239753 0.54117647 0.42352941 0.64313725
v 0.10795937 0.00127051 0.01316814 0.54117647 0.42352941 0.64313725
v 0.11022462 0.00164473 0.01261246 0.54117647 0.42352941 0.64313725
v 0.11365901 -0.00916354 0.01129405 0.54117647 0.42352941 0.64313725
v 0.11365901 -0.00877464 0.01131239 0.54117647 0.42352941 0.64313725
v 0.11365901 0.00704153 0.01174488 0.54117647 0.42352941 0.64313725
v -0.13451833 0.00163739 0.00564295 0.54117647 0.42352941 0.64313725
v -0.13498110 -0.00376307 0.00294059 0.54117647 0.42352941 0.64313725
v -0.13425039 -0.00625051 0.00582381 0.54117647 0.42352941 0.64313725
v -0.13369017 -0.00700262 0.00684341 0.54117647 0.42352941 0.64313725
v 0.11365901 0.00127051 -0.00555702 0.54117647 0.42352941 0.64313725
v 0.10900674 -0.01032654 -0.00644296 0.54117647 0.42352941 0.64313725
v 0.10800809 -0.00932129 -0.00690427 0.54117647 0.42352941 0.64313725
v 0.11363465 -0.00942035 -0.00541548 0.54117647 0.42352941 0.64313725
v 0.10523135 -0.00916354 -0.00735248 0.54117647 0.42352941 0.64313725
v 0.10250333 -0.00916354 -0.00741539 0.54117647 0.42352941 0.64313725
v 0.10523135 -0.01071177 -0.00666837 0.54117647 0.42352941 0.64313725
v -0.00554601 -0.00846280 -0.00970099 0.54117647 0.42352941 0.64313725
v -0.00817660 -0.00848848 -0.00972458 0.54117647 0.42352941 0.64313725
v -0.02167059 -0.00863156 -0.00981632 0.54117647 0.42352941 0.64313725
v -0.12976863 -0.00698794 -0.01155673 0.54117647 0.42352941 0.64313725
v -0.13123008 -0.01059803 -0.00928947 0.54117647 0.42352941 0.64313725
v -0.13181466 -0.00916721 -0.00979273 0.54117647 0.42352941 0.64313725
v -0.13249666 -0.00654402 -0.01062624 0.54117647 0.42352941 0.64313725
v -0.13405552 -0.00583961 -0.00954896 0.54117647 0.42352941 0.64313725
v -0.13507854 -0.00646697 -0.00245888 0.54117647 0.42352941 0.64313725
v -0.13512727 -0.00376307 -0.00245888 0.54117647 0.42352941 0.64313725
v -0.13488367 -0.00646697 -0.00516124 0.54117647 0.42352941 0.64313725
v -0.13434782 -0.00662840 -0.00804445 0.54117647 0.42352941 0.64313725
v -0.13515162 -0.00656970 0.00013339 0.54117647 0.42352941 0.64313725
v -0.13515162 -0.00646330 0.00024348 0.54117647 0.42352941 0.64313725
v -0.13502984 -0.00646330 0.00294059 0.54117647 0.42352941 0.64313725
v -0.13101086 -0.00473897 0.00962440 0.54117647 0.42352941 0.64313725
v -0.12864819 -0.00794550 0.00976332 0.54117647 0.42352941 0.64313725
v -0.13054807 -0.00646330 0.00944617 0.54117647 0.42352941 0.64313725
v -0.12706497 -0.00811793 0.00986817 0.54117647 0.42352941 0.64313725
v -0.12436129 -0.00824267 0.00996253 0.54117647 0.42352941 0.64313725
v 0.10523135 -0.00988996 0.01207514 0.54117647 0.42352941 0.64313725
v 0.10795937 -0.00954876 0.01210659 0.54117647 0.42352941 0.64313725
v 0.10795937 -0.00819864 0.01251286 0.54117647 0.42352941 0.64313725
v 0.11365901 -0.01130611 0.01047364 0.54117647 0.42352941 0.64313725
v -0.13407989 -0.00916354 0.00485924 0.54117647 0.42352941 0.64313725
v -0.13322738 -0.00916354 0.00620911 0.54117647 0.42352941 0.64313725
v -0.13188772 -0.00916354 0.00760616 0.54117647 0.42352941 0.64313725
v 0.11365901 -0.01225633 0.00294059 0.54117647 0.42352941 0.64313725
v 0.11363465 -0.01125475 -0.00458197 0.54117647 0.42352941 0.64313725
v 0.10720430 -0.01064573 -0.00661071 0.54117647 0.42352941 0.64313725
v 0.10523135 -0.01188578 -0.00515337 0.54117647 0.42352941 0.64313725
v -0.12706497 -0.01066040 -0.00934452 0.54117647 0.42352941 0.64313725
v -0.12976863 -0.00916721 -0.01034054 0.54117647 0.42352941 0.64313725
v -0.13135187 -0.01334596 -0.00417570 0.54117647 0.42352941 0.64313725
v -0.13183901 -0.01107498 -0.00786097 0.54117647 0.42352941 0.64313725
v -0.13378761 -0.01045862 -0.00643509 0.54117647 0.42352941 0.64313725
v -0.13327610 -0.00940201 -0.00804445 0.54117647 0.42352941 0.64313725
v -0.13371453 -0.00763732 -0.00906930 0.54117647 0.42352941 0.64313725
v -0.12976863 -0.01066040 -0.00934452 0.54117647 0.42352941 0.64313725
v -0.12976863 -0.01170601 -0.00786097 0.54117647 0.42352941 0.64313725
v -0.12976863 -0.01291304 -0.00593708 0.54117647 0.42352941 0.64313725
v -0.13410426 -0.00866091 -0.00726860 0.54117647 0.42352941 0.64313725
v -0.13483497 -0.00916721 -0.00245888 0.54117647 0.42352941 0.64313725
v -0.13434782 -0.00940201 -0.00538665 0.54117647 0.42352941 0.64313725
v -0.13488367 -0.00916721 0.00013339 0.54117647 0.42352941 0.64313725
v -0.13488367 -0.00916354 0.00024348 0.54117647 0.42352941 0.64313725
v -0.13459140 -0.00916354 0.00294059 0.54117647 0.42352941 0.64313725
v -0.13135187 -0.01069709 0.00717367 0.54117647 0.42352941 0.64313725
v -0.12976863 -0.01091722 0.00742268 0.54117647 0.42352941 0.64313725
v -0.12706497 -0.00947171 0.00896127 0.54117647 0.42352941 0.64313725
v -0.12436129 -0.00959278 0.00897437 0.54117647 0.42352941 0.64313725
v 0.10795937 -0.01166932 0.01075934 0.54117647 0.42352941 0.64313725
v 0.11063869 -0.01151156 0.01062567 0.54117647 0.42352941 0.64313725
v 0.11365901 -0.01215727 0.00861790 0.54117647 0.42352941 0.64313725
v 0.10795937 -0.01302311 0.00918144 0.54117647 0.42352941 0.64313725
v -0.13381196 -0.01052099 0.00429832 0.54117647 0.42352941 0.64313725
v 0.11365901 -0.01237740 0.00564295 0.54117647 0.42352941 0.64313725
v 0.11363465 -0.01222698 0.00024348 0.54117647 0.42352941 0.64313725
v 0.11363465 -0.01211325 -0.00207882 0.54117647 0.42352941 0.64313725
v 0.11363465 -0.01208756 -0.00245888 0.54117647 0.42352941 0.64313725
v 0.11061433 -0.01147121 -0.00488602 0.54117647 0.42352941 0.64313725
v 0.10800809 -0.01149689 -0.00538665 0.54117647 0.42352941 0.64313725
v 0.10793502 -0.01298642 -0.00298834 0.54117647 0.42352941 0.64313725
v 0.10523135 -0.01303778 -0.00350732 0.54117647 0.42352941 0.64313725
v -0.00817660 -0.01255350 -0.00553343 0.54117647 0.42352941 0.64313725
v -0.12706497 -0.01175737 -0.00786097 0.54117647 0.42352941 0.64313725
v -0.12976863 -0.01350005 -0.00458459 0.54117647 0.42352941 0.64313725
v -0.12976863 -0.01402469 -0.00245888 0.54117647 0.42352941 0.64313725
v -0.13159544 -0.01348171 -0.00245888 0.54117647 0.42352941 0.64313725
v -0.13295945 -0.01250948 -0.00245888 0.54117647 0.42352941 0.64313725
v -0.13256973 -0.01192247 -0.00530540 0.54117647 0.42352941 0.64313725
v -0.13403118 -0.01086586 -0.00463440 0.54117647 0.42352941 0.64313725
v -0.12706497 -0.01296441 -0.00615726 0.54117647 0.42352941 0.64313725
v -0.12706497 -0.01361011 -0.00480739 0.54117647 0.42352941 0.64313725
v -0.13422604 -0.01115936 -0.00245888 0.54117647 0.42352941 0.64313725
v -0.13427474 -0.01120339 0.00013339 0.54117647 0.42352941 0.64313725
v -0.13427474 -0.01120706 0.00024348 0.54117647 0.42352941 0.64313725
v -0.13400683 -0.01082550 0.00294059 0.54117647 0.42352941 0.64313725
v -0.13235051 -0.01109332 0.00537560 0.54117647 0.42352941 0.64313725
v -0.13049935 -0.01308915 0.00403097 0.54117647 0.42352941 0.64313725
v -0.12967120 -0.01237740 0.00541753 0.54117647 0.42352941 0.64313725
v -0.12706497 -0.01243243 0.00586836 0.54117647 0.42352941 0.64313725
v -0.12706497 -0.01108232 0.00760878 0.54117647 0.42352941 0.64313725
v -0.12436129 -0.01111533 0.00762450 0.54117647 0.42352941 0.64313725
v 0.10523135 -0.01296808 0.00921551 0.54117647 0.42352941 0.64313725
v 0.11365901 -0.01225266 0.00834269 0.54117647 0.42352941 0.64313725
v 0.10983490 -0.01332762 0.00748034 0.54117647 0.42352941 0.64313725
v 0.10795937 -0.01345236 0.00782895 0.54117647 0.42352941 0.64313725
v -0.12436129 -0.01346336 0.00467052 0.54117647 0.42352941 0.64313725
v -0.12436129 -0.01416043 0.00294059 0.54117647 0.42352941 0.64313725
v 0.10250333 -0.01356609 0.00773459 0.54117647 0.42352941 0.64313725
v 0.10523135 -0.01352573 0.00786564 0.54117647 0.42352941 0.64313725
v -0.13242359 -0.01230769 0.00305330 0.54117647 0.42352941 0.64313725
v 0.10995668 -0.01335330 0.00564295 0.54117647 0.42352941 0.64313725
v 0.10937211 -0.01322489 -0.00116930 0.54117647 0.42352941 0.64313725
v 0.10793502 -0.01335330 -0.00164110 0.54117647 0.42352941 0.64313725
v 0.10523135 -0.01358076 -0.00215483 0.54117647 0.42352941 0.64313725
v 0.10250333 -0.01366515 -0.00218104 0.54117647 0.42352941 0.64313725
v -0.01085591 -0.01342667 -0.00420191 0.54117647 0.42352941 0.64313725
v -0.12538431 -0.01295707 -0.00615201 0.54117647 0.42352941 0.64313725
v -0.12706497 -0.01432920 -0.00245888 0.54117647 0.42352941 0.64313725
v -0.12706497 -0.01461169 0.00024348 0.54117647 0.42352941 0.64313725
v -0.12976863 -0.01422280 0.00013339 0.54117647 0.42352941 0.64313725
v -0.13169287 -0.01355508 0.00013339 0.54117647 0.42352941 0.64313725
v -0.12984171 -0.01420079 0.00013339 0.54117647 0.42352941 0.64313725
v -0.13305688 -0.01255350 0.00013339 0.54117647 0.42352941 0.64313725
v -0.13310560 -0.01250214 0.00013339 0.54117647 0.42352941 0.64313725
v -0.12428822 -0.01363580 -0.00480215 0.54117647 0.42352941 0.64313725
v -0.12538431 -0.01434754 -0.00245888 0.54117647 0.42352941 0.64313725
v -0.13305688 -0.01255350 0.00024348 0.54117647 0.42352941 0.64313725
v -0.13147365 -0.01343768 0.00223027 0.54117647 0.42352941 0.64313725
v -0.12967120 -0.01363213 0.00305330 0.54117647 0.42352941 0.64313725
v -0.12869691 -0.01326525 0.00436647 0.54117647 0.42352941 0.64313725
v -0.12706497 -0.01336064 0.00451587 0.54117647 0.42352941 0.64313725
v -0.12436129 -0.01246545 0.00602039 0.54117647 0.42352941 0.64313725
v 0.10523135 -0.01409440 0.00564295 0.54117647 0.42352941 0.64313725
v 0.10523135 -0.01437322 0.00294059 0.54117647 0.42352941 0.64313725
v 0.10250333 -0.01429985 0.00564295 0.54117647 0.42352941 0.64313725
v -0.12706497 -0.01403203 0.00294059 0.54117647 0.42352941 0.64313725
v -0.12436129 -0.01463371 0.00024348 0.54117647 0.42352941 0.64313725
v 0.10523135 -0.01417144 0.00024348 0.54117647 0.42352941 0.64313725
v 0.10250333 -0.01440991 0.00024348 0.54117647 0.42352941 0.64313725
v -0.00817660 -0.01401001 -0.00245888 0.54117647 0.42352941 0.64313725
v -0.12538431 -0.01461536 0.00013339 0.54117647 0.42352941 0.64313725
v -0.12976863 -0.01423014 0.00024348 0.54117647 0.42352941 0.64313725
v -0.13169287 -0.01355508 0.00024348 0.54117647 0.42352941 0.64313725
v -0.12428822 -0.01435121 -0.00245888 0.54117647 0.42352941 0.64313725
v -0.12436129 -0.01462270 0.00013339 0.54117647 0.42352941 0.64313725
v -0.12443437 -0.01462270 0.00013601 0.54117647 0.42352941 0.64313725
v 0.10250333 -0.01471075 0.00294059 0.54117647 0.42352941 0.64313725
v -0.00817660 -0.01453832 0.00024348 0.54117647 0.42352941 0.64313725
f 1 2 7
f 1 7 21
f 1 21 44
f 1 44 47
f 1 47 78
f 1 78 112
f 1 112 146
f 1 146 145
f 1 145 200
f 1 200 258
f 1 258 257
f 1 257 300
f 1 300 299
f 1 299 298
f 1 298 335
f 1 335 365
f 1 365 397
f 1 397 368
f 1 368 339
f 1 339 305
f 1 305 266
f 1 266 214
f 1 214 163
f 1 163 124
f 1 124 90
f 1 90 62
f 1 62 61
f 1 61 60
f 1 60 37
f 1 37 36
f 1 36 35
f 1 35 13
f 1 13 3
f 1 3 4
f 1 4 5
f 1 5 6
f 1 6 2
f 2 6 8
f 2 8 9
f 2 9 10
f 2 10 11
f 2 11 12
f 2 12 7
f 3 13 4
f 4 13 14
f 4 14 15
f 4 15 16
f 4 16 5
f 5 16 17
f 5 17 18
f 5 18 19
f 5 19 20
f 5 20 6
f 6 20 8
f 7 12 22
f 7 22 23
f 7 23 24
f 7 24 21
f 8 25 9
f 8 20 26
f 8 26 27
f 8 27 25
f 9 25 10
f 10 28 11
f 10 25 29
f 10 29 30
f 10 30 31
f 10 31 28
f 11 28 12
f 12 28 32
f 12 32 33
f 12 33 34
f 12 34 23
f 12 23 22
f 13 35 14
f 14 35 36
f 14 36 37
f 14 37 38
f 14 38 39
f 14 39 40
f 14 40 15
f 15 40 17
f 15 17 16
f 17 41 42
f 17 42 43
f 17 43 18
f 17 40 41
f 18 43 26
f 18 26 19
f 19 26 20
f 21 24 44
f 23 34 24
f 24 34 45
f 24 45 46
f 24 46 47
f 24 47 44
f 25 27 29
f 26 43 48
f 26 48 49
f 26 49 29
f 26 29 27
f 28 31 50
f 28 50 32
f 29 49 51
f 29 51 30
f 30 51 31
f 31 51 52
f 31 52 53
f 31 53 54
f 31 54 50
f 32 50 55
f 32 55 56
f 32 56 33
f 33 56 57
f 33 57 58
f 33 58 59
f 33 59 34
f 34 59 45
f 37 60 38
f 38 60 61
f 38 61 62
f 38 62 63
f 38 63 64
f 38 64 65
f 38 65 66
f 38 66 39
f 39 66 40
f 40 66 67
f 40 67 68
f 40 68 69
f 40 69 41
f 41 69 42
f 42 69 70
f 42 70 71
f 42 71 48
f 42 48 43
f 45 59 72
f 45 72 73
f 45 73 74
f 45 74 75
f 45 75 46
f 46 75 76
f 46 76 77
f 46 77 78
f 46 78 47
f 48 71 79
f 48 79 49
f 49 79 80
f 49 80 51
f 50 54 55
f 51 80 81
f 51 81 52
f 52 81 53
f 53 81 82
f 53 82 83
f 53 83 84
f 53 84 54
f 54 84 85
f 54 85 86
f 54 86 55
f 55 86 56
f 56 86 57
f 57 86 87
f 57 87 88
f 57 88 58
f 58 88 89
f 58 89 59
f 59 89 72
f 62 90 91
f 62 91 92
f 62 92 93
f 62 93 64
f 62 64 63
f 64 93 65
f 65 93 94
f 65 94 67
f 65 67 66
f 67 94 68
f 68 95 96
f 68 96 97
f 68 97 98
f 68 98 99
f 68 99 69
f 68 94 95
f 69 99 100
f 69 100 70
f 70 100 101
f 70 101 71
f 71 101 79
f 72 102 103
f 72 103 73
f 72 89 104
f 72 104 102
f 73 103 105
f 73 105 106
f 73 106 74
f 74 106 107
f 74 107 75
f 75 107 76
f 76 107 108
f 76 108 109
f 76 109 110
f 76 110 111
f 76 111 77
f 77 111 112
f 77 112 78
f 79 101 113
f 79 113 114
f 79 114 115
f 79 115 80
f 80 115 116
f 80 116 81
f 81 117 83
f 81 83 82
f 81 116 118
f 81 118 119
f 81 119 117
f 83 117 119
f 83 119 84
f 84 119 120
f 84 120 85
f 85 120 86
f 86 120 87
f 87 120 121
f 87 121 88
f 88 121 122
f 88 122 89
f 89 122 123
f 89 123 104
f 90 124 91
f 91 125 92
f 91 124 125
f 92 125 126
f 92 126 93
f 93 126 127
f 93 127 128
f 93 128 94
f 94 128 129
f 94 129 96
f 94 96 95
f 96 130 131
f 96 131 97
f 96 129 130
f 97 131 98
f 98 131 99
f 99 131 132
f 99 132 100
f 100 132 101
f 101 133 134
f 101 134 135
f 101 135 113
f 101 132 133
f 102 136 103
f 102 104 136
f 103 136 105
f 104 123 137
f 104 137 136
f 105 138 107
f 105 107 106
f 105 136 138
f 107 138 139
f 107 139 140
f 107 140 108
f 108 141 109
f 108 140 141
f 109 142 143
f 109 143 144
f 109 144 145
f 109 145 146
f 109 146 147
f 109 147 110
f 109 141 148
f 109 148 142
f 110 147 146
f 110 146 149
f 110 149 111
f 111 149 112
f 112 149 146
f 113 135 114
f 114 135 150
f 114 150 151
f 114 151 152
f 114 152 153
f 114 153 115
f 115 153 154
f 115 154 116
f 116 154 118
f 118 154 155
f 118 155 119
f 119 155 156
f 119 156 120
f 120 156 157
f 120 157 158
f 120 158 121
f 121 158 159
f 121 159 160
f 121 160 122
f 122 160 123
f 123 161 137
f 123 160 162
f 123 162 161
f 124 163 164
f 124 164 165
f 124 165 125
f 125 166 167
f 125 167 168
f 125 168 169
f 125 169 126
f 125 165 166
f 126 169 170
f 126 170 171
f 126 171 127
f 127 171 129
f 127 129 128
f 129 172 130
f 129 171 172
f 130 173 174
f 130 174 175
f 130 175 131
f 130 172 173
f 131 175 176
f 131 176 177
f 131 177 178
f 131 178 179
f 131 179 132
f 132 179 177
f 132 177 180
f 132 180 133
f 133 180 181
f 133 181 134
f 134 181 180
f 134 180 177
f 134 177 182
f 134 182 183
f 134 183 184
f 134 184 150
f 134 150 135
f 136 137 185
f 136 185 186
f 136 186 187
f 136 187 138
f 137 161 185
f 138 188 139
f 138 187 188
f 139 189 190
f 139 190 140
f 139 188 191
f 139 191 189
f 140 190 192
f 140 192 193
f 140 193 194
f 140 194 141
f 141 194 195
f 141 195 148
f 142 148 195
f 142 195 196
f 142 196 143
f 143 197 198
f 143 198 199
f 143 199 144
f 143 196 197
f 144 199 200
f 144 200 145
f 150 184 201
f 150 201 151
f 151 201 202
f 151 202 152
f 152 203 204
f 152 204 153
f 152 202 205
f 152 205 203
f 153 204 154
f 154 204 206
f 154 206 155
f 155 206 207
f 155 207 156
f 156 207 157
f 157 207 208
f 157 208 209
f 157 209 158
f 158 209 159
f 159 209 160
f 160 209 210
f 160 210 162
f 161 162 211
f 161 211 212
f 161 212 185
f 162 210 213
f 162 213 211
f 163 214 215
f 163 215 216
f 163 216 217
f 163 217 164
f 164 218 219
f 164 219 220
f 164 220 166
f 164 166 165
f 164 217 221
f 164 221 222
f 164 222 218
f 166 220 223
f 166 223 224
f 166 224 225
f 166 225 167
f 167 225 226
f 167 226 227
f 167 227 168
f 168 227 228
f 168 228 169
f 169 228 172
f 169 172 171
f 169 171 170
f 172 229 173
f 172 228 226
f 172 226 230
f 172 230 229
f 173 231 232
f 173 232 233
f 173 233 174
f 173 229 234
f 173 234 231
f 174 233 175
f 175 233 235
f 175 235 176
f 176 235 236
f 176 236 177
f 177 236 183
f 177 183 182
f 177 179 178
f 183 237 238
f 183 238 239
f 183 239 184
f 183 236 240
f 183 240 237
f 184 239 201
f 185 212 241
f 185 241 242
f 185 242 243
f 185 243 244
f 185 244 186
f 186 244 187
f 187 244 243
f 187 243 191
f 187 191 188
f 189 191 245
f 189 245 246
f 189 246 190
f 190 246 247
f 190 247 248
f 190 248 193
f 190 193 192
f 191 243 249
f 191 249 245
f 193 248 250
f 193 250 195
f 193 195 194
f 195 250 251
f 195 251 196
f 196 251 197
f 197 252 253
f 197 253 254
f 197 254 255
f 197 255 198
f 197 251 250
f 197 250 252
f 198 255 256
f 198 256 199
f 199 256 257
f 199 257 258
f 199 258 200
f 201 239 202
f 202 239 238
f 202 238 259
f 202 259 260
f 202 260 205
f 203 206 204
f 203 205 206
f 205 260 261
f 205 261 208
f 205 208 207
f 205 207 206
f 208 261 209
f 209 261 262
f 209 262 210
f 210 262 263
f 210 263 213
f 211 213 264
f 211 264 265
f 211 265 241
f 211 241 212
f 213 263 264
f 214 266 215
f 215 267 222
f 215 222 216
f 215 266 268
f 215 268 269
f 215 269 270
f 215 270 267
f 216 222 221
f 216 221 217
f 218 222 271
f 218 271 219
f 219 272 223
f 219 223 220
f 219 271 272
f 222 267 271
f 223 273 230
f 223 230 226
f 223 226 224
f 223 272 274
f 223 274 273
f 224 226 225
f 226 228 227
f 229 230 234
f 230 273 274
f 230 274 275
f 230 275 231
f 230 231 234
f 231 276 277
f 231 277 232
f 231 275 276
f 232 278 233
f 232 277 278
f 233 278 235
f 235 278 279
f 235 279 280
f 235 280 240
f 235 240 236
f 237 281 282
f 237 282 283
f 237 283 238
f 237 240 280
f 237 280 279
f 237 279 284
f 237 284 281
f 238 283 285
f 238 285 260
f 238 260 259
f 241 265 286
f 241 286 287
f 241 287 242
f 242 287 288
f 242 288 289
f 242 289 290
f 242 290 243
f 243 290 249
f 245 249 290
f 245 290 246
f 246 291 292
f 246 292 247
f 246 290 291
f 247 292 293
f 247 293 248
f 248 293 294
f 248 294 250
f 250 294 252
f 252 294 295
f 252 295 254
f 252 254 253
f 254 295 296
f 254 296 255
f 255 297 256
f 255 296 298
f 255 298 299
f 255 299 297
f 256 297 299
f 256 299 300
f 256 300 257
f 260 301 261
f 260 285 302
f 260 302 301
f 261 301 263
f 261 263 262
f 263 301 303
f 263 303 264
f 264 304 286
f 264 286 265
f 264 303 304
f 266 305 268
f 267 270 306
f 267 306 307
f 267 307 271
f 268 305 269
f 269 305 270
f 270 305 308
f 270 308 306
f 271 309 274
f 271 274 272
f 271 307 309
f 274 309 310
f 274 310 275
f 275 310 311
f 275 311 312
f 275 312 313
f 275 313 314
f 275 314 315
f 275 315 276
f 276 315 277
f 277 316 317
f 277 317 318
f 277 318 278
f 277 315 316
f 278 318 319
f 278 319 279
f 279 319 284
f 281 320 321
f 281 321 282
f 281 284 322
f 281 322 320
f 282 321 285
f 282 285 283
f 284 319 323
f 284 323 322
f 285 324 325
f 285 325 326
f 285 326 302
f 285 321 324
f 286 327 287
f 286 304 327
f 287 327 288
f 288 328 289
f 288 327 329
f 288 329 328
f 289 328 330
f 289 330 290
f 290 331 291
f 290 330 331
f 291 332 292
f 291 331 332
f 292 332 333
f 292 333 334
f 292 334 293
f 293 334 295
f 293 295 294
f 295 334 298
f 295 298 296
f 298 334 333
f 298 333 335
f 301 302 326
f 301 326 303
f 303 326 336
f 303 336 304
f 304 336 337
f 304 337 338
f 304 338 327
f 305 339 340
f 305 340 308
f 306 341 307
f 306 308 340
f 306 340 341
f 307 341 309
f 309 311 310
f 309 341 311
f 311 314 313
f 311 313 312
f 311 341 342
f 311 342 343
f 311 343 314
f 314 343 344
f 314 344 315
f 315 344 316
f 316 345 346
f 316 346 347
f 316 347 348
f 316 348 349
f 316 349 317
f 316 344 350
f 316 350 351
f 316 351 352
f 316 352 345
f 317 349 318
f 318 349 319
f 319 349 353
f 319 353 323
f 320 324 321
f 320 322 354
f 320 354 324
f 322 323 355
f 322 355 354
f 323 353 355
f 324 354 356
f 324 356 357
f 324 357 326
f 324 326 325
f 326 357 358
f 326 358 336
f 327 338 329
f 328 329 338
f 328 338 359
f 328 359 360
f 328 360 361
f 328 361 330
f 330 361 331
f 331 362 332
f 331 361 362
f 332 363 333
f 332 362 363
f 333 363 364
f 333 364 335
f 335 364 366
f 335 366 365
f 336 367 337
f 336 358 367
f 337 359 338
f 337 367 359
f 339 368 369
f 339 369 370
f 339 370 371
f 339 371 340
f 340 372 373
f 340 373 341
f 340 371 374
f 340 374 375
f 340 375 372
f 341 373 342
f 342 373 375
f 342 375 376
f 342 376 343
f 343 377 350
f 343 350 344
f 343 376 377
f 345 352 378
f 345 378 379
f 345 379 380
f 345 380 381
f 345 381 382
f 345 382 346
f 346 382 347
f 347 383 355
f 347 355 353
f 347 353 349
f 347 349 348
f 347 382 383
f 350 377 384
f 350 384 351
f 351 384 352
f 352 384 385
f 352 385 378
f 354 355 383
f 354 383 386
f 354 386 387
f 354 387 356
f 356 388 357
f 356 387 388
f 357 388 358
f 358 388 389
f 358 389 367
f 359 367 390
f 359 390 391
f 359 391 392
f 359 392 360
f 360 392 393
f 360 393 394
f 360 394 361
f 361 394 362
f 362 395 363
f 362 394 395
f 363 396 366
f 363 366 364
f 363 395 396
f 365 366 398
f 365 398 397
f 366 399 398
f 366 396 400
f 366 400 401
f 366 401 402
f 366 402 403
f 366 403 399
f 367 389 404
f 367 404 390
f 368 397 398
f 368 398 405
f 368 405 369
f 369 405 406
f 369 406 370
f 370 406 371
f 371 406 374
f 372 375 373
f 374 406 407
f 374 407 408
f 374 408 375
f 375 408 409
f 375 409 410
f 375 410 376
f 376 410 411
f 376 411 377
f 377 411 384
f 378 385 412
f 378 412 379
f 379 412 413
f 379 413 414
f 379 414 380
f 380 415 381
f 380 414 416
f 380 416 415
f 381 415 417
f 381 417 418
f 381 418 386
f 381 386 383
f 381 383 382
f 384 411 410
f 384 410 419
f 384 419 385
f 385 420 412
f 385 419 420
f 386 418 387
f 387 418 388
f 388 418 421
f 388 421 389
f 389 421 404
f 390 404 422
f 390 422 391
f 391 422 423
f 391 423 424
f 391 424 392
f 392 424 393
f 393 424 425
f 393 425 400
f 393 400 426
f 393 426 394
f 394 426 395
f 395 426 396
f 396 426 400
f 398 399 427
f 398 427 428
f 398 428 405
f 399 403 429
f 399 429 427
f 400 425 430
f 400 430 401
f 401 431 429
f 401 429 402
f 401 430 413
f 401 413 431
f 402 429 403
f 404 421 422
f 405 428 406
f 406 428 432
f 406 432 407
f 407 432 408
f 408 432 433
f 408 433 409
f 409 433 434
f 409 434 410
f 410 434 419
f 412 420 413
f 413 420 435
f 413 435 431
f 413 430 436
f 413 436 414
f 414 436 416
f 415 416 436
f 415 436 437
f 415 437 421
f 415 421 417
f 417 421 418
f 419 434 438
f 419 438 420
f 420 438 439
f 420 439 440
f 420 440 435
f 421 437 422
f 422 436 423
f 422 437 436
f 423 430 424
f 423 436 430
f 424 430 425
f 427 429 441
f 427 441 428
f 428 441 432
f 429 431 441
f 431 442 441
f 431 435 440
f 431 440 439
f 431 439 442
f 432 441 433
f 433 441 442
f 433 442 438
f 433 438 434
f 438 442 439

