# https://github.com/mikedh/trimesh

o geometry_0
v 0.12959915 0.00974336 0.01593679 0.54509804 0.71372549 0.60000000
v 0.12689852 0.00974336 0.01574727 0.54509804 0.71372549 0.60000000
v 0.12689852 0.00434632 0.01575912 0.54509804 0.71372549 0.60000000
v 0.12689852 -0.00105877 0.01574964 0.54509804 0.71372549 0.60000000
v 0.12959915 -0.00105877 0.01584203 0.54509804 0.71372549 0.60000000
v 0.13230212 0.00704082 0.01562882 0.54509804 0.71372549 0.60000000
v 0.13230212 0.00974336 0.01564777 0.54509804 0.71372549 0.60000000
v 0.13230212 0.01244590 0.01555775 0.54509804 0.71372549 0.60000000
v 0.12959915 0.01244590 0.01583492 0.54509804 0.71372549 0.60000000
v 0.12689852 0.01244590 0.01564777 0.54509804 0.71372549 0.60000000
v 0.12463781 0.00974336 0.01532559 0.54509804 0.71372549 0.60000000
v 0.12404499 0.00687191 0.01531374 0.54509804 0.71372549 0.60000000
v 0.12419790 0.00434632 0.01542272 0.54509804 0.71372549 0.60000000
v 0.12419790 -0.00105877 0.01539666 0.54509804 0.71372549 0.60000000
v 0.12404499 -0.00373718 0.01532085 0.54509804 0.71372549 0.60000000
v 0.12689852 -0.00376132 0.01567146 0.54509804 0.71372549 0.60000000
v 0.12959915 -0.00376132 0.01566436 0.54509804 0.71372549 0.60000000
v 0.13131644 -0.00835403 0.01515976 0.54509804 0.71372549 0.60000000
v 0.13174459 -0.00646386 0.01523320 0.54509804 0.71372549 0.60000000
v 0.13206688 -0.00376132 0.01534217 0.54509804 0.71372549 0.60000000
v 0.13250913 -0.00114725 0.01541798 0.54509804 0.71372549 0.60000000
v 0.13230212 0.00164377 0.01554827 0.54509804 0.71372549 0.60000000
v 0.13391120 0.00704082 0.01525689 0.54509804 0.71372549 0.60000000
v 0.13389238 0.00974336 0.01523320 0.54509804 0.71372549 0.60000000
v 0.13384768 0.01244590 0.01520714 0.54509804 0.71372549 0.60000000
v 0.13376770 0.01445672 0.01516923 0.54509804 0.71372549 0.60000000
v 0.13248326 0.01527714 0.01533980 0.54509804 0.71372549 0.60000000
v 0.13136584 0.01972508 0.01515028 0.54509804 0.71372549 0.60000000
v 0.13124822 0.05180974 0.01246857 0.54509804 0.71372549 0.60000000
v 0.12959915 0.05026543 0.01266283 0.54509804 0.71372549 0.60000000
v 0.12772894 0.05026543 0.01254201 0.54509804 0.71372549 0.60000000
v 0.12533413 0.01436825 0.01517397 0.54509804 0.71372549 0.60000000
v 0.12500714 0.01244590 0.01526399 0.54509804 0.71372549 0.60000000
v 0.12281700 0.00585041 0.01511001 0.54509804 0.71372549 0.60000000
v 0.12275584 0.00434632 0.01512659 0.54509804 0.71372549 0.60000000
v 0.12272997 -0.00105877 0.01513607 0.54509804 0.71372549 0.60000000
v 0.12272997 -0.00282025 0.01513607 0.54509804 0.71372549 0.60000000
v 0.12467310 -0.00646386 0.01528295 0.54509804 0.71372549 0.60000000
v 0.12508477 -0.00862750 0.01519056 0.54509804 0.71372549 0.60000000
v 0.12689852 -0.00646386 0.01549379 0.54509804 0.71372549 0.60000000
v 0.12871698 -0.01092788 0.01514318 0.54509804 0.71372549 0.60000000
v 0.12961090 -0.00922271 0.01523557 0.54509804 0.71372549 0.60000000
v 0.13230212 -0.01997658 0.01364834 0.54509804 0.71372549 0.60000000
v 0.13309489 -0.00646386 0.01494418 0.54509804 0.71372549 0.60000000
v 0.13374182 -0.00031074 0.01515739 0.54509804 0.71372549 0.60000000
v 0.13379122 0.00164377 0.01518345 0.54509804 0.71372549 0.60000000
v 0.13385474 0.00434632 0.01521898 0.54509804 0.71372549 0.60000000
v 0.13496745 0.00434632 0.01375020 0.54509804 0.71372549 0.60000000
v 0.13503332 0.00704082 0.01375020 0.54509804 0.71372549 0.60000000
v 0.13509449 0.01244590 0.01375020 0.54509804 0.71372549 0.60000000
v 0.13624484 0.02324803 0.01204215 0.54509804 0.71372549 0.60000000
v 0.13618367 0.02595058 0.01194976 0.54509804 0.71372549 0.60000000
v 0.13317959 0.01784295 0.01501999 0.54509804 0.71372549 0.60000000
v 0.13635775 0.05163278 0.00970158 0.54509804 0.71372549 0.60000000
v 0.13515565 0.05271059 0.01040991 0.54509804 0.71372549 0.60000000
v 0.13276320 0.05026543 0.01209427 0.54509804 0.71372549 0.60000000
v 0.13221037 0.05281515 0.01183368 0.54509804 0.71372549 0.60000000
v 0.12959915 0.05319318 0.01185026 0.54509804 0.71372549 0.60000000
v 0.12959915 0.05184191 0.01248042 0.54509804 0.71372549 0.60000000
v 0.12809357 0.05172126 0.01243778 0.54509804 0.71372549 0.60000000
v 0.12637628 0.05026543 0.01207769 0.54509804 0.71372549 0.60000000
v 0.11710995 0.01433607 0.01255386 0.54509804 0.71372549 0.60000000
v 0.12501656 0.03945525 0.01270074 0.54509804 0.71372549 0.60000000
v 0.11879431 0.00704082 0.01367203 0.54509804 0.71372549 0.60000000
v 0.11879431 0.00434632 0.01375257 0.54509804 0.71372549 0.60000000
v 0.11879431 0.00164377 0.01374073 0.54509804 0.71372549 0.60000000
v 0.11879431 -0.00376132 0.01371230 0.54509804 0.71372549 0.60000000
v 0.11879431 -0.00646386 0.01368387 0.54509804 0.71372549 0.60000000
v 0.11879431 -0.00916640 0.01350856 0.54509804 0.71372549 0.60000000
v 0.12149728 -0.01727403 0.01346118 0.54509804 0.71372549 0.60000000
v 0.12419790 -0.01997658 0.01386865 0.54509804 0.71372549 0.60000000
v 0.12672915 -0.00938357 0.01525452 0.54509804 0.71372549 0.60000000
v 0.12751722 -0.01092788 0.01514318 0.54509804 0.71372549 0.60000000
v 0.12689852 -0.01997658 0.01395394 0.54509804 0.71372549 0.60000000
v 0.12959915 -0.01997658 0.01394446 0.54509804 0.71372549 0.60000000
v 0.12689852 -0.02267912 0.01349198 0.54509804 0.71372549 0.60000000
v 0.12973794 -0.02291238 0.01309636 0.54509804 0.71372549 0.60000000
v 0.13230212 -0.02230108 0.01296606 0.54509804 0.71372549 0.60000000
v 0.13393237 -0.02177827 0.01265336 0.54509804 0.71372549 0.60000000
v 0.13416526 -0.01997658 0.01288315 0.54509804 0.71372549 0.60000000
v 0.13341718 -0.00376132 0.01501999 0.54509804 0.71372549 0.60000000
v 0.13431817 -0.01727403 0.01306556 0.54509804 0.71372549 0.60000000
v 0.13484748 0.00164377 0.01375020 0.54509804 0.71372549 0.60000000
v 0.13439816 -0.01457149 0.01320296 0.54509804 0.71372549 0.60000000
v 0.13628013 0.01514845 0.01203978 0.54509804 0.71372549 0.60000000
v 0.13628013 0.01784295 0.01202794 0.54509804 0.71372549 0.60000000
v 0.13655065 0.02595058 0.01059943 0.54509804 0.71372549 0.60000000
v 0.13667063 0.05052281 0.00848865 0.54509804 0.71372549 0.60000000
v 0.13656477 0.05271059 0.00827544 0.54509804 0.71372549 0.60000000
v 0.13616015 0.05343448 0.00912828 0.54509804 0.71372549 0.60000000
v 0.13435817 0.05485814 0.01016590 0.54509804 0.71372549 0.60000000
v 0.13230212 0.05516378 0.01047861 0.54509804 0.71372549 0.60000000
v 0.12959915 0.05510748 0.01049993 0.54509804 0.71372549 0.60000000
v 0.12735961 0.05478575 0.01019196 0.54509804 0.71372549 0.60000000
v 0.12682560 0.05301623 0.01116325 0.54509804 0.71372549 0.60000000
v 0.12504949 0.05250950 0.01033410 0.54509804 0.71372549 0.60000000
v 0.12475308 0.05026543 0.01072499 0.54509804 0.71372549 0.60000000
v 0.11368241 0.01537366 0.01073446 0.54509804 0.71372549 0.60000000
v 0.11368241 0.01273546 0.01139068 0.54509804 0.71372549 0.60000000
v 0.11368241 0.01244590 0.01142858 0.54509804 0.71372549 0.60000000
v 0.11368241 0.01011335 0.01164653 0.54509804 0.71372549 0.60000000
v 0.11656182 0.00704082 0.01285946 0.54509804 0.71372549 0.60000000
v 0.11368241 0.00744298 0.01175313 0.54509804 0.71372549 0.60000000
v 0.11662298 0.00434632 0.01291868 0.54509804 0.71372549 0.60000000
v 0.11676884 -0.00376132 0.01289499 0.54509804 0.71372549 0.60000000
v 0.11678060 -0.00646386 0.01287130 0.54509804 0.71372549 0.60000000
v 0.11368241 -0.00916640 0.01129829 0.54509804 0.71372549 0.60000000
v 0.12125732 -0.02014549 0.01303713 0.54509804 0.71372549 0.60000000
v 0.12179369 -0.02267912 0.01291395 0.54509804 0.71372549 0.60000000
v 0.12419790 -0.02267912 0.01351330 0.54509804 0.71372549 0.60000000
v 0.12419790 -0.02440038 0.01281919 0.54509804 0.71372549 0.60000000
v 0.12689852 -0.02426364 0.01273153 0.54509804 0.71372549 0.60000000
v 0.12892869 -0.02411887 0.01255149 0.54509804 0.71372549 0.60000000
v 0.13424054 -0.02216435 0.01104717 0.54509804 0.71372549 0.60000000
v 0.13492981 -0.01997658 0.01104717 0.54509804 0.71372549 0.60000000
v 0.13509684 -0.01727403 0.01104717 0.54509804 0.71372549 0.60000000
v 0.13624955 0.01244590 0.01181710 0.54509804 0.71372549 0.60000000
v 0.13650831 0.01514845 0.01068945 0.54509804 0.71372549 0.60000000
v 0.13744460 0.03405821 0.00564348 0.54509804 0.71372549 0.60000000
v 0.13653889 0.02324803 0.01069182 0.54509804 0.71372549 0.60000000
v 0.13724463 0.05026543 0.00564348 0.54509804 0.71372549 0.60000000
v 0.13696704 0.05296797 0.00564348 0.54509804 0.71372549 0.60000000
v 0.13642362 0.05446402 0.00732784 0.54509804 0.71372549 0.60000000
v 0.13499568 0.05555790 0.00816647 0.54509804 0.71372549 0.60000000
v 0.13382887 0.05711026 0.00720465 0.54509804 0.71372549 0.60000000
v 0.13230212 0.05651506 0.00880136 0.54509804 0.71372549 0.60000000
v 0.12959915 0.05645876 0.00876819 0.54509804 0.71372549 0.60000000
v 0.12555997 0.05431120 0.00968500 0.54509804 0.71372549 0.60000000
v 0.12807710 0.05711026 0.00716201 0.54509804 0.71372549 0.60000000
v 0.12466369 0.05323340 0.00860947 0.54509804 0.71372549 0.60000000
v 0.11368241 0.02196111 0.00700092 0.54509804 0.71372549 0.60000000
v 0.11368241 0.02094765 0.00777321 0.54509804 0.71372549 0.60000000
v 0.11368241 0.02068223 0.00794615 0.54509804 0.71372549 0.60000000
v 0.11368241 0.01849445 0.00924910 0.54509804 0.71372549 0.60000000
v 0.11368241 0.01708688 0.01000481 0.54509804 0.71372549 0.60000000
v 0.11368241 0.01592060 0.01052125 0.54509804 0.71372549 0.60000000
v 0.11368241 0.00704082 0.01174840 0.54509804 0.71372549 0.60000000
v 0.11368241 -0.00646386 0.01138120 0.54509804 0.71372549 0.60000000
v 0.11368241 -0.00878032 0.01131724 0.54509804 0.71372549 0.60000000
v 0.11368241 -0.01130591 0.01047861 0.54509804 0.71372549 0.60000000
v 0.12044338 -0.02267912 0.01199477 0.54509804 0.71372549 0.60000000
v 0.12019872 -0.02115894 0.01233354 0.54509804 0.71372549 0.60000000
v 0.12229241 -0.02430386 0.01266757 0.54509804 0.71372549 0.60000000
v 0.12211597 -0.02436821 0.00653659 0.54509804 0.71372549 0.60000000
v 0.12211833 -0.02442451 -0.00516153 0.54509804 0.71372549 0.60000000
v 0.12411556 -0.02448082 -0.00524208 0.54509804 0.71372549 0.60000000
v 0.12892869 -0.02411887 0.01226010 0.54509804 0.71372549 0.60000000
v 0.13441227 -0.02231717 0.00834651 0.54509804 0.71372549 0.60000000
v 0.13518152 -0.01997658 0.00834651 0.54509804 0.71372549 0.60000000
v 0.13636481 -0.00532171 0.00438317 0.54509804 0.71372549 0.60000000
v 0.13650831 0.00143465 0.00588749 0.54509804 0.71372549 0.60000000
v 0.13638833 0.00219876 0.00725914 0.54509804 0.71372549 0.60000000
v 0.13646362 0.01244590 0.01046677 0.54509804 0.71372549 0.60000000
v 0.13676944 0.01514845 0.00834651 0.54509804 0.71372549 0.60000000
v 0.13742107 0.03135566 0.00564348 0.54509804 0.71372549 0.60000000
v 0.13771277 0.03405821 0.00294519 0.54509804 0.71372549 0.60000000
v 0.13722110 0.05026543 0.00294519 0.54509804 0.71372549 0.60000000
v 0.13695764 0.05296797 0.00294519 0.54509804 0.71372549 0.60000000
v 0.13652479 0.05464902 0.00294519 0.54509804 0.71372549 0.60000000
v 0.13651066 0.05465706 0.00564348 0.54509804 0.71372549 0.60000000
v 0.13539560 0.05600833 0.00564348 0.54509804 0.71372549 0.60000000
v 0.13404529 0.05721482 0.00564348 0.54509804 0.71372549 0.60000000
v 0.13230212 0.05764916 0.00564348 0.54509804 0.71372549 0.60000000
v 0.13230212 0.05723895 0.00744866 0.54509804 0.71372549 0.60000000
v 0.12959915 0.05723895 0.00741786 0.54509804 0.71372549 0.60000000
v 0.12512947 0.05478575 0.00788456 0.54509804 0.71372549 0.60000000
v 0.12959915 0.05768938 0.00564348 0.54509804 0.71372549 0.60000000
v 0.12779716 0.05724700 0.00564348 0.54509804 0.71372549 0.60000000
v 0.12644685 0.05647484 0.00564348 0.54509804 0.71372549 0.60000000
v 0.12485423 0.05512357 0.00564348 0.54509804 0.71372549 0.60000000
v 0.12405440 0.05296797 0.00564348 0.54509804 0.71372549 0.60000000
v 0.11368241 0.02273326 0.00568612 0.54509804 0.71372549 0.60000000
v 0.11368241 -0.01215850 0.00861895 0.54509804 0.71372549 0.60000000
v 0.12000347 -0.02420734 0.01012326 0.54509804 0.71372549 0.60000000
v 0.12241238 -0.02430386 -0.00678904 0.54509804 0.71372549 0.60000000
v 0.12419790 -0.02440038 -0.00692881 0.54509804 0.71372549 0.60000000
v 0.12000347 -0.02420734 0.00911881 0.54509804 0.71372549 0.60000000
v 0.11368241 -0.01209416 -0.00245850 0.54509804 0.71372549 0.60000000
v 0.12689852 -0.02426364 -0.00682457 0.54509804 0.71372549 0.60000000
v 0.12884165 -0.02411887 -0.00664690 0.54509804 0.71372549 0.60000000
v 0.13476044 -0.02210805 -0.00245850 0.54509804 0.71372549 0.60000000
v 0.13601900 -0.01997658 -0.00245850 0.54509804 0.71372549 0.60000000
v 0.13637423 -0.01620428 -0.00347244 0.54509804 0.71372549 0.60000000
v 0.13663534 -0.00105877 0.00294519 0.54509804 0.71372549 0.60000000
v 0.13713878 0.01244590 0.00294519 0.54509804 0.71372549 0.60000000
v 0.13667298 0.01244590 0.00834651 0.54509804 0.71372549 0.60000000
v 0.13754575 0.03405821 0.00024216 0.54509804 0.71372549 0.60000000
v 0.13726581 0.01244590 0.00024216 0.54509804 0.71372549 0.60000000
v 0.13731990 0.01244590 -0.00245850 0.54509804 0.71372549 0.60000000
v 0.13672239 0.05026543 0.00056197 0.54509804 0.71372549 0.60000000
v 0.13660241 0.05296797 0.00103577 0.54509804 0.71372549 0.60000000
v 0.13644244 0.05445597 0.00143377 0.54509804 0.71372549 0.60000000
v 0.13527327 0.05600029 0.00294519 0.54509804 0.71372549 0.60000000
v 0.13392061 0.05715048 0.00294519 0.54509804 0.71372549 0.60000000
v 0.13230212 0.05750438 0.00294519 0.54509804 0.71372549 0.60000000
v 0.12963208 0.05743199 0.00285754 0.54509804 0.71372549 0.60000000
v 0.12781833 0.05723895 0.00369853 0.54509804 0.71372549 0.60000000
v 0.12487306 0.05512357 0.00294519 0.54509804 0.71372549 0.60000000
v 0.12411321 0.05296797 0.00294519 0.54509804 0.71372549 0.60000000
v 0.11368241 0.02276544 0.00286938 0.54509804 0.71372549 0.60000000
v 0.11368241 -0.01225502 0.00834651 0.54509804 0.71372549 0.60000000
v 0.11368241 -0.01235959 0.00603200 0.54509804 0.71372549 0.60000000
v 0.11368241 -0.01237567 0.00564348 0.54509804 0.71372549 0.60000000
v 0.12204775 -0.02267912 -0.00704726 0.54509804 0.71372549 0.60000000
v 0.12419790 -0.02267912 -0.00763240 0.54509804 0.71372549 0.60000000
v 0.11368241 -0.01125766 -0.00458350 0.54509804 0.71372549 0.60000000
v 0.11368241 -0.00942379 -0.00541975 0.54509804 0.71372549 0.60000000
v 0.11368241 -0.00916640 -0.00551688 0.54509804 0.71372549 0.60000000
v 0.12689852 -0.02267912 -0.00757318 0.54509804 0.71372549 0.60000000
v 0.11368241 -0.01223089 0.00024216 0.54509804 0.71372549 0.60000000
v 0.11368241 -0.01211829 -0.00208183 0.54509804 0.71372549 0.60000000
v 0.12968618 -0.02288020 -0.00712307 0.54509804 0.71372549 0.60000000
v 0.13230212 -0.02218848 -0.00691933 0.54509804 0.71372549 0.60000000
v 0.13391355 -0.02167371 -0.00666822 0.54509804 0.71372549 0.60000000
v 0.13437698 -0.02198739 -0.00516153 0.54509804 0.71372549 0.60000000
v 0.13529915 -0.01997658 -0.00516153 0.54509804 0.71372549 0.60000000
v 0.13637423 -0.01620428 -0.00387517 0.54509804 0.71372549 0.60000000
v 0.13697410 0.00164377 -0.00245850 0.54509804 0.71372549 0.60000000
v 0.13679295 -0.00105877 0.00024216 0.54509804 0.71372549 0.60000000
v 0.13685882 0.03405821 -0.00202971 0.54509804 0.71372549 0.60000000
v 0.13676237 0.03676075 -0.00186862 0.54509804 0.71372549 0.60000000
v 0.13732697 0.01514845 -0.00245850 0.54509804 0.71372549 0.60000000
v 0.13688470 0.01244590 -0.00516153 0.54509804 0.71372549 0.60000000
v 0.13676237 0.01489910 -0.00526814 0.54509804 0.71372549 0.60000000
v 0.13680002 0.00434632 -0.00516153 0.54509804 0.71372549 0.60000000
v 0.13617191 0.05026543 -0.00078836 0.54509804 0.71372549 0.60000000
v 0.13575553 0.05296797 -0.00031693 0.54509804 0.71372549 0.60000000
v 0.13394648 0.05458467 -0.00131901 0.54509804 0.71372549 0.60000000
v 0.13470633 0.05542117 0.00060698 0.54509804 0.71372549 0.60000000
v 0.13366419 0.05702983 0.00158064 0.54509804 0.71372549 0.60000000
v 0.13230212 0.05709418 0.00147167 0.54509804 0.71372549 0.60000000
v 0.13055424 0.05711026 0.00144324 0.54509804 0.71372549 0.60000000
v 0.12875461 0.05681266 0.00189572 0.54509804 0.71372549 0.60000000
v 0.12689852 0.05541313 0.00024216 0.54509804 0.71372549 0.60000000
v 0.12554351 0.05432728 -0.00111291 0.54509804 0.71372549 0.60000000
v 0.12524710 0.05467315 0.00024216 0.54509804 0.71372549 0.60000000
v 0.12691028 0.05645876 0.00285754 0.54509804 0.71372549 0.60000000
v 0.12454606 0.05296797 0.00024216 0.54509804 0.71372549 0.60000000
v 0.11368241 0.02261261 0.00263722 0.54509804 0.71372549 0.60000000
v 0.12419790 -0.01997658 -0.00795222 0.54509804 0.71372549 0.60000000
v 0.11686058 -0.00916640 -0.00692881 0.54509804 0.71372549 0.60000000
v 0.11879431 -0.00916640 -0.00767978 0.54509804 0.71372549 0.60000000
v 0.12689852 -0.01997658 -0.00802329 0.54509804 0.71372549 0.60000000
v 0.11368241 -0.00683385 -0.00566139 0.54509804 0.71372549 0.60000000
v 0.11668415 -0.00646386 -0.00706621 0.54509804 0.71372549 0.60000000
v 0.12959915 -0.01997658 -0.00790721 0.54509804 0.71372549 0.60000000
v 0.13230212 -0.01997658 -0.00748315 0.54509804 0.71372549 0.60000000
v 0.13416056 -0.01997658 -0.00684116 0.54509804 0.71372549 0.60000000
v 0.13588021 -0.01457149 -0.00534868 0.54509804 0.71372549 0.60000000
v 0.13577905 -0.01716947 -0.00492937 0.54509804 0.71372549 0.60000000
v 0.13602841 -0.01186895 -0.00545529 0.54509804 0.71372549 0.60000000
v 0.13640246 0.00237571 -0.00656872 0.54509804 0.71372549 0.60000000
v 0.13665887 0.00154725 -0.00538185 0.54509804 0.71372549 0.60000000
v 0.13636010 0.01382935 -0.00651660 0.54509804 0.71372549 0.60000000
v 0.13641421 0.00434632 -0.00657820 0.54509804 0.71372549 0.60000000
v 0.13391825 0.04486034 -0.00397466 0.54509804 0.71372549 0.60000000
v 0.13481925 0.05026543 -0.00208894 0.54509804 0.71372549 0.60000000
v 0.13440522 0.05296797 -0.00167673 0.54509804 0.71372549 0.60000000
v 0.13230212 0.05479379 -0.00153222 0.54509804 0.71372549 0.60000000
v 0.13234447 0.05033782 -0.00338952 0.54509804 0.71372549 0.60000000
v 0.13230212 0.05296797 -0.00246324 0.54509804 0.71372549 0.60000000
v 0.13230212 0.05614507 0.00011897 0.54509804 0.71372549 0.60000000
v 0.12959915 0.05482597 -0.00163172 0.54509804 0.71372549 0.60000000
v 0.12689852 0.05455250 -0.00136876 0.54509804 0.71372549 0.60000000
v 0.12689852 0.05296797 -0.00235190 0.54509804 0.71372549 0.60000000
v 0.12671268 0.05036999 -0.00348428 0.54509804 0.71372549 0.60000000
v 0.12569171 0.04873720 -0.00375672 0.54509804 0.71372549 0.60000000
v 0.12522122 0.05296797 -0.00153933 0.54509804 0.71372549 0.60000000
v 0.11368241 0.01797968 -0.00217185 0.54509804 0.71372549 0.60000000
v 0.11368241 0.02060179 0.00017583 0.54509804 0.71372549 0.60000000
v 0.11368241 0.02110048 0.00065910 0.54509804 0.71372549 0.60000000
v 0.11368241 0.02236327 0.00226292 0.54509804 0.71372549 0.60000000
v 0.12419790 -0.01727403 -0.00801381 0.54509804 0.71372549 0.60000000
v 0.11879431 -0.00646386 -0.00784798 0.54509804 0.71372549 0.60000000
v 0.12149728 -0.00916640 -0.00806119 0.54509804 0.71372549 0.60000000
v 0.12689852 -0.00646386 -0.00825545 0.54509804 0.71372549 0.60000000
v 0.12959915 -0.00916640 -0.00816543 0.54509804 0.71372549 0.60000000
v 0.13230212 -0.01186895 -0.00805408 0.54509804 0.71372549 0.60000000
v 0.12959915 -0.01727403 -0.00800434 0.54509804 0.71372549 0.60000000
v 0.12419790 -0.01457149 -0.00806593 0.54509804 0.71372549 0.60000000
v 0.11368241 -0.00646386 -0.00568271 0.54509804 0.71372549 0.60000000
v 0.11665827 -0.00376132 -0.00708279 0.54509804 0.71372549 0.60000000
v 0.13230212 -0.01457149 -0.00790721 0.54509804 0.71372549 0.60000000
v 0.13230212 -0.01727403 -0.00771058 0.54509804 0.71372549 0.60000000
v 0.13452989 -0.01457149 -0.00713965 0.54509804 0.71372549 0.60000000
v 0.13467810 -0.01186895 -0.00726284 0.54509804 0.71372549 0.60000000
v 0.13524975 0.00154725 -0.00718229 0.54509804 0.71372549 0.60000000
v 0.13500274 0.00434632 -0.00735997 0.54509804 0.71372549 0.60000000
v 0.13505684 0.01489910 -0.00682457 0.54509804 0.71372549 0.60000000
v 0.13500274 0.00704082 -0.00729837 0.54509804 0.71372549 0.60000000
v 0.13500274 0.00974336 -0.00719650 0.54509804 0.71372549 0.60000000
v 0.13500274 0.01244590 -0.00705910 0.54509804 0.71372549 0.60000000
v 0.13230212 0.04486034 -0.00443662 0.54509804 0.71372549 0.60000000
v 0.13371594 0.04644487 -0.00384911 0.54509804 0.71372549 0.60000000
v 0.13327369 0.04824656 -0.00366906 0.54509804 0.71372549 0.60000000
v 0.12959915 0.05296797 -0.00270725 0.54509804 0.71372549 0.60000000
v 0.13147170 0.04947718 -0.00395334 0.54509804 0.71372549 0.60000000
v 0.12959915 0.05115823 -0.00353640 0.54509804 0.71372549 0.60000000
v 0.12749134 0.04953349 -0.00396519 0.54509804 0.71372549 0.60000000
v 0.12671268 0.04773179 -0.00415471 0.54509804 0.71372549 0.60000000
v 0.12534355 0.04694355 -0.00393202 0.54509804 0.71372549 0.60000000
v 0.11368241 0.01242982 -0.00531552 0.54509804 0.71372549 0.60000000
v 0.11368241 0.01461759 -0.00459534 0.54509804 0.71372549 0.60000000
v 0.11368241 0.01493932 -0.00447452 0.54509804 0.71372549 0.60000000
v 0.11368241 0.01612973 -0.00372592 0.54509804 0.71372549 0.60000000
v 0.11368241 0.01627451 -0.00362642 0.54509804 0.71372549 0.60000000
v 0.11879431 -0.00376132 -0.00787404 0.54509804 0.71372549 0.60000000
v 0.12149728 -0.00646386 -0.00811094 0.54509804 0.71372549 0.60000000
v 0.12419790 -0.00646386 -0.00819622 0.54509804 0.71372549 0.60000000
v 0.12689852 -0.00376132 -0.00826493 0.54509804 0.71372549 0.60000000
v 0.12959915 -0.00376132 -0.00822939 0.54509804 0.71372549 0.60000000
v 0.12959915 -0.00646386 -0.00820807 0.54509804 0.71372549 0.60000000
v 0.13230212 -0.00916640 -0.00809199 0.54509804 0.71372549 0.60000000
v 0.11368241 0.00937337 -0.00550741 0.54509804 0.71372549 0.60000000
v 0.11664651 -0.00105877 -0.00707806 0.54509804 0.71372549 0.60000000
v 0.11879431 -0.00105877 -0.00788825 0.54509804 0.71372549 0.60000000
v 0.13230212 -0.00105877 -0.00815358 0.54509804 0.71372549 0.60000000
v 0.13230212 0.00434632 -0.00808251 0.54509804 0.71372549 0.60000000
v 0.13230212 0.00704082 -0.00804224 0.54509804 0.71372549 0.60000000
v 0.13230212 0.01244590 -0.00776980 0.54509804 0.71372549 0.60000000
v 0.13230212 0.01514845 -0.00752580 0.54509804 0.71372549 0.60000000
v 0.13230212 0.00974336 -0.00794274 0.54509804 0.71372549 0.60000000
v 0.12959915 0.04486034 -0.00476354 0.54509804 0.71372549 0.60000000
v 0.12959915 0.04756288 -0.00446268 0.54509804 0.71372549 0.60000000
v 0.13234447 0.04743419 -0.00408601 0.54509804 0.71372549 0.60000000
v 0.12959915 0.04980696 -0.00403389 0.54509804 0.71372549 0.60000000
v 0.12689852 0.04486034 -0.00454085 0.54509804 0.71372549 0.60000000
v 0.11879431 0.00704082 -0.00758976 0.54509804 0.71372549 0.60000000
v 0.11879431 0.00434632 -0.00782429 0.54509804 0.71372549 0.60000000
v 0.11368241 0.00974336 -0.00550030 0.54509804 0.71372549 0.60000000
v 0.12149728 -0.00105877 -0.00815121 0.54509804 0.71372549 0.60000000
v 0.12419790 -0.00376132 -0.00820570 0.54509804 0.71372549 0.60000000
v 0.12149728 0.00164377 -0.00815121 0.54509804 0.71372549 0.60000000
v 0.12689852 -0.00105877 -0.00824360 0.54509804 0.71372549 0.60000000
v 0.12959915 -0.00105877 -0.00822465 0.54509804 0.71372549 0.60000000
v 0.11673590 0.00434632 -0.00703068 0.54509804 0.71372549 0.60000000
v 0.11669120 0.00164377 -0.00705910 0.54509804 0.71372549 0.60000000
v 0.11879431 0.00164377 -0.00787167 0.54509804 0.71372549 0.60000000
v 0.12959915 0.00704082 -0.00809909 0.54509804 0.71372549 0.60000000
v 0.12959915 0.00974336 -0.00804461 0.54509804 0.71372549 0.60000000
v 0.12959915 0.01244590 -0.00797354 0.54509804 0.71372549 0.60000000
v 0.12959915 0.01514845 -0.00778639 0.54509804 0.71372549 0.60000000
v 0.12689852 0.01514845 -0.00768689 0.54509804 0.71372549 0.60000000
v 0.12419790 0.01244590 -0.00775085 0.54509804 0.71372549 0.60000000
v 0.12149728 0.00974336 -0.00774848 0.54509804 0.71372549 0.60000000
v 0.12149728 0.00704082 -0.00800434 0.54509804 0.71372549 0.60000000
v 0.12149728 0.00434632 -0.00811568 0.54509804 0.71372549 0.60000000
v 0.12419790 0.00434632 -0.00816306 0.54509804 0.71372549 0.60000000
v 0.12689852 0.00434632 -0.00819149 0.54509804 0.71372549 0.60000000
v 0.12689852 0.00704082 -0.00814411 0.54509804 0.71372549 0.60000000
v 0.12689852 0.01244590 -0.00795222 0.54509804 0.71372549 0.60000000
v 0.12689852 0.00974336 -0.00806593 0.54509804 0.71372549 0.60000000
v 0.12419790 0.00974336 -0.00801144 0.54509804 0.71372549 0.60000000
v 0.12419790 0.00704082 -0.00811568 0.54509804 0.71372549 0.60000000
f 1 2 3
f 1 3 4
f 1 4 5
f 1 5 6
f 1 6 7
f 1 7 8
f 1 8 9
f 1 9 10
f 1 10 2
f 2 11 12
f 2 12 13
f 2 13 3
f 2 10 11
f 3 13 4
f 4 14 15
f 4 15 16
f 4 16 5
f 4 13 14
f 5 16 40
f 5 40 17
f 5 17 18
f 5 18 19
f 5 19 20
f 5 20 21
f 5 21 22
f 5 22 6
f 6 23 7
f 6 22 23
f 7 23 24
f 7 24 25
f 7 25 26
f 7 26 8
f 8 26 27
f 8 27 28
f 8 28 9
f 9 28 29
f 9 29 30
f 9 30 31
f 9 31 10
f 10 32 33
f 10 33 11
f 10 31 32
f 11 34 12
f 11 33 34
f 12 34 13
f 13 34 35
f 13 35 36
f 13 36 37
f 13 37 14
f 14 37 15
f 15 37 38
f 15 38 16
f 16 38 39
f 16 39 40
f 17 40 41
f 17 41 42
f 17 42 18
f 18 42 41
f 18 41 43
f 18 43 44
f 18 44 19
f 19 44 20
f 20 44 21
f 21 44 45
f 21 45 22
f 22 45 46
f 22 46 23
f 23 46 47
f 23 47 48
f 23 48 49
f 23 49 50
f 23 50 24
f 24 50 25
f 25 50 51
f 25 51 52
f 25 52 26
f 26 53 27
f 26 52 54
f 26 54 55
f 26 55 56
f 26 56 29
f 26 29 53
f 27 53 28
f 28 53 29
f 29 56 57
f 29 57 58
f 29 58 59
f 29 59 30
f 30 59 60
f 30 60 31
f 31 60 61
f 31 61 62
f 31 62 63
f 31 63 33
f 31 33 32
f 33 63 62
f 33 62 34
f 34 64 65
f 34 65 35
f 34 62 64
f 35 65 36
f 36 65 37
f 37 65 66
f 37 66 67
f 37 67 68
f 37 68 69
f 37 69 70
f 37 70 39
f 37 39 38
f 39 70 71
f 39 71 72
f 39 72 40
f 40 72 73
f 40 73 41
f 41 73 74
f 41 74 75
f 41 75 43
f 43 75 76
f 43 76 77
f 43 77 78
f 43 78 79
f 43 79 80
f 43 80 44
f 44 81 45
f 44 80 82
f 44 82 81
f 45 83 48
f 45 48 46
f 45 81 82
f 45 82 84
f 45 84 83
f 46 48 47
f 48 83 84
f 48 84 85
f 48 85 49
f 49 85 50
f 50 85 86
f 50 86 51
f 51 87 88
f 51 88 54
f 51 54 52
f 51 86 87
f 54 88 89
f 54 89 90
f 54 90 55
f 55 90 91
f 55 91 57
f 55 57 56
f 57 91 92
f 57 92 58
f 58 92 93
f 58 93 94
f 58 94 60
f 58 60 59
f 60 94 95
f 60 95 61
f 61 95 96
f 61 96 97
f 61 97 98
f 61 98 99
f 61 99 100
f 61 100 62
f 62 100 101
f 62 101 64
f 64 101 102
f 64 102 65
f 65 102 103
f 65 103 104
f 65 104 66
f 66 104 67
f 67 105 68
f 67 104 105
f 68 105 106
f 68 106 69
f 69 107 108
f 69 108 70
f 69 106 107
f 70 108 109
f 70 109 71
f 71 109 110
f 71 110 74
f 71 74 73
f 71 73 72
f 74 110 75
f 75 110 76
f 76 110 111
f 76 111 112
f 76 112 77
f 77 112 113
f 77 113 78
f 78 113 79
f 79 113 114
f 79 114 115
f 79 115 80
f 80 115 82
f 82 115 116
f 82 116 84
f 84 116 117
f 84 117 85
f 85 117 118
f 85 118 119
f 85 119 120
f 85 120 86
f 86 120 87
f 87 120 119
f 87 119 121
f 87 121 88
f 88 121 89
f 89 121 122
f 89 122 123
f 89 123 90
f 90 123 91
f 91 123 124
f 91 124 125
f 91 125 126
f 91 126 92
f 92 126 93
f 93 126 127
f 93 127 94
f 94 128 95
f 94 127 129
f 94 129 128
f 95 128 96
f 96 128 130
f 96 130 131
f 96 131 132
f 96 132 133
f 96 133 134
f 96 134 135
f 96 135 136
f 96 136 98
f 96 98 97
f 98 136 135
f 98 135 134
f 98 134 133
f 98 133 132
f 98 132 131
f 98 131 172
f 98 172 200
f 98 200 239
f 98 239 272
f 98 272 271
f 98 271 270
f 98 270 269
f 98 269 306
f 98 306 305
f 98 305 304
f 98 304 303
f 98 303 302
f 98 302 330
f 98 330 314
f 98 314 281
f 98 281 244
f 98 244 208
f 98 208 207
f 98 207 206
f 98 206 178
f 98 178 211
f 98 211 210
f 98 210 203
f 98 203 202
f 98 202 201
f 98 201 173
f 98 173 140
f 98 140 107
f 98 107 139
f 98 139 138
f 98 138 137
f 98 137 103
f 98 103 101
f 98 101 100
f 98 100 99
f 101 103 102
f 103 137 106
f 103 106 105
f 103 105 104
f 106 137 138
f 106 138 139
f 106 139 107
f 107 140 141
f 107 141 142
f 107 142 109
f 107 109 108
f 109 142 141
f 109 141 143
f 109 143 110
f 110 143 111
f 111 143 144
f 111 144 145
f 111 145 146
f 111 146 112
f 112 146 113
f 113 147 148
f 113 148 114
f 113 146 147
f 114 148 149
f 114 149 115
f 115 149 116
f 116 149 150
f 116 150 151
f 116 151 152
f 116 152 153
f 116 153 117
f 117 153 118
f 118 154 155
f 118 155 119
f 118 153 154
f 119 155 156
f 119 156 121
f 121 157 158
f 121 158 122
f 121 156 157
f 122 158 159
f 122 159 160
f 122 160 123
f 123 160 161
f 123 161 125
f 123 125 124
f 125 162 163
f 125 163 164
f 125 164 126
f 125 161 162
f 126 164 165
f 126 165 127
f 127 165 129
f 128 129 166
f 128 166 130
f 129 165 167
f 129 167 168
f 129 168 169
f 129 169 166
f 130 166 170
f 130 170 171
f 130 171 172
f 130 172 131
f 140 173 174
f 140 174 141
f 141 174 143
f 143 174 144
f 144 174 145
f 145 175 176
f 145 176 146
f 145 174 177
f 145 177 178
f 145 178 175
f 146 176 179
f 146 179 180
f 146 180 147
f 147 180 148
f 148 181 182
f 148 182 149
f 148 180 181
f 149 183 150
f 149 182 183
f 150 184 151
f 150 183 184
f 151 184 185
f 151 185 154
f 151 154 186
f 151 186 153
f 151 153 152
f 153 186 154
f 154 185 155
f 155 185 156
f 156 187 157
f 156 185 188
f 156 188 189
f 156 189 187
f 157 190 191
f 157 191 158
f 157 187 190
f 158 191 192
f 158 192 159
f 159 192 193
f 159 193 161
f 159 161 160
f 161 193 162
f 162 193 194
f 162 194 163
f 163 195 167
f 163 167 164
f 163 194 195
f 164 167 165
f 166 169 170
f 167 195 196
f 167 196 197
f 167 197 168
f 168 197 169
f 169 197 198
f 169 198 170
f 170 198 171
f 171 198 199
f 171 199 200
f 171 200 172
f 173 201 174
f 174 201 202
f 174 202 203
f 174 203 177
f 175 204 205
f 175 205 176
f 175 178 206
f 175 206 207
f 175 207 208
f 175 208 204
f 176 205 209
f 176 209 179
f 177 203 210
f 177 210 211
f 177 211 178
f 179 209 180
f 180 209 212
f 180 212 213
f 180 213 214
f 180 214 215
f 180 215 181
f 181 215 182
f 182 215 216
f 182 216 217
f 182 217 183
f 183 217 218
f 183 218 219
f 183 219 184
f 184 219 185
f 185 219 188
f 187 220 221
f 187 221 190
f 187 189 222
f 187 222 223
f 187 223 224
f 187 224 220
f 188 219 218
f 188 218 189
f 189 225 223
f 189 223 222
f 189 218 217
f 189 217 225
f 190 226 191
f 190 221 226
f 191 226 227
f 191 227 192
f 192 228 229
f 192 229 230
f 192 230 193
f 192 227 228
f 193 230 194
f 194 230 195
f 195 230 231
f 195 231 232
f 195 232 196
f 196 232 233
f 196 233 197
f 197 233 234
f 197 234 235
f 197 235 236
f 197 236 237
f 197 237 198
f 198 237 236
f 198 236 238
f 198 238 199
f 199 238 200
f 200 238 239
f 204 240 205
f 204 208 241
f 204 241 242
f 204 242 240
f 205 240 243
f 205 243 209
f 208 244 245
f 208 245 241
f 209 243 246
f 209 246 212
f 212 246 213
f 213 246 247
f 213 247 214
f 214 247 248
f 214 248 216
f 214 216 215
f 216 248 249
f 216 249 250
f 216 250 217
f 217 250 249
f 217 249 251
f 217 251 252
f 217 252 253
f 217 253 225
f 220 224 254
f 220 254 221
f 221 254 226
f 223 225 252
f 223 252 255
f 223 255 254
f 223 254 224
f 225 253 252
f 226 256 257
f 226 257 258
f 226 258 227
f 226 254 256
f 227 258 228
f 228 259 230
f 228 230 229
f 228 258 260
f 228 260 261
f 228 261 259
f 230 259 262
f 230 262 231
f 231 262 232
f 232 262 263
f 232 263 264
f 232 264 235
f 232 235 233
f 233 235 234
f 235 264 265
f 235 265 266
f 235 266 267
f 235 267 268
f 235 268 238
f 235 238 236
f 238 268 269
f 238 269 270
f 238 270 271
f 238 271 272
f 238 272 239
f 240 273 243
f 240 242 274
f 240 274 275
f 240 275 273
f 241 245 242
f 242 245 274
f 243 276 277
f 243 277 278
f 243 278 279
f 243 279 246
f 243 273 280
f 243 280 276
f 244 281 245
f 245 281 282
f 245 282 274
f 246 279 278
f 246 278 283
f 246 283 284
f 246 284 247
f 247 284 248
f 248 284 285
f 248 285 249
f 249 285 286
f 249 286 252
f 249 252 251
f 252 287 288
f 252 288 255
f 252 286 287
f 254 289 256
f 254 255 288
f 254 288 290
f 254 290 291
f 254 291 292
f 254 292 289
f 256 293 294
f 256 294 257
f 256 289 293
f 257 294 258
f 258 294 295
f 258 295 260
f 259 261 296
f 259 296 263
f 259 263 262
f 260 295 297
f 260 297 261
f 261 297 298
f 261 298 296
f 263 296 265
f 263 265 264
f 265 296 298
f 265 298 266
f 266 298 299
f 266 299 267
f 267 299 300
f 267 300 301
f 267 301 302
f 267 302 303
f 267 303 304
f 267 304 268
f 268 304 305
f 268 305 306
f 268 306 269
f 273 275 280
f 274 282 307
f 274 307 308
f 274 308 275
f 275 308 280
f 276 309 332
f 276 332 310
f 276 310 311
f 276 311 312
f 276 312 277
f 276 280 309
f 277 312 278
f 278 312 313
f 278 313 286
f 278 286 283
f 280 308 309
f 281 314 315
f 281 315 282
f 282 315 316
f 282 316 307
f 283 285 284
f 283 286 285
f 286 313 288
f 286 288 287
f 288 313 317
f 288 317 318
f 288 318 319
f 288 319 290
f 289 292 320
f 289 320 321
f 289 321 293
f 290 319 322
f 290 322 291
f 291 322 292
f 292 322 320
f 293 323 324
f 293 324 297
f 293 297 325
f 293 325 294
f 293 321 323
f 294 325 295
f 295 325 297
f 297 324 326
f 297 326 298
f 298 326 299
f 299 326 324
f 299 324 300
f 300 324 327
f 300 327 328
f 300 328 301
f 301 328 302
f 302 328 329
f 302 329 330
f 307 316 331
f 307 331 308
f 308 331 309
f 309 331 332
f 310 332 331
f 310 331 333
f 310 333 334
f 310 334 335
f 310 335 311
f 311 335 317
f 311 317 313
f 311 313 312
f 314 330 336
f 314 336 337
f 314 337 315
f 315 337 338
f 315 338 316
f 316 338 333
f 316 333 331
f 317 335 318
f 318 335 319
f 319 339 340
f 319 340 341
f 319 341 322
f 319 335 339
f 320 341 342
f 320 342 321
f 320 322 341
f 321 342 323
f 323 327 324
f 323 342 343
f 323 343 344
f 323 344 327
f 327 344 345
f 327 345 328
f 328 345 346
f 328 346 329
f 329 336 330
f 329 346 347
f 329 347 338
f 329 338 336
f 333 338 347
f 333 347 348
f 333 348 334
f 334 349 335
f 334 348 349
f 335 349 339
f 336 338 337
f 339 350 340
f 339 349 350
f 340 350 341
f 341 351 342
f 341 350 352
f 341 352 351
f 342 351 343
f 343 351 344
f 344 351 353
f 344 353 345
f 345 353 346
f 346 353 347
f 347 353 354
f 347 354 348
f 348 354 350
f 348 350 349
f 350 354 352
f 351 352 353
f 352 354 353

o geometry_1
v 0.11365901 0.02276965 0.00286458 0.54117647 0.42352941 0.64313725
v 0.11365901 0.02272929 0.00568489 0.54117647 0.42352941 0.64313725
v 0.11365901 0.02236608 0.00226173 0.54117647 0.42352941 0.64313725
v -0.12428822 0.01403792 -0.00684661 0.54117647 0.42352941 0.64313725
v -0.12428822 0.01491476 -0.00515600 0.54117647 0.42352941 0.64313725
v -0.12428822 0.01548342 -0.00245888 0.54117647 0.42352941 0.64313725
v 0.11365901 0.02195884 0.00699806 0.54117647 0.42352941 0.64313725
v -0.12428822 0.01543206 0.00024610 0.54117647 0.42352941 0.64313725
v -0.12428822 0.01536969 0.00149112 0.54117647 0.42352941 0.64313725
v -0.12436129 0.01528897 0.00294059 0.54117647 0.42352941 0.64313725
v -0.12165763 0.01461392 0.00564295 0.54117647 0.42352941 0.64313725
v -0.12375236 0.01390584 0.00714222 0.54117647 0.42352941 0.64313725
v 0.11365901 0.02110401 0.00066547 0.54117647 0.42352941 0.64313725
v -0.12428822 0.01268413 -0.00819385 0.54117647 0.42352941 0.64313725
v -0.12516509 0.01307302 -0.00776661 0.54117647 0.42352941 0.64313725
v -0.12516509 0.01402324 -0.00682040 0.54117647 0.42352941 0.64313725
v -0.12706497 0.01398655 -0.00675749 0.54117647 0.42352941 0.64313725
v -0.12516509 0.01487073 -0.00516124 0.54117647 0.42352941 0.64313725
v -0.12516509 0.01504684 -0.00434870 0.54117647 0.42352941 0.64313725
v -0.12516509 0.01544673 -0.00245888 0.54117647 0.42352941 0.64313725
v 0.11365901 0.02094626 0.00776866 0.54117647 0.42352941 0.64313725
v -0.12165763 0.01393519 0.00718940 0.54117647 0.42352941 0.64313725
v -0.12165763 0.01256673 0.00854189 0.54117647 0.42352941 0.64313725
v -0.12165763 0.01121661 0.00978429 0.54117647 0.42352941 0.64313725
v -0.12436129 0.01536602 0.00149636 0.54117647 0.42352941 0.64313725
v -0.12706497 0.01535868 -0.00245888 0.54117647 0.42352941 0.64313725
v -0.12516509 0.01538069 0.00023823 0.54117647 0.42352941 0.64313725
v -0.12453180 0.01440113 0.00588409 0.54117647 0.42352941 0.64313725
v -0.12706497 0.01525962 0.00023823 0.54117647 0.42352941 0.64313725
v -0.12706497 0.01509453 0.00149374 0.54117647 0.42352941 0.64313725
v -0.12706497 0.01490008 0.00294059 0.54117647 0.42352941 0.64313725
v -0.12555481 0.01374074 0.00694040 0.54117647 0.42352941 0.64313725
v -0.12577402 0.01110655 0.00970828 0.54117647 0.42352941 0.64313725
v -0.12436129 0.01115791 0.00974498 0.54117647 0.42352941 0.64313725
v 0.11365901 0.02059772 0.00017795 0.54117647 0.42352941 0.64313725
v 0.11365901 0.01831206 -0.00187437 0.54117647 0.42352941 0.64313725
v 0.11365901 0.01797820 -0.00216794 0.54117647 0.42352941 0.64313725
v -0.12428822 0.01133768 -0.00937073 0.54117647 0.42352941 0.64313725
v -0.12514074 0.01130466 -0.00934976 0.54117647 0.42352941 0.64313725
v -0.12648039 0.01124596 -0.00931569 0.54117647 0.42352941 0.64313725
v -0.12725982 0.01226222 -0.00830656 0.54117647 0.42352941 0.64313725
v -0.12864819 0.01387649 -0.00661071 0.54117647 0.42352941 0.64313725
v -0.12706497 0.01476801 -0.00516124 0.54117647 0.42352941 0.64313725
v 0.11365901 0.02068577 0.00794428 0.54117647 0.42352941 0.64313725
v -0.12165763 0.00973809 0.01050510 0.54117647 0.42352941 0.64313725
v -0.01628761 0.00879888 0.01264130 0.54117647 0.42352941 0.64313725
v 0.11365901 0.01849917 0.00924697 0.54117647 0.42352941 0.64313725
v -0.12964685 0.01423603 -0.00512978 0.54117647 0.42352941 0.64313725
v -0.12976863 0.01470931 -0.00245888 0.54117647 0.42352941 0.64313725
v -0.12706497 0.01421769 0.00521833 0.54117647 0.42352941 0.64313725
v -0.12989042 0.01433509 0.00013601 0.54117647 0.42352941 0.64313725
v -0.12952506 0.01425438 0.00149374 0.54117647 0.42352941 0.64313725
v -0.12913534 0.01416632 0.00294059 0.54117647 0.42352941 0.64313725
v -0.12869691 0.01394987 0.00467838 0.54117647 0.42352941 0.64313725
v -0.12706497 0.01355730 0.00656820 0.54117647 0.42352941 0.64313725
v -0.12684575 0.01199440 0.00849471 0.54117647 0.42352941 0.64313725
v -0.12757647 0.01078003 0.00949073 0.54117647 0.42352941 0.64313725
v -0.12684575 0.00982247 0.01011717 0.54117647 0.42352941 0.64313725
v -0.12436129 0.00973809 0.01040549 0.54117647 0.42352941 0.64313725
v 0.11365901 0.01626854 -0.00362265 0.54117647 0.42352941 0.64313725
v 0.11365901 0.01612179 -0.00372487 0.54117647 0.42352941 0.64313725
v 0.11365901 0.01492943 -0.00447189 0.54117647 0.42352941 0.64313725
v -0.10541126 0.01113957 -0.00924754 0.54117647 0.42352941 0.64313725
v -0.12163327 0.00973809 -0.01019376 0.54117647 0.42352941 0.64313725
v -0.12428822 0.00973809 -0.01020162 0.54117647 0.42352941 0.64313725
v -0.12516509 0.01031409 -0.00986350 0.54117647 0.42352941 0.64313725
v -0.12516509 0.00981147 -0.01011250 0.54117647 0.42352941 0.64313725
v -0.12725982 0.00999124 -0.00988184 0.54117647 0.42352941 0.64313725
v -0.12828283 0.01105519 -0.00917415 0.54117647 0.42352941 0.64313725
v -0.12964685 0.01254472 -0.00743111 0.54117647 0.42352941 0.64313725
v -0.13045064 0.01351328 -0.00600785 0.54117647 0.42352941 0.64313725
v -0.12436129 0.00703786 0.01121279 0.54117647 0.42352941 0.64313725
v -0.12165763 0.00703786 0.01129143 0.54117647 0.42352941 0.64313725
v -0.07299159 0.00606196 0.01250500 0.54117647 0.42352941 0.64313725
v -0.01628761 0.00704153 0.01328871 0.54117647 0.42352941 0.64313725
v 0.00256500 0.00704153 0.01351150 0.54117647 0.42352941 0.64313725
v 0.00524431 0.00903001 0.01275138 0.54117647 0.42352941 0.64313725
v 0.11365901 0.01708668 0.01000184 0.54117647 0.42352941 0.64313725
v -0.13137622 0.01396087 -0.00420978 0.54117647 0.42352941 0.64313725
v -0.13137622 0.01396454 -0.00245888 0.54117647 0.42352941 0.64313725
v -0.13118136 0.01385081 -0.00083118 0.54117647 0.42352941 0.64313725
v -0.13040193 0.01376643 0.00149374 0.54117647 0.42352941 0.64313725
v -0.13076729 0.01355364 0.00149636 0.54117647 0.42352941 0.64313725
v -0.13047499 0.01337386 0.00294059 0.54117647 0.42352941 0.64313725
v -0.12967120 0.01294095 0.00560363 0.54117647 0.42352941 0.64313725
v -0.12976863 0.01166421 0.00765334 0.54117647 0.42352941 0.64313725
v -0.12993914 0.00982247 0.00908184 0.54117647 0.42352941 0.64313725
v -0.12913534 0.00897865 0.00997039 0.54117647 0.42352941 0.64313725
v -0.12706497 0.00703786 0.01101883 0.54117647 0.42352941 0.64313725
v 0.11365901 0.01461025 -0.00459246 0.54117647 0.42352941 0.64313725
v 0.10525571 0.00927582 -0.00693048 0.54117647 0.42352941 0.64313725
v 0.10255204 0.00922446 -0.00703533 0.54117647 0.42352941 0.64313725
v -0.12428822 0.00706354 -0.01138898 0.54117647 0.42352941 0.64313725
v -0.12572531 0.00568774 -0.01191320 0.54117647 0.42352941 0.64313725
v -0.12679703 0.00677004 -0.01133656 0.54117647 0.42352941 0.64313725
v -0.12976863 0.00382766 -0.01218579 0.54117647 0.42352941 0.64313725
v -0.12976863 0.00517411 -0.01159342 0.54117647 0.42352941 0.64313725
v -0.12976863 0.00703786 -0.01075991 0.54117647 0.42352941 0.64313725
v -0.12976863 0.00933452 -0.00972982 0.54117647 0.42352941 0.64313725
v -0.12976863 0.01068097 -0.00893825 0.54117647 0.42352941 0.64313725
v -0.13161979 0.01170823 -0.00708251 0.54117647 0.42352941 0.64313725
v -0.12436129 0.00433396 0.01145918 0.54117647 0.42352941 0.64313725
v -0.12165763 0.00433396 0.01159810 0.54117647 0.42352941 0.64313725
v -0.12706497 0.00433396 0.01131764 0.54117647 0.42352941 0.64313725
v -0.08650993 0.00392672 0.01253645 0.54117647 0.42352941 0.64313725
v -0.08378191 0.00412850 0.01256528 0.54117647 0.42352941 0.64313725
v -0.01358394 0.00433762 0.01384962 0.54117647 0.42352941 0.64313725
v -0.00284234 0.00433762 0.01392301 0.54117647 0.42352941 0.64313725
v 0.10255204 0.00704153 0.01385224 0.54117647 0.42352941 0.64313725
v 0.10260076 0.00991786 0.01295058 0.54117647 0.42352941 0.64313725
v 0.10352634 0.01119827 0.01245782 0.54117647 0.42352941 0.64313725
v 0.11365901 0.01591267 0.01051820 0.54117647 0.42352941 0.64313725
v -0.13200951 0.01254472 -0.00512978 0.54117647 0.42352941 0.64313725
v -0.13354403 0.01041315 -0.00245888 0.54117647 0.42352941 0.64313725
v -0.13244794 0.01243832 -0.00245888 0.54117647 0.42352941 0.64313725
v -0.13196080 0.01260709 0.00013601 0.54117647 0.42352941 0.64313725
v -0.13086472 0.01361967 0.00096428 0.54117647 0.42352941 0.64313725
v -0.13191208 0.01202375 0.00294059 0.54117647 0.42352941 0.64313725
v -0.13157108 0.01157616 0.00564295 0.54117647 0.42352941 0.64313725
v -0.13125444 0.01122762 0.00717367 0.54117647 0.42352941 0.64313725
v -0.13093778 0.00815317 0.00959557 0.54117647 0.42352941 0.64313725
v -0.12993914 0.00716627 0.01028230 0.54117647 0.42352941 0.64313725
v -0.12976863 0.00433396 0.01078555 0.54117647 0.42352941 0.64313725
v 0.11365901 0.01241998 -0.00531064 0.54117647 0.42352941 0.64313725
v 0.10255204 0.00703786 -0.00784525 0.54117647 0.42352941 0.64313725
v -0.12263192 0.00572076 -0.01192106 0.54117647 0.42352941 0.64313725
v -0.12428822 0.00571342 -0.01192106 0.54117647 0.42352941 0.64313725
v -0.12514074 0.00570242 -0.01191582 0.54117647 0.42352941 0.64313725
v -0.12679703 0.00451006 -0.01219366 0.54117647 0.42352941 0.64313725
v -0.12976863 0.00163739 -0.01259206 0.54117647 0.42352941 0.64313725
v -0.13135187 0.00336906 -0.01204163 0.54117647 0.42352941 0.64313725
v -0.13142493 0.00878053 -0.00943364 0.54117647 0.42352941 0.64313725
v -0.13213130 0.00970507 -0.00793436 0.54117647 0.42352941 0.64313725
v -0.13378761 0.00826323 -0.00634335 0.54117647 0.42352941 0.64313725
v -0.13344660 0.00972708 -0.00532899 0.54117647 0.42352941 0.64313725
v -0.12165763 0.00163739 0.01182875 0.54117647 0.42352941 0.64313725
v -0.12706497 0.00163739 0.01133336 0.54117647 0.42352941 0.64313725
v -0.08378191 0.00164473 0.01273565 0.54117647 0.42352941 0.64313725
v -0.01358394 0.00164473 0.01388370 0.54117647 0.42352941 0.64313725
v -0.01085591 0.00164473 0.01390729 0.54117647 0.42352941 0.64313725
v -0.00013867 0.00433762 0.01392826 0.54117647 0.42352941 0.64313725
v 0.10255204 0.00433762 0.01401999 0.54117647 0.42352941 0.64313725
v 0.10525571 0.00433762 0.01376837 0.54117647 0.42352941 0.64313725
v 0.10525571 0.00704153 0.01359538 0.54117647 0.42352941 0.64313725
v 0.11365901 0.01272816 0.01138841 0.54117647 0.42352941 0.64313725
v 0.11365901 0.01536969 0.01073313 0.54117647 0.42352941 0.64313725
v 0.10525571 0.00991052 0.01284312 0.54117647 0.42352941 0.64313725
v 0.09984837 0.00433762 0.01404359 0.54117647 0.42352941 0.64313725
v 0.10435449 0.01119827 0.01245782 0.54117647 0.42352941 0.64313725
v -0.13390939 0.00881722 -0.00454266 0.54117647 0.42352941 0.64313725
v -0.13398246 0.00906303 -0.00245888 0.54117647 0.42352941 0.64313725
v -0.13400683 0.00898599 0.00023823 0.54117647 0.42352941 0.64313725
v -0.13344660 0.01033610 0.00023823 0.54117647 0.42352941 0.64313725
v -0.13337352 0.01019302 0.00149374 0.54117647 0.42352941 0.64313725
v -0.13325174 0.01002426 0.00294059 0.54117647 0.42352941 0.64313725
v -0.13295945 0.00949962 0.00544375 0.54117647 0.42352941 0.64313725
v -0.13356839 0.00752581 0.00620649 0.54117647 0.42352941 0.64313725
v -0.13171723 0.00973809 0.00772935 0.54117647 0.42352941 0.64313725
v -0.13247230 0.00693880 0.00830075 0.54117647 0.42352941 0.64313725
v -0.13137622 0.00635179 0.00987865 0.54117647 0.42352941 0.64313725
v -0.12976863 0.00163739 0.01076721 0.54117647 0.42352941 0.64313725
v -0.13154672 0.00433396 0.01000709 0.54117647 0.42352941 0.64313725
v 0.11365901 0.00974176 -0.00549674 0.54117647 0.42352941 0.64313725
v 0.10525571 0.00434129 -0.00780593 0.54117647 0.42352941 0.64313725
v 0.10525571 0.00703786 -0.00756217 0.54117647 0.42352941 0.64313725
v 0.10255204 0.00434129 -0.00819910 0.54117647 0.42352941 0.64313725
v 0.09984837 0.00434129 -0.00828821 0.54117647 0.42352941 0.64313725
v -0.00554601 0.00164473 -0.01084117 0.54117647 0.42352941 0.64313725
v -0.11890525 0.00422756 -0.01218842 0.54117647 0.42352941 0.64313725
v -0.12165763 0.00457243 -0.01215696 0.54117647 0.42352941 0.64313725
v -0.12428822 0.00433762 -0.01224608 0.54117647 0.42352941 0.64313725
v -0.12706497 0.00163739 -0.01269691 0.54117647 0.42352941 0.64313725
v -0.12976863 -0.00106284 -0.01271788 0.54117647 0.42352941 0.64313725
v -0.13166851 0.00068351 -0.01221987 0.54117647 0.42352941 0.64313725
v -0.13161979 0.00163739 -0.01218579 0.54117647 0.42352941 0.64313725
v -0.13295945 0.00163739 -0.01106920 0.54117647 0.42352941 0.64313725
v -0.13395809 0.00343877 -0.00944674 0.54117647 0.42352941 0.64313725
v -0.13249666 0.00430094 -0.01055285 0.54117647 0.42352941 0.64313725
v -0.13188772 0.00703786 -0.00986612 0.54117647 0.42352941 0.64313725
v -0.13361710 0.00523648 -0.00878884 0.54117647 0.42352941 0.64313725
v -0.13332481 0.00723230 -0.00787932 0.54117647 0.42352941 0.64313725
v -0.13417732 0.00433762 -0.00787932 0.54117647 0.42352941 0.64313725
v -0.13461576 0.00163739 -0.00786097 0.54117647 0.42352941 0.64313725
v -0.13410426 0.00723230 -0.00532899 0.54117647 0.42352941 0.64313725
v -0.12706497 -0.00106284 0.01127570 0.54117647 0.42352941 0.64313725
v -0.12260757 0.00068718 0.01170818 0.54117647 0.42352941 0.64313725
v -0.12165763 -0.00106284 0.01167935 0.54117647 0.42352941 0.64313725
v -0.08380626 0.00069084 0.01266226 0.54117647 0.42352941 0.64313725
v -0.01085591 -0.00106284 0.01366615 0.54117647 0.42352941 0.64313725
v -0.00284234 -0.00106284 0.01377099 0.54117647 0.42352941 0.64313725
v -0.08380626 -0.00060424 0.01256266 0.54117647 0.42352941 0.64313725
v -0.00284234 0.00003046 0.01383390 0.54117647 0.42352941 0.64313725
v 0.09987273 -0.00105917 0.01398854 0.54117647 0.42352941 0.64313725
v -0.00284234 0.00164473 0.01392039 0.54117647 0.42352941 0.64313725
v 0.09984837 0.00164473 0.01405407 0.54117647 0.42352941 0.64313725
v 0.10255204 0.00164473 0.01400951 0.54117647 0.42352941 0.64313725
v 0.10525571 0.00164473 0.01375264 0.54117647 0.42352941 0.64313725
v 0.10795937 0.00433762 0.01322842 0.54117647 0.42352941 0.64313725
v 0.11046819 0.00704153 0.01262557 0.54117647 0.42352941 0.64313725
v 0.11365901 0.01244199 0.01142510 0.54117647 0.42352941 0.64313725
v -0.13434782 0.00703786 -0.00245888 0.54117647 0.42352941 0.64313725
v -0.13444525 0.00703786 0.00023823 0.54117647 0.42352941 0.64313725
v -0.13398246 0.00884290 0.00149636 0.54117647 0.42352941 0.64313725
v -0.13369017 0.00956199 0.00149374 0.54117647 0.42352941 0.64313725
v -0.13437217 0.00703786 0.00294059 0.54117647 0.42352941 0.64313725
v -0.13393374 0.00867414 0.00294059 0.54117647 0.42352941 0.64313725
v -0.13383631 0.00843934 0.00440841 0.54117647 0.42352941 0.64313725
v -0.13400683 0.00678838 0.00544375 0.54117647 0.42352941 0.64313725
v -0.13381196 0.00572443 0.00700854 0.54117647 0.42352941 0.64313725
v -0.13288638 0.00433396 0.00855499 0.54117647 0.42352941 0.64313725
v -0.13152236 0.00163739 0.00997825 0.54117647 0.42352941 0.64313725
v -0.12976863 0.00068718 0.01070692 0.54117647 0.42352941 0.64313725
v -0.13286202 0.00163739 0.00866770 0.54117647 0.42352941 0.64313725
v 0.11365901 0.00937121 -0.00550198 0.54117647 0.42352941 0.64313725
v 0.11024897 -0.00647064 -0.00676011 0.54117647 0.42352941 0.64313725
v 0.11017590 -0.00376307 -0.00673390 0.54117647 0.42352941 0.64313725
v 0.10795937 0.00434129 -0.00712444 0.54117647 0.42352941 0.64313725
v 0.10523135 -0.00376307 -0.00791864 0.54117647 0.42352941 0.64313725
v 0.10250333 -0.00106284 -0.00832491 0.54117647 0.42352941 0.64313725
v 0.10255204 0.00127051 -0.00827249 0.54117647 0.42352941 0.64313725
v 0.10793502 -0.00376307 -0.00731841 0.54117647 0.42352941 0.64313725
v 0.10793502 -0.00647064 -0.00736821 0.54117647 0.42352941 0.64313725
v 0.09984837 -0.00106284 -0.00859750 0.54117647 0.42352941 0.64313725
v 0.09984837 0.00127051 -0.00851363 0.54117647 0.42352941 0.64313725
v 0.09984837 0.00164473 -0.00849790 0.54117647 0.42352941 0.64313725
v -0.00554601 -0.00106284 -0.01106920 0.54117647 0.42352941 0.64313725
v -0.00554601 0.00003046 -0.01097746 0.54117647 0.42352941 0.64313725
v -0.11890525 0.00164473 -0.01257896 0.54117647 0.42352941 0.64313725
v -0.12706497 0.00068351 -0.01270739 0.54117647 0.42352941 0.64313725
v -0.00554601 -0.00376307 -0.01113735 0.54117647 0.42352941 0.64313725
v -0.12976863 -0.00376307 -0.01247674 0.54117647 0.42352941 0.64313725
v -0.13159544 -0.00376307 -0.01217007 0.54117647 0.42352941 0.64313725
v -0.13176594 -0.00106284 -0.01227753 0.54117647 0.42352941 0.64313725
v -0.12706497 -0.00106284 -0.01272312 0.54117647 0.42352941 0.64313725
v -0.13312995 -0.00106284 -0.01124482 0.54117647 0.42352941 0.64313725
v -0.13410426 0.00163739 -0.00971933 0.54117647 0.42352941 0.64313725
v -0.13478624 -0.00106284 -0.00786097 0.54117647 0.42352941 0.64313725
v -0.13488367 0.00163739 -0.00516124 0.54117647 0.42352941 0.64313725
v -0.13456703 0.00433762 -0.00516124 0.54117647 0.42352941 0.64313725
v -0.13415296 0.00068351 -0.00978224 0.54117647 0.42352941 0.64313725
v -0.12976863 -0.00106284 0.01059159 0.54117647 0.42352941 0.64313725
v -0.12706497 -0.00376307 0.01108174 0.54117647 0.42352941 0.64313725
v -0.12436129 -0.00376307 0.01132550 0.54117647 0.42352941 0.64313725
v -0.12436129 -0.00106284 0.01148539 0.54117647 0.42352941 0.64313725
v -0.05409026 -0.00312103 0.01258887 0.54117647 0.42352941 0.64313725
v -0.00284234 -0.00376307 0.01324415 0.54117647 0.42352941 0.64313725
v 0.10250333 -0.00646330 0.01325725 0.54117647 0.42352941 0.64313725
v 0.10250333 -0.00376307 0.01376575 0.54117647 0.42352941 0.64313725
v -0.12165763 -0.00376307 0.01137006 0.54117647 0.42352941 0.64313725
v 0.10250333 -0.00105917 0.01395447 0.54117647 0.42352941 0.64313725
v 0.10255204 0.00127051 0.01400427 0.54117647 0.42352941 0.64313725
v 0.10523135 -0.00105917 0.01364256 0.54117647 0.42352941 0.64313725
v 0.10525571 0.00127051 0.01373691 0.54117647 0.42352941 0.64313725
v 0.10759401 0.00127051 0.01325201 0.54117647 0.42352941 0.64313725
v 0.10795937 0.00164473 0.01318648 0.54117647 0.42352941 0.64313725
v 0.11044383 0.00433762 0.01265440 0.54117647 0.42352941 0.64313725
v 0.11365901 0.00744509 0.01175012 0.54117647 0.42352941 0.64313725
v 0.11365901 0.01010864 0.01164265 0.54117647 0.42352941 0.64313725
v -0.13471319 0.00433762 0.00023823 0.54117647 0.42352941 0.64313725
v -0.13476189 0.00433396 0.00294059 0.54117647 0.42352941 0.64313725
v -0.13442090 0.00433396 0.00564295 0.54117647 0.42352941 0.64313725
v -0.13393374 0.00433396 0.00719988 0.54117647 0.42352941 0.64313725
v -0.13400683 0.00163739 0.00731521 0.54117647 0.42352941 0.64313725
v -0.13381196 -0.00520491 0.00700592 0.54117647 0.42352941 0.64313725
v -0.13132751 -0.00106284 0.00984720 0.54117647 0.42352941 0.64313725
v 0.11365901 0.00664530 -0.00553343 0.54117647 0.42352941 0.64313725
v 0.10993232 -0.00852883 -0.00667361 0.54117647 0.42352941 0.64313725
v 0.11363465 -0.00647064 -0.00567759 0.54117647 0.42352941 0.64313725
v 0.11363465 -0.00683385 -0.00565663 0.54117647 0.42352941 0.64313725
v 0.11363465 -0.00916354 -0.00551246 0.54117647 0.42352941 0.64313725
v 0.10523135 -0.00647064 -0.00791602 0.54117647 0.42352941 0.64313725
v 0.10250333 -0.00376307 -0.00829608 0.54117647 0.42352941 0.64313725
v 0.09984837 -0.00376307 -0.00842451 0.54117647 0.42352941 0.64313725
v 0.10250333 -0.00647064 -0.00815454 0.54117647 0.42352941 0.64313725
v -0.00554601 -0.00647064 -0.01062362 0.54117647 0.42352941 0.64313725
v -0.12976863 -0.00563782 -0.01207571 0.54117647 0.42352941 0.64313725
v -0.13127879 -0.00545072 -0.01200232 0.54117647 0.42352941 0.64313725
v -0.13293509 -0.00376307 -0.01116881 0.54117647 0.42352941 0.64313725
v -0.13420169 -0.00376307 -0.00981632 0.54117647 0.42352941 0.64313725
v -0.13420169 -0.00106284 -0.00989757 0.54117647 0.42352941 0.64313725
v -0.13498110 -0.00376307 -0.00516124 0.54117647 0.42352941 0.64313725
v -0.13500547 -0.00106284 -0.00516124 0.54117647 0.42352941 0.64313725
v -0.13493241 0.00068351 -0.00516124 0.54117647 0.42352941 0.64313725
v -0.13473754 -0.00376307 -0.00786097 0.54117647 0.42352941 0.64313725
v -0.13517597 -0.00376307 0.00024348 0.54117647 0.42352941 0.64313725
v -0.13118136 -0.00293392 0.00974760 0.54117647 0.42352941 0.64313725
v -0.12998785 -0.00380710 0.01019843 0.54117647 0.42352941 0.64313725
v -0.12918406 -0.00646330 0.00998612 0.54117647 0.42352941 0.64313725
v -0.12706497 -0.00646330 0.01049723 0.54117647 0.42352941 0.64313725
v -0.12436129 -0.00646330 0.01075148 0.54117647 0.42352941 0.64313725
v -0.00284234 -0.00564883 0.01263081 0.54117647 0.42352941 0.64313725
v 0.10523135 -0.00854351 0.01267013 0.54117647 0.42352941 0.64313725
v 0.10523135 -0.00646330 0.01318386 0.54117647 0.42352941 0.64313725
v 0.10523135 -0.00376307 0.01349053 0.54117647 0.42352941 0.64313725
v 0.10929904 -0.00782076 0.01239753 0.54117647 0.42352941 0.64313725
v 0.10795937 0.00127051 0.01316814 0.54117647 0.42352941 0.64313725
v 0.11022462 0.00164473 0.01261246 0.54117647 0.42352941 0.64313725
v 0.11365901 -0.00916354 0.01129405 0.54117647 0.42352941 0.64313725
v 0.11365901 -0.00877464 0.01131239 0.54117647 0.42352941 0.64313725
v 0.11365901 0.00704153 0.01174488 0.54117647 0.42352941 0.64313725
v -0.13451833 0.00163739 0.00564295 0.54117647 0.42352941 0.64313725
v -0.13498110 -0.00376307 0.00294059 0.54117647 0.42352941 0.64313725
v -0.13425039 -0.00625051 0.00582381 0.54117647 0.42352941 0.64313725
v -0.13369017 -0.00700262 0.00684341 0.54117647 0.42352941 0.64313725
v 0.11365901 0.00127051 -0.00555702 0.54117647 0.42352941 0.64313725
v 0.10900674 -0.01032654 -0.00644296 0.54117647 0.42352941 0.64313725
v 0.10800809 -0.00932129 -0.00690427 0.54117647 0.42352941 0.64313725
v 0.11363465 -0.00942035 -0.00541548 0.54117647 0.42352941 0.64313725
v 0.10523135 -0.00916354 -0.00735248 0.54117647 0.42352941 0.64313725
v 0.10250333 -0.00916354 -0.00741539 0.54117647 0.42352941 0.64313725
v 0.10523135 -0.01071177 -0.00666837 0.54117647 0.42352941 0.64313725
v -0.00554601 -0.00846280 -0.00970099 0.54117647 0.42352941 0.64313725
v -0.00817660 -0.00848848 -0.00972458 0.54117647 0.42352941 0.64313725
v -0.02167059 -0.00863156 -0.00981632 0.54117647 0.42352941 0.64313725
v -0.12976863 -0.00698794 -0.01155673 0.54117647 0.42352941 0.64313725
v -0.13123008 -0.01059803 -0.00928947 0.54117647 0.42352941 0.64313725
v -0.13181466 -0.00916721 -0.00979273 0.54117647 0.42352941 0.64313725
v -0.13249666 -0.00654402 -0.01062624 0.54117647 0.42352941 0.64313725
v -0.13405552 -0.00583961 -0.00954896 0.54117647 0.42352941 0.64313725
v -0.13507854 -0.00646697 -0.00245888 0.54117647 0.42352941 0.64313725
v -0.13512727 -0.00376307 -0.00245888 0.54117647 0.42352941 0.64313725
v -0.13488367 -0.00646697 -0.00516124 0.54117647 0.42352941 0.64313725
v -0.13434782 -0.00662840 -0.00804445 0.54117647 0.42352941 0.64313725
v -0.13515162 -0.00656970 0.00013339 0.54117647 0.42352941 0.64313725
v -0.13515162 -0.00646330 0.00024348 0.54117647 0.42352941 0.64313725
v -0.13502984 -0.00646330 0.00294059 0.54117647 0.42352941 0.64313725
v -0.13101086 -0.00473897 0.00962440 0.54117647 0.42352941 0.64313725
v -0.12864819 -0.00794550 0.00976332 0.54117647 0.42352941 0.64313725
v -0.13054807 -0.00646330 0.00944617 0.54117647 0.42352941 0.64313725
v -0.12706497 -0.00811793 0.00986817 0.54117647 0.42352941 0.64313725
v -0.12436129 -0.00824267 0.00996253 0.54117647 0.42352941 0.64313725
v 0.10523135 -0.00988996 0.01207514 0.54117647 0.42352941 0.64313725
v 0.10795937 -0.00954876 0.01210659 0.54117647 0.42352941 0.64313725
v 0.10795937 -0.00819864 0.01251286 0.54117647 0.42352941 0.64313725
v 0.11365901 -0.01130611 0.01047364 0.54117647 0.42352941 0.64313725
v -0.13407989 -0.00916354 0.00485924 0.54117647 0.42352941 0.64313725
v -0.13322738 -0.00916354 0.00620911 0.54117647 0.42352941 0.64313725
v -0.13188772 -0.00916354 0.00760616 0.54117647 0.42352941 0.64313725
v 0.11365901 -0.01225633 0.00294059 0.54117647 0.42352941 0.64313725
v 0.11363465 -0.01125475 -0.00458197 0.54117647 0.42352941 0.64313725
v 0.10720430 -0.01064573 -0.00661071 0.54117647 0.42352941 0.64313725
v 0.10523135 -0.01188578 -0.00515337 0.54117647 0.42352941 0.64313725
v -0.12706497 -0.01066040 -0.00934452 0.54117647 0.42352941 0.64313725
v -0.12976863 -0.00916721 -0.01034054 0.54117647 0.42352941 0.64313725
v -0.13135187 -0.01334596 -0.00417570 0.54117647 0.42352941 0.64313725
v -0.13183901 -0.01107498 -0.00786097 0.54117647 0.42352941 0.64313725
v -0.13378761 -0.01045862 -0.00643509 0.54117647 0.42352941 0.64313725
v -0.13327610 -0.00940201 -0.00804445 0.54117647 0.42352941 0.64313725
v -0.13371453 -0.00763732 -0.00906930 0.54117647 0.42352941 0.64313725
v -0.12976863 -0.01066040 -0.00934452 0.54117647 0.42352941 0.64313725
v -0.12976863 -0.01170601 -0.00786097 0.54117647 0.42352941 0.64313725
v -0.12976863 -0.01291304 -0.00593708 0.54117647 0.42352941 0.64313725
v -0.13410426 -0.00866091 -0.00726860 0.54117647 0.42352941 0.64313725
v -0.13483497 -0.00916721 -0.00245888 0.54117647 0.42352941 0.64313725
v -0.13434782 -0.00940201 -0.00538665 0.54117647 0.42352941 0.64313725
v -0.13488367 -0.00916721 0.00013339 0.54117647 0.42352941 0.64313725
v -0.13488367 -0.00916354 0.00024348 0.54117647 0.42352941 0.64313725
v -0.13459140 -0.00916354 0.00294059 0.54117647 0.42352941 0.64313725
v -0.13135187 -0.01069709 0.00717367 0.54117647 0.42352941 0.64313725
v -0.12976863 -0.01091722 0.00742268 0.54117647 0.42352941 0.64313725
v -0.12706497 -0.00947171 0.00896127 0.54117647 0.42352941 0.64313725
v -0.12436129 -0.00959278 0.00897437 0.54117647 0.42352941 0.64313725
v 0.10795937 -0.01166932 0.01075934 0.54117647 0.42352941 0.64313725
v 0.11063869 -0.01151156 0.01062567 0.54117647 0.42352941 0.64313725
v 0.11365901 -0.01215727 0.00861790 0.54117647 0.42352941 0.64313725
v 0.10795937 -0.01302311 0.00918144 0.54117647 0.42352941 0.64313725
v -0.13381196 -0.01052099 0.00429832 0.54117647 0.42352941 0.64313725
v 0.11365901 -0.01237740 0.00564295 0.54117647 0.42352941 0.64313725
v 0.11363465 -0.01222698 0.00024348 0.54117647 0.42352941 0.64313725
v 0.11363465 -0.01211325 -0.00207882 0.54117647 0.42352941 0.64313725
v 0.11363465 -0.01208756 -0.00245888 0.54117647 0.42352941 0.64313725
v 0.11061433 -0.01147121 -0.00488602 0.54117647 0.42352941 0.64313725
v 0.10800809 -0.01149689 -0.00538665 0.54117647 0.42352941 0.64313725
v 0.10793502 -0.01298642 -0.00298834 0.54117647 0.42352941 0.64313725
v 0.10523135 -0.01303778 -0.00350732 0.54117647 0.42352941 0.64313725
v -0.00817660 -0.01255350 -0.00553343 0.54117647 0.42352941 0.64313725
v -0.12706497 -0.01175737 -0.00786097 0.54117647 0.42352941 0.64313725
v -0.12976863 -0.01350005 -0.00458459 0.54117647 0.42352941 0.64313725
v -0.12976863 -0.01402469 -0.00245888 0.54117647 0.42352941 0.64313725
v -0.13159544 -0.01348171 -0.00245888 0.54117647 0.42352941 0.64313725
v -0.13295945 -0.01250948 -0.00245888 0.54117647 0.42352941 0.64313725
v -0.13256973 -0.01192247 -0.00530540 0.54117647 0.42352941 0.64313725
v -0.13403118 -0.01086586 -0.00463440 0.54117647 0.42352941 0.64313725
v -0.12706497 -0.01296441 -0.00615726 0.54117647 0.42352941 0.64313725
v -0.12706497 -0.01361011 -0.00480739 0.54117647 0.42352941 0.64313725
v -0.13422604 -0.01115936 -0.00245888 0.54117647 0.42352941 0.64313725
v -0.13427474 -0.01120339 0.00013339 0.54117647 0.42352941 0.64313725
v -0.13427474 -0.01120706 0.00024348 0.54117647 0.42352941 0.64313725
v -0.13400683 -0.01082550 0.00294059 0.54117647 0.42352941 0.64313725
v -0.13235051 -0.01109332 0.00537560 0.54117647 0.42352941 0.64313725
v -0.13049935 -0.01308915 0.00403097 0.54117647 0.42352941 0.64313725
v -0.12967120 -0.01237740 0.00541753 0.54117647 0.42352941 0.64313725
v -0.12706497 -0.01243243 0.00586836 0.54117647 0.42352941 0.64313725
v -0.12706497 -0.01108232 0.00760878 0.54117647 0.42352941 0.64313725
v -0.12436129 -0.01111533 0.00762450 0.54117647 0.42352941 0.64313725
v 0.10523135 -0.01296808 0.00921551 0.54117647 0.42352941 0.64313725
v 0.11365901 -0.01225266 0.00834269 0.54117647 0.42352941 0.64313725
v 0.10983490 -0.01332762 0.00748034 0.54117647 0.42352941 0.64313725
v 0.10795937 -0.01345236 0.00782895 0.54117647 0.42352941 0.64313725
v -0.12436129 -0.01346336 0.00467052 0.54117647 0.42352941 0.64313725
v -0.12436129 -0.01416043 0.00294059 0.54117647 0.42352941 0.64313725
v 0.10250333 -0.01356609 0.00773459 0.54117647 0.42352941 0.64313725
v 0.10523135 -0.01352573 0.00786564 0.54117647 0.42352941 0.64313725
v -0.13242359 -0.01230769 0.00305330 0.54117647 0.42352941 0.64313725
v 0.10995668 -0.01335330 0.00564295 0.54117647 0.42352941 0.64313725
v 0.10937211 -0.01322489 -0.00116930 0.54117647 0.42352941 0.64313725
v 0.10793502 -0.01335330 -0.00164110 0.54117647 0.42352941 0.64313725
v 0.10523135 -0.01358076 -0.00215483 0.54117647 0.42352941 0.64313725
v 0.10250333 -0.01366515 -0.00218104 0.54117647 0.42352941 0.64313725
v -0.01085591 -0.01342667 -0.00420191 0.54117647 0.42352941 0.64313725
v -0.12538431 -0.01295707 -0.00615201 0.54117647 0.42352941 0.64313725
v -0.12706497 -0.01432920 -0.00245888 0.54117647 0.42352941 0.64313725
v -0.12706497 -0.01461169 0.00024348 0.54117647 0.42352941 0.64313725
v -0.12976863 -0.01422280 0.00013339 0.54117647 0.42352941 0.64313725
v -0.13169287 -0.01355508 0.00013339 0.54117647 0.42352941 0.64313725
v -0.12984171 -0.01420079 0.00013339 0.54117647 0.42352941 0.64313725
v -0.13305688 -0.01255350 0.00013339 0.54117647 0.42352941 0.64313725
v -0.13310560 -0.01250214 0.00013339 0.54117647 0.42352941 0.64313725
v -0.12428822 -0.01363580 -0.00480215 0.54117647 0.42352941 0.64313725
v -0.12538431 -0.01434754 -0.00245888 0.54117647 0.42352941 0.64313725
v -0.13305688 -0.01255350 0.00024348 0.54117647 0.42352941 0.64313725
v -0.13147365 -0.01343768 0.00223027 0.54117647 0.42352941 0.64313725
v -0.12967120 -0.01363213 0.00305330 0.54117647 0.42352941 0.64313725
v -0.12869691 -0.01326525 0.00436647 0.54117647 0.42352941 0.64313725
v -0.12706497 -0.01336064 0.00451587 0.54117647 0.42352941 0.64313725
v -0.12436129 -0.01246545 0.00602039 0.54117647 0.42352941 0.64313725
v 0.10523135 -0.01409440 0.00564295 0.54117647 0.42352941 0.64313725
v 0.10523135 -0.01437322 0.00294059 0.54117647 0.42352941 0.64313725
v 0.10250333 -0.01429985 0.00564295 0.54117647 0.42352941 0.64313725
v -0.12706497 -0.01403203 0.00294059 0.54117647 0.42352941 0.64313725
v -0.12436129 -0.01463371 0.00024348 0.54117647 0.42352941 0.64313725
v 0.10523135 -0.01417144 0.00024348 0.54117647 0.42352941 0.64313725
v 0.10250333 -0.01440991 0.00024348 0.54117647 0.42352941 0.64313725
v -0.00817660 -0.01401001 -0.00245888 0.54117647 0.42352941 0.64313725
v -0.12538431 -0.01461536 0.00013339 0.54117647 0.42352941 0.64313725
v -0.12976863 -0.01423014 0.00024348 0.54117647 0.42352941 0.64313725
v -0.13169287 -0.01355508 0.00024348 0.54117647 0.42352941 0.64313725
v -0.12428822 -0.01435121 -0.00245888 0.54117647 0.42352941 0.64313725
v -0.12436129 -0.01462270 0.00013339 0.54117647 0.42352941 0.64313725
v -0.12443437 -0.01462270 0.00013601 0.54117647 0.42352941 0.64313725
v 0.10250333 -0.01471075 0.00294059 0.54117647 0.42352941 0.64313725
v -0.00817660 -0.01453832 0.00024348 0.54117647 0.42352941 0.64313725
f 355 356 361
f 355 361 375
f 355 375 398
f 355 398 401
f 355 401 432
f 355 432 466
f 355 466 500
f 355 500 499
f 355 499 554
f 355 554 612
f 355 612 611
f 355 611 654
f 355 654 653
f 355 653 652
f 355 652 689
f 355 689 719
f 355 719 751
f 355 751 722
f 355 722 693
f 355 693 659
f 355 659 620
f 355 620 568
f 355 568 517
f 355 517 478
f 355 478 444
f 355 444 416
f 355 416 415
f 355 415 414
f 355 414 391
f 355 391 390
f 355 390 389
f 355 389 367
f 355 367 357
f 355 357 358
f 355 358 359
f 355 359 360
f 355 360 356
f 356 360 362
f 356 362 363
f 356 363 364
f 356 364 365
f 356 365 366
f 356 366 361
f 357 367 358
f 358 367 368
f 358 368 369
f 358 369 370
f 358 370 359
f 359 370 371
f 359 371 372
f 359 372 373
f 359 373 374
f 359 374 360
f 360 374 362
f 361 366 376
f 361 376 377
f 361 377 378
f 361 378 375
f 362 379 363
f 362 374 380
f 362 380 381
f 362 381 379
f 363 379 364
f 364 382 365
f 364 379 383
f 364 383 384
f 364 384 385
f 364 385 382
f 365 382 366
f 366 382 386
f 366 386 387
f 366 387 388
f 366 388 377
f 366 377 376
f 367 389 368
f 368 389 390
f 368 390 391
f 368 391 392
f 368 392 393
f 368 393 394
f 368 394 369
f 369 394 371
f 369 371 370
f 371 395 396
f 371 396 397
f 371 397 372
f 371 394 395
f 372 397 380
f 372 380 373
f 373 380 374
f 375 378 398
f 377 388 378
f 378 388 399
f 378 399 400
f 378 400 401
f 378 401 398
f 379 381 383
f 380 397 402
f 380 402 403
f 380 403 383
f 380 383 381
f 382 385 404
f 382 404 386
f 383 403 405
f 383 405 384
f 384 405 385
f 385 405 406
f 385 406 407
f 385 407 408
f 385 408 404
f 386 404 409
f 386 409 410
f 386 410 387
f 387 410 411
f 387 411 412
f 387 412 413
f 387 413 388
f 388 413 399
f 391 414 392
f 392 414 415
f 392 415 416
f 392 416 417
f 392 417 418
f 392 418 419
f 392 419 420
f 392 420 393
f 393 420 394
f 394 420 421
f 394 421 422
f 394 422 423
f 394 423 395
f 395 423 396
f 396 423 424
f 396 424 425
f 396 425 402
f 396 402 397
f 399 413 426
f 399 426 427
f 399 427 428
f 399 428 429
f 399 429 400
f 400 429 430
f 400 430 431
f 400 431 432
f 400 432 401
f 402 425 433
f 402 433 403
f 403 433 434
f 403 434 405
f 404 408 409
f 405 434 435
f 405 435 406
f 406 435 407
f 407 435 436
f 407 436 437
f 407 437 438
f 407 438 408
f 408 438 439
f 408 439 440
f 408 440 409
f 409 440 410
f 410 440 411
f 411 440 441
f 411 441 442
f 411 442 412
f 412 442 443
f 412 443 413
f 413 443 426
f 416 444 445
f 416 445 446
f 416 446 447
f 416 447 418
f 416 418 417
f 418 447 419
f 419 447 448
f 419 448 421
f 419 421 420
f 421 448 422
f 422 449 450
f 422 450 451
f 422 451 452
f 422 452 453
f 422 453 423
f 422 448 449
f 423 453 454
f 423 454 424
f 424 454 455
f 424 455 425
f 425 455 433
f 426 456 457
f 426 457 427
f 426 443 458
f 426 458 456
f 427 457 459
f 427 459 460
f 427 460 428
f 428 460 461
f 428 461 429
f 429 461 430
f 430 461 462
f 430 462 463
f 430 463 464
f 430 464 465
f 430 465 431
f 431 465 466
f 431 466 432
f 433 455 467
f 433 467 468
f 433 468 469
f 433 469 434
f 434 469 470
f 434 470 435
f 435 471 437
f 435 437 436
f 435 470 472
f 435 472 473
f 435 473 471
f 437 471 473
f 437 473 438
f 438 473 474
f 438 474 439
f 439 474 440
f 440 474 441
f 441 474 475
f 441 475 442
f 442 475 476
f 442 476 443
f 443 476 477
f 443 477 458
f 444 478 445
f 445 479 446
f 445 478 479
f 446 479 480
f 446 480 447
f 447 480 481
f 447 481 482
f 447 482 448
f 448 482 483
f 448 483 450
f 448 450 449
f 450 484 485
f 450 485 451
f 450 483 484
f 451 485 452
f 452 485 453
f 453 485 486
f 453 486 454
f 454 486 455
f 455 487 488
f 455 488 489
f 455 489 467
f 455 486 487
f 456 490 457
f 456 458 490
f 457 490 459
f 458 477 491
f 458 491 490
f 459 492 461
f 459 461 460
f 459 490 492
f 461 492 493
f 461 493 494
f 461 494 462
f 462 495 463
f 462 494 495
f 463 496 497
f 463 497 498
f 463 498 499
f 463 499 500
f 463 500 501
f 463 501 464
f 463 495 502
f 463 502 496
f 464 501 500
f 464 500 503
f 464 503 465
f 465 503 466
f 466 503 500
f 467 489 468
f 468 489 504
f 468 504 505
f 468 505 506
f 468 506 507
f 468 507 469
f 469 507 508
f 469 508 470
f 470 508 472
f 472 508 509
f 472 509 473
f 473 509 510
f 473 510 474
f 474 510 511
f 474 511 512
f 474 512 475
f 475 512 513
f 475 513 514
f 475 514 476
f 476 514 477
f 477 515 491
f 477 514 516
f 477 516 515
f 478 517 518
f 478 518 519
f 478 519 479
f 479 520 521
f 479 521 522
f 479 522 523
f 479 523 480
f 479 519 520
f 480 523 524
f 480 524 525
f 480 525 481
f 481 525 483
f 481 483 482
f 483 526 484
f 483 525 526
f 484 527 528
f 484 528 529
f 484 529 485
f 484 526 527
f 485 529 530
f 485 530 531
f 485 531 532
f 485 532 533
f 485 533 486
f 486 533 531
f 486 531 534
f 486 534 487
f 487 534 535
f 487 535 488
f 488 535 534
f 488 534 531
f 488 531 536
f 488 536 537
f 488 537 538
f 488 538 504
f 488 504 489
f 490 491 539
f 490 539 540
f 490 540 541
f 490 541 492
f 491 515 539
f 492 542 493
f 492 541 542
f 493 543 544
f 493 544 494
f 493 542 545
f 493 545 543
f 494 544 546
f 494 546 547
f 494 547 548
f 494 548 495
f 495 548 549
f 495 549 502
f 496 502 549
f 496 549 550
f 496 550 497
f 497 551 552
f 497 552 553
f 497 553 498
f 497 550 551
f 498 553 554
f 498 554 499
f 504 538 555
f 504 555 505
f 505 555 556
f 505 556 506
f 506 557 558
f 506 558 507
f 506 556 559
f 506 559 557
f 507 558 508
f 508 558 560
f 508 560 509
f 509 560 561
f 509 561 510
f 510 561 511
f 511 561 562
f 511 562 563
f 511 563 512
f 512 563 513
f 513 563 514
f 514 563 564
f 514 564 516
f 515 516 565
f 515 565 566
f 515 566 539
f 516 564 567
f 516 567 565
f 517 568 569
f 517 569 570
f 517 570 571
f 517 571 518
f 518 572 573
f 518 573 574
f 518 574 520
f 518 520 519
f 518 571 575
f 518 575 576
f 518 576 572
f 520 574 577
f 520 577 578
f 520 578 579
f 520 579 521
f 521 579 580
f 521 580 581
f 521 581 522
f 522 581 582
f 522 582 523
f 523 582 526
f 523 526 525
f 523 525 524
f 526 583 527
f 526 582 580
f 526 580 584
f 526 584 583
f 527 585 586
f 527 586 587
f 527 587 528
f 527 583 588
f 527 588 585
f 528 587 529
f 529 587 589
f 529 589 530
f 530 589 590
f 530 590 531
f 531 590 537
f 531 537 536
f 531 533 532
f 537 591 592
f 537 592 593
f 537 593 538
f 537 590 594
f 537 594 591
f 538 593 555
f 539 566 595
f 539 595 596
f 539 596 597
f 539 597 598
f 539 598 540
f 540 598 541
f 541 598 597
f 541 597 545
f 541 545 542
f 543 545 599
f 543 599 600
f 543 600 544
f 544 600 601
f 544 601 602
f 544 602 547
f 544 547 546
f 545 597 603
f 545 603 599
f 547 602 604
f 547 604 549
f 547 549 548
f 549 604 605
f 549 605 550
f 550 605 551
f 551 606 607
f 551 607 608
f 551 608 609
f 551 609 552
f 551 605 604
f 551 604 606
f 552 609 610
f 552 610 553
f 553 610 611
f 553 611 612
f 553 612 554
f 555 593 556
f 556 593 592
f 556 592 613
f 556 613 614
f 556 614 559
f 557 560 558
f 557 559 560
f 559 614 615
f 559 615 562
f 559 562 561
f 559 561 560
f 562 615 563
f 563 615 616
f 563 616 564
f 564 616 617
f 564 617 567
f 565 567 618
f 565 618 619
f 565 619 595
f 565 595 566
f 567 617 618
f 568 620 569
f 569 621 576
f 569 576 570
f 569 620 622
f 569 622 623
f 569 623 624
f 569 624 621
f 570 576 575
f 570 575 571
f 572 576 625
f 572 625 573
f 573 626 577
f 573 577 574
f 573 625 626
f 576 621 625
f 577 627 584
f 577 584 580
f 577 580 578
f 577 626 628
f 577 628 627
f 578 580 579
f 580 582 581
f 583 584 588
f 584 627 628
f 584 628 629
f 584 629 585
f 584 585 588
f 585 630 631
f 585 631 586
f 585 629 630
f 586 632 587
f 586 631 632
f 587 632 589
f 589 632 633
f 589 633 634
f 589 634 594
f 589 594 590
f 591 635 636
f 591 636 637
f 591 637 592
f 591 594 634
f 591 634 633
f 591 633 638
f 591 638 635
f 592 637 639
f 592 639 614
f 592 614 613
f 595 619 640
f 595 640 641
f 595 641 596
f 596 641 642
f 596 642 643
f 596 643 644
f 596 644 597
f 597 644 603
f 599 603 644
f 599 644 600
f 600 645 646
f 600 646 601
f 600 644 645
f 601 646 647
f 601 647 602
f 602 647 648
f 602 648 604
f 604 648 606
f 606 648 649
f 606 649 608
f 606 608 607
f 608 649 650
f 608 650 609
f 609 651 610
f 609 650 652
f 609 652 653
f 609 653 651
f 610 651 653
f 610 653 654
f 610 654 611
f 614 655 615
f 614 639 656
f 614 656 655
f 615 655 617
f 615 617 616
f 617 655 657
f 617 657 618
f 618 658 640
f 618 640 619
f 618 657 658
f 620 659 622
f 621 624 660
f 621 660 661
f 621 661 625
f 622 659 623
f 623 659 624
f 624 659 662
f 624 662 660
f 625 663 628
f 625 628 626
f 625 661 663
f 628 663 664
f 628 664 629
f 629 664 665
f 629 665 666
f 629 666 667
f 629 667 668
f 629 668 669
f 629 669 630
f 630 669 631
f 631 670 671
f 631 671 672
f 631 672 632
f 631 669 670
f 632 672 673
f 632 673 633
f 633 673 638
f 635 674 675
f 635 675 636
f 635 638 676
f 635 676 674
f 636 675 639
f 636 639 637
f 638 673 677
f 638 677 676
f 639 678 679
f 639 679 680
f 639 680 656
f 639 675 678
f 640 681 641
f 640 658 681
f 641 681 642
f 642 682 643
f 642 681 683
f 642 683 682
f 643 682 684
f 643 684 644
f 644 685 645
f 644 684 685
f 645 686 646
f 645 685 686
f 646 686 687
f 646 687 688
f 646 688 647
f 647 688 649
f 647 649 648
f 649 688 652
f 649 652 650
f 652 688 687
f 652 687 689
f 655 656 680
f 655 680 657
f 657 680 690
f 657 690 658
f 658 690 691
f 658 691 692
f 658 692 681
f 659 693 694
f 659 694 662
f 660 695 661
f 660 662 694
f 660 694 695
f 661 695 663
f 663 665 664
f 663 695 665
f 665 668 667
f 665 667 666
f 665 695 696
f 665 696 697
f 665 697 668
f 668 697 698
f 668 698 669
f 669 698 670
f 670 699 700
f 670 700 701
f 670 701 702
f 670 702 703
f 670 703 671
f 670 698 704
f 670 704 705
f 670 705 706
f 670 706 699
f 671 703 672
f 672 703 673
f 673 703 707
f 673 707 677
f 674 678 675
f 674 676 708
f 674 708 678
f 676 677 709
f 676 709 708
f 677 707 709
f 678 708 710
f 678 710 711
f 678 711 680
f 678 680 679
f 680 711 712
f 680 712 690
f 681 692 683
f 682 683 692
f 682 692 713
f 682 713 714
f 682 714 715
f 682 715 684
f 684 715 685
f 685 716 686
f 685 715 716
f 686 717 687
f 686 716 717
f 687 717 718
f 687 718 689
f 689 718 720
f 689 720 719
f 690 721 691
f 690 712 721
f 691 713 692
f 691 721 713
f 693 722 723
f 693 723 724
f 693 724 725
f 693 725 694
f 694 726 727
f 694 727 695
f 694 725 728
f 694 728 729
f 694 729 726
f 695 727 696
f 696 727 729
f 696 729 730
f 696 730 697
f 697 731 704
f 697 704 698
f 697 730 731
f 699 706 732
f 699 732 733
f 699 733 734
f 699 734 735
f 699 735 736
f 699 736 700
f 700 736 701
f 701 737 709
f 701 709 707
f 701 707 703
f 701 703 702
f 701 736 737
f 704 731 738
f 704 738 705
f 705 738 706
f 706 738 739
f 706 739 732
f 708 709 737
f 708 737 740
f 708 740 741
f 708 741 710
f 710 742 711
f 710 741 742
f 711 742 712
f 712 742 743
f 712 743 721
f 713 721 744
f 713 744 745
f 713 745 746
f 713 746 714
f 714 746 747
f 714 747 748
f 714 748 715
f 715 748 716
f 716 749 717
f 716 748 749
f 717 750 720
f 717 720 718
f 717 749 750
f 719 720 752
f 719 752 751
f 720 753 752
f 720 750 754
f 720 754 755
f 720 755 756
f 720 756 757
f 720 757 753
f 721 743 758
f 721 758 744
f 722 751 752
f 722 752 759
f 722 759 723
f 723 759 760
f 723 760 724
f 724 760 725
f 725 760 728
f 726 729 727
f 728 760 761
f 728 761 762
f 728 762 729
f 729 762 763
f 729 763 764
f 729 764 730
f 730 764 765
f 730 765 731
f 731 765 738
f 732 739 766
f 732 766 733
f 733 766 767
f 733 767 768
f 733 768 734
f 734 769 735
f 734 768 770
f 734 770 769
f 735 769 771
f 735 771 772
f 735 772 740
f 735 740 737
f 735 737 736
f 738 765 764
f 738 764 773
f 738 773 739
f 739 774 766
f 739 773 774
f 740 772 741
f 741 772 742
f 742 772 775
f 742 775 743
f 743 775 758
f 744 758 776
f 744 776 745
f 745 776 777
f 745 777 778
f 745 778 746
f 746 778 747
f 747 778 779
f 747 779 754
f 747 754 780
f 747 780 748
f 748 780 749
f 749 780 750
f 750 780 754
f 752 753 781
f 752 781 782
f 752 782 759
f 753 757 783
f 753 783 781
f 754 779 784
f 754 784 755
f 755 785 783
f 755 783 756
f 755 784 767
f 755 767 785
f 756 783 757
f 758 775 776
f 759 782 760
f 760 782 786
f 760 786 761
f 761 786 762
f 762 786 787
f 762 787 763
f 763 787 788
f 763 788 764
f 764 788 773
f 766 774 767
f 767 774 789
f 767 789 785
f 767 784 790
f 767 790 768
f 768 790 770
f 769 770 790
f 769 790 791
f 769 791 775
f 769 775 771
f 771 775 772
f 773 788 792
f 773 792 774
f 774 792 793
f 774 793 794
f 774 794 789
f 775 791 776
f 776 790 777
f 776 791 790
f 777 784 778
f 777 790 784
f 778 784 779
f 781 783 795
f 781 795 782
f 782 795 786
f 783 785 795
f 785 796 795
f 785 789 794
f 785 794 793
f 785 793 796
f 786 795 787
f 787 795 796
f 787 796 792
f 787 792 788
f 792 796 793

