# https://github.com/mikedh/trimesh
v -0.13082821 0.00151498 -0.01721697 0.54117647 0.42352941 0.64313725
v -0.13082821 -0.00027487 -0.01706970 0.54117647 0.42352941 0.64313725
v -0.13266763 -0.00028051 -0.01706657 0.54117647 0.42352941 0.64313725
v -0.13280912 0.00151498 -0.01711044 0.54117647 0.42352941 0.64313725
v -0.13262046 0.00335558 -0.01707910 0.54117647 0.42352941 0.64313725
v -0.13082821 0.00386294 -0.01714490 0.54117647 0.42352941 0.64313725
v -0.12785687 0.00427165 -0.01714177 0.54117647 0.42352941 0.64313725
v -0.12488553 0.00398414 -0.01708223 0.54117647 0.42352941 0.64313725
v -0.12488553 0.00240850 -0.01708223 0.54117647 0.42352941 0.64313725
v 0.09202267 0.00151498 -0.01087492 0.54117647 0.42352941 0.64313725
v -0.13082821 -0.00176032 -0.01670936 0.54117647 0.42352941 0.64313725
v 0.09202267 -0.00145308 -0.01059605 0.54117647 0.42352941 0.64313725
v -0.13370524 -0.00134315 -0.01658402 0.54117647 0.42352941 0.64313725
v -0.13429478 0.00151498 -0.01666549 0.54117647 0.42352941 0.64313725
v -0.13379957 -0.00442396 -0.01578813 0.54117647 0.42352941 0.64313725
v -0.13082821 0.00535120 -0.01685976 0.54117647 0.42352941 0.64313725
v -0.13368166 0.00440131 -0.01648062 0.54117647 0.42352941 0.64313725
v -0.12785687 0.00575709 -0.01696943 0.54117647 0.42352941 0.64313725
v -0.12488553 0.00546959 -0.01695690 0.54117647 0.42352941 0.64313725
v -0.12285747 0.00341759 -0.01703210 0.54117647 0.42352941 0.64313725
v -0.12285747 0.00278339 -0.01703210 0.54117647 0.42352941 0.64313725
v 0.08905132 0.00448587 -0.01049891 0.54117647 0.42352941 0.64313725
v 0.09202267 0.00448587 -0.01037671 0.54117647 0.42352941 0.64313725
v 0.10407312 0.00448587 -0.00963095 0.54117647 0.42352941 0.64313725
v 0.10407312 0.00427729 -0.00965915 0.54117647 0.42352941 0.64313725
v 0.10407312 0.00151498 -0.01000070 0.54117647 0.42352941 0.64313725
v 0.10407312 0.00130076 -0.00999756 0.54117647 0.42352941 0.64313725
v 0.10407312 -0.00145308 -0.00984089 0.54117647 0.42352941 0.64313725
v -0.13082821 -0.00442396 -0.01587273 0.54117647 0.42352941 0.64313725
v 0.10407312 -0.00164193 -0.00981582 0.54117647 0.42352941 0.64313725
v 0.10407312 -0.00509481 -0.00902307 0.54117647 0.42352941 0.64313725
v -0.13596912 -0.00442396 -0.01480737 0.54117647 0.42352941 0.64313725
v -0.13603986 -0.00145308 -0.01511131 0.54117647 0.42352941 0.64313725
v -0.13606346 0.00151498 -0.01518025 0.54117647 0.42352941 0.64313725
v -0.13603986 0.00448587 -0.01498597 0.54117647 0.42352941 0.64313725
v -0.13379957 -0.00682830 -0.01467576 0.54117647 0.42352941 0.64313725
v -0.13568614 -0.00646187 -0.01441882 0.54117647 0.42352941 0.64313725
v -0.13082821 0.00745957 -0.01609207 0.54117647 0.42352941 0.64313725
v -0.12785687 0.00745957 -0.01636155 0.54117647 0.42352941 0.64313725
v -0.13575689 0.00696348 -0.01456296 0.54117647 0.42352941 0.64313725
v -0.13410613 0.00775553 -0.01508624 0.54117647 0.42352941 0.64313725
v -0.12488553 0.00745957 -0.01634275 0.54117647 0.42352941 0.64313725
v 0.08905132 0.00745957 -0.00941161 0.54117647 0.42352941 0.64313725
v 0.10407312 0.00720025 -0.00873793 0.54117647 0.42352941 0.64313725
v -0.13082821 -0.00684803 -0.01467576 0.54117647 0.42352941 0.64313725
v 0.10407312 -0.00807133 -0.00792010 0.54117647 0.42352941 0.64313725
v -0.13667658 -0.00442396 -0.01254190 0.54117647 0.42352941 0.64313725
v -0.13677092 -0.00145308 -0.01254190 0.54117647 0.42352941 0.64313725
v -0.13684166 0.00151498 -0.01254190 0.54117647 0.42352941 0.64313725
v -0.13681809 0.00448587 -0.01254190 0.54117647 0.42352941 0.64313725
v -0.13618135 0.00775553 -0.01283958 0.54117647 0.42352941 0.64313725
v -0.13082821 -0.00833629 -0.01357280 0.54117647 0.42352941 0.64313725
v -0.13379957 -0.00831374 -0.01346313 0.54117647 0.42352941 0.64313725
v -0.13561538 -0.00939329 -0.01157054 0.54117647 0.42352941 0.64313725
v -0.13601629 -0.00743149 -0.01255130 0.54117647 0.42352941 0.64313725
v -0.13082821 0.00974552 -0.01474470 0.54117647 0.42352941 0.64313725
v -0.13330435 0.00940164 -0.01442509 0.54117647 0.42352941 0.64313725
v -0.12785687 0.00990336 -0.01490450 0.54117647 0.42352941 0.64313725
v -0.12488553 0.00990900 -0.01489824 0.54117647 0.42352941 0.64313725
v -0.13528524 0.00894501 -0.01402715 0.54117647 0.42352941 0.64313725
v 0.08607998 0.00938754 -0.00842772 0.54117647 0.42352941 0.64313725
v 0.08905132 0.00928044 -0.00835252 0.54117647 0.42352941 0.64313725
v 0.09718715 0.00900139 -0.00812691 0.54117647 0.42352941 0.64313725
v 0.10407312 0.00860959 -0.00800471 0.54117647 0.42352941 0.64313725
v -0.12488553 -0.00818972 -0.01356653 0.54117647 0.42352941 0.64313725
v 0.10407312 -0.01028399 -0.00660093 0.54117647 0.42352941 0.64313725
v -0.13648792 -0.00739767 -0.00956828 0.54117647 0.42352941 0.64313725
v -0.13662943 -0.00442396 -0.00956828 0.54117647 0.42352941 0.64313725
v -0.13674732 0.00151498 -0.00956828 0.54117647 0.42352941 0.64313725
v -0.13679449 0.00448587 -0.00956828 0.54117647 0.42352941 0.64313725
v -0.13677092 0.00745957 -0.00956828 0.54117647 0.42352941 0.64313725
v -0.13596912 0.01059958 -0.00960589 0.54117647 0.42352941 0.64313725
v -0.13575689 0.00972297 -0.01204682 0.54117647 0.42352941 0.64313725
v -0.13082821 -0.00994293 -0.01208756 0.54117647 0.42352941 0.64313725
v -0.12488553 -0.01004158 -0.01208129 0.54117647 0.42352941 0.64313725
v -0.13379957 -0.00981327 -0.01197789 0.54117647 0.42352941 0.64313725
v -0.13379957 -0.01129871 -0.01017930 0.54117647 0.42352941 0.64313725
v -0.13537957 -0.01194701 -0.00830238 0.54117647 0.42352941 0.64313725
v -0.13578046 -0.01037701 -0.00940221 0.54117647 0.42352941 0.64313725
v -0.13082821 0.01123096 -0.01290225 0.54117647 0.42352941 0.64313725
v -0.12785687 0.01139162 -0.01308085 0.54117647 0.42352941 0.64313725
v -0.13269121 0.01200609 -0.01122273 0.54117647 0.42352941 0.64313725
v -0.13398823 0.01055166 -0.01262651 0.54117647 0.42352941 0.64313725
v -0.12488553 0.01139444 -0.01311219 0.54117647 0.42352941 0.64313725
v 0.04327846 0.01194408 -0.00811438 0.54117647 0.42352941 0.64313725
v -0.13467210 0.01170450 -0.01061798 0.54117647 0.42352941 0.64313725
v 0.10407312 0.01025570 -0.00645366 0.54117647 0.42352941 0.64313725
v -0.12191419 -0.01000776 -0.01204369 0.54117647 0.42352941 0.64313725
v 0.10407312 -0.01199493 -0.00522849 0.54117647 0.42352941 0.64313725
v -0.13639360 -0.00739767 -0.00659780 0.54117647 0.42352941 0.64313725
v -0.13599270 -0.01036855 -0.00659780 0.54117647 0.42352941 0.64313725
v -0.13606346 -0.00739767 -0.00065683 0.54117647 0.42352941 0.64313725
v -0.13662943 0.00448587 -0.00659780 0.54117647 0.42352941 0.64313725
v -0.13651152 0.00745957 -0.00362731 0.54117647 0.42352941 0.64313725
v -0.13665300 0.00745957 -0.00659780 0.54117647 0.42352941 0.64313725
v -0.13632286 0.01043046 -0.00362731 0.54117647 0.42352941 0.64313725
v -0.13634643 0.01043046 -0.00659780 0.54117647 0.42352941 0.64313725
v -0.13566255 0.01232742 -0.00659780 0.54117647 0.42352941 0.64313725
v -0.13547389 0.01211884 -0.00863766 0.54117647 0.42352941 0.64313725
v -0.13082821 -0.01142837 -0.01042057 0.54117647 0.42352941 0.64313725
v -0.12488553 -0.01152703 -0.01058038 0.54117647 0.42352941 0.64313725
v -0.13082821 -0.01229089 -0.00893533 0.54117647 0.42352941 0.64313725
v -0.13379957 -0.01215277 -0.00869406 0.54117647 0.42352941 0.64313725
v -0.13547389 -0.01203721 -0.00659780 0.54117647 0.42352941 0.64313725
v -0.13379957 -0.01267987 -0.00659780 0.54117647 0.42352941 0.64313725
v -0.13379957 -0.01295328 -0.00362731 0.54117647 0.42352941 0.64313725
v -0.13082821 0.01209347 -0.01141700 0.54117647 0.42352941 0.64313725
v -0.12785687 0.01216394 -0.01159248 0.54117647 0.42352941 0.64313725
v -0.12488553 0.01217522 -0.01162381 0.54117647 0.42352941 0.64313725
v -0.13082821 0.01274741 -0.00956828 0.54117647 0.42352941 0.64313725
v -0.13372881 0.01235279 -0.00960589 0.54117647 0.42352941 0.64313725
v 0.04150980 0.01254164 -0.00659780 0.54117647 0.42352941 0.64313725
v 0.07122326 0.01238380 -0.00580818 0.54117647 0.42352941 0.64313725
v 0.10407312 0.01163403 -0.00477728 0.54117647 0.42352941 0.64313725
v 0.10407312 -0.01293918 -0.00368371 0.54117647 0.42352941 0.64313725
v -0.13589838 -0.01036855 -0.00362731 0.54117647 0.42352941 0.64313725
v -0.13575689 -0.01036855 -0.00065683 0.54117647 0.42352941 0.64313725
v -0.13547389 -0.01206257 -0.00362731 0.54117647 0.42352941 0.64313725
v -0.13540315 -0.01199211 -0.00065683 0.54117647 0.42352941 0.64313725
v -0.13582763 -0.00739767 0.00231366 0.54117647 0.42352941 0.64313725
v -0.13589838 -0.00442396 0.00231366 0.54117647 0.42352941 0.64313725
v -0.13629927 0.00745957 -0.00065683 0.54117647 0.42352941 0.64313725
v -0.13606346 0.01043046 -0.00065683 0.54117647 0.42352941 0.64313725
v -0.13556823 0.01226541 -0.00065683 0.54117647 0.42352941 0.64313725
v -0.13568614 0.01239789 -0.00362731 0.54117647 0.42352941 0.64313725
v -0.13379957 0.01326322 -0.00362731 0.54117647 0.42352941 0.64313725
v -0.13379957 0.01308001 -0.00659780 0.54117647 0.42352941 0.64313725
v -0.12488553 -0.01235572 -0.00909514 0.54117647 0.42352941 0.64313725
v -0.13082821 -0.01311958 -0.00659780 0.54117647 0.42352941 0.64313725
v -0.12191419 -0.01331125 -0.00659780 0.54117647 0.42352941 0.64313725
v -0.13082821 -0.01363258 -0.00362731 0.54117647 0.42352941 0.64313725
v -0.13379957 -0.01288563 -0.00065683 0.54117647 0.42352941 0.64313725
v -0.13082821 -0.01364385 -0.00065683 0.54117647 0.42352941 0.64313725
v -0.12785687 0.01282351 -0.00956828 0.54117647 0.42352941 0.64313725
v -0.12488553 0.01284606 -0.00956828 0.54117647 0.42352941 0.64313725
v 0.02368173 0.01365784 -0.00362731 0.54117647 0.42352941 0.64313725
v -0.13082821 0.01340416 -0.00659780 0.54117647 0.42352941 0.64313725
v 0.07122326 0.01317866 -0.00362731 0.54117647 0.42352941 0.64313725
v 0.10407312 0.01231897 -0.00316670 0.54117647 0.42352941 0.64313725
v 0.10407312 0.01171859 -0.00463001 0.54117647 0.42352941 0.64313725
v 0.10407312 -0.01408356 -0.00069443 0.54117647 0.42352941 0.64313725
v -0.11300016 -0.01329715 -0.00659780 0.54117647 0.42352941 0.64313725
v -0.13533241 -0.01191037 0.00107909 0.54117647 0.42352941 0.64313725
v -0.13552106 -0.01033191 0.00216639 0.54117647 0.42352941 0.64313725
v -0.13540315 -0.00931719 0.00421565 0.54117647 0.42352941 0.64313725
v -0.13549749 -0.00739767 0.00483293 0.54117647 0.42352941 0.64313725
v -0.13552106 -0.00467483 0.00556615 0.54117647 0.42352941 0.64313725
v -0.13563898 -0.00145308 0.00528415 0.54117647 0.42352941 0.64313725
v -0.13601629 0.00448587 0.00231366 0.54117647 0.42352941 0.64313725
v -0.13599270 0.00745957 0.00231366 0.54117647 0.42352941 0.64313725
v -0.13561538 0.01033744 0.00221026 0.54117647 0.42352941 0.64313725
v -0.13542673 0.01208502 0.00115116 0.54117647 0.42352941 0.64313725
v -0.13379957 0.01308283 -0.00065683 0.54117647 0.42352941 0.64313725
v -0.13082821 0.01350563 -0.00065683 0.54117647 0.42352941 0.64313725
v -0.13082821 0.01360992 -0.00362731 0.54117647 0.42352941 0.64313725
v -0.11894284 -0.01330843 -0.00659780 0.54117647 0.42352941 0.64313725
v -0.12191419 -0.01388344 -0.00362731 0.54117647 0.42352941 0.64313725
v -0.05654459 -0.01392854 -0.00362731 0.54117647 0.42352941 0.64313725
v -0.11300016 -0.01395109 -0.00362731 0.54117647 0.42352941 0.64313725
v -0.11894284 -0.01393981 -0.00362731 0.54117647 0.42352941 0.64313725
v -0.12191419 -0.01398209 -0.00065683 0.54117647 0.42352941 0.64313725
v -0.13391747 -0.01241209 0.00216639 0.54117647 0.42352941 0.64313725
v -0.13082821 -0.01316186 0.00231366 0.54117647 0.42352941 0.64313725
v -0.12191419 -0.01372559 0.00231366 0.54117647 0.42352941 0.64313725
v -0.12488553 -0.01357057 0.00231366 0.54117647 0.42352941 0.64313725
v 0.02071038 0.01367193 -0.00362731 0.54117647 0.42352941 0.64313725
v 0.02071038 0.01411164 -0.00065683 0.54117647 0.42352941 0.64313725
v 0.07122326 0.01377340 -0.00065683 0.54117647 0.42352941 0.64313725
v 0.01773904 0.01410883 -0.00065683 0.54117647 0.42352941 0.64313725
v 0.07419460 0.01374240 -0.00065683 0.54117647 0.42352941 0.64313725
v 0.08310863 0.01360710 -0.00065683 0.54117647 0.42352941 0.64313725
v 0.09202267 0.01334497 -0.00065683 0.54117647 0.42352941 0.64313725
v 0.09499401 0.01322940 -0.00065683 0.54117647 0.42352941 0.64313725
v 0.10407312 0.01279250 -0.00084483 0.54117647 0.42352941 0.64313725
v 0.10407312 -0.01429497 0.00240453 0.54117647 0.42352941 0.64313725
v 0.00288231 -0.01466703 0.00231366 0.54117647 0.42352941 0.64313725
v -0.05357325 -0.01452046 -0.00065683 0.54117647 0.42352941 0.64313725
v -0.13299778 -0.01216969 0.00443499 0.54117647 0.42352941 0.64313725
v -0.13497867 -0.01129871 0.00305941 0.54117647 0.42352941 0.64313725
v -0.13401181 -0.01045311 0.00531548 0.54117647 0.42352941 0.64313725
v -0.13509658 -0.00739767 0.00631818 0.54117647 0.42352941 0.64313725
v -0.13528524 -0.00583048 0.00674119 0.54117647 0.42352941 0.64313725
v -0.13535598 -0.00384895 0.00693859 0.54117647 0.42352941 0.64313725
v -0.13537957 -0.00145308 0.00701379 0.54117647 0.42352941 0.64313725
v -0.13556823 0.00448587 0.00518388 0.54117647 0.42352941 0.64313725
v -0.13554464 0.00745957 0.00476086 0.54117647 0.42352941 0.64313725
v -0.13542673 0.00928325 0.00418431 0.54117647 0.42352941 0.64313725
v -0.13450703 0.01126478 0.00313148 0.54117647 0.42352941 0.64313725
v -0.13252613 0.01200046 0.00393991 0.54117647 0.42352941 0.64313725
v -0.13363449 0.01236970 0.00221026 0.54117647 0.42352941 0.64313725
v -0.13082821 0.01275304 0.00231366 0.54117647 0.42352941 0.64313725
v 0.03556711 0.01374522 0.00528415 0.54117647 0.42352941 0.64313725
v 0.05339518 0.01389743 0.00528415 0.54117647 0.42352941 0.64313725
v 0.01773904 0.01403272 0.00231366 0.54117647 0.42352941 0.64313725
v 0.02071038 0.01404963 0.00231366 0.54117647 0.42352941 0.64313725
v -0.05654459 -0.01450355 -0.00065683 0.54117647 0.42352941 0.64313725
v -0.11002880 -0.01391163 0.00231366 0.54117647 0.42352941 0.64313725
v -0.05357325 -0.01443308 0.00231366 0.54117647 0.42352941 0.64313725
v -0.13082821 -0.01232471 0.00480160 0.54117647 0.42352941 0.64313725
v -0.12507419 -0.01247410 0.00555989 0.54117647 0.42352941 0.64313725
v -0.12191419 -0.01277288 0.00528415 0.54117647 0.42352941 0.64313725
v 0.07122326 0.01412292 0.00231366 0.54117647 0.42352941 0.64313725
v 0.07419460 0.01411446 0.00231366 0.54117647 0.42352941 0.64313725
v 0.05339518 0.01410037 0.00231366 0.54117647 0.42352941 0.64313725
v 0.08310863 0.01391434 0.00231366 0.54117647 0.42352941 0.64313725
v 0.08607998 0.01382696 0.00231366 0.54117647 0.42352941 0.64313725
v 0.09499401 0.01351127 0.00231366 0.54117647 0.42352941 0.64313725
v 0.10407312 0.01282915 -0.00065683 0.54117647 0.42352941 0.64313725
v 0.10407312 -0.01369459 0.00528415 0.54117647 0.42352941 0.64313725
v 0.08607998 -0.01412303 0.00528415 0.54117647 0.42352941 0.64313725
v 0.07419460 -0.01439926 0.00528415 0.54117647 0.42352941 0.64313725
v 0.07122326 -0.01443872 0.00528415 0.54117647 0.42352941 0.64313725
v -0.00008903 -0.01467267 0.00231366 0.54117647 0.42352941 0.64313725
v -0.04465921 -0.01447536 0.00231366 0.54117647 0.42352941 0.64313725
v -0.13082821 -0.01151293 0.00628684 0.54117647 0.42352941 0.64313725
v -0.13306852 -0.00960751 0.00729894 0.54117647 0.42352941 0.64313725
v -0.13342226 -0.00717217 0.00827656 0.54117647 0.42352941 0.64313725
v -0.13243181 -0.00603061 0.00979941 0.54117647 0.42352941 0.64313725
v -0.13441270 -0.00467483 0.00806036 0.54117647 0.42352941 0.64313725
v -0.13443629 -0.00145308 0.00850217 0.54117647 0.42352941 0.64313725
v -0.13533241 0.00088924 0.00692606 0.54117647 0.42352941 0.64313725
v -0.13526166 0.00448587 0.00666912 0.54117647 0.42352941 0.64313725
v -0.13493152 0.00745957 0.00624611 0.54117647 0.42352941 0.64313725
v -0.13285629 0.00930862 0.00706393 0.54117647 0.42352941 0.64313725
v -0.13082821 0.01098855 0.00547215 0.54117647 0.42352941 0.64313725
v -0.13082821 0.01202301 0.00398691 0.54117647 0.42352941 0.64313725
v 0.05339518 0.01308846 0.00825776 0.54117647 0.42352941 0.64313725
v 0.07122326 0.01393689 0.00528415 0.54117647 0.42352941 0.64313725
v -0.05357325 -0.01369459 0.00528415 0.54117647 0.42352941 0.64313725
v -0.00603172 -0.01432315 0.00528415 0.54117647 0.42352941 0.64313725
v 0.00288231 -0.01438235 0.00528415 0.54117647 0.42352941 0.64313725
v -0.12618255 -0.01182862 0.00673179 0.54117647 0.42352941 0.64313725
v -0.12420164 -0.01193292 0.00686026 0.54117647 0.42352941 0.64313725
v -0.12191419 -0.01196110 0.00689472 0.54117647 0.42352941 0.64313725
v 0.00288231 -0.01307166 0.00825776 0.54117647 0.42352941 0.64313725
v 0.07419460 0.01393407 0.00528415 0.54117647 0.42352941 0.64313725
v 0.08310863 0.01372267 0.00528415 0.54117647 0.42352941 0.64313725
v 0.09202267 0.01349436 0.00528415 0.54117647 0.42352941 0.64313725
v 0.09499401 0.01337879 0.00528415 0.54117647 0.42352941 0.64313725
v 0.09796535 0.01332523 0.00231366 0.54117647 0.42352941 0.64313725
v 0.10407312 0.01290525 0.00213505 0.54117647 0.42352941 0.64313725
v 0.10407312 -0.01253611 0.00770942 0.54117647 0.42352941 0.64313725
v 0.09499401 -0.01286308 0.00825776 0.54117647 0.42352941 0.64313725
v 0.08905132 -0.01318723 0.00825776 0.54117647 0.42352941 0.64313725
v 0.08607998 -0.01331970 0.00825776 0.54117647 0.42352941 0.64313725
v 0.07716594 -0.01357620 0.00825776 0.54117647 0.42352941 0.64313725
v 0.07122326 -0.01371714 0.00825776 0.54117647 0.42352941 0.64313725
v 0.06825191 -0.01377915 0.00825776 0.54117647 0.42352941 0.64313725
v -0.13082821 -0.01002749 0.00764048 0.54117647 0.42352941 0.64313725
v -0.13271478 -0.00442396 0.00994041 0.54117647 0.42352941 0.64313725
v -0.13082821 -0.00770772 0.00912572 0.54117647 0.42352941 0.64313725
v -0.13082821 -0.00622228 0.00988088 0.54117647 0.42352941 0.64313725
v -0.13082821 -0.00442396 0.01025062 0.54117647 0.42352941 0.64313725
v -0.13448344 0.00173202 0.00805409 0.54117647 0.42352941 0.64313725
v -0.13295061 -0.00145308 0.01006575 0.54117647 0.42352941 0.64313725
v -0.13280912 0.00151498 0.00998428 0.54117647 0.42352941 0.64313725
v -0.13252613 0.00332739 0.00984641 0.54117647 0.42352941 0.64313725
v -0.13344584 0.00745957 0.00755901 0.54117647 0.42352941 0.64313725
v -0.13082821 0.00745957 0.00842384 0.54117647 0.42352941 0.64313725
v -0.13082821 0.00950311 0.00722373 0.54117647 0.42352941 0.64313725
v -0.12488553 0.00965250 0.00743994 0.54117647 0.42352941 0.64313725
v 0.03556711 0.01203146 0.00989968 0.54117647 0.42352941 0.64313725
v 0.05339518 0.01223159 0.01014409 0.54117647 0.42352941 0.64313725
v 0.07419460 0.01307155 0.00825776 0.54117647 0.42352941 0.64313725
v 0.06528056 -0.01375378 0.00825776 0.54117647 0.42352941 0.64313725
v 0.05933788 -0.01370023 0.00825776 0.54117647 0.42352941 0.64313725
v 0.05636653 -0.01367204 0.00825776 0.54117647 0.42352941 0.64313725
v 0.05339518 -0.01364103 0.00825776 0.54117647 0.42352941 0.64313725
v -0.12507419 -0.01065042 0.00777522 0.54117647 0.42352941 0.64313725
v -0.04465921 -0.01138609 0.00932940 0.54117647 0.42352941 0.64313725
v -0.12191419 -0.01036855 0.00812303 0.54117647 0.42352941 0.64313725
v 0.05042384 -0.01249383 0.01045743 0.54117647 0.42352941 0.64313725
v 0.04745249 -0.01245719 0.01042923 0.54117647 0.42352941 0.64313725
v 0.08310863 0.01289680 0.00825776 0.54117647 0.42352941 0.64313725
v 0.08607998 0.01280378 0.00825776 0.54117647 0.42352941 0.64313725
v 0.09202267 0.01262057 0.00814496 0.54117647 0.42352941 0.64313725
v 0.09499401 0.01255855 0.00795069 0.54117647 0.42352941 0.64313725
v 0.09796535 0.01241198 0.00767808 0.54117647 0.42352941 0.64313725
v 0.09796535 0.01313920 0.00528415 0.54117647 0.42352941 0.64313725
v 0.10407312 0.01290243 0.00231366 0.54117647 0.42352941 0.64313725
v 0.10407312 -0.01104785 0.00917586 0.54117647 0.42352941 0.64313725
v 0.09895581 -0.01174970 0.00962394 0.54117647 0.42352941 0.64313725
v 0.09697492 -0.01192446 0.00982448 0.54117647 0.42352941 0.64313725
v 0.08905132 -0.01221197 0.01017542 0.54117647 0.42352941 0.64313725
v 0.08607998 -0.01228807 0.01026942 0.54117647 0.42352941 0.64313725
v 0.07716594 -0.01242336 0.01042296 0.54117647 0.42352941 0.64313725
v 0.06825191 -0.01253047 0.01062037 0.54117647 0.42352941 0.64313725
v 0.06528056 -0.01252202 0.01062977 0.54117647 0.42352941 0.64313725
v -0.12785687 -0.01020789 0.00780968 0.54117647 0.42352941 0.64313725
v -0.12488553 -0.00820663 0.00944220 0.54117647 0.42352941 0.64313725
v -0.12785687 -0.00796986 0.00929493 0.54117647 0.42352941 0.64313725
v -0.13082821 -0.00145308 0.01049190 0.54117647 0.42352941 0.64313725
v -0.12785687 -0.00648442 0.00997488 0.54117647 0.42352941 0.64313725
v -0.12488553 -0.00442396 0.01065170 0.54117647 0.42352941 0.64313725
v -0.12785687 -0.00442396 0.01045743 0.54117647 0.42352941 0.64313725
v -0.12488553 -0.00145308 0.01097758 0.54117647 0.42352941 0.64313725
v -0.13082821 0.00151498 0.01031329 0.54117647 0.42352941 0.64313725
v -0.13082821 0.00364027 0.00993415 0.54117647 0.42352941 0.64313725
v -0.13082821 0.00512853 0.00945787 0.54117647 0.42352941 0.64313725
v -0.12580524 0.00581910 0.00969914 0.54117647 0.42352941 0.64313725
v -0.12382433 0.00604741 0.00977434 0.54117647 0.42352941 0.64313725
v -0.12483836 0.00720589 0.00906305 0.54117647 0.42352941 0.64313725
v -0.12191419 0.00759205 0.00893458 0.54117647 0.42352941 0.64313725
v 0.03556711 0.00878153 0.01265082 0.54117647 0.42352941 0.64313725
v 0.03556711 0.01043046 0.01132225 0.54117647 0.42352941 0.64313725
v 0.05339518 0.01058548 0.01162933 0.54117647 0.42352941 0.64313725
v 0.05636653 0.01060239 0.01160739 0.54117647 0.42352941 0.64313725
v 0.06528056 0.01058548 0.01158546 0.54117647 0.42352941 0.64313725
v 0.07419460 0.01219213 0.01008768 0.54117647 0.42352941 0.64313725
v 0.08310863 0.01211039 0.00997488 0.54117647 0.42352941 0.64313725
v -0.04168787 -0.00992884 0.01042609 0.54117647 0.42352941 0.64313725
v -0.04465921 -0.00990065 0.01038223 0.54117647 0.42352941 0.64313725
v -0.04763056 -0.00983864 0.01036029 0.54117647 0.42352941 0.64313725
v 0.06528056 -0.01074907 0.01211501 0.54117647 0.42352941 0.64313725
v -0.11300016 -0.00854487 0.00955813 0.54117647 0.42352941 0.64313725
v -0.12191419 -0.00830246 0.00948607 0.54117647 0.42352941 0.64313725
v 0.06825191 -0.01081954 0.01210561 0.54117647 0.42352941 0.64313725
v 0.08607998 0.01205401 0.00990595 0.54117647 0.42352941 0.64313725
v 0.08846178 0.01198073 0.00982134 0.54117647 0.42352941 0.64313725
v 0.09044267 0.01190744 0.00973047 0.54117647 0.42352941 0.64313725
v 0.09202267 0.01183134 0.00963020 0.54117647 0.42352941 0.64313725
v 0.09499401 0.01168476 0.00943593 0.54117647 0.42352941 0.64313725
v 0.09796535 0.01149028 0.00916332 0.54117647 0.42352941 0.64313725
v 0.10093671 0.01218931 0.00728327 0.54117647 0.42352941 0.64313725
v 0.10407312 0.01234715 0.00546275 0.54117647 0.42352941 0.64313725
v 0.10407312 -0.01099993 0.00921033 0.54117647 0.42352941 0.64313725
v 0.09796535 -0.01060250 0.01055770 0.54117647 0.42352941 0.64313725
v 0.09499401 -0.01036855 0.01101204 0.54117647 0.42352941 0.64313725
v 0.08740058 -0.00886338 0.01271036 0.54117647 0.42352941 0.64313725
v 0.08905132 -0.01036855 0.01156666 0.54117647 0.42352941 0.64313725
v 0.08626863 -0.01010078 0.01194267 0.54117647 0.42352941 0.64313725
v 0.07716594 -0.01063351 0.01190820 0.54117647 0.42352941 0.64313725
v -0.12488553 -0.00672119 0.01005322 0.54117647 0.42352941 0.64313725
v -0.11300016 -0.00705661 0.01029762 0.54117647 0.42352941 0.64313725
v -0.12488553 0.00151498 0.01080210 0.54117647 0.42352941 0.64313725
v -0.12191419 -0.00145308 0.01113738 0.54117647 0.42352941 0.64313725
v -0.11300016 -0.00442396 0.01111231 0.54117647 0.42352941 0.64313725
v -0.12191419 0.00151498 0.01102458 0.54117647 0.42352941 0.64313725
v -0.12191419 0.00448587 0.01036029 0.54117647 0.42352941 0.64313725
v -0.12483836 0.00469163 0.01010022 0.54117647 0.42352941 0.64313725
v -0.11597150 0.00448587 0.01065483 0.54117647 0.42352941 0.64313725
v -0.11300016 0.00448587 0.01076450 0.54117647 0.42352941 0.64313725
v -0.11300016 0.00634338 0.00999368 0.54117647 0.42352941 0.64313725
v 0.03556711 0.00729609 0.01317411 0.54117647 0.42352941 0.64313725
v 0.05339518 0.00745957 0.01349372 0.54117647 0.42352941 0.64313725
v 0.05339518 0.00910004 0.01281376 0.54117647 0.42352941 0.64313725
v -0.01791710 0.00557951 0.01262576 0.54117647 0.42352941 0.64313725
v 0.05636653 0.00911695 0.01282943 0.54117647 0.42352941 0.64313725
v 0.06825191 0.00911413 0.01282630 0.54117647 0.42352941 0.64313725
v 0.07122326 0.01055166 0.01156979 0.54117647 0.42352941 0.64313725
v 0.06825191 0.01059958 0.01155099 0.54117647 0.42352941 0.64313725
v 0.07419460 0.01050938 0.01157293 0.54117647 0.42352941 0.64313725
v 0.07716594 0.01049528 0.01151966 0.54117647 0.42352941 0.64313725
v 0.08310863 0.01043046 0.01140685 0.54117647 0.42352941 0.64313725
v 0.08607998 0.01043046 0.01131599 0.54117647 0.42352941 0.64313725
v -0.02683114 -0.00758370 0.01208054 0.54117647 0.42352941 0.64313725
v 0.06825191 -0.00933410 0.01291090 0.54117647 0.42352941 0.64313725
v -0.02980248 -0.00747941 0.01206801 0.54117647 0.42352941 0.64313725
v 0.07419460 -0.00922417 0.01289210 0.54117647 0.42352941 0.64313725
v 0.07122326 -0.00929182 0.01291403 0.54117647 0.42352941 0.64313725
v 0.08541968 -0.00893103 0.01274169 0.54117647 0.42352941 0.64313725
v 0.08310863 -0.00899304 0.01277303 0.54117647 0.42352941 0.64313725
v 0.08928715 0.01072360 0.01084597 0.54117647 0.42352941 0.64313725
v 0.09499401 0.01019932 0.01077077 0.54117647 0.42352941 0.64313725
v 0.09796535 0.01000483 0.01061410 0.54117647 0.42352941 0.64313725
v 0.10093671 0.00969196 0.01034776 0.54117647 0.42352941 0.64313725
v 0.10093671 0.01117740 0.00876851 0.54117647 0.42352941 0.64313725
v 0.10303552 0.01201737 0.00696053 0.54117647 0.42352941 0.64313725
v 0.10407312 0.01067850 0.00822330 0.54117647 0.42352941 0.64313725
v 0.10407312 -0.00958778 0.01009082 0.54117647 0.42352941 0.64313725
v 0.10093671 -0.00999367 0.01042609 0.54117647 0.42352941 0.64313725
v 0.09796535 -0.00739767 0.01200847 0.54117647 0.42352941 0.64313725
v 0.09499401 -0.00721727 0.01238135 0.54117647 0.42352941 0.64313725
v 0.08905132 -0.00706788 0.01301744 0.54117647 0.42352941 0.64313725
v 0.08905132 -0.00442396 0.01365979 0.54117647 0.42352941 0.64313725
v 0.08607998 -0.00442396 0.01387286 0.54117647 0.42352941 0.64313725
v 0.08626863 -0.00768235 0.01306757 0.54117647 0.42352941 0.64313725
v 0.08310863 -0.00739767 0.01327124 0.54117647 0.42352941 0.64313725
v 0.07419460 -0.00739767 0.01356578 0.54117647 0.42352941 0.64313725
v -0.02683114 -0.00609826 0.01279810 0.54117647 0.42352941 0.64313725
v -0.11597150 0.00151498 0.01131285 0.54117647 0.42352941 0.64313725
v -0.11300016 -0.00145308 0.01146952 0.54117647 0.42352941 0.64313725
v -0.11300016 0.00151498 0.01142566 0.54117647 0.42352941 0.64313725
v -0.03260876 -0.00468046 0.01303310 0.54117647 0.42352941 0.64313725
v -0.03574518 -0.00409982 0.01302997 0.54117647 0.42352941 0.64313725
v -0.03574518 0.00328793 0.01278556 0.54117647 0.42352941 0.64313725
v 0.05339518 0.00448587 0.01432721 0.54117647 0.42352941 0.64313725
v 0.05636653 0.00448587 0.01437421 0.54117647 0.42352941 0.64313725
v 0.05636653 0.00745957 0.01352505 0.54117647 0.42352941 0.64313725
v 0.06825191 0.00745957 0.01356578 0.54117647 0.42352941 0.64313725
v 0.07716594 0.00745957 0.01345298 0.54117647 0.42352941 0.64313725
v 0.07716594 0.00900984 0.01275736 0.54117647 0.42352941 0.64313725
v 0.07914684 0.00898166 0.01274169 0.54117647 0.42352941 0.64313725
v 0.08607998 0.00877589 0.01264142 0.54117647 0.42352941 0.64313725
v 0.07122326 -0.00739767 0.01360965 0.54117647 0.42352941 0.64313725
v 0.06825191 -0.00739767 0.01359085 0.54117647 0.42352941 0.64313725
v 0.08905132 0.00858140 0.01254742 0.54117647 0.42352941 0.64313725
v 0.09801252 0.00727354 0.01219021 0.54117647 0.42352941 0.64313725
v 0.09499401 0.00791901 0.01225601 0.54117647 0.42352941 0.64313725
v 0.10093671 0.00745957 0.01159799 0.54117647 0.42352941 0.64313725
v 0.10324775 0.00931144 0.01003442 0.54117647 0.42352941 0.64313725
v 0.10407312 0.01045864 0.00847710 0.54117647 0.42352941 0.64313725
v 0.10407312 0.01058830 0.00833297 0.54117647 0.42352941 0.64313725
v 0.10407312 -0.00739767 0.01073317 0.54117647 0.42352941 0.64313725
v 0.10093671 -0.00739767 0.01146639 0.54117647 0.42352941 0.64313725
v 0.09796535 -0.00501589 0.01253802 0.54117647 0.42352941 0.64313725
v 0.09598446 -0.00569237 0.01266336 0.54117647 0.42352941 0.64313725
v 0.09400357 -0.00610671 0.01276676 0.54117647 0.42352941 0.64313725
v 0.09202267 -0.00648442 0.01287016 0.54117647 0.42352941 0.64313725
v 0.09202267 -0.00442396 0.01338405 0.54117647 0.42352941 0.64313725
v 0.09202267 -0.00145308 0.01392299 0.54117647 0.42352941 0.64313725
v 0.08905132 -0.00145308 0.01416114 0.54117647 0.42352941 0.64313725
v 0.08607998 -0.00145308 0.01432721 0.54117647 0.42352941 0.64313725
v 0.08310863 -0.00442396 0.01402013 0.54117647 0.42352941 0.64313725
v 0.08013729 -0.00442396 0.01412353 0.54117647 0.42352941 0.64313725
v 0.07419460 -0.00442396 0.01428334 0.54117647 0.42352941 0.64313725
v 0.07122326 -0.00442396 0.01435854 0.54117647 0.42352941 0.64313725
v 0.06825191 -0.00442396 0.01437421 0.54117647 0.42352941 0.64313725
v -0.05248847 -0.00307100 0.01274169 0.54117647 0.42352941 0.64313725
v -0.03277383 -0.00145308 0.01338405 0.54117647 0.42352941 0.64313725
v -0.03277383 0.00151498 0.01309577 0.54117647 0.42352941 0.64313725
v -0.02683114 -0.00442396 0.01315217 0.54117647 0.42352941 0.64313725
v 0.06528056 0.00151498 0.01478782 0.54117647 0.42352941 0.64313725
v 0.06528056 0.00448587 0.01445254 0.54117647 0.42352941 0.64313725
v 0.07122326 0.00448587 0.01446194 0.54117647 0.42352941 0.64313725
v 0.07419460 0.00448587 0.01446194 0.54117647 0.42352941 0.64313725
v 0.07716594 0.00448587 0.01442748 0.54117647 0.42352941 0.64313725
v 0.08607998 0.00729045 0.01321797 0.54117647 0.42352941 0.64313725
v 0.08905132 0.00709596 0.01314591 0.54117647 0.42352941 0.64313725
v 0.09202267 0.00677181 0.01303624 0.54117647 0.42352941 0.64313725
v 0.09499401 0.00643075 0.01289836 0.54117647 0.42352941 0.64313725
v 0.09905014 0.00569508 0.01266336 0.54117647 0.42352941 0.64313725
v 0.09706924 0.00616016 0.01278556 0.54117647 0.42352941 0.64313725
v 0.10407312 0.00462398 0.01162619 0.54117647 0.42352941 0.64313725
v 0.10407312 0.00769634 0.01063290 0.54117647 0.42352941 0.64313725
v 0.10407312 0.00779781 0.01057963 0.54117647 0.42352941 0.64313725
v 0.10407312 -0.00442396 0.01123138 0.54117647 0.42352941 0.64313725
v 0.09947461 -0.00295543 0.01271663 0.54117647 0.42352941 0.64313725
v 0.09796535 -0.00353044 0.01285450 0.54117647 0.42352941 0.64313725
v 0.09499401 -0.00459027 0.01302997 0.54117647 0.42352941 0.64313725
v 0.09499401 -0.00145308 0.01362219 0.54117647 0.42352941 0.64313725
v 0.09202267 0.00151498 0.01404833 0.54117647 0.42352941 0.64313725
v 0.09499401 0.00151498 0.01376319 0.54117647 0.42352941 0.64313725
v 0.08905132 0.00151498 0.01424260 0.54117647 0.42352941 0.64313725
v 0.08013729 0.00151498 0.01470948 0.54117647 0.42352941 0.64313725
v 0.08310863 -0.00145308 0.01447134 0.54117647 0.42352941 0.64313725
v 0.08013729 -0.00145308 0.01460921 0.54117647 0.42352941 0.64313725
v 0.06825191 -0.00145308 0.01477215 0.54117647 0.42352941 0.64313725
v 0.07716594 -0.00145308 0.01465935 0.54117647 0.42352941 0.64313725
v 0.06825191 0.00151498 0.01479409 0.54117647 0.42352941 0.64313725
v 0.07716594 0.00151498 0.01478782 0.54117647 0.42352941 0.64313725
v 0.08013729 0.00448587 0.01431781 0.54117647 0.42352941 0.64313725
v 0.08905132 0.00448587 0.01387286 0.54117647 0.42352941 0.64313725
v 0.09202267 0.00448587 0.01367232 0.54117647 0.42352941 0.64313725
v 0.09499401 0.00448587 0.01339345 0.54117647 0.42352941 0.64313725
v 0.09801252 0.00461835 0.01299550 0.54117647 0.42352941 0.64313725
v 0.09996984 0.00371355 0.01283883 0.54117647 0.42352941 0.64313725
v 0.10096029 0.00461835 0.01245655 0.54117647 0.42352941 0.64313725
v 0.10407312 0.00448587 0.01166693 0.54117647 0.42352941 0.64313725
v 0.10407312 -0.00145308 0.01162933 0.54117647 0.42352941 0.64313725
v 0.10131403 -0.00145308 0.01240328 0.54117647 0.42352941 0.64313725
v 0.09982835 -0.00145308 0.01281690 0.54117647 0.42352941 0.64313725
v 0.09796535 -0.00145308 0.01318977 0.54117647 0.42352941 0.64313725
v 0.09796535 0.00151498 0.01334958 0.54117647 0.42352941 0.64313725
v 0.10020566 0.00151498 0.01291090 0.54117647 0.42352941 0.64313725
v 0.10169134 0.00151498 0.01252235 0.54117647 0.42352941 0.64313725
v 0.10407312 0.00151498 0.01185180 0.54117647 0.42352941 0.64313725
f 1 2 3
f 1 3 4
f 1 4 5
f 1 5 6
f 1 6 7
f 1 7 8
f 1 8 9
f 1 9 10
f 1 10 2
f 2 11 3
f 2 10 12
f 2 12 11
f 3 13 14
f 3 14 4
f 3 11 15
f 3 15 13
f 4 14 5
f 5 16 6
f 5 14 17
f 5 17 16
f 6 16 18
f 6 18 7
f 7 18 19
f 7 19 8
f 8 20 21
f 8 21 9
f 8 19 10
f 8 10 20
f 9 21 10
f 10 22 23
f 10 23 24
f 10 24 25
f 10 25 26
f 10 26 27
f 10 27 28
f 10 28 12
f 10 21 20
f 10 19 22
f 11 29 15
f 11 12 29
f 12 28 30
f 12 30 31
f 12 31 29
f 13 15 32
f 13 32 14
f 14 32 33
f 14 33 34
f 14 34 35
f 14 35 17
f 15 36 37
f 15 37 32
f 15 29 36
f 16 38 39
f 16 39 18
f 16 17 38
f 17 35 40
f 17 40 41
f 17 41 38
f 18 39 42
f 18 42 22
f 18 22 19
f 22 43 23
f 22 42 43
f 23 43 44
f 23 44 24
f 24 44 64
f 24 64 87
f 24 87 114
f 24 114 140
f 24 140 139
f 24 139 174
f 24 174 208
f 24 208 241
f 24 241 280
f 24 280 325
f 24 325 369
f 24 369 403
f 24 403 402
f 24 402 436
f 24 436 435
f 24 435 434
f 24 434 459
f 24 459 467
f 24 467 460
f 24 460 437
f 24 437 404
f 24 404 370
f 24 370 326
f 24 326 281
f 24 281 242
f 24 242 209
f 24 209 175
f 24 175 141
f 24 141 115
f 24 115 89
f 24 89 66
f 24 66 46
f 24 46 31
f 24 31 30
f 24 30 28
f 24 28 27
f 24 27 26
f 24 26 25
f 29 45 36
f 29 31 46
f 29 46 45
f 32 47 33
f 32 37 47
f 33 47 48
f 33 48 49
f 33 49 34
f 34 49 50
f 34 50 35
f 35 50 51
f 35 51 40
f 36 45 52
f 36 52 53
f 36 53 37
f 37 53 54
f 37 54 55
f 37 55 47
f 38 56 39
f 38 41 57
f 38 57 56
f 39 58 59
f 39 59 42
f 39 56 58
f 40 51 60
f 40 60 41
f 41 60 57
f 42 59 61
f 42 61 43
f 43 61 62
f 43 62 63
f 43 63 64
f 43 64 44
f 45 65 52
f 45 46 66
f 45 66 65
f 47 67 68
f 47 68 48
f 47 55 67
f 48 68 49
f 49 68 69
f 49 69 70
f 49 70 71
f 49 71 50
f 50 71 51
f 51 72 73
f 51 73 60
f 51 71 72
f 52 74 53
f 52 65 75
f 52 75 74
f 53 74 76
f 53 76 54
f 54 76 77
f 54 77 78
f 54 78 79
f 54 79 55
f 55 79 67
f 56 80 81
f 56 81 58
f 56 57 80
f 57 82 80
f 57 60 83
f 57 83 82
f 58 81 84
f 58 84 59
f 59 84 85
f 59 85 61
f 60 73 86
f 60 86 83
f 61 85 87
f 61 87 62
f 62 87 63
f 63 87 64
f 65 88 75
f 65 66 88
f 66 89 88
f 67 90 68
f 67 79 91
f 67 91 116
f 67 116 90
f 68 90 92
f 68 92 69
f 69 93 70
f 69 92 93
f 70 93 94
f 70 94 95
f 70 95 71
f 71 95 96
f 71 96 97
f 71 97 72
f 72 97 98
f 72 98 99
f 72 99 73
f 73 99 86
f 74 100 76
f 74 75 101
f 74 101 100
f 75 88 89
f 75 89 101
f 76 100 77
f 77 100 102
f 77 102 103
f 77 103 78
f 78 104 91
f 78 91 79
f 78 103 105
f 78 105 106
f 78 106 104
f 80 82 107
f 80 107 81
f 81 108 109
f 81 109 84
f 81 107 108
f 82 110 107
f 82 83 86
f 82 86 111
f 82 111 110
f 84 109 85
f 85 112 113
f 85 113 114
f 85 114 87
f 85 109 112
f 86 99 111
f 89 115 101
f 90 116 117
f 90 117 92
f 91 104 118
f 91 118 119
f 91 119 116
f 92 120 121
f 92 121 122
f 92 122 94
f 92 94 93
f 92 117 120
f 94 122 96
f 94 96 95
f 96 122 123
f 96 123 124
f 96 124 125
f 96 125 97
f 97 125 98
f 98 125 126
f 98 126 127
f 98 127 99
f 99 127 111
f 100 101 102
f 101 128 102
f 101 115 128
f 102 129 103
f 102 128 130
f 102 130 129
f 103 129 105
f 104 106 118
f 105 129 131
f 105 131 106
f 106 132 118
f 106 131 133
f 106 133 132
f 107 110 108
f 108 134 135
f 108 135 109
f 108 110 134
f 109 135 136
f 109 136 112
f 110 111 127
f 110 127 137
f 110 137 134
f 112 136 138
f 112 138 113
f 113 138 139
f 113 139 140
f 113 140 114
f 115 141 142
f 115 142 128
f 116 119 117
f 117 119 143
f 117 143 144
f 117 144 120
f 118 132 119
f 119 132 143
f 120 144 145
f 120 145 146
f 120 146 147
f 120 147 148
f 120 148 121
f 121 148 149
f 121 149 122
f 122 149 150
f 122 150 123
f 123 150 151
f 123 151 152
f 123 152 124
f 124 152 153
f 124 153 125
f 125 153 126
f 126 153 154
f 126 154 155
f 126 155 127
f 127 155 137
f 128 142 156
f 128 156 130
f 129 130 157
f 129 157 131
f 130 156 158
f 130 158 159
f 130 159 160
f 130 160 157
f 131 157 161
f 131 161 133
f 132 133 162
f 132 162 143
f 133 163 162
f 133 161 164
f 133 164 165
f 133 165 163
f 134 137 135
f 135 137 166
f 135 166 136
f 136 166 167
f 136 167 168
f 136 168 138
f 137 155 169
f 137 169 167
f 137 167 166
f 138 168 170
f 138 170 171
f 138 171 172
f 138 172 139
f 139 172 173
f 139 173 174
f 141 175 176
f 141 176 177
f 141 177 158
f 141 158 142
f 142 158 156
f 143 162 178
f 143 178 179
f 143 179 145
f 143 145 144
f 145 179 180
f 145 180 181
f 145 181 182
f 145 182 146
f 146 182 183
f 146 183 147
f 147 183 148
f 148 183 184
f 148 184 150
f 148 150 149
f 150 184 185
f 150 185 186
f 150 186 187
f 150 187 151
f 151 187 152
f 152 187 188
f 152 188 189
f 152 189 190
f 152 190 153
f 153 190 191
f 153 191 154
f 154 191 192
f 154 192 193
f 154 193 194
f 154 194 195
f 154 195 155
f 155 195 169
f 157 160 161
f 158 177 159
f 159 177 160
f 160 177 196
f 160 196 161
f 161 197 164
f 161 196 198
f 161 198 197
f 162 163 178
f 163 199 178
f 163 165 200
f 163 200 199
f 164 201 165
f 164 197 201
f 165 201 200
f 167 169 202
f 167 202 203
f 167 203 168
f 168 203 170
f 169 195 204
f 169 204 202
f 170 203 171
f 171 205 206
f 171 206 172
f 171 203 205
f 172 206 207
f 172 207 173
f 173 207 208
f 173 208 174
f 175 209 210
f 175 210 211
f 175 211 212
f 175 212 176
f 176 212 213
f 176 213 177
f 177 214 198
f 177 198 196
f 177 213 214
f 178 199 215
f 178 215 216
f 178 216 180
f 178 180 179
f 180 216 181
f 181 216 217
f 181 217 182
f 182 217 218
f 182 218 219
f 182 219 220
f 182 220 183
f 183 220 184
f 184 220 221
f 184 221 185
f 185 221 222
f 185 222 186
f 186 222 223
f 186 223 187
f 187 223 224
f 187 224 188
f 188 224 189
f 189 224 225
f 189 225 226
f 189 226 191
f 189 191 190
f 191 226 227
f 191 227 192
f 192 227 193
f 193 227 228
f 193 228 195
f 193 195 194
f 195 228 204
f 197 229 201
f 197 198 230
f 197 230 229
f 198 214 231
f 198 231 230
f 199 200 232
f 199 232 215
f 200 201 233
f 200 233 232
f 201 234 233
f 201 229 235
f 201 235 234
f 202 204 228
f 202 228 236
f 202 236 203
f 203 236 205
f 205 237 238
f 205 238 206
f 205 236 237
f 206 238 207
f 207 238 239
f 207 239 240
f 207 240 208
f 208 240 241
f 209 242 243
f 209 243 244
f 209 244 245
f 209 245 246
f 209 246 210
f 210 246 247
f 210 247 211
f 211 247 248
f 211 248 212
f 212 248 231
f 212 231 213
f 213 231 214
f 215 249 216
f 215 232 249
f 216 249 218
f 216 218 217
f 218 250 219
f 218 249 251
f 218 251 252
f 218 252 253
f 218 253 250
f 219 250 220
f 220 254 222
f 220 222 221
f 220 250 255
f 220 255 256
f 220 256 254
f 222 254 256
f 222 256 257
f 222 257 223
f 223 257 258
f 223 258 224
f 224 258 257
f 224 257 259
f 224 259 260
f 224 260 225
f 225 260 261
f 225 261 262
f 225 262 226
f 226 262 263
f 226 263 227
f 227 263 264
f 227 264 228
f 228 264 236
f 229 230 235
f 230 231 248
f 230 248 265
f 230 265 266
f 230 266 267
f 230 267 268
f 230 268 235
f 232 233 269
f 232 269 249
f 233 234 270
f 233 270 271
f 233 271 269
f 234 235 272
f 234 272 273
f 234 273 270
f 235 268 272
f 236 264 274
f 236 274 237
f 237 274 238
f 238 274 275
f 238 275 276
f 238 276 239
f 239 276 277
f 239 277 278
f 239 278 279
f 239 279 280
f 239 280 240
f 240 280 241
f 242 281 282
f 242 282 283
f 242 283 243
f 243 283 284
f 243 284 244
f 244 284 245
f 245 284 285
f 245 285 246
f 246 286 287
f 246 287 247
f 246 285 286
f 247 287 248
f 248 287 288
f 248 288 272
f 248 272 265
f 249 269 289
f 249 289 290
f 249 290 291
f 249 291 251
f 250 253 292
f 250 292 255
f 251 291 252
f 252 291 290
f 252 290 293
f 252 293 294
f 252 294 295
f 252 295 253
f 253 295 296
f 253 296 292
f 255 292 256
f 256 292 297
f 256 297 257
f 257 297 298
f 257 298 299
f 257 299 259
f 259 299 300
f 259 300 301
f 259 301 302
f 259 302 260
f 260 302 261
f 261 302 303
f 261 303 304
f 261 304 305
f 261 305 262
f 262 305 306
f 262 306 263
f 263 306 307
f 263 307 308
f 263 308 309
f 263 309 264
f 264 309 310
f 264 310 274
f 265 272 266
f 266 272 267
f 267 272 268
f 269 290 289
f 269 271 290
f 270 311 312
f 270 312 313
f 270 313 271
f 270 273 314
f 270 314 311
f 271 315 316
f 271 316 290
f 271 313 315
f 272 288 317
f 272 317 314
f 272 314 273
f 274 310 318
f 274 318 275
f 275 318 276
f 276 318 319
f 276 319 277
f 277 319 320
f 277 320 321
f 277 321 322
f 277 322 278
f 278 322 323
f 278 323 324
f 278 324 279
f 279 324 325
f 279 325 280
f 281 326 282
f 282 327 283
f 282 326 327
f 283 327 328
f 283 328 329
f 283 329 330
f 283 330 284
f 284 330 331
f 284 331 285
f 285 331 332
f 285 332 317
f 285 317 287
f 285 287 286
f 287 317 288
f 290 333 293
f 290 316 334
f 290 334 333
f 292 296 335
f 292 335 297
f 293 333 294
f 294 336 296
f 294 296 295
f 294 333 337
f 294 337 336
f 296 336 338
f 296 338 335
f 297 335 298
f 298 335 338
f 298 338 339
f 298 339 340
f 298 340 300
f 298 300 299
f 300 340 301
f 301 340 339
f 301 339 341
f 301 341 342
f 301 342 343
f 301 343 302
f 302 343 303
f 303 343 304
f 304 344 345
f 304 345 346
f 304 346 306
f 304 306 305
f 304 343 342
f 304 342 347
f 304 347 344
f 306 346 348
f 306 348 349
f 306 349 307
f 307 349 308
f 308 349 350
f 308 350 351
f 308 351 309
f 309 351 350
f 309 350 352
f 309 352 310
f 310 353 354
f 310 354 355
f 310 355 318
f 310 352 353
f 311 313 312
f 311 314 313
f 313 314 356
f 313 356 316
f 313 316 315
f 314 317 357
f 314 357 356
f 316 356 358
f 316 358 334
f 317 359 360
f 317 360 357
f 317 332 331
f 317 331 361
f 317 361 362
f 317 362 359
f 318 355 319
f 319 355 363
f 319 363 320
f 320 363 364
f 320 364 321
f 321 364 322
f 322 364 365
f 322 365 323
f 323 365 366
f 323 366 367
f 323 367 368
f 323 368 324
f 324 368 325
f 325 368 369
f 326 370 371
f 326 371 327
f 327 371 372
f 327 372 329
f 327 329 328
f 329 361 331
f 329 331 330
f 329 372 373
f 329 373 374
f 329 374 375
f 329 375 376
f 329 376 377
f 329 377 378
f 329 378 379
f 329 379 361
f 333 334 337
f 334 358 380
f 334 380 337
f 336 381 338
f 336 337 382
f 336 382 383
f 336 383 381
f 337 380 384
f 337 384 385
f 337 385 382
f 338 381 341
f 338 341 339
f 341 381 383
f 341 383 342
f 342 383 386
f 342 386 347
f 344 347 345
f 345 387 388
f 345 388 389
f 345 389 346
f 345 347 387
f 346 389 348
f 347 386 387
f 348 389 390
f 348 390 349
f 349 352 350
f 349 390 391
f 349 391 392
f 349 392 352
f 352 392 393
f 352 393 353
f 353 393 354
f 354 393 355
f 355 393 394
f 355 394 363
f 356 380 358
f 356 357 380
f 357 360 395
f 357 395 396
f 357 396 380
f 359 379 360
f 359 362 379
f 360 379 395
f 361 379 362
f 363 394 397
f 363 397 364
f 364 397 365
f 365 398 366
f 365 397 399
f 365 399 398
f 366 400 401
f 366 401 367
f 366 398 400
f 367 401 402
f 367 402 403
f 367 403 369
f 367 369 368
f 370 404 405
f 370 405 372
f 370 372 371
f 372 405 406
f 372 406 407
f 372 407 373
f 373 407 408
f 373 408 409
f 373 409 374
f 374 409 410
f 374 410 375
f 375 410 411
f 375 411 412
f 375 412 376
f 376 412 413
f 376 413 414
f 376 414 377
f 377 414 378
f 378 414 415
f 378 415 379
f 379 416 417
f 379 417 395
f 379 415 416
f 380 396 418
f 380 418 384
f 382 385 419
f 382 419 420
f 382 420 383
f 383 420 421
f 383 421 386
f 384 418 422
f 384 422 420
f 384 420 385
f 385 420 419
f 386 421 387
f 387 423 388
f 387 421 420
f 387 420 423
f 388 423 424
f 388 424 389
f 389 424 390
f 390 424 425
f 390 425 426
f 390 426 427
f 390 427 391
f 391 393 392
f 391 427 428
f 391 428 394
f 391 394 393
f 394 428 429
f 394 429 397
f 395 417 418
f 395 418 396
f 397 429 430
f 397 430 431
f 397 431 399
f 398 432 400
f 398 399 433
f 398 433 432
f 399 431 433
f 400 432 434
f 400 434 435
f 400 435 401
f 401 435 436
f 401 436 402
f 404 437 438
f 404 438 405
f 405 438 406
f 406 439 407
f 406 438 439
f 407 440 410
f 407 410 408
f 407 439 440
f 408 410 409
f 410 440 441
f 410 441 411
f 411 442 412
f 411 441 443
f 411 443 442
f 412 442 444
f 412 444 413
f 413 444 445
f 413 445 446
f 413 446 414
f 414 446 447
f 414 447 415
f 415 447 416
f 416 447 417
f 417 448 418
f 417 447 449
f 417 449 448
f 418 448 422
f 420 422 448
f 420 448 423
f 423 448 450
f 423 450 424
f 424 450 425
f 425 450 426
f 426 450 451
f 426 451 427
f 427 451 445
f 427 445 452
f 427 452 428
f 428 452 429
f 429 453 430
f 429 452 453
f 430 453 454
f 430 454 431
f 431 454 433
f 432 433 455
f 432 455 456
f 432 456 457
f 432 457 458
f 432 458 459
f 432 459 434
f 433 454 455
f 437 460 461
f 437 461 438
f 438 462 463
f 438 463 439
f 438 461 462
f 439 463 441
f 439 441 440
f 441 463 464
f 441 464 443
f 442 454 453
f 442 453 444
f 442 443 455
f 442 455 454
f 443 464 457
f 443 457 456
f 443 456 455
f 444 453 445
f 445 451 447
f 445 447 446
f 445 453 452
f 447 451 449
f 448 449 451
f 448 451 450
f 457 464 465
f 457 465 466
f 457 466 459
f 457 459 458
f 459 466 467
f 460 467 466
f 460 466 461
f 461 466 462
f 462 465 463
f 462 466 465
f 463 465 464

