# https://github.com/mikedh/trimesh
v 0.09833181 -0.01540752 0.00340987 0.54509804 0.71372549 0.60000000
v 0.09833181 -0.01460941 0.00648444 0.54509804 0.71372549 0.60000000
v 0.09833181 -0.01495998 -0.00008634 0.54509804 0.71372549 0.60000000
v 0.13215125 -0.03678513 -0.01435985 0.54509804 0.71372549 0.60000000
v 0.13001933 -0.03520381 -0.01179980 0.54509804 0.71372549 0.60000000
v 0.13215125 -0.03602431 -0.01085359 0.54509804 0.71372549 0.60000000
v 0.10070208 -0.01460941 0.00631377 0.54509804 0.71372549 0.60000000
v 0.09833181 -0.01199874 0.00819615 0.54509804 0.71372549 0.60000000
v 0.09833181 -0.01443039 -0.00147680 0.54509804 0.71372549 0.60000000
v 0.13215125 -0.03672546 -0.01449287 0.54509804 0.71372549 0.60000000
v 0.09833181 -0.01416186 -0.00216952 0.54509804 0.71372549 0.60000000
v 0.13215125 -0.03499496 -0.01016338 0.54509804 0.71372549 0.60000000
v 0.10070208 -0.01206587 0.00777952 0.54509804 0.71372549 0.60000000
v 0.09833181 -0.00856759 0.00860275 0.54509804 0.71372549 0.60000000
v 0.13051589 -0.03470406 -0.01569509 0.54509804 0.71372549 0.60000000
v 0.13215125 -0.03545742 -0.01605902 0.54509804 0.71372549 0.60000000
v 0.09833181 -0.01206587 -0.00277439 0.54509804 0.71372549 0.60000000
v 0.12337528 -0.02440312 -0.01584819 0.54509804 0.71372549 0.60000000
v 0.12637453 -0.02869953 -0.01610419 0.54509804 0.71372549 0.60000000
v 0.12711607 -0.03103421 -0.01553195 0.54509804 0.71372549 0.60000000
v 0.13215125 -0.03304815 -0.00910423 0.54509804 0.71372549 0.60000000
v 0.10420122 -0.01206587 0.00638153 0.54509804 0.71372549 0.60000000
v 0.10070208 -0.00856759 0.00810078 0.54509804 0.71372549 0.60000000
v 0.10070208 -0.00507675 0.00808572 0.54509804 0.71372549 0.60000000
v 0.10070208 0.00191236 0.00800290 0.54509804 0.71372549 0.60000000
v 0.09833181 -0.00078035 0.00844463 0.54509804 0.71372549 0.60000000
v 0.12944662 -0.03237684 -0.01623471 0.54509804 0.71372549 0.60000000
v 0.13215125 -0.03402528 -0.01645808 0.54509804 0.71372549 0.60000000
v 0.09833181 -0.00969390 -0.00297267 0.54509804 0.71372549 0.60000000
v 0.12133274 -0.01906245 -0.01533869 0.54509804 0.71372549 0.60000000
v 0.12317996 -0.02256074 -0.01590340 0.54509804 0.71372549 0.60000000
v 0.12519602 -0.02576067 -0.01619204 0.54509804 0.71372549 0.60000000
v 0.12843694 -0.02974380 -0.01647816 0.54509804 0.71372549 0.60000000
v 0.13215125 -0.03006453 -0.00867253 0.54509804 0.71372549 0.60000000
v 0.10420122 -0.00856759 0.00657479 0.54509804 0.71372549 0.60000000
v 0.13215125 -0.02960953 -0.00864493 0.54509804 0.71372549 0.60000000
v 0.10420122 -0.00507675 0.00654969 0.54509804 0.71372549 0.60000000
v 0.10420122 0.00191236 0.00645934 0.54509804 0.71372549 0.60000000
v 0.10420122 0.00541065 0.00637902 0.54509804 0.71372549 0.60000000
v 0.10070208 0.00541065 0.00784227 0.54509804 0.71372549 0.60000000
v 0.09833181 0.00323261 0.00830408 0.54509804 0.71372549 0.60000000
v 0.09833181 0.00194220 0.00836180 0.54509804 0.71372549 0.60000000
v 0.13187649 -0.03334651 -0.01655346 0.54509804 0.71372549 0.60000000
v 0.13215125 -0.03360758 -0.01654342 0.54509804 0.71372549 0.60000000
v 0.09833181 -0.00856759 -0.00305800 0.54509804 0.71372549 0.60000000
v 0.11818451 -0.01556416 -0.01367968 0.54509804 0.71372549 0.60000000
v 0.12148502 -0.01556416 -0.01538387 0.54509804 0.71372549 0.60000000
v 0.12308065 -0.01906245 -0.01591344 0.54509804 0.71372549 0.60000000
v 0.12517615 -0.02256074 -0.01634263 0.54509804 0.71372549 0.60000000
v 0.12867529 -0.02605157 -0.01684209 0.54509804 0.71372549 0.60000000
v 0.13215125 -0.02954986 -0.01703535 0.54509804 0.71372549 0.60000000
v 0.13215125 -0.02952748 -0.01703786 0.54509804 0.71372549 0.60000000
v 0.13215125 -0.02606649 -0.00857214 0.54509804 0.71372549 0.60000000
v 0.13215125 0.02986138 -0.00816554 0.54509804 0.71372549 0.60000000
v 0.13215125 0.03335967 -0.00821323 0.54509804 0.71372549 0.60000000
v 0.13215125 0.03661927 -0.00847426 0.54509804 0.71372549 0.60000000
v 0.09833181 0.00541065 0.00816855 0.54509804 0.71372549 0.60000000
v 0.13215125 0.03666403 -0.00848179 0.54509804 0.71372549 0.60000000
v 0.13215125 -0.02982585 -0.01700272 0.54509804 0.71372549 0.60000000
v 0.13215125 -0.03332413 -0.01658357 0.54509804 0.71372549 0.60000000
v 0.09833181 -0.00507675 -0.00308561 0.54509804 0.71372549 0.60000000
v 0.09833181 -0.00157847 -0.00310820 0.54509804 0.71372549 0.60000000
v 0.09833181 0.00191236 -0.00306804 0.54509804 0.71372549 0.60000000
v 0.11830037 0.00541065 -0.01344124 0.54509804 0.71372549 0.60000000
v 0.11835334 0.00890148 -0.01341113 0.54509804 0.71372549 0.60000000
v 0.12168033 0.01239977 -0.01501492 0.54509804 0.71372549 0.60000000
v 0.12406054 0.01239977 -0.01570764 0.54509804 0.71372549 0.60000000
v 0.12867529 -0.02256074 -0.01681197 0.54509804 0.71372549 0.60000000
v 0.12580845 0.01239977 -0.01601635 0.54509804 0.71372549 0.60000000
v 0.12867529 0.00191236 -0.01656851 0.54509804 0.71372549 0.60000000
v 0.13215125 0.00193474 -0.01697009 0.54509804 0.71372549 0.60000000
v 0.13215125 -0.00155609 -0.01699017 0.54509804 0.71372549 0.60000000
v 0.09833181 0.00640271 0.00771175 0.54509804 0.71372549 0.60000000
v 0.13215125 0.03855116 -0.00965388 0.54509804 0.71372549 0.60000000
v 0.09833181 0.00848378 0.00656726 0.54509804 0.71372549 0.60000000
v 0.09833181 0.00428434 -0.00299526 0.54509804 0.71372549 0.60000000
v 0.11847914 0.01239977 -0.01337850 0.54509804 0.71372549 0.60000000
v 0.12168033 0.01589806 -0.01489194 0.54509804 0.71372549 0.60000000
v 0.12424592 0.01589806 -0.01568254 0.54509804 0.71372549 0.60000000
v 0.12599383 0.01589806 -0.01597368 0.54509804 0.71372549 0.60000000
v 0.12867529 0.01239977 -0.01643800 0.54509804 0.71372549 0.60000000
v 0.13215125 0.00543303 -0.01691738 0.54509804 0.71372549 0.60000000
v 0.13215125 0.03941641 -0.01065531 0.54509804 0.71372549 0.60000000
v 0.09833181 0.00897607 0.00559344 0.54509804 0.71372549 0.60000000
v 0.09833181 0.00541065 -0.00295008 0.54509804 0.71372549 0.60000000
v 0.12168033 0.01939635 -0.01448534 0.54509804 0.71372549 0.60000000
v 0.12461669 0.01939635 -0.01560473 0.54509804 0.71372549 0.60000000
v 0.11872080 0.01589806 -0.01328061 0.54509804 0.71372549 0.60000000
v 0.12636460 0.01939635 -0.01591344 0.54509804 0.71372549 0.60000000
v 0.12867529 0.01589806 -0.01636271 0.54509804 0.71372549 0.60000000
v 0.13215125 0.01592044 -0.01674420 0.54509804 0.71372549 0.60000000
v 0.13215125 0.01242215 -0.01680946 0.54509804 0.71372549 0.60000000
v 0.13215125 0.00892386 -0.01686468 0.54509804 0.71372549 0.60000000
v 0.13215125 0.03699222 -0.01446526 0.54509804 0.71372549 0.60000000
v 0.12962538 0.03620902 -0.01327309 0.54509804 0.71372549 0.60000000
v 0.09833181 0.00941616 -0.00001105 0.54509804 0.71372549 0.60000000
v 0.09833181 0.00984878 0.00244860 0.54509804 0.71372549 0.60000000
v 0.09833181 0.00992337 0.00332705 0.54509804 0.71372549 0.60000000
v 0.09833181 0.00706656 -0.00256607 0.54509804 0.71372549 0.60000000
v 0.11922068 0.01939635 -0.01294932 0.54509804 0.71372549 0.60000000
v 0.12159426 0.02277530 -0.01351403 0.54509804 0.71372549 0.60000000
v 0.12517615 0.02638547 -0.01457319 0.54509804 0.71372549 0.60000000
v 0.12538802 0.02292448 -0.01544159 0.54509804 0.71372549 0.60000000
v 0.12769540 0.02638547 -0.01569509 0.54509804 0.71372549 0.60000000
v 0.12716904 0.02411792 -0.01578293 0.54509804 0.71372549 0.60000000
v 0.12669565 0.02178324 -0.01586074 0.54509804 0.71372549 0.60000000
v 0.12867529 0.01939635 -0.01623972 0.54509804 0.71372549 0.60000000
v 0.13215125 0.01941873 -0.01663377 0.54509804 0.71372549 0.60000000
v 0.13215125 0.03691764 -0.01449789 0.54509804 0.71372549 0.60000000
v 0.13213470 0.03693255 -0.01448534 0.54509804 0.71372549 0.60000000
v 0.12854618 0.03340443 -0.01393067 0.54509804 0.71372549 0.60000000
v 0.12649040 0.03226319 -0.01289912 0.54509804 0.71372549 0.60000000
v 0.09833181 0.00796164 -0.00235776 0.54509804 0.71372549 0.60000000
v 0.12283568 0.02638547 -0.01294932 0.54509804 0.71372549 0.60000000
v 0.12526554 0.02959286 -0.01334085 0.54509804 0.71372549 0.60000000
v 0.12879447 0.03008516 -0.01537885 0.54509804 0.71372549 0.60000000
v 0.13056886 0.03138303 -0.01580301 0.54509804 0.71372549 0.60000000
v 0.13004250 0.02905581 -0.01587580 0.54509804 0.71372549 0.60000000
v 0.12847004 0.02292448 -0.01603894 0.54509804 0.71372549 0.60000000
v 0.13215125 0.02291702 -0.01647565 0.54509804 0.71372549 0.60000000
v 0.13215125 0.03338205 -0.01577540 0.54509804 0.71372549 0.60000000
v 0.13130378 0.03338205 -0.01564740 0.54509804 0.71372549 0.60000000
v 0.13215125 0.03077885 -0.01600380 0.54509804 0.71372549 0.60000000
v 0.13190959 0.03008516 -0.01602639 0.54509804 0.71372549 0.60000000
v 0.13215125 0.02668383 -0.01626482 0.54509804 0.71372549 0.60000000
v 0.13215125 0.02638547 -0.01628239 0.54509804 0.71372549 0.60000000
v 0.12944662 0.02638547 -0.01595862 0.54509804 0.71372549 0.60000000
v 0.13215125 0.03007024 -0.01605149 0.54509804 0.71372549 0.60000000
f 1 2 8
f 1 8 14
f 1 14 26
f 1 26 42
f 1 42 41
f 1 41 57
f 1 57 73
f 1 73 75
f 1 75 84
f 1 84 98
f 1 98 97
f 1 97 96
f 1 96 113
f 1 113 99
f 1 99 85
f 1 85 76
f 1 76 63
f 1 63 62
f 1 62 61
f 1 61 45
f 1 45 29
f 1 29 17
f 1 17 11
f 1 11 9
f 1 9 3
f 1 3 4
f 1 4 5
f 1 5 2
f 2 5 6
f 2 6 7
f 2 7 8
f 3 9 4
f 4 10 16
f 4 16 28
f 4 28 44
f 4 44 60
f 4 60 59
f 4 59 51
f 4 51 52
f 4 52 72
f 4 72 71
f 4 71 82
f 4 82 93
f 4 93 92
f 4 92 91
f 4 91 108
f 4 108 120
f 4 120 126
f 4 126 125
f 4 125 128
f 4 128 123
f 4 123 121
f 4 121 109
f 4 109 94
f 4 94 83
f 4 83 74
f 4 74 58
f 4 58 56
f 4 56 55
f 4 55 54
f 4 54 53
f 4 53 36
f 4 36 34
f 4 34 21
f 4 21 12
f 4 12 6
f 4 6 5
f 4 9 11
f 4 11 10
f 6 12 7
f 7 12 8
f 8 13 14
f 8 12 13
f 10 15 16
f 10 11 15
f 11 17 18
f 11 18 19
f 11 19 20
f 11 20 15
f 12 21 13
f 13 22 23
f 13 23 14
f 13 21 22
f 14 23 24
f 14 24 25
f 14 25 26
f 15 20 27
f 15 27 16
f 16 27 28
f 17 29 30
f 17 30 18
f 18 30 31
f 18 31 32
f 18 32 19
f 19 32 33
f 19 33 27
f 19 27 20
f 21 34 22
f 22 35 23
f 22 34 36
f 22 36 35
f 23 35 24
f 24 35 37
f 24 37 25
f 25 37 38
f 25 38 39
f 25 39 40
f 25 40 41
f 25 41 42
f 25 42 26
f 27 33 43
f 27 43 28
f 28 43 44
f 29 45 30
f 30 46 47
f 30 47 48
f 30 48 31
f 30 45 46
f 31 49 32
f 31 48 49
f 32 49 50
f 32 50 33
f 33 51 43
f 33 50 52
f 33 52 51
f 35 36 53
f 35 53 54
f 35 54 37
f 37 54 38
f 38 54 55
f 38 55 39
f 39 55 56
f 39 56 40
f 40 57 41
f 40 56 58
f 40 58 57
f 43 51 59
f 43 59 60
f 43 60 44
f 45 61 46
f 46 61 62
f 46 62 63
f 46 63 64
f 46 64 47
f 47 64 65
f 47 65 66
f 47 66 48
f 48 66 67
f 48 67 49
f 49 68 50
f 49 67 69
f 49 69 70
f 49 70 68
f 50 68 71
f 50 71 72
f 50 72 52
f 57 58 73
f 58 74 75
f 58 75 73
f 63 76 77
f 63 77 65
f 63 65 64
f 65 77 66
f 66 77 78
f 66 78 79
f 66 79 67
f 67 79 69
f 68 70 71
f 69 79 80
f 69 80 81
f 69 81 70
f 70 81 71
f 71 81 82
f 74 83 75
f 75 83 84
f 76 85 77
f 77 85 78
f 78 86 87
f 78 87 79
f 78 85 88
f 78 88 86
f 79 87 89
f 79 89 80
f 80 90 81
f 80 89 90
f 81 90 91
f 81 91 92
f 81 92 93
f 81 93 82
f 83 94 95
f 83 95 96
f 83 96 97
f 83 97 98
f 83 98 84
f 85 99 100
f 85 100 86
f 85 86 88
f 86 100 101
f 86 101 102
f 86 102 103
f 86 103 87
f 87 103 104
f 87 104 105
f 87 105 106
f 87 106 89
f 89 106 107
f 89 107 90
f 90 107 108
f 90 108 91
f 94 109 110
f 94 110 95
f 95 110 111
f 95 111 112
f 95 112 113
f 95 113 96
f 99 113 100
f 100 113 101
f 101 114 102
f 101 113 114
f 102 114 115
f 102 115 111
f 102 111 116
f 102 116 103
f 103 116 104
f 104 116 117
f 104 117 105
f 105 117 118
f 105 118 119
f 105 119 106
f 106 119 107
f 107 119 120
f 107 120 108
f 109 121 122
f 109 122 110
f 110 122 111
f 111 122 116
f 111 115 112
f 112 115 113
f 113 115 114
f 116 122 117
f 117 122 121
f 117 121 123
f 117 123 124
f 117 124 125
f 117 125 126
f 117 126 118
f 118 126 127
f 118 127 119
f 119 127 126
f 119 126 120
f 123 128 124
f 124 128 125

