# https://github.com/mikedh/trimesh
v -0.11065394 0.01331436 -0.00008324 0.54117647 0.42352941 0.64313725
v -0.11065394 0.01301801 -0.00088768 0.54117647 0.42352941 0.64313725
v -0.11065394 0.01311484 0.00341171 0.54117647 0.42352941 0.64313725
v 0.05062676 0.01066186 0.00517353 0.54117647 0.42352941 0.64313725
v 0.09833181 0.00992831 0.00332569 0.54117647 0.42352941 0.64313725
v 0.09833181 0.00985202 0.00244957 0.54117647 0.42352941 0.64313725
v 0.09833181 0.00941776 -0.00000837 0.54117647 0.42352941 0.64313725
v -0.11065394 0.01200865 -0.00319270 0.54117647 0.42352941 0.64313725
v -0.11065394 0.01181499 0.00696879 0.54117647 0.42352941 0.64313725
v 0.03076329 0.00975226 0.00713924 0.54117647 0.42352941 0.64313725
v 0.03426139 0.00970238 0.00711216 0.54117647 0.42352941 0.64313725
v 0.05872761 0.00930333 0.00690826 0.54117647 0.42352941 0.64313725
v 0.06572381 0.00913314 0.00690826 0.54117647 0.42352941 0.64313725
v 0.09718623 0.00847882 0.00663427 0.54117647 0.42352941 0.64313725
v 0.09833181 0.00848469 0.00656896 0.54117647 0.42352941 0.64313725
v 0.09833181 0.00898057 0.00559248 0.54117647 0.42352941 0.64313725
v -0.09860493 0.01081737 0.00879432 0.54117647 0.42352941 0.64313725
v 0.09833181 0.00796240 -0.00235480 0.54117647 0.42352941 0.64313725
v -0.06014633 0.00758389 -0.00556302 0.54117647 0.42352941 0.64313725
v -0.06362396 0.00763084 -0.00558691 0.54117647 0.42352941 0.64313725
v -0.11065394 0.01052101 -0.00416440 0.54117647 0.42352941 0.64313725
v -0.11065394 0.01071467 0.00870671 0.54117647 0.42352941 0.64313725
v -0.10909923 0.01074988 0.00873698 0.54117647 0.42352941 0.64313725
v -0.10560113 0.01080563 0.00878317 0.54117647 0.42352941 0.64313725
v -0.10210303 0.01084084 0.00881185 0.54117647 0.42352941 0.64313725
v 0.03076329 0.00800642 0.00908106 0.54117647 0.42352941 0.64313725
v 0.06572381 0.00750467 0.00884689 0.54117647 0.42352941 0.64313725
v 0.06922191 0.00744305 0.00881185 0.54117647 0.42352941 0.64313725
v 0.07621810 0.00727580 0.00871945 0.54117647 0.42352941 0.64313725
v 0.07893885 0.00720832 0.00868282 0.54117647 0.42352941 0.64313725
v 0.09833181 0.00640435 0.00771270 0.54117647 0.42352941 0.64313725
v 0.08127090 0.00709682 0.00865096 0.54117647 0.42352941 0.64313725
v 0.02726520 0.00803576 0.00910017 0.54117647 0.42352941 0.64313725
v 0.09833181 0.00707335 -0.00256348 0.54117647 0.42352941 0.64313725
v -0.06014633 0.00540966 -0.00584019 0.54117647 0.42352941 0.64313725
v -0.06362396 0.00540966 -0.00588161 0.54117647 0.42352941 0.64313725
v 0.09833181 0.00540966 -0.00294738 0.54117647 0.42352941 0.64313725
v -0.07062016 0.00540966 -0.00590550 0.54117647 0.42352941 0.64313725
v -0.07411826 0.00540966 -0.00591506 0.54117647 0.42352941 0.64313725
v -0.06712206 0.00764258 -0.00559010 0.54117647 0.42352941 0.64313725
v -0.08111446 0.00771887 -0.00559328 0.54117647 0.42352941 0.64313725
v -0.09860493 0.00938842 -0.00477291 0.54117647 0.42352941 0.64313725
v -0.10210303 0.00933560 -0.00477610 0.54117647 0.42352941 0.64313725
v -0.10560113 0.00925051 -0.00475380 0.54117647 0.42352941 0.64313725
v -0.10560113 0.00750174 -0.00540532 0.54117647 0.42352941 0.64313725
v -0.10768772 0.00736090 -0.00537346 0.54117647 0.42352941 0.64313725
v -0.11065394 0.00035699 -0.00534638 0.54117647 0.42352941 0.64313725
v -0.11065394 0.00896003 0.00901574 0.54117647 0.42352941 0.64313725
v -0.10909923 0.00890721 0.00909380 0.54117647 0.42352941 0.64313725
v -0.10210303 0.00890721 0.00919575 0.54117647 0.42352941 0.64313725
v -0.09860493 0.00890721 0.00920371 0.54117647 0.42352941 0.64313725
v -0.00071958 0.00822061 0.00921964 0.54117647 0.42352941 0.64313725
v 0.00277851 0.00820301 0.00921009 0.54117647 0.42352941 0.64313725
v 0.01677090 0.00810911 0.00914796 0.54117647 0.42352941 0.64313725
v 0.02376710 0.00806217 0.00911610 0.54117647 0.42352941 0.64313725
v 0.00277851 0.00540966 0.00976603 0.54117647 0.42352941 0.64313725
v 0.00627661 0.00540966 0.00973895 0.54117647 0.42352941 0.64313725
v 0.02726520 0.00540966 0.00955735 0.54117647 0.42352941 0.64313725
v 0.05522952 0.00764551 0.00892017 0.54117647 0.42352941 0.64313725
v 0.06222571 0.00755162 0.00887238 0.54117647 0.42352941 0.64313725
v 0.03076329 0.00540966 0.00952230 0.54117647 0.42352941 0.64313725
v 0.06572381 0.00540966 0.00910654 0.54117647 0.42352941 0.64313725
v 0.06922191 0.00540966 0.00905397 0.54117647 0.42352941 0.64313725
v 0.09718623 0.00540966 0.00832281 0.54117647 0.42352941 0.64313725
v 0.09833181 0.00540966 0.00816829 0.54117647 0.42352941 0.64313725
v 0.09021049 0.00427413 0.00872264 0.54117647 0.42352941 0.64313725
v 0.09293123 0.00395430 0.00869078 0.54117647 0.42352941 0.64313725
v 0.09021049 0.00601997 0.00850440 0.54117647 0.42352941 0.64313725
v -0.06014633 0.00191504 -0.00588161 0.54117647 0.42352941 0.64313725
v 0.09833181 0.00428293 -0.00299358 0.54117647 0.42352941 0.64313725
v 0.09833181 0.00191504 -0.00306526 0.54117647 0.42352941 0.64313725
v 0.09833181 0.00078832 -0.00307960 0.54117647 0.42352941 0.64313725
v -0.06362396 0.00191504 -0.00592303 0.54117647 0.42352941 0.64313725
v -0.10909923 -0.01206929 -0.00648534 0.54117647 0.42352941 0.64313725
v -0.07761636 0.00540966 -0.00590391 0.54117647 0.42352941 0.64313725
v -0.07761636 0.00768953 -0.00559488 0.54117647 0.42352941 0.64313725
v -0.10210303 0.00758683 -0.00543080 0.54117647 0.42352941 0.64313725
v -0.09860493 0.00763964 -0.00545151 0.54117647 0.42352941 0.64313725
v -0.10909923 -0.00857174 -0.00629259 0.54117647 0.42352941 0.64313725
v -0.11065394 -0.00857174 -0.00625596 0.54117647 0.42352941 0.64313725
v -0.11065394 0.00735503 0.00917823 0.54117647 0.42352941 0.64313725
v -0.11065394 0.00540966 0.00928973 0.54117647 0.42352941 0.64313725
v -0.08111446 0.00540966 0.00962585 0.54117647 0.42352941 0.64313725
v -0.07761636 0.00540966 0.00966249 0.54117647 0.42352941 0.64313725
v -0.04965203 0.00540966 0.00975966 0.54117647 0.42352941 0.64313725
v -0.04265584 0.00540966 0.00977877 0.54117647 0.42352941 0.64313725
v -0.03915774 0.00540966 0.00978355 0.54117647 0.42352941 0.64313725
v -0.00421768 0.00540966 0.00978833 0.54117647 0.42352941 0.64313725
v -0.00071958 0.00540966 0.00978355 0.54117647 0.42352941 0.64313725
v 0.00277851 0.00191504 0.00975169 0.54117647 0.42352941 0.64313725
v 0.00627661 0.00191504 0.00973258 0.54117647 0.42352941 0.64313725
v 0.00977471 0.00191504 0.00971027 0.54117647 0.42352941 0.64313725
v 0.01327281 0.00191504 0.00968479 0.54117647 0.42352941 0.64313725
v 0.02726520 0.00191504 0.00957647 0.54117647 0.42352941 0.64313725
v 0.03076329 0.00191504 0.00954301 0.54117647 0.42352941 0.64313725
v 0.06572381 0.00191504 0.00919097 0.54117647 0.42352941 0.64313725
v 0.06922191 0.00191504 0.00915433 0.54117647 0.42352941 0.64313725
v 0.09021049 0.00191504 0.00880707 0.54117647 0.42352941 0.64313725
v 0.09393361 0.00523654 0.00848051 0.54117647 0.42352941 0.64313725
v 0.09524284 0.00316794 0.00864936 0.54117647 0.42352941 0.64313725
v 0.09694075 0.00196786 0.00857290 0.54117647 0.42352941 0.64313725
v 0.09833181 0.00323543 0.00830369 0.54117647 0.42352941 0.64313725
v 0.09393361 0.00196786 0.00871149 0.54117647 0.42352941 0.64313725
v -0.06014633 -0.00857174 -0.00590073 0.54117647 0.42352941 0.64313725
v -0.06362396 -0.00507712 -0.00593896 0.54117647 0.42352941 0.64313725
v 0.09833181 -0.00158251 -0.00310508 0.54117647 0.42352941 0.64313725
v -0.10560113 -0.01456628 -0.00587205 0.54117647 0.42352941 0.64313725
v -0.10909923 -0.01459562 -0.00591028 0.54117647 0.42352941 0.64313725
v -0.11065394 -0.01347477 -0.00609347 0.54117647 0.42352941 0.64313725
v -0.11065394 -0.01206929 -0.00641207 0.54117647 0.42352941 0.64313725
v -0.11065394 -0.01051711 -0.00636268 0.54117647 0.42352941 0.64313725
v -0.06362396 -0.00857174 -0.00594374 0.54117647 0.42352941 0.64313725
v 0.09833181 -0.00969847 -0.00297127 0.54117647 0.42352941 0.64313725
v 0.09833181 -0.01206929 -0.00277375 0.54117647 0.42352941 0.64313725
v -0.11065394 0.00385748 0.00929611 0.54117647 0.42352941 0.64313725
v -0.10909923 -0.01206929 0.00939487 0.54117647 0.42352941 0.64313725
v -0.07761636 -0.00857174 0.00956531 0.54117647 0.42352941 0.64313725
v -0.04265584 0.00191504 0.00975169 0.54117647 0.42352941 0.64313725
v -0.03915774 0.00191504 0.00975966 0.54117647 0.42352941 0.64313725
v -0.00769532 0.00191504 0.00978196 0.54117647 0.42352941 0.64313725
v -0.00421768 0.00191504 0.00978196 0.54117647 0.42352941 0.64313725
v -0.00071958 0.00191504 0.00976921 0.54117647 0.42352941 0.64313725
v 0.01327281 -0.00158251 0.00965293 0.54117647 0.42352941 0.64313725
v 0.01677090 -0.00158251 0.00963222 0.54117647 0.42352941 0.64313725
v 0.02026900 -0.00158251 0.00960992 0.54117647 0.42352941 0.64313725
v 0.02726520 -0.00158251 0.00955894 0.54117647 0.42352941 0.64313725
v 0.06572381 -0.00158251 0.00919416 0.54117647 0.42352941 0.64313725
v 0.06922191 -0.00158251 0.00915911 0.54117647 0.42352941 0.64313725
v 0.09368813 -0.00857174 0.00881981 0.54117647 0.42352941 0.64313725
v 0.09021049 -0.00507712 0.00886441 0.54117647 0.42352941 0.64313725
v 0.09021049 -0.00158251 0.00883893 0.54117647 0.42352941 0.64313725
v 0.09368813 -0.00507712 0.00880070 0.54117647 0.42352941 0.64313725
v 0.09368813 -0.00158251 0.00876246 0.54117647 0.42352941 0.64313725
v 0.09561106 0.00083820 0.00866529 0.54117647 0.42352941 0.64313725
v 0.09587699 -0.00158251 0.00868282 0.54117647 0.42352941 0.64313725
v 0.09622476 -0.00507712 0.00870671 0.54117647 0.42352941 0.64313725
v 0.09761582 -0.00158251 0.00857449 0.54117647 0.42352941 0.64313725
v 0.09833181 -0.00078734 0.00844547 0.54117647 0.42352941 0.64313725
v 0.09833181 0.00194732 0.00836263 0.54117647 0.42352941 0.64313725
v 0.09833181 -0.00507712 -0.00308278 0.54117647 0.42352941 0.64313725
v 0.09833181 -0.00857174 -0.00305570 0.54117647 0.42352941 0.64313725
v 0.09833181 -0.01416136 -0.00216842 0.54117647 0.42352941 0.64313725
v -0.10560113 -0.01598349 -0.00358138 0.54117647 0.42352941 0.64313725
v -0.10909923 -0.01598349 -0.00358138 0.54117647 0.42352941 0.64313725
v -0.11065394 -0.01451640 -0.00585453 0.54117647 0.42352941 0.64313725
v -0.11065394 -0.00857174 0.00933434 0.54117647 0.42352941 0.64313725
v -0.11065394 -0.01206929 0.00932478 0.54117647 0.42352941 0.64313725
v -0.11065394 -0.01301410 0.00917982 0.54117647 0.42352941 0.64313725
v -0.10909923 -0.01440197 0.00902530 0.54117647 0.42352941 0.64313725
v -0.10560113 -0.01444305 0.00902849 0.54117647 0.42352941 0.64313725
v -0.10210303 -0.01442838 0.00902530 0.54117647 0.42352941 0.64313725
v 0.02726520 -0.01181108 0.00904123 0.54117647 0.42352941 0.64313725
v -0.00071958 -0.00857174 0.00956531 0.54117647 0.42352941 0.64313725
v -0.00421768 -0.00857174 0.00957009 0.54117647 0.42352941 0.64313725
v -0.00769532 -0.00158251 0.00973098 0.54117647 0.42352941 0.64313725
v -0.00421768 -0.00158251 0.00973098 0.54117647 0.42352941 0.64313725
v -0.00071958 -0.00158251 0.00971665 0.54117647 0.42352941 0.64313725
v 0.01677090 -0.00507712 0.00957169 0.54117647 0.42352941 0.64313725
v 0.02026900 -0.00507712 0.00955416 0.54117647 0.42352941 0.64313725
v 0.02726520 -0.00857174 0.00945381 0.54117647 0.42352941 0.64313725
v 0.02726520 -0.00507712 0.00950797 0.54117647 0.42352941 0.64313725
v 0.06922191 -0.00857174 0.00911451 0.54117647 0.42352941 0.64313725
v 0.06922191 -0.00507712 0.00913840 0.54117647 0.42352941 0.64313725
v 0.07272001 -0.00857174 0.00907946 0.54117647 0.42352941 0.64313725
v 0.09368813 -0.01096310 0.00873857 0.54117647 0.42352941 0.64313725
v 0.09624522 -0.01073717 0.00870671 0.54117647 0.42352941 0.64313725
v 0.09653161 -0.00857174 0.00872583 0.54117647 0.42352941 0.64313725
v 0.09798404 -0.00507712 0.00859361 0.54117647 0.42352941 0.64313725
v 0.09833181 -0.00463406 0.00852352 0.54117647 0.42352941 0.64313725
v 0.09833181 -0.01443424 -0.00147549 0.54117647 0.42352941 0.64313725
v -0.09860493 -0.01663195 -0.00008324 0.54117647 0.42352941 0.64313725
v -0.10210303 -0.01665836 -0.00008324 0.54117647 0.42352941 0.64313725
v -0.10560113 -0.01666129 -0.00008324 0.54117647 0.42352941 0.64313725
v 0.09833181 -0.01495946 -0.00008324 0.54117647 0.42352941 0.64313725
v -0.10909923 -0.01661141 -0.00008324 0.54117647 0.42352941 0.64313725
v -0.11065394 -0.01653512 -0.00008324 0.54117647 0.42352941 0.64313725
v -0.11065394 -0.01586026 -0.00358138 0.54117647 0.42352941 0.64313725
v -0.11065394 -0.01528809 -0.00455945 0.54117647 0.42352941 0.64313725
v -0.11065394 -0.01431101 0.00897433 0.54117647 0.42352941 0.64313725
v -0.10909923 -0.01576930 0.00690826 0.54117647 0.42352941 0.64313725
v -0.10560113 -0.01584852 0.00690826 0.54117647 0.42352941 0.64313725
v -0.10210303 -0.01583679 0.00690826 0.54117647 0.42352941 0.64313725
v 0.09368813 -0.01461323 0.00664383 0.54117647 0.42352941 0.64313725
v 0.06222571 -0.01341608 0.00851078 0.54117647 0.42352941 0.64313725
v -0.09510684 -0.01436382 0.00901097 0.54117647 0.42352941 0.64313725
v 0.03076329 -0.01181695 0.00902530 0.54117647 0.42352941 0.64313725
v 0.02026900 -0.00857174 0.00948885 0.54117647 0.42352941 0.64313725
v 0.02376710 -0.00857174 0.00947292 0.54117647 0.42352941 0.64313725
v 0.06572381 -0.01161449 0.00888831 0.54117647 0.42352941 0.64313725
v 0.06922191 -0.01152353 0.00887875 0.54117647 0.42352941 0.64313725
v 0.07272001 -0.01142670 0.00886282 0.54117647 0.42352941 0.64313725
v 0.09368813 -0.01271188 0.00839290 0.54117647 0.42352941 0.64313725
v 0.09732942 -0.01196953 0.00836900 0.54117647 0.42352941 0.64313725
v 0.09833181 -0.01199887 0.00819537 0.54117647 0.42352941 0.64313725
v 0.09827044 -0.00857174 0.00861273 0.54117647 0.42352941 0.64313725
v 0.09833181 -0.00850132 0.00860157 0.54117647 0.42352941 0.64313725
v 0.09833181 -0.01541426 0.00341171 0.54117647 0.42352941 0.64313725
v -0.10210303 -0.01665836 0.00341171 0.54117647 0.42352941 0.64313725
v -0.10560113 -0.01664956 0.00341171 0.54117647 0.42352941 0.64313725
v -0.10909923 -0.01659087 0.00341171 0.54117647 0.42352941 0.64313725
v -0.11065394 -0.01651752 0.00341171 0.54117647 0.42352941 0.64313725
v -0.11065394 -0.01563139 0.00690826 0.54117647 0.42352941 0.64313725
v -0.11065394 -0.01605978 0.00535512 0.54117647 0.42352941 0.64313725
v 0.09718623 -0.01461616 0.00656737 0.54117647 0.42352941 0.64313725
v 0.06572381 -0.01336033 0.00849644 0.54117647 0.42352941 0.64313725
v 0.06222571 -0.01166731 0.00889946 0.54117647 0.42352941 0.64313725
v 0.09833181 -0.01461616 0.00648453 0.54117647 0.42352941 0.64313725
v 0.09833181 -0.00857174 0.00860157 0.54117647 0.42352941 0.64313725
f 1 2 8
f 1 8 21
f 1 21 47
f 1 47 80
f 1 80 111
f 1 111 110
f 1 110 109
f 1 109 145
f 1 145 178
f 1 178 177
f 1 177 176
f 1 176 201
f 1 201 203
f 1 203 202
f 1 202 179
f 1 179 148
f 1 148 147
f 1 147 146
f 1 146 115
f 1 115 82
f 1 82 81
f 1 81 48
f 1 48 22
f 1 22 9
f 1 9 3
f 1 3 4
f 1 4 5
f 1 5 6
f 1 6 7
f 1 7 2
f 2 7 8
f 3 9 4
f 4 10 11
f 4 11 12
f 4 12 13
f 4 13 14
f 4 14 15
f 4 15 16
f 4 16 5
f 4 9 17
f 4 17 10
f 5 16 15
f 5 15 31
f 5 31 65
f 5 65 102
f 5 102 139
f 5 139 138
f 5 138 169
f 5 169 196
f 5 196 208
f 5 208 194
f 5 194 207
f 5 207 197
f 5 197 174
f 5 174 170
f 5 170 142
f 5 142 114
f 5 114 113
f 5 113 141
f 5 141 140
f 5 140 106
f 5 106 72
f 5 72 71
f 5 71 70
f 5 70 37
f 5 37 34
f 5 34 18
f 5 18 7
f 5 7 6
f 7 18 8
f 8 19 20
f 8 20 21
f 8 18 19
f 9 22 23
f 9 23 24
f 9 24 25
f 9 25 17
f 10 26 27
f 10 27 11
f 10 17 26
f 11 27 12
f 12 27 13
f 13 27 28
f 13 28 14
f 14 29 30
f 14 30 15
f 14 28 29
f 15 30 32
f 15 32 31
f 17 25 33
f 17 33 26
f 18 34 19
f 19 35 36
f 19 36 20
f 19 34 37
f 19 37 35
f 20 36 38
f 20 38 39
f 20 39 40
f 20 40 41
f 20 41 42
f 20 42 21
f 21 42 43
f 21 43 44
f 21 44 45
f 21 45 46
f 21 46 47
f 22 48 49
f 22 49 23
f 23 49 24
f 24 50 25
f 24 49 50
f 25 50 51
f 25 51 52
f 25 52 53
f 25 53 54
f 25 54 55
f 25 55 33
f 26 33 56
f 26 56 57
f 26 57 58
f 26 58 59
f 26 59 60
f 26 60 27
f 27 60 58
f 27 58 61
f 27 61 62
f 27 62 28
f 28 62 63
f 28 63 29
f 29 63 30
f 30 63 32
f 31 64 65
f 31 32 64
f 32 66 67
f 32 67 68
f 32 68 64
f 32 63 66
f 33 55 56
f 35 69 73
f 35 73 36
f 35 37 70
f 35 70 71
f 35 71 72
f 35 72 69
f 36 73 74
f 36 74 38
f 38 74 39
f 39 74 75
f 39 75 41
f 39 41 76
f 39 76 40
f 40 76 41
f 41 75 77
f 41 77 78
f 41 78 43
f 41 43 42
f 43 78 77
f 43 77 44
f 44 77 45
f 45 79 46
f 45 77 75
f 45 75 79
f 46 79 80
f 46 80 47
f 48 81 49
f 49 81 50
f 50 81 82
f 50 82 83
f 50 83 84
f 50 84 85
f 50 85 86
f 50 86 51
f 51 86 87
f 51 87 88
f 51 88 52
f 52 88 89
f 52 89 53
f 53 89 56
f 53 56 54
f 54 56 55
f 56 89 122
f 56 122 90
f 56 90 91
f 56 91 92
f 56 92 93
f 56 93 94
f 56 94 57
f 57 94 58
f 58 94 95
f 58 95 61
f 58 60 59
f 61 95 96
f 61 96 97
f 61 97 62
f 62 97 63
f 63 97 98
f 63 98 67
f 63 67 66
f 64 68 99
f 64 99 67
f 64 67 100
f 64 100 101
f 64 101 65
f 65 101 102
f 67 98 103
f 67 103 100
f 67 99 68
f 69 104 105
f 69 105 73
f 69 72 106
f 69 106 104
f 73 105 74
f 74 107 108
f 74 108 109
f 74 109 110
f 74 110 111
f 74 111 80
f 74 80 79
f 74 79 75
f 74 105 112
f 74 112 104
f 74 104 113
f 74 113 114
f 74 114 107
f 82 115 116
f 82 116 83
f 83 116 84
f 84 116 117
f 84 117 85
f 85 118 86
f 85 117 118
f 86 118 119
f 86 119 87
f 87 119 120
f 87 120 88
f 88 120 121
f 88 121 89
f 89 121 122
f 90 122 123
f 90 123 91
f 91 123 124
f 91 124 125
f 91 125 92
f 92 125 126
f 92 126 93
f 93 126 94
f 94 126 127
f 94 127 95
f 95 127 128
f 95 128 96
f 96 128 97
f 97 128 129
f 97 129 130
f 97 130 131
f 97 131 98
f 98 131 132
f 98 132 133
f 98 133 103
f 100 103 134
f 100 134 101
f 101 134 135
f 101 135 136
f 101 136 137
f 101 137 138
f 101 138 139
f 101 139 102
f 103 133 134
f 104 112 105
f 104 106 140
f 104 140 141
f 104 141 113
f 107 114 142
f 107 142 108
f 108 142 143
f 108 143 144
f 108 144 145
f 108 145 109
f 115 146 116
f 116 146 147
f 116 147 148
f 116 148 149
f 116 149 150
f 116 150 151
f 116 151 152
f 116 152 153
f 116 153 154
f 116 154 117
f 117 119 118
f 117 154 155
f 117 155 119
f 119 155 120
f 120 155 156
f 120 156 121
f 121 156 122
f 122 156 157
f 122 157 123
f 123 158 188
f 123 188 159
f 123 159 124
f 123 157 158
f 124 159 160
f 124 160 125
f 125 160 161
f 125 161 126
f 126 161 162
f 126 162 163
f 126 163 127
f 127 163 128
f 128 163 164
f 128 164 129
f 129 165 166
f 129 166 167
f 129 167 132
f 129 132 130
f 129 164 165
f 130 132 131
f 132 167 136
f 132 136 135
f 132 135 133
f 133 135 134
f 136 167 168
f 136 168 137
f 137 168 138
f 138 168 169
f 142 170 143
f 143 171 172
f 143 172 173
f 143 173 144
f 143 170 174
f 143 174 171
f 144 173 175
f 144 175 176
f 144 176 177
f 144 177 178
f 144 178 145
f 148 179 149
f 149 180 181
f 149 181 150
f 149 179 180
f 150 181 182
f 150 182 151
f 151 182 183
f 151 183 184
f 151 184 185
f 151 185 152
f 152 186 187
f 152 187 153
f 152 185 186
f 153 187 156
f 153 156 154
f 154 156 155
f 156 187 157
f 157 187 158
f 158 187 188
f 159 188 160
f 160 188 189
f 160 189 190
f 160 190 191
f 160 191 165
f 160 165 162
f 160 162 161
f 162 165 164
f 162 164 163
f 165 192 166
f 165 191 192
f 166 192 193
f 166 193 194
f 166 194 195
f 166 195 167
f 167 195 168
f 168 195 196
f 168 196 169
f 171 174 197
f 171 197 172
f 172 197 198
f 172 198 173
f 173 198 199
f 173 199 175
f 175 199 200
f 175 200 201
f 175 201 176
f 179 202 180
f 180 200 181
f 180 202 203
f 180 203 201
f 180 201 200
f 181 199 198
f 181 198 182
f 181 200 199
f 182 198 197
f 182 197 204
f 182 204 183
f 183 204 205
f 183 205 184
f 184 205 189
f 184 189 206
f 184 206 186
f 184 186 185
f 186 188 187
f 186 206 188
f 188 206 189
f 189 205 190
f 190 205 192
f 190 192 191
f 192 204 207
f 192 207 193
f 192 205 204
f 193 207 194
f 194 208 195
f 195 208 196
f 197 207 204

