# https://github.com/mikedh/trimesh
v 0.22308250 0.04817414 0.01040419 0.43529412 0.89019608 0.96078431
v 0.21958743 0.04805207 0.01040419 0.43529412 0.89019608 0.96078431
v 0.22308250 0.04692529 0.01323837 0.43529412 0.89019608 0.96078431
v 0.22692218 0.04666237 0.01408218 0.43529412 0.89019608 0.96078431
v 0.22657759 0.04757319 0.01040419 0.43529412 0.89019608 0.96078431
v 0.22308250 0.04685956 0.00782444 0.43529412 0.89019608 0.96078431
v 0.21258741 0.04787366 0.00690655 0.43529412 0.89019608 0.96078431
v 0.17063656 0.04793939 -0.00357992 0.43529412 0.89019608 0.96078431
v 0.15316114 0.04793939 -0.00707756 0.43529412 0.89019608 0.96078431
v 0.16714147 0.04798634 -0.00357992 0.43529412 0.89019608 0.96078431
v 0.14965621 0.04759197 -0.00707756 0.43529412 0.89019608 0.96078431
v 0.15316114 0.04664359 -0.00452680 0.43529412 0.89019608 0.96078431
v 0.21958743 0.04656847 0.01273595 0.43529412 0.89019608 0.96078431
v 0.22832021 0.04562011 0.01565064 0.43529412 0.89019608 0.96078431
v 0.22833006 0.04562011 0.01565064 0.43529412 0.89019608 0.96078431
v 0.22912753 0.04622105 0.01390182 0.43529412 0.89019608 0.96078431
v 0.22850728 0.04577973 0.00856841 0.43529412 0.89019608 0.96078431
v 0.22657759 0.04627740 0.00828177 0.43529412 0.89019608 0.96078431
v 0.22925552 0.04633373 0.01040419 0.43529412 0.89019608 0.96078431
v 0.20909233 0.04686895 0.00425917 0.43529412 0.89019608 0.96078431
v 0.14616113 0.04762014 -0.01057198 0.43529412 0.89019608 0.96078431
v 0.21258741 0.04641824 0.00470362 0.43529412 0.89019608 0.96078431
v 0.14616113 0.04623983 -0.01272016 0.43529412 0.89019608 0.96078431
v 0.17063656 0.04661543 -0.00594389 0.43529412 0.89019608 0.96078431
v 0.14266604 0.04744173 -0.01057198 0.43529412 0.89019608 0.96078431
v 0.14266604 0.04658726 -0.00786984 0.43529412 0.89019608 0.96078431
v 0.14639742 0.04679383 -0.00692297 0.43529412 0.89019608 0.96078431
v 0.14965621 0.04613655 -0.00499379 0.43529412 0.89019608 0.96078431
v 0.16364639 0.04626800 -0.00141886 0.43529412 0.89019608 0.96078431
v 0.16135243 0.04587363 -0.00169262 0.43529412 0.89019608 0.96078431
v 0.22828083 0.04387360 0.01566030 0.43529412 0.89019608 0.96078431
v 0.13215126 0.03662466 -0.00847211 0.43529412 0.89019608 0.96078431
v 0.13215126 0.03335700 -0.00821123 0.43529412 0.89019608 0.96078431
v 0.13215126 0.02988277 -0.00816615 0.43529412 0.89019608 0.96078431
v 0.22838913 0.04387360 0.01566030 0.43529412 0.89019608 0.96078431
v 0.23007268 0.03687818 0.01511601 0.43529412 0.89019608 0.96078431
v 0.22977732 0.04035241 0.01512568 0.43529412 0.89019608 0.96078431
v 0.23236663 0.04037120 0.01325769 0.43529412 0.89019608 0.96078431
v 0.23210081 0.04303791 0.01280358 0.43529412 0.89019608 0.96078431
v 0.21492075 0.04594875 0.00500314 0.43529412 0.89019608 0.96078431
v 0.23210081 0.04303791 0.01148955 0.43529412 0.89019608 0.96078431
v 0.23072247 0.04407079 0.01035588 0.43529412 0.89019608 0.96078431
v 0.23081107 0.04037120 0.00925441 0.43529412 0.89019608 0.96078431
v 0.22877310 0.04387360 0.00850078 0.43529412 0.89019608 0.96078431
v 0.22657759 0.04387360 0.00787919 0.43529412 0.89019608 0.96078431
v 0.14110064 0.03230534 -0.01588607 0.43529412 0.89019608 0.96078431
v 0.18113165 0.04691590 -0.00280374 0.43529412 0.89019608 0.96078431
v 0.16714147 0.04690651 -0.00638834 0.43529412 0.89019608 0.96078431
v 0.14266604 0.04647458 -0.01304222 0.43529412 0.89019608 0.96078431
v 0.15316114 0.04691590 -0.00993107 0.43529412 0.89019608 0.96078431
v 0.14824833 0.04583607 -0.01243030 0.43529412 0.89019608 0.96078431
v 0.14266604 0.04387360 -0.01406318 0.43529412 0.89019608 0.96078431
v 0.13993889 0.04614593 -0.01285865 0.43529412 0.89019608 0.96078431
v 0.13966322 0.04634312 -0.01057198 0.43529412 0.89019608 0.96078431
v 0.14022441 0.04606143 -0.00839159 0.43529412 0.89019608 0.96078431
v 0.14772653 0.04573278 -0.00527077 0.43529412 0.89019608 0.96078431
v 0.22826113 0.04149797 0.01566675 0.43529412 0.89019608 0.96078431
v 0.13346068 0.03926320 -0.00860415 0.43529412 0.89019608 0.96078431
v 0.13215126 0.03666222 -0.00848177 0.43529412 0.89019608 0.96078431
v 0.13215126 0.02986399 -0.00816615 0.43529412 0.89019608 0.96078431
v 0.22840882 0.04149797 0.01566675 0.43529412 0.89019608 0.96078431
v 0.23007268 0.00540350 0.01534146 0.43529412 0.89019608 0.96078431
v 0.23269154 0.00540350 0.01371825 0.43529412 0.89019608 0.96078431
v 0.23252416 0.03338517 0.01344771 0.43529412 0.89019608 0.96078431
v 0.23249462 0.03687818 0.01340584 0.43529412 0.89019608 0.96078431
v 0.23236663 0.04037120 0.01100323 0.43529412 0.89019608 0.96078431
v 0.14057884 0.03463402 -0.01577013 0.43529412 0.89019608 0.96078431
v 0.14616113 0.04387360 -0.01326445 0.43529412 0.89019608 0.96078431
v 0.23099814 0.03687818 0.00905473 0.43529412 0.89019608 0.96078431
v 0.22905861 0.04037120 0.00845569 0.43529412 0.89019608 0.96078431
v 0.14128770 0.02988277 -0.01594726 0.43529412 0.89019608 0.96078431
v 0.13917096 0.02638975 -0.01644002 0.43529412 0.89019608 0.96078431
v 0.13917096 0.02988277 -0.01629831 0.43529412 0.89019608 0.96078431
v 0.13931864 0.03343212 -0.01604388 0.43529412 0.89019608 0.96078431
v 0.13917096 0.04037120 -0.01520329 0.43529412 0.89019608 0.96078431
v 0.13893467 0.04415529 -0.01368314 0.43529412 0.89019608 0.96078431
v 0.14266604 0.04037120 -0.01453661 0.43529412 0.89019608 0.96078431
v 0.13931864 0.03706598 -0.01565740 0.43529412 0.89019608 0.96078431
v 0.13567588 0.04037120 -0.01475562 0.43529412 0.89019608 0.96078431
v 0.13567588 0.04299096 -0.01312596 0.43529412 0.89019608 0.96078431
v 0.13381511 0.04223038 -0.01248827 0.43529412 0.89019608 0.96078431
v 0.13791076 0.04516000 -0.01057198 0.43529412 0.89019608 0.96078431
v 0.13556758 0.04321631 -0.01071047 0.43529412 0.89019608 0.96078431
v 0.13433691 0.04159187 -0.00963477 0.43529412 0.89019608 0.96078431
v 0.13667025 0.04278438 -0.00848499 0.43529412 0.89019608 0.96078431
v 0.21258741 -0.04004323 0.01115460 0.43529412 0.89019608 0.96078431
v 0.22657759 0.00540350 0.01493888 0.43529412 0.89019608 0.96078431
v 0.22657759 -0.01556396 0.01473920 0.43529412 0.89019608 0.96078431
v 0.22657759 -0.01905698 0.01469411 0.43529412 0.89019608 0.96078431
v 0.23007268 0.00191049 0.01530603 0.43529412 0.89019608 0.96078431
v 0.13215126 -0.02607117 -0.00857195 0.43529412 0.89019608 0.96078431
v 0.13215126 0.03854957 -0.00965409 0.43529412 0.89019608 0.96078431
v 0.23273091 0.00191049 0.01370858 0.43529412 0.89019608 0.96078431
v 0.23252416 0.03338517 0.01075202 0.43529412 0.89019608 0.96078431
v 0.23249462 0.03687818 0.01080355 0.43529412 0.89019608 0.96078431
v 0.13824550 0.03601432 -0.01593116 0.43529412 0.89019608 0.96078431
v 0.23108675 0.03338517 0.00900642 0.43529412 0.89019608 0.96078431
v 0.22925552 0.03687818 0.00842348 0.43529412 0.89019608 0.96078431
v 0.14142554 0.02638975 -0.01598913 0.43529412 0.89019608 0.96078431
v 0.13917096 0.02288735 -0.01655275 0.43529412 0.89019608 0.96078431
v 0.13567588 0.01939434 -0.01691346 0.43529412 0.89019608 0.96078431
v 0.13567588 0.02288735 -0.01677819 0.43529412 0.89019608 0.96078431
v 0.13567588 0.02638975 -0.01659784 0.43529412 0.89019608 0.96078431
v 0.13567588 0.02988277 -0.01638849 0.43529412 0.89019608 0.96078431
v 0.13567588 0.03768571 -0.01570249 0.43529412 0.89019608 0.96078431
v 0.13378558 0.03531947 -0.01583776 0.43529412 0.89019608 0.96078431
v 0.13215126 0.03691574 -0.01449796 0.43529412 0.89019608 0.96078431
v 0.13215126 0.03699086 -0.01446576 0.43529412 0.89019608 0.96078431
v 0.13301764 0.04037120 -0.01322902 0.43529412 0.89019608 0.96078431
v 0.13381511 0.04223038 -0.01196653 0.43529412 0.89019608 0.96078431
v 0.13215126 0.03941343 -0.01065572 0.43529412 0.89019608 0.96078431
v 0.20909233 -0.04004323 0.01029146 0.43529412 0.89019608 0.96078431
v 0.21572806 -0.04353624 0.01181162 0.43529412 0.89019608 0.96078431
v 0.21747068 -0.04353624 0.01223674 0.43529412 0.89019608 0.96078431
v 0.22308250 -0.04353624 0.01357976 0.43529412 0.89019608 0.96078431
v 0.21559023 -0.04004323 0.01186637 0.43529412 0.89019608 0.96078431
v 0.22657759 -0.03304781 0.01449443 0.43529412 0.89019608 0.96078431
v 0.23007268 -0.03304781 0.01421101 0.43529412 0.89019608 0.96078431
v 0.23241586 -0.02955480 0.01293885 0.43529412 0.89019608 0.96078431
v 0.22657759 -0.04004323 0.01439136 0.43529412 0.89019608 0.96078431
v 0.13215126 -0.02961114 -0.00864280 0.43529412 0.89019608 0.96078431
v 0.20559725 -0.04004323 0.00942189 0.43529412 0.89019608 0.96078431
v 0.23246509 -0.02605240 0.01301292 0.43529412 0.89019608 0.96078431
v 0.23271121 -0.00157313 0.01358620 0.43529412 0.89019608 0.96078431
v 0.23265215 -0.02955480 0.01040419 0.43529412 0.89019608 0.96078431
v 0.23273091 0.00191049 0.01047504 0.43529412 0.89019608 0.96078431
v 0.23210081 -0.03304781 0.00839771 0.43529412 0.89019608 0.96078431
v 0.23182514 -0.00332903 0.00865537 0.43529412 0.89019608 0.96078431
v 0.13567588 0.03338517 -0.01614694 0.43529412 0.89019608 0.96078431
v 0.13567588 0.03593920 -0.01591828 0.43529412 0.89019608 0.96078431
v 0.23007268 -0.03304781 0.00762798 0.43529412 0.89019608 0.96078431
v 0.22657759 -0.03654082 0.00660381 0.43529412 0.89019608 0.96078431
v 0.14148460 0.02288735 -0.01601168 0.43529412 0.89019608 0.96078431
v 0.13917096 0.01939434 -0.01662038 0.43529412 0.89019608 0.96078431
v 0.13567588 0.01590132 -0.01698754 0.43529412 0.89019608 0.96078431
v 0.13218079 0.01590132 -0.01674599 0.43529412 0.89019608 0.96078431
v 0.13218079 0.01939434 -0.01663648 0.43529412 0.89019608 0.96078431
v 0.13215126 0.01941312 -0.01663326 0.43529412 0.89019608 0.96078431
v 0.13215126 0.02291552 -0.01647545 0.43529412 0.89019608 0.96078431
v 0.13215126 0.02641792 -0.01628221 0.43529412 0.89019608 0.96078431
v 0.13215126 0.03007056 -0.01605032 0.43529412 0.89019608 0.96078431
v 0.13305702 0.03338517 -0.01591506 0.43529412 0.89019608 0.96078431
v 0.13215126 0.03338517 -0.01577657 0.43529412 0.89019608 0.96078431
v 0.20339189 -0.04282261 0.00877453 0.43529412 0.89019608 0.96078431
v 0.21769712 -0.04534847 0.01218521 0.43529412 0.89019608 0.96078431
v 0.22308250 -0.04627807 0.01286155 0.43529412 0.89019608 0.96078431
v 0.22657759 -0.04353624 0.01414337 0.43529412 0.89019608 0.96078431
v 0.21958743 -0.04573346 0.01242032 0.43529412 0.89019608 0.96078431
v 0.23007268 -0.03654082 0.01409184 0.43529412 0.89019608 0.96078431
v 0.23233710 -0.03304781 0.01285833 0.43529412 0.89019608 0.96078431
v 0.23262261 -0.03304781 0.01040419 0.43529412 0.89019608 0.96078431
v 0.23007268 -0.04004323 0.01384707 0.43529412 0.89019608 0.96078431
v 0.13215126 -0.03006185 -0.00867179 0.43529412 0.89019608 0.96078431
v 0.23271121 -0.00157313 0.01042673 0.43529412 0.89019608 0.96078431
v 0.23208112 -0.03654082 0.00841382 0.43529412 0.89019608 0.96078431
v 0.23007268 -0.03654082 0.00760865 0.43529412 0.89019608 0.96078431
v 0.22657759 -0.04004323 0.00658126 0.43529412 0.89019608 0.96078431
v 0.14194734 -0.00856855 -0.01614050 0.43529412 0.89019608 0.96078431
v 0.14190796 -0.00507554 -0.01612762 0.43529412 0.89019608 0.96078431
v 0.13917096 -0.00507554 -0.01686515 0.43529412 0.89019608 0.96078431
v 0.13917096 -0.00157313 -0.01683294 0.43529412 0.89019608 0.96078431
v 0.13567588 0.00191049 -0.01718722 0.43529412 0.89019608 0.96078431
v 0.13567588 0.00890591 -0.01709060 0.43529412 0.89019608 0.96078431
v 0.13215126 0.00192927 -0.01697143 0.43529412 0.89019608 0.96078431
v 0.13215126 0.00890591 -0.01686515 0.43529412 0.89019608 0.96078431
v 0.13218079 0.01239892 -0.01681362 0.43529412 0.89019608 0.96078431
v 0.13215126 0.01592010 -0.01674277 0.43529412 0.89019608 0.96078431
v 0.13215126 0.03077480 -0.01600201 0.43529412 0.89019608 0.96078431
v 0.20392354 -0.04515129 0.00862638 0.43529412 0.89019608 0.96078431
v 0.17586442 -0.04179912 0.00166653 0.43529412 0.89019608 0.96078431
v 0.22308250 -0.04775227 0.01040419 0.43529412 0.89019608 0.96078431
v 0.22657759 -0.04627807 0.01303225 0.43529412 0.89019608 0.96078431
v 0.20624703 -0.04558322 0.00892590 0.43529412 0.89019608 0.96078431
v 0.20909233 -0.04594942 0.00929950 0.43529412 0.89019608 0.96078431
v 0.21258741 -0.04634380 0.00976972 0.43529412 0.89019608 0.96078431
v 0.21958743 -0.04722644 0.01040419 0.43529412 0.89019608 0.96078431
v 0.22894046 -0.04581797 0.01270374 0.43529412 0.89019608 0.96078431
v 0.23009236 -0.04332027 0.01308700 0.43529412 0.89019608 0.96078431
v 0.23225834 -0.03654082 0.01276171 0.43529412 0.89019608 0.96078431
v 0.23251432 -0.03654082 0.01040419 0.43529412 0.89019608 0.96078431
v 0.23199250 -0.04004323 0.00848789 0.43529412 0.89019608 0.96078431
v 0.23192359 -0.04200570 0.01229471 0.43529412 0.89019608 0.96078431
v 0.23209096 -0.04004323 0.01253626 0.43529412 0.89019608 0.96078431
v 0.13215126 -0.03304781 -0.00910336 0.43529412 0.89019608 0.96078431
v 0.13322439 -0.03304781 -0.00873942 0.43529412 0.89019608 0.96078431
v 0.23007268 -0.04004323 0.00766984 0.43529412 0.89019608 0.96078431
v 0.22657759 -0.04353624 0.00671331 0.43529412 0.89019608 0.96078431
v 0.14965621 -0.03654082 -0.01416302 0.43529412 0.89019608 0.96078431
v 0.14211471 -0.02605240 -0.01615661 0.43529412 0.89019608 0.96078431
v 0.13917096 -0.00856855 -0.01687803 0.43529412 0.89019608 0.96078431
v 0.13567588 -0.00507554 -0.01723553 0.43529412 0.89019608 0.96078431
v 0.13567588 -0.00157313 -0.01721942 0.43529412 0.89019608 0.96078431
v 0.13218079 -0.00157313 -0.01699398 0.43529412 0.89019608 0.96078431
v 0.13215126 -0.00155435 -0.01699076 0.43529412 0.89019608 0.96078431
v 0.13215126 0.01241770 -0.01681040 0.43529412 0.89019608 0.96078431
v 0.19313309 -0.04535786 0.00522858 0.43529412 0.89019608 0.96078431
v 0.15116254 -0.04190241 -0.00525467 0.43529412 0.89019608 0.96078431
v 0.13388403 -0.03484127 -0.00881028 0.43529412 0.89019608 0.96078431
v 0.15316114 -0.04004323 -0.00432068 0.43529412 0.89019608 0.96078431
v 0.15048322 -0.04004323 -0.00506465 0.43529412 0.89019608 0.96078431
v 0.21258741 -0.04727339 0.00690655 0.43529412 0.89019608 0.96078431
v 0.21609234 -0.04732973 0.00690655 0.43529412 0.89019608 0.96078431
v 0.22308250 -0.04674756 0.00726404 0.43529412 0.89019608 0.96078431
v 0.22657759 -0.04739546 0.01040419 0.43529412 0.89019608 0.96078431
v 0.19511199 -0.04558322 0.00550234 0.43529412 0.89019608 0.96078431
v 0.19511199 -0.04613722 0.00340891 0.43529412 0.89019608 0.96078431
v 0.15665622 -0.04410902 -0.00707756 0.43529412 0.89019608 0.96078431
v 0.22923583 -0.04607149 0.01040419 0.43529412 0.89019608 0.96078431
v 0.23098829 -0.04383672 0.01040419 0.43529412 0.89019608 0.96078431
v 0.23225834 -0.04004323 0.01040419 0.43529412 0.89019608 0.96078431
v 0.23189406 -0.04196814 0.00857807 0.43529412 0.89019608 0.96078431
v 0.23195313 -0.04209021 0.01040419 0.43529412 0.89019608 0.96078431
v 0.13215126 -0.03499150 -0.01016295 0.43529412 0.89019608 0.96078431
v 0.22308250 -0.04353624 0.00579220 0.43529412 0.89019608 0.96078431
v 0.15316114 -0.04004323 -0.01302612 0.43529412 0.89019608 0.96078431
v 0.23008252 -0.04329210 0.00803056 0.43529412 0.89019608 0.96078431
v 0.22893062 -0.04580858 0.00823668 0.43529412 0.89019608 0.96078431
v 0.21863243 -0.04561139 0.00495805 0.43529412 0.89019608 0.96078431
v 0.14616113 -0.03654082 -0.01506802 0.43529412 0.89019608 0.96078431
v 0.14213439 -0.02955480 -0.01614372 0.43529412 0.89019608 0.96078431
v 0.13917096 -0.01207095 -0.01686515 0.43529412 0.89019608 0.96078431
v 0.13567588 -0.00856855 -0.01722908 0.43529412 0.89019608 0.96078431
v 0.13215126 -0.02955480 -0.01703585 0.43529412 0.89019608 0.96078431
v 0.13215126 -0.02952663 -0.01703585 0.43529412 0.89019608 0.96078431
v 0.15316114 -0.04226861 -0.00496803 0.43529412 0.89019608 0.96078431
v 0.14266604 -0.04219350 -0.00842380 0.43529412 0.89019608 0.96078431
v 0.14616113 -0.04270993 -0.00781187 0.43529412 0.89019608 0.96078431
v 0.13724128 -0.03843757 -0.00875875 0.43529412 0.89019608 0.96078431
v 0.14083482 -0.04182729 -0.00878129 0.43529412 0.89019608 0.96078431
v 0.13491779 -0.03716994 -0.00954137 0.43529412 0.89019608 0.96078431
v 0.14616113 -0.04351746 -0.01057198 0.43529412 0.89019608 0.96078431
v 0.14965621 -0.04369587 -0.01057198 0.43529412 0.89019608 0.96078431
v 0.19860707 -0.04578041 0.00103850 0.43529412 0.89019608 0.96078431
v 0.21258741 -0.04622173 0.00425917 0.43529412 0.89019608 0.96078431
v 0.22657759 -0.04639075 0.00775036 0.43529412 0.89019608 0.96078431
v 0.21609234 -0.04597760 0.00463920 0.43529412 0.89019608 0.96078431
v 0.15316114 -0.04359258 -0.00707756 0.43529412 0.89019608 0.96078431
v 0.13215126 -0.03602438 -0.01085540 0.43529412 0.89019608 0.96078431
v 0.15494314 -0.04180851 -0.01233368 0.43529412 0.89019608 0.96078431
v 0.14965621 -0.04004323 -0.01392147 0.43529412 0.89019608 0.96078431
v 0.15316114 -0.04209960 -0.01257523 0.43529412 0.89019608 0.96078431
v 0.14373918 -0.03654082 -0.01566062 0.43529412 0.89019608 0.96078431
v 0.14208517 -0.03304781 -0.01611474 0.43529412 0.89019608 0.96078431
v 0.13917096 -0.02955480 -0.01674599 0.43529412 0.89019608 0.96078431
v 0.13917096 -0.02605240 -0.01678141 0.43529412 0.89019608 0.96078431
v 0.13917096 -0.02255938 -0.01681040 0.43529412 0.89019608 0.96078431
v 0.13567588 -0.01207095 -0.01720976 0.43529412 0.89019608 0.96078431
v 0.13215126 -0.03332012 -0.01658495 0.43529412 0.89019608 0.96078431
v 0.13567588 -0.01556396 -0.01718400 0.43529412 0.89019608 0.96078431
v 0.13567588 -0.01905698 -0.01715179 0.43529412 0.89019608 0.96078431
v 0.13567588 -0.03304781 -0.01700042 0.43529412 0.89019608 0.96078431
v 0.14266604 -0.04284139 -0.01057198 0.43529412 0.89019608 0.96078431
v 0.13358867 -0.03857842 -0.01187313 0.43529412 0.89019608 0.96078431
v 0.14012596 -0.04207143 -0.01057198 0.43529412 0.89019608 0.96078431
v 0.13994874 -0.04211838 -0.01297781 0.43529412 0.89019608 0.96078431
v 0.14266604 -0.04243763 -0.01336107 0.43529412 0.89019608 0.96078431
v 0.14616113 -0.04259726 -0.01329666 0.43529412 0.89019608 0.96078431
v 0.14965621 -0.04249397 -0.01299392 0.43529412 0.89019608 0.96078431
v 0.20210216 -0.04558322 0.00134769 0.43529412 0.89019608 0.96078431
v 0.13215126 -0.03678496 -0.01435948 0.43529412 0.89019608 0.96078431
v 0.14616113 -0.04004323 -0.01467188 0.43529412 0.89019608 0.96078431
v 0.14160275 -0.03871926 -0.01596659 0.43529412 0.89019608 0.96078431
v 0.14199657 -0.03654082 -0.01606965 0.43529412 0.89019608 0.96078431
v 0.13917096 -0.03304781 -0.01669123 0.43529412 0.89019608 0.96078431
v 0.13215126 -0.03360181 -0.01654308 0.43529412 0.89019608 0.96078431
v 0.13548881 -0.03678496 -0.01643358 0.43529412 0.89019608 0.96078431
v 0.13917096 -0.03654082 -0.01653986 0.43529412 0.89019608 0.96078431
v 0.13358867 -0.03857842 -0.01319038 0.43529412 0.89019608 0.96078431
v 0.13548881 -0.03937655 -0.01424031 0.43529412 0.89019608 0.96078431
v 0.13419908 -0.03810892 -0.01552213 0.43529412 0.89019608 0.96078431
v 0.13653242 -0.03871926 -0.01607287 0.43529412 0.89019608 0.96078431
v 0.13917096 -0.03893523 -0.01612118 0.43529412 0.89019608 0.96078431
v 0.14273496 -0.03994933 -0.01518719 0.43529412 0.89019608 0.96078431
v 0.13215126 -0.03671923 -0.01449474 0.43529412 0.89019608 0.96078431
v 0.13215126 -0.03402435 -0.01645613 0.43529412 0.89019608 0.96078431
v 0.13285027 -0.03577086 -0.01621458 0.43529412 0.89019608 0.96078431
v 0.13215126 -0.03545161 -0.01605998 0.43529412 0.89019608 0.96078431
f 1 2 3
f 1 3 4
f 1 4 5
f 1 5 6
f 1 6 7
f 1 7 8
f 1 8 9
f 1 9 10
f 1 10 2
f 2 10 9
f 2 9 11
f 2 11 12
f 2 12 3
f 3 13 14
f 3 14 4
f 3 12 13
f 4 14 15
f 4 15 16
f 4 16 5
f 5 17 18
f 5 18 6
f 5 16 19
f 5 19 17
f 6 20 21
f 6 21 7
f 6 18 22
f 6 22 23
f 6 23 24
f 6 24 20
f 7 21 8
f 8 21 9
f 9 21 25
f 9 25 11
f 11 25 26
f 11 26 27
f 11 27 12
f 12 27 28
f 12 28 29
f 12 29 13
f 13 29 30
f 13 30 14
f 14 31 35
f 14 35 15
f 14 30 32
f 14 32 33
f 14 33 34
f 14 34 31
f 15 35 36
f 15 36 37
f 15 37 38
f 15 38 39
f 15 39 16
f 16 39 19
f 17 40 18
f 17 19 41
f 17 41 42
f 17 42 43
f 17 43 44
f 17 44 45
f 17 45 46
f 17 46 40
f 18 40 22
f 19 39 41
f 20 47 21
f 20 24 48
f 20 48 47
f 21 23 49
f 21 49 25
f 21 47 48
f 21 48 50
f 21 50 23
f 22 40 23
f 23 51 52
f 23 52 49
f 23 50 24
f 23 40 51
f 24 50 48
f 25 49 53
f 25 53 54
f 25 54 55
f 25 55 26
f 26 56 28
f 26 28 27
f 26 55 56
f 28 56 30
f 28 30 29
f 30 56 32
f 31 57 61
f 31 61 35
f 31 34 57
f 32 56 58
f 32 58 59
f 32 59 92
f 32 92 111
f 32 111 108
f 32 108 107
f 32 107 143
f 32 143 168
f 32 168 141
f 32 141 140
f 32 140 139
f 32 139 138
f 32 138 167
f 32 167 195
f 32 195 165
f 32 165 164
f 32 164 194
f 32 194 224
f 32 224 223
f 32 223 248
f 32 248 265
f 32 265 275
f 32 275 277
f 32 277 274
f 32 274 260
f 32 260 238
f 32 238 213
f 32 213 184
f 32 184 153
f 32 153 121
f 32 121 91
f 32 91 60
f 32 60 34
f 32 34 33
f 34 60 57
f 35 61 62
f 35 62 36
f 36 62 63
f 36 63 64
f 36 64 65
f 36 65 37
f 37 65 38
f 38 65 95
f 38 95 66
f 38 66 41
f 38 41 39
f 40 46 67
f 40 67 68
f 40 68 51
f 41 66 43
f 41 43 42
f 43 66 69
f 43 69 44
f 44 69 70
f 44 70 45
f 45 70 71
f 45 71 46
f 46 71 72
f 46 72 73
f 46 73 74
f 46 74 67
f 49 52 75
f 49 75 76
f 49 76 53
f 51 68 52
f 52 68 77
f 52 77 67
f 52 67 78
f 52 78 75
f 53 76 79
f 53 79 80
f 53 80 81
f 53 81 54
f 54 81 82
f 54 82 55
f 55 82 83
f 55 83 84
f 55 84 85
f 55 85 56
f 56 85 58
f 57 86 87
f 57 87 88
f 57 88 89
f 57 89 90
f 57 90 62
f 57 62 61
f 57 60 91
f 57 91 86
f 58 85 84
f 58 84 92
f 58 92 59
f 62 90 93
f 62 93 63
f 63 93 64
f 64 93 126
f 64 126 94
f 64 94 95
f 64 95 65
f 66 95 69
f 67 74 96
f 67 96 78
f 67 77 68
f 69 97 98
f 69 98 70
f 69 95 97
f 70 98 71
f 71 99 100
f 71 100 72
f 71 98 99
f 72 100 101
f 72 101 102
f 72 102 73
f 73 102 103
f 73 103 104
f 73 104 96
f 73 96 74
f 75 78 96
f 75 96 105
f 75 105 79
f 75 79 76
f 79 105 106
f 79 106 107
f 79 107 108
f 79 108 109
f 79 109 80
f 80 109 81
f 81 110 82
f 81 109 111
f 81 111 110
f 82 110 83
f 83 110 84
f 84 110 111
f 84 111 92
f 86 112 113
f 86 113 114
f 86 114 115
f 86 115 116
f 86 116 88
f 86 88 87
f 86 91 112
f 88 115 89
f 88 116 115
f 89 117 90
f 89 115 117
f 90 118 119
f 90 119 93
f 90 117 120
f 90 120 118
f 91 121 122
f 91 122 112
f 93 119 123
f 93 123 124
f 93 124 125
f 93 125 126
f 94 126 127
f 94 127 128
f 94 128 95
f 95 128 97
f 96 104 129
f 96 129 130
f 96 130 105
f 97 128 98
f 98 128 131
f 98 131 132
f 98 132 99
f 99 133 134
f 99 134 100
f 99 132 133
f 100 134 135
f 100 135 101
f 101 135 136
f 101 136 137
f 101 137 102
f 102 137 138
f 102 138 139
f 102 139 103
f 103 139 140
f 103 140 104
f 104 140 141
f 104 141 142
f 104 142 129
f 105 130 106
f 106 130 129
f 106 129 142
f 106 142 143
f 106 143 107
f 108 111 109
f 112 122 144
f 112 144 113
f 113 145 114
f 113 144 145
f 114 145 115
f 115 146 147
f 115 147 120
f 115 120 117
f 115 145 148
f 115 148 146
f 118 149 119
f 118 120 149
f 119 149 150
f 119 150 151
f 119 151 123
f 120 147 152
f 120 152 149
f 121 153 144
f 121 144 122
f 123 151 124
f 124 151 125
f 125 154 126
f 125 151 155
f 125 155 127
f 125 127 154
f 126 154 127
f 127 155 156
f 127 156 131
f 127 131 128
f 131 156 157
f 131 157 132
f 132 157 158
f 132 158 159
f 132 159 133
f 133 159 160
f 133 160 161
f 133 161 134
f 134 161 162
f 134 162 163
f 134 163 135
f 135 163 164
f 135 164 165
f 135 165 166
f 135 166 136
f 136 166 195
f 136 195 167
f 136 167 138
f 136 138 137
f 141 168 142
f 142 168 143
f 144 169 145
f 144 153 170
f 144 170 169
f 145 169 148
f 146 171 172
f 146 172 147
f 146 148 173
f 146 173 174
f 146 174 175
f 146 175 176
f 146 176 171
f 147 172 177
f 147 177 178
f 147 178 152
f 148 169 173
f 149 152 179
f 149 179 150
f 150 179 151
f 151 180 181
f 151 181 155
f 151 179 180
f 152 178 182
f 152 182 183
f 152 183 179
f 153 184 185
f 153 185 170
f 155 181 186
f 155 186 156
f 156 186 157
f 157 186 187
f 157 187 188
f 157 188 158
f 158 188 189
f 158 189 190
f 158 190 160
f 158 160 159
f 160 190 191
f 160 191 192
f 160 192 161
f 161 192 162
f 162 192 164
f 162 164 163
f 164 193 194
f 164 192 193
f 165 195 166
f 169 196 173
f 169 170 197
f 169 197 196
f 170 185 198
f 170 198 199
f 170 199 200
f 170 200 197
f 171 201 202
f 171 202 203
f 171 203 204
f 171 204 172
f 171 176 205
f 171 205 206
f 171 206 207
f 171 207 201
f 172 204 177
f 173 196 174
f 174 196 205
f 174 205 175
f 175 205 176
f 177 208 209
f 177 209 182
f 177 182 178
f 177 204 208
f 179 183 180
f 180 183 210
f 180 210 211
f 180 211 181
f 181 211 186
f 182 212 210
f 182 210 183
f 182 209 212
f 184 213 198
f 184 198 185
f 186 211 187
f 187 214 215
f 187 215 188
f 187 211 216
f 187 216 217
f 187 217 218
f 187 218 214
f 188 215 219
f 188 219 220
f 188 220 189
f 189 220 190
f 190 221 222
f 190 222 191
f 190 220 221
f 191 222 223
f 191 223 224
f 191 224 193
f 191 193 192
f 193 224 194
f 196 197 225
f 196 225 226
f 196 226 227
f 196 227 205
f 197 200 198
f 197 198 228
f 197 228 229
f 197 229 226
f 197 226 225
f 198 213 230
f 198 230 228
f 198 200 199
f 201 207 231
f 201 231 232
f 201 232 202
f 202 233 234
f 202 234 203
f 202 232 233
f 203 235 204
f 203 234 236
f 203 236 235
f 204 235 217
f 204 217 208
f 205 227 237
f 205 237 207
f 205 207 206
f 207 237 231
f 208 217 209
f 209 217 211
f 209 211 212
f 210 212 211
f 211 217 216
f 213 238 230
f 214 218 239
f 214 239 215
f 215 239 240
f 215 240 219
f 217 235 218
f 218 235 236
f 218 236 241
f 218 241 239
f 219 242 243
f 219 243 220
f 219 240 242
f 220 243 244
f 220 244 245
f 220 245 246
f 220 246 221
f 221 246 222
f 222 246 247
f 222 247 223
f 223 247 249
f 223 249 250
f 223 250 251
f 223 251 248
f 226 252 227
f 226 229 252
f 227 252 231
f 227 231 237
f 228 230 229
f 229 230 253
f 229 253 254
f 229 254 252
f 230 238 253
f 231 252 255
f 231 255 256
f 231 256 232
f 232 256 257
f 232 257 258
f 232 258 233
f 233 259 234
f 233 258 259
f 234 259 236
f 236 259 258
f 236 258 241
f 238 260 253
f 239 241 261
f 239 261 240
f 240 261 262
f 240 262 242
f 241 258 261
f 242 263 243
f 242 262 263
f 243 263 264
f 243 264 244
f 244 264 251
f 244 251 250
f 244 250 245
f 245 250 249
f 245 249 246
f 246 249 247
f 248 251 266
f 248 266 265
f 251 264 267
f 251 267 266
f 252 254 255
f 253 268 255
f 253 255 254
f 253 260 268
f 255 268 269
f 255 269 270
f 255 270 271
f 255 271 256
f 256 271 272
f 256 272 257
f 257 272 273
f 257 273 258
f 258 273 262
f 258 262 261
f 260 274 270
f 260 270 268
f 262 272 267
f 262 267 263
f 262 273 272
f 263 267 264
f 265 266 276
f 265 276 275
f 266 267 272
f 266 272 271
f 266 271 276
f 268 270 269
f 270 274 277
f 270 277 276
f 270 276 271
f 275 276 277

