# https://github.com/mikedh/trimesh
v -0.11065394 -0.00857350 0.00933463 0.38039216 0.78823529 0.52549020
v -0.11259722 -0.00507931 0.00932076 0.38039216 0.78823529 0.52549020
v -0.11259722 -0.00857350 0.00931613 0.38039216 0.78823529 0.52549020
v -0.11065394 -0.01206988 0.00932384 0.38039216 0.78823529 0.52549020
v -0.11065394 0.00385687 0.00929609 0.38039216 0.78823529 0.52549020
v -0.11259722 0.00191346 0.00929918 0.38039216 0.78823529 0.52549020
v -0.11569131 -0.00158292 0.00898626 0.38039216 0.78823529 0.52549020
v -0.11546131 -0.00857350 0.00896314 0.38039216 0.78823529 0.52549020
v -0.11259722 -0.01206988 0.00923752 0.38039216 0.78823529 0.52549020
v -0.11564997 -0.00507931 0.00898009 0.38039216 0.78823529 0.52549020
v -0.11065394 -0.01301527 0.00917894 0.38039216 0.78823529 0.52549020
v -0.11065394 0.00541204 0.00928993 0.38039216 0.78823529 0.52549020
v -0.11259722 0.00541204 0.00928222 0.38039216 0.78823529 0.52549020
v -0.11550870 0.00191346 0.00899088 0.38039216 0.78823529 0.52549020
v -0.11743905 -0.00158292 0.00840975 0.38039216 0.78823529 0.52549020
v -0.11739857 -0.00507931 0.00842054 0.38039216 0.78823529 0.52549020
v -0.11720993 -0.00857350 0.00831109 0.38039216 0.78823529 0.52549020
v -0.11500478 -0.01206988 0.00887527 0.38039216 0.78823529 0.52549020
v -0.11454826 -0.01395846 0.00875350 0.38039216 0.78823529 0.52549020
v -0.11259722 -0.01419535 0.00891073 0.38039216 0.78823529 0.52549020
v -0.11065394 -0.01431161 0.00897393 0.38039216 0.78823529 0.52549020
v -0.11065394 0.00587047 0.00926372 0.38039216 0.78823529 0.52549020
v -0.11213896 0.00587047 0.00925756 0.38039216 0.78823529 0.52549020
v -0.11257913 0.00587047 0.00923752 0.38039216 0.78823529 0.52549020
v -0.11513657 0.00587047 0.00893077 0.38039216 0.78823529 0.52549020
v -0.11520894 0.00541204 0.00895389 0.38039216 0.78823529 0.52549020
v -0.11725643 0.00191346 0.00814616 0.38039216 0.78823529 0.52549020
v -0.11828838 0.00191346 0.00639812 0.38039216 0.78823529 0.52549020
v -0.11846669 -0.00158292 0.00666172 0.38039216 0.78823529 0.52549020
v -0.11855627 -0.00507931 0.00667251 0.38039216 0.78823529 0.52549020
v -0.11856746 -0.00857350 0.00656306 0.38039216 0.78823529 0.52549020
v -0.11835814 -0.01206988 0.00608520 0.38039216 0.78823529 0.52549020
v -0.11675253 -0.01206988 0.00783324 0.38039216 0.78823529 0.52549020
v -0.11804718 -0.01405058 0.00549790 0.38039216 0.78823529 0.52549020
v -0.11586530 -0.01451999 0.00676037 0.38039216 0.78823529 0.52549020
v -0.11259722 -0.01546098 0.00690835 0.38039216 0.78823529 0.52549020
v -0.11065394 -0.01563427 0.00690835 0.38039216 0.78823529 0.52549020
v -0.11065394 0.00587047 -0.00451397 0.38039216 0.78823529 0.52549020
v -0.11656734 0.00587047 0.00794885 0.38039216 0.78823529 0.52549020
v -0.11695754 0.00541204 0.00775308 0.38039216 0.78823529 0.52549020
v -0.11814107 0.00587047 0.00598963 0.38039216 0.78823529 0.52549020
v -0.11916181 -0.00158292 0.00341075 0.38039216 0.78823529 0.52549020
v -0.11938146 -0.00507931 0.00341075 0.38039216 0.78823529 0.52549020
v -0.11945383 -0.00857350 0.00341075 0.38039216 0.78823529 0.52549020
v -0.11913167 -0.01206988 0.00341075 0.38039216 0.78823529 0.52549020
v -0.11831938 -0.01434670 0.00341075 0.38039216 0.78823529 0.52549020
v -0.11609358 -0.01559040 0.00341075 0.38039216 0.78823529 0.52549020
v -0.11259722 -0.01642391 0.00341075 0.38039216 0.78823529 0.52549020
v -0.11065394 -0.01606199 0.00535455 0.38039216 0.78823529 0.52549020
v -0.11099074 0.00587047 -0.00439065 0.38039216 0.78823529 0.52549020
v -0.11065394 0.00035610 -0.00534637 0.38039216 0.78823529 0.52549020
v -0.11093561 0.00035610 -0.00534637 0.38039216 0.78823529 0.52549020
v -0.11443455 -0.00311616 -0.00538028 0.38039216 0.78823529 0.52549020
v -0.11683867 0.00587047 0.00775616 0.38039216 0.78823529 0.52549020
v -0.11828234 0.00587047 0.00341075 0.38039216 0.78823529 0.52549020
v -0.11798001 0.00587047 0.00127581 0.38039216 0.78823529 0.52549020
v -0.11906362 -0.00507931 -0.00008377 0.38039216 0.78823529 0.52549020
v -0.11926777 -0.00857350 -0.00008377 0.38039216 0.78823529 0.52549020
v -0.11909291 -0.01206988 -0.00008377 0.38039216 0.78823529 0.52549020
v -0.11835814 -0.01439276 -0.00008377 0.38039216 0.78823529 0.52549020
v -0.11609358 -0.01564085 -0.00008377 0.38039216 0.78823529 0.52549020
v -0.11259722 -0.01644365 -0.00008377 0.38039216 0.78823529 0.52549020
v -0.11065394 -0.01653797 -0.00008377 0.38039216 0.78823529 0.52549020
v -0.11065394 -0.01651604 0.00341075 0.38039216 0.78823529 0.52549020
v -0.11259722 0.00587047 -0.00379410 0.38039216 0.78823529 0.52549020
v -0.11065394 -0.00857350 -0.00625738 0.38039216 0.78823529 0.52549020
v -0.11259722 -0.00857350 -0.00621113 0.38039216 0.78823529 0.52549020
v -0.11259722 -0.00507931 -0.00581652 0.38039216 0.78823529 0.52549020
v -0.11780428 0.00003147 -0.00177323 0.38039216 0.78823529 0.52549020
v -0.11498670 0.00587047 -0.00225417 0.38039216 0.78823529 0.52549020
v -0.11299345 0.00587047 -0.00364150 0.38039216 0.78823529 0.52549020
v -0.11465334 -0.00507931 -0.00551130 0.38039216 0.78823529 0.52549020
v -0.11640109 -0.00507931 -0.00411935 0.38039216 0.78823529 0.52549020
v -0.11680422 0.00587047 -0.00025950 0.38039216 0.78823529 0.52549020
v -0.11851062 -0.00131313 -0.00039823 0.38039216 0.78823529 0.52549020
v -0.11802996 -0.00230019 -0.00208461 0.38039216 0.78823529 0.52549020
v -0.11823843 -0.00507931 -0.00237132 0.38039216 0.78823529 0.52549020
v -0.11838140 -0.00857350 -0.00259638 0.38039216 0.78823529 0.52549020
v -0.11831938 -0.01206988 -0.00254551 0.38039216 0.78823529 0.52549020
v -0.11809887 -0.01411200 -0.00223105 0.38039216 0.78823529 0.52549020
v -0.11595661 -0.01464940 -0.00347039 0.38039216 0.78823529 0.52549020
v -0.11259722 -0.01570446 -0.00358138 0.38039216 0.78823529 0.52549020
v -0.11065394 -0.01586019 -0.00358138 0.38039216 0.78823529 0.52549020
v -0.11065394 -0.01051691 -0.00636220 0.38039216 0.78823529 0.52549020
v -0.11065394 -0.01206988 -0.00641307 0.38039216 0.78823529 0.52549020
v -0.11259722 -0.01206988 -0.00632212 0.38039216 0.78823529 0.52549020
v -0.11497636 -0.00857350 -0.00572249 0.38039216 0.78823529 0.52549020
v -0.11672411 -0.00857350 -0.00434441 0.38039216 0.78823529 0.52549020
v -0.11674909 -0.01206988 -0.00429508 0.38039216 0.78823529 0.52549020
v -0.11470072 -0.01410323 -0.00554522 0.38039216 0.78823529 0.52549020
v -0.11065394 -0.01528989 -0.00456021 0.38039216 0.78823529 0.52549020
v -0.11259722 -0.01441909 -0.00578569 0.38039216 0.78823529 0.52549020
v -0.11065394 -0.01347370 -0.00609398 0.38039216 0.78823529 0.52549020
v -0.11500134 -0.01206988 -0.00573944 0.38039216 0.78823529 0.52549020
v -0.11065394 -0.01451779 -0.00585505 0.38039216 0.78823529 0.52549020
f 1 2 3
f 1 3 4
f 1 4 11
f 1 11 21
f 1 21 37
f 1 37 49
f 1 49 64
f 1 64 63
f 1 63 83
f 1 83 91
f 1 91 95
f 1 95 93
f 1 93 85
f 1 85 84
f 1 84 66
f 1 66 51
f 1 51 38
f 1 38 22
f 1 22 12
f 1 12 5
f 1 5 6
f 1 6 2
f 2 6 7
f 2 7 3
f 3 8 9
f 3 9 4
f 3 7 10
f 3 10 8
f 4 9 11
f 5 12 6
f 6 12 13
f 6 13 14
f 6 14 7
f 7 14 15
f 7 15 16
f 7 16 10
f 8 10 16
f 8 16 17
f 8 17 18
f 8 18 9
f 9 18 19
f 9 19 20
f 9 20 11
f 11 20 21
f 12 22 13
f 13 22 23
f 13 23 24
f 13 24 25
f 13 25 26
f 13 26 14
f 14 26 15
f 15 26 27
f 15 27 28
f 15 28 29
f 15 29 30
f 15 30 16
f 16 30 31
f 16 31 17
f 17 31 32
f 17 32 33
f 17 33 19
f 17 19 18
f 19 34 35
f 19 35 36
f 19 36 20
f 19 33 34
f 20 36 37
f 20 37 21
f 22 38 50
f 22 50 65
f 22 65 71
f 22 71 70
f 22 70 74
f 22 74 56
f 22 56 55
f 22 55 41
f 22 41 54
f 22 54 39
f 22 39 25
f 22 25 24
f 22 24 23
f 25 39 27
f 25 27 26
f 27 39 40
f 27 40 41
f 27 41 28
f 28 41 29
f 29 41 42
f 29 42 43
f 29 43 30
f 30 43 44
f 30 44 31
f 31 44 45
f 31 45 32
f 32 45 34
f 32 34 33
f 34 46 47
f 34 47 35
f 34 45 46
f 35 47 36
f 36 47 48
f 36 48 37
f 37 48 49
f 38 51 52
f 38 52 53
f 38 53 50
f 39 54 40
f 40 54 41
f 41 55 42
f 42 55 56
f 42 56 57
f 42 57 43
f 43 57 58
f 43 58 44
f 44 58 59
f 44 59 45
f 45 59 60
f 45 60 46
f 46 60 47
f 47 61 48
f 47 60 61
f 48 62 63
f 48 63 64
f 48 64 49
f 48 61 62
f 50 53 65
f 51 66 52
f 52 66 67
f 52 67 68
f 52 68 53
f 53 69 70
f 53 70 71
f 53 71 65
f 53 68 67
f 53 67 72
f 53 72 73
f 53 73 69
f 56 74 69
f 56 69 75
f 56 75 57
f 57 75 76
f 57 76 77
f 57 77 78
f 57 78 58
f 58 78 79
f 58 79 59
f 59 79 80
f 59 80 60
f 60 80 61
f 61 80 81
f 61 81 82
f 61 82 62
f 62 82 83
f 62 83 63
f 66 84 67
f 67 84 85
f 67 85 86
f 67 86 87
f 67 87 72
f 69 73 76
f 69 76 75
f 69 74 70
f 72 87 88
f 72 88 73
f 73 77 76
f 73 88 77
f 77 88 78
f 78 88 89
f 78 89 79
f 79 89 80
f 80 89 90
f 80 90 81
f 81 90 82
f 82 91 83
f 82 90 92
f 82 92 91
f 85 93 86
f 86 93 92
f 86 92 90
f 86 90 94
f 86 94 87
f 87 94 88
f 88 94 89
f 89 94 90
f 91 92 95
f 92 93 95

