# https://github.com/mikedh/trimesh
v -0.11065394 0.00587047 -0.00451720 0.56470588 0.92549020 0.07058824
v -0.11259736 0.00587047 -0.00379762 0.56470588 0.92549020 0.07058824
v -0.11609382 0.02375960 -0.01657636 0.56470588 0.92549020 0.07058824
v -0.11327223 0.02364144 -0.01669955 0.56470588 0.92549020 0.07058824
v -0.11304158 0.02667895 -0.01774672 0.56470588 0.92549020 0.07058824
v -0.11075303 0.02424616 -0.01302609 0.56470588 0.92549020 0.07058824
v -0.11075303 0.02497600 -0.01302609 0.56470588 0.92549020 0.07058824
v -0.11065394 0.00686444 -0.00445280 0.56470588 0.92549020 0.07058824
v -0.11065394 0.00587047 0.00926390 0.56470588 0.92549020 0.07058824
v -0.11299374 0.00587047 -0.00364363 0.56470588 0.92549020 0.07058824
v -0.11791936 0.02446395 -0.01594638 0.56470588 0.92549020 0.07058824
v -0.11439557 0.02803668 -0.01933986 0.56470588 0.92549020 0.07058824
v -0.11429477 0.02803668 -0.01933986 0.56470588 0.92549020 0.07058824
v -0.11429477 0.02819423 -0.01933986 0.56470588 0.92549020 0.07058824
v -0.11352081 0.02897272 -0.01756752 0.56470588 0.92549020 0.07058824
v -0.11118016 0.02624105 -0.01414325 0.56470588 0.92549020 0.07058824
v -0.11075303 0.02497600 -0.01177173 0.56470588 0.92549020 0.07058824
v -0.11065394 0.01331482 -0.00008496 0.56470588 0.92549020 0.07058824
v -0.11065394 0.01302056 -0.00088853 0.56470588 0.92549020 0.07058824
v -0.11065394 0.01201269 -0.00319565 0.56470588 0.92549020 0.07058824
v -0.11065394 0.01052290 -0.00416721 0.56470588 0.92549020 0.07058824
v -0.11065394 0.00735563 0.00917710 0.56470588 0.92549020 0.07058824
v -0.11213949 0.00587047 0.00925830 0.56470588 0.92549020 0.07058824
v -0.11498671 0.00587047 -0.00225768 0.56470588 0.92549020 0.07058824
v -0.11799966 0.02087269 -0.01262010 0.56470588 0.92549020 0.07058824
v -0.11833709 0.01958447 -0.01042778 0.56470588 0.92549020 0.07058824
v -0.11818588 0.02313634 -0.01389966 0.56470588 0.92549020 0.07058824
v -0.11916058 0.01939679 -0.00707630 0.56470588 0.92549020 0.07058824
v -0.11879497 0.02289538 -0.01057338 0.56470588 0.92549020 0.07058824
v -0.11792448 0.02639165 -0.01596598 0.56470588 0.92549020 0.07058824
v -0.11439557 0.02819423 -0.01933986 0.56470588 0.92549020 0.07058824
v -0.11577347 0.02884066 -0.01725673 0.56470588 0.92549020 0.07058824
v -0.11609382 0.02954038 -0.01407045 0.56470588 0.92549020 0.07058824
v -0.11294249 0.02942916 -0.01407045 0.56470588 0.92549020 0.07058824
v -0.11225225 0.02654689 -0.01031579 0.56470588 0.92549020 0.07058824
v -0.11065394 0.01071520 0.00870392 0.56470588 0.92549020 0.07058824
v -0.11065394 0.01181807 0.00696798 0.56470588 0.92549020 0.07058824
v -0.11065394 0.01311556 0.00340931 0.56470588 0.92549020 0.07058824
v -0.11065394 0.00896359 0.00901471 0.56470588 0.92549020 0.07058824
v -0.11245300 0.00902383 0.00892511 0.56470588 0.92549020 0.07058824
v -0.11257943 0.00587047 0.00923590 0.56470588 0.92549020 0.07058824
v -0.11680456 0.00587047 -0.00026135 0.56470588 0.92549020 0.07058824
v -0.11798001 0.00587047 0.00127299 0.56470588 0.92549020 0.07058824
v -0.11922636 0.01590284 -0.00358203 0.56470588 0.92549020 0.07058824
v -0.11938098 0.01590284 -0.00008496 0.56470588 0.92549020 0.07058824
v -0.11927677 0.01939679 -0.00358203 0.56470588 0.92549020 0.07058824
v -0.11881804 0.02289538 -0.00707630 0.56470588 0.92549020 0.07058824
v -0.11827986 0.02640092 -0.01080017 0.56470588 0.92549020 0.07058824
v -0.11822944 0.02639165 -0.01407045 0.56470588 0.92549020 0.07058824
v -0.11787494 0.02819887 -0.01588478 0.56470588 0.92549020 0.07058824
v -0.11791765 0.02824984 -0.01407045 0.56470588 0.92549020 0.07058824
v -0.11790996 0.02822899 -0.01211612 0.56470588 0.92549020 0.07058824
v -0.11609382 0.02870164 -0.01131815 0.56470588 0.92549020 0.07058824
v -0.11352423 0.02880127 -0.01118936 0.56470588 0.92549020 0.07058824
v -0.11331152 0.02570120 -0.00707630 0.56470588 0.92549020 0.07058824
v -0.11390523 0.01464938 0.00552884 0.56470588 0.92549020 0.07058824
v -0.11609382 0.01641952 0.00415969 0.56470588 0.92549020 0.07058824
v -0.11609382 0.01467023 0.00553164 0.56470588 0.92549020 0.07058824
v -0.11119041 0.01070362 0.00869552 0.56470588 0.92549020 0.07058824
v -0.11400005 0.02491112 -0.00498758 0.56470588 0.92549020 0.07058824
v -0.11384970 0.02162801 -0.00130572 0.56470588 0.92549020 0.07058824
v -0.11379930 0.01822905 0.00225016 0.56470588 0.92549020 0.07058824
v -0.11609382 0.01839124 0.00240975 0.56470588 0.92549020 0.07058824
v -0.11352166 0.01026572 0.00855553 0.56470588 0.92549020 0.07058824
v -0.11481415 0.00793487 0.00882711 0.56470588 0.92549020 0.07058824
v -0.11513705 0.00587047 0.00893071 0.56470588 0.92549020 0.07058824
v -0.11828242 0.00587047 0.00340931 0.56470588 0.92549020 0.07058824
v -0.11909651 0.01240657 -0.00008496 0.56470588 0.92549020 0.07058824
v -0.11845412 0.01566883 0.00330572 0.56470588 0.92549020 0.07058824
v -0.11852417 0.01929485 -0.00023615 0.56470588 0.92549020 0.07058824
v -0.11892396 0.01240657 0.00340931 0.56470588 0.92549020 0.07058824
v -0.11829522 0.02271003 -0.00392922 0.56470588 0.92549020 0.07058824
v -0.11808595 0.02509416 -0.00707630 0.56470588 0.92549020 0.07058824
v -0.11784418 0.02464467 -0.00532357 0.56470588 0.92549020 0.07058824
v -0.11609382 0.02769609 -0.00957101 0.56470588 0.92549020 0.07058824
v -0.11609382 0.02615069 -0.00707630 0.56470588 0.92549020 0.07058824
v -0.11815685 0.01805992 0.00207096 0.56470588 0.92549020 0.07058824
v -0.11795952 0.01434817 0.00528524 0.56470588 0.92549020 0.07058824
v -0.11609382 0.02484625 -0.00506598 0.56470588 0.92549020 0.07058824
v -0.11609382 0.02346072 -0.00332164 0.56470588 0.92549020 0.07058824
v -0.11609382 0.02171142 -0.00119092 0.56470588 0.92549020 0.07058824
v -0.11609382 0.02014053 0.00055902 0.56470588 0.92549020 0.07058824
v -0.11816538 0.01240657 0.00565483 0.56470588 0.92549020 0.07058824
v -0.11602463 0.00902383 0.00778275 0.56470588 0.92549020 0.07058824
v -0.11683873 0.00587047 0.00775755 0.56470588 0.92549020 0.07058824
v -0.11656708 0.00587047 0.00794795 0.56470588 0.92549020 0.07058824
v -0.11814147 0.00587047 0.00598802 0.56470588 0.92549020 0.07058824
v -0.11806971 0.02141949 -0.00150451 0.56470588 0.92549020 0.07058824
v -0.11819528 0.00891030 0.00589002 0.56470588 0.92549020 0.07058824
f 1 2 3
f 1 3 4
f 1 4 5
f 1 5 6
f 1 6 7
f 1 7 8
f 1 8 21
f 1 21 20
f 1 20 19
f 1 19 18
f 1 18 38
f 1 38 37
f 1 37 36
f 1 36 39
f 1 39 22
f 1 22 9
f 1 9 23
f 1 23 41
f 1 41 66
f 1 66 86
f 1 86 85
f 1 85 87
f 1 87 67
f 1 67 43
f 1 43 42
f 1 42 24
f 1 24 10
f 1 10 2
f 2 10 3
f 3 11 12
f 3 12 4
f 3 10 11
f 4 12 13
f 4 13 5
f 5 13 14
f 5 14 15
f 5 15 16
f 5 16 6
f 6 16 7
f 7 17 18
f 7 18 19
f 7 19 20
f 7 20 21
f 7 21 8
f 7 16 17
f 9 22 23
f 10 24 11
f 11 25 26
f 11 26 27
f 11 27 28
f 11 28 29
f 11 29 30
f 11 30 12
f 11 24 25
f 12 31 14
f 12 14 13
f 12 30 31
f 14 31 15
f 15 31 32
f 15 32 33
f 15 33 34
f 15 34 16
f 16 34 17
f 17 34 35
f 17 35 36
f 17 36 37
f 17 37 38
f 17 38 18
f 22 39 23
f 23 39 40
f 23 40 41
f 24 42 25
f 25 42 43
f 25 43 26
f 26 44 28
f 26 28 27
f 26 43 44
f 28 44 45
f 28 45 46
f 28 46 29
f 29 46 47
f 29 47 48
f 29 48 49
f 29 49 30
f 30 49 50
f 30 50 31
f 31 50 32
f 32 50 33
f 33 50 51
f 33 51 52
f 33 52 53
f 33 53 54
f 33 54 34
f 34 54 35
f 35 54 55
f 35 55 36
f 36 56 57
f 36 57 58
f 36 58 59
f 36 59 39
f 36 55 60
f 36 60 61
f 36 61 62
f 36 62 63
f 36 63 56
f 39 59 40
f 40 59 64
f 40 64 65
f 40 65 41
f 41 65 66
f 43 67 68
f 43 68 44
f 44 68 45
f 45 69 70
f 45 70 46
f 45 68 71
f 45 71 69
f 46 70 72
f 46 72 47
f 47 72 73
f 47 73 52
f 47 52 48
f 48 52 51
f 48 51 49
f 49 51 50
f 52 73 74
f 52 74 53
f 53 74 75
f 53 75 54
f 54 75 76
f 54 76 60
f 54 60 55
f 56 63 57
f 57 63 77
f 57 77 78
f 57 78 58
f 58 78 64
f 58 64 59
f 60 76 79
f 60 79 80
f 60 80 81
f 60 81 61
f 61 81 82
f 61 82 63
f 61 63 62
f 63 82 77
f 64 78 65
f 65 78 83
f 65 83 84
f 65 84 85
f 65 85 86
f 65 86 66
f 67 87 71
f 67 71 68
f 69 77 70
f 69 71 83
f 69 83 78
f 69 78 77
f 70 77 88
f 70 88 72
f 71 87 89
f 71 89 83
f 72 74 73
f 72 88 74
f 74 88 81
f 74 81 80
f 74 80 79
f 74 79 76
f 74 76 75
f 77 82 88
f 81 88 82
f 83 89 85
f 83 85 84
f 85 89 87

