# https://github.com/mikedh/trimesh

o geometry_0
v 0.09833181 -0.01540752 0.00340987 0.54509804 0.71372549 0.60000000
v 0.09833181 -0.01460941 0.00648444 0.54509804 0.71372549 0.60000000
v 0.09833181 -0.01495998 -0.00008634 0.54509804 0.71372549 0.60000000
v 0.13215125 -0.03678513 -0.01435985 0.54509804 0.71372549 0.60000000
v 0.13001933 -0.03520381 -0.01179980 0.54509804 0.71372549 0.60000000
v 0.13215125 -0.03602431 -0.01085359 0.54509804 0.71372549 0.60000000
v 0.10070208 -0.01460941 0.00631377 0.54509804 0.71372549 0.60000000
v 0.09833181 -0.01199874 0.00819615 0.54509804 0.71372549 0.60000000
v 0.09833181 -0.01443039 -0.00147680 0.54509804 0.71372549 0.60000000
v 0.13215125 -0.03672546 -0.01449287 0.54509804 0.71372549 0.60000000
v 0.09833181 -0.01416186 -0.00216952 0.54509804 0.71372549 0.60000000
v 0.13215125 -0.03499496 -0.01016338 0.54509804 0.71372549 0.60000000
v 0.10070208 -0.01206587 0.00777952 0.54509804 0.71372549 0.60000000
v 0.09833181 -0.00856759 0.00860275 0.54509804 0.71372549 0.60000000
v 0.13051589 -0.03470406 -0.01569509 0.54509804 0.71372549 0.60000000
v 0.13215125 -0.03545742 -0.01605902 0.54509804 0.71372549 0.60000000
v 0.09833181 -0.01206587 -0.00277439 0.54509804 0.71372549 0.60000000
v 0.12337528 -0.02440312 -0.01584819 0.54509804 0.71372549 0.60000000
v 0.12637453 -0.02869953 -0.01610419 0.54509804 0.71372549 0.60000000
v 0.12711607 -0.03103421 -0.01553195 0.54509804 0.71372549 0.60000000
v 0.13215125 -0.03304815 -0.00910423 0.54509804 0.71372549 0.60000000
v 0.10420122 -0.01206587 0.00638153 0.54509804 0.71372549 0.60000000
v 0.10070208 -0.00856759 0.00810078 0.54509804 0.71372549 0.60000000
v 0.10070208 -0.00507675 0.00808572 0.54509804 0.71372549 0.60000000
v 0.10070208 0.00191236 0.00800290 0.54509804 0.71372549 0.60000000
v 0.09833181 -0.00078035 0.00844463 0.54509804 0.71372549 0.60000000
v 0.12944662 -0.03237684 -0.01623471 0.54509804 0.71372549 0.60000000
v 0.13215125 -0.03402528 -0.01645808 0.54509804 0.71372549 0.60000000
v 0.09833181 -0.00969390 -0.00297267 0.54509804 0.71372549 0.60000000
v 0.12133274 -0.01906245 -0.01533869 0.54509804 0.71372549 0.60000000
v 0.12317996 -0.02256074 -0.01590340 0.54509804 0.71372549 0.60000000
v 0.12519602 -0.02576067 -0.01619204 0.54509804 0.71372549 0.60000000
v 0.12843694 -0.02974380 -0.01647816 0.54509804 0.71372549 0.60000000
v 0.13215125 -0.03006453 -0.00867253 0.54509804 0.71372549 0.60000000
v 0.10420122 -0.00856759 0.00657479 0.54509804 0.71372549 0.60000000
v 0.13215125 -0.02960953 -0.00864493 0.54509804 0.71372549 0.60000000
v 0.10420122 -0.00507675 0.00654969 0.54509804 0.71372549 0.60000000
v 0.10420122 0.00191236 0.00645934 0.54509804 0.71372549 0.60000000
v 0.10420122 0.00541065 0.00637902 0.54509804 0.71372549 0.60000000
v 0.10070208 0.00541065 0.00784227 0.54509804 0.71372549 0.60000000
v 0.09833181 0.00323261 0.00830408 0.54509804 0.71372549 0.60000000
v 0.09833181 0.00194220 0.00836180 0.54509804 0.71372549 0.60000000
v 0.13187649 -0.03334651 -0.01655346 0.54509804 0.71372549 0.60000000
v 0.13215125 -0.03360758 -0.01654342 0.54509804 0.71372549 0.60000000
v 0.09833181 -0.00856759 -0.00305800 0.54509804 0.71372549 0.60000000
v 0.11818451 -0.01556416 -0.01367968 0.54509804 0.71372549 0.60000000
v 0.12148502 -0.01556416 -0.01538387 0.54509804 0.71372549 0.60000000
v 0.12308065 -0.01906245 -0.01591344 0.54509804 0.71372549 0.60000000
v 0.12517615 -0.02256074 -0.01634263 0.54509804 0.71372549 0.60000000
v 0.12867529 -0.02605157 -0.01684209 0.54509804 0.71372549 0.60000000
v 0.13215125 -0.02954986 -0.01703535 0.54509804 0.71372549 0.60000000
v 0.13215125 -0.02952748 -0.01703786 0.54509804 0.71372549 0.60000000
v 0.13215125 -0.02606649 -0.00857214 0.54509804 0.71372549 0.60000000
v 0.13215125 0.02986138 -0.00816554 0.54509804 0.71372549 0.60000000
v 0.13215125 0.03335967 -0.00821323 0.54509804 0.71372549 0.60000000
v 0.13215125 0.03661927 -0.00847426 0.54509804 0.71372549 0.60000000
v 0.09833181 0.00541065 0.00816855 0.54509804 0.71372549 0.60000000
v 0.13215125 0.03666403 -0.00848179 0.54509804 0.71372549 0.60000000
v 0.13215125 -0.02982585 -0.01700272 0.54509804 0.71372549 0.60000000
v 0.13215125 -0.03332413 -0.01658357 0.54509804 0.71372549 0.60000000
v 0.09833181 -0.00507675 -0.00308561 0.54509804 0.71372549 0.60000000
v 0.09833181 -0.00157847 -0.00310820 0.54509804 0.71372549 0.60000000
v 0.09833181 0.00191236 -0.00306804 0.54509804 0.71372549 0.60000000
v 0.11830037 0.00541065 -0.01344124 0.54509804 0.71372549 0.60000000
v 0.11835334 0.00890148 -0.01341113 0.54509804 0.71372549 0.60000000
v 0.12168033 0.01239977 -0.01501492 0.54509804 0.71372549 0.60000000
v 0.12406054 0.01239977 -0.01570764 0.54509804 0.71372549 0.60000000
v 0.12867529 -0.02256074 -0.01681197 0.54509804 0.71372549 0.60000000
v 0.12580845 0.01239977 -0.01601635 0.54509804 0.71372549 0.60000000
v 0.12867529 0.00191236 -0.01656851 0.54509804 0.71372549 0.60000000
v 0.13215125 0.00193474 -0.01697009 0.54509804 0.71372549 0.60000000
v 0.13215125 -0.00155609 -0.01699017 0.54509804 0.71372549 0.60000000
v 0.09833181 0.00640271 0.00771175 0.54509804 0.71372549 0.60000000
v 0.13215125 0.03855116 -0.00965388 0.54509804 0.71372549 0.60000000
v 0.09833181 0.00848378 0.00656726 0.54509804 0.71372549 0.60000000
v 0.09833181 0.00428434 -0.00299526 0.54509804 0.71372549 0.60000000
v 0.11847914 0.01239977 -0.01337850 0.54509804 0.71372549 0.60000000
v 0.12168033 0.01589806 -0.01489194 0.54509804 0.71372549 0.60000000
v 0.12424592 0.01589806 -0.01568254 0.54509804 0.71372549 0.60000000
v 0.12599383 0.01589806 -0.01597368 0.54509804 0.71372549 0.60000000
v 0.12867529 0.01239977 -0.01643800 0.54509804 0.71372549 0.60000000
v 0.13215125 0.00543303 -0.01691738 0.54509804 0.71372549 0.60000000
v 0.13215125 0.03941641 -0.01065531 0.54509804 0.71372549 0.60000000
v 0.09833181 0.00897607 0.00559344 0.54509804 0.71372549 0.60000000
v 0.09833181 0.00541065 -0.00295008 0.54509804 0.71372549 0.60000000
v 0.12168033 0.01939635 -0.01448534 0.54509804 0.71372549 0.60000000
v 0.12461669 0.01939635 -0.01560473 0.54509804 0.71372549 0.60000000
v 0.11872080 0.01589806 -0.01328061 0.54509804 0.71372549 0.60000000
v 0.12636460 0.01939635 -0.01591344 0.54509804 0.71372549 0.60000000
v 0.12867529 0.01589806 -0.01636271 0.54509804 0.71372549 0.60000000
v 0.13215125 0.01592044 -0.01674420 0.54509804 0.71372549 0.60000000
v 0.13215125 0.01242215 -0.01680946 0.54509804 0.71372549 0.60000000
v 0.13215125 0.00892386 -0.01686468 0.54509804 0.71372549 0.60000000
v 0.13215125 0.03699222 -0.01446526 0.54509804 0.71372549 0.60000000
v 0.12962538 0.03620902 -0.01327309 0.54509804 0.71372549 0.60000000
v 0.09833181 0.00941616 -0.00001105 0.54509804 0.71372549 0.60000000
v 0.09833181 0.00984878 0.00244860 0.54509804 0.71372549 0.60000000
v 0.09833181 0.00992337 0.00332705 0.54509804 0.71372549 0.60000000
v 0.09833181 0.00706656 -0.00256607 0.54509804 0.71372549 0.60000000
v 0.11922068 0.01939635 -0.01294932 0.54509804 0.71372549 0.60000000
v 0.12159426 0.02277530 -0.01351403 0.54509804 0.71372549 0.60000000
v 0.12517615 0.02638547 -0.01457319 0.54509804 0.71372549 0.60000000
v 0.12538802 0.02292448 -0.01544159 0.54509804 0.71372549 0.60000000
v 0.12769540 0.02638547 -0.01569509 0.54509804 0.71372549 0.60000000
v 0.12716904 0.02411792 -0.01578293 0.54509804 0.71372549 0.60000000
v 0.12669565 0.02178324 -0.01586074 0.54509804 0.71372549 0.60000000
v 0.12867529 0.01939635 -0.01623972 0.54509804 0.71372549 0.60000000
v 0.13215125 0.01941873 -0.01663377 0.54509804 0.71372549 0.60000000
v 0.13215125 0.03691764 -0.01449789 0.54509804 0.71372549 0.60000000
v 0.13213470 0.03693255 -0.01448534 0.54509804 0.71372549 0.60000000
v 0.12854618 0.03340443 -0.01393067 0.54509804 0.71372549 0.60000000
v 0.12649040 0.03226319 -0.01289912 0.54509804 0.71372549 0.60000000
v 0.09833181 0.00796164 -0.00235776 0.54509804 0.71372549 0.60000000
v 0.12283568 0.02638547 -0.01294932 0.54509804 0.71372549 0.60000000
v 0.12526554 0.02959286 -0.01334085 0.54509804 0.71372549 0.60000000
v 0.12879447 0.03008516 -0.01537885 0.54509804 0.71372549 0.60000000
v 0.13056886 0.03138303 -0.01580301 0.54509804 0.71372549 0.60000000
v 0.13004250 0.02905581 -0.01587580 0.54509804 0.71372549 0.60000000
v 0.12847004 0.02292448 -0.01603894 0.54509804 0.71372549 0.60000000
v 0.13215125 0.02291702 -0.01647565 0.54509804 0.71372549 0.60000000
v 0.13215125 0.03338205 -0.01577540 0.54509804 0.71372549 0.60000000
v 0.13130378 0.03338205 -0.01564740 0.54509804 0.71372549 0.60000000
v 0.13215125 0.03077885 -0.01600380 0.54509804 0.71372549 0.60000000
v 0.13190959 0.03008516 -0.01602639 0.54509804 0.71372549 0.60000000
v 0.13215125 0.02668383 -0.01626482 0.54509804 0.71372549 0.60000000
v 0.13215125 0.02638547 -0.01628239 0.54509804 0.71372549 0.60000000
v 0.12944662 0.02638547 -0.01595862 0.54509804 0.71372549 0.60000000
v 0.13215125 0.03007024 -0.01605149 0.54509804 0.71372549 0.60000000
f 1 2 8
f 1 8 14
f 1 14 26
f 1 26 42
f 1 42 41
f 1 41 57
f 1 57 73
f 1 73 75
f 1 75 84
f 1 84 98
f 1 98 97
f 1 97 96
f 1 96 113
f 1 113 99
f 1 99 85
f 1 85 76
f 1 76 63
f 1 63 62
f 1 62 61
f 1 61 45
f 1 45 29
f 1 29 17
f 1 17 11
f 1 11 9
f 1 9 3
f 1 3 4
f 1 4 5
f 1 5 2
f 2 5 6
f 2 6 7
f 2 7 8
f 3 9 4
f 4 10 16
f 4 16 28
f 4 28 44
f 4 44 60
f 4 60 59
f 4 59 51
f 4 51 52
f 4 52 72
f 4 72 71
f 4 71 82
f 4 82 93
f 4 93 92
f 4 92 91
f 4 91 108
f 4 108 120
f 4 120 126
f 4 126 125
f 4 125 128
f 4 128 123
f 4 123 121
f 4 121 109
f 4 109 94
f 4 94 83
f 4 83 74
f 4 74 58
f 4 58 56
f 4 56 55
f 4 55 54
f 4 54 53
f 4 53 36
f 4 36 34
f 4 34 21
f 4 21 12
f 4 12 6
f 4 6 5
f 4 9 11
f 4 11 10
f 6 12 7
f 7 12 8
f 8 13 14
f 8 12 13
f 10 15 16
f 10 11 15
f 11 17 18
f 11 18 19
f 11 19 20
f 11 20 15
f 12 21 13
f 13 22 23
f 13 23 14
f 13 21 22
f 14 23 24
f 14 24 25
f 14 25 26
f 15 20 27
f 15 27 16
f 16 27 28
f 17 29 30
f 17 30 18
f 18 30 31
f 18 31 32
f 18 32 19
f 19 32 33
f 19 33 27
f 19 27 20
f 21 34 22
f 22 35 23
f 22 34 36
f 22 36 35
f 23 35 24
f 24 35 37
f 24 37 25
f 25 37 38
f 25 38 39
f 25 39 40
f 25 40 41
f 25 41 42
f 25 42 26
f 27 33 43
f 27 43 28
f 28 43 44
f 29 45 30
f 30 46 47
f 30 47 48
f 30 48 31
f 30 45 46
f 31 49 32
f 31 48 49
f 32 49 50
f 32 50 33
f 33 51 43
f 33 50 52
f 33 52 51
f 35 36 53
f 35 53 54
f 35 54 37
f 37 54 38
f 38 54 55
f 38 55 39
f 39 55 56
f 39 56 40
f 40 57 41
f 40 56 58
f 40 58 57
f 43 51 59
f 43 59 60
f 43 60 44
f 45 61 46
f 46 61 62
f 46 62 63
f 46 63 64
f 46 64 47
f 47 64 65
f 47 65 66
f 47 66 48
f 48 66 67
f 48 67 49
f 49 68 50
f 49 67 69
f 49 69 70
f 49 70 68
f 50 68 71
f 50 71 72
f 50 72 52
f 57 58 73
f 58 74 75
f 58 75 73
f 63 76 77
f 63 77 65
f 63 65 64
f 65 77 66
f 66 77 78
f 66 78 79
f 66 79 67
f 67 79 69
f 68 70 71
f 69 79 80
f 69 80 81
f 69 81 70
f 70 81 71
f 71 81 82
f 74 83 75
f 75 83 84
f 76 85 77
f 77 85 78
f 78 86 87
f 78 87 79
f 78 85 88
f 78 88 86
f 79 87 89
f 79 89 80
f 80 90 81
f 80 89 90
f 81 90 91
f 81 91 92
f 81 92 93
f 81 93 82
f 83 94 95
f 83 95 96
f 83 96 97
f 83 97 98
f 83 98 84
f 85 99 100
f 85 100 86
f 85 86 88
f 86 100 101
f 86 101 102
f 86 102 103
f 86 103 87
f 87 103 104
f 87 104 105
f 87 105 106
f 87 106 89
f 89 106 107
f 89 107 90
f 90 107 108
f 90 108 91
f 94 109 110
f 94 110 95
f 95 110 111
f 95 111 112
f 95 112 113
f 95 113 96
f 99 113 100
f 100 113 101
f 101 114 102
f 101 113 114
f 102 114 115
f 102 115 111
f 102 111 116
f 102 116 103
f 103 116 104
f 104 116 117
f 104 117 105
f 105 117 118
f 105 118 119
f 105 119 106
f 106 119 107
f 107 119 120
f 107 120 108
f 109 121 122
f 109 122 110
f 110 122 111
f 111 122 116
f 111 115 112
f 112 115 113
f 113 115 114
f 116 122 117
f 117 122 121
f 117 121 123
f 117 123 124
f 117 124 125
f 117 125 126
f 117 126 118
f 118 126 127
f 118 127 119
f 119 127 126
f 119 126 120
f 123 128 124
f 124 128 125

o geometry_1
v -0.11065394 0.01331436 -0.00008324 0.54117647 0.42352941 0.64313725
v -0.11065394 0.01301801 -0.00088768 0.54117647 0.42352941 0.64313725
v -0.11065394 0.01311484 0.00341171 0.54117647 0.42352941 0.64313725
v 0.05062676 0.01066186 0.00517353 0.54117647 0.42352941 0.64313725
v 0.09833181 0.00992831 0.00332569 0.54117647 0.42352941 0.64313725
v 0.09833181 0.00985202 0.00244957 0.54117647 0.42352941 0.64313725
v 0.09833181 0.00941776 -0.00000837 0.54117647 0.42352941 0.64313725
v -0.11065394 0.01200865 -0.00319270 0.54117647 0.42352941 0.64313725
v -0.11065394 0.01181499 0.00696879 0.54117647 0.42352941 0.64313725
v 0.03076329 0.00975226 0.00713924 0.54117647 0.42352941 0.64313725
v 0.03426139 0.00970238 0.00711216 0.54117647 0.42352941 0.64313725
v 0.05872761 0.00930333 0.00690826 0.54117647 0.42352941 0.64313725
v 0.06572381 0.00913314 0.00690826 0.54117647 0.42352941 0.64313725
v 0.09718623 0.00847882 0.00663427 0.54117647 0.42352941 0.64313725
v 0.09833181 0.00848469 0.00656896 0.54117647 0.42352941 0.64313725
v 0.09833181 0.00898057 0.00559248 0.54117647 0.42352941 0.64313725
v -0.09860493 0.01081737 0.00879432 0.54117647 0.42352941 0.64313725
v 0.09833181 0.00796240 -0.00235480 0.54117647 0.42352941 0.64313725
v -0.06014633 0.00758389 -0.00556302 0.54117647 0.42352941 0.64313725
v -0.06362396 0.00763084 -0.00558691 0.54117647 0.42352941 0.64313725
v -0.11065394 0.01052101 -0.00416440 0.54117647 0.42352941 0.64313725
v -0.11065394 0.01071467 0.00870671 0.54117647 0.42352941 0.64313725
v -0.10909923 0.01074988 0.00873698 0.54117647 0.42352941 0.64313725
v -0.10560113 0.01080563 0.00878317 0.54117647 0.42352941 0.64313725
v -0.10210303 0.01084084 0.00881185 0.54117647 0.42352941 0.64313725
v 0.03076329 0.00800642 0.00908106 0.54117647 0.42352941 0.64313725
v 0.06572381 0.00750467 0.00884689 0.54117647 0.42352941 0.64313725
v 0.06922191 0.00744305 0.00881185 0.54117647 0.42352941 0.64313725
v 0.07621810 0.00727580 0.00871945 0.54117647 0.42352941 0.64313725
v 0.07893885 0.00720832 0.00868282 0.54117647 0.42352941 0.64313725
v 0.09833181 0.00640435 0.00771270 0.54117647 0.42352941 0.64313725
v 0.08127090 0.00709682 0.00865096 0.54117647 0.42352941 0.64313725
v 0.02726520 0.00803576 0.00910017 0.54117647 0.42352941 0.64313725
v 0.09833181 0.00707335 -0.00256348 0.54117647 0.42352941 0.64313725
v -0.06014633 0.00540966 -0.00584019 0.54117647 0.42352941 0.64313725
v -0.06362396 0.00540966 -0.00588161 0.54117647 0.42352941 0.64313725
v 0.09833181 0.00540966 -0.00294738 0.54117647 0.42352941 0.64313725
v -0.07062016 0.00540966 -0.00590550 0.54117647 0.42352941 0.64313725
v -0.07411826 0.00540966 -0.00591506 0.54117647 0.42352941 0.64313725
v -0.06712206 0.00764258 -0.00559010 0.54117647 0.42352941 0.64313725
v -0.08111446 0.00771887 -0.00559328 0.54117647 0.42352941 0.64313725
v -0.09860493 0.00938842 -0.00477291 0.54117647 0.42352941 0.64313725
v -0.10210303 0.00933560 -0.00477610 0.54117647 0.42352941 0.64313725
v -0.10560113 0.00925051 -0.00475380 0.54117647 0.42352941 0.64313725
v -0.10560113 0.00750174 -0.00540532 0.54117647 0.42352941 0.64313725
v -0.10768772 0.00736090 -0.00537346 0.54117647 0.42352941 0.64313725
v -0.11065394 0.00035699 -0.00534638 0.54117647 0.42352941 0.64313725
v -0.11065394 0.00896003 0.00901574 0.54117647 0.42352941 0.64313725
v -0.10909923 0.00890721 0.00909380 0.54117647 0.42352941 0.64313725
v -0.10210303 0.00890721 0.00919575 0.54117647 0.42352941 0.64313725
v -0.09860493 0.00890721 0.00920371 0.54117647 0.42352941 0.64313725
v -0.00071958 0.00822061 0.00921964 0.54117647 0.42352941 0.64313725
v 0.00277851 0.00820301 0.00921009 0.54117647 0.42352941 0.64313725
v 0.01677090 0.00810911 0.00914796 0.54117647 0.42352941 0.64313725
v 0.02376710 0.00806217 0.00911610 0.54117647 0.42352941 0.64313725
v 0.00277851 0.00540966 0.00976603 0.54117647 0.42352941 0.64313725
v 0.00627661 0.00540966 0.00973895 0.54117647 0.42352941 0.64313725
v 0.02726520 0.00540966 0.00955735 0.54117647 0.42352941 0.64313725
v 0.05522952 0.00764551 0.00892017 0.54117647 0.42352941 0.64313725
v 0.06222571 0.00755162 0.00887238 0.54117647 0.42352941 0.64313725
v 0.03076329 0.00540966 0.00952230 0.54117647 0.42352941 0.64313725
v 0.06572381 0.00540966 0.00910654 0.54117647 0.42352941 0.64313725
v 0.06922191 0.00540966 0.00905397 0.54117647 0.42352941 0.64313725
v 0.09718623 0.00540966 0.00832281 0.54117647 0.42352941 0.64313725
v 0.09833181 0.00540966 0.00816829 0.54117647 0.42352941 0.64313725
v 0.09021049 0.00427413 0.00872264 0.54117647 0.42352941 0.64313725
v 0.09293123 0.00395430 0.00869078 0.54117647 0.42352941 0.64313725
v 0.09021049 0.00601997 0.00850440 0.54117647 0.42352941 0.64313725
v -0.06014633 0.00191504 -0.00588161 0.54117647 0.42352941 0.64313725
v 0.09833181 0.00428293 -0.00299358 0.54117647 0.42352941 0.64313725
v 0.09833181 0.00191504 -0.00306526 0.54117647 0.42352941 0.64313725
v 0.09833181 0.00078832 -0.00307960 0.54117647 0.42352941 0.64313725
v -0.06362396 0.00191504 -0.00592303 0.54117647 0.42352941 0.64313725
v -0.10909923 -0.01206929 -0.00648534 0.54117647 0.42352941 0.64313725
v -0.07761636 0.00540966 -0.00590391 0.54117647 0.42352941 0.64313725
v -0.07761636 0.00768953 -0.00559488 0.54117647 0.42352941 0.64313725
v -0.10210303 0.00758683 -0.00543080 0.54117647 0.42352941 0.64313725
v -0.09860493 0.00763964 -0.00545151 0.54117647 0.42352941 0.64313725
v -0.10909923 -0.00857174 -0.00629259 0.54117647 0.42352941 0.64313725
v -0.11065394 -0.00857174 -0.00625596 0.54117647 0.42352941 0.64313725
v -0.11065394 0.00735503 0.00917823 0.54117647 0.42352941 0.64313725
v -0.11065394 0.00540966 0.00928973 0.54117647 0.42352941 0.64313725
v -0.08111446 0.00540966 0.00962585 0.54117647 0.42352941 0.64313725
v -0.07761636 0.00540966 0.00966249 0.54117647 0.42352941 0.64313725
v -0.04965203 0.00540966 0.00975966 0.54117647 0.42352941 0.64313725
v -0.04265584 0.00540966 0.00977877 0.54117647 0.42352941 0.64313725
v -0.03915774 0.00540966 0.00978355 0.54117647 0.42352941 0.64313725
v -0.00421768 0.00540966 0.00978833 0.54117647 0.42352941 0.64313725
v -0.00071958 0.00540966 0.00978355 0.54117647 0.42352941 0.64313725
v 0.00277851 0.00191504 0.00975169 0.54117647 0.42352941 0.64313725
v 0.00627661 0.00191504 0.00973258 0.54117647 0.42352941 0.64313725
v 0.00977471 0.00191504 0.00971027 0.54117647 0.42352941 0.64313725
v 0.01327281 0.00191504 0.00968479 0.54117647 0.42352941 0.64313725
v 0.02726520 0.00191504 0.00957647 0.54117647 0.42352941 0.64313725
v 0.03076329 0.00191504 0.00954301 0.54117647 0.42352941 0.64313725
v 0.06572381 0.00191504 0.00919097 0.54117647 0.42352941 0.64313725
v 0.06922191 0.00191504 0.00915433 0.54117647 0.42352941 0.64313725
v 0.09021049 0.00191504 0.00880707 0.54117647 0.42352941 0.64313725
v 0.09393361 0.00523654 0.00848051 0.54117647 0.42352941 0.64313725
v 0.09524284 0.00316794 0.00864936 0.54117647 0.42352941 0.64313725
v 0.09694075 0.00196786 0.00857290 0.54117647 0.42352941 0.64313725
v 0.09833181 0.00323543 0.00830369 0.54117647 0.42352941 0.64313725
v 0.09393361 0.00196786 0.00871149 0.54117647 0.42352941 0.64313725
v -0.06014633 -0.00857174 -0.00590073 0.54117647 0.42352941 0.64313725
v -0.06362396 -0.00507712 -0.00593896 0.54117647 0.42352941 0.64313725
v 0.09833181 -0.00158251 -0.00310508 0.54117647 0.42352941 0.64313725
v -0.10560113 -0.01456628 -0.00587205 0.54117647 0.42352941 0.64313725
v -0.10909923 -0.01459562 -0.00591028 0.54117647 0.42352941 0.64313725
v -0.11065394 -0.01347477 -0.00609347 0.54117647 0.42352941 0.64313725
v -0.11065394 -0.01206929 -0.00641207 0.54117647 0.42352941 0.64313725
v -0.11065394 -0.01051711 -0.00636268 0.54117647 0.42352941 0.64313725
v -0.06362396 -0.00857174 -0.00594374 0.54117647 0.42352941 0.64313725
v 0.09833181 -0.00969847 -0.00297127 0.54117647 0.42352941 0.64313725
v 0.09833181 -0.01206929 -0.00277375 0.54117647 0.42352941 0.64313725
v -0.11065394 0.00385748 0.00929611 0.54117647 0.42352941 0.64313725
v -0.10909923 -0.01206929 0.00939487 0.54117647 0.42352941 0.64313725
v -0.07761636 -0.00857174 0.00956531 0.54117647 0.42352941 0.64313725
v -0.04265584 0.00191504 0.00975169 0.54117647 0.42352941 0.64313725
v -0.03915774 0.00191504 0.00975966 0.54117647 0.42352941 0.64313725
v -0.00769532 0.00191504 0.00978196 0.54117647 0.42352941 0.64313725
v -0.00421768 0.00191504 0.00978196 0.54117647 0.42352941 0.64313725
v -0.00071958 0.00191504 0.00976921 0.54117647 0.42352941 0.64313725
v 0.01327281 -0.00158251 0.00965293 0.54117647 0.42352941 0.64313725
v 0.01677090 -0.00158251 0.00963222 0.54117647 0.42352941 0.64313725
v 0.02026900 -0.00158251 0.00960992 0.54117647 0.42352941 0.64313725
v 0.02726520 -0.00158251 0.00955894 0.54117647 0.42352941 0.64313725
v 0.06572381 -0.00158251 0.00919416 0.54117647 0.42352941 0.64313725
v 0.06922191 -0.00158251 0.00915911 0.54117647 0.42352941 0.64313725
v 0.09368813 -0.00857174 0.00881981 0.54117647 0.42352941 0.64313725
v 0.09021049 -0.00507712 0.00886441 0.54117647 0.42352941 0.64313725
v 0.09021049 -0.00158251 0.00883893 0.54117647 0.42352941 0.64313725
v 0.09368813 -0.00507712 0.00880070 0.54117647 0.42352941 0.64313725
v 0.09368813 -0.00158251 0.00876246 0.54117647 0.42352941 0.64313725
v 0.09561106 0.00083820 0.00866529 0.54117647 0.42352941 0.64313725
v 0.09587699 -0.00158251 0.00868282 0.54117647 0.42352941 0.64313725
v 0.09622476 -0.00507712 0.00870671 0.54117647 0.42352941 0.64313725
v 0.09761582 -0.00158251 0.00857449 0.54117647 0.42352941 0.64313725
v 0.09833181 -0.00078734 0.00844547 0.54117647 0.42352941 0.64313725
v 0.09833181 0.00194732 0.00836263 0.54117647 0.42352941 0.64313725
v 0.09833181 -0.00507712 -0.00308278 0.54117647 0.42352941 0.64313725
v 0.09833181 -0.00857174 -0.00305570 0.54117647 0.42352941 0.64313725
v 0.09833181 -0.01416136 -0.00216842 0.54117647 0.42352941 0.64313725
v -0.10560113 -0.01598349 -0.00358138 0.54117647 0.42352941 0.64313725
v -0.10909923 -0.01598349 -0.00358138 0.54117647 0.42352941 0.64313725
v -0.11065394 -0.01451640 -0.00585453 0.54117647 0.42352941 0.64313725
v -0.11065394 -0.00857174 0.00933434 0.54117647 0.42352941 0.64313725
v -0.11065394 -0.01206929 0.00932478 0.54117647 0.42352941 0.64313725
v -0.11065394 -0.01301410 0.00917982 0.54117647 0.42352941 0.64313725
v -0.10909923 -0.01440197 0.00902530 0.54117647 0.42352941 0.64313725
v -0.10560113 -0.01444305 0.00902849 0.54117647 0.42352941 0.64313725
v -0.10210303 -0.01442838 0.00902530 0.54117647 0.42352941 0.64313725
v 0.02726520 -0.01181108 0.00904123 0.54117647 0.42352941 0.64313725
v -0.00071958 -0.00857174 0.00956531 0.54117647 0.42352941 0.64313725
v -0.00421768 -0.00857174 0.00957009 0.54117647 0.42352941 0.64313725
v -0.00769532 -0.00158251 0.00973098 0.54117647 0.42352941 0.64313725
v -0.00421768 -0.00158251 0.00973098 0.54117647 0.42352941 0.64313725
v -0.00071958 -0.00158251 0.00971665 0.54117647 0.42352941 0.64313725
v 0.01677090 -0.00507712 0.00957169 0.54117647 0.42352941 0.64313725
v 0.02026900 -0.00507712 0.00955416 0.54117647 0.42352941 0.64313725
v 0.02726520 -0.00857174 0.00945381 0.54117647 0.42352941 0.64313725
v 0.02726520 -0.00507712 0.00950797 0.54117647 0.42352941 0.64313725
v 0.06922191 -0.00857174 0.00911451 0.54117647 0.42352941 0.64313725
v 0.06922191 -0.00507712 0.00913840 0.54117647 0.42352941 0.64313725
v 0.07272001 -0.00857174 0.00907946 0.54117647 0.42352941 0.64313725
v 0.09368813 -0.01096310 0.00873857 0.54117647 0.42352941 0.64313725
v 0.09624522 -0.01073717 0.00870671 0.54117647 0.42352941 0.64313725
v 0.09653161 -0.00857174 0.00872583 0.54117647 0.42352941 0.64313725
v 0.09798404 -0.00507712 0.00859361 0.54117647 0.42352941 0.64313725
v 0.09833181 -0.00463406 0.00852352 0.54117647 0.42352941 0.64313725
v 0.09833181 -0.01443424 -0.00147549 0.54117647 0.42352941 0.64313725
v -0.09860493 -0.01663195 -0.00008324 0.54117647 0.42352941 0.64313725
v -0.10210303 -0.01665836 -0.00008324 0.54117647 0.42352941 0.64313725
v -0.10560113 -0.01666129 -0.00008324 0.54117647 0.42352941 0.64313725
v 0.09833181 -0.01495946 -0.00008324 0.54117647 0.42352941 0.64313725
v -0.10909923 -0.01661141 -0.00008324 0.54117647 0.42352941 0.64313725
v -0.11065394 -0.01653512 -0.00008324 0.54117647 0.42352941 0.64313725
v -0.11065394 -0.01586026 -0.00358138 0.54117647 0.42352941 0.64313725
v -0.11065394 -0.01528809 -0.00455945 0.54117647 0.42352941 0.64313725
v -0.11065394 -0.01431101 0.00897433 0.54117647 0.42352941 0.64313725
v -0.10909923 -0.01576930 0.00690826 0.54117647 0.42352941 0.64313725
v -0.10560113 -0.01584852 0.00690826 0.54117647 0.42352941 0.64313725
v -0.10210303 -0.01583679 0.00690826 0.54117647 0.42352941 0.64313725
v 0.09368813 -0.01461323 0.00664383 0.54117647 0.42352941 0.64313725
v 0.06222571 -0.01341608 0.00851078 0.54117647 0.42352941 0.64313725
v -0.09510684 -0.01436382 0.00901097 0.54117647 0.42352941 0.64313725
v 0.03076329 -0.01181695 0.00902530 0.54117647 0.42352941 0.64313725
v 0.02026900 -0.00857174 0.00948885 0.54117647 0.42352941 0.64313725
v 0.02376710 -0.00857174 0.00947292 0.54117647 0.42352941 0.64313725
v 0.06572381 -0.01161449 0.00888831 0.54117647 0.42352941 0.64313725
v 0.06922191 -0.01152353 0.00887875 0.54117647 0.42352941 0.64313725
v 0.07272001 -0.01142670 0.00886282 0.54117647 0.42352941 0.64313725
v 0.09368813 -0.01271188 0.00839290 0.54117647 0.42352941 0.64313725
v 0.09732942 -0.01196953 0.00836900 0.54117647 0.42352941 0.64313725
v 0.09833181 -0.01199887 0.00819537 0.54117647 0.42352941 0.64313725
v 0.09827044 -0.00857174 0.00861273 0.54117647 0.42352941 0.64313725
v 0.09833181 -0.00850132 0.00860157 0.54117647 0.42352941 0.64313725
v 0.09833181 -0.01541426 0.00341171 0.54117647 0.42352941 0.64313725
v -0.10210303 -0.01665836 0.00341171 0.54117647 0.42352941 0.64313725
v -0.10560113 -0.01664956 0.00341171 0.54117647 0.42352941 0.64313725
v -0.10909923 -0.01659087 0.00341171 0.54117647 0.42352941 0.64313725
v -0.11065394 -0.01651752 0.00341171 0.54117647 0.42352941 0.64313725
v -0.11065394 -0.01563139 0.00690826 0.54117647 0.42352941 0.64313725
v -0.11065394 -0.01605978 0.00535512 0.54117647 0.42352941 0.64313725
v 0.09718623 -0.01461616 0.00656737 0.54117647 0.42352941 0.64313725
v 0.06572381 -0.01336033 0.00849644 0.54117647 0.42352941 0.64313725
v 0.06222571 -0.01166731 0.00889946 0.54117647 0.42352941 0.64313725
v 0.09833181 -0.01461616 0.00648453 0.54117647 0.42352941 0.64313725
v 0.09833181 -0.00857174 0.00860157 0.54117647 0.42352941 0.64313725
f 129 130 136
f 129 136 149
f 129 149 175
f 129 175 208
f 129 208 239
f 129 239 238
f 129 238 237
f 129 237 273
f 129 273 306
f 129 306 305
f 129 305 304
f 129 304 329
f 129 329 331
f 129 331 330
f 129 330 307
f 129 307 276
f 129 276 275
f 129 275 274
f 129 274 243
f 129 243 210
f 129 210 209
f 129 209 176
f 129 176 150
f 129 150 137
f 129 137 131
f 129 131 132
f 129 132 133
f 129 133 134
f 129 134 135
f 129 135 130
f 130 135 136
f 131 137 132
f 132 138 139
f 132 139 140
f 132 140 141
f 132 141 142
f 132 142 143
f 132 143 144
f 132 144 133
f 132 137 145
f 132 145 138
f 133 144 143
f 133 143 159
f 133 159 193
f 133 193 230
f 133 230 267
f 133 267 266
f 133 266 297
f 133 297 324
f 133 324 336
f 133 336 322
f 133 322 335
f 133 335 325
f 133 325 302
f 133 302 298
f 133 298 270
f 133 270 242
f 133 242 241
f 133 241 269
f 133 269 268
f 133 268 234
f 133 234 200
f 133 200 199
f 133 199 198
f 133 198 165
f 133 165 162
f 133 162 146
f 133 146 135
f 133 135 134
f 135 146 136
f 136 147 148
f 136 148 149
f 136 146 147
f 137 150 151
f 137 151 152
f 137 152 153
f 137 153 145
f 138 154 155
f 138 155 139
f 138 145 154
f 139 155 140
f 140 155 141
f 141 155 156
f 141 156 142
f 142 157 158
f 142 158 143
f 142 156 157
f 143 158 160
f 143 160 159
f 145 153 161
f 145 161 154
f 146 162 147
f 147 163 164
f 147 164 148
f 147 162 165
f 147 165 163
f 148 164 166
f 148 166 167
f 148 167 168
f 148 168 169
f 148 169 170
f 148 170 149
f 149 170 171
f 149 171 172
f 149 172 173
f 149 173 174
f 149 174 175
f 150 176 177
f 150 177 151
f 151 177 152
f 152 178 153
f 152 177 178
f 153 178 179
f 153 179 180
f 153 180 181
f 153 181 182
f 153 182 183
f 153 183 161
f 154 161 184
f 154 184 185
f 154 185 186
f 154 186 187
f 154 187 188
f 154 188 155
f 155 188 186
f 155 186 189
f 155 189 190
f 155 190 156
f 156 190 191
f 156 191 157
f 157 191 158
f 158 191 160
f 159 192 193
f 159 160 192
f 160 194 195
f 160 195 196
f 160 196 192
f 160 191 194
f 161 183 184
f 163 197 201
f 163 201 164
f 163 165 198
f 163 198 199
f 163 199 200
f 163 200 197
f 164 201 202
f 164 202 166
f 166 202 167
f 167 202 203
f 167 203 169
f 167 169 204
f 167 204 168
f 168 204 169
f 169 203 205
f 169 205 206
f 169 206 171
f 169 171 170
f 171 206 205
f 171 205 172
f 172 205 173
f 173 207 174
f 173 205 203
f 173 203 207
f 174 207 208
f 174 208 175
f 176 209 177
f 177 209 178
f 178 209 210
f 178 210 211
f 178 211 212
f 178 212 213
f 178 213 214
f 178 214 179
f 179 214 215
f 179 215 216
f 179 216 180
f 180 216 217
f 180 217 181
f 181 217 184
f 181 184 182
f 182 184 183
f 184 217 250
f 184 250 218
f 184 218 219
f 184 219 220
f 184 220 221
f 184 221 222
f 184 222 185
f 185 222 186
f 186 222 223
f 186 223 189
f 186 188 187
f 189 223 224
f 189 224 225
f 189 225 190
f 190 225 191
f 191 225 226
f 191 226 195
f 191 195 194
f 192 196 227
f 192 227 195
f 192 195 228
f 192 228 229
f 192 229 193
f 193 229 230
f 195 226 231
f 195 231 228
f 195 227 196
f 197 232 233
f 197 233 201
f 197 200 234
f 197 234 232
f 201 233 202
f 202 235 236
f 202 236 237
f 202 237 238
f 202 238 239
f 202 239 208
f 202 208 207
f 202 207 203
f 202 233 240
f 202 240 232
f 202 232 241
f 202 241 242
f 202 242 235
f 210 243 244
f 210 244 211
f 211 244 212
f 212 244 245
f 212 245 213
f 213 246 214
f 213 245 246
f 214 246 247
f 214 247 215
f 215 247 248
f 215 248 216
f 216 248 249
f 216 249 217
f 217 249 250
f 218 250 251
f 218 251 219
f 219 251 252
f 219 252 253
f 219 253 220
f 220 253 254
f 220 254 221
f 221 254 222
f 222 254 255
f 222 255 223
f 223 255 256
f 223 256 224
f 224 256 225
f 225 256 257
f 225 257 258
f 225 258 259
f 225 259 226
f 226 259 260
f 226 260 261
f 226 261 231
f 228 231 262
f 228 262 229
f 229 262 263
f 229 263 264
f 229 264 265
f 229 265 266
f 229 266 267
f 229 267 230
f 231 261 262
f 232 240 233
f 232 234 268
f 232 268 269
f 232 269 241
f 235 242 270
f 235 270 236
f 236 270 271
f 236 271 272
f 236 272 273
f 236 273 237
f 243 274 244
f 244 274 275
f 244 275 276
f 244 276 277
f 244 277 278
f 244 278 279
f 244 279 280
f 244 280 281
f 244 281 282
f 244 282 245
f 245 247 246
f 245 282 283
f 245 283 247
f 247 283 248
f 248 283 284
f 248 284 249
f 249 284 250
f 250 284 285
f 250 285 251
f 251 286 316
f 251 316 287
f 251 287 252
f 251 285 286
f 252 287 288
f 252 288 253
f 253 288 289
f 253 289 254
f 254 289 290
f 254 290 291
f 254 291 255
f 255 291 256
f 256 291 292
f 256 292 257
f 257 293 294
f 257 294 295
f 257 295 260
f 257 260 258
f 257 292 293
f 258 260 259
f 260 295 264
f 260 264 263
f 260 263 261
f 261 263 262
f 264 295 296
f 264 296 265
f 265 296 266
f 266 296 297
f 270 298 271
f 271 299 300
f 271 300 301
f 271 301 272
f 271 298 302
f 271 302 299
f 272 301 303
f 272 303 304
f 272 304 305
f 272 305 306
f 272 306 273
f 276 307 277
f 277 308 309
f 277 309 278
f 277 307 308
f 278 309 310
f 278 310 279
f 279 310 311
f 279 311 312
f 279 312 313
f 279 313 280
f 280 314 315
f 280 315 281
f 280 313 314
f 281 315 284
f 281 284 282
f 282 284 283
f 284 315 285
f 285 315 286
f 286 315 316
f 287 316 288
f 288 316 317
f 288 317 318
f 288 318 319
f 288 319 293
f 288 293 290
f 288 290 289
f 290 293 292
f 290 292 291
f 293 320 294
f 293 319 320
f 294 320 321
f 294 321 322
f 294 322 323
f 294 323 295
f 295 323 296
f 296 323 324
f 296 324 297
f 299 302 325
f 299 325 300
f 300 325 326
f 300 326 301
f 301 326 327
f 301 327 303
f 303 327 328
f 303 328 329
f 303 329 304
f 307 330 308
f 308 328 309
f 308 330 331
f 308 331 329
f 308 329 328
f 309 327 326
f 309 326 310
f 309 328 327
f 310 326 325
f 310 325 332
f 310 332 311
f 311 332 333
f 311 333 312
f 312 333 317
f 312 317 334
f 312 334 314
f 312 314 313
f 314 316 315
f 314 334 316
f 316 334 317
f 317 333 318
f 318 333 320
f 318 320 319
f 320 332 335
f 320 335 321
f 320 333 332
f 321 335 322
f 322 336 323
f 323 336 324
f 325 335 332

o geometry_2
v 0.22308250 0.04817414 0.01040419 0.43529412 0.89019608 0.96078431
v 0.21958743 0.04805207 0.01040419 0.43529412 0.89019608 0.96078431
v 0.22308250 0.04692529 0.01323837 0.43529412 0.89019608 0.96078431
v 0.22692218 0.04666237 0.01408218 0.43529412 0.89019608 0.96078431
v 0.22657759 0.04757319 0.01040419 0.43529412 0.89019608 0.96078431
v 0.22308250 0.04685956 0.00782444 0.43529412 0.89019608 0.96078431
v 0.21258741 0.04787366 0.00690655 0.43529412 0.89019608 0.96078431
v 0.17063656 0.04793939 -0.00357992 0.43529412 0.89019608 0.96078431
v 0.15316114 0.04793939 -0.00707756 0.43529412 0.89019608 0.96078431
v 0.16714147 0.04798634 -0.00357992 0.43529412 0.89019608 0.96078431
v 0.14965621 0.04759197 -0.00707756 0.43529412 0.89019608 0.96078431
v 0.15316114 0.04664359 -0.00452680 0.43529412 0.89019608 0.96078431
v 0.21958743 0.04656847 0.01273595 0.43529412 0.89019608 0.96078431
v 0.22832021 0.04562011 0.01565064 0.43529412 0.89019608 0.96078431
v 0.22833006 0.04562011 0.01565064 0.43529412 0.89019608 0.96078431
v 0.22912753 0.04622105 0.01390182 0.43529412 0.89019608 0.96078431
v 0.22850728 0.04577973 0.00856841 0.43529412 0.89019608 0.96078431
v 0.22657759 0.04627740 0.00828177 0.43529412 0.89019608 0.96078431
v 0.22925552 0.04633373 0.01040419 0.43529412 0.89019608 0.96078431
v 0.20909233 0.04686895 0.00425917 0.43529412 0.89019608 0.96078431
v 0.14616113 0.04762014 -0.01057198 0.43529412 0.89019608 0.96078431
v 0.21258741 0.04641824 0.00470362 0.43529412 0.89019608 0.96078431
v 0.14616113 0.04623983 -0.01272016 0.43529412 0.89019608 0.96078431
v 0.17063656 0.04661543 -0.00594389 0.43529412 0.89019608 0.96078431
v 0.14266604 0.04744173 -0.01057198 0.43529412 0.89019608 0.96078431
v 0.14266604 0.04658726 -0.00786984 0.43529412 0.89019608 0.96078431
v 0.14639742 0.04679383 -0.00692297 0.43529412 0.89019608 0.96078431
v 0.14965621 0.04613655 -0.00499379 0.43529412 0.89019608 0.96078431
v 0.16364639 0.04626800 -0.00141886 0.43529412 0.89019608 0.96078431
v 0.16135243 0.04587363 -0.00169262 0.43529412 0.89019608 0.96078431
v 0.22828083 0.04387360 0.01566030 0.43529412 0.89019608 0.96078431
v 0.13215126 0.03662466 -0.00847211 0.43529412 0.89019608 0.96078431
v 0.13215126 0.03335700 -0.00821123 0.43529412 0.89019608 0.96078431
v 0.13215126 0.02988277 -0.00816615 0.43529412 0.89019608 0.96078431
v 0.22838913 0.04387360 0.01566030 0.43529412 0.89019608 0.96078431
v 0.23007268 0.03687818 0.01511601 0.43529412 0.89019608 0.96078431
v 0.22977732 0.04035241 0.01512568 0.43529412 0.89019608 0.96078431
v 0.23236663 0.04037120 0.01325769 0.43529412 0.89019608 0.96078431
v 0.23210081 0.04303791 0.01280358 0.43529412 0.89019608 0.96078431
v 0.21492075 0.04594875 0.00500314 0.43529412 0.89019608 0.96078431
v 0.23210081 0.04303791 0.01148955 0.43529412 0.89019608 0.96078431
v 0.23072247 0.04407079 0.01035588 0.43529412 0.89019608 0.96078431
v 0.23081107 0.04037120 0.00925441 0.43529412 0.89019608 0.96078431
v 0.22877310 0.04387360 0.00850078 0.43529412 0.89019608 0.96078431
v 0.22657759 0.04387360 0.00787919 0.43529412 0.89019608 0.96078431
v 0.14110064 0.03230534 -0.01588607 0.43529412 0.89019608 0.96078431
v 0.18113165 0.04691590 -0.00280374 0.43529412 0.89019608 0.96078431
v 0.16714147 0.04690651 -0.00638834 0.43529412 0.89019608 0.96078431
v 0.14266604 0.04647458 -0.01304222 0.43529412 0.89019608 0.96078431
v 0.15316114 0.04691590 -0.00993107 0.43529412 0.89019608 0.96078431
v 0.14824833 0.04583607 -0.01243030 0.43529412 0.89019608 0.96078431
v 0.14266604 0.04387360 -0.01406318 0.43529412 0.89019608 0.96078431
v 0.13993889 0.04614593 -0.01285865 0.43529412 0.89019608 0.96078431
v 0.13966322 0.04634312 -0.01057198 0.43529412 0.89019608 0.96078431
v 0.14022441 0.04606143 -0.00839159 0.43529412 0.89019608 0.96078431
v 0.14772653 0.04573278 -0.00527077 0.43529412 0.89019608 0.96078431
v 0.22826113 0.04149797 0.01566675 0.43529412 0.89019608 0.96078431
v 0.13346068 0.03926320 -0.00860415 0.43529412 0.89019608 0.96078431
v 0.13215126 0.03666222 -0.00848177 0.43529412 0.89019608 0.96078431
v 0.13215126 0.02986399 -0.00816615 0.43529412 0.89019608 0.96078431
v 0.22840882 0.04149797 0.01566675 0.43529412 0.89019608 0.96078431
v 0.23007268 0.00540350 0.01534146 0.43529412 0.89019608 0.96078431
v 0.23269154 0.00540350 0.01371825 0.43529412 0.89019608 0.96078431
v 0.23252416 0.03338517 0.01344771 0.43529412 0.89019608 0.96078431
v 0.23249462 0.03687818 0.01340584 0.43529412 0.89019608 0.96078431
v 0.23236663 0.04037120 0.01100323 0.43529412 0.89019608 0.96078431
v 0.14057884 0.03463402 -0.01577013 0.43529412 0.89019608 0.96078431
v 0.14616113 0.04387360 -0.01326445 0.43529412 0.89019608 0.96078431
v 0.23099814 0.03687818 0.00905473 0.43529412 0.89019608 0.96078431
v 0.22905861 0.04037120 0.00845569 0.43529412 0.89019608 0.96078431
v 0.14128770 0.02988277 -0.01594726 0.43529412 0.89019608 0.96078431
v 0.13917096 0.02638975 -0.01644002 0.43529412 0.89019608 0.96078431
v 0.13917096 0.02988277 -0.01629831 0.43529412 0.89019608 0.96078431
v 0.13931864 0.03343212 -0.01604388 0.43529412 0.89019608 0.96078431
v 0.13917096 0.04037120 -0.01520329 0.43529412 0.89019608 0.96078431
v 0.13893467 0.04415529 -0.01368314 0.43529412 0.89019608 0.96078431
v 0.14266604 0.04037120 -0.01453661 0.43529412 0.89019608 0.96078431
v 0.13931864 0.03706598 -0.01565740 0.43529412 0.89019608 0.96078431
v 0.13567588 0.04037120 -0.01475562 0.43529412 0.89019608 0.96078431
v 0.13567588 0.04299096 -0.01312596 0.43529412 0.89019608 0.96078431
v 0.13381511 0.04223038 -0.01248827 0.43529412 0.89019608 0.96078431
v 0.13791076 0.04516000 -0.01057198 0.43529412 0.89019608 0.96078431
v 0.13556758 0.04321631 -0.01071047 0.43529412 0.89019608 0.96078431
v 0.13433691 0.04159187 -0.00963477 0.43529412 0.89019608 0.96078431
v 0.13667025 0.04278438 -0.00848499 0.43529412 0.89019608 0.96078431
v 0.21258741 -0.04004323 0.01115460 0.43529412 0.89019608 0.96078431
v 0.22657759 0.00540350 0.01493888 0.43529412 0.89019608 0.96078431
v 0.22657759 -0.01556396 0.01473920 0.43529412 0.89019608 0.96078431
v 0.22657759 -0.01905698 0.01469411 0.43529412 0.89019608 0.96078431
v 0.23007268 0.00191049 0.01530603 0.43529412 0.89019608 0.96078431
v 0.13215126 -0.02607117 -0.00857195 0.43529412 0.89019608 0.96078431
v 0.13215126 0.03854957 -0.00965409 0.43529412 0.89019608 0.96078431
v 0.23273091 0.00191049 0.01370858 0.43529412 0.89019608 0.96078431
v 0.23252416 0.03338517 0.01075202 0.43529412 0.89019608 0.96078431
v 0.23249462 0.03687818 0.01080355 0.43529412 0.89019608 0.96078431
v 0.13824550 0.03601432 -0.01593116 0.43529412 0.89019608 0.96078431
v 0.23108675 0.03338517 0.00900642 0.43529412 0.89019608 0.96078431
v 0.22925552 0.03687818 0.00842348 0.43529412 0.89019608 0.96078431
v 0.14142554 0.02638975 -0.01598913 0.43529412 0.89019608 0.96078431
v 0.13917096 0.02288735 -0.01655275 0.43529412 0.89019608 0.96078431
v 0.13567588 0.01939434 -0.01691346 0.43529412 0.89019608 0.96078431
v 0.13567588 0.02288735 -0.01677819 0.43529412 0.89019608 0.96078431
v 0.13567588 0.02638975 -0.01659784 0.43529412 0.89019608 0.96078431
v 0.13567588 0.02988277 -0.01638849 0.43529412 0.89019608 0.96078431
v 0.13567588 0.03768571 -0.01570249 0.43529412 0.89019608 0.96078431
v 0.13378558 0.03531947 -0.01583776 0.43529412 0.89019608 0.96078431
v 0.13215126 0.03691574 -0.01449796 0.43529412 0.89019608 0.96078431
v 0.13215126 0.03699086 -0.01446576 0.43529412 0.89019608 0.96078431
v 0.13301764 0.04037120 -0.01322902 0.43529412 0.89019608 0.96078431
v 0.13381511 0.04223038 -0.01196653 0.43529412 0.89019608 0.96078431
v 0.13215126 0.03941343 -0.01065572 0.43529412 0.89019608 0.96078431
v 0.20909233 -0.04004323 0.01029146 0.43529412 0.89019608 0.96078431
v 0.21572806 -0.04353624 0.01181162 0.43529412 0.89019608 0.96078431
v 0.21747068 -0.04353624 0.01223674 0.43529412 0.89019608 0.96078431
v 0.22308250 -0.04353624 0.01357976 0.43529412 0.89019608 0.96078431
v 0.21559023 -0.04004323 0.01186637 0.43529412 0.89019608 0.96078431
v 0.22657759 -0.03304781 0.01449443 0.43529412 0.89019608 0.96078431
v 0.23007268 -0.03304781 0.01421101 0.43529412 0.89019608 0.96078431
v 0.23241586 -0.02955480 0.01293885 0.43529412 0.89019608 0.96078431
v 0.22657759 -0.04004323 0.01439136 0.43529412 0.89019608 0.96078431
v 0.13215126 -0.02961114 -0.00864280 0.43529412 0.89019608 0.96078431
v 0.20559725 -0.04004323 0.00942189 0.43529412 0.89019608 0.96078431
v 0.23246509 -0.02605240 0.01301292 0.43529412 0.89019608 0.96078431
v 0.23271121 -0.00157313 0.01358620 0.43529412 0.89019608 0.96078431
v 0.23265215 -0.02955480 0.01040419 0.43529412 0.89019608 0.96078431
v 0.23273091 0.00191049 0.01047504 0.43529412 0.89019608 0.96078431
v 0.23210081 -0.03304781 0.00839771 0.43529412 0.89019608 0.96078431
v 0.23182514 -0.00332903 0.00865537 0.43529412 0.89019608 0.96078431
v 0.13567588 0.03338517 -0.01614694 0.43529412 0.89019608 0.96078431
v 0.13567588 0.03593920 -0.01591828 0.43529412 0.89019608 0.96078431
v 0.23007268 -0.03304781 0.00762798 0.43529412 0.89019608 0.96078431
v 0.22657759 -0.03654082 0.00660381 0.43529412 0.89019608 0.96078431
v 0.14148460 0.02288735 -0.01601168 0.43529412 0.89019608 0.96078431
v 0.13917096 0.01939434 -0.01662038 0.43529412 0.89019608 0.96078431
v 0.13567588 0.01590132 -0.01698754 0.43529412 0.89019608 0.96078431
v 0.13218079 0.01590132 -0.01674599 0.43529412 0.89019608 0.96078431
v 0.13218079 0.01939434 -0.01663648 0.43529412 0.89019608 0.96078431
v 0.13215126 0.01941312 -0.01663326 0.43529412 0.89019608 0.96078431
v 0.13215126 0.02291552 -0.01647545 0.43529412 0.89019608 0.96078431
v 0.13215126 0.02641792 -0.01628221 0.43529412 0.89019608 0.96078431
v 0.13215126 0.03007056 -0.01605032 0.43529412 0.89019608 0.96078431
v 0.13305702 0.03338517 -0.01591506 0.43529412 0.89019608 0.96078431
v 0.13215126 0.03338517 -0.01577657 0.43529412 0.89019608 0.96078431
v 0.20339189 -0.04282261 0.00877453 0.43529412 0.89019608 0.96078431
v 0.21769712 -0.04534847 0.01218521 0.43529412 0.89019608 0.96078431
v 0.22308250 -0.04627807 0.01286155 0.43529412 0.89019608 0.96078431
v 0.22657759 -0.04353624 0.01414337 0.43529412 0.89019608 0.96078431
v 0.21958743 -0.04573346 0.01242032 0.43529412 0.89019608 0.96078431
v 0.23007268 -0.03654082 0.01409184 0.43529412 0.89019608 0.96078431
v 0.23233710 -0.03304781 0.01285833 0.43529412 0.89019608 0.96078431
v 0.23262261 -0.03304781 0.01040419 0.43529412 0.89019608 0.96078431
v 0.23007268 -0.04004323 0.01384707 0.43529412 0.89019608 0.96078431
v 0.13215126 -0.03006185 -0.00867179 0.43529412 0.89019608 0.96078431
v 0.23271121 -0.00157313 0.01042673 0.43529412 0.89019608 0.96078431
v 0.23208112 -0.03654082 0.00841382 0.43529412 0.89019608 0.96078431
v 0.23007268 -0.03654082 0.00760865 0.43529412 0.89019608 0.96078431
v 0.22657759 -0.04004323 0.00658126 0.43529412 0.89019608 0.96078431
v 0.14194734 -0.00856855 -0.01614050 0.43529412 0.89019608 0.96078431
v 0.14190796 -0.00507554 -0.01612762 0.43529412 0.89019608 0.96078431
v 0.13917096 -0.00507554 -0.01686515 0.43529412 0.89019608 0.96078431
v 0.13917096 -0.00157313 -0.01683294 0.43529412 0.89019608 0.96078431
v 0.13567588 0.00191049 -0.01718722 0.43529412 0.89019608 0.96078431
v 0.13567588 0.00890591 -0.01709060 0.43529412 0.89019608 0.96078431
v 0.13215126 0.00192927 -0.01697143 0.43529412 0.89019608 0.96078431
v 0.13215126 0.00890591 -0.01686515 0.43529412 0.89019608 0.96078431
v 0.13218079 0.01239892 -0.01681362 0.43529412 0.89019608 0.96078431
v 0.13215126 0.01592010 -0.01674277 0.43529412 0.89019608 0.96078431
v 0.13215126 0.03077480 -0.01600201 0.43529412 0.89019608 0.96078431
v 0.20392354 -0.04515129 0.00862638 0.43529412 0.89019608 0.96078431
v 0.17586442 -0.04179912 0.00166653 0.43529412 0.89019608 0.96078431
v 0.22308250 -0.04775227 0.01040419 0.43529412 0.89019608 0.96078431
v 0.22657759 -0.04627807 0.01303225 0.43529412 0.89019608 0.96078431
v 0.20624703 -0.04558322 0.00892590 0.43529412 0.89019608 0.96078431
v 0.20909233 -0.04594942 0.00929950 0.43529412 0.89019608 0.96078431
v 0.21258741 -0.04634380 0.00976972 0.43529412 0.89019608 0.96078431
v 0.21958743 -0.04722644 0.01040419 0.43529412 0.89019608 0.96078431
v 0.22894046 -0.04581797 0.01270374 0.43529412 0.89019608 0.96078431
v 0.23009236 -0.04332027 0.01308700 0.43529412 0.89019608 0.96078431
v 0.23225834 -0.03654082 0.01276171 0.43529412 0.89019608 0.96078431
v 0.23251432 -0.03654082 0.01040419 0.43529412 0.89019608 0.96078431
v 0.23199250 -0.04004323 0.00848789 0.43529412 0.89019608 0.96078431
v 0.23192359 -0.04200570 0.01229471 0.43529412 0.89019608 0.96078431
v 0.23209096 -0.04004323 0.01253626 0.43529412 0.89019608 0.96078431
v 0.13215126 -0.03304781 -0.00910336 0.43529412 0.89019608 0.96078431
v 0.13322439 -0.03304781 -0.00873942 0.43529412 0.89019608 0.96078431
v 0.23007268 -0.04004323 0.00766984 0.43529412 0.89019608 0.96078431
v 0.22657759 -0.04353624 0.00671331 0.43529412 0.89019608 0.96078431
v 0.14965621 -0.03654082 -0.01416302 0.43529412 0.89019608 0.96078431
v 0.14211471 -0.02605240 -0.01615661 0.43529412 0.89019608 0.96078431
v 0.13917096 -0.00856855 -0.01687803 0.43529412 0.89019608 0.96078431
v 0.13567588 -0.00507554 -0.01723553 0.43529412 0.89019608 0.96078431
v 0.13567588 -0.00157313 -0.01721942 0.43529412 0.89019608 0.96078431
v 0.13218079 -0.00157313 -0.01699398 0.43529412 0.89019608 0.96078431
v 0.13215126 -0.00155435 -0.01699076 0.43529412 0.89019608 0.96078431
v 0.13215126 0.01241770 -0.01681040 0.43529412 0.89019608 0.96078431
v 0.19313309 -0.04535786 0.00522858 0.43529412 0.89019608 0.96078431
v 0.15116254 -0.04190241 -0.00525467 0.43529412 0.89019608 0.96078431
v 0.13388403 -0.03484127 -0.00881028 0.43529412 0.89019608 0.96078431
v 0.15316114 -0.04004323 -0.00432068 0.43529412 0.89019608 0.96078431
v 0.15048322 -0.04004323 -0.00506465 0.43529412 0.89019608 0.96078431
v 0.21258741 -0.04727339 0.00690655 0.43529412 0.89019608 0.96078431
v 0.21609234 -0.04732973 0.00690655 0.43529412 0.89019608 0.96078431
v 0.22308250 -0.04674756 0.00726404 0.43529412 0.89019608 0.96078431
v 0.22657759 -0.04739546 0.01040419 0.43529412 0.89019608 0.96078431
v 0.19511199 -0.04558322 0.00550234 0.43529412 0.89019608 0.96078431
v 0.19511199 -0.04613722 0.00340891 0.43529412 0.89019608 0.96078431
v 0.15665622 -0.04410902 -0.00707756 0.43529412 0.89019608 0.96078431
v 0.22923583 -0.04607149 0.01040419 0.43529412 0.89019608 0.96078431
v 0.23098829 -0.04383672 0.01040419 0.43529412 0.89019608 0.96078431
v 0.23225834 -0.04004323 0.01040419 0.43529412 0.89019608 0.96078431
v 0.23189406 -0.04196814 0.00857807 0.43529412 0.89019608 0.96078431
v 0.23195313 -0.04209021 0.01040419 0.43529412 0.89019608 0.96078431
v 0.13215126 -0.03499150 -0.01016295 0.43529412 0.89019608 0.96078431
v 0.22308250 -0.04353624 0.00579220 0.43529412 0.89019608 0.96078431
v 0.15316114 -0.04004323 -0.01302612 0.43529412 0.89019608 0.96078431
v 0.23008252 -0.04329210 0.00803056 0.43529412 0.89019608 0.96078431
v 0.22893062 -0.04580858 0.00823668 0.43529412 0.89019608 0.96078431
v 0.21863243 -0.04561139 0.00495805 0.43529412 0.89019608 0.96078431
v 0.14616113 -0.03654082 -0.01506802 0.43529412 0.89019608 0.96078431
v 0.14213439 -0.02955480 -0.01614372 0.43529412 0.89019608 0.96078431
v 0.13917096 -0.01207095 -0.01686515 0.43529412 0.89019608 0.96078431
v 0.13567588 -0.00856855 -0.01722908 0.43529412 0.89019608 0.96078431
v 0.13215126 -0.02955480 -0.01703585 0.43529412 0.89019608 0.96078431
v 0.13215126 -0.02952663 -0.01703585 0.43529412 0.89019608 0.96078431
v 0.15316114 -0.04226861 -0.00496803 0.43529412 0.89019608 0.96078431
v 0.14266604 -0.04219350 -0.00842380 0.43529412 0.89019608 0.96078431
v 0.14616113 -0.04270993 -0.00781187 0.43529412 0.89019608 0.96078431
v 0.13724128 -0.03843757 -0.00875875 0.43529412 0.89019608 0.96078431
v 0.14083482 -0.04182729 -0.00878129 0.43529412 0.89019608 0.96078431
v 0.13491779 -0.03716994 -0.00954137 0.43529412 0.89019608 0.96078431
v 0.14616113 -0.04351746 -0.01057198 0.43529412 0.89019608 0.96078431
v 0.14965621 -0.04369587 -0.01057198 0.43529412 0.89019608 0.96078431
v 0.19860707 -0.04578041 0.00103850 0.43529412 0.89019608 0.96078431
v 0.21258741 -0.04622173 0.00425917 0.43529412 0.89019608 0.96078431
v 0.22657759 -0.04639075 0.00775036 0.43529412 0.89019608 0.96078431
v 0.21609234 -0.04597760 0.00463920 0.43529412 0.89019608 0.96078431
v 0.15316114 -0.04359258 -0.00707756 0.43529412 0.89019608 0.96078431
v 0.13215126 -0.03602438 -0.01085540 0.43529412 0.89019608 0.96078431
v 0.15494314 -0.04180851 -0.01233368 0.43529412 0.89019608 0.96078431
v 0.14965621 -0.04004323 -0.01392147 0.43529412 0.89019608 0.96078431
v 0.15316114 -0.04209960 -0.01257523 0.43529412 0.89019608 0.96078431
v 0.14373918 -0.03654082 -0.01566062 0.43529412 0.89019608 0.96078431
v 0.14208517 -0.03304781 -0.01611474 0.43529412 0.89019608 0.96078431
v 0.13917096 -0.02955480 -0.01674599 0.43529412 0.89019608 0.96078431
v 0.13917096 -0.02605240 -0.01678141 0.43529412 0.89019608 0.96078431
v 0.13917096 -0.02255938 -0.01681040 0.43529412 0.89019608 0.96078431
v 0.13567588 -0.01207095 -0.01720976 0.43529412 0.89019608 0.96078431
v 0.13215126 -0.03332012 -0.01658495 0.43529412 0.89019608 0.96078431
v 0.13567588 -0.01556396 -0.01718400 0.43529412 0.89019608 0.96078431
v 0.13567588 -0.01905698 -0.01715179 0.43529412 0.89019608 0.96078431
v 0.13567588 -0.03304781 -0.01700042 0.43529412 0.89019608 0.96078431
v 0.14266604 -0.04284139 -0.01057198 0.43529412 0.89019608 0.96078431
v 0.13358867 -0.03857842 -0.01187313 0.43529412 0.89019608 0.96078431
v 0.14012596 -0.04207143 -0.01057198 0.43529412 0.89019608 0.96078431
v 0.13994874 -0.04211838 -0.01297781 0.43529412 0.89019608 0.96078431
v 0.14266604 -0.04243763 -0.01336107 0.43529412 0.89019608 0.96078431
v 0.14616113 -0.04259726 -0.01329666 0.43529412 0.89019608 0.96078431
v 0.14965621 -0.04249397 -0.01299392 0.43529412 0.89019608 0.96078431
v 0.20210216 -0.04558322 0.00134769 0.43529412 0.89019608 0.96078431
v 0.13215126 -0.03678496 -0.01435948 0.43529412 0.89019608 0.96078431
v 0.14616113 -0.04004323 -0.01467188 0.43529412 0.89019608 0.96078431
v 0.14160275 -0.03871926 -0.01596659 0.43529412 0.89019608 0.96078431
v 0.14199657 -0.03654082 -0.01606965 0.43529412 0.89019608 0.96078431
v 0.13917096 -0.03304781 -0.01669123 0.43529412 0.89019608 0.96078431
v 0.13215126 -0.03360181 -0.01654308 0.43529412 0.89019608 0.96078431
v 0.13548881 -0.03678496 -0.01643358 0.43529412 0.89019608 0.96078431
v 0.13917096 -0.03654082 -0.01653986 0.43529412 0.89019608 0.96078431
v 0.13358867 -0.03857842 -0.01319038 0.43529412 0.89019608 0.96078431
v 0.13548881 -0.03937655 -0.01424031 0.43529412 0.89019608 0.96078431
v 0.13419908 -0.03810892 -0.01552213 0.43529412 0.89019608 0.96078431
v 0.13653242 -0.03871926 -0.01607287 0.43529412 0.89019608 0.96078431
v 0.13917096 -0.03893523 -0.01612118 0.43529412 0.89019608 0.96078431
v 0.14273496 -0.03994933 -0.01518719 0.43529412 0.89019608 0.96078431
v 0.13215126 -0.03671923 -0.01449474 0.43529412 0.89019608 0.96078431
v 0.13215126 -0.03402435 -0.01645613 0.43529412 0.89019608 0.96078431
v 0.13285027 -0.03577086 -0.01621458 0.43529412 0.89019608 0.96078431
v 0.13215126 -0.03545161 -0.01605998 0.43529412 0.89019608 0.96078431
f 337 338 339
f 337 339 340
f 337 340 341
f 337 341 342
f 337 342 343
f 337 343 344
f 337 344 345
f 337 345 346
f 337 346 338
f 338 346 345
f 338 345 347
f 338 347 348
f 338 348 339
f 339 349 350
f 339 350 340
f 339 348 349
f 340 350 351
f 340 351 352
f 340 352 341
f 341 353 354
f 341 354 342
f 341 352 355
f 341 355 353
f 342 356 357
f 342 357 343
f 342 354 358
f 342 358 359
f 342 359 360
f 342 360 356
f 343 357 344
f 344 357 345
f 345 357 361
f 345 361 347
f 347 361 362
f 347 362 363
f 347 363 348
f 348 363 364
f 348 364 365
f 348 365 349
f 349 365 366
f 349 366 350
f 350 367 371
f 350 371 351
f 350 366 368
f 350 368 369
f 350 369 370
f 350 370 367
f 351 371 372
f 351 372 373
f 351 373 374
f 351 374 375
f 351 375 352
f 352 375 355
f 353 376 354
f 353 355 377
f 353 377 378
f 353 378 379
f 353 379 380
f 353 380 381
f 353 381 382
f 353 382 376
f 354 376 358
f 355 375 377
f 356 383 357
f 356 360 384
f 356 384 383
f 357 359 385
f 357 385 361
f 357 383 384
f 357 384 386
f 357 386 359
f 358 376 359
f 359 387 388
f 359 388 385
f 359 386 360
f 359 376 387
f 360 386 384
f 361 385 389
f 361 389 390
f 361 390 391
f 361 391 362
f 362 392 364
f 362 364 363
f 362 391 392
f 364 392 366
f 364 366 365
f 366 392 368
f 367 393 397
f 367 397 371
f 367 370 393
f 368 392 394
f 368 394 395
f 368 395 428
f 368 428 447
f 368 447 444
f 368 444 443
f 368 443 479
f 368 479 504
f 368 504 477
f 368 477 476
f 368 476 475
f 368 475 474
f 368 474 503
f 368 503 531
f 368 531 501
f 368 501 500
f 368 500 530
f 368 530 560
f 368 560 559
f 368 559 584
f 368 584 601
f 368 601 611
f 368 611 613
f 368 613 610
f 368 610 596
f 368 596 574
f 368 574 549
f 368 549 520
f 368 520 489
f 368 489 457
f 368 457 427
f 368 427 396
f 368 396 370
f 368 370 369
f 370 396 393
f 371 397 398
f 371 398 372
f 372 398 399
f 372 399 400
f 372 400 401
f 372 401 373
f 373 401 374
f 374 401 431
f 374 431 402
f 374 402 377
f 374 377 375
f 376 382 403
f 376 403 404
f 376 404 387
f 377 402 379
f 377 379 378
f 379 402 405
f 379 405 380
f 380 405 406
f 380 406 381
f 381 406 407
f 381 407 382
f 382 407 408
f 382 408 409
f 382 409 410
f 382 410 403
f 385 388 411
f 385 411 412
f 385 412 389
f 387 404 388
f 388 404 413
f 388 413 403
f 388 403 414
f 388 414 411
f 389 412 415
f 389 415 416
f 389 416 417
f 389 417 390
f 390 417 418
f 390 418 391
f 391 418 419
f 391 419 420
f 391 420 421
f 391 421 392
f 392 421 394
f 393 422 423
f 393 423 424
f 393 424 425
f 393 425 426
f 393 426 398
f 393 398 397
f 393 396 427
f 393 427 422
f 394 421 420
f 394 420 428
f 394 428 395
f 398 426 429
f 398 429 399
f 399 429 400
f 400 429 462
f 400 462 430
f 400 430 431
f 400 431 401
f 402 431 405
f 403 410 432
f 403 432 414
f 403 413 404
f 405 433 434
f 405 434 406
f 405 431 433
f 406 434 407
f 407 435 436
f 407 436 408
f 407 434 435
f 408 436 437
f 408 437 438
f 408 438 409
f 409 438 439
f 409 439 440
f 409 440 432
f 409 432 410
f 411 414 432
f 411 432 441
f 411 441 415
f 411 415 412
f 415 441 442
f 415 442 443
f 415 443 444
f 415 444 445
f 415 445 416
f 416 445 417
f 417 446 418
f 417 445 447
f 417 447 446
f 418 446 419
f 419 446 420
f 420 446 447
f 420 447 428
f 422 448 449
f 422 449 450
f 422 450 451
f 422 451 452
f 422 452 424
f 422 424 423
f 422 427 448
f 424 451 425
f 424 452 451
f 425 453 426
f 425 451 453
f 426 454 455
f 426 455 429
f 426 453 456
f 426 456 454
f 427 457 458
f 427 458 448
f 429 455 459
f 429 459 460
f 429 460 461
f 429 461 462
f 430 462 463
f 430 463 464
f 430 464 431
f 431 464 433
f 432 440 465
f 432 465 466
f 432 466 441
f 433 464 434
f 434 464 467
f 434 467 468
f 434 468 435
f 435 469 470
f 435 470 436
f 435 468 469
f 436 470 471
f 436 471 437
f 437 471 472
f 437 472 473
f 437 473 438
f 438 473 474
f 438 474 475
f 438 475 439
f 439 475 476
f 439 476 440
f 440 476 477
f 440 477 478
f 440 478 465
f 441 466 442
f 442 466 465
f 442 465 478
f 442 478 479
f 442 479 443
f 444 447 445
f 448 458 480
f 448 480 449
f 449 481 450
f 449 480 481
f 450 481 451
f 451 482 483
f 451 483 456
f 451 456 453
f 451 481 484
f 451 484 482
f 454 485 455
f 454 456 485
f 455 485 486
f 455 486 487
f 455 487 459
f 456 483 488
f 456 488 485
f 457 489 480
f 457 480 458
f 459 487 460
f 460 487 461
f 461 490 462
f 461 487 491
f 461 491 463
f 461 463 490
f 462 490 463
f 463 491 492
f 463 492 467
f 463 467 464
f 467 492 493
f 467 493 468
f 468 493 494
f 468 494 495
f 468 495 469
f 469 495 496
f 469 496 497
f 469 497 470
f 470 497 498
f 470 498 499
f 470 499 471
f 471 499 500
f 471 500 501
f 471 501 502
f 471 502 472
f 472 502 531
f 472 531 503
f 472 503 474
f 472 474 473
f 477 504 478
f 478 504 479
f 480 505 481
f 480 489 506
f 480 506 505
f 481 505 484
f 482 507 508
f 482 508 483
f 482 484 509
f 482 509 510
f 482 510 511
f 482 511 512
f 482 512 507
f 483 508 513
f 483 513 514
f 483 514 488
f 484 505 509
f 485 488 515
f 485 515 486
f 486 515 487
f 487 516 517
f 487 517 491
f 487 515 516
f 488 514 518
f 488 518 519
f 488 519 515
f 489 520 521
f 489 521 506
f 491 517 522
f 491 522 492
f 492 522 493
f 493 522 523
f 493 523 524
f 493 524 494
f 494 524 525
f 494 525 526
f 494 526 496
f 494 496 495
f 496 526 527
f 496 527 528
f 496 528 497
f 497 528 498
f 498 528 500
f 498 500 499
f 500 529 530
f 500 528 529
f 501 531 502
f 505 532 509
f 505 506 533
f 505 533 532
f 506 521 534
f 506 534 535
f 506 535 536
f 506 536 533
f 507 537 538
f 507 538 539
f 507 539 540
f 507 540 508
f 507 512 541
f 507 541 542
f 507 542 543
f 507 543 537
f 508 540 513
f 509 532 510
f 510 532 541
f 510 541 511
f 511 541 512
f 513 544 545
f 513 545 518
f 513 518 514
f 513 540 544
f 515 519 516
f 516 519 546
f 516 546 547
f 516 547 517
f 517 547 522
f 518 548 546
f 518 546 519
f 518 545 548
f 520 549 534
f 520 534 521
f 522 547 523
f 523 550 551
f 523 551 524
f 523 547 552
f 523 552 553
f 523 553 554
f 523 554 550
f 524 551 555
f 524 555 556
f 524 556 525
f 525 556 526
f 526 557 558
f 526 558 527
f 526 556 557
f 527 558 559
f 527 559 560
f 527 560 529
f 527 529 528
f 529 560 530
f 532 533 561
f 532 561 562
f 532 562 563
f 532 563 541
f 533 536 534
f 533 534 564
f 533 564 565
f 533 565 562
f 533 562 561
f 534 549 566
f 534 566 564
f 534 536 535
f 537 543 567
f 537 567 568
f 537 568 538
f 538 569 570
f 538 570 539
f 538 568 569
f 539 571 540
f 539 570 572
f 539 572 571
f 540 571 553
f 540 553 544
f 541 563 573
f 541 573 543
f 541 543 542
f 543 573 567
f 544 553 545
f 545 553 547
f 545 547 548
f 546 548 547
f 547 553 552
f 549 574 566
f 550 554 575
f 550 575 551
f 551 575 576
f 551 576 555
f 553 571 554
f 554 571 572
f 554 572 577
f 554 577 575
f 555 578 579
f 555 579 556
f 555 576 578
f 556 579 580
f 556 580 581
f 556 581 582
f 556 582 557
f 557 582 558
f 558 582 583
f 558 583 559
f 559 583 585
f 559 585 586
f 559 586 587
f 559 587 584
f 562 588 563
f 562 565 588
f 563 588 567
f 563 567 573
f 564 566 565
f 565 566 589
f 565 589 590
f 565 590 588
f 566 574 589
f 567 588 591
f 567 591 592
f 567 592 568
f 568 592 593
f 568 593 594
f 568 594 569
f 569 595 570
f 569 594 595
f 570 595 572
f 572 595 594
f 572 594 577
f 574 596 589
f 575 577 597
f 575 597 576
f 576 597 598
f 576 598 578
f 577 594 597
f 578 599 579
f 578 598 599
f 579 599 600
f 579 600 580
f 580 600 587
f 580 587 586
f 580 586 581
f 581 586 585
f 581 585 582
f 582 585 583
f 584 587 602
f 584 602 601
f 587 600 603
f 587 603 602
f 588 590 591
f 589 604 591
f 589 591 590
f 589 596 604
f 591 604 605
f 591 605 606
f 591 606 607
f 591 607 592
f 592 607 608
f 592 608 593
f 593 608 609
f 593 609 594
f 594 609 598
f 594 598 597
f 596 610 606
f 596 606 604
f 598 608 603
f 598 603 599
f 598 609 608
f 599 603 600
f 601 602 612
f 601 612 611
f 602 603 608
f 602 608 607
f 602 607 612
f 604 606 605
f 606 610 613
f 606 613 612
f 606 612 607
f 611 612 613

o geometry_3
v -0.11065394 -0.00857350 0.00933463 0.38039216 0.78823529 0.52549020
v -0.11259722 -0.00507931 0.00932076 0.38039216 0.78823529 0.52549020
v -0.11259722 -0.00857350 0.00931613 0.38039216 0.78823529 0.52549020
v -0.11065394 -0.01206988 0.00932384 0.38039216 0.78823529 0.52549020
v -0.11065394 0.00385687 0.00929609 0.38039216 0.78823529 0.52549020
v -0.11259722 0.00191346 0.00929918 0.38039216 0.78823529 0.52549020
v -0.11569131 -0.00158292 0.00898626 0.38039216 0.78823529 0.52549020
v -0.11546131 -0.00857350 0.00896314 0.38039216 0.78823529 0.52549020
v -0.11259722 -0.01206988 0.00923752 0.38039216 0.78823529 0.52549020
v -0.11564997 -0.00507931 0.00898009 0.38039216 0.78823529 0.52549020
v -0.11065394 -0.01301527 0.00917894 0.38039216 0.78823529 0.52549020
v -0.11065394 0.00541204 0.00928993 0.38039216 0.78823529 0.52549020
v -0.11259722 0.00541204 0.00928222 0.38039216 0.78823529 0.52549020
v -0.11550870 0.00191346 0.00899088 0.38039216 0.78823529 0.52549020
v -0.11743905 -0.00158292 0.00840975 0.38039216 0.78823529 0.52549020
v -0.11739857 -0.00507931 0.00842054 0.38039216 0.78823529 0.52549020
v -0.11720993 -0.00857350 0.00831109 0.38039216 0.78823529 0.52549020
v -0.11500478 -0.01206988 0.00887527 0.38039216 0.78823529 0.52549020
v -0.11454826 -0.01395846 0.00875350 0.38039216 0.78823529 0.52549020
v -0.11259722 -0.01419535 0.00891073 0.38039216 0.78823529 0.52549020
v -0.11065394 -0.01431161 0.00897393 0.38039216 0.78823529 0.52549020
v -0.11065394 0.00587047 0.00926372 0.38039216 0.78823529 0.52549020
v -0.11213896 0.00587047 0.00925756 0.38039216 0.78823529 0.52549020
v -0.11257913 0.00587047 0.00923752 0.38039216 0.78823529 0.52549020
v -0.11513657 0.00587047 0.00893077 0.38039216 0.78823529 0.52549020
v -0.11520894 0.00541204 0.00895389 0.38039216 0.78823529 0.52549020
v -0.11725643 0.00191346 0.00814616 0.38039216 0.78823529 0.52549020
v -0.11828838 0.00191346 0.00639812 0.38039216 0.78823529 0.52549020
v -0.11846669 -0.00158292 0.00666172 0.38039216 0.78823529 0.52549020
v -0.11855627 -0.00507931 0.00667251 0.38039216 0.78823529 0.52549020
v -0.11856746 -0.00857350 0.00656306 0.38039216 0.78823529 0.52549020
v -0.11835814 -0.01206988 0.00608520 0.38039216 0.78823529 0.52549020
v -0.11675253 -0.01206988 0.00783324 0.38039216 0.78823529 0.52549020
v -0.11804718 -0.01405058 0.00549790 0.38039216 0.78823529 0.52549020
v -0.11586530 -0.01451999 0.00676037 0.38039216 0.78823529 0.52549020
v -0.11259722 -0.01546098 0.00690835 0.38039216 0.78823529 0.52549020
v -0.11065394 -0.01563427 0.00690835 0.38039216 0.78823529 0.52549020
v -0.11065394 0.00587047 -0.00451397 0.38039216 0.78823529 0.52549020
v -0.11656734 0.00587047 0.00794885 0.38039216 0.78823529 0.52549020
v -0.11695754 0.00541204 0.00775308 0.38039216 0.78823529 0.52549020
v -0.11814107 0.00587047 0.00598963 0.38039216 0.78823529 0.52549020
v -0.11916181 -0.00158292 0.00341075 0.38039216 0.78823529 0.52549020
v -0.11938146 -0.00507931 0.00341075 0.38039216 0.78823529 0.52549020
v -0.11945383 -0.00857350 0.00341075 0.38039216 0.78823529 0.52549020
v -0.11913167 -0.01206988 0.00341075 0.38039216 0.78823529 0.52549020
v -0.11831938 -0.01434670 0.00341075 0.38039216 0.78823529 0.52549020
v -0.11609358 -0.01559040 0.00341075 0.38039216 0.78823529 0.52549020
v -0.11259722 -0.01642391 0.00341075 0.38039216 0.78823529 0.52549020
v -0.11065394 -0.01606199 0.00535455 0.38039216 0.78823529 0.52549020
v -0.11099074 0.00587047 -0.00439065 0.38039216 0.78823529 0.52549020
v -0.11065394 0.00035610 -0.00534637 0.38039216 0.78823529 0.52549020
v -0.11093561 0.00035610 -0.00534637 0.38039216 0.78823529 0.52549020
v -0.11443455 -0.00311616 -0.00538028 0.38039216 0.78823529 0.52549020
v -0.11683867 0.00587047 0.00775616 0.38039216 0.78823529 0.52549020
v -0.11828234 0.00587047 0.00341075 0.38039216 0.78823529 0.52549020
v -0.11798001 0.00587047 0.00127581 0.38039216 0.78823529 0.52549020
v -0.11906362 -0.00507931 -0.00008377 0.38039216 0.78823529 0.52549020
v -0.11926777 -0.00857350 -0.00008377 0.38039216 0.78823529 0.52549020
v -0.11909291 -0.01206988 -0.00008377 0.38039216 0.78823529 0.52549020
v -0.11835814 -0.01439276 -0.00008377 0.38039216 0.78823529 0.52549020
v -0.11609358 -0.01564085 -0.00008377 0.38039216 0.78823529 0.52549020
v -0.11259722 -0.01644365 -0.00008377 0.38039216 0.78823529 0.52549020
v -0.11065394 -0.01653797 -0.00008377 0.38039216 0.78823529 0.52549020
v -0.11065394 -0.01651604 0.00341075 0.38039216 0.78823529 0.52549020
v -0.11259722 0.00587047 -0.00379410 0.38039216 0.78823529 0.52549020
v -0.11065394 -0.00857350 -0.00625738 0.38039216 0.78823529 0.52549020
v -0.11259722 -0.00857350 -0.00621113 0.38039216 0.78823529 0.52549020
v -0.11259722 -0.00507931 -0.00581652 0.38039216 0.78823529 0.52549020
v -0.11780428 0.00003147 -0.00177323 0.38039216 0.78823529 0.52549020
v -0.11498670 0.00587047 -0.00225417 0.38039216 0.78823529 0.52549020
v -0.11299345 0.00587047 -0.00364150 0.38039216 0.78823529 0.52549020
v -0.11465334 -0.00507931 -0.00551130 0.38039216 0.78823529 0.52549020
v -0.11640109 -0.00507931 -0.00411935 0.38039216 0.78823529 0.52549020
v -0.11680422 0.00587047 -0.00025950 0.38039216 0.78823529 0.52549020
v -0.11851062 -0.00131313 -0.00039823 0.38039216 0.78823529 0.52549020
v -0.11802996 -0.00230019 -0.00208461 0.38039216 0.78823529 0.52549020
v -0.11823843 -0.00507931 -0.00237132 0.38039216 0.78823529 0.52549020
v -0.11838140 -0.00857350 -0.00259638 0.38039216 0.78823529 0.52549020
v -0.11831938 -0.01206988 -0.00254551 0.38039216 0.78823529 0.52549020
v -0.11809887 -0.01411200 -0.00223105 0.38039216 0.78823529 0.52549020
v -0.11595661 -0.01464940 -0.00347039 0.38039216 0.78823529 0.52549020
v -0.11259722 -0.01570446 -0.00358138 0.38039216 0.78823529 0.52549020
v -0.11065394 -0.01586019 -0.00358138 0.38039216 0.78823529 0.52549020
v -0.11065394 -0.01051691 -0.00636220 0.38039216 0.78823529 0.52549020
v -0.11065394 -0.01206988 -0.00641307 0.38039216 0.78823529 0.52549020
v -0.11259722 -0.01206988 -0.00632212 0.38039216 0.78823529 0.52549020
v -0.11497636 -0.00857350 -0.00572249 0.38039216 0.78823529 0.52549020
v -0.11672411 -0.00857350 -0.00434441 0.38039216 0.78823529 0.52549020
v -0.11674909 -0.01206988 -0.00429508 0.38039216 0.78823529 0.52549020
v -0.11470072 -0.01410323 -0.00554522 0.38039216 0.78823529 0.52549020
v -0.11065394 -0.01528989 -0.00456021 0.38039216 0.78823529 0.52549020
v -0.11259722 -0.01441909 -0.00578569 0.38039216 0.78823529 0.52549020
v -0.11065394 -0.01347370 -0.00609398 0.38039216 0.78823529 0.52549020
v -0.11500134 -0.01206988 -0.00573944 0.38039216 0.78823529 0.52549020
v -0.11065394 -0.01451779 -0.00585505 0.38039216 0.78823529 0.52549020
f 614 615 616
f 614 616 617
f 614 617 624
f 614 624 634
f 614 634 650
f 614 650 662
f 614 662 677
f 614 677 676
f 614 676 696
f 614 696 704
f 614 704 708
f 614 708 706
f 614 706 698
f 614 698 697
f 614 697 679
f 614 679 664
f 614 664 651
f 614 651 635
f 614 635 625
f 614 625 618
f 614 618 619
f 614 619 615
f 615 619 620
f 615 620 616
f 616 621 622
f 616 622 617
f 616 620 623
f 616 623 621
f 617 622 624
f 618 625 619
f 619 625 626
f 619 626 627
f 619 627 620
f 620 627 628
f 620 628 629
f 620 629 623
f 621 623 629
f 621 629 630
f 621 630 631
f 621 631 622
f 622 631 632
f 622 632 633
f 622 633 624
f 624 633 634
f 625 635 626
f 626 635 636
f 626 636 637
f 626 637 638
f 626 638 639
f 626 639 627
f 627 639 628
f 628 639 640
f 628 640 641
f 628 641 642
f 628 642 643
f 628 643 629
f 629 643 644
f 629 644 630
f 630 644 645
f 630 645 646
f 630 646 632
f 630 632 631
f 632 647 648
f 632 648 649
f 632 649 633
f 632 646 647
f 633 649 650
f 633 650 634
f 635 651 663
f 635 663 678
f 635 678 684
f 635 684 683
f 635 683 687
f 635 687 669
f 635 669 668
f 635 668 654
f 635 654 667
f 635 667 652
f 635 652 638
f 635 638 637
f 635 637 636
f 638 652 640
f 638 640 639
f 640 652 653
f 640 653 654
f 640 654 641
f 641 654 642
f 642 654 655
f 642 655 656
f 642 656 643
f 643 656 657
f 643 657 644
f 644 657 658
f 644 658 645
f 645 658 647
f 645 647 646
f 647 659 660
f 647 660 648
f 647 658 659
f 648 660 649
f 649 660 661
f 649 661 650
f 650 661 662
f 651 664 665
f 651 665 666
f 651 666 663
f 652 667 653
f 653 667 654
f 654 668 655
f 655 668 669
f 655 669 670
f 655 670 656
f 656 670 671
f 656 671 657
f 657 671 672
f 657 672 658
f 658 672 673
f 658 673 659
f 659 673 660
f 660 674 661
f 660 673 674
f 661 675 676
f 661 676 677
f 661 677 662
f 661 674 675
f 663 666 678
f 664 679 665
f 665 679 680
f 665 680 681
f 665 681 666
f 666 682 683
f 666 683 684
f 666 684 678
f 666 681 680
f 666 680 685
f 666 685 686
f 666 686 682
f 669 687 682
f 669 682 688
f 669 688 670
f 670 688 689
f 670 689 690
f 670 690 691
f 670 691 671
f 671 691 692
f 671 692 672
f 672 692 693
f 672 693 673
f 673 693 674
f 674 693 694
f 674 694 695
f 674 695 675
f 675 695 696
f 675 696 676
f 679 697 680
f 680 697 698
f 680 698 699
f 680 699 700
f 680 700 685
f 682 686 689
f 682 689 688
f 682 687 683
f 685 700 701
f 685 701 686
f 686 690 689
f 686 701 690
f 690 701 691
f 691 701 702
f 691 702 692
f 692 702 693
f 693 702 703
f 693 703 694
f 694 703 695
f 695 704 696
f 695 703 705
f 695 705 704
f 698 706 699
f 699 706 705
f 699 705 703
f 699 703 707
f 699 707 700
f 700 707 701
f 701 707 702
f 702 707 703
f 704 705 708
f 705 706 708

o geometry_4
v -0.11065394 0.00587047 -0.00451720 0.56470588 0.92549020 0.07058824
v -0.11259736 0.00587047 -0.00379762 0.56470588 0.92549020 0.07058824
v -0.11609382 0.02375960 -0.01657636 0.56470588 0.92549020 0.07058824
v -0.11327223 0.02364144 -0.01669955 0.56470588 0.92549020 0.07058824
v -0.11304158 0.02667895 -0.01774672 0.56470588 0.92549020 0.07058824
v -0.11075303 0.02424616 -0.01302609 0.56470588 0.92549020 0.07058824
v -0.11075303 0.02497600 -0.01302609 0.56470588 0.92549020 0.07058824
v -0.11065394 0.00686444 -0.00445280 0.56470588 0.92549020 0.07058824
v -0.11065394 0.00587047 0.00926390 0.56470588 0.92549020 0.07058824
v -0.11299374 0.00587047 -0.00364363 0.56470588 0.92549020 0.07058824
v -0.11791936 0.02446395 -0.01594638 0.56470588 0.92549020 0.07058824
v -0.11439557 0.02803668 -0.01933986 0.56470588 0.92549020 0.07058824
v -0.11429477 0.02803668 -0.01933986 0.56470588 0.92549020 0.07058824
v -0.11429477 0.02819423 -0.01933986 0.56470588 0.92549020 0.07058824
v -0.11352081 0.02897272 -0.01756752 0.56470588 0.92549020 0.07058824
v -0.11118016 0.02624105 -0.01414325 0.56470588 0.92549020 0.07058824
v -0.11075303 0.02497600 -0.01177173 0.56470588 0.92549020 0.07058824
v -0.11065394 0.01331482 -0.00008496 0.56470588 0.92549020 0.07058824
v -0.11065394 0.01302056 -0.00088853 0.56470588 0.92549020 0.07058824
v -0.11065394 0.01201269 -0.00319565 0.56470588 0.92549020 0.07058824
v -0.11065394 0.01052290 -0.00416721 0.56470588 0.92549020 0.07058824
v -0.11065394 0.00735563 0.00917710 0.56470588 0.92549020 0.07058824
v -0.11213949 0.00587047 0.00925830 0.56470588 0.92549020 0.07058824
v -0.11498671 0.00587047 -0.00225768 0.56470588 0.92549020 0.07058824
v -0.11799966 0.02087269 -0.01262010 0.56470588 0.92549020 0.07058824
v -0.11833709 0.01958447 -0.01042778 0.56470588 0.92549020 0.07058824
v -0.11818588 0.02313634 -0.01389966 0.56470588 0.92549020 0.07058824
v -0.11916058 0.01939679 -0.00707630 0.56470588 0.92549020 0.07058824
v -0.11879497 0.02289538 -0.01057338 0.56470588 0.92549020 0.07058824
v -0.11792448 0.02639165 -0.01596598 0.56470588 0.92549020 0.07058824
v -0.11439557 0.02819423 -0.01933986 0.56470588 0.92549020 0.07058824
v -0.11577347 0.02884066 -0.01725673 0.56470588 0.92549020 0.07058824
v -0.11609382 0.02954038 -0.01407045 0.56470588 0.92549020 0.07058824
v -0.11294249 0.02942916 -0.01407045 0.56470588 0.92549020 0.07058824
v -0.11225225 0.02654689 -0.01031579 0.56470588 0.92549020 0.07058824
v -0.11065394 0.01071520 0.00870392 0.56470588 0.92549020 0.07058824
v -0.11065394 0.01181807 0.00696798 0.56470588 0.92549020 0.07058824
v -0.11065394 0.01311556 0.00340931 0.56470588 0.92549020 0.07058824
v -0.11065394 0.00896359 0.00901471 0.56470588 0.92549020 0.07058824
v -0.11245300 0.00902383 0.00892511 0.56470588 0.92549020 0.07058824
v -0.11257943 0.00587047 0.00923590 0.56470588 0.92549020 0.07058824
v -0.11680456 0.00587047 -0.00026135 0.56470588 0.92549020 0.07058824
v -0.11798001 0.00587047 0.00127299 0.56470588 0.92549020 0.07058824
v -0.11922636 0.01590284 -0.00358203 0.56470588 0.92549020 0.07058824
v -0.11938098 0.01590284 -0.00008496 0.56470588 0.92549020 0.07058824
v -0.11927677 0.01939679 -0.00358203 0.56470588 0.92549020 0.07058824
v -0.11881804 0.02289538 -0.00707630 0.56470588 0.92549020 0.07058824
v -0.11827986 0.02640092 -0.01080017 0.56470588 0.92549020 0.07058824
v -0.11822944 0.02639165 -0.01407045 0.56470588 0.92549020 0.07058824
v -0.11787494 0.02819887 -0.01588478 0.56470588 0.92549020 0.07058824
v -0.11791765 0.02824984 -0.01407045 0.56470588 0.92549020 0.07058824
v -0.11790996 0.02822899 -0.01211612 0.56470588 0.92549020 0.07058824
v -0.11609382 0.02870164 -0.01131815 0.56470588 0.92549020 0.07058824
v -0.11352423 0.02880127 -0.01118936 0.56470588 0.92549020 0.07058824
v -0.11331152 0.02570120 -0.00707630 0.56470588 0.92549020 0.07058824
v -0.11390523 0.01464938 0.00552884 0.56470588 0.92549020 0.07058824
v -0.11609382 0.01641952 0.00415969 0.56470588 0.92549020 0.07058824
v -0.11609382 0.01467023 0.00553164 0.56470588 0.92549020 0.07058824
v -0.11119041 0.01070362 0.00869552 0.56470588 0.92549020 0.07058824
v -0.11400005 0.02491112 -0.00498758 0.56470588 0.92549020 0.07058824
v -0.11384970 0.02162801 -0.00130572 0.56470588 0.92549020 0.07058824
v -0.11379930 0.01822905 0.00225016 0.56470588 0.92549020 0.07058824
v -0.11609382 0.01839124 0.00240975 0.56470588 0.92549020 0.07058824
v -0.11352166 0.01026572 0.00855553 0.56470588 0.92549020 0.07058824
v -0.11481415 0.00793487 0.00882711 0.56470588 0.92549020 0.07058824
v -0.11513705 0.00587047 0.00893071 0.56470588 0.92549020 0.07058824
v -0.11828242 0.00587047 0.00340931 0.56470588 0.92549020 0.07058824
v -0.11909651 0.01240657 -0.00008496 0.56470588 0.92549020 0.07058824
v -0.11845412 0.01566883 0.00330572 0.56470588 0.92549020 0.07058824
v -0.11852417 0.01929485 -0.00023615 0.56470588 0.92549020 0.07058824
v -0.11892396 0.01240657 0.00340931 0.56470588 0.92549020 0.07058824
v -0.11829522 0.02271003 -0.00392922 0.56470588 0.92549020 0.07058824
v -0.11808595 0.02509416 -0.00707630 0.56470588 0.92549020 0.07058824
v -0.11784418 0.02464467 -0.00532357 0.56470588 0.92549020 0.07058824
v -0.11609382 0.02769609 -0.00957101 0.56470588 0.92549020 0.07058824
v -0.11609382 0.02615069 -0.00707630 0.56470588 0.92549020 0.07058824
v -0.11815685 0.01805992 0.00207096 0.56470588 0.92549020 0.07058824
v -0.11795952 0.01434817 0.00528524 0.56470588 0.92549020 0.07058824
v -0.11609382 0.02484625 -0.00506598 0.56470588 0.92549020 0.07058824
v -0.11609382 0.02346072 -0.00332164 0.56470588 0.92549020 0.07058824
v -0.11609382 0.02171142 -0.00119092 0.56470588 0.92549020 0.07058824
v -0.11609382 0.02014053 0.00055902 0.56470588 0.92549020 0.07058824
v -0.11816538 0.01240657 0.00565483 0.56470588 0.92549020 0.07058824
v -0.11602463 0.00902383 0.00778275 0.56470588 0.92549020 0.07058824
v -0.11683873 0.00587047 0.00775755 0.56470588 0.92549020 0.07058824
v -0.11656708 0.00587047 0.00794795 0.56470588 0.92549020 0.07058824
v -0.11814147 0.00587047 0.00598802 0.56470588 0.92549020 0.07058824
v -0.11806971 0.02141949 -0.00150451 0.56470588 0.92549020 0.07058824
v -0.11819528 0.00891030 0.00589002 0.56470588 0.92549020 0.07058824
f 709 710 711
f 709 711 712
f 709 712 713
f 709 713 714
f 709 714 715
f 709 715 716
f 709 716 729
f 709 729 728
f 709 728 727
f 709 727 726
f 709 726 746
f 709 746 745
f 709 745 744
f 709 744 747
f 709 747 730
f 709 730 717
f 709 717 731
f 709 731 749
f 709 749 774
f 709 774 794
f 709 794 793
f 709 793 795
f 709 795 775
f 709 775 751
f 709 751 750
f 709 750 732
f 709 732 718
f 709 718 710
f 710 718 711
f 711 719 720
f 711 720 712
f 711 718 719
f 712 720 721
f 712 721 713
f 713 721 722
f 713 722 723
f 713 723 724
f 713 724 714
f 714 724 715
f 715 725 726
f 715 726 727
f 715 727 728
f 715 728 729
f 715 729 716
f 715 724 725
f 717 730 731
f 718 732 719
f 719 733 734
f 719 734 735
f 719 735 736
f 719 736 737
f 719 737 738
f 719 738 720
f 719 732 733
f 720 739 722
f 720 722 721
f 720 738 739
f 722 739 723
f 723 739 740
f 723 740 741
f 723 741 742
f 723 742 724
f 724 742 725
f 725 742 743
f 725 743 744
f 725 744 745
f 725 745 746
f 725 746 726
f 730 747 731
f 731 747 748
f 731 748 749
f 732 750 733
f 733 750 751
f 733 751 734
f 734 752 736
f 734 736 735
f 734 751 752
f 736 752 753
f 736 753 754
f 736 754 737
f 737 754 755
f 737 755 756
f 737 756 757
f 737 757 738
f 738 757 758
f 738 758 739
f 739 758 740
f 740 758 741
f 741 758 759
f 741 759 760
f 741 760 761
f 741 761 762
f 741 762 742
f 742 762 743
f 743 762 763
f 743 763 744
f 744 764 765
f 744 765 766
f 744 766 767
f 744 767 747
f 744 763 768
f 744 768 769
f 744 769 770
f 744 770 771
f 744 771 764
f 747 767 748
f 748 767 772
f 748 772 773
f 748 773 749
f 749 773 774
f 751 775 776
f 751 776 752
f 752 776 753
f 753 777 778
f 753 778 754
f 753 776 779
f 753 779 777
f 754 778 780
f 754 780 755
f 755 780 781
f 755 781 760
f 755 760 756
f 756 760 759
f 756 759 757
f 757 759 758
f 760 781 782
f 760 782 761
f 761 782 783
f 761 783 762
f 762 783 784
f 762 784 768
f 762 768 763
f 764 771 765
f 765 771 785
f 765 785 786
f 765 786 766
f 766 786 772
f 766 772 767
f 768 784 787
f 768 787 788
f 768 788 789
f 768 789 769
f 769 789 790
f 769 790 771
f 769 771 770
f 771 790 785
f 772 786 773
f 773 786 791
f 773 791 792
f 773 792 793
f 773 793 794
f 773 794 774
f 775 795 779
f 775 779 776
f 777 785 778
f 777 779 791
f 777 791 786
f 777 786 785
f 778 785 796
f 778 796 780
f 779 795 797
f 779 797 791
f 780 782 781
f 780 796 782
f 782 796 789
f 782 789 788
f 782 788 787
f 782 787 784
f 782 784 783
f 785 790 796
f 789 796 790
f 791 797 793
f 791 793 792
f 793 797 795

