# https://github.com/mikedh/trimesh
mtllib material.mtl
usemtl material_0
v 0.11841400 -0.00044700 0.00333900
v 0.11841400 -0.00044700 0.00333900
v 0.11841400 -0.00044700 0.00333900
v 0.11841400 -0.00044700 0.00333900
v 0.11796900 0.00157200 0.01973800
v 0.11796900 0.00157200 0.01973800
v 0.11796900 0.00157200 0.01973800
v 0.11796900 0.00157200 0.01973800
v 0.11796900 0.00157200 0.01973800
v 0.05620400 0.00479100 0.01924800
v 0.05620400 0.00479100 0.01924800
v 0.05620400 0.00479100 0.01924800
v 0.05630700 -0.00961800 0.00108500
v 0.05630700 -0.00961800 0.00108500
v 0.05630700 -0.00961800 0.00108500
v 0.05618200 -0.01859300 0.02073000
v 0.05618200 -0.01859300 0.02073000
v 0.05618200 -0.01859300 0.02073000
v 0.05618200 -0.01859300 0.02073000
v 0.10352400 -0.02934100 0.01268100
v 0.10352400 -0.02934100 0.01268100
v 0.10352400 -0.02934100 0.01268100
v 0.10352400 -0.02934100 0.01268100
v 0.11693200 -0.02741700 0.00147400
v 0.11693200 -0.02741700 0.00147400
v 0.11693200 -0.02741700 0.00147400
v 0.11693200 -0.02741700 0.00147400
v 0.11693200 -0.02741700 0.00147400
v 0.11843200 -0.02791000 0.02082000
v 0.11843200 -0.02791000 0.02082000
v 0.11843200 -0.02791000 0.02082000
v 0.11843200 -0.02791000 0.02082000
v 0.11843200 -0.02791000 0.02082000
v 0.05663100 0.00590400 0.00735300
v 0.05663100 0.00590400 0.00735300
v 0.05663100 0.00590400 0.00735300
v 0.05662400 -0.02162400 0.00773000
v 0.05662400 -0.02162400 0.00773000
v 0.05662400 -0.02162400 0.00773000
v 0.05662400 -0.02162400 0.00773000
v 0.09806300 -0.01184000 0.02439700
v 0.09806300 -0.01184000 0.02439700
v 0.09806300 -0.01184000 0.02439700
v 0.09806300 -0.01184000 0.02439700
v -0.02595700 0.01846800 0.01872900
v -0.02595700 0.01846800 0.01872900
v -0.02595700 0.01846800 0.01872900
v -0.02595700 0.01846800 0.01872900
v -0.02595700 0.01846800 0.01872900
v -0.02595700 0.01846800 0.01872900
v 0.05580600 0.00713900 0.00908100
v 0.05580600 0.00713900 0.00908100
v 0.05580600 0.00713900 0.00908100
v 0.05580600 0.00713900 0.00908100
v 0.05580600 0.00713900 0.00908100
v -0.03184000 0.01922000 0.00602800
v -0.03184000 0.01922000 0.00602800
v -0.03184000 0.01922000 0.00602800
v -0.03184000 0.01922000 0.00602800
v -0.03184000 0.01922000 0.00602800
v -0.10330800 -0.00524200 0.00437000
v -0.10330800 -0.00524200 0.00437000
v -0.10330800 -0.00524200 0.00437000
v -0.10330200 0.00817300 0.02563600
v -0.10330200 0.00817300 0.02563600
v -0.10330200 0.00817300 0.02563600
v -0.10330100 0.00737600 -0.00100000
v -0.10330100 0.00737600 -0.00100000
v -0.10330100 0.00737600 -0.00100000
v -0.10311400 0.02430300 0.00377400
v -0.10311400 0.02430300 0.00377400
v -0.10311400 0.02430300 0.00377400
v -0.10311400 0.02430300 0.00377400
v -0.10311400 0.02430300 0.00377400
v -0.10330100 -0.00600600 0.01753300
v -0.10330100 -0.00600600 0.01753300
v -0.10330100 -0.00600600 0.01753300
v -0.10330100 -0.00600600 0.01753300
v -0.01732300 -0.01394900 0.02112300
v -0.01732300 -0.01394900 0.02112300
v -0.01732300 -0.01394900 0.02112300
v -0.01732300 -0.01394900 0.02112300
v -0.01732300 -0.01394900 0.02112300
v -0.09866100 0.02643000 0.01341400
v -0.09866100 0.02643000 0.01341400
v -0.09866100 0.02643000 0.01341400
v -0.09866100 0.02643000 0.01341400
v -0.10330100 0.02231000 0.02268000
v -0.10330100 0.02231000 0.02268000
v -0.10330100 0.02231000 0.02268000
v -0.10330100 0.02231000 0.02268000
v -0.01538800 0.00475200 -0.00164800
v -0.01538800 0.00475200 -0.00164800
v -0.01538800 0.00475200 -0.00164800
v -0.01538800 0.00475200 -0.00164800
v -0.01538800 0.00475200 -0.00164800
v -0.01538800 0.00475200 -0.00164800
v 0.05629900 -0.02145500 0.00826900
v 0.05629900 -0.02145500 0.00826900
v 0.05629900 -0.02145500 0.00826900
v 0.05630300 -0.02075700 0.01748700
v 0.05630300 -0.02075700 0.01748700
v 0.05630300 -0.02075700 0.01748700
v 0.05630300 -0.02075700 0.01748700
v -0.02554000 -0.01578800 0.00826900
v -0.02554000 -0.01578800 0.00826900
v -0.02554000 -0.01578800 0.00826900
v -0.02554000 -0.01578800 0.00826900
v -0.02554000 -0.01578800 0.00826900
v -0.02554000 -0.01578800 0.00826900
v -0.04438400 0.00999600 0.02601600
v -0.04438400 0.00999600 0.02601600
v -0.04438400 0.00999600 0.02601600
v -0.04438400 0.00999600 0.02601600
v -0.04438400 0.00999600 0.02601600
v 0.05631400 0.00325600 0.02010800
v 0.05631400 0.00325600 0.02010800
v 0.05631400 0.00325600 0.02010800
v 0.05631400 0.00325600 0.02010800
v 0.05629900 -0.00857900 0.02216700
v 0.05629900 -0.00857900 0.02216700
v 0.05629900 -0.00857900 0.02216700
v 0.05629900 -0.00857900 0.02216700
v -0.03734100 -0.01057300 0.00101400
v -0.03734100 -0.01057300 0.00101400
v -0.03734100 -0.01057300 0.00101400
v -0.03734100 -0.01057300 0.00101400
v -0.03734100 -0.01057300 0.00101400
v -0.03734100 -0.01057300 0.00101400
v 0.05631800 -0.01163800 0.00108900
v 0.05631800 -0.01163800 0.00108900
v 0.05631800 -0.01163800 0.00108900
v -0.15613400 0.03103500 0.00326700
v -0.15613400 0.03103500 0.00326700
v -0.15613400 0.03103500 0.00326700
v -0.15613400 0.03103500 0.00326700
v -0.10311800 -0.00569900 0.00455900
v -0.10311800 -0.00569900 0.00455900
v -0.10311800 -0.00569900 0.00455900
v -0.10311800 -0.00569900 0.00455900
v -0.10337000 0.02448800 0.02151200
v -0.10337000 0.02448800 0.02151200
v -0.10337000 0.02448800 0.02151200
v -0.10337000 0.02448800 0.02151200
v -0.10330100 -0.00137100 0.02267900
v -0.10330100 -0.00137100 0.02267900
v -0.10330100 -0.00137100 0.02267900
v -0.10330100 -0.00137100 0.02267900
v -0.10330100 -0.00137100 0.02267900
v -0.10330100 0.01008100 -0.00130000
v -0.10330100 0.01008100 -0.00130000
v -0.10353900 0.02518000 0.00458600
v -0.10353900 0.02518000 0.00458600
v -0.10353900 0.02518000 0.00458600
v -0.10339700 0.01189600 0.02546700
v -0.10339700 0.01189600 0.02546700
v -0.10339700 0.01189600 0.02546700
v -0.10339700 0.01189600 0.02546700
v -0.15071500 0.03148800 0.02113100
v -0.15071500 0.03148800 0.02113100
v -0.15071500 0.03148800 0.02113100
v -0.15071500 0.03148800 0.02113100
v -0.15071500 0.03148800 0.02113100
v -0.15787500 0.03003000 0.01804600
v -0.15787500 0.03003000 0.01804600
v -0.15787500 0.03003000 0.01804600
v -0.15787500 0.03003000 0.01804600
v -0.15787500 0.03003000 0.01804600
v -0.15950200 -0.00327900 0.00965900
v -0.15950200 -0.00327900 0.00965900
v -0.15950200 -0.00327900 0.00965900
v -0.15950200 -0.00327900 0.00965900
v -0.15950200 -0.00327900 0.00965900
v -0.15950200 -0.00327900 0.00965900
v -0.15941300 0.01149900 -0.00048200
v -0.15941300 0.01149900 -0.00048200
v -0.15941300 0.01149900 -0.00048200
v -0.15941300 0.01149900 -0.00048200
v -0.15941300 0.01149900 -0.00048200
v -0.15941300 0.01149900 -0.00048200
v -0.15569500 -0.00029600 0.00110900
v -0.15569500 -0.00029600 0.00110900
v -0.15569500 -0.00029600 0.00110900
v -0.15569500 -0.00029600 0.00110900
v -0.15569500 -0.00029600 0.00110900
v -0.15888100 0.00765000 0.02581000
v -0.15888100 0.00765000 0.02581000
v -0.15888100 0.00765000 0.02581000
v -0.15888100 0.00765000 0.02581000
v -0.15888100 0.00765000 0.02581000
v -0.15888100 0.00765000 0.02581000
v -0.15888100 0.00765000 0.02581000
v -0.15557200 0.02514200 0.02683800
v -0.15557200 0.02514200 0.02683800
v -0.15557200 0.02514200 0.02683800
v -0.15557200 0.02514200 0.02683800
v -0.15557200 0.02514200 0.02683800
v -0.15702900 -0.00118000 0.02219000
v -0.15702900 -0.00118000 0.02219000
v -0.15702900 -0.00118000 0.02219000
v -0.15702900 -0.00118000 0.02219000
v -0.10537100 -0.00600600 0.01701700
v -0.10537100 -0.00600600 0.01701700
v -0.10537100 -0.00600600 0.01701700
v -0.10537100 -0.00600600 0.01701700
v -0.15545600 0.01602400 -0.00351700
v -0.15545600 0.01602400 -0.00351700
v -0.15545600 0.01602400 -0.00351700
v -0.15545600 0.01602400 -0.00351700
v -0.15545600 0.01602400 -0.00351700
v 0.10551000 -0.08032100 0.01011300
v 0.10551000 -0.08032100 0.01011300
v 0.10551000 -0.08032100 0.01011300
v 0.10551000 -0.08032100 0.01011300
v 0.12863100 -0.05974400 0.00749400
v 0.12863100 -0.05974400 0.00749400
v 0.12863100 -0.05974400 0.00749400
v 0.12863100 -0.05974400 0.00749400
v 0.10577800 -0.08122700 -0.00271800
v 0.10577800 -0.08122700 -0.00271800
v 0.10577800 -0.08122700 -0.00271800
v 0.10577800 -0.08122700 -0.00271800
v 0.10577800 -0.08122700 -0.00271800
v 0.10577800 -0.08122700 -0.00271800
v 0.14675700 -0.05983200 0.00014600
v 0.14675700 -0.05983200 0.00014600
v 0.14675700 -0.05983200 0.00014600
v 0.14468200 -0.05968600 0.01363900
v 0.14468200 -0.05968600 0.01363900
v 0.14468200 -0.05968600 0.01363900
v 0.14468200 -0.05968600 0.01363900
v 0.13023200 -0.05955700 -0.00130700
v 0.13023200 -0.05955700 -0.00130700
v 0.10876400 -0.08327200 0.01045400
v 0.10876400 -0.08327200 0.01045400
v 0.10876400 -0.08327200 0.01045400
v 0.10876400 -0.08327200 0.01045400
v 0.12635300 -0.07346300 -0.00100000
v 0.10721200 -0.07870700 0.03037400
v 0.10721200 -0.07870700 0.03037400
v 0.10721200 -0.07870700 0.03037400
v 0.10721200 -0.07870700 0.03037400
v 0.12990000 -0.05956000 0.02758600
v 0.12990000 -0.05956000 0.02758600
v 0.12990000 -0.05956000 0.02758600
v 0.10645300 -0.07846600 0.01913300
v 0.10645300 -0.07846600 0.01913300
v 0.10645300 -0.07846600 0.01913300
v 0.10645300 -0.07846600 0.01913300
v 0.13317500 -0.05950700 0.01419400
v 0.13317500 -0.05950700 0.01419400
v 0.11017000 -0.08212100 0.03023500
v 0.11017000 -0.08212100 0.03023500
v 0.11017000 -0.08212100 0.03023500
v 0.11017000 -0.08212100 0.03023500
v 0.14666900 -0.05958800 0.02601100
v 0.14666900 -0.05958800 0.02601100
v 0.10671300 -0.08296500 0.01818300
v 0.10671300 -0.08296500 0.01818300
v 0.10671300 -0.08296500 0.01818300
v 0.10671300 -0.08296500 0.01818300
v 0.10671300 -0.08296500 0.01818300
v 0.14532600 -0.06201500 0.01289400
v 0.14532600 -0.06201500 0.01289400
v 0.14532600 -0.06201500 0.01289400
v 0.13024300 -0.05925600 0.02723300
v 0.13024300 -0.05925600 0.02723300
v 0.13024300 -0.05925600 0.02723300
v 0.15465300 -0.03587600 0.02576800
v 0.15465300 -0.03587600 0.02576800
v 0.15465300 -0.03587600 0.02576800
v 0.14309700 -0.03587300 0.02483500
v 0.14309700 -0.03587300 0.02483500
v 0.16624200 -0.03601800 0.00003000
v 0.16624200 -0.03601800 0.00003000
v 0.16624200 -0.03601800 0.00003000
v 0.16624200 -0.03601800 0.00003000
v 0.16624200 -0.03601800 0.00003000
v 0.14359500 -0.03587500 -0.00045100
v 0.16524700 -0.03591000 0.02311100
v 0.16524700 -0.03591000 0.02311100
v 0.16524700 -0.03591000 0.02311100
v 0.16524700 -0.03591000 0.02311100
v 0.12967000 -0.05921600 -0.00144000
v 0.12967000 -0.05921600 -0.00144000
v 0.12967000 -0.05921600 -0.00144000
v 0.12967000 -0.05921600 -0.00144000
v 0.16222900 -0.04433800 0.02282700
v 0.16222900 -0.04433800 0.02282700
v 0.16222900 -0.04433800 0.02282700
v 0.14700500 -0.05952400 0.02601800
v 0.14700500 -0.05952400 0.02601800
v 0.14700500 -0.05952400 0.02601800
v 0.14700500 -0.05952400 0.02601800
v 0.14700500 -0.05952400 0.02601800
v 0.15646000 -0.05177800 0.00275600
v 0.15646000 -0.05177800 0.00275600
v 0.15646000 -0.05177800 0.00275600
v 0.14633900 -0.05948000 -0.00074900
v 0.14633900 -0.05948000 -0.00074900
v 0.14633900 -0.05948000 -0.00074900
v 0.14633900 -0.05948000 -0.00074900
v 0.14515600 0.00886900 0.01805300
v 0.14515600 0.00886900 0.01805300
v 0.14515600 0.00886900 0.01805300
v 0.16620200 0.00884600 0.02069100
v 0.16620200 0.00884600 0.02069100
v 0.16620200 0.00884600 0.02069100
v 0.16507600 0.01976700 0.02164400
v 0.16507600 0.01976700 0.02164400
v 0.16507600 0.01976700 0.02164400
v 0.15873300 0.01977800 0.00082400
v 0.15873300 0.01977800 0.00082400
v 0.14928300 0.01974800 0.02064600
v 0.14928300 0.01974800 0.02064600
v 0.14487900 0.00892600 0.00672400
v 0.14487900 0.00892600 0.00672400
v 0.14487900 0.00892600 0.00672400
v 0.16521400 0.00890000 0.00236700
v 0.16521400 0.00890000 0.00236700
v 0.16521400 0.00890000 0.00236700
v 0.16804500 0.01973600 0.00672400
v 0.16804500 0.01973600 0.00672400
v 0.16804500 0.01973600 0.00672400
v 0.15108700 0.00947700 0.02356100
v 0.15108700 0.00947700 0.02356100
v 0.14655200 0.01975300 0.00783700
v 0.14655200 0.01975300 0.00783700
v 0.14655200 0.01975300 0.00783700
v 0.14655200 0.01975300 0.00783700
v 0.15053700 0.00918400 0.00071800
v 0.15053700 0.00918400 0.00071800
v 0.15053700 0.00918400 0.00071800
v 0.15053700 0.00918400 0.00071800
v 0.11889000 -0.02973100 0.00548000
v 0.11889000 -0.02973100 0.00548000
v 0.11889000 -0.02973100 0.00548000
v 0.11889000 -0.02973100 0.00548000
v 0.11889000 -0.02973100 0.00548000
v 0.11889000 -0.02973100 0.00548000
v 0.14826200 -0.03620300 0.02583400
v 0.14826200 -0.03620300 0.02583400
v 0.14826200 -0.03620300 0.02583400
v 0.14826200 -0.03620300 0.02583400
v 0.14826200 -0.03620300 0.02583400
v 0.14826200 -0.03620300 0.02583400
v 0.14826200 -0.03620300 0.02583400
v 0.11980500 -0.02949500 0.02140600
v 0.11980500 -0.02949500 0.02140600
v 0.11980500 -0.02949500 0.02140600
v 0.16657000 -0.03577800 0.00072000
v 0.16657000 -0.03577800 0.00072000
v 0.16657000 -0.03577800 0.00072000
v 0.16657000 -0.03577800 0.00072000
v 0.16657000 -0.03577800 0.00072000
v 0.16598000 -0.03587100 0.02216700
v 0.16598000 -0.03587100 0.02216700
v 0.16598000 -0.03587100 0.02216700
v 0.11867100 -0.00055100 0.02129900
v 0.11867100 -0.00055100 0.02129900
v 0.11867100 -0.00055100 0.02129900
v 0.11867100 -0.00055100 0.02129900
v 0.11867100 -0.00055100 0.02129900
v 0.11867100 -0.00055100 0.02129900
v 0.11867100 -0.00055100 0.02129900
v 0.11879900 -0.00140100 0.00314700
v 0.11879900 -0.00140100 0.00314700
v 0.11879900 -0.00140100 0.00314700
v 0.11879900 -0.00140100 0.00314700
v 0.14641500 -0.03587100 -0.00100000
v 0.14641500 -0.03587100 -0.00100000
v 0.14641500 -0.03587100 -0.00100000
v 0.14641500 -0.03587100 -0.00100000
v 0.14641500 -0.03587100 -0.00100000
v 0.15857500 0.00842100 0.02490500
v 0.15857500 0.00842100 0.02490500
v 0.15857500 0.00842100 0.02490500
v 0.15857500 0.00842100 0.02490500
v 0.15857500 0.00842100 0.02490500
v 0.16135000 0.00891900 0.00003100
v 0.16135000 0.00891900 0.00003100
v 0.16135000 0.00891900 0.00003100
v 0.16135000 0.00891900 0.00003100
v 0.17164900 -0.00395000 0.00054600
v 0.17164900 -0.00395000 0.00054600
v 0.17164900 -0.00395000 0.00054600
v 0.17164900 -0.00395000 0.00054600
v 0.17164900 -0.00395000 0.00054600
v 0.15792800 -0.00044700 -0.00209700
v 0.15792800 -0.00044700 -0.00209700
v 0.15792800 -0.00044700 -0.00209700
v 0.15792800 -0.00044700 -0.00209700
v 0.15792800 -0.00044700 -0.00209700
v 0.15792800 -0.00044700 -0.00209700
v 0.17188100 -0.00349700 0.02340500
v 0.17188100 -0.00349700 0.02340500
v 0.17188100 -0.00349700 0.02340500
v 0.17188100 -0.00349700 0.02340500
v 0.17188100 -0.00349700 0.02340500
v 0.17188100 -0.00349700 0.02340500
v 0.16847700 0.00917800 0.00933900
v 0.16847700 0.00917800 0.00933900
v 0.16847700 0.00917800 0.00933900
v 0.16847700 0.00917800 0.00933900
v 0.14538700 0.00892300 0.01907700
v 0.14538700 0.00892300 0.01907700
v 0.14672000 0.00889600 0.00130100
v 0.14672000 0.00889600 0.00130100
v 0.14672000 0.00889600 0.00130100
v 0.14672000 0.00889600 0.00130100
v 0.12377000 -0.02402800 0.00157500
v 0.12377000 -0.02402800 0.00157500
v 0.12377000 -0.02402800 0.00157500
v 0.12377000 -0.02402800 0.00157500
v 0.14375800 0.02981500 0.02039100
v 0.14375800 0.02981500 0.02039100
v 0.14375800 0.02981500 0.02039100
v 0.14375800 0.02981500 0.02039100
v 0.14375800 0.02981500 0.02039100
v 0.14375800 0.02981500 0.02039100
v 0.14375800 0.02981500 0.02039100
v 0.14811100 0.01963500 0.00469600
v 0.14811100 0.01963500 0.00469600
v 0.14811100 0.01963500 0.00469600
v 0.14907000 0.01966600 0.02053300
v 0.14907000 0.01966600 0.02053300
v 0.14907000 0.01966600 0.02053300
v 0.16655400 0.01960100 0.00379300
v 0.16655400 0.01960100 0.00379300
v 0.16655400 0.01960100 0.00379300
v 0.16573800 0.01963200 0.02126000
v 0.16573800 0.01963200 0.02126000
v 0.16573800 0.01963200 0.02126000
v 0.15931600 0.02950700 0.02842200
v 0.15931600 0.02950700 0.02842200
v 0.15931600 0.02950700 0.02842200
v 0.15931600 0.02950700 0.02842200
v 0.15931600 0.02950700 0.02842200
v 0.15931600 0.02950700 0.02842200
v 0.15569000 0.04084500 0.02783000
v 0.15569000 0.04084500 0.02783000
v 0.15569000 0.04084500 0.02783000
v 0.15569000 0.04084500 0.02783000
v 0.16846900 0.04262000 0.02474100
v 0.16846900 0.04262000 0.02474100
v 0.16846900 0.04262000 0.02474100
v 0.16846900 0.04262000 0.02474100
v 0.16846900 0.04262000 0.02474100
v 0.16846900 0.04262000 0.02474100
v 0.14666000 0.04530700 0.02090200
v 0.14666000 0.04530700 0.02090200
v 0.14666000 0.04530700 0.02090200
v 0.14666000 0.04530700 0.02090200
v 0.14666000 0.04530700 0.02090200
v 0.14475200 0.04467600 0.00438300
v 0.14475200 0.04467600 0.00438300
v 0.14475200 0.04467600 0.00438300
v 0.14475200 0.04467600 0.00438300
v 0.14475200 0.04467600 0.00438300
v 0.14384700 0.02952100 0.00569500
v 0.14384700 0.02952100 0.00569500
v 0.14384700 0.02952100 0.00569500
v 0.14384700 0.02952100 0.00569500
v 0.17193400 0.02784600 0.00430700
v 0.17193400 0.02784600 0.00430700
v 0.17193400 0.02784600 0.00430700
v 0.17193400 0.02784600 0.00430700
v 0.17193400 0.02784600 0.00430700
v 0.17422300 0.03878600 0.01495900
v 0.17422300 0.03878600 0.01495900
v 0.17422300 0.03878600 0.01495900
v 0.17422300 0.03878600 0.01495900
v 0.17091500 0.02539800 0.02040100
v 0.17091500 0.02539800 0.02040100
v 0.17091500 0.02539800 0.02040100
v 0.17091500 0.02539800 0.02040100
v 0.17091500 0.02539800 0.02040100
v 0.17091500 0.02539800 0.02040100
v 0.15710300 0.03010200 -0.00379900
v 0.15710300 0.03010200 -0.00379900
v 0.15710300 0.03010200 -0.00379900
v 0.15710300 0.03010200 -0.00379900
v 0.15710300 0.03010200 -0.00379900
v 0.15710300 0.03010200 -0.00379900
v 0.15710300 0.03010200 -0.00379900
v 0.17065600 0.04379800 0.00243200
v 0.17065600 0.04379800 0.00243200
v 0.17065600 0.04379800 0.00243200
v 0.17065600 0.04379800 0.00243200
v 0.17065600 0.04379800 0.00243200
v 0.17065600 0.04379800 0.00243200
v 0.15820400 0.04399400 -0.00223300
v 0.15820400 0.04399400 -0.00223300
v 0.15820400 0.04399400 -0.00223300
vn 0.09390298 0.98843134 -0.11910378
vn 0.99989720 -0.00719998 -0.01239997
vn -0.02169903 0.37478322 -0.92685851
vn 0.02619935 0.06749833 -0.99737534
vn 0.09390298 0.98843134 -0.11910378
vn 0.99954957 0.01660082 0.02500124
vn 0.05109919 0.99418415 0.09479849
vn 0.00900043 0.31621496 0.94864487
vn 0.20269206 0.03909847 0.97846167
vn 0.05109919 0.99418415 0.09479849
vn 0.00900043 0.31621496 0.94864487
vn -0.84732577 0.04670142 0.52901609
vn -0.84649351 0.19219853 -0.49649619
vn 0.02619935 0.06749833 -0.99737534
vn -0.13609500 -0.48248226 -0.86526818
vn -0.18079462 -0.95917145 0.21749353
vn -0.80408420 0.02729946 0.59388833
vn -0.04129977 -0.26669853 0.96289471
vn -0.13579406 -0.90306049 0.40748217
vn -0.18079462 -0.95917145 0.21749353
vn -0.12260290 -0.94322231 -0.30870730
vn -0.13579406 -0.90306049 0.40748217
vn 0.11399947 -0.99289542 -0.03409984
vn 0.11399947 -0.99289542 -0.03409984
vn -0.12260290 -0.94322231 -0.30870730
vn -0.13609500 -0.48248226 -0.86526818
vn 0.02619935 0.06749833 -0.99737534
vn 0.99569441 -0.04929972 -0.07849956
vn 0.11399947 -0.99289542 -0.03409984
vn -0.13579406 -0.90306049 0.40748217
vn 0.20269206 0.03909847 0.97846167
vn -0.04129977 -0.26669853 0.96289471
vn 0.99876568 -0.02619910 -0.04219855
vn 0.05109919 0.99418415 0.09479849
vn -0.77298562 0.25139532 -0.58248916
vn 0.09390298 0.98843134 -0.11910378
vn -0.13609500 -0.48248226 -0.86526818
vn -0.18079462 -0.95917145 0.21749353
vn -0.12260290 -0.94322231 -0.30870730
vn -0.99889682 -0.03999987 -0.02459992
vn 0.00900043 0.31621496 0.94864487
vn -0.04129977 -0.26669853 0.96289471
vn -0.09709795 0.06299867 0.99327899
vn 0.20269206 0.03909847 0.97846167
vn 0.16699640 0.93237990 0.32059309
vn 0.06679803 0.89887346 0.43308721
vn 0.10819895 0.99409031 0.00879991
vn 0.13670025 0.99060178 -0.00460001
vn 0.08519976 0.53679849 0.83939763
vn 0.07000061 0.55870485 0.82640717
vn 0.16699640 0.93237990 0.32059309
vn 0.10549864 0.55699285 -0.82378942
vn 0.99866851 0.04069872 -0.03169900
vn 0.13670025 0.99060178 -0.00460001
vn 0.12429366 0.39148004 -0.91175351
vn 0.13670025 0.99060178 -0.00460001
vn 0.10819895 0.99409031 0.00879991
vn 0.10549864 0.55699285 -0.82378942
vn 0.06419892 0.52369121 -0.84948574
vn 0.07669929 0.96559107 -0.24849770
vn -0.09489757 -0.87507761 -0.47458786
vn -0.79987868 -0.23489374 -0.55228528
vn -0.13129734 -0.98967994 -0.05739884
vn -0.08180141 -0.49450851 0.86531489
vn -0.00010000 -0.20040278 0.97971359
vn -0.84384960 0.10959345 0.52526863
vn 0.00099997 0.27139115 -0.96246862
vn -0.01190025 -0.15450322 -0.98792061
vn -0.89127382 -0.17319491 -0.41908769
vn 0.07669929 0.96559107 -0.24849770
vn -0.99996935 0.00709978 -0.00329990
vn 0.00099997 0.27139115 -0.96246862
vn -0.56660556 0.82000805 0.08090079
vn 0.06419892 0.52369121 -0.84948574
vn -0.09849592 -0.97435961 0.20229162
vn -0.08180141 -0.49450851 0.86531489
vn -0.13129734 -0.98967994 -0.05739884
vn -0.99999980 -0.00040000 0.00050000
vn 0.00070000 -0.19949953 0.97989767
vn -0.09849592 -0.97435961 0.20229162
vn -0.08180141 -0.49450851 0.86531489
vn -0.08100043 -0.97810514 0.19170101
vn 0.01289956 -0.35868787 0.93336842
vn 0.06679803 0.89887346 0.43308721
vn 0.10819895 0.99409031 0.00879991
vn 0.07669929 0.96559107 -0.24849770
vn -0.56660556 0.82000805 0.08090079
vn -0.81776040 0.12249407 0.56237277
vn 0.06679803 0.89887346 0.43308721
vn -0.56660556 0.82000805 0.08090079
vn 0.07000061 0.55870485 0.82640717
vn 0.06419892 0.52369121 -0.84948574
vn 0.10549864 0.55699285 -0.82378942
vn -0.01190025 -0.15450322 -0.98792061
vn 0.12429366 0.39148004 -0.91175351
vn -0.00110003 -0.16950494 -0.98552872
vn 0.00099997 0.27139115 -0.96246862
vn -0.06889847 -0.99477795 0.07529833
vn -0.05910002 -0.85370032 -0.51740019
vn 0.82725102 -0.33278030 -0.45267320
vn -0.06889847 -0.99477795 0.07529833
vn 0.99999894 -0.00140000 0.00040000
vn 0.01289956 -0.35868787 0.93336842
vn -0.08100043 -0.97810514 0.19170101
vn -0.09489757 -0.87507761 -0.47458786
vn -0.05910002 -0.85370032 -0.51740019
vn -0.06889847 -0.99477795 0.07529833
vn -0.13129734 -0.98967994 -0.05739884
vn -0.08100043 -0.97810514 0.19170101
vn -0.09849592 -0.97435961 0.20229162
vn -0.01269928 0.20468845 0.97874479
vn -0.00010000 -0.20040278 0.97971359
vn 0.06909744 0.17089367 0.98286362
vn 0.08519976 0.53679849 0.83939763
vn 0.07000061 0.55870485 0.82640717
vn 0.06909744 0.17089367 0.98286362
vn 0.08519976 0.53679849 0.83939763
vn 0.99972642 0.01910050 -0.01350036
vn 0.16699640 0.93237990 0.32059309
vn 0.00070000 -0.19949953 0.97989767
vn 0.06909744 0.17089367 0.98286362
vn 0.01289956 -0.35868787 0.93336842
vn 0.99999576 -0.00080000 0.00279999
vn -0.05910002 -0.85370032 -0.51740019
vn -0.00610030 -0.59032901 -0.80713967
vn -0.01190025 -0.15450322 -0.98792061
vn -0.09489757 -0.87507761 -0.47458786
vn -0.00110003 -0.16950494 -0.98552872
vn -0.07820130 -0.39040650 -0.91731528
vn 0.79852080 -0.34710904 -0.49181281
vn -0.00110003 -0.16950494 -0.98552872
vn 0.12429366 0.39148004 -0.91175351
vn -0.21629365 0.97547135 0.04089880
vn -0.97758461 0.18379711 -0.10269838
vn -0.75028216 0.24389420 -0.61448539
vn 0.10349891 0.79569165 -0.59679374
vn 0.77000471 -0.21810133 -0.59960367
vn -0.07229756 -0.93126862 -0.35708797
vn 0.83127764 -0.53868551 0.13709631
vn -0.04580040 -0.99840868 -0.03290029
vn 0.08669998 0.62869987 0.77279984
vn 0.10059823 0.29789475 0.94928326
vn 0.99994801 0.01010048 0.00140007
vn 0.14590437 0.98852963 0.03900117
vn 0.02180075 -0.20540709 0.97843378
vn 0.99993327 0.00320011 0.01110037
vn -0.00850012 -0.77221113 0.63530915
vn -0.00979984 -0.38109362 0.92448452
vn 0.83127764 -0.53868551 0.13709631
vn 0.00979993 -0.27289803 -0.96199305
vn 0.69258856 0.02229963 -0.72098809
vn 0.82201574 0.21890419 -0.52571007
vn 0.14590437 0.98852963 0.03900117
vn 0.10710021 0.84290164 -0.52730103
vn 0.02180075 -0.20540709 0.97843378
vn 0.10059823 0.29789475 0.94928326
vn 0.01079997 -0.06069986 0.99809763
vn 0.99983185 0.00350011 0.01800057
vn 0.08669998 0.62869987 0.77279984
vn 0.14590437 0.98852963 0.03900117
vn -0.38079815 0.76219629 0.52349745
vn 0.11189561 0.99196111 -0.05909768
vn -0.21629365 0.97547135 0.04089880
vn -0.38079815 0.76219629 0.52349745
vn -0.21629365 0.97547135 0.04089880
vn -0.97758461 0.18379711 -0.10269838
vn -0.99810998 0.05460055 0.02820028
vn -0.93058384 0.15659728 0.33089425
vn -0.07370022 -0.98110289 0.17890053
vn -0.04580040 -0.99840868 -0.03290029
vn -0.81795874 -0.32212313 -0.47663423
vn -0.92859385 -0.28979808 0.23179847
vn -0.07229756 -0.93126862 -0.35708797
vn -0.99947956 0.02209955 0.02349952
vn -0.39821070 -0.24480658 -0.88402375
vn -0.75028216 0.24389420 -0.61448539
vn -0.97758461 0.18379711 -0.10269838
vn -0.99947956 0.02209955 0.02349952
vn -0.99810998 0.05460055 0.02820028
vn -0.81795874 -0.32212313 -0.47663423
vn -0.07229756 -0.93126862 -0.35708797
vn -0.39821070 -0.24480658 -0.88402375
vn 0.02579881 -0.34768397 -0.93725678
vn -0.81795874 -0.32212313 -0.47663423
vn 0.00979993 -0.27289803 -0.96199305
vn -0.99947956 0.02209955 0.02349952
vn 0.02180075 -0.20540709 0.97843378
vn 0.01079997 -0.06069986 0.99809763
vn -0.92859385 -0.28979808 0.23179847
vn -0.93058384 0.15659728 0.33089425
vn -0.99810998 0.05460055 0.02820028
vn -0.00979984 -0.38109362 0.92448452
vn 0.10059823 0.29789475 0.94928326
vn 0.01079997 -0.06069986 0.99809763
vn 0.08669998 0.62869987 0.77279984
vn -0.93058384 0.15659728 0.33089425
vn -0.38079815 0.76219629 0.52349745
vn -0.00850012 -0.77221113 0.63530915
vn -0.00979984 -0.38109362 0.92448452
vn -0.07370022 -0.98110289 0.17890053
vn -0.92859385 -0.28979808 0.23179847
vn -0.00850012 -0.77221113 0.63530915
vn -0.07370022 -0.98110289 0.17890053
vn -0.04580040 -0.99840868 -0.03290029
vn 0.83127764 -0.53868551 0.13709631
vn -0.39821070 -0.24480658 -0.88402375
vn -0.75028216 0.24389420 -0.61448539
vn 0.00979993 -0.27289803 -0.96199305
vn 0.06880007 0.41350039 -0.90790086
vn 0.08080301 0.36311353 -0.92823458
vn -0.66752587 0.74162874 -0.06630257
vn -0.67339796 -0.73829776 0.03809988
vn -0.09500237 0.01020025 0.99542479
vn -0.31839882 0.46299829 0.82719694
vn -0.66752587 0.74162874 -0.06630257
vn 0.00850019 0.99992246 0.00910020
vn -0.31839882 0.46299829 0.82719694
vn -0.65628402 0.74738180 -0.10349748
vn -0.67339796 -0.73829776 0.03809988
vn 0.08699581 -0.03329840 -0.99565202
vn -0.65628402 0.74738180 -0.10349748
vn 0.36040716 -0.90591800 -0.22230442
vn -0.66752587 0.74162874 -0.06630257
vn 0.11769824 -0.09299861 -0.98868518
vn 0.54079224 -0.83608801 0.09219868
vn 0.03220037 0.94851086 -0.31510361
vn 0.54847204 -0.80065919 -0.24108771
vn -0.09500237 0.01020025 0.99542479
vn 0.00050002 0.99994155 -0.01080045
vn 0.54079224 -0.83608801 0.09219868
vn -0.31839882 0.46299829 0.82719694
vn 0.08199484 0.55656499 -0.82674800
vn -0.65628402 0.74738180 -0.10349748
vn 0.54079224 -0.83608801 0.09219868
vn -0.09500237 0.01020025 0.99542479
vn -0.67339796 -0.73829776 0.03809988
vn 0.40000736 -0.90361663 -0.15320282
vn 0.43990573 -0.66520867 -0.60330786
vn -0.72612371 -0.63932087 0.25300826
vn -0.63948892 0.76648672 0.05959897
vn 0.09039891 0.03779955 0.99518804
vn -0.99528892 -0.07129921 0.06569927
vn -0.63948892 0.76648672 0.05959897
vn 0.09039891 0.03779955 0.99518804
vn -0.20029657 0.75358709 0.62608928
vn -0.99528892 -0.07129921 0.06569927
vn -0.63948892 0.76648672 0.05959897
vn -0.59009367 0.79489147 -0.14119848
vn -0.30100692 0.18030414 -0.93642151
vn -0.21360109 0.72290369 -0.65710336
vn -0.30100692 0.18030414 -0.93642151
vn 0.09039891 0.03779955 0.99518804
vn -0.72612371 -0.63932087 0.25300826
vn 0.53106957 -0.84125180 0.10129420
vn 0.46789770 -0.88079568 -0.07259964
vn 0.53106957 -0.84125180 0.10129420
vn 0.11649935 0.96229462 0.24579863
vn -0.72612371 -0.63932087 0.25300826
vn 0.46789770 -0.88079568 -0.07259964
vn -0.11440422 -0.03980147 -0.99263665
vn -0.99528892 -0.07129921 0.06569927
vn -0.30100692 0.18030414 -0.93642151
vn 0.53106957 -0.84125180 0.10129420
vn 0.10910425 0.82003196 -0.56182190
vn 0.46789770 -0.88079568 -0.07259964
vn -0.87538161 0.48308985 0.01819962
vn 0.01859953 -0.89167765 0.45228866
vn -0.07960308 0.14490561 0.98623816
vn 0.24251203 -0.06820338 0.96774801
vn 0.07210110 -0.01280019 0.99731519
vn -0.01949959 0.96947971 0.24439488
vn -0.26630589 0.73061617 0.62871391
vn -0.87538161 0.48308985 0.01819962
vn 0.94017177 -0.33808985 0.04209874
vn 0.01329958 0.93807048 -0.34618911
vn 0.84520442 -0.53250278 -0.04550024
vn 0.04140169 -0.00190008 -0.99914078
vn 0.58956137 -0.47846865 -0.65075736
vn -0.37501957 0.70053655 -0.60713167
vn 0.00359996 0.99998988 -0.00269997
vn 0.24251203 -0.06820338 0.96774801
vn 0.34950238 -0.15630106 0.92380629
vn 0.94017177 -0.33808985 0.04209874
vn -0.71157167 0.44408232 -0.54447832
vn 0.04140169 -0.00190008 -0.99914078
vn -0.87538161 0.48308985 0.01819962
vn -0.01589957 -0.99987287 -0.00119997
vn 0.94017177 -0.33808985 0.04209874
vn 0.76843061 -0.63972548 0.01630065
vn 0.34950238 -0.15630106 0.92380629
vn 0.04380021 -0.66100322 0.74910365
vn 0.24251203 -0.06820338 0.96774801
vn 0.60911152 -0.79291499 -0.01640031
vn 0.71089990 -0.70109991 0.05549999
vn 0.34950238 -0.15630106 0.92380629
vn 0.58956137 -0.47846865 -0.65075736
vn 0.60911152 -0.79291499 -0.01640031
vn 0.79469656 -0.60699737 -0.00339999
vn 0.60911152 -0.79291499 -0.01640031
vn 0.58956137 -0.47846865 -0.65075736
vn -0.01579960 -0.99987446 -0.00119997
vn 0.04140169 -0.00190008 -0.99914078
vn -0.93109827 0.30589943 0.19869963
vn -0.29780762 -0.89202282 0.34000870
vn -0.98835342 0.15010811 0.02500135
vn 0.32969555 -0.94408726 -0.00030000
vn 0.97735813 0.08379641 0.19429168
vn 0.18339513 -0.06669823 0.98077397
vn -0.01970093 0.94754485 0.31901510
vn 0.97735813 0.08379641 0.19429168
vn 0.18339513 -0.06669823 0.98077397
vn 0.10990015 -0.07510010 -0.99110137
vn 0.02630006 0.84170207 -0.53930133
vn -0.93109827 0.30589943 0.19869963
vn -0.19600748 0.75732889 0.62292376
vn -0.71980568 0.18010142 -0.67040529
vn -0.00420018 -0.99984323 -0.01720074
vn -0.98835342 0.15010811 0.02500135
vn 0.49520332 -0.86800582 -0.03660025
vn 0.10990015 -0.07510010 -0.99110137
vn 0.52550168 0.19560062 -0.82800265
vn 0.25448802 0.88255845 -0.39538138
vn 0.97117659 -0.23239440 -0.05299872
vn 0.97735813 0.08379641 0.19429168
vn -0.32708449 -0.57547272 0.74956446
vn 0.18339513 -0.06669823 0.98077397
vn -0.93109827 0.30589943 0.19869963
vn -0.71980568 0.18010142 -0.67040529
vn -0.19479302 0.92186697 -0.33498800
vn -0.98835342 0.15010811 0.02500135
vn -0.46458562 0.36748863 -0.80567506
vn -0.71980568 0.18010142 -0.67040529
vn -0.01309979 -0.99838390 -0.05529911
vn 0.10990015 -0.07510010 -0.99110137
vn -0.21708836 -0.97614765 0.00289984
vn -0.99996898 -0.00379988 -0.00689979
vn -0.57278943 -0.06909873 -0.81678493
vn -0.23339622 -0.97198425 0.02779955
vn -0.28910754 -0.36000939 -0.88702315
vn -0.99756440 -0.03889861 0.05789793
vn -0.09969578 0.04369815 0.99405796
vn 0.10820213 -0.00430008 0.99411961
vn 0.20350875 -0.07440320 0.97624195
vn -0.15430322 -0.00240005 0.98802063
vn -0.21708836 -0.97614765 0.00289984
vn 0.01199993 -0.99989438 -0.00819995
vn -0.23339622 -0.97198425 0.02779955
vn -0.99756440 -0.03889861 0.05789793
vn -0.23339622 -0.97198425 0.02779955
vn -0.15430322 -0.00240005 0.98802063
vn 0.98747945 -0.15759672 -0.00689986
vn 0.98327905 -0.18019616 0.02629944
vn 0.01020003 -0.99990285 -0.00950003
vn 0.08509607 -0.05849730 -0.99465407
vn 0.18059323 -0.03419872 -0.98296314
vn 0.20350875 -0.07440320 0.97624195
vn 0.01800055 -0.99983076 -0.00380012
vn 0.98327905 -0.18019616 0.02629944
vn -0.99996898 -0.00379988 -0.00689979
vn -0.15430322 -0.00240005 0.98802063
vn -0.22799115 0.77976973 0.58307736
vn -0.99756440 -0.03889861 0.05789793
vn -0.09969578 0.04369815 0.99405796
vn -0.33608437 0.94145621 -0.02659876
vn -0.34831271 0.93623416 -0.04630169
vn -0.57278943 -0.06909873 -0.81678493
vn -0.13359852 0.07099921 -0.98848902
vn -0.99996898 -0.00379988 -0.00689979
vn -0.34831271 0.93623416 -0.04630169
vn 0.00570001 -0.99990183 -0.01280002
vn 0.08509607 -0.05849730 -0.99465407
vn -0.11039716 0.00509987 -0.99387447
vn -0.21708836 -0.97614765 0.00289984
vn -0.28910754 -0.36000939 -0.88702315
vn -0.09969578 0.04369815 0.99405796
vn 0.62849081 0.64729054 0.43129370
vn -0.22799115 0.77976973 0.58307736
vn 0.01290010 0.99830789 0.05670045
vn 0.10820213 -0.00430008 0.99411961
vn -0.00369994 0.99968311 -0.02489958
vn -0.08410101 0.24990300 -0.96461159
vn 0.22130442 0.13850277 -0.96531929
vn 0.67258402 0.51708771 -0.52938742
vn 0.98747945 -0.15759672 -0.00689986
vn 0.22130442 0.13850277 -0.96531929
vn 0.67258402 0.51708771 -0.52938742
vn 0.18059323 -0.03419872 -0.98296314
vn 0.96963633 0.24410915 -0.01470055
vn 0.22130442 0.13850277 -0.96531929
vn 0.08509607 -0.05849730 -0.99465407
vn -0.13530368 0.12230333 -0.98322673
vn -0.08410101 0.24990300 -0.96461159
vn -0.11039716 0.00509987 -0.99387447
vn 0.18059323 -0.03419872 -0.98296314
vn 0.20350875 -0.07440320 0.97624195
vn 0.10820213 -0.00430008 0.99411961
vn 0.98747945 -0.15759672 -0.00689986
vn 0.62849081 0.64729054 0.43129370
vn 0.96963633 0.24410915 -0.01470055
vn 0.98327905 -0.18019616 0.02629944
vn 0.96963633 0.24410915 -0.01470055
vn 0.67258402 0.51708771 -0.52938742
vn 0.62849081 0.64729054 0.43129370
vn -0.00169992 0.99995248 0.00959954
vn -0.16219323 0.98675883 -0.00059997
vn -0.22799115 0.77976973 0.58307736
vn -0.13500322 0.19170457 -0.97212319
vn -0.08410101 0.24990300 -0.96461159
vn -0.12350437 0.99223514 -0.01470052
vn -0.34831271 0.93623416 -0.04630169
vn -0.11039716 0.00509987 -0.99387447
vn -0.57278943 -0.06909873 -0.81678493
vn -0.28910754 -0.36000939 -0.88702315
vn -0.13370507 0.03940150 -0.99023759
vn -0.88499601 -0.46239792 0.05449975
vn -0.99823118 0.05900184 -0.00730023
vn -0.91811512 -0.39630653 0.00240004
vn -0.45791113 -0.10030244 0.88332147
vn -0.97798372 0.17969701 0.10609823
vn -0.58079795 0.08209971 0.80989714
vn -0.45049855 -0.22369928 0.86429722
vn -0.23219642 -0.93298561 -0.27499576
vn -0.91811512 -0.39630653 0.00240004
vn -0.56961517 -0.16430438 -0.80532145
vn -0.03599954 -0.60199239 0.79768991
vn -0.45049855 -0.22369928 0.86429722
vn -0.49520021 -0.86820036 0.03170001
vn 0.11529910 -0.94669261 -0.30079765
vn 0.43909506 -0.23229739 -0.86789023
vn 0.83794758 -0.54493094 -0.02990170
vn 0.38839140 -0.92127961 0.01989956
vn -0.03599954 -0.60199239 0.79768991
vn 0.46940896 -0.29760568 0.83131587
vn 0.21739278 0.12009601 0.96866781
vn 0.53060968 -0.13550247 0.83671527
vn -0.03599954 -0.60199239 0.79768991
vn 0.46940896 -0.29760568 0.83131587
vn -0.45791113 -0.10030244 0.88332147
vn -0.45049855 -0.22369928 0.86429722
vn 0.01080048 0.84703744 0.53142349
vn -0.58079795 0.08209971 0.80989714
vn 0.21739278 0.12009601 0.96866781
vn -0.45791113 -0.10030244 0.88332147
vn 0.86091752 -0.00590012 0.50871035
vn 0.53060968 -0.13550247 0.83671527
vn 0.11109904 0.99179140 0.06329945
vn 0.01080048 0.84703744 0.53142349
vn 0.21739278 0.12009601 0.96866781
vn 0.66820997 0.73661099 0.10440156
vn -0.58079795 0.08209971 0.80989714
vn 0.03109910 0.99867098 -0.04109881
vn -0.97798372 0.17969701 0.10609823
vn 0.11109904 0.99179140 0.06329945
vn 0.01080048 0.84703744 0.53142349
vn -0.97798372 0.17969701 0.10609823
vn -0.43177671 0.13479273 -0.89185189
vn -0.58089607 -0.03569976 -0.81319449
vn -0.99823118 0.05900184 -0.00730023
vn 0.03019933 0.99867788 -0.04159908
vn -0.91811512 -0.39630653 0.00240004
vn -0.99823118 0.05900184 -0.00730023
vn -0.56961517 -0.16430438 -0.80532145
vn -0.58089607 -0.03569976 -0.81319449
vn 0.97294011 -0.22950946 0.02670110
vn 0.83794758 -0.54493094 -0.02990170
vn 0.47091521 -0.06570212 -0.87972842
vn 0.96551760 0.04730086 -0.25600467
vn 0.43909506 -0.23229739 -0.86789023
vn 0.97294011 -0.22950946 0.02670110
vn 0.86091752 -0.00590012 0.50871035
vn 0.96551760 0.04730086 -0.25600467
vn 0.66820997 0.73661099 0.10440156
vn 0.53060968 -0.13550247 0.83671527
vn 0.86091752 -0.00590012 0.50871035
vn 0.83794758 -0.54493094 -0.02990170
vn 0.74622368 -0.66472110 0.03600114
vn 0.97294011 -0.22950946 0.02670110
vn 0.46940896 -0.29760568 0.83131587
vn 0.35081515 0.07740334 -0.93324030
vn -0.03990062 -0.60880952 -0.79231238
vn -0.56961517 -0.16430438 -0.80532145
vn 0.43909506 -0.23229739 -0.86789023
vn -0.43177671 0.13479273 -0.89185189
vn 0.47091521 -0.06570212 -0.87972842
vn -0.58089607 -0.03569976 -0.81319449
vn 0.66820997 0.73661099 0.10440156
vn 0.11109904 0.99179140 0.06329945
vn 0.03109910 0.99867098 -0.04109881
vn 0.47091521 -0.06570212 -0.87972842
vn 0.96551760 0.04730086 -0.25600467
vn 0.35081515 0.07740334 -0.93324030
vn 0.03019933 0.99867788 -0.04159908
vn 0.35081515 0.07740334 -0.93324030
vn -0.43177671 0.13479273 -0.89185189
vt 0.00681400 0.79441900
vt 0.00681400 0.79441900
vt 0.00681400 0.79441900
vt 0.00681400 0.79441900
vt 0.01984100 0.83255800
vt 0.01984100 0.83255800
vt 0.01984100 0.83255800
vt 0.01984100 0.83255800
vt 0.01984100 0.83255800
vt 1.00000000 0.93701000
vt 1.00000000 0.93701000
vt 1.00000000 0.93701000
vt 1.00000000 0.55020000
vt 1.00000000 0.55020000
vt 1.00000000 0.55020000
vt 1.00000000 0.33336300
vt 1.00000000 0.33336300
vt 1.00000000 0.33336300
vt 1.00000000 0.33336300
vt 0.22335300 0.00733300
vt 0.22335300 0.00733300
vt 0.22335300 0.00733300
vt 0.22335300 0.00733300
vt 0.02909200 0.06022400
vt 0.02909200 0.06022400
vt 0.02909200 0.06022400
vt 0.02909200 0.06022400
vt 0.02909200 0.06022400
vt 0.00294800 0.04354900
vt 0.00294800 0.04354900
vt 0.00294800 0.04354900
vt 0.00294800 0.04354900
vt 0.00294800 0.04354900
vt 0.99287600 0.97507100
vt 0.99287600 0.97507100
vt 0.99287600 0.97507100
vt 0.99489200 0.22309300
vt 0.99489200 0.22309300
vt 0.99489200 0.22309300
vt 0.99489200 0.22309300
vt 0.27426500 0.47784800
vt 0.27426500 0.47784800
vt 0.27426500 0.47784800
vt 0.27426500 0.47784800
vt 0.52306700 0.83072600
vt 0.52306700 0.83072600
vt 0.52306700 0.83072600
vt 0.52306700 0.83072600
vt 0.52306700 0.83072600
vt 0.52306700 0.83072600
vt 0.00256100 0.57188500
vt 0.00256100 0.57188500
vt 0.00256100 0.57188500
vt 0.00256100 0.57188500
vt 0.00256100 0.57188500
vt 0.55778300 0.84764100
vt 0.55778300 0.84764100
vt 0.55778300 0.84764100
vt 0.55778300 0.84764100
vt 0.55778300 0.84764100
vt 1.00000000 0.35222200
vt 1.00000000 0.35222200
vt 1.00000000 0.35222200
vt 0.99996200 0.61970000
vt 0.99996200 0.61970000
vt 0.99996200 0.61970000
vt 1.00000000 0.60208800
vt 1.00000000 0.60208800
vt 1.00000000 0.60208800
vt 0.99806600 0.94644900
vt 0.99806600 0.94644900
vt 0.99806600 0.94644900
vt 0.99806600 0.94644900
vt 0.99806600 0.94644900
vt 1.00000000 0.32262700
vt 1.00000000 0.32262700
vt 1.00000000 0.32262700
vt 1.00000000 0.32262700
vt 0.49491400 0.13471700
vt 0.49491400 0.13471700
vt 0.49491400 0.13471700
vt 0.49491400 0.13471700
vt 0.49491400 0.13471700
vt 0.97093000 1.00000000
vt 0.97093000 1.00000000
vt 0.97093000 1.00000000
vt 0.97093000 1.00000000
vt 1.00000000 0.91396100
vt 1.00000000 0.91396100
vt 1.00000000 0.91396100
vt 1.00000000 0.91396100
vt 0.49568200 0.49734800
vt 0.49568200 0.49734800
vt 0.49568200 0.49734800
vt 0.49568200 0.49734800
vt 0.49568200 0.49734800
vt 0.49568200 0.49734800
vt 0.00009400 0.00000000
vt 0.00009400 0.00000000
vt 0.00009400 0.00000000
vt 0.00009400 0.02785600
vt 0.00009400 0.02785600
vt 0.00009400 0.02785600
vt 0.00009400 0.02785600
vt 0.51282100 0.11834600
vt 0.51282100 0.11834600
vt 0.51282100 0.11834600
vt 0.51282100 0.11834600
vt 0.51282100 0.11834600
vt 0.51282100 0.11834600
vt 0.62704300 0.67758500
vt 0.62704300 0.67758500
vt 0.62704300 0.67758500
vt 0.62704300 0.67758500
vt 0.62704300 0.67758500
vt 0.00000000 0.51604900
vt 0.00000000 0.51604900
vt 0.00000000 0.51604900
vt 0.00000000 0.51604900
vt 0.00009400 0.26889400
vt 0.00009400 0.26889400
vt 0.00009400 0.26889400
vt 0.00009400 0.26889400
vt 0.58541400 0.24595600
vt 0.58541400 0.24595600
vt 0.58541400 0.24595600
vt 0.58541400 0.24595600
vt 0.58541400 0.24595600
vt 0.58541400 0.24595600
vt 0.00006200 0.20633500
vt 0.00006200 0.20633500
vt 0.00006200 0.20633500
vt 0.91992300 0.95678500
vt 0.91992300 0.95678500
vt 0.91992300 0.95678500
vt 0.91992300 0.95678500
vt 0.00000000 0.05112500
vt 0.00000000 0.05112500
vt 0.00000000 0.05112500
vt 0.00000000 0.05112500
vt 0.00498500 0.78208600
vt 0.00498500 0.78208600
vt 0.00498500 0.78208600
vt 0.00498500 0.78208600
vt 0.00000000 0.13333300
vt 0.00000000 0.13333300
vt 0.00000000 0.13333300
vt 0.00000000 0.13333300
vt 0.00000000 0.13333300
vt 0.00003900 0.42903600
vt 0.00003900 0.42903600
vt 0.00483600 0.79588900
vt 0.00483600 0.79588900
vt 0.00483600 0.79588900
vt 0.00337700 0.47722200
vt 0.00337700 0.47722200
vt 0.00337700 0.47722200
vt 0.00337700 0.47722200
vt 0.84005500 0.96581100
vt 0.84005500 0.96581100
vt 0.84005500 0.96581100
vt 0.84005500 0.96581100
vt 0.84005500 0.96581100
vt 0.96374500 0.94662000
vt 0.96374500 0.94662000
vt 0.96374500 0.94662000
vt 0.96374500 0.94662000
vt 0.96374500 0.94662000
vt 0.98633900 0.09462000
vt 0.98633900 0.09462000
vt 0.98633900 0.09462000
vt 0.98633900 0.09462000
vt 0.98633900 0.09462000
vt 0.98633900 0.09462000
vt 0.99090500 0.46666700
vt 0.99090500 0.46666700
vt 0.99090500 0.46666700
vt 0.99090500 0.46666700
vt 0.99090500 0.46666700
vt 0.99090500 0.46666700
vt 0.92689300 0.17759200
vt 0.92689300 0.17759200
vt 0.92689300 0.17759200
vt 0.92689300 0.17759200
vt 0.92689300 0.17759200
vt 0.97092000 0.37508500
vt 0.97092000 0.37508500
vt 0.97092000 0.37508500
vt 0.97092000 0.37508500
vt 0.97092000 0.37508500
vt 0.97092000 0.37508500
vt 0.97092000 0.37508500
vt 0.91967400 0.82035900
vt 0.91967400 0.82035900
vt 0.91967400 0.82035900
vt 0.91967400 0.82035900
vt 0.91967400 0.82035900
vt 0.94596100 0.15073400
vt 0.94596100 0.15073400
vt 0.94596100 0.15073400
vt 0.94596100 0.15073400
vt 0.03655500 0.01328700
vt 0.03655500 0.01328700
vt 0.03655500 0.01328700
vt 0.03655500 0.01328700
vt 0.92132600 0.58148600
vt 0.92132600 0.58148600
vt 0.92132600 0.58148600
vt 0.92132600 0.58148600
vt 0.92132600 0.58148600
vt 1.00000000 0.12048200
vt 1.00000000 0.12048200
vt 1.00000000 0.12048200
vt 1.00000000 0.12048200
vt 0.44152500 0.98107900
vt 0.44152500 0.98107900
vt 0.44152500 0.98107900
vt 0.44152500 0.98107900
vt 0.96405700 0.08601100
vt 0.96405700 0.08601100
vt 0.96405700 0.08601100
vt 0.96405700 0.08601100
vt 0.96405700 0.08601100
vt 0.96405700 0.08601100
vt 0.00979700 0.98092100
vt 0.00979700 0.98092100
vt 0.00979700 0.98092100
vt 0.05238600 0.99313700
vt 0.05238600 0.99313700
vt 0.05238600 0.99313700
vt 0.05238600 0.99313700
vt 0.39700300 1.00000000
vt 0.39700300 1.00000000
vt 0.91340200 0.05153900
vt 0.91340200 0.05153900
vt 0.91340200 0.05153900
vt 0.91340200 0.05153900
vt 0.48347300 0.43084200
vt 0.95934600 0.16958300
vt 0.95934600 0.16958300
vt 0.95934600 0.16958300
vt 0.95934600 0.16958300
vt 0.40222700 0.99998400
vt 0.40222700 0.99998400
vt 0.40222700 0.99998400
vt 0.97374000 0.16387800
vt 0.97374000 0.16387800
vt 0.97374000 0.16387800
vt 0.97374000 0.16387800
vt 0.30026700 0.99906900
vt 0.30026700 0.99906900
vt 0.88675400 0.06273200
vt 0.88675400 0.06273200
vt 0.88675400 0.06273200
vt 0.88675400 0.06273200
vt 0.00432600 1.00487900
vt 0.00432600 1.00487900
vt 0.94753000 0.02234800
vt 0.94753000 0.02234800
vt 0.94753000 0.02234800
vt 0.94753000 0.02234800
vt 0.94753000 0.02234800
vt 0.04142500 0.93027600
vt 0.04142500 0.93027600
vt 0.04142500 0.93027600
vt 0.96360300 0.97887100
vt 0.96360300 0.97887100
vt 0.96360300 0.97887100
vt 0.30999000 0.94624400
vt 0.30999000 0.94624400
vt 0.30999000 0.94624400
vt 0.61593000 0.90801000
vt 0.61593000 0.90801000
vt 0.00936200 0.06843100
vt 0.00936200 0.06843100
vt 0.00936200 0.06843100
vt 0.00936200 0.06843100
vt 0.00936200 0.06843100
vt 0.60954700 0.05001000
vt 0.02125700 0.84244100
vt 0.02125700 0.84244100
vt 0.02125700 0.84244100
vt 0.02125700 0.84244100
vt 0.97362700 0.04105300
vt 0.97362700 0.04105300
vt 0.97362700 0.04105300
vt 0.97362700 0.04105300
vt 0.12578800 0.81282200
vt 0.12578800 0.81282200
vt 0.12578800 0.81282200
vt 0.52438900 0.92329800
vt 0.52438900 0.92329800
vt 0.52438900 0.92329800
vt 0.52438900 0.92329800
vt 0.52438900 0.92329800
vt 0.27046000 0.12509500
vt 0.27046000 0.12509500
vt 0.27046000 0.12509500
vt 0.53477400 0.03569200
vt 0.53477400 0.03569200
vt 0.53477400 0.03569200
vt 0.53477400 0.03569200
vt 0.75057900 0.97524100
vt 0.75057900 0.97524100
vt 0.75057900 0.97524100
vt 0.83267000 0.12382800
vt 0.83267000 0.12382800
vt 0.83267000 0.12382800
vt 0.87483700 0.16399300
vt 0.87483700 0.16399300
vt 0.87483700 0.16399300
vt 0.05283200 0.39943100
vt 0.05283200 0.39943100
vt 0.83266400 0.77843100
vt 0.83266400 0.77843100
vt 0.26672400 1.00000000
vt 0.26672400 1.00000000
vt 0.26672400 1.00000000
vt 0.10714800 0.14783400
vt 0.10714800 0.14783400
vt 0.10714800 0.14783400
vt 0.26672400 0.00000000
vt 0.26672400 0.00000000
vt 0.26672400 0.00000000
vt 0.98418000 0.72972700
vt 0.98418000 0.72972700
vt 0.32478300 0.91274700
vt 0.32478300 0.91274700
vt 0.32478300 0.91274700
vt 0.32478300 0.91274700
vt 0.01391400 0.75273400
vt 0.01391400 0.75273400
vt 0.01391400 0.75273400
vt 0.01391400 0.75273400
vt 0.98934600 0.14115200
vt 0.98934600 0.14115200
vt 0.98934600 0.14115200
vt 0.98934600 0.14115200
vt 0.98934600 0.14115200
vt 0.98934600 0.14115200
vt 0.46378500 0.03726700
vt 0.46378500 0.03726700
vt 0.46378500 0.03726700
vt 0.46378500 0.03726700
vt 0.46378500 0.03726700
vt 0.46378500 0.03726700
vt 0.46378500 0.03726700
vt 0.97786700 0.15158700
vt 0.97786700 0.15158700
vt 0.97786700 0.15158700
vt 0.10574200 0.00527400
vt 0.10574200 0.00527400
vt 0.10574200 0.00527400
vt 0.10574200 0.00527400
vt 0.10574200 0.00527400
vt 0.10689600 0.00000000
vt 0.10689600 0.00000000
vt 0.10689600 0.00000000
vt 0.99624400 0.78744600
vt 0.99624400 0.78744600
vt 0.99624400 0.78744600
vt 0.99624400 0.78744600
vt 0.99624400 0.78744600
vt 0.99624400 0.78744600
vt 0.99624400 0.78744600
vt 0.98868800 0.75709800
vt 0.98868800 0.75709800
vt 0.98868800 0.75709800
vt 0.98868800 0.75709800
vt 0.47581700 0.00000000
vt 0.47581700 0.00000000
vt 0.47581700 0.00000000
vt 0.47581700 0.00000000
vt 0.47581700 0.00000000
vt 0.25269200 0.98891100
vt 0.25269200 0.98891100
vt 0.25269200 0.98891100
vt 0.25269200 0.98891100
vt 0.25269200 0.98891100
vt 0.19420000 0.99991100
vt 0.19420000 0.99991100
vt 0.19420000 0.99991100
vt 0.19420000 0.99991100
vt 0.00000000 0.71261800
vt 0.00000000 0.71261800
vt 0.00000000 0.71261800
vt 0.00000000 0.71261800
vt 0.00000000 0.71261800
vt 0.28580300 0.78713200
vt 0.28580300 0.78713200
vt 0.28580300 0.78713200
vt 0.28580300 0.78713200
vt 0.28580300 0.78713200
vt 0.28580300 0.78713200
vt 0.00570800 0.72195100
vt 0.00570800 0.72195100
vt 0.00570800 0.72195100
vt 0.00570800 0.72195100
vt 0.00570800 0.72195100
vt 0.00570800 0.72195100
vt 0.07347500 0.99991100
vt 0.07347500 0.99991100
vt 0.07347500 0.99991100
vt 0.07347500 0.99991100
vt 0.49520100 1.00000000
vt 0.49520100 1.00000000
vt 0.43631600 1.00000000
vt 0.43631600 1.00000000
vt 0.43631600 1.00000000
vt 0.43631600 1.00000000
vt 0.90281500 0.26438800
vt 0.90281500 0.26438800
vt 0.90281500 0.26438800
vt 0.90281500 0.26438800
vt 0.93657100 0.73804300
vt 0.93657100 0.73804300
vt 0.93657100 0.73804300
vt 0.93657100 0.73804300
vt 0.93657100 0.73804300
vt 0.93657100 0.73804300
vt 0.93657100 0.73804300
vt 0.78727400 0.29266800
vt 0.78727400 0.29266800
vt 0.78727400 0.29266800
vt 0.77893900 0.74132200
vt 0.77893900 0.74132200
vt 0.77893900 0.74132200
vt 0.26930200 0.24973500
vt 0.26930200 0.24973500
vt 0.26930200 0.24973500
vt 0.30141900 0.76082200
vt 0.30141900 0.76082200
vt 0.30141900 0.76082200
vt 0.47577700 1.00000000
vt 0.47577700 1.00000000
vt 0.47577700 1.00000000
vt 0.47577700 1.00000000
vt 0.47577700 1.00000000
vt 0.47577700 1.00000000
vt 0.59014800 1.00000000
vt 0.59014800 1.00000000
vt 0.59014800 1.00000000
vt 0.59014800 1.00000000
vt 0.18919600 0.89143900
vt 0.18919600 0.89143900
vt 0.18919600 0.89143900
vt 0.18919600 0.89143900
vt 0.18919600 0.89143900
vt 0.18919600 0.89143900
vt 0.86107200 0.77984700
vt 0.86107200 0.77984700
vt 0.86107200 0.77984700
vt 0.86107200 0.77984700
vt 0.86107200 0.77984700
vt 0.87955100 0.26858700
vt 0.87955100 0.26858700
vt 0.87955100 0.26858700
vt 0.87955100 0.26858700
vt 0.87955100 0.26858700
vt 0.96726500 0.28328600
vt 0.96726500 0.28328600
vt 0.96726500 0.28328600
vt 0.96726500 0.28328600
vt 0.08695400 0.24762000
vt 0.08695400 0.24762000
vt 0.08695400 0.24762000
vt 0.08695400 0.24762000
vt 0.08695400 0.24762000
vt 0.00000000 0.58324700
vt 0.00000000 0.58324700
vt 0.00000000 0.58324700
vt 0.00000000 0.58324700
vt 0.12322800 0.75034200
vt 0.12322800 0.75034200
vt 0.12322800 0.75034200
vt 0.12322800 0.75034200
vt 0.12322800 0.75034200
vt 0.12322800 0.75034200
vt 0.54753300 0.02892300
vt 0.54753300 0.02892300
vt 0.54753300 0.02892300
vt 0.54753300 0.02892300
vt 0.54753300 0.02892300
vt 0.54753300 0.02892300
vt 0.54753300 0.02892300
vt 0.13948100 0.19676100
vt 0.13948100 0.19676100
vt 0.13948100 0.19676100
vt 0.13948100 0.19676100
vt 0.13948100 0.19676100
vt 0.13948100 0.19676100
vt 0.49693600 0.04652700
vt 0.49693600 0.04652700
vt 0.49693600 0.04652700
f 12/12/12 13/13/13 17/17/17
f 29/29/29 23/23/23 24/24/24
f 13/13/13 12/12/12 35/35/35
f 35/35/35 3/3/3 13/13/13
f 4/4/4 27/27/27 14/14/14
f 43/43/43 12/12/12 17/17/17
f 44/44/44 31/31/31 9/9/9
f 11/11/11 41/41/41 8/8/8
f 42/42/42 18/18/18 32/32/32
f 17/17/17 13/13/13 40/40/40
f 25/25/25 21/21/21 39/39/39
f 15/15/15 26/26/26 37/37/37
f 33/33/33 28/28/28 2/2/2
f 16/16/16 38/38/38 20/20/20
f 30/30/30 19/19/19 22/22/22
f 34/34/34 10/10/10 7/7/7
f 36/36/36 5/5/5 1/1/1
f 33/33/33 2/2/2 6/6/6
f 48/48/48 54/54/54 56/56/56
f 62/62/62 66/66/66 69/69/69
f 69/69/69 66/66/66 71/71/71
f 66/66/66 62/62/62 78/78/78
f 81/81/81 64/64/64 76/76/76
f 87/87/87 73/73/73 90/90/90
f 71/71/71 66/66/66 88/88/88
f 52/52/52 93/93/93 58/58/58
f 98/98/98 101/101/101 107/107/107
f 77/77/77 63/63/63 108/108/108
f 65/65/65 79/79/79 112/112/112
f 121/121/121 116/116/116 113/113/113
f 79/79/79 120/120/120 112/112/112
f 126/126/126 68/68/68 94/94/94
f 131/131/131 128/128/128 96/96/96
f 102/102/102 100/100/100 130/130/130
f 118/118/118 102/102/102 130/130/130
f 53/53/53 118/118/118 130/130/130
f 95/95/95 55/55/55 132/132/132
f 109/109/109 104/104/104 82/82/82
f 75/75/75 110/110/110 80/80/80
f 97/97/97 67/67/67 72/72/72
f 59/59/59 92/92/92 74/74/74
f 69/69/69 129/129/129 62/62/62
f 118/118/118 123/123/123 102/102/102
f 122/122/122 83/83/83 103/103/103
f 114/114/114 117/117/117 49/49/49
f 91/91/91 115/115/115 50/50/50
f 84/84/84 89/89/89 46/46/46
f 45/45/45 119/119/119 51/51/51
f 130/130/130 100/100/100 125/125/125
f 99/99/99 106/106/106 124/124/124
f 105/105/105 61/61/61 127/127/127
f 111/111/111 88/88/88 66/66/66
f 70/70/70 86/86/86 60/60/60
f 85/85/85 47/47/47 57/57/57
f 137/137/137 143/143/143 146/146/146
f 143/143/143 137/137/137 151/151/151
f 152/152/152 143/143/143 151/151/151
f 146/146/146 143/143/143 158/158/158
f 160/160/160 144/144/144 153/153/153
f 136/136/136 162/162/162 154/154/154
f 163/163/163 133/133/133 165/165/165
f 171/171/171 180/180/180 184/184/184
f 183/183/183 151/151/151 137/137/137
f 172/172/172 201/201/201 189/189/189
f 196/196/196 168/168/168 190/190/190
f 167/167/167 179/179/179 191/191/191
f 178/178/178 174/174/174 186/186/186
f 139/139/139 149/149/149 205/205/205
f 164/164/164 197/197/197 161/161/161
f 195/195/195 141/141/141 159/159/159
f 181/181/181 138/138/138 173/173/173
f 140/140/140 204/204/204 170/170/170
f 203/203/203 200/200/200 169/169/169
f 148/148/148 192/192/192 199/199/199
f 202/202/202 147/147/147 198/198/198
f 150/150/150 185/185/185 208/208/208
f 182/182/182 175/175/175 206/206/206
f 156/156/156 142/142/142 193/193/193
f 210/210/210 152/152/152 151/151/151
f 154/154/154 209/209/209 136/136/136
f 187/187/187 145/145/145 155/155/155
f 194/194/194 188/188/188 157/157/157
f 177/177/177 166/166/166 134/134/134
f 207/207/207 176/176/176 135/135/135
f 211/211/211 215/215/215 223/223/223
f 226/226/226 216/216/216 229/229/229
f 216/216/216 226/226/226 232/232/232
f 221/221/221 218/218/218 233/233/233
f 214/214/214 231/231/231 217/217/217
f 225/225/225 230/230/230 234/234/234
f 238/238/238 227/227/227 237/237/237
f 213/213/213 235/235/235 228/228/228
f 236/236/236 212/212/212 219/219/219
f 227/227/227 238/238/238 224/224/224
f 232/232/232 226/226/226 220/220/220
f 237/237/237 222/222/222 238/238/238
f 247/247/247 240/240/240 243/243/243
f 249/249/249 251/251/251 262/262/262
f 250/250/250 245/245/245 257/257/257
f 255/255/255 259/259/259 265/265/265
f 257/257/257 264/264/264 250/250/250
f 260/260/260 250/250/250 264/264/264
f 252/252/252 257/257/257 245/245/245
f 256/256/256 254/254/254 263/263/263
f 246/246/246 261/261/261 242/242/242
f 258/258/258 253/253/253 239/239/239
f 252/252/252 244/244/244 241/241/241
f 250/250/250 248/248/248 245/245/245
f 268/268/268 271/271/271 272/272/272
f 275/275/275 279/279/279 280/280/280
f 280/280/280 279/279/279 272/272/272
f 280/280/280 272/272/272 271/271/271
f 296/296/296 300/300/300 278/278/278
f 273/273/273 286/286/286 266/266/266
f 269/269/269 292/292/292 281/281/281
f 295/295/295 290/290/290 282/282/282
f 287/287/287 301/301/301 291/291/291
f 299/299/299 297/297/297 293/293/293
f 298/298/298 289/289/289 294/294/294
f 287/287/287 291/291/291 267/267/267
f 274/274/274 283/283/283 288/288/288
f 298/298/298 276/276/276 289/289/289
f 291/291/291 270/270/270 267/267/267
f 272/272/272 279/279/279 284/284/284
f 279/279/279 275/275/275 284/284/284
f 277/277/277 302/302/302 285/285/285
f 309/309/309 313/313/313 315/315/315
f 317/317/317 319/319/319 306/306/306
f 313/313/313 309/309/309 322/322/322
f 310/310/310 307/307/307 324/324/324
f 311/311/311 326/326/326 308/308/308
f 315/315/315 313/313/313 329/329/329
f 314/314/314 327/327/327 303/303/303
f 317/317/317 306/306/306 304/304/304
f 330/330/330 318/318/318 305/305/305
f 323/323/323 306/306/306 319/319/319
f 322/322/322 321/321/321 313/313/313
f 325/325/325 309/309/309 315/315/315
f 313/313/313 331/331/331 329/329/329
f 332/332/332 316/316/316 328/328/328
f 319/319/319 317/317/317 333/333/333
f 312/312/312 320/320/320 334/334/334
f 325/325/325 315/315/315 304/304/304
f 306/306/306 325/325/325 304/304/304
f 338/338/338 347/347/347 349/349/349
f 353/353/353 357/357/357 346/346/346
f 336/336/336 359/359/359 368/368/368
f 353/353/353 346/346/346 370/370/370
f 362/362/362 340/340/340 348/348/348
f 382/382/382 385/385/385 389/389/389
f 399/399/399 388/388/388 401/401/401
f 376/376/376 398/398/398 403/403/403
f 350/350/350 344/344/344 360/360/360
f 361/361/361 377/377/377 406/406/406
f 409/409/409 364/364/364 405/405/405
f 378/378/378 404/404/404 405/405/405
f 354/354/354 371/371/371 390/390/390
f 387/387/387 355/355/355 394/394/394
f 365/365/365 410/410/410 369/369/369
f 373/373/373 345/345/345 335/335/335
f 366/366/366 412/412/412 337/337/337
f 413/413/413 374/374/374 339/339/339
f 400/400/400 358/358/358 352/352/352
f 384/384/384 397/397/397 351/351/351
f 381/381/381 392/392/392 408/408/408
f 405/405/405 404/404/404 409/409/409
f 391/391/391 367/367/367 407/407/407
f 375/375/375 363/363/363 341/341/341
f 386/386/386 383/383/383 402/402/402
f 380/380/380 409/409/409 404/404/404
f 343/343/343 356/356/356 395/395/395
f 379/379/379 342/342/342 396/396/396
f 414/414/414 367/367/367 391/391/391
f 372/372/372 411/411/411 393/393/393
f 415/415/415 422/422/422 427/427/427
f 422/422/422 428/428/428 431/431/431
f 438/438/438 443/443/443 418/418/418
f 440/440/440 447/447/447 454/454/454
f 422/422/422 431/431/431 427/427/427
f 439/439/439 421/421/421 426/426/426
f 460/460/460 423/423/423 417/417/417
f 458/458/458 461/461/461 416/416/416
f 463/463/463 457/457/457 485/485/485
f 449/449/449 472/472/472 486/486/486
f 453/453/453 446/446/446 487/487/487
f 459/459/459 451/451/451 492/492/492
f 451/451/451 488/488/488 492/492/492
f 433/433/433 478/478/478 437/437/437
f 425/425/425 432/432/432 436/436/436
f 489/489/489 466/466/466 484/484/484
f 468/468/468 429/429/429 482/482/482
f 462/462/462 481/481/481 424/424/424
f 480/480/480 428/428/428 422/422/422
f 475/475/475 430/430/430 465/465/465
f 469/469/469 477/477/477 464/464/464
f 490/490/490 471/471/471 467/467/467
f 483/483/483 456/456/456 494/494/494
f 491/491/491 479/479/479 493/493/493
f 420/420/420 441/441/441 450/450/450
f 455/455/455 419/419/419 452/452/452
f 474/474/474 470/470/470 444/444/444
f 442/442/442 434/434/434 448/448/448
f 435/435/435 473/473/473 445/445/445
f 428/428/428 476/476/476 431/431/431