# https://github.com/mikedh/trimesh
v 0.07111019 0.00342664 -0.00521850
v 0.15838414 -0.00206334 -0.00608150
v 0.15777179 -0.00206758 -0.00564950
v 0.15106205 0.00648063 -0.00608150
v 0.07171831 0.00037477 -0.00003850
v 0.06622338 -0.00206829 -0.00651250
v 0.14740136 0.00525380 -0.00910250
v 0.06500221 -0.00328946 -0.00176550
v 0.14678971 -0.00267781 -0.00780750
v 0.13091941 0.00037830 -0.00219750
v 0.07080189 0.00311834 -0.00133450
v 0.12786753 0.00036982 -0.00910250
v 0.06927737 0.00159382 -0.00694350
v 0.14831777 -0.00298399 -0.00435550
v 0.11687980 0.00281428 -0.00176550
v 0.06469886 -0.00359281 -0.00392450
v 0.15960602 0.00403475 -0.00823950
v 0.06713767 -0.00115400 -0.00003850
v 0.14617524 0.00647993 -0.00780750
v 0.07537900 0.00403546 -0.00349250
v 0.14770329 0.00617375 -0.00521850
v 0.15960461 -0.00023476 -0.00564950
v 0.14678547 -0.00329017 -0.00694450
v 0.07354900 0.00281499 -0.00651250
v 0.15869173 0.00555574 -0.00694450
v 0.13031271 0.00220688 -0.00219750
v 0.15777179 -0.00206758 -0.00737550
v 0.14770471 -0.00237093 -0.00392450
v 0.07476876 0.00281711 -0.00090250
v 0.14678547 -0.00329017 -0.00521850
v 0.07355113 -0.00328663 -0.00521850
v 0.12848130 0.00219981 -0.00910250
v 0.06683078 -0.00206899 -0.00047050
v 0.06744455 -0.00023900 -0.00694350
v 0.15564057 0.00372928 -0.00867050
v 0.07202519 0.00373352 -0.00521850
v 0.12787036 -0.00084499 -0.00867050
v 0.14739924 0.00647781 -0.00564950
v 0.15808008 0.00556069 -0.00823950
v 0.06866643 0.00098288 -0.00003850
v 0.10407268 -0.00084711 -0.00133450
v 0.14556429 0.00586899 -0.00867050
v 0.08026228 -0.00206970 -0.00694350
v 0.13397340 0.00098995 -0.00910250
v 0.16021625 -0.00023122 -0.00737550
v 0.12084667 0.00006930 -0.00176550
v 0.07141284 0.00372928 -0.00262950
v 0.06439480 -0.00328875 -0.00306050
v 0.06469886 -0.00359281 -0.00306050
v 0.12115568 0.00220405 -0.00176550
v 0.15838838 0.00525239 -0.00651250
v 0.11108648 0.00311481 -0.00176550
v 0.16022050 0.00281499 -0.00651250
v 0.06897332 -0.00115258 -0.00694350
v 0.13885456 0.00098500 -0.00306150
v 0.13092223 0.00342452 -0.00262950
v 0.13702244 -0.00084711 -0.00867050
v -0.04946071 0.01228174 -0.00176050
v -0.01191758 -0.01793576 0.00211650
v -0.01345059 -0.01763171 0.00470850
v 0.01767767 0.01227608 0.00211650
v 0.00089803 -0.00512016 -0.01773650
v -0.04060561 0.00342664 0.01765950
v -0.04854429 -0.01427436 -0.00737350
v -0.04061126 0.00891944 -0.01341550
v 0.00333684 -0.00268135 0.01549750
v -0.04579577 -0.01091631 0.01420150
v -0.00063074 0.01350079 -0.01082450
v -0.00277044 0.01380202 0.00902150
v -0.04488290 -0.00390111 -0.01600350
v -0.05678704 -0.00115400 0.00168750
v -0.03969415 0.01593889 0.00211650
v -0.03970122 -0.01823982 -0.00607750
v 0.00089237 0.00526158 -0.01729950
v -0.04670794 0.00952897 0.01204350
v -0.04519119 -0.01762746 0.00557050
v -0.00795283 -0.01274348 -0.01341550
v 0.01615315 0.01014203 -0.00953150
v -0.00032668 0.01624578 -0.00305650
v -0.00185121 -0.00786939 0.01549750
v 0.00119784 0.00495611 0.01549750
v -0.05281522 0.00159170 -0.00996450
v -0.04000386 -0.01244013 -0.01341550
v -0.04060490 0.01441154 -0.00651050
v -0.03939221 -0.01610082 0.01118050
v -0.05343111 -0.00450993 0.01074750
v -0.04091744 -0.00664751 0.01765950
v -0.03999750 0.01197415 0.01204350
v -0.05281522 -0.01183343 0.00470450
v -0.05342616 -0.00817345 -0.00737350
v -0.04152131 0.00373140 -0.01600350
v -0.01069782 -0.01671600 -0.00780250
v -0.03969697 -0.01946311 0.00297950
v 0.01401415 0.00800303 0.00945450
v -0.05281946 0.00525451 0.00945150
v -0.00246144 0.01594243 0.00427550
v -0.00093621 0.00952826 0.01334250
v -0.04884976 -0.00054518 0.01549750
v -0.00764877 -0.01366696 0.01118350
v -0.00857013 -0.00603798 -0.01773650
v -0.03999537 0.01502107 0.00686650
v -0.04793618 0.00830780 -0.01082450
v -0.00215809 0.00281358 0.01636350
v -0.05373022 0.00678469 -0.00348950
v -0.03878269 -0.01305036 0.01420150
v -0.00124097 0.01044397 -0.01428150
v 0.00913158 0.00312046 -0.01600750
v -0.04853934 0.01257943 0.00470850
v 0.01767767 0.01227608 -0.00478150
v -0.04793335 -0.01671530 -0.00219350
v -0.01009183 0.00526017 -0.01729950
v -0.04885118 -0.00848033 -0.01255350
v -0.01345059 -0.01824123 -0.00219350
v -0.03969697 -0.01640558 -0.00952850
v -0.03969273 -0.00664327 -0.01643750
v -0.04030297 0.00800162 0.01549750
v -0.04060702 0.01136462 -0.01126050
v -0.00154574 0.01502673 -0.00823950
v -0.03999891 0.01563413 -0.00262650
v -0.05373092 0.00739492 0.00254650
v -0.05037429 -0.00023971 -0.01298650
v -0.00490096 -0.01091914 0.01334050
v 0.00334037 -0.00267781 -0.01730450
v 0.00548078 -0.00053740 -0.01687150
v 0.03752191 0.00891732 -0.01082750
v 0.01433093 -0.01427366 -0.00391750
v 0.01799092 0.01197273 0.00298050
v 0.03507886 0.00647427 0.00816050
v -0.01069640 -0.01732694 -0.00607850
v 0.02164807 -0.00695652 -0.01298550
v 0.01981879 -0.00878580 0.00859350
v 0.00791960 0.00190141 0.01420350
v -0.00245437 -0.01762959 0.00513850
v 0.01615739 0.01013920 -0.00996350
v -0.00123744 -0.01274984 -0.01384950
v 0.03904856 0.01105632 -0.00348950
v 0.00517107 -0.00634133 0.01463750
v 0.00181444 -0.01702077 -0.00651150
v -0.01100258 -0.01702077 0.00513850
v 0.03813215 0.01013991 0.00470850
v 0.03111341 0.00250881 -0.01341550
v -0.00093126 -0.00694945 -0.01730450
v 0.01371434 0.00769615 0.00988750
v -0.00001485 -0.01397243 0.01074850
v 0.01829356 0.01227537 -0.00478450
v 0.01555069 -0.01305390 0.00427750
v 0.00913582 0.00311763 -0.01600750
v 0.02409113 -0.00451346 0.00988750
v 0.00151109 -0.01793647 -0.00090150
v 0.01707663 -0.01152796 -0.00953350
v 0.03904856 0.01105632 -0.00780550
v -0.00978070 -0.01824265 -0.00133250
v 0.00303702 -0.00359352 0.01550150
v -0.00947594 -0.01549412 -0.00953350
v 0.03507957 0.00708733 -0.01255550
v 0.00029133 -0.01488389 -0.01126150
v 0.00242679 -0.01030750 0.01334050
v 0.02256731 -0.00481540 -0.01384950
v 0.01341169 0.00739351 -0.01298550
v 0.00181585 -0.01640841 0.00643550
v -0.00978353 -0.01641407 0.00729650
v 0.01951898 0.01227750 0.00125250
v 0.00395343 -0.00450993 -0.01730450
v -0.00214819 -0.01793576 -0.00521750
v 0.01615739 0.01013920 0.00686250
v 0.00395202 -0.01732553 0.00082250
v -0.00123814 -0.00725633 0.01550150
v 0.03904785 0.01044326 0.00255050
v -0.00276408 -0.01610931 -0.00996350
v 0.00151179 -0.01061297 -0.01514350
v -0.00337290 -0.01061438 -0.01557750
v 0.03691239 0.00892015 0.00643250
v 0.01066176 0.00464357 0.01247950
v 0.00242679 -0.01336078 -0.01255550
v -0.00184272 -0.01824123 0.00255050
v 0.00394778 -0.01427649 0.00902450
v 0.03721574 0.00922350 -0.01082750
v 0.03874167 0.01074944 0.00255050
v 0.02287137 -0.00573322 0.00988750
v -0.01131017 -0.01794071 0.00211650
v -0.00245790 -0.01152938 0.01334050
v 0.01433093 -0.01427366 0.00082250
v 0.02195708 -0.00298470 0.01074850
v 0.00303632 -0.01762888 -0.00262650
v 0.00395202 -0.01244649 0.01118250
v 0.03355929 -0.00359140 0.00902550
v 0.04301755 0.00525592 -0.01428350
v 0.04332302 0.00495045 -0.01428350
v 0.01524734 -0.01335725 -0.00564750
v 0.03935474 0.01075014 0.00341350
v 0.05064511 0.01227255 0.00557050
v 0.03782809 0.00922350 -0.01082950
v 0.02745342 -0.01091914 -0.00910050
v 0.02226538 -0.00633921 0.00945550
v 0.02745342 -0.01091914 0.00514050
v 0.02318037 -0.00542422 -0.01341650
v 0.05034247 0.01441225 -0.00694150
v 0.03538645 0.00678186 0.00815850
v 0.01524522 -0.01397031 0.00125450
v 0.04942606 0.01105349 -0.01298650
v 0.04301613 0.00464357 0.00902550
v 0.03081006 -0.00756251 -0.01255450
v 0.04942464 0.01471631 -0.00003950
v 0.03172505 0.00312046 -0.01341850
v 0.03996568 0.01136108 -0.00651150
v 0.01829851 -0.01091702 -0.00996250
v 0.01768898 -0.01091561 0.00643450
v 0.02989506 -0.00847750 0.00772950
v 0.02013133 -0.01335795 -0.00348850
v 0.05186770 0.01349513 -0.00607950
v 0.04973153 0.01196990 0.00643450
v 0.04912059 0.01441225 -0.00737650
v 0.03264217 0.00159523 0.00945350
v 0.02592890 -0.01183272 0.00341350
v 0.04851247 0.01075085 -0.01341850
v 0.03569334 0.00708875 -0.01255650
v 0.03233811 -0.00237022 -0.01385050
v 0.04881582 0.01288561 -0.01082950
v 0.03081430 0.00159877 -0.01385050
v 0.01585687 -0.01335866 0.00341350
v 0.05003558 0.01410537 0.00254950
v 0.01555281 -0.01366272 -0.00564750
v 0.03264358 -0.00267569 0.00945350
v 0.01890945 -0.01030608 0.00729950
v 0.03843903 0.00983444 0.00514050
v 0.04851247 0.01075085 0.00729950
v 0.05156223 0.01380060 0.00082250
v 0.02378990 -0.00664751 0.00945550
v 0.02226396 -0.00695157 -0.01298650
v 0.01494117 -0.01427436 -0.00003950
v 0.04088138 0.00250881 -0.01428350
v 0.03965879 0.01105420 -0.00823850
v 0.02684248 -0.01153008 -0.00219650
v 0.03782809 0.00617021 0.00859350
v 0.05033964 0.01257802 -0.01125950
v 0.01463570 -0.01396889 -0.00003950
v 0.02165585 -0.01305248 0.00082250
v 0.04942606 0.01410678 0.00254950
v 0.05064652 0.01471631 -0.00090150
v 0.04942464 0.01471631 -0.00521750
v 0.05003700 -0.00115258 0.01204750
v 0.04942535 0.00189858 -0.01773350
v 0.04942889 0.00434022 -0.01729950
v 0.02714724 -0.01122532 0.00341350
v 0.05125817 0.01288561 0.00427350
v 0.04179991 -0.01183343 -0.00737250
v 0.05827903 0.00464569 -0.00953050
v 0.03111765 -0.00725492 -0.01255650
v 0.05034247 0.01196990 -0.01212150
v 0.04423943 -0.00939391 0.00643650
v 0.05705645 0.00342310 0.00686450
v 0.04820700 -0.00542634 -0.01686750
v 0.03996709 0.00159453 0.00902150
v 0.05675380 0.01044750 -0.00090450
v 0.02836912 -0.01061438 -0.00953350
v 0.03081076 -0.00817274 0.00772750
v 0.05034176 0.00830638 0.00988450
v 0.04149373 -0.01213961 0.00168450
v 0.04973294 -0.00390040 0.01161050
v 0.05614074 0.00250740 -0.01384750
v 0.04790012 0.00952756 -0.01427850
v 0.05553405 0.01105491 -0.00651050
v 0.05705715 0.00769898 0.00427350
v 0.05217458 0.01380202 -0.00348950
v 0.04973436 0.00403475 0.01161050
v 0.05858309 0.00556069 0.00211550
v 0.02745271 -0.01153079 0.00039050
v 0.05614286 0.00739422 -0.01125850
v 0.05064794 0.00861256 -0.01514150
v 0.04881653 0.01044397 0.00772750
v 0.04149232 0.00250881 -0.01471050
v 0.04790083 0.00098359 -0.01773350
v 0.04240731 -0.01122603 -0.00909850
v 0.02775889 -0.01122461 0.00427650
v 0.05247722 0.00189858 0.01117950
v 0.05095270 -0.00268064 -0.01729950
v 0.05827903 0.00708945 -0.00564750
v 0.02959100 -0.00939250 0.00686450
v 0.03050529 -0.00786727 0.00772750
v 0.05491886 0.00556069 0.00815950
v 0.05126029 0.01044397 0.00772750
v 0.05095341 0.00281570 -0.01729950
v 0.05186911 -0.00176423 0.01161050
v 0.02806507 -0.01091844 -0.00866750
v 0.04790366 -0.00572969 0.01031650
v 0.04912271 0.00037406 0.01204750
v 0.04820559 -0.00115258 -0.01773350
v 0.04881582 0.00678045 -0.01643650
v 0.04179850 0.00281499 0.00945350
v 0.04698795 -0.00664539 -0.01557650
v 0.05614428 0.01044467 0.00168450
v 0.02775960 -0.01061297 -0.00866750
v 0.05614286 0.00922562 -0.00909850
v 0.04149373 -0.01213961 -0.00305850
v 0.05156435 0.01319178 -0.00823550
v 0.03081289 -0.00878156 -0.01169050
v 0.04698654 0.00189787 -0.01729950
v 0.04271349 -0.01091985 0.00427650
v 0.05217458 0.01380202 -0.00133550
v 0.05645046 0.01075085 -0.00435250
v 0.04851177 0.00281216 0.01161050
v 0.05858521 0.00678328 -0.00047250
v 0.05522575 0.00464711 -0.01384750
v 0.05156223 0.00281358 0.01161050
v 0.05492098 0.00128764 -0.01471450
v 0.04210538 -0.01214032 0.00168550
v 0.04179920 -0.01183414 0.00168550
v 0.05644904 0.00220193 0.00816250
v 0.05675239 -0.01092126 -0.00435350
v 0.04882077 -0.00969726 -0.01471450
v 0.05065077 -0.01396960 0.00341250
v 0.06133020 -0.00267923 -0.00219850
v 0.04973223 -0.00390111 0.01161650
v 0.05705715 -0.00695227 0.00513950
v 0.04942959 -0.01457983 -0.00737650
v 0.04240873 -0.01122461 -0.00867050
v 0.05614074 -0.00725774 -0.01169050
v 0.04912412 -0.00450922 -0.01730450
v 0.05614216 0.00250881 -0.01341750
v 0.05034530 -0.01061226 0.00816250
v 0.05675310 -0.00298540 0.00772950
v 0.05644692 -0.00329158 -0.01341750
v 0.05034600 -0.01305248 -0.01082750
v 0.05004053 -0.01519077 -0.00219850
v 0.05675239 -0.01030891 0.00082450
v 0.06133020 -0.00267923 -0.00348950
v 0.04546343 -0.00816991 0.00772950
v 0.05186911 -0.00420658 0.01118350
v 0.05126171 -0.00664680 -0.01600850
v 0.05614216 0.00250881 0.00816250
v 0.05705715 -0.00939462 -0.00780650
v 0.04210538 -0.01214032 -0.00521650
v 0.05888927 -0.00146018 0.00470850
v 0.05827903 -0.00084994 -0.01126050
v 0.05187194 -0.01396889 -0.00651050
v 0.05217741 -0.00939109 0.00816250
v 0.05095482 -0.00329229 -0.01730450
v 0.05095553 -0.01061297 -0.01341750
v 0.04729413 -0.00633921 -0.01600850
v 0.05126100 -0.01457983 -0.00047150
v 0.05553122 -0.01030962 -0.00910050
v 0.04912624 -0.01122320 0.00729950
v 0.04881936 -0.01213820 -0.01212450
v 0.04973648 -0.00817203 0.00988950
v 0.05370335 -0.01091702 0.00470850
v 0.05186982 -0.00237729 0.01161650
v 0.05827833 -0.00267923 -0.01082750
v 0.04912554 -0.01366342 0.00384250
v 0.05888785 -0.00451063 0.00341250
v 0.04942959 -0.01457983 0.00168550
v 0.05644621 -0.00573181 0.00686550
v 0.04332797 -0.01091914 0.00427550
v 0.05675168 -0.00786868 -0.01039750
v 0.05583810 -0.00207041 -0.01428150
v 0.04241014 -0.01183555 -0.00780650
v 0.05614428 -0.01152938 -0.00435350
v 0.05095624 -0.01488460 -0.00435350
v 0.05705715 -0.00878368 0.00298150
v 0.05553334 -0.01152796 0.00039150
v 0.05827974 0.00098500 -0.01082850
v 0.05644975 0.00220405 0.00773150
v 0.05614357 0.00251023 0.00773150
v 0.06224873 0.00312117 -0.00176750
v 0.05797498 0.00434164 -0.00996550
v 0.05889068 -0.00023688 0.00125350
v 0.05827974 0.00464640 0.00341450
v 0.05614357 0.00251023 -0.01212450
v 0.05889068 -0.00023688 -0.00737650
v 0.06224873 0.00312117 -0.00435450
v 0.05889068 0.00037406 0.00427750
v 0.05706069 0.00281499 0.00729750
v 0.06194326 0.00342664 -0.00435450
v 0.06926747 0.00159382 -0.00047050
v 0.06835177 0.00128906 -0.00694450
v 0.06438632 0.00220547 -0.00651250
v 0.06285967 -0.00359352 -0.00219650
v 0.05889068 -0.00023688 0.00082450
v 0.05889068 -0.00023688 -0.00694450
v 0.06285967 0.00373211 -0.00306050
v 0.07109959 0.00403687 -0.00392350
v 0.06530202 -0.00237164 -0.00608050
v 0.06652248 -0.00115117 -0.00003950
v 0.06194397 0.00281641 -0.00090250
v 0.06987771 0.00220405 -0.00651250
v 0.06163779 -0.00298399 -0.00435350
v 0.06255420 0.00342664 -0.00478550
v 0.07048794 0.00342523 -0.00176650
v 0.06469108 -0.00298258 -0.00133450
v 0.06682725 -0.00084641 -0.00694450
v 0.06835177 0.00128906 -0.00003950
v 0.06102756 -0.00237376 -0.00047050
f 44 35 57
f 11 1 13
f 2 3 14
f 3 2 22
f 7 13 24
f 23 9 27
f 2 23 27
f 14 3 28
f 3 22 28
f 21 11 29
f 2 14 30
f 14 8 30
f 23 2 30
f 16 23 30
f 16 6 31
f 9 23 31
f 23 16 31
f 7 12 32
f 13 7 32
f 8 14 33
f 18 8 33
f 14 28 33
f 11 13 34
f 32 12 34
f 13 32 34
f 27 9 35
f 17 27 35
f 13 1 36
f 20 19 36
f 24 13 36
f 4 19 38
f 19 20 38
f 21 4 38
f 11 21 38
f 19 4 39
f 25 17 39
f 4 25 39
f 35 7 39
f 17 35 39
f 18 5 40
f 29 11 40
f 11 34 40
f 18 33 41
f 33 28 41
f 7 24 42
f 36 19 42
f 24 36 42
f 19 39 42
f 39 7 42
f 31 6 43
f 9 31 43
f 37 9 43
f 12 37 43
f 12 7 44
f 7 35 44
f 22 2 45
f 27 17 45
f 2 27 45
f 5 18 46
f 28 10 46
f 18 41 46
f 41 28 46
f 1 11 47
f 36 1 47
f 20 36 47
f 11 38 47
f 38 20 47
f 6 16 48
f 8 18 48
f 34 6 48
f 18 40 48
f 40 34 48
f 30 8 49
f 16 30 49
f 48 16 49
f 8 48 49
f 10 26 50
f 26 15 50
f 40 5 50
f 15 40 50
f 5 46 50
f 46 10 50
f 4 21 51
f 21 22 51
f 25 4 51
f 21 29 52
f 40 15 52
f 29 40 52
f 17 25 53
f 22 45 53
f 45 17 53
f 51 22 53
f 25 51 53
f 6 34 54
f 34 12 54
f 43 6 54
f 12 43 54
f 22 21 55
f 26 10 55
f 21 26 55
f 10 28 55
f 28 22 55
f 15 26 56
f 26 21 56
f 52 15 56
f 21 52 56
f 35 9 57
f 9 37 57
f 37 12 57
f 12 44 57
f 112 90 121
f 59 62 66
f 66 62 78
f 59 66 80
f 67 76 85
f 76 67 89
f 67 86 89
f 86 71 89
f 71 82 90
f 89 71 90
f 62 59 92
f 77 62 92
f 59 60 93
f 60 85 93
f 85 76 93
f 61 69 94
f 78 61 94
f 66 78 94
f 81 66 94
f 71 86 95
f 69 61 96
f 61 79 96
f 79 72 96
f 69 88 97
f 94 69 97
f 81 94 97
f 63 75 98
f 86 67 98
f 87 63 98
f 67 87 98
f 75 95 98
f 95 86 98
f 60 59 99
f 59 80 99
f 85 60 99
f 62 77 100
f 77 83 100
f 88 69 101
f 75 88 101
f 69 96 101
f 96 72 101
f 58 84 102
f 65 91 102
f 80 66 103
f 66 81 103
f 81 63 103
f 63 87 103
f 87 80 103
f 82 71 104
f 58 102 104
f 102 82 104
f 67 85 105
f 80 87 105
f 87 67 105
f 99 80 105
f 85 99 105
f 68 78 106
f 78 74 106
f 62 74 107
f 78 62 107
f 74 78 107
f 72 58 108
f 95 75 108
f 101 72 108
f 75 101 108
f 61 78 109
f 78 68 109
f 79 61 109
f 64 73 110
f 76 89 110
f 90 64 110
f 89 90 110
f 73 93 110
f 93 76 110
f 74 62 111
f 91 65 111
f 62 100 111
f 65 106 111
f 106 74 111
f 83 64 112
f 64 90 112
f 92 59 113
f 73 92 113
f 59 93 113
f 93 73 113
f 73 64 114
f 64 83 114
f 83 77 114
f 92 73 114
f 77 92 114
f 70 91 115
f 100 83 115
f 91 111 115
f 111 100 115
f 112 70 115
f 83 112 115
f 75 63 116
f 63 81 116
f 88 75 116
f 81 97 116
f 97 88 116
f 84 68 117
f 102 84 117
f 65 102 117
f 106 65 117
f 68 106 117
f 68 84 118
f 109 68 118
f 79 109 118
f 58 72 119
f 72 79 119
f 84 58 119
f 118 84 119
f 79 118 119
f 71 95 120
f 104 71 120
f 58 104 120
f 108 58 120
f 95 108 120
f 90 82 121
f 91 70 121
f 82 102 121
f 102 91 121
f 70 112 121
f 144 176 185
f 124 123 122
f 124 122 127
f 126 125 128
f 125 126 130
f 126 128 131
f 127 122 132
f 124 127 134
f 122 123 139
f 123 124 141
f 125 130 141
f 139 123 142
f 127 132 143
f 134 127 145
f 126 131 146
f 124 134 147
f 131 128 148
f 130 126 150
f 126 138 150
f 134 145 151
f 128 132 153
f 129 139 154
f 139 142 154
f 141 124 155
f 125 141 155
f 124 147 155
f 150 138 156
f 141 130 158
f 147 134 159
f 155 147 159
f 144 133 160
f 122 139 161
f 139 133 161
f 133 144 161
f 145 127 162
f 136 151 162
f 151 145 162
f 123 141 163
f 142 123 163
f 141 158 163
f 158 142 163
f 152 129 164
f 140 127 165
f 127 143 165
f 146 160 166
f 132 122 167
f 153 132 167
f 137 153 167
f 157 137 167
f 128 125 168
f 125 151 168
f 151 136 168
f 129 154 169
f 154 135 169
f 135 156 169
f 156 138 169
f 138 164 169
f 164 129 169
f 158 130 170
f 142 158 170
f 135 154 171
f 154 142 171
f 170 135 171
f 142 170 171
f 140 165 172
f 165 143 172
f 128 168 172
f 168 140 172
f 132 128 173
f 143 132 173
f 128 172 173
f 172 143 173
f 130 150 174
f 156 135 174
f 150 156 174
f 170 130 174
f 135 170 174
f 160 133 175
f 164 149 175
f 152 164 175
f 149 166 175
f 166 160 175
f 146 131 176
f 144 160 176
f 160 146 176
f 151 125 177
f 134 151 177
f 125 155 177
f 159 134 177
f 155 159 177
f 127 140 178
f 162 127 178
f 136 162 178
f 140 168 178
f 168 136 178
f 131 148 179
f 148 137 179
f 137 157 179
f 157 131 179
f 139 129 180
f 133 139 180
f 129 152 180
f 175 133 180
f 152 175 180
f 144 157 181
f 122 161 181
f 161 144 181
f 167 122 181
f 157 167 181
f 126 146 182
f 146 166 182
f 148 128 183
f 137 148 183
f 128 153 183
f 153 137 183
f 138 126 184
f 164 138 184
f 149 164 184
f 166 149 184
f 126 182 184
f 182 166 184
f 131 157 185
f 157 144 185
f 176 131 185
f 203 239 240
f 189 190 192
f 188 191 193
f 190 189 194
f 193 191 195
f 189 192 196
f 190 194 198
f 191 188 200
f 195 191 201
f 188 193 202
f 196 192 204
f 192 190 205
f 190 203 205
f 189 196 206
f 202 193 206
f 194 189 207
f 201 186 208
f 195 201 208
f 191 200 210
f 198 194 213
f 188 187 215
f 200 188 215
f 204 192 216
f 215 204 216
f 192 215 216
f 202 196 217
f 215 192 218
f 196 204 219
f 215 187 219
f 204 215 219
f 217 196 219
f 214 195 220
f 199 214 220
f 211 191 221
f 189 206 222
f 206 193 222
f 193 209 222
f 186 201 223
f 201 213 223
f 194 207 224
f 195 208 224
f 220 195 224
f 207 220 224
f 190 198 225
f 198 211 225
f 201 191 226
f 211 198 226
f 191 211 226
f 191 210 227
f 221 191 227
f 208 186 228
f 213 194 228
f 186 223 228
f 223 213 228
f 194 224 228
f 224 208 228
f 196 202 229
f 206 196 229
f 202 206 229
f 189 222 230
f 222 209 230
f 187 188 231
f 188 202 231
f 202 217 231
f 219 187 231
f 217 219 231
f 192 205 232
f 205 212 232
f 218 192 232
f 212 218 232
f 193 195 233
f 209 193 233
f 195 214 233
f 198 213 234
f 213 201 234
f 201 226 234
f 226 198 234
f 210 200 235
f 197 210 235
f 212 197 235
f 200 215 235
f 218 212 235
f 215 218 235
f 207 189 236
f 220 207 236
f 199 220 236
f 189 230 236
f 230 199 236
f 214 199 237
f 199 230 237
f 230 209 237
f 209 233 237
f 233 214 237
f 203 190 238
f 221 203 238
f 211 221 238
f 190 225 238
f 225 211 238
f 210 197 239
f 203 221 239
f 227 210 239
f 221 227 239
f 205 203 240
f 197 212 240
f 212 205 240
f 239 197 240
f 265 286 304
f 244 245 248
f 248 245 249
f 246 247 250
f 250 247 251
f 247 246 252
f 245 244 253
f 246 250 258
f 250 251 259
f 247 252 260
f 248 249 261
f 249 245 264
f 251 247 266
f 263 251 266
f 247 260 268
f 261 249 269
f 249 268 269
f 245 253 270
f 248 261 271
f 243 242 272
f 252 246 273
f 246 255 273
f 244 267 274
f 267 258 274
f 260 252 276
f 259 256 278
f 274 250 278
f 244 274 278
f 253 244 279
f 259 241 279
f 256 259 279
f 244 278 279
f 278 256 279
f 251 263 280
f 275 251 280
f 245 270 281
f 270 257 281
f 280 263 281
f 257 280 281
f 242 243 282
f 243 269 282
f 276 242 282
f 260 276 282
f 259 251 283
f 241 259 283
f 251 275 283
f 255 246 284
f 250 259 285
f 278 250 285
f 259 278 285
f 279 241 286
f 252 248 287
f 272 242 287
f 248 272 287
f 242 276 287
f 276 252 287
f 269 243 288
f 261 269 288
f 271 261 288
f 265 257 289
f 270 253 289
f 257 270 289
f 253 279 289
f 252 273 290
f 273 255 290
f 263 254 291
f 245 281 291
f 281 263 291
f 244 248 292
f 248 255 292
f 267 244 292
f 255 284 292
f 284 267 292
f 268 249 293
f 247 268 293
f 277 247 293
f 246 258 294
f 258 267 294
f 284 246 294
f 267 284 294
f 249 264 295
f 264 262 295
f 293 249 295
f 262 293 295
f 248 252 296
f 255 248 296
f 252 290 296
f 290 255 296
f 248 271 297
f 243 272 297
f 272 248 297
f 288 243 297
f 271 288 297
f 258 250 298
f 250 274 298
f 274 258 298
f 264 245 299
f 291 254 299
f 245 291 299
f 262 264 300
f 254 277 300
f 293 262 300
f 277 293 300
f 264 299 300
f 299 254 300
f 286 265 301
f 279 286 301
f 265 289 301
f 289 279 301
f 254 263 302
f 266 247 302
f 263 266 302
f 277 254 302
f 247 277 302
f 268 260 303
f 269 268 303
f 282 269 303
f 260 282 303
f 257 265 304
f 280 257 304
f 275 280 304
f 241 283 304
f 283 275 304
f 286 241 304
f 340 356 359
f 305 307 313
f 307 305 316
f 316 305 318
f 308 312 319
f 305 313 319
f 309 312 325
f 312 309 326
f 319 312 326
f 313 307 327
f 310 318 329
f 322 317 329
f 308 319 330
f 319 313 330
f 326 309 331
f 306 307 332
f 307 316 332
f 324 306 332
f 315 324 332
f 312 308 333
f 308 321 333
f 319 326 334
f 315 323 335
f 320 311 336
f 318 305 337
f 329 318 337
f 310 329 338
f 329 317 338
f 310 316 339
f 316 318 339
f 318 310 339
f 311 324 340
f 335 323 341
f 323 338 341
f 338 317 341
f 311 320 342
f 316 310 343
f 323 315 343
f 310 338 343
f 338 323 343
f 313 327 344
f 328 313 344
f 320 336 344
f 336 328 344
f 342 320 344
f 327 342 344
f 336 311 345
f 314 336 345
f 321 308 346
f 313 328 346
f 328 321 346
f 308 330 346
f 330 313 346
f 322 334 347
f 334 326 347
f 311 342 348
f 312 333 349
f 333 321 349
f 306 324 350
f 324 311 350
f 348 306 350
f 311 348 350
f 321 328 351
f 336 314 351
f 328 336 351
f 314 349 351
f 349 321 351
f 307 306 352
f 327 307 352
f 342 327 352
f 306 348 352
f 348 342 352
f 317 322 353
f 326 331 353
f 331 341 353
f 341 317 353
f 322 347 353
f 347 326 353
f 305 319 354
f 322 329 354
f 334 322 354
f 319 334 354
f 337 305 354
f 329 337 354
f 332 316 355
f 315 332 355
f 316 343 355
f 343 315 355
f 309 325 356
f 331 309 356
f 341 331 356
f 335 341 356
f 324 315 357
f 315 335 357
f 340 324 357
f 356 340 357
f 335 356 357
f 325 312 358
f 345 325 358
f 314 345 358
f 349 314 358
f 312 349 358
f 311 340 359
f 345 311 359
f 325 345 359
f 356 325 359
f 369 364 372
f 361 362 365
f 364 362 366
f 364 360 367
f 362 364 367
f 365 362 367
f 365 367 368
f 363 365 368
f 367 360 368
f 363 368 369
f 360 364 369
f 368 360 369
f 361 365 370
f 365 363 370
f 362 361 371
f 366 362 371
f 363 366 371
f 361 370 371
f 370 363 371
f 366 363 372
f 364 366 372
f 363 369 372
f 388 382 391
f 375 374 378
f 378 377 379
f 381 373 382
f 379 377 383
f 374 375 384
f 380 373 384
f 375 380 384
f 373 381 384
f 377 378 385
f 381 376 385
f 378 381 385
f 375 378 386
f 378 379 386
f 380 375 386
f 379 380 386
f 373 380 387
f 380 379 387
f 379 383 387
f 376 381 388
f 381 382 388
f 378 374 389
f 381 378 389
f 374 384 389
f 384 381 389
f 382 373 390
f 377 382 390
f 383 377 390
f 373 387 390
f 387 383 390
f 382 377 391
f 385 376 391
f 377 385 391
f 376 388 391