# https://github.com/mikedh/trimesh
v -0.15115372 0.03302565 0.01829169 0.54117647 0.42352941 0.64313725
v -0.15115372 0.03224044 0.02162757 0.54117647 0.42352941 0.64313725
v -0.14780867 0.03212180 0.02162757 0.54117647 0.42352941 0.64313725
v -0.14780867 0.03283358 0.01829169 0.54117647 0.42352941 0.64313725
v -0.15115372 0.03296351 0.01495581 0.54117647 0.42352941 0.64313725
v -0.15447647 0.03270930 0.00494492 0.54117647 0.42352941 0.64313725
v -0.15447647 0.03275449 0.00828404 0.54117647 0.42352941 0.64313725
v -0.15447647 0.03278274 0.01161993 0.54117647 0.42352941 0.64313725
v -0.15447647 0.03275449 0.01495581 0.54117647 0.42352941 0.64313725
v -0.15447647 0.03256243 0.01829169 0.54117647 0.42352941 0.64313725
v -0.14780867 0.03120101 0.02340584 0.54117647 0.42352941 0.64313725
v -0.15425346 0.03166423 0.02155618 0.54117647 0.42352941 0.64313725
v -0.15300464 0.03116712 0.02340259 0.54117647 0.42352941 0.64313725
v -0.15115372 0.03125750 0.02347723 0.54117647 0.42352941 0.64313725
v -0.14604694 0.03108238 0.02330849 0.54117647 0.42352941 0.64313725
v -0.04005347 0.02099319 0.01978440 0.54117647 0.42352941 0.64313725
v -0.03771194 0.02088021 0.01941122 0.54117647 0.42352941 0.64313725
v -0.03436689 0.02071638 0.01871029 0.54117647 0.42352941 0.64313725
v -0.03771194 0.02133213 0.01774328 0.54117647 0.42352941 0.64313725
v -0.03436689 0.02115136 0.01704235 0.54117647 0.42352941 0.64313725
v -0.09529139 0.02782288 0.01353124 0.54117647 0.42352941 0.64313725
v -0.09529139 0.02782288 0.01290171 0.54117647 0.42352941 0.64313725
v -0.15115372 0.03281663 0.01161993 0.54117647 0.42352941 0.64313725
v -0.03269436 0.02106098 0.01662375 0.54117647 0.42352941 0.64313725
v -0.15447647 0.03187890 0.00236513 0.54117647 0.42352941 0.64313725
v -0.15677340 0.03166988 0.00261499 0.54117647 0.42352941 0.64313725
v -0.15710790 0.03194668 0.00494492 0.54117647 0.42352941 0.64313725
v -0.15115372 0.03242120 0.00494492 0.54117647 0.42352941 0.64313725
v -0.14196598 0.03117277 0.00314393 0.54117647 0.42352941 0.64313725
v -0.14446361 0.03131399 0.00295897 0.54117647 0.42352941 0.64313725
v -0.14780867 0.03150606 0.00273830 0.54117647 0.42352941 0.64313725
v -0.15115372 0.03169812 0.00254036 0.54117647 0.42352941 0.64313725
v -0.15750931 0.03174332 0.01495581 0.54117647 0.42352941 0.64313725
v -0.15726401 0.03159079 0.01829169 0.54117647 0.42352941 0.64313725
v -0.15668420 0.03133658 0.02039771 0.54117647 0.42352941 0.64313725
v -0.15235794 0.02780028 0.02668655 0.54117647 0.42352941 0.64313725
v -0.02435404 0.01848501 0.02059241 0.54117647 0.42352941 0.64313725
v -0.15316075 0.02780028 0.02668655 0.54117647 0.42352941 0.64313725
v -0.15523467 0.03060786 0.02262054 0.54117647 0.42352941 0.64313725
v -0.15539078 0.02756867 0.02646589 0.54117647 0.42352941 0.64313725
v -0.01768624 0.01800485 0.02024519 0.54117647 0.42352941 0.64313725
v -0.01523320 0.01784102 0.02008618 0.54117647 0.42352941 0.64313725
v -0.02769909 0.02010629 0.01829169 0.54117647 0.42352941 0.64313725
v -0.05437028 0.02343358 0.01495581 0.54117647 0.42352941 0.64313725
v -0.05102523 0.02307769 0.01495581 0.54117647 0.42352941 0.64313725
v -0.06447233 0.02456903 0.01161993 0.54117647 0.42352941 0.64313725
v -0.06770588 0.02491362 0.01161993 0.54117647 0.42352941 0.64313725
v -0.03247136 0.02108922 0.00654796 0.54117647 0.42352941 0.64313725
v -0.02435404 0.01966566 0.01829169 0.54117647 0.42352941 0.64313725
v -0.00865461 0.01781843 0.01696123 0.54117647 0.42352941 0.64313725
v -0.02435404 0.02007804 0.01495581 0.54117647 0.42352941 0.64313725
v -0.02769909 0.02051302 0.01495581 0.54117647 0.42352941 0.64313725
v -0.03095494 0.02088586 0.01495581 0.54117647 0.42352941 0.64313725
v -0.03262746 0.02107227 0.01495581 0.54117647 0.42352941 0.64313725
v -0.15623819 0.02785677 -0.00011407 0.54117647 0.42352941 0.64313725
v -0.05336677 0.02098189 0.00335161 0.54117647 0.42352941 0.64313725
v -0.05559680 0.02110617 0.00324453 0.54117647 0.42352941 0.64313725
v -0.15115372 0.02940462 0.00096328 0.54117647 0.42352941 0.64313725
v -0.15432037 0.02914476 0.00055765 0.54117647 0.42352941 0.64313725
v -0.15842363 0.02940462 0.00494492 0.54117647 0.42352941 0.64313725
v -0.15706330 0.02914476 0.00154414 0.54117647 0.42352941 0.64313725
v -0.15936023 0.02064295 0.00043758 0.54117647 0.42352941 0.64313725
v -0.15918184 0.03018983 0.01495581 0.54117647 0.42352941 0.64313725
v -0.03436689 0.02119655 0.00633703 0.54117647 0.42352941 0.64313725
v -0.03771194 0.02137167 0.00601902 0.54117647 0.42352941 0.64313725
v -0.04103469 0.02022492 0.00410121 0.54117647 0.42352941 0.64313725
v -0.04437974 0.02042828 0.00388704 0.54117647 0.42352941 0.64313725
v -0.04770248 0.02063165 0.00367936 0.54117647 0.42352941 0.64313725
v -0.05102523 0.02083502 0.00348466 0.54117647 0.42352941 0.64313725
v -0.15893653 0.03000906 0.01829169 0.54117647 0.42352941 0.64313725
v -0.15679570 0.02838214 0.02424306 0.54117647 0.42352941 0.64313725
v -0.15784382 0.02920689 0.02131605 0.54117647 0.42352941 0.64313725
v -0.15119832 0.02633718 0.02740370 0.54117647 0.42352941 0.64313725
v -0.04103469 0.01146890 0.02689424 0.54117647 0.42352941 0.64313725
v -0.03436689 0.01520292 0.02383418 0.54117647 0.42352941 0.64313725
v -0.03102184 0.01662648 0.02258485 0.54117647 0.42352941 0.64313725
v -0.15436496 0.02629764 0.02740370 0.54117647 0.42352941 0.64313725
v -0.15668420 0.02534295 0.02720900 0.54117647 0.42352941 0.64313725
v -0.02769909 0.01636662 0.02242584 0.54117647 0.42352941 0.64313725
v -0.02100899 0.01605593 0.02195207 0.54117647 0.42352941 0.64313725
v 0.06658671 0.00506854 0.02058916 0.54117647 0.42352941 0.64313725
v -0.01300317 0.01764896 0.01979089 0.54117647 0.42352941 0.64313725
v -0.04770248 0.02274439 0.01161993 0.54117647 0.42352941 0.64313725
v -0.06103808 0.02419619 0.01161993 0.54117647 0.42352941 0.64313725
v -0.03238216 0.02110052 0.00828404 0.54117647 0.42352941 0.64313725
v -0.03436689 0.02131518 0.00828404 0.54117647 0.42352941 0.64313725
v -0.03070963 0.02089715 0.00828404 0.54117647 0.42352941 0.64313725
v -0.02769909 0.02050172 0.00828404 0.54117647 0.42352941 0.64313725
v -0.02100899 0.01958658 0.00828404 0.54117647 0.42352941 0.64313725
v -0.01434119 0.01866578 0.00828404 0.54117647 0.42352941 0.64313725
v -0.01099614 0.01820256 0.00828404 0.54117647 0.42352941 0.64313725
v -0.00878841 0.01780148 0.00649928 0.54117647 0.42352941 0.64313725
v -0.01099614 0.01795965 0.00627862 0.54117647 0.42352941 0.64313725
v -0.01420739 0.01818562 0.01852208 0.54117647 0.42352941 0.64313725
v -0.00666988 0.01762636 0.01495581 0.54117647 0.42352941 0.64313725
v -0.00834240 0.01786362 0.01495581 0.54117647 0.42352941 0.64313725
v -0.01099614 0.01823646 0.01495581 0.54117647 0.42352941 0.64313725
v 0.06658671 0.00605712 0.01829169 0.54117647 0.42352941 0.64313725
v 0.06658671 0.00650904 0.01495581 0.54117647 0.42352941 0.64313725
v 0.04078522 0.01105652 0.00999092 0.54117647 0.42352941 0.64313725
v -0.02100899 0.01960352 0.01161993 0.54117647 0.42352941 0.64313725
v -0.02769909 0.02051302 0.01161993 0.54117647 0.42352941 0.64313725
v -0.03082113 0.02089715 0.01161993 0.54117647 0.42352941 0.64313725
v -0.15532388 0.02785677 -0.00011407 0.54117647 0.42352941 0.64313725
v -0.15447647 0.01905557 -0.00397240 0.54117647 0.42352941 0.64313725
v -0.15657270 0.01864319 -0.00377445 0.54117647 0.42352941 0.64313725
v -0.15668420 0.02606603 -0.00049698 0.54117647 0.42352941 0.64313725
v -0.02897021 0.01779583 0.00323155 0.54117647 0.42352941 0.64313725
v -0.03102184 0.01793706 0.00314393 0.54117647 0.42352941 0.64313725
v -0.02769909 0.01336133 0.00057388 0.54117647 0.42352941 0.64313725
v -0.02769909 0.01169487 -0.00045480 0.54117647 0.42352941 0.64313725
v -0.02100899 0.00937876 -0.00135042 0.54117647 0.42352941 0.64313725
v -0.02435404 0.00937876 -0.00160029 0.54117647 0.42352941 0.64313725
v -0.15915954 0.02585137 0.00507472 0.54117647 0.42352941 0.64313725
v -0.15956094 0.02804885 0.01271025 0.54117647 0.42352941 0.64313725
v -0.15962783 0.02174451 0.00266367 0.54117647 0.42352941 0.64313725
v -0.15940484 0.02397023 0.00404605 0.54117647 0.42352941 0.64313725
v -0.15967243 0.01841723 -0.00033149 0.54117647 0.42352941 0.64313725
v -0.15962783 0.02852336 0.01495581 0.54117647 0.42352941 0.64313725
v -0.15960556 0.02833695 0.01829169 0.54117647 0.42352941 0.64313725
v -0.01434119 0.01819127 0.00596710 0.54117647 0.42352941 0.64313725
v -0.01768624 0.01842288 0.00568803 0.54117647 0.42352941 0.64313725
v -0.03771194 0.02001590 0.00435108 0.54117647 0.42352941 0.64313725
v -0.15951634 0.02780028 0.02000830 0.54117647 0.42352941 0.64313725
v -0.15742011 0.02629764 0.02520034 0.54117647 0.42352941 0.64313725
v -0.15447647 0.02273310 0.02844860 0.54117647 0.42352941 0.64313725
v -0.15115372 0.02273310 0.02842589 0.54117647 0.42352941 0.64313725
v -0.04437974 0.01170051 0.02703053 0.54117647 0.42352941 0.64313725
v -0.03102184 0.00877431 0.02697212 0.54117647 0.42352941 0.64313725
v -0.02769909 0.00839583 0.02686828 0.54117647 0.42352941 0.64313725
v -0.02212400 0.00781962 0.02667358 0.54117647 0.42352941 0.64313725
v -0.03771194 0.01121470 0.02673523 0.54117647 0.42352941 0.64313725
v -0.03771194 0.01288116 0.02566113 0.54117647 0.42352941 0.64313725
v -0.15857973 0.02273310 0.02496670 0.54117647 0.42352941 0.64313725
v -0.15706330 0.02273310 0.02751404 0.54117647 0.42352941 0.64313725
v 0.06658671 0.00271289 0.02172816 0.54117647 0.42352941 0.64313725
v -0.03590561 0.01107347 0.02664761 0.54117647 0.42352941 0.64313725
v -0.01434119 0.01868273 0.01161993 0.54117647 0.42352941 0.64313725
v 0.00900726 0.01545713 0.01161993 0.54117647 0.42352941 0.64313725
v 0.01538515 0.01457588 0.01161993 0.54117647 0.42352941 0.64313725
v 0.04078522 0.01105652 0.00992278 0.54117647 0.42352941 0.64313725
v 0.01413633 0.01440641 0.00659339 0.54117647 0.42352941 0.64313725
v 0.01902011 0.01407311 0.01161993 0.54117647 0.42352941 0.64313725
v 0.06658671 0.00658813 0.01413157 0.54117647 0.42352941 0.64313725
v 0.06658671 0.00682539 0.01161993 0.54117647 0.42352941 0.64313725
v -0.15115372 0.01886350 -0.00391074 0.54117647 0.42352941 0.64313725
v -0.15447647 0.02072203 -0.00323902 0.54117647 0.42352941 0.64313725
v -0.01538931 0.00441325 -0.00341101 0.54117647 0.42352941 0.64313725
v -0.15115372 0.01605593 -0.00467008 0.54117647 0.42352941 0.64313725
v -0.15447647 0.01605593 -0.00470253 0.54117647 0.42352941 0.64313725
v -0.15699640 0.01605593 -0.00402756 0.54117647 0.42352941 0.64313725
v -0.15866893 0.01605593 -0.00246022 0.54117647 0.42352941 0.64313725
v -0.15797762 0.01964307 -0.00181771 0.54117647 0.42352941 0.64313725
v -0.15735320 0.02273310 -0.00122062 0.54117647 0.42352941 0.64313725
v -0.02100899 0.01123164 -0.00017897 0.54117647 0.42352941 0.64313725
v -0.02435404 0.01148020 -0.00032824 0.54117647 0.42352941 0.64313725
v -0.02674017 0.01759811 0.00336459 0.54117647 0.42352941 0.64313725
v 0.06658671 0.00548657 0.00557121 0.54117647 0.42352941 0.64313725
v 0.06658671 0.00487082 0.00515909 0.54117647 0.42352941 0.64313725
v -0.01790924 0.00960472 -0.00089287 0.54117647 0.42352941 0.64313725
v 0.06658671 0.00283717 0.00390327 0.54117647 0.42352941 0.64313725
v -0.01099614 0.00604582 -0.00224280 0.54117647 0.42352941 0.64313725
v -0.01429659 0.00573513 -0.00272631 0.54117647 0.42352941 0.64313725
v -0.15973935 0.02280653 0.00507472 0.54117647 0.42352941 0.64313725
v -0.16031915 0.01939451 0.00494492 0.54117647 0.42352941 0.64313725
v -0.16005154 0.02273310 0.00828404 0.54117647 0.42352941 0.64313725
v -0.15987314 0.01947359 0.00157334 0.54117647 0.42352941 0.64313725
v -0.16056445 0.01605593 0.00160904 0.54117647 0.42352941 0.64313725
v -0.15994005 0.01605593 -0.00079228 0.54117647 0.42352941 0.64313725
v -0.16049755 0.01939451 0.00828404 0.54117647 0.42352941 0.64313725
v -0.15994005 0.02606603 0.01495581 0.54117647 0.42352941 0.64313725
v -0.15985086 0.02606603 0.01829169 0.54117647 0.42352941 0.64313725
v -0.15962783 0.02606603 0.02038473 0.54117647 0.42352941 0.64313725
v -0.15985086 0.01605593 0.02445723 0.54117647 0.42352941 0.64313725
v -0.15967243 0.01881266 0.02381147 0.54117647 0.42352941 0.64313725
v -0.15949404 0.02103273 0.02327604 0.54117647 0.42352941 0.64313725
v -0.15982854 0.00937876 0.02697861 0.54117647 0.42352941 0.64313725
v -0.15782151 0.00937876 0.02752053 0.54117647 0.42352941 0.64313725
v -0.15447647 0.01939451 0.02831556 0.54117647 0.42352941 0.64313725
v -0.04770248 0.00937876 0.02749781 0.54117647 0.42352941 0.64313725
v -0.04437974 0.00937876 0.02742317 0.54117647 0.42352941 0.64313725
v -0.04770248 0.01188693 0.02710516 0.54117647 0.42352941 0.64313725
v -0.04103469 0.00937876 0.02728688 0.54117647 0.42352941 0.64313725
v -0.01501020 0.00459967 0.02666384 0.54117647 0.42352941 0.64313725
v 0.06658671 -0.00062570 0.02239664 0.54117647 0.42352941 0.64313725
v -0.15942714 0.01423129 0.02655351 0.54117647 0.42352941 0.64313725
v -0.15965015 0.01200556 0.02680987 0.54117647 0.42352941 0.64313725
v 0.06658671 0.00679150 0.00828404 0.54117647 0.42352941 0.64313725
v 0.06658671 0.00648645 0.00760908 0.54117647 0.42352941 0.64313725
v 0.06658671 0.00242479 0.00373453 0.54117647 0.42352941 0.64313725
v 0.06658671 0.00117070 0.00322506 0.54117647 0.42352941 0.64313725
v 0.06658671 -0.00396428 0.00115149 0.54117647 0.42352941 0.64313725
v 0.06658671 -0.00657979 0.00020719 0.54117647 0.42352941 0.64313725
v 0.06658671 -0.00825190 -0.00025036 0.54117647 0.42352941 0.64313725
v 0.06658671 -0.01063580 -0.00053592 0.54117647 0.42352941 0.64313725
v -0.01538931 0.00429462 -0.00341101 0.54117647 0.42352941 0.64313725
v -0.15115372 0.01271734 -0.00444293 0.54117647 0.42352941 0.64313725
v -0.15447647 0.01271734 -0.00439425 0.54117647 0.42352941 0.64313725
v -0.15695180 0.01271734 -0.00386207 0.54117647 0.42352941 0.64313725
v -0.15862432 0.01271734 -0.00281068 0.54117647 0.42352941 0.64313725
v -0.16025225 0.01271734 -0.00114274 0.54117647 0.42352941 0.64313725
v -0.16103277 0.01271734 0.00160904 0.54117647 0.42352941 0.64313725
v -0.16076515 0.01605593 0.00494492 0.54117647 0.42352941 0.64313725
v -0.16074286 0.01605593 0.00828404 0.54117647 0.42352941 0.64313725
v -0.16047525 0.01939451 0.01161993 0.54117647 0.42352941 0.64313725
v -0.16018535 0.02273310 0.01495581 0.54117647 0.42352941 0.64313725
v -0.16009616 0.02273310 0.01829169 0.54117647 0.42352941 0.64313725
v -0.16031915 0.01605593 0.02162757 0.54117647 0.42352941 0.64313725
v -0.16043066 0.00937876 0.02496670 0.54117647 0.42352941 0.64313725
v -0.15998465 0.01296025 0.02525226 0.54117647 0.42352941 0.64313725
v -0.15978394 0.00701181 0.02691695 0.54117647 0.42352941 0.64313725
v -0.15782151 0.00645820 0.02709218 0.54117647 0.42352941 0.64313725
v -0.15447647 0.00937876 0.02769576 0.54117647 0.42352941 0.64313725
v -0.15447647 0.01271734 0.02790668 0.54117647 0.42352941 0.64313725
v -0.03771194 0.00604582 0.02707920 0.54117647 0.42352941 0.64313725
v -0.03436689 0.00604582 0.02707271 0.54117647 0.42352941 0.64313725
v -0.01501020 0.00422683 0.02666384 0.54117647 0.42352941 0.64313725
v 0.06658671 -0.01447150 0.02333120 0.54117647 0.42352941 0.64313725
v 0.05240370 -0.00729721 0.02387637 0.54117647 0.42352941 0.64313725
v 0.03904581 -0.00396428 0.02438584 0.54117647 0.42352941 0.64313725
v 0.04239085 -0.00396428 0.02420087 0.54117647 0.42352941 0.64313725
v 0.06658671 -0.00396428 0.02266597 0.54117647 0.42352941 0.64313725
v 0.06658671 -0.01132498 -0.00049698 0.54117647 0.42352941 0.64313725
v -0.00432834 -0.00062570 -0.00259651 0.54117647 0.42352941 0.64313725
v -0.00767339 -0.00062570 -0.00259327 0.54117647 0.42352941 0.64313725
v -0.01768624 0.00265075 -0.00313194 0.54117647 0.42352941 0.64313725
v -0.01768624 0.00431157 -0.00340776 0.54117647 0.42352941 0.64313725
v 0.06658671 -0.01313832 -0.00034771 0.54117647 0.42352941 0.64313725
v 0.02903295 -0.00729721 -0.00146724 0.54117647 0.42352941 0.64313725
v 0.02571021 -0.00729721 -0.00148347 0.54117647 0.42352941 0.64313725
v 0.01235231 -0.00396428 -0.00204161 0.54117647 0.42352941 0.64313725
v -0.01768624 -0.00062570 -0.00258028 0.54117647 0.42352941 0.64313725
v -0.02100899 -0.00062570 -0.00257055 0.54117647 0.42352941 0.64313725
v -0.02435404 -0.00396428 -0.00199618 0.54117647 0.42352941 0.64313725
v -0.02769909 -0.00729721 -0.00142181 0.54117647 0.42352941 0.64313725
v -0.03102184 -0.00729721 -0.00140883 0.54117647 0.42352941 0.64313725
v -0.03436689 -0.00729721 -0.00138612 0.54117647 0.42352941 0.64313725
v -0.03771194 -0.00729721 -0.00135042 0.54117647 0.42352941 0.64313725
v -0.04103469 -0.00729721 -0.00130824 0.54117647 0.42352941 0.64313725
v -0.15447647 0.01009054 -0.00366412 0.54117647 0.42352941 0.64313725
v -0.15652809 0.01046337 -0.00355379 0.54117647 0.42352941 0.64313725
v -0.04437974 -0.00729721 -0.00124658 0.54117647 0.42352941 0.64313725
v -0.03436689 -0.01051717 -0.00058784 0.54117647 0.42352941 0.64313725
v -0.03771194 -0.01030815 -0.00057486 0.54117647 0.42352941 0.64313725
v -0.15771001 0.00936181 -0.00261922 0.54117647 0.42352941 0.64313725
v -0.16016304 0.00937876 -0.00086691 0.54117647 0.42352941 0.64313725
v -0.16101046 0.00937876 0.00160904 0.54117647 0.42352941 0.64313725
v -0.16114427 0.00604582 0.00494492 0.54117647 0.42352941 0.64313725
v -0.16114427 0.00937876 0.00494492 0.54117647 0.42352941 0.64313725
v -0.16101046 0.01271734 0.00494492 0.54117647 0.42352941 0.64313725
v -0.16092126 0.01271734 0.00828404 0.54117647 0.42352941 0.64313725
v -0.16065366 0.01271734 0.01829169 0.54117647 0.42352941 0.64313725
v -0.16054217 0.01271734 0.02162757 0.54117647 0.42352941 0.64313725
v -0.16072056 0.00937876 0.02162757 0.54117647 0.42352941 0.64313725
v -0.16074286 0.00604582 0.02162757 0.54117647 0.42352941 0.64313725
v -0.16011844 0.00595544 0.02507053 0.54117647 0.42352941 0.64313725
v -0.15980624 0.00335688 0.02402888 0.54117647 0.42352941 0.64313725
v -0.15944944 0.00113116 0.02319167 0.54117647 0.42352941 0.64313725
v -0.15637199 -0.00239385 0.02339935 0.54117647 0.42352941 0.64313725
v -0.15447647 -0.00062570 0.02436637 0.54117647 0.42352941 0.64313725
v -0.15447647 0.00271289 0.02580391 0.54117647 0.42352941 0.64313725
v -0.15447647 0.00458272 0.02656324 0.54117647 0.42352941 0.64313725
v -0.15447647 0.00624919 0.02711165 0.54117647 0.42352941 0.64313725
v 0.06658671 -0.01752198 0.02314299 0.54117647 0.42352941 0.64313725
v 0.06658671 -0.01709265 0.02321763 0.54117647 0.42352941 0.64313725
v 0.06658671 -0.01630179 0.02331822 0.54117647 0.42352941 0.64313725
v 0.06658671 -0.01307054 0.02324359 0.54117647 0.42352941 0.64313725
v -0.01099614 -0.00396428 -0.00201565 0.54117647 0.42352941 0.64313725
v 0.00900726 -0.00396428 -0.00203837 0.54117647 0.42352941 0.64313725
v 0.06658671 -0.01354506 -0.00023413 0.54117647 0.42352941 0.64313725
v -0.03102184 -0.01060755 -0.00059433 0.54117647 0.42352941 0.64313725
v -0.01768624 -0.01063580 -0.00063976 0.54117647 0.42352941 0.64313725
v 0.00900726 -0.01063580 -0.00074360 0.54117647 0.42352941 0.64313725
v 0.01235231 -0.01063580 -0.00075658 0.54117647 0.42352941 0.64313725
v 0.02903295 -0.01063580 -0.00081824 0.54117647 0.42352941 0.64313725
v 0.03572305 -0.01063580 -0.00084095 0.54117647 0.42352941 0.64313725
v 0.03904581 -0.01063580 -0.00085069 0.54117647 0.42352941 0.64313725
v 0.04239085 -0.01063580 -0.00086042 0.54117647 0.42352941 0.64313725
v 0.00568451 -0.00729721 -0.00146075 0.54117647 0.42352941 0.64313725
v -0.15447647 0.00842407 -0.00319684 0.54117647 0.42352941 0.64313725
v -0.15659500 0.00033464 -0.00039639 0.54117647 0.42352941 0.64313725
v -0.15447647 0.00271289 -0.00157757 0.54117647 0.42352941 0.64313725
v -0.03102184 -0.01227402 -0.00004268 0.54117647 0.42352941 0.64313725
v -0.03436689 -0.01218364 0.00002222 0.54117647 0.42352941 0.64313725
v -0.15447647 -0.00011728 -0.00058460 0.54117647 0.42352941 0.64313725
v -0.15719711 0.00271289 -0.00079552 0.54117647 0.42352941 0.64313725
v -0.15978394 0.00694402 -0.00039639 0.54117647 0.42352941 0.64313725
v -0.16029685 0.00591590 0.00141433 0.54117647 0.42352941 0.64313725
v -0.16078747 0.00271289 0.00494492 0.54117647 0.42352941 0.64313725
v -0.16103277 -0.00062570 0.00828404 0.54117647 0.42352941 0.64313725
v -0.16123346 0.00271289 0.00828404 0.54117647 0.42352941 0.64313725
v -0.16107737 0.00937876 0.00828404 0.54117647 0.42352941 0.64313725
v -0.16092126 0.00604582 0.01829169 0.54117647 0.42352941 0.64313725
v -0.16105505 0.00271289 0.01495581 0.54117647 0.42352941 0.64313725
v -0.16114427 -0.00062570 0.01161993 0.54117647 0.42352941 0.64313725
v -0.16078747 0.00271289 0.01829169 0.54117647 0.42352941 0.64313725
v -0.16011844 0.00243044 0.02189690 0.54117647 0.42352941 0.64313725
v -0.15973935 0.00023861 0.02096558 0.54117647 0.42352941 0.64313725
v -0.15929334 -0.00198712 0.01957347 0.54117647 0.42352941 0.64313725
v -0.15880273 -0.00077257 0.02189690 0.54117647 0.42352941 0.64313725
v -0.15447647 -0.00245599 0.02345776 0.54117647 0.42352941 0.64313725
v -0.15699640 -0.00267630 0.02162757 0.54117647 0.42352941 0.64313725
v -0.15447647 -0.00394733 0.01829169 0.54117647 0.42352941 0.64313725
v -0.15447647 -0.00313387 0.02162757 0.54117647 0.42352941 0.64313725
v -0.02009467 -0.01571994 0.02014459 0.54117647 0.42352941 0.64313725
v -0.01768624 -0.01582727 0.02039771 0.54117647 0.42352941 0.64313725
v -0.01434119 -0.01596849 0.02065082 0.54117647 0.42352941 0.64313725
v -0.01099614 -0.01610972 0.02079684 0.54117647 0.42352941 0.64313725
v -0.02609346 -0.01231356 0.02330200 0.54117647 0.42352941 0.64313725
v 0.06658671 -0.02022787 0.02179306 0.54117647 0.42352941 0.64313725
v 0.06658671 -0.01480479 0.00032401 0.54117647 0.42352941 0.64313725
v -0.02890331 -0.01229662 -0.00005566 0.54117647 0.42352941 0.64313725
v -0.15447647 -0.00178940 0.00051546 0.54117647 0.42352941 0.64313725
v -0.15663959 -0.00254637 0.00263771 0.54117647 0.42352941 0.64313725
v -0.15978394 -0.00264805 0.00612611 0.54117647 0.42352941 0.64313725
v -0.15886963 -0.00137137 0.00390002 0.54117647 0.42352941 0.64313725
v -0.15956094 0.00085435 0.00314718 0.54117647 0.42352941 0.64313725
v -0.15886963 0.00271289 0.00084970 0.54117647 0.42352941 0.64313725
v -0.15931564 0.00471830 0.00017149 0.54117647 0.42352941 0.64313725
v 0.06658671 -0.02128424 0.00385459 0.54117647 0.42352941 0.64313725
v 0.06658671 -0.02337439 0.00552253 0.54117647 0.42352941 0.64313725
v -0.03436689 -0.01325695 0.00169016 0.54117647 0.42352941 0.64313725
v -0.15115372 -0.00192498 0.00030454 0.54117647 0.42352941 0.64313725
v -0.15989546 0.00271289 0.00252089 0.54117647 0.42352941 0.64313725
v -0.16007384 -0.00040538 0.00498710 0.54117647 0.42352941 0.64313725
v -0.16016304 -0.00320731 0.00828404 0.54117647 0.42352941 0.64313725
v -0.16029685 -0.00337678 0.01161993 0.54117647 0.42352941 0.64313725
v -0.16076515 -0.00062570 0.01495581 0.54117647 0.42352941 0.64313725
v -0.16005154 -0.00077257 0.01839228 0.54117647 0.42352941 0.64313725
v -0.15967243 -0.00252942 0.01735063 0.54117647 0.42352941 0.64313725
v -0.15804452 -0.00304913 0.01839228 0.54117647 0.42352941 0.64313725
v -0.15782151 -0.00398123 0.01495581 0.54117647 0.42352941 0.64313725
v -0.15782151 -0.00473255 0.01161993 0.54117647 0.42352941 0.64313725
v -0.15447647 -0.00455743 0.01495581 0.54117647 0.42352941 0.64313725
v -0.02435404 -0.01708136 0.01161993 0.54117647 0.42352941 0.64313725
v -0.01768624 -0.01634698 0.01829169 0.54117647 0.42352941 0.64313725
v -0.02232471 -0.01560696 0.01978115 0.54117647 0.42352941 0.64313725
v 0.01768209 -0.01893989 0.01984605 0.54117647 0.42352941 0.64313725
v 0.01991212 -0.01903592 0.02002777 0.54117647 0.42352941 0.64313725
v 0.06658671 -0.02228977 0.02026466 0.54117647 0.42352941 0.64313725
v 0.06658671 -0.02086621 0.02147181 0.54117647 0.42352941 0.64313725
v 0.06658671 -0.01535275 0.00059983 0.54117647 0.42352941 0.64313725
v 0.06658671 -0.01731297 0.00163824 0.54117647 0.42352941 0.64313725
v -0.15447647 -0.00273844 0.00218665 0.54117647 0.42352941 0.64313725
v -0.03771194 -0.01308183 0.00188162 0.54117647 0.42352941 0.64313725
v -0.03102184 -0.01507595 0.00427644 0.54117647 0.42352941 0.64313725
v -0.02769909 -0.01618316 0.00568803 0.54117647 0.42352941 0.64313725
v -0.15447647 -0.00382870 0.00494492 0.54117647 0.42352941 0.64313725
v -0.15782151 -0.00446140 0.00828404 0.54117647 0.42352941 0.64313725
v -0.15777691 -0.00306608 0.00498710 0.54117647 0.42352941 0.64313725
v 0.06658671 -0.02374158 0.00626564 0.54117647 0.42352941 0.64313725
v -0.02435404 -0.01632438 0.00548359 0.54117647 0.42352941 0.64313725
v -0.02769909 -0.01520022 0.00402009 0.54117647 0.42352941 0.64313725
v -0.15996235 -0.00291356 0.01495581 0.54117647 0.42352941 0.64313725
v -0.15447647 -0.00491332 0.00828404 0.54117647 0.42352941 0.64313725
v -0.15447647 -0.00510539 0.01161993 0.54117647 0.42352941 0.64313725
v -0.04000887 -0.01572559 0.01038033 0.54117647 0.42352941 0.64313725
v -0.02769909 -0.01691753 0.00828404 0.54117647 0.42352941 0.64313725
v -0.02100899 -0.01738075 0.01161993 0.54117647 0.42352941 0.64313725
v -0.01768624 -0.01765756 0.01161993 0.54117647 0.42352941 0.64313725
v -0.00767339 -0.01717739 0.01829169 0.54117647 0.42352941 0.64313725
v 0.01569736 -0.01921104 0.01778222 0.54117647 0.42352941 0.64313725
v 0.01888630 -0.01930708 0.01855778 0.54117647 0.42352941 0.64313725
v 0.05090958 -0.02230672 0.01645825 0.54117647 0.42352941 0.64313725
v 0.06658671 -0.02292812 0.01843447 0.54117647 0.42352941 0.64313725
v 0.06658671 -0.02245924 0.01999857 0.54117647 0.42352941 0.64313725
v -0.00098329 -0.01773100 0.01829169 0.54117647 0.42352941 0.64313725
v -0.03102184 -0.01601369 0.00594438 0.54117647 0.42352941 0.64313725
v -0.03666382 -0.01570864 0.00648955 0.54117647 0.42352941 0.64313725
v 0.06658671 -0.02468497 0.00834894 0.54117647 0.42352941 0.64313725
v -0.02435404 -0.01721693 0.00828404 0.54117647 0.42352941 0.64313725
v -0.00319102 -0.01901333 0.01018887 0.54117647 0.42352941 0.64313725
v 0.00343218 -0.01903027 0.01353449 0.54117647 0.42352941 0.64313725
v 0.00231716 -0.01869698 0.01477084 0.54117647 0.42352941 0.64313725
v -0.00767339 -0.01783268 0.01495581 0.54117647 0.42352941 0.64313725
v 0.06658671 -0.02454374 0.01155178 0.54117647 0.42352941 0.64313725
v 0.01050138 -0.01899638 0.01669838 0.54117647 0.42352941 0.64313725
v 0.01235231 -0.01948785 0.01495581 0.54117647 0.42352941 0.64313725
v 0.01569736 -0.01975900 0.01495581 0.54117647 0.42352941 0.64313725
v 0.06658671 -0.02434602 0.01244092 0.54117647 0.42352941 0.64313725
v 0.06658671 -0.02377547 0.01495581 0.54117647 0.42352941 0.64313725
v 0.06658671 -0.02466802 0.00897523 0.54117647 0.42352941 0.64313725
v -0.00319102 -0.01901333 0.00971510 0.54117647 0.42352941 0.64313725
f 1 2 3
f 1 3 4
f 1 4 5
f 1 5 6
f 1 6 7
f 1 7 8
f 1 8 9
f 1 9 10
f 1 10 2
f 2 11 3
f 2 10 12
f 2 12 13
f 2 13 14
f 2 14 11
f 3 11 15
f 3 15 16
f 3 16 17
f 3 17 18
f 3 18 19
f 3 19 20
f 3 20 4
f 4 21 22
f 4 22 23
f 4 23 5
f 4 20 24
f 4 24 21
f 5 23 6
f 6 25 26
f 6 26 27
f 6 27 7
f 6 23 28
f 6 28 29
f 6 29 30
f 6 30 31
f 6 31 32
f 6 32 25
f 7 27 8
f 8 27 33
f 8 33 9
f 9 33 10
f 10 33 34
f 10 34 35
f 10 35 12
f 11 14 36
f 11 36 37
f 11 37 15
f 12 35 13
f 13 38 14
f 13 35 39
f 13 39 40
f 13 40 38
f 14 38 36
f 15 37 41
f 15 41 42
f 15 42 16
f 16 42 17
f 17 42 43
f 17 43 18
f 18 43 19
f 19 43 20
f 20 43 24
f 21 44 45
f 21 45 46
f 21 46 47
f 21 47 22
f 21 24 44
f 22 28 23
f 22 47 48
f 22 48 28
f 24 43 49
f 24 49 50
f 24 50 51
f 24 51 52
f 24 52 53
f 24 53 54
f 24 54 45
f 24 45 44
f 25 55 26
f 25 32 56
f 25 56 57
f 25 57 58
f 25 58 59
f 25 59 55
f 26 60 27
f 26 55 61
f 26 61 62
f 26 62 60
f 27 60 63
f 27 63 33
f 28 48 29
f 29 48 64
f 29 64 65
f 29 65 66
f 29 66 30
f 30 66 67
f 30 67 68
f 30 68 31
f 31 68 69
f 31 69 56
f 31 56 32
f 33 63 34
f 34 63 70
f 34 70 35
f 35 71 39
f 35 70 72
f 35 72 71
f 36 38 73
f 36 73 74
f 36 74 75
f 36 75 76
f 36 76 37
f 37 76 41
f 38 77 73
f 38 40 77
f 39 71 40
f 40 71 78
f 40 78 77
f 41 76 79
f 41 79 80
f 41 80 81
f 41 81 42
f 42 81 82
f 42 82 49
f 42 49 43
f 45 54 83
f 45 83 84
f 45 84 46
f 46 84 85
f 46 85 86
f 46 86 47
f 47 86 48
f 48 86 85
f 48 85 87
f 48 87 88
f 48 88 89
f 48 89 90
f 48 90 91
f 48 91 92
f 48 92 93
f 48 93 64
f 49 82 94
f 49 94 50
f 50 95 96
f 50 96 97
f 50 97 51
f 50 94 82
f 50 82 98
f 50 98 99
f 50 99 100
f 50 100 95
f 51 97 101
f 51 101 89
f 51 89 88
f 51 88 102
f 51 102 52
f 52 102 87
f 52 87 85
f 52 85 103
f 52 103 53
f 53 103 85
f 53 85 54
f 54 85 83
f 55 104 105
f 55 105 106
f 55 106 107
f 55 107 61
f 55 59 104
f 56 69 108
f 56 108 109
f 56 109 57
f 57 109 58
f 58 109 59
f 59 109 110
f 59 110 111
f 59 111 112
f 59 112 113
f 59 113 104
f 60 114 115
f 60 115 63
f 60 62 116
f 60 116 117
f 60 117 114
f 61 107 118
f 61 118 62
f 62 118 116
f 63 115 119
f 63 119 120
f 63 120 70
f 64 93 121
f 64 121 122
f 64 122 123
f 64 123 65
f 65 123 66
f 66 123 108
f 66 108 67
f 67 108 68
f 68 108 69
f 70 120 124
f 70 124 72
f 71 72 124
f 71 124 125
f 71 125 78
f 73 77 126
f 73 126 127
f 73 127 128
f 73 128 74
f 74 128 129
f 74 129 130
f 74 130 131
f 74 131 132
f 74 132 81
f 74 81 133
f 74 133 75
f 75 133 81
f 75 81 76
f 76 81 79
f 77 78 126
f 78 125 134
f 78 134 135
f 78 135 126
f 79 81 80
f 81 136 185
f 81 185 222
f 81 222 267
f 81 267 218
f 81 218 266
f 81 266 265
f 81 265 264
f 81 264 310
f 81 310 341
f 81 341 340
f 81 340 366
f 81 366 365
f 81 365 381
f 81 381 380
f 81 380 376
f 81 376 382
f 81 382 370
f 81 370 351
f 81 351 321
f 81 321 320
f 81 320 343
f 81 343 342
f 81 342 311
f 81 311 270
f 81 270 228
f 81 228 223
f 81 223 195
f 81 195 194
f 81 194 193
f 81 193 192
f 81 192 191
f 81 191 190
f 81 190 161
f 81 161 159
f 81 159 158
f 81 158 189
f 81 189 188
f 81 188 145
f 81 145 144
f 81 144 99
f 81 99 98
f 81 98 82
f 81 132 137
f 81 137 136
f 83 85 84
f 87 102 88
f 89 101 138
f 89 138 90
f 90 138 139
f 90 139 140
f 90 140 141
f 90 141 91
f 91 141 92
f 92 141 142
f 92 142 93
f 93 142 121
f 95 100 96
f 96 100 97
f 97 138 101
f 97 100 141
f 97 141 143
f 97 143 140
f 97 140 139
f 97 139 138
f 99 144 100
f 100 144 145
f 100 145 141
f 104 146 147
f 104 147 105
f 104 113 148
f 104 148 146
f 105 147 146
f 105 146 148
f 105 148 149
f 105 149 150
f 105 150 106
f 106 151 152
f 106 152 153
f 106 153 154
f 106 154 107
f 106 150 151
f 107 154 118
f 108 155 112
f 108 112 156
f 108 156 109
f 108 123 122
f 108 122 157
f 108 157 158
f 108 158 159
f 108 159 155
f 109 156 110
f 110 156 111
f 111 156 112
f 112 155 160
f 112 160 161
f 112 161 162
f 112 162 163
f 112 163 113
f 113 163 148
f 114 117 164
f 114 164 115
f 115 164 165
f 115 165 166
f 115 166 119
f 116 118 167
f 116 167 168
f 116 168 117
f 117 168 164
f 118 169 168
f 118 168 167
f 118 154 153
f 118 153 152
f 118 152 169
f 119 166 170
f 119 170 171
f 119 171 120
f 120 171 172
f 120 172 124
f 121 157 122
f 121 142 158
f 121 158 157
f 124 172 173
f 124 173 174
f 124 174 175
f 124 175 176
f 124 176 134
f 124 134 125
f 126 135 177
f 126 177 178
f 126 178 179
f 126 179 180
f 126 180 127
f 127 180 181
f 127 181 182
f 127 182 128
f 128 182 181
f 128 181 183
f 128 183 129
f 129 183 181
f 129 181 184
f 129 184 130
f 130 184 131
f 131 137 132
f 131 184 185
f 131 185 136
f 131 136 137
f 134 176 175
f 134 175 186
f 134 186 135
f 135 186 187
f 135 187 177
f 140 143 141
f 141 145 188
f 141 188 142
f 142 188 189
f 142 189 158
f 148 163 161
f 148 161 190
f 148 190 191
f 148 191 192
f 148 192 193
f 148 193 194
f 148 194 195
f 148 195 196
f 148 196 150
f 148 150 149
f 150 196 197
f 150 197 198
f 150 198 199
f 150 199 151
f 151 199 200
f 151 200 152
f 152 200 201
f 152 201 169
f 155 159 160
f 159 161 160
f 161 163 162
f 164 168 165
f 165 168 202
f 165 202 203
f 165 203 170
f 165 170 166
f 168 169 202
f 169 201 202
f 170 203 202
f 170 202 204
f 170 204 205
f 170 205 171
f 171 205 206
f 171 206 207
f 171 207 172
f 172 207 208
f 172 208 173
f 173 208 209
f 173 209 174
f 174 210 187
f 174 187 186
f 174 186 175
f 174 209 210
f 177 211 178
f 177 187 209
f 177 209 211
f 178 212 213
f 178 213 214
f 178 214 179
f 178 211 212
f 179 214 180
f 180 215 216
f 180 216 217
f 180 217 181
f 180 214 213
f 180 213 215
f 181 217 184
f 184 217 218
f 184 218 219
f 184 219 220
f 184 220 221
f 184 221 185
f 185 221 219
f 185 219 222
f 187 210 209
f 195 223 196
f 196 224 225
f 196 225 226
f 196 226 227
f 196 227 197
f 196 223 228
f 196 228 229
f 196 229 230
f 196 230 231
f 196 231 224
f 197 227 226
f 197 226 232
f 197 232 233
f 197 233 234
f 197 234 235
f 197 235 236
f 197 236 237
f 197 237 238
f 197 238 239
f 197 239 198
f 198 240 241
f 198 241 199
f 198 239 242
f 198 242 243
f 198 243 244
f 198 244 240
f 199 241 245
f 199 245 200
f 200 245 246
f 200 246 201
f 201 246 247
f 201 247 202
f 202 247 248
f 202 248 249
f 202 249 250
f 202 250 204
f 204 250 251
f 204 251 252
f 204 252 205
f 205 252 207
f 205 207 206
f 207 252 253
f 207 253 208
f 208 253 209
f 209 253 254
f 209 254 255
f 209 255 256
f 209 256 211
f 211 256 257
f 211 257 258
f 211 258 259
f 211 259 212
f 212 259 260
f 212 260 261
f 212 261 262
f 212 262 263
f 212 263 213
f 213 263 264
f 213 264 265
f 213 265 215
f 215 265 216
f 216 265 266
f 216 266 217
f 217 266 218
f 218 267 219
f 219 267 222
f 219 221 220
f 224 231 269
f 224 269 225
f 225 268 235
f 225 235 232
f 225 232 226
f 225 269 268
f 228 270 271
f 228 271 272
f 228 272 273
f 228 273 274
f 228 274 235
f 228 235 275
f 228 275 276
f 228 276 277
f 228 277 278
f 228 278 230
f 228 230 229
f 230 269 231
f 230 278 279
f 230 279 269
f 232 235 234
f 232 234 233
f 235 272 236
f 235 268 279
f 235 279 278
f 235 278 277
f 235 277 276
f 235 276 275
f 235 274 273
f 235 273 272
f 236 272 271
f 236 271 237
f 237 271 243
f 237 243 238
f 238 243 239
f 239 243 242
f 240 280 241
f 240 244 280
f 241 281 245
f 241 280 282
f 241 282 281
f 243 271 283
f 243 283 244
f 244 283 284
f 244 284 285
f 244 285 282
f 244 282 280
f 245 281 286
f 245 286 287
f 245 287 246
f 246 287 288
f 246 288 247
f 247 289 290
f 247 290 248
f 247 288 289
f 248 291 249
f 248 290 291
f 249 291 292
f 249 292 250
f 250 292 251
f 251 292 254
f 251 254 252
f 252 254 253
f 254 292 293
f 254 293 255
f 255 293 294
f 255 294 295
f 255 295 296
f 255 296 297
f 255 297 256
f 256 297 257
f 257 297 258
f 258 297 298
f 258 298 299
f 258 299 300
f 258 300 259
f 259 301 260
f 259 300 299
f 259 299 302
f 259 302 303
f 259 303 304
f 259 304 305
f 259 305 306
f 259 306 307
f 259 307 308
f 259 308 309
f 259 309 301
f 260 301 309
f 260 309 261
f 261 309 262
f 262 309 263
f 263 309 264
f 264 309 310
f 268 269 279
f 270 311 312
f 270 312 271
f 271 312 283
f 281 282 285
f 281 285 313
f 281 313 314
f 281 314 315
f 281 315 316
f 281 316 317
f 281 317 318
f 281 318 319
f 281 319 287
f 281 287 286
f 283 312 320
f 283 320 321
f 283 321 284
f 284 321 322
f 284 322 313
f 284 313 323
f 284 323 285
f 285 323 313
f 287 319 324
f 287 324 288
f 288 324 325
f 288 325 289
f 289 325 290
f 290 295 291
f 290 325 315
f 290 315 326
f 290 326 327
f 290 327 295
f 291 295 294
f 291 294 293
f 291 293 292
f 295 327 328
f 295 328 296
f 296 328 297
f 297 329 298
f 297 328 329
f 298 329 299
f 299 329 330
f 299 330 302
f 302 330 331
f 302 331 332
f 302 332 333
f 302 333 303
f 303 333 334
f 303 334 335
f 303 335 336
f 303 336 337
f 303 337 304
f 304 337 305
f 305 337 336
f 305 336 338
f 305 338 306
f 306 338 339
f 306 339 307
f 307 339 308
f 308 339 340
f 308 340 309
f 309 340 341
f 309 341 310
f 311 342 312
f 312 342 343
f 312 343 320
f 313 344 314
f 313 322 345
f 313 345 346
f 313 346 347
f 313 347 344
f 314 344 348
f 314 348 349
f 314 349 350
f 314 350 315
f 315 325 317
f 315 317 316
f 315 350 349
f 315 349 326
f 317 325 324
f 317 324 319
f 317 319 318
f 321 351 347
f 321 347 352
f 321 352 353
f 321 353 322
f 322 353 346
f 322 346 345
f 326 349 333
f 326 333 327
f 327 333 354
f 327 354 328
f 328 354 330
f 328 330 329
f 330 354 333
f 330 333 332
f 330 332 331
f 333 349 355
f 333 355 356
f 333 356 334
f 334 356 335
f 335 357 358
f 335 358 371
f 335 371 359
f 335 359 336
f 335 356 357
f 336 359 360
f 336 360 375
f 336 375 361
f 336 361 338
f 338 362 363
f 338 363 364
f 338 364 365
f 338 365 366
f 338 366 339
f 338 361 367
f 338 367 362
f 339 366 340
f 344 347 368
f 344 368 369
f 344 369 348
f 346 353 347
f 347 353 352
f 347 351 370
f 347 370 368
f 348 355 349
f 348 369 355
f 355 369 358
f 355 358 356
f 356 358 357
f 358 369 371
f 359 372 360
f 359 371 372
f 360 373 374
f 360 374 375
f 360 372 376
f 360 376 373
f 361 375 374
f 361 374 377
f 361 377 367
f 362 367 377
f 362 377 378
f 362 378 379
f 362 379 376
f 362 376 364
f 362 364 363
f 364 376 380
f 364 380 381
f 364 381 365
f 368 370 369
f 369 370 371
f 370 382 372
f 370 372 383
f 370 383 371
f 371 383 372
f 372 382 376
f 373 376 378
f 373 378 377
f 373 377 374
f 376 379 378

