# https://github.com/mikedh/trimesh
v 0.17530516 0.03607945 0.01495530 0.54509804 0.71372549 0.60000000
v 0.17482492 0.03972958 0.01522297 0.54509804 0.71372549 0.60000000
v 0.17459453 0.03882547 0.01726611 0.54509804 0.71372549 0.60000000
v 0.17470161 0.03607945 0.01753717 0.54509804 0.71372549 0.60000000
v 0.17442906 0.03274192 0.01707637 0.54509804 0.71372549 0.60000000
v 0.17422787 0.03104711 0.01665283 0.54509804 0.71372549 0.60000000
v 0.17468214 0.03274192 0.01495530 0.54509804 0.71372549 0.60000000
v 0.17472108 0.03274192 0.01162123 0.54509804 0.71372549 0.60000000
v 0.17517213 0.03607945 0.01162123 0.54509804 0.71372549 0.60000000
v 0.17495795 0.03941697 0.01162123 0.54509804 0.71372549 0.60000000
v 0.17420516 0.04105049 0.01651391 0.54509804 0.71372549 0.60000000
v 0.17442581 0.04134471 0.01162123 0.54509804 0.71372549 0.60000000
v 0.17435442 0.04122825 0.01429120 0.54509804 0.71372549 0.60000000
v 0.17235884 0.03941697 0.02163022 0.54509804 0.71372549 0.60000000
v 0.17107065 0.04145810 0.02359204 0.54509804 0.71372549 0.60000000
v 0.17369247 0.02972313 0.01797765 0.54509804 0.71372549 0.60000000
v 0.17379955 0.03607945 0.01920421 0.54509804 0.71372549 0.60000000
v 0.17231017 0.03274192 0.02163022 0.54509804 0.71372549 0.60000000
v 0.17189159 0.02945343 0.02189112 0.54509804 0.71372549 0.60000000
v 0.17378981 0.03274192 0.01874679 0.54509804 0.71372549 0.60000000
v 0.17282285 0.02607300 0.01829276 0.54509804 0.71372549 0.60000000
v 0.17386120 0.02926648 0.01495530 0.54509804 0.71372549 0.60000000
v 0.17430251 0.03074063 0.01162123 0.54509804 0.71372549 0.60000000
v 0.17395206 0.02909485 0.00828377 0.54509804 0.71372549 0.60000000
v 0.17428952 0.03076208 0.00828377 0.54509804 0.71372549 0.60000000
v 0.17424409 0.03094903 0.00653202 0.54509804 0.71372549 0.60000000
v 0.17424409 0.03151908 0.00653202 0.54509804 0.71372549 0.60000000
v 0.17457182 0.03607945 0.00862260 0.54509804 0.71372549 0.60000000
v 0.17448097 0.03941697 0.00895126 0.54509804 0.71372549 0.60000000
v 0.17436091 0.04128954 0.00940190 0.54509804 0.71372549 0.60000000
v 0.17256651 0.04276676 0.01504001 0.54509804 0.71372549 0.60000000
v 0.17228421 0.04246028 0.01829276 0.54509804 0.71372549 0.60000000
v 0.17159955 0.04199137 0.02163022 0.54509804 0.71372549 0.60000000
v 0.17151518 0.04490903 0.00494631 0.54509804 0.71372549 0.60000000
v 0.17108037 0.04456577 0.01162123 0.54509804 0.71372549 0.60000000
v 0.17092786 0.04445544 0.01356271 0.54509804 0.71372549 0.60000000
v 0.17133671 0.04474660 0.00828377 0.54509804 0.71372549 0.60000000
v 0.17239129 0.03607945 0.02163022 0.54509804 0.71372549 0.60000000
v 0.17115825 0.03941697 0.02369708 0.54509804 0.71372549 0.60000000
v 0.16776739 0.04450448 0.02357510 0.54509804 0.71372549 0.60000000
v 0.16889660 0.04257675 0.02469662 0.54509804 0.71372549 0.60000000
v 0.16779659 0.04147343 0.02676686 0.54509804 0.71372549 0.60000000
v 0.16943848 0.03941697 0.02536750 0.54509804 0.71372549 0.60000000
v 0.17182344 0.02607300 0.02119313 0.54509804 0.71372549 0.60000000
v 0.17114527 0.03607945 0.02361914 0.54509804 0.71372549 0.60000000
v 0.17107389 0.03274192 0.02349717 0.54509804 0.71372549 0.60000000
v 0.17096681 0.03059659 0.02337519 0.54509804 0.71372549 0.60000000
v 0.17136267 0.02379588 0.02061035 0.54509804 0.71372549 0.60000000
v 0.16853318 0.01559457 0.01542288 0.54509804 0.71372549 0.60000000
v 0.16895176 0.01559457 0.01208881 0.54509804 0.71372549 0.60000000
v 0.16900043 0.01559457 0.01162123 0.54509804 0.71372549 0.60000000
v 0.16905884 0.01559457 0.00875135 0.54509804 0.71372549 0.60000000
v 0.17287801 0.02607300 0.01495530 0.54509804 0.71372549 0.60000000
v 0.17390662 0.02907340 0.01162123 0.54509804 0.71372549 0.60000000
v 0.16904586 0.01559457 0.00828377 0.54509804 0.71372549 0.60000000
v 0.17258923 0.02607300 0.00494631 0.54509804 0.71372549 0.60000000
v 0.17368274 0.02966490 0.00523092 0.54509804 0.71372549 0.60000000
v 0.17286829 0.02607300 0.01162123 0.54509804 0.71372549 0.60000000
v 0.17375737 0.03267756 0.00523092 0.54509804 0.71372549 0.60000000
v 0.17413052 0.03607945 0.00695217 0.54509804 0.71372549 0.60000000
v 0.17355944 0.03607945 0.00494631 0.54509804 0.71372549 0.60000000
v 0.17343289 0.03941697 0.00494631 0.54509804 0.71372549 0.60000000
v 0.17404941 0.03941697 0.00728422 0.54509804 0.71372549 0.60000000
v 0.17274822 0.04275450 0.00494631 0.54509804 0.71372549 0.60000000
v 0.17133671 0.04479563 0.00258128 0.54509804 0.71372549 0.60000000
v 0.17016533 0.04412751 0.01829276 0.54509804 0.71372549 0.60000000
v 0.16973702 0.04366167 0.02163022 0.54509804 0.71372549 0.60000000
v 0.17056769 0.04430527 0.01578543 0.54509804 0.71372549 0.60000000
v 0.16921459 0.04557102 0.00494631 0.54509804 0.71372549 0.60000000
v 0.16921459 0.04534729 0.00828377 0.54509804 0.71372549 0.60000000
v 0.16806592 0.04459642 0.02163022 0.54509804 0.71372549 0.60000000
v 0.16587890 0.04463626 0.02390715 0.54509804 0.71372549 0.60000000
v 0.16587890 0.04356973 0.02557757 0.54509804 0.71372549 0.60000000
v 0.16587890 0.04495806 0.02163022 0.54509804 0.71372549 0.60000000
v 0.16253996 0.04533197 0.02163022 0.54509804 0.71372549 0.60000000
v 0.15920427 0.04567828 0.02163022 0.54509804 0.71372549 0.60000000
v 0.16777064 0.03941697 0.02675670 0.54509804 0.71372549 0.60000000
v 0.16587890 0.04190250 0.02702098 0.54509804 0.71372549 0.60000000
v 0.15920427 0.03941697 0.02909123 0.54509804 0.71372549 0.60000000
v 0.16253996 0.03941697 0.02836274 0.54509804 0.71372549 0.60000000
v 0.16253996 0.03607945 0.02869480 0.54509804 0.71372549 0.60000000
v 0.16253996 0.03274192 0.02878628 0.54509804 0.71372549 0.60000000
v 0.17072344 0.02837157 0.02317528 0.54509804 0.71372549 0.60000000
v 0.17030810 0.02607300 0.02286017 0.54509804 0.71372549 0.60000000
v 0.16759542 0.03755666 0.02666521 0.54509804 0.71372549 0.60000000
v 0.16945146 0.02945343 0.02417482 0.54509804 0.71372549 0.60000000
v 0.16711194 0.01559457 0.02063068 0.54509804 0.71372549 0.60000000
v 0.16771872 0.01559457 0.01952271 0.54509804 0.71372549 0.60000000
v 0.16785501 0.01559457 0.01886877 0.54509804 0.71372549 0.60000000
v 0.16792964 0.01559457 0.01850283 0.54509804 0.71372549 0.60000000
v 0.16819896 0.01559457 0.00473962 0.54509804 0.71372549 0.60000000
v 0.16798804 0.01559457 0.00408568 0.54509804 0.71372549 0.60000000
v 0.17110633 0.02404105 0.00307258 0.54509804 0.71372549 0.60000000
v 0.17160929 0.02607300 0.00273037 0.54509804 0.71372549 0.60000000
v 0.17200515 0.02941052 0.00241864 0.54509804 0.71372549 0.60000000
v 0.17199867 0.03274192 0.00228650 0.54509804 0.71372549 0.60000000
v 0.17197919 0.03607945 0.00216114 0.54509804 0.71372549 0.60000000
v 0.17193377 0.03941697 0.00205949 0.54509804 0.71372549 0.60000000
v 0.17173259 0.04275450 0.00212725 0.54509804 0.71372549 0.60000000
v 0.17002580 0.04275450 0.00046022 0.54509804 0.71372549 0.60000000
v 0.16800751 0.04461481 -0.00023099 0.54509804 0.71372549 0.60000000
v 0.16915943 0.04502856 0.00152414 0.54509804 0.71372549 0.60000000
v 0.16587890 0.04558940 0.00160884 0.54509804 0.71372549 0.60000000
v 0.16587890 0.04584378 0.00494631 0.54509804 0.71372549 0.60000000
v 0.16253996 0.04606444 0.00828377 0.54509804 0.71372549 0.60000000
v 0.16587890 0.04578555 0.00828377 0.54509804 0.71372549 0.60000000
v 0.16587890 0.04559553 0.01162123 0.54509804 0.71372549 0.60000000
v 0.16587890 0.04538407 0.01495530 0.54509804 0.71372549 0.60000000
v 0.15586857 0.04596637 0.02163022 0.54509804 0.71372549 0.60000000
v 0.16253996 0.04482321 0.02421209 0.54509804 0.71372549 0.60000000
v 0.16253996 0.04390379 0.02587913 0.54509804 0.71372549 0.60000000
v 0.16253996 0.04223349 0.02739369 0.54509804 0.71372549 0.60000000
v 0.15920427 0.04613187 0.01495530 0.54509804 0.71372549 0.60000000
v 0.15586857 0.04629124 0.01829276 0.54509804 0.71372549 0.60000000
v 0.15253287 0.04663449 0.01829276 0.54509804 0.71372549 0.60000000
v 0.15920427 0.04237141 0.02774946 0.54509804 0.71372549 0.60000000
v 0.15586857 0.04239899 0.02786806 0.54509804 0.71372549 0.60000000
v 0.15586857 0.03941697 0.02916916 0.54509804 0.71372549 0.60000000
v 0.15756562 0.03447351 0.02997896 0.54509804 0.71372549 0.60000000
v 0.15888627 0.03578216 0.02958592 0.54509804 0.71372549 0.60000000
v 0.15888627 0.03302694 0.02975872 0.54509804 0.71372549 0.60000000
v 0.15920427 0.02941052 0.02942667 0.54509804 0.71372549 0.60000000
v 0.16253996 0.02941052 0.02845762 0.54509804 0.71372549 0.60000000
v 0.16655383 0.02941052 0.02600450 0.54509804 0.71372549 0.60000000
v 0.16488598 0.02941052 0.02706164 0.54509804 0.71372549 0.60000000
v 0.16451607 0.02718857 0.02682785 0.54509804 0.71372549 0.60000000
v 0.16863701 0.02607300 0.02396475 0.54509804 0.71372549 0.60000000
v 0.16804969 0.02360893 0.02358187 0.54509804 0.71372549 0.60000000
v 0.16432786 0.01559457 0.02334469 0.54509804 0.71372549 0.60000000
v 0.16617418 0.01559457 0.02156246 0.54509804 0.71372549 0.60000000
v 0.16531430 0.03274192 0.02732932 0.54509804 0.71372549 0.60000000
v 0.16731312 0.03533164 0.02648563 0.54509804 0.71372549 0.60000000
v 0.16698214 0.03274192 0.02627556 0.54509804 0.71372549 0.60000000
v 0.16756297 0.01559457 0.00324539 0.54509804 0.71372549 0.60000000
v 0.16672580 0.01559457 0.00269310 0.54509804 0.71372549 0.60000000
v 0.16606710 0.01559457 0.00229328 0.54509804 0.71372549 0.60000000
v 0.16921459 0.02607300 0.00131406 0.54509804 0.71372549 0.60000000
v 0.16899719 0.02918986 0.00059914 0.54509804 0.71372549 0.60000000
v 0.16961695 0.03274192 0.00061947 0.54509804 0.71372549 0.60000000
v 0.16985058 0.03607945 0.00049410 0.54509804 0.71372549 0.60000000
v 0.17005500 0.03941697 0.00039245 0.54509804 0.71372549 0.60000000
v 0.16838715 0.03941697 -0.00047834 0.54509804 0.71372549 0.60000000
v 0.16835795 0.04275450 -0.00040380 0.54509804 0.71372549 0.60000000
v 0.16587890 0.04275450 -0.00133557 0.54509804 0.71372549 0.60000000
v 0.16046650 0.04345327 -0.00323302 0.54509804 0.71372549 0.60000000
v 0.15824703 0.04460868 -0.00354812 0.54509804 0.71372549 0.60000000
v 0.16587890 0.04489371 -0.00059015 0.54509804 0.71372549 0.60000000
v 0.16253996 0.04510517 -0.00117294 0.54509804 0.71372549 0.60000000
v 0.16253996 0.04585298 0.00160884 0.54509804 0.71372549 0.60000000
v 0.16253996 0.04599089 0.00494631 0.54509804 0.71372549 0.60000000
v 0.15920427 0.04623300 0.00828377 0.54509804 0.71372549 0.60000000
v 0.15586857 0.04645673 0.01162123 0.54509804 0.71372549 0.60000000
v 0.14919394 0.04690112 0.01829276 0.54509804 0.71372549 0.60000000
v 0.15920427 0.04626978 0.01162123 0.54509804 0.71372549 0.60000000
v 0.15586857 0.04645367 0.01495530 0.54509804 0.71372549 0.60000000
v 0.16253996 0.04596637 0.01162123 0.54509804 0.71372549 0.60000000
v 0.15253287 0.04621155 0.02163022 0.54509804 0.71372549 0.60000000
v 0.15920427 0.04498564 0.02436796 0.54509804 0.71372549 0.60000000
v 0.15920427 0.04404170 0.02603838 0.54509804 0.71372549 0.60000000
v 0.15310072 0.04195153 0.02742419 0.54509804 0.71372549 0.60000000
v 0.15586857 0.04406622 0.02610276 0.54509804 0.71372549 0.60000000
v 0.15253287 0.04514502 0.02439506 0.54509804 0.71372549 0.60000000
v 0.14919394 0.04499178 0.02396136 0.54509804 0.71372549 0.60000000
v 0.15752668 0.03447351 0.02997896 0.54509804 0.71372549 0.60000000
v 0.15220515 0.03969893 0.02759699 0.54509804 0.71372549 0.60000000
v 0.15756562 0.03432947 0.02997896 0.54509804 0.71372549 0.60000000
v 0.15752668 0.03432947 0.02997896 0.54509804 0.71372549 0.60000000
v 0.15586857 0.02941052 0.02857621 0.54509804 0.71372549 0.60000000
v 0.15041400 0.01559457 0.02354121 0.54509804 0.71372549 0.60000000
v 0.15247446 0.01559457 0.02388004 0.54509804 0.71372549 0.60000000
v 0.15540132 0.01559457 0.02407318 0.54509804 0.71372549 0.60000000
v 0.15586857 0.01559457 0.02408334 0.54509804 0.71372549 0.60000000
v 0.15873701 0.01559457 0.02409351 0.54509804 0.71372549 0.60000000
v 0.15920427 0.01559457 0.02405284 0.54509804 0.71372549 0.60000000
v 0.16207270 0.01559457 0.02376823 0.54509804 0.71372549 0.60000000
v 0.16411695 0.01559457 0.02339891 0.54509804 0.71372549 0.60000000
v 0.16302344 0.01559457 0.00052121 0.54509804 0.71372549 0.60000000
v 0.16750457 0.02793024 -0.00003786 0.54509804 0.71372549 0.60000000
v 0.16120957 0.03001428 -0.00357862 0.54509804 0.71372549 0.60000000
v 0.16773819 0.03015526 -0.00016323 0.54509804 0.71372549 0.60000000
v 0.16794910 0.03274192 -0.00027504 0.54509804 0.71372549 0.60000000
v 0.16818273 0.03607945 -0.00040041 0.54509804 0.71372549 0.60000000
v 0.16311754 0.03274192 -0.00283659 0.54509804 0.71372549 0.60000000
v 0.16144645 0.03274192 -0.00368027 0.54509804 0.71372549 0.60000000
v 0.16307211 0.03607945 -0.00291452 0.54509804 0.71372549 0.60000000
v 0.16587890 0.03941697 -0.00160664 0.54509804 0.71372549 0.60000000
v 0.16140426 0.03607945 -0.00362267 0.54509804 0.71372549 0.60000000
v 0.16277683 0.03941697 -0.00285692 0.54509804 0.71372549 0.60000000
v 0.16090781 0.04122825 -0.00340920 0.54509804 0.71372549 0.60000000
v 0.15929512 0.04250626 -0.00368027 0.54509804 0.71372549 0.60000000
v 0.15920427 0.03941697 -0.00405976 0.54509804 0.71372549 0.60000000
v 0.15920427 0.03607945 -0.00440197 0.54509804 0.71372549 0.60000000
v 0.15676739 0.04275450 -0.00374126 0.54509804 0.71372549 0.60000000
v 0.15720220 0.04460868 -0.00354812 0.54509804 0.71372549 0.60000000
v 0.15929512 0.04512050 -0.00196241 0.54509804 0.71372549 0.60000000
v 0.15586857 0.04606138 0.00160884 0.54509804 0.71372549 0.60000000
v 0.15586857 0.04633721 0.00828377 0.54509804 0.71372549 0.60000000
v 0.14919394 0.04681837 0.01495530 0.54509804 0.71372549 0.60000000
v 0.14585824 0.04619623 0.00828377 0.54509804 0.71372549 0.60000000
v 0.14585824 0.04606751 0.01162123 0.54509804 0.71372549 0.60000000
v 0.14585824 0.04584991 0.01495530 0.54509804 0.71372549 0.60000000
v 0.14559540 0.04546988 0.01801492 0.54509804 0.71372549 0.60000000
v 0.14658509 0.04528293 0.02163022 0.54509804 0.71372549 0.60000000
v 0.14919394 0.04623607 0.02163022 0.54509804 0.71372549 0.60000000
v 0.15586857 0.04508678 0.02443572 0.54509804 0.71372549 0.60000000
v 0.15087801 0.04099839 0.02662455 0.54509804 0.71372549 0.60000000
v 0.14726001 0.04468530 0.02349039 0.54509804 0.71372549 0.60000000
v 0.15253287 0.03607945 0.02769864 0.54509804 0.71372549 0.60000000
v 0.15071901 0.03877337 0.02673298 0.54509804 0.71372549 0.60000000
v 0.15073848 0.03607945 0.02671943 0.54509804 0.71372549 0.60000000
v 0.15619630 0.03302694 0.02922337 0.54509804 0.71372549 0.60000000
v 0.15233169 0.03301162 0.02727511 0.54509804 0.71372549 0.60000000
v 0.15108243 0.03207687 0.02651952 0.54509804 0.71372549 0.60000000
v 0.15315589 0.02941052 0.02717684 0.54509804 0.71372549 0.60000000
v 0.15007654 0.01559457 0.02337519 0.54509804 0.71372549 0.60000000
v 0.16158597 0.01559457 -0.00017339 0.54509804 0.71372549 0.60000000
v 0.16083966 0.02778926 -0.00338888 0.54509804 0.71372549 0.60000000
v 0.15951901 0.02910404 -0.00410042 0.54509804 0.71372549 0.60000000
v 0.15920427 0.03274192 -0.00463577 0.54509804 0.71372549 0.60000000
v 0.16587890 0.03274192 -0.00138301 0.54509804 0.71372549 0.60000000
v 0.16110574 0.03941697 -0.00348375 0.54509804 0.71372549 0.60000000
v 0.15586857 0.03274192 -0.00460527 0.54509804 0.71372549 0.60000000
v 0.15623524 0.03941697 -0.00397166 0.54509804 0.71372549 0.60000000
v 0.15427211 0.03752295 -0.00336177 0.54509804 0.71372549 0.60000000
v 0.15456739 0.03941697 -0.00321946 0.54509804 0.71372549 0.60000000
v 0.14997270 0.04275450 -0.00049189 0.54509804 0.71372549 0.60000000
v 0.15253287 0.04501936 -0.00072907 0.54509804 0.71372549 0.60000000
v 0.15600160 0.04516034 -0.00180994 0.54509804 0.71372549 0.60000000
v 0.15044320 0.04467917 -0.00026149 0.54509804 0.71372549 0.60000000
v 0.14585824 0.04515114 0.00253385 0.54509804 0.71372549 0.60000000
v 0.15253287 0.04592346 0.00160884 0.54509804 0.71372549 0.60000000
v 0.14919394 0.04640157 0.00494631 0.54509804 0.71372549 0.60000000
v 0.14919394 0.04668046 0.01162123 0.54509804 0.71372549 0.60000000
v 0.14585824 0.04606138 0.00494631 0.54509804 0.71372549 0.60000000
v 0.14373287 0.04504694 0.00494631 0.54509804 0.71372549 0.60000000
v 0.14372314 0.04511437 0.00828377 0.54509804 0.71372549 0.60000000
v 0.14390160 0.04491516 0.01162123 0.54509804 0.71372549 0.60000000
v 0.14408332 0.04462707 0.01495530 0.54509804 0.71372549 0.60000000
v 0.14418066 0.04444625 0.01671721 0.54509804 0.71372549 0.60000000
v 0.14431045 0.04382104 0.01894331 0.54509804 0.71372549 0.60000000
v 0.14944054 0.03969893 0.02573005 0.54509804 0.71372549 0.60000000
v 0.14700691 0.04275450 0.02366997 0.54509804 0.71372549 0.60000000
v 0.14518331 0.04272692 0.02142015 0.54509804 0.71372549 0.60000000
v 0.14510219 0.03941697 0.02219268 0.54509804 0.71372549 0.60000000
v 0.15083907 0.03430188 0.02664827 0.54509804 0.71372549 0.60000000
v 0.14653317 0.03607945 0.02399863 0.54509804 0.71372549 0.60000000
v 0.14469334 0.03274192 0.02290422 0.54509804 0.71372549 0.60000000
v 0.14636119 0.03274192 0.02400202 0.54509804 0.71372549 0.60000000
v 0.14951518 0.03301162 0.02579443 0.54509804 0.71372549 0.60000000
v 0.14660780 0.02941052 0.02377501 0.54509804 0.71372549 0.60000000
v 0.14919394 0.02941052 0.02512016 0.54509804 0.71372549 0.60000000
v 0.14493996 0.02941052 0.02280257 0.54509804 0.71372549 0.60000000
v 0.14899275 0.01559457 0.02271786 0.54509804 0.71372549 0.60000000
v 0.16135235 0.01559457 -0.00024455 0.54509804 0.71372549 0.60000000
v 0.15586857 0.02941052 -0.00433421 0.54509804 0.71372549 0.60000000
v 0.15954497 0.01559457 -0.00059693 0.54509804 0.71372549 0.60000000
v 0.15920427 0.01559457 -0.00064436 0.54509804 0.71372549 0.60000000
v 0.15862019 0.02733874 -0.00370060 0.54509804 0.71372549 0.60000000
v 0.15393140 0.02941052 -0.00358879 0.54509804 0.71372549 0.60000000
v 0.15380161 0.03274192 -0.00365316 0.54509804 0.71372549 0.60000000
v 0.15396385 0.03529793 -0.00353118 0.54509804 0.71372549 0.60000000
v 0.15557977 0.03627866 -0.00410042 0.54509804 0.71372549 0.60000000
v 0.15253287 0.03941697 -0.00223347 0.54509804 0.71372549 0.60000000
v 0.14830485 0.04275450 0.00033146 0.54509804 0.71372549 0.60000000
v 0.14927831 0.04534116 0.00148348 0.54509804 0.71372549 0.60000000
v 0.14395353 0.04474353 0.00305225 0.54509804 0.71372549 0.60000000
v 0.14320396 0.04275450 0.00494631 0.54509804 0.71372549 0.60000000
v 0.14300278 0.04275450 0.00828377 0.54509804 0.71372549 0.60000000
v 0.14399895 0.04272692 0.01801492 0.54509804 0.71372549 0.60000000
v 0.14330780 0.04275450 0.01162123 0.54509804 0.71372549 0.60000000
v 0.14409630 0.04159909 0.02016987 0.54509804 0.71372549 0.60000000
v 0.14342137 0.03941697 0.01829276 0.54509804 0.71372549 0.60000000
v 0.14280809 0.03607945 0.01829276 0.54509804 0.71372549 0.60000000
v 0.14677004 0.03941697 0.02383938 0.54509804 0.71372549 0.60000000
v 0.14486532 0.03607945 0.02261621 0.54509804 0.71372549 0.60000000
v 0.14389511 0.03941697 0.02052225 0.54509804 0.71372549 0.60000000
v 0.14359010 0.03607945 0.02094579 0.54509804 0.71372549 0.60000000
v 0.14328184 0.03274192 0.02123718 0.54509804 0.71372549 0.60000000
v 0.14329807 0.02941052 0.02113553 0.54509804 0.71372549 0.60000000
v 0.14672137 0.01559457 0.02092885 0.54509804 0.71372549 0.60000000
v 0.15413258 0.02765748 -0.00344309 0.54509804 0.71372549 0.60000000
v 0.15569660 0.01559457 -0.00063081 0.54509804 0.71372549 0.60000000
v 0.15412933 0.01559457 -0.00044107 0.54509804 0.71372549 0.60000000
v 0.14991429 0.02941052 -0.00073585 0.54509804 0.71372549 0.60000000
v 0.14412550 0.03067320 0.00322844 0.54509804 0.71372549 0.60000000
v 0.14970662 0.03274192 -0.00088493 0.54509804 0.71372549 0.60000000
v 0.15213376 0.03274192 -0.00255536 0.54509804 0.71372549 0.60000000
v 0.14961253 0.03607945 -0.00089510 0.54509804 0.71372549 0.60000000
v 0.14797064 0.03941697 0.00019932 0.54509804 0.71372549 0.60000000
v 0.14964173 0.03941697 -0.00074262 0.54509804 0.71372549 0.60000000
v 0.14585824 0.04275450 0.00168339 0.54509804 0.71372549 0.60000000
v 0.14385618 0.04275450 0.00296077 0.54509804 0.71372549 0.60000000
v 0.14310986 0.03941697 0.00494631 0.54509804 0.71372549 0.60000000
v 0.14218183 0.03274192 0.00828377 0.54509804 0.71372549 0.60000000
v 0.14237978 0.03607945 0.00828377 0.54509804 0.71372549 0.60000000
v 0.14261664 0.03941697 0.00828377 0.54509804 0.71372549 0.60000000
v 0.14275943 0.03941697 0.01162123 0.54509804 0.71372549 0.60000000
v 0.14227270 0.03274192 0.01829276 0.54509804 0.71372549 0.60000000
v 0.14237004 0.02941052 0.01829276 0.54509804 0.71372549 0.60000000
v 0.14370691 0.02681773 0.02060018 0.54509804 0.71372549 0.60000000
v 0.14647800 0.01559457 0.02054258 0.54509804 0.71372549 0.60000000
v 0.15318833 0.01559457 -0.00010902 0.54509804 0.71372549 0.60000000
v 0.15210780 0.01559457 0.00043989 0.54509804 0.71372549 0.60000000
v 0.14911930 0.01559457 0.00218824 0.54509804 0.71372549 0.60000000
v 0.14846385 0.01559457 0.00263888 0.54509804 0.71372549 0.60000000
v 0.14628656 0.02607300 0.00239832 0.54509804 0.71372549 0.60000000
v 0.14824644 0.02941052 0.00045005 0.54509804 0.71372549 0.60000000
v 0.14559866 0.02949940 0.00232039 0.54509804 0.71372549 0.60000000
v 0.14405411 0.03274192 0.00316746 0.54509804 0.71372549 0.60000000
v 0.14585824 0.03274192 0.00186297 0.54509804 0.71372549 0.60000000
v 0.14803877 0.03274192 0.00030436 0.54509804 0.71372549 0.60000000
v 0.14431370 0.02844818 0.00342158 0.54509804 0.71372549 0.60000000
v 0.14341812 0.02949940 0.00469896 0.54509804 0.71372549 0.60000000
v 0.14305470 0.03274192 0.00494631 0.54509804 0.71372549 0.60000000
v 0.14585824 0.03607945 0.00171727 0.54509804 0.71372549 0.60000000
v 0.14794468 0.03607945 0.00023320 0.54509804 0.71372549 0.60000000
v 0.14585824 0.03941697 0.00160884 0.54509804 0.71372549 0.60000000
v 0.14391134 0.03941697 0.00301837 0.54509804 0.71372549 0.60000000
v 0.14307741 0.03607945 0.00494631 0.54509804 0.71372549 0.60000000
v 0.14235382 0.02941052 0.00828377 0.54509804 0.71372549 0.60000000
v 0.14215913 0.03274192 0.01162123 0.54509804 0.71372549 0.60000000
v 0.14215913 0.03274192 0.01495530 0.54509804 0.71372549 0.60000000
v 0.14238626 0.03607945 0.01162123 0.54509804 0.71372549 0.60000000
v 0.14233760 0.02941052 0.01495530 0.54509804 0.71372549 0.60000000
v 0.14420013 0.01559457 0.01041839 0.54509804 0.71372549 0.60000000
v 0.14424231 0.01559457 0.01162123 0.54509804 0.71372549 0.60000000
v 0.14431370 0.01559457 0.01260383 0.54509804 0.71372549 0.60000000
v 0.14469984 0.01559457 0.01479266 0.54509804 0.71372549 0.60000000
v 0.14534556 0.01559457 0.01773031 0.54509804 0.71372549 0.60000000
v 0.14549157 0.01559457 0.01831309 0.54509804 0.71372549 0.60000000
v 0.14629954 0.01559457 0.00444484 0.54509804 0.71372549 0.60000000
v 0.14397623 0.03607945 0.00309291 0.54509804 0.71372549 0.60000000
v 0.14595883 0.01559457 0.00479044 0.54509804 0.71372549 0.60000000
v 0.14539099 0.01559457 0.00543761 0.54509804 0.71372549 0.60000000
v 0.14418066 0.01559457 0.00828377 0.54509804 0.71372549 0.60000000
f 1 2 3
f 1 3 4
f 1 4 5
f 1 5 6
f 1 6 7
f 1 7 8
f 1 8 9
f 1 9 10
f 1 10 2
f 2 11 3
f 2 10 12
f 2 12 13
f 2 13 11
f 3 14 4
f 3 11 15
f 3 15 14
f 4 16 5
f 4 14 17
f 4 17 18
f 4 18 19
f 4 19 20
f 4 20 16
f 5 16 6
f 6 16 21
f 6 21 22
f 6 22 7
f 7 22 23
f 7 23 8
f 8 23 24
f 8 24 25
f 8 25 26
f 8 26 9
f 9 26 27
f 9 27 28
f 9 28 29
f 9 29 10
f 10 29 30
f 10 30 12
f 11 13 31
f 11 31 32
f 11 32 33
f 11 33 15
f 12 30 34
f 12 34 13
f 13 35 36
f 13 36 31
f 13 34 37
f 13 37 35
f 14 38 17
f 14 15 39
f 14 39 38
f 15 40 41
f 15 41 42
f 15 42 43
f 15 43 39
f 15 33 40
f 16 20 44
f 16 44 21
f 17 38 18
f 18 38 45
f 18 45 46
f 18 46 19
f 19 44 20
f 19 46 47
f 19 47 44
f 21 44 48
f 21 48 49
f 21 49 50
f 21 50 51
f 21 51 52
f 21 52 53
f 21 53 54
f 21 54 22
f 22 54 23
f 23 54 24
f 24 52 55
f 24 55 56
f 24 56 57
f 24 57 26
f 24 26 25
f 24 54 53
f 24 53 58
f 24 58 52
f 26 57 59
f 26 59 27
f 27 60 28
f 27 59 61
f 27 61 62
f 27 62 60
f 28 60 62
f 28 62 63
f 28 63 29
f 29 63 30
f 30 63 62
f 30 62 64
f 30 64 65
f 30 65 34
f 31 36 32
f 32 66 67
f 32 67 33
f 32 36 68
f 32 68 66
f 33 67 40
f 34 65 69
f 34 69 37
f 35 37 70
f 35 70 36
f 36 70 71
f 36 71 40
f 36 40 68
f 37 69 70
f 38 39 45
f 39 43 45
f 40 72 73
f 40 73 42
f 40 42 41
f 40 67 66
f 40 66 68
f 40 71 74
f 40 74 75
f 40 75 76
f 40 76 72
f 42 77 43
f 42 73 78
f 42 78 79
f 42 79 80
f 42 80 81
f 42 81 82
f 42 82 77
f 43 77 46
f 43 46 45
f 44 47 83
f 44 83 84
f 44 84 48
f 46 77 47
f 47 77 85
f 47 85 86
f 47 86 83
f 48 87 88
f 48 88 89
f 48 89 90
f 48 90 49
f 48 84 87
f 49 90 89
f 49 89 88
f 49 88 87
f 49 87 130
f 49 130 129
f 49 129 176
f 49 176 175
f 49 175 174
f 49 174 173
f 49 173 172
f 49 172 171
f 49 171 170
f 49 170 169
f 49 169 215
f 49 215 253
f 49 253 280
f 49 280 301
f 49 301 330
f 49 330 329
f 49 329 328
f 49 328 327
f 49 327 326
f 49 326 325
f 49 325 335
f 49 335 334
f 49 334 333
f 49 333 331
f 49 331 305
f 49 305 304
f 49 304 303
f 49 303 302
f 49 302 283
f 49 283 282
f 49 282 257
f 49 257 256
f 49 256 254
f 49 254 216
f 49 216 177
f 49 177 136
f 49 136 135
f 49 135 134
f 49 134 92
f 49 92 91
f 49 91 55
f 49 55 52
f 49 52 51
f 49 51 50
f 52 58 53
f 55 91 56
f 56 91 92
f 56 92 93
f 56 93 94
f 56 94 57
f 57 94 95
f 57 95 59
f 59 95 96
f 59 96 97
f 59 97 98
f 59 98 61
f 61 98 62
f 62 98 99
f 62 99 64
f 64 99 65
f 65 99 100
f 65 100 101
f 65 101 102
f 65 102 69
f 69 102 103
f 69 103 104
f 69 104 105
f 69 105 106
f 69 106 107
f 69 107 108
f 69 108 74
f 69 74 70
f 70 74 71
f 72 76 109
f 72 109 110
f 72 110 111
f 72 111 73
f 73 111 112
f 73 112 78
f 74 108 113
f 74 113 75
f 75 113 114
f 75 114 76
f 76 114 115
f 76 115 109
f 77 82 85
f 78 112 79
f 79 112 116
f 79 116 117
f 79 117 118
f 79 118 119
f 79 119 120
f 79 120 80
f 80 120 81
f 81 120 121
f 81 121 82
f 82 121 122
f 82 122 123
f 82 123 85
f 83 86 124
f 83 124 125
f 83 125 126
f 83 126 127
f 83 127 84
f 84 127 128
f 84 128 129
f 84 129 130
f 84 130 87
f 85 123 131
f 85 131 132
f 85 132 86
f 86 132 133
f 86 133 124
f 92 134 93
f 93 134 94
f 94 134 135
f 94 135 136
f 94 136 137
f 94 137 138
f 94 138 95
f 95 138 139
f 95 139 140
f 95 140 141
f 95 141 96
f 96 141 97
f 97 141 98
f 98 141 100
f 98 100 99
f 100 141 142
f 100 142 143
f 100 143 101
f 101 143 144
f 101 144 145
f 101 145 146
f 101 146 147
f 101 147 102
f 102 147 103
f 103 147 148
f 103 148 149
f 103 149 104
f 104 150 151
f 104 151 152
f 104 152 153
f 104 153 105
f 104 149 150
f 105 154 106
f 105 153 154
f 106 154 155
f 106 155 115
f 106 115 156
f 106 156 107
f 107 156 113
f 107 113 108
f 109 115 153
f 109 153 157
f 109 157 110
f 110 158 111
f 110 157 158
f 111 159 116
f 111 116 112
f 111 158 159
f 113 115 114
f 113 156 115
f 115 155 153
f 116 159 117
f 117 160 118
f 117 159 161
f 117 161 162
f 117 162 163
f 117 163 160
f 118 164 119
f 118 160 165
f 118 165 164
f 119 166 121
f 119 121 120
f 119 164 167
f 119 167 166
f 121 166 122
f 122 166 167
f 122 167 168
f 122 168 169
f 122 169 170
f 122 170 171
f 122 171 172
f 122 172 173
f 122 173 174
f 122 174 175
f 122 175 176
f 122 176 129
f 122 129 123
f 123 126 125
f 123 125 131
f 123 129 126
f 124 133 125
f 125 133 132
f 125 132 131
f 126 129 128
f 126 128 127
f 136 177 137
f 137 177 178
f 137 178 138
f 138 178 179
f 138 179 180
f 138 180 139
f 139 180 181
f 139 181 182
f 139 182 140
f 140 182 141
f 141 182 142
f 142 182 183
f 142 183 184
f 142 184 185
f 142 185 186
f 142 186 143
f 143 186 187
f 143 187 188
f 143 188 189
f 143 189 144
f 144 189 145
f 145 189 190
f 145 190 146
f 146 190 191
f 146 191 192
f 146 192 193
f 146 193 194
f 146 194 195
f 146 195 148
f 146 148 147
f 148 195 149
f 149 195 196
f 149 196 197
f 149 197 151
f 149 151 150
f 151 197 198
f 151 198 152
f 152 198 153
f 153 198 199
f 153 199 200
f 153 200 201
f 153 201 202
f 153 202 203
f 153 203 204
f 153 204 157
f 153 155 154
f 157 204 162
f 157 162 205
f 157 205 158
f 158 205 159
f 159 205 161
f 160 206 165
f 160 163 207
f 160 207 206
f 161 205 162
f 162 204 163
f 163 204 207
f 164 165 167
f 165 208 167
f 165 206 209
f 165 209 210
f 165 210 208
f 167 211 168
f 167 208 211
f 168 211 212
f 168 212 213
f 168 213 214
f 168 214 215
f 168 215 169
f 177 216 217
f 177 217 178
f 178 217 179
f 179 217 218
f 179 218 219
f 179 219 184
f 179 184 183
f 179 183 180
f 180 183 220
f 180 220 181
f 181 220 182
f 182 220 183
f 184 219 185
f 185 219 187
f 185 187 186
f 187 219 192
f 187 192 221
f 187 221 188
f 188 221 189
f 189 221 192
f 189 192 191
f 189 191 190
f 192 219 222
f 192 222 193
f 193 222 223
f 193 223 224
f 193 224 225
f 193 225 226
f 193 226 194
f 194 227 228
f 194 228 195
f 194 226 229
f 194 229 230
f 194 230 227
f 195 228 196
f 196 228 231
f 196 231 232
f 196 232 233
f 196 233 198
f 196 198 197
f 198 233 234
f 198 234 199
f 199 234 235
f 199 235 236
f 199 236 200
f 200 236 201
f 201 236 202
f 202 236 237
f 202 237 238
f 202 238 239
f 202 239 203
f 203 239 240
f 203 240 207
f 203 207 204
f 206 241 209
f 206 207 242
f 206 242 241
f 207 240 243
f 207 243 244
f 207 244 242
f 208 210 245
f 208 245 212
f 208 212 211
f 209 241 246
f 209 246 247
f 209 247 248
f 209 248 210
f 210 248 245
f 212 245 213
f 213 245 249
f 213 249 250
f 213 250 251
f 213 251 214
f 214 251 215
f 215 252 253
f 215 251 250
f 215 250 252
f 216 254 217
f 217 254 218
f 218 255 219
f 218 254 256
f 218 256 257
f 218 257 258
f 218 258 255
f 219 255 222
f 222 255 259
f 222 259 260
f 222 260 261
f 222 261 262
f 222 262 223
f 223 262 261
f 223 261 224
f 224 261 263
f 224 263 226
f 224 226 225
f 226 264 229
f 226 263 261
f 226 261 264
f 227 265 231
f 227 231 228
f 227 230 265
f 229 264 266
f 229 266 230
f 230 266 234
f 230 234 265
f 231 265 234
f 231 234 232
f 232 234 233
f 234 266 235
f 235 266 267
f 235 267 268
f 235 268 236
f 236 268 237
f 237 268 238
f 238 268 239
f 239 269 240
f 239 268 270
f 239 270 269
f 240 271 243
f 240 269 272
f 240 272 273
f 240 273 271
f 241 242 274
f 241 274 246
f 242 244 275
f 242 275 247
f 242 247 274
f 243 271 276
f 243 276 244
f 244 276 277
f 244 277 275
f 245 248 249
f 246 274 247
f 247 275 278
f 247 278 279
f 247 279 252
f 247 252 248
f 248 252 250
f 248 250 249
f 252 279 280
f 252 280 253
f 255 281 259
f 255 258 257
f 255 257 282
f 255 282 283
f 255 283 281
f 259 281 284
f 259 284 285
f 259 285 286
f 259 286 287
f 259 287 260
f 260 287 288
f 260 288 289
f 260 289 261
f 261 289 290
f 261 290 264
f 264 291 266
f 264 290 291
f 266 291 292
f 266 292 267
f 267 292 293
f 267 293 294
f 267 294 295
f 267 295 296
f 267 296 268
f 268 296 297
f 268 297 273
f 268 273 270
f 269 273 272
f 269 270 273
f 271 273 298
f 271 298 276
f 273 297 298
f 275 277 278
f 276 298 277
f 277 298 278
f 278 298 279
f 279 298 299
f 279 299 300
f 279 300 301
f 279 301 280
f 281 283 302
f 281 302 303
f 281 303 304
f 281 304 305
f 281 305 306
f 281 306 284
f 284 306 307
f 284 307 308
f 284 308 285
f 285 309 310
f 285 310 311
f 285 311 286
f 285 308 312
f 285 312 313
f 285 313 314
f 285 314 309
f 286 311 315
f 286 315 316
f 286 316 287
f 287 316 288
f 288 316 317
f 288 317 289
f 289 317 292
f 289 292 291
f 289 291 290
f 292 318 314
f 292 314 319
f 292 319 293
f 292 317 318
f 293 319 294
f 294 320 321
f 294 321 295
f 294 319 314
f 294 314 320
f 295 321 322
f 295 322 323
f 295 323 296
f 296 323 298
f 296 298 297
f 298 322 299
f 298 323 322
f 299 322 324
f 299 324 325
f 299 325 326
f 299 326 327
f 299 327 328
f 299 328 329
f 299 329 330
f 299 330 300
f 300 330 301
f 305 331 312
f 305 312 306
f 306 312 308
f 306 308 307
f 309 314 332
f 309 332 315
f 309 315 310
f 310 315 311
f 312 331 333
f 312 333 334
f 312 334 313
f 313 334 335
f 313 335 320
f 313 320 314
f 314 318 332
f 315 332 318
f 315 318 317
f 315 317 316
f 320 335 324
f 320 324 321
f 321 324 322
f 324 335 325

