# https://github.com/mikedh/trimesh
v 0.16733740 -0.03780605 0.00494448 0.43529412 0.89019608 0.96078431
v 0.16728831 -0.03780605 0.00828309 0.43529412 0.89019608 0.96078431
v 0.16713492 -0.03814625 0.00828309 0.43529412 0.89019608 0.96078431
v 0.16464994 -0.04322191 0.01828847 0.43529412 0.89019608 0.96078431
v 0.16714106 -0.03822335 0.00494448 0.43529412 0.89019608 0.96078431
v 0.16720241 -0.03780605 0.00160935 0.43529412 0.89019608 0.96078431
v 0.16726991 -0.03780605 0.00890755 0.43529412 0.89019608 0.96078431
v 0.16457017 -0.04319923 0.02162708 0.43529412 0.89019608 0.96078431
v 0.16377253 -0.04486844 0.02162708 0.43529412 0.89019608 0.96078431
v 0.16374799 -0.04488659 0.01828847 0.43529412 0.89019608 0.96078431
v 0.16467448 -0.04314934 0.01494985 0.43529412 0.89019608 0.96078431
v 0.16571142 -0.04067727 0.00494448 0.43529412 0.89019608 0.96078431
v 0.16703061 -0.03812810 0.00160935 0.43529412 0.89019608 0.96078431
v 0.16462539 -0.04301780 0.01162170 0.43529412 0.89019608 0.96078431
v 0.16416521 -0.04229659 0.00014413 0.43529412 0.89019608 0.96078431
v 0.16491377 -0.04007400 -0.00061988 0.43529412 0.89019608 0.96078431
v 0.16576664 -0.03780605 -0.00084315 0.43529412 0.89019608 0.96078431
v 0.16715947 -0.03780605 0.01201243 0.43529412 0.89019608 0.96078431
v 0.16441678 -0.04289079 0.02353884 0.43529412 0.89019608 0.96078431
v 0.16704288 -0.03780605 0.01512777 0.43529412 0.89019608 0.96078431
v 0.16693857 -0.03780605 0.01785936 0.43529412 0.89019608 0.96078431
v 0.16692017 -0.03780605 0.01828847 0.43529412 0.89019608 0.96078431
v 0.16668700 -0.03780605 0.02185035 0.43529412 0.89019608 0.96078431
v 0.16168636 -0.04653765 0.02389468 0.43529412 0.89019608 0.96078431
v 0.16210360 -0.04704567 0.02162708 0.43529412 0.89019608 0.96078431
v 0.16088259 -0.04903693 0.01352998 0.43529412 0.89019608 0.96078431
v 0.16088259 -0.04903693 0.01297878 0.43529412 0.89019608 0.96078431
v 0.16366208 -0.04481855 0.01494985 0.43529412 0.89019608 0.96078431
v 0.16453949 -0.04287265 0.00828309 0.43529412 0.89019608 0.96078431
v 0.16444746 -0.04272750 0.00494448 0.43529412 0.89019608 0.96078431
v 0.16433701 -0.04255967 0.00236987 0.43529412 0.89019608 0.96078431
v 0.16520829 -0.04098118 0.00140004 0.43529412 0.89019608 0.96078431
v 0.16357618 -0.04468701 0.01162170 0.43529412 0.89019608 0.96078431
v 0.15777789 -0.05263844 0.00282339 0.43529412 0.89019608 0.96078431
v 0.15701706 -0.05172218 0.00059765 0.43529412 0.89019608 0.96078431
v 0.16102984 -0.04590263 -0.00021171 0.43529412 0.89019608 0.96078431
v 0.16179681 -0.04401570 -0.00065825 0.43529412 0.89019608 0.96078431
v 0.16284602 -0.04098118 -0.00117457 0.43529412 0.89019608 0.96078431
v 0.16257605 -0.03780605 -0.00175019 0.43529412 0.89019608 0.96078431
v 0.16655816 -0.03780605 0.02226201 0.43529412 0.89019608 0.96078431
v 0.16480333 -0.04067727 0.02389120 0.43529412 0.89019608 0.96078431
v 0.16269264 -0.04401116 0.02426448 0.43529412 0.89019608 0.96078431
v 0.16057580 -0.04871035 0.02162708 0.43529412 0.89019608 0.96078431
v 0.15120650 -0.05614468 0.02681466 0.43529412 0.89019608 0.96078431
v 0.14818771 -0.05961464 0.02702049 0.43529412 0.89019608 0.96078431
v 0.15037203 -0.05838542 0.02496220 0.43529412 0.89019608 0.96078431
v 0.16070465 -0.04885096 0.01828847 0.43529412 0.89019608 0.96078431
v 0.15918912 -0.05067893 0.01475798 0.43529412 0.89019608 0.96078431
v 0.15777175 -0.05261576 0.00828309 0.43529412 0.89019608 0.96078431
v 0.15786993 -0.05272915 0.00494448 0.43529412 0.89019608 0.96078431
v 0.15934865 -0.05069254 0.00494448 0.43529412 0.89019608 0.96078431
v 0.16082737 -0.04895982 0.01075304 0.43529412 0.89019608 0.96078431
v 0.16171091 -0.04764895 0.01176823 0.43529412 0.89019608 0.96078431
v 0.16172932 -0.04705021 0.00494448 0.43529412 0.89019608 0.96078431
v 0.16067397 -0.04871942 0.00494448 0.43529412 0.89019608 0.96078431
v 0.16076600 -0.04885550 0.00828309 0.43529412 0.89019608 0.96078431
v 0.15598012 -0.05439836 0.00494448 0.43529412 0.89019608 0.96078431
v 0.15426211 -0.05574552 0.00307806 0.43529412 0.89019608 0.96078431
v 0.14875833 -0.06011813 0.00160935 0.43529412 0.89019608 0.96078431
v 0.14832270 -0.05979154 -0.00074896 0.43529412 0.89019608 0.96078431
v 0.15388783 -0.05531915 0.00085232 0.43529412 0.89019608 0.96078431
v 0.15166669 -0.05649395 -0.00067918 0.43529412 0.89019608 0.96078431
v 0.15478978 -0.05309656 -0.00053964 0.43529412 0.89019608 0.96078431
v 0.15791902 -0.04949959 -0.00038265 0.43529412 0.89019608 0.96078431
v 0.15910322 -0.04715000 -0.00076291 0.43529412 0.89019608 0.96078431
v 0.15588808 -0.05064264 -0.00098618 0.43529412 0.89019608 0.96078431
v 0.15920139 -0.04401570 -0.00170484 0.43529412 0.89019608 0.96078431
v 0.15920139 -0.04067727 -0.00204673 0.43529412 0.89019608 0.96078431
v 0.15920139 -0.03780605 -0.00197347 0.43529412 0.89019608 0.96078431
v 0.16536782 -0.03780605 0.02412842 0.43529412 0.89019608 0.96078431
v 0.16504876 -0.03780605 0.02430285 0.43529412 0.89019608 0.96078431
v 0.16253311 -0.04067727 0.02511919 0.43529412 0.89019608 0.96078431
v 0.15403509 -0.05193537 0.02656348 0.43529412 0.89019608 0.96078431
v 0.15890688 -0.05041584 0.02162708 0.43529412 0.89019608 0.96078431
v 0.15183848 -0.05402642 0.02697165 0.43529412 0.89019608 0.96078431
v 0.14925533 -0.05730134 0.02721934 0.43529412 0.89019608 0.96078431
v 0.14870311 -0.06008638 0.02496220 0.43529412 0.89019608 0.96078431
v 0.12741818 -0.07159395 0.02993698 0.43529412 0.89019608 0.96078431
v 0.12157694 -0.07616160 0.03025794 0.43529412 0.89019608 0.96078431
v 0.14464738 -0.06265369 0.02694374 0.43529412 0.89019608 0.96078431
v 0.15559357 -0.05378148 0.02162708 0.43529412 0.89019608 0.96078431
v 0.15394918 -0.05545069 0.02162708 0.43529412 0.89019608 0.96078431
v 0.15416393 -0.05565934 0.01618831 0.43529412 0.89019608 0.96078431
v 0.15424983 -0.05574552 0.01396606 0.43529412 0.89019608 0.96078431
v 0.15431733 -0.05580449 0.01162170 0.43529412 0.89019608 0.96078431
v 0.14723667 -0.06213660 0.01828847 0.43529412 0.89019608 0.96078431
v 0.14725508 -0.06214114 0.01494985 0.43529412 0.89019608 0.96078431
v 0.14674581 -0.06177373 0.00160935 0.43529412 0.89019608 0.96078431
v 0.14486827 -0.06282606 -0.00052569 0.43529412 0.89019608 0.96078431
v 0.14592975 -0.06082573 -0.00126179 0.43529412 0.89019608 0.96078431
v 0.14933510 -0.05750999 -0.00134202 0.43529412 0.89019608 0.96078431
v 0.15267294 -0.05413528 -0.00119201 0.43529412 0.89019608 0.96078431
v 0.15586354 -0.04735412 -0.00193509 0.43529412 0.89019608 0.96078431
v 0.15251956 -0.05069254 -0.00215139 0.43529412 0.89019608 0.96078431
v 0.14918784 -0.05402642 -0.00235721 0.43529412 0.89019608 0.96078431
v 0.15586354 -0.04401570 -0.00221069 0.43529412 0.89019608 0.96078431
v 0.14966029 -0.03780605 -0.00239559 0.43529412 0.89019608 0.96078431
v 0.16253311 -0.03780605 0.02544712 0.43529412 0.89019608 0.96078431
v 0.15920139 -0.04401570 0.02585878 0.43529412 0.89019608 0.96078431
v 0.15443391 -0.04970825 0.02670303 0.43529412 0.89019608 0.96078431
v 0.14918784 -0.05402642 0.02759960 0.43529412 0.89019608 0.96078431
v 0.15276498 -0.05076965 0.02704840 0.43529412 0.89019608 0.96078431
v 0.14584999 -0.05736484 0.02795544 0.43529412 0.89019608 0.96078431
v 0.14895468 -0.06034492 0.02162708 0.43529412 0.89019608 0.96078431
v 0.15062360 -0.05880272 0.02162708 0.43529412 0.89019608 0.96078431
v 0.14671513 -0.06174198 0.02496220 0.43529412 0.89019608 0.96078431
v 0.14702805 -0.06200506 0.02162708 0.43529412 0.89019608 0.96078431
v 0.11916559 -0.07404333 0.03094171 0.43529412 0.89019608 0.96078431
v 0.11248989 -0.07738175 0.03168827 0.43529412 0.89019608 0.96078431
v 0.11582774 -0.07738175 0.03120684 0.43529412 0.89019608 0.96078431
v 0.14918784 -0.05069254 0.02774264 0.43529412 0.89019608 0.96078431
v 0.11263715 -0.08089707 0.03100799 0.43529412 0.89019608 0.96078431
v 0.11582774 -0.07984475 0.03053354 0.43529412 0.89019608 0.96078431
v 0.11780959 -0.07925054 0.03017770 0.43529412 0.89019608 0.96078431
v 0.14504007 -0.06290317 0.02496220 0.43529412 0.89019608 0.96078431
v 0.14556775 -0.06331140 0.01828847 0.43529412 0.89019608 0.96078431
v 0.14323002 -0.06510308 0.01494985 0.43529412 0.89019608 0.96078431
v 0.14558616 -0.06343387 0.01494985 0.43529412 0.89019608 0.96078431
v 0.14097820 -0.06579254 -0.00018729 0.43529412 0.89019608 0.96078431
v 0.13485472 -0.06948022 -0.00062686 0.43529412 0.89019608 0.96078431
v 0.12056454 -0.07526803 -0.00334449 0.43529412 0.89019608 0.96078431
v 0.14584999 -0.05736484 -0.00248629 0.43529412 0.89019608 0.96078431
v 0.14584999 -0.05402642 -0.00261537 0.43529412 0.89019608 0.96078431
v 0.15251956 -0.04735412 -0.00235024 0.43529412 0.89019608 0.96078431
v 0.13918043 -0.05402642 -0.00287702 0.43529412 0.89019608 0.96078431
v 0.14918784 -0.03780605 -0.00240605 0.43529412 0.89019608 0.96078431
v 0.11248989 -0.07738175 -0.00395152 0.43529412 0.89019608 0.96078431
v 0.16201770 -0.03780605 0.02560760 0.43529412 0.89019608 0.96078431
v 0.15893141 -0.04059109 0.02625300 0.43529412 0.89019608 0.96078431
v 0.15699865 -0.04401570 0.02650069 0.43529412 0.89019608 0.96078431
v 0.15481433 -0.04735412 0.02680071 0.43529412 0.89019608 0.96078431
v 0.15251956 -0.04735412 0.02733796 0.43529412 0.89019608 0.96078431
v 0.15251956 -0.04401570 0.02749146 0.43529412 0.89019608 0.96078431
v 0.15532359 -0.04401570 0.02691583 0.43529412 0.89019608 0.96078431
v 0.14535300 -0.06311182 0.02162708 0.43529412 0.89019608 0.96078431
v 0.15251956 -0.04067727 0.02761007 0.43529412 0.89019608 0.96078431
v 0.15251956 -0.03780605 0.02755425 0.43529412 0.89019608 0.96078431
v 0.15205937 -0.03780605 0.02757518 0.43529412 0.89019608 0.96078431
v 0.14918784 -0.03780605 0.02757518 0.43529412 0.89019608 0.96078431
v 0.14872152 -0.03780605 0.02755425 0.43529412 0.89019608 0.96078431
v 0.14584999 -0.03780605 0.02737633 0.43529412 0.89019608 0.96078431
v 0.14537753 -0.03780605 0.02733796 0.43529412 0.89019608 0.96078431
v 0.14251213 -0.03780605 0.02695421 0.43529412 0.89019608 0.96078431
v 0.10890662 -0.07712774 0.03114056 0.43529412 0.89019608 0.96078431
v 0.10891889 -0.08098325 0.03110567 0.43529412 0.89019608 0.96078431
v 0.11163088 -0.08284297 0.03051609 0.43529412 0.89019608 0.96078431
v 0.11814706 -0.07944105 0.02830082 0.43529412 0.89019608 0.96078431
v 0.12427054 -0.07577605 0.02692979 0.43529412 0.89019608 0.96078431
v 0.13940745 -0.06650014 0.02474242 0.43529412 0.89019608 0.96078431
v 0.14088003 -0.06572450 0.02347954 0.43529412 0.89019608 0.96078431
v 0.14303982 -0.06497607 0.01828847 0.43529412 0.89019608 0.96078431
v 0.14137702 -0.06603294 0.01828847 0.43529412 0.89019608 0.96078431
v 0.13918043 -0.06739371 0.01828847 0.43529412 0.89019608 0.96078431
v 0.14156110 -0.06611459 0.01494985 0.43529412 0.89019608 0.96078431
v 0.13094625 -0.07244216 -0.00018729 0.43529412 0.89019608 0.96078431
v 0.12917914 -0.07302729 -0.00080826 0.43529412 0.89019608 0.96078431
v 0.11438585 -0.07913261 -0.00347009 0.43529412 0.89019608 0.96078431
v 0.11833726 -0.07601191 -0.00349799 0.43529412 0.89019608 0.96078431
v 0.11933739 -0.07411137 -0.00357474 0.43529412 0.89019608 0.96078431
v 0.14251213 -0.05736484 -0.00272003 0.43529412 0.89019608 0.96078431
v 0.14251213 -0.05402642 -0.00275143 0.43529412 0.89019608 0.96078431
v 0.14584999 -0.03780605 -0.00240954 0.43529412 0.89019608 0.96078431
v 0.11562527 -0.07722753 -0.00362358 0.43529412 0.89019608 0.96078431
v 0.11248989 -0.07943651 -0.00364452 0.43529412 0.89019608 0.96078431
v 0.10915818 -0.08018947 -0.00382244 0.43529412 0.89019608 0.96078431
v 0.10928703 -0.07743618 -0.00385732 0.43529412 0.89019608 0.96078431
v 0.15913390 -0.03780605 0.02638556 0.43529412 0.89019608 0.96078431
v 0.15764291 -0.03941630 0.02666116 0.43529412 0.89019608 0.96078431
v 0.15607829 -0.04059109 0.02696816 0.43529412 0.89019608 0.96078431
v 0.15589422 -0.03780605 0.02715306 0.43529412 0.89019608 0.96078431
v 0.15539108 -0.03780605 0.02724725 0.43529412 0.89019608 0.96078431
v 0.14272076 -0.06478103 0.02162708 0.43529412 0.89019608 0.96078431
v 0.14180653 -0.03780605 0.02683211 0.43529412 0.89019608 0.96078431
v 0.10985152 -0.07490969 0.03056842 0.43529412 0.89019608 0.96078431
v 0.10680819 -0.07807121 0.03067308 0.43529412 0.89019608 0.96078431
v 0.10680819 -0.08004432 0.03067308 0.43529412 0.89019608 0.96078431
v 0.14090457 -0.03780605 0.02665419 0.43529412 0.89019608 0.96078431
v 0.10987606 -0.08284297 0.03051609 0.43529412 0.89019608 0.96078431
v 0.10915818 -0.08355057 0.02496220 0.43529412 0.89019608 0.96078431
v 0.11198063 -0.08301987 0.02830082 0.43529412 0.89019608 0.96078431
v 0.12249731 -0.07701888 0.02496220 0.43529412 0.89019608 0.96078431
v 0.12445462 -0.07587583 0.02496220 0.43529412 0.89019608 0.96078431
v 0.12612354 -0.07485072 0.02496220 0.43529412 0.89019608 0.96078431
v 0.12879259 -0.07318151 0.02496220 0.43529412 0.89019608 0.96078431
v 0.13508788 -0.06961176 0.02162708 0.43529412 0.89019608 0.96078431
v 0.13073149 -0.07230608 0.02162708 0.43529412 0.89019608 0.96078431
v 0.13697768 -0.06872272 0.01828847 0.43529412 0.89019608 0.96078431
v 0.13532104 -0.06969341 0.01828847 0.43529412 0.89019608 0.96078431
v 0.12487184 -0.07611624 0.00160935 0.43529412 0.89019608 0.96078431
v 0.12473072 -0.07600284 -0.00064430 0.43529412 0.89019608 0.96078431
v 0.11562527 -0.07944105 -0.00151297 0.43529412 0.89019608 0.96078431
v 0.10924408 -0.08186322 -0.00204324 0.43529412 0.89019608 0.96078431
v 0.14251213 -0.03780605 -0.00196998 0.43529412 0.89019608 0.96078431
v 0.10664252 -0.08265700 -0.00114317 0.43529412 0.89019608 0.96078431
v 0.10694317 -0.08013958 -0.00370731 0.43529412 0.89019608 0.96078431
v 0.10694317 -0.07859284 -0.00370731 0.43529412 0.89019608 0.96078431
v 0.15763677 -0.03780605 0.02676233 0.43529412 0.89019608 0.96078431
v 0.13997807 -0.03780605 0.02581692 0.43529412 0.89019608 0.96078431
v 0.13924178 -0.03780605 0.02499011 0.43529412 0.89019608 0.96078431
v 0.10761197 -0.07583048 0.02830082 0.43529412 0.89019608 0.96078431
v 0.10639095 -0.07749969 0.02830082 0.43529412 0.89019608 0.96078431
v 0.10558717 -0.08072017 0.02496220 0.43529412 0.89019608 0.96078431
v 0.10764878 -0.08226691 0.02967534 0.43529412 0.89019608 0.96078431
v 0.10644004 -0.08098325 0.02845781 0.43529412 0.89019608 0.96078431
v 0.10891889 -0.08306069 0.02845781 0.43529412 0.89019608 0.96078431
v 0.10915818 -0.08375923 0.02162708 0.43529412 0.89019608 0.96078431
v 0.10641550 -0.08337821 0.02162708 0.43529412 0.89019608 0.96078431
v 0.10915818 -0.08414477 0.00828309 0.43529412 0.89019608 0.96078431
v 0.11223833 -0.08311966 0.00828309 0.43529412 0.89019608 0.96078431
v 0.11391339 -0.08225331 0.00828309 0.43529412 0.89019608 0.96078431
v 0.12025162 -0.07871077 0.00494448 0.43529412 0.89019608 0.96078431
v 0.11858270 -0.07962702 0.00494448 0.43529412 0.89019608 0.96078431
v 0.12249731 -0.07739082 0.00160935 0.43529412 0.89019608 0.96078431
v 0.11988347 -0.07866088 0.00160935 0.43529412 0.89019608 0.96078431
v 0.11765620 -0.07911447 -0.00026055 0.43529412 0.89019608 0.96078431
v 0.10818873 -0.08265700 -0.00114317 0.43529412 0.89019608 0.96078431
v 0.13978787 -0.03780605 -0.00083268 0.43529412 0.89019608 0.96078431
v 0.10915818 -0.08364129 0.00494448 0.43529412 0.89019608 0.96078431
v 0.10617620 -0.08298358 0.00160935 0.43529412 0.89019608 0.96078431
v 0.10494291 -0.08072017 0.00160935 0.43529412 0.89019608 0.96078431
v 0.10620075 -0.08103315 -0.00204324 0.43529412 0.89019608 0.96078431
v 0.10650753 -0.07818914 -0.00172926 0.43529412 0.89019608 0.96078431
v 0.13840118 -0.03780605 0.00144190 0.43529412 0.89019608 0.96078431
v 0.13861593 -0.03780605 0.00096396 0.43529412 0.89019608 0.96078431
v 0.13831528 -0.03780605 0.02162708 0.43529412 0.89019608 0.96078431
v 0.10751380 -0.07573975 0.02627044 0.43529412 0.89019608 0.96078431
v 0.10597372 -0.07738175 0.02162708 0.43529412 0.89019608 0.96078431
v 0.10507790 -0.08072017 0.02162708 0.43529412 0.89019608 0.96078431
v 0.10740949 -0.07564904 0.02404819 0.43529412 0.89019608 0.96078431
v 0.10680819 -0.08303348 0.02496220 0.43529412 0.89019608 0.96078431
v 0.10720087 -0.08266154 0.02744610 0.43529412 0.89019608 0.96078431
v 0.10465454 -0.08072017 0.00828309 0.43529412 0.89019608 0.96078431
v 0.10621915 -0.08340996 0.00828309 0.43529412 0.89019608 0.96078431
v 0.10615165 -0.08327388 0.00494448 0.43529412 0.89019608 0.96078431
v 0.11175361 -0.08275679 0.00494448 0.43529412 0.89019608 0.96078431
v 0.11342253 -0.08209455 0.00494448 0.43529412 0.89019608 0.96078431
v 0.11582774 -0.08099686 0.00494448 0.43529412 0.89019608 0.96078431
v 0.11822069 -0.07935033 0.00160935 0.43529412 0.89019608 0.96078431
v 0.11582774 -0.08031194 0.00160935 0.43529412 0.89019608 0.96078431
v 0.11040987 -0.08222155 0.00060812 0.43529412 0.89019608 0.96078431
v 0.10924408 -0.08292915 0.00167215 0.43529412 0.89019608 0.96078431
v 0.10481407 -0.08081996 0.00479795 0.43529412 0.89019608 0.96078431
v 0.10481407 -0.08072017 0.00383509 0.43529412 0.89019608 0.96078431
v 0.10592463 -0.07766298 0.00828309 0.43529412 0.89019608 0.96078431
v 0.10609030 -0.07778998 0.00494448 0.43529412 0.89019608 0.96078431
v 0.10625597 -0.07793513 0.00160935 0.43529412 0.89019608 0.96078431
v 0.10481407 -0.08055234 0.00512589 0.43529412 0.89019608 0.96078431
v 0.13821711 -0.03780605 0.01475100 0.43529412 0.89019608 0.96078431
v 0.10730519 -0.07557193 0.01964205 0.43529412 0.89019608 0.96078431
v 0.13818030 -0.03780605 0.01828847 0.43529412 0.89019608 0.96078431
v 0.10729904 -0.07556286 0.02162708 0.43529412 0.89019608 0.96078431
v 0.10481407 -0.08033462 0.00828309 0.43529412 0.89019608 0.96078431
v 0.10475270 -0.08072017 0.00494797 0.43529412 0.89019608 0.96078431
v 0.10481407 -0.08083357 0.00494448 0.43529412 0.89019608 0.96078431
v 0.10481407 -0.08099233 0.00792725 0.43529412 0.89019608 0.96078431
v 0.13818030 -0.03780605 0.01806519 0.43529412 0.89019608 0.96078431
f 1 2 3
f 1 3 4
f 1 4 5
f 1 5 6
f 1 6 17
f 1 17 39
f 1 39 69
f 1 69 97
f 1 97 126
f 1 126 162
f 1 162 193
f 1 193 217
f 1 217 224
f 1 224 223
f 1 223 248
f 1 248 256
f 1 256 250
f 1 250 225
f 1 225 199
f 1 199 198
f 1 198 177
f 1 177 173
f 1 173 143
f 1 143 142
f 1 142 141
f 1 141 140
f 1 140 139
f 1 139 138
f 1 138 137
f 1 137 171
f 1 171 170
f 1 170 197
f 1 197 167
f 1 167 128
f 1 128 98
f 1 98 71
f 1 71 70
f 1 70 40
f 1 40 23
f 1 23 22
f 1 22 21
f 1 21 20
f 1 20 18
f 1 18 7
f 1 7 2
f 2 7 8
f 2 8 4
f 2 4 3
f 4 8 9
f 4 9 10
f 4 10 11
f 4 11 5
f 5 12 13
f 5 13 6
f 5 11 14
f 5 14 12
f 6 13 15
f 6 15 16
f 6 16 17
f 7 18 8
f 8 19 9
f 8 18 20
f 8 20 21
f 8 21 22
f 8 22 23
f 8 23 19
f 9 19 24
f 9 24 25
f 9 25 26
f 9 26 27
f 9 27 10
f 10 27 28
f 10 28 11
f 11 28 14
f 12 14 29
f 12 29 30
f 12 30 13
f 13 30 31
f 13 31 32
f 13 32 15
f 14 28 33
f 14 33 29
f 15 32 31
f 15 31 34
f 15 34 35
f 15 35 36
f 15 36 16
f 16 36 37
f 16 37 38
f 16 38 17
f 17 38 39
f 19 23 40
f 19 40 41
f 19 41 42
f 19 42 24
f 24 43 25
f 24 42 44
f 24 44 45
f 24 45 46
f 24 46 43
f 25 43 47
f 25 47 26
f 26 47 48
f 26 48 49
f 26 49 50
f 26 50 27
f 27 50 51
f 27 51 52
f 27 52 53
f 27 53 28
f 28 53 33
f 29 33 54
f 29 54 30
f 30 54 31
f 31 54 55
f 31 55 34
f 33 53 56
f 33 56 54
f 34 55 51
f 34 51 50
f 34 50 57
f 34 57 58
f 34 58 59
f 34 59 60
f 34 60 61
f 34 61 35
f 35 61 62
f 35 62 63
f 35 63 64
f 35 64 36
f 36 64 37
f 37 64 63
f 37 63 65
f 37 65 66
f 37 66 67
f 37 67 38
f 38 67 39
f 39 67 68
f 39 68 69
f 40 70 41
f 41 71 72
f 41 72 42
f 41 70 71
f 42 72 73
f 42 73 44
f 43 74 47
f 43 46 74
f 44 73 75
f 44 75 76
f 44 76 45
f 45 77 46
f 45 76 78
f 45 78 79
f 45 79 80
f 45 80 77
f 46 77 74
f 47 74 48
f 48 74 81
f 48 81 82
f 48 82 83
f 48 83 84
f 48 84 49
f 49 84 50
f 50 84 85
f 50 85 86
f 50 86 87
f 50 87 57
f 51 55 56
f 51 56 52
f 52 56 53
f 54 56 55
f 57 87 58
f 58 87 88
f 58 88 59
f 59 88 89
f 59 89 60
f 60 90 91
f 60 91 62
f 60 62 61
f 60 89 90
f 62 91 92
f 62 92 63
f 63 92 66
f 63 66 65
f 66 92 67
f 67 92 93
f 67 93 68
f 68 93 94
f 68 94 95
f 68 95 96
f 68 96 97
f 68 97 69
f 71 98 72
f 72 98 99
f 72 99 73
f 73 100 75
f 73 99 100
f 74 77 81
f 75 101 76
f 75 100 102
f 75 102 101
f 76 101 103
f 76 103 78
f 77 104 105
f 77 105 82
f 77 82 81
f 77 80 106
f 77 106 107
f 77 107 104
f 78 108 109
f 78 109 110
f 78 110 79
f 78 103 111
f 78 111 108
f 79 110 112
f 79 112 113
f 79 113 114
f 79 114 80
f 80 114 115
f 80 115 106
f 82 105 83
f 83 105 84
f 84 105 85
f 85 105 86
f 86 105 104
f 86 104 107
f 86 107 116
f 86 116 117
f 86 117 118
f 86 118 87
f 87 118 88
f 88 118 119
f 88 119 89
f 89 119 120
f 89 120 121
f 89 121 90
f 90 122 91
f 90 121 122
f 91 95 92
f 91 122 95
f 92 94 93
f 92 95 94
f 95 122 123
f 95 123 124
f 95 124 96
f 96 124 125
f 96 125 97
f 97 125 127
f 97 127 126
f 98 128 99
f 99 128 129
f 99 129 130
f 99 130 100
f 100 130 131
f 100 131 102
f 101 102 132
f 101 132 133
f 101 133 111
f 101 111 103
f 102 131 134
f 102 134 132
f 106 115 107
f 107 115 135
f 107 135 116
f 108 111 136
f 108 136 109
f 109 112 110
f 109 136 137
f 109 137 138
f 109 138 139
f 109 139 140
f 109 140 141
f 109 141 142
f 109 142 143
f 109 143 144
f 109 144 145
f 109 145 112
f 111 133 136
f 112 145 146
f 112 146 113
f 113 146 114
f 114 147 115
f 114 146 147
f 115 147 148
f 115 148 149
f 115 149 150
f 115 150 135
f 116 135 151
f 116 151 117
f 117 151 152
f 117 152 153
f 117 153 154
f 117 154 155
f 117 155 119
f 117 119 118
f 119 155 120
f 120 155 156
f 120 156 121
f 121 156 157
f 121 157 158
f 121 158 122
f 122 158 159
f 122 159 127
f 122 127 160
f 122 160 123
f 123 160 127
f 123 127 161
f 123 161 124
f 124 161 125
f 125 161 127
f 126 127 162
f 127 159 158
f 127 158 163
f 127 163 164
f 127 164 165
f 127 165 166
f 127 166 162
f 128 167 129
f 129 167 168
f 129 168 130
f 130 168 169
f 130 169 134
f 130 134 131
f 132 134 169
f 132 169 170
f 132 170 171
f 132 171 133
f 133 171 136
f 135 150 172
f 135 172 152
f 135 152 151
f 136 171 137
f 143 173 144
f 144 174 175
f 144 175 176
f 144 176 145
f 144 173 177
f 144 177 174
f 145 178 146
f 145 176 178
f 146 178 179
f 146 179 180
f 146 180 147
f 147 180 181
f 147 181 182
f 147 182 183
f 147 183 148
f 148 183 184
f 148 184 149
f 149 184 150
f 150 184 185
f 150 185 152
f 150 152 172
f 152 185 183
f 152 183 153
f 153 186 187
f 153 187 154
f 153 183 186
f 154 187 186
f 154 186 188
f 154 188 189
f 154 189 155
f 155 189 190
f 155 190 156
f 156 190 157
f 157 190 191
f 157 191 192
f 157 192 165
f 157 165 164
f 157 164 158
f 158 164 163
f 162 166 193
f 165 192 194
f 165 194 195
f 165 195 166
f 166 195 196
f 166 196 193
f 167 197 168
f 168 197 169
f 169 197 170
f 174 177 175
f 175 177 198
f 175 198 199
f 175 199 200
f 175 200 201
f 175 201 202
f 175 202 176
f 176 203 178
f 176 202 204
f 176 204 203
f 178 203 205
f 178 205 179
f 179 206 180
f 179 205 207
f 179 207 206
f 180 206 208
f 180 208 209
f 180 209 210
f 180 210 211
f 180 211 189
f 180 189 181
f 181 189 186
f 181 186 182
f 182 186 183
f 183 185 184
f 186 189 188
f 189 211 210
f 189 210 212
f 189 212 213
f 189 213 190
f 190 213 214
f 190 214 215
f 190 215 191
f 191 215 192
f 192 216 194
f 192 215 216
f 193 196 217
f 194 216 218
f 194 218 208
f 194 208 219
f 194 219 220
f 194 220 221
f 194 221 195
f 195 221 196
f 196 221 220
f 196 220 222
f 196 222 223
f 196 223 224
f 196 224 217
f 199 225 200
f 200 226 201
f 200 225 226
f 201 227 228
f 201 228 202
f 201 226 229
f 201 229 227
f 202 228 207
f 202 207 230
f 202 230 204
f 203 204 231
f 203 231 205
f 204 230 231
f 205 231 230
f 205 230 207
f 206 207 208
f 207 228 232
f 207 232 233
f 207 233 208
f 208 218 209
f 208 233 234
f 208 234 219
f 209 218 235
f 209 235 236
f 209 236 237
f 209 237 214
f 209 214 213
f 209 213 212
f 209 212 210
f 214 237 236
f 214 236 238
f 214 238 215
f 215 238 239
f 215 239 240
f 215 240 216
f 216 240 235
f 216 235 241
f 216 241 218
f 218 241 235
f 219 234 242
f 219 242 243
f 219 243 220
f 220 244 245
f 220 245 246
f 220 246 222
f 220 243 247
f 220 247 244
f 222 246 223
f 223 246 245
f 223 245 244
f 223 244 249
f 223 249 248
f 225 250 251
f 225 251 229
f 225 229 226
f 227 244 252
f 227 252 232
f 227 232 228
f 227 229 251
f 227 251 249
f 227 249 244
f 232 252 247
f 232 247 253
f 232 253 254
f 232 254 255
f 232 255 233
f 233 255 234
f 234 255 254
f 234 254 242
f 235 240 236
f 236 239 238
f 236 240 239
f 242 254 253
f 242 253 243
f 243 253 247
f 244 247 252
f 248 249 256
f 249 251 256
f 250 256 251

