# https://github.com/mikedh/trimesh
v 0.16905641 0.01559151 0.00875011 0.38039216 0.78823529 0.52549020
v 0.16904298 0.01559151 0.00828234 0.38039216 0.78823529 0.52549020
v 0.16899600 0.01559151 0.01162097 0.38039216 0.78823529 0.52549020
v 0.17286858 -0.00063265 0.01829211 0.38039216 0.78823529 0.52549020
v 0.17292228 -0.00063265 0.01495348 0.38039216 0.78823529 0.52549020
v 0.17282161 -0.00063265 0.00828234 0.38039216 0.78823529 0.52549020
v 0.17274107 -0.00063265 0.00494677 0.38039216 0.78823529 0.52549020
v 0.17290885 -0.00396739 0.00160814 0.38039216 0.78823529 0.52549020
v 0.17192225 -0.00051766 0.00148279 0.38039216 0.78823529 0.52549020
v 0.16819732 0.01559151 0.00473887 0.38039216 0.78823529 0.52549020
v 0.16894902 0.01559151 0.01208569 0.38039216 0.78823529 0.52549020
v 0.17330485 -0.00396739 0.02162768 0.38039216 0.78823529 0.52549020
v 0.17337866 -0.00396739 0.01829211 0.38039216 0.78823529 0.52549020
v 0.16853290 0.01559151 0.01542126 0.38039216 0.78823529 0.52549020
v 0.17326457 -0.00396739 0.00828234 0.38039216 0.78823529 0.52549020
v 0.17322430 -0.00396739 0.00494677 0.38039216 0.78823529 0.52549020
v 0.17276791 -0.00730735 0.00160814 0.38039216 0.78823529 0.52549020
v 0.17171420 -0.00730735 -0.00070016 0.38039216 0.78823529 0.52549020
v 0.17174775 -0.00396739 -0.00069405 0.38039216 0.78823529 0.52549020
v 0.17141217 -0.00155258 -0.00045863 0.38039216 0.78823529 0.52549020
v 0.16798255 0.01559151 0.00408459 0.38039216 0.78823529 0.52549020
v 0.17165379 -0.00140623 0.02393904 0.38039216 0.78823529 0.52549020
v 0.17204306 -0.00396739 0.02428758 0.38039216 0.78823529 0.52549020
v 0.17192225 -0.00730735 0.02424783 0.38039216 0.78823529 0.52549020
v 0.17302967 -0.00730735 0.02162768 0.38039216 0.78823529 0.52549020
v 0.16792885 0.01559151 0.01850307 0.38039216 0.78823529 0.52549020
v 0.16785503 0.01559151 0.01886995 0.38039216 0.78823529 0.52549020
v 0.16771408 0.01559151 0.01952117 0.38039216 0.78823529 0.52549020
v 0.17309008 -0.00730735 0.01829211 0.38039216 0.78823529 0.52549020
v 0.17306994 -0.00730735 0.01495348 0.38039216 0.78823529 0.52549020
v 0.17304980 -0.00730735 0.01162097 0.38039216 0.78823529 0.52549020
v 0.17300282 -0.00730735 0.00494677 0.38039216 0.78823529 0.52549020
v 0.17229810 -0.01064208 0.00160814 0.38039216 0.78823529 0.52549020
v 0.17090881 -0.01915663 -0.00009481 0.38039216 0.78823529 0.52549020
v 0.17104975 -0.01731155 -0.00024767 0.38039216 0.78823529 0.52549020
v 0.17129808 -0.01397159 -0.00047697 0.38039216 0.78823529 0.52549020
v 0.17151284 -0.01064208 -0.00062373 0.38039216 0.78823529 0.52549020
v 0.16921076 -0.01064208 -0.00151342 0.38039216 0.78823529 0.52549020
v 0.16921076 -0.00730735 -0.00165100 0.38039216 0.78823529 0.52549020
v 0.16921076 -0.00396739 -0.00168157 0.38039216 0.78823529 0.52549020
v 0.16936514 -0.00051766 -0.00100284 0.38039216 0.78823529 0.52549020
v 0.16158640 0.01559151 -0.00017430 0.38039216 0.78823529 0.52549020
v 0.16302268 0.01559151 0.00051972 0.38039216 0.78823529 0.52549020
v 0.16606303 0.01559151 0.00229299 0.38039216 0.78823529 0.52549020
v 0.16672077 0.01559151 0.00269350 0.38039216 0.78823529 0.52549020
v 0.16755972 0.01559151 0.00324688 0.38039216 0.78823529 0.52549020
v 0.16921076 -0.00396739 0.02549829 0.38039216 0.78823529 0.52549020
v 0.16761341 0.01519427 0.02013875 0.38039216 0.78823529 0.52549020
v 0.16711004 0.01559151 0.02063099 0.38039216 0.78823529 0.52549020
v 0.16617042 0.01559151 0.02156348 0.38039216 0.78823529 0.52549020
v 0.16432473 0.01559151 0.02334591 0.38039216 0.78823529 0.52549020
v 0.16921076 -0.00730735 0.02545243 0.38039216 0.78823529 0.52549020
v 0.17164037 -0.01064208 0.02407662 0.38039216 0.78823529 0.52549020
v 0.16921076 -0.01064208 0.02523230 0.38039216 0.78823529 0.52549020
v 0.17246589 -0.01064208 0.02162768 0.38039216 0.78823529 0.52549020
v 0.17253972 -0.01064208 0.01829211 0.38039216 0.78823529 0.52549020
v 0.17133835 -0.01397159 0.02381981 0.38039216 0.78823529 0.52549020
v 0.17108331 -0.01671046 0.02354464 0.38039216 0.78823529 0.52549020
v 0.17086854 -0.01893710 0.02310744 0.38039216 0.78823529 0.52549020
v 0.17144573 -0.01731155 0.01162097 0.38039216 0.78823529 0.52549020
v 0.17075444 -0.02151394 0.00828234 0.38039216 0.78823529 0.52549020
v 0.17253972 -0.01064208 0.01495348 0.38039216 0.78823529 0.52549020
v 0.17102291 -0.01984657 0.00828234 0.38039216 0.78823529 0.52549020
v 0.17033832 -0.02398624 0.00494677 0.38039216 0.78823529 0.52549020
v 0.17096249 -0.01949115 0.00160814 0.38039216 0.78823529 0.52549020
v 0.17130479 -0.01731155 0.00160814 0.38039216 0.78823529 0.52549020
v 0.17181487 -0.01397159 0.00160814 0.38039216 0.78823529 0.52549020
v 0.16855303 -0.03399567 0.00160814 0.38039216 0.78823529 0.52549020
v 0.16776107 -0.03612300 -0.00033328 0.38039216 0.78823529 0.52549020
v 0.16798255 -0.03399567 -0.00051366 0.38039216 0.78823529 0.52549020
v 0.16921076 -0.01397159 -0.00131163 0.38039216 0.78823529 0.52549020
v 0.16587511 -0.03399567 -0.00130246 0.38039216 0.78823529 0.52549020
v 0.16253945 -0.03733563 -0.00183444 0.38039216 0.78823529 0.52549020
v 0.16253945 -0.00396739 -0.00299318 0.38039216 0.78823529 0.52549020
v 0.16587511 -0.00396739 -0.00236031 0.38039216 0.78823529 0.52549020
v 0.16253945 -0.00063265 -0.00288923 0.38039216 0.78823529 0.52549020
v 0.16587511 -0.00063265 -0.00217992 0.38039216 0.78823529 0.52549020
v 0.16135150 0.01559151 -0.00024767 0.38039216 0.78823529 0.52549020
v 0.16587511 -0.00396739 0.02590186 0.38039216 0.78823529 0.52549020
v 0.15539831 -0.03780605 0.02724710 0.38039216 0.78823529 0.52549020
v 0.15586142 -0.03733563 0.02718595 0.38039216 0.78823529 0.52549020
v 0.15975414 0.00604204 0.02646442 0.38039216 0.78823529 0.52549020
v 0.16253945 0.00270731 0.02619843 0.38039216 0.78823529 0.52549020
v 0.16010985 0.00270731 0.02655614 0.38039216 0.78823529 0.52549020
v 0.16411668 0.01559151 0.02340095 0.38039216 0.78823529 0.52549020
v 0.16253945 -0.03733563 0.02550441 0.38039216 0.78823529 0.52549020
v 0.15790174 -0.03733563 0.02672735 0.38039216 0.78823529 0.52549020
v 0.15957293 -0.03733563 0.02630237 0.38039216 0.78823529 0.52549020
v 0.16545899 -0.03733563 0.02416834 0.38039216 0.78823529 0.52549020
v 0.16796241 -0.03066094 0.02366694 0.38039216 0.78823529 0.52549020
v 0.16772751 -0.03336322 0.02347432 0.38039216 0.78823529 0.52549020
v 0.17096249 -0.01941797 0.01829211 0.38039216 0.78823529 0.52549020
v 0.17195581 -0.01397159 0.01829211 0.38039216 0.78823529 0.52549020
v 0.17185514 -0.01397159 0.02162768 0.38039216 0.78823529 0.52549020
v 0.16829128 -0.03399567 0.01829211 0.38039216 0.78823529 0.52549020
v 0.17102961 -0.01983089 0.01162097 0.38039216 0.78823529 0.52549020
v 0.17074101 -0.02149826 0.01162097 0.38039216 0.78823529 0.52549020
v 0.16923762 -0.03066094 0.00494677 0.38039216 0.78823529 0.52549020
v 0.16751944 -0.03558464 0.02319916 0.38039216 0.78823529 0.52549020
v 0.17117056 -0.01761993 0.02184781 0.38039216 0.78823529 0.52549020
v 0.16793557 -0.03428315 0.02190284 0.38039216 0.78823529 0.52549020
v 0.17034503 -0.02398624 0.00828234 0.38039216 0.78823529 0.52549020
v 0.16979468 -0.02732098 0.00494677 0.38039216 0.78823529 0.52549020
v 0.16864700 -0.03399567 0.00494677 0.38039216 0.78823529 0.52549020
v 0.16792215 -0.03645752 0.00160814 0.38039216 0.78823529 0.52549020
v 0.16596908 -0.03727291 -0.00089583 0.38039216 0.78823529 0.52549020
v 0.16720400 -0.03780605 0.00160814 0.38039216 0.78823529 0.52549020
v 0.16576772 -0.03780605 -0.00084386 0.38039216 0.78823529 0.52549020
v 0.16050584 -0.00396739 -0.00334783 0.38039216 0.78823529 0.52549020
v 0.16257971 -0.03780605 -0.00174883 0.38039216 0.78823529 0.52549020
v 0.15920379 -0.03780605 -0.00197202 0.38039216 0.78823529 0.52549020
v 0.14919009 -0.03399567 -0.00269661 0.38039216 0.78823529 0.52549020
v 0.15484125 -0.01324505 -0.00345178 0.38039216 0.78823529 0.52549020
v 0.15825074 -0.00730735 -0.00348541 0.38039216 0.78823529 0.52549020
v 0.15883465 -0.00396739 -0.00358325 0.38039216 0.78823529 0.52549020
v 0.16029107 -0.00063265 -0.00331420 0.38039216 0.78823529 0.52549020
v 0.16253945 0.00270731 -0.00248566 0.38039216 0.78823529 0.52549020
v 0.16253945 0.00604204 -0.00183138 0.38039216 0.78823529 0.52549020
v 0.15953937 0.01559151 -0.00059621 0.38039216 0.78823529 0.52549020
v 0.15589498 -0.03780605 0.02715538 0.38039216 0.78823529 0.52549020
v 0.15252575 -0.03780605 0.02755589 0.38039216 0.78823529 0.52549020
v 0.15763998 -0.03780605 0.02676403 0.38039216 0.78823529 0.52549020
v 0.15766012 0.00774600 0.02664786 0.38039216 0.78823529 0.52549020
v 0.15808966 0.00604204 0.02669066 0.38039216 0.78823529 0.52549020
v 0.15844537 0.00270731 0.02673040 0.38039216 0.78823529 0.52549020
v 0.16206963 0.01559151 0.02376783 0.38039216 0.78823529 0.52549020
v 0.16201595 -0.03780605 0.02561141 0.38039216 0.78823529 0.52549020
v 0.16253945 -0.03780605 0.02544937 0.38039216 0.78823529 0.52549020
v 0.16504959 -0.03780605 0.02430287 0.38039216 0.78823529 0.52549020
v 0.15947896 -0.03780605 0.02629626 0.38039216 0.78823529 0.52549020
v 0.15784805 -0.03780605 0.02671206 0.38039216 0.78823529 0.52549020
v 0.15913667 -0.03780605 0.02638492 0.38039216 0.78823529 0.52549020
v 0.16537174 -0.03780605 0.02412860 0.38039216 0.78823529 0.52549020
v 0.17100948 -0.01965841 0.01495348 0.38039216 0.78823529 0.52549020
v 0.17092222 -0.01918799 0.02088169 0.38039216 0.78823529 0.52549020
v 0.16767381 -0.03593484 0.02097341 0.38039216 0.78823529 0.52549020
v 0.16776778 -0.03612300 0.01829211 0.38039216 0.78823529 0.52549020
v 0.16855974 -0.03399567 0.00828234 0.38039216 0.78823529 0.52549020
v 0.16969401 -0.02732098 0.01162097 0.38039216 0.78823529 0.52549020
v 0.16655970 -0.03780605 0.02226667 0.38039216 0.78823529 0.52549020
v 0.16668721 -0.03780605 0.02185393 0.38039216 0.78823529 0.52549020
v 0.16917050 -0.03066094 0.00828234 0.38039216 0.78823529 0.52549020
v 0.16789530 -0.03646798 0.00828234 0.38039216 0.78823529 0.52549020
v 0.16794228 -0.03654638 0.00494677 0.38039216 0.78823529 0.52549020
v 0.16733823 -0.03780605 0.00494677 0.38039216 0.78823529 0.52549020
v 0.15862658 -0.00063265 -0.00355879 0.38039216 0.78823529 0.52549020
v 0.14965991 -0.03780605 -0.00239699 0.38039216 0.78823529 0.52549020
v 0.14919009 -0.03780605 -0.00240617 0.38039216 0.78823529 0.52549020
v 0.14585443 -0.03780605 -0.00240922 0.38039216 0.78823529 0.52549020
v 0.14585443 -0.03399567 -0.00266298 0.38039216 0.78823529 0.52549020
v 0.14919009 -0.03066094 -0.00285254 0.38039216 0.78823529 0.52549020
v 0.15366001 -0.01324505 -0.00345178 0.38039216 0.78823529 0.52549020
v 0.15586142 -0.00396739 -0.00365356 0.38039216 0.78823529 0.52549020
v 0.15796215 0.00126992 -0.00345789 0.38039216 0.78823529 0.52549020
v 0.15920379 0.01559151 -0.00064513 0.38039216 0.78823529 0.52549020
v 0.15205594 -0.03780605 0.02758035 0.38039216 0.78823529 0.52549020
v 0.15739837 0.00774600 0.02664786 0.38039216 0.78823529 0.52549020
v 0.15920379 0.01559151 0.02405216 0.38039216 0.78823529 0.52549020
v 0.15873398 0.01559151 0.02409191 0.38039216 0.78823529 0.52549020
v 0.15696212 0.00604204 0.02669066 0.38039216 0.78823529 0.52549020
v 0.16692212 -0.03780605 0.01829211 0.38039216 0.78823529 0.52549020
v 0.16704292 -0.03780605 0.01513081 0.38039216 0.78823529 0.52549020
v 0.16727112 -0.03780605 0.00890604 0.38039216 0.78823529 0.52549020
v 0.16728455 -0.03780605 0.00828234 0.38039216 0.78823529 0.52549020
v 0.15590168 -0.00072673 -0.00355267 0.38039216 0.78823529 0.52549020
v 0.15703595 0.00126992 -0.00345789 0.38039216 0.78823529 0.52549020
v 0.14251877 -0.03780605 -0.00196896 0.38039216 0.78823529 0.52549020
v 0.10730976 -0.02570065 -0.00008564 0.38039216 0.78823529 0.52549020
v 0.10481976 -0.02359946 -0.00019570 0.38039216 0.78823529 0.52549020
v 0.14585443 -0.03066094 -0.00275470 0.38039216 0.78823529 0.52549020
v 0.14919009 -0.02732098 -0.00294426 0.38039216 0.78823529 0.52549020
v 0.15340497 -0.01064208 -0.00348235 0.38039216 0.78823529 0.52549020
v 0.14919009 -0.02398624 -0.00303292 0.38039216 0.78823529 0.52549020
v 0.15389492 -0.00190278 -0.00343649 0.38039216 0.78823529 0.52549020
v 0.10481976 -0.02281020 -0.00021404 0.38039216 0.78823529 0.52549020
v 0.10481976 -0.02046334 -0.00021404 0.38039216 0.78823529 0.52549020
v 0.15569362 0.01559151 -0.00062984 0.38039216 0.78823529 0.52549020
v 0.14919009 -0.03780605 0.02757729 0.38039216 0.78823529 0.52549020
v 0.15586142 0.01559151 0.02408580 0.38039216 0.78823529 0.52549020
v 0.15539831 0.01559151 0.02407356 0.38039216 0.78823529 0.52549020
v 0.15247206 0.01559151 0.02388095 0.38039216 0.78823529 0.52549020
v 0.10481976 -0.00520615 0.02400325 0.38039216 0.78823529 0.52549020
v 0.10481976 -0.00730735 0.02444350 0.38039216 0.78823529 0.52549020
v 0.10481976 -0.00830045 0.02461472 0.38039216 0.78823529 0.52549020
v 0.10481976 -0.01064208 0.02480733 0.38039216 0.78823529 0.52549020
v 0.14919009 -0.02398624 0.02722570 0.38039216 0.78823529 0.52549020
v 0.14919009 -0.02732098 0.02732353 0.38039216 0.78823529 0.52549020
v 0.10481976 -0.01397159 0.02492045 0.38039216 0.78823529 0.52549020
v 0.10481976 -0.01626618 0.00007029 0.38039216 0.78823529 0.52549020
v 0.10481976 -0.00964375 0.00051972 0.38039216 0.78823529 0.52549020
v 0.10481976 -0.00730735 0.00067870 0.38039216 0.78823529 0.52549020
v 0.10481976 -0.00396739 0.00092329 0.38039216 0.78823529 0.52549020
v 0.13979386 -0.03780605 -0.00083163 0.38039216 0.78823529 0.52549020
v 0.10481976 -0.02683488 0.00157145 0.38039216 0.78823529 0.52549020
v 0.10481976 -0.02497935 0.00011004 0.38039216 0.78823529 0.52549020
v 0.10481976 -0.02480686 0.00005500 0.38039216 0.78823529 0.52549020
v 0.15412312 0.01559151 -0.00044029 0.38039216 0.78823529 0.52549020
v 0.10481976 -0.00063265 0.00166929 0.38039216 0.78823529 0.52549020
v 0.14872028 -0.03780605 0.02755589 0.38039216 0.78823529 0.52549020
v 0.15041160 0.01559151 0.02354158 0.38039216 0.78823529 0.52549020
v 0.10481976 -0.00063265 0.02252960 0.38039216 0.78823529 0.52549020
v 0.10481976 -0.00312586 0.02335814 0.38039216 0.78823529 0.52549020
v 0.10481976 -0.00429668 0.02373114 0.38039216 0.78823529 0.52549020
v 0.10481976 -0.01731155 0.02476147 0.38039216 0.78823529 0.52549020
v 0.14538461 -0.03780605 0.02734187 0.38039216 0.78823529 0.52549020
v 0.14585443 -0.03780605 0.02738162 0.38039216 0.78823529 0.52549020
v 0.13861934 -0.03780605 0.00096610 0.38039216 0.78823529 0.52549020
v 0.10481976 -0.03067139 0.01162097 0.38039216 0.78823529 0.52549020
v 0.10481976 -0.02993441 0.00819979 0.38039216 0.78823529 0.52549020
v 0.10481976 -0.02922878 0.00588843 0.38039216 0.78823529 0.52549020
v 0.10481976 -0.02871132 0.00430472 0.38039216 0.78823529 0.52549020
v 0.10481976 -0.02818341 0.00340892 0.38039216 0.78823529 0.52549020
v 0.15318349 0.01559151 -0.00011009 0.38039216 0.78823529 0.52549020
v 0.10481976 0.00004684 0.00200254 0.38039216 0.78823529 0.52549020
v 0.10481976 0.00162535 0.00277910 0.38039216 0.78823529 0.52549020
v 0.15006932 0.01559151 0.02337649 0.38039216 0.78823529 0.52549020
v 0.10481976 0.00247733 0.02096729 0.38039216 0.78823529 0.52549020
v 0.10481976 -0.02064628 0.02412860 0.38039216 0.78823529 0.52549020
v 0.14251877 -0.03780605 0.02695665 0.38039216 0.78823529 0.52549020
v 0.13841128 -0.03780605 0.00144304 0.38039216 0.78823529 0.52549020
v 0.13818980 -0.03780605 0.01829211 0.38039216 0.78823529 0.52549020
v 0.13832403 -0.03780605 0.02162768 0.38039216 0.78823529 0.52549020
v 0.13924351 -0.03780605 0.02498771 0.38039216 0.78823529 0.52549020
v 0.10481976 -0.03045709 0.01395679 0.38039216 0.78823529 0.52549020
v 0.13822335 -0.03780605 0.01495348 0.38039216 0.78823529 0.52549020
v 0.13818980 -0.03780605 0.01806587 0.38039216 0.78823529 0.52549020
v 0.15210292 0.01559151 0.00044023 0.38039216 0.78823529 0.52549020
v 0.10481976 0.00196510 0.00341809 0.38039216 0.78823529 0.52549020
v 0.14911626 0.01559151 0.00218904 0.38039216 0.78823529 0.52549020
v 0.14898875 0.01559151 0.02271916 0.38039216 0.78823529 0.52549020
v 0.10481976 0.00410288 0.01832880 0.38039216 0.78823529 0.52549020
v 0.10481976 -0.02302450 0.02349267 0.38039216 0.78823529 0.52549020
v 0.14180734 -0.03780605 0.02683741 0.38039216 0.78823529 0.52549020
v 0.13998179 -0.03780605 0.02582237 0.38039216 0.78823529 0.52549020
v 0.10481976 -0.03033165 0.01495348 0.38039216 0.78823529 0.52549020
v 0.10481976 0.00264982 0.00494677 0.38039216 0.78823529 0.52549020
v 0.14845853 0.01559151 0.00263847 0.38039216 0.78823529 0.52549020
v 0.14671351 0.01559151 0.02093061 0.38039216 0.78823529 0.52549020
v 0.10481976 0.00409243 0.01491068 0.38039216 0.78823529 0.52549020
v 0.14647190 0.01559151 0.02054232 0.38039216 0.78823529 0.52549020
v 0.14548530 0.01559151 0.01831351 0.38039216 0.78823529 0.52549020
v 0.14533764 0.01559151 0.01772956 0.38039216 0.78823529 0.52549020
v 0.14469332 0.01559151 0.01479450 0.38039216 0.78823529 0.52549020
v 0.14431077 0.01559151 0.01259932 0.38039216 0.78823529 0.52549020
v 0.14423694 0.01559151 0.01162097 0.38039216 0.78823529 0.52549020
v 0.14419667 0.01559151 0.01041943 0.38039216 0.78823529 0.52549020
v 0.14417653 0.01559151 0.00828234 0.38039216 0.78823529 0.52549020
v 0.10481976 -0.02469187 0.02299432 0.38039216 0.78823529 0.52549020
v 0.14090799 -0.03780605 0.02665703 0.38039216 0.78823529 0.52549020
v 0.10481976 -0.02966261 0.01685821 0.38039216 0.78823529 0.52549020
v 0.10481976 0.00286934 0.00594346 0.38039216 0.78823529 0.52549020
v 0.14538461 0.01559151 0.00543594 0.38039216 0.78823529 0.52549020
v 0.14595510 0.01559151 0.00479084 0.38039216 0.78823529 0.52549020
v 0.14629740 0.01559151 0.00444536 0.38039216 0.78823529 0.52549020
v 0.10481976 0.00329272 0.00828234 0.38039216 0.78823529 0.52549020
v 0.10481976 -0.02537136 0.02249597 0.38039216 0.78823529 0.52549020
v 0.10481976 -0.02696555 0.02132500 0.38039216 0.78823529 0.52549020
v 0.10481976 -0.02863815 0.01917263 0.38039216 0.78823529 0.52549020
v 0.10481976 -0.02886290 0.01867428 0.38039216 0.78823529 0.52549020
v 0.10481976 -0.02939081 0.01750331 0.38039216 0.78823529 0.52549020
f 1 2 10
f 1 10 21
f 1 21 46
f 1 46 45
f 1 45 44
f 1 44 43
f 1 43 42
f 1 42 78
f 1 78 119
f 1 119 155
f 1 155 177
f 1 177 197
f 1 197 213
f 1 213 227
f 1 227 229
f 1 229 237
f 1 237 254
f 1 254 253
f 1 253 252
f 1 252 247
f 1 247 246
f 1 246 245
f 1 245 244
f 1 244 243
f 1 243 242
f 1 242 241
f 1 241 240
f 1 240 238
f 1 238 230
f 1 230 216
f 1 216 200
f 1 200 181
f 1 181 180
f 1 180 179
f 1 179 159
f 1 159 158
f 1 158 126
f 1 126 85
f 1 85 51
f 1 51 50
f 1 50 49
f 1 49 28
f 1 28 27
f 1 27 26
f 1 26 14
f 1 14 11
f 1 11 3
f 1 3 4
f 1 4 5
f 1 5 6
f 1 6 7
f 1 7 2
f 2 7 8
f 2 8 9
f 2 9 10
f 3 11 4
f 4 12 13
f 4 13 5
f 4 11 14
f 4 14 12
f 5 13 15
f 5 15 16
f 5 16 6
f 6 16 7
f 7 16 8
f 8 16 17
f 8 17 18
f 8 18 19
f 8 19 20
f 8 20 9
f 9 20 21
f 9 21 10
f 12 22 23
f 12 23 24
f 12 24 25
f 12 25 13
f 12 14 26
f 12 26 27
f 12 27 28
f 12 28 22
f 13 25 29
f 13 29 30
f 13 30 31
f 13 31 32
f 13 32 15
f 15 32 16
f 16 32 17
f 17 32 33
f 17 33 34
f 17 34 35
f 17 35 36
f 17 36 37
f 17 37 18
f 18 37 38
f 18 38 39
f 18 39 40
f 18 40 19
f 19 40 20
f 20 40 41
f 20 41 42
f 20 42 43
f 20 43 44
f 20 44 45
f 20 45 46
f 20 46 21
f 22 47 23
f 22 28 48
f 22 48 49
f 22 49 50
f 22 50 51
f 22 51 47
f 23 47 52
f 23 52 24
f 24 53 25
f 24 52 54
f 24 54 53
f 25 55 56
f 25 56 29
f 25 53 57
f 25 57 58
f 25 58 59
f 25 59 55
f 28 49 48
f 29 56 60
f 29 60 61
f 29 61 62
f 29 62 30
f 30 62 31
f 31 62 63
f 31 63 64
f 31 64 32
f 32 65 66
f 32 66 67
f 32 67 33
f 32 64 65
f 33 67 34
f 34 67 66
f 34 66 65
f 34 65 68
f 34 68 69
f 34 69 70
f 34 70 35
f 35 70 36
f 36 70 37
f 37 70 71
f 37 71 38
f 38 71 72
f 38 72 39
f 39 72 73
f 39 73 74
f 39 74 75
f 39 75 40
f 40 75 76
f 40 76 77
f 40 77 41
f 41 77 42
f 42 77 78
f 47 79 80
f 47 80 81
f 47 81 52
f 47 51 82
f 47 82 83
f 47 83 84
f 47 84 79
f 51 85 82
f 52 86 54
f 52 81 87
f 52 87 88
f 52 88 86
f 53 54 89
f 53 89 90
f 53 90 91
f 53 91 57
f 54 86 89
f 55 92 93
f 55 93 56
f 55 59 94
f 55 94 95
f 55 95 92
f 56 96 60
f 56 93 97
f 56 97 98
f 56 98 96
f 57 91 58
f 58 91 99
f 58 99 59
f 59 100 94
f 59 99 101
f 59 101 95
f 59 95 100
f 60 96 61
f 61 96 102
f 61 102 103
f 61 103 64
f 61 64 63
f 61 63 62
f 64 103 65
f 65 103 68
f 68 103 98
f 68 98 104
f 68 104 105
f 68 105 69
f 69 106 70
f 69 105 107
f 69 107 108
f 69 108 106
f 70 106 72
f 70 72 71
f 72 106 73
f 73 109 74
f 73 106 110
f 73 110 111
f 73 111 112
f 73 112 113
f 73 113 114
f 73 114 115
f 73 115 109
f 74 109 116
f 74 116 76
f 74 76 75
f 76 116 117
f 76 117 77
f 77 117 118
f 77 118 78
f 78 118 117
f 78 117 119
f 79 84 80
f 80 120 81
f 80 84 121
f 80 121 156
f 80 156 178
f 80 178 199
f 80 199 206
f 80 206 205
f 80 205 219
f 80 219 233
f 80 233 249
f 80 249 234
f 80 234 223
f 80 223 222
f 80 222 221
f 80 221 226
f 80 226 225
f 80 225 220
f 80 220 207
f 80 207 193
f 80 193 167
f 80 167 149
f 80 149 148
f 80 148 147
f 80 147 111
f 80 111 110
f 80 110 108
f 80 108 107
f 80 107 145
f 80 145 164
f 80 164 163
f 80 163 162
f 80 162 161
f 80 161 141
f 80 141 140
f 80 140 133
f 80 133 129
f 80 129 128
f 80 128 127
f 80 127 130
f 80 130 132
f 80 132 131
f 80 131 122
f 80 122 120
f 81 120 122
f 81 122 87
f 82 123 124
f 82 124 84
f 82 84 83
f 82 85 123
f 84 124 125
f 84 125 121
f 85 126 123
f 86 127 128
f 86 128 129
f 86 129 89
f 86 88 130
f 86 130 127
f 87 122 131
f 87 131 132
f 87 132 88
f 88 132 130
f 89 129 133
f 89 133 99
f 89 99 91
f 89 91 90
f 92 134 93
f 92 95 134
f 93 134 97
f 94 100 135
f 94 135 95
f 95 101 136
f 95 136 137
f 95 137 138
f 95 138 139
f 95 139 134
f 95 135 100
f 96 98 102
f 97 134 98
f 98 103 102
f 98 134 104
f 99 140 141
f 99 141 136
f 99 136 101
f 99 133 140
f 104 142 138
f 104 138 137
f 104 137 143
f 104 143 144
f 104 144 105
f 104 134 142
f 105 144 145
f 105 145 107
f 106 108 110
f 109 115 146
f 109 146 116
f 111 147 112
f 112 147 148
f 112 148 149
f 112 149 150
f 112 150 151
f 112 151 113
f 113 151 152
f 113 152 153
f 113 153 115
f 113 115 114
f 115 153 146
f 116 146 154
f 116 154 117
f 117 154 119
f 119 154 155
f 121 125 156
f 123 157 160
f 123 160 124
f 123 126 158
f 123 158 159
f 123 159 157
f 124 160 156
f 124 156 125
f 134 139 138
f 134 138 142
f 136 141 137
f 137 141 161
f 137 161 162
f 137 162 163
f 137 163 143
f 143 163 144
f 144 163 164
f 144 164 145
f 146 153 165
f 146 165 166
f 146 166 154
f 149 167 168
f 149 168 169
f 149 169 150
f 150 170 151
f 150 169 170
f 151 170 171
f 151 171 152
f 152 172 153
f 152 171 173
f 152 173 170
f 152 170 172
f 153 174 165
f 153 172 175
f 153 175 176
f 153 176 174
f 154 166 155
f 155 166 177
f 156 160 178
f 157 159 179
f 157 179 180
f 157 180 181
f 157 181 182
f 157 182 183
f 157 183 184
f 157 184 185
f 157 185 160
f 160 186 187
f 160 187 178
f 160 185 188
f 160 188 186
f 165 174 176
f 165 176 189
f 165 189 190
f 165 190 191
f 165 191 192
f 165 192 166
f 166 192 177
f 167 193 194
f 167 194 195
f 167 195 168
f 168 195 196
f 168 196 169
f 169 196 195
f 169 195 194
f 169 194 212
f 169 212 211
f 169 211 210
f 169 210 209
f 169 209 208
f 169 208 224
f 169 224 235
f 169 235 250
f 169 250 260
f 169 260 259
f 169 259 258
f 169 258 257
f 169 257 256
f 169 256 248
f 169 248 232
f 169 232 218
f 169 218 204
f 169 204 188
f 169 188 185
f 169 185 184
f 169 184 183
f 169 183 182
f 169 182 203
f 169 203 202
f 169 202 201
f 169 201 217
f 169 217 231
f 169 231 239
f 169 239 255
f 169 255 251
f 169 251 236
f 169 236 228
f 169 228 215
f 169 215 214
f 169 214 198
f 169 198 192
f 169 192 191
f 169 191 190
f 169 190 189
f 169 189 176
f 169 176 175
f 169 175 170
f 170 173 171
f 170 175 172
f 177 192 198
f 177 198 197
f 178 187 199
f 181 200 201
f 181 201 202
f 181 202 203
f 181 203 182
f 186 188 187
f 187 188 199
f 188 204 205
f 188 205 206
f 188 206 199
f 193 207 208
f 193 208 209
f 193 209 210
f 193 210 211
f 193 211 212
f 193 212 194
f 197 198 214
f 197 214 215
f 197 215 213
f 200 216 217
f 200 217 201
f 204 218 219
f 204 219 205
f 207 220 208
f 208 221 222
f 208 222 223
f 208 223 224
f 208 220 225
f 208 225 226
f 208 226 221
f 213 215 227
f 215 228 229
f 215 229 227
f 216 230 231
f 216 231 217
f 218 232 233
f 218 233 219
f 223 234 235
f 223 235 224
f 228 236 237
f 228 237 229
f 230 238 231
f 231 238 240
f 231 240 241
f 231 241 242
f 231 242 243
f 231 243 244
f 231 244 245
f 231 245 246
f 231 246 247
f 231 247 239
f 232 248 249
f 232 249 233
f 234 249 250
f 234 250 235
f 236 251 252
f 236 252 253
f 236 253 254
f 236 254 237
f 239 247 255
f 247 252 255
f 248 256 249
f 249 256 257
f 249 257 258
f 249 258 259
f 249 259 260
f 249 260 250
f 251 255 252

