# https://github.com/mikedh/trimesh
v 0.06659045 0.00682899 0.01162032 0.56470588 0.92549020 0.07058824
v 0.06910121 0.00668949 0.01162032 0.56470588 0.92549020 0.07058824
v 0.06659045 0.00679228 0.00828341 0.56470588 0.92549020 0.07058824
v 0.06659045 0.00651327 0.01495466 0.56470588 0.92549020 0.07058824
v 0.08245198 0.00569826 0.01495466 0.56470588 0.92549020 0.07058824
v 0.10186076 0.00445005 0.01736679 0.56470588 0.92549020 0.07058824
v 0.07243890 0.00646921 0.01162032 0.56470588 0.92549020 0.07058824
v 0.06910121 0.00663442 0.00828341 0.56470588 0.92549020 0.07058824
v 0.06659045 0.00648757 0.00760781 0.56470588 0.92549020 0.07058824
v 0.08245198 0.00479882 0.00578394 0.56470588 0.92549020 0.07058824
v 0.07911429 0.00495668 0.00567605 0.56470588 0.92549020 0.07058824
v 0.07577660 0.00511454 0.00560926 0.56470588 0.92549020 0.07058824
v 0.07243890 0.00527240 0.00556045 0.56470588 0.92549020 0.07058824
v 0.06659045 0.00605804 0.01829157 0.56470588 0.92549020 0.07058824
v 0.06910121 0.00595525 0.01829157 0.56470588 0.92549020 0.07058824
v 0.07243890 0.00581207 0.01829157 0.56470588 0.92549020 0.07058824
v 0.07577660 0.00566155 0.01829157 0.56470588 0.92549020 0.07058824
v 0.07911429 0.00550736 0.01829157 0.56470588 0.92549020 0.07058824
v 0.08245198 0.00534583 0.01829157 0.56470588 0.92549020 0.07058824
v 0.08578220 0.00518429 0.01829157 0.56470588 0.92549020 0.07058824
v 0.09785328 0.00439499 0.01998700 0.56470588 0.92549020 0.07058824
v 0.08911989 0.00501909 0.01829157 0.56470588 0.92549020 0.07058824
v 0.09579528 0.00468501 0.01829157 0.56470588 0.92549020 0.07058824
v 0.09903195 0.00450879 0.01840460 0.56470588 0.92549020 0.07058824
v 0.10007592 0.00431789 0.01959397 0.56470588 0.92549020 0.07058824
v 0.10277002 0.00425548 0.01840460 0.56470588 0.92549020 0.07058824
v 0.10481305 0.00410496 0.01833010 0.56470588 0.92549020 0.07058824
v 0.10186076 0.00445005 0.01585118 0.56470588 0.92549020 0.07058824
v 0.07243890 0.00637009 0.00828341 0.56470588 0.92549020 0.07058824
v 0.08911989 0.00447942 0.00631312 0.56470588 0.92549020 0.07058824
v 0.08578220 0.00463729 0.00597403 0.56470588 0.92549020 0.07058824
v 0.06659045 0.00548900 0.00557073 0.56470588 0.92549020 0.07058824
v 0.06910121 0.00540457 0.00555017 0.56470588 0.92549020 0.07058824
v 0.10481305 0.00196465 0.00341805 0.56470588 0.92549020 0.07058824
v 0.10481305 0.00162690 0.00277841 0.56470588 0.92549020 0.07058824
v 0.06659045 0.00507049 0.02059068 0.56470588 0.92549020 0.07058824
v 0.06910121 0.00503010 0.02057783 0.56470588 0.92549020 0.07058824
v 0.07243890 0.00497503 0.02054957 0.56470588 0.92549020 0.07058824
v 0.07577660 0.00490895 0.02051104 0.56470588 0.92549020 0.07058824
v 0.07911429 0.00483920 0.02045966 0.56470588 0.92549020 0.07058824
v 0.08245198 0.00476578 0.02039801 0.56470588 0.92549020 0.07058824
v 0.08578220 0.00468868 0.02032865 0.56470588 0.92549020 0.07058824
v 0.08911989 0.00460792 0.02024902 0.56470588 0.92549020 0.07058824
v 0.09245759 0.00452715 0.02015911 0.56470588 0.92549020 0.07058824
v 0.09579528 0.00444638 0.02005636 0.56470588 0.92549020 0.07058824
v 0.10481305 0.00247862 0.02096572 0.56470588 0.92549020 0.07058824
v 0.10481305 0.00409395 0.01491099 0.56470588 0.92549020 0.07058824
v 0.10277002 0.00427384 0.01482622 0.56470588 0.92549020 0.07058824
v 0.07577660 0.00605437 0.00828341 0.56470588 0.92549020 0.07058824
v 0.09318724 0.00428852 0.00735349 0.56470588 0.92549020 0.07058824
v 0.09096461 0.00439131 0.00655716 0.56470588 0.92549020 0.07058824
v 0.10481305 0.00265116 0.00494650 0.56470588 0.92549020 0.07058824
v 0.06659045 0.00487224 0.00515971 0.56470588 0.92549020 0.07058824
v 0.10481305 -0.00063089 0.00166867 0.56470588 0.92549020 0.07058824
v 0.09913298 0.00167830 0.00284520 0.56470588 0.92549020 0.07058824
v 0.06659045 0.00270623 0.02172867 0.56470588 0.92549020 0.07058824
v 0.06910121 0.00270623 0.02174922 0.56470588 0.92549020 0.07058824
v 0.07243890 0.00270623 0.02170812 0.56470588 0.92549020 0.07058824
v 0.07577660 0.00270623 0.02165417 0.56470588 0.92549020 0.07058824
v 0.07911429 0.00270623 0.02158738 0.56470588 0.92549020 0.07058824
v 0.08245198 0.00270623 0.02151032 0.56470588 0.92549020 0.07058824
v 0.08578220 0.00270623 0.02142554 0.56470588 0.92549020 0.07058824
v 0.08911989 0.00270623 0.02133050 0.56470588 0.92549020 0.07058824
v 0.10481305 -0.00063089 0.02253014 0.56470588 0.92549020 0.07058824
v 0.10481305 0.00329730 0.00828341 0.56470588 0.92549020 0.07058824
v 0.10247067 0.00392140 0.01162032 0.56470588 0.92549020 0.07058824
v 0.09926394 0.00422244 0.01158949 0.56470588 0.92549020 0.07058824
v 0.09574664 0.00455652 0.01158949 0.56470588 0.92549020 0.07058824
v 0.09245759 0.00487224 0.01162032 0.56470588 0.92549020 0.07058824
v 0.10481305 0.00287144 0.00594321 0.56470588 0.92549020 0.07058824
v 0.07243890 0.00300360 0.00389071 0.56470588 0.92549020 0.07058824
v 0.06910121 0.00290815 0.00388044 0.56470588 0.92549020 0.07058824
v 0.06659045 0.00283472 0.00390355 0.56470588 0.92549020 0.07058824
v 0.10247067 -0.00063089 0.00168666 0.56470588 0.92549020 0.07058824
v 0.10481305 -0.00396801 0.00092371 0.56470588 0.92549020 0.07058824
v 0.10247067 -0.00396801 0.00088518 0.56470588 0.92549020 0.07058824
v 0.09913298 -0.00396801 0.00085692 0.56470588 0.92549020 0.07058824
v 0.07577660 -0.00679117 0.00010169 0.56470588 0.92549020 0.07058824
v 0.07243890 -0.00667736 0.00014022 0.56470588 0.92549020 0.07058824
v 0.08245198 -0.00396801 0.00083637 0.56470588 0.92549020 0.07058824
v 0.09579528 0.00170399 0.00288373 0.56470588 0.92549020 0.07058824
v 0.06659045 -0.00063089 0.02239913 0.56470588 0.92549020 0.07058824
v 0.07417510 -0.00231230 0.02329822 0.56470588 0.92549020 0.07058824
v 0.07640148 -0.00225356 0.02331364 0.56470588 0.92549020 0.07058824
v 0.07911429 -0.00225356 0.02331364 0.56470588 0.92549020 0.07058824
v 0.07911429 -0.00058316 0.02275620 0.56470588 0.92549020 0.07058824
v 0.08578220 -0.00063089 0.02270996 0.56470588 0.92549020 0.07058824
v 0.09913298 -0.00730513 0.02480869 0.56470588 0.92549020 0.07058824
v 0.10481305 -0.00262435 0.02319290 0.56470588 0.92549020 0.07058824
v 0.08128454 -0.00228293 0.02330336 0.56470588 0.92549020 0.07058824
v 0.09245759 0.00172235 0.00292226 0.56470588 0.92549020 0.07058824
v 0.08911989 0.00171868 0.00296336 0.56470588 0.92549020 0.07058824
v 0.08578220 0.00168564 0.00300190 0.56470588 0.92549020 0.07058824
v 0.08245198 0.00161956 0.00304043 0.56470588 0.92549020 0.07058824
v 0.06659045 0.00242355 0.00373401 0.56470588 0.92549020 0.07058824
v 0.09913298 -0.00063089 0.00174317 0.56470588 0.92549020 0.07058824
v 0.07911429 -0.00396801 0.00086977 0.56470588 0.92549020 0.07058824
v 0.10481305 -0.00730513 0.00067710 0.56470588 0.92549020 0.07058824
v 0.10247067 -0.00730513 0.00061545 0.56470588 0.92549020 0.07058824
v 0.08578220 -0.00730513 0.00017875 0.56470588 0.92549020 0.07058824
v 0.08216761 -0.00762086 0.00006829 0.56470588 0.92549020 0.07058824
v 0.07911429 -0.00705916 0.00007343 0.56470588 0.92549020 0.07058824
v 0.06659045 -0.00825598 -0.00025024 0.56470588 0.92549020 0.07058824
v 0.06910121 -0.00661495 0.00017875 0.56470588 0.92549020 0.07058824
v 0.06659045 -0.00658558 0.00020701 0.56470588 0.92549020 0.07058824
v 0.06659045 -0.00396801 0.02266629 0.56470588 0.92549020 0.07058824
v 0.07234536 -0.00364128 0.02320831 0.56470588 0.92549020 0.07058824
v 0.08911989 -0.01064226 0.02529163 0.56470588 0.92549020 0.07058824
v 0.09245759 -0.01064226 0.02555366 0.56470588 0.92549020 0.07058824
v 0.09579528 -0.01064226 0.02570522 0.56470588 0.92549020 0.07058824
v 0.09245759 -0.00730513 0.02484723 0.56470588 0.92549020 0.07058824
v 0.09579528 -0.00730513 0.02483952 0.56470588 0.92549020 0.07058824
v 0.09913298 -0.01064226 0.02564613 0.56470588 0.92549020 0.07058824
v 0.10247067 -0.00730513 0.02467255 0.56470588 0.92549020 0.07058824
v 0.10481305 -0.00520521 0.02400208 0.56470588 0.92549020 0.07058824
v 0.10481305 -0.00429475 0.02372979 0.56470588 0.92549020 0.07058824
v 0.10481305 -0.00312364 0.02335730 0.56470588 0.92549020 0.07058824
v 0.07911429 0.00152778 0.00307896 0.56470588 0.92549020 0.07058824
v 0.09579528 -0.00063089 0.00181767 0.56470588 0.92549020 0.07058824
v 0.06659045 -0.00396801 0.00114977 0.56470588 0.92549020 0.07058824
v 0.07577660 0.00143233 0.00311749 0.56470588 0.92549020 0.07058824
v 0.07577660 -0.00396801 0.00093656 0.56470588 0.92549020 0.07058824
v 0.10481305 -0.01845090 -0.00007813 0.56470588 0.92549020 0.07058824
v 0.07911429 -0.01397571 -0.00045061 0.56470588 0.92549020 0.07058824
v 0.07911429 -0.01064226 -0.00022456 0.56470588 0.92549020 0.07058824
v 0.08086546 -0.00894249 -0.00006272 0.56470588 0.92549020 0.07058824
v 0.06910121 -0.01064226 -0.00048657 0.56470588 0.92549020 0.07058824
v 0.06659045 -0.01064226 -0.00053795 0.56470588 0.92549020 0.07058824
v 0.07243890 -0.00396801 0.00101362 0.56470588 0.92549020 0.07058824
v 0.06659045 -0.01306892 0.02324428 0.56470588 0.92549020 0.07058824
v 0.07117043 -0.00625150 0.02325969 0.56470588 0.92549020 0.07058824
v 0.08578220 -0.01064226 0.02496796 0.56470588 0.92549020 0.07058824
v 0.07243890 -0.01397571 0.02387364 0.56470588 0.92549020 0.07058824
v 0.07577660 -0.01397571 0.02416906 0.56470588 0.92549020 0.07058824
v 0.07911429 -0.01397571 0.02442337 0.56470588 0.92549020 0.07058824
v 0.08245198 -0.01397571 0.02466227 0.56470588 0.92549020 0.07058824
v 0.08911989 -0.01397571 0.02513237 0.56470588 0.92549020 0.07058824
v 0.09245759 -0.01397571 0.02536613 0.56470588 0.92549020 0.07058824
v 0.09579528 -0.01397571 0.02558191 0.56470588 0.92549020 0.07058824
v 0.09913298 -0.01397571 0.02561274 0.56470588 0.92549020 0.07058824
v 0.10247067 -0.01397571 0.02531989 0.56470588 0.92549020 0.07058824
v 0.10247067 -0.01064226 0.02525053 0.56470588 0.92549020 0.07058824
v 0.10481305 -0.00830003 0.02461603 0.56470588 0.92549020 0.07058824
v 0.10481305 -0.00730513 0.02444392 0.56470588 0.92549020 0.07058824
v 0.08911989 -0.00063089 0.00197180 0.56470588 0.92549020 0.07058824
v 0.10481305 -0.02046272 -0.00021171 0.56470588 0.92549020 0.07058824
v 0.10247067 -0.02064995 -0.00028621 0.56470588 0.92549020 0.07058824
v 0.08911989 -0.01731283 -0.00040437 0.56470588 0.92549020 0.07058824
v 0.06659045 -0.01133244 -0.00049685 0.56470588 0.92549020 0.07058824
v 0.07577660 -0.01397571 -0.00047116 0.56470588 0.92549020 0.07058824
v 0.06659045 -0.01447132 0.02333162 0.56470588 0.92549020 0.07058824
v 0.06678128 -0.01463653 0.02336244 0.56470588 0.92549020 0.07058824
v 0.06678128 -0.01609766 0.02336244 0.56470588 0.92549020 0.07058824
v 0.06910121 -0.01663733 0.02347547 0.56470588 0.92549020 0.07058824
v 0.07243890 -0.01713294 0.02363731 0.56470588 0.92549020 0.07058824
v 0.09245759 -0.01731283 0.02454667 0.56470588 0.92549020 0.07058824
v 0.09913298 -0.01731283 0.02483181 0.56470588 0.92549020 0.07058824
v 0.10481305 -0.02064995 0.02412795 0.56470588 0.92549020 0.07058824
v 0.10247067 -0.01731283 0.02488833 0.56470588 0.92549020 0.07058824
v 0.07545106 -0.01764324 0.02370410 0.56470588 0.92549020 0.07058824
v 0.07911429 -0.01731283 0.02396869 0.56470588 0.92549020 0.07058824
v 0.08245198 -0.01731283 0.02411511 0.56470588 0.92549020 0.07058824
v 0.08578220 -0.01731283 0.02425896 0.56470588 0.92549020 0.07058824
v 0.10481305 -0.01731283 0.02475989 0.56470588 0.92549020 0.07058824
v 0.10481305 -0.01397571 0.02492172 0.56470588 0.92549020 0.07058824
v 0.10481305 -0.01064226 0.02480869 0.56470588 0.92549020 0.07058824
v 0.10481305 -0.02280862 -0.00021428 0.56470588 0.92549020 0.07058824
v 0.09913298 -0.02064995 -0.00033501 0.56470588 0.92549020 0.07058824
v 0.06659045 -0.01313500 -0.00034786 0.56470588 0.92549020 0.07058824
v 0.07577660 -0.01616742 -0.00029134 0.56470588 0.92549020 0.07058824
v 0.09913298 -0.02273887 -0.00023483 0.56470588 0.92549020 0.07058824
v 0.06659045 -0.01629958 0.02331877 0.56470588 0.92549020 0.07058824
v 0.06659045 -0.01709256 0.02321859 0.56470588 0.92549020 0.07058824
v 0.06659045 -0.01752576 0.02314409 0.56470588 0.92549020 0.07058824
v 0.06910121 -0.01830773 0.02319033 0.56470588 0.92549020 0.07058824
v 0.09913298 -0.02258468 0.02337272 0.56470588 0.92549020 0.07058824
v 0.10247067 -0.02064995 0.02405089 0.56470588 0.92549020 0.07058824
v 0.07412271 -0.01897956 0.02329822 0.56470588 0.92549020 0.07058824
v 0.10481305 -0.02302522 0.02349345 0.56470588 0.92549020 0.07058824
v 0.07243890 -0.01879967 0.02326226 0.56470588 0.92549020 0.07058824
v 0.10481305 -0.02359793 -0.00019373 0.56470588 0.92549020 0.07058824
v 0.10247067 -0.02294078 -0.00022969 0.56470588 0.92549020 0.07058824
v 0.06659045 -0.01354985 -0.00023483 0.56470588 0.92549020 0.07058824
v 0.07323217 -0.01589208 -0.00018602 0.56470588 0.92549020 0.07058824
v 0.09669706 -0.02252961 -0.00016547 0.56470588 0.92549020 0.07058824
v 0.10481305 -0.02480943 0.00005545 0.56470588 0.92549020 0.07058824
v 0.06659045 -0.02023144 0.02179289 0.56470588 0.92549020 0.07058824
v 0.06910121 -0.02064995 0.02200610 0.56470588 0.92549020 0.07058824
v 0.07243890 -0.02064995 0.02240427 0.56470588 0.92549020 0.07058824
v 0.07545106 -0.02041867 0.02280501 0.56470588 0.92549020 0.07058824
v 0.06659045 -0.02086656 0.02147178 0.56470588 0.92549020 0.07058824
v 0.08911989 -0.02181005 0.02315694 0.56470588 0.92549020 0.07058824
v 0.10481305 -0.02469195 0.02299510 0.56470588 0.92549020 0.07058824
v 0.08245198 -0.02129241 0.02297969 0.56470588 0.92549020 0.07058824
v 0.08578220 -0.02154940 0.02307987 0.56470588 0.92549020 0.07058824
v 0.07911429 -0.02103176 0.02285125 0.56470588 0.92549020 0.07058824
v 0.06659045 -0.01480540 0.00032517 0.56470588 0.92549020 0.07058824
v 0.08384768 -0.01905665 -0.00010125 0.56470588 0.92549020 0.07058824
v 0.07224807 -0.01712560 0.00064628 0.56470588 0.92549020 0.07058824
v 0.06910121 -0.01731283 0.00124482 0.56470588 0.92549020 0.07058824
v 0.06659045 -0.01731283 0.00164041 0.56470588 0.92549020 0.07058824
v 0.06659045 -0.01535241 0.00060004 0.56470588 0.92549020 0.07058824
v 0.10481305 -0.02498197 0.00010939 0.56470588 0.92549020 0.07058824
v 0.09566807 -0.02378149 0.00067454 0.56470588 0.92549020 0.07058824
v 0.07243890 -0.02286736 0.02077306 0.56470588 0.92549020 0.07058824
v 0.07577660 -0.02311700 0.02101196 0.56470588 0.92549020 0.07058824
v 0.09913298 -0.02425140 0.02275877 0.56470588 0.92549020 0.07058824
v 0.06659045 -0.02228731 0.02026700 0.56470588 0.92549020 0.07058824
v 0.06910121 -0.02261405 0.02044682 0.56470588 0.92549020 0.07058824
v 0.10247067 -0.02451206 0.02291290 0.56470588 0.92549020 0.07058824
v 0.10481305 -0.02537479 0.02249675 0.56470588 0.92549020 0.07058824
v 0.07577660 -0.02064995 0.00205400 0.56470588 0.92549020 0.07058824
v 0.06659045 -0.01796998 0.00200519 0.56470588 0.92549020 0.07058824
v 0.09913298 -0.02440559 0.00055637 0.56470588 0.92549020 0.07058824
v 0.10481305 -0.02683593 0.00157106 0.56470588 0.92549020 0.07058824
v 0.09245759 -0.02615676 0.00275529 0.56470588 0.92549020 0.07058824
v 0.08911989 -0.02589977 0.00302502 0.56470588 0.92549020 0.07058824
v 0.08697584 -0.02573090 0.00319970 0.56470588 0.92549020 0.07058824
v 0.09245759 -0.02398708 0.00129619 0.56470588 0.92549020 0.07058824
v 0.07182150 -0.02202298 0.00344117 0.56470588 0.92549020 0.07058824
v 0.09245759 -0.02603928 0.02057526 0.56470588 0.92549020 0.07058824
v 0.09579528 -0.02628892 0.02087582 0.56470588 0.92549020 0.07058824
v 0.09913298 -0.02654223 0.02109160 0.56470588 0.92549020 0.07058824
v 0.06659045 -0.02245986 0.01999984 0.56470588 0.92549020 0.07058824
v 0.06668773 -0.02243049 0.02015911 0.56470588 0.92549020 0.07058824
v 0.08911989 -0.02578964 0.02018994 0.56470588 0.92549020 0.07058824
v 0.10247067 -0.02679188 0.02124316 0.56470588 0.92549020 0.07058824
v 0.10481305 -0.02696809 0.02132536 0.56470588 0.92549020 0.07058824
v 0.06659045 -0.01961468 0.00292226 0.56470588 0.92549020 0.07058824
v 0.10481305 -0.02818326 0.00340777 0.56470588 0.92549020 0.07058824
v 0.10247067 -0.02686163 0.00196409 0.56470588 0.92549020 0.07058824
v 0.09913298 -0.02663401 0.00222354 0.56470588 0.92549020 0.07058824
v 0.09579528 -0.02639906 0.00248813 0.56470588 0.92549020 0.07058824
v 0.08583084 -0.02421102 0.00248299 0.56470588 0.92549020 0.07058824
v 0.10481305 -0.02871191 0.00430429 0.56470588 0.92549020 0.07058824
v 0.07679437 -0.02573824 0.00642871 0.56470588 0.92549020 0.07058824
v 0.07456799 -0.02559506 0.00684743 0.56470588 0.92549020 0.07058824
v 0.06659045 -0.02337399 0.00552192 0.56470588 0.92549020 0.07058824
v 0.06659045 -0.02128507 0.00385475 0.56470588 0.92549020 0.07058824
v 0.07404788 -0.02233504 0.00326649 0.56470588 0.92549020 0.07058824
v 0.08911989 -0.02398708 0.00182794 0.56470588 0.92549020 0.07058824
v 0.10481305 -0.02863482 0.01917268 0.56470588 0.92549020 0.07058824
v 0.06659045 -0.02292610 0.01843543 0.56470588 0.92549020 0.07058824
v 0.08519473 -0.02549227 0.01960168 0.56470588 0.92549020 0.07058824
v 0.08741737 -0.02566115 0.01997159 0.56470588 0.92549020 0.07058824
v 0.08004600 -0.02579331 0.01696862 0.56470588 0.92549020 0.07058824
v 0.08245198 -0.02600624 0.01744643 0.56470588 0.92549020 0.07058824
v 0.09815262 -0.02888813 0.01636752 0.56470588 0.92549020 0.07058824
v 0.08609651 -0.02616043 0.01840974 0.56470588 0.92549020 0.07058824
v 0.08911989 -0.02667440 0.01829157 0.56470588 0.92549020 0.07058824
v 0.10481305 -0.02922955 0.00588926 0.56470588 0.92549020 0.07058824
v 0.10314420 -0.02912309 0.00622064 0.56470588 0.92549020 0.07058824
v 0.09913298 -0.02886243 0.00701698 0.56470588 0.92549020 0.07058824
v 0.08911989 -0.02797400 0.00828341 0.56470588 0.92549020 0.07058824
v 0.08578220 -0.02753713 0.00828341 0.56470588 0.92549020 0.07058824
v 0.08245198 -0.02709659 0.00828341 0.56470588 0.92549020 0.07058824
v 0.07911429 -0.02663768 0.00828341 0.56470588 0.92549020 0.07058824
v 0.07572047 -0.02608701 0.00808818 0.56470588 0.92549020 0.07058824
v 0.07243890 -0.02545189 0.00756671 0.56470588 0.92549020 0.07058824
v 0.06659045 -0.02468461 0.00834763 0.56470588 0.92549020 0.07058824
v 0.06659045 -0.02374111 0.00626688 0.56470588 0.92549020 0.07058824
v 0.10247067 -0.02846227 0.01878222 0.56470588 0.92549020 0.07058824
v 0.10481305 -0.02886243 0.01867433 0.56470588 0.92549020 0.07058824
v 0.06659045 -0.02377415 0.01495466 0.56470588 0.92549020 0.07058824
v 0.07781962 -0.02558405 0.01631100 0.56470588 0.92549020 0.07058824
v 0.09245759 -0.02717735 0.01829157 0.56470588 0.92549020 0.07058824
v 0.09350530 -0.02910840 0.01363685 0.56470588 0.92549020 0.07058824
v 0.09579528 -0.02932500 0.01419172 0.56470588 0.92549020 0.07058824
v 0.09921156 -0.02954895 0.01513448 0.56470588 0.92549020 0.07058824
v 0.10247067 -0.03012900 0.01495466 0.56470588 0.92549020 0.07058824
v 0.10037900 -0.02905701 0.01676569 0.56470588 0.92549020 0.07058824
v 0.10481305 -0.02993810 0.00819864 0.56470588 0.92549020 0.07058824
v 0.10220875 -0.02957465 0.00797772 0.56470588 0.92549020 0.07058824
v 0.09366994 -0.02905334 0.00977076 0.56470588 0.92549020 0.07058824
v 0.07243890 -0.02583002 0.00923645 0.56470588 0.92549020 0.07058824
v 0.06938933 -0.02519123 0.00857112 0.56470588 0.92549020 0.07058824
v 0.07069522 -0.02566849 0.01001480 0.56470588 0.92549020 0.07058824
v 0.06659045 -0.02466992 0.00897443 0.56470588 0.92549020 0.07058824
v 0.07069522 -0.02566849 0.00987865 0.56470588 0.92549020 0.07058824
v 0.10481305 -0.02939109 0.01750294 0.56470588 0.92549020 0.07058824
v 0.06659045 -0.02454877 0.01155353 0.56470588 0.92549020 0.07058824
v 0.07243890 -0.02487918 0.01495466 0.56470588 0.92549020 0.07058824
v 0.07900578 -0.02608333 0.01510109 0.56470588 0.92549020 0.07058824
v 0.09913298 -0.03005190 0.01162032 0.56470588 0.92549020 0.07058824
v 0.10247067 -0.03054017 0.01162032 0.56470588 0.92549020 0.07058824
v 0.10481305 -0.03033459 0.01495466 0.56470588 0.92549020 0.07058824
v 0.10481305 -0.02966276 0.01685816 0.56470588 0.92549020 0.07058824
v 0.10481305 -0.03067601 0.01162032 0.56470588 0.92549020 0.07058824
v 0.09913298 -0.02940577 0.00868415 0.56470588 0.92549020 0.07058824
v 0.07425742 -0.02562810 0.01316162 0.56470588 0.92549020 0.07058824
v 0.07648006 -0.02583736 0.01408640 0.56470588 0.92549020 0.07058824
v 0.10481305 -0.03045574 0.01395796 0.56470588 0.92549020 0.07058824
f 1 2 3
f 1 3 9
f 1 9 32
f 1 32 53
f 1 53 73
f 1 73 95
f 1 95 120
f 1 120 105
f 1 105 103
f 1 103 128
f 1 128 149
f 1 149 169
f 1 169 183
f 1 183 197
f 1 197 202
f 1 202 201
f 1 201 213
f 1 213 229
f 1 229 239
f 1 239 238
f 1 238 261
f 1 261 260
f 1 260 278
f 1 278 281
f 1 281 264
f 1 264 243
f 1 243 224
f 1 224 208
f 1 208 191
f 1 191 187
f 1 187 174
f 1 174 173
f 1 173 172
f 1 172 151
f 1 151 130
f 1 130 106
f 1 106 82
f 1 82 56
f 1 56 36
f 1 36 14
f 1 14 4
f 1 4 5
f 1 5 6
f 1 6 2
f 2 7 8
f 2 8 3
f 2 6 7
f 3 8 10
f 3 10 11
f 3 11 12
f 3 12 13
f 3 13 9
f 4 14 15
f 4 15 16
f 4 16 17
f 4 17 18
f 4 18 19
f 4 19 20
f 4 20 21
f 4 21 22
f 4 22 23
f 4 23 24
f 4 24 5
f 5 24 6
f 6 24 25
f 6 25 26
f 6 26 27
f 6 27 28
f 6 28 7
f 7 28 8
f 8 29 30
f 8 30 31
f 8 31 10
f 8 28 29
f 9 13 33
f 9 33 32
f 10 31 34
f 10 34 35
f 10 35 11
f 11 35 12
f 12 35 13
f 13 35 33
f 14 36 37
f 14 37 38
f 14 38 39
f 14 39 40
f 14 40 41
f 14 41 42
f 14 42 43
f 14 43 44
f 14 44 45
f 14 45 21
f 14 21 15
f 15 21 16
f 16 21 17
f 17 21 18
f 18 21 19
f 19 21 20
f 21 24 23
f 21 23 22
f 21 45 46
f 21 46 25
f 21 25 24
f 25 46 27
f 25 27 26
f 27 47 28
f 27 46 64
f 27 64 89
f 27 89 117
f 27 117 116
f 27 116 115
f 27 115 144
f 27 144 143
f 27 143 166
f 27 166 165
f 27 165 164
f 27 164 158
f 27 158 179
f 27 179 193
f 27 193 211
f 27 211 228
f 27 228 242
f 27 242 263
f 27 263 280
f 27 280 287
f 27 287 286
f 27 286 292
f 27 292 288
f 27 288 272
f 27 272 251
f 27 251 235
f 27 235 230
f 27 230 215
f 27 215 203
f 27 203 186
f 27 186 181
f 27 181 167
f 27 167 146
f 27 146 123
f 27 123 98
f 27 98 75
f 27 75 54
f 27 54 35
f 27 35 34
f 27 34 52
f 27 52 70
f 27 70 65
f 27 65 47
f 28 47 48
f 28 48 29
f 29 48 47
f 29 47 49
f 29 49 50
f 29 50 51
f 29 51 30
f 30 51 52
f 30 52 31
f 31 52 34
f 32 33 35
f 32 35 53
f 35 54 55
f 35 55 53
f 36 56 57
f 36 57 58
f 36 58 37
f 37 58 59
f 37 59 38
f 38 59 60
f 38 60 39
f 39 60 61
f 39 61 62
f 39 62 40
f 40 62 63
f 40 63 41
f 41 63 46
f 41 46 42
f 42 46 43
f 43 46 44
f 44 46 45
f 46 63 64
f 47 65 66
f 47 66 67
f 47 67 68
f 47 68 69
f 47 69 49
f 49 69 68
f 49 68 65
f 49 65 50
f 50 65 51
f 51 65 70
f 51 70 52
f 53 71 72
f 53 72 73
f 53 55 71
f 54 74 55
f 54 75 76
f 54 76 77
f 54 77 78
f 54 78 79
f 54 79 80
f 54 80 74
f 55 74 81
f 55 81 71
f 56 82 83
f 56 83 84
f 56 84 57
f 57 84 85
f 57 85 86
f 57 86 87
f 57 87 64
f 57 64 58
f 58 64 59
f 59 64 60
f 60 64 61
f 61 64 62
f 62 64 63
f 64 88 89
f 64 87 90
f 64 90 88
f 65 68 67
f 65 67 66
f 71 81 91
f 71 91 72
f 72 91 92
f 72 92 93
f 72 93 94
f 72 94 73
f 73 94 95
f 74 96 93
f 74 93 92
f 74 92 91
f 74 91 81
f 74 80 97
f 74 97 96
f 75 98 99
f 75 99 100
f 75 100 101
f 75 101 102
f 75 102 76
f 76 102 77
f 77 102 78
f 78 102 103
f 78 103 79
f 79 103 104
f 79 104 80
f 80 104 105
f 80 105 97
f 82 106 83
f 83 106 107
f 83 107 108
f 83 108 109
f 83 109 110
f 83 110 111
f 83 111 84
f 84 111 85
f 85 90 86
f 85 111 112
f 85 112 90
f 86 90 87
f 88 112 110
f 88 110 113
f 88 113 114
f 88 114 115
f 88 115 116
f 88 116 117
f 88 117 89
f 88 90 112
f 93 96 94
f 94 118 95
f 94 96 119
f 94 119 118
f 95 118 121
f 95 121 120
f 96 97 122
f 96 122 119
f 97 105 122
f 98 123 99
f 99 123 124
f 99 124 125
f 99 125 126
f 99 126 100
f 100 126 127
f 100 127 101
f 101 127 128
f 101 128 102
f 102 128 103
f 103 105 104
f 105 120 129
f 105 129 122
f 106 130 131
f 106 131 107
f 107 131 132
f 107 132 108
f 108 132 133
f 108 133 134
f 108 134 109
f 109 134 135
f 109 135 136
f 109 136 137
f 109 137 138
f 109 138 139
f 109 139 110
f 110 139 140
f 110 140 113
f 110 112 111
f 113 140 141
f 113 141 142
f 113 142 143
f 113 143 144
f 113 144 114
f 114 144 115
f 118 119 145
f 118 145 121
f 119 122 129
f 119 129 145
f 120 121 145
f 120 145 129
f 123 146 147
f 123 147 124
f 124 128 127
f 124 127 125
f 124 147 148
f 124 148 128
f 125 127 126
f 128 148 150
f 128 150 149
f 130 151 152
f 130 152 131
f 131 152 132
f 132 152 133
f 133 152 153
f 133 153 134
f 134 153 135
f 135 153 136
f 136 153 137
f 137 153 154
f 137 154 138
f 138 154 155
f 138 155 139
f 139 156 157
f 139 157 158
f 139 158 159
f 139 159 140
f 139 155 160
f 139 160 161
f 139 161 162
f 139 162 163
f 139 163 156
f 140 159 164
f 140 164 141
f 141 164 165
f 141 165 142
f 142 165 166
f 142 166 143
f 146 167 147
f 147 167 168
f 147 168 148
f 148 168 150
f 149 150 170
f 149 170 169
f 150 168 171
f 150 171 170
f 151 172 153
f 151 153 152
f 153 172 173
f 153 173 154
f 154 173 155
f 155 173 174
f 155 174 175
f 155 175 160
f 156 176 177
f 156 177 157
f 156 163 178
f 156 178 176
f 157 177 158
f 158 164 159
f 158 177 179
f 160 175 180
f 160 180 161
f 161 180 178
f 161 178 162
f 162 178 163
f 167 181 168
f 168 181 182
f 168 182 171
f 169 170 184
f 169 184 183
f 170 171 185
f 170 185 184
f 171 182 181
f 171 181 186
f 171 186 185
f 174 187 175
f 175 188 189
f 175 189 190
f 175 190 180
f 175 187 191
f 175 191 188
f 176 192 193
f 176 193 179
f 176 179 177
f 176 178 192
f 178 180 194
f 178 194 195
f 178 195 192
f 180 190 196
f 180 196 194
f 183 184 197
f 184 198 199
f 184 199 200
f 184 200 201
f 184 201 202
f 184 202 197
f 184 185 198
f 185 186 203
f 185 203 204
f 185 204 198
f 188 205 206
f 188 206 189
f 188 191 205
f 189 206 207
f 189 207 196
f 189 196 190
f 191 208 209
f 191 209 205
f 192 195 193
f 193 195 194
f 193 194 210
f 193 210 211
f 194 196 210
f 196 207 210
f 198 212 213
f 198 213 200
f 198 200 199
f 198 204 212
f 200 213 201
f 203 214 204
f 203 215 216
f 203 216 217
f 203 217 218
f 203 218 214
f 204 218 219
f 204 219 220
f 204 220 212
f 204 214 218
f 205 209 221
f 205 221 222
f 205 222 206
f 206 222 223
f 206 223 207
f 207 223 210
f 208 224 225
f 208 225 209
f 209 225 226
f 209 226 221
f 210 223 227
f 210 227 211
f 211 227 228
f 212 220 213
f 213 220 229
f 215 230 231
f 215 231 232
f 215 232 233
f 215 233 216
f 216 233 230
f 216 230 217
f 217 230 218
f 218 234 219
f 218 230 235
f 218 235 236
f 218 236 237
f 218 237 238
f 218 238 239
f 218 239 220
f 218 220 240
f 218 240 234
f 219 234 241
f 219 241 240
f 219 240 220
f 220 239 229
f 221 226 242
f 221 242 222
f 222 242 223
f 223 242 227
f 224 243 225
f 225 244 245
f 225 245 226
f 225 243 246
f 225 246 247
f 225 247 248
f 225 248 249
f 225 249 250
f 225 250 244
f 226 245 242
f 227 242 228
f 230 233 232
f 230 232 231
f 234 240 241
f 235 251 252
f 235 252 253
f 235 253 254
f 235 254 237
f 235 237 236
f 237 254 255
f 237 255 256
f 237 256 257
f 237 257 258
f 237 258 259
f 237 259 260
f 237 260 261
f 237 261 238
f 242 245 262
f 242 262 263
f 243 264 265
f 243 265 246
f 244 250 245
f 245 250 266
f 245 266 262
f 246 265 267
f 246 267 268
f 246 268 269
f 246 269 247
f 247 269 248
f 248 250 249
f 248 269 270
f 248 270 271
f 248 271 250
f 250 271 266
f 251 272 273
f 251 273 252
f 252 273 274
f 252 274 253
f 253 274 254
f 254 274 255
f 255 274 256
f 256 274 257
f 257 275 258
f 257 274 275
f 258 275 259
f 259 275 276
f 259 276 260
f 260 277 278
f 260 276 275
f 260 275 279
f 260 279 277
f 262 271 280
f 262 280 263
f 262 266 271
f 264 281 282
f 264 282 265
f 265 282 283
f 265 283 267
f 267 284 285
f 267 285 270
f 267 270 268
f 267 283 277
f 267 277 284
f 268 270 269
f 270 285 286
f 270 286 287
f 270 287 280
f 270 280 271
f 272 288 285
f 272 285 274
f 272 274 289
f 272 289 273
f 273 289 274
f 274 285 284
f 274 284 279
f 274 279 275
f 277 283 290
f 277 290 281
f 277 281 278
f 277 279 284
f 281 290 291
f 281 291 283
f 281 283 282
f 283 291 290
f 285 288 292
f 285 292 286

